G04 #@! TF.GenerationSoftware,KiCad,Pcbnew,(6.0.10)*
G04 #@! TF.CreationDate,2023-01-06T16:36:23-08:00*
G04 #@! TF.ProjectId,ai-camera,61692d63-616d-4657-9261-2e6b69636164,rev?*
G04 #@! TF.SameCoordinates,Original*
G04 #@! TF.FileFunction,Copper,L4,Bot*
G04 #@! TF.FilePolarity,Positive*
%FSLAX46Y46*%
G04 Gerber Fmt 4.6, Leading zero omitted, Abs format (unit mm)*
G04 Created by KiCad (PCBNEW (6.0.10)) date 2023-01-06 16:36:23*
%MOMM*%
%LPD*%
G01*
G04 APERTURE LIST*
G04 Aperture macros list*
%AMRoundRect*
0 Rectangle with rounded corners*
0 $1 Rounding radius*
0 $2 $3 $4 $5 $6 $7 $8 $9 X,Y pos of 4 corners*
0 Add a 4 corners polygon primitive as box body*
4,1,4,$2,$3,$4,$5,$6,$7,$8,$9,$2,$3,0*
0 Add four circle primitives for the rounded corners*
1,1,$1+$1,$2,$3*
1,1,$1+$1,$4,$5*
1,1,$1+$1,$6,$7*
1,1,$1+$1,$8,$9*
0 Add four rect primitives between the rounded corners*
20,1,$1+$1,$2,$3,$4,$5,0*
20,1,$1+$1,$4,$5,$6,$7,0*
20,1,$1+$1,$6,$7,$8,$9,0*
20,1,$1+$1,$8,$9,$2,$3,0*%
%AMFreePoly0*
4,1,22,0.500000,-0.750000,0.000000,-0.750000,0.000000,-0.745033,-0.079941,-0.743568,-0.215256,-0.701293,-0.333266,-0.622738,-0.424486,-0.514219,-0.481581,-0.384460,-0.499164,-0.250000,-0.500000,-0.250000,-0.500000,0.250000,-0.499164,0.250000,-0.499963,0.256109,-0.478152,0.396186,-0.417904,0.524511,-0.324060,0.630769,-0.204165,0.706417,-0.067858,0.745374,0.000000,0.744959,0.000000,0.750000,
0.500000,0.750000,0.500000,-0.750000,0.500000,-0.750000,$1*%
%AMFreePoly1*
4,1,20,0.000000,0.744959,0.073905,0.744508,0.209726,0.703889,0.328688,0.626782,0.421226,0.519385,0.479903,0.390333,0.500000,0.250000,0.500000,-0.250000,0.499851,-0.262216,0.476331,-0.402017,0.414519,-0.529596,0.319384,-0.634700,0.198574,-0.708877,0.061801,-0.746166,0.000000,-0.745033,0.000000,-0.750000,-0.500000,-0.750000,-0.500000,0.750000,0.000000,0.750000,0.000000,0.744959,
0.000000,0.744959,$1*%
G04 Aperture macros list end*
G04 #@! TA.AperFunction,ConnectorPad*
%ADD10C,5.600000*%
G04 #@! TD*
G04 #@! TA.AperFunction,ComponentPad*
%ADD11C,3.600000*%
G04 #@! TD*
G04 #@! TA.AperFunction,WasherPad*
%ADD12C,4.000000*%
G04 #@! TD*
G04 #@! TA.AperFunction,WasherPad*
%ADD13C,1.700000*%
G04 #@! TD*
G04 #@! TA.AperFunction,ComponentPad*
%ADD14C,1.700000*%
G04 #@! TD*
G04 #@! TA.AperFunction,ComponentPad*
%ADD15RoundRect,0.250000X-0.625000X0.350000X-0.625000X-0.350000X0.625000X-0.350000X0.625000X0.350000X0*%
G04 #@! TD*
G04 #@! TA.AperFunction,ComponentPad*
%ADD16O,1.750000X1.200000*%
G04 #@! TD*
G04 #@! TA.AperFunction,ComponentPad*
%ADD17C,1.440000*%
G04 #@! TD*
G04 #@! TA.AperFunction,ComponentPad*
%ADD18C,0.800000*%
G04 #@! TD*
G04 #@! TA.AperFunction,ComponentPad*
%ADD19O,1.550000X0.890000*%
G04 #@! TD*
G04 #@! TA.AperFunction,ComponentPad*
%ADD20O,0.950000X1.250000*%
G04 #@! TD*
G04 #@! TA.AperFunction,ComponentPad*
%ADD21R,1.700000X1.700000*%
G04 #@! TD*
G04 #@! TA.AperFunction,ComponentPad*
%ADD22O,1.700000X1.700000*%
G04 #@! TD*
G04 #@! TA.AperFunction,ComponentPad*
%ADD23R,1.524000X1.524000*%
G04 #@! TD*
G04 #@! TA.AperFunction,ComponentPad*
%ADD24C,1.524000*%
G04 #@! TD*
G04 #@! TA.AperFunction,SMDPad,CuDef*
%ADD25RoundRect,0.150000X-0.587500X-0.150000X0.587500X-0.150000X0.587500X0.150000X-0.587500X0.150000X0*%
G04 #@! TD*
G04 #@! TA.AperFunction,SMDPad,CuDef*
%ADD26RoundRect,0.250000X0.475000X-0.250000X0.475000X0.250000X-0.475000X0.250000X-0.475000X-0.250000X0*%
G04 #@! TD*
G04 #@! TA.AperFunction,SMDPad,CuDef*
%ADD27R,1.100000X3.700000*%
G04 #@! TD*
G04 #@! TA.AperFunction,SMDPad,CuDef*
%ADD28RoundRect,0.225000X0.250000X-0.225000X0.250000X0.225000X-0.250000X0.225000X-0.250000X-0.225000X0*%
G04 #@! TD*
G04 #@! TA.AperFunction,SMDPad,CuDef*
%ADD29RoundRect,0.140000X0.170000X-0.140000X0.170000X0.140000X-0.170000X0.140000X-0.170000X-0.140000X0*%
G04 #@! TD*
G04 #@! TA.AperFunction,SMDPad,CuDef*
%ADD30RoundRect,0.135000X0.185000X-0.135000X0.185000X0.135000X-0.185000X0.135000X-0.185000X-0.135000X0*%
G04 #@! TD*
G04 #@! TA.AperFunction,SMDPad,CuDef*
%ADD31RoundRect,0.135000X0.135000X0.185000X-0.135000X0.185000X-0.135000X-0.185000X0.135000X-0.185000X0*%
G04 #@! TD*
G04 #@! TA.AperFunction,SMDPad,CuDef*
%ADD32R,0.900000X1.500000*%
G04 #@! TD*
G04 #@! TA.AperFunction,SMDPad,CuDef*
%ADD33R,1.500000X0.900000*%
G04 #@! TD*
G04 #@! TA.AperFunction,ComponentPad*
%ADD34C,0.600000*%
G04 #@! TD*
G04 #@! TA.AperFunction,SMDPad,CuDef*
%ADD35R,3.900000X3.900000*%
G04 #@! TD*
G04 #@! TA.AperFunction,SMDPad,CuDef*
%ADD36RoundRect,0.140000X0.140000X0.170000X-0.140000X0.170000X-0.140000X-0.170000X0.140000X-0.170000X0*%
G04 #@! TD*
G04 #@! TA.AperFunction,SMDPad,CuDef*
%ADD37R,1.800000X1.000000*%
G04 #@! TD*
G04 #@! TA.AperFunction,SMDPad,CuDef*
%ADD38RoundRect,0.225000X0.225000X0.250000X-0.225000X0.250000X-0.225000X-0.250000X0.225000X-0.250000X0*%
G04 #@! TD*
G04 #@! TA.AperFunction,SMDPad,CuDef*
%ADD39RoundRect,0.140000X-0.170000X0.140000X-0.170000X-0.140000X0.170000X-0.140000X0.170000X0.140000X0*%
G04 #@! TD*
G04 #@! TA.AperFunction,SMDPad,CuDef*
%ADD40R,0.900000X1.200000*%
G04 #@! TD*
G04 #@! TA.AperFunction,SMDPad,CuDef*
%ADD41RoundRect,0.135000X-0.135000X-0.185000X0.135000X-0.185000X0.135000X0.185000X-0.135000X0.185000X0*%
G04 #@! TD*
G04 #@! TA.AperFunction,SMDPad,CuDef*
%ADD42RoundRect,0.250000X0.250000X0.475000X-0.250000X0.475000X-0.250000X-0.475000X0.250000X-0.475000X0*%
G04 #@! TD*
G04 #@! TA.AperFunction,SMDPad,CuDef*
%ADD43RoundRect,0.135000X-0.185000X0.135000X-0.185000X-0.135000X0.185000X-0.135000X0.185000X0.135000X0*%
G04 #@! TD*
G04 #@! TA.AperFunction,SMDPad,CuDef*
%ADD44R,3.700000X1.100000*%
G04 #@! TD*
G04 #@! TA.AperFunction,SMDPad,CuDef*
%ADD45RoundRect,0.150000X-0.150000X0.587500X-0.150000X-0.587500X0.150000X-0.587500X0.150000X0.587500X0*%
G04 #@! TD*
G04 #@! TA.AperFunction,SMDPad,CuDef*
%ADD46RoundRect,0.140000X-0.140000X-0.170000X0.140000X-0.170000X0.140000X0.170000X-0.140000X0.170000X0*%
G04 #@! TD*
G04 #@! TA.AperFunction,SMDPad,CuDef*
%ADD47FreePoly0,270.000000*%
G04 #@! TD*
G04 #@! TA.AperFunction,SMDPad,CuDef*
%ADD48FreePoly1,270.000000*%
G04 #@! TD*
G04 #@! TA.AperFunction,SMDPad,CuDef*
%ADD49RoundRect,0.150000X0.150000X-0.587500X0.150000X0.587500X-0.150000X0.587500X-0.150000X-0.587500X0*%
G04 #@! TD*
G04 #@! TA.AperFunction,SMDPad,CuDef*
%ADD50FreePoly0,180.000000*%
G04 #@! TD*
G04 #@! TA.AperFunction,SMDPad,CuDef*
%ADD51FreePoly1,180.000000*%
G04 #@! TD*
G04 #@! TA.AperFunction,SMDPad,CuDef*
%ADD52RoundRect,0.150000X0.825000X0.150000X-0.825000X0.150000X-0.825000X-0.150000X0.825000X-0.150000X0*%
G04 #@! TD*
G04 #@! TA.AperFunction,SMDPad,CuDef*
%ADD53RoundRect,0.150000X-0.150000X0.512500X-0.150000X-0.512500X0.150000X-0.512500X0.150000X0.512500X0*%
G04 #@! TD*
G04 #@! TA.AperFunction,SMDPad,CuDef*
%ADD54RoundRect,0.225000X-0.250000X0.225000X-0.250000X-0.225000X0.250000X-0.225000X0.250000X0.225000X0*%
G04 #@! TD*
G04 #@! TA.AperFunction,SMDPad,CuDef*
%ADD55R,1.200000X0.900000*%
G04 #@! TD*
G04 #@! TA.AperFunction,SMDPad,CuDef*
%ADD56RoundRect,0.225000X-0.225000X-0.250000X0.225000X-0.250000X0.225000X0.250000X-0.225000X0.250000X0*%
G04 #@! TD*
G04 #@! TA.AperFunction,SMDPad,CuDef*
%ADD57RoundRect,0.150000X0.512500X0.150000X-0.512500X0.150000X-0.512500X-0.150000X0.512500X-0.150000X0*%
G04 #@! TD*
G04 #@! TA.AperFunction,SMDPad,CuDef*
%ADD58RoundRect,0.250000X-0.250000X-0.475000X0.250000X-0.475000X0.250000X0.475000X-0.250000X0.475000X0*%
G04 #@! TD*
G04 #@! TA.AperFunction,SMDPad,CuDef*
%ADD59RoundRect,0.150000X-0.512500X-0.150000X0.512500X-0.150000X0.512500X0.150000X-0.512500X0.150000X0*%
G04 #@! TD*
G04 #@! TA.AperFunction,SMDPad,CuDef*
%ADD60RoundRect,0.250000X0.262500X0.450000X-0.262500X0.450000X-0.262500X-0.450000X0.262500X-0.450000X0*%
G04 #@! TD*
G04 #@! TA.AperFunction,SMDPad,CuDef*
%ADD61RoundRect,0.150000X0.150000X-0.512500X0.150000X0.512500X-0.150000X0.512500X-0.150000X-0.512500X0*%
G04 #@! TD*
G04 #@! TA.AperFunction,ViaPad*
%ADD62C,0.600000*%
G04 #@! TD*
G04 #@! TA.AperFunction,Conductor*
%ADD63C,0.250000*%
G04 #@! TD*
G04 #@! TA.AperFunction,Conductor*
%ADD64C,0.500000*%
G04 #@! TD*
G04 #@! TA.AperFunction,Conductor*
%ADD65C,0.127000*%
G04 #@! TD*
G04 #@! TA.AperFunction,Conductor*
%ADD66C,0.203200*%
G04 #@! TD*
G04 #@! TA.AperFunction,Conductor*
%ADD67C,0.200000*%
G04 #@! TD*
G04 APERTURE END LIST*
G36*
X106750000Y-88475000D02*
G01*
X106150000Y-88475000D01*
X106150000Y-87975000D01*
X106750000Y-87975000D01*
X106750000Y-88475000D01*
G37*
G36*
X113670000Y-68150000D02*
G01*
X113170000Y-68150000D01*
X113170000Y-67550000D01*
X113670000Y-67550000D01*
X113670000Y-68150000D01*
G37*
D10*
X100000000Y-110000000D03*
D11*
X100000000Y-110000000D03*
X100000000Y-50000000D03*
D10*
X100000000Y-50000000D03*
D12*
X119000000Y-67000000D03*
X141000000Y-67000000D03*
D13*
X121400000Y-52500000D03*
X128600000Y-52500000D03*
D14*
X127250000Y-50000000D03*
X122750000Y-50000000D03*
D15*
X109450000Y-97000000D03*
D16*
X109450000Y-99000000D03*
D17*
X109925000Y-67475000D03*
X107385000Y-70015000D03*
X109925000Y-72555000D03*
D13*
X139600000Y-52500000D03*
X132400000Y-52500000D03*
D14*
X138250000Y-50000000D03*
X133750000Y-50000000D03*
D18*
X116500000Y-74625000D03*
X116500000Y-73375000D03*
D19*
X96450000Y-81250000D03*
D20*
X99150000Y-87250000D03*
X99150000Y-82250000D03*
D19*
X96450000Y-88250000D03*
D17*
X101925000Y-67475000D03*
X99385000Y-70015000D03*
X101925000Y-72555000D03*
D11*
X160000000Y-50000000D03*
D10*
X160000000Y-50000000D03*
D21*
X151725000Y-55575000D03*
D22*
X154265000Y-55575000D03*
X151725000Y-58115000D03*
X154265000Y-58115000D03*
X151725000Y-60655000D03*
X154265000Y-60655000D03*
X151725000Y-63195000D03*
X154265000Y-63195000D03*
X151725000Y-65735000D03*
X154265000Y-65735000D03*
X151725000Y-68275000D03*
X154265000Y-68275000D03*
X151725000Y-70815000D03*
X154265000Y-70815000D03*
X151725000Y-73355000D03*
X154265000Y-73355000D03*
X151725000Y-75895000D03*
X154265000Y-75895000D03*
X151725000Y-78435000D03*
X154265000Y-78435000D03*
D11*
X160000000Y-110000000D03*
D10*
X160000000Y-110000000D03*
D23*
X106123152Y-61691848D03*
D24*
X107700000Y-60115000D03*
X107700000Y-57885000D03*
X103876848Y-56308152D03*
X102300000Y-57885000D03*
X102300000Y-60115000D03*
D25*
X113772500Y-65540000D03*
X113772500Y-63640000D03*
X115647500Y-64590000D03*
D26*
X103450000Y-99850000D03*
X103450000Y-97950000D03*
D27*
X120230000Y-90360000D03*
X123230000Y-90360000D03*
D28*
X136790000Y-81185000D03*
X136790000Y-79635000D03*
D29*
X145750000Y-105730000D03*
X145750000Y-104770000D03*
D30*
X118275000Y-88635000D03*
X118275000Y-87615000D03*
D31*
X112790000Y-99970000D03*
X111770000Y-99970000D03*
D32*
X156980000Y-99480000D03*
X155710000Y-99480000D03*
X154440000Y-99480000D03*
X153170000Y-99480000D03*
X151900000Y-99480000D03*
X150630000Y-99480000D03*
X149360000Y-99480000D03*
X148090000Y-99480000D03*
X146820000Y-99480000D03*
X145550000Y-99480000D03*
X144280000Y-99480000D03*
X143010000Y-99480000D03*
X141740000Y-99480000D03*
X140470000Y-99480000D03*
D33*
X139220000Y-97715000D03*
X139220000Y-96445000D03*
X139220000Y-95175000D03*
X139220000Y-93905000D03*
X139220000Y-92635000D03*
X139220000Y-91365000D03*
X139220000Y-90095000D03*
X139220000Y-88825000D03*
X139220000Y-87555000D03*
X139220000Y-86285000D03*
X139220000Y-85015000D03*
X139220000Y-83745000D03*
D32*
X140470000Y-81980000D03*
X141740000Y-81980000D03*
X143010000Y-81980000D03*
X144280000Y-81980000D03*
X145550000Y-81980000D03*
X146820000Y-81980000D03*
X148090000Y-81980000D03*
X149360000Y-81980000D03*
X150630000Y-81980000D03*
X151900000Y-81980000D03*
X153170000Y-81980000D03*
X154440000Y-81980000D03*
X155710000Y-81980000D03*
X156980000Y-81980000D03*
D34*
X149960000Y-92230000D03*
D35*
X149260000Y-92230000D03*
D34*
X149960000Y-93630000D03*
X149260000Y-92930000D03*
X149960000Y-90830000D03*
X147860000Y-92930000D03*
X150660000Y-92930000D03*
X147860000Y-91530000D03*
X149260000Y-91530000D03*
X148560000Y-90830000D03*
X148560000Y-92230000D03*
X150660000Y-91530000D03*
X148560000Y-93630000D03*
D36*
X105155000Y-75875000D03*
X104195000Y-75875000D03*
D37*
X154925000Y-107275000D03*
X154925000Y-104775000D03*
D38*
X113250000Y-75100000D03*
X111700000Y-75100000D03*
D39*
X141580000Y-70130000D03*
X141580000Y-71090000D03*
D40*
X104425000Y-90125000D03*
X101125000Y-90125000D03*
D41*
X104190000Y-74825000D03*
X105210000Y-74825000D03*
D38*
X108645000Y-47955000D03*
X107095000Y-47955000D03*
D42*
X112600000Y-76900000D03*
X110700000Y-76900000D03*
D39*
X156620000Y-101030000D03*
X156620000Y-101990000D03*
D28*
X124750000Y-111150000D03*
X124750000Y-109600000D03*
D25*
X108775000Y-84175000D03*
X108775000Y-82275000D03*
X110650000Y-83225000D03*
D29*
X105720000Y-55060000D03*
X105720000Y-54100000D03*
D30*
X107550000Y-95985000D03*
X107550000Y-94965000D03*
X145750000Y-109635000D03*
X145750000Y-108615000D03*
D39*
X129260000Y-106130000D03*
X129260000Y-107090000D03*
D28*
X124440000Y-106845000D03*
X124440000Y-105295000D03*
D43*
X140800000Y-105110000D03*
X140800000Y-106130000D03*
D36*
X111500000Y-53392500D03*
X110540000Y-53392500D03*
D44*
X136240000Y-78070000D03*
X136240000Y-75070000D03*
D43*
X108350000Y-66690000D03*
X108350000Y-67710000D03*
D45*
X126325000Y-108987500D03*
X128225000Y-108987500D03*
X127275000Y-110862500D03*
D43*
X103525000Y-66615000D03*
X103525000Y-67635000D03*
D31*
X111005000Y-48167500D03*
X109985000Y-48167500D03*
D46*
X113120000Y-90010000D03*
X114080000Y-90010000D03*
D47*
X106450000Y-87575000D03*
D48*
X106450000Y-88875000D03*
D41*
X113090000Y-88970000D03*
X114110000Y-88970000D03*
D26*
X134970000Y-81590000D03*
X134970000Y-79690000D03*
D30*
X112235000Y-65850000D03*
X112235000Y-64830000D03*
D39*
X110425000Y-74445000D03*
X110425000Y-75405000D03*
D49*
X109020000Y-51617500D03*
X107120000Y-51617500D03*
X108070000Y-49742500D03*
D39*
X157630000Y-101020000D03*
X157630000Y-101980000D03*
D31*
X114100000Y-87930000D03*
X113080000Y-87930000D03*
D50*
X114070000Y-67850000D03*
D51*
X112770000Y-67850000D03*
D52*
X152475000Y-104795000D03*
X152475000Y-106065000D03*
X152475000Y-107335000D03*
X152475000Y-108605000D03*
X147525000Y-108605000D03*
X147525000Y-107335000D03*
X147525000Y-106065000D03*
X147525000Y-104795000D03*
D53*
X139395000Y-75692500D03*
X140345000Y-75692500D03*
X141295000Y-75692500D03*
X141295000Y-77967500D03*
X140345000Y-77967500D03*
X139395000Y-77967500D03*
D54*
X141850000Y-72365000D03*
X141850000Y-73915000D03*
D53*
X110620000Y-49655000D03*
X111570000Y-49655000D03*
X112520000Y-49655000D03*
X112520000Y-51930000D03*
X111570000Y-51930000D03*
X110620000Y-51930000D03*
D41*
X111935000Y-48167500D03*
X112955000Y-48167500D03*
D40*
X104425000Y-87725000D03*
X101125000Y-87725000D03*
D25*
X142337500Y-107325000D03*
X142337500Y-105425000D03*
X144212500Y-106375000D03*
D43*
X107237500Y-85015000D03*
X107237500Y-86035000D03*
D30*
X106212500Y-86035000D03*
X106212500Y-85015000D03*
D55*
X139810000Y-70640000D03*
X139810000Y-73940000D03*
D56*
X156865000Y-103230000D03*
X158415000Y-103230000D03*
D30*
X141560000Y-80380000D03*
X141560000Y-79360000D03*
D43*
X140800000Y-108630000D03*
X140800000Y-109650000D03*
D28*
X155350000Y-102865000D03*
X155350000Y-101315000D03*
D56*
X107095000Y-53430000D03*
X108645000Y-53430000D03*
D39*
X149230000Y-79360000D03*
X149230000Y-80320000D03*
D57*
X117835000Y-89910000D03*
X117835000Y-90860000D03*
X117835000Y-91810000D03*
X115560000Y-91810000D03*
X115560000Y-89910000D03*
D54*
X143400000Y-72355000D03*
X143400000Y-73905000D03*
D41*
X108940000Y-95240000D03*
X109960000Y-95240000D03*
D42*
X119690000Y-93630000D03*
X117790000Y-93630000D03*
D58*
X113700000Y-93620000D03*
X115600000Y-93620000D03*
D28*
X119695000Y-111125000D03*
X119695000Y-109575000D03*
D36*
X105155000Y-76925000D03*
X104195000Y-76925000D03*
D59*
X106637500Y-76650000D03*
X106637500Y-75700000D03*
X106637500Y-74750000D03*
X108912500Y-74750000D03*
X108912500Y-75700000D03*
X108912500Y-76650000D03*
D43*
X145750000Y-106665000D03*
X145750000Y-107685000D03*
D39*
X128270000Y-106140000D03*
X128270000Y-107100000D03*
D40*
X111850000Y-89650000D03*
X108550000Y-89650000D03*
D58*
X156910000Y-105030000D03*
X158810000Y-105030000D03*
D30*
X106600000Y-96010000D03*
X106600000Y-94990000D03*
D41*
X108940000Y-94190000D03*
X109960000Y-94190000D03*
D54*
X105275000Y-94150000D03*
X105275000Y-95700000D03*
D28*
X126990000Y-106845000D03*
X126990000Y-105295000D03*
D43*
X112260000Y-61355000D03*
X112260000Y-62375000D03*
D28*
X106987500Y-83800000D03*
X106987500Y-82250000D03*
D42*
X119680000Y-95690000D03*
X117780000Y-95690000D03*
D54*
X129760000Y-108735000D03*
X129760000Y-110285000D03*
D60*
X115237500Y-85650000D03*
X113412500Y-85650000D03*
D45*
X121245000Y-108987500D03*
X123145000Y-108987500D03*
X122195000Y-110862500D03*
D39*
X125710000Y-106120000D03*
X125710000Y-107080000D03*
D25*
X142337500Y-110850000D03*
X142337500Y-108950000D03*
X144212500Y-109900000D03*
D61*
X107175000Y-99712500D03*
X106225000Y-99712500D03*
X105275000Y-99712500D03*
X105275000Y-97437500D03*
X106225000Y-97437500D03*
X107175000Y-97437500D03*
D25*
X113797500Y-62040000D03*
X113797500Y-60140000D03*
X115672500Y-61090000D03*
D29*
X139100000Y-80330000D03*
X139100000Y-79370000D03*
D41*
X111760000Y-98950000D03*
X112780000Y-98950000D03*
D25*
X108775000Y-87650000D03*
X108775000Y-85750000D03*
X110650000Y-86700000D03*
D62*
X122350000Y-71750000D03*
X129500000Y-104500000D03*
X110910000Y-100100000D03*
X105930000Y-100920000D03*
X111407500Y-48167500D03*
X156450000Y-80650000D03*
X141820000Y-89990000D03*
X159170000Y-103270000D03*
X117290000Y-88340000D03*
X144968517Y-93351483D03*
X115750000Y-96250000D03*
X124760000Y-108840000D03*
X139740000Y-80360000D03*
X143343931Y-89185097D03*
X115000000Y-96250000D03*
X131750000Y-104250000D03*
X103710000Y-75540000D03*
X141700000Y-96840000D03*
X128670000Y-110706998D03*
X158140000Y-55970000D03*
X112950000Y-112300000D03*
X118500000Y-59975000D03*
X147400000Y-52010000D03*
X116500000Y-88500000D03*
X102110000Y-86600000D03*
X126000000Y-86500000D03*
X136553500Y-82100000D03*
X136000000Y-108200000D03*
X115428698Y-79676500D03*
X122200000Y-98000000D03*
X156980000Y-97620000D03*
X124490000Y-107940000D03*
X153873501Y-85184986D03*
X103690000Y-76350000D03*
X133180000Y-57380000D03*
X129230000Y-105310000D03*
X113640000Y-59460000D03*
X142167739Y-91980000D03*
X126990001Y-104430001D03*
X125900000Y-73270000D03*
X160500000Y-57000000D03*
X108690000Y-54100000D03*
X125740000Y-105384672D03*
X147460000Y-80450000D03*
X124250000Y-84000000D03*
X126000000Y-92500000D03*
X121440000Y-96330000D03*
X147775000Y-109350000D03*
X144300000Y-95590000D03*
X145610000Y-56110000D03*
X115547039Y-88332961D03*
X110510000Y-73880000D03*
X143400000Y-71660000D03*
X113520000Y-77270000D03*
X126000000Y-89500000D03*
X155610000Y-80650000D03*
X134000000Y-86500000D03*
X156710000Y-79890000D03*
X158080000Y-102450000D03*
X154350000Y-108790735D03*
X146350000Y-89325000D03*
X140950000Y-80360000D03*
X126000000Y-95500000D03*
X156220000Y-102330000D03*
X120530000Y-94720000D03*
X142140000Y-70130000D03*
X108500000Y-110500000D03*
X143370000Y-97470000D03*
X126000000Y-98500000D03*
X150310000Y-50340000D03*
X151860000Y-85260000D03*
X118000000Y-83000000D03*
X109850000Y-51190000D03*
X140330000Y-74816502D03*
X147500000Y-111485000D03*
X134000000Y-98500000D03*
X126000000Y-83500000D03*
X130860000Y-108210000D03*
X104890000Y-54120000D03*
X137956500Y-82178949D03*
X134000000Y-89500000D03*
X112200000Y-111650000D03*
X114790000Y-63620000D03*
X103730000Y-74820000D03*
X103680000Y-74090000D03*
X134000000Y-92500000D03*
X159630000Y-78200000D03*
X145525000Y-95250000D03*
X116250000Y-86190000D03*
X119223500Y-50125000D03*
X133997694Y-83502130D03*
X112190000Y-66270000D03*
X110450000Y-112300000D03*
X124440000Y-104380000D03*
X150575000Y-107825000D03*
X110710000Y-53980000D03*
X115000000Y-95500000D03*
X136500000Y-107000000D03*
X157450000Y-98230000D03*
X107000000Y-106500000D03*
X109830000Y-80540000D03*
X150050000Y-52370000D03*
X108500000Y-106500000D03*
X160500000Y-64500000D03*
X115750000Y-95500000D03*
X134000000Y-95500000D03*
X114090000Y-75100000D03*
X131290000Y-74600000D03*
X137650000Y-94250000D03*
X139480000Y-71640000D03*
X127840000Y-103460000D03*
X119500000Y-87500000D03*
X105792309Y-73853500D03*
X155370000Y-103420000D03*
X159040000Y-70250000D03*
X134140000Y-108200000D03*
X100300000Y-86120000D03*
X108850000Y-48550000D03*
X125950000Y-109020000D03*
X116336727Y-80681903D03*
X148853500Y-78463759D03*
X133250000Y-104273497D03*
X103780000Y-96840000D03*
X152930000Y-111680000D03*
X106000000Y-109500000D03*
X126000000Y-80500000D03*
X104570000Y-93480000D03*
X118000000Y-80500000D03*
X112250000Y-60890000D03*
X134730000Y-58090000D03*
X118000000Y-79019920D03*
X110625000Y-93850000D03*
X105920000Y-75720000D03*
X144970000Y-104360000D03*
X156530000Y-98240000D03*
X119690000Y-108700000D03*
X111200000Y-111650000D03*
X159487498Y-105007498D03*
X110650000Y-95425000D03*
X152585000Y-83500000D03*
X135508609Y-104508609D03*
X117090935Y-49165781D03*
X145301500Y-67100000D03*
X134660000Y-82300000D03*
X158100000Y-62400000D03*
X115500000Y-111000000D03*
X121160000Y-107900000D03*
X145096500Y-58540000D03*
X107500000Y-86600000D03*
X124250000Y-86500000D03*
X154598237Y-85846180D03*
X163000000Y-112000000D03*
X164000000Y-110000000D03*
X137000000Y-114000000D03*
X164000000Y-101000000D03*
X96000000Y-56000000D03*
X139000000Y-46000000D03*
X154000000Y-46000000D03*
X101000000Y-95000000D03*
X101000000Y-101000000D03*
X164000000Y-50000000D03*
X143000000Y-114000000D03*
X157000000Y-46000000D03*
X151000000Y-46000000D03*
X96000000Y-107000000D03*
X146000000Y-114000000D03*
X101000000Y-114000000D03*
X164000000Y-74000000D03*
X164000000Y-65000000D03*
X103000000Y-46000000D03*
X97500000Y-113000000D03*
X121000000Y-46000000D03*
X107000000Y-114000000D03*
X131000000Y-114000000D03*
X97000000Y-90000000D03*
X148000000Y-46000000D03*
X155000000Y-114000000D03*
X122000000Y-114000000D03*
X127000000Y-46000000D03*
X160000000Y-46000000D03*
X164000000Y-77000000D03*
X109000000Y-46000000D03*
X96000000Y-71000000D03*
X164000000Y-104000000D03*
X164000000Y-62000000D03*
X104000000Y-114000000D03*
X164000000Y-68000000D03*
X98000000Y-105000000D03*
X136000000Y-46000000D03*
X96000000Y-74000000D03*
X164000000Y-71000000D03*
X97500000Y-47500000D03*
X110000000Y-114000000D03*
X161000000Y-114000000D03*
X162500000Y-47500000D03*
X140000000Y-114000000D03*
X100000000Y-92000000D03*
X164000000Y-56000000D03*
X164000000Y-59000000D03*
X152000000Y-114000000D03*
X96000000Y-62000000D03*
X101000000Y-98000000D03*
X96000000Y-68000000D03*
X96000000Y-77000000D03*
X133000000Y-46000000D03*
X116000000Y-114000000D03*
X128000000Y-114000000D03*
X134000000Y-114000000D03*
X113000000Y-114000000D03*
X164000000Y-53000000D03*
X115000000Y-46000000D03*
X119000000Y-114000000D03*
X164000000Y-107000000D03*
X96000000Y-50000000D03*
X142000000Y-46000000D03*
X96000000Y-53000000D03*
X149000000Y-114000000D03*
X164000000Y-80000000D03*
X106000000Y-46000000D03*
X124000000Y-46000000D03*
X112000000Y-46000000D03*
X100000000Y-46000000D03*
X125000000Y-114000000D03*
X96000000Y-59000000D03*
X118000000Y-46000000D03*
X96000000Y-65000000D03*
X96000000Y-110000000D03*
X158000000Y-114000000D03*
X130000000Y-46000000D03*
X145000000Y-46000000D03*
X134720000Y-57360000D03*
X133950000Y-57450000D03*
X113500000Y-92000000D03*
X102980000Y-70520000D03*
X105664854Y-51589854D03*
X105152354Y-52102354D03*
X106900000Y-79880000D03*
X111500000Y-55300000D03*
X113000000Y-90500000D03*
X117037359Y-80489754D03*
X123000000Y-96000000D03*
X156048292Y-100617256D03*
X118040000Y-51530000D03*
X149200000Y-48590000D03*
X121000000Y-95500000D03*
X149860000Y-48600000D03*
X118050000Y-52260000D03*
X117000000Y-79000000D03*
X151270000Y-52370000D03*
X123000000Y-95000000D03*
X117000000Y-81500000D03*
X117000000Y-78000000D03*
X129260000Y-107990000D03*
X157100000Y-106150000D03*
X155500000Y-97000000D03*
X140500000Y-82000000D03*
X120500000Y-87500000D03*
X160500000Y-63500000D03*
X118000000Y-83771900D03*
X109500000Y-107000000D03*
X154480000Y-99410000D03*
X115403517Y-111903517D03*
X146500000Y-111485000D03*
X160500000Y-56000000D03*
X145301500Y-66230000D03*
X148240000Y-79760000D03*
X125749999Y-107743728D03*
X123120000Y-107840000D03*
X127150000Y-109090000D03*
X128340000Y-105433500D03*
X133250000Y-103500000D03*
X102500000Y-78500000D03*
X102500000Y-79500000D03*
X101500000Y-78500000D03*
X101780000Y-90150000D03*
X107120522Y-100302123D03*
X107696636Y-93214154D03*
X124180000Y-84865000D03*
X124180000Y-85715000D03*
X108500000Y-103500000D03*
X108500000Y-109500000D03*
X153446490Y-84395027D03*
X151858497Y-83500000D03*
X107000000Y-103500000D03*
X106000000Y-108500000D03*
X117140000Y-64772599D03*
X125200000Y-94000000D03*
X150600000Y-106800000D03*
X134600000Y-94400000D03*
X136500000Y-106250000D03*
X135250000Y-108200000D03*
X136250000Y-104500000D03*
X133260000Y-108200000D03*
X133250000Y-105500000D03*
X131750000Y-105500000D03*
X130750000Y-103750000D03*
X130250000Y-105500000D03*
X141230303Y-92112662D03*
X144070000Y-89160000D03*
X143348630Y-96743812D03*
X143450000Y-94930000D03*
X144830000Y-94330000D03*
X137920000Y-97070000D03*
X141760000Y-97640000D03*
X141990000Y-104360000D03*
X126280000Y-103390000D03*
X156500000Y-83690000D03*
X135550000Y-100080000D03*
X142320000Y-109990000D03*
X134430000Y-99330000D03*
X124580000Y-103150000D03*
X141190000Y-83763500D03*
X137430000Y-90170000D03*
X106169340Y-96837201D03*
X107280000Y-94250000D03*
X149540000Y-50170000D03*
X148530000Y-52270000D03*
X140433517Y-71986483D03*
X140350000Y-79090000D03*
X131280000Y-75570000D03*
X115260000Y-84120000D03*
X144325000Y-108825000D03*
X146850000Y-107325000D03*
X147075000Y-109650000D03*
X144175000Y-110525000D03*
X119175000Y-89950000D03*
X134800000Y-97400000D03*
X137040000Y-88860000D03*
X121400000Y-97400000D03*
X152000000Y-111620000D03*
X113020000Y-100640000D03*
X154775000Y-84450000D03*
X135280000Y-83280000D03*
X140580000Y-86800000D03*
X145750000Y-88450000D03*
X140550000Y-85090000D03*
X122360000Y-70840000D03*
X125090000Y-73340000D03*
X141540000Y-77640000D03*
D63*
X113797500Y-60140000D02*
X113797500Y-59617500D01*
D64*
X114829077Y-87615000D02*
X114447077Y-87233000D01*
X159464996Y-105030000D02*
X159487498Y-105007498D01*
X134970000Y-81990000D02*
X134660000Y-82300000D01*
X155350000Y-102865000D02*
X155350000Y-103400000D01*
X105240000Y-94150000D02*
X104570000Y-93480000D01*
X156980000Y-81980000D02*
X156980000Y-80160000D01*
D65*
X110465000Y-95240000D02*
X110650000Y-95425000D01*
D64*
X113250000Y-75100000D02*
X114090000Y-75100000D01*
X158810000Y-105030000D02*
X159464996Y-105030000D01*
X116795500Y-89581423D02*
X116795500Y-92635500D01*
D63*
X111407500Y-48167500D02*
X111935000Y-48167500D01*
D64*
X156980000Y-80730000D02*
X156900000Y-80650000D01*
X118275000Y-87615000D02*
X114829077Y-87615000D01*
D63*
X145750000Y-104770000D02*
X145380000Y-104770000D01*
D65*
X107237500Y-86337500D02*
X107500000Y-86600000D01*
D63*
X125710000Y-105414672D02*
X125740000Y-105384672D01*
X108690000Y-53475000D02*
X108690000Y-54100000D01*
X108645000Y-48345000D02*
X108850000Y-48550000D01*
X112260000Y-60900000D02*
X112250000Y-60890000D01*
X106637500Y-75700000D02*
X105940000Y-75700000D01*
X157630000Y-102000000D02*
X158080000Y-102450000D01*
D64*
X116795500Y-91441709D02*
X117377209Y-90860000D01*
D63*
X112235000Y-65850000D02*
X112235000Y-66225000D01*
X104195000Y-75875000D02*
X104195000Y-76925000D01*
D65*
X107237500Y-86035000D02*
X107237500Y-86337500D01*
X140970000Y-80380000D02*
X140950000Y-80360000D01*
D63*
X110425000Y-74445000D02*
X110425000Y-73965000D01*
X109020000Y-51617500D02*
X109422500Y-51617500D01*
X112260000Y-61355000D02*
X112260000Y-60900000D01*
X111570000Y-49655000D02*
X111570000Y-48330000D01*
X112235000Y-66225000D02*
X112190000Y-66270000D01*
D64*
X103450000Y-97950000D02*
X103450000Y-97170000D01*
D63*
X104190000Y-74600000D02*
X103680000Y-74090000D01*
D64*
X156980000Y-81180000D02*
X156450000Y-80650000D01*
X155350000Y-103400000D02*
X155370000Y-103420000D01*
X136790000Y-81185000D02*
X136790000Y-81863500D01*
X117377209Y-90860000D02*
X117835000Y-90860000D01*
D63*
X104195000Y-76855000D02*
X103690000Y-76350000D01*
D64*
X156980000Y-99480000D02*
X156980000Y-98690000D01*
X156980000Y-98700000D02*
X157450000Y-98230000D01*
D63*
X153274265Y-108605000D02*
X153460000Y-108790735D01*
D64*
X116795500Y-92635500D02*
X116795500Y-91441709D01*
D63*
X104045000Y-75875000D02*
X103710000Y-75540000D01*
D65*
X140345000Y-75692500D02*
X140345000Y-74831502D01*
D63*
X119695000Y-108705000D02*
X119690000Y-108700000D01*
X153460000Y-108790735D02*
X154350000Y-108790735D01*
X126990000Y-105295000D02*
X126990001Y-104430001D01*
D64*
X156980000Y-81980000D02*
X156980000Y-81180000D01*
X156980000Y-81980000D02*
X156980000Y-80730000D01*
D63*
X126325000Y-108987500D02*
X125982500Y-108987500D01*
D64*
X159130000Y-103230000D02*
X159170000Y-103270000D01*
D63*
X105940000Y-75700000D02*
X105920000Y-75720000D01*
D64*
X113752923Y-87233000D02*
X114447077Y-87233000D01*
D63*
X113797500Y-59617500D02*
X113640000Y-59460000D01*
D64*
X136790000Y-81863500D02*
X136553500Y-82100000D01*
D63*
X109422500Y-51617500D02*
X109850000Y-51190000D01*
D64*
X115237500Y-85650000D02*
X115710000Y-85650000D01*
X115710000Y-85650000D02*
X116250000Y-86190000D01*
D63*
X129260000Y-106130000D02*
X128280000Y-106130000D01*
X145380000Y-104770000D02*
X144970000Y-104360000D01*
D64*
X156980000Y-99480000D02*
X156980000Y-97620000D01*
D63*
X129260000Y-105340000D02*
X129230000Y-105310000D01*
D64*
X106225000Y-100625000D02*
X105930000Y-100920000D01*
D65*
X139710000Y-80330000D02*
X139740000Y-80360000D01*
D64*
X156980000Y-99480000D02*
X156980000Y-98700000D01*
D63*
X129760000Y-110285000D02*
X129338002Y-110706998D01*
X121245000Y-107985000D02*
X121160000Y-107900000D01*
X113772500Y-63640000D02*
X114770000Y-63640000D01*
D65*
X149230000Y-78840259D02*
X148853500Y-78463759D01*
D63*
X124440000Y-105295000D02*
X124440000Y-104380000D01*
X124750000Y-108850000D02*
X124760000Y-108840000D01*
X124750000Y-109600000D02*
X124750000Y-108850000D01*
D64*
X111770000Y-99970000D02*
X111040000Y-99970000D01*
D63*
X104910000Y-54100000D02*
X104890000Y-54120000D01*
X129338002Y-110706998D02*
X128670000Y-110706998D01*
D65*
X139100000Y-80330000D02*
X139710000Y-80330000D01*
D64*
X156980000Y-98690000D02*
X156530000Y-98240000D01*
D63*
X111005000Y-48167500D02*
X111407500Y-48167500D01*
D65*
X140345000Y-74831502D02*
X140330000Y-74816502D01*
D63*
X156560000Y-101990000D02*
X156220000Y-102330000D01*
D64*
X111040000Y-99970000D02*
X110910000Y-100100000D01*
X112600000Y-76900000D02*
X113150000Y-76900000D01*
D63*
X125710000Y-106120000D02*
X125710000Y-105414672D01*
D64*
X114447077Y-87233000D02*
X116795500Y-89581423D01*
D63*
X110540000Y-53392500D02*
X110540000Y-53810000D01*
X103735000Y-74825000D02*
X103730000Y-74820000D01*
D65*
X141580000Y-70130000D02*
X142140000Y-70130000D01*
D63*
X108645000Y-47955000D02*
X108645000Y-48345000D01*
X104190000Y-74825000D02*
X104190000Y-74600000D01*
X110425000Y-73965000D02*
X110510000Y-73880000D01*
D65*
X141560000Y-80380000D02*
X140970000Y-80380000D01*
D64*
X156900000Y-80650000D02*
X155610000Y-80650000D01*
D63*
X125982500Y-108987500D02*
X125950000Y-109020000D01*
D64*
X113150000Y-76900000D02*
X113520000Y-77270000D01*
D65*
X143400000Y-72355000D02*
X143400000Y-71660000D01*
D64*
X113080000Y-87905923D02*
X113752923Y-87233000D01*
D63*
X104190000Y-74825000D02*
X104190000Y-75870000D01*
D65*
X109960000Y-94190000D02*
X110285000Y-94190000D01*
D64*
X156980000Y-80160000D02*
X156710000Y-79890000D01*
D63*
X110590000Y-51930000D02*
X109850000Y-51190000D01*
X104190000Y-74825000D02*
X103735000Y-74825000D01*
D65*
X109960000Y-95240000D02*
X110465000Y-95240000D01*
D63*
X114770000Y-63640000D02*
X114790000Y-63620000D01*
D64*
X134970000Y-81590000D02*
X134970000Y-81990000D01*
D63*
X111570000Y-48330000D02*
X111407500Y-48167500D01*
D64*
X106225000Y-99712500D02*
X106225000Y-100625000D01*
D65*
X110285000Y-94190000D02*
X110625000Y-93850000D01*
D63*
X105720000Y-54100000D02*
X104910000Y-54100000D01*
D64*
X158415000Y-103230000D02*
X159130000Y-103230000D01*
D63*
X129260000Y-106130000D02*
X129260000Y-105340000D01*
D64*
X103450000Y-97170000D02*
X103780000Y-96840000D01*
D63*
X121245000Y-108987500D02*
X121245000Y-107985000D01*
X110540000Y-53810000D02*
X110710000Y-53980000D01*
D65*
X149230000Y-79360000D02*
X149230000Y-78840259D01*
D64*
X117790000Y-93630000D02*
X116795500Y-92635500D01*
D63*
X119695000Y-109575000D02*
X119695000Y-108705000D01*
D64*
X134040000Y-57360000D02*
X136130000Y-57360000D01*
X113980000Y-93900000D02*
X113980000Y-106736357D01*
X142092000Y-76928000D02*
X139976709Y-76928000D01*
X145230000Y-65050000D02*
X145480000Y-65050000D01*
X145831148Y-105730000D02*
X145750000Y-105730000D01*
X103227270Y-77836500D02*
X102969784Y-77836500D01*
X145053000Y-107337923D02*
X145053000Y-109053000D01*
X133950000Y-57450000D02*
X134040000Y-57360000D01*
X145750000Y-105730000D02*
X145750000Y-106665000D01*
X119253642Y-112009999D02*
X130277364Y-112009999D01*
X141630000Y-57360000D02*
X136170000Y-57360000D01*
X154265000Y-55575000D02*
X154265000Y-54265000D01*
X144976500Y-110830216D02*
X144976500Y-110618791D01*
X102573500Y-77440216D02*
X102573500Y-76879784D01*
X114500000Y-80500000D02*
X113000000Y-79000000D01*
X112000000Y-86000000D02*
X112000000Y-84500000D01*
X102573500Y-76879784D02*
X102748498Y-76704786D01*
X146160000Y-72860000D02*
X142092000Y-76928000D01*
X104390770Y-79000000D02*
X103227270Y-77836500D01*
X144976500Y-110618791D02*
X145750000Y-109845291D01*
X146160000Y-65730000D02*
X146160000Y-72860000D01*
X102748498Y-76704786D02*
X102748498Y-73282895D01*
X144279716Y-111527000D02*
X144976500Y-110830216D01*
X136130000Y-57360000D02*
X137540000Y-57360000D01*
X111300000Y-86700000D02*
X112000000Y-86000000D01*
X137540000Y-57360000D02*
X145230000Y-65050000D01*
X112000000Y-84500000D02*
X114500000Y-82000000D01*
X103022000Y-73009393D02*
X103022000Y-70522000D01*
X113700000Y-93620000D02*
X113980000Y-93900000D01*
X147525000Y-104795000D02*
X146766148Y-104795000D01*
X145053000Y-109053000D02*
X145635000Y-109635000D01*
X139395000Y-77509709D02*
X139395000Y-77967500D01*
X153500000Y-53500000D02*
X145490000Y-53500000D01*
X140640288Y-111527000D02*
X144279716Y-111527000D01*
X114500000Y-82000000D02*
X114500000Y-80500000D01*
X145725923Y-106665000D02*
X145053000Y-107337923D01*
X110650000Y-86700000D02*
X111300000Y-86700000D01*
X136170000Y-57360000D02*
X134720000Y-57360000D01*
X139976709Y-76928000D02*
X139395000Y-77509709D01*
X108070000Y-49070000D02*
X108070000Y-49742500D01*
X108070000Y-49742500D02*
X107153705Y-49742500D01*
X102969784Y-77836500D02*
X102573500Y-77440216D01*
X105989999Y-51264709D02*
X105664854Y-51589854D01*
X113000000Y-79000000D02*
X104390770Y-79000000D01*
X107153705Y-49742500D02*
X105989999Y-50906206D01*
X107095000Y-48095000D02*
X108070000Y-49070000D01*
X113980000Y-106736357D02*
X119253642Y-112009999D01*
X102748498Y-73282895D02*
X103022000Y-73009393D01*
X130277364Y-112009999D02*
X130862363Y-111425000D01*
X140538288Y-111425000D02*
X140640288Y-111527000D01*
X146766148Y-104795000D02*
X145831148Y-105730000D01*
X105152354Y-52102354D02*
X105664854Y-51589854D01*
X154265000Y-54265000D02*
X153500000Y-53500000D01*
X145490000Y-53500000D02*
X141630000Y-57360000D01*
X145635000Y-109635000D02*
X145750000Y-109635000D01*
X105989999Y-50906206D02*
X105989999Y-51264709D01*
X130862363Y-111425000D02*
X140538288Y-111425000D01*
X145750000Y-109845291D02*
X145750000Y-109635000D01*
X136130000Y-57360000D02*
X136170000Y-57360000D01*
X145480000Y-65050000D02*
X146160000Y-65730000D01*
X102348000Y-97385288D02*
X102900000Y-96833288D01*
X102900000Y-96833288D02*
X102900000Y-85011143D01*
X107411143Y-80391143D02*
X106900000Y-79880000D01*
X112000000Y-81650000D02*
X112000000Y-82875000D01*
X111650000Y-83225000D02*
X110650000Y-83225000D01*
X103450000Y-99850000D02*
X102348000Y-98748000D01*
X110210000Y-79860000D02*
X112000000Y-81650000D01*
X102900000Y-85011143D02*
X107411143Y-80500000D01*
X107411143Y-80500000D02*
X108051143Y-79860000D01*
X112000000Y-82875000D02*
X111650000Y-83225000D01*
X108051143Y-79860000D02*
X110210000Y-79860000D01*
X102348000Y-98748000D02*
X102348000Y-97385288D01*
X107411143Y-80500000D02*
X107411143Y-80391143D01*
D65*
X110999500Y-52892000D02*
X111500000Y-53392500D01*
X105720000Y-55060000D02*
X104940000Y-55060000D01*
X107095000Y-54105000D02*
X106140000Y-55060000D01*
X107095000Y-53430000D02*
X107095000Y-51642500D01*
X110310460Y-52764500D02*
X110437960Y-52892000D01*
X111350000Y-53542500D02*
X111350000Y-55150000D01*
X107095000Y-53430000D02*
X107095000Y-54105000D01*
X111500000Y-53392500D02*
X111350000Y-53542500D01*
X106140000Y-55060000D02*
X105720000Y-55060000D01*
X104940000Y-55060000D02*
X103876848Y-56123152D01*
X111350000Y-55150000D02*
X111500000Y-55300000D01*
X107760500Y-52764500D02*
X110310460Y-52764500D01*
X111570000Y-52124040D02*
X110911040Y-52783000D01*
X103876848Y-66263152D02*
X103876848Y-56308152D01*
X110437960Y-52892000D02*
X110999500Y-52892000D01*
X110328960Y-52783000D02*
X110310460Y-52764500D01*
X110911040Y-52783000D02*
X110328960Y-52783000D01*
X107095000Y-53430000D02*
X107760500Y-52764500D01*
X103525000Y-66615000D02*
X103876848Y-66263152D01*
X108350000Y-66690000D02*
X103600000Y-66690000D01*
D64*
X129260000Y-108235000D02*
X129760000Y-108735000D01*
X117037359Y-80537359D02*
X117037359Y-80489754D01*
X157132000Y-106132000D02*
X156910000Y-105910000D01*
X155710000Y-97210000D02*
X155500000Y-97000000D01*
X149200000Y-48590000D02*
X149890000Y-48590000D01*
X129760000Y-108785000D02*
X129760000Y-108735000D01*
X131078000Y-110323357D02*
X131078000Y-110103000D01*
X119500000Y-83000000D02*
X118000000Y-81500000D01*
X112123500Y-78323500D02*
X116323500Y-78323500D01*
X141675000Y-107325000D02*
X142337500Y-107325000D01*
X140850000Y-110850000D02*
X142337500Y-110850000D01*
X156461036Y-101030000D02*
X156048292Y-100617256D01*
X127275000Y-110862500D02*
X127795998Y-111383498D01*
X140800000Y-108200000D02*
X141675000Y-107325000D01*
X118000000Y-81500000D02*
X117000000Y-81500000D01*
X140235923Y-110130000D02*
X140955923Y-110850000D01*
X155710000Y-99480000D02*
X155710000Y-97210000D01*
X110425000Y-76625000D02*
X110700000Y-76900000D01*
X156620000Y-101030000D02*
X156461036Y-101030000D01*
X119680000Y-95690000D02*
X119680000Y-96636716D01*
X140955923Y-110850000D02*
X142337500Y-110850000D01*
X127795998Y-111383498D02*
X130017859Y-111383498D01*
X118040000Y-50920000D02*
X118040000Y-50030000D01*
X119680000Y-96636716D02*
X122195000Y-99151716D01*
X110950216Y-75176500D02*
X110653500Y-75176500D01*
X111070216Y-75146500D02*
X110980216Y-75146500D01*
X140775923Y-108630000D02*
X140103000Y-109302923D01*
X140950923Y-107325000D02*
X140103000Y-106477077D01*
D66*
X113120000Y-90380000D02*
X113000000Y-90500000D01*
D64*
X129260000Y-107090000D02*
X129260000Y-108235000D01*
X140103000Y-106477077D02*
X140103000Y-105782923D01*
X118040000Y-50920000D02*
X118040000Y-51530000D01*
X113120000Y-89000000D02*
X113090000Y-88970000D01*
X119480000Y-48590000D02*
X149200000Y-48590000D01*
X110980216Y-75146500D02*
X110950216Y-75176500D01*
X140103000Y-109302923D02*
X140103000Y-110103000D01*
X151270000Y-49970000D02*
X151270000Y-52370000D01*
X116676500Y-78323500D02*
X117000000Y-78000000D01*
X131078000Y-110103000D02*
X129760000Y-108785000D01*
X156910000Y-105030000D02*
X156910000Y-103275000D01*
X119957500Y-110862500D02*
X119695000Y-111125000D01*
X118640000Y-51780000D02*
X118640000Y-51520000D01*
X116323500Y-78323500D02*
X117000000Y-79000000D01*
X111700000Y-75100000D02*
X111116716Y-75100000D01*
X118000000Y-81500000D02*
X117037359Y-80537359D01*
X140103000Y-110103000D02*
X140850000Y-110850000D01*
X122195000Y-110862500D02*
X119957500Y-110862500D01*
X122195000Y-99151716D02*
X122195000Y-110862500D01*
X124750000Y-111150000D02*
X122482500Y-111150000D01*
X142337500Y-107325000D02*
X140950923Y-107325000D01*
X110130000Y-75700000D02*
X110425000Y-75405000D01*
X123230000Y-90360000D02*
X123230000Y-88230000D01*
X110653500Y-75176500D02*
X110425000Y-75405000D01*
X125037500Y-110862500D02*
X124750000Y-111150000D01*
X108912500Y-75700000D02*
X110130000Y-75700000D01*
X118050000Y-52260000D02*
X118160000Y-52260000D01*
X123230000Y-88230000D02*
X119500000Y-84500000D01*
X118160000Y-52260000D02*
X118640000Y-51780000D01*
X130017859Y-111383498D02*
X131078000Y-110323357D01*
X155710000Y-100120000D02*
X155710000Y-99480000D01*
X140103000Y-105782923D02*
X140775923Y-105110000D01*
X118640000Y-51520000D02*
X118040000Y-50920000D01*
X113120000Y-90010000D02*
X113120000Y-89000000D01*
X116323500Y-78323500D02*
X116676500Y-78323500D01*
X156910000Y-105910000D02*
X156910000Y-105030000D01*
X111116716Y-75100000D02*
X111070216Y-75146500D01*
X149890000Y-48590000D02*
X151270000Y-49970000D01*
X119500000Y-84500000D02*
X119500000Y-83000000D01*
X122482500Y-111150000D02*
X122195000Y-110862500D01*
D66*
X121000000Y-95500000D02*
X119870000Y-95500000D01*
D64*
X110700000Y-76900000D02*
X112123500Y-78323500D01*
X140800000Y-108630000D02*
X140800000Y-108200000D01*
X110425000Y-75405000D02*
X110425000Y-76625000D01*
D66*
X113120000Y-90010000D02*
X113120000Y-90380000D01*
D64*
X156620000Y-101030000D02*
X155710000Y-100120000D01*
X140103000Y-110103000D02*
X131078000Y-110103000D01*
X118040000Y-50030000D02*
X119480000Y-48590000D01*
X127275000Y-110862500D02*
X125037500Y-110862500D01*
D65*
X118000000Y-85000000D02*
X118000000Y-83771900D01*
X148510000Y-75070000D02*
X147086501Y-76493499D01*
X120500000Y-87500000D02*
X118000000Y-85000000D01*
X141152965Y-80850000D02*
X141152965Y-80997035D01*
X158695500Y-61695500D02*
X160500000Y-63500000D01*
X141162465Y-80840500D02*
X141152965Y-80850000D01*
X146506501Y-76493499D02*
X142159500Y-80840500D01*
X148510000Y-63870000D02*
X148510000Y-75070000D01*
X152765500Y-61695500D02*
X158695500Y-61695500D01*
X151725000Y-60655000D02*
X148510000Y-63870000D01*
X142159500Y-80840500D02*
X141162465Y-80840500D01*
X147086501Y-76493499D02*
X146506501Y-76493499D01*
X141152965Y-80997035D02*
X140470000Y-81680000D01*
X151725000Y-60655000D02*
X152765500Y-61695500D01*
X154440000Y-95060000D02*
X157620500Y-91879500D01*
X154440000Y-99480000D02*
X154440000Y-95060000D01*
X159425500Y-57074500D02*
X160500000Y-56000000D01*
X157620500Y-76724500D02*
X158860000Y-75485000D01*
X161000000Y-56500000D02*
X160500000Y-56000000D01*
X155350000Y-101315000D02*
X154440000Y-100405000D01*
X153185000Y-101315000D02*
X149600000Y-104900000D01*
X155350000Y-101315000D02*
X153185000Y-101315000D01*
X154440000Y-100405000D02*
X154440000Y-99480000D01*
X158860000Y-75485000D02*
X158860000Y-75120000D01*
X152765500Y-57074500D02*
X159425500Y-57074500D01*
X149600000Y-104900000D02*
X149600000Y-108400000D01*
X109500000Y-107000000D02*
X114403517Y-111903517D01*
X149600000Y-108400000D02*
X146515000Y-111485000D01*
X161000000Y-72980000D02*
X161000000Y-56500000D01*
X151725000Y-58115000D02*
X152765500Y-57074500D01*
X158860000Y-75120000D02*
X161000000Y-72980000D01*
X114403517Y-111903517D02*
X115403517Y-111903517D01*
X157620500Y-91879500D02*
X157620500Y-76724500D01*
X146515000Y-111485000D02*
X146500000Y-111485000D01*
X149230000Y-80320000D02*
X148800000Y-80320000D01*
X136170000Y-63420000D02*
X142286500Y-63420000D01*
X122750000Y-50000000D02*
X136170000Y-63420000D01*
X149360000Y-80450000D02*
X149360000Y-81980000D01*
X145096500Y-66230000D02*
X145301500Y-66230000D01*
X142286500Y-63420000D02*
X145096500Y-66230000D01*
X148800000Y-80320000D02*
X148240000Y-79760000D01*
D64*
X124675000Y-107080000D02*
X124440000Y-106845000D01*
X125710000Y-107080000D02*
X124675000Y-107080000D01*
D63*
X125710000Y-107703729D02*
X125749999Y-107743728D01*
D64*
X123145000Y-108140000D02*
X124440000Y-106845000D01*
D63*
X125710000Y-107080000D02*
X125710000Y-107703729D01*
D64*
X123145000Y-108987500D02*
X123145000Y-108140000D01*
D66*
X123120000Y-108962500D02*
X123145000Y-108987500D01*
X123120000Y-107840000D02*
X123120000Y-108962500D01*
D63*
X128112128Y-105433500D02*
X127708000Y-105837628D01*
X127708000Y-105837628D02*
X127708000Y-106538000D01*
D64*
X128270000Y-107100000D02*
X128270000Y-108942500D01*
D63*
X127708000Y-106538000D02*
X128270000Y-107100000D01*
D64*
X128225000Y-108225000D02*
X128225000Y-108987500D01*
D63*
X128340000Y-105433500D02*
X128112128Y-105433500D01*
D66*
X128122500Y-109090000D02*
X128225000Y-108987500D01*
D64*
X126990000Y-106990000D02*
X128225000Y-108225000D01*
D66*
X127150000Y-109090000D02*
X128122500Y-109090000D01*
D65*
X146229497Y-102430503D02*
X146820000Y-101840000D01*
X146820000Y-101840000D02*
X146820000Y-99480000D01*
X134319497Y-102430503D02*
X146229497Y-102430503D01*
X133250000Y-103500000D02*
X134319497Y-102430503D01*
D66*
X108030679Y-88178600D02*
X108030679Y-88469321D01*
X107575000Y-87575000D02*
X107808900Y-87808900D01*
X107808900Y-87956821D02*
X108030679Y-88178600D01*
X106450000Y-87575000D02*
X107575000Y-87575000D01*
X107808900Y-87808900D02*
X107808900Y-87956821D01*
X108550000Y-89050000D02*
X108550000Y-89650000D01*
X106212500Y-86035000D02*
X106212500Y-87337500D01*
X108000000Y-88500000D02*
X108550000Y-89050000D01*
X108030679Y-88469321D02*
X108000000Y-88500000D01*
D64*
X101125000Y-87725000D02*
X101125000Y-78875000D01*
X101125000Y-78875000D02*
X101500000Y-78500000D01*
D66*
X101780000Y-90150000D02*
X101150000Y-90150000D01*
D65*
X106600000Y-94990000D02*
X106600000Y-94237035D01*
X107622881Y-93214154D02*
X107696636Y-93214154D01*
X106600000Y-94237035D02*
X107622881Y-93214154D01*
D64*
X139395000Y-75692500D02*
X139192500Y-75692500D01*
X139395000Y-74355000D02*
X139395000Y-75692500D01*
X139810000Y-73940000D02*
X139395000Y-74355000D01*
X138550000Y-75050000D02*
X136260000Y-75050000D01*
X139192500Y-75692500D02*
X138550000Y-75050000D01*
D67*
X124180000Y-84865000D02*
X124379999Y-85064999D01*
X136495000Y-97206800D02*
X138318200Y-99030000D01*
X130055000Y-89986800D02*
X130803200Y-90735000D01*
X134213200Y-90735000D02*
X136495000Y-93016800D01*
X129393200Y-85065000D02*
X130055000Y-85726800D01*
X130803200Y-90735000D02*
X134213200Y-90735000D01*
X138318200Y-99030000D02*
X139793000Y-99030000D01*
X141147000Y-98503000D02*
X141147000Y-99030000D01*
X139793000Y-98503000D02*
X141147000Y-98503000D01*
X136495000Y-93016800D02*
X136495000Y-97206800D01*
X130055000Y-85726800D02*
X130055000Y-89986800D01*
X141290000Y-99030000D02*
X141740000Y-99480000D01*
X124379999Y-85064999D02*
X129393200Y-85065000D01*
X141147000Y-99030000D02*
X141290000Y-99030000D01*
X139793000Y-99030000D02*
X139793000Y-98503000D01*
X134026800Y-91185000D02*
X136045000Y-93203200D01*
X138131800Y-99480000D02*
X140470000Y-99480000D01*
X130616800Y-91185000D02*
X134026800Y-91185000D01*
X129206800Y-85515000D02*
X129605000Y-85913200D01*
X124180000Y-85715000D02*
X124379999Y-85515001D01*
X124379999Y-85515001D02*
X129206800Y-85515000D01*
X129605000Y-85913200D02*
X129605000Y-90173200D01*
X136045000Y-97393200D02*
X138131800Y-99480000D01*
X136045000Y-93203200D02*
X136045000Y-97393200D01*
X129605000Y-90173200D02*
X130616800Y-91185000D01*
D65*
X153170000Y-81980000D02*
X153170000Y-64640000D01*
X153170000Y-84118537D02*
X153446490Y-84395027D01*
X108500000Y-108000000D02*
X107500000Y-107000000D01*
X153170000Y-81980000D02*
X153170000Y-84118537D01*
X107500000Y-104500000D02*
X108500000Y-103500000D01*
X107500000Y-107000000D02*
X107500000Y-104500000D01*
X108500000Y-109500000D02*
X108500000Y-108000000D01*
X153170000Y-64640000D02*
X151725000Y-63195000D01*
X151900000Y-81680000D02*
X152765500Y-80814500D01*
X106000000Y-104500000D02*
X106000000Y-108500000D01*
X107000000Y-103500000D02*
X106000000Y-104500000D01*
X151900000Y-81980000D02*
X151900000Y-83458497D01*
X152765500Y-80814500D02*
X152765500Y-66775500D01*
X151900000Y-83458497D02*
X151858497Y-83500000D01*
X152765500Y-66775500D02*
X151725000Y-65735000D01*
X145550000Y-80375000D02*
X145550000Y-81980000D01*
X146375000Y-78705000D02*
X146375000Y-79550000D01*
X146375000Y-79550000D02*
X145550000Y-80375000D01*
X151725000Y-73355000D02*
X146375000Y-78705000D01*
X150522919Y-75895000D02*
X146820000Y-79597919D01*
X146820000Y-79597919D02*
X146820000Y-81980000D01*
X151725000Y-75895000D02*
X150522919Y-75895000D01*
X134200000Y-94000000D02*
X134600000Y-94400000D01*
X115830099Y-64772599D02*
X117140000Y-64772599D01*
X152475000Y-107335000D02*
X151135000Y-107335000D01*
X125200000Y-94000000D02*
X134200000Y-94000000D01*
X151135000Y-107335000D02*
X150600000Y-106800000D01*
D64*
X109211102Y-70831499D02*
X115831499Y-70831499D01*
X117325000Y-74625000D02*
X116500000Y-74625000D01*
X108912500Y-76650000D02*
X108454709Y-76650000D01*
X118000000Y-73000000D02*
X118000000Y-73950000D01*
X118000000Y-73950000D02*
X117325000Y-74625000D01*
X107873000Y-76068291D02*
X107873000Y-72299254D01*
X107940000Y-72232254D02*
X107940000Y-72102601D01*
X107873000Y-72299254D02*
X107940000Y-72232254D01*
X108454709Y-76650000D02*
X107873000Y-76068291D01*
X115831499Y-70831499D02*
X118000000Y-73000000D01*
X107940000Y-72102601D02*
X109211102Y-70831499D01*
X108828000Y-72100607D02*
X109470607Y-71458000D01*
X108912500Y-74750000D02*
X108828000Y-74665500D01*
X116500000Y-73160000D02*
X116500000Y-73375000D01*
X108828000Y-74665500D02*
X108828000Y-72100607D01*
X114798000Y-71458000D02*
X116500000Y-73160000D01*
X109470607Y-71458000D02*
X114798000Y-71458000D01*
D65*
X153170000Y-100357000D02*
X149728992Y-103798008D01*
X153170000Y-99480000D02*
X153170000Y-100357000D01*
X149728992Y-103798008D02*
X138951992Y-103798008D01*
X138951992Y-103798008D02*
X136500000Y-106250000D01*
X138148458Y-103544507D02*
X149215493Y-103544507D01*
X149215493Y-103544507D02*
X151900000Y-100860000D01*
X135250000Y-106442965D02*
X138148458Y-103544507D01*
X151900000Y-100860000D02*
X151900000Y-99480000D01*
X135250000Y-108200000D02*
X135250000Y-106442965D01*
X150630000Y-99480000D02*
X150630000Y-101188505D01*
X137558992Y-103191008D02*
X136250000Y-104500000D01*
X150630000Y-101188505D02*
X148627497Y-103191008D01*
X148627497Y-103191008D02*
X137558992Y-103191008D01*
X134250000Y-105074252D02*
X136386745Y-102937507D01*
X149360000Y-102100000D02*
X149360000Y-99480000D01*
X136386745Y-102937507D02*
X148522493Y-102937507D01*
X148522493Y-102937507D02*
X149360000Y-102100000D01*
X133260000Y-108200000D02*
X134250000Y-107210000D01*
X134250000Y-107210000D02*
X134250000Y-105074252D01*
X148090000Y-99480000D02*
X148090000Y-102160000D01*
X136065994Y-102684006D02*
X133250000Y-105500000D01*
X147565994Y-102684006D02*
X136065994Y-102684006D01*
X148090000Y-102160000D02*
X147565994Y-102684006D01*
X132240000Y-105010000D02*
X131750000Y-105500000D01*
X133385003Y-102023501D02*
X132240000Y-103168504D01*
X132240000Y-103168504D02*
X132240000Y-105010000D01*
X145550000Y-99780000D02*
X143306499Y-102023501D01*
X143306499Y-102023501D02*
X133385003Y-102023501D01*
X143000000Y-101770000D02*
X144280000Y-100490000D01*
X130750000Y-103750000D02*
X132730000Y-101770000D01*
X144280000Y-100490000D02*
X144280000Y-99480000D01*
X132730000Y-101770000D02*
X143000000Y-101770000D01*
X130250000Y-102090000D02*
X130250000Y-105500000D01*
X143010000Y-99780000D02*
X141590000Y-101200000D01*
X130250000Y-102090000D02*
X131140000Y-101200000D01*
X141590000Y-101200000D02*
X131140000Y-101200000D01*
X139220000Y-91365000D02*
X140482641Y-91365000D01*
X140482641Y-91365000D02*
X141230303Y-92112662D01*
X148090000Y-81980000D02*
X148090000Y-85140000D01*
X148090000Y-85140000D02*
X144070000Y-89160000D01*
X141779818Y-95175000D02*
X143348630Y-96743812D01*
X139220000Y-95175000D02*
X141779818Y-95175000D01*
X142425000Y-93905000D02*
X143450000Y-94930000D01*
X139220000Y-93905000D02*
X142425000Y-93905000D01*
X143135000Y-92635000D02*
X144830000Y-94330000D01*
X139220000Y-92635000D02*
X143135000Y-92635000D01*
X141632500Y-106130000D02*
X142337500Y-105425000D01*
X156500000Y-83690000D02*
X156500000Y-90060000D01*
X142337500Y-105425000D02*
X142337500Y-104707500D01*
X135550000Y-100080000D02*
X128470000Y-100080000D01*
X156500000Y-90060000D02*
X148326499Y-98233501D01*
X140800000Y-106130000D02*
X141632500Y-106130000D01*
X139220000Y-97715000D02*
X141685000Y-97715000D01*
X142337500Y-104707500D02*
X141990000Y-104360000D01*
X138565000Y-97715000D02*
X137920000Y-97070000D01*
X141685000Y-97715000D02*
X141760000Y-97640000D01*
X128470000Y-100080000D02*
X126280000Y-102270000D01*
X142353501Y-98233501D02*
X141760000Y-97640000D01*
X126280000Y-102270000D02*
X126280000Y-103390000D01*
X148326499Y-98233501D02*
X142353501Y-98233501D01*
X124580000Y-101620000D02*
X124580000Y-103150000D01*
X139220000Y-90095000D02*
X137505000Y-90095000D01*
X134430000Y-99330000D02*
X134200000Y-99100000D01*
X134200000Y-99100000D02*
X127100000Y-99100000D01*
X142320000Y-109990000D02*
X142320000Y-108967500D01*
X127100000Y-99100000D02*
X124580000Y-101620000D01*
X141190000Y-88425000D02*
X141190000Y-83763500D01*
X141500000Y-108950000D02*
X140800000Y-109650000D01*
X139520000Y-90095000D02*
X141190000Y-88425000D01*
X137505000Y-90095000D02*
X137430000Y-90170000D01*
X142337500Y-108950000D02*
X141500000Y-108950000D01*
X143400000Y-73905000D02*
X141860000Y-73905000D01*
X106169340Y-96837201D02*
X106169340Y-97381840D01*
X107550000Y-94520000D02*
X107280000Y-94250000D01*
X107550000Y-94965000D02*
X107550000Y-94520000D01*
X107500000Y-96025000D02*
X106615000Y-96025000D01*
X105275000Y-95700000D02*
X106290000Y-95700000D01*
X105275000Y-97437500D02*
X105275000Y-95700000D01*
X106290000Y-95700000D02*
X106600000Y-96010000D01*
D64*
X148530000Y-51180000D02*
X149540000Y-50170000D01*
X148530000Y-52270000D02*
X148530000Y-51180000D01*
D65*
X108775000Y-87650000D02*
X108775000Y-86935000D01*
X108775000Y-84175000D02*
X108077500Y-84175000D01*
X108077500Y-84175000D02*
X107237500Y-85015000D01*
X107237500Y-85015000D02*
X106212500Y-85015000D01*
X108046460Y-86240500D02*
X107847000Y-86041040D01*
X107237500Y-85015000D02*
X107237500Y-84050000D01*
X108775000Y-86935000D02*
X108080500Y-86240500D01*
X108080500Y-86240500D02*
X108046460Y-86240500D01*
X107847000Y-86041040D02*
X107847000Y-85624500D01*
X107847000Y-85624500D02*
X107237500Y-85015000D01*
D66*
X109741100Y-83868179D02*
X109683900Y-83810979D01*
X109741100Y-84783900D02*
X109741100Y-83868179D01*
X109700000Y-82375000D02*
X109600000Y-82275000D01*
X108775000Y-85750000D02*
X109741100Y-84783900D01*
X109683900Y-83810979D02*
X109683900Y-82391100D01*
X106987500Y-82250000D02*
X108750000Y-82250000D01*
X109600000Y-82275000D02*
X108775000Y-82275000D01*
X109683900Y-82391100D02*
X109700000Y-82375000D01*
D64*
X140350000Y-79090000D02*
X140350000Y-77972500D01*
X139810000Y-70640000D02*
X140260000Y-71090000D01*
X140260000Y-71090000D02*
X141580000Y-71090000D01*
X141850000Y-72365000D02*
X141471483Y-71986483D01*
X141471483Y-71986483D02*
X140433517Y-71986483D01*
X139810000Y-70640000D02*
X140433517Y-71263517D01*
X141850000Y-72365000D02*
X141850000Y-71930000D01*
X140433517Y-71263517D02*
X140433517Y-71986483D01*
D66*
X134015000Y-72835000D02*
X131280000Y-75570000D01*
X140212200Y-72835000D02*
X141030000Y-73652800D01*
X134015000Y-72835000D02*
X140212200Y-72835000D01*
X141030000Y-73652800D02*
X141030000Y-75427500D01*
X141030000Y-75427500D02*
X141295000Y-75692500D01*
D64*
X113412500Y-85650000D02*
X114942500Y-84120000D01*
X114942500Y-84120000D02*
X115260000Y-84120000D01*
X117835000Y-91810000D02*
X119310000Y-91810000D01*
X119310000Y-91810000D02*
X120230000Y-90890000D01*
D65*
X106995000Y-67175000D02*
X109170000Y-69350000D01*
X103014500Y-66884827D02*
X103304673Y-67175000D01*
X102300000Y-57885000D02*
X103252500Y-58837500D01*
X103304673Y-67175000D02*
X106995000Y-67175000D01*
X111570000Y-69010000D02*
X111910000Y-69350000D01*
X103014500Y-66345173D02*
X103014500Y-66884827D01*
X112260000Y-63780000D02*
X111570000Y-64470000D01*
X103252500Y-66107173D02*
X103014500Y-66345173D01*
X111910000Y-69350000D02*
X113960000Y-69350000D01*
X113797500Y-62040000D02*
X112595000Y-62040000D01*
X112260000Y-62375000D02*
X112260000Y-63780000D01*
X109170000Y-69350000D02*
X113960000Y-69350000D01*
X114070000Y-69240000D02*
X114070000Y-67850000D01*
X112595000Y-62040000D02*
X112260000Y-62375000D01*
X113960000Y-69350000D02*
X114070000Y-69240000D01*
X103252500Y-58837500D02*
X103252500Y-66107173D01*
X111570000Y-64470000D02*
X111570000Y-69010000D01*
X113062500Y-64830000D02*
X113772500Y-65540000D01*
X112235000Y-64830000D02*
X113062500Y-64830000D01*
X112770000Y-67850000D02*
X112770000Y-66542500D01*
X112770000Y-66542500D02*
X113772500Y-65540000D01*
X144212500Y-108712500D02*
X144325000Y-108825000D01*
X146290000Y-107335000D02*
X147525000Y-107335000D01*
X144212500Y-106375000D02*
X144212500Y-108712500D01*
X145940000Y-107685000D02*
X146290000Y-107335000D01*
X145750000Y-108615000D02*
X146785000Y-109650000D01*
X144175000Y-109937500D02*
X144175000Y-110525000D01*
X147525000Y-108605000D02*
X145760000Y-108605000D01*
X146785000Y-109650000D02*
X147075000Y-109650000D01*
X118975000Y-89925000D02*
X119000000Y-89950000D01*
X118960000Y-89910000D02*
X118975000Y-89925000D01*
X117835000Y-89910000D02*
X118275000Y-89470000D01*
X118275000Y-89470000D02*
X118275000Y-88635000D01*
X119000000Y-89950000D02*
X119175000Y-89950000D01*
X117835000Y-89910000D02*
X118960000Y-89910000D01*
X134800000Y-97400000D02*
X121400000Y-97400000D01*
X139220000Y-88825000D02*
X137075000Y-88825000D01*
X137075000Y-88825000D02*
X137040000Y-88860000D01*
X155710000Y-81980000D02*
X155710000Y-83515000D01*
X112780000Y-98950000D02*
X112780000Y-99960000D01*
X112790000Y-99970000D02*
X112790000Y-106565000D01*
X155710000Y-83515000D02*
X154775000Y-84450000D01*
X118675000Y-112450000D02*
X151170000Y-112450000D01*
X113020000Y-100200000D02*
X112790000Y-99970000D01*
X113020000Y-100640000D02*
X113020000Y-100200000D01*
X112790000Y-106565000D02*
X118675000Y-112450000D01*
X151170000Y-112450000D02*
X152000000Y-111620000D01*
X135000000Y-83000000D02*
X138475000Y-83000000D01*
X110620000Y-49655000D02*
X110620000Y-49042500D01*
X130460000Y-73430000D02*
X130460000Y-78912965D01*
X134547035Y-83000000D02*
X135000000Y-83000000D01*
X123787002Y-65089994D02*
X123787002Y-66757002D01*
X135000000Y-83000000D02*
X135280000Y-83280000D01*
X130460000Y-78912965D02*
X134547035Y-83000000D01*
X110620000Y-49042500D02*
X109985000Y-48407500D01*
X123787002Y-66757002D02*
X130460000Y-73430000D01*
X138475000Y-83000000D02*
X139220000Y-83745000D01*
X111447459Y-50676499D02*
X113315003Y-50676499D01*
X110620000Y-49849040D02*
X111447459Y-50676499D01*
X121440006Y-58801502D02*
X121440006Y-62742998D01*
X121440006Y-62742998D02*
X123787002Y-65089994D01*
X113315003Y-50676499D02*
X121440006Y-58801502D01*
X111037500Y-51077500D02*
X112811540Y-51077500D01*
X110520000Y-50560000D02*
X111037500Y-51077500D01*
X109703000Y-47657000D02*
X109510000Y-47850000D01*
X109510000Y-49689040D02*
X110380960Y-50560000D01*
X121230000Y-63250000D02*
X123280000Y-65300000D01*
X134020000Y-85030000D02*
X134700000Y-85030000D01*
X123280000Y-74290000D02*
X134020000Y-85030000D01*
X139220000Y-87555000D02*
X139825000Y-87555000D01*
X112955000Y-48167500D02*
X112955000Y-48482500D01*
X109510000Y-47850000D02*
X109510000Y-49689040D01*
X114744500Y-56535500D02*
X114744500Y-61381040D01*
X115440500Y-61580500D02*
X117110000Y-63250000D01*
X117110000Y-63250000D02*
X121230000Y-63250000D01*
X112444500Y-47657000D02*
X109703000Y-47657000D01*
X110380960Y-50560000D02*
X110520000Y-50560000D01*
X114450000Y-52715960D02*
X114450000Y-56241000D01*
X114943960Y-61580500D02*
X115440500Y-61580500D01*
X114744500Y-61381040D02*
X114943960Y-61580500D01*
X112811540Y-51077500D02*
X114450000Y-52715960D01*
X112520000Y-48917500D02*
X112520000Y-49655000D01*
X134700000Y-85030000D02*
X137225000Y-87555000D01*
X139825000Y-87555000D02*
X140580000Y-86800000D01*
X114450000Y-56241000D02*
X114744500Y-56535500D01*
X123280000Y-65300000D02*
X123280000Y-74290000D01*
X137225000Y-87555000D02*
X139220000Y-87555000D01*
X112955000Y-48482500D02*
X112520000Y-48917500D01*
X112955000Y-48167500D02*
X112444500Y-47657000D01*
X150630000Y-81980000D02*
X150630000Y-83570000D01*
X150630000Y-83570000D02*
X145750000Y-88450000D01*
X112520000Y-51930000D02*
X112520000Y-55295000D01*
X112520000Y-55295000D02*
X107700000Y-60115000D01*
X135288530Y-84100000D02*
X125090000Y-73901470D01*
X140475000Y-85015000D02*
X139220000Y-85015000D01*
X138005000Y-84100000D02*
X135288530Y-84100000D01*
X125090000Y-73901470D02*
X125090000Y-73340000D01*
X121470000Y-69950000D02*
X122360000Y-70840000D01*
X109190000Y-69950000D02*
X121470000Y-69950000D01*
X106637500Y-74750000D02*
X106637500Y-72502500D01*
X106637500Y-72502500D02*
X109190000Y-69950000D01*
X140550000Y-85090000D02*
X140475000Y-85015000D01*
X106637500Y-74750000D02*
X105285000Y-74750000D01*
X138920000Y-85015000D02*
X138005000Y-84100000D01*
X140360000Y-80110000D02*
X140360000Y-80509000D01*
X142880000Y-97672965D02*
X142880000Y-97230000D01*
X141540000Y-77640000D02*
X141540000Y-77722500D01*
X143167035Y-97960000D02*
X142880000Y-97672965D01*
X141223965Y-83104500D02*
X141773501Y-83654036D01*
X139829500Y-82889500D02*
X140044500Y-83104500D01*
X141295000Y-78745000D02*
X141575000Y-79025000D01*
X142880000Y-97230000D02*
X141700000Y-96050000D01*
X146200000Y-92734131D02*
X146200000Y-95612965D01*
X141110000Y-79360000D02*
X140360000Y-80110000D01*
X141560000Y-79360000D02*
X141110000Y-79360000D01*
X140044500Y-83104500D02*
X141223965Y-83104500D01*
X141575000Y-79025000D02*
X141575000Y-79345000D01*
X139829500Y-81039500D02*
X139829500Y-82889500D01*
X141773501Y-83654036D02*
X141773501Y-88307632D01*
X141295000Y-77967500D02*
X141295000Y-78745000D01*
X141700000Y-96050000D02*
X139615000Y-96050000D01*
X143852965Y-97960000D02*
X143167035Y-97960000D01*
X141540000Y-77722500D02*
X141295000Y-77967500D01*
X140360000Y-80509000D02*
X139829500Y-81039500D01*
X146200000Y-95612965D02*
X143852965Y-97960000D01*
X139615000Y-96050000D02*
X139220000Y-96445000D01*
X141773501Y-88307632D02*
X146200000Y-92734131D01*
X154925000Y-104775000D02*
X152495000Y-104775000D01*
X153365000Y-106065000D02*
X154575000Y-107275000D01*
X155305500Y-80019500D02*
X154440000Y-80885000D01*
X154265000Y-75895000D02*
X155305500Y-76935500D01*
X155305500Y-76935500D02*
X155305500Y-80019500D01*
X154440000Y-80885000D02*
X154440000Y-81980000D01*
X114080000Y-90010000D02*
X115460000Y-90010000D01*
X114100000Y-87930000D02*
X114100000Y-89990000D01*
X106362500Y-76925000D02*
X106637500Y-76650000D01*
X105155000Y-76925000D02*
X105155000Y-75875000D01*
X105155000Y-76925000D02*
X106362500Y-76925000D01*
X116366734Y-61090000D02*
X118273233Y-62996499D01*
X123533501Y-65194997D02*
X123533501Y-73833501D01*
X121335003Y-62996499D02*
X123533501Y-65194997D01*
X137585000Y-84950000D02*
X138920000Y-86285000D01*
X134090000Y-84390000D02*
X136990000Y-84390000D01*
X137550000Y-84950000D02*
X137585000Y-84950000D01*
X136990000Y-84390000D02*
X137550000Y-84950000D01*
X115672500Y-61090000D02*
X116366734Y-61090000D01*
X123533501Y-73833501D02*
X134090000Y-84390000D01*
X118273233Y-62996499D02*
X121335003Y-62996499D01*
X108940000Y-95240000D02*
X108940000Y-94190000D01*
X108940000Y-95672500D02*
X108940000Y-95240000D01*
X107175000Y-97437500D02*
X108940000Y-95672500D01*
X103365000Y-67475000D02*
X101925000Y-67475000D01*
X101925000Y-67475000D02*
X101925000Y-60490000D01*
X108860500Y-67199500D02*
X108350000Y-67710000D01*
X108640327Y-66200000D02*
X108860500Y-66420173D01*
X106123152Y-61691848D02*
X106123152Y-63723152D01*
X106123152Y-63723152D02*
X108600000Y-66200000D01*
X108600000Y-66200000D02*
X108640327Y-66200000D01*
X108860500Y-66420173D02*
X108860500Y-67199500D01*
X108350000Y-67710000D02*
X108585000Y-67475000D01*
X108585000Y-67475000D02*
X109925000Y-67475000D01*
G04 #@! TA.AperFunction,Conductor*
G36*
X159987103Y-45256921D02*
G01*
X160000000Y-45259486D01*
X160012170Y-45257065D01*
X160022599Y-45257065D01*
X160035735Y-45256060D01*
X160356412Y-45270061D01*
X160408103Y-45272318D01*
X160419051Y-45273276D01*
X160818604Y-45325878D01*
X160829413Y-45327785D01*
X161222854Y-45415008D01*
X161233471Y-45417853D01*
X161617813Y-45539036D01*
X161628128Y-45542789D01*
X162000468Y-45697017D01*
X162010412Y-45701655D01*
X162295219Y-45849916D01*
X162367867Y-45887734D01*
X162377387Y-45893230D01*
X162717262Y-46109755D01*
X162726266Y-46116059D01*
X163045993Y-46361393D01*
X163054397Y-46368445D01*
X163130501Y-46438182D01*
X163351519Y-46640709D01*
X163359291Y-46648481D01*
X163470515Y-46769860D01*
X163631555Y-46945603D01*
X163638607Y-46954007D01*
X163755002Y-47105697D01*
X163883941Y-47273734D01*
X163890245Y-47282738D01*
X163957654Y-47388548D01*
X164101349Y-47614103D01*
X164106770Y-47622613D01*
X164112265Y-47632132D01*
X164274193Y-47943191D01*
X164298341Y-47989579D01*
X164302983Y-47999532D01*
X164435873Y-48320358D01*
X164457208Y-48371865D01*
X164460964Y-48382187D01*
X164570252Y-48728803D01*
X164582147Y-48766528D01*
X164584992Y-48777145D01*
X164661703Y-49123166D01*
X164672214Y-49170579D01*
X164674122Y-49181396D01*
X164724719Y-49565716D01*
X164726724Y-49580948D01*
X164727682Y-49591898D01*
X164743940Y-49964265D01*
X164742935Y-49977401D01*
X164742935Y-49987830D01*
X164740514Y-50000000D01*
X164743079Y-50012894D01*
X164745500Y-50037476D01*
X164745500Y-78962518D01*
X164743079Y-78987097D01*
X164740513Y-78999999D01*
X164742934Y-79012171D01*
X164742934Y-79024578D01*
X164742294Y-79024578D01*
X164742970Y-79035357D01*
X164737615Y-79110225D01*
X164728375Y-79239419D01*
X164725817Y-79257213D01*
X164676709Y-79482959D01*
X164671644Y-79500208D01*
X164590909Y-79716669D01*
X164583443Y-79733016D01*
X164472724Y-79935781D01*
X164463005Y-79950904D01*
X164324558Y-80135848D01*
X164312785Y-80149434D01*
X164149434Y-80312785D01*
X164135848Y-80324558D01*
X163999881Y-80426342D01*
X163950902Y-80463007D01*
X163935786Y-80472722D01*
X163914054Y-80484589D01*
X163853671Y-80500000D01*
X163126000Y-80500000D01*
X163057879Y-80479998D01*
X163011386Y-80426342D01*
X163000000Y-80374000D01*
X163000000Y-53000000D01*
X162246940Y-52246940D01*
X162212914Y-52184628D01*
X162217979Y-52113813D01*
X162244185Y-52071592D01*
X162340774Y-51968734D01*
X162345297Y-51963345D01*
X162545640Y-51695540D01*
X162549530Y-51689686D01*
X162718774Y-51401215D01*
X162721989Y-51394961D01*
X162858024Y-51089422D01*
X162860521Y-51082847D01*
X162961648Y-50764056D01*
X162963400Y-50757233D01*
X163028361Y-50429155D01*
X163029338Y-50422201D01*
X163057436Y-50087591D01*
X163057650Y-50083222D01*
X163058782Y-50002178D01*
X163058691Y-49997828D01*
X163039945Y-49662546D01*
X163039163Y-49655572D01*
X162983386Y-49325793D01*
X162981828Y-49318939D01*
X162889639Y-48997439D01*
X162887331Y-48990811D01*
X162759874Y-48681576D01*
X162756845Y-48675256D01*
X162595715Y-48382161D01*
X162591990Y-48376199D01*
X162399195Y-48102896D01*
X162394837Y-48097397D01*
X162259837Y-47945343D01*
X162246449Y-47936966D01*
X162236889Y-47942716D01*
X160192417Y-49987188D01*
X160184803Y-50001132D01*
X160184934Y-50002965D01*
X160189185Y-50009580D01*
X161481389Y-51301784D01*
X161515415Y-51364096D01*
X161510350Y-51434911D01*
X161481389Y-51479974D01*
X161480682Y-51480682D01*
X158519319Y-48519319D01*
X158520026Y-48518611D01*
X158582338Y-48484585D01*
X158653153Y-48489650D01*
X158698216Y-48518611D01*
X159987188Y-49807583D01*
X160001132Y-49815197D01*
X160002965Y-49815066D01*
X160009580Y-49810815D01*
X162055177Y-47765218D01*
X162062791Y-47751274D01*
X162062786Y-47751200D01*
X162056679Y-47742222D01*
X161919281Y-47618509D01*
X161913801Y-47614103D01*
X161641852Y-47419407D01*
X161635925Y-47415645D01*
X161343972Y-47252478D01*
X161337646Y-47249392D01*
X161029325Y-47119786D01*
X161022711Y-47117430D01*
X160701848Y-47022996D01*
X160695026Y-47021396D01*
X160365633Y-46963315D01*
X160358664Y-46962484D01*
X160024872Y-46941484D01*
X160017840Y-46941435D01*
X159683774Y-46957772D01*
X159676796Y-46958506D01*
X159346640Y-47011980D01*
X159339772Y-47013490D01*
X159017642Y-47103431D01*
X159010986Y-47105697D01*
X158700885Y-47230985D01*
X158694530Y-47233975D01*
X158400323Y-47393053D01*
X158394334Y-47396737D01*
X158119692Y-47587618D01*
X158114161Y-47591939D01*
X157924423Y-47758042D01*
X157859992Y-47787863D01*
X157789668Y-47778116D01*
X157752333Y-47752333D01*
X157000000Y-47000000D01*
X103000000Y-47000000D01*
X102247046Y-47752954D01*
X102184734Y-47786980D01*
X102113919Y-47781915D01*
X102073641Y-47757495D01*
X101919281Y-47618509D01*
X101913801Y-47614103D01*
X101641852Y-47419407D01*
X101635925Y-47415645D01*
X101343972Y-47252478D01*
X101337646Y-47249392D01*
X101029325Y-47119786D01*
X101022711Y-47117430D01*
X100701848Y-47022996D01*
X100695026Y-47021396D01*
X100365633Y-46963315D01*
X100358664Y-46962484D01*
X100024872Y-46941484D01*
X100017840Y-46941435D01*
X99683774Y-46957772D01*
X99676796Y-46958506D01*
X99346640Y-47011980D01*
X99339772Y-47013490D01*
X99017642Y-47103431D01*
X99010986Y-47105697D01*
X98700885Y-47230985D01*
X98694530Y-47233975D01*
X98400323Y-47393053D01*
X98394334Y-47396737D01*
X98119692Y-47587618D01*
X98114161Y-47591939D01*
X97945104Y-47739937D01*
X97936706Y-47753151D01*
X97942551Y-47762946D01*
X99987188Y-49807583D01*
X100001132Y-49815197D01*
X100002965Y-49815066D01*
X100009580Y-49810815D01*
X101301784Y-48518611D01*
X101364096Y-48484585D01*
X101434911Y-48489650D01*
X101479974Y-48518611D01*
X101480682Y-48519319D01*
X98519319Y-51480682D01*
X98518611Y-51479974D01*
X98484585Y-51417662D01*
X98489650Y-51346847D01*
X98518611Y-51301784D01*
X99807583Y-50012812D01*
X99815197Y-49998868D01*
X99815066Y-49997035D01*
X99810815Y-49990420D01*
X97765327Y-47944932D01*
X97751383Y-47937318D01*
X97751072Y-47937340D01*
X97742406Y-47943191D01*
X97631960Y-48064146D01*
X97627522Y-48069587D01*
X97430939Y-48340162D01*
X97427122Y-48346084D01*
X97261928Y-48636879D01*
X97258798Y-48643184D01*
X97127042Y-48950593D01*
X97124640Y-48957194D01*
X97027973Y-49277368D01*
X97026318Y-49284211D01*
X96965942Y-49613172D01*
X96965063Y-49620134D01*
X96941732Y-49953774D01*
X96941634Y-49960819D01*
X96955639Y-50294971D01*
X96956324Y-50301961D01*
X97007492Y-50632490D01*
X97008952Y-50639357D01*
X97096645Y-50962119D01*
X97098861Y-50968780D01*
X97221982Y-51279750D01*
X97224933Y-51286135D01*
X97381953Y-51581445D01*
X97385587Y-51587446D01*
X97574544Y-51863412D01*
X97578838Y-51868987D01*
X97758145Y-52076715D01*
X97787515Y-52141351D01*
X97777278Y-52211606D01*
X97751859Y-52248141D01*
X97000000Y-53000000D01*
X97000000Y-80000000D01*
X99874000Y-80000000D01*
X99942121Y-80020002D01*
X99988614Y-80073658D01*
X100000000Y-80126000D01*
X100000000Y-81644853D01*
X99979998Y-81712974D01*
X99926342Y-81759467D01*
X99856068Y-81769571D01*
X99791488Y-81740077D01*
X99768628Y-81713938D01*
X99717083Y-81635320D01*
X99707759Y-81624168D01*
X99594977Y-81517329D01*
X99583330Y-81508616D01*
X99448996Y-81430588D01*
X99435659Y-81424789D01*
X99288223Y-81380135D01*
X99279732Y-81382065D01*
X99277000Y-81392980D01*
X99277000Y-83099772D01*
X99280806Y-83112734D01*
X99295721Y-83114670D01*
X99350011Y-83105341D01*
X99363968Y-83101233D01*
X99506911Y-83040410D01*
X99519544Y-83033204D01*
X99644663Y-82941128D01*
X99655305Y-82931204D01*
X99755885Y-82812813D01*
X99768015Y-82794625D01*
X99770193Y-82796077D01*
X99810572Y-82753394D01*
X99879501Y-82736385D01*
X99946683Y-82759342D01*
X99990789Y-82814976D01*
X100000000Y-82862265D01*
X100000000Y-85589130D01*
X99979998Y-85657251D01*
X99950704Y-85689092D01*
X99911079Y-85719497D01*
X99911076Y-85719500D01*
X99904526Y-85724526D01*
X99899500Y-85731076D01*
X99899499Y-85731077D01*
X99873740Y-85764647D01*
X99815645Y-85840358D01*
X99759772Y-85975246D01*
X99758695Y-85983430D01*
X99758694Y-85983432D01*
X99751339Y-86039303D01*
X99740715Y-86120000D01*
X99743443Y-86140723D01*
X99757360Y-86246430D01*
X99759772Y-86264754D01*
X99810164Y-86386408D01*
X99812014Y-86390875D01*
X99819603Y-86461465D01*
X99787824Y-86524952D01*
X99726766Y-86561180D01*
X99655815Y-86558646D01*
X99608953Y-86530568D01*
X99594977Y-86517329D01*
X99583330Y-86508616D01*
X99448996Y-86430588D01*
X99435659Y-86424789D01*
X99288223Y-86380135D01*
X99279732Y-86382065D01*
X99277000Y-86392980D01*
X99277000Y-88099772D01*
X99280806Y-88112734D01*
X99295721Y-88114670D01*
X99350011Y-88105341D01*
X99363968Y-88101233D01*
X99506911Y-88040410D01*
X99519544Y-88033204D01*
X99644663Y-87941128D01*
X99655305Y-87931204D01*
X99755885Y-87812813D01*
X99768015Y-87794625D01*
X99770193Y-87796077D01*
X99810572Y-87753394D01*
X99879501Y-87736385D01*
X99946683Y-87759342D01*
X99990789Y-87814976D01*
X100000000Y-87862265D01*
X100000000Y-88874000D01*
X99979998Y-88942121D01*
X99926342Y-88988614D01*
X99874000Y-89000000D01*
X97500000Y-89000000D01*
X97500000Y-89750000D01*
X97749242Y-89750000D01*
X97750751Y-89750009D01*
X97953236Y-89752434D01*
X97964077Y-89753032D01*
X98367826Y-89792798D01*
X98380057Y-89794612D01*
X98777230Y-89873615D01*
X98789217Y-89876617D01*
X99176756Y-89994175D01*
X99188379Y-89998335D01*
X99527846Y-90138946D01*
X99562514Y-90153306D01*
X99573692Y-90158593D01*
X99930826Y-90349486D01*
X99941432Y-90355843D01*
X100278143Y-90580825D01*
X100288062Y-90588181D01*
X100375122Y-90659630D01*
X100415089Y-90718305D01*
X100420501Y-90744299D01*
X100420501Y-90750066D01*
X100421708Y-90756132D01*
X100421708Y-90756137D01*
X100432844Y-90812126D01*
X100435266Y-90824301D01*
X100491516Y-90908484D01*
X100575699Y-90964734D01*
X100649933Y-90979500D01*
X100684183Y-90979500D01*
X100752304Y-90999502D01*
X100773278Y-91016405D01*
X100896604Y-91139731D01*
X100904908Y-91148892D01*
X101161812Y-91461930D01*
X101169178Y-91471862D01*
X101394157Y-91808568D01*
X101400514Y-91819174D01*
X101591407Y-92176308D01*
X101596694Y-92187486D01*
X101751665Y-92561621D01*
X101755825Y-92573244D01*
X101873382Y-92960779D01*
X101876385Y-92972770D01*
X101891725Y-93049888D01*
X101955388Y-93369943D01*
X101957202Y-93382174D01*
X101996968Y-93785923D01*
X101997566Y-93796764D01*
X101999991Y-93999249D01*
X102000000Y-94000758D01*
X102000000Y-96968018D01*
X101979998Y-97036139D01*
X101969198Y-97050562D01*
X101968826Y-97050991D01*
X101965649Y-97054168D01*
X101962958Y-97057758D01*
X101962955Y-97057762D01*
X101959447Y-97062443D01*
X101953062Y-97070286D01*
X101921999Y-97105458D01*
X101918186Y-97113580D01*
X101916346Y-97116381D01*
X101907937Y-97130376D01*
X101906315Y-97133339D01*
X101900930Y-97140524D01*
X101897777Y-97148934D01*
X101897776Y-97148936D01*
X101884454Y-97184470D01*
X101880530Y-97193783D01*
X101860583Y-97236270D01*
X101859201Y-97245144D01*
X101858215Y-97248371D01*
X101854075Y-97264154D01*
X101853354Y-97267432D01*
X101850202Y-97275840D01*
X101849537Y-97284791D01*
X101846724Y-97322645D01*
X101845570Y-97332692D01*
X101843500Y-97345985D01*
X101843500Y-97361350D01*
X101843154Y-97370687D01*
X101839493Y-97419955D01*
X101841366Y-97428730D01*
X101841959Y-97437426D01*
X101843500Y-97452026D01*
X101843500Y-98677376D01*
X101842159Y-98689381D01*
X101842655Y-98689421D01*
X101841935Y-98698368D01*
X101839954Y-98707124D01*
X101840510Y-98716084D01*
X101843258Y-98760382D01*
X101843500Y-98768184D01*
X101843500Y-98784226D01*
X101844135Y-98788657D01*
X101844135Y-98788662D01*
X101844965Y-98794453D01*
X101845996Y-98804514D01*
X101848902Y-98851359D01*
X101851949Y-98859799D01*
X101852630Y-98863089D01*
X101856582Y-98878938D01*
X101857527Y-98882168D01*
X101858799Y-98891052D01*
X101862514Y-98899223D01*
X101878218Y-98933763D01*
X101882030Y-98943128D01*
X101894922Y-98978837D01*
X101894924Y-98978840D01*
X101897972Y-98987284D01*
X101903268Y-98994533D01*
X101904840Y-98997490D01*
X101913093Y-99011614D01*
X101914898Y-99014437D01*
X101918612Y-99022605D01*
X101924469Y-99029402D01*
X101924470Y-99029404D01*
X101949243Y-99058153D01*
X101955525Y-99066064D01*
X101963473Y-99076944D01*
X101966918Y-99080389D01*
X101969703Y-99083641D01*
X101998820Y-99148393D01*
X102000000Y-99165598D01*
X102000000Y-101749242D01*
X101999991Y-101750751D01*
X101997566Y-101953236D01*
X101996968Y-101964077D01*
X101957202Y-102367826D01*
X101955388Y-102380057D01*
X101900144Y-102657789D01*
X101876386Y-102777226D01*
X101873383Y-102789217D01*
X101824577Y-102950112D01*
X101755828Y-103176747D01*
X101751665Y-103188379D01*
X101636157Y-103467241D01*
X101596694Y-103562514D01*
X101591407Y-103573692D01*
X101414531Y-103904603D01*
X101400514Y-103930826D01*
X101394157Y-103941432D01*
X101169178Y-104278138D01*
X101161812Y-104288070D01*
X100904908Y-104601108D01*
X100896604Y-104610269D01*
X100610269Y-104896604D01*
X100601108Y-104904908D01*
X100288070Y-105161812D01*
X100278138Y-105169178D01*
X99941432Y-105394157D01*
X99930826Y-105400514D01*
X99573692Y-105591407D01*
X99562513Y-105596694D01*
X99188379Y-105751665D01*
X99176756Y-105755825D01*
X98789217Y-105873383D01*
X98777230Y-105876385D01*
X98423322Y-105946782D01*
X98380057Y-105955388D01*
X98367826Y-105957202D01*
X97964077Y-105996968D01*
X97953236Y-105997566D01*
X97750326Y-105999996D01*
X97750311Y-105999996D01*
X97750000Y-106000000D01*
X97712505Y-106000909D01*
X97672030Y-106001891D01*
X97672029Y-106001891D01*
X97665726Y-106002044D01*
X97659580Y-106003447D01*
X97659578Y-106003447D01*
X97574372Y-106022895D01*
X97501403Y-106039549D01*
X97433214Y-106072387D01*
X97355925Y-106109607D01*
X97355921Y-106109609D01*
X97349545Y-106112680D01*
X97217769Y-106217769D01*
X97112680Y-106349545D01*
X97109609Y-106355921D01*
X97109607Y-106355925D01*
X97076976Y-106423685D01*
X97039549Y-106501403D01*
X97002044Y-106665726D01*
X97000000Y-106750000D01*
X97000000Y-109416140D01*
X96997930Y-109438885D01*
X96965942Y-109613172D01*
X96965063Y-109620134D01*
X96941732Y-109953774D01*
X96941634Y-109960819D01*
X96955639Y-110294971D01*
X96956324Y-110301961D01*
X97007492Y-110632490D01*
X97008952Y-110639357D01*
X97096645Y-110962119D01*
X97098861Y-110968780D01*
X97221982Y-111279750D01*
X97224933Y-111286135D01*
X97381953Y-111581445D01*
X97385587Y-111587446D01*
X97574544Y-111863412D01*
X97578838Y-111868987D01*
X97739606Y-112055238D01*
X97752648Y-112063655D01*
X97762679Y-112057716D01*
X99807583Y-110012812D01*
X99814579Y-110000000D01*
X100000000Y-110000000D01*
X101480682Y-111480682D01*
X101479974Y-111481389D01*
X101417662Y-111515415D01*
X101346847Y-111510350D01*
X101301784Y-111481389D01*
X100012812Y-110192417D01*
X99998868Y-110184803D01*
X99997035Y-110184934D01*
X99990420Y-110189185D01*
X97944937Y-112234668D01*
X97937323Y-112248612D01*
X97937362Y-112249157D01*
X97942964Y-112257517D01*
X98047656Y-112354462D01*
X98053069Y-112358941D01*
X98322285Y-112557424D01*
X98328148Y-112561261D01*
X98617802Y-112728492D01*
X98624071Y-112731659D01*
X98930562Y-112865562D01*
X98937146Y-112868010D01*
X99256647Y-112966912D01*
X99263461Y-112968611D01*
X99592002Y-113031284D01*
X99598951Y-113032211D01*
X99932444Y-113057872D01*
X99939451Y-113058018D01*
X100273713Y-113046346D01*
X100280709Y-113045709D01*
X100611568Y-112996853D01*
X100618467Y-112995437D01*
X100941834Y-112909999D01*
X100948494Y-112907835D01*
X101260329Y-112786882D01*
X101266728Y-112783979D01*
X101563120Y-112629029D01*
X101569165Y-112625426D01*
X101846439Y-112438402D01*
X101852033Y-112434156D01*
X102077970Y-112241869D01*
X102142810Y-112212951D01*
X102212992Y-112223679D01*
X102248728Y-112248728D01*
X103000000Y-113000000D01*
X157000000Y-113000000D01*
X157753134Y-112246866D01*
X157815446Y-112212840D01*
X157886261Y-112217905D01*
X157927838Y-112243511D01*
X158047654Y-112354462D01*
X158053065Y-112358938D01*
X158322285Y-112557424D01*
X158328148Y-112561261D01*
X158617802Y-112728492D01*
X158624071Y-112731659D01*
X158930562Y-112865562D01*
X158937146Y-112868010D01*
X159256647Y-112966912D01*
X159263461Y-112968611D01*
X159592002Y-113031284D01*
X159598951Y-113032211D01*
X159932444Y-113057872D01*
X159939451Y-113058018D01*
X160273713Y-113046346D01*
X160280709Y-113045709D01*
X160611568Y-112996853D01*
X160618467Y-112995437D01*
X160941834Y-112909999D01*
X160948494Y-112907835D01*
X161260329Y-112786882D01*
X161266728Y-112783979D01*
X161563120Y-112629029D01*
X161569165Y-112625426D01*
X161846439Y-112438402D01*
X161852033Y-112434156D01*
X162055690Y-112260831D01*
X162064122Y-112247963D01*
X162058093Y-112237698D01*
X160012812Y-110192417D01*
X159998868Y-110184803D01*
X159997035Y-110184934D01*
X159990420Y-110189185D01*
X158698216Y-111481389D01*
X158635904Y-111515415D01*
X158565089Y-111510350D01*
X158520026Y-111481389D01*
X158519319Y-111480682D01*
X161480682Y-108519319D01*
X161481389Y-108520026D01*
X161515415Y-108582338D01*
X161510350Y-108653153D01*
X161481389Y-108698216D01*
X160192417Y-109987188D01*
X160184803Y-110001132D01*
X160184934Y-110002965D01*
X160189185Y-110009580D01*
X162234769Y-112055164D01*
X162248713Y-112062778D01*
X162249492Y-112062723D01*
X162257542Y-112057368D01*
X162340765Y-111968744D01*
X162345301Y-111963338D01*
X162545640Y-111695540D01*
X162549530Y-111689686D01*
X162718774Y-111401215D01*
X162721989Y-111394961D01*
X162858024Y-111089422D01*
X162860521Y-111082847D01*
X162961648Y-110764056D01*
X162963400Y-110757233D01*
X163028361Y-110429155D01*
X163029338Y-110422201D01*
X163057436Y-110087591D01*
X163057650Y-110083222D01*
X163058782Y-110002178D01*
X163058691Y-109997828D01*
X163039945Y-109662546D01*
X163039163Y-109655572D01*
X162983386Y-109325793D01*
X162981828Y-109318939D01*
X162889639Y-108997439D01*
X162887331Y-108990811D01*
X162759874Y-108681576D01*
X162756845Y-108675256D01*
X162595715Y-108382161D01*
X162591990Y-108376199D01*
X162399202Y-108102905D01*
X162394834Y-108097394D01*
X162242174Y-107925448D01*
X162211905Y-107861227D01*
X162221161Y-107790836D01*
X162247302Y-107752698D01*
X163000000Y-107000000D01*
X163000000Y-100686573D01*
X163020002Y-100618452D01*
X163073658Y-100571959D01*
X163125031Y-100560577D01*
X163170300Y-100560229D01*
X163931213Y-100554376D01*
X163999485Y-100573853D01*
X164007691Y-100579504D01*
X164135848Y-100675441D01*
X164149434Y-100687214D01*
X164312786Y-100850566D01*
X164324559Y-100864152D01*
X164463006Y-101049095D01*
X164472725Y-101064218D01*
X164583444Y-101266983D01*
X164590910Y-101283330D01*
X164632475Y-101394771D01*
X164671645Y-101499791D01*
X164676710Y-101517040D01*
X164725818Y-101742786D01*
X164728376Y-101760580D01*
X164742931Y-101964077D01*
X164742971Y-101964639D01*
X164742295Y-101975421D01*
X164742935Y-101975421D01*
X164742935Y-101987828D01*
X164740514Y-102000000D01*
X164742935Y-102012170D01*
X164743079Y-102012894D01*
X164745500Y-102037476D01*
X164745500Y-109962524D01*
X164743079Y-109987103D01*
X164740514Y-110000000D01*
X164742935Y-110012170D01*
X164742935Y-110022599D01*
X164743940Y-110035735D01*
X164727682Y-110408102D01*
X164726724Y-110419051D01*
X164682202Y-110757233D01*
X164674123Y-110818596D01*
X164672215Y-110829413D01*
X164614127Y-111091434D01*
X164584992Y-111222854D01*
X164582147Y-111233471D01*
X164471148Y-111585517D01*
X164460967Y-111617806D01*
X164457211Y-111628128D01*
X164315871Y-111969355D01*
X164302987Y-112000459D01*
X164298345Y-112010412D01*
X164147595Y-112300000D01*
X164112266Y-112367867D01*
X164106770Y-112377387D01*
X163890245Y-112717262D01*
X163883941Y-112726266D01*
X163839368Y-112784355D01*
X163638607Y-113045993D01*
X163631555Y-113054397D01*
X163628237Y-113058018D01*
X163359291Y-113351519D01*
X163351519Y-113359291D01*
X163202962Y-113495420D01*
X163054397Y-113631555D01*
X163045993Y-113638607D01*
X162811664Y-113818413D01*
X162726266Y-113883941D01*
X162717262Y-113890245D01*
X162377387Y-114106770D01*
X162367868Y-114112265D01*
X162010412Y-114298345D01*
X162000468Y-114302983D01*
X161628128Y-114457211D01*
X161617813Y-114460964D01*
X161233472Y-114582147D01*
X161222855Y-114584992D01*
X160829413Y-114672215D01*
X160818604Y-114674122D01*
X160419052Y-114726724D01*
X160408103Y-114727682D01*
X160356412Y-114729939D01*
X160035735Y-114743940D01*
X160022599Y-114742935D01*
X160012170Y-114742935D01*
X160000000Y-114740514D01*
X159987103Y-114743079D01*
X159962524Y-114745500D01*
X100037476Y-114745500D01*
X100012897Y-114743079D01*
X100000000Y-114740514D01*
X99987830Y-114742935D01*
X99977401Y-114742935D01*
X99964265Y-114743940D01*
X99643588Y-114729939D01*
X99591897Y-114727682D01*
X99580948Y-114726724D01*
X99181396Y-114674122D01*
X99170587Y-114672215D01*
X98777145Y-114584992D01*
X98766528Y-114582147D01*
X98382187Y-114460964D01*
X98371872Y-114457211D01*
X97999532Y-114302983D01*
X97989588Y-114298345D01*
X97632132Y-114112265D01*
X97622613Y-114106770D01*
X97282738Y-113890245D01*
X97273734Y-113883941D01*
X97188336Y-113818413D01*
X96954007Y-113638607D01*
X96945603Y-113631555D01*
X96797038Y-113495420D01*
X96648481Y-113359291D01*
X96640709Y-113351519D01*
X96371763Y-113058018D01*
X96368445Y-113054397D01*
X96361393Y-113045993D01*
X96160632Y-112784355D01*
X96116059Y-112726266D01*
X96109755Y-112717262D01*
X95893230Y-112377387D01*
X95887734Y-112367867D01*
X95852405Y-112300000D01*
X95701655Y-112010412D01*
X95697013Y-112000459D01*
X95684130Y-111969355D01*
X95542789Y-111628128D01*
X95539033Y-111617806D01*
X95528853Y-111585517D01*
X95417853Y-111233471D01*
X95415008Y-111222854D01*
X95385873Y-111091434D01*
X95327785Y-110829413D01*
X95325877Y-110818596D01*
X95317799Y-110757233D01*
X95273276Y-110419051D01*
X95272318Y-110408102D01*
X95256060Y-110035735D01*
X95257065Y-110022599D01*
X95257065Y-110012170D01*
X95259486Y-110000000D01*
X95256921Y-109987103D01*
X95254500Y-109962524D01*
X95254500Y-106787476D01*
X95256921Y-106762894D01*
X95257065Y-106762170D01*
X95259486Y-106750000D01*
X95257065Y-106737828D01*
X95257065Y-106725420D01*
X95257385Y-106725420D01*
X95256645Y-106714544D01*
X95270412Y-106486943D01*
X95272246Y-106471839D01*
X95318376Y-106220115D01*
X95322017Y-106205342D01*
X95351849Y-106109607D01*
X95398156Y-105961004D01*
X95403550Y-105946782D01*
X95403801Y-105946226D01*
X95508580Y-105713414D01*
X95515650Y-105699943D01*
X95516827Y-105697997D01*
X95591406Y-105574628D01*
X95648049Y-105480931D01*
X95656692Y-105468410D01*
X95814519Y-105266957D01*
X95824609Y-105255568D01*
X96005568Y-105074609D01*
X96016957Y-105064519D01*
X96033445Y-105051602D01*
X96078924Y-105015971D01*
X96218410Y-104906692D01*
X96230931Y-104898049D01*
X96449943Y-104765650D01*
X96463416Y-104758579D01*
X96696786Y-104653549D01*
X96711004Y-104648156D01*
X96955342Y-104572017D01*
X96970115Y-104568376D01*
X97221839Y-104522246D01*
X97236943Y-104520412D01*
X97464544Y-104506645D01*
X97475420Y-104507385D01*
X97475420Y-104507065D01*
X97487828Y-104507065D01*
X97500000Y-104509486D01*
X97504525Y-104508586D01*
X97808892Y-104491493D01*
X98113900Y-104439670D01*
X98411187Y-104354023D01*
X98471663Y-104328973D01*
X98693748Y-104236983D01*
X98693753Y-104236980D01*
X98697016Y-104235629D01*
X98967791Y-104085977D01*
X99220109Y-103906948D01*
X99450794Y-103700794D01*
X99656948Y-103470109D01*
X99835977Y-103217791D01*
X99985629Y-102947016D01*
X99990768Y-102934611D01*
X100102669Y-102664456D01*
X100102669Y-102664455D01*
X100104023Y-102661187D01*
X100189670Y-102363900D01*
X100241493Y-102058892D01*
X100258586Y-101754525D01*
X100259486Y-101750000D01*
X100256921Y-101737103D01*
X100254500Y-101712524D01*
X100254500Y-94287476D01*
X100256921Y-94262894D01*
X100257065Y-94262170D01*
X100259486Y-94250000D01*
X100258586Y-94245475D01*
X100241493Y-93941108D01*
X100189670Y-93636100D01*
X100104023Y-93338813D01*
X100049312Y-93206729D01*
X99986983Y-93056252D01*
X99986980Y-93056247D01*
X99985629Y-93052984D01*
X99981522Y-93045552D01*
X99920152Y-92934512D01*
X99835977Y-92782209D01*
X99673582Y-92553335D01*
X99658983Y-92532759D01*
X99658983Y-92532758D01*
X99656948Y-92529891D01*
X99536825Y-92395474D01*
X99453139Y-92301830D01*
X99450794Y-92299206D01*
X99220109Y-92093052D01*
X98967791Y-91914023D01*
X98697016Y-91764371D01*
X98693753Y-91763020D01*
X98693748Y-91763017D01*
X98414456Y-91647331D01*
X98414455Y-91647331D01*
X98411187Y-91645977D01*
X98113900Y-91560330D01*
X97808892Y-91508507D01*
X97504525Y-91491414D01*
X97500000Y-91490514D01*
X97487828Y-91492935D01*
X97475420Y-91492935D01*
X97475420Y-91492615D01*
X97464544Y-91493355D01*
X97236943Y-91479588D01*
X97221839Y-91477754D01*
X96970115Y-91431624D01*
X96955342Y-91427983D01*
X96887838Y-91406948D01*
X96711004Y-91351844D01*
X96696786Y-91346451D01*
X96463414Y-91241420D01*
X96449943Y-91234350D01*
X96230931Y-91101951D01*
X96218410Y-91093308D01*
X96016957Y-90935481D01*
X96005568Y-90925391D01*
X95824609Y-90744432D01*
X95814519Y-90733043D01*
X95656692Y-90531590D01*
X95648049Y-90519069D01*
X95515650Y-90300057D01*
X95508579Y-90286584D01*
X95470804Y-90202651D01*
X95403549Y-90053214D01*
X95398154Y-90038991D01*
X95393951Y-90025501D01*
X95322017Y-89794658D01*
X95318376Y-89779885D01*
X95272246Y-89528161D01*
X95270412Y-89513057D01*
X95256645Y-89285456D01*
X95257385Y-89274580D01*
X95257065Y-89274580D01*
X95257065Y-89262172D01*
X95259486Y-89250000D01*
X95256921Y-89237103D01*
X95254500Y-89212524D01*
X95254500Y-88616078D01*
X95274502Y-88547957D01*
X95328158Y-88501464D01*
X95398432Y-88491360D01*
X95463012Y-88520854D01*
X95492466Y-88558289D01*
X95534141Y-88639033D01*
X95542616Y-88651505D01*
X95643846Y-88767547D01*
X95655060Y-88777644D01*
X95781041Y-88866185D01*
X95794345Y-88873318D01*
X95937813Y-88929253D01*
X95952418Y-88933003D01*
X96069839Y-88948462D01*
X96078048Y-88949000D01*
X96304885Y-88949000D01*
X96320124Y-88944525D01*
X96321329Y-88943135D01*
X96323000Y-88935452D01*
X96323000Y-88930885D01*
X96577000Y-88930885D01*
X96581475Y-88946124D01*
X96582865Y-88947329D01*
X96590548Y-88949000D01*
X96818637Y-88949000D01*
X96826192Y-88948544D01*
X96940420Y-88934721D01*
X96955062Y-88931125D01*
X97099119Y-88876690D01*
X97112480Y-88869705D01*
X97239393Y-88782481D01*
X97250705Y-88772508D01*
X97353146Y-88657531D01*
X97361754Y-88645145D01*
X97433811Y-88509053D01*
X97439216Y-88494973D01*
X97464436Y-88394571D01*
X97463879Y-88380480D01*
X97455387Y-88377000D01*
X96595115Y-88377000D01*
X96579876Y-88381475D01*
X96578671Y-88382865D01*
X96577000Y-88390548D01*
X96577000Y-88930885D01*
X96323000Y-88930885D01*
X96323000Y-88104885D01*
X96577000Y-88104885D01*
X96581475Y-88120124D01*
X96582865Y-88121329D01*
X96590548Y-88123000D01*
X97450293Y-88123000D01*
X97463824Y-88119027D01*
X97465184Y-88109569D01*
X97441746Y-88011948D01*
X97436487Y-87997807D01*
X97365859Y-87860967D01*
X97357384Y-87848495D01*
X97256154Y-87732453D01*
X97244940Y-87722356D01*
X97118959Y-87633815D01*
X97105655Y-87626682D01*
X96962187Y-87570747D01*
X96947582Y-87566997D01*
X96830161Y-87551538D01*
X96821952Y-87551000D01*
X96595115Y-87551000D01*
X96579876Y-87555475D01*
X96578671Y-87556865D01*
X96577000Y-87564548D01*
X96577000Y-88104885D01*
X96323000Y-88104885D01*
X96323000Y-87569115D01*
X96318525Y-87553876D01*
X96317135Y-87552671D01*
X96309452Y-87551000D01*
X96081363Y-87551000D01*
X96073808Y-87551456D01*
X95959580Y-87565279D01*
X95944938Y-87568875D01*
X95800881Y-87623310D01*
X95787520Y-87630295D01*
X95660607Y-87717519D01*
X95649295Y-87727492D01*
X95546854Y-87842469D01*
X95538246Y-87854855D01*
X95491854Y-87942474D01*
X95442301Y-87993317D01*
X95373127Y-88009299D01*
X95306293Y-87985345D01*
X95263020Y-87929061D01*
X95254500Y-87883515D01*
X95254500Y-87438906D01*
X98421000Y-87438906D01*
X98421424Y-87446207D01*
X98434875Y-87561575D01*
X98438221Y-87575730D01*
X98491227Y-87721760D01*
X98497737Y-87734759D01*
X98582917Y-87864680D01*
X98592241Y-87875832D01*
X98705023Y-87982671D01*
X98716670Y-87991384D01*
X98851004Y-88069412D01*
X98864341Y-88075211D01*
X99011777Y-88119865D01*
X99020268Y-88117935D01*
X99023000Y-88107020D01*
X99023000Y-87395115D01*
X99018525Y-87379876D01*
X99017135Y-87378671D01*
X99009452Y-87377000D01*
X98439115Y-87377000D01*
X98423876Y-87381475D01*
X98422671Y-87382865D01*
X98421000Y-87390548D01*
X98421000Y-87438906D01*
X95254500Y-87438906D01*
X95254500Y-87104885D01*
X98421000Y-87104885D01*
X98425475Y-87120124D01*
X98426865Y-87121329D01*
X98434548Y-87123000D01*
X99004885Y-87123000D01*
X99020124Y-87118525D01*
X99021329Y-87117135D01*
X99023000Y-87109452D01*
X99023000Y-86400228D01*
X99019194Y-86387266D01*
X99004279Y-86385330D01*
X98949989Y-86394659D01*
X98936032Y-86398767D01*
X98793089Y-86459590D01*
X98780456Y-86466796D01*
X98655337Y-86558872D01*
X98644695Y-86568796D01*
X98544115Y-86687187D01*
X98536048Y-86699283D01*
X98465399Y-86837642D01*
X98460330Y-86851270D01*
X98422999Y-87003830D01*
X98421317Y-87014884D01*
X98421120Y-87018061D01*
X98421000Y-87021939D01*
X98421000Y-87104885D01*
X95254500Y-87104885D01*
X95254500Y-82438906D01*
X98421000Y-82438906D01*
X98421424Y-82446207D01*
X98434875Y-82561575D01*
X98438221Y-82575730D01*
X98491227Y-82721760D01*
X98497737Y-82734759D01*
X98582917Y-82864680D01*
X98592241Y-82875832D01*
X98705023Y-82982671D01*
X98716670Y-82991384D01*
X98851004Y-83069412D01*
X98864341Y-83075211D01*
X99011777Y-83119865D01*
X99020268Y-83117935D01*
X99023000Y-83107020D01*
X99023000Y-82395115D01*
X99018525Y-82379876D01*
X99017135Y-82378671D01*
X99009452Y-82377000D01*
X98439115Y-82377000D01*
X98423876Y-82381475D01*
X98422671Y-82382865D01*
X98421000Y-82390548D01*
X98421000Y-82438906D01*
X95254500Y-82438906D01*
X95254500Y-82104885D01*
X98421000Y-82104885D01*
X98425475Y-82120124D01*
X98426865Y-82121329D01*
X98434548Y-82123000D01*
X99004885Y-82123000D01*
X99020124Y-82118525D01*
X99021329Y-82117135D01*
X99023000Y-82109452D01*
X99023000Y-81400228D01*
X99019194Y-81387266D01*
X99004279Y-81385330D01*
X98949989Y-81394659D01*
X98936032Y-81398767D01*
X98793089Y-81459590D01*
X98780456Y-81466796D01*
X98655337Y-81558872D01*
X98644695Y-81568796D01*
X98544115Y-81687187D01*
X98536048Y-81699283D01*
X98465399Y-81837642D01*
X98460330Y-81851270D01*
X98422999Y-82003830D01*
X98421317Y-82014884D01*
X98421120Y-82018061D01*
X98421000Y-82021939D01*
X98421000Y-82104885D01*
X95254500Y-82104885D01*
X95254500Y-81616078D01*
X95274502Y-81547957D01*
X95328158Y-81501464D01*
X95398432Y-81491360D01*
X95463012Y-81520854D01*
X95492466Y-81558289D01*
X95534141Y-81639033D01*
X95542616Y-81651505D01*
X95643846Y-81767547D01*
X95655060Y-81777644D01*
X95781041Y-81866185D01*
X95794345Y-81873318D01*
X95937813Y-81929253D01*
X95952418Y-81933003D01*
X96069839Y-81948462D01*
X96078048Y-81949000D01*
X96304885Y-81949000D01*
X96320124Y-81944525D01*
X96321329Y-81943135D01*
X96323000Y-81935452D01*
X96323000Y-81930885D01*
X96577000Y-81930885D01*
X96581475Y-81946124D01*
X96582865Y-81947329D01*
X96590548Y-81949000D01*
X96818637Y-81949000D01*
X96826192Y-81948544D01*
X96940420Y-81934721D01*
X96955062Y-81931125D01*
X97099119Y-81876690D01*
X97112480Y-81869705D01*
X97239393Y-81782481D01*
X97250705Y-81772508D01*
X97353146Y-81657531D01*
X97361754Y-81645145D01*
X97433811Y-81509053D01*
X97439216Y-81494973D01*
X97464436Y-81394571D01*
X97463879Y-81380480D01*
X97455387Y-81377000D01*
X96595115Y-81377000D01*
X96579876Y-81381475D01*
X96578671Y-81382865D01*
X96577000Y-81390548D01*
X96577000Y-81930885D01*
X96323000Y-81930885D01*
X96323000Y-81104885D01*
X96577000Y-81104885D01*
X96581475Y-81120124D01*
X96582865Y-81121329D01*
X96590548Y-81123000D01*
X97450293Y-81123000D01*
X97463824Y-81119027D01*
X97465184Y-81109569D01*
X97441746Y-81011948D01*
X97436487Y-80997807D01*
X97365859Y-80860967D01*
X97357384Y-80848495D01*
X97256154Y-80732453D01*
X97244940Y-80722356D01*
X97118959Y-80633815D01*
X97105655Y-80626682D01*
X96962187Y-80570747D01*
X96947582Y-80566997D01*
X96830161Y-80551538D01*
X96821952Y-80551000D01*
X96595115Y-80551000D01*
X96579876Y-80555475D01*
X96578671Y-80556865D01*
X96577000Y-80564548D01*
X96577000Y-81104885D01*
X96323000Y-81104885D01*
X96323000Y-80569115D01*
X96318525Y-80553876D01*
X96317135Y-80552671D01*
X96309452Y-80551000D01*
X96081363Y-80551000D01*
X96073808Y-80551456D01*
X95959580Y-80565279D01*
X95944938Y-80568875D01*
X95800881Y-80623310D01*
X95787520Y-80630295D01*
X95660607Y-80717519D01*
X95649295Y-80727492D01*
X95546854Y-80842469D01*
X95538246Y-80854855D01*
X95491854Y-80942474D01*
X95442301Y-80993317D01*
X95373127Y-81009299D01*
X95306293Y-80985345D01*
X95263020Y-80929061D01*
X95254500Y-80883515D01*
X95254500Y-50037476D01*
X95256921Y-50012894D01*
X95259486Y-50000000D01*
X95257065Y-49987830D01*
X95257065Y-49977401D01*
X95256060Y-49964265D01*
X95272318Y-49591898D01*
X95273276Y-49580948D01*
X95275281Y-49565716D01*
X95325878Y-49181396D01*
X95327786Y-49170579D01*
X95338298Y-49123166D01*
X95415008Y-48777145D01*
X95417853Y-48766528D01*
X95429748Y-48728803D01*
X95539036Y-48382187D01*
X95542792Y-48371865D01*
X95564127Y-48320358D01*
X95697017Y-47999532D01*
X95701659Y-47989579D01*
X95725808Y-47943191D01*
X95887735Y-47632132D01*
X95893230Y-47622613D01*
X95898652Y-47614103D01*
X96042346Y-47388548D01*
X96109755Y-47282738D01*
X96116059Y-47273734D01*
X96244998Y-47105697D01*
X96361393Y-46954007D01*
X96368445Y-46945603D01*
X96529485Y-46769860D01*
X96640709Y-46648481D01*
X96648481Y-46640709D01*
X96869499Y-46438182D01*
X96945603Y-46368445D01*
X96954007Y-46361393D01*
X97273734Y-46116059D01*
X97282738Y-46109755D01*
X97622613Y-45893230D01*
X97632133Y-45887734D01*
X97704781Y-45849916D01*
X97989588Y-45701655D01*
X97999532Y-45697017D01*
X98371872Y-45542789D01*
X98382187Y-45539036D01*
X98766529Y-45417853D01*
X98777146Y-45415008D01*
X99170587Y-45327785D01*
X99181396Y-45325878D01*
X99580949Y-45273276D01*
X99591897Y-45272318D01*
X99643588Y-45270061D01*
X99964265Y-45256060D01*
X99977401Y-45257065D01*
X99987830Y-45257065D01*
X100000000Y-45259486D01*
X100012897Y-45256921D01*
X100037476Y-45254500D01*
X159962524Y-45254500D01*
X159987103Y-45256921D01*
G37*
G04 #@! TD.AperFunction*
G04 #@! TA.AperFunction,Conductor*
G36*
X124942121Y-88020002D02*
G01*
X124988614Y-88073658D01*
X125000000Y-88126000D01*
X125000000Y-93398466D01*
X124979998Y-93466587D01*
X124933469Y-93505464D01*
X124935139Y-93508356D01*
X124927989Y-93512484D01*
X124920358Y-93515645D01*
X124804526Y-93604526D01*
X124715645Y-93720358D01*
X124659772Y-93855246D01*
X124640715Y-94000000D01*
X124659772Y-94144754D01*
X124662931Y-94152380D01*
X124697421Y-94235645D01*
X124715645Y-94279642D01*
X124804526Y-94395474D01*
X124811076Y-94400500D01*
X124811079Y-94400503D01*
X124863019Y-94440358D01*
X124920357Y-94484355D01*
X124927986Y-94487515D01*
X124935141Y-94491646D01*
X124933607Y-94494302D01*
X124977504Y-94529681D01*
X125000000Y-94601535D01*
X125000000Y-96874000D01*
X124979998Y-96942121D01*
X124926342Y-96988614D01*
X124874000Y-97000000D01*
X121848889Y-97000000D01*
X121780768Y-96979998D01*
X121734275Y-96926342D01*
X121724171Y-96856068D01*
X121753665Y-96791488D01*
X121772181Y-96774041D01*
X121835474Y-96725474D01*
X121924355Y-96609642D01*
X121980228Y-96474754D01*
X121987871Y-96416704D01*
X121998207Y-96338188D01*
X121999285Y-96330000D01*
X121980228Y-96185246D01*
X121924355Y-96050358D01*
X121835474Y-95934526D01*
X121828924Y-95929500D01*
X121828921Y-95929497D01*
X121726196Y-95850673D01*
X121726194Y-95850672D01*
X121719643Y-95845645D01*
X121584754Y-95789772D01*
X121440000Y-95770715D01*
X121431812Y-95771793D01*
X121303432Y-95788694D01*
X121303430Y-95788695D01*
X121295246Y-95789772D01*
X121247430Y-95809578D01*
X121167986Y-95842485D01*
X121167984Y-95842486D01*
X121160358Y-95845645D01*
X121044526Y-95934526D01*
X120955645Y-96050358D01*
X120899772Y-96185246D01*
X120880715Y-96330000D01*
X120881793Y-96338188D01*
X120892130Y-96416704D01*
X120899772Y-96474754D01*
X120955645Y-96609642D01*
X121044526Y-96725474D01*
X121051075Y-96730499D01*
X121051079Y-96730503D01*
X121076086Y-96749691D01*
X121117953Y-96807029D01*
X121122175Y-96877900D01*
X121087411Y-96939803D01*
X121076085Y-96949616D01*
X121044355Y-96973963D01*
X120978135Y-96999563D01*
X120967652Y-97000000D01*
X119126000Y-97000000D01*
X119057879Y-96979998D01*
X119011386Y-96926342D01*
X119000000Y-96874000D01*
X119000000Y-96721261D01*
X119020002Y-96653140D01*
X119073658Y-96606647D01*
X119143932Y-96596543D01*
X119186510Y-96610742D01*
X119193883Y-96614779D01*
X119313265Y-96659533D01*
X119328510Y-96663158D01*
X119378892Y-96668631D01*
X119385706Y-96669000D01*
X119534885Y-96669000D01*
X119550124Y-96664525D01*
X119551329Y-96663135D01*
X119553000Y-96655452D01*
X119553000Y-96650884D01*
X119807000Y-96650884D01*
X119811475Y-96666123D01*
X119812865Y-96667328D01*
X119820548Y-96668999D01*
X119974292Y-96668999D01*
X119981110Y-96668630D01*
X120031482Y-96663159D01*
X120046741Y-96659530D01*
X120166118Y-96614778D01*
X120181704Y-96606246D01*
X120282867Y-96530428D01*
X120295428Y-96517867D01*
X120371246Y-96416704D01*
X120379778Y-96401118D01*
X120424533Y-96281735D01*
X120428158Y-96266490D01*
X120433631Y-96216108D01*
X120434000Y-96209294D01*
X120434000Y-95835115D01*
X120429525Y-95819876D01*
X120428135Y-95818671D01*
X120420452Y-95817000D01*
X119825115Y-95817000D01*
X119809876Y-95821475D01*
X119808671Y-95822865D01*
X119807000Y-95830548D01*
X119807000Y-96650884D01*
X119553000Y-96650884D01*
X119553000Y-95689000D01*
X119573002Y-95620879D01*
X119626658Y-95574386D01*
X119679000Y-95563000D01*
X120415884Y-95563000D01*
X120431123Y-95558525D01*
X120432328Y-95557135D01*
X120433999Y-95549452D01*
X120433999Y-95402423D01*
X120454001Y-95334302D01*
X120507657Y-95287809D01*
X120543553Y-95277501D01*
X120666566Y-95261306D01*
X120674754Y-95260228D01*
X120809643Y-95204355D01*
X120816196Y-95199327D01*
X120918921Y-95120503D01*
X120918924Y-95120500D01*
X120925474Y-95115474D01*
X121014355Y-94999642D01*
X121070228Y-94864754D01*
X121089285Y-94720000D01*
X121070228Y-94575246D01*
X121036700Y-94494302D01*
X121017515Y-94447986D01*
X121017514Y-94447984D01*
X121014355Y-94440358D01*
X120925474Y-94324526D01*
X120918924Y-94319500D01*
X120918921Y-94319497D01*
X120816196Y-94240673D01*
X120816194Y-94240672D01*
X120809643Y-94235645D01*
X120674754Y-94179772D01*
X120553554Y-94163816D01*
X120488627Y-94135094D01*
X120449535Y-94075829D01*
X120444000Y-94038894D01*
X120444000Y-93775115D01*
X120439525Y-93759876D01*
X120438135Y-93758671D01*
X120430452Y-93757000D01*
X119689000Y-93757000D01*
X119620879Y-93736998D01*
X119574386Y-93683342D01*
X119563000Y-93631000D01*
X119563000Y-93629000D01*
X119583002Y-93560879D01*
X119636658Y-93514386D01*
X119689000Y-93503000D01*
X120425884Y-93503000D01*
X120441123Y-93498525D01*
X120442328Y-93497135D01*
X120443999Y-93489452D01*
X120443999Y-93110708D01*
X120443630Y-93103890D01*
X120438159Y-93053518D01*
X120434530Y-93038259D01*
X120389778Y-92918882D01*
X120381246Y-92903296D01*
X120305428Y-92802133D01*
X120292867Y-92789572D01*
X120209145Y-92726826D01*
X120166630Y-92669967D01*
X120161604Y-92599149D01*
X120195664Y-92536855D01*
X120257995Y-92502865D01*
X120284710Y-92500000D01*
X122000000Y-92500000D01*
X122000000Y-92228828D01*
X122426001Y-92228828D01*
X122427209Y-92241088D01*
X122438315Y-92296931D01*
X122447633Y-92319427D01*
X122489983Y-92382808D01*
X122507192Y-92400017D01*
X122570575Y-92442368D01*
X122593066Y-92451684D01*
X122648915Y-92462793D01*
X122661170Y-92464000D01*
X123084885Y-92464000D01*
X123100124Y-92459525D01*
X123101329Y-92458135D01*
X123103000Y-92450452D01*
X123103000Y-92445884D01*
X123357000Y-92445884D01*
X123361475Y-92461123D01*
X123362865Y-92462328D01*
X123370548Y-92463999D01*
X123798828Y-92463999D01*
X123811088Y-92462791D01*
X123866931Y-92451685D01*
X123889427Y-92442367D01*
X123952808Y-92400017D01*
X123970017Y-92382808D01*
X124012368Y-92319425D01*
X124021684Y-92296934D01*
X124032793Y-92241085D01*
X124034000Y-92228830D01*
X124034000Y-90505115D01*
X124029525Y-90489876D01*
X124028135Y-90488671D01*
X124020452Y-90487000D01*
X123375115Y-90487000D01*
X123359876Y-90491475D01*
X123358671Y-90492865D01*
X123357000Y-90500548D01*
X123357000Y-92445884D01*
X123103000Y-92445884D01*
X123103000Y-90505115D01*
X123098525Y-90489876D01*
X123097135Y-90488671D01*
X123089452Y-90487000D01*
X122444116Y-90487000D01*
X122428877Y-90491475D01*
X122427672Y-90492865D01*
X122426001Y-90500548D01*
X122426001Y-92228828D01*
X122000000Y-92228828D01*
X122000000Y-90214885D01*
X122426000Y-90214885D01*
X122430475Y-90230124D01*
X122431865Y-90231329D01*
X122439548Y-90233000D01*
X123084885Y-90233000D01*
X123100124Y-90228525D01*
X123101329Y-90227135D01*
X123103000Y-90219452D01*
X123103000Y-90214885D01*
X123357000Y-90214885D01*
X123361475Y-90230124D01*
X123362865Y-90231329D01*
X123370548Y-90233000D01*
X124015884Y-90233000D01*
X124031123Y-90228525D01*
X124032328Y-90227135D01*
X124033999Y-90219452D01*
X124033999Y-88491172D01*
X124032791Y-88478912D01*
X124021685Y-88423069D01*
X124012367Y-88400573D01*
X123970017Y-88337192D01*
X123952808Y-88319983D01*
X123889425Y-88277632D01*
X123866934Y-88268316D01*
X123811085Y-88257207D01*
X123798830Y-88256000D01*
X123375115Y-88256000D01*
X123359876Y-88260475D01*
X123358671Y-88261865D01*
X123357000Y-88269548D01*
X123357000Y-90214885D01*
X123103000Y-90214885D01*
X123103000Y-88274116D01*
X123098525Y-88258877D01*
X123097135Y-88257672D01*
X123089452Y-88256001D01*
X122661172Y-88256001D01*
X122648912Y-88257209D01*
X122593069Y-88268315D01*
X122570573Y-88277633D01*
X122507192Y-88319983D01*
X122489983Y-88337192D01*
X122447632Y-88400575D01*
X122438316Y-88423066D01*
X122427207Y-88478915D01*
X122426000Y-88491170D01*
X122426000Y-90214885D01*
X122000000Y-90214885D01*
X122000000Y-88126000D01*
X122020002Y-88057879D01*
X122073658Y-88011386D01*
X122126000Y-88000000D01*
X124874000Y-88000000D01*
X124942121Y-88020002D01*
G37*
G04 #@! TD.AperFunction*
G04 #@! TA.AperFunction,Conductor*
G36*
X117722121Y-86690002D02*
G01*
X117768614Y-86743658D01*
X117780000Y-86796000D01*
X117780000Y-87201311D01*
X117766267Y-87258513D01*
X117719929Y-87349457D01*
X117713876Y-87368087D01*
X117701775Y-87444492D01*
X117701000Y-87454338D01*
X117701000Y-87469885D01*
X117705475Y-87485124D01*
X117706865Y-87486329D01*
X117714548Y-87488000D01*
X117780000Y-87488000D01*
X117780000Y-87742000D01*
X117719115Y-87742000D01*
X117703876Y-87746475D01*
X117702671Y-87747865D01*
X117701000Y-87755548D01*
X117701000Y-87775662D01*
X117701775Y-87785508D01*
X117713876Y-87861913D01*
X117719929Y-87880543D01*
X117766267Y-87971487D01*
X117780000Y-88028689D01*
X117780000Y-88220212D01*
X117766267Y-88277414D01*
X117714946Y-88378138D01*
X117713396Y-88387927D01*
X117713395Y-88387929D01*
X117709908Y-88409946D01*
X117700500Y-88469347D01*
X117700501Y-88800652D01*
X117714946Y-88891862D01*
X117719449Y-88900699D01*
X117719449Y-88900700D01*
X117766267Y-88992585D01*
X117780000Y-89049788D01*
X117780000Y-89229500D01*
X117759998Y-89297621D01*
X117706342Y-89344114D01*
X117654000Y-89355500D01*
X117290666Y-89355500D01*
X117195945Y-89370502D01*
X117081777Y-89428674D01*
X116991174Y-89519277D01*
X116933002Y-89633445D01*
X116918000Y-89728166D01*
X116918000Y-90091834D01*
X116933002Y-90186555D01*
X116991174Y-90300723D01*
X116998189Y-90307738D01*
X117000825Y-90311366D01*
X117024685Y-90378233D01*
X117008607Y-90447385D01*
X117000826Y-90459492D01*
X116987082Y-90478408D01*
X116937985Y-90574768D01*
X116931933Y-90593392D01*
X116919275Y-90673315D01*
X116918500Y-90683158D01*
X116918500Y-90714885D01*
X116922975Y-90730124D01*
X116924365Y-90731329D01*
X116932048Y-90733000D01*
X117780000Y-90733000D01*
X117780000Y-90987000D01*
X116936616Y-90987000D01*
X116921377Y-90991475D01*
X116920172Y-90992865D01*
X116918501Y-91000548D01*
X116918501Y-91036840D01*
X116919276Y-91046687D01*
X116931933Y-91126607D01*
X116937985Y-91145233D01*
X116987081Y-91241589D01*
X117000825Y-91260505D01*
X117024685Y-91327372D01*
X117008607Y-91396524D01*
X117000826Y-91408631D01*
X116998185Y-91412266D01*
X116991174Y-91419277D01*
X116986674Y-91428109D01*
X116986673Y-91428110D01*
X116978817Y-91443529D01*
X116933002Y-91533445D01*
X116918000Y-91628166D01*
X116918000Y-91991834D01*
X116933002Y-92086555D01*
X116991174Y-92200723D01*
X117081777Y-92291326D01*
X117195945Y-92349498D01*
X117290666Y-92364500D01*
X117654000Y-92364500D01*
X117722121Y-92384502D01*
X117768614Y-92438158D01*
X117780000Y-92490500D01*
X117780000Y-92525001D01*
X117759998Y-92593122D01*
X117706342Y-92639615D01*
X117654000Y-92651001D01*
X117495708Y-92651001D01*
X117488890Y-92651370D01*
X117438518Y-92656841D01*
X117423259Y-92660470D01*
X117303882Y-92705222D01*
X117288296Y-92713754D01*
X117187133Y-92789572D01*
X117174572Y-92802133D01*
X117098754Y-92903296D01*
X117090222Y-92918882D01*
X117045467Y-93038265D01*
X117041842Y-93053510D01*
X117036369Y-93103892D01*
X117036000Y-93110706D01*
X117036000Y-93484885D01*
X117040475Y-93500124D01*
X117041865Y-93501329D01*
X117049548Y-93503000D01*
X117791000Y-93503000D01*
X117859121Y-93523002D01*
X117905614Y-93576658D01*
X117917000Y-93629000D01*
X117917000Y-93631000D01*
X117896998Y-93699121D01*
X117843342Y-93745614D01*
X117791000Y-93757000D01*
X117054116Y-93757000D01*
X117038877Y-93761475D01*
X117037672Y-93762865D01*
X117036001Y-93770548D01*
X117036001Y-94149292D01*
X117036370Y-94156110D01*
X117041841Y-94206482D01*
X117045470Y-94221741D01*
X117090222Y-94341118D01*
X117098754Y-94356704D01*
X117174572Y-94457867D01*
X117187133Y-94470428D01*
X117288297Y-94546246D01*
X117289208Y-94546745D01*
X117289935Y-94547474D01*
X117295478Y-94551628D01*
X117294878Y-94552428D01*
X117339353Y-94597005D01*
X117354365Y-94666396D01*
X117329477Y-94732888D01*
X117289202Y-94767784D01*
X117278296Y-94773755D01*
X117177133Y-94849572D01*
X117164572Y-94862133D01*
X117088754Y-94963296D01*
X117080222Y-94978882D01*
X117035467Y-95098265D01*
X117031842Y-95113510D01*
X117026369Y-95163892D01*
X117026000Y-95170706D01*
X117026000Y-95544885D01*
X117030475Y-95560124D01*
X117031865Y-95561329D01*
X117039548Y-95563000D01*
X117781000Y-95563000D01*
X117849121Y-95583002D01*
X117895614Y-95636658D01*
X117907000Y-95689000D01*
X117907000Y-96650884D01*
X117911475Y-96666123D01*
X117912865Y-96667328D01*
X117920548Y-96668999D01*
X118074292Y-96668999D01*
X118081110Y-96668630D01*
X118131482Y-96663159D01*
X118146741Y-96659530D01*
X118266118Y-96614778D01*
X118281704Y-96606246D01*
X118382867Y-96530428D01*
X118395428Y-96517867D01*
X118471242Y-96416709D01*
X118483479Y-96394357D01*
X118533737Y-96344211D01*
X118603128Y-96329196D01*
X118669621Y-96354081D01*
X118712104Y-96410963D01*
X118720000Y-96454865D01*
X118720000Y-96884000D01*
X118699998Y-96952121D01*
X118646342Y-96998614D01*
X118594000Y-97010000D01*
X114746000Y-97010000D01*
X114677879Y-96989998D01*
X114631386Y-96936342D01*
X114620000Y-96884000D01*
X114620000Y-96209292D01*
X117026001Y-96209292D01*
X117026370Y-96216110D01*
X117031841Y-96266482D01*
X117035470Y-96281741D01*
X117080222Y-96401118D01*
X117088754Y-96416704D01*
X117164572Y-96517867D01*
X117177133Y-96530428D01*
X117278296Y-96606246D01*
X117293882Y-96614778D01*
X117413265Y-96659533D01*
X117428510Y-96663158D01*
X117478892Y-96668631D01*
X117485706Y-96669000D01*
X117634885Y-96669000D01*
X117650124Y-96664525D01*
X117651329Y-96663135D01*
X117653000Y-96655452D01*
X117653000Y-95835115D01*
X117648525Y-95819876D01*
X117647135Y-95818671D01*
X117639452Y-95817000D01*
X117044116Y-95817000D01*
X117028877Y-95821475D01*
X117027672Y-95822865D01*
X117026001Y-95830548D01*
X117026001Y-96209292D01*
X114620000Y-96209292D01*
X114620000Y-95220139D01*
X114640002Y-95152018D01*
X114655329Y-95132647D01*
X114675798Y-95111434D01*
X114682056Y-95104949D01*
X114728987Y-95015230D01*
X114730730Y-95009294D01*
X114747720Y-94951432D01*
X114747721Y-94951428D01*
X114748989Y-94947109D01*
X114752149Y-94925135D01*
X114758861Y-94878448D01*
X114758861Y-94878441D01*
X114759500Y-94874000D01*
X114759500Y-94564576D01*
X114755813Y-94535257D01*
X114767161Y-94465174D01*
X114814597Y-94412350D01*
X114883062Y-94393559D01*
X114950818Y-94414765D01*
X114981658Y-94443978D01*
X114984574Y-94447869D01*
X114997133Y-94460428D01*
X115098296Y-94536246D01*
X115113882Y-94544778D01*
X115233265Y-94589533D01*
X115248510Y-94593158D01*
X115298892Y-94598631D01*
X115305706Y-94599000D01*
X115454885Y-94599000D01*
X115470124Y-94594525D01*
X115471329Y-94593135D01*
X115473000Y-94585452D01*
X115473000Y-94580884D01*
X115727000Y-94580884D01*
X115731475Y-94596123D01*
X115732865Y-94597328D01*
X115740548Y-94598999D01*
X115894292Y-94598999D01*
X115901110Y-94598630D01*
X115951482Y-94593159D01*
X115966741Y-94589530D01*
X116086118Y-94544778D01*
X116101704Y-94536246D01*
X116202867Y-94460428D01*
X116215428Y-94447867D01*
X116291246Y-94346704D01*
X116299778Y-94331118D01*
X116344533Y-94211735D01*
X116348158Y-94196490D01*
X116353631Y-94146108D01*
X116354000Y-94139294D01*
X116354000Y-93765115D01*
X116349525Y-93749876D01*
X116348135Y-93748671D01*
X116340452Y-93747000D01*
X115745115Y-93747000D01*
X115729876Y-93751475D01*
X115728671Y-93752865D01*
X115727000Y-93760548D01*
X115727000Y-94580884D01*
X115473000Y-94580884D01*
X115473000Y-93474885D01*
X115727000Y-93474885D01*
X115731475Y-93490124D01*
X115732865Y-93491329D01*
X115740548Y-93493000D01*
X116335884Y-93493000D01*
X116351123Y-93488525D01*
X116352328Y-93487135D01*
X116353999Y-93479452D01*
X116353999Y-93100708D01*
X116353630Y-93093890D01*
X116348159Y-93043518D01*
X116344530Y-93028259D01*
X116299778Y-92908882D01*
X116291246Y-92893296D01*
X116215428Y-92792133D01*
X116202867Y-92779572D01*
X116101704Y-92703754D01*
X116086118Y-92695222D01*
X115966735Y-92650467D01*
X115951490Y-92646842D01*
X115901108Y-92641369D01*
X115894294Y-92641000D01*
X115745115Y-92641000D01*
X115728912Y-92645758D01*
X115727000Y-92654545D01*
X115727000Y-93474885D01*
X115473000Y-93474885D01*
X115473000Y-92659116D01*
X115465547Y-92633734D01*
X115465547Y-92562738D01*
X115503930Y-92503012D01*
X115546073Y-92480000D01*
X115560000Y-92480000D01*
X115560000Y-92466456D01*
X115560596Y-92463716D01*
X115594621Y-92401404D01*
X115656934Y-92367379D01*
X115683716Y-92364500D01*
X116104334Y-92364500D01*
X116199055Y-92349498D01*
X116313223Y-92291326D01*
X116403826Y-92200723D01*
X116461998Y-92086555D01*
X116477000Y-91991834D01*
X116477000Y-91628166D01*
X116461998Y-91533445D01*
X116457496Y-91524610D01*
X116457495Y-91524606D01*
X116451737Y-91513305D01*
X116438632Y-91443529D01*
X116461804Y-91382405D01*
X116466802Y-91375474D01*
X116473056Y-91368993D01*
X116519987Y-91279274D01*
X116539989Y-91211153D01*
X116549467Y-91145233D01*
X116549861Y-91142492D01*
X116549861Y-91142485D01*
X116550500Y-91138044D01*
X116550500Y-90986000D01*
X116548291Y-90965450D01*
X116544932Y-90934205D01*
X116544931Y-90934199D01*
X116544570Y-90930841D01*
X116533184Y-90878499D01*
X116525834Y-90851709D01*
X116475731Y-90763722D01*
X116449110Y-90733000D01*
X116431078Y-90712189D01*
X116431073Y-90712184D01*
X116429238Y-90710066D01*
X116395949Y-90677944D01*
X116306230Y-90631013D01*
X116302725Y-90629984D01*
X116247742Y-90586479D01*
X116224720Y-90519318D01*
X116241663Y-90450373D01*
X116293393Y-90401430D01*
X116313223Y-90391326D01*
X116403826Y-90300723D01*
X116461998Y-90186555D01*
X116477000Y-90091834D01*
X116477000Y-89728166D01*
X116461998Y-89633445D01*
X116403826Y-89519277D01*
X116313223Y-89428674D01*
X116199055Y-89370502D01*
X116104334Y-89355500D01*
X115686000Y-89355500D01*
X115617879Y-89335498D01*
X115571386Y-89281842D01*
X115560000Y-89229500D01*
X115560000Y-88380000D01*
X114734911Y-88380000D01*
X114666790Y-88359998D01*
X114620297Y-88306342D01*
X114610462Y-88234290D01*
X114623725Y-88150546D01*
X114624500Y-88145653D01*
X114624499Y-87714348D01*
X114610054Y-87623138D01*
X114554040Y-87513204D01*
X114466796Y-87425960D01*
X114356862Y-87369946D01*
X114347073Y-87368396D01*
X114347071Y-87368395D01*
X114316378Y-87363534D01*
X114265653Y-87355500D01*
X114100034Y-87355500D01*
X113934348Y-87355501D01*
X113929455Y-87356276D01*
X113929454Y-87356276D01*
X113852936Y-87368394D01*
X113852934Y-87368395D01*
X113843138Y-87369946D01*
X113733204Y-87425960D01*
X113678742Y-87480422D01*
X113616430Y-87514448D01*
X113545615Y-87509383D01*
X113500552Y-87480422D01*
X113453510Y-87433380D01*
X113437667Y-87421869D01*
X113345540Y-87374928D01*
X113326913Y-87368876D01*
X113250508Y-87356775D01*
X113240662Y-87356000D01*
X113225115Y-87356000D01*
X113209876Y-87360475D01*
X113208671Y-87361865D01*
X113207000Y-87369548D01*
X113207000Y-87931000D01*
X113186998Y-87999121D01*
X113133342Y-88045614D01*
X113081000Y-88057000D01*
X113079000Y-88057000D01*
X113010879Y-88036998D01*
X112964386Y-87983342D01*
X112953000Y-87931000D01*
X112953000Y-87374115D01*
X112948525Y-87358876D01*
X112947135Y-87357671D01*
X112939452Y-87356000D01*
X112919338Y-87356000D01*
X112909492Y-87356775D01*
X112905210Y-87357453D01*
X112834799Y-87348353D01*
X112780485Y-87302631D01*
X112759500Y-87233004D01*
X112759500Y-86796000D01*
X112779502Y-86727879D01*
X112833158Y-86681386D01*
X112885500Y-86670000D01*
X117654000Y-86670000D01*
X117722121Y-86690002D01*
G37*
G04 #@! TD.AperFunction*
G04 #@! TA.AperFunction,Conductor*
G36*
X157700302Y-103626723D02*
G01*
X157750421Y-103677008D01*
X157757714Y-103692978D01*
X157765083Y-103712635D01*
X157770463Y-103719814D01*
X157770465Y-103719817D01*
X157842077Y-103815367D01*
X157847456Y-103822544D01*
X157854633Y-103827923D01*
X157949566Y-103899072D01*
X157992080Y-103955932D01*
X158000000Y-103999898D01*
X158000000Y-105874000D01*
X157979998Y-105942121D01*
X157926342Y-105988614D01*
X157874000Y-106000000D01*
X157670796Y-106000000D01*
X157602675Y-105979998D01*
X157556182Y-105926342D01*
X157546078Y-105856068D01*
X157569970Y-105798435D01*
X157601245Y-105756704D01*
X157609778Y-105741118D01*
X157654533Y-105621735D01*
X157658158Y-105606490D01*
X157663631Y-105556108D01*
X157664000Y-105549294D01*
X157664000Y-105175115D01*
X157659525Y-105159876D01*
X157658135Y-105158671D01*
X157650452Y-105157000D01*
X156909000Y-105157000D01*
X156840879Y-105136998D01*
X156794386Y-105083342D01*
X156783000Y-105031000D01*
X156783000Y-105029000D01*
X156803002Y-104960879D01*
X156856658Y-104914386D01*
X156909000Y-104903000D01*
X157645884Y-104903000D01*
X157661123Y-104898525D01*
X157662328Y-104897135D01*
X157663999Y-104889452D01*
X157663999Y-104510708D01*
X157663630Y-104503890D01*
X157658159Y-104453518D01*
X157654530Y-104438259D01*
X157609778Y-104318882D01*
X157601246Y-104303296D01*
X157525428Y-104202133D01*
X157512867Y-104189572D01*
X157411704Y-104113754D01*
X157396118Y-104105222D01*
X157383926Y-104100651D01*
X157327161Y-104058010D01*
X157302461Y-103991448D01*
X157317668Y-103922100D01*
X157352589Y-103881843D01*
X157425010Y-103827566D01*
X157437566Y-103815010D01*
X157509092Y-103719575D01*
X157517626Y-103703986D01*
X157521751Y-103692982D01*
X157564391Y-103636217D01*
X157630953Y-103611516D01*
X157700302Y-103626723D01*
G37*
G04 #@! TD.AperFunction*
G04 #@! TA.AperFunction,Conductor*
G36*
X158441303Y-100616608D02*
G01*
X158488208Y-100669905D01*
X158500000Y-100723127D01*
X158500000Y-101835210D01*
X158479998Y-101903331D01*
X158426342Y-101949824D01*
X158356068Y-101959928D01*
X158325782Y-101951619D01*
X158272281Y-101929458D01*
X158217000Y-101884909D01*
X158196278Y-101818732D01*
X158194887Y-101818841D01*
X158194499Y-101813911D01*
X158194499Y-101808956D01*
X158179868Y-101716573D01*
X158123135Y-101605229D01*
X158106648Y-101588742D01*
X158072622Y-101526430D01*
X158077687Y-101455615D01*
X158106648Y-101410552D01*
X158115715Y-101401485D01*
X158127226Y-101385642D01*
X158174886Y-101292103D01*
X158180938Y-101273479D01*
X158193225Y-101195897D01*
X158194000Y-101186054D01*
X158194000Y-101165115D01*
X158189525Y-101149876D01*
X158188135Y-101148671D01*
X158180452Y-101147000D01*
X157242115Y-101147000D01*
X157225441Y-101151896D01*
X157189943Y-101157000D01*
X156619000Y-101157000D01*
X156550879Y-101136998D01*
X156504386Y-101083342D01*
X156493000Y-101031000D01*
X156493000Y-101029000D01*
X156513002Y-100960879D01*
X156566658Y-100914386D01*
X156619000Y-100903000D01*
X157007885Y-100903000D01*
X157024559Y-100898104D01*
X157060057Y-100893000D01*
X158175884Y-100893000D01*
X158191123Y-100888525D01*
X158192328Y-100887135D01*
X158193999Y-100879452D01*
X158193999Y-100853949D01*
X158193224Y-100844100D01*
X158180938Y-100766525D01*
X158179674Y-100762634D01*
X158179531Y-100757642D01*
X158179387Y-100756730D01*
X158179505Y-100756711D01*
X158177648Y-100691666D01*
X158214312Y-100630869D01*
X158278024Y-100599545D01*
X158298539Y-100597704D01*
X158373031Y-100597131D01*
X158441303Y-100616608D01*
G37*
G04 #@! TD.AperFunction*
G04 #@! TA.AperFunction,Conductor*
G36*
X155926757Y-98020002D02*
G01*
X155973250Y-98073658D01*
X155983558Y-98142446D01*
X155970715Y-98240000D01*
X155971793Y-98248188D01*
X155971793Y-98248190D01*
X155983031Y-98333555D01*
X155972091Y-98403703D01*
X155924963Y-98456801D01*
X155858109Y-98476000D01*
X155855115Y-98476000D01*
X155839876Y-98480475D01*
X155838671Y-98481865D01*
X155837000Y-98489548D01*
X155837000Y-99481000D01*
X155816998Y-99549121D01*
X155763342Y-99595614D01*
X155711000Y-99607000D01*
X155709000Y-99607000D01*
X155640879Y-99586998D01*
X155594386Y-99533342D01*
X155583000Y-99481000D01*
X155583000Y-98494116D01*
X155578525Y-98478877D01*
X155577135Y-98477672D01*
X155569452Y-98476001D01*
X155241172Y-98476001D01*
X155228912Y-98477209D01*
X155160894Y-98490737D01*
X155160609Y-98489303D01*
X155103622Y-98495427D01*
X155040137Y-98463644D01*
X155003912Y-98402584D01*
X155000000Y-98371430D01*
X155000000Y-98126000D01*
X155020002Y-98057879D01*
X155073658Y-98011386D01*
X155126000Y-98000000D01*
X155858636Y-98000000D01*
X155926757Y-98020002D01*
G37*
G04 #@! TD.AperFunction*
G04 #@! TA.AperFunction,Conductor*
G36*
X138984100Y-76520002D02*
G01*
X138990042Y-76524066D01*
X138997266Y-76529315D01*
X139004277Y-76536326D01*
X139013109Y-76540826D01*
X139013110Y-76540827D01*
X139046577Y-76557879D01*
X139118445Y-76594498D01*
X139213166Y-76609500D01*
X139576834Y-76609500D01*
X139671555Y-76594498D01*
X139743423Y-76557879D01*
X139776890Y-76540827D01*
X139776891Y-76540826D01*
X139785723Y-76536326D01*
X139792734Y-76529315D01*
X139795938Y-76526987D01*
X139862805Y-76503128D01*
X139931957Y-76519207D01*
X139944058Y-76526984D01*
X139947265Y-76529314D01*
X139948789Y-76530838D01*
X139991414Y-76586111D01*
X140000000Y-76631828D01*
X140000000Y-77028172D01*
X139979998Y-77096293D01*
X139951749Y-77126202D01*
X139947263Y-77130688D01*
X139943625Y-77133331D01*
X139876756Y-77157186D01*
X139807606Y-77141102D01*
X139795505Y-77133325D01*
X139776589Y-77119581D01*
X139680232Y-77070485D01*
X139661608Y-77064433D01*
X139581685Y-77051775D01*
X139571842Y-77051000D01*
X139540115Y-77051000D01*
X139524876Y-77055475D01*
X139523671Y-77056865D01*
X139522000Y-77064548D01*
X139522000Y-77968500D01*
X139501998Y-78036621D01*
X139448342Y-78083114D01*
X139396000Y-78094500D01*
X138859116Y-78094500D01*
X138843877Y-78098975D01*
X138842672Y-78100365D01*
X138841001Y-78108048D01*
X138841001Y-78506840D01*
X138841776Y-78516687D01*
X138854433Y-78596607D01*
X138860485Y-78615232D01*
X138889484Y-78672146D01*
X138902588Y-78741923D01*
X138875888Y-78807707D01*
X138816153Y-78849182D01*
X138797896Y-78855114D01*
X138704358Y-78902774D01*
X138688515Y-78914285D01*
X138614285Y-78988515D01*
X138602774Y-79004358D01*
X138555114Y-79097897D01*
X138549062Y-79116521D01*
X138536775Y-79194103D01*
X138536000Y-79203946D01*
X138536000Y-79224885D01*
X138540475Y-79240124D01*
X138541865Y-79241329D01*
X138549548Y-79243000D01*
X139101000Y-79243000D01*
X139169121Y-79263002D01*
X139215614Y-79316658D01*
X139227000Y-79369000D01*
X139227000Y-79371000D01*
X139206998Y-79439121D01*
X139153342Y-79485614D01*
X139101000Y-79497000D01*
X138554116Y-79497000D01*
X138538877Y-79501475D01*
X138537672Y-79502865D01*
X138536001Y-79510548D01*
X138536001Y-79536051D01*
X138536776Y-79545900D01*
X138549061Y-79623472D01*
X138555116Y-79642108D01*
X138602774Y-79735642D01*
X138614285Y-79751485D01*
X138623352Y-79760552D01*
X138657378Y-79822864D01*
X138652313Y-79893679D01*
X138623352Y-79938742D01*
X138606865Y-79955229D01*
X138605920Y-79954284D01*
X138557769Y-79991415D01*
X138512055Y-80000000D01*
X138000000Y-80000000D01*
X138000000Y-80874000D01*
X137979998Y-80942121D01*
X137926342Y-80988614D01*
X137874000Y-81000000D01*
X137641829Y-81000000D01*
X137573708Y-80979998D01*
X137527215Y-80926342D01*
X137516566Y-80887607D01*
X137513984Y-80863834D01*
X137513983Y-80863830D01*
X137513130Y-80855976D01*
X137464917Y-80727365D01*
X137459537Y-80720186D01*
X137459535Y-80720183D01*
X137387923Y-80624633D01*
X137382544Y-80617456D01*
X137375367Y-80612077D01*
X137279817Y-80540465D01*
X137279814Y-80540463D01*
X137272635Y-80535083D01*
X137252980Y-80527715D01*
X137196216Y-80485073D01*
X137171516Y-80418512D01*
X137186724Y-80349163D01*
X137237010Y-80299045D01*
X137252982Y-80291751D01*
X137263986Y-80287626D01*
X137279575Y-80279092D01*
X137375010Y-80207566D01*
X137387566Y-80195010D01*
X137459092Y-80099575D01*
X137467625Y-80083988D01*
X137509865Y-79971311D01*
X137513490Y-79956066D01*
X137518631Y-79908741D01*
X137519000Y-79901927D01*
X137519000Y-79780115D01*
X137514525Y-79764876D01*
X137513135Y-79763671D01*
X137505452Y-79762000D01*
X136789000Y-79762000D01*
X136720879Y-79741998D01*
X136674386Y-79688342D01*
X136663000Y-79636000D01*
X136663000Y-79634000D01*
X136683002Y-79565879D01*
X136736658Y-79519386D01*
X136789000Y-79508000D01*
X137500885Y-79508000D01*
X137516124Y-79503525D01*
X137517329Y-79502135D01*
X137519000Y-79494452D01*
X137519000Y-79368073D01*
X137518631Y-79361259D01*
X137513490Y-79313934D01*
X137509865Y-79298689D01*
X137467625Y-79186012D01*
X137459092Y-79170425D01*
X137387997Y-79075565D01*
X137363149Y-79009058D01*
X137378202Y-78939676D01*
X137428376Y-78889445D01*
X137488823Y-78873999D01*
X138108828Y-78873999D01*
X138121088Y-78872791D01*
X138176931Y-78861685D01*
X138199427Y-78852367D01*
X138262808Y-78810017D01*
X138280017Y-78792808D01*
X138322368Y-78729425D01*
X138331684Y-78706934D01*
X138342793Y-78651085D01*
X138344000Y-78638830D01*
X138344000Y-78215115D01*
X138339525Y-78199876D01*
X138338135Y-78198671D01*
X138330452Y-78197000D01*
X134154116Y-78197000D01*
X134138877Y-78201475D01*
X134137672Y-78202865D01*
X134136001Y-78210548D01*
X134136001Y-78638828D01*
X134137209Y-78651088D01*
X134148315Y-78706931D01*
X134157633Y-78729427D01*
X134199983Y-78792808D01*
X134225969Y-78818794D01*
X134224936Y-78819827D01*
X134261689Y-78863803D01*
X134270539Y-78934245D01*
X134239900Y-78998290D01*
X134221726Y-79014920D01*
X134142134Y-79074571D01*
X134129572Y-79087133D01*
X134053754Y-79188296D01*
X134045222Y-79203882D01*
X134000467Y-79323265D01*
X133996842Y-79338510D01*
X133991369Y-79388892D01*
X133991000Y-79395706D01*
X133991000Y-79544885D01*
X133995475Y-79560124D01*
X133996865Y-79561329D01*
X134004548Y-79563000D01*
X134971000Y-79563000D01*
X135039121Y-79583002D01*
X135085614Y-79636658D01*
X135097000Y-79689000D01*
X135097000Y-80425884D01*
X135101475Y-80441123D01*
X135102865Y-80442328D01*
X135110548Y-80443999D01*
X135489292Y-80443999D01*
X135496110Y-80443630D01*
X135546482Y-80438159D01*
X135561741Y-80434530D01*
X135681118Y-80389778D01*
X135696704Y-80381246D01*
X135797867Y-80305428D01*
X135810428Y-80292867D01*
X135886246Y-80191704D01*
X135894779Y-80176117D01*
X135908516Y-80139473D01*
X135951157Y-80082708D01*
X136017718Y-80058007D01*
X136087067Y-80073214D01*
X136127324Y-80108135D01*
X136192434Y-80195010D01*
X136204990Y-80207566D01*
X136300425Y-80279092D01*
X136316014Y-80287626D01*
X136327018Y-80291751D01*
X136383783Y-80334391D01*
X136408484Y-80400953D01*
X136393277Y-80470302D01*
X136342992Y-80520421D01*
X136327022Y-80527714D01*
X136307365Y-80535083D01*
X136300186Y-80540463D01*
X136300183Y-80540465D01*
X136204633Y-80612077D01*
X136197456Y-80617456D01*
X136192077Y-80624633D01*
X136120465Y-80720183D01*
X136120463Y-80720186D01*
X136115083Y-80727365D01*
X136111933Y-80735769D01*
X136111932Y-80735770D01*
X136072034Y-80842202D01*
X136066870Y-80855976D01*
X136066017Y-80863826D01*
X136066017Y-80863827D01*
X136063434Y-80887607D01*
X136036193Y-80953169D01*
X135977830Y-80993596D01*
X135938171Y-81000000D01*
X135874604Y-81000000D01*
X135806483Y-80979998D01*
X135799039Y-80974826D01*
X135696946Y-80898311D01*
X135696943Y-80898309D01*
X135689764Y-80892929D01*
X135591191Y-80855976D01*
X135561843Y-80844974D01*
X135561841Y-80844974D01*
X135554448Y-80842202D01*
X135546598Y-80841349D01*
X135546597Y-80841349D01*
X135496153Y-80835869D01*
X135496152Y-80835869D01*
X135492756Y-80835500D01*
X134447244Y-80835500D01*
X134443848Y-80835869D01*
X134443847Y-80835869D01*
X134393403Y-80841349D01*
X134393402Y-80841349D01*
X134385552Y-80842202D01*
X134378159Y-80844974D01*
X134378157Y-80844974D01*
X134348809Y-80855976D01*
X134250236Y-80892929D01*
X134243057Y-80898309D01*
X134243054Y-80898311D01*
X134140961Y-80974826D01*
X134074455Y-80999674D01*
X134065396Y-81000000D01*
X133126000Y-81000000D01*
X133057879Y-80979998D01*
X133011386Y-80926342D01*
X133000000Y-80874000D01*
X133000000Y-79984292D01*
X133991001Y-79984292D01*
X133991370Y-79991110D01*
X133996841Y-80041482D01*
X134000470Y-80056741D01*
X134045222Y-80176118D01*
X134053754Y-80191704D01*
X134129572Y-80292867D01*
X134142133Y-80305428D01*
X134243296Y-80381246D01*
X134258882Y-80389778D01*
X134378265Y-80434533D01*
X134393510Y-80438158D01*
X134443892Y-80443631D01*
X134450706Y-80444000D01*
X134824885Y-80444000D01*
X134840124Y-80439525D01*
X134841329Y-80438135D01*
X134843000Y-80430452D01*
X134843000Y-79835115D01*
X134838525Y-79819876D01*
X134837135Y-79818671D01*
X134829452Y-79817000D01*
X134009116Y-79817000D01*
X133993877Y-79821475D01*
X133992673Y-79822864D01*
X133991001Y-79830548D01*
X133991001Y-79984292D01*
X133000000Y-79984292D01*
X133000000Y-77924885D01*
X134136000Y-77924885D01*
X134140475Y-77940124D01*
X134141865Y-77941329D01*
X134149548Y-77943000D01*
X136094885Y-77943000D01*
X136110124Y-77938525D01*
X136111329Y-77937135D01*
X136113000Y-77929452D01*
X136113000Y-77924885D01*
X136367000Y-77924885D01*
X136371475Y-77940124D01*
X136372865Y-77941329D01*
X136380548Y-77943000D01*
X138325884Y-77943000D01*
X138341123Y-77938525D01*
X138342328Y-77937135D01*
X138343999Y-77929452D01*
X138343999Y-77822385D01*
X138841000Y-77822385D01*
X138845475Y-77837624D01*
X138846865Y-77838829D01*
X138854548Y-77840500D01*
X139249885Y-77840500D01*
X139265124Y-77836025D01*
X139266329Y-77834635D01*
X139268000Y-77826952D01*
X139268000Y-77069116D01*
X139263525Y-77053877D01*
X139262135Y-77052672D01*
X139254452Y-77051001D01*
X139218160Y-77051001D01*
X139208313Y-77051776D01*
X139128393Y-77064433D01*
X139109767Y-77070485D01*
X139013407Y-77119583D01*
X138997564Y-77131094D01*
X138921094Y-77207564D01*
X138909583Y-77223407D01*
X138860485Y-77319768D01*
X138854433Y-77338392D01*
X138841775Y-77418315D01*
X138841000Y-77428158D01*
X138841000Y-77822385D01*
X138343999Y-77822385D01*
X138343999Y-77501172D01*
X138342791Y-77488912D01*
X138331685Y-77433069D01*
X138322367Y-77410573D01*
X138280017Y-77347192D01*
X138262808Y-77329983D01*
X138199425Y-77287632D01*
X138176934Y-77278316D01*
X138121085Y-77267207D01*
X138108830Y-77266000D01*
X136385115Y-77266000D01*
X136369876Y-77270475D01*
X136368671Y-77271865D01*
X136367000Y-77279548D01*
X136367000Y-77924885D01*
X136113000Y-77924885D01*
X136113000Y-77284116D01*
X136108525Y-77268877D01*
X136107135Y-77267672D01*
X136099452Y-77266001D01*
X134371172Y-77266001D01*
X134358912Y-77267209D01*
X134303069Y-77278315D01*
X134280573Y-77287633D01*
X134217192Y-77329983D01*
X134199983Y-77347192D01*
X134157632Y-77410575D01*
X134148316Y-77433066D01*
X134137207Y-77488915D01*
X134136000Y-77501170D01*
X134136000Y-77924885D01*
X133000000Y-77924885D01*
X133000000Y-76626000D01*
X133020002Y-76557879D01*
X133073658Y-76511386D01*
X133126000Y-76500000D01*
X138915979Y-76500000D01*
X138984100Y-76520002D01*
G37*
G04 #@! TD.AperFunction*
G04 #@! TA.AperFunction,Conductor*
G36*
X102435744Y-78020002D02*
G01*
X102456718Y-78036905D01*
X102563107Y-78143294D01*
X102570649Y-78152734D01*
X102571029Y-78152411D01*
X102576847Y-78159247D01*
X102581637Y-78166839D01*
X102588365Y-78172781D01*
X102621643Y-78202171D01*
X102627330Y-78207517D01*
X102638664Y-78218851D01*
X102642247Y-78221536D01*
X102642249Y-78221538D01*
X102646939Y-78225053D01*
X102654782Y-78231438D01*
X102689954Y-78262501D01*
X102698076Y-78266314D01*
X102700877Y-78268154D01*
X102714872Y-78276563D01*
X102717835Y-78278185D01*
X102725020Y-78283570D01*
X102733430Y-78286723D01*
X102733432Y-78286724D01*
X102768966Y-78300046D01*
X102778279Y-78303970D01*
X102820766Y-78323917D01*
X102829640Y-78325299D01*
X102832867Y-78326285D01*
X102848630Y-78330420D01*
X102851923Y-78331144D01*
X102860336Y-78334298D01*
X102883340Y-78336008D01*
X102949787Y-78361001D01*
X102992177Y-78417954D01*
X103000000Y-78461660D01*
X103000000Y-84145482D01*
X102979998Y-84213603D01*
X102963095Y-84234577D01*
X102593206Y-84604466D01*
X102583766Y-84612008D01*
X102584089Y-84612388D01*
X102577253Y-84618206D01*
X102569661Y-84622996D01*
X102563719Y-84629724D01*
X102534329Y-84663002D01*
X102528983Y-84668689D01*
X102517649Y-84680023D01*
X102514964Y-84683606D01*
X102514962Y-84683608D01*
X102511447Y-84688298D01*
X102505062Y-84696141D01*
X102473999Y-84731313D01*
X102470186Y-84739435D01*
X102468346Y-84742236D01*
X102459937Y-84756231D01*
X102458315Y-84759194D01*
X102452930Y-84766379D01*
X102449777Y-84774789D01*
X102449776Y-84774791D01*
X102436454Y-84810325D01*
X102432530Y-84819638D01*
X102412583Y-84862125D01*
X102411201Y-84870999D01*
X102410215Y-84874226D01*
X102406075Y-84890009D01*
X102405354Y-84893287D01*
X102402202Y-84901695D01*
X102401537Y-84910646D01*
X102398724Y-84948500D01*
X102397570Y-84958547D01*
X102395500Y-84971840D01*
X102395500Y-84987205D01*
X102395154Y-84996542D01*
X102391493Y-85045810D01*
X102393366Y-85054585D01*
X102393959Y-85063281D01*
X102395500Y-85077881D01*
X102395500Y-85934626D01*
X102375498Y-86002747D01*
X102321842Y-86049240D01*
X102253054Y-86059548D01*
X102118188Y-86041793D01*
X102110000Y-86040715D01*
X102101812Y-86041793D01*
X101973432Y-86058694D01*
X101973430Y-86058695D01*
X101965246Y-86059772D01*
X101957619Y-86062931D01*
X101957620Y-86062931D01*
X101837986Y-86112485D01*
X101837984Y-86112486D01*
X101830358Y-86115645D01*
X101714526Y-86204526D01*
X101625645Y-86320358D01*
X101569772Y-86455246D01*
X101550715Y-86600000D01*
X101551793Y-86608188D01*
X101567639Y-86728554D01*
X101556699Y-86798703D01*
X101509571Y-86851801D01*
X101442717Y-86871000D01*
X101270115Y-86871000D01*
X101254876Y-86875475D01*
X101253671Y-86876865D01*
X101252000Y-86884548D01*
X101252000Y-87579885D01*
X101256475Y-87595124D01*
X101257865Y-87596329D01*
X101265548Y-87598000D01*
X101810884Y-87598000D01*
X101826123Y-87593525D01*
X101827328Y-87592135D01*
X101828999Y-87584452D01*
X101828999Y-87265966D01*
X101849001Y-87197845D01*
X101902657Y-87151352D01*
X101971445Y-87141044D01*
X102110000Y-87159285D01*
X102118188Y-87158207D01*
X102253054Y-87140452D01*
X102323203Y-87151391D01*
X102376301Y-87198520D01*
X102395500Y-87265374D01*
X102395500Y-88374000D01*
X102375498Y-88442121D01*
X102321842Y-88488614D01*
X102269500Y-88500000D01*
X101952638Y-88500000D01*
X101884517Y-88479998D01*
X101838024Y-88426342D01*
X101827245Y-88361650D01*
X101829000Y-88343830D01*
X101829000Y-87870115D01*
X101824525Y-87854876D01*
X101823135Y-87853671D01*
X101815452Y-87852000D01*
X101124000Y-87852000D01*
X101055879Y-87831998D01*
X101009386Y-87778342D01*
X100998000Y-87726000D01*
X100998000Y-86889116D01*
X100993525Y-86873877D01*
X100992135Y-86872672D01*
X100984452Y-86871001D01*
X100656169Y-86871001D01*
X100638349Y-86872756D01*
X100568596Y-86859527D01*
X100517068Y-86810686D01*
X100500000Y-86747363D01*
X100500000Y-86721535D01*
X100520002Y-86653414D01*
X100566525Y-86614531D01*
X100564859Y-86611646D01*
X100572014Y-86607515D01*
X100579643Y-86604355D01*
X100586196Y-86599327D01*
X100688921Y-86520503D01*
X100688924Y-86520500D01*
X100695474Y-86515474D01*
X100784355Y-86399642D01*
X100840228Y-86264754D01*
X100848819Y-86199503D01*
X100858207Y-86128188D01*
X100859285Y-86120000D01*
X100851356Y-86059772D01*
X100841306Y-85983432D01*
X100841305Y-85983430D01*
X100840228Y-85975246D01*
X100784355Y-85840358D01*
X100695474Y-85724526D01*
X100688924Y-85719500D01*
X100688921Y-85719497D01*
X100586196Y-85640673D01*
X100586194Y-85640672D01*
X100579643Y-85635645D01*
X100572014Y-85632485D01*
X100564859Y-85628354D01*
X100566393Y-85625698D01*
X100522496Y-85590319D01*
X100500000Y-85518465D01*
X100500000Y-78126000D01*
X100520002Y-78057879D01*
X100573658Y-78011386D01*
X100626000Y-78000000D01*
X102367623Y-78000000D01*
X102435744Y-78020002D01*
G37*
G04 #@! TD.AperFunction*
G04 #@! TA.AperFunction,Conductor*
G36*
X112442121Y-84520002D02*
G01*
X112488614Y-84573658D01*
X112500000Y-84626000D01*
X112500000Y-88677275D01*
X112479998Y-88745396D01*
X112426342Y-88791889D01*
X112349418Y-88800854D01*
X112331083Y-88797207D01*
X112318830Y-88796000D01*
X111995115Y-88796000D01*
X111979876Y-88800475D01*
X111978671Y-88801865D01*
X111977000Y-88809548D01*
X111977000Y-90485884D01*
X111981475Y-90501123D01*
X111982865Y-90502328D01*
X111990548Y-90503999D01*
X112325016Y-90503999D01*
X112325016Y-90505320D01*
X112388068Y-90517275D01*
X112439598Y-90566113D01*
X112455591Y-90612996D01*
X112459772Y-90644754D01*
X112462932Y-90652383D01*
X112490409Y-90718719D01*
X112500000Y-90766937D01*
X112500000Y-90860000D01*
X112518386Y-90860000D01*
X112586507Y-90880002D01*
X112602615Y-90892983D01*
X112604526Y-90895474D01*
X112720357Y-90984355D01*
X112855246Y-91040228D01*
X113000000Y-91059285D01*
X113008188Y-91058207D01*
X113136566Y-91041306D01*
X113144754Y-91040228D01*
X113279643Y-90984355D01*
X113395474Y-90895474D01*
X113395715Y-90895160D01*
X113454831Y-90862879D01*
X113481614Y-90860000D01*
X116165000Y-90860000D01*
X116233121Y-90880002D01*
X116279614Y-90933658D01*
X116291000Y-90986000D01*
X116291000Y-91138044D01*
X116270998Y-91206165D01*
X116217342Y-91252658D01*
X116145289Y-91262493D01*
X116109185Y-91256775D01*
X116099342Y-91256000D01*
X115705115Y-91256000D01*
X115689876Y-91260475D01*
X115688671Y-91261865D01*
X115687000Y-91269548D01*
X115687000Y-91811000D01*
X115666998Y-91879121D01*
X115613342Y-91925614D01*
X115561000Y-91937000D01*
X114661616Y-91937000D01*
X114646377Y-91941475D01*
X114645172Y-91942865D01*
X114643501Y-91950548D01*
X114643501Y-91986840D01*
X114644276Y-91996687D01*
X114656933Y-92076607D01*
X114662985Y-92095233D01*
X114712083Y-92191593D01*
X114723594Y-92207436D01*
X114801063Y-92284905D01*
X114835089Y-92347217D01*
X114830024Y-92418032D01*
X114787477Y-92474868D01*
X114720957Y-92499679D01*
X114711968Y-92500000D01*
X114500000Y-92500000D01*
X114500000Y-92675424D01*
X114479998Y-92743545D01*
X114426342Y-92790038D01*
X114356068Y-92800142D01*
X114298435Y-92776250D01*
X114201704Y-92703754D01*
X114186118Y-92695222D01*
X114066735Y-92650467D01*
X114051490Y-92646842D01*
X114001108Y-92641369D01*
X113994294Y-92641000D01*
X113845115Y-92641000D01*
X113829876Y-92645475D01*
X113828671Y-92646865D01*
X113827000Y-92654548D01*
X113827000Y-94580884D01*
X113831475Y-94596123D01*
X113832865Y-94597328D01*
X113840548Y-94598999D01*
X113994292Y-94598999D01*
X114001110Y-94598630D01*
X114051482Y-94593159D01*
X114066741Y-94589530D01*
X114186118Y-94544778D01*
X114201704Y-94536246D01*
X114298435Y-94463750D01*
X114364942Y-94438902D01*
X114434324Y-94453955D01*
X114484554Y-94504129D01*
X114500000Y-94564576D01*
X114500000Y-94874000D01*
X114479998Y-94942121D01*
X114426342Y-94988614D01*
X114374000Y-95000000D01*
X112626000Y-95000000D01*
X112557879Y-94979998D01*
X112511386Y-94926342D01*
X112500000Y-94874000D01*
X112500000Y-94139292D01*
X112946001Y-94139292D01*
X112946370Y-94146110D01*
X112951841Y-94196482D01*
X112955470Y-94211741D01*
X113000222Y-94331118D01*
X113008754Y-94346704D01*
X113084572Y-94447867D01*
X113097133Y-94460428D01*
X113198296Y-94536246D01*
X113213882Y-94544778D01*
X113333265Y-94589533D01*
X113348510Y-94593158D01*
X113398892Y-94598631D01*
X113405706Y-94599000D01*
X113554885Y-94599000D01*
X113570124Y-94594525D01*
X113571329Y-94593135D01*
X113573000Y-94585452D01*
X113573000Y-93765115D01*
X113568525Y-93749876D01*
X113567135Y-93748671D01*
X113559452Y-93747000D01*
X112964116Y-93747000D01*
X112948877Y-93751475D01*
X112947672Y-93752865D01*
X112946001Y-93760548D01*
X112946001Y-94139292D01*
X112500000Y-94139292D01*
X112500000Y-93474885D01*
X112946000Y-93474885D01*
X112950475Y-93490124D01*
X112951865Y-93491329D01*
X112959548Y-93493000D01*
X113554885Y-93493000D01*
X113570124Y-93488525D01*
X113571329Y-93487135D01*
X113573000Y-93479452D01*
X113573000Y-92659116D01*
X113568525Y-92643877D01*
X113567135Y-92642672D01*
X113559452Y-92641001D01*
X113405708Y-92641001D01*
X113398890Y-92641370D01*
X113348518Y-92646841D01*
X113333259Y-92650470D01*
X113213882Y-92695222D01*
X113198296Y-92703754D01*
X113097133Y-92779572D01*
X113084572Y-92792133D01*
X113008754Y-92893296D01*
X113000222Y-92908882D01*
X112955467Y-93028265D01*
X112951842Y-93043510D01*
X112946369Y-93093892D01*
X112946000Y-93100706D01*
X112946000Y-93474885D01*
X112500000Y-93474885D01*
X112500000Y-92500000D01*
X110626000Y-92500000D01*
X110557879Y-92479998D01*
X110511386Y-92426342D01*
X110500000Y-92374000D01*
X110500000Y-91664885D01*
X114643500Y-91664885D01*
X114647975Y-91680124D01*
X114649365Y-91681329D01*
X114657048Y-91683000D01*
X115414885Y-91683000D01*
X115430124Y-91678525D01*
X115431329Y-91677135D01*
X115433000Y-91669452D01*
X115433000Y-91274116D01*
X115428525Y-91258877D01*
X115427135Y-91257672D01*
X115419452Y-91256001D01*
X115020660Y-91256001D01*
X115010813Y-91256776D01*
X114930893Y-91269433D01*
X114912267Y-91275485D01*
X114815907Y-91324583D01*
X114800064Y-91336094D01*
X114723594Y-91412564D01*
X114712083Y-91428407D01*
X114662985Y-91524768D01*
X114656933Y-91543392D01*
X114644275Y-91623315D01*
X114643500Y-91633158D01*
X114643500Y-91664885D01*
X110500000Y-91664885D01*
X110500000Y-90268828D01*
X111146001Y-90268828D01*
X111147209Y-90281088D01*
X111158315Y-90336931D01*
X111167633Y-90359427D01*
X111209983Y-90422808D01*
X111227192Y-90440017D01*
X111290575Y-90482368D01*
X111313066Y-90491684D01*
X111368915Y-90502793D01*
X111381170Y-90504000D01*
X111704885Y-90504000D01*
X111720124Y-90499525D01*
X111721329Y-90498135D01*
X111723000Y-90490452D01*
X111723000Y-89795115D01*
X111718525Y-89779876D01*
X111717135Y-89778671D01*
X111709452Y-89777000D01*
X111164116Y-89777000D01*
X111148877Y-89781475D01*
X111147672Y-89782865D01*
X111146001Y-89790548D01*
X111146001Y-90268828D01*
X110500000Y-90268828D01*
X110500000Y-89504885D01*
X111146000Y-89504885D01*
X111150475Y-89520124D01*
X111151865Y-89521329D01*
X111159548Y-89523000D01*
X111704885Y-89523000D01*
X111720124Y-89518525D01*
X111721329Y-89517135D01*
X111723000Y-89509452D01*
X111723000Y-88814116D01*
X111718525Y-88798877D01*
X111717135Y-88797672D01*
X111709452Y-88796001D01*
X111381172Y-88796001D01*
X111368912Y-88797209D01*
X111313069Y-88808315D01*
X111290573Y-88817633D01*
X111227192Y-88859983D01*
X111209983Y-88877192D01*
X111167632Y-88940575D01*
X111158316Y-88963066D01*
X111147207Y-89018915D01*
X111146000Y-89031170D01*
X111146000Y-89504885D01*
X110500000Y-89504885D01*
X110500000Y-88500000D01*
X110126000Y-88500000D01*
X110057879Y-88479998D01*
X110011386Y-88426342D01*
X110000000Y-88374000D01*
X110000000Y-87380000D01*
X110020002Y-87311879D01*
X110073658Y-87265386D01*
X110126000Y-87254000D01*
X110504885Y-87254000D01*
X110520124Y-87249525D01*
X110521329Y-87248135D01*
X110523000Y-87240452D01*
X110523000Y-87235884D01*
X110777000Y-87235884D01*
X110781475Y-87251123D01*
X110782865Y-87252328D01*
X110790548Y-87253999D01*
X111264340Y-87253999D01*
X111274187Y-87253224D01*
X111354107Y-87240567D01*
X111372733Y-87234515D01*
X111469093Y-87185417D01*
X111484936Y-87173906D01*
X111561406Y-87097436D01*
X111572917Y-87081593D01*
X111622015Y-86985232D01*
X111628067Y-86966608D01*
X111640725Y-86886685D01*
X111641500Y-86876842D01*
X111641500Y-86845115D01*
X111637025Y-86829876D01*
X111635635Y-86828671D01*
X111627952Y-86827000D01*
X110795115Y-86827000D01*
X110779876Y-86831475D01*
X110778671Y-86832865D01*
X110777000Y-86840548D01*
X110777000Y-87235884D01*
X110523000Y-87235884D01*
X110523000Y-86554885D01*
X110777000Y-86554885D01*
X110781475Y-86570124D01*
X110782865Y-86571329D01*
X110790548Y-86573000D01*
X111623384Y-86573000D01*
X111638623Y-86568525D01*
X111639828Y-86567135D01*
X111641499Y-86559452D01*
X111641499Y-86523160D01*
X111640724Y-86513313D01*
X111628067Y-86433393D01*
X111622015Y-86414767D01*
X111572917Y-86318407D01*
X111561406Y-86302564D01*
X111484936Y-86226094D01*
X111469093Y-86214583D01*
X111372732Y-86165485D01*
X111354108Y-86159433D01*
X111274185Y-86146775D01*
X111264342Y-86146000D01*
X110795115Y-86146000D01*
X110779876Y-86150475D01*
X110778671Y-86151865D01*
X110777000Y-86159548D01*
X110777000Y-86554885D01*
X110523000Y-86554885D01*
X110523000Y-86164116D01*
X110518525Y-86148877D01*
X110517135Y-86147672D01*
X110509452Y-86146001D01*
X110126000Y-86146001D01*
X110057879Y-86125999D01*
X110011386Y-86072343D01*
X110000000Y-86020001D01*
X110000000Y-85074514D01*
X110023483Y-85001260D01*
X110024234Y-85000209D01*
X110027801Y-84995457D01*
X110051019Y-84966005D01*
X110057468Y-84957825D01*
X110060314Y-84949720D01*
X110065310Y-84942729D01*
X110079034Y-84896838D01*
X110080868Y-84891193D01*
X110094121Y-84853453D01*
X110094122Y-84853450D01*
X110096748Y-84845971D01*
X110097200Y-84840752D01*
X110097200Y-84838041D01*
X110097298Y-84835764D01*
X110097433Y-84835315D01*
X110097487Y-84835317D01*
X110097502Y-84835084D01*
X110099277Y-84829148D01*
X110097297Y-84778750D01*
X110097200Y-84773804D01*
X110097200Y-84626000D01*
X110117202Y-84557879D01*
X110170858Y-84511386D01*
X110223200Y-84500000D01*
X112374000Y-84500000D01*
X112442121Y-84520002D01*
G37*
G04 #@! TD.AperFunction*
G04 #@! TA.AperFunction,Conductor*
G36*
X111942121Y-98020002D02*
G01*
X111988614Y-98073658D01*
X112000000Y-98126000D01*
X112000000Y-98253817D01*
X111979998Y-98321938D01*
X111926342Y-98368431D01*
X111909498Y-98374713D01*
X111889876Y-98380474D01*
X111888671Y-98381865D01*
X111887000Y-98389548D01*
X111887000Y-98951000D01*
X111866998Y-99019121D01*
X111813342Y-99065614D01*
X111761000Y-99077000D01*
X111254115Y-99077000D01*
X111238876Y-99081475D01*
X111237671Y-99082865D01*
X111236000Y-99090548D01*
X111236000Y-99160662D01*
X111236775Y-99170508D01*
X111248876Y-99246913D01*
X111254929Y-99265543D01*
X111263466Y-99282298D01*
X111276570Y-99352075D01*
X111249869Y-99417859D01*
X111191841Y-99458765D01*
X111151199Y-99465500D01*
X111110625Y-99465500D01*
X111098620Y-99464159D01*
X111098580Y-99464655D01*
X111089633Y-99463935D01*
X111080877Y-99461954D01*
X111037339Y-99464655D01*
X111027619Y-99465258D01*
X111019817Y-99465500D01*
X111003774Y-99465500D01*
X110999344Y-99466135D01*
X110999337Y-99466135D01*
X110993536Y-99466966D01*
X110983481Y-99467996D01*
X110945601Y-99470346D01*
X110945599Y-99470346D01*
X110936642Y-99470902D01*
X110928201Y-99473949D01*
X110924923Y-99474628D01*
X110909055Y-99478584D01*
X110905831Y-99479527D01*
X110896948Y-99480799D01*
X110888779Y-99484513D01*
X110888773Y-99484515D01*
X110854221Y-99500225D01*
X110844853Y-99504039D01*
X110800716Y-99519972D01*
X110793466Y-99525269D01*
X110790499Y-99526846D01*
X110776386Y-99535093D01*
X110773563Y-99536898D01*
X110765395Y-99540612D01*
X110758598Y-99546469D01*
X110758596Y-99546470D01*
X110738047Y-99564177D01*
X110704017Y-99585134D01*
X110658333Y-99604057D01*
X110630358Y-99615645D01*
X110625327Y-99619505D01*
X110557195Y-99636034D01*
X110490103Y-99612814D01*
X110446215Y-99557007D01*
X110439466Y-99486332D01*
X110458977Y-99439355D01*
X110479647Y-99408941D01*
X110486018Y-99396956D01*
X110549856Y-99237350D01*
X110553506Y-99224279D01*
X110566652Y-99144874D01*
X110564998Y-99131330D01*
X110550810Y-99127000D01*
X109595115Y-99127000D01*
X109579876Y-99131475D01*
X109578671Y-99132865D01*
X109577000Y-99140548D01*
X109577000Y-99835885D01*
X109581475Y-99851124D01*
X109582865Y-99852329D01*
X109590548Y-99854000D01*
X109767941Y-99854000D01*
X109774755Y-99853631D01*
X109902680Y-99839734D01*
X109915932Y-99836820D01*
X110078854Y-99781991D01*
X110091176Y-99776298D01*
X110233240Y-99690937D01*
X110301933Y-99672997D01*
X110369420Y-99695043D01*
X110414274Y-99750076D01*
X110422255Y-99820623D01*
X110414543Y-99847159D01*
X110372933Y-99947613D01*
X110372932Y-99947618D01*
X110369772Y-99955246D01*
X110350715Y-100100000D01*
X110369772Y-100244754D01*
X110372931Y-100252380D01*
X110417670Y-100360388D01*
X110425645Y-100379642D01*
X110448149Y-100408970D01*
X110505867Y-100484189D01*
X110514526Y-100495474D01*
X110521076Y-100500500D01*
X110521079Y-100500503D01*
X110617039Y-100574136D01*
X110630357Y-100584355D01*
X110765246Y-100640228D01*
X110910000Y-100659285D01*
X110918188Y-100658207D01*
X111046566Y-100641306D01*
X111054754Y-100640228D01*
X111189643Y-100584355D01*
X111298189Y-100501064D01*
X111364406Y-100475464D01*
X111432094Y-100488760D01*
X111513138Y-100530054D01*
X111522927Y-100531604D01*
X111522929Y-100531605D01*
X111549421Y-100535801D01*
X111604347Y-100544500D01*
X111628984Y-100544500D01*
X111874001Y-100544499D01*
X111942120Y-100564501D01*
X111988613Y-100618156D01*
X112000000Y-100670499D01*
X112000000Y-101874000D01*
X111979998Y-101942121D01*
X111926342Y-101988614D01*
X111874000Y-102000000D01*
X103126000Y-102000000D01*
X103057879Y-101979998D01*
X103011386Y-101926342D01*
X103000000Y-101874000D01*
X103000000Y-100730000D01*
X103020002Y-100661879D01*
X103073658Y-100615386D01*
X103126000Y-100604000D01*
X103304885Y-100604000D01*
X103320124Y-100599525D01*
X103321329Y-100598135D01*
X103323000Y-100590452D01*
X103323000Y-100585884D01*
X103577000Y-100585884D01*
X103581475Y-100601123D01*
X103582865Y-100602328D01*
X103590548Y-100603999D01*
X103969292Y-100603999D01*
X103976110Y-100603630D01*
X104026482Y-100598159D01*
X104041741Y-100594530D01*
X104161118Y-100549778D01*
X104176704Y-100541246D01*
X104277867Y-100465428D01*
X104290428Y-100452867D01*
X104366246Y-100351704D01*
X104374778Y-100336118D01*
X104406373Y-100251840D01*
X104721001Y-100251840D01*
X104721776Y-100261687D01*
X104734433Y-100341607D01*
X104740485Y-100360233D01*
X104789583Y-100456593D01*
X104801094Y-100472436D01*
X104877564Y-100548906D01*
X104893407Y-100560417D01*
X104989768Y-100609515D01*
X105008392Y-100615567D01*
X105088315Y-100628225D01*
X105098158Y-100629000D01*
X105129885Y-100629000D01*
X105145124Y-100624525D01*
X105146329Y-100623135D01*
X105148000Y-100615452D01*
X105148000Y-99857615D01*
X105143525Y-99842376D01*
X105142135Y-99841171D01*
X105134452Y-99839500D01*
X104739116Y-99839500D01*
X104723877Y-99843975D01*
X104722672Y-99845365D01*
X104721001Y-99853048D01*
X104721001Y-100251840D01*
X104406373Y-100251840D01*
X104419533Y-100216735D01*
X104423158Y-100201490D01*
X104428631Y-100151108D01*
X104429000Y-100144294D01*
X104429000Y-99995115D01*
X104424525Y-99979876D01*
X104423135Y-99978671D01*
X104415452Y-99977000D01*
X103595115Y-99977000D01*
X103579876Y-99981475D01*
X103578671Y-99982865D01*
X103577000Y-99990548D01*
X103577000Y-100585884D01*
X103323000Y-100585884D01*
X103323000Y-99849000D01*
X103343002Y-99780879D01*
X103396658Y-99734386D01*
X103449000Y-99723000D01*
X104410884Y-99723000D01*
X104426123Y-99718525D01*
X104427328Y-99717135D01*
X104428999Y-99709452D01*
X104428999Y-99555708D01*
X104428630Y-99548890D01*
X104423159Y-99498518D01*
X104419530Y-99483259D01*
X104374778Y-99363882D01*
X104366246Y-99348296D01*
X104290428Y-99247133D01*
X104277867Y-99234572D01*
X104176704Y-99158754D01*
X104161118Y-99150222D01*
X104144474Y-99143982D01*
X104087709Y-99101341D01*
X104063009Y-99034779D01*
X104078216Y-98965430D01*
X104128502Y-98915312D01*
X104188703Y-98900000D01*
X104620597Y-98900000D01*
X104688718Y-98920002D01*
X104735211Y-98973658D01*
X104745315Y-99043932D01*
X104740430Y-99064936D01*
X104734433Y-99083392D01*
X104721775Y-99163315D01*
X104721000Y-99173158D01*
X104721000Y-99567385D01*
X104725475Y-99582624D01*
X104726865Y-99583829D01*
X104734548Y-99585500D01*
X105276000Y-99585500D01*
X105344121Y-99605502D01*
X105390614Y-99659158D01*
X105402000Y-99711500D01*
X105402000Y-100610882D01*
X105412646Y-100647139D01*
X105412646Y-100718136D01*
X105408158Y-100730857D01*
X105392933Y-100767613D01*
X105392932Y-100767618D01*
X105389772Y-100775246D01*
X105388695Y-100783430D01*
X105388694Y-100783432D01*
X105380796Y-100843429D01*
X105370715Y-100920000D01*
X105371793Y-100928188D01*
X105384107Y-101021721D01*
X105389772Y-101064754D01*
X105445645Y-101199642D01*
X105534526Y-101315474D01*
X105541076Y-101320500D01*
X105541079Y-101320503D01*
X105643804Y-101399327D01*
X105650357Y-101404355D01*
X105785246Y-101460228D01*
X105930000Y-101479285D01*
X105938188Y-101478207D01*
X106066566Y-101461306D01*
X106074754Y-101460228D01*
X106209643Y-101404355D01*
X106216196Y-101399327D01*
X106318921Y-101320503D01*
X106318924Y-101320500D01*
X106325474Y-101315474D01*
X106414355Y-101199642D01*
X106440493Y-101136540D01*
X106467807Y-101095664D01*
X106531794Y-101031677D01*
X106541234Y-101024135D01*
X106540911Y-101023755D01*
X106547747Y-101017937D01*
X106555339Y-101013147D01*
X106590672Y-100973140D01*
X106596017Y-100967454D01*
X106607351Y-100956120D01*
X106613553Y-100947845D01*
X106619940Y-100940000D01*
X106645060Y-100911557D01*
X106651001Y-100904830D01*
X106654814Y-100896708D01*
X106656654Y-100893907D01*
X106665063Y-100879912D01*
X106666685Y-100876949D01*
X106672070Y-100869764D01*
X106676026Y-100859212D01*
X106677390Y-100857396D01*
X106679532Y-100853484D01*
X106680097Y-100853793D01*
X106718669Y-100802449D01*
X106785232Y-100777751D01*
X106842225Y-100787036D01*
X106968138Y-100839191D01*
X106968141Y-100839192D01*
X106975768Y-100842351D01*
X107120522Y-100861408D01*
X107128710Y-100860330D01*
X107150997Y-100857396D01*
X107265276Y-100842351D01*
X107400165Y-100786478D01*
X107406718Y-100781450D01*
X107509443Y-100702626D01*
X107509446Y-100702623D01*
X107515996Y-100697597D01*
X107604877Y-100581765D01*
X107628161Y-100525553D01*
X107645295Y-100484189D01*
X107654759Y-100467290D01*
X107656326Y-100465723D01*
X107714498Y-100351555D01*
X107729500Y-100256834D01*
X107729500Y-99168166D01*
X107724812Y-99138567D01*
X108327959Y-99138567D01*
X108328827Y-99143926D01*
X108374476Y-99309650D01*
X108379475Y-99322274D01*
X108459644Y-99474329D01*
X108467231Y-99485579D01*
X108578186Y-99616876D01*
X108588017Y-99626238D01*
X108724575Y-99730645D01*
X108736178Y-99737671D01*
X108891985Y-99810326D01*
X108904812Y-99814693D01*
X109074199Y-99852554D01*
X109084092Y-99853927D01*
X109086708Y-99854000D01*
X109304885Y-99854000D01*
X109320124Y-99849525D01*
X109321329Y-99848135D01*
X109323000Y-99840452D01*
X109323000Y-99145115D01*
X109318525Y-99129876D01*
X109317135Y-99128671D01*
X109309452Y-99127000D01*
X108344587Y-99127000D01*
X108329348Y-99131475D01*
X108329298Y-99131533D01*
X108327959Y-99138567D01*
X107724812Y-99138567D01*
X107714498Y-99073445D01*
X107710098Y-99064811D01*
X107708076Y-98993966D01*
X107744740Y-98933169D01*
X107808453Y-98901845D01*
X107829936Y-98900000D01*
X108000000Y-98900000D01*
X108000000Y-98812802D01*
X108020002Y-98744681D01*
X108063651Y-98703310D01*
X108090899Y-98687794D01*
X108096278Y-98684731D01*
X108100951Y-98680682D01*
X108100955Y-98680679D01*
X108143374Y-98643922D01*
X108207955Y-98614429D01*
X108278229Y-98624532D01*
X108331885Y-98671025D01*
X108351887Y-98739146D01*
X108347245Y-98773030D01*
X108346495Y-98775715D01*
X108333348Y-98855126D01*
X108335002Y-98868670D01*
X108349190Y-98873000D01*
X110555413Y-98873000D01*
X110570652Y-98868525D01*
X110570702Y-98868467D01*
X110572041Y-98861433D01*
X110571173Y-98856074D01*
X110557073Y-98804885D01*
X111236000Y-98804885D01*
X111240475Y-98820124D01*
X111241865Y-98821329D01*
X111249548Y-98823000D01*
X111614885Y-98823000D01*
X111630124Y-98818525D01*
X111631329Y-98817135D01*
X111633000Y-98809452D01*
X111633000Y-98394115D01*
X111628525Y-98378876D01*
X111627135Y-98377671D01*
X111619452Y-98376000D01*
X111599338Y-98376000D01*
X111589492Y-98376775D01*
X111513087Y-98388876D01*
X111494460Y-98394928D01*
X111402333Y-98441869D01*
X111386490Y-98453380D01*
X111313380Y-98526490D01*
X111301869Y-98542333D01*
X111254928Y-98634460D01*
X111248876Y-98653087D01*
X111236775Y-98729492D01*
X111236000Y-98739338D01*
X111236000Y-98804885D01*
X110557073Y-98804885D01*
X110525524Y-98690350D01*
X110520525Y-98677726D01*
X110440356Y-98525671D01*
X110432769Y-98514421D01*
X110321814Y-98383124D01*
X110311983Y-98373762D01*
X110175425Y-98269355D01*
X110163822Y-98262328D01*
X110116357Y-98240195D01*
X110063072Y-98193278D01*
X110043611Y-98125000D01*
X110064153Y-98057041D01*
X110118176Y-98010975D01*
X110169607Y-98000000D01*
X111874000Y-98000000D01*
X111942121Y-98020002D01*
G37*
G04 #@! TD.AperFunction*
G04 #@! TA.AperFunction,Conductor*
G36*
X105798521Y-86520002D02*
G01*
X105845014Y-86573658D01*
X105856400Y-86626000D01*
X105856400Y-86821320D01*
X105836398Y-86889441D01*
X105796984Y-86928290D01*
X105786232Y-86934983D01*
X105766097Y-86947516D01*
X105762676Y-86950392D01*
X105762670Y-86950396D01*
X105674759Y-87024293D01*
X105656462Y-87039673D01*
X105653474Y-87043015D01*
X105610415Y-87091173D01*
X105610411Y-87091178D01*
X105607423Y-87094520D01*
X105604938Y-87098253D01*
X105604935Y-87098257D01*
X105530541Y-87210017D01*
X105530538Y-87210023D01*
X105528060Y-87213745D01*
X105526132Y-87217788D01*
X105526131Y-87217789D01*
X105518492Y-87233805D01*
X105496386Y-87280150D01*
X105495051Y-87284425D01*
X105495048Y-87284431D01*
X105455015Y-87412569D01*
X105453676Y-87416856D01*
X105441914Y-87489481D01*
X105439289Y-87632680D01*
X105439842Y-87637122D01*
X105440079Y-87641602D01*
X105439973Y-87641608D01*
X105440514Y-87650332D01*
X105440514Y-88075000D01*
X105460266Y-88174301D01*
X105516516Y-88258484D01*
X105600699Y-88314734D01*
X105700000Y-88334486D01*
X106126429Y-88334486D01*
X106142398Y-88335509D01*
X106144607Y-88335881D01*
X106184484Y-88339458D01*
X106186908Y-88339488D01*
X106186915Y-88339488D01*
X106190000Y-88339525D01*
X106196826Y-88339609D01*
X106222102Y-88337963D01*
X106234363Y-88337165D01*
X106234369Y-88337164D01*
X106236786Y-88337007D01*
X106239190Y-88336663D01*
X106239197Y-88336662D01*
X106245500Y-88335759D01*
X106263363Y-88334486D01*
X106626429Y-88334486D01*
X106642398Y-88335509D01*
X106644607Y-88335881D01*
X106684484Y-88339458D01*
X106686908Y-88339488D01*
X106686915Y-88339488D01*
X106690000Y-88339525D01*
X106696826Y-88339609D01*
X106722102Y-88337963D01*
X106734363Y-88337165D01*
X106734369Y-88337164D01*
X106736786Y-88337007D01*
X106739190Y-88336663D01*
X106739197Y-88336662D01*
X106745500Y-88335759D01*
X106763363Y-88334486D01*
X107200000Y-88334486D01*
X107299301Y-88314734D01*
X107383484Y-88258484D01*
X107390377Y-88248168D01*
X107399154Y-88239391D01*
X107400904Y-88241141D01*
X107442169Y-88206650D01*
X107512612Y-88197798D01*
X107581559Y-88233082D01*
X107624881Y-88276404D01*
X107658907Y-88338716D01*
X107658963Y-88392020D01*
X107655841Y-88406520D01*
X107653382Y-88416100D01*
X107641823Y-88454752D01*
X107642232Y-88465158D01*
X107641749Y-88468981D01*
X107641568Y-88472812D01*
X107639376Y-88482993D01*
X107640600Y-88493335D01*
X107640600Y-88493339D01*
X107644118Y-88523058D01*
X107644894Y-88532915D01*
X107646477Y-88573212D01*
X107650237Y-88582930D01*
X107651019Y-88586706D01*
X107652086Y-88590379D01*
X107653310Y-88600722D01*
X107670783Y-88637110D01*
X107674692Y-88646143D01*
X107689251Y-88683776D01*
X107695954Y-88691751D01*
X107698868Y-88696678D01*
X107699364Y-88697606D01*
X107701195Y-88700442D01*
X107704628Y-88707590D01*
X107707999Y-88711600D01*
X107733251Y-88736852D01*
X107740607Y-88744871D01*
X107765534Y-88774525D01*
X107774459Y-88779898D01*
X107782375Y-88786659D01*
X107781875Y-88787244D01*
X107789980Y-88793581D01*
X107828020Y-88831621D01*
X107862046Y-88893933D01*
X107857022Y-88950054D01*
X107860266Y-88950699D01*
X107845500Y-89024933D01*
X107845501Y-90275066D01*
X107860266Y-90349301D01*
X107867161Y-90359621D01*
X107867162Y-90359622D01*
X107909621Y-90423166D01*
X107909623Y-90423168D01*
X107916516Y-90433484D01*
X107926832Y-90440377D01*
X107926833Y-90440378D01*
X107944001Y-90451849D01*
X107989529Y-90506326D01*
X108000000Y-90556615D01*
X108000000Y-92553335D01*
X107979998Y-92621456D01*
X107926342Y-92667949D01*
X107856068Y-92678053D01*
X107846728Y-92676137D01*
X107841390Y-92673926D01*
X107696636Y-92654869D01*
X107688448Y-92655947D01*
X107560068Y-92672848D01*
X107560066Y-92672849D01*
X107551882Y-92673926D01*
X107544255Y-92677085D01*
X107544256Y-92677085D01*
X107424622Y-92726639D01*
X107424620Y-92726640D01*
X107416994Y-92729799D01*
X107301162Y-92818680D01*
X107212281Y-92934512D01*
X107209122Y-92942138D01*
X107209121Y-92942140D01*
X107186959Y-92995645D01*
X107156408Y-93069400D01*
X107155331Y-93077584D01*
X107155330Y-93077586D01*
X107137504Y-93212989D01*
X107108781Y-93277917D01*
X107101677Y-93285638D01*
X106388849Y-93998466D01*
X106380745Y-94005892D01*
X106352640Y-94029475D01*
X106347129Y-94039020D01*
X106347126Y-94039024D01*
X106334297Y-94061245D01*
X106328392Y-94070515D01*
X106307348Y-94100569D01*
X106304494Y-94111221D01*
X106303160Y-94114082D01*
X106302081Y-94117048D01*
X106296568Y-94126595D01*
X106294654Y-94137451D01*
X106294652Y-94137456D01*
X106290196Y-94162725D01*
X106287818Y-94173454D01*
X106282212Y-94194379D01*
X106278323Y-94208892D01*
X106281521Y-94245445D01*
X106282000Y-94256427D01*
X106282000Y-94408408D01*
X106261998Y-94476529D01*
X106213201Y-94520676D01*
X106187645Y-94533697D01*
X106117868Y-94546800D01*
X106052084Y-94520099D01*
X106011179Y-94462071D01*
X106005419Y-94420389D01*
X106004500Y-94420389D01*
X106004499Y-93883030D01*
X106004499Y-93879612D01*
X106003338Y-93868923D01*
X105998984Y-93828834D01*
X105998983Y-93828830D01*
X105998130Y-93820976D01*
X105949917Y-93692365D01*
X105944537Y-93685186D01*
X105944535Y-93685183D01*
X105872923Y-93589633D01*
X105867544Y-93582456D01*
X105860367Y-93577077D01*
X105764817Y-93505465D01*
X105764814Y-93505463D01*
X105757635Y-93500083D01*
X105749230Y-93496932D01*
X105636419Y-93454642D01*
X105636418Y-93454642D01*
X105629024Y-93451870D01*
X105621174Y-93451017D01*
X105621173Y-93451017D01*
X105573786Y-93445869D01*
X105573785Y-93445869D01*
X105570389Y-93445500D01*
X105550644Y-93445500D01*
X105301161Y-93445501D01*
X105233042Y-93425499D01*
X105212067Y-93408596D01*
X105107807Y-93304336D01*
X105080493Y-93263460D01*
X105057515Y-93207986D01*
X105057514Y-93207984D01*
X105054355Y-93200358D01*
X104965474Y-93084526D01*
X104958924Y-93079500D01*
X104958921Y-93079497D01*
X104856196Y-93000673D01*
X104856194Y-93000672D01*
X104849643Y-92995645D01*
X104714754Y-92939772D01*
X104570000Y-92920715D01*
X104561812Y-92921793D01*
X104433432Y-92938694D01*
X104433430Y-92938695D01*
X104425246Y-92939772D01*
X104377430Y-92959578D01*
X104297986Y-92992485D01*
X104297984Y-92992486D01*
X104290358Y-92995645D01*
X104174526Y-93084526D01*
X104085645Y-93200358D01*
X104029772Y-93335246D01*
X104010715Y-93480000D01*
X104011793Y-93488188D01*
X104027781Y-93609628D01*
X104029772Y-93624754D01*
X104085645Y-93759642D01*
X104174526Y-93875474D01*
X104181076Y-93880500D01*
X104181079Y-93880503D01*
X104283804Y-93959327D01*
X104290357Y-93964355D01*
X104304850Y-93970358D01*
X104353460Y-93990493D01*
X104394336Y-94017807D01*
X104508596Y-94132067D01*
X104542622Y-94194379D01*
X104545501Y-94221162D01*
X104545501Y-94420388D01*
X104545870Y-94423782D01*
X104545870Y-94423788D01*
X104550029Y-94462071D01*
X104551870Y-94479024D01*
X104572366Y-94533697D01*
X104596548Y-94598204D01*
X104600083Y-94607635D01*
X104605463Y-94614814D01*
X104605465Y-94614817D01*
X104677077Y-94710367D01*
X104682456Y-94717544D01*
X104689633Y-94722923D01*
X104785183Y-94794535D01*
X104785186Y-94794537D01*
X104792365Y-94799917D01*
X104812020Y-94807285D01*
X104868784Y-94849927D01*
X104893484Y-94916488D01*
X104878276Y-94985837D01*
X104827990Y-95035955D01*
X104812018Y-95043249D01*
X104801014Y-95047374D01*
X104785425Y-95055908D01*
X104689990Y-95127434D01*
X104677434Y-95139990D01*
X104605908Y-95235425D01*
X104597375Y-95251012D01*
X104555135Y-95363689D01*
X104551510Y-95378934D01*
X104546369Y-95426259D01*
X104546000Y-95433073D01*
X104546000Y-95554885D01*
X104550475Y-95570124D01*
X104551865Y-95571329D01*
X104559548Y-95573000D01*
X105276000Y-95573000D01*
X105344121Y-95593002D01*
X105390614Y-95646658D01*
X105402000Y-95699000D01*
X105402000Y-95701000D01*
X105381998Y-95769121D01*
X105328342Y-95815614D01*
X105276000Y-95827000D01*
X104564115Y-95827000D01*
X104548876Y-95831475D01*
X104547671Y-95832865D01*
X104546000Y-95840548D01*
X104546000Y-95966927D01*
X104546369Y-95973741D01*
X104551510Y-96021066D01*
X104555135Y-96036311D01*
X104597375Y-96148988D01*
X104605908Y-96164575D01*
X104677434Y-96260010D01*
X104689990Y-96272566D01*
X104785425Y-96344092D01*
X104801013Y-96352625D01*
X104857753Y-96373896D01*
X104914518Y-96416537D01*
X104939218Y-96483099D01*
X104924011Y-96552448D01*
X104887586Y-96593813D01*
X104877562Y-96601096D01*
X104801094Y-96677564D01*
X104789583Y-96693407D01*
X104740485Y-96789768D01*
X104734433Y-96808392D01*
X104721775Y-96888315D01*
X104721000Y-96898158D01*
X104721000Y-97292385D01*
X104725475Y-97307624D01*
X104726865Y-97308829D01*
X104734548Y-97310500D01*
X105276000Y-97310500D01*
X105344121Y-97330502D01*
X105390614Y-97384158D01*
X105402000Y-97436500D01*
X105402000Y-97438500D01*
X105381998Y-97506621D01*
X105328342Y-97553114D01*
X105276000Y-97564500D01*
X104739116Y-97564500D01*
X104723877Y-97568975D01*
X104722672Y-97570365D01*
X104721001Y-97578048D01*
X104721001Y-97976840D01*
X104721776Y-97986687D01*
X104734433Y-98066607D01*
X104740485Y-98085233D01*
X104789583Y-98181593D01*
X104801094Y-98197436D01*
X104884575Y-98280917D01*
X104883040Y-98282452D01*
X104918384Y-98328286D01*
X104924459Y-98399023D01*
X104891328Y-98461814D01*
X104829507Y-98496726D01*
X104800969Y-98500000D01*
X104533161Y-98500000D01*
X104465040Y-98479998D01*
X104418547Y-98426342D01*
X104408443Y-98356068D01*
X104415177Y-98329778D01*
X104422798Y-98309448D01*
X104429500Y-98247756D01*
X104429500Y-97652244D01*
X104422798Y-97590552D01*
X104372071Y-97455236D01*
X104366691Y-97448057D01*
X104366689Y-97448054D01*
X104290785Y-97346776D01*
X104285404Y-97339596D01*
X104278224Y-97334215D01*
X104278222Y-97334213D01*
X104266862Y-97325699D01*
X104224347Y-97268840D01*
X104219323Y-97198021D01*
X104242465Y-97148171D01*
X104259326Y-97126197D01*
X104259329Y-97126193D01*
X104264355Y-97119642D01*
X104320228Y-96984754D01*
X104331629Y-96898158D01*
X104338207Y-96848188D01*
X104339285Y-96840000D01*
X104320228Y-96695246D01*
X104300083Y-96646613D01*
X104267515Y-96567986D01*
X104267514Y-96567984D01*
X104264355Y-96560358D01*
X104175474Y-96444526D01*
X104168924Y-96439500D01*
X104168921Y-96439497D01*
X104066196Y-96360673D01*
X104066194Y-96360672D01*
X104059643Y-96355645D01*
X103924754Y-96299772D01*
X103780000Y-96280715D01*
X103771812Y-96281793D01*
X103642446Y-96298824D01*
X103572297Y-96287885D01*
X103519199Y-96240756D01*
X103500000Y-96173902D01*
X103500000Y-90882104D01*
X103520002Y-90813983D01*
X103573658Y-90767490D01*
X103643932Y-90757386D01*
X103708512Y-90786880D01*
X103735480Y-90824278D01*
X103735737Y-90824106D01*
X103740545Y-90831302D01*
X103742410Y-90833888D01*
X103742633Y-90834427D01*
X103784983Y-90897808D01*
X103802192Y-90915017D01*
X103865575Y-90957368D01*
X103888066Y-90966684D01*
X103943915Y-90977793D01*
X103956170Y-90979000D01*
X104279885Y-90979000D01*
X104295124Y-90974525D01*
X104296329Y-90973135D01*
X104298000Y-90965452D01*
X104298000Y-90960884D01*
X104552000Y-90960884D01*
X104556475Y-90976123D01*
X104557865Y-90977328D01*
X104565548Y-90978999D01*
X104893828Y-90978999D01*
X104906088Y-90977791D01*
X104961931Y-90966685D01*
X104984427Y-90957367D01*
X105047808Y-90915017D01*
X105065017Y-90897808D01*
X105107368Y-90834425D01*
X105116684Y-90811934D01*
X105127793Y-90756085D01*
X105129000Y-90743830D01*
X105129000Y-90270115D01*
X105124525Y-90254876D01*
X105123135Y-90253671D01*
X105115452Y-90252000D01*
X104570115Y-90252000D01*
X104554876Y-90256475D01*
X104553671Y-90257865D01*
X104552000Y-90265548D01*
X104552000Y-90960884D01*
X104298000Y-90960884D01*
X104298000Y-89979885D01*
X104552000Y-89979885D01*
X104556475Y-89995124D01*
X104557865Y-89996329D01*
X104565548Y-89998000D01*
X105110884Y-89998000D01*
X105126123Y-89993525D01*
X105127328Y-89992135D01*
X105128999Y-89984452D01*
X105128999Y-89506172D01*
X105127791Y-89493912D01*
X105116685Y-89438069D01*
X105107367Y-89415573D01*
X105065017Y-89352192D01*
X105047808Y-89334983D01*
X104984425Y-89292632D01*
X104961934Y-89283316D01*
X104906085Y-89272207D01*
X104893830Y-89271000D01*
X104570115Y-89271000D01*
X104554876Y-89275475D01*
X104553671Y-89276865D01*
X104552000Y-89284548D01*
X104552000Y-89979885D01*
X104298000Y-89979885D01*
X104298000Y-89289116D01*
X104293525Y-89273877D01*
X104292135Y-89272672D01*
X104284452Y-89271001D01*
X103956172Y-89271001D01*
X103943912Y-89272209D01*
X103888069Y-89283315D01*
X103865573Y-89292633D01*
X103802192Y-89334983D01*
X103784983Y-89352192D01*
X103742631Y-89415576D01*
X103742408Y-89416115D01*
X103741607Y-89417109D01*
X103735737Y-89425894D01*
X103734951Y-89425369D01*
X103697859Y-89471395D01*
X103630495Y-89493815D01*
X103561704Y-89476256D01*
X103513327Y-89424293D01*
X103500000Y-89367895D01*
X103500000Y-88482104D01*
X103520002Y-88413983D01*
X103573658Y-88367490D01*
X103643932Y-88357386D01*
X103708512Y-88386880D01*
X103735480Y-88424278D01*
X103735737Y-88424106D01*
X103740545Y-88431302D01*
X103742410Y-88433888D01*
X103742633Y-88434427D01*
X103784983Y-88497808D01*
X103802192Y-88515017D01*
X103865575Y-88557368D01*
X103888066Y-88566684D01*
X103943915Y-88577793D01*
X103956170Y-88579000D01*
X104279885Y-88579000D01*
X104295124Y-88574525D01*
X104296329Y-88573135D01*
X104298000Y-88565452D01*
X104298000Y-88560884D01*
X104552000Y-88560884D01*
X104556475Y-88576123D01*
X104557865Y-88577328D01*
X104565548Y-88578999D01*
X104893828Y-88578999D01*
X104906088Y-88577791D01*
X104961931Y-88566685D01*
X104984427Y-88557367D01*
X105047808Y-88515017D01*
X105065017Y-88497808D01*
X105107368Y-88434425D01*
X105116684Y-88411934D01*
X105127793Y-88356085D01*
X105129000Y-88343830D01*
X105129000Y-87870115D01*
X105124525Y-87854876D01*
X105123135Y-87853671D01*
X105115452Y-87852000D01*
X104570115Y-87852000D01*
X104554876Y-87856475D01*
X104553671Y-87857865D01*
X104552000Y-87865548D01*
X104552000Y-88560884D01*
X104298000Y-88560884D01*
X104298000Y-87579885D01*
X104552000Y-87579885D01*
X104556475Y-87595124D01*
X104557865Y-87596329D01*
X104565548Y-87598000D01*
X105110884Y-87598000D01*
X105126123Y-87593525D01*
X105127328Y-87592135D01*
X105128999Y-87584452D01*
X105128999Y-87106172D01*
X105127791Y-87093912D01*
X105116685Y-87038069D01*
X105107367Y-87015573D01*
X105065017Y-86952192D01*
X105047808Y-86934983D01*
X104984425Y-86892632D01*
X104961934Y-86883316D01*
X104906085Y-86872207D01*
X104893830Y-86871000D01*
X104570115Y-86871000D01*
X104554876Y-86875475D01*
X104553671Y-86876865D01*
X104552000Y-86884548D01*
X104552000Y-87579885D01*
X104298000Y-87579885D01*
X104298000Y-86889116D01*
X104293525Y-86873877D01*
X104292135Y-86872672D01*
X104284452Y-86871001D01*
X103956172Y-86871001D01*
X103943912Y-86872209D01*
X103888069Y-86883315D01*
X103865573Y-86892633D01*
X103802192Y-86934983D01*
X103784983Y-86952192D01*
X103742631Y-87015576D01*
X103742408Y-87016115D01*
X103741607Y-87017109D01*
X103735737Y-87025894D01*
X103734951Y-87025369D01*
X103697859Y-87071395D01*
X103630495Y-87093815D01*
X103561704Y-87076256D01*
X103513327Y-87024293D01*
X103500000Y-86967895D01*
X103500000Y-86626000D01*
X103520002Y-86557879D01*
X103573658Y-86511386D01*
X103626000Y-86500000D01*
X105730400Y-86500000D01*
X105798521Y-86520002D01*
G37*
G04 #@! TD.AperFunction*
G04 #@! TA.AperFunction,Conductor*
G36*
X107619121Y-95878002D02*
G01*
X107665614Y-95931658D01*
X107677000Y-95984000D01*
X107677000Y-95986000D01*
X107656998Y-96054121D01*
X107603342Y-96100614D01*
X107551000Y-96112000D01*
X107232115Y-96112000D01*
X107187720Y-96125035D01*
X107177043Y-96131897D01*
X107141548Y-96137000D01*
X106599000Y-96137000D01*
X106530879Y-96116998D01*
X106484386Y-96063342D01*
X106473000Y-96011000D01*
X106473000Y-96009000D01*
X106493002Y-95940879D01*
X106546658Y-95894386D01*
X106599000Y-95883000D01*
X106917885Y-95883000D01*
X106962280Y-95869965D01*
X106972957Y-95863103D01*
X107008452Y-95858000D01*
X107551000Y-95858000D01*
X107619121Y-95878002D01*
G37*
G04 #@! TD.AperFunction*
G04 #@! TA.AperFunction,Conductor*
G36*
X110769121Y-76793002D02*
G01*
X110815614Y-76846658D01*
X110827000Y-76899000D01*
X110827000Y-77860884D01*
X110831475Y-77876123D01*
X110832865Y-77877328D01*
X110840548Y-77878999D01*
X110994292Y-77878999D01*
X111001110Y-77878630D01*
X111051482Y-77873159D01*
X111066741Y-77869530D01*
X111186118Y-77824778D01*
X111201704Y-77816246D01*
X111298435Y-77743750D01*
X111364942Y-77718902D01*
X111434324Y-77733955D01*
X111484554Y-77784129D01*
X111500000Y-77844576D01*
X111500000Y-78369500D01*
X111479998Y-78437621D01*
X111426342Y-78484114D01*
X111374000Y-78495500D01*
X108126000Y-78495500D01*
X108057879Y-78475498D01*
X108011386Y-78421842D01*
X108000000Y-78369500D01*
X108000000Y-77255784D01*
X108020002Y-77187663D01*
X108073658Y-77141170D01*
X108143932Y-77131066D01*
X108183203Y-77143517D01*
X108273445Y-77189498D01*
X108368166Y-77204500D01*
X109456834Y-77204500D01*
X109551555Y-77189498D01*
X109665723Y-77131326D01*
X109730906Y-77066143D01*
X109793218Y-77032117D01*
X109864033Y-77037182D01*
X109920869Y-77079729D01*
X109945680Y-77146249D01*
X109946001Y-77155238D01*
X109946001Y-77419292D01*
X109946370Y-77426110D01*
X109951841Y-77476482D01*
X109955470Y-77491741D01*
X110000222Y-77611118D01*
X110008754Y-77626704D01*
X110084572Y-77727867D01*
X110097133Y-77740428D01*
X110198296Y-77816246D01*
X110213882Y-77824778D01*
X110333265Y-77869533D01*
X110348510Y-77873158D01*
X110398892Y-77878631D01*
X110405706Y-77879000D01*
X110554885Y-77879000D01*
X110570124Y-77874525D01*
X110571329Y-77873135D01*
X110573000Y-77865452D01*
X110573000Y-76899000D01*
X110593002Y-76830879D01*
X110646658Y-76784386D01*
X110699000Y-76773000D01*
X110701000Y-76773000D01*
X110769121Y-76793002D01*
G37*
G04 #@! TD.AperFunction*
G04 #@! TA.AperFunction,Conductor*
G36*
X112442121Y-74020002D02*
G01*
X112488614Y-74073658D01*
X112500000Y-74126000D01*
X112500000Y-74440235D01*
X112479998Y-74508356D01*
X112426342Y-74554849D01*
X112356068Y-74564953D01*
X112291488Y-74535459D01*
X112273176Y-74515803D01*
X112272569Y-74514993D01*
X112260010Y-74502434D01*
X112164575Y-74430908D01*
X112148988Y-74422375D01*
X112036311Y-74380135D01*
X112021066Y-74376510D01*
X111973741Y-74371369D01*
X111966927Y-74371000D01*
X111845115Y-74371000D01*
X111829876Y-74375475D01*
X111828671Y-74376865D01*
X111827000Y-74384548D01*
X111827000Y-75101000D01*
X111806998Y-75169121D01*
X111753342Y-75215614D01*
X111701000Y-75227000D01*
X111699000Y-75227000D01*
X111630879Y-75206998D01*
X111584386Y-75153342D01*
X111573000Y-75101000D01*
X111573000Y-74389115D01*
X111568525Y-74373876D01*
X111567135Y-74372671D01*
X111559452Y-74371000D01*
X111433073Y-74371000D01*
X111426259Y-74371369D01*
X111378934Y-74376510D01*
X111363689Y-74380135D01*
X111251012Y-74422375D01*
X111235425Y-74430908D01*
X111191065Y-74464155D01*
X111124558Y-74489003D01*
X111055176Y-74473950D01*
X111004945Y-74423776D01*
X110989499Y-74363329D01*
X110989499Y-74273956D01*
X110988724Y-74269060D01*
X110983049Y-74233226D01*
X110992150Y-74162815D01*
X110992596Y-74161934D01*
X110994355Y-74159642D01*
X110997035Y-74153171D01*
X110997041Y-74153160D01*
X111028263Y-74077782D01*
X111072811Y-74022501D01*
X111144672Y-74000000D01*
X112374000Y-74000000D01*
X112442121Y-74020002D01*
G37*
G04 #@! TD.AperFunction*
M02*
