G04 #@! TF.GenerationSoftware,KiCad,Pcbnew,(6.0.10)*
G04 #@! TF.CreationDate,2023-01-06T16:36:23-08:00*
G04 #@! TF.ProjectId,ai-camera,61692d63-616d-4657-9261-2e6b69636164,rev?*
G04 #@! TF.SameCoordinates,Original*
G04 #@! TF.FileFunction,Paste,Top*
G04 #@! TF.FilePolarity,Positive*
%FSLAX46Y46*%
G04 Gerber Fmt 4.6, Leading zero omitted, Abs format (unit mm)*
G04 Created by KiCad (PCBNEW (6.0.10)) date 2023-01-06 16:36:23*
%MOMM*%
%LPD*%
G01*
G04 APERTURE LIST*
G04 Aperture macros list*
%AMRoundRect*
0 Rectangle with rounded corners*
0 $1 Rounding radius*
0 $2 $3 $4 $5 $6 $7 $8 $9 X,Y pos of 4 corners*
0 Add a 4 corners polygon primitive as box body*
4,1,4,$2,$3,$4,$5,$6,$7,$8,$9,$2,$3,0*
0 Add four circle primitives for the rounded corners*
1,1,$1+$1,$2,$3*
1,1,$1+$1,$4,$5*
1,1,$1+$1,$6,$7*
1,1,$1+$1,$8,$9*
0 Add four rect primitives between the rounded corners*
20,1,$1+$1,$2,$3,$4,$5,0*
20,1,$1+$1,$4,$5,$6,$7,0*
20,1,$1+$1,$6,$7,$8,$9,0*
20,1,$1+$1,$8,$9,$2,$3,0*%
G04 Aperture macros list end*
%ADD10RoundRect,0.135000X-0.185000X0.135000X-0.185000X-0.135000X0.185000X-0.135000X0.185000X0.135000X0*%
%ADD11R,1.000000X1.700000*%
%ADD12RoundRect,0.250000X0.450000X-0.325000X0.450000X0.325000X-0.450000X0.325000X-0.450000X-0.325000X0*%
%ADD13RoundRect,0.140000X0.140000X0.170000X-0.140000X0.170000X-0.140000X-0.170000X0.140000X-0.170000X0*%
%ADD14RoundRect,0.218750X0.218750X0.256250X-0.218750X0.256250X-0.218750X-0.256250X0.218750X-0.256250X0*%
%ADD15RoundRect,0.135000X-0.135000X-0.185000X0.135000X-0.185000X0.135000X0.185000X-0.135000X0.185000X0*%
%ADD16RoundRect,0.218750X-0.218750X-0.256250X0.218750X-0.256250X0.218750X0.256250X-0.218750X0.256250X0*%
%ADD17RoundRect,0.140000X-0.140000X-0.170000X0.140000X-0.170000X0.140000X0.170000X-0.140000X0.170000X0*%
%ADD18RoundRect,0.075000X0.512500X0.075000X-0.512500X0.075000X-0.512500X-0.075000X0.512500X-0.075000X0*%
%ADD19RoundRect,0.150000X0.150000X-0.512500X0.150000X0.512500X-0.150000X0.512500X-0.150000X-0.512500X0*%
%ADD20RoundRect,0.140000X-0.170000X0.140000X-0.170000X-0.140000X0.170000X-0.140000X0.170000X0.140000X0*%
%ADD21R,0.300000X1.300000*%
%ADD22R,1.800000X2.200000*%
%ADD23RoundRect,0.135000X0.185000X-0.135000X0.185000X0.135000X-0.185000X0.135000X-0.185000X-0.135000X0*%
%ADD24O,0.950000X1.250000*%
%ADD25O,1.550000X0.890000*%
%ADD26R,1.350000X0.400000*%
%ADD27R,1.550000X1.500000*%
%ADD28R,1.550000X1.200000*%
%ADD29RoundRect,0.135000X0.135000X0.185000X-0.135000X0.185000X-0.135000X-0.185000X0.135000X-0.185000X0*%
%ADD30RoundRect,0.150000X0.587500X0.150000X-0.587500X0.150000X-0.587500X-0.150000X0.587500X-0.150000X0*%
G04 APERTURE END LIST*
D10*
X120675000Y-92865000D03*
X120675000Y-93885000D03*
D11*
X158100000Y-70150000D03*
X158100000Y-63850000D03*
X161900000Y-63850000D03*
X161900000Y-70150000D03*
D12*
X101350000Y-81475000D03*
X101350000Y-79425000D03*
D13*
X132430000Y-108525000D03*
X131470000Y-108525000D03*
D14*
X140787500Y-90000000D03*
X139212500Y-90000000D03*
D15*
X141570000Y-82100000D03*
X142590000Y-82100000D03*
D16*
X103437500Y-92250000D03*
X105012500Y-92250000D03*
X111712500Y-82500000D03*
X113287500Y-82500000D03*
X146712500Y-82500000D03*
X148287500Y-82500000D03*
D17*
X138330000Y-82100000D03*
X139290000Y-82100000D03*
D16*
X114212500Y-47500000D03*
X115787500Y-47500000D03*
D18*
X146967500Y-58500000D03*
X146967500Y-57850000D03*
X146967500Y-57200000D03*
X145392500Y-57200000D03*
X145392500Y-57850000D03*
X145392500Y-58500000D03*
D14*
X115787500Y-85000000D03*
X114212500Y-85000000D03*
D16*
X106487500Y-92250000D03*
X108062500Y-92250000D03*
D13*
X147360000Y-56050000D03*
X146400000Y-56050000D03*
D19*
X101150000Y-85587500D03*
X102100000Y-85587500D03*
X103050000Y-85587500D03*
X103050000Y-83312500D03*
X102100000Y-83312500D03*
X101150000Y-83312500D03*
D20*
X112200000Y-112300000D03*
X112200000Y-113260000D03*
D21*
X135750000Y-106850000D03*
X135250000Y-106850000D03*
X134750000Y-106850000D03*
X134250000Y-106850000D03*
X133750000Y-106850000D03*
X133250000Y-106850000D03*
X132750000Y-106850000D03*
X132250000Y-106850000D03*
X131750000Y-106850000D03*
X131250000Y-106850000D03*
X130750000Y-106850000D03*
X130250000Y-106850000D03*
X129750000Y-106850000D03*
X129250000Y-106850000D03*
X128750000Y-106850000D03*
X128250000Y-106850000D03*
X127750000Y-106850000D03*
X127250000Y-106850000D03*
X126750000Y-106850000D03*
X126250000Y-106850000D03*
X125750000Y-106850000D03*
X125250000Y-106850000D03*
X124750000Y-106850000D03*
X124250000Y-106850000D03*
D22*
X137650000Y-103600000D03*
X122350000Y-103600000D03*
D16*
X144212500Y-47500000D03*
X145787500Y-47500000D03*
D23*
X111200000Y-113310000D03*
X111200000Y-112290000D03*
D16*
X146712500Y-50000000D03*
X148287500Y-50000000D03*
D11*
X158100000Y-54850000D03*
X158100000Y-61150000D03*
X161900000Y-61150000D03*
X161900000Y-54850000D03*
D24*
X99150000Y-82250000D03*
D25*
X96450000Y-81250000D03*
D24*
X99150000Y-87250000D03*
D25*
X96450000Y-88250000D03*
D26*
X99150000Y-83450000D03*
X99150000Y-84100000D03*
X99150000Y-84750000D03*
X99150000Y-85400000D03*
X99150000Y-86050000D03*
D27*
X96450000Y-83750000D03*
D28*
X96450000Y-87650000D03*
D27*
X96450000Y-85750000D03*
D28*
X96450000Y-81850000D03*
D16*
X111712500Y-50000000D03*
X113287500Y-50000000D03*
D29*
X139960000Y-88675000D03*
X138940000Y-88675000D03*
D14*
X145787500Y-85000000D03*
X144212500Y-85000000D03*
D30*
X119150000Y-97025000D03*
X119150000Y-95125000D03*
X117275000Y-96075000D03*
D10*
X120700000Y-96340000D03*
X120700000Y-97360000D03*
D30*
X119137500Y-93550000D03*
X119137500Y-91650000D03*
X117262500Y-92600000D03*
D23*
X154380000Y-98240000D03*
X154380000Y-97220000D03*
M02*
