G04 #@! TF.GenerationSoftware,KiCad,Pcbnew,(6.0.10)*
G04 #@! TF.CreationDate,2023-01-06T16:36:23-08:00*
G04 #@! TF.ProjectId,ai-camera,61692d63-616d-4657-9261-2e6b69636164,rev?*
G04 #@! TF.SameCoordinates,Original*
G04 #@! TF.FileFunction,Legend,Bot*
G04 #@! TF.FilePolarity,Positive*
%FSLAX46Y46*%
G04 Gerber Fmt 4.6, Leading zero omitted, Abs format (unit mm)*
G04 Created by KiCad (PCBNEW (6.0.10)) date 2023-01-06 16:36:23*
%MOMM*%
%LPD*%
G01*
G04 APERTURE LIST*
G04 Aperture macros list*
%AMRoundRect*
0 Rectangle with rounded corners*
0 $1 Rounding radius*
0 $2 $3 $4 $5 $6 $7 $8 $9 X,Y pos of 4 corners*
0 Add a 4 corners polygon primitive as box body*
4,1,4,$2,$3,$4,$5,$6,$7,$8,$9,$2,$3,0*
0 Add four circle primitives for the rounded corners*
1,1,$1+$1,$2,$3*
1,1,$1+$1,$4,$5*
1,1,$1+$1,$6,$7*
1,1,$1+$1,$8,$9*
0 Add four rect primitives between the rounded corners*
20,1,$1+$1,$2,$3,$4,$5,0*
20,1,$1+$1,$4,$5,$6,$7,0*
20,1,$1+$1,$6,$7,$8,$9,0*
20,1,$1+$1,$8,$9,$2,$3,0*%
%AMFreePoly0*
4,1,22,0.500000,-0.750000,0.000000,-0.750000,0.000000,-0.745033,-0.079941,-0.743568,-0.215256,-0.701293,-0.333266,-0.622738,-0.424486,-0.514219,-0.481581,-0.384460,-0.499164,-0.250000,-0.500000,-0.250000,-0.500000,0.250000,-0.499164,0.250000,-0.499963,0.256109,-0.478152,0.396186,-0.417904,0.524511,-0.324060,0.630769,-0.204165,0.706417,-0.067858,0.745374,0.000000,0.744959,0.000000,0.750000,
0.500000,0.750000,0.500000,-0.750000,0.500000,-0.750000,$1*%
%AMFreePoly1*
4,1,20,0.000000,0.744959,0.073905,0.744508,0.209726,0.703889,0.328688,0.626782,0.421226,0.519385,0.479903,0.390333,0.500000,0.250000,0.500000,-0.250000,0.499851,-0.262216,0.476331,-0.402017,0.414519,-0.529596,0.319384,-0.634700,0.198574,-0.708877,0.061801,-0.746166,0.000000,-0.745033,0.000000,-0.750000,-0.500000,-0.750000,-0.500000,0.750000,0.000000,0.750000,0.000000,0.744959,
0.000000,0.744959,$1*%
G04 Aperture macros list end*
%ADD10C,0.177800*%
%ADD11C,0.150000*%
%ADD12C,0.120000*%
%ADD13C,5.600000*%
%ADD14C,3.600000*%
%ADD15C,4.000000*%
%ADD16C,1.700000*%
%ADD17RoundRect,0.250000X-0.625000X0.350000X-0.625000X-0.350000X0.625000X-0.350000X0.625000X0.350000X0*%
%ADD18O,1.750000X1.200000*%
%ADD19C,1.440000*%
%ADD20C,0.800000*%
%ADD21O,1.550000X0.890000*%
%ADD22O,0.950000X1.250000*%
%ADD23R,1.700000X1.700000*%
%ADD24O,1.700000X1.700000*%
%ADD25R,1.524000X1.524000*%
%ADD26C,1.524000*%
%ADD27C,0.990600*%
%ADD28RoundRect,0.150000X-0.587500X-0.150000X0.587500X-0.150000X0.587500X0.150000X-0.587500X0.150000X0*%
%ADD29RoundRect,0.250000X0.475000X-0.250000X0.475000X0.250000X-0.475000X0.250000X-0.475000X-0.250000X0*%
%ADD30R,1.100000X3.700000*%
%ADD31RoundRect,0.225000X0.250000X-0.225000X0.250000X0.225000X-0.250000X0.225000X-0.250000X-0.225000X0*%
%ADD32RoundRect,0.140000X0.170000X-0.140000X0.170000X0.140000X-0.170000X0.140000X-0.170000X-0.140000X0*%
%ADD33RoundRect,0.135000X0.185000X-0.135000X0.185000X0.135000X-0.185000X0.135000X-0.185000X-0.135000X0*%
%ADD34RoundRect,0.135000X0.135000X0.185000X-0.135000X0.185000X-0.135000X-0.185000X0.135000X-0.185000X0*%
%ADD35R,0.900000X1.500000*%
%ADD36R,1.500000X0.900000*%
%ADD37C,0.600000*%
%ADD38R,3.900000X3.900000*%
%ADD39RoundRect,0.140000X0.140000X0.170000X-0.140000X0.170000X-0.140000X-0.170000X0.140000X-0.170000X0*%
%ADD40R,1.800000X1.000000*%
%ADD41RoundRect,0.225000X0.225000X0.250000X-0.225000X0.250000X-0.225000X-0.250000X0.225000X-0.250000X0*%
%ADD42RoundRect,0.140000X-0.170000X0.140000X-0.170000X-0.140000X0.170000X-0.140000X0.170000X0.140000X0*%
%ADD43R,0.900000X1.200000*%
%ADD44RoundRect,0.135000X-0.135000X-0.185000X0.135000X-0.185000X0.135000X0.185000X-0.135000X0.185000X0*%
%ADD45RoundRect,0.250000X0.250000X0.475000X-0.250000X0.475000X-0.250000X-0.475000X0.250000X-0.475000X0*%
%ADD46RoundRect,0.135000X-0.185000X0.135000X-0.185000X-0.135000X0.185000X-0.135000X0.185000X0.135000X0*%
%ADD47R,3.700000X1.100000*%
%ADD48RoundRect,0.150000X-0.150000X0.587500X-0.150000X-0.587500X0.150000X-0.587500X0.150000X0.587500X0*%
%ADD49RoundRect,0.140000X-0.140000X-0.170000X0.140000X-0.170000X0.140000X0.170000X-0.140000X0.170000X0*%
%ADD50FreePoly0,270.000000*%
%ADD51FreePoly1,270.000000*%
%ADD52RoundRect,0.150000X0.150000X-0.587500X0.150000X0.587500X-0.150000X0.587500X-0.150000X-0.587500X0*%
%ADD53FreePoly0,180.000000*%
%ADD54FreePoly1,180.000000*%
%ADD55RoundRect,0.150000X0.825000X0.150000X-0.825000X0.150000X-0.825000X-0.150000X0.825000X-0.150000X0*%
%ADD56RoundRect,0.150000X-0.150000X0.512500X-0.150000X-0.512500X0.150000X-0.512500X0.150000X0.512500X0*%
%ADD57RoundRect,0.225000X-0.250000X0.225000X-0.250000X-0.225000X0.250000X-0.225000X0.250000X0.225000X0*%
%ADD58R,1.200000X0.900000*%
%ADD59RoundRect,0.225000X-0.225000X-0.250000X0.225000X-0.250000X0.225000X0.250000X-0.225000X0.250000X0*%
%ADD60RoundRect,0.150000X0.512500X0.150000X-0.512500X0.150000X-0.512500X-0.150000X0.512500X-0.150000X0*%
%ADD61RoundRect,0.250000X-0.250000X-0.475000X0.250000X-0.475000X0.250000X0.475000X-0.250000X0.475000X0*%
%ADD62RoundRect,0.150000X-0.512500X-0.150000X0.512500X-0.150000X0.512500X0.150000X-0.512500X0.150000X0*%
%ADD63RoundRect,0.250000X0.262500X0.450000X-0.262500X0.450000X-0.262500X-0.450000X0.262500X-0.450000X0*%
%ADD64RoundRect,0.150000X0.150000X-0.512500X0.150000X0.512500X-0.150000X0.512500X-0.150000X-0.512500X0*%
G04 APERTURE END LIST*
D10*
X112770000Y-91390000D02*
X112640000Y-91260000D01*
X112640000Y-91260000D02*
X112640000Y-88550000D01*
X110930000Y-75820000D02*
X110060000Y-75820000D01*
X112770000Y-93550000D02*
X112770000Y-91390000D01*
D11*
X116427142Y-63867619D02*
X116484285Y-63820000D01*
X116541428Y-63724761D01*
X116627142Y-63581904D01*
X116684285Y-63534285D01*
X116741428Y-63534285D01*
X116712857Y-63772380D02*
X116770000Y-63724761D01*
X116827142Y-63629523D01*
X116855714Y-63439047D01*
X116855714Y-63105714D01*
X116827142Y-62915238D01*
X116770000Y-62820000D01*
X116712857Y-62772380D01*
X116598571Y-62772380D01*
X116541428Y-62820000D01*
X116484285Y-62915238D01*
X116455714Y-63105714D01*
X116455714Y-63439047D01*
X116484285Y-63629523D01*
X116541428Y-63724761D01*
X116598571Y-63772380D01*
X116712857Y-63772380D01*
X115912857Y-62772380D02*
X116198571Y-62772380D01*
X116227142Y-63248571D01*
X116198571Y-63200952D01*
X116141428Y-63153333D01*
X115998571Y-63153333D01*
X115941428Y-63200952D01*
X115912857Y-63248571D01*
X115884285Y-63343809D01*
X115884285Y-63581904D01*
X115912857Y-63677142D01*
X115941428Y-63724761D01*
X115998571Y-63772380D01*
X116141428Y-63772380D01*
X116198571Y-63724761D01*
X116227142Y-63677142D01*
X103650000Y-101697142D02*
X103678571Y-101744761D01*
X103764285Y-101792380D01*
X103821428Y-101792380D01*
X103907142Y-101744761D01*
X103964285Y-101649523D01*
X103992857Y-101554285D01*
X104021428Y-101363809D01*
X104021428Y-101220952D01*
X103992857Y-101030476D01*
X103964285Y-100935238D01*
X103907142Y-100840000D01*
X103821428Y-100792380D01*
X103764285Y-100792380D01*
X103678571Y-100840000D01*
X103650000Y-100887619D01*
X103135714Y-101125714D02*
X103135714Y-101792380D01*
X103278571Y-100744761D02*
X103421428Y-101459047D01*
X103050000Y-101459047D01*
X125086666Y-91162380D02*
X125562857Y-91162380D01*
X125562857Y-90162380D01*
X124800952Y-90257619D02*
X124753333Y-90210000D01*
X124658095Y-90162380D01*
X124420000Y-90162380D01*
X124324761Y-90210000D01*
X124277142Y-90257619D01*
X124229523Y-90352857D01*
X124229523Y-90448095D01*
X124277142Y-90590952D01*
X124848571Y-91162380D01*
X124229523Y-91162380D01*
X137237142Y-83004285D02*
X137284761Y-82975714D01*
X137332380Y-82890000D01*
X137332380Y-82832857D01*
X137284761Y-82747142D01*
X137189523Y-82690000D01*
X137094285Y-82661428D01*
X136903809Y-82632857D01*
X136760952Y-82632857D01*
X136570476Y-82661428D01*
X136475238Y-82690000D01*
X136380000Y-82747142D01*
X136332380Y-82832857D01*
X136332380Y-82890000D01*
X136380000Y-82975714D01*
X136427619Y-83004285D01*
X136427619Y-83232857D02*
X136380000Y-83261428D01*
X136332380Y-83318571D01*
X136332380Y-83461428D01*
X136380000Y-83518571D01*
X136427619Y-83547142D01*
X136522857Y-83575714D01*
X136618095Y-83575714D01*
X136760952Y-83547142D01*
X137332380Y-83204285D01*
X137332380Y-83575714D01*
X137332380Y-83861428D02*
X137332380Y-83975714D01*
X137284761Y-84032857D01*
X137237142Y-84061428D01*
X137094285Y-84118571D01*
X136903809Y-84147142D01*
X136522857Y-84147142D01*
X136427619Y-84118571D01*
X136380000Y-84090000D01*
X136332380Y-84032857D01*
X136332380Y-83918571D01*
X136380000Y-83861428D01*
X136427619Y-83832857D01*
X136522857Y-83804285D01*
X136760952Y-83804285D01*
X136856190Y-83832857D01*
X136903809Y-83861428D01*
X136951428Y-83918571D01*
X136951428Y-84032857D01*
X136903809Y-84090000D01*
X136856190Y-84118571D01*
X136760952Y-84147142D01*
X145900000Y-104047142D02*
X145928571Y-104094761D01*
X146014285Y-104142380D01*
X146071428Y-104142380D01*
X146157142Y-104094761D01*
X146214285Y-103999523D01*
X146242857Y-103904285D01*
X146271428Y-103713809D01*
X146271428Y-103570952D01*
X146242857Y-103380476D01*
X146214285Y-103285238D01*
X146157142Y-103190000D01*
X146071428Y-103142380D01*
X146014285Y-103142380D01*
X145928571Y-103190000D01*
X145900000Y-103237619D01*
X145700000Y-103142380D02*
X145328571Y-103142380D01*
X145528571Y-103523333D01*
X145442857Y-103523333D01*
X145385714Y-103570952D01*
X145357142Y-103618571D01*
X145328571Y-103713809D01*
X145328571Y-103951904D01*
X145357142Y-104047142D01*
X145385714Y-104094761D01*
X145442857Y-104142380D01*
X145614285Y-104142380D01*
X145671428Y-104094761D01*
X145700000Y-104047142D01*
X118712380Y-85854285D02*
X118236190Y-85654285D01*
X118712380Y-85511428D02*
X117712380Y-85511428D01*
X117712380Y-85740000D01*
X117760000Y-85797142D01*
X117807619Y-85825714D01*
X117902857Y-85854285D01*
X118045714Y-85854285D01*
X118140952Y-85825714D01*
X118188571Y-85797142D01*
X118236190Y-85740000D01*
X118236190Y-85511428D01*
X118712380Y-86425714D02*
X118712380Y-86082857D01*
X118712380Y-86254285D02*
X117712380Y-86254285D01*
X117855238Y-86197142D01*
X117950476Y-86140000D01*
X117998095Y-86082857D01*
X117712380Y-86940000D02*
X117712380Y-86825714D01*
X117760000Y-86768571D01*
X117807619Y-86740000D01*
X117950476Y-86682857D01*
X118140952Y-86654285D01*
X118521904Y-86654285D01*
X118617142Y-86682857D01*
X118664761Y-86711428D01*
X118712380Y-86768571D01*
X118712380Y-86882857D01*
X118664761Y-86940000D01*
X118617142Y-86968571D01*
X118521904Y-86997142D01*
X118283809Y-86997142D01*
X118188571Y-86968571D01*
X118140952Y-86940000D01*
X118093333Y-86882857D01*
X118093333Y-86768571D01*
X118140952Y-86711428D01*
X118188571Y-86682857D01*
X118283809Y-86654285D01*
X112390000Y-98302380D02*
X112590000Y-97826190D01*
X112732857Y-98302380D02*
X112732857Y-97302380D01*
X112504285Y-97302380D01*
X112447142Y-97350000D01*
X112418571Y-97397619D01*
X112390000Y-97492857D01*
X112390000Y-97635714D01*
X112418571Y-97730952D01*
X112447142Y-97778571D01*
X112504285Y-97826190D01*
X112732857Y-97826190D01*
X112161428Y-97397619D02*
X112132857Y-97350000D01*
X112075714Y-97302380D01*
X111932857Y-97302380D01*
X111875714Y-97350000D01*
X111847142Y-97397619D01*
X111818571Y-97492857D01*
X111818571Y-97588095D01*
X111847142Y-97730952D01*
X112190000Y-98302380D01*
X111818571Y-98302380D01*
X141062857Y-100682380D02*
X141062857Y-101491904D01*
X141034285Y-101587142D01*
X141005714Y-101634761D01*
X140948571Y-101682380D01*
X140834285Y-101682380D01*
X140777142Y-101634761D01*
X140748571Y-101587142D01*
X140720000Y-101491904D01*
X140720000Y-100682380D01*
X140120000Y-101682380D02*
X140462857Y-101682380D01*
X140291428Y-101682380D02*
X140291428Y-100682380D01*
X140348571Y-100825238D01*
X140405714Y-100920476D01*
X140462857Y-100968095D01*
X139548571Y-101682380D02*
X139891428Y-101682380D01*
X139720000Y-101682380D02*
X139720000Y-100682380D01*
X139777142Y-100825238D01*
X139834285Y-100920476D01*
X139891428Y-100968095D01*
X102905714Y-75917142D02*
X102934285Y-75964761D01*
X103020000Y-76012380D01*
X103077142Y-76012380D01*
X103162857Y-75964761D01*
X103220000Y-75869523D01*
X103248571Y-75774285D01*
X103277142Y-75583809D01*
X103277142Y-75440952D01*
X103248571Y-75250476D01*
X103220000Y-75155238D01*
X103162857Y-75060000D01*
X103077142Y-75012380D01*
X103020000Y-75012380D01*
X102934285Y-75060000D01*
X102905714Y-75107619D01*
X102334285Y-76012380D02*
X102677142Y-76012380D01*
X102505714Y-76012380D02*
X102505714Y-75012380D01*
X102562857Y-75155238D01*
X102620000Y-75250476D01*
X102677142Y-75298095D01*
X101991428Y-75440952D02*
X102048571Y-75393333D01*
X102077142Y-75345714D01*
X102105714Y-75250476D01*
X102105714Y-75202857D01*
X102077142Y-75107619D01*
X102048571Y-75060000D01*
X101991428Y-75012380D01*
X101877142Y-75012380D01*
X101820000Y-75060000D01*
X101791428Y-75107619D01*
X101762857Y-75202857D01*
X101762857Y-75250476D01*
X101791428Y-75345714D01*
X101820000Y-75393333D01*
X101877142Y-75440952D01*
X101991428Y-75440952D01*
X102048571Y-75488571D01*
X102077142Y-75536190D01*
X102105714Y-75631428D01*
X102105714Y-75821904D01*
X102077142Y-75917142D01*
X102048571Y-75964761D01*
X101991428Y-76012380D01*
X101877142Y-76012380D01*
X101820000Y-75964761D01*
X101791428Y-75917142D01*
X101762857Y-75821904D01*
X101762857Y-75631428D01*
X101791428Y-75536190D01*
X101820000Y-75488571D01*
X101877142Y-75440952D01*
X156796190Y-107014285D02*
X157272380Y-107014285D01*
X156272380Y-106814285D02*
X156796190Y-107014285D01*
X156272380Y-107214285D01*
X157272380Y-107728571D02*
X157272380Y-107385714D01*
X157272380Y-107557142D02*
X156272380Y-107557142D01*
X156415238Y-107500000D01*
X156510476Y-107442857D01*
X156558095Y-107385714D01*
X114055714Y-74127142D02*
X114084285Y-74174761D01*
X114170000Y-74222380D01*
X114227142Y-74222380D01*
X114312857Y-74174761D01*
X114370000Y-74079523D01*
X114398571Y-73984285D01*
X114427142Y-73793809D01*
X114427142Y-73650952D01*
X114398571Y-73460476D01*
X114370000Y-73365238D01*
X114312857Y-73270000D01*
X114227142Y-73222380D01*
X114170000Y-73222380D01*
X114084285Y-73270000D01*
X114055714Y-73317619D01*
X113827142Y-73317619D02*
X113798571Y-73270000D01*
X113741428Y-73222380D01*
X113598571Y-73222380D01*
X113541428Y-73270000D01*
X113512857Y-73317619D01*
X113484285Y-73412857D01*
X113484285Y-73508095D01*
X113512857Y-73650952D01*
X113855714Y-74222380D01*
X113484285Y-74222380D01*
X113255714Y-73317619D02*
X113227142Y-73270000D01*
X113170000Y-73222380D01*
X113027142Y-73222380D01*
X112970000Y-73270000D01*
X112941428Y-73317619D01*
X112912857Y-73412857D01*
X112912857Y-73508095D01*
X112941428Y-73650952D01*
X113284285Y-74222380D01*
X112912857Y-74222380D01*
X143507142Y-70074285D02*
X143554761Y-70045714D01*
X143602380Y-69960000D01*
X143602380Y-69902857D01*
X143554761Y-69817142D01*
X143459523Y-69760000D01*
X143364285Y-69731428D01*
X143173809Y-69702857D01*
X143030952Y-69702857D01*
X142840476Y-69731428D01*
X142745238Y-69760000D01*
X142650000Y-69817142D01*
X142602380Y-69902857D01*
X142602380Y-69960000D01*
X142650000Y-70045714D01*
X142697619Y-70074285D01*
X142602380Y-70274285D02*
X142602380Y-70645714D01*
X142983333Y-70445714D01*
X142983333Y-70531428D01*
X143030952Y-70588571D01*
X143078571Y-70617142D01*
X143173809Y-70645714D01*
X143411904Y-70645714D01*
X143507142Y-70617142D01*
X143554761Y-70588571D01*
X143602380Y-70531428D01*
X143602380Y-70360000D01*
X143554761Y-70302857D01*
X143507142Y-70274285D01*
X142602380Y-71160000D02*
X142602380Y-71045714D01*
X142650000Y-70988571D01*
X142697619Y-70960000D01*
X142840476Y-70902857D01*
X143030952Y-70874285D01*
X143411904Y-70874285D01*
X143507142Y-70902857D01*
X143554761Y-70931428D01*
X143602380Y-70988571D01*
X143602380Y-71102857D01*
X143554761Y-71160000D01*
X143507142Y-71188571D01*
X143411904Y-71217142D01*
X143173809Y-71217142D01*
X143078571Y-71188571D01*
X143030952Y-71160000D01*
X142983333Y-71102857D01*
X142983333Y-70988571D01*
X143030952Y-70931428D01*
X143078571Y-70902857D01*
X143173809Y-70874285D01*
X103282857Y-92332380D02*
X103282857Y-91332380D01*
X103140000Y-91332380D01*
X103054285Y-91380000D01*
X102997142Y-91475238D01*
X102968571Y-91570476D01*
X102940000Y-91760952D01*
X102940000Y-91903809D01*
X102968571Y-92094285D01*
X102997142Y-92189523D01*
X103054285Y-92284761D01*
X103140000Y-92332380D01*
X103282857Y-92332380D01*
X102711428Y-91427619D02*
X102682857Y-91380000D01*
X102625714Y-91332380D01*
X102482857Y-91332380D01*
X102425714Y-91380000D01*
X102397142Y-91427619D01*
X102368571Y-91522857D01*
X102368571Y-91618095D01*
X102397142Y-91760952D01*
X102740000Y-92332380D01*
X102368571Y-92332380D01*
X102825714Y-74762380D02*
X103025714Y-74286190D01*
X103168571Y-74762380D02*
X103168571Y-73762380D01*
X102940000Y-73762380D01*
X102882857Y-73810000D01*
X102854285Y-73857619D01*
X102825714Y-73952857D01*
X102825714Y-74095714D01*
X102854285Y-74190952D01*
X102882857Y-74238571D01*
X102940000Y-74286190D01*
X103168571Y-74286190D01*
X102597142Y-73857619D02*
X102568571Y-73810000D01*
X102511428Y-73762380D01*
X102368571Y-73762380D01*
X102311428Y-73810000D01*
X102282857Y-73857619D01*
X102254285Y-73952857D01*
X102254285Y-74048095D01*
X102282857Y-74190952D01*
X102625714Y-74762380D01*
X102254285Y-74762380D01*
X101911428Y-74190952D02*
X101968571Y-74143333D01*
X101997142Y-74095714D01*
X102025714Y-74000476D01*
X102025714Y-73952857D01*
X101997142Y-73857619D01*
X101968571Y-73810000D01*
X101911428Y-73762380D01*
X101797142Y-73762380D01*
X101740000Y-73810000D01*
X101711428Y-73857619D01*
X101682857Y-73952857D01*
X101682857Y-74000476D01*
X101711428Y-74095714D01*
X101740000Y-74143333D01*
X101797142Y-74190952D01*
X101911428Y-74190952D01*
X101968571Y-74238571D01*
X101997142Y-74286190D01*
X102025714Y-74381428D01*
X102025714Y-74571904D01*
X101997142Y-74667142D01*
X101968571Y-74714761D01*
X101911428Y-74762380D01*
X101797142Y-74762380D01*
X101740000Y-74714761D01*
X101711428Y-74667142D01*
X101682857Y-74571904D01*
X101682857Y-74381428D01*
X101711428Y-74286190D01*
X101740000Y-74238571D01*
X101797142Y-74190952D01*
X105780000Y-48397142D02*
X105808571Y-48444761D01*
X105894285Y-48492380D01*
X105951428Y-48492380D01*
X106037142Y-48444761D01*
X106094285Y-48349523D01*
X106122857Y-48254285D01*
X106151428Y-48063809D01*
X106151428Y-47920952D01*
X106122857Y-47730476D01*
X106094285Y-47635238D01*
X106037142Y-47540000D01*
X105951428Y-47492380D01*
X105894285Y-47492380D01*
X105808571Y-47540000D01*
X105780000Y-47587619D01*
X105237142Y-47492380D02*
X105522857Y-47492380D01*
X105551428Y-47968571D01*
X105522857Y-47920952D01*
X105465714Y-47873333D01*
X105322857Y-47873333D01*
X105265714Y-47920952D01*
X105237142Y-47968571D01*
X105208571Y-48063809D01*
X105208571Y-48301904D01*
X105237142Y-48397142D01*
X105265714Y-48444761D01*
X105322857Y-48492380D01*
X105465714Y-48492380D01*
X105522857Y-48444761D01*
X105551428Y-48397142D01*
X112055714Y-78907142D02*
X112084285Y-78954761D01*
X112170000Y-79002380D01*
X112227142Y-79002380D01*
X112312857Y-78954761D01*
X112370000Y-78859523D01*
X112398571Y-78764285D01*
X112427142Y-78573809D01*
X112427142Y-78430952D01*
X112398571Y-78240476D01*
X112370000Y-78145238D01*
X112312857Y-78050000D01*
X112227142Y-78002380D01*
X112170000Y-78002380D01*
X112084285Y-78050000D01*
X112055714Y-78097619D01*
X111827142Y-78097619D02*
X111798571Y-78050000D01*
X111741428Y-78002380D01*
X111598571Y-78002380D01*
X111541428Y-78050000D01*
X111512857Y-78097619D01*
X111484285Y-78192857D01*
X111484285Y-78288095D01*
X111512857Y-78430952D01*
X111855714Y-79002380D01*
X111484285Y-79002380D01*
X110941428Y-78002380D02*
X111227142Y-78002380D01*
X111255714Y-78478571D01*
X111227142Y-78430952D01*
X111170000Y-78383333D01*
X111027142Y-78383333D01*
X110970000Y-78430952D01*
X110941428Y-78478571D01*
X110912857Y-78573809D01*
X110912857Y-78811904D01*
X110941428Y-78907142D01*
X110970000Y-78954761D01*
X111027142Y-79002380D01*
X111170000Y-79002380D01*
X111227142Y-78954761D01*
X111255714Y-78907142D01*
X160667142Y-101074285D02*
X160714761Y-101045714D01*
X160762380Y-100960000D01*
X160762380Y-100902857D01*
X160714761Y-100817142D01*
X160619523Y-100760000D01*
X160524285Y-100731428D01*
X160333809Y-100702857D01*
X160190952Y-100702857D01*
X160000476Y-100731428D01*
X159905238Y-100760000D01*
X159810000Y-100817142D01*
X159762380Y-100902857D01*
X159762380Y-100960000D01*
X159810000Y-101045714D01*
X159857619Y-101074285D01*
X159762380Y-101274285D02*
X159762380Y-101645714D01*
X160143333Y-101445714D01*
X160143333Y-101531428D01*
X160190952Y-101588571D01*
X160238571Y-101617142D01*
X160333809Y-101645714D01*
X160571904Y-101645714D01*
X160667142Y-101617142D01*
X160714761Y-101588571D01*
X160762380Y-101531428D01*
X160762380Y-101360000D01*
X160714761Y-101302857D01*
X160667142Y-101274285D01*
X159762380Y-102017142D02*
X159762380Y-102074285D01*
X159810000Y-102131428D01*
X159857619Y-102160000D01*
X159952857Y-102188571D01*
X160143333Y-102217142D01*
X160381428Y-102217142D01*
X160571904Y-102188571D01*
X160667142Y-102160000D01*
X160714761Y-102131428D01*
X160762380Y-102074285D01*
X160762380Y-102017142D01*
X160714761Y-101960000D01*
X160667142Y-101931428D01*
X160571904Y-101902857D01*
X160381428Y-101874285D01*
X160143333Y-101874285D01*
X159952857Y-101902857D01*
X159857619Y-101931428D01*
X159810000Y-101960000D01*
X159762380Y-102017142D01*
X125155714Y-112877142D02*
X125184285Y-112924761D01*
X125270000Y-112972380D01*
X125327142Y-112972380D01*
X125412857Y-112924761D01*
X125470000Y-112829523D01*
X125498571Y-112734285D01*
X125527142Y-112543809D01*
X125527142Y-112400952D01*
X125498571Y-112210476D01*
X125470000Y-112115238D01*
X125412857Y-112020000D01*
X125327142Y-111972380D01*
X125270000Y-111972380D01*
X125184285Y-112020000D01*
X125155714Y-112067619D01*
X124927142Y-112067619D02*
X124898571Y-112020000D01*
X124841428Y-111972380D01*
X124698571Y-111972380D01*
X124641428Y-112020000D01*
X124612857Y-112067619D01*
X124584285Y-112162857D01*
X124584285Y-112258095D01*
X124612857Y-112400952D01*
X124955714Y-112972380D01*
X124584285Y-112972380D01*
X124212857Y-111972380D02*
X124155714Y-111972380D01*
X124098571Y-112020000D01*
X124070000Y-112067619D01*
X124041428Y-112162857D01*
X124012857Y-112353333D01*
X124012857Y-112591428D01*
X124041428Y-112781904D01*
X124070000Y-112877142D01*
X124098571Y-112924761D01*
X124155714Y-112972380D01*
X124212857Y-112972380D01*
X124270000Y-112924761D01*
X124298571Y-112877142D01*
X124327142Y-112781904D01*
X124355714Y-112591428D01*
X124355714Y-112353333D01*
X124327142Y-112162857D01*
X124298571Y-112067619D01*
X124270000Y-112020000D01*
X124212857Y-111972380D01*
X111617142Y-82377619D02*
X111674285Y-82330000D01*
X111731428Y-82234761D01*
X111817142Y-82091904D01*
X111874285Y-82044285D01*
X111931428Y-82044285D01*
X111902857Y-82282380D02*
X111960000Y-82234761D01*
X112017142Y-82139523D01*
X112045714Y-81949047D01*
X112045714Y-81615714D01*
X112017142Y-81425238D01*
X111960000Y-81330000D01*
X111902857Y-81282380D01*
X111788571Y-81282380D01*
X111731428Y-81330000D01*
X111674285Y-81425238D01*
X111645714Y-81615714D01*
X111645714Y-81949047D01*
X111674285Y-82139523D01*
X111731428Y-82234761D01*
X111788571Y-82282380D01*
X111902857Y-82282380D01*
X111074285Y-82282380D02*
X111417142Y-82282380D01*
X111245714Y-82282380D02*
X111245714Y-81282380D01*
X111302857Y-81425238D01*
X111360000Y-81520476D01*
X111417142Y-81568095D01*
X105910000Y-56537142D02*
X105938571Y-56584761D01*
X106024285Y-56632380D01*
X106081428Y-56632380D01*
X106167142Y-56584761D01*
X106224285Y-56489523D01*
X106252857Y-56394285D01*
X106281428Y-56203809D01*
X106281428Y-56060952D01*
X106252857Y-55870476D01*
X106224285Y-55775238D01*
X106167142Y-55680000D01*
X106081428Y-55632380D01*
X106024285Y-55632380D01*
X105938571Y-55680000D01*
X105910000Y-55727619D01*
X105567142Y-56060952D02*
X105624285Y-56013333D01*
X105652857Y-55965714D01*
X105681428Y-55870476D01*
X105681428Y-55822857D01*
X105652857Y-55727619D01*
X105624285Y-55680000D01*
X105567142Y-55632380D01*
X105452857Y-55632380D01*
X105395714Y-55680000D01*
X105367142Y-55727619D01*
X105338571Y-55822857D01*
X105338571Y-55870476D01*
X105367142Y-55965714D01*
X105395714Y-56013333D01*
X105452857Y-56060952D01*
X105567142Y-56060952D01*
X105624285Y-56108571D01*
X105652857Y-56156190D01*
X105681428Y-56251428D01*
X105681428Y-56441904D01*
X105652857Y-56537142D01*
X105624285Y-56584761D01*
X105567142Y-56632380D01*
X105452857Y-56632380D01*
X105395714Y-56584761D01*
X105367142Y-56537142D01*
X105338571Y-56441904D01*
X105338571Y-56251428D01*
X105367142Y-56156190D01*
X105395714Y-56108571D01*
X105452857Y-56060952D01*
X108352380Y-92170000D02*
X107876190Y-91970000D01*
X108352380Y-91827142D02*
X107352380Y-91827142D01*
X107352380Y-92055714D01*
X107400000Y-92112857D01*
X107447619Y-92141428D01*
X107542857Y-92170000D01*
X107685714Y-92170000D01*
X107780952Y-92141428D01*
X107828571Y-92112857D01*
X107876190Y-92055714D01*
X107876190Y-91827142D01*
X107685714Y-92684285D02*
X108352380Y-92684285D01*
X107304761Y-92541428D02*
X108019047Y-92398571D01*
X108019047Y-92770000D01*
X145880000Y-112912380D02*
X146080000Y-112436190D01*
X146222857Y-112912380D02*
X146222857Y-111912380D01*
X145994285Y-111912380D01*
X145937142Y-111960000D01*
X145908571Y-112007619D01*
X145880000Y-112102857D01*
X145880000Y-112245714D01*
X145908571Y-112340952D01*
X145937142Y-112388571D01*
X145994285Y-112436190D01*
X146222857Y-112436190D01*
X145594285Y-112912380D02*
X145480000Y-112912380D01*
X145422857Y-112864761D01*
X145394285Y-112817142D01*
X145337142Y-112674285D01*
X145308571Y-112483809D01*
X145308571Y-112102857D01*
X145337142Y-112007619D01*
X145365714Y-111960000D01*
X145422857Y-111912380D01*
X145537142Y-111912380D01*
X145594285Y-111960000D01*
X145622857Y-112007619D01*
X145651428Y-112102857D01*
X145651428Y-112340952D01*
X145622857Y-112436190D01*
X145594285Y-112483809D01*
X145537142Y-112531428D01*
X145422857Y-112531428D01*
X145365714Y-112483809D01*
X145337142Y-112436190D01*
X145308571Y-112340952D01*
X130817142Y-106324285D02*
X130864761Y-106295714D01*
X130912380Y-106210000D01*
X130912380Y-106152857D01*
X130864761Y-106067142D01*
X130769523Y-106010000D01*
X130674285Y-105981428D01*
X130483809Y-105952857D01*
X130340952Y-105952857D01*
X130150476Y-105981428D01*
X130055238Y-106010000D01*
X129960000Y-106067142D01*
X129912380Y-106152857D01*
X129912380Y-106210000D01*
X129960000Y-106295714D01*
X130007619Y-106324285D01*
X130245714Y-106838571D02*
X130912380Y-106838571D01*
X129864761Y-106695714D02*
X130579047Y-106552857D01*
X130579047Y-106924285D01*
X129912380Y-107267142D02*
X129912380Y-107324285D01*
X129960000Y-107381428D01*
X130007619Y-107410000D01*
X130102857Y-107438571D01*
X130293333Y-107467142D01*
X130531428Y-107467142D01*
X130721904Y-107438571D01*
X130817142Y-107410000D01*
X130864761Y-107381428D01*
X130912380Y-107324285D01*
X130912380Y-107267142D01*
X130864761Y-107210000D01*
X130817142Y-107181428D01*
X130721904Y-107152857D01*
X130531428Y-107124285D01*
X130293333Y-107124285D01*
X130102857Y-107152857D01*
X130007619Y-107181428D01*
X129960000Y-107210000D01*
X129912380Y-107267142D01*
X123427142Y-105504285D02*
X123474761Y-105475714D01*
X123522380Y-105390000D01*
X123522380Y-105332857D01*
X123474761Y-105247142D01*
X123379523Y-105190000D01*
X123284285Y-105161428D01*
X123093809Y-105132857D01*
X122950952Y-105132857D01*
X122760476Y-105161428D01*
X122665238Y-105190000D01*
X122570000Y-105247142D01*
X122522380Y-105332857D01*
X122522380Y-105390000D01*
X122570000Y-105475714D01*
X122617619Y-105504285D01*
X122617619Y-105732857D02*
X122570000Y-105761428D01*
X122522380Y-105818571D01*
X122522380Y-105961428D01*
X122570000Y-106018571D01*
X122617619Y-106047142D01*
X122712857Y-106075714D01*
X122808095Y-106075714D01*
X122950952Y-106047142D01*
X123522380Y-105704285D01*
X123522380Y-106075714D01*
X122522380Y-106275714D02*
X122522380Y-106647142D01*
X122903333Y-106447142D01*
X122903333Y-106532857D01*
X122950952Y-106590000D01*
X122998571Y-106618571D01*
X123093809Y-106647142D01*
X123331904Y-106647142D01*
X123427142Y-106618571D01*
X123474761Y-106590000D01*
X123522380Y-106532857D01*
X123522380Y-106361428D01*
X123474761Y-106304285D01*
X123427142Y-106275714D01*
X140082380Y-105234285D02*
X139606190Y-105034285D01*
X140082380Y-104891428D02*
X139082380Y-104891428D01*
X139082380Y-105120000D01*
X139130000Y-105177142D01*
X139177619Y-105205714D01*
X139272857Y-105234285D01*
X139415714Y-105234285D01*
X139510952Y-105205714D01*
X139558571Y-105177142D01*
X139606190Y-105120000D01*
X139606190Y-104891428D01*
X139177619Y-105462857D02*
X139130000Y-105491428D01*
X139082380Y-105548571D01*
X139082380Y-105691428D01*
X139130000Y-105748571D01*
X139177619Y-105777142D01*
X139272857Y-105805714D01*
X139368095Y-105805714D01*
X139510952Y-105777142D01*
X140082380Y-105434285D01*
X140082380Y-105805714D01*
X139082380Y-106005714D02*
X139082380Y-106377142D01*
X139463333Y-106177142D01*
X139463333Y-106262857D01*
X139510952Y-106320000D01*
X139558571Y-106348571D01*
X139653809Y-106377142D01*
X139891904Y-106377142D01*
X139987142Y-106348571D01*
X140034761Y-106320000D01*
X140082380Y-106262857D01*
X140082380Y-106091428D01*
X140034761Y-106034285D01*
X139987142Y-106005714D01*
X112455714Y-54927142D02*
X112484285Y-54974761D01*
X112570000Y-55022380D01*
X112627142Y-55022380D01*
X112712857Y-54974761D01*
X112770000Y-54879523D01*
X112798571Y-54784285D01*
X112827142Y-54593809D01*
X112827142Y-54450952D01*
X112798571Y-54260476D01*
X112770000Y-54165238D01*
X112712857Y-54070000D01*
X112627142Y-54022380D01*
X112570000Y-54022380D01*
X112484285Y-54070000D01*
X112455714Y-54117619D01*
X111884285Y-55022380D02*
X112227142Y-55022380D01*
X112055714Y-55022380D02*
X112055714Y-54022380D01*
X112112857Y-54165238D01*
X112170000Y-54260476D01*
X112227142Y-54308095D01*
X111512857Y-54022380D02*
X111455714Y-54022380D01*
X111398571Y-54070000D01*
X111370000Y-54117619D01*
X111341428Y-54212857D01*
X111312857Y-54403333D01*
X111312857Y-54641428D01*
X111341428Y-54831904D01*
X111370000Y-54927142D01*
X111398571Y-54974761D01*
X111455714Y-55022380D01*
X111512857Y-55022380D01*
X111570000Y-54974761D01*
X111598571Y-54927142D01*
X111627142Y-54831904D01*
X111655714Y-54641428D01*
X111655714Y-54403333D01*
X111627142Y-54212857D01*
X111598571Y-54117619D01*
X111570000Y-54070000D01*
X111512857Y-54022380D01*
X136166666Y-74112380D02*
X136642857Y-74112380D01*
X136642857Y-73112380D01*
X135928571Y-73112380D02*
X135309523Y-73112380D01*
X135642857Y-73493333D01*
X135500000Y-73493333D01*
X135404761Y-73540952D01*
X135357142Y-73588571D01*
X135309523Y-73683809D01*
X135309523Y-73921904D01*
X135357142Y-74017142D01*
X135404761Y-74064761D01*
X135500000Y-74112380D01*
X135785714Y-74112380D01*
X135880952Y-74064761D01*
X135928571Y-74017142D01*
X107632380Y-66814285D02*
X107156190Y-66614285D01*
X107632380Y-66471428D02*
X106632380Y-66471428D01*
X106632380Y-66700000D01*
X106680000Y-66757142D01*
X106727619Y-66785714D01*
X106822857Y-66814285D01*
X106965714Y-66814285D01*
X107060952Y-66785714D01*
X107108571Y-66757142D01*
X107156190Y-66700000D01*
X107156190Y-66471428D01*
X107632380Y-67385714D02*
X107632380Y-67042857D01*
X107632380Y-67214285D02*
X106632380Y-67214285D01*
X106775238Y-67157142D01*
X106870476Y-67100000D01*
X106918095Y-67042857D01*
X106632380Y-67585714D02*
X106632380Y-67985714D01*
X107632380Y-67728571D01*
X127767142Y-111992380D02*
X127767142Y-112801904D01*
X127738571Y-112897142D01*
X127710000Y-112944761D01*
X127652857Y-112992380D01*
X127538571Y-112992380D01*
X127481428Y-112944761D01*
X127452857Y-112897142D01*
X127424285Y-112801904D01*
X127424285Y-111992380D01*
X127110000Y-112992380D02*
X126995714Y-112992380D01*
X126938571Y-112944761D01*
X126910000Y-112897142D01*
X126852857Y-112754285D01*
X126824285Y-112563809D01*
X126824285Y-112182857D01*
X126852857Y-112087619D01*
X126881428Y-112040000D01*
X126938571Y-111992380D01*
X127052857Y-111992380D01*
X127110000Y-112040000D01*
X127138571Y-112087619D01*
X127167142Y-112182857D01*
X127167142Y-112420952D01*
X127138571Y-112516190D01*
X127110000Y-112563809D01*
X127052857Y-112611428D01*
X126938571Y-112611428D01*
X126881428Y-112563809D01*
X126852857Y-112516190D01*
X126824285Y-112420952D01*
X105202380Y-66764285D02*
X104726190Y-66564285D01*
X105202380Y-66421428D02*
X104202380Y-66421428D01*
X104202380Y-66650000D01*
X104250000Y-66707142D01*
X104297619Y-66735714D01*
X104392857Y-66764285D01*
X104535714Y-66764285D01*
X104630952Y-66735714D01*
X104678571Y-66707142D01*
X104726190Y-66650000D01*
X104726190Y-66421428D01*
X105202380Y-67335714D02*
X105202380Y-66992857D01*
X105202380Y-67164285D02*
X104202380Y-67164285D01*
X104345238Y-67107142D01*
X104440476Y-67050000D01*
X104488095Y-66992857D01*
X104535714Y-67850000D02*
X105202380Y-67850000D01*
X104154761Y-67707142D02*
X104869047Y-67564285D01*
X104869047Y-67935714D01*
X110880714Y-47449880D02*
X111080714Y-46973690D01*
X111223571Y-47449880D02*
X111223571Y-46449880D01*
X110995000Y-46449880D01*
X110937857Y-46497500D01*
X110909285Y-46545119D01*
X110880714Y-46640357D01*
X110880714Y-46783214D01*
X110909285Y-46878452D01*
X110937857Y-46926071D01*
X110995000Y-46973690D01*
X111223571Y-46973690D01*
X110652142Y-46545119D02*
X110623571Y-46497500D01*
X110566428Y-46449880D01*
X110423571Y-46449880D01*
X110366428Y-46497500D01*
X110337857Y-46545119D01*
X110309285Y-46640357D01*
X110309285Y-46735595D01*
X110337857Y-46878452D01*
X110680714Y-47449880D01*
X110309285Y-47449880D01*
X109737857Y-47449880D02*
X110080714Y-47449880D01*
X109909285Y-47449880D02*
X109909285Y-46449880D01*
X109966428Y-46592738D01*
X110023571Y-46687976D01*
X110080714Y-46735595D01*
X112185714Y-93547142D02*
X112214285Y-93594761D01*
X112300000Y-93642380D01*
X112357142Y-93642380D01*
X112442857Y-93594761D01*
X112500000Y-93499523D01*
X112528571Y-93404285D01*
X112557142Y-93213809D01*
X112557142Y-93070952D01*
X112528571Y-92880476D01*
X112500000Y-92785238D01*
X112442857Y-92690000D01*
X112357142Y-92642380D01*
X112300000Y-92642380D01*
X112214285Y-92690000D01*
X112185714Y-92737619D01*
X111614285Y-93642380D02*
X111957142Y-93642380D01*
X111785714Y-93642380D02*
X111785714Y-92642380D01*
X111842857Y-92785238D01*
X111900000Y-92880476D01*
X111957142Y-92928095D01*
X111042857Y-93642380D02*
X111385714Y-93642380D01*
X111214285Y-93642380D02*
X111214285Y-92642380D01*
X111271428Y-92785238D01*
X111328571Y-92880476D01*
X111385714Y-92928095D01*
X106470000Y-90072380D02*
X106470000Y-90786666D01*
X106498571Y-90929523D01*
X106555714Y-91024761D01*
X106641428Y-91072380D01*
X106698571Y-91072380D01*
X106184285Y-91072380D02*
X106184285Y-90072380D01*
X105955714Y-90072380D01*
X105898571Y-90120000D01*
X105870000Y-90167619D01*
X105841428Y-90262857D01*
X105841428Y-90405714D01*
X105870000Y-90500952D01*
X105898571Y-90548571D01*
X105955714Y-90596190D01*
X106184285Y-90596190D01*
X105270000Y-91072380D02*
X105612857Y-91072380D01*
X105441428Y-91072380D02*
X105441428Y-90072380D01*
X105498571Y-90215238D01*
X105555714Y-90310476D01*
X105612857Y-90358095D01*
X112145714Y-92382380D02*
X112345714Y-91906190D01*
X112488571Y-92382380D02*
X112488571Y-91382380D01*
X112260000Y-91382380D01*
X112202857Y-91430000D01*
X112174285Y-91477619D01*
X112145714Y-91572857D01*
X112145714Y-91715714D01*
X112174285Y-91810952D01*
X112202857Y-91858571D01*
X112260000Y-91906190D01*
X112488571Y-91906190D01*
X111574285Y-92382380D02*
X111917142Y-92382380D01*
X111745714Y-92382380D02*
X111745714Y-91382380D01*
X111802857Y-91525238D01*
X111860000Y-91620476D01*
X111917142Y-91668095D01*
X111288571Y-92382380D02*
X111174285Y-92382380D01*
X111117142Y-92334761D01*
X111088571Y-92287142D01*
X111031428Y-92144285D01*
X111002857Y-91953809D01*
X111002857Y-91572857D01*
X111031428Y-91477619D01*
X111060000Y-91430000D01*
X111117142Y-91382380D01*
X111231428Y-91382380D01*
X111288571Y-91430000D01*
X111317142Y-91477619D01*
X111345714Y-91572857D01*
X111345714Y-91810952D01*
X111317142Y-91906190D01*
X111288571Y-91953809D01*
X111231428Y-92001428D01*
X111117142Y-92001428D01*
X111060000Y-91953809D01*
X111031428Y-91906190D01*
X111002857Y-91810952D01*
X133777142Y-80074285D02*
X133824761Y-80045714D01*
X133872380Y-79960000D01*
X133872380Y-79902857D01*
X133824761Y-79817142D01*
X133729523Y-79760000D01*
X133634285Y-79731428D01*
X133443809Y-79702857D01*
X133300952Y-79702857D01*
X133110476Y-79731428D01*
X133015238Y-79760000D01*
X132920000Y-79817142D01*
X132872380Y-79902857D01*
X132872380Y-79960000D01*
X132920000Y-80045714D01*
X132967619Y-80074285D01*
X132967619Y-80302857D02*
X132920000Y-80331428D01*
X132872380Y-80388571D01*
X132872380Y-80531428D01*
X132920000Y-80588571D01*
X132967619Y-80617142D01*
X133062857Y-80645714D01*
X133158095Y-80645714D01*
X133300952Y-80617142D01*
X133872380Y-80274285D01*
X133872380Y-80645714D01*
X133300952Y-80988571D02*
X133253333Y-80931428D01*
X133205714Y-80902857D01*
X133110476Y-80874285D01*
X133062857Y-80874285D01*
X132967619Y-80902857D01*
X132920000Y-80931428D01*
X132872380Y-80988571D01*
X132872380Y-81102857D01*
X132920000Y-81160000D01*
X132967619Y-81188571D01*
X133062857Y-81217142D01*
X133110476Y-81217142D01*
X133205714Y-81188571D01*
X133253333Y-81160000D01*
X133300952Y-81102857D01*
X133300952Y-80988571D01*
X133348571Y-80931428D01*
X133396190Y-80902857D01*
X133491428Y-80874285D01*
X133681904Y-80874285D01*
X133777142Y-80902857D01*
X133824761Y-80931428D01*
X133872380Y-80988571D01*
X133872380Y-81102857D01*
X133824761Y-81160000D01*
X133777142Y-81188571D01*
X133681904Y-81217142D01*
X133491428Y-81217142D01*
X133396190Y-81188571D01*
X133348571Y-81160000D01*
X133300952Y-81102857D01*
X111502380Y-65024285D02*
X111026190Y-64824285D01*
X111502380Y-64681428D02*
X110502380Y-64681428D01*
X110502380Y-64910000D01*
X110550000Y-64967142D01*
X110597619Y-64995714D01*
X110692857Y-65024285D01*
X110835714Y-65024285D01*
X110930952Y-64995714D01*
X110978571Y-64967142D01*
X111026190Y-64910000D01*
X111026190Y-64681428D01*
X111502380Y-65595714D02*
X111502380Y-65252857D01*
X111502380Y-65424285D02*
X110502380Y-65424285D01*
X110645238Y-65367142D01*
X110740476Y-65310000D01*
X110788095Y-65252857D01*
X110597619Y-65824285D02*
X110550000Y-65852857D01*
X110502380Y-65910000D01*
X110502380Y-66052857D01*
X110550000Y-66110000D01*
X110597619Y-66138571D01*
X110692857Y-66167142D01*
X110788095Y-66167142D01*
X110930952Y-66138571D01*
X111502380Y-65795714D01*
X111502380Y-66167142D01*
X112115714Y-74127142D02*
X112144285Y-74174761D01*
X112230000Y-74222380D01*
X112287142Y-74222380D01*
X112372857Y-74174761D01*
X112430000Y-74079523D01*
X112458571Y-73984285D01*
X112487142Y-73793809D01*
X112487142Y-73650952D01*
X112458571Y-73460476D01*
X112430000Y-73365238D01*
X112372857Y-73270000D01*
X112287142Y-73222380D01*
X112230000Y-73222380D01*
X112144285Y-73270000D01*
X112115714Y-73317619D01*
X111887142Y-73317619D02*
X111858571Y-73270000D01*
X111801428Y-73222380D01*
X111658571Y-73222380D01*
X111601428Y-73270000D01*
X111572857Y-73317619D01*
X111544285Y-73412857D01*
X111544285Y-73508095D01*
X111572857Y-73650952D01*
X111915714Y-74222380D01*
X111544285Y-74222380D01*
X110972857Y-74222380D02*
X111315714Y-74222380D01*
X111144285Y-74222380D02*
X111144285Y-73222380D01*
X111201428Y-73365238D01*
X111258571Y-73460476D01*
X111315714Y-73508095D01*
X106247142Y-49462380D02*
X106247142Y-50271904D01*
X106218571Y-50367142D01*
X106190000Y-50414761D01*
X106132857Y-50462380D01*
X106018571Y-50462380D01*
X105961428Y-50414761D01*
X105932857Y-50367142D01*
X105904285Y-50271904D01*
X105904285Y-49462380D01*
X105361428Y-49795714D02*
X105361428Y-50462380D01*
X105504285Y-49414761D02*
X105647142Y-50129047D01*
X105275714Y-50129047D01*
X159287142Y-101084285D02*
X159334761Y-101055714D01*
X159382380Y-100970000D01*
X159382380Y-100912857D01*
X159334761Y-100827142D01*
X159239523Y-100770000D01*
X159144285Y-100741428D01*
X158953809Y-100712857D01*
X158810952Y-100712857D01*
X158620476Y-100741428D01*
X158525238Y-100770000D01*
X158430000Y-100827142D01*
X158382380Y-100912857D01*
X158382380Y-100970000D01*
X158430000Y-101055714D01*
X158477619Y-101084285D01*
X158382380Y-101284285D02*
X158382380Y-101655714D01*
X158763333Y-101455714D01*
X158763333Y-101541428D01*
X158810952Y-101598571D01*
X158858571Y-101627142D01*
X158953809Y-101655714D01*
X159191904Y-101655714D01*
X159287142Y-101627142D01*
X159334761Y-101598571D01*
X159382380Y-101541428D01*
X159382380Y-101370000D01*
X159334761Y-101312857D01*
X159287142Y-101284285D01*
X158477619Y-101884285D02*
X158430000Y-101912857D01*
X158382380Y-101970000D01*
X158382380Y-102112857D01*
X158430000Y-102170000D01*
X158477619Y-102198571D01*
X158572857Y-102227142D01*
X158668095Y-102227142D01*
X158810952Y-102198571D01*
X159382380Y-101855714D01*
X159382380Y-102227142D01*
X115715714Y-87832380D02*
X115915714Y-87356190D01*
X116058571Y-87832380D02*
X116058571Y-86832380D01*
X115830000Y-86832380D01*
X115772857Y-86880000D01*
X115744285Y-86927619D01*
X115715714Y-87022857D01*
X115715714Y-87165714D01*
X115744285Y-87260952D01*
X115772857Y-87308571D01*
X115830000Y-87356190D01*
X116058571Y-87356190D01*
X115487142Y-86927619D02*
X115458571Y-86880000D01*
X115401428Y-86832380D01*
X115258571Y-86832380D01*
X115201428Y-86880000D01*
X115172857Y-86927619D01*
X115144285Y-87022857D01*
X115144285Y-87118095D01*
X115172857Y-87260952D01*
X115515714Y-87832380D01*
X115144285Y-87832380D01*
X114772857Y-86832380D02*
X114715714Y-86832380D01*
X114658571Y-86880000D01*
X114630000Y-86927619D01*
X114601428Y-87022857D01*
X114572857Y-87213333D01*
X114572857Y-87451428D01*
X114601428Y-87641904D01*
X114630000Y-87737142D01*
X114658571Y-87784761D01*
X114715714Y-87832380D01*
X114772857Y-87832380D01*
X114830000Y-87784761D01*
X114858571Y-87737142D01*
X114887142Y-87641904D01*
X114915714Y-87451428D01*
X114915714Y-87213333D01*
X114887142Y-87022857D01*
X114858571Y-86927619D01*
X114830000Y-86880000D01*
X114772857Y-86832380D01*
X113860000Y-69112380D02*
X113860000Y-69826666D01*
X113888571Y-69969523D01*
X113945714Y-70064761D01*
X114031428Y-70112380D01*
X114088571Y-70112380D01*
X113574285Y-70112380D02*
X113574285Y-69112380D01*
X113345714Y-69112380D01*
X113288571Y-69160000D01*
X113260000Y-69207619D01*
X113231428Y-69302857D01*
X113231428Y-69445714D01*
X113260000Y-69540952D01*
X113288571Y-69588571D01*
X113345714Y-69636190D01*
X113574285Y-69636190D01*
X113002857Y-69207619D02*
X112974285Y-69160000D01*
X112917142Y-69112380D01*
X112774285Y-69112380D01*
X112717142Y-69160000D01*
X112688571Y-69207619D01*
X112660000Y-69302857D01*
X112660000Y-69398095D01*
X112688571Y-69540952D01*
X113031428Y-70112380D01*
X112660000Y-70112380D01*
X150457142Y-102752380D02*
X150457142Y-103561904D01*
X150428571Y-103657142D01*
X150400000Y-103704761D01*
X150342857Y-103752380D01*
X150228571Y-103752380D01*
X150171428Y-103704761D01*
X150142857Y-103657142D01*
X150114285Y-103561904D01*
X150114285Y-102752380D01*
X149885714Y-102752380D02*
X149514285Y-102752380D01*
X149714285Y-103133333D01*
X149628571Y-103133333D01*
X149571428Y-103180952D01*
X149542857Y-103228571D01*
X149514285Y-103323809D01*
X149514285Y-103561904D01*
X149542857Y-103657142D01*
X149571428Y-103704761D01*
X149628571Y-103752380D01*
X149800000Y-103752380D01*
X149857142Y-103704761D01*
X149885714Y-103657142D01*
X142202380Y-77137142D02*
X143011904Y-77137142D01*
X143107142Y-77165714D01*
X143154761Y-77194285D01*
X143202380Y-77251428D01*
X143202380Y-77365714D01*
X143154761Y-77422857D01*
X143107142Y-77451428D01*
X143011904Y-77480000D01*
X142202380Y-77480000D01*
X143202380Y-78080000D02*
X143202380Y-77737142D01*
X143202380Y-77908571D02*
X142202380Y-77908571D01*
X142345238Y-77851428D01*
X142440476Y-77794285D01*
X142488095Y-77737142D01*
X142297619Y-78308571D02*
X142250000Y-78337142D01*
X142202380Y-78394285D01*
X142202380Y-78537142D01*
X142250000Y-78594285D01*
X142297619Y-78622857D01*
X142392857Y-78651428D01*
X142488095Y-78651428D01*
X142630952Y-78622857D01*
X143202380Y-78280000D01*
X143202380Y-78651428D01*
X145177142Y-72984285D02*
X145224761Y-72955714D01*
X145272380Y-72870000D01*
X145272380Y-72812857D01*
X145224761Y-72727142D01*
X145129523Y-72670000D01*
X145034285Y-72641428D01*
X144843809Y-72612857D01*
X144700952Y-72612857D01*
X144510476Y-72641428D01*
X144415238Y-72670000D01*
X144320000Y-72727142D01*
X144272380Y-72812857D01*
X144272380Y-72870000D01*
X144320000Y-72955714D01*
X144367619Y-72984285D01*
X144272380Y-73184285D02*
X144272380Y-73555714D01*
X144653333Y-73355714D01*
X144653333Y-73441428D01*
X144700952Y-73498571D01*
X144748571Y-73527142D01*
X144843809Y-73555714D01*
X145081904Y-73555714D01*
X145177142Y-73527142D01*
X145224761Y-73498571D01*
X145272380Y-73441428D01*
X145272380Y-73270000D01*
X145224761Y-73212857D01*
X145177142Y-73184285D01*
X144272380Y-74098571D02*
X144272380Y-73812857D01*
X144748571Y-73784285D01*
X144700952Y-73812857D01*
X144653333Y-73870000D01*
X144653333Y-74012857D01*
X144700952Y-74070000D01*
X144748571Y-74098571D01*
X144843809Y-74127142D01*
X145081904Y-74127142D01*
X145177142Y-74098571D01*
X145224761Y-74070000D01*
X145272380Y-74012857D01*
X145272380Y-73870000D01*
X145224761Y-73812857D01*
X145177142Y-73784285D01*
X114537142Y-50662380D02*
X114537142Y-51471904D01*
X114508571Y-51567142D01*
X114480000Y-51614761D01*
X114422857Y-51662380D01*
X114308571Y-51662380D01*
X114251428Y-51614761D01*
X114222857Y-51567142D01*
X114194285Y-51471904D01*
X114194285Y-50662380D01*
X113965714Y-50662380D02*
X113565714Y-50662380D01*
X113822857Y-51662380D01*
X112995714Y-47482380D02*
X113195714Y-47006190D01*
X113338571Y-47482380D02*
X113338571Y-46482380D01*
X113110000Y-46482380D01*
X113052857Y-46530000D01*
X113024285Y-46577619D01*
X112995714Y-46672857D01*
X112995714Y-46815714D01*
X113024285Y-46910952D01*
X113052857Y-46958571D01*
X113110000Y-47006190D01*
X113338571Y-47006190D01*
X112767142Y-46577619D02*
X112738571Y-46530000D01*
X112681428Y-46482380D01*
X112538571Y-46482380D01*
X112481428Y-46530000D01*
X112452857Y-46577619D01*
X112424285Y-46672857D01*
X112424285Y-46768095D01*
X112452857Y-46910952D01*
X112795714Y-47482380D01*
X112424285Y-47482380D01*
X112195714Y-46577619D02*
X112167142Y-46530000D01*
X112110000Y-46482380D01*
X111967142Y-46482380D01*
X111910000Y-46530000D01*
X111881428Y-46577619D01*
X111852857Y-46672857D01*
X111852857Y-46768095D01*
X111881428Y-46910952D01*
X112224285Y-47482380D01*
X111852857Y-47482380D01*
X102542857Y-86162380D02*
X102542857Y-85162380D01*
X102400000Y-85162380D01*
X102314285Y-85210000D01*
X102257142Y-85305238D01*
X102228571Y-85400476D01*
X102200000Y-85590952D01*
X102200000Y-85733809D01*
X102228571Y-85924285D01*
X102257142Y-86019523D01*
X102314285Y-86114761D01*
X102400000Y-86162380D01*
X102542857Y-86162380D01*
X101628571Y-86162380D02*
X101971428Y-86162380D01*
X101800000Y-86162380D02*
X101800000Y-85162380D01*
X101857142Y-85305238D01*
X101914285Y-85400476D01*
X101971428Y-85448095D01*
X140697142Y-107951619D02*
X140754285Y-107904000D01*
X140811428Y-107808761D01*
X140897142Y-107665904D01*
X140954285Y-107618285D01*
X141011428Y-107618285D01*
X140982857Y-107856380D02*
X141040000Y-107808761D01*
X141097142Y-107713523D01*
X141125714Y-107523047D01*
X141125714Y-107189714D01*
X141097142Y-106999238D01*
X141040000Y-106904000D01*
X140982857Y-106856380D01*
X140868571Y-106856380D01*
X140811428Y-106904000D01*
X140754285Y-106999238D01*
X140725714Y-107189714D01*
X140725714Y-107523047D01*
X140754285Y-107713523D01*
X140811428Y-107808761D01*
X140868571Y-107856380D01*
X140982857Y-107856380D01*
X140497142Y-106951619D02*
X140468571Y-106904000D01*
X140411428Y-106856380D01*
X140268571Y-106856380D01*
X140211428Y-106904000D01*
X140182857Y-106951619D01*
X140154285Y-107046857D01*
X140154285Y-107142095D01*
X140182857Y-107284952D01*
X140525714Y-107856380D01*
X140154285Y-107856380D01*
X105552380Y-85094285D02*
X105076190Y-84894285D01*
X105552380Y-84751428D02*
X104552380Y-84751428D01*
X104552380Y-84980000D01*
X104600000Y-85037142D01*
X104647619Y-85065714D01*
X104742857Y-85094285D01*
X104885714Y-85094285D01*
X104980952Y-85065714D01*
X105028571Y-85037142D01*
X105076190Y-84980000D01*
X105076190Y-84751428D01*
X105552380Y-85665714D02*
X105552380Y-85322857D01*
X105552380Y-85494285D02*
X104552380Y-85494285D01*
X104695238Y-85437142D01*
X104790476Y-85380000D01*
X104838095Y-85322857D01*
X104552380Y-86037142D02*
X104552380Y-86094285D01*
X104600000Y-86151428D01*
X104647619Y-86180000D01*
X104742857Y-86208571D01*
X104933333Y-86237142D01*
X105171428Y-86237142D01*
X105361904Y-86208571D01*
X105457142Y-86180000D01*
X105504761Y-86151428D01*
X105552380Y-86094285D01*
X105552380Y-86037142D01*
X105504761Y-85980000D01*
X105457142Y-85951428D01*
X105361904Y-85922857D01*
X105171428Y-85894285D01*
X104933333Y-85894285D01*
X104742857Y-85922857D01*
X104647619Y-85951428D01*
X104600000Y-85980000D01*
X104552380Y-86037142D01*
X104332380Y-85094285D02*
X103856190Y-84894285D01*
X104332380Y-84751428D02*
X103332380Y-84751428D01*
X103332380Y-84980000D01*
X103380000Y-85037142D01*
X103427619Y-85065714D01*
X103522857Y-85094285D01*
X103665714Y-85094285D01*
X103760952Y-85065714D01*
X103808571Y-85037142D01*
X103856190Y-84980000D01*
X103856190Y-84751428D01*
X104332380Y-85665714D02*
X104332380Y-85322857D01*
X104332380Y-85494285D02*
X103332380Y-85494285D01*
X103475238Y-85437142D01*
X103570476Y-85380000D01*
X103618095Y-85322857D01*
X104332380Y-86237142D02*
X104332380Y-85894285D01*
X104332380Y-86065714D02*
X103332380Y-86065714D01*
X103475238Y-86008571D01*
X103570476Y-85951428D01*
X103618095Y-85894285D01*
X138362380Y-71767142D02*
X137362380Y-71767142D01*
X137362380Y-71910000D01*
X137410000Y-71995714D01*
X137505238Y-72052857D01*
X137600476Y-72081428D01*
X137790952Y-72110000D01*
X137933809Y-72110000D01*
X138124285Y-72081428D01*
X138219523Y-72052857D01*
X138314761Y-71995714D01*
X138362380Y-71910000D01*
X138362380Y-71767142D01*
X137362380Y-72310000D02*
X137362380Y-72710000D01*
X138362380Y-72452857D01*
X161065714Y-103747142D02*
X161094285Y-103794761D01*
X161180000Y-103842380D01*
X161237142Y-103842380D01*
X161322857Y-103794761D01*
X161380000Y-103699523D01*
X161408571Y-103604285D01*
X161437142Y-103413809D01*
X161437142Y-103270952D01*
X161408571Y-103080476D01*
X161380000Y-102985238D01*
X161322857Y-102890000D01*
X161237142Y-102842380D01*
X161180000Y-102842380D01*
X161094285Y-102890000D01*
X161065714Y-102937619D01*
X160837142Y-102937619D02*
X160808571Y-102890000D01*
X160751428Y-102842380D01*
X160608571Y-102842380D01*
X160551428Y-102890000D01*
X160522857Y-102937619D01*
X160494285Y-103032857D01*
X160494285Y-103128095D01*
X160522857Y-103270952D01*
X160865714Y-103842380D01*
X160494285Y-103842380D01*
X160294285Y-102842380D02*
X159894285Y-102842380D01*
X160151428Y-103842380D01*
X143192380Y-79684285D02*
X142716190Y-79484285D01*
X143192380Y-79341428D02*
X142192380Y-79341428D01*
X142192380Y-79570000D01*
X142240000Y-79627142D01*
X142287619Y-79655714D01*
X142382857Y-79684285D01*
X142525714Y-79684285D01*
X142620952Y-79655714D01*
X142668571Y-79627142D01*
X142716190Y-79570000D01*
X142716190Y-79341428D01*
X142287619Y-79912857D02*
X142240000Y-79941428D01*
X142192380Y-79998571D01*
X142192380Y-80141428D01*
X142240000Y-80198571D01*
X142287619Y-80227142D01*
X142382857Y-80255714D01*
X142478095Y-80255714D01*
X142620952Y-80227142D01*
X143192380Y-79884285D01*
X143192380Y-80255714D01*
X143192380Y-80541428D02*
X143192380Y-80655714D01*
X143144761Y-80712857D01*
X143097142Y-80741428D01*
X142954285Y-80798571D01*
X142763809Y-80827142D01*
X142382857Y-80827142D01*
X142287619Y-80798571D01*
X142240000Y-80770000D01*
X142192380Y-80712857D01*
X142192380Y-80598571D01*
X142240000Y-80541428D01*
X142287619Y-80512857D01*
X142382857Y-80484285D01*
X142620952Y-80484285D01*
X142716190Y-80512857D01*
X142763809Y-80541428D01*
X142811428Y-80598571D01*
X142811428Y-80712857D01*
X142763809Y-80770000D01*
X142716190Y-80798571D01*
X142620952Y-80827142D01*
X140082380Y-108754285D02*
X139606190Y-108554285D01*
X140082380Y-108411428D02*
X139082380Y-108411428D01*
X139082380Y-108640000D01*
X139130000Y-108697142D01*
X139177619Y-108725714D01*
X139272857Y-108754285D01*
X139415714Y-108754285D01*
X139510952Y-108725714D01*
X139558571Y-108697142D01*
X139606190Y-108640000D01*
X139606190Y-108411428D01*
X139177619Y-108982857D02*
X139130000Y-109011428D01*
X139082380Y-109068571D01*
X139082380Y-109211428D01*
X139130000Y-109268571D01*
X139177619Y-109297142D01*
X139272857Y-109325714D01*
X139368095Y-109325714D01*
X139510952Y-109297142D01*
X140082380Y-108954285D01*
X140082380Y-109325714D01*
X139415714Y-109840000D02*
X140082380Y-109840000D01*
X139034761Y-109697142D02*
X139749047Y-109554285D01*
X139749047Y-109925714D01*
X154287142Y-101674285D02*
X154334761Y-101645714D01*
X154382380Y-101560000D01*
X154382380Y-101502857D01*
X154334761Y-101417142D01*
X154239523Y-101360000D01*
X154144285Y-101331428D01*
X153953809Y-101302857D01*
X153810952Y-101302857D01*
X153620476Y-101331428D01*
X153525238Y-101360000D01*
X153430000Y-101417142D01*
X153382380Y-101502857D01*
X153382380Y-101560000D01*
X153430000Y-101645714D01*
X153477619Y-101674285D01*
X154382380Y-102245714D02*
X154382380Y-101902857D01*
X154382380Y-102074285D02*
X153382380Y-102074285D01*
X153525238Y-102017142D01*
X153620476Y-101960000D01*
X153668095Y-101902857D01*
X153382380Y-102788571D02*
X153382380Y-102502857D01*
X153858571Y-102474285D01*
X153810952Y-102502857D01*
X153763333Y-102560000D01*
X153763333Y-102702857D01*
X153810952Y-102760000D01*
X153858571Y-102788571D01*
X153953809Y-102817142D01*
X154191904Y-102817142D01*
X154287142Y-102788571D01*
X154334761Y-102760000D01*
X154382380Y-102702857D01*
X154382380Y-102560000D01*
X154334761Y-102502857D01*
X154287142Y-102474285D01*
X107970000Y-55217142D02*
X107998571Y-55264761D01*
X108084285Y-55312380D01*
X108141428Y-55312380D01*
X108227142Y-55264761D01*
X108284285Y-55169523D01*
X108312857Y-55074285D01*
X108341428Y-54883809D01*
X108341428Y-54740952D01*
X108312857Y-54550476D01*
X108284285Y-54455238D01*
X108227142Y-54360000D01*
X108141428Y-54312380D01*
X108084285Y-54312380D01*
X107998571Y-54360000D01*
X107970000Y-54407619D01*
X107770000Y-54312380D02*
X107370000Y-54312380D01*
X107627142Y-55312380D01*
X148427142Y-79454285D02*
X148474761Y-79425714D01*
X148522380Y-79340000D01*
X148522380Y-79282857D01*
X148474761Y-79197142D01*
X148379523Y-79140000D01*
X148284285Y-79111428D01*
X148093809Y-79082857D01*
X147950952Y-79082857D01*
X147760476Y-79111428D01*
X147665238Y-79140000D01*
X147570000Y-79197142D01*
X147522380Y-79282857D01*
X147522380Y-79340000D01*
X147570000Y-79425714D01*
X147617619Y-79454285D01*
X148522380Y-80025714D02*
X148522380Y-79682857D01*
X148522380Y-79854285D02*
X147522380Y-79854285D01*
X147665238Y-79797142D01*
X147760476Y-79740000D01*
X147808095Y-79682857D01*
X147522380Y-80540000D02*
X147522380Y-80425714D01*
X147570000Y-80368571D01*
X147617619Y-80340000D01*
X147760476Y-80282857D01*
X147950952Y-80254285D01*
X148331904Y-80254285D01*
X148427142Y-80282857D01*
X148474761Y-80311428D01*
X148522380Y-80368571D01*
X148522380Y-80482857D01*
X148474761Y-80540000D01*
X148427142Y-80568571D01*
X148331904Y-80597142D01*
X148093809Y-80597142D01*
X147998571Y-80568571D01*
X147950952Y-80540000D01*
X147903333Y-80482857D01*
X147903333Y-80368571D01*
X147950952Y-80311428D01*
X147998571Y-80282857D01*
X148093809Y-80254285D01*
X117437142Y-86822380D02*
X117437142Y-87631904D01*
X117408571Y-87727142D01*
X117380000Y-87774761D01*
X117322857Y-87822380D01*
X117208571Y-87822380D01*
X117151428Y-87774761D01*
X117122857Y-87727142D01*
X117094285Y-87631904D01*
X117094285Y-86822380D01*
X116551428Y-86822380D02*
X116665714Y-86822380D01*
X116722857Y-86870000D01*
X116751428Y-86917619D01*
X116808571Y-87060476D01*
X116837142Y-87250952D01*
X116837142Y-87631904D01*
X116808571Y-87727142D01*
X116780000Y-87774761D01*
X116722857Y-87822380D01*
X116608571Y-87822380D01*
X116551428Y-87774761D01*
X116522857Y-87727142D01*
X116494285Y-87631904D01*
X116494285Y-87393809D01*
X116522857Y-87298571D01*
X116551428Y-87250952D01*
X116608571Y-87203333D01*
X116722857Y-87203333D01*
X116780000Y-87250952D01*
X116808571Y-87298571D01*
X116837142Y-87393809D01*
X146417142Y-73024285D02*
X146464761Y-72995714D01*
X146512380Y-72910000D01*
X146512380Y-72852857D01*
X146464761Y-72767142D01*
X146369523Y-72710000D01*
X146274285Y-72681428D01*
X146083809Y-72652857D01*
X145940952Y-72652857D01*
X145750476Y-72681428D01*
X145655238Y-72710000D01*
X145560000Y-72767142D01*
X145512380Y-72852857D01*
X145512380Y-72910000D01*
X145560000Y-72995714D01*
X145607619Y-73024285D01*
X145512380Y-73224285D02*
X145512380Y-73595714D01*
X145893333Y-73395714D01*
X145893333Y-73481428D01*
X145940952Y-73538571D01*
X145988571Y-73567142D01*
X146083809Y-73595714D01*
X146321904Y-73595714D01*
X146417142Y-73567142D01*
X146464761Y-73538571D01*
X146512380Y-73481428D01*
X146512380Y-73310000D01*
X146464761Y-73252857D01*
X146417142Y-73224285D01*
X145845714Y-74110000D02*
X146512380Y-74110000D01*
X145464761Y-73967142D02*
X146179047Y-73824285D01*
X146179047Y-74195714D01*
X111970000Y-96292380D02*
X112170000Y-95816190D01*
X112312857Y-96292380D02*
X112312857Y-95292380D01*
X112084285Y-95292380D01*
X112027142Y-95340000D01*
X111998571Y-95387619D01*
X111970000Y-95482857D01*
X111970000Y-95625714D01*
X111998571Y-95720952D01*
X112027142Y-95768571D01*
X112084285Y-95816190D01*
X112312857Y-95816190D01*
X111455714Y-95292380D02*
X111570000Y-95292380D01*
X111627142Y-95340000D01*
X111655714Y-95387619D01*
X111712857Y-95530476D01*
X111741428Y-95720952D01*
X111741428Y-96101904D01*
X111712857Y-96197142D01*
X111684285Y-96244761D01*
X111627142Y-96292380D01*
X111512857Y-96292380D01*
X111455714Y-96244761D01*
X111427142Y-96197142D01*
X111398571Y-96101904D01*
X111398571Y-95863809D01*
X111427142Y-95768571D01*
X111455714Y-95720952D01*
X111512857Y-95673333D01*
X111627142Y-95673333D01*
X111684285Y-95720952D01*
X111712857Y-95768571D01*
X111741428Y-95863809D01*
X121805714Y-93997142D02*
X121834285Y-94044761D01*
X121920000Y-94092380D01*
X121977142Y-94092380D01*
X122062857Y-94044761D01*
X122120000Y-93949523D01*
X122148571Y-93854285D01*
X122177142Y-93663809D01*
X122177142Y-93520952D01*
X122148571Y-93330476D01*
X122120000Y-93235238D01*
X122062857Y-93140000D01*
X121977142Y-93092380D01*
X121920000Y-93092380D01*
X121834285Y-93140000D01*
X121805714Y-93187619D01*
X121234285Y-94092380D02*
X121577142Y-94092380D01*
X121405714Y-94092380D02*
X121405714Y-93092380D01*
X121462857Y-93235238D01*
X121520000Y-93330476D01*
X121577142Y-93378095D01*
X121005714Y-93187619D02*
X120977142Y-93140000D01*
X120920000Y-93092380D01*
X120777142Y-93092380D01*
X120720000Y-93140000D01*
X120691428Y-93187619D01*
X120662857Y-93282857D01*
X120662857Y-93378095D01*
X120691428Y-93520952D01*
X121034285Y-94092380D01*
X120662857Y-94092380D01*
X113630000Y-95697142D02*
X113658571Y-95744761D01*
X113744285Y-95792380D01*
X113801428Y-95792380D01*
X113887142Y-95744761D01*
X113944285Y-95649523D01*
X113972857Y-95554285D01*
X114001428Y-95363809D01*
X114001428Y-95220952D01*
X113972857Y-95030476D01*
X113944285Y-94935238D01*
X113887142Y-94840000D01*
X113801428Y-94792380D01*
X113744285Y-94792380D01*
X113658571Y-94840000D01*
X113630000Y-94887619D01*
X113344285Y-95792380D02*
X113230000Y-95792380D01*
X113172857Y-95744761D01*
X113144285Y-95697142D01*
X113087142Y-95554285D01*
X113058571Y-95363809D01*
X113058571Y-94982857D01*
X113087142Y-94887619D01*
X113115714Y-94840000D01*
X113172857Y-94792380D01*
X113287142Y-94792380D01*
X113344285Y-94840000D01*
X113372857Y-94887619D01*
X113401428Y-94982857D01*
X113401428Y-95220952D01*
X113372857Y-95316190D01*
X113344285Y-95363809D01*
X113287142Y-95411428D01*
X113172857Y-95411428D01*
X113115714Y-95363809D01*
X113087142Y-95316190D01*
X113058571Y-95220952D01*
X118647142Y-109884285D02*
X118694761Y-109855714D01*
X118742380Y-109770000D01*
X118742380Y-109712857D01*
X118694761Y-109627142D01*
X118599523Y-109570000D01*
X118504285Y-109541428D01*
X118313809Y-109512857D01*
X118170952Y-109512857D01*
X117980476Y-109541428D01*
X117885238Y-109570000D01*
X117790000Y-109627142D01*
X117742380Y-109712857D01*
X117742380Y-109770000D01*
X117790000Y-109855714D01*
X117837619Y-109884285D01*
X118742380Y-110455714D02*
X118742380Y-110112857D01*
X118742380Y-110284285D02*
X117742380Y-110284285D01*
X117885238Y-110227142D01*
X117980476Y-110170000D01*
X118028095Y-110112857D01*
X118742380Y-110741428D02*
X118742380Y-110855714D01*
X118694761Y-110912857D01*
X118647142Y-110941428D01*
X118504285Y-110998571D01*
X118313809Y-111027142D01*
X117932857Y-111027142D01*
X117837619Y-110998571D01*
X117790000Y-110970000D01*
X117742380Y-110912857D01*
X117742380Y-110798571D01*
X117790000Y-110741428D01*
X117837619Y-110712857D01*
X117932857Y-110684285D01*
X118170952Y-110684285D01*
X118266190Y-110712857D01*
X118313809Y-110741428D01*
X118361428Y-110798571D01*
X118361428Y-110912857D01*
X118313809Y-110970000D01*
X118266190Y-110998571D01*
X118170952Y-111027142D01*
X102895714Y-77217142D02*
X102924285Y-77264761D01*
X103010000Y-77312380D01*
X103067142Y-77312380D01*
X103152857Y-77264761D01*
X103210000Y-77169523D01*
X103238571Y-77074285D01*
X103267142Y-76883809D01*
X103267142Y-76740952D01*
X103238571Y-76550476D01*
X103210000Y-76455238D01*
X103152857Y-76360000D01*
X103067142Y-76312380D01*
X103010000Y-76312380D01*
X102924285Y-76360000D01*
X102895714Y-76407619D01*
X102324285Y-77312380D02*
X102667142Y-77312380D01*
X102495714Y-77312380D02*
X102495714Y-76312380D01*
X102552857Y-76455238D01*
X102610000Y-76550476D01*
X102667142Y-76598095D01*
X102124285Y-76312380D02*
X101724285Y-76312380D01*
X101981428Y-77312380D01*
X108517857Y-77552380D02*
X108517857Y-78361904D01*
X108489285Y-78457142D01*
X108460714Y-78504761D01*
X108403571Y-78552380D01*
X108289285Y-78552380D01*
X108232142Y-78504761D01*
X108203571Y-78457142D01*
X108175000Y-78361904D01*
X108175000Y-77552380D01*
X107575000Y-78552380D02*
X107917857Y-78552380D01*
X107746428Y-78552380D02*
X107746428Y-77552380D01*
X107803571Y-77695238D01*
X107860714Y-77790476D01*
X107917857Y-77838095D01*
X107203571Y-77552380D02*
X107146428Y-77552380D01*
X107089285Y-77600000D01*
X107060714Y-77647619D01*
X107032142Y-77742857D01*
X107003571Y-77933333D01*
X107003571Y-78171428D01*
X107032142Y-78361904D01*
X107060714Y-78457142D01*
X107089285Y-78504761D01*
X107146428Y-78552380D01*
X107203571Y-78552380D01*
X107260714Y-78504761D01*
X107289285Y-78457142D01*
X107317857Y-78361904D01*
X107346428Y-78171428D01*
X107346428Y-77933333D01*
X107317857Y-77742857D01*
X107289285Y-77647619D01*
X107260714Y-77600000D01*
X107203571Y-77552380D01*
X145890000Y-111232380D02*
X146090000Y-110756190D01*
X146232857Y-111232380D02*
X146232857Y-110232380D01*
X146004285Y-110232380D01*
X145947142Y-110280000D01*
X145918571Y-110327619D01*
X145890000Y-110422857D01*
X145890000Y-110565714D01*
X145918571Y-110660952D01*
X145947142Y-110708571D01*
X146004285Y-110756190D01*
X146232857Y-110756190D01*
X145547142Y-110660952D02*
X145604285Y-110613333D01*
X145632857Y-110565714D01*
X145661428Y-110470476D01*
X145661428Y-110422857D01*
X145632857Y-110327619D01*
X145604285Y-110280000D01*
X145547142Y-110232380D01*
X145432857Y-110232380D01*
X145375714Y-110280000D01*
X145347142Y-110327619D01*
X145318571Y-110422857D01*
X145318571Y-110470476D01*
X145347142Y-110565714D01*
X145375714Y-110613333D01*
X145432857Y-110660952D01*
X145547142Y-110660952D01*
X145604285Y-110708571D01*
X145632857Y-110756190D01*
X145661428Y-110851428D01*
X145661428Y-111041904D01*
X145632857Y-111137142D01*
X145604285Y-111184761D01*
X145547142Y-111232380D01*
X145432857Y-111232380D01*
X145375714Y-111184761D01*
X145347142Y-111137142D01*
X145318571Y-111041904D01*
X145318571Y-110851428D01*
X145347142Y-110756190D01*
X145375714Y-110708571D01*
X145432857Y-110660952D01*
X129067142Y-103864285D02*
X129114761Y-103835714D01*
X129162380Y-103750000D01*
X129162380Y-103692857D01*
X129114761Y-103607142D01*
X129019523Y-103550000D01*
X128924285Y-103521428D01*
X128733809Y-103492857D01*
X128590952Y-103492857D01*
X128400476Y-103521428D01*
X128305238Y-103550000D01*
X128210000Y-103607142D01*
X128162380Y-103692857D01*
X128162380Y-103750000D01*
X128210000Y-103835714D01*
X128257619Y-103864285D01*
X128162380Y-104064285D02*
X128162380Y-104435714D01*
X128543333Y-104235714D01*
X128543333Y-104321428D01*
X128590952Y-104378571D01*
X128638571Y-104407142D01*
X128733809Y-104435714D01*
X128971904Y-104435714D01*
X129067142Y-104407142D01*
X129114761Y-104378571D01*
X129162380Y-104321428D01*
X129162380Y-104150000D01*
X129114761Y-104092857D01*
X129067142Y-104064285D01*
X129162380Y-104721428D02*
X129162380Y-104835714D01*
X129114761Y-104892857D01*
X129067142Y-104921428D01*
X128924285Y-104978571D01*
X128733809Y-105007142D01*
X128352857Y-105007142D01*
X128257619Y-104978571D01*
X128210000Y-104950000D01*
X128162380Y-104892857D01*
X128162380Y-104778571D01*
X128210000Y-104721428D01*
X128257619Y-104692857D01*
X128352857Y-104664285D01*
X128590952Y-104664285D01*
X128686190Y-104692857D01*
X128733809Y-104721428D01*
X128781428Y-104778571D01*
X128781428Y-104892857D01*
X128733809Y-104950000D01*
X128686190Y-104978571D01*
X128590952Y-105007142D01*
X109922857Y-91892380D02*
X109922857Y-90892380D01*
X109780000Y-90892380D01*
X109694285Y-90940000D01*
X109637142Y-91035238D01*
X109608571Y-91130476D01*
X109580000Y-91320952D01*
X109580000Y-91463809D01*
X109608571Y-91654285D01*
X109637142Y-91749523D01*
X109694285Y-91844761D01*
X109780000Y-91892380D01*
X109922857Y-91892380D01*
X109037142Y-90892380D02*
X109322857Y-90892380D01*
X109351428Y-91368571D01*
X109322857Y-91320952D01*
X109265714Y-91273333D01*
X109122857Y-91273333D01*
X109065714Y-91320952D01*
X109037142Y-91368571D01*
X109008571Y-91463809D01*
X109008571Y-91701904D01*
X109037142Y-91797142D01*
X109065714Y-91844761D01*
X109122857Y-91892380D01*
X109265714Y-91892380D01*
X109322857Y-91844761D01*
X109351428Y-91797142D01*
X161105714Y-105317142D02*
X161134285Y-105364761D01*
X161220000Y-105412380D01*
X161277142Y-105412380D01*
X161362857Y-105364761D01*
X161420000Y-105269523D01*
X161448571Y-105174285D01*
X161477142Y-104983809D01*
X161477142Y-104840952D01*
X161448571Y-104650476D01*
X161420000Y-104555238D01*
X161362857Y-104460000D01*
X161277142Y-104412380D01*
X161220000Y-104412380D01*
X161134285Y-104460000D01*
X161105714Y-104507619D01*
X160877142Y-104507619D02*
X160848571Y-104460000D01*
X160791428Y-104412380D01*
X160648571Y-104412380D01*
X160591428Y-104460000D01*
X160562857Y-104507619D01*
X160534285Y-104602857D01*
X160534285Y-104698095D01*
X160562857Y-104840952D01*
X160905714Y-105412380D01*
X160534285Y-105412380D01*
X160020000Y-104412380D02*
X160134285Y-104412380D01*
X160191428Y-104460000D01*
X160220000Y-104507619D01*
X160277142Y-104650476D01*
X160305714Y-104840952D01*
X160305714Y-105221904D01*
X160277142Y-105317142D01*
X160248571Y-105364761D01*
X160191428Y-105412380D01*
X160077142Y-105412380D01*
X160020000Y-105364761D01*
X159991428Y-105317142D01*
X159962857Y-105221904D01*
X159962857Y-104983809D01*
X159991428Y-104888571D01*
X160020000Y-104840952D01*
X160077142Y-104793333D01*
X160191428Y-104793333D01*
X160248571Y-104840952D01*
X160277142Y-104888571D01*
X160305714Y-104983809D01*
X106922380Y-92190000D02*
X106446190Y-91990000D01*
X106922380Y-91847142D02*
X105922380Y-91847142D01*
X105922380Y-92075714D01*
X105970000Y-92132857D01*
X106017619Y-92161428D01*
X106112857Y-92190000D01*
X106255714Y-92190000D01*
X106350952Y-92161428D01*
X106398571Y-92132857D01*
X106446190Y-92075714D01*
X106446190Y-91847142D01*
X105922380Y-92390000D02*
X105922380Y-92761428D01*
X106303333Y-92561428D01*
X106303333Y-92647142D01*
X106350952Y-92704285D01*
X106398571Y-92732857D01*
X106493809Y-92761428D01*
X106731904Y-92761428D01*
X106827142Y-92732857D01*
X106874761Y-92704285D01*
X106922380Y-92647142D01*
X106922380Y-92475714D01*
X106874761Y-92418571D01*
X106827142Y-92390000D01*
X109470000Y-93512380D02*
X109670000Y-93036190D01*
X109812857Y-93512380D02*
X109812857Y-92512380D01*
X109584285Y-92512380D01*
X109527142Y-92560000D01*
X109498571Y-92607619D01*
X109470000Y-92702857D01*
X109470000Y-92845714D01*
X109498571Y-92940952D01*
X109527142Y-92988571D01*
X109584285Y-93036190D01*
X109812857Y-93036190D01*
X109270000Y-92512380D02*
X108870000Y-92512380D01*
X109127142Y-93512380D01*
X104202142Y-94825000D02*
X104249761Y-94796428D01*
X104297380Y-94710714D01*
X104297380Y-94653571D01*
X104249761Y-94567857D01*
X104154523Y-94510714D01*
X104059285Y-94482142D01*
X103868809Y-94453571D01*
X103725952Y-94453571D01*
X103535476Y-94482142D01*
X103440238Y-94510714D01*
X103345000Y-94567857D01*
X103297380Y-94653571D01*
X103297380Y-94710714D01*
X103345000Y-94796428D01*
X103392619Y-94825000D01*
X104297380Y-95396428D02*
X104297380Y-95053571D01*
X104297380Y-95225000D02*
X103297380Y-95225000D01*
X103440238Y-95167857D01*
X103535476Y-95110714D01*
X103583095Y-95053571D01*
X127467142Y-102894285D02*
X127514761Y-102865714D01*
X127562380Y-102780000D01*
X127562380Y-102722857D01*
X127514761Y-102637142D01*
X127419523Y-102580000D01*
X127324285Y-102551428D01*
X127133809Y-102522857D01*
X126990952Y-102522857D01*
X126800476Y-102551428D01*
X126705238Y-102580000D01*
X126610000Y-102637142D01*
X126562380Y-102722857D01*
X126562380Y-102780000D01*
X126610000Y-102865714D01*
X126657619Y-102894285D01*
X126657619Y-103122857D02*
X126610000Y-103151428D01*
X126562380Y-103208571D01*
X126562380Y-103351428D01*
X126610000Y-103408571D01*
X126657619Y-103437142D01*
X126752857Y-103465714D01*
X126848095Y-103465714D01*
X126990952Y-103437142D01*
X127562380Y-103094285D01*
X127562380Y-103465714D01*
X126895714Y-103980000D02*
X127562380Y-103980000D01*
X126514761Y-103837142D02*
X127229047Y-103694285D01*
X127229047Y-104065714D01*
X111542380Y-61479285D02*
X111066190Y-61279285D01*
X111542380Y-61136428D02*
X110542380Y-61136428D01*
X110542380Y-61365000D01*
X110590000Y-61422142D01*
X110637619Y-61450714D01*
X110732857Y-61479285D01*
X110875714Y-61479285D01*
X110970952Y-61450714D01*
X111018571Y-61422142D01*
X111066190Y-61365000D01*
X111066190Y-61136428D01*
X111542380Y-62050714D02*
X111542380Y-61707857D01*
X111542380Y-61879285D02*
X110542380Y-61879285D01*
X110685238Y-61822142D01*
X110780476Y-61765000D01*
X110828095Y-61707857D01*
X110970952Y-62393571D02*
X110923333Y-62336428D01*
X110875714Y-62307857D01*
X110780476Y-62279285D01*
X110732857Y-62279285D01*
X110637619Y-62307857D01*
X110590000Y-62336428D01*
X110542380Y-62393571D01*
X110542380Y-62507857D01*
X110590000Y-62565000D01*
X110637619Y-62593571D01*
X110732857Y-62622142D01*
X110780476Y-62622142D01*
X110875714Y-62593571D01*
X110923333Y-62565000D01*
X110970952Y-62507857D01*
X110970952Y-62393571D01*
X111018571Y-62336428D01*
X111066190Y-62307857D01*
X111161428Y-62279285D01*
X111351904Y-62279285D01*
X111447142Y-62307857D01*
X111494761Y-62336428D01*
X111542380Y-62393571D01*
X111542380Y-62507857D01*
X111494761Y-62565000D01*
X111447142Y-62593571D01*
X111351904Y-62622142D01*
X111161428Y-62622142D01*
X111066190Y-62593571D01*
X111018571Y-62565000D01*
X110970952Y-62507857D01*
X106007142Y-83700000D02*
X106054761Y-83671428D01*
X106102380Y-83585714D01*
X106102380Y-83528571D01*
X106054761Y-83442857D01*
X105959523Y-83385714D01*
X105864285Y-83357142D01*
X105673809Y-83328571D01*
X105530952Y-83328571D01*
X105340476Y-83357142D01*
X105245238Y-83385714D01*
X105150000Y-83442857D01*
X105102380Y-83528571D01*
X105102380Y-83585714D01*
X105150000Y-83671428D01*
X105197619Y-83700000D01*
X105102380Y-84214285D02*
X105102380Y-84100000D01*
X105150000Y-84042857D01*
X105197619Y-84014285D01*
X105340476Y-83957142D01*
X105530952Y-83928571D01*
X105911904Y-83928571D01*
X106007142Y-83957142D01*
X106054761Y-83985714D01*
X106102380Y-84042857D01*
X106102380Y-84157142D01*
X106054761Y-84214285D01*
X106007142Y-84242857D01*
X105911904Y-84271428D01*
X105673809Y-84271428D01*
X105578571Y-84242857D01*
X105530952Y-84214285D01*
X105483333Y-84157142D01*
X105483333Y-84042857D01*
X105530952Y-83985714D01*
X105578571Y-83957142D01*
X105673809Y-83928571D01*
X119145714Y-97967142D02*
X119174285Y-98014761D01*
X119260000Y-98062380D01*
X119317142Y-98062380D01*
X119402857Y-98014761D01*
X119460000Y-97919523D01*
X119488571Y-97824285D01*
X119517142Y-97633809D01*
X119517142Y-97490952D01*
X119488571Y-97300476D01*
X119460000Y-97205238D01*
X119402857Y-97110000D01*
X119317142Y-97062380D01*
X119260000Y-97062380D01*
X119174285Y-97110000D01*
X119145714Y-97157619D01*
X118574285Y-98062380D02*
X118917142Y-98062380D01*
X118745714Y-98062380D02*
X118745714Y-97062380D01*
X118802857Y-97205238D01*
X118860000Y-97300476D01*
X118917142Y-97348095D01*
X118374285Y-97062380D02*
X118002857Y-97062380D01*
X118202857Y-97443333D01*
X118117142Y-97443333D01*
X118060000Y-97490952D01*
X118031428Y-97538571D01*
X118002857Y-97633809D01*
X118002857Y-97871904D01*
X118031428Y-97967142D01*
X118060000Y-98014761D01*
X118117142Y-98062380D01*
X118288571Y-98062380D01*
X118345714Y-98014761D01*
X118374285Y-97967142D01*
X131617142Y-109234285D02*
X131664761Y-109205714D01*
X131712380Y-109120000D01*
X131712380Y-109062857D01*
X131664761Y-108977142D01*
X131569523Y-108920000D01*
X131474285Y-108891428D01*
X131283809Y-108862857D01*
X131140952Y-108862857D01*
X130950476Y-108891428D01*
X130855238Y-108920000D01*
X130760000Y-108977142D01*
X130712380Y-109062857D01*
X130712380Y-109120000D01*
X130760000Y-109205714D01*
X130807619Y-109234285D01*
X130712380Y-109434285D02*
X130712380Y-109805714D01*
X131093333Y-109605714D01*
X131093333Y-109691428D01*
X131140952Y-109748571D01*
X131188571Y-109777142D01*
X131283809Y-109805714D01*
X131521904Y-109805714D01*
X131617142Y-109777142D01*
X131664761Y-109748571D01*
X131712380Y-109691428D01*
X131712380Y-109520000D01*
X131664761Y-109462857D01*
X131617142Y-109434285D01*
X131140952Y-110148571D02*
X131093333Y-110091428D01*
X131045714Y-110062857D01*
X130950476Y-110034285D01*
X130902857Y-110034285D01*
X130807619Y-110062857D01*
X130760000Y-110091428D01*
X130712380Y-110148571D01*
X130712380Y-110262857D01*
X130760000Y-110320000D01*
X130807619Y-110348571D01*
X130902857Y-110377142D01*
X130950476Y-110377142D01*
X131045714Y-110348571D01*
X131093333Y-110320000D01*
X131140952Y-110262857D01*
X131140952Y-110148571D01*
X131188571Y-110091428D01*
X131236190Y-110062857D01*
X131331428Y-110034285D01*
X131521904Y-110034285D01*
X131617142Y-110062857D01*
X131664761Y-110091428D01*
X131712380Y-110148571D01*
X131712380Y-110262857D01*
X131664761Y-110320000D01*
X131617142Y-110348571D01*
X131521904Y-110377142D01*
X131331428Y-110377142D01*
X131236190Y-110348571D01*
X131188571Y-110320000D01*
X131140952Y-110262857D01*
X117162380Y-84504285D02*
X116686190Y-84304285D01*
X117162380Y-84161428D02*
X116162380Y-84161428D01*
X116162380Y-84390000D01*
X116210000Y-84447142D01*
X116257619Y-84475714D01*
X116352857Y-84504285D01*
X116495714Y-84504285D01*
X116590952Y-84475714D01*
X116638571Y-84447142D01*
X116686190Y-84390000D01*
X116686190Y-84161428D01*
X116162380Y-84704285D02*
X116162380Y-85075714D01*
X116543333Y-84875714D01*
X116543333Y-84961428D01*
X116590952Y-85018571D01*
X116638571Y-85047142D01*
X116733809Y-85075714D01*
X116971904Y-85075714D01*
X117067142Y-85047142D01*
X117114761Y-85018571D01*
X117162380Y-84961428D01*
X117162380Y-84790000D01*
X117114761Y-84732857D01*
X117067142Y-84704285D01*
X116162380Y-85447142D02*
X116162380Y-85504285D01*
X116210000Y-85561428D01*
X116257619Y-85590000D01*
X116352857Y-85618571D01*
X116543333Y-85647142D01*
X116781428Y-85647142D01*
X116971904Y-85618571D01*
X117067142Y-85590000D01*
X117114761Y-85561428D01*
X117162380Y-85504285D01*
X117162380Y-85447142D01*
X117114761Y-85390000D01*
X117067142Y-85361428D01*
X116971904Y-85332857D01*
X116781428Y-85304285D01*
X116543333Y-85304285D01*
X116352857Y-85332857D01*
X116257619Y-85361428D01*
X116210000Y-85390000D01*
X116162380Y-85447142D01*
X122497142Y-112082380D02*
X122497142Y-112891904D01*
X122468571Y-112987142D01*
X122440000Y-113034761D01*
X122382857Y-113082380D01*
X122268571Y-113082380D01*
X122211428Y-113034761D01*
X122182857Y-112987142D01*
X122154285Y-112891904D01*
X122154285Y-112082380D01*
X121782857Y-112510952D02*
X121840000Y-112463333D01*
X121868571Y-112415714D01*
X121897142Y-112320476D01*
X121897142Y-112272857D01*
X121868571Y-112177619D01*
X121840000Y-112130000D01*
X121782857Y-112082380D01*
X121668571Y-112082380D01*
X121611428Y-112130000D01*
X121582857Y-112177619D01*
X121554285Y-112272857D01*
X121554285Y-112320476D01*
X121582857Y-112415714D01*
X121611428Y-112463333D01*
X121668571Y-112510952D01*
X121782857Y-112510952D01*
X121840000Y-112558571D01*
X121868571Y-112606190D01*
X121897142Y-112701428D01*
X121897142Y-112891904D01*
X121868571Y-112987142D01*
X121840000Y-113034761D01*
X121782857Y-113082380D01*
X121668571Y-113082380D01*
X121611428Y-113034761D01*
X121582857Y-112987142D01*
X121554285Y-112891904D01*
X121554285Y-112701428D01*
X121582857Y-112606190D01*
X121611428Y-112558571D01*
X121668571Y-112510952D01*
X126087142Y-103854285D02*
X126134761Y-103825714D01*
X126182380Y-103740000D01*
X126182380Y-103682857D01*
X126134761Y-103597142D01*
X126039523Y-103540000D01*
X125944285Y-103511428D01*
X125753809Y-103482857D01*
X125610952Y-103482857D01*
X125420476Y-103511428D01*
X125325238Y-103540000D01*
X125230000Y-103597142D01*
X125182380Y-103682857D01*
X125182380Y-103740000D01*
X125230000Y-103825714D01*
X125277619Y-103854285D01*
X125515714Y-104368571D02*
X126182380Y-104368571D01*
X125134761Y-104225714D02*
X125849047Y-104082857D01*
X125849047Y-104454285D01*
X126182380Y-104997142D02*
X126182380Y-104654285D01*
X126182380Y-104825714D02*
X125182380Y-104825714D01*
X125325238Y-104768571D01*
X125420476Y-104711428D01*
X125468095Y-104654285D01*
X143332142Y-112847619D02*
X143389285Y-112800000D01*
X143446428Y-112704761D01*
X143532142Y-112561904D01*
X143589285Y-112514285D01*
X143646428Y-112514285D01*
X143617857Y-112752380D02*
X143675000Y-112704761D01*
X143732142Y-112609523D01*
X143760714Y-112419047D01*
X143760714Y-112085714D01*
X143732142Y-111895238D01*
X143675000Y-111800000D01*
X143617857Y-111752380D01*
X143503571Y-111752380D01*
X143446428Y-111800000D01*
X143389285Y-111895238D01*
X143360714Y-112085714D01*
X143360714Y-112419047D01*
X143389285Y-112609523D01*
X143446428Y-112704761D01*
X143503571Y-112752380D01*
X143617857Y-112752380D01*
X143160714Y-111752380D02*
X142789285Y-111752380D01*
X142989285Y-112133333D01*
X142903571Y-112133333D01*
X142846428Y-112180952D01*
X142817857Y-112228571D01*
X142789285Y-112323809D01*
X142789285Y-112561904D01*
X142817857Y-112657142D01*
X142846428Y-112704761D01*
X142903571Y-112752380D01*
X143075000Y-112752380D01*
X143132142Y-112704761D01*
X143160714Y-112657142D01*
X108247142Y-100792380D02*
X108247142Y-101601904D01*
X108218571Y-101697142D01*
X108190000Y-101744761D01*
X108132857Y-101792380D01*
X108018571Y-101792380D01*
X107961428Y-101744761D01*
X107932857Y-101697142D01*
X107904285Y-101601904D01*
X107904285Y-100792380D01*
X107647142Y-100887619D02*
X107618571Y-100840000D01*
X107561428Y-100792380D01*
X107418571Y-100792380D01*
X107361428Y-100840000D01*
X107332857Y-100887619D01*
X107304285Y-100982857D01*
X107304285Y-101078095D01*
X107332857Y-101220952D01*
X107675714Y-101792380D01*
X107304285Y-101792380D01*
X115297142Y-59167619D02*
X115354285Y-59120000D01*
X115411428Y-59024761D01*
X115497142Y-58881904D01*
X115554285Y-58834285D01*
X115611428Y-58834285D01*
X115582857Y-59072380D02*
X115640000Y-59024761D01*
X115697142Y-58929523D01*
X115725714Y-58739047D01*
X115725714Y-58405714D01*
X115697142Y-58215238D01*
X115640000Y-58120000D01*
X115582857Y-58072380D01*
X115468571Y-58072380D01*
X115411428Y-58120000D01*
X115354285Y-58215238D01*
X115325714Y-58405714D01*
X115325714Y-58739047D01*
X115354285Y-58929523D01*
X115411428Y-59024761D01*
X115468571Y-59072380D01*
X115582857Y-59072380D01*
X114982857Y-58500952D02*
X115040000Y-58453333D01*
X115068571Y-58405714D01*
X115097142Y-58310476D01*
X115097142Y-58262857D01*
X115068571Y-58167619D01*
X115040000Y-58120000D01*
X114982857Y-58072380D01*
X114868571Y-58072380D01*
X114811428Y-58120000D01*
X114782857Y-58167619D01*
X114754285Y-58262857D01*
X114754285Y-58310476D01*
X114782857Y-58405714D01*
X114811428Y-58453333D01*
X114868571Y-58500952D01*
X114982857Y-58500952D01*
X115040000Y-58548571D01*
X115068571Y-58596190D01*
X115097142Y-58691428D01*
X115097142Y-58881904D01*
X115068571Y-58977142D01*
X115040000Y-59024761D01*
X114982857Y-59072380D01*
X114868571Y-59072380D01*
X114811428Y-59024761D01*
X114782857Y-58977142D01*
X114754285Y-58881904D01*
X114754285Y-58691428D01*
X114782857Y-58596190D01*
X114811428Y-58548571D01*
X114868571Y-58500952D01*
X138427142Y-79444285D02*
X138474761Y-79415714D01*
X138522380Y-79330000D01*
X138522380Y-79272857D01*
X138474761Y-79187142D01*
X138379523Y-79130000D01*
X138284285Y-79101428D01*
X138093809Y-79072857D01*
X137950952Y-79072857D01*
X137760476Y-79101428D01*
X137665238Y-79130000D01*
X137570000Y-79187142D01*
X137522380Y-79272857D01*
X137522380Y-79330000D01*
X137570000Y-79415714D01*
X137617619Y-79444285D01*
X137522380Y-79644285D02*
X137522380Y-80015714D01*
X137903333Y-79815714D01*
X137903333Y-79901428D01*
X137950952Y-79958571D01*
X137998571Y-79987142D01*
X138093809Y-80015714D01*
X138331904Y-80015714D01*
X138427142Y-79987142D01*
X138474761Y-79958571D01*
X138522380Y-79901428D01*
X138522380Y-79730000D01*
X138474761Y-79672857D01*
X138427142Y-79644285D01*
X138522380Y-80587142D02*
X138522380Y-80244285D01*
X138522380Y-80415714D02*
X137522380Y-80415714D01*
X137665238Y-80358571D01*
X137760476Y-80301428D01*
X137808095Y-80244285D01*
X112320000Y-101672380D02*
X112520000Y-101196190D01*
X112662857Y-101672380D02*
X112662857Y-100672380D01*
X112434285Y-100672380D01*
X112377142Y-100720000D01*
X112348571Y-100767619D01*
X112320000Y-100862857D01*
X112320000Y-101005714D01*
X112348571Y-101100952D01*
X112377142Y-101148571D01*
X112434285Y-101196190D01*
X112662857Y-101196190D01*
X111748571Y-101672380D02*
X112091428Y-101672380D01*
X111920000Y-101672380D02*
X111920000Y-100672380D01*
X111977142Y-100815238D01*
X112034285Y-100910476D01*
X112091428Y-100958095D01*
X111767142Y-85977619D02*
X111824285Y-85930000D01*
X111881428Y-85834761D01*
X111967142Y-85691904D01*
X112024285Y-85644285D01*
X112081428Y-85644285D01*
X112052857Y-85882380D02*
X112110000Y-85834761D01*
X112167142Y-85739523D01*
X112195714Y-85549047D01*
X112195714Y-85215714D01*
X112167142Y-85025238D01*
X112110000Y-84930000D01*
X112052857Y-84882380D01*
X111938571Y-84882380D01*
X111881428Y-84930000D01*
X111824285Y-85025238D01*
X111795714Y-85215714D01*
X111795714Y-85549047D01*
X111824285Y-85739523D01*
X111881428Y-85834761D01*
X111938571Y-85882380D01*
X112052857Y-85882380D01*
X111281428Y-85215714D02*
X111281428Y-85882380D01*
X111424285Y-84834761D02*
X111567142Y-85549047D01*
X111195714Y-85549047D01*
D12*
X114710000Y-63030000D02*
X115360000Y-63030000D01*
X114710000Y-66150000D02*
X115360000Y-66150000D01*
X114710000Y-66150000D02*
X113035000Y-66150000D01*
X114710000Y-63030000D02*
X114060000Y-63030000D01*
X104185000Y-99161252D02*
X104185000Y-98638748D01*
X102715000Y-99161252D02*
X102715000Y-98638748D01*
X123930000Y-92560000D02*
X123930000Y-92410000D01*
X119530000Y-92560000D02*
X119530000Y-92410000D01*
X119530000Y-88160000D02*
X123930000Y-88160000D01*
X123930000Y-88160000D02*
X123930000Y-88310000D01*
X119530000Y-88160000D02*
X119530000Y-88310000D01*
X119530000Y-92560000D02*
X123930000Y-92560000D01*
X136280000Y-80550580D02*
X136280000Y-80269420D01*
X137300000Y-80550580D02*
X137300000Y-80269420D01*
X146110000Y-105357836D02*
X146110000Y-105142164D01*
X145390000Y-105357836D02*
X145390000Y-105142164D01*
X117895000Y-88278641D02*
X117895000Y-87971359D01*
X118655000Y-88278641D02*
X118655000Y-87971359D01*
X112433641Y-99590000D02*
X112126359Y-99590000D01*
X112433641Y-100350000D02*
X112126359Y-100350000D01*
X138770000Y-99930000D02*
X138770000Y-98430000D01*
X138770000Y-81530000D02*
X139770000Y-81530000D01*
X138770000Y-81530000D02*
X138770000Y-83030000D01*
X157820000Y-99930000D02*
X157820000Y-100330000D01*
X157820000Y-99930000D02*
X164620000Y-99930000D01*
X139770000Y-99930000D02*
X138770000Y-99930000D01*
X164620000Y-99930000D02*
X164620000Y-81530000D01*
X164620000Y-81530000D02*
X158420000Y-81530000D01*
X104782836Y-75515000D02*
X104567164Y-75515000D01*
X104782836Y-76235000D02*
X104567164Y-76235000D01*
X154050000Y-105350000D02*
X154050000Y-106700000D01*
X155800000Y-105350000D02*
X155800000Y-106700000D01*
X112615580Y-75610000D02*
X112334420Y-75610000D01*
X112615580Y-74590000D02*
X112334420Y-74590000D01*
X141220000Y-70502164D02*
X141220000Y-70717836D01*
X141940000Y-70502164D02*
X141940000Y-70717836D01*
X105025000Y-89125000D02*
X105025000Y-91125000D01*
X105025000Y-89125000D02*
X101125000Y-89125000D01*
X105025000Y-91125000D02*
X101125000Y-91125000D01*
X104546359Y-74445000D02*
X104853641Y-74445000D01*
X104546359Y-75205000D02*
X104853641Y-75205000D01*
X108010580Y-48465000D02*
X107729420Y-48465000D01*
X108010580Y-47445000D02*
X107729420Y-47445000D01*
X111911252Y-77635000D02*
X111388748Y-77635000D01*
X111911252Y-76165000D02*
X111388748Y-76165000D01*
X156980000Y-101402164D02*
X156980000Y-101617836D01*
X156260000Y-101402164D02*
X156260000Y-101617836D01*
X125260000Y-110515580D02*
X125260000Y-110234420D01*
X124240000Y-110515580D02*
X124240000Y-110234420D01*
X109712500Y-84785000D02*
X108037500Y-84785000D01*
X109712500Y-81665000D02*
X110362500Y-81665000D01*
X109712500Y-81665000D02*
X109062500Y-81665000D01*
X109712500Y-84785000D02*
X110362500Y-84785000D01*
X105360000Y-54687836D02*
X105360000Y-54472164D01*
X106080000Y-54687836D02*
X106080000Y-54472164D01*
X107930000Y-95628641D02*
X107930000Y-95321359D01*
X107170000Y-95628641D02*
X107170000Y-95321359D01*
X145370000Y-109278641D02*
X145370000Y-108971359D01*
X146130000Y-109278641D02*
X146130000Y-108971359D01*
X129620000Y-106502164D02*
X129620000Y-106717836D01*
X128900000Y-106502164D02*
X128900000Y-106717836D01*
X123930000Y-106210580D02*
X123930000Y-105929420D01*
X124950000Y-106210580D02*
X124950000Y-105929420D01*
X141180000Y-105466359D02*
X141180000Y-105773641D01*
X140420000Y-105466359D02*
X140420000Y-105773641D01*
X111127836Y-53752500D02*
X110912164Y-53752500D01*
X111127836Y-53032500D02*
X110912164Y-53032500D01*
X134040000Y-78770000D02*
X134190000Y-78770000D01*
X134040000Y-78770000D02*
X134040000Y-74370000D01*
X138440000Y-78770000D02*
X138290000Y-78770000D01*
X138440000Y-74370000D02*
X138290000Y-74370000D01*
X134040000Y-74370000D02*
X134190000Y-74370000D01*
X138440000Y-78770000D02*
X138440000Y-74370000D01*
X108730000Y-67046359D02*
X108730000Y-67353641D01*
X107970000Y-67046359D02*
X107970000Y-67353641D01*
X128835000Y-109925000D02*
X128835000Y-110575000D01*
X125715000Y-109925000D02*
X125715000Y-108250000D01*
X128835000Y-109925000D02*
X128835000Y-109275000D01*
X125715000Y-109925000D02*
X125715000Y-110575000D01*
X103145000Y-66971359D02*
X103145000Y-67278641D01*
X103905000Y-66971359D02*
X103905000Y-67278641D01*
X110648641Y-47787500D02*
X110341359Y-47787500D01*
X110648641Y-48547500D02*
X110341359Y-48547500D01*
X113492164Y-90370000D02*
X113707836Y-90370000D01*
X113492164Y-89650000D02*
X113707836Y-89650000D01*
X105450000Y-87525000D02*
X105450000Y-88925000D01*
X107450000Y-88925000D02*
X107450000Y-87525000D01*
X106150000Y-89625000D02*
X106750000Y-89625000D01*
X106750000Y-86825000D02*
X106150000Y-86825000D01*
X106750000Y-89625000D02*
G75*
G03*
X107450000Y-88925000I0J700000D01*
G01*
X106150000Y-86825000D02*
G75*
G03*
X105450000Y-87525000I-1J-699999D01*
G01*
X105450000Y-88925000D02*
G75*
G03*
X106150000Y-89625000I700000J0D01*
G01*
X107450000Y-87525000D02*
G75*
G03*
X106750000Y-86825000I-699999J1D01*
G01*
X113446359Y-89350000D02*
X113753641Y-89350000D01*
X113446359Y-88590000D02*
X113753641Y-88590000D01*
X134235000Y-80901252D02*
X134235000Y-80378748D01*
X135705000Y-80901252D02*
X135705000Y-80378748D01*
X111855000Y-65493641D02*
X111855000Y-65186359D01*
X112615000Y-65493641D02*
X112615000Y-65186359D01*
X110785000Y-74817164D02*
X110785000Y-75032836D01*
X110065000Y-74817164D02*
X110065000Y-75032836D01*
X109630000Y-50680000D02*
X109630000Y-52355000D01*
X109630000Y-50680000D02*
X109630000Y-50030000D01*
X106510000Y-50680000D02*
X106510000Y-50030000D01*
X106510000Y-50680000D02*
X106510000Y-51330000D01*
X157270000Y-101392164D02*
X157270000Y-101607836D01*
X157990000Y-101392164D02*
X157990000Y-101607836D01*
X113743641Y-87550000D02*
X113436359Y-87550000D01*
X113743641Y-88310000D02*
X113436359Y-88310000D01*
X114820000Y-68150000D02*
X114820000Y-67550000D01*
X112020000Y-67550000D02*
X112020000Y-68150000D01*
X114120000Y-66850000D02*
X112720000Y-66850000D01*
X112720000Y-68850000D02*
X114120000Y-68850000D01*
X112720000Y-66850000D02*
G75*
G03*
X112020000Y-67550000I0J-700000D01*
G01*
X114120000Y-68850000D02*
G75*
G03*
X114820000Y-68150000I1J699999D01*
G01*
X114820000Y-67550000D02*
G75*
G03*
X114120000Y-66850000I-699999J1D01*
G01*
X112020000Y-68150000D02*
G75*
G03*
X112720000Y-68850000I700000J0D01*
G01*
X150000000Y-109260000D02*
X151950000Y-109260000D01*
X150000000Y-104140000D02*
X153450000Y-104140000D01*
X150000000Y-109260000D02*
X148050000Y-109260000D01*
X150000000Y-104140000D02*
X148050000Y-104140000D01*
X141905000Y-76830000D02*
X141905000Y-76030000D01*
X138785000Y-76830000D02*
X138785000Y-77630000D01*
X138785000Y-76830000D02*
X138785000Y-75030000D01*
X141905000Y-76830000D02*
X141905000Y-77630000D01*
X141340000Y-72999420D02*
X141340000Y-73280580D01*
X142360000Y-72999420D02*
X142360000Y-73280580D01*
X113130000Y-50792500D02*
X113130000Y-49992500D01*
X113130000Y-50792500D02*
X113130000Y-51592500D01*
X110010000Y-50792500D02*
X110010000Y-51592500D01*
X110010000Y-50792500D02*
X110010000Y-48992500D01*
X112291359Y-48547500D02*
X112598641Y-48547500D01*
X112291359Y-47787500D02*
X112598641Y-47787500D01*
X105025000Y-86725000D02*
X101125000Y-86725000D01*
X105025000Y-86725000D02*
X105025000Y-88725000D01*
X105025000Y-88725000D02*
X101125000Y-88725000D01*
X143275000Y-107935000D02*
X143925000Y-107935000D01*
X143275000Y-107935000D02*
X141600000Y-107935000D01*
X143275000Y-104815000D02*
X143925000Y-104815000D01*
X143275000Y-104815000D02*
X142625000Y-104815000D01*
X106857500Y-85371359D02*
X106857500Y-85678641D01*
X107617500Y-85371359D02*
X107617500Y-85678641D01*
X105832500Y-85678641D02*
X105832500Y-85371359D01*
X106592500Y-85678641D02*
X106592500Y-85371359D01*
X138810000Y-70040000D02*
X140810000Y-70040000D01*
X138810000Y-70040000D02*
X138810000Y-73940000D01*
X140810000Y-70040000D02*
X140810000Y-73940000D01*
X157499420Y-103740000D02*
X157780580Y-103740000D01*
X157499420Y-102720000D02*
X157780580Y-102720000D01*
X141940000Y-80023641D02*
X141940000Y-79716359D01*
X141180000Y-80023641D02*
X141180000Y-79716359D01*
X140420000Y-108986359D02*
X140420000Y-109293641D01*
X141180000Y-108986359D02*
X141180000Y-109293641D01*
X154840000Y-102230580D02*
X154840000Y-101949420D01*
X155860000Y-102230580D02*
X155860000Y-101949420D01*
X107729420Y-53940000D02*
X108010580Y-53940000D01*
X107729420Y-52920000D02*
X108010580Y-52920000D01*
X148870000Y-79732164D02*
X148870000Y-79947836D01*
X149590000Y-79732164D02*
X149590000Y-79947836D01*
X116697500Y-89300000D02*
X115897500Y-89300000D01*
X116697500Y-92420000D02*
X117497500Y-92420000D01*
X116697500Y-89300000D02*
X118497500Y-89300000D01*
X116697500Y-92420000D02*
X115897500Y-92420000D01*
X142890000Y-72989420D02*
X142890000Y-73270580D01*
X143910000Y-72989420D02*
X143910000Y-73270580D01*
X109296359Y-94860000D02*
X109603641Y-94860000D01*
X109296359Y-95620000D02*
X109603641Y-95620000D01*
X119001252Y-92895000D02*
X118478748Y-92895000D01*
X119001252Y-94365000D02*
X118478748Y-94365000D01*
X114388748Y-92885000D02*
X114911252Y-92885000D01*
X114388748Y-94355000D02*
X114911252Y-94355000D01*
X119185000Y-110490580D02*
X119185000Y-110209420D01*
X120205000Y-110490580D02*
X120205000Y-110209420D01*
X104782836Y-77285000D02*
X104567164Y-77285000D01*
X104782836Y-76565000D02*
X104567164Y-76565000D01*
X107775000Y-77260000D02*
X108575000Y-77260000D01*
X107775000Y-74140000D02*
X108575000Y-74140000D01*
X107775000Y-74140000D02*
X106975000Y-74140000D01*
X107775000Y-77260000D02*
X105975000Y-77260000D01*
X146130000Y-107021359D02*
X146130000Y-107328641D01*
X145370000Y-107021359D02*
X145370000Y-107328641D01*
X128630000Y-106512164D02*
X128630000Y-106727836D01*
X127910000Y-106512164D02*
X127910000Y-106727836D01*
X112450000Y-90650000D02*
X108550000Y-90650000D01*
X112450000Y-88650000D02*
X112450000Y-90650000D01*
X112450000Y-88650000D02*
X108550000Y-88650000D01*
X157598748Y-104295000D02*
X158121252Y-104295000D01*
X157598748Y-105765000D02*
X158121252Y-105765000D01*
X106980000Y-95653641D02*
X106980000Y-95346359D01*
X106220000Y-95653641D02*
X106220000Y-95346359D01*
X109296359Y-94570000D02*
X109603641Y-94570000D01*
X109296359Y-93810000D02*
X109603641Y-93810000D01*
X104765000Y-94784420D02*
X104765000Y-95065580D01*
X105785000Y-94784420D02*
X105785000Y-95065580D01*
X126480000Y-106210580D02*
X126480000Y-105929420D01*
X127500000Y-106210580D02*
X127500000Y-105929420D01*
X112640000Y-61711359D02*
X112640000Y-62018641D01*
X111880000Y-61711359D02*
X111880000Y-62018641D01*
X106477500Y-83165580D02*
X106477500Y-82884420D01*
X107497500Y-83165580D02*
X107497500Y-82884420D01*
X118991252Y-94955000D02*
X118468748Y-94955000D01*
X118991252Y-96425000D02*
X118468748Y-96425000D01*
X130270000Y-109369420D02*
X130270000Y-109650580D01*
X129250000Y-109369420D02*
X129250000Y-109650580D01*
X114552064Y-86385000D02*
X114097936Y-86385000D01*
X114552064Y-84915000D02*
X114097936Y-84915000D01*
X120635000Y-109925000D02*
X120635000Y-110575000D01*
X123755000Y-109925000D02*
X123755000Y-109275000D01*
X123755000Y-109925000D02*
X123755000Y-110575000D01*
X120635000Y-109925000D02*
X120635000Y-108250000D01*
X126070000Y-106492164D02*
X126070000Y-106707836D01*
X125350000Y-106492164D02*
X125350000Y-106707836D01*
X143275000Y-108340000D02*
X142625000Y-108340000D01*
X143275000Y-108340000D02*
X143925000Y-108340000D01*
X143275000Y-111460000D02*
X141600000Y-111460000D01*
X143275000Y-111460000D02*
X143925000Y-111460000D01*
X104665000Y-98575000D02*
X104665000Y-99375000D01*
X107785000Y-98575000D02*
X107785000Y-100375000D01*
X107785000Y-98575000D02*
X107785000Y-97775000D01*
X104665000Y-98575000D02*
X104665000Y-97775000D01*
X114735000Y-59530000D02*
X114085000Y-59530000D01*
X114735000Y-62650000D02*
X113060000Y-62650000D01*
X114735000Y-62650000D02*
X115385000Y-62650000D01*
X114735000Y-59530000D02*
X115385000Y-59530000D01*
X138740000Y-79957836D02*
X138740000Y-79742164D01*
X139460000Y-79957836D02*
X139460000Y-79742164D01*
X112116359Y-98570000D02*
X112423641Y-98570000D01*
X112116359Y-99330000D02*
X112423641Y-99330000D01*
X109712500Y-88260000D02*
X110362500Y-88260000D01*
X109712500Y-85140000D02*
X109062500Y-85140000D01*
X109712500Y-85140000D02*
X110362500Y-85140000D01*
X109712500Y-88260000D02*
X108037500Y-88260000D01*
%LPC*%
D13*
X100000000Y-110000000D03*
D14*
X100000000Y-110000000D03*
X100000000Y-50000000D03*
D13*
X100000000Y-50000000D03*
D15*
X119000000Y-67000000D03*
X141000000Y-67000000D03*
D16*
X121400000Y-52500000D03*
X128600000Y-52500000D03*
X127250000Y-50000000D03*
X122750000Y-50000000D03*
D17*
X109450000Y-97000000D03*
D18*
X109450000Y-99000000D03*
D19*
X109925000Y-67475000D03*
X107385000Y-70015000D03*
X109925000Y-72555000D03*
D16*
X139600000Y-52500000D03*
X132400000Y-52500000D03*
X138250000Y-50000000D03*
X133750000Y-50000000D03*
D20*
X116500000Y-74625000D03*
X116500000Y-73375000D03*
D21*
X96450000Y-81250000D03*
D22*
X99150000Y-87250000D03*
X99150000Y-82250000D03*
D21*
X96450000Y-88250000D03*
D19*
X101925000Y-67475000D03*
X99385000Y-70015000D03*
X101925000Y-72555000D03*
D14*
X160000000Y-50000000D03*
D13*
X160000000Y-50000000D03*
D23*
X151725000Y-55575000D03*
D24*
X154265000Y-55575000D03*
X151725000Y-58115000D03*
X154265000Y-58115000D03*
X151725000Y-60655000D03*
X154265000Y-60655000D03*
X151725000Y-63195000D03*
X154265000Y-63195000D03*
X151725000Y-65735000D03*
X154265000Y-65735000D03*
X151725000Y-68275000D03*
X154265000Y-68275000D03*
X151725000Y-70815000D03*
X154265000Y-70815000D03*
X151725000Y-73355000D03*
X154265000Y-73355000D03*
X151725000Y-75895000D03*
X154265000Y-75895000D03*
X151725000Y-78435000D03*
X154265000Y-78435000D03*
D14*
X160000000Y-110000000D03*
D13*
X160000000Y-110000000D03*
D25*
X106123152Y-61691848D03*
D26*
X107700000Y-60115000D03*
X107700000Y-57885000D03*
X103876848Y-56308152D03*
X102300000Y-57885000D03*
X102300000Y-60115000D03*
D27*
X110810000Y-106016000D03*
X110810000Y-103984000D03*
X103190000Y-105000000D03*
D28*
X113772500Y-65540000D03*
X113772500Y-63640000D03*
X115647500Y-64590000D03*
D29*
X103450000Y-99850000D03*
X103450000Y-97950000D03*
D30*
X120230000Y-90360000D03*
X123230000Y-90360000D03*
D31*
X136790000Y-81185000D03*
X136790000Y-79635000D03*
D32*
X145750000Y-105730000D03*
X145750000Y-104770000D03*
D33*
X118275000Y-88635000D03*
X118275000Y-87615000D03*
D34*
X112790000Y-99970000D03*
X111770000Y-99970000D03*
D35*
X156980000Y-99480000D03*
X155710000Y-99480000D03*
X154440000Y-99480000D03*
X153170000Y-99480000D03*
X151900000Y-99480000D03*
X150630000Y-99480000D03*
X149360000Y-99480000D03*
X148090000Y-99480000D03*
X146820000Y-99480000D03*
X145550000Y-99480000D03*
X144280000Y-99480000D03*
X143010000Y-99480000D03*
X141740000Y-99480000D03*
X140470000Y-99480000D03*
D36*
X139220000Y-97715000D03*
X139220000Y-96445000D03*
X139220000Y-95175000D03*
X139220000Y-93905000D03*
X139220000Y-92635000D03*
X139220000Y-91365000D03*
X139220000Y-90095000D03*
X139220000Y-88825000D03*
X139220000Y-87555000D03*
X139220000Y-86285000D03*
X139220000Y-85015000D03*
X139220000Y-83745000D03*
D35*
X140470000Y-81980000D03*
X141740000Y-81980000D03*
X143010000Y-81980000D03*
X144280000Y-81980000D03*
X145550000Y-81980000D03*
X146820000Y-81980000D03*
X148090000Y-81980000D03*
X149360000Y-81980000D03*
X150630000Y-81980000D03*
X151900000Y-81980000D03*
X153170000Y-81980000D03*
X154440000Y-81980000D03*
X155710000Y-81980000D03*
X156980000Y-81980000D03*
D37*
X149960000Y-92230000D03*
D38*
X149260000Y-92230000D03*
D37*
X149960000Y-93630000D03*
X149260000Y-92930000D03*
X149960000Y-90830000D03*
X147860000Y-92930000D03*
X150660000Y-92930000D03*
X147860000Y-91530000D03*
X149260000Y-91530000D03*
X148560000Y-90830000D03*
X148560000Y-92230000D03*
X150660000Y-91530000D03*
X148560000Y-93630000D03*
D39*
X105155000Y-75875000D03*
X104195000Y-75875000D03*
D40*
X154925000Y-107275000D03*
X154925000Y-104775000D03*
D41*
X113250000Y-75100000D03*
X111700000Y-75100000D03*
D42*
X141580000Y-70130000D03*
X141580000Y-71090000D03*
D43*
X104425000Y-90125000D03*
X101125000Y-90125000D03*
D44*
X104190000Y-74825000D03*
X105210000Y-74825000D03*
D41*
X108645000Y-47955000D03*
X107095000Y-47955000D03*
D45*
X112600000Y-76900000D03*
X110700000Y-76900000D03*
D42*
X156620000Y-101030000D03*
X156620000Y-101990000D03*
D31*
X124750000Y-111150000D03*
X124750000Y-109600000D03*
D28*
X108775000Y-84175000D03*
X108775000Y-82275000D03*
X110650000Y-83225000D03*
D32*
X105720000Y-55060000D03*
X105720000Y-54100000D03*
D33*
X107550000Y-95985000D03*
X107550000Y-94965000D03*
X145750000Y-109635000D03*
X145750000Y-108615000D03*
D42*
X129260000Y-106130000D03*
X129260000Y-107090000D03*
D31*
X124440000Y-106845000D03*
X124440000Y-105295000D03*
D46*
X140800000Y-105110000D03*
X140800000Y-106130000D03*
D39*
X111500000Y-53392500D03*
X110540000Y-53392500D03*
D47*
X136240000Y-78070000D03*
X136240000Y-75070000D03*
D46*
X108350000Y-66690000D03*
X108350000Y-67710000D03*
D48*
X126325000Y-108987500D03*
X128225000Y-108987500D03*
X127275000Y-110862500D03*
D46*
X103525000Y-66615000D03*
X103525000Y-67635000D03*
D34*
X111005000Y-48167500D03*
X109985000Y-48167500D03*
D49*
X113120000Y-90010000D03*
X114080000Y-90010000D03*
D50*
X106450000Y-87575000D03*
D51*
X106450000Y-88875000D03*
D44*
X113090000Y-88970000D03*
X114110000Y-88970000D03*
D29*
X134970000Y-81590000D03*
X134970000Y-79690000D03*
D33*
X112235000Y-65850000D03*
X112235000Y-64830000D03*
D42*
X110425000Y-74445000D03*
X110425000Y-75405000D03*
D52*
X109020000Y-51617500D03*
X107120000Y-51617500D03*
X108070000Y-49742500D03*
D42*
X157630000Y-101020000D03*
X157630000Y-101980000D03*
D34*
X114100000Y-87930000D03*
X113080000Y-87930000D03*
D53*
X114070000Y-67850000D03*
D54*
X112770000Y-67850000D03*
D55*
X152475000Y-104795000D03*
X152475000Y-106065000D03*
X152475000Y-107335000D03*
X152475000Y-108605000D03*
X147525000Y-108605000D03*
X147525000Y-107335000D03*
X147525000Y-106065000D03*
X147525000Y-104795000D03*
D56*
X139395000Y-75692500D03*
X140345000Y-75692500D03*
X141295000Y-75692500D03*
X141295000Y-77967500D03*
X140345000Y-77967500D03*
X139395000Y-77967500D03*
D57*
X141850000Y-72365000D03*
X141850000Y-73915000D03*
D56*
X110620000Y-49655000D03*
X111570000Y-49655000D03*
X112520000Y-49655000D03*
X112520000Y-51930000D03*
X111570000Y-51930000D03*
X110620000Y-51930000D03*
D44*
X111935000Y-48167500D03*
X112955000Y-48167500D03*
D43*
X104425000Y-87725000D03*
X101125000Y-87725000D03*
D28*
X142337500Y-107325000D03*
X142337500Y-105425000D03*
X144212500Y-106375000D03*
D46*
X107237500Y-85015000D03*
X107237500Y-86035000D03*
D33*
X106212500Y-86035000D03*
X106212500Y-85015000D03*
D58*
X139810000Y-70640000D03*
X139810000Y-73940000D03*
D59*
X156865000Y-103230000D03*
X158415000Y-103230000D03*
D33*
X141560000Y-80380000D03*
X141560000Y-79360000D03*
D46*
X140800000Y-108630000D03*
X140800000Y-109650000D03*
D31*
X155350000Y-102865000D03*
X155350000Y-101315000D03*
D59*
X107095000Y-53430000D03*
X108645000Y-53430000D03*
D42*
X149230000Y-79360000D03*
X149230000Y-80320000D03*
D60*
X117835000Y-89910000D03*
X117835000Y-90860000D03*
X117835000Y-91810000D03*
X115560000Y-91810000D03*
X115560000Y-89910000D03*
D57*
X143400000Y-72355000D03*
X143400000Y-73905000D03*
D44*
X108940000Y-95240000D03*
X109960000Y-95240000D03*
D45*
X119690000Y-93630000D03*
X117790000Y-93630000D03*
D61*
X113700000Y-93620000D03*
X115600000Y-93620000D03*
D31*
X119695000Y-111125000D03*
X119695000Y-109575000D03*
D39*
X105155000Y-76925000D03*
X104195000Y-76925000D03*
D62*
X106637500Y-76650000D03*
X106637500Y-75700000D03*
X106637500Y-74750000D03*
X108912500Y-74750000D03*
X108912500Y-75700000D03*
X108912500Y-76650000D03*
D46*
X145750000Y-106665000D03*
X145750000Y-107685000D03*
D42*
X128270000Y-106140000D03*
X128270000Y-107100000D03*
D43*
X111850000Y-89650000D03*
X108550000Y-89650000D03*
D61*
X156910000Y-105030000D03*
X158810000Y-105030000D03*
D33*
X106600000Y-96010000D03*
X106600000Y-94990000D03*
D44*
X108940000Y-94190000D03*
X109960000Y-94190000D03*
D57*
X105275000Y-94150000D03*
X105275000Y-95700000D03*
D31*
X126990000Y-106845000D03*
X126990000Y-105295000D03*
D46*
X112260000Y-61355000D03*
X112260000Y-62375000D03*
D31*
X106987500Y-83800000D03*
X106987500Y-82250000D03*
D45*
X119680000Y-95690000D03*
X117780000Y-95690000D03*
D57*
X129760000Y-108735000D03*
X129760000Y-110285000D03*
D63*
X115237500Y-85650000D03*
X113412500Y-85650000D03*
D48*
X121245000Y-108987500D03*
X123145000Y-108987500D03*
X122195000Y-110862500D03*
D42*
X125710000Y-106120000D03*
X125710000Y-107080000D03*
D28*
X142337500Y-110850000D03*
X142337500Y-108950000D03*
X144212500Y-109900000D03*
D64*
X107175000Y-99712500D03*
X106225000Y-99712500D03*
X105275000Y-99712500D03*
X105275000Y-97437500D03*
X106225000Y-97437500D03*
X107175000Y-97437500D03*
D28*
X113797500Y-62040000D03*
X113797500Y-60140000D03*
X115672500Y-61090000D03*
D32*
X139100000Y-80330000D03*
X139100000Y-79370000D03*
D44*
X111760000Y-98950000D03*
X112780000Y-98950000D03*
D28*
X108775000Y-87650000D03*
X108775000Y-85750000D03*
X110650000Y-86700000D03*
M02*
