M48
; DRILL file {KiCad (6.0.10)} date Fri 06 Jan 2023 04:36:39 PM PST
; FORMAT={-:-/ absolute / metric / decimal}
; #@! TF.CreationDate,2023-01-06T16:36:39-08:00
; #@! TF.GenerationSoftware,Kicad,Pcbnew,(6.0.10)
; #@! TF.FileFunction,Plated,1,4,PTH
FMAT,2
METRIC
; #@! TA.AperFunction,Plated,PTH,ViaDrill
T1C0.300
; #@! TA.AperFunction,Plated,PTH,ComponentDrill
T2C0.300
; #@! TA.AperFunction,Plated,PTH,ComponentDrill
T3C0.500
; #@! TA.AperFunction,Plated,PTH,ComponentDrill
T4C0.550
; #@! TA.AperFunction,Plated,PTH,ComponentDrill
T5C0.750
; #@! TA.AperFunction,Plated,PTH,ComponentDrill
T6C0.762
; #@! TA.AperFunction,Plated,PTH,ComponentDrill
T7C0.800
; #@! TA.AperFunction,Plated,PTH,ComponentDrill
T8C1.000
; #@! TA.AperFunction,Plated,PTH,ComponentDrill
T9C1.100
; #@! TA.AperFunction,Plated,PTH,ComponentDrill
T10C3.200
%
G90
G05
T1
X96.0Y-50.0
X96.0Y-53.0
X96.0Y-56.0
X96.0Y-59.0
X96.0Y-62.0
X96.0Y-65.0
X96.0Y-68.0
X96.0Y-71.0
X96.0Y-74.0
X96.0Y-77.0
X96.0Y-107.0
X96.0Y-110.0
X97.0Y-90.0
X97.5Y-47.5
X97.5Y-113.0
X98.0Y-105.0
X100.0Y-46.0
X100.0Y-92.0
X100.3Y-86.12
X101.0Y-95.0
X101.0Y-98.0
X101.0Y-101.0
X101.0Y-114.0
X101.5Y-78.5
X101.78Y-90.15
X102.11Y-86.6
X102.5Y-78.5
X102.5Y-79.5
X102.98Y-70.52
X103.0Y-46.0
X103.68Y-74.09
X103.69Y-76.35
X103.71Y-75.54
X103.73Y-74.82
X103.78Y-96.84
X104.0Y-114.0
X104.57Y-93.48
X104.89Y-54.12
X105.152Y-52.102
X105.665Y-51.59
X105.792Y-73.853
X105.92Y-75.72
X105.93Y-100.92
X106.0Y-46.0
X106.0Y-108.5
X106.0Y-109.5
X106.169Y-96.837
X106.9Y-79.88
X107.0Y-103.5
X107.0Y-106.5
X107.0Y-114.0
X107.121Y-100.302
X107.28Y-94.25
X107.5Y-86.6
X107.697Y-93.214
X108.5Y-103.5
X108.5Y-106.5
X108.5Y-109.5
X108.5Y-110.5
X108.69Y-54.1
X108.85Y-48.55
X109.0Y-46.0
X109.5Y-107.0
X109.83Y-80.54
X109.85Y-51.19
X110.0Y-114.0
X110.45Y-112.3
X110.51Y-73.88
X110.625Y-93.85
X110.65Y-95.425
X110.71Y-53.98
X110.91Y-100.1
X111.2Y-111.65
X111.407Y-48.167
X111.5Y-55.3
X112.0Y-46.0
X112.19Y-66.27
X112.2Y-111.65
X112.25Y-60.89
X112.95Y-112.3
X113.0Y-90.5
X113.0Y-114.0
X113.02Y-100.64
X113.5Y-92.0
X113.52Y-77.27
X113.64Y-59.46
X114.09Y-75.1
X114.79Y-63.62
X115.0Y-46.0
X115.0Y-95.5
X115.0Y-96.25
X115.26Y-84.12
X115.404Y-111.904
X115.429Y-79.676
X115.5Y-111.0
X115.547Y-88.333
X115.75Y-95.5
X115.75Y-96.25
X116.0Y-114.0
X116.25Y-86.19
X116.337Y-80.682
X116.5Y-88.5
X117.0Y-78.0
X117.0Y-79.0
X117.0Y-81.5
X117.037Y-80.49
X117.091Y-49.166
X117.14Y-64.773
X117.29Y-88.34
X118.0Y-46.0
X118.0Y-79.02
X118.0Y-80.5
X118.0Y-83.0
X118.0Y-83.772
X118.04Y-51.53
X118.05Y-52.26
X118.5Y-59.975
X119.0Y-114.0
X119.175Y-89.95
X119.224Y-50.125
X119.5Y-87.5
X119.69Y-108.7
X120.5Y-87.5
X120.53Y-94.72
X121.0Y-46.0
X121.0Y-95.5
X121.16Y-107.9
X121.4Y-97.4
X121.44Y-96.33
X122.0Y-114.0
X122.2Y-98.0
X122.35Y-71.75
X122.36Y-70.84
X123.0Y-95.0
X123.0Y-96.0
X123.12Y-107.84
X124.0Y-46.0
X124.18Y-84.865
X124.18Y-85.715
X124.25Y-84.0
X124.25Y-86.5
X124.44Y-104.38
X124.49Y-107.94
X124.58Y-103.15
X124.76Y-108.84
X125.0Y-114.0
X125.09Y-73.34
X125.2Y-94.0
X125.74Y-105.385
X125.75Y-107.744
X125.9Y-73.27
X125.95Y-109.02
X126.0Y-80.5
X126.0Y-83.5
X126.0Y-86.5
X126.0Y-89.5
X126.0Y-92.5
X126.0Y-95.5
X126.0Y-98.5
X126.28Y-103.39
X126.99Y-104.43
X127.0Y-46.0
X127.15Y-109.09
X127.84Y-103.46
X128.0Y-114.0
X128.34Y-105.433
X128.67Y-110.707
X129.23Y-105.31
X129.26Y-107.99
X129.5Y-104.5
X130.0Y-46.0
X130.25Y-105.5
X130.75Y-103.75
X130.86Y-108.21
X131.0Y-114.0
X131.28Y-75.57
X131.29Y-74.6
X131.75Y-104.25
X131.75Y-105.5
X133.0Y-46.0
X133.18Y-57.38
X133.25Y-103.5
X133.25Y-104.273
X133.25Y-105.5
X133.26Y-108.2
X133.95Y-57.45
X133.998Y-83.502
X134.0Y-86.5
X134.0Y-89.5
X134.0Y-92.5
X134.0Y-95.5
X134.0Y-98.5
X134.0Y-114.0
X134.14Y-108.2
X134.43Y-99.33
X134.6Y-94.4
X134.66Y-82.3
X134.72Y-57.36
X134.73Y-58.09
X134.8Y-97.4
X135.25Y-108.2
X135.28Y-83.28
X135.509Y-104.509
X135.55Y-100.08
X136.0Y-46.0
X136.0Y-108.2
X136.25Y-104.5
X136.5Y-106.25
X136.5Y-107.0
X136.553Y-82.1
X137.0Y-114.0
X137.04Y-88.86
X137.43Y-90.17
X137.65Y-94.25
X137.92Y-97.07
X137.957Y-82.179
X139.0Y-46.0
X139.48Y-71.64
X139.74Y-80.36
X140.0Y-114.0
X140.33Y-74.817
X140.35Y-79.09
X140.434Y-71.986
X140.5Y-82.0
X140.55Y-85.09
X140.58Y-86.8
X140.95Y-80.36
X141.19Y-83.763
X141.23Y-92.113
X141.54Y-77.64
X141.7Y-96.84
X141.76Y-97.64
X141.82Y-89.99
X141.99Y-104.36
X142.0Y-46.0
X142.14Y-70.13
X142.168Y-91.98
X142.32Y-109.99
X143.0Y-114.0
X143.344Y-89.185
X143.349Y-96.744
X143.37Y-97.47
X143.4Y-71.66
X143.45Y-94.93
X144.07Y-89.16
X144.175Y-110.525
X144.3Y-95.59
X144.325Y-108.825
X144.83Y-94.33
X144.969Y-93.351
X144.97Y-104.36
X145.0Y-46.0
X145.096Y-58.54
X145.302Y-66.23
X145.302Y-67.1
X145.525Y-95.25
X145.61Y-56.11
X145.75Y-88.45
X146.0Y-114.0
X146.35Y-89.325
X146.5Y-111.485
X146.85Y-107.325
X147.075Y-109.65
X147.4Y-52.01
X147.46Y-80.45
X147.5Y-111.485
X147.775Y-109.35
X148.0Y-46.0
X148.24Y-79.76
X148.53Y-52.27
X148.853Y-78.464
X149.0Y-114.0
X149.2Y-48.59
X149.54Y-50.17
X149.86Y-48.6
X150.05Y-52.37
X150.31Y-50.34
X150.575Y-107.825
X150.6Y-106.8
X151.0Y-46.0
X151.27Y-52.37
X151.858Y-83.5
X151.86Y-85.26
X152.0Y-111.62
X152.0Y-114.0
X152.585Y-83.5
X152.93Y-111.68
X153.446Y-84.395
X153.874Y-85.185
X154.0Y-46.0
X154.35Y-108.791
X154.48Y-99.41
X154.598Y-85.846
X154.775Y-84.45
X155.0Y-114.0
X155.37Y-103.42
X155.5Y-97.0
X155.61Y-80.65
X156.048Y-100.617
X156.22Y-102.33
X156.45Y-80.65
X156.5Y-83.69
X156.53Y-98.24
X156.71Y-79.89
X156.98Y-97.62
X157.0Y-46.0
X157.1Y-106.15
X157.45Y-98.23
X158.0Y-114.0
X158.08Y-102.45
X158.1Y-62.4
X158.14Y-55.97
X159.04Y-70.25
X159.17Y-103.27
X159.487Y-105.007
X159.63Y-78.2
X160.0Y-46.0
X160.5Y-56.0
X160.5Y-57.0
X160.5Y-63.5
X160.5Y-64.5
X161.0Y-114.0
X162.5Y-47.5
X163.0Y-112.0
X164.0Y-50.0
X164.0Y-53.0
X164.0Y-56.0
X164.0Y-59.0
X164.0Y-62.0
X164.0Y-65.0
X164.0Y-68.0
X164.0Y-71.0
X164.0Y-74.0
X164.0Y-77.0
X164.0Y-80.0
X164.0Y-101.0
X164.0Y-104.0
X164.0Y-107.0
X164.0Y-110.0
T2
X147.86Y-91.53
X147.86Y-92.93
X148.56Y-90.83
X148.56Y-92.23
X148.56Y-93.63
X149.26Y-91.53
X149.26Y-92.93
X149.96Y-90.83
X149.96Y-92.23
X149.96Y-93.63
X150.66Y-91.53
X150.66Y-92.93
T3
X116.5Y-73.375
X116.5Y-74.625
T5
X109.45Y-97.0
X109.45Y-99.0
T6
X102.3Y-57.885
X102.3Y-60.115
X103.877Y-56.308
X106.123Y-61.692
X107.7Y-57.885
X107.7Y-60.115
T7
X99.385Y-70.015
X101.925Y-67.475
X101.925Y-72.555
X107.385Y-70.015
X109.925Y-67.475
X109.925Y-72.555
T8
X151.725Y-55.575
X151.725Y-58.115
X151.725Y-60.655
X151.725Y-63.195
X151.725Y-65.735
X151.725Y-68.275
X151.725Y-70.815
X151.725Y-73.355
X151.725Y-75.895
X151.725Y-78.435
X154.265Y-55.575
X154.265Y-58.115
X154.265Y-60.655
X154.265Y-63.195
X154.265Y-65.735
X154.265Y-68.275
X154.265Y-70.815
X154.265Y-73.355
X154.265Y-75.895
X154.265Y-78.435
T9
X122.75Y-50.0
X127.25Y-50.0
X133.75Y-50.0
X138.25Y-50.0
T10
X100.0Y-50.0
X100.0Y-110.0
X160.0Y-50.0
X160.0Y-110.0
T3
X96.775Y-81.25G85X96.125Y-81.25
G05
X96.775Y-88.25G85X96.125Y-88.25
G05
T4
X99.15Y-82.1G85X99.15Y-82.4
G05
X99.15Y-87.1G85X99.15Y-87.4
G05
T0
M30
