G04 #@! TF.GenerationSoftware,KiCad,Pcbnew,(6.0.10)*
G04 #@! TF.CreationDate,2023-01-06T16:36:23-08:00*
G04 #@! TF.ProjectId,ai-camera,61692d63-616d-4657-9261-2e6b69636164,rev?*
G04 #@! TF.SameCoordinates,Original*
G04 #@! TF.FileFunction,Copper,L1,Top*
G04 #@! TF.FilePolarity,Positive*
%FSLAX46Y46*%
G04 Gerber Fmt 4.6, Leading zero omitted, Abs format (unit mm)*
G04 Created by KiCad (PCBNEW (6.0.10)) date 2023-01-06 16:36:23*
%MOMM*%
%LPD*%
G01*
G04 APERTURE LIST*
G04 Aperture macros list*
%AMRoundRect*
0 Rectangle with rounded corners*
0 $1 Rounding radius*
0 $2 $3 $4 $5 $6 $7 $8 $9 X,Y pos of 4 corners*
0 Add a 4 corners polygon primitive as box body*
4,1,4,$2,$3,$4,$5,$6,$7,$8,$9,$2,$3,0*
0 Add four circle primitives for the rounded corners*
1,1,$1+$1,$2,$3*
1,1,$1+$1,$4,$5*
1,1,$1+$1,$6,$7*
1,1,$1+$1,$8,$9*
0 Add four rect primitives between the rounded corners*
20,1,$1+$1,$2,$3,$4,$5,0*
20,1,$1+$1,$4,$5,$6,$7,0*
20,1,$1+$1,$6,$7,$8,$9,0*
20,1,$1+$1,$8,$9,$2,$3,0*%
G04 Aperture macros list end*
G04 #@! TA.AperFunction,ConnectorPad*
%ADD10C,5.600000*%
G04 #@! TD*
G04 #@! TA.AperFunction,ComponentPad*
%ADD11C,3.600000*%
G04 #@! TD*
G04 #@! TA.AperFunction,SMDPad,CuDef*
%ADD12C,1.500000*%
G04 #@! TD*
G04 #@! TA.AperFunction,WasherPad*
%ADD13C,4.000000*%
G04 #@! TD*
G04 #@! TA.AperFunction,SMDPad,CuDef*
%ADD14RoundRect,0.135000X-0.185000X0.135000X-0.185000X-0.135000X0.185000X-0.135000X0.185000X0.135000X0*%
G04 #@! TD*
G04 #@! TA.AperFunction,SMDPad,CuDef*
%ADD15R,1.000000X1.700000*%
G04 #@! TD*
G04 #@! TA.AperFunction,SMDPad,CuDef*
%ADD16RoundRect,0.250000X0.450000X-0.325000X0.450000X0.325000X-0.450000X0.325000X-0.450000X-0.325000X0*%
G04 #@! TD*
G04 #@! TA.AperFunction,SMDPad,CuDef*
%ADD17RoundRect,0.140000X0.140000X0.170000X-0.140000X0.170000X-0.140000X-0.170000X0.140000X-0.170000X0*%
G04 #@! TD*
G04 #@! TA.AperFunction,SMDPad,CuDef*
%ADD18RoundRect,0.218750X0.218750X0.256250X-0.218750X0.256250X-0.218750X-0.256250X0.218750X-0.256250X0*%
G04 #@! TD*
G04 #@! TA.AperFunction,SMDPad,CuDef*
%ADD19RoundRect,0.135000X-0.135000X-0.185000X0.135000X-0.185000X0.135000X0.185000X-0.135000X0.185000X0*%
G04 #@! TD*
G04 #@! TA.AperFunction,SMDPad,CuDef*
%ADD20RoundRect,0.218750X-0.218750X-0.256250X0.218750X-0.256250X0.218750X0.256250X-0.218750X0.256250X0*%
G04 #@! TD*
G04 #@! TA.AperFunction,WasherPad*
%ADD21C,1.700000*%
G04 #@! TD*
G04 #@! TA.AperFunction,ComponentPad*
%ADD22C,1.700000*%
G04 #@! TD*
G04 #@! TA.AperFunction,ComponentPad*
%ADD23RoundRect,0.250000X-0.625000X0.350000X-0.625000X-0.350000X0.625000X-0.350000X0.625000X0.350000X0*%
G04 #@! TD*
G04 #@! TA.AperFunction,ComponentPad*
%ADD24O,1.750000X1.200000*%
G04 #@! TD*
G04 #@! TA.AperFunction,SMDPad,CuDef*
%ADD25RoundRect,0.140000X-0.140000X-0.170000X0.140000X-0.170000X0.140000X0.170000X-0.140000X0.170000X0*%
G04 #@! TD*
G04 #@! TA.AperFunction,SMDPad,CuDef*
%ADD26RoundRect,0.075000X0.512500X0.075000X-0.512500X0.075000X-0.512500X-0.075000X0.512500X-0.075000X0*%
G04 #@! TD*
G04 #@! TA.AperFunction,SMDPad,CuDef*
%ADD27RoundRect,0.150000X0.150000X-0.512500X0.150000X0.512500X-0.150000X0.512500X-0.150000X-0.512500X0*%
G04 #@! TD*
G04 #@! TA.AperFunction,SMDPad,CuDef*
%ADD28RoundRect,0.140000X-0.170000X0.140000X-0.170000X-0.140000X0.170000X-0.140000X0.170000X0.140000X0*%
G04 #@! TD*
G04 #@! TA.AperFunction,ComponentPad*
%ADD29C,1.440000*%
G04 #@! TD*
G04 #@! TA.AperFunction,SMDPad,CuDef*
%ADD30R,0.300000X1.300000*%
G04 #@! TD*
G04 #@! TA.AperFunction,SMDPad,CuDef*
%ADD31R,1.800000X2.200000*%
G04 #@! TD*
G04 #@! TA.AperFunction,SMDPad,CuDef*
%ADD32RoundRect,0.135000X0.185000X-0.135000X0.185000X0.135000X-0.185000X0.135000X-0.185000X-0.135000X0*%
G04 #@! TD*
G04 #@! TA.AperFunction,ComponentPad*
%ADD33C,0.800000*%
G04 #@! TD*
G04 #@! TA.AperFunction,SMDPad,CuDef*
%ADD34R,1.350000X0.400000*%
G04 #@! TD*
G04 #@! TA.AperFunction,SMDPad,CuDef*
%ADD35R,1.550000X1.500000*%
G04 #@! TD*
G04 #@! TA.AperFunction,SMDPad,CuDef*
%ADD36R,1.550000X1.200000*%
G04 #@! TD*
G04 #@! TA.AperFunction,ComponentPad*
%ADD37O,1.550000X0.890000*%
G04 #@! TD*
G04 #@! TA.AperFunction,ComponentPad*
%ADD38O,0.950000X1.250000*%
G04 #@! TD*
G04 #@! TA.AperFunction,ComponentPad*
%ADD39R,1.700000X1.700000*%
G04 #@! TD*
G04 #@! TA.AperFunction,ComponentPad*
%ADD40O,1.700000X1.700000*%
G04 #@! TD*
G04 #@! TA.AperFunction,SMDPad,CuDef*
%ADD41RoundRect,0.135000X0.135000X0.185000X-0.135000X0.185000X-0.135000X-0.185000X0.135000X-0.185000X0*%
G04 #@! TD*
G04 #@! TA.AperFunction,SMDPad,CuDef*
%ADD42RoundRect,0.150000X0.587500X0.150000X-0.587500X0.150000X-0.587500X-0.150000X0.587500X-0.150000X0*%
G04 #@! TD*
G04 #@! TA.AperFunction,ComponentPad*
%ADD43R,1.524000X1.524000*%
G04 #@! TD*
G04 #@! TA.AperFunction,ComponentPad*
%ADD44C,1.524000*%
G04 #@! TD*
G04 #@! TA.AperFunction,ConnectorPad*
%ADD45C,0.787400*%
G04 #@! TD*
G04 #@! TA.AperFunction,ComponentPad*
%ADD46C,0.600000*%
G04 #@! TD*
G04 #@! TA.AperFunction,ViaPad*
%ADD47C,0.600000*%
G04 #@! TD*
G04 #@! TA.AperFunction,Conductor*
%ADD48C,0.127000*%
G04 #@! TD*
G04 #@! TA.AperFunction,Conductor*
%ADD49C,0.500000*%
G04 #@! TD*
G04 #@! TA.AperFunction,Conductor*
%ADD50C,0.250000*%
G04 #@! TD*
G04 #@! TA.AperFunction,Conductor*
%ADD51C,0.203200*%
G04 #@! TD*
G04 #@! TA.AperFunction,Conductor*
%ADD52C,0.200000*%
G04 #@! TD*
G04 APERTURE END LIST*
D10*
X100000000Y-110000000D03*
D11*
X100000000Y-110000000D03*
D10*
X100000000Y-50000000D03*
D11*
X100000000Y-50000000D03*
D12*
X142750000Y-79775000D03*
D13*
X119000000Y-67000000D03*
X141000000Y-67000000D03*
D12*
X146736000Y-60668000D03*
D14*
X120675000Y-92865000D03*
X120675000Y-93885000D03*
D15*
X158100000Y-70150000D03*
X158100000Y-63850000D03*
X161900000Y-63850000D03*
X161900000Y-70150000D03*
D16*
X101350000Y-81475000D03*
X101350000Y-79425000D03*
D17*
X132430000Y-108525000D03*
X131470000Y-108525000D03*
D18*
X140787500Y-90000000D03*
X139212500Y-90000000D03*
D19*
X141570000Y-82100000D03*
X142590000Y-82100000D03*
D20*
X103437500Y-92250000D03*
X105012500Y-92250000D03*
D12*
X107230000Y-88670000D03*
X117350000Y-56950000D03*
D20*
X111712500Y-82500000D03*
X113287500Y-82500000D03*
D12*
X147100000Y-74250000D03*
X115670000Y-100980000D03*
X142825000Y-76225000D03*
X106200000Y-111290000D03*
X105250000Y-79840000D03*
D21*
X121400000Y-52500000D03*
X128600000Y-52500000D03*
D22*
X127250000Y-50000000D03*
X122750000Y-50000000D03*
D12*
X109025000Y-111275000D03*
D20*
X146712500Y-82500000D03*
X148287500Y-82500000D03*
D12*
X146975000Y-78550000D03*
D23*
X109450000Y-97000000D03*
D24*
X109450000Y-99000000D03*
D25*
X138330000Y-82100000D03*
X139290000Y-82100000D03*
D20*
X114212500Y-47500000D03*
X115787500Y-47500000D03*
D26*
X146967500Y-58500000D03*
X146967500Y-57850000D03*
X146967500Y-57200000D03*
X145392500Y-57200000D03*
X145392500Y-57850000D03*
X145392500Y-58500000D03*
D18*
X115787500Y-85000000D03*
X114212500Y-85000000D03*
D20*
X106487500Y-92250000D03*
X108062500Y-92250000D03*
D12*
X116500000Y-106350000D03*
D17*
X147360000Y-56050000D03*
X146400000Y-56050000D03*
D27*
X101150000Y-85587500D03*
X102100000Y-85587500D03*
X103050000Y-85587500D03*
X103050000Y-83312500D03*
X102100000Y-83312500D03*
X101150000Y-83312500D03*
D28*
X112200000Y-112300000D03*
X112200000Y-113260000D03*
D29*
X109925000Y-67475000D03*
X107385000Y-70015000D03*
X109925000Y-72555000D03*
D30*
X135750000Y-106850000D03*
X135250000Y-106850000D03*
X134750000Y-106850000D03*
X134250000Y-106850000D03*
X133750000Y-106850000D03*
X133250000Y-106850000D03*
X132750000Y-106850000D03*
X132250000Y-106850000D03*
X131750000Y-106850000D03*
X131250000Y-106850000D03*
X130750000Y-106850000D03*
X130250000Y-106850000D03*
X129750000Y-106850000D03*
X129250000Y-106850000D03*
X128750000Y-106850000D03*
X128250000Y-106850000D03*
X127750000Y-106850000D03*
X127250000Y-106850000D03*
X126750000Y-106850000D03*
X126250000Y-106850000D03*
X125750000Y-106850000D03*
X125250000Y-106850000D03*
X124750000Y-106850000D03*
X124250000Y-106850000D03*
D31*
X137650000Y-103600000D03*
X122350000Y-103600000D03*
D12*
X148910000Y-87900000D03*
X104600000Y-88680000D03*
X119550000Y-106350000D03*
X108780000Y-81670000D03*
X117210000Y-109110000D03*
D20*
X144212500Y-47500000D03*
X145787500Y-47500000D03*
D12*
X119290000Y-100970000D03*
X152720000Y-51440000D03*
X136340000Y-84850000D03*
D32*
X111200000Y-113310000D03*
X111200000Y-112290000D03*
D12*
X142150000Y-86075000D03*
X147350000Y-64925000D03*
X99420000Y-76130000D03*
D20*
X146712500Y-50000000D03*
X148287500Y-50000000D03*
D21*
X139600000Y-52500000D03*
X132400000Y-52500000D03*
D22*
X138250000Y-50000000D03*
X133750000Y-50000000D03*
D15*
X158100000Y-54850000D03*
X158100000Y-61150000D03*
X161900000Y-61150000D03*
X161900000Y-54850000D03*
D12*
X147025000Y-69825000D03*
D33*
X116500000Y-74625000D03*
X116500000Y-73375000D03*
D34*
X99150000Y-83450000D03*
X99150000Y-84100000D03*
X99150000Y-84750000D03*
X99150000Y-85400000D03*
X99150000Y-86050000D03*
D35*
X96450000Y-83750000D03*
D36*
X96450000Y-87650000D03*
D35*
X96450000Y-85750000D03*
D37*
X96450000Y-81250000D03*
D38*
X99150000Y-87250000D03*
D36*
X96450000Y-81850000D03*
D38*
X99150000Y-82250000D03*
D37*
X96450000Y-88250000D03*
D12*
X160840000Y-76810000D03*
D20*
X111712500Y-50000000D03*
X113287500Y-50000000D03*
D29*
X101925000Y-67475000D03*
X99385000Y-70015000D03*
X101925000Y-72555000D03*
D11*
X160000000Y-50000000D03*
D10*
X160000000Y-50000000D03*
D39*
X151725000Y-55575000D03*
D40*
X154265000Y-55575000D03*
X151725000Y-58115000D03*
X154265000Y-58115000D03*
X151725000Y-60655000D03*
X154265000Y-60655000D03*
X151725000Y-63195000D03*
X154265000Y-63195000D03*
X151725000Y-65735000D03*
X154265000Y-65735000D03*
X151725000Y-68275000D03*
X154265000Y-68275000D03*
X151725000Y-70815000D03*
X154265000Y-70815000D03*
X151725000Y-73355000D03*
X154265000Y-73355000D03*
X151725000Y-75895000D03*
X154265000Y-75895000D03*
X151725000Y-78435000D03*
X154265000Y-78435000D03*
D41*
X139960000Y-88675000D03*
X138940000Y-88675000D03*
D12*
X117340000Y-60630000D03*
D18*
X145787500Y-85000000D03*
X144212500Y-85000000D03*
D42*
X119150000Y-97025000D03*
X119150000Y-95125000D03*
X117275000Y-96075000D03*
D12*
X145120000Y-91470000D03*
D11*
X160000000Y-110000000D03*
D10*
X160000000Y-110000000D03*
D14*
X120700000Y-96340000D03*
X120700000Y-97360000D03*
D42*
X119137500Y-93550000D03*
X119137500Y-91650000D03*
X117262500Y-92600000D03*
D12*
X151940000Y-87960000D03*
D32*
X154380000Y-98240000D03*
X154380000Y-97220000D03*
D12*
X116150000Y-52250000D03*
D43*
X106123152Y-61691848D03*
D44*
X107700000Y-60115000D03*
X107700000Y-57885000D03*
X103876848Y-56308152D03*
X102300000Y-57885000D03*
X102300000Y-60115000D03*
D12*
X112370000Y-56550000D03*
D45*
X104460000Y-105635000D03*
X105730000Y-105635000D03*
X107000000Y-105635000D03*
X108270000Y-105635000D03*
X109540000Y-105635000D03*
X109540000Y-104365000D03*
X108270000Y-104365000D03*
X107000000Y-104365000D03*
X105730000Y-104365000D03*
X104460000Y-104365000D03*
D46*
X149960000Y-92230000D03*
X149960000Y-93630000D03*
X149260000Y-92930000D03*
X149960000Y-90830000D03*
X147860000Y-92930000D03*
X150660000Y-92930000D03*
X147860000Y-91530000D03*
X149260000Y-91530000D03*
X148560000Y-90830000D03*
X148560000Y-92230000D03*
X150660000Y-91530000D03*
X148560000Y-93630000D03*
D47*
X122350000Y-71750000D03*
X129500000Y-104500000D03*
X110910000Y-100100000D03*
X105930000Y-100920000D03*
X111407500Y-48167500D03*
X156450000Y-80650000D03*
X141820000Y-89990000D03*
X159170000Y-103270000D03*
X117290000Y-88340000D03*
X144968517Y-93351483D03*
X115750000Y-96250000D03*
X124760000Y-108840000D03*
X139740000Y-80360000D03*
X143343931Y-89185097D03*
X115000000Y-96250000D03*
X131750000Y-104250000D03*
X103710000Y-75540000D03*
X141700000Y-96840000D03*
X128670000Y-110706998D03*
X158140000Y-55970000D03*
X112950000Y-112300000D03*
X118500000Y-59975000D03*
X147400000Y-52010000D03*
X116500000Y-88500000D03*
X102110000Y-86600000D03*
X126000000Y-86500000D03*
X136553500Y-82100000D03*
X136000000Y-108200000D03*
X115428698Y-79676500D03*
X122200000Y-98000000D03*
X156980000Y-97620000D03*
X124490000Y-107940000D03*
X153873501Y-85184986D03*
X103690000Y-76350000D03*
X133180000Y-57380000D03*
X129230000Y-105310000D03*
X113640000Y-59460000D03*
X142167739Y-91980000D03*
X126990001Y-104430001D03*
X125900000Y-73270000D03*
X160500000Y-57000000D03*
X108690000Y-54100000D03*
X125740000Y-105384672D03*
X147460000Y-80450000D03*
X124250000Y-84000000D03*
X126000000Y-92500000D03*
X121440000Y-96330000D03*
X147775000Y-109350000D03*
X144300000Y-95590000D03*
X145610000Y-56110000D03*
X115547039Y-88332961D03*
X110510000Y-73880000D03*
X143400000Y-71660000D03*
X113520000Y-77270000D03*
X126000000Y-89500000D03*
X155610000Y-80650000D03*
X134000000Y-86500000D03*
X156710000Y-79890000D03*
X158080000Y-102450000D03*
X154350000Y-108790735D03*
X146350000Y-89325000D03*
X140950000Y-80360000D03*
X126000000Y-95500000D03*
X156220000Y-102330000D03*
X120530000Y-94720000D03*
X142140000Y-70130000D03*
X108500000Y-110500000D03*
X143370000Y-97470000D03*
X126000000Y-98500000D03*
X150310000Y-50340000D03*
X151860000Y-85260000D03*
X118000000Y-83000000D03*
X109850000Y-51190000D03*
X140330000Y-74816502D03*
X147500000Y-111485000D03*
X134000000Y-98500000D03*
X126000000Y-83500000D03*
X130860000Y-108210000D03*
X104890000Y-54120000D03*
X137956500Y-82178949D03*
X134000000Y-89500000D03*
X112200000Y-111650000D03*
X114790000Y-63620000D03*
X103730000Y-74820000D03*
X103680000Y-74090000D03*
X134000000Y-92500000D03*
X159630000Y-78200000D03*
X145525000Y-95250000D03*
X116250000Y-86190000D03*
X119223500Y-50125000D03*
X133997694Y-83502130D03*
X112190000Y-66270000D03*
X110450000Y-112300000D03*
X124440000Y-104380000D03*
X150575000Y-107825000D03*
X110710000Y-53980000D03*
X115000000Y-95500000D03*
X136500000Y-107000000D03*
X157450000Y-98230000D03*
X107000000Y-106500000D03*
X109830000Y-80540000D03*
X150050000Y-52370000D03*
X108500000Y-106500000D03*
X160500000Y-64500000D03*
X115750000Y-95500000D03*
X134000000Y-95500000D03*
X114090000Y-75100000D03*
X131290000Y-74600000D03*
X137650000Y-94250000D03*
X139480000Y-71640000D03*
X127840000Y-103460000D03*
X119500000Y-87500000D03*
X105792309Y-73853500D03*
X155370000Y-103420000D03*
X159040000Y-70250000D03*
X134140000Y-108200000D03*
X100300000Y-86120000D03*
X108850000Y-48550000D03*
X125950000Y-109020000D03*
X116336727Y-80681903D03*
X148853500Y-78463759D03*
X133250000Y-104273497D03*
X103780000Y-96840000D03*
X152930000Y-111680000D03*
X106000000Y-109500000D03*
X126000000Y-80500000D03*
X104570000Y-93480000D03*
X118000000Y-80500000D03*
X112250000Y-60890000D03*
X134730000Y-58090000D03*
X118000000Y-79019920D03*
X110625000Y-93850000D03*
X105920000Y-75720000D03*
X144970000Y-104360000D03*
X156530000Y-98240000D03*
X119690000Y-108700000D03*
X111200000Y-111650000D03*
X159487498Y-105007498D03*
X110650000Y-95425000D03*
X152585000Y-83500000D03*
X135508609Y-104508609D03*
X117090935Y-49165781D03*
X145301500Y-67100000D03*
X134660000Y-82300000D03*
X158100000Y-62400000D03*
X115500000Y-111000000D03*
X121160000Y-107900000D03*
X145096500Y-58540000D03*
X107500000Y-86600000D03*
X124250000Y-86500000D03*
X154598237Y-85846180D03*
X163000000Y-112000000D03*
X164000000Y-110000000D03*
X137000000Y-114000000D03*
X164000000Y-101000000D03*
X96000000Y-56000000D03*
X139000000Y-46000000D03*
X154000000Y-46000000D03*
X101000000Y-95000000D03*
X101000000Y-101000000D03*
X164000000Y-50000000D03*
X143000000Y-114000000D03*
X157000000Y-46000000D03*
X151000000Y-46000000D03*
X96000000Y-107000000D03*
X146000000Y-114000000D03*
X101000000Y-114000000D03*
X164000000Y-74000000D03*
X164000000Y-65000000D03*
X103000000Y-46000000D03*
X97500000Y-113000000D03*
X121000000Y-46000000D03*
X107000000Y-114000000D03*
X131000000Y-114000000D03*
X97000000Y-90000000D03*
X148000000Y-46000000D03*
X155000000Y-114000000D03*
X122000000Y-114000000D03*
X127000000Y-46000000D03*
X160000000Y-46000000D03*
X164000000Y-77000000D03*
X109000000Y-46000000D03*
X96000000Y-71000000D03*
X164000000Y-104000000D03*
X164000000Y-62000000D03*
X104000000Y-114000000D03*
X164000000Y-68000000D03*
X98000000Y-105000000D03*
X136000000Y-46000000D03*
X96000000Y-74000000D03*
X164000000Y-71000000D03*
X97500000Y-47500000D03*
X110000000Y-114000000D03*
X161000000Y-114000000D03*
X162500000Y-47500000D03*
X140000000Y-114000000D03*
X100000000Y-92000000D03*
X164000000Y-56000000D03*
X164000000Y-59000000D03*
X152000000Y-114000000D03*
X96000000Y-62000000D03*
X101000000Y-98000000D03*
X96000000Y-68000000D03*
X96000000Y-77000000D03*
X133000000Y-46000000D03*
X116000000Y-114000000D03*
X128000000Y-114000000D03*
X134000000Y-114000000D03*
X113000000Y-114000000D03*
X164000000Y-53000000D03*
X115000000Y-46000000D03*
X119000000Y-114000000D03*
X164000000Y-107000000D03*
X96000000Y-50000000D03*
X142000000Y-46000000D03*
X96000000Y-53000000D03*
X149000000Y-114000000D03*
X164000000Y-80000000D03*
X106000000Y-46000000D03*
X124000000Y-46000000D03*
X112000000Y-46000000D03*
X100000000Y-46000000D03*
X125000000Y-114000000D03*
X96000000Y-59000000D03*
X118000000Y-46000000D03*
X96000000Y-65000000D03*
X96000000Y-110000000D03*
X158000000Y-114000000D03*
X130000000Y-46000000D03*
X145000000Y-46000000D03*
X134720000Y-57360000D03*
X133950000Y-57450000D03*
X113500000Y-92000000D03*
X102980000Y-70520000D03*
X105664854Y-51589854D03*
X105152354Y-52102354D03*
X106900000Y-79880000D03*
X111500000Y-55300000D03*
X113000000Y-90500000D03*
X117037359Y-80489754D03*
X123000000Y-96000000D03*
X156048292Y-100617256D03*
X118040000Y-51530000D03*
X149200000Y-48590000D03*
X121000000Y-95500000D03*
X149860000Y-48600000D03*
X118050000Y-52260000D03*
X117000000Y-79000000D03*
X151270000Y-52370000D03*
X123000000Y-95000000D03*
X117000000Y-81500000D03*
X117000000Y-78000000D03*
X129260000Y-107990000D03*
X157100000Y-106150000D03*
X155500000Y-97000000D03*
X140500000Y-82000000D03*
X120500000Y-87500000D03*
X160500000Y-63500000D03*
X118000000Y-83771900D03*
X109500000Y-107000000D03*
X154480000Y-99410000D03*
X115403517Y-111903517D03*
X146500000Y-111485000D03*
X160500000Y-56000000D03*
X145301500Y-66230000D03*
X148240000Y-79760000D03*
X125749999Y-107743728D03*
X123120000Y-107840000D03*
X127150000Y-109090000D03*
X128340000Y-105433500D03*
X133250000Y-103500000D03*
X102500000Y-78500000D03*
X102500000Y-79500000D03*
X101500000Y-78500000D03*
X101780000Y-90150000D03*
X107120522Y-100302123D03*
X107696636Y-93214154D03*
X124180000Y-84865000D03*
X124180000Y-85715000D03*
X108500000Y-103500000D03*
X108500000Y-109500000D03*
X153446490Y-84395027D03*
X151858497Y-83500000D03*
X107000000Y-103500000D03*
X106000000Y-108500000D03*
X117140000Y-64772599D03*
X125200000Y-94000000D03*
X150600000Y-106800000D03*
X134600000Y-94400000D03*
X136500000Y-106250000D03*
X135250000Y-108200000D03*
X136250000Y-104500000D03*
X133260000Y-108200000D03*
X133250000Y-105500000D03*
X131750000Y-105500000D03*
X130750000Y-103750000D03*
X130250000Y-105500000D03*
X141230303Y-92112662D03*
X144070000Y-89160000D03*
X143348630Y-96743812D03*
X143450000Y-94930000D03*
X144830000Y-94330000D03*
X137920000Y-97070000D03*
X141760000Y-97640000D03*
X141990000Y-104360000D03*
X126280000Y-103390000D03*
X156500000Y-83690000D03*
X135550000Y-100080000D03*
X142320000Y-109990000D03*
X134430000Y-99330000D03*
X124580000Y-103150000D03*
X141190000Y-83763500D03*
X137430000Y-90170000D03*
X106169340Y-96837201D03*
X107280000Y-94250000D03*
X149540000Y-50170000D03*
X148530000Y-52270000D03*
X140433517Y-71986483D03*
X140350000Y-79090000D03*
X131280000Y-75570000D03*
X115260000Y-84120000D03*
X144325000Y-108825000D03*
X146850000Y-107325000D03*
X147075000Y-109650000D03*
X144175000Y-110525000D03*
X119175000Y-89950000D03*
X134800000Y-97400000D03*
X137040000Y-88860000D03*
X121400000Y-97400000D03*
X152000000Y-111620000D03*
X113020000Y-100640000D03*
X154775000Y-84450000D03*
X135280000Y-83280000D03*
X140580000Y-86800000D03*
X145750000Y-88450000D03*
X140550000Y-85090000D03*
X122360000Y-70840000D03*
X125090000Y-73340000D03*
X141540000Y-77640000D03*
D48*
X146400000Y-56050000D02*
X145670000Y-56050000D01*
X118830000Y-108560000D02*
X119550000Y-108560000D01*
X118330000Y-109060000D02*
X118830000Y-108560000D01*
D49*
X108270000Y-105635000D02*
X108270000Y-106270000D01*
D50*
X131250000Y-106850000D02*
X131250000Y-108305000D01*
D48*
X117340000Y-60630000D02*
X117995000Y-59975000D01*
X158100000Y-55930000D02*
X158140000Y-55970000D01*
D49*
X102100000Y-86045291D02*
X102100000Y-85587500D01*
D48*
X141810000Y-90000000D02*
X141820000Y-89990000D01*
D49*
X102100000Y-85587500D02*
X102100000Y-86630000D01*
D48*
X151940000Y-87960000D02*
X151940000Y-85340000D01*
X158100000Y-70150000D02*
X158940000Y-70150000D01*
D49*
X102100000Y-86630000D02*
X102110000Y-86640000D01*
X100230000Y-86050000D02*
X100300000Y-86120000D01*
D48*
X109830000Y-80620000D02*
X109830000Y-80540000D01*
D50*
X131175000Y-108525000D02*
X130860000Y-108210000D01*
D48*
X151940000Y-85340000D02*
X151860000Y-85260000D01*
D49*
X108270000Y-106270000D02*
X108500000Y-106500000D01*
D48*
X117995000Y-59975000D02*
X118500000Y-59975000D01*
X158100000Y-54850000D02*
X158100000Y-55930000D01*
D49*
X112200000Y-112300000D02*
X112200000Y-111650000D01*
D50*
X131750000Y-104250000D02*
X131070000Y-104930000D01*
D48*
X108780000Y-81670000D02*
X109830000Y-80620000D01*
X109025000Y-111025000D02*
X108500000Y-110500000D01*
X121430000Y-96340000D02*
X121440000Y-96330000D01*
X120700000Y-96340000D02*
X121430000Y-96340000D01*
D49*
X111200000Y-112290000D02*
X111200000Y-111650000D01*
D48*
X138330000Y-82100000D02*
X138035449Y-82100000D01*
D50*
X131250000Y-105950000D02*
X131250000Y-106850000D01*
D48*
X138035449Y-82100000D02*
X137956500Y-82178949D01*
D50*
X131250000Y-108305000D02*
X131470000Y-108525000D01*
D48*
X158940000Y-70150000D02*
X159040000Y-70250000D01*
X159630000Y-78020000D02*
X159630000Y-78200000D01*
X107230000Y-86870000D02*
X107230000Y-88670000D01*
X158100000Y-62400000D02*
X158100000Y-63850000D01*
X109025000Y-111275000D02*
X109025000Y-111025000D01*
D49*
X102100000Y-86045291D02*
X102223500Y-86168791D01*
X99150000Y-86050000D02*
X100230000Y-86050000D01*
D48*
X160840000Y-76810000D02*
X159630000Y-78020000D01*
X117420000Y-109060000D02*
X118330000Y-109060000D01*
D50*
X131070000Y-104930000D02*
X131070000Y-105770000D01*
X124750000Y-106850000D02*
X124750000Y-107680000D01*
D48*
X142750000Y-79775000D02*
X141535000Y-79775000D01*
X120125000Y-95125000D02*
X120530000Y-94720000D01*
D49*
X102100000Y-86590000D02*
X102110000Y-86600000D01*
D48*
X141535000Y-79775000D02*
X140950000Y-80360000D01*
X119150000Y-95125000D02*
X120125000Y-95125000D01*
D50*
X131070000Y-105770000D02*
X131250000Y-105950000D01*
D48*
X140787500Y-90000000D02*
X141810000Y-90000000D01*
X119550000Y-108560000D02*
X119690000Y-108700000D01*
D50*
X131470000Y-108525000D02*
X131175000Y-108525000D01*
D48*
X145670000Y-56050000D02*
X145610000Y-56110000D01*
D49*
X102100000Y-86045291D02*
X102100000Y-86590000D01*
X102223500Y-86168791D02*
X102223500Y-86661737D01*
X107000000Y-105635000D02*
X107000000Y-106500000D01*
D50*
X124750000Y-107680000D02*
X124490000Y-107940000D01*
D48*
X107500000Y-86600000D02*
X107230000Y-86870000D01*
X158100000Y-61150000D02*
X158100000Y-62400000D01*
D49*
X114980000Y-54720000D02*
X114980000Y-57290000D01*
X120060000Y-52130000D02*
X120060000Y-55670000D01*
X113325000Y-52025000D02*
X113325000Y-51975000D01*
X111340000Y-58800000D02*
X110130000Y-60010000D01*
X120675000Y-92175000D02*
X120675000Y-92865000D01*
X105700000Y-52025000D02*
X113325000Y-52025000D01*
X110130000Y-60821393D02*
X102980000Y-67971393D01*
X133910000Y-57410000D02*
X133950000Y-57450000D01*
X116080000Y-51770000D02*
X116080000Y-52180000D01*
X116150000Y-52250000D02*
X116150000Y-53550000D01*
X113850000Y-91650000D02*
X119137500Y-91650000D01*
X105229708Y-52025000D02*
X105700000Y-52025000D01*
X133910000Y-56610000D02*
X134590000Y-56610000D01*
X102980000Y-67971393D02*
X102980000Y-70520000D01*
X105700000Y-51625000D02*
X105700000Y-52025000D01*
X134720000Y-56740000D02*
X134590000Y-56610000D01*
X119137500Y-91650000D02*
X120150000Y-91650000D01*
X121000000Y-56610000D02*
X133910000Y-56610000D01*
X134720000Y-57360000D02*
X134720000Y-56740000D01*
X113470000Y-58800000D02*
X111340000Y-58800000D01*
X118650000Y-50720000D02*
X120060000Y-52130000D01*
X120060000Y-55670000D02*
X121000000Y-56610000D01*
X120150000Y-91650000D02*
X120675000Y-92175000D01*
X105664854Y-51589854D02*
X105700000Y-51625000D01*
X110130000Y-60010000D02*
X110130000Y-60821393D01*
X113325000Y-51975000D02*
X115875000Y-51975000D01*
X133910000Y-56610000D02*
X133910000Y-57410000D01*
X116150000Y-53550000D02*
X114980000Y-54720000D01*
X116080000Y-51770000D02*
X117130000Y-50720000D01*
X114980000Y-57290000D02*
X113470000Y-58800000D01*
X117130000Y-50720000D02*
X118650000Y-50720000D01*
X115875000Y-51975000D02*
X116080000Y-51770000D01*
X113500000Y-92000000D02*
X113850000Y-91650000D01*
X105152354Y-52102354D02*
X105229708Y-52025000D01*
X116080000Y-52180000D02*
X116150000Y-52250000D01*
X106900000Y-79880000D02*
X105290000Y-79880000D01*
X105290000Y-79880000D02*
X105250000Y-79840000D01*
D48*
X112370000Y-56550000D02*
X111500000Y-55680000D01*
X111500000Y-55680000D02*
X111500000Y-55300000D01*
D51*
X147860000Y-86040000D02*
X150270000Y-83630000D01*
X147360000Y-56807500D02*
X146967500Y-57200000D01*
X150270000Y-83360000D02*
X151350000Y-82280000D01*
X117400000Y-97400000D02*
X114400000Y-97400000D01*
D49*
X148065000Y-55575000D02*
X151725000Y-55575000D01*
X157520000Y-84450000D02*
X157520000Y-71660000D01*
D51*
X121000000Y-95500000D02*
X120846400Y-95653600D01*
D49*
X155870000Y-51090000D02*
X153380000Y-48600000D01*
D51*
X154380000Y-97220000D02*
X155280000Y-97220000D01*
D49*
X116375000Y-104425000D02*
X118715000Y-104425000D01*
X123000000Y-100140000D02*
X123000000Y-96000000D01*
X118040000Y-51530000D02*
X118040000Y-52250000D01*
X149200000Y-48590000D02*
X149850000Y-48590000D01*
D51*
X120846400Y-95653600D02*
X119146400Y-95653600D01*
X147360000Y-56050000D02*
X147360000Y-56807500D01*
D49*
X115723000Y-77723000D02*
X117000000Y-79000000D01*
X157100000Y-101850000D02*
X157100000Y-106150000D01*
X157520000Y-71660000D02*
X155870000Y-70010000D01*
X117000000Y-81500000D02*
X117037359Y-81462641D01*
D51*
X117350000Y-54580000D02*
X115723000Y-56207000D01*
X117350000Y-56950000D02*
X117350000Y-54580000D01*
D49*
X156180000Y-86160000D02*
X156180000Y-85790000D01*
X117037359Y-81462641D02*
X117037359Y-80489754D01*
X147835000Y-55575000D02*
X147360000Y-56050000D01*
D50*
X129250000Y-106850000D02*
X129250000Y-107980000D01*
D49*
X117000000Y-78000000D02*
X117000000Y-79000000D01*
X151725000Y-55575000D02*
X151725000Y-52825000D01*
X151725000Y-52825000D02*
X151270000Y-52370000D01*
D51*
X150270000Y-83630000D02*
X150270000Y-83360000D01*
D49*
X117000000Y-79000000D02*
X117000000Y-80452395D01*
X156785000Y-85185000D02*
X157520000Y-84450000D01*
D50*
X129250000Y-107980000D02*
X129260000Y-107990000D01*
D49*
X155500000Y-100250000D02*
X157100000Y-101850000D01*
D51*
X119146400Y-95653600D02*
X117400000Y-97400000D01*
D49*
X149850000Y-48590000D02*
X149860000Y-48600000D01*
D51*
X145121400Y-84041400D02*
X145121400Y-85661400D01*
D49*
X114775000Y-105850000D02*
X114950000Y-105850000D01*
X118050000Y-52260000D02*
X118050000Y-53880000D01*
X155500000Y-97000000D02*
X155500000Y-86840000D01*
X105730000Y-105635000D02*
X105730000Y-106191775D01*
D51*
X145121400Y-85661400D02*
X145500000Y-86040000D01*
D49*
X105730000Y-106191775D02*
X106714725Y-107176500D01*
D51*
X151350000Y-82280000D02*
X153880000Y-82280000D01*
X143180000Y-82100000D02*
X145121400Y-84041400D01*
X142590000Y-82100000D02*
X143180000Y-82100000D01*
X112000000Y-91500000D02*
X113000000Y-90500000D01*
X114270000Y-97270000D02*
X114270000Y-94470000D01*
D49*
X108095000Y-108000000D02*
X112625000Y-108000000D01*
X117000000Y-80452395D02*
X117037359Y-80489754D01*
X156180000Y-85790000D02*
X156785000Y-85185000D01*
X148065000Y-55575000D02*
X147835000Y-55575000D01*
D51*
X153880000Y-82280000D02*
X156785000Y-85185000D01*
D49*
X118715000Y-104425000D02*
X123000000Y-100140000D01*
X106714725Y-107176500D02*
X107271500Y-107176500D01*
X123000000Y-95000000D02*
X123000000Y-96000000D01*
X115723000Y-56207000D02*
X115723000Y-77723000D01*
D51*
X114400000Y-97400000D02*
X114270000Y-97270000D01*
D49*
X118040000Y-52250000D02*
X118050000Y-52260000D01*
X155500000Y-86840000D02*
X156180000Y-86160000D01*
X155500000Y-97000000D02*
X155500000Y-100250000D01*
D51*
X145500000Y-86040000D02*
X147860000Y-86040000D01*
D49*
X155870000Y-70010000D02*
X155870000Y-51090000D01*
X114950000Y-105850000D02*
X116375000Y-104425000D01*
X107271500Y-107176500D02*
X108095000Y-108000000D01*
D51*
X114270000Y-94470000D02*
X112000000Y-92200000D01*
X112000000Y-92200000D02*
X112000000Y-91500000D01*
D49*
X153380000Y-48600000D02*
X149860000Y-48600000D01*
D51*
X155280000Y-97220000D02*
X155500000Y-97000000D01*
D49*
X118050000Y-53880000D02*
X115723000Y-56207000D01*
X112625000Y-108000000D02*
X114775000Y-105850000D01*
D48*
X160500000Y-63500000D02*
X160850000Y-63850000D01*
X151725000Y-60655000D02*
X153010000Y-59370000D01*
X144655500Y-51065500D02*
X142440001Y-48850001D01*
X136270000Y-49420002D02*
X136270000Y-59000000D01*
X152720000Y-51530000D02*
X152085000Y-52165000D01*
X111140000Y-91290000D02*
X112930000Y-89500000D01*
X111140000Y-92270000D02*
X111140000Y-91290000D01*
X140600000Y-82100000D02*
X140500000Y-82000000D01*
X141570000Y-82100000D02*
X140600000Y-82100000D01*
X116210000Y-70990000D02*
X119220000Y-74000000D01*
X140400000Y-82100000D02*
X140500000Y-82000000D01*
X111400000Y-92530000D02*
X111140000Y-92270000D01*
X109540000Y-104365000D02*
X109540000Y-103808225D01*
X134320000Y-60950000D02*
X119290000Y-60950000D01*
X161900000Y-63850000D02*
X161900000Y-70150000D01*
X119220000Y-74000000D02*
X119220000Y-82551900D01*
X136840001Y-48850001D02*
X136270000Y-49420002D01*
X119220000Y-82551900D02*
X118000000Y-83771900D01*
X119290000Y-60950000D02*
X116210000Y-64030000D01*
X160850000Y-63850000D02*
X161900000Y-63850000D01*
X118500000Y-89500000D02*
X120500000Y-87500000D01*
X142440001Y-48850001D02*
X136840001Y-48850001D01*
X153010000Y-59370000D02*
X153010000Y-53090000D01*
X152085000Y-52165000D02*
X151160000Y-51240000D01*
X109540000Y-103808225D02*
X111400000Y-101948225D01*
X116210000Y-64030000D02*
X116210000Y-70990000D01*
X153010000Y-53090000D02*
X152085000Y-52165000D01*
X111400000Y-101948225D02*
X111400000Y-92530000D01*
X112930000Y-89500000D02*
X118500000Y-89500000D01*
X150234500Y-51065500D02*
X144655500Y-51065500D01*
X139290000Y-82100000D02*
X140400000Y-82100000D01*
X152720000Y-51440000D02*
X152720000Y-51530000D01*
X136270000Y-59000000D02*
X134320000Y-60950000D01*
X150409000Y-51240000D02*
X150234500Y-51065500D01*
X151160000Y-51240000D02*
X150409000Y-51240000D01*
X149172000Y-60668000D02*
X146736000Y-60668000D01*
X126300000Y-111500000D02*
X126525000Y-111725000D01*
X128237035Y-111725000D02*
X128467035Y-111955000D01*
X154380000Y-98240000D02*
X154380000Y-99310000D01*
X151725000Y-58115000D02*
X149172000Y-60668000D01*
X109540000Y-106960000D02*
X109500000Y-107000000D01*
X126525000Y-111725000D02*
X128237035Y-111725000D01*
X128872965Y-111955000D02*
X128877965Y-111950000D01*
X128877965Y-111950000D02*
X146035000Y-111950000D01*
X161900000Y-54850000D02*
X161900000Y-61150000D01*
X146035000Y-111950000D02*
X146500000Y-111485000D01*
X115807034Y-111500000D02*
X126300000Y-111500000D01*
X160750000Y-56000000D02*
X160500000Y-56000000D01*
X161900000Y-54850000D02*
X160750000Y-56000000D01*
X115403517Y-111903517D02*
X115807034Y-111500000D01*
X109540000Y-105635000D02*
X109540000Y-106960000D01*
X128467035Y-111955000D02*
X128872965Y-111955000D01*
X154380000Y-99310000D02*
X154480000Y-99410000D01*
X145504465Y-66610000D02*
X145306500Y-66610000D01*
X145791500Y-66897035D02*
X145504465Y-66610000D01*
X145306500Y-66235000D02*
X145301500Y-66230000D01*
X145504465Y-67590000D02*
X145791500Y-67302965D01*
X148240000Y-79760000D02*
X145306500Y-76826500D01*
X145791500Y-67302965D02*
X145791500Y-66897035D01*
X145306500Y-67590000D02*
X145504465Y-67590000D01*
X145306500Y-66610000D02*
X145306500Y-66235000D01*
X145306500Y-76826500D02*
X145306500Y-67590000D01*
D51*
X120800000Y-107070000D02*
X122320000Y-107070000D01*
X120030000Y-107840000D02*
X120800000Y-107070000D01*
X117990000Y-107840000D02*
X118480000Y-107840000D01*
X123090000Y-107840000D02*
X123120000Y-107840000D01*
X118480000Y-107840000D02*
X120030000Y-107840000D01*
X116500000Y-106350000D02*
X117990000Y-107840000D01*
D50*
X125749999Y-107743728D02*
X125750000Y-106850000D01*
D51*
X122320000Y-107070000D02*
X122460000Y-107210000D01*
X122460000Y-107210000D02*
X123090000Y-107840000D01*
X123449701Y-108257146D02*
X123449701Y-108749701D01*
X122376847Y-106350000D02*
X123648100Y-107621253D01*
X123449701Y-108749701D02*
X124850000Y-110150000D01*
X123648100Y-108058747D02*
X123449701Y-108257146D01*
D50*
X128750000Y-105843500D02*
X128340000Y-105433500D01*
D51*
X123648100Y-107621253D02*
X123648100Y-108058747D01*
X124850000Y-110150000D02*
X126770000Y-110150000D01*
D50*
X128750000Y-106850000D02*
X128750000Y-105843500D01*
D51*
X119550000Y-106350000D02*
X122376847Y-106350000D01*
X127150000Y-109770000D02*
X127150000Y-109090000D01*
X126770000Y-110150000D02*
X127150000Y-109770000D01*
D48*
X132250000Y-106850000D02*
X132250000Y-104500000D01*
X132250000Y-108500000D02*
X132250000Y-106850000D01*
X132250000Y-104500000D02*
X133250000Y-103500000D01*
D51*
X101500000Y-77570000D02*
X101500000Y-78500000D01*
X100060000Y-76130000D02*
X101500000Y-77570000D01*
X99420000Y-76130000D02*
X100060000Y-76130000D01*
D49*
X102811130Y-106028699D02*
X102194699Y-105412268D01*
X104460000Y-105635000D02*
X104066301Y-106028699D01*
X102194699Y-105412268D02*
X102194699Y-104305301D01*
X102500000Y-90870000D02*
X101780000Y-90150000D01*
X103000000Y-94000000D02*
X102500000Y-93500000D01*
D51*
X104600000Y-88680000D02*
X103250000Y-88680000D01*
D49*
X104066301Y-106028699D02*
X102811130Y-106028699D01*
X102194699Y-104305301D02*
X103000000Y-103500000D01*
X102500000Y-93500000D02*
X102500000Y-90870000D01*
D51*
X103250000Y-88680000D02*
X101780000Y-90150000D01*
D49*
X103000000Y-103500000D02*
X103000000Y-94000000D01*
D48*
X106487500Y-92250000D02*
X106487500Y-92960465D01*
X107632965Y-93700000D02*
X107950000Y-94017035D01*
X107950000Y-94017035D02*
X107950000Y-99472645D01*
X107227035Y-93700000D02*
X107632965Y-93700000D01*
X106487500Y-92960465D02*
X107227035Y-93700000D01*
X107950000Y-99472645D02*
X107120522Y-100302123D01*
X108062500Y-92250000D02*
X108062500Y-92848290D01*
X108062500Y-92848290D02*
X107696636Y-93214154D01*
X139212500Y-90000000D02*
X139212500Y-88947500D01*
X139212500Y-88947500D02*
X138940000Y-88675000D01*
D51*
X101350000Y-81850000D02*
X102100000Y-82600000D01*
X102100000Y-82600000D02*
X102100000Y-83312500D01*
D52*
X100362500Y-84100000D02*
X101150000Y-83312500D01*
X101150000Y-83558159D02*
X101801841Y-84210000D01*
X119736801Y-85064999D02*
X117446800Y-87355000D01*
X124180000Y-84865000D02*
X123980001Y-85064999D01*
X110533200Y-87355000D02*
X109405000Y-86226800D01*
X117446800Y-87355000D02*
X110533200Y-87355000D01*
X109405000Y-86226800D02*
X109405000Y-84936800D01*
X108693200Y-84225000D02*
X103962499Y-84224999D01*
X103962499Y-84224999D02*
X103050000Y-83312500D01*
X102520000Y-84210000D02*
X103050000Y-83680000D01*
X101801841Y-84210000D02*
X102520000Y-84210000D01*
X123980001Y-85064999D02*
X119736801Y-85064999D01*
X109405000Y-84936800D02*
X108693200Y-84225000D01*
X99150000Y-84100000D02*
X100362500Y-84100000D01*
X108955000Y-86413200D02*
X108955000Y-85123200D01*
X108506800Y-84675000D02*
X103962499Y-84675001D01*
X102406159Y-84698000D02*
X103050000Y-85341841D01*
X103962499Y-84675001D02*
X103050000Y-85587500D01*
X124180000Y-85715000D02*
X123980001Y-85515001D01*
X99150000Y-84750000D02*
X100312500Y-84750000D01*
X117633200Y-87805000D02*
X110346800Y-87805000D01*
X110346800Y-87805000D02*
X108955000Y-86413200D01*
X101150000Y-85341841D02*
X101793841Y-84698000D01*
X100312500Y-84750000D02*
X101150000Y-85587500D01*
X119923199Y-85515001D02*
X117633200Y-87805000D01*
X101793841Y-84698000D02*
X102406159Y-84698000D01*
X123980001Y-85515001D02*
X119923199Y-85515001D01*
X108955000Y-85123200D02*
X108506800Y-84675000D01*
D48*
X116000000Y-112000000D02*
X128153531Y-112000000D01*
X108500000Y-109500000D02*
X111000000Y-109500000D01*
X149330003Y-111228501D02*
X150130003Y-111228501D01*
X106200000Y-111290000D02*
X107350000Y-110140000D01*
X148350003Y-112208501D02*
X149330003Y-111228501D01*
X150130003Y-111228501D02*
X153383501Y-107975003D01*
X128362032Y-112208501D02*
X148350003Y-112208501D01*
X128153531Y-112000000D02*
X128362032Y-112208501D01*
X108500000Y-103500000D02*
X108500000Y-104135000D01*
X107350000Y-110140000D02*
X107860000Y-110140000D01*
X153313501Y-84596500D02*
X153446490Y-84463511D01*
X114000000Y-112500000D02*
X115500000Y-112500000D01*
X153383501Y-84666500D02*
X153313501Y-84596500D01*
X153383501Y-107975003D02*
X153383501Y-84666500D01*
X107860000Y-110140000D02*
X108500000Y-109500000D01*
X115500000Y-112500000D02*
X116000000Y-112000000D01*
X153446490Y-84463511D02*
X153446490Y-84395027D01*
X111000000Y-109500000D02*
X114000000Y-112500000D01*
X107000000Y-104365000D02*
X107000000Y-103500000D01*
X116001601Y-110501601D02*
X127410785Y-110501601D01*
X114000000Y-108500000D02*
X116001601Y-110501601D01*
X144542965Y-110975000D02*
X150025000Y-110975000D01*
X144498931Y-111019034D02*
X144542965Y-110975000D01*
X151725000Y-65735000D02*
X148160000Y-65735000D01*
X128872965Y-110216998D02*
X129675001Y-111019034D01*
X150025000Y-110975000D02*
X153130000Y-107870000D01*
X127695388Y-110216998D02*
X128872965Y-110216998D01*
X153130000Y-84771503D02*
X151858497Y-83500000D01*
X106000000Y-108500000D02*
X114000000Y-108500000D01*
X148160000Y-65735000D02*
X147350000Y-64925000D01*
X153130000Y-107870000D02*
X153130000Y-84771503D01*
X129675001Y-111019034D02*
X144498931Y-111019034D01*
X127410785Y-110501601D02*
X127695388Y-110216998D01*
X151725000Y-73355000D02*
X150845000Y-73355000D01*
X147315000Y-69825000D02*
X147025000Y-69825000D01*
X150845000Y-73355000D02*
X147315000Y-69825000D01*
X147100000Y-74250000D02*
X148745000Y-75895000D01*
X148745000Y-75895000D02*
X151725000Y-75895000D01*
X138040000Y-87300000D02*
X136010000Y-87300000D01*
X119137500Y-93550000D02*
X117275000Y-95412500D01*
X136000000Y-93000000D02*
X134600000Y-94400000D01*
X117902599Y-64010000D02*
X129580000Y-64010000D01*
X125085000Y-93885000D02*
X125200000Y-94000000D01*
X147410000Y-89940000D02*
X147410000Y-88210000D01*
X134170000Y-82622965D02*
X134750000Y-83202965D01*
X133840000Y-72590000D02*
X134170000Y-72920000D01*
X133480000Y-64600000D02*
X137260000Y-60820000D01*
X136000000Y-87290000D02*
X136000000Y-93000000D01*
X120221169Y-93550000D02*
X120556169Y-93885000D01*
X134750000Y-83202965D02*
X134750000Y-86040000D01*
X130280000Y-64710000D02*
X130810000Y-64710000D01*
X146470000Y-90880000D02*
X147410000Y-89940000D01*
X137260000Y-60820000D02*
X137260000Y-50990000D01*
X138430000Y-87710000D02*
X138040000Y-87320000D01*
X130810000Y-64710000D02*
X133840000Y-67740000D01*
X117275000Y-95412500D02*
X117275000Y-96075000D01*
X129580000Y-64010000D02*
X130280000Y-64710000D01*
X120675000Y-93885000D02*
X125085000Y-93885000D01*
X146570000Y-93400000D02*
X146570000Y-91990000D01*
X136010000Y-87300000D02*
X136000000Y-87290000D01*
X130280000Y-64710000D02*
X132560000Y-64710000D01*
X137260000Y-50990000D02*
X138250000Y-50000000D01*
X150600000Y-97430000D02*
X146570000Y-93400000D01*
X117140000Y-64772599D02*
X117902599Y-64010000D01*
X147410000Y-88210000D02*
X146910000Y-87710000D01*
X146570000Y-91990000D02*
X146470000Y-91890000D01*
X119137500Y-93550000D02*
X120221169Y-93550000D01*
X150600000Y-106800000D02*
X150600000Y-97430000D01*
X134750000Y-86040000D02*
X136000000Y-87290000D01*
X146910000Y-87710000D02*
X138430000Y-87710000D01*
X134170000Y-72920000D02*
X134170000Y-82622965D01*
X133840000Y-67740000D02*
X133840000Y-72590000D01*
X132560000Y-64710000D02*
X132670000Y-64600000D01*
X138040000Y-87320000D02*
X138040000Y-87300000D01*
X146470000Y-91890000D02*
X146470000Y-90880000D01*
X132670000Y-64600000D02*
X133480000Y-64600000D01*
X134813500Y-106009500D02*
X136259500Y-106009500D01*
X134750000Y-106073000D02*
X134813500Y-106009500D01*
X136259500Y-106009500D02*
X136500000Y-106250000D01*
X134750000Y-106850000D02*
X134750000Y-106073000D01*
X134250000Y-106850000D02*
X134250000Y-107627000D01*
X134760000Y-107710000D02*
X135250000Y-108200000D01*
X134250000Y-107627000D02*
X134333000Y-107710000D01*
X134333000Y-107710000D02*
X134760000Y-107710000D01*
X135624265Y-105125735D02*
X136250000Y-104500000D01*
X134697265Y-105125735D02*
X135624265Y-105125735D01*
X133750000Y-106073000D02*
X134697265Y-105125735D01*
X133750000Y-106850000D02*
X133750000Y-106073000D01*
X133250000Y-106850000D02*
X133250000Y-108190000D01*
X133250000Y-108190000D02*
X133260000Y-108200000D01*
X132750000Y-106000000D02*
X133250000Y-105500000D01*
X132750000Y-106850000D02*
X132750000Y-106000000D01*
X131750000Y-106850000D02*
X131750000Y-105500000D01*
X130750000Y-106850000D02*
X130750000Y-103750000D01*
X130250000Y-106850000D02*
X130250000Y-105500000D01*
X131765898Y-109025500D02*
X131850398Y-109110000D01*
X140970000Y-106755000D02*
X140970000Y-92372965D01*
X138689004Y-108810996D02*
X138914004Y-108810996D01*
X129750000Y-106850000D02*
X129750000Y-108197478D01*
X131193102Y-109025500D02*
X131765898Y-109025500D01*
X130245017Y-108692495D02*
X130315016Y-108692495D01*
X130433518Y-108810996D02*
X130978597Y-108810996D01*
X140970000Y-92372965D02*
X141230303Y-92112662D01*
X129750000Y-108197478D02*
X130245017Y-108692495D01*
X131850398Y-109110000D02*
X138390000Y-109110000D01*
X138390000Y-109110000D02*
X138689004Y-108810996D01*
X130978597Y-108810996D02*
X131193102Y-109025500D01*
X138914004Y-108810996D02*
X140970000Y-106755000D01*
X130315016Y-108692495D02*
X130433518Y-108810996D01*
X128250000Y-107695983D02*
X129500013Y-108945996D01*
X129500013Y-108945996D02*
X130210012Y-108945996D01*
X130627517Y-109363501D02*
X138495003Y-109363501D01*
X140001484Y-109064497D02*
X142626499Y-106439482D01*
X142626499Y-106439482D02*
X142626499Y-92330536D01*
X144070000Y-90887035D02*
X144070000Y-89160000D01*
X138794007Y-109064497D02*
X140001484Y-109064497D01*
X138495003Y-109363501D02*
X138794007Y-109064497D01*
X128250000Y-106850000D02*
X128250000Y-107695983D01*
X142626499Y-92330536D02*
X144070000Y-90887035D01*
X130210012Y-108945996D02*
X130627517Y-109363501D01*
X138070007Y-109717002D02*
X138170007Y-109617002D01*
X130105009Y-109199497D02*
X130622514Y-109717002D01*
X141307002Y-109317998D02*
X142880000Y-107745000D01*
X127750000Y-107887008D02*
X129062489Y-109199497D01*
X138170007Y-109617002D02*
X138600006Y-109617002D01*
X142880000Y-107745000D02*
X142880000Y-97212442D01*
X138899010Y-109317998D02*
X141307002Y-109317998D01*
X129062489Y-109199497D02*
X130105009Y-109199497D01*
X127750000Y-106850000D02*
X127750000Y-107887008D01*
X138600006Y-109617002D02*
X138899010Y-109317998D01*
X130622514Y-109717002D02*
X138070007Y-109717002D01*
X142880000Y-97212442D02*
X143348630Y-96743812D01*
X130000006Y-109452998D02*
X130517511Y-109970503D01*
X128956780Y-109452998D02*
X130000006Y-109452998D01*
X138175010Y-109970503D02*
X138275010Y-109870503D01*
X143450000Y-95600000D02*
X143450000Y-94930000D01*
X130517511Y-109970503D02*
X138175010Y-109970503D01*
X141388027Y-109870503D02*
X145750000Y-105508530D01*
X138275010Y-109870503D02*
X141388027Y-109870503D01*
X127250000Y-106850000D02*
X127250000Y-107746218D01*
X127250000Y-107746218D02*
X128956780Y-109452998D01*
X145750000Y-97900000D02*
X143450000Y-95600000D01*
X145750000Y-105508530D02*
X145750000Y-97900000D01*
X130412508Y-110224004D02*
X141393031Y-110224004D01*
X144830000Y-95305000D02*
X144830000Y-94330000D01*
X147071499Y-104545536D02*
X147071499Y-97546499D01*
X129895003Y-109706499D02*
X130412508Y-110224004D01*
X126750000Y-106850000D02*
X126750000Y-107638531D01*
X147071499Y-97546499D02*
X144830000Y-95305000D01*
X141393031Y-110224004D02*
X147071499Y-104545536D01*
X126750000Y-107638531D02*
X128817968Y-109706499D01*
X128817968Y-109706499D02*
X129895003Y-109706499D01*
X146872000Y-58500000D02*
X146967500Y-58500000D01*
X141990000Y-104360000D02*
X141990000Y-97870000D01*
X146045001Y-65922032D02*
X145212000Y-65089031D01*
X137920000Y-97710000D02*
X137920000Y-97070000D01*
X145212000Y-65089031D02*
X145212000Y-60160000D01*
X153224500Y-80194500D02*
X153224500Y-69774500D01*
X146045001Y-66025001D02*
X146045001Y-65922032D01*
X156500000Y-83470000D02*
X153224500Y-80194500D01*
X151725000Y-68275000D02*
X148295000Y-68275000D01*
X141990000Y-97870000D02*
X141760000Y-97640000D01*
X145212000Y-60160000D02*
X146872000Y-58500000D01*
X135550000Y-100080000D02*
X137920000Y-97710000D01*
X156500000Y-83690000D02*
X156500000Y-83470000D01*
X153224500Y-69774500D02*
X151725000Y-68275000D01*
X148295000Y-68275000D02*
X146045001Y-66025001D01*
X126250000Y-106850000D02*
X126250000Y-103480000D01*
X137110000Y-90490000D02*
X137430000Y-90170000D01*
X145791500Y-66130004D02*
X145791500Y-66027035D01*
X146170000Y-58843496D02*
X146170000Y-57800000D01*
X144958499Y-60054997D02*
X146170000Y-58843496D01*
X146220000Y-57850000D02*
X146170000Y-57800000D01*
X130350000Y-110520000D02*
X141790000Y-110520000D01*
X144958499Y-65194034D02*
X144958499Y-60054997D01*
X129790000Y-109960000D02*
X130350000Y-110520000D01*
X127352965Y-108600000D02*
X128712965Y-109960000D01*
X139720000Y-63450000D02*
X137750000Y-65420000D01*
X141790000Y-110520000D02*
X142320000Y-109990000D01*
X126660000Y-108887035D02*
X126947035Y-108600000D01*
X145170000Y-55170000D02*
X147510000Y-55170000D01*
X147510000Y-55170000D02*
X149310000Y-53370000D01*
X144175000Y-73575000D02*
X144175000Y-81075000D01*
X137110000Y-96650000D02*
X137110000Y-90490000D01*
X137750000Y-65420000D02*
X137750000Y-68610000D01*
X125751601Y-109519215D02*
X126308399Y-109519215D01*
X125250000Y-109017614D02*
X125751601Y-109519215D01*
X148950000Y-51450000D02*
X144770000Y-51450000D01*
X139720000Y-56500000D02*
X139720000Y-63450000D01*
X126308399Y-109519215D02*
X126660000Y-109167614D01*
X151725000Y-70815000D02*
X150476496Y-70815000D01*
X142129500Y-81780173D02*
X142129500Y-82824000D01*
X137750000Y-68610000D02*
X141850000Y-72710000D01*
X134430000Y-99330000D02*
X137110000Y-96650000D01*
X125250000Y-106850000D02*
X125250000Y-109017614D01*
X149310000Y-51810000D02*
X148950000Y-51450000D01*
X125250000Y-106850000D02*
X125250000Y-103820000D01*
X146170000Y-56950000D02*
X145840000Y-56620000D01*
X146967500Y-57850000D02*
X146220000Y-57850000D01*
X128712965Y-109960000D02*
X129790000Y-109960000D01*
X146170000Y-57800000D02*
X146170000Y-56950000D01*
X142320173Y-81589500D02*
X142129500Y-81780173D01*
X143310000Y-72710000D02*
X144175000Y-73575000D01*
X150476496Y-70815000D02*
X145791500Y-66130004D01*
X126660000Y-109167614D02*
X126660000Y-108887035D01*
X142129500Y-82824000D02*
X141190000Y-83763500D01*
X145791500Y-66027035D02*
X144958499Y-65194034D01*
X144770000Y-51450000D02*
X139720000Y-56500000D01*
X141850000Y-72710000D02*
X143310000Y-72710000D01*
X149310000Y-53370000D02*
X149310000Y-51810000D01*
X145065001Y-55274999D02*
X145170000Y-55170000D01*
X144175000Y-81075000D02*
X143660500Y-81589500D01*
X126947035Y-108600000D02*
X127352965Y-108600000D01*
X145065001Y-56620000D02*
X145065001Y-55274999D01*
X145840000Y-56620000D02*
X145065001Y-56620000D01*
X125250000Y-103820000D02*
X124580000Y-103150000D01*
X143660500Y-81589500D02*
X142320173Y-81589500D01*
X103437500Y-93227500D02*
X106169340Y-95959340D01*
X103437500Y-92250000D02*
X103437500Y-93227500D01*
X106169340Y-95959340D02*
X106169340Y-96837201D01*
X106070000Y-94250000D02*
X107280000Y-94250000D01*
X105012500Y-92250000D02*
X105012500Y-93192500D01*
X105012500Y-93192500D02*
X106070000Y-94250000D01*
D49*
X145787500Y-85000000D02*
X146690000Y-85000000D01*
X146690000Y-85000000D02*
X148287500Y-83402500D01*
X148287500Y-83402500D02*
X148287500Y-82500000D01*
X113270000Y-85000000D02*
X111712500Y-83442500D01*
X111712500Y-83442500D02*
X111712500Y-82500000D01*
X114212500Y-85000000D02*
X113270000Y-85000000D01*
X146712500Y-81792500D02*
X146712500Y-82500000D01*
X148530000Y-52680000D02*
X148260000Y-52950000D01*
X144625000Y-65482791D02*
X144625000Y-79705000D01*
X148260000Y-52950000D02*
X146010000Y-52950000D01*
X144419500Y-54540500D02*
X144419500Y-65277291D01*
X146010000Y-52950000D02*
X144419500Y-54540500D01*
X144419500Y-65277291D02*
X144625000Y-65482791D01*
X144625000Y-79705000D02*
X146712500Y-81792500D01*
X149540000Y-50170000D02*
X148457500Y-50170000D01*
X148530000Y-52270000D02*
X148530000Y-52680000D01*
X140350000Y-79090000D02*
X140350000Y-77130000D01*
X140350000Y-77130000D02*
X139390000Y-76170000D01*
X139040000Y-79090000D02*
X137280000Y-80850000D01*
X137280000Y-80850000D02*
X137280000Y-82720000D01*
X139390000Y-76170000D02*
X139390000Y-72780000D01*
X137600000Y-83040000D02*
X139350000Y-83040000D01*
X139350000Y-83040000D02*
X140750000Y-84440000D01*
X140750000Y-84440000D02*
X143652500Y-84440000D01*
X143652500Y-84440000D02*
X144212500Y-85000000D01*
X137280000Y-82720000D02*
X137600000Y-83040000D01*
X140183517Y-71986483D02*
X140433517Y-71986483D01*
X140350000Y-79090000D02*
X139040000Y-79090000D01*
X139390000Y-72780000D02*
X140183517Y-71986483D01*
D51*
X131280000Y-75570000D02*
X127286316Y-75570000D01*
X120180000Y-83710000D02*
X119590000Y-84300000D01*
X119590000Y-84300000D02*
X116195148Y-84300000D01*
X116195148Y-84300000D02*
X116191548Y-84296400D01*
X116191548Y-84296400D02*
X115787500Y-84700448D01*
D49*
X115260000Y-84472500D02*
X115787500Y-85000000D01*
X115260000Y-84120000D02*
X115260000Y-84472500D01*
D51*
X120180000Y-82676316D02*
X120180000Y-83710000D01*
X127286316Y-75570000D02*
X120180000Y-82676316D01*
D49*
X111712500Y-50000000D02*
X111452500Y-50260000D01*
X100000000Y-69078607D02*
X100482000Y-69560607D01*
X111452500Y-50260000D02*
X105330000Y-50260000D01*
X100482000Y-69560607D02*
X100482000Y-74452000D01*
X105330000Y-50260000D02*
X99700000Y-55890000D01*
X103460000Y-78060000D02*
X108847500Y-78060000D01*
X102300000Y-76270000D02*
X102300000Y-76900000D01*
X100000000Y-57050000D02*
X100000000Y-69078607D01*
X100482000Y-74452000D02*
X102300000Y-76270000D01*
X99700000Y-56750000D02*
X100000000Y-57050000D01*
X102300000Y-76900000D02*
X103460000Y-78060000D01*
X108847500Y-78060000D02*
X113287500Y-82500000D01*
X99700000Y-55890000D02*
X99700000Y-56750000D01*
X146712500Y-49132500D02*
X145787500Y-48207500D01*
X145787500Y-48207500D02*
X145787500Y-47500000D01*
X146712500Y-50000000D02*
X146712500Y-49132500D01*
X114212500Y-47500000D02*
X114212500Y-48307500D01*
X113287500Y-49232500D02*
X113287500Y-50000000D01*
X114212500Y-48307500D02*
X113287500Y-49232500D01*
X118060000Y-47500000D02*
X118970000Y-48410000D01*
X142510000Y-47500000D02*
X144212500Y-47500000D01*
X115787500Y-47500000D02*
X118060000Y-47500000D01*
X141600000Y-48410000D02*
X142510000Y-47500000D01*
X118970000Y-48410000D02*
X141600000Y-48410000D01*
D48*
X144325000Y-108825000D02*
X145825000Y-107325000D01*
X145825000Y-107325000D02*
X146850000Y-107325000D01*
X146200000Y-110525000D02*
X147075000Y-109650000D01*
X144175000Y-110525000D02*
X146200000Y-110525000D01*
X118209500Y-92859500D02*
X117950000Y-92600000D01*
X120355173Y-93325500D02*
X121074500Y-93325500D01*
X121500000Y-92275000D02*
X121500000Y-92900000D01*
X119175000Y-89950000D02*
X121500000Y-92275000D01*
X118209500Y-92859500D02*
X119889173Y-92859500D01*
X119889173Y-92859500D02*
X120355173Y-93325500D01*
X117950000Y-92600000D02*
X117262500Y-92600000D01*
X121074500Y-93325500D02*
X121500000Y-92900000D01*
X120670000Y-97390000D02*
X120700000Y-97360000D01*
X120365000Y-97025000D02*
X120700000Y-97360000D01*
X119290000Y-100970000D02*
X120670000Y-99590000D01*
X120670000Y-99590000D02*
X120670000Y-97390000D01*
X136330000Y-89570000D02*
X137040000Y-88860000D01*
X134800000Y-97400000D02*
X136330000Y-95870000D01*
X136330000Y-95870000D02*
X136330000Y-89570000D01*
X119150000Y-97025000D02*
X120365000Y-97025000D01*
X121400000Y-97400000D02*
X120740000Y-97400000D01*
X153860000Y-109760000D02*
X152000000Y-111620000D01*
X153903501Y-107813508D02*
X153860000Y-107857008D01*
X154076466Y-85674986D02*
X153876466Y-85674986D01*
X153869500Y-97970173D02*
X153869500Y-98509827D01*
X153903501Y-98543828D02*
X153903501Y-107813508D01*
X153903501Y-97936172D02*
X153869500Y-97970173D01*
X153903501Y-97523828D02*
X153903501Y-97936172D01*
X153869500Y-98509827D02*
X153903501Y-98543828D01*
X153869500Y-85681952D02*
X153869500Y-97489827D01*
X153860000Y-107857008D02*
X153860000Y-109760000D01*
X153869500Y-97489827D02*
X153903501Y-97523828D01*
X154775000Y-84976452D02*
X154076466Y-85674986D01*
X153876466Y-85674986D02*
X153869500Y-85681952D01*
X154775000Y-84450000D02*
X154775000Y-84976452D01*
X113360000Y-100980000D02*
X113020000Y-100640000D01*
X115670000Y-100980000D02*
X113360000Y-100980000D01*
X136340000Y-84850000D02*
X135280000Y-83790000D01*
X135280000Y-83790000D02*
X135280000Y-83280000D01*
X142990000Y-87280000D02*
X143100000Y-87390000D01*
X141060000Y-87280000D02*
X142990000Y-87280000D01*
X143100000Y-87390000D02*
X147800000Y-87390000D01*
X140580000Y-86800000D02*
X141060000Y-87280000D01*
X147800000Y-87390000D02*
X148310000Y-87900000D01*
X148310000Y-87900000D02*
X148910000Y-87900000D01*
X145550000Y-88250000D02*
X145750000Y-88450000D01*
X140385000Y-88250000D02*
X145550000Y-88250000D01*
X145120000Y-89980000D02*
X145120000Y-91470000D01*
X145750000Y-88450000D02*
X145750000Y-89350000D01*
X145750000Y-89350000D02*
X145120000Y-89980000D01*
X139960000Y-88675000D02*
X140385000Y-88250000D01*
X142150000Y-86075000D02*
X141165000Y-85090000D01*
X122360000Y-70840000D02*
X123130000Y-71610000D01*
X125090000Y-73340000D02*
X123360000Y-71610000D01*
X123130000Y-71610000D02*
X123360000Y-71610000D01*
X141165000Y-85090000D02*
X140550000Y-85090000D01*
X142825000Y-76355000D02*
X141540000Y-77640000D01*
X142825000Y-76225000D02*
X142825000Y-76355000D01*
G04 #@! TA.AperFunction,Conductor*
G36*
X159987103Y-45256921D02*
G01*
X160000000Y-45259486D01*
X160012170Y-45257065D01*
X160022599Y-45257065D01*
X160035735Y-45256060D01*
X160356412Y-45270061D01*
X160408103Y-45272318D01*
X160419051Y-45273276D01*
X160818604Y-45325878D01*
X160829413Y-45327785D01*
X161222854Y-45415008D01*
X161233471Y-45417853D01*
X161617813Y-45539036D01*
X161628128Y-45542789D01*
X162000468Y-45697017D01*
X162010412Y-45701655D01*
X162295219Y-45849916D01*
X162367867Y-45887734D01*
X162377387Y-45893230D01*
X162717262Y-46109755D01*
X162726266Y-46116059D01*
X163045993Y-46361393D01*
X163054397Y-46368445D01*
X163130501Y-46438182D01*
X163351519Y-46640709D01*
X163359291Y-46648481D01*
X163470515Y-46769860D01*
X163631555Y-46945603D01*
X163638607Y-46954007D01*
X163764005Y-47117430D01*
X163883941Y-47273734D01*
X163890245Y-47282738D01*
X164101349Y-47614103D01*
X164106770Y-47622613D01*
X164112265Y-47632132D01*
X164274193Y-47943191D01*
X164298341Y-47989579D01*
X164302983Y-47999532D01*
X164457208Y-48371865D01*
X164460964Y-48382187D01*
X164553369Y-48675256D01*
X164582147Y-48766528D01*
X164584992Y-48777145D01*
X164661678Y-49123052D01*
X164672214Y-49170579D01*
X164674122Y-49181396D01*
X164724719Y-49565716D01*
X164726724Y-49580948D01*
X164727682Y-49591898D01*
X164743940Y-49964265D01*
X164742935Y-49977401D01*
X164742935Y-49987830D01*
X164740514Y-50000000D01*
X164743079Y-50012894D01*
X164745500Y-50037476D01*
X164745500Y-78962518D01*
X164743079Y-78987097D01*
X164740513Y-78999999D01*
X164742934Y-79012171D01*
X164742934Y-79024578D01*
X164742294Y-79024578D01*
X164742970Y-79035360D01*
X164728375Y-79239419D01*
X164725817Y-79257213D01*
X164676709Y-79482959D01*
X164671644Y-79500208D01*
X164666655Y-79513584D01*
X164590909Y-79716669D01*
X164583443Y-79733016D01*
X164472724Y-79935781D01*
X164463005Y-79950904D01*
X164324558Y-80135848D01*
X164312785Y-80149434D01*
X164149434Y-80312785D01*
X164135848Y-80324558D01*
X163952444Y-80461853D01*
X163950902Y-80463007D01*
X163935786Y-80472722D01*
X163914054Y-80484589D01*
X163853671Y-80500000D01*
X163126000Y-80500000D01*
X163057879Y-80479998D01*
X163011386Y-80426342D01*
X163000000Y-80374000D01*
X163000000Y-53000000D01*
X162246940Y-52246940D01*
X162212914Y-52184628D01*
X162217979Y-52113813D01*
X162244185Y-52071592D01*
X162340774Y-51968734D01*
X162345297Y-51963345D01*
X162545640Y-51695540D01*
X162549530Y-51689686D01*
X162718774Y-51401215D01*
X162721989Y-51394961D01*
X162858024Y-51089422D01*
X162860521Y-51082847D01*
X162961648Y-50764056D01*
X162963400Y-50757233D01*
X163028361Y-50429155D01*
X163029338Y-50422201D01*
X163057436Y-50087591D01*
X163057650Y-50083222D01*
X163058782Y-50002178D01*
X163058691Y-49997828D01*
X163039945Y-49662546D01*
X163039163Y-49655572D01*
X162983386Y-49325793D01*
X162981828Y-49318939D01*
X162889639Y-48997439D01*
X162887331Y-48990811D01*
X162759874Y-48681576D01*
X162756845Y-48675256D01*
X162595715Y-48382161D01*
X162591990Y-48376199D01*
X162399195Y-48102896D01*
X162394837Y-48097397D01*
X162259837Y-47945343D01*
X162246449Y-47936966D01*
X162236889Y-47942716D01*
X160192417Y-49987188D01*
X160184803Y-50001132D01*
X160184934Y-50002965D01*
X160189185Y-50009580D01*
X161481389Y-51301784D01*
X161515415Y-51364096D01*
X161510350Y-51434911D01*
X161481389Y-51479974D01*
X161480682Y-51480682D01*
X158519319Y-48519319D01*
X158520026Y-48518611D01*
X158582338Y-48484585D01*
X158653153Y-48489650D01*
X158698216Y-48518611D01*
X159987188Y-49807583D01*
X160001132Y-49815197D01*
X160002965Y-49815066D01*
X160009580Y-49810815D01*
X162055177Y-47765218D01*
X162062791Y-47751274D01*
X162062786Y-47751200D01*
X162056679Y-47742222D01*
X161919281Y-47618509D01*
X161913801Y-47614103D01*
X161641852Y-47419407D01*
X161635925Y-47415645D01*
X161343972Y-47252478D01*
X161337646Y-47249392D01*
X161029325Y-47119786D01*
X161022711Y-47117430D01*
X160701848Y-47022996D01*
X160695026Y-47021396D01*
X160365633Y-46963315D01*
X160358664Y-46962484D01*
X160024872Y-46941484D01*
X160017840Y-46941435D01*
X159683774Y-46957772D01*
X159676796Y-46958506D01*
X159346640Y-47011980D01*
X159339772Y-47013490D01*
X159017642Y-47103431D01*
X159010986Y-47105697D01*
X158700885Y-47230985D01*
X158694530Y-47233975D01*
X158400323Y-47393053D01*
X158394334Y-47396737D01*
X158119692Y-47587618D01*
X158114161Y-47591939D01*
X157924423Y-47758042D01*
X157859992Y-47787863D01*
X157789668Y-47778116D01*
X157752333Y-47752333D01*
X157000000Y-47000000D01*
X146478053Y-47000000D01*
X146409932Y-46979998D01*
X146377226Y-46949564D01*
X146374252Y-46945595D01*
X146344330Y-46905670D01*
X146235853Y-46824372D01*
X146227452Y-46821222D01*
X146227449Y-46821221D01*
X146151525Y-46792758D01*
X146108919Y-46776786D01*
X146101066Y-46775933D01*
X146101062Y-46775932D01*
X146054452Y-46770869D01*
X146054448Y-46770869D01*
X146051053Y-46770500D01*
X145787539Y-46770500D01*
X145523948Y-46770501D01*
X145466081Y-46776786D01*
X145411245Y-46797343D01*
X145347551Y-46821221D01*
X145347548Y-46821222D01*
X145339147Y-46824372D01*
X145230670Y-46905670D01*
X145200749Y-46945595D01*
X145197774Y-46949564D01*
X145140915Y-46992080D01*
X145096947Y-47000000D01*
X144903053Y-47000000D01*
X144834932Y-46979998D01*
X144802226Y-46949564D01*
X144799252Y-46945595D01*
X144769330Y-46905670D01*
X144660853Y-46824372D01*
X144652452Y-46821222D01*
X144652449Y-46821221D01*
X144576525Y-46792758D01*
X144533919Y-46776786D01*
X144526066Y-46775933D01*
X144526062Y-46775932D01*
X144479452Y-46770869D01*
X144479448Y-46770869D01*
X144476053Y-46770500D01*
X144212539Y-46770500D01*
X143948948Y-46770501D01*
X143891081Y-46776786D01*
X143836245Y-46797343D01*
X143772551Y-46821221D01*
X143772548Y-46821222D01*
X143764147Y-46824372D01*
X143655670Y-46905670D01*
X143650290Y-46912849D01*
X143650288Y-46912851D01*
X143626145Y-46945065D01*
X143569286Y-46987580D01*
X143525319Y-46995500D01*
X142580624Y-46995500D01*
X142568619Y-46994159D01*
X142568579Y-46994655D01*
X142559632Y-46993935D01*
X142550876Y-46991954D01*
X142507338Y-46994655D01*
X142497618Y-46995258D01*
X142489816Y-46995500D01*
X142473774Y-46995500D01*
X142469343Y-46996135D01*
X142469338Y-46996135D01*
X142465313Y-46996712D01*
X142463543Y-46996965D01*
X142453483Y-46997996D01*
X142433050Y-46999264D01*
X142425081Y-46999758D01*
X142417282Y-47000000D01*
X118144490Y-47000000D01*
X118135149Y-46999653D01*
X118122639Y-46998723D01*
X118112596Y-46997570D01*
X118104114Y-46996249D01*
X118104111Y-46996249D01*
X118099303Y-46995500D01*
X118083938Y-46995500D01*
X118074601Y-46995154D01*
X118067048Y-46994593D01*
X118025333Y-46991493D01*
X118016558Y-46993366D01*
X118007862Y-46993959D01*
X117993262Y-46995500D01*
X116474681Y-46995500D01*
X116406560Y-46975498D01*
X116373855Y-46945065D01*
X116349712Y-46912851D01*
X116349710Y-46912849D01*
X116344330Y-46905670D01*
X116235853Y-46824372D01*
X116227452Y-46821222D01*
X116227449Y-46821221D01*
X116151525Y-46792758D01*
X116108919Y-46776786D01*
X116101066Y-46775933D01*
X116101062Y-46775932D01*
X116054452Y-46770869D01*
X116054448Y-46770869D01*
X116051053Y-46770500D01*
X115787539Y-46770500D01*
X115523948Y-46770501D01*
X115466081Y-46776786D01*
X115411245Y-46797343D01*
X115347551Y-46821221D01*
X115347548Y-46821222D01*
X115339147Y-46824372D01*
X115230670Y-46905670D01*
X115200749Y-46945595D01*
X115197774Y-46949564D01*
X115140915Y-46992080D01*
X115096947Y-47000000D01*
X114903053Y-47000000D01*
X114834932Y-46979998D01*
X114802226Y-46949564D01*
X114799252Y-46945595D01*
X114769330Y-46905670D01*
X114660853Y-46824372D01*
X114652452Y-46821222D01*
X114652449Y-46821221D01*
X114576525Y-46792758D01*
X114533919Y-46776786D01*
X114526066Y-46775933D01*
X114526062Y-46775932D01*
X114479452Y-46770869D01*
X114479448Y-46770869D01*
X114476053Y-46770500D01*
X114212539Y-46770500D01*
X113948948Y-46770501D01*
X113891081Y-46776786D01*
X113836245Y-46797343D01*
X113772551Y-46821221D01*
X113772548Y-46821222D01*
X113764147Y-46824372D01*
X113655670Y-46905670D01*
X113625749Y-46945595D01*
X113622774Y-46949564D01*
X113565915Y-46992080D01*
X113521947Y-47000000D01*
X103000000Y-47000000D01*
X102247046Y-47752954D01*
X102184734Y-47786980D01*
X102113919Y-47781915D01*
X102073641Y-47757495D01*
X101919281Y-47618509D01*
X101913801Y-47614103D01*
X101641852Y-47419407D01*
X101635925Y-47415645D01*
X101343972Y-47252478D01*
X101337646Y-47249392D01*
X101029325Y-47119786D01*
X101022711Y-47117430D01*
X100701848Y-47022996D01*
X100695026Y-47021396D01*
X100365633Y-46963315D01*
X100358664Y-46962484D01*
X100024872Y-46941484D01*
X100017840Y-46941435D01*
X99683774Y-46957772D01*
X99676796Y-46958506D01*
X99346640Y-47011980D01*
X99339772Y-47013490D01*
X99017642Y-47103431D01*
X99010986Y-47105697D01*
X98700885Y-47230985D01*
X98694530Y-47233975D01*
X98400323Y-47393053D01*
X98394334Y-47396737D01*
X98119692Y-47587618D01*
X98114161Y-47591939D01*
X97945104Y-47739937D01*
X97936706Y-47753151D01*
X97942551Y-47762946D01*
X99987188Y-49807583D01*
X100001132Y-49815197D01*
X100002965Y-49815066D01*
X100009580Y-49810815D01*
X101301784Y-48518611D01*
X101364096Y-48484585D01*
X101434911Y-48489650D01*
X101479974Y-48518611D01*
X101480682Y-48519319D01*
X98519319Y-51480682D01*
X98518611Y-51479974D01*
X98484585Y-51417662D01*
X98489650Y-51346847D01*
X98518611Y-51301784D01*
X99807583Y-50012812D01*
X99815197Y-49998868D01*
X99815066Y-49997035D01*
X99810815Y-49990420D01*
X97765327Y-47944932D01*
X97751383Y-47937318D01*
X97751072Y-47937340D01*
X97742406Y-47943191D01*
X97631960Y-48064146D01*
X97627522Y-48069587D01*
X97430939Y-48340162D01*
X97427122Y-48346084D01*
X97261928Y-48636879D01*
X97258798Y-48643184D01*
X97127042Y-48950593D01*
X97124640Y-48957194D01*
X97027973Y-49277368D01*
X97026318Y-49284211D01*
X96965942Y-49613172D01*
X96965063Y-49620134D01*
X96941732Y-49953774D01*
X96941634Y-49960819D01*
X96955639Y-50294971D01*
X96956324Y-50301961D01*
X97007492Y-50632490D01*
X97008952Y-50639357D01*
X97096645Y-50962119D01*
X97098861Y-50968780D01*
X97221982Y-51279750D01*
X97224933Y-51286135D01*
X97381953Y-51581445D01*
X97385587Y-51587446D01*
X97574544Y-51863412D01*
X97578838Y-51868987D01*
X97758145Y-52076715D01*
X97787515Y-52141351D01*
X97777278Y-52211606D01*
X97751859Y-52248141D01*
X97000000Y-53000000D01*
X97000000Y-80000000D01*
X97614500Y-80000000D01*
X97682621Y-80020002D01*
X97729114Y-80073658D01*
X97740500Y-80126000D01*
X97740500Y-83092895D01*
X97743490Y-83118548D01*
X97746703Y-83146117D01*
X97747455Y-83152572D01*
X97760782Y-83208970D01*
X97761353Y-83210852D01*
X97767815Y-83232158D01*
X97767817Y-83232161D01*
X97770186Y-83239973D01*
X97774477Y-83246920D01*
X97805985Y-83297929D01*
X97823396Y-83326117D01*
X97871773Y-83378080D01*
X97873856Y-83379951D01*
X97873861Y-83379956D01*
X97897983Y-83401624D01*
X97906188Y-83408994D01*
X97914319Y-83412884D01*
X97914320Y-83412885D01*
X97972487Y-83440715D01*
X97997524Y-83452694D01*
X98003519Y-83454224D01*
X98003521Y-83454225D01*
X98026554Y-83460104D01*
X98066315Y-83470253D01*
X98111979Y-83477654D01*
X98111484Y-83480711D01*
X98164509Y-83497318D01*
X98210034Y-83551798D01*
X98220501Y-83602079D01*
X98220501Y-83675066D01*
X98233868Y-83742270D01*
X98235266Y-83749301D01*
X98231066Y-83750136D01*
X98236157Y-83797324D01*
X98235172Y-83800680D01*
X98235266Y-83800699D01*
X98220500Y-83874933D01*
X98220501Y-84325066D01*
X98224527Y-84345307D01*
X98235266Y-84399301D01*
X98231066Y-84400136D01*
X98236157Y-84447324D01*
X98235172Y-84450680D01*
X98235266Y-84450699D01*
X98220500Y-84524933D01*
X98220501Y-84975066D01*
X98234479Y-85045345D01*
X98235266Y-85049301D01*
X98231066Y-85050136D01*
X98236157Y-85097324D01*
X98235172Y-85100680D01*
X98235266Y-85100699D01*
X98220500Y-85174933D01*
X98220501Y-85625066D01*
X98232203Y-85683900D01*
X98235266Y-85699301D01*
X98231066Y-85700136D01*
X98236157Y-85747324D01*
X98235172Y-85750680D01*
X98235266Y-85750699D01*
X98220500Y-85824933D01*
X98220501Y-86275066D01*
X98223213Y-86288701D01*
X98232496Y-86335372D01*
X98235266Y-86349301D01*
X98242161Y-86359621D01*
X98242162Y-86359622D01*
X98266234Y-86395648D01*
X98291516Y-86433484D01*
X98375699Y-86489734D01*
X98449933Y-86504500D01*
X98449713Y-86505607D01*
X98509848Y-86529887D01*
X98550860Y-86587840D01*
X98554031Y-86658766D01*
X98539125Y-86692637D01*
X98539376Y-86692765D01*
X98537152Y-86697121D01*
X98536496Y-86698611D01*
X98536048Y-86699283D01*
X98465399Y-86837642D01*
X98460330Y-86851270D01*
X98422999Y-87003830D01*
X98421317Y-87014884D01*
X98421120Y-87018061D01*
X98421000Y-87021939D01*
X98421000Y-87104885D01*
X98425475Y-87120124D01*
X98426865Y-87121329D01*
X98434548Y-87123000D01*
X99151000Y-87123000D01*
X99219121Y-87143002D01*
X99265614Y-87196658D01*
X99277000Y-87249000D01*
X99277000Y-88099772D01*
X99280806Y-88112734D01*
X99295721Y-88114670D01*
X99350011Y-88105341D01*
X99363968Y-88101233D01*
X99506911Y-88040410D01*
X99519544Y-88033204D01*
X99644663Y-87941128D01*
X99655305Y-87931204D01*
X99755885Y-87812813D01*
X99768015Y-87794625D01*
X99770193Y-87796077D01*
X99810572Y-87753394D01*
X99879501Y-87736385D01*
X99946683Y-87759342D01*
X99990789Y-87814976D01*
X100000000Y-87862265D01*
X100000000Y-88874000D01*
X99979998Y-88942121D01*
X99926342Y-88988614D01*
X99874000Y-89000000D01*
X97500000Y-89000000D01*
X97500000Y-89750000D01*
X97749242Y-89750000D01*
X97750751Y-89750009D01*
X97953236Y-89752434D01*
X97964077Y-89753032D01*
X98367826Y-89792798D01*
X98380057Y-89794612D01*
X98777230Y-89873615D01*
X98789217Y-89876617D01*
X99176756Y-89994175D01*
X99188379Y-89998335D01*
X99527846Y-90138946D01*
X99562514Y-90153306D01*
X99573692Y-90158593D01*
X99930826Y-90349486D01*
X99941432Y-90355843D01*
X100278138Y-90580822D01*
X100288070Y-90588188D01*
X100601108Y-90845092D01*
X100610269Y-90853396D01*
X100896604Y-91139731D01*
X100904908Y-91148892D01*
X101161812Y-91461930D01*
X101169178Y-91471862D01*
X101394157Y-91808568D01*
X101400514Y-91819174D01*
X101591407Y-92176308D01*
X101596694Y-92187486D01*
X101751665Y-92561621D01*
X101755825Y-92573244D01*
X101873382Y-92960779D01*
X101876385Y-92972770D01*
X101891725Y-93049888D01*
X101955388Y-93369943D01*
X101957202Y-93382174D01*
X101996968Y-93785923D01*
X101997566Y-93796764D01*
X101999991Y-93999249D01*
X102000000Y-94000758D01*
X102000000Y-101749242D01*
X101999991Y-101750751D01*
X101997566Y-101953236D01*
X101996968Y-101964077D01*
X101957202Y-102367826D01*
X101955388Y-102380057D01*
X101900144Y-102657789D01*
X101876386Y-102777226D01*
X101873383Y-102789217D01*
X101824577Y-102950112D01*
X101755828Y-103176747D01*
X101751665Y-103188379D01*
X101636157Y-103467241D01*
X101596694Y-103562514D01*
X101591407Y-103573692D01*
X101414531Y-103904603D01*
X101400514Y-103930826D01*
X101394157Y-103941432D01*
X101169178Y-104278138D01*
X101161812Y-104288070D01*
X100904908Y-104601108D01*
X100896604Y-104610269D01*
X100610269Y-104896604D01*
X100601108Y-104904908D01*
X100288070Y-105161812D01*
X100278138Y-105169178D01*
X99941432Y-105394157D01*
X99930826Y-105400514D01*
X99573692Y-105591407D01*
X99562513Y-105596694D01*
X99188379Y-105751665D01*
X99176756Y-105755825D01*
X98789217Y-105873383D01*
X98777230Y-105876385D01*
X98423322Y-105946782D01*
X98380057Y-105955388D01*
X98367826Y-105957202D01*
X97964077Y-105996968D01*
X97953236Y-105997566D01*
X97750326Y-105999996D01*
X97750311Y-105999996D01*
X97750000Y-106000000D01*
X97712505Y-106000909D01*
X97672030Y-106001891D01*
X97672029Y-106001891D01*
X97665726Y-106002044D01*
X97659580Y-106003447D01*
X97659578Y-106003447D01*
X97574372Y-106022895D01*
X97501403Y-106039549D01*
X97433214Y-106072387D01*
X97355925Y-106109607D01*
X97355921Y-106109609D01*
X97349545Y-106112680D01*
X97217769Y-106217769D01*
X97112680Y-106349545D01*
X97109609Y-106355921D01*
X97109607Y-106355925D01*
X97076976Y-106423685D01*
X97039549Y-106501403D01*
X97002044Y-106665726D01*
X97000000Y-106750000D01*
X97000000Y-109416140D01*
X96997930Y-109438885D01*
X96965942Y-109613172D01*
X96965063Y-109620134D01*
X96941732Y-109953774D01*
X96941634Y-109960819D01*
X96955639Y-110294971D01*
X96956324Y-110301961D01*
X97007492Y-110632490D01*
X97008952Y-110639357D01*
X97096645Y-110962119D01*
X97098861Y-110968780D01*
X97221982Y-111279750D01*
X97224933Y-111286135D01*
X97381953Y-111581445D01*
X97385587Y-111587446D01*
X97574544Y-111863412D01*
X97578838Y-111868987D01*
X97739606Y-112055238D01*
X97752648Y-112063655D01*
X97762679Y-112057716D01*
X99807583Y-110012812D01*
X99814579Y-110000000D01*
X100000000Y-110000000D01*
X101480682Y-111480682D01*
X101479974Y-111481389D01*
X101417662Y-111515415D01*
X101346847Y-111510350D01*
X101301784Y-111481389D01*
X100012812Y-110192417D01*
X99998868Y-110184803D01*
X99997035Y-110184934D01*
X99990420Y-110189185D01*
X97944937Y-112234668D01*
X97937323Y-112248612D01*
X97937362Y-112249157D01*
X97942964Y-112257517D01*
X98047656Y-112354462D01*
X98053069Y-112358941D01*
X98322285Y-112557424D01*
X98328148Y-112561261D01*
X98617802Y-112728492D01*
X98624071Y-112731659D01*
X98930562Y-112865562D01*
X98937146Y-112868010D01*
X99256647Y-112966912D01*
X99263461Y-112968611D01*
X99592002Y-113031284D01*
X99598951Y-113032211D01*
X99932444Y-113057872D01*
X99939451Y-113058018D01*
X100273713Y-113046346D01*
X100280709Y-113045709D01*
X100611568Y-112996853D01*
X100618467Y-112995437D01*
X100941834Y-112909999D01*
X100948494Y-112907835D01*
X101260329Y-112786882D01*
X101266728Y-112783979D01*
X101563120Y-112629029D01*
X101569165Y-112625426D01*
X101846439Y-112438402D01*
X101852033Y-112434156D01*
X102077970Y-112241869D01*
X102142810Y-112212951D01*
X102212992Y-112223679D01*
X102248728Y-112248728D01*
X103000000Y-113000000D01*
X110501447Y-113000000D01*
X110569568Y-113020002D01*
X110616061Y-113073658D01*
X110627059Y-113135887D01*
X110626000Y-113149341D01*
X110626000Y-113164885D01*
X110630475Y-113180124D01*
X110631865Y-113181329D01*
X110639548Y-113183000D01*
X111577885Y-113183000D01*
X111593124Y-113178526D01*
X111594889Y-113176488D01*
X111654615Y-113138104D01*
X111690114Y-113133000D01*
X112745884Y-113133000D01*
X112761123Y-113128525D01*
X112762328Y-113127135D01*
X112766878Y-113106217D01*
X112769632Y-113106816D01*
X112784001Y-113057879D01*
X112837657Y-113011386D01*
X112889999Y-113000000D01*
X157000000Y-113000000D01*
X157753134Y-112246866D01*
X157815446Y-112212840D01*
X157886261Y-112217905D01*
X157927838Y-112243511D01*
X158047654Y-112354462D01*
X158053065Y-112358938D01*
X158322285Y-112557424D01*
X158328148Y-112561261D01*
X158617802Y-112728492D01*
X158624071Y-112731659D01*
X158930562Y-112865562D01*
X158937146Y-112868010D01*
X159256647Y-112966912D01*
X159263461Y-112968611D01*
X159592002Y-113031284D01*
X159598951Y-113032211D01*
X159932444Y-113057872D01*
X159939451Y-113058018D01*
X160273713Y-113046346D01*
X160280709Y-113045709D01*
X160611568Y-112996853D01*
X160618467Y-112995437D01*
X160941834Y-112909999D01*
X160948494Y-112907835D01*
X161260329Y-112786882D01*
X161266728Y-112783979D01*
X161563120Y-112629029D01*
X161569165Y-112625426D01*
X161846439Y-112438402D01*
X161852033Y-112434156D01*
X162055690Y-112260831D01*
X162064122Y-112247963D01*
X162058093Y-112237698D01*
X160012812Y-110192417D01*
X159998868Y-110184803D01*
X159997035Y-110184934D01*
X159990420Y-110189185D01*
X158698216Y-111481389D01*
X158635904Y-111515415D01*
X158565089Y-111510350D01*
X158520026Y-111481389D01*
X158519319Y-111480682D01*
X161480682Y-108519319D01*
X161481389Y-108520026D01*
X161515415Y-108582338D01*
X161510350Y-108653153D01*
X161481389Y-108698216D01*
X160192417Y-109987188D01*
X160184803Y-110001132D01*
X160184934Y-110002965D01*
X160189185Y-110009580D01*
X162234769Y-112055164D01*
X162248713Y-112062778D01*
X162249492Y-112062723D01*
X162257542Y-112057368D01*
X162340765Y-111968744D01*
X162345301Y-111963338D01*
X162545640Y-111695540D01*
X162549530Y-111689686D01*
X162718774Y-111401215D01*
X162721989Y-111394961D01*
X162858024Y-111089422D01*
X162860521Y-111082847D01*
X162961648Y-110764056D01*
X162963400Y-110757233D01*
X163028361Y-110429155D01*
X163029338Y-110422201D01*
X163057436Y-110087591D01*
X163057650Y-110083222D01*
X163058782Y-110002178D01*
X163058691Y-109997828D01*
X163039945Y-109662546D01*
X163039163Y-109655572D01*
X162983386Y-109325793D01*
X162981828Y-109318939D01*
X162889639Y-108997439D01*
X162887331Y-108990811D01*
X162759874Y-108681576D01*
X162756845Y-108675256D01*
X162595715Y-108382161D01*
X162591990Y-108376199D01*
X162399202Y-108102905D01*
X162394834Y-108097394D01*
X162242174Y-107925448D01*
X162211905Y-107861227D01*
X162221161Y-107790836D01*
X162247302Y-107752698D01*
X163000000Y-107000000D01*
X163000000Y-100686573D01*
X163020002Y-100618452D01*
X163073658Y-100571959D01*
X163125031Y-100560577D01*
X163268814Y-100559471D01*
X163931213Y-100554376D01*
X163999485Y-100573853D01*
X164007691Y-100579504D01*
X164135848Y-100675441D01*
X164149434Y-100687214D01*
X164312786Y-100850566D01*
X164324559Y-100864152D01*
X164463006Y-101049095D01*
X164472725Y-101064218D01*
X164583444Y-101266983D01*
X164590910Y-101283330D01*
X164636050Y-101404355D01*
X164671645Y-101499791D01*
X164676710Y-101517040D01*
X164725818Y-101742786D01*
X164728376Y-101760580D01*
X164742931Y-101964077D01*
X164742971Y-101964639D01*
X164742295Y-101975421D01*
X164742935Y-101975421D01*
X164742935Y-101987828D01*
X164740514Y-102000000D01*
X164742935Y-102012170D01*
X164743079Y-102012894D01*
X164745500Y-102037476D01*
X164745500Y-109962524D01*
X164743079Y-109987103D01*
X164740514Y-110000000D01*
X164742935Y-110012170D01*
X164742935Y-110022599D01*
X164743940Y-110035735D01*
X164727682Y-110408102D01*
X164726724Y-110419051D01*
X164675909Y-110805033D01*
X164674123Y-110818596D01*
X164672215Y-110829413D01*
X164604326Y-111135645D01*
X164584992Y-111222854D01*
X164582147Y-111233471D01*
X164472314Y-111581819D01*
X164460967Y-111617806D01*
X164457211Y-111628128D01*
X164306839Y-111991160D01*
X164302987Y-112000459D01*
X164298345Y-112010412D01*
X164147595Y-112300000D01*
X164112266Y-112367867D01*
X164106770Y-112377387D01*
X163890245Y-112717262D01*
X163883941Y-112726266D01*
X163830180Y-112796329D01*
X163638607Y-113045993D01*
X163631555Y-113054397D01*
X163563629Y-113128525D01*
X163359291Y-113351519D01*
X163351519Y-113359291D01*
X163229980Y-113470662D01*
X163054397Y-113631555D01*
X163045993Y-113638607D01*
X162851123Y-113788135D01*
X162726266Y-113883941D01*
X162717262Y-113890245D01*
X162377387Y-114106770D01*
X162367868Y-114112265D01*
X162010412Y-114298345D01*
X162000468Y-114302983D01*
X161628128Y-114457211D01*
X161617813Y-114460964D01*
X161233472Y-114582147D01*
X161222855Y-114584992D01*
X160829413Y-114672215D01*
X160818604Y-114674122D01*
X160419052Y-114726724D01*
X160408103Y-114727682D01*
X160356412Y-114729939D01*
X160035735Y-114743940D01*
X160022599Y-114742935D01*
X160012170Y-114742935D01*
X160000000Y-114740514D01*
X159987103Y-114743079D01*
X159962524Y-114745500D01*
X100037476Y-114745500D01*
X100012897Y-114743079D01*
X100000000Y-114740514D01*
X99987830Y-114742935D01*
X99977401Y-114742935D01*
X99964265Y-114743940D01*
X99643588Y-114729939D01*
X99591897Y-114727682D01*
X99580948Y-114726724D01*
X99181396Y-114674122D01*
X99170587Y-114672215D01*
X98777145Y-114584992D01*
X98766528Y-114582147D01*
X98382187Y-114460964D01*
X98371872Y-114457211D01*
X97999532Y-114302983D01*
X97989588Y-114298345D01*
X97632132Y-114112265D01*
X97622613Y-114106770D01*
X97282738Y-113890245D01*
X97273734Y-113883941D01*
X97148877Y-113788135D01*
X96954007Y-113638607D01*
X96945603Y-113631555D01*
X96770020Y-113470662D01*
X110626000Y-113470662D01*
X110626775Y-113480508D01*
X110638876Y-113556913D01*
X110644928Y-113575540D01*
X110691869Y-113667667D01*
X110703380Y-113683510D01*
X110776490Y-113756620D01*
X110792333Y-113768131D01*
X110884460Y-113815072D01*
X110903087Y-113821124D01*
X110979492Y-113833225D01*
X110989338Y-113834000D01*
X111054885Y-113834000D01*
X111070124Y-113829525D01*
X111071329Y-113828135D01*
X111073000Y-113820452D01*
X111073000Y-113815885D01*
X111327000Y-113815885D01*
X111331475Y-113831124D01*
X111332865Y-113832329D01*
X111340548Y-113834000D01*
X111410662Y-113834000D01*
X111420508Y-113833225D01*
X111496913Y-113821124D01*
X111515540Y-113815072D01*
X111607667Y-113768131D01*
X111623510Y-113756620D01*
X111640543Y-113739587D01*
X111702855Y-113705561D01*
X111773670Y-113710626D01*
X111803706Y-113726751D01*
X111804364Y-113727229D01*
X111897897Y-113774886D01*
X111916521Y-113780938D01*
X111994103Y-113793225D01*
X112003946Y-113794000D01*
X112054885Y-113794000D01*
X112070124Y-113789525D01*
X112071329Y-113788135D01*
X112073000Y-113780452D01*
X112073000Y-113775884D01*
X112327000Y-113775884D01*
X112331475Y-113791123D01*
X112332865Y-113792328D01*
X112340548Y-113793999D01*
X112396051Y-113793999D01*
X112405900Y-113793224D01*
X112483472Y-113780939D01*
X112502108Y-113774884D01*
X112595642Y-113727226D01*
X112611485Y-113715715D01*
X112685715Y-113641485D01*
X112697226Y-113625642D01*
X112744886Y-113532103D01*
X112750938Y-113513479D01*
X112763225Y-113435897D01*
X112764000Y-113426054D01*
X112764000Y-113405115D01*
X112759525Y-113389876D01*
X112758135Y-113388671D01*
X112750452Y-113387000D01*
X112345115Y-113387000D01*
X112329876Y-113391475D01*
X112328671Y-113392865D01*
X112327000Y-113400548D01*
X112327000Y-113775884D01*
X112073000Y-113775884D01*
X112073000Y-113405115D01*
X112068525Y-113389876D01*
X112067135Y-113388671D01*
X112059452Y-113387000D01*
X111832115Y-113387000D01*
X111816876Y-113391474D01*
X111815111Y-113393512D01*
X111755385Y-113431896D01*
X111719886Y-113437000D01*
X111345115Y-113437000D01*
X111329876Y-113441475D01*
X111328671Y-113442865D01*
X111327000Y-113450548D01*
X111327000Y-113815885D01*
X111073000Y-113815885D01*
X111073000Y-113455115D01*
X111068525Y-113439876D01*
X111067135Y-113438671D01*
X111059452Y-113437000D01*
X110644115Y-113437000D01*
X110628876Y-113441475D01*
X110627671Y-113442865D01*
X110626000Y-113450548D01*
X110626000Y-113470662D01*
X96770020Y-113470662D01*
X96648481Y-113359291D01*
X96640709Y-113351519D01*
X96436371Y-113128525D01*
X96368445Y-113054397D01*
X96361393Y-113045993D01*
X96169820Y-112796329D01*
X96116059Y-112726266D01*
X96109755Y-112717262D01*
X95893230Y-112377387D01*
X95887734Y-112367867D01*
X95852405Y-112300000D01*
X95701655Y-112010412D01*
X95697013Y-112000459D01*
X95693162Y-111991160D01*
X95542789Y-111628128D01*
X95539033Y-111617806D01*
X95527687Y-111581819D01*
X95417853Y-111233471D01*
X95415008Y-111222854D01*
X95395674Y-111135645D01*
X95327785Y-110829413D01*
X95325877Y-110818596D01*
X95324092Y-110805033D01*
X95273276Y-110419051D01*
X95272318Y-110408102D01*
X95256060Y-110035735D01*
X95257065Y-110022599D01*
X95257065Y-110012170D01*
X95259486Y-110000000D01*
X95256921Y-109987103D01*
X95254500Y-109962524D01*
X95254500Y-106787476D01*
X95256921Y-106762894D01*
X95257065Y-106762170D01*
X95259486Y-106750000D01*
X95257065Y-106737828D01*
X95257065Y-106725420D01*
X95257385Y-106725420D01*
X95256645Y-106714544D01*
X95270412Y-106486943D01*
X95272246Y-106471839D01*
X95318376Y-106220115D01*
X95322017Y-106205342D01*
X95331493Y-106174933D01*
X95398156Y-105961004D01*
X95403550Y-105946782D01*
X95404822Y-105943957D01*
X95508580Y-105713414D01*
X95515650Y-105699943D01*
X95648049Y-105480931D01*
X95656692Y-105468410D01*
X95814519Y-105266957D01*
X95824609Y-105255568D01*
X96005568Y-105074609D01*
X96016957Y-105064519D01*
X96218410Y-104906692D01*
X96230931Y-104898049D01*
X96449943Y-104765650D01*
X96463416Y-104758579D01*
X96696786Y-104653549D01*
X96711004Y-104648156D01*
X96955342Y-104572017D01*
X96970115Y-104568376D01*
X97221839Y-104522246D01*
X97236943Y-104520412D01*
X97464544Y-104506645D01*
X97475420Y-104507385D01*
X97475420Y-104507065D01*
X97487828Y-104507065D01*
X97500000Y-104509486D01*
X97504525Y-104508586D01*
X97808892Y-104491493D01*
X98113900Y-104439670D01*
X98390440Y-104360000D01*
X98407789Y-104355002D01*
X98407790Y-104355002D01*
X98411187Y-104354023D01*
X98445119Y-104339968D01*
X98693748Y-104236983D01*
X98693753Y-104236980D01*
X98697016Y-104235629D01*
X98967791Y-104085977D01*
X99220109Y-103906948D01*
X99450794Y-103700794D01*
X99656948Y-103470109D01*
X99835977Y-103217791D01*
X99985629Y-102947016D01*
X99990874Y-102934355D01*
X100102669Y-102664456D01*
X100102669Y-102664455D01*
X100104023Y-102661187D01*
X100189670Y-102363900D01*
X100241493Y-102058892D01*
X100258586Y-101754525D01*
X100259486Y-101750000D01*
X100256921Y-101737103D01*
X100254500Y-101712524D01*
X100254500Y-94287476D01*
X100256921Y-94262894D01*
X100259486Y-94250000D01*
X100258586Y-94245475D01*
X100241493Y-93941108D01*
X100189670Y-93636100D01*
X100104023Y-93338813D01*
X100052388Y-93214154D01*
X99986983Y-93056252D01*
X99986980Y-93056247D01*
X99985629Y-93052984D01*
X99835977Y-92782209D01*
X99671963Y-92551052D01*
X99658983Y-92532759D01*
X99658983Y-92532758D01*
X99656948Y-92529891D01*
X99450794Y-92299206D01*
X99220109Y-92093052D01*
X99209108Y-92085246D01*
X98977781Y-91921111D01*
X98967791Y-91914023D01*
X98776984Y-91808568D01*
X98700112Y-91766082D01*
X98700111Y-91766081D01*
X98697016Y-91764371D01*
X98693753Y-91763020D01*
X98693748Y-91763017D01*
X98414456Y-91647331D01*
X98414455Y-91647331D01*
X98411187Y-91645977D01*
X98113900Y-91560330D01*
X97808892Y-91508507D01*
X97504525Y-91491414D01*
X97500000Y-91490514D01*
X97487828Y-91492935D01*
X97475420Y-91492935D01*
X97475420Y-91492615D01*
X97464544Y-91493355D01*
X97236943Y-91479588D01*
X97221839Y-91477754D01*
X96970115Y-91431624D01*
X96955342Y-91427983D01*
X96887838Y-91406948D01*
X96711004Y-91351844D01*
X96696786Y-91346451D01*
X96463414Y-91241420D01*
X96449943Y-91234350D01*
X96230931Y-91101951D01*
X96218410Y-91093308D01*
X96016957Y-90935481D01*
X96005568Y-90925391D01*
X95824609Y-90744432D01*
X95814519Y-90733043D01*
X95811743Y-90729499D01*
X95745794Y-90645321D01*
X95656692Y-90531590D01*
X95648049Y-90519069D01*
X95515650Y-90300057D01*
X95508579Y-90286584D01*
X95440246Y-90134754D01*
X95403549Y-90053214D01*
X95398154Y-90038991D01*
X95384099Y-89993885D01*
X95322017Y-89794658D01*
X95318376Y-89779885D01*
X95272246Y-89528161D01*
X95270412Y-89513057D01*
X95256645Y-89285456D01*
X95257385Y-89274580D01*
X95257065Y-89274580D01*
X95257065Y-89262172D01*
X95259486Y-89250000D01*
X95256921Y-89237103D01*
X95254500Y-89212524D01*
X95254500Y-88616078D01*
X95274502Y-88547957D01*
X95328158Y-88501464D01*
X95398432Y-88491360D01*
X95463012Y-88520854D01*
X95492466Y-88558289D01*
X95534141Y-88639033D01*
X95542616Y-88651505D01*
X95643846Y-88767547D01*
X95655060Y-88777644D01*
X95781041Y-88866185D01*
X95794345Y-88873318D01*
X95937813Y-88929253D01*
X95952418Y-88933003D01*
X96069839Y-88948462D01*
X96078048Y-88949000D01*
X96304885Y-88949000D01*
X96320124Y-88944525D01*
X96321329Y-88943135D01*
X96323000Y-88935452D01*
X96323000Y-88930885D01*
X96577000Y-88930885D01*
X96581475Y-88946124D01*
X96582865Y-88947329D01*
X96590548Y-88949000D01*
X96818637Y-88949000D01*
X96826192Y-88948544D01*
X96940420Y-88934721D01*
X96955062Y-88931125D01*
X97099119Y-88876690D01*
X97112480Y-88869705D01*
X97239393Y-88782481D01*
X97250705Y-88772508D01*
X97353146Y-88657531D01*
X97361754Y-88645145D01*
X97433811Y-88509053D01*
X97439216Y-88494973D01*
X97464436Y-88394571D01*
X97463879Y-88380480D01*
X97455387Y-88377000D01*
X96595115Y-88377000D01*
X96579876Y-88381475D01*
X96578671Y-88382865D01*
X96577000Y-88390548D01*
X96577000Y-88930885D01*
X96323000Y-88930885D01*
X96323000Y-88104885D01*
X96577000Y-88104885D01*
X96581475Y-88120124D01*
X96582865Y-88121329D01*
X96590548Y-88123000D01*
X97460885Y-88123000D01*
X97476124Y-88118525D01*
X97477329Y-88117135D01*
X97479000Y-88109452D01*
X97479000Y-87795115D01*
X97474525Y-87779876D01*
X97473135Y-87778671D01*
X97465452Y-87777000D01*
X96595115Y-87777000D01*
X96579876Y-87781475D01*
X96578671Y-87782865D01*
X96577000Y-87790548D01*
X96577000Y-88104885D01*
X96323000Y-88104885D01*
X96323000Y-87504885D01*
X96577000Y-87504885D01*
X96581475Y-87520124D01*
X96582865Y-87521329D01*
X96590548Y-87523000D01*
X97460884Y-87523000D01*
X97476123Y-87518525D01*
X97477328Y-87517135D01*
X97478999Y-87509452D01*
X97478999Y-87438906D01*
X98421000Y-87438906D01*
X98421424Y-87446207D01*
X98434875Y-87561575D01*
X98438221Y-87575730D01*
X98491227Y-87721760D01*
X98497737Y-87734759D01*
X98582917Y-87864680D01*
X98592241Y-87875832D01*
X98705023Y-87982671D01*
X98716670Y-87991384D01*
X98851004Y-88069412D01*
X98864341Y-88075211D01*
X99011777Y-88119865D01*
X99020268Y-88117935D01*
X99023000Y-88107020D01*
X99023000Y-87395115D01*
X99018525Y-87379876D01*
X99017135Y-87378671D01*
X99009452Y-87377000D01*
X98439115Y-87377000D01*
X98423876Y-87381475D01*
X98422671Y-87382865D01*
X98421000Y-87390548D01*
X98421000Y-87438906D01*
X97478999Y-87438906D01*
X97478999Y-87031172D01*
X97477791Y-87018912D01*
X97466685Y-86963069D01*
X97457367Y-86940573D01*
X97415017Y-86877192D01*
X97401920Y-86864095D01*
X97367894Y-86801783D01*
X97372959Y-86730968D01*
X97401920Y-86685905D01*
X97415017Y-86672808D01*
X97457368Y-86609425D01*
X97466684Y-86586934D01*
X97477793Y-86531085D01*
X97479000Y-86518830D01*
X97479000Y-85895115D01*
X97474525Y-85879876D01*
X97473135Y-85878671D01*
X97465452Y-85877000D01*
X96595115Y-85877000D01*
X96579876Y-85881475D01*
X96578671Y-85882865D01*
X96577000Y-85890548D01*
X96577000Y-86735882D01*
X96577145Y-86736376D01*
X96579369Y-86798654D01*
X96577000Y-86809545D01*
X96577000Y-87504885D01*
X96323000Y-87504885D01*
X96323000Y-86814118D01*
X96322855Y-86813624D01*
X96320631Y-86751346D01*
X96323000Y-86740455D01*
X96323000Y-85604885D01*
X96577000Y-85604885D01*
X96581475Y-85620124D01*
X96582865Y-85621329D01*
X96590548Y-85623000D01*
X97460884Y-85623000D01*
X97476123Y-85618525D01*
X97477328Y-85617135D01*
X97478999Y-85609452D01*
X97478999Y-84981172D01*
X97477791Y-84968912D01*
X97466685Y-84913069D01*
X97457367Y-84890573D01*
X97410213Y-84820002D01*
X97388998Y-84752249D01*
X97410213Y-84679998D01*
X97457368Y-84609426D01*
X97466684Y-84586934D01*
X97477793Y-84531085D01*
X97479000Y-84518830D01*
X97479000Y-83895115D01*
X97474525Y-83879876D01*
X97473135Y-83878671D01*
X97465452Y-83877000D01*
X96595115Y-83877000D01*
X96579876Y-83881475D01*
X96578671Y-83882865D01*
X96577000Y-83890548D01*
X96577000Y-85604885D01*
X96323000Y-85604885D01*
X96323000Y-83604885D01*
X96577000Y-83604885D01*
X96581475Y-83620124D01*
X96582865Y-83621329D01*
X96590548Y-83623000D01*
X97460884Y-83623000D01*
X97476123Y-83618525D01*
X97477328Y-83617135D01*
X97478999Y-83609452D01*
X97478999Y-82981172D01*
X97477791Y-82968912D01*
X97466685Y-82913069D01*
X97457367Y-82890573D01*
X97415017Y-82827192D01*
X97401920Y-82814095D01*
X97367894Y-82751783D01*
X97372959Y-82680968D01*
X97401920Y-82635905D01*
X97415017Y-82622808D01*
X97457368Y-82559425D01*
X97466684Y-82536934D01*
X97477793Y-82481085D01*
X97479000Y-82468830D01*
X97479000Y-81995115D01*
X97474525Y-81979876D01*
X97473135Y-81978671D01*
X97465452Y-81977000D01*
X96595115Y-81977000D01*
X96579876Y-81981475D01*
X96578671Y-81982865D01*
X96577000Y-81990548D01*
X96577000Y-82685882D01*
X96577145Y-82686376D01*
X96579369Y-82748654D01*
X96577000Y-82759545D01*
X96577000Y-83604885D01*
X96323000Y-83604885D01*
X96323000Y-82764118D01*
X96322855Y-82763624D01*
X96320631Y-82701346D01*
X96323000Y-82690455D01*
X96323000Y-81704885D01*
X96577000Y-81704885D01*
X96581475Y-81720124D01*
X96582865Y-81721329D01*
X96590548Y-81723000D01*
X97460884Y-81723000D01*
X97476123Y-81718525D01*
X97477328Y-81717135D01*
X97478999Y-81709452D01*
X97478999Y-81395115D01*
X97474524Y-81379876D01*
X97473134Y-81378671D01*
X97465451Y-81377000D01*
X96595115Y-81377000D01*
X96579876Y-81381475D01*
X96578671Y-81382865D01*
X96577000Y-81390548D01*
X96577000Y-81704885D01*
X96323000Y-81704885D01*
X96323000Y-81104885D01*
X96577000Y-81104885D01*
X96581475Y-81120124D01*
X96582865Y-81121329D01*
X96590548Y-81123000D01*
X97450293Y-81123000D01*
X97463824Y-81119027D01*
X97465184Y-81109569D01*
X97441746Y-81011948D01*
X97436487Y-80997807D01*
X97365859Y-80860967D01*
X97357384Y-80848495D01*
X97256154Y-80732453D01*
X97244940Y-80722356D01*
X97118959Y-80633815D01*
X97105655Y-80626682D01*
X96962187Y-80570747D01*
X96947582Y-80566997D01*
X96830161Y-80551538D01*
X96821952Y-80551000D01*
X96595115Y-80551000D01*
X96579876Y-80555475D01*
X96578671Y-80556865D01*
X96577000Y-80564548D01*
X96577000Y-81104885D01*
X96323000Y-81104885D01*
X96323000Y-80569115D01*
X96318525Y-80553876D01*
X96317135Y-80552671D01*
X96309452Y-80551000D01*
X96081363Y-80551000D01*
X96073808Y-80551456D01*
X95959580Y-80565279D01*
X95944938Y-80568875D01*
X95800881Y-80623310D01*
X95787520Y-80630295D01*
X95660607Y-80717519D01*
X95649295Y-80727492D01*
X95546854Y-80842469D01*
X95538246Y-80854855D01*
X95491854Y-80942474D01*
X95442301Y-80993317D01*
X95373127Y-81009299D01*
X95306293Y-80985345D01*
X95263020Y-80929061D01*
X95254500Y-80883515D01*
X95254500Y-50037476D01*
X95256921Y-50012894D01*
X95259486Y-50000000D01*
X95257065Y-49987830D01*
X95257065Y-49977401D01*
X95256060Y-49964265D01*
X95272318Y-49591898D01*
X95273276Y-49580948D01*
X95275281Y-49565716D01*
X95325878Y-49181396D01*
X95327786Y-49170579D01*
X95338323Y-49123052D01*
X95415008Y-48777145D01*
X95417853Y-48766528D01*
X95446631Y-48675256D01*
X95539036Y-48382187D01*
X95542792Y-48371865D01*
X95697017Y-47999532D01*
X95701659Y-47989579D01*
X95725808Y-47943191D01*
X95887735Y-47632132D01*
X95893230Y-47622613D01*
X95898652Y-47614103D01*
X96109755Y-47282738D01*
X96116059Y-47273734D01*
X96235995Y-47117430D01*
X96361393Y-46954007D01*
X96368445Y-46945603D01*
X96529485Y-46769860D01*
X96640709Y-46648481D01*
X96648481Y-46640709D01*
X96869499Y-46438182D01*
X96945603Y-46368445D01*
X96954007Y-46361393D01*
X97273734Y-46116059D01*
X97282738Y-46109755D01*
X97622613Y-45893230D01*
X97632133Y-45887734D01*
X97704781Y-45849916D01*
X97989588Y-45701655D01*
X97999532Y-45697017D01*
X98371872Y-45542789D01*
X98382187Y-45539036D01*
X98766529Y-45417853D01*
X98777146Y-45415008D01*
X99170587Y-45327785D01*
X99181396Y-45325878D01*
X99580949Y-45273276D01*
X99591897Y-45272318D01*
X99643588Y-45270061D01*
X99964265Y-45256060D01*
X99977401Y-45257065D01*
X99987830Y-45257065D01*
X100000000Y-45259486D01*
X100012897Y-45256921D01*
X100037476Y-45254500D01*
X159962524Y-45254500D01*
X159987103Y-45256921D01*
G37*
G04 #@! TD.AperFunction*
G04 #@! TA.AperFunction,Conductor*
G36*
X102702460Y-78020002D02*
G01*
X102723434Y-78036905D01*
X103053323Y-78366794D01*
X103060865Y-78376234D01*
X103061245Y-78375911D01*
X103067063Y-78382747D01*
X103071853Y-78390339D01*
X103078581Y-78396281D01*
X103111859Y-78425671D01*
X103117546Y-78431017D01*
X103128880Y-78442351D01*
X103132466Y-78445038D01*
X103132471Y-78445043D01*
X103137159Y-78448557D01*
X103144997Y-78454938D01*
X103180170Y-78486001D01*
X103188295Y-78489816D01*
X103191116Y-78491669D01*
X103205112Y-78500077D01*
X103208050Y-78501686D01*
X103215236Y-78507071D01*
X103223641Y-78510222D01*
X103223643Y-78510223D01*
X103259178Y-78523544D01*
X103268492Y-78527468D01*
X103310982Y-78547417D01*
X103319853Y-78548798D01*
X103323075Y-78549783D01*
X103338858Y-78553923D01*
X103342142Y-78554645D01*
X103350552Y-78557798D01*
X103397357Y-78561276D01*
X103407397Y-78562429D01*
X103413666Y-78563405D01*
X103415886Y-78563751D01*
X103415887Y-78563751D01*
X103420697Y-78564500D01*
X103436066Y-78564500D01*
X103445404Y-78564847D01*
X103485716Y-78567843D01*
X103485717Y-78567843D01*
X103494667Y-78568508D01*
X103503442Y-78566635D01*
X103512126Y-78566043D01*
X103526742Y-78564500D01*
X104374000Y-78564500D01*
X104442121Y-78584502D01*
X104488614Y-78638158D01*
X104500000Y-78690500D01*
X104500000Y-79125165D01*
X104479998Y-79193286D01*
X104470529Y-79206147D01*
X104417163Y-79269745D01*
X104322262Y-79442371D01*
X104320398Y-79448246D01*
X104320397Y-79448249D01*
X104310851Y-79478342D01*
X104262697Y-79630142D01*
X104240738Y-79825907D01*
X104241254Y-79832051D01*
X104243891Y-79863457D01*
X104229659Y-79933013D01*
X104180082Y-79983832D01*
X104118333Y-80000000D01*
X102422318Y-80000000D01*
X102354197Y-79979998D01*
X102307704Y-79926342D01*
X102298083Y-79859424D01*
X102297305Y-79859340D01*
X102297634Y-79856307D01*
X102297600Y-79856068D01*
X102297741Y-79855328D01*
X102303631Y-79801108D01*
X102304000Y-79794294D01*
X102304000Y-79570115D01*
X102299525Y-79554876D01*
X102298135Y-79553671D01*
X102290452Y-79552000D01*
X101349000Y-79552000D01*
X101280879Y-79531998D01*
X101234386Y-79478342D01*
X101223000Y-79426000D01*
X101223000Y-79279885D01*
X101477000Y-79279885D01*
X101481475Y-79295124D01*
X101482865Y-79296329D01*
X101490548Y-79298000D01*
X102285884Y-79298000D01*
X102301123Y-79293525D01*
X102302328Y-79292135D01*
X102303999Y-79284452D01*
X102303999Y-79055708D01*
X102303630Y-79048890D01*
X102298159Y-78998518D01*
X102294530Y-78983259D01*
X102249778Y-78863882D01*
X102241246Y-78848296D01*
X102165428Y-78747133D01*
X102152867Y-78734572D01*
X102051704Y-78658754D01*
X102036118Y-78650222D01*
X101916735Y-78605467D01*
X101901490Y-78601842D01*
X101851108Y-78596369D01*
X101844294Y-78596000D01*
X101495115Y-78596000D01*
X101479876Y-78600475D01*
X101478671Y-78601865D01*
X101477000Y-78609548D01*
X101477000Y-79279885D01*
X101223000Y-79279885D01*
X101223000Y-78614116D01*
X101218525Y-78598877D01*
X101217135Y-78597672D01*
X101209452Y-78596001D01*
X100855708Y-78596001D01*
X100848890Y-78596370D01*
X100798518Y-78601841D01*
X100783259Y-78605470D01*
X100670229Y-78647842D01*
X100599422Y-78653025D01*
X100537053Y-78619104D01*
X100502924Y-78556848D01*
X100500000Y-78529860D01*
X100500000Y-78126000D01*
X100520002Y-78057879D01*
X100573658Y-78011386D01*
X100626000Y-78000000D01*
X102634339Y-78000000D01*
X102702460Y-78020002D01*
G37*
G04 #@! TD.AperFunction*
G04 #@! TA.AperFunction,Conductor*
G36*
X100461947Y-80020002D02*
G01*
X100494652Y-80050435D01*
X100539596Y-80110404D01*
X100546776Y-80115785D01*
X100648054Y-80191689D01*
X100648057Y-80191691D01*
X100655236Y-80197071D01*
X100722621Y-80222332D01*
X100783157Y-80245026D01*
X100783159Y-80245026D01*
X100790552Y-80247798D01*
X100798402Y-80248651D01*
X100798403Y-80248651D01*
X100848847Y-80254131D01*
X100852244Y-80254500D01*
X101847756Y-80254500D01*
X101851153Y-80254131D01*
X101901597Y-80248651D01*
X101901598Y-80248651D01*
X101909448Y-80247798D01*
X101916841Y-80245026D01*
X101916843Y-80245026D01*
X101977379Y-80222332D01*
X102044764Y-80197071D01*
X102053813Y-80190289D01*
X102055983Y-80189478D01*
X102059821Y-80187377D01*
X102060124Y-80187931D01*
X102120319Y-80165442D01*
X102189702Y-80180495D01*
X102189844Y-80180584D01*
X102191369Y-80182056D01*
X102281088Y-80228987D01*
X102287024Y-80230730D01*
X102344886Y-80247720D01*
X102344890Y-80247721D01*
X102349209Y-80248989D01*
X102353657Y-80249629D01*
X102353664Y-80249630D01*
X102417870Y-80258861D01*
X102417877Y-80258861D01*
X102422318Y-80259500D01*
X103874000Y-80259500D01*
X103942121Y-80279502D01*
X103988614Y-80333158D01*
X104000000Y-80385500D01*
X104000000Y-83374000D01*
X103979998Y-83442121D01*
X103926342Y-83488614D01*
X103874000Y-83500000D01*
X103791028Y-83500000D01*
X103722907Y-83479998D01*
X103701933Y-83463095D01*
X103641405Y-83402567D01*
X103607379Y-83340255D01*
X103604500Y-83313472D01*
X103604500Y-82768166D01*
X103589498Y-82673445D01*
X103531326Y-82559277D01*
X103440723Y-82468674D01*
X103326555Y-82410502D01*
X103231834Y-82395500D01*
X102868166Y-82395500D01*
X102773445Y-82410502D01*
X102717648Y-82438932D01*
X102668110Y-82464173D01*
X102668109Y-82464174D01*
X102659277Y-82468674D01*
X102652266Y-82475685D01*
X102648631Y-82478326D01*
X102581764Y-82502185D01*
X102512612Y-82486106D01*
X102500505Y-82478325D01*
X102481589Y-82464581D01*
X102385232Y-82415485D01*
X102366608Y-82409433D01*
X102286685Y-82396775D01*
X102276842Y-82396000D01*
X102223434Y-82396000D01*
X102155313Y-82375998D01*
X102108820Y-82322342D01*
X102098716Y-82252068D01*
X102128210Y-82187488D01*
X102147868Y-82169174D01*
X102152869Y-82165426D01*
X102165428Y-82152867D01*
X102241246Y-82051704D01*
X102249778Y-82036118D01*
X102294533Y-81916735D01*
X102298158Y-81901490D01*
X102303631Y-81851108D01*
X102304000Y-81844294D01*
X102304000Y-81620115D01*
X102299525Y-81604876D01*
X102298135Y-81603671D01*
X102290452Y-81602000D01*
X100414116Y-81602000D01*
X100398877Y-81606475D01*
X100397672Y-81607865D01*
X100396001Y-81615548D01*
X100396001Y-81844292D01*
X100396370Y-81851110D01*
X100401841Y-81901482D01*
X100405470Y-81916741D01*
X100450222Y-82036118D01*
X100458754Y-82051704D01*
X100534572Y-82152867D01*
X100547133Y-82165428D01*
X100648296Y-82241246D01*
X100663878Y-82249776D01*
X100709229Y-82266777D01*
X100765994Y-82309418D01*
X100790695Y-82375980D01*
X100775488Y-82445329D01*
X100754096Y-82473855D01*
X100668674Y-82559277D01*
X100610502Y-82673445D01*
X100595500Y-82768166D01*
X100595500Y-83313471D01*
X100575498Y-83381592D01*
X100558595Y-83402566D01*
X100498066Y-83463095D01*
X100435754Y-83497121D01*
X100408971Y-83500000D01*
X100193905Y-83500000D01*
X100125784Y-83479998D01*
X100125652Y-83479845D01*
X100114648Y-83500000D01*
X100000000Y-83500000D01*
X100000000Y-83577000D01*
X99149000Y-83577000D01*
X99080879Y-83556998D01*
X99034386Y-83503342D01*
X99023000Y-83451000D01*
X99023000Y-83449000D01*
X99043002Y-83380879D01*
X99096658Y-83334386D01*
X99149000Y-83323000D01*
X100004094Y-83323000D01*
X100071732Y-83342860D01*
X100078999Y-83309453D01*
X100078999Y-83231172D01*
X100077791Y-83218912D01*
X100066685Y-83163069D01*
X100057367Y-83140573D01*
X100015017Y-83077192D01*
X99997808Y-83059983D01*
X99934425Y-83017632D01*
X99911934Y-83008316D01*
X99850017Y-82996000D01*
X99850254Y-82994810D01*
X99790393Y-82970634D01*
X99749386Y-82912677D01*
X99746224Y-82841751D01*
X99761247Y-82807619D01*
X99761042Y-82807514D01*
X99762864Y-82803945D01*
X99838402Y-82656014D01*
X99878834Y-82490781D01*
X99879500Y-82480046D01*
X99879500Y-82057405D01*
X99864767Y-81931036D01*
X99854043Y-81901490D01*
X99809223Y-81778015D01*
X99806726Y-81771136D01*
X99713457Y-81628877D01*
X99589962Y-81511890D01*
X99583635Y-81508215D01*
X99583631Y-81508212D01*
X99449198Y-81430128D01*
X99442868Y-81426451D01*
X99435864Y-81424330D01*
X99435860Y-81424328D01*
X99287069Y-81379264D01*
X99287070Y-81379264D01*
X99280063Y-81377142D01*
X99110281Y-81366609D01*
X99103065Y-81367849D01*
X99103063Y-81367849D01*
X98949846Y-81394177D01*
X98942630Y-81395417D01*
X98786102Y-81462020D01*
X98780214Y-81466353D01*
X98780209Y-81466356D01*
X98654994Y-81558504D01*
X98654990Y-81558508D01*
X98649095Y-81562846D01*
X98538958Y-81692486D01*
X98461598Y-81843986D01*
X98459859Y-81851091D01*
X98459858Y-81851095D01*
X98443795Y-81916741D01*
X98421166Y-82009219D01*
X98420500Y-82019954D01*
X98420500Y-82442595D01*
X98430879Y-82531615D01*
X98434104Y-82559277D01*
X98435233Y-82568964D01*
X98437729Y-82575841D01*
X98437730Y-82575844D01*
X98490777Y-82721985D01*
X98493274Y-82728864D01*
X98541414Y-82802290D01*
X98562037Y-82870224D01*
X98542657Y-82938524D01*
X98489428Y-82985505D01*
X98448396Y-82996767D01*
X98443911Y-82997209D01*
X98388069Y-83008315D01*
X98365573Y-83017633D01*
X98302192Y-83059983D01*
X98284983Y-83077192D01*
X98242631Y-83140576D01*
X98242408Y-83141115D01*
X98241607Y-83142109D01*
X98235737Y-83150894D01*
X98234951Y-83150369D01*
X98197859Y-83196395D01*
X98130495Y-83218815D01*
X98061704Y-83201256D01*
X98013327Y-83149293D01*
X98000000Y-83092895D01*
X98000000Y-81329885D01*
X100396000Y-81329885D01*
X100400475Y-81345124D01*
X100401865Y-81346329D01*
X100409548Y-81348000D01*
X101204885Y-81348000D01*
X101220124Y-81343525D01*
X101221329Y-81342135D01*
X101223000Y-81334452D01*
X101223000Y-81329885D01*
X101477000Y-81329885D01*
X101481475Y-81345124D01*
X101482865Y-81346329D01*
X101490548Y-81348000D01*
X102285884Y-81348000D01*
X102301123Y-81343525D01*
X102302328Y-81342135D01*
X102303999Y-81334452D01*
X102303999Y-81105708D01*
X102303630Y-81098890D01*
X102298159Y-81048518D01*
X102294530Y-81033259D01*
X102249778Y-80913882D01*
X102241246Y-80898296D01*
X102165428Y-80797133D01*
X102152867Y-80784572D01*
X102051704Y-80708754D01*
X102036118Y-80700222D01*
X101916735Y-80655467D01*
X101901490Y-80651842D01*
X101851108Y-80646369D01*
X101844294Y-80646000D01*
X101495115Y-80646000D01*
X101479876Y-80650475D01*
X101478671Y-80651865D01*
X101477000Y-80659548D01*
X101477000Y-81329885D01*
X101223000Y-81329885D01*
X101223000Y-80664116D01*
X101218525Y-80648877D01*
X101217135Y-80647672D01*
X101209452Y-80646001D01*
X100855708Y-80646001D01*
X100848890Y-80646370D01*
X100798518Y-80651841D01*
X100783259Y-80655470D01*
X100663882Y-80700222D01*
X100648296Y-80708754D01*
X100547133Y-80784572D01*
X100534572Y-80797133D01*
X100458754Y-80898296D01*
X100450222Y-80913882D01*
X100405467Y-81033265D01*
X100401842Y-81048510D01*
X100396369Y-81098892D01*
X100396000Y-81105706D01*
X100396000Y-81329885D01*
X98000000Y-81329885D01*
X98000000Y-80126000D01*
X98020002Y-80057879D01*
X98073658Y-80011386D01*
X98126000Y-80000000D01*
X100393826Y-80000000D01*
X100461947Y-80020002D01*
G37*
G04 #@! TD.AperFunction*
M02*
