G04 #@! TF.GenerationSoftware,KiCad,Pcbnew,(6.0.10)*
G04 #@! TF.CreationDate,2023-01-06T16:36:23-08:00*
G04 #@! TF.ProjectId,ai-camera,61692d63-616d-4657-9261-2e6b69636164,rev?*
G04 #@! TF.SameCoordinates,Original*
G04 #@! TF.FileFunction,Legend,Top*
G04 #@! TF.FilePolarity,Positive*
%FSLAX46Y46*%
G04 Gerber Fmt 4.6, Leading zero omitted, Abs format (unit mm)*
G04 Created by KiCad (PCBNEW (6.0.10)) date 2023-01-06 16:36:23*
%MOMM*%
%LPD*%
G01*
G04 APERTURE LIST*
G04 Aperture macros list*
%AMRoundRect*
0 Rectangle with rounded corners*
0 $1 Rounding radius*
0 $2 $3 $4 $5 $6 $7 $8 $9 X,Y pos of 4 corners*
0 Add a 4 corners polygon primitive as box body*
4,1,4,$2,$3,$4,$5,$6,$7,$8,$9,$2,$3,0*
0 Add four circle primitives for the rounded corners*
1,1,$1+$1,$2,$3*
1,1,$1+$1,$4,$5*
1,1,$1+$1,$6,$7*
1,1,$1+$1,$8,$9*
0 Add four rect primitives between the rounded corners*
20,1,$1+$1,$2,$3,$4,$5,0*
20,1,$1+$1,$4,$5,$6,$7,0*
20,1,$1+$1,$6,$7,$8,$9,0*
20,1,$1+$1,$8,$9,$2,$3,0*%
G04 Aperture macros list end*
%ADD10C,0.177800*%
%ADD11C,0.150000*%
%ADD12C,0.120000*%
%ADD13C,0.100000*%
%ADD14C,5.600000*%
%ADD15C,3.600000*%
%ADD16C,1.500000*%
%ADD17C,4.000000*%
%ADD18RoundRect,0.135000X-0.185000X0.135000X-0.185000X-0.135000X0.185000X-0.135000X0.185000X0.135000X0*%
%ADD19R,1.000000X1.700000*%
%ADD20RoundRect,0.250000X0.450000X-0.325000X0.450000X0.325000X-0.450000X0.325000X-0.450000X-0.325000X0*%
%ADD21RoundRect,0.140000X0.140000X0.170000X-0.140000X0.170000X-0.140000X-0.170000X0.140000X-0.170000X0*%
%ADD22RoundRect,0.218750X0.218750X0.256250X-0.218750X0.256250X-0.218750X-0.256250X0.218750X-0.256250X0*%
%ADD23RoundRect,0.135000X-0.135000X-0.185000X0.135000X-0.185000X0.135000X0.185000X-0.135000X0.185000X0*%
%ADD24RoundRect,0.218750X-0.218750X-0.256250X0.218750X-0.256250X0.218750X0.256250X-0.218750X0.256250X0*%
%ADD25C,1.700000*%
%ADD26RoundRect,0.250000X-0.625000X0.350000X-0.625000X-0.350000X0.625000X-0.350000X0.625000X0.350000X0*%
%ADD27O,1.750000X1.200000*%
%ADD28RoundRect,0.140000X-0.140000X-0.170000X0.140000X-0.170000X0.140000X0.170000X-0.140000X0.170000X0*%
%ADD29RoundRect,0.075000X0.512500X0.075000X-0.512500X0.075000X-0.512500X-0.075000X0.512500X-0.075000X0*%
%ADD30RoundRect,0.150000X0.150000X-0.512500X0.150000X0.512500X-0.150000X0.512500X-0.150000X-0.512500X0*%
%ADD31RoundRect,0.140000X-0.170000X0.140000X-0.170000X-0.140000X0.170000X-0.140000X0.170000X0.140000X0*%
%ADD32C,1.440000*%
%ADD33R,0.300000X1.300000*%
%ADD34R,1.800000X2.200000*%
%ADD35RoundRect,0.135000X0.185000X-0.135000X0.185000X0.135000X-0.185000X0.135000X-0.185000X-0.135000X0*%
%ADD36C,0.800000*%
%ADD37R,1.350000X0.400000*%
%ADD38R,1.550000X1.500000*%
%ADD39R,1.550000X1.200000*%
%ADD40O,1.550000X0.890000*%
%ADD41O,0.950000X1.250000*%
%ADD42R,1.700000X1.700000*%
%ADD43O,1.700000X1.700000*%
%ADD44RoundRect,0.135000X0.135000X0.185000X-0.135000X0.185000X-0.135000X-0.185000X0.135000X-0.185000X0*%
%ADD45RoundRect,0.150000X0.587500X0.150000X-0.587500X0.150000X-0.587500X-0.150000X0.587500X-0.150000X0*%
%ADD46R,1.524000X1.524000*%
%ADD47C,1.524000*%
%ADD48C,0.990600*%
%ADD49C,0.787400*%
%ADD50C,0.600000*%
G04 APERTURE END LIST*
D10*
X156388000Y-57112000D02*
X156388000Y-74384000D01*
X156388000Y-74384000D02*
X155880000Y-74384000D01*
X155880000Y-79464000D02*
X156388000Y-79464000D01*
X155880000Y-57112000D02*
X156388000Y-57112000D01*
D11*
X163936571Y-70356928D02*
X163984190Y-70271214D01*
X164031809Y-70242642D01*
X164127047Y-70214071D01*
X164269904Y-70214071D01*
X164365142Y-70242642D01*
X164412761Y-70271214D01*
X164460380Y-70328357D01*
X164460380Y-70556928D01*
X163460380Y-70556928D01*
X163460380Y-70356928D01*
X163508000Y-70299785D01*
X163555619Y-70271214D01*
X163650857Y-70242642D01*
X163746095Y-70242642D01*
X163841333Y-70271214D01*
X163888952Y-70299785D01*
X163936571Y-70356928D01*
X163936571Y-70556928D01*
X163460380Y-69842642D02*
X163460380Y-69728357D01*
X163508000Y-69671214D01*
X163603238Y-69614071D01*
X163793714Y-69585500D01*
X164127047Y-69585500D01*
X164317523Y-69614071D01*
X164412761Y-69671214D01*
X164460380Y-69728357D01*
X164460380Y-69842642D01*
X164412761Y-69899785D01*
X164317523Y-69956928D01*
X164127047Y-69985500D01*
X163793714Y-69985500D01*
X163603238Y-69956928D01*
X163508000Y-69899785D01*
X163460380Y-69842642D01*
X163460380Y-69214071D02*
X163460380Y-69099785D01*
X163508000Y-69042642D01*
X163603238Y-68985500D01*
X163793714Y-68956928D01*
X164127047Y-68956928D01*
X164317523Y-68985500D01*
X164412761Y-69042642D01*
X164460380Y-69099785D01*
X164460380Y-69214071D01*
X164412761Y-69271214D01*
X164317523Y-69328357D01*
X164127047Y-69356928D01*
X163793714Y-69356928D01*
X163603238Y-69328357D01*
X163508000Y-69271214D01*
X163460380Y-69214071D01*
X163460380Y-68785500D02*
X163460380Y-68442642D01*
X164460380Y-68614071D02*
X163460380Y-68614071D01*
X148623071Y-71232761D02*
X148708785Y-71280380D01*
X148851642Y-71280380D01*
X148908785Y-71232761D01*
X148937357Y-71185142D01*
X148965928Y-71089904D01*
X148965928Y-70994666D01*
X148937357Y-70899428D01*
X148908785Y-70851809D01*
X148851642Y-70804190D01*
X148737357Y-70756571D01*
X148680214Y-70708952D01*
X148651642Y-70661333D01*
X148623071Y-70566095D01*
X148623071Y-70470857D01*
X148651642Y-70375619D01*
X148680214Y-70328000D01*
X148737357Y-70280380D01*
X148880214Y-70280380D01*
X148965928Y-70328000D01*
X149223071Y-71280380D02*
X149223071Y-70280380D01*
X149365928Y-70280380D01*
X149451642Y-70328000D01*
X149508785Y-70423238D01*
X149537357Y-70518476D01*
X149565928Y-70708952D01*
X149565928Y-70851809D01*
X149537357Y-71042285D01*
X149508785Y-71137523D01*
X149451642Y-71232761D01*
X149365928Y-71280380D01*
X149223071Y-71280380D01*
X149794500Y-70994666D02*
X150080214Y-70994666D01*
X149737357Y-71280380D02*
X149937357Y-70280380D01*
X150137357Y-71280380D01*
X148726071Y-55027380D02*
X149097500Y-55027380D01*
X148897500Y-55408333D01*
X148983214Y-55408333D01*
X149040357Y-55455952D01*
X149068928Y-55503571D01*
X149097500Y-55598809D01*
X149097500Y-55836904D01*
X149068928Y-55932142D01*
X149040357Y-55979761D01*
X148983214Y-56027380D01*
X148811785Y-56027380D01*
X148754642Y-55979761D01*
X148726071Y-55932142D01*
X149268928Y-55027380D02*
X149468928Y-56027380D01*
X149668928Y-55027380D01*
X149811785Y-55027380D02*
X150183214Y-55027380D01*
X149983214Y-55408333D01*
X150068928Y-55408333D01*
X150126071Y-55455952D01*
X150154642Y-55503571D01*
X150183214Y-55598809D01*
X150183214Y-55836904D01*
X150154642Y-55932142D01*
X150126071Y-55979761D01*
X150068928Y-56027380D01*
X149897500Y-56027380D01*
X149840357Y-55979761D01*
X149811785Y-55932142D01*
X108011785Y-74704761D02*
X108097500Y-74752380D01*
X108240357Y-74752380D01*
X108297500Y-74704761D01*
X108326071Y-74657142D01*
X108354642Y-74561904D01*
X108354642Y-74466666D01*
X108326071Y-74371428D01*
X108297500Y-74323809D01*
X108240357Y-74276190D01*
X108126071Y-74228571D01*
X108068928Y-74180952D01*
X108040357Y-74133333D01*
X108011785Y-74038095D01*
X108011785Y-73942857D01*
X108040357Y-73847619D01*
X108068928Y-73800000D01*
X108126071Y-73752380D01*
X108268928Y-73752380D01*
X108354642Y-73800000D01*
X108611785Y-74228571D02*
X108811785Y-74228571D01*
X108897500Y-74752380D02*
X108611785Y-74752380D01*
X108611785Y-73752380D01*
X108897500Y-73752380D01*
X109154642Y-74752380D02*
X109154642Y-73752380D01*
X109497500Y-74752380D01*
X109497500Y-73752380D01*
X109754642Y-74704761D02*
X109840357Y-74752380D01*
X109983214Y-74752380D01*
X110040357Y-74704761D01*
X110068928Y-74657142D01*
X110097500Y-74561904D01*
X110097500Y-74466666D01*
X110068928Y-74371428D01*
X110040357Y-74323809D01*
X109983214Y-74276190D01*
X109868928Y-74228571D01*
X109811785Y-74180952D01*
X109783214Y-74133333D01*
X109754642Y-74038095D01*
X109754642Y-73942857D01*
X109783214Y-73847619D01*
X109811785Y-73800000D01*
X109868928Y-73752380D01*
X110011785Y-73752380D01*
X110097500Y-73800000D01*
X118357142Y-72902380D02*
X118471428Y-72902380D01*
X118528571Y-72950000D01*
X118585714Y-73045238D01*
X118614285Y-73235714D01*
X118614285Y-73569047D01*
X118585714Y-73759523D01*
X118528571Y-73854761D01*
X118471428Y-73902380D01*
X118357142Y-73902380D01*
X118300000Y-73854761D01*
X118242857Y-73759523D01*
X118214285Y-73569047D01*
X118214285Y-73235714D01*
X118242857Y-73045238D01*
X118300000Y-72950000D01*
X118357142Y-72902380D01*
X118842857Y-72997619D02*
X118871428Y-72950000D01*
X118928571Y-72902380D01*
X119071428Y-72902380D01*
X119128571Y-72950000D01*
X119157142Y-72997619D01*
X119185714Y-73092857D01*
X119185714Y-73188095D01*
X119157142Y-73330952D01*
X118814285Y-73902380D01*
X119185714Y-73902380D01*
X157454857Y-77948000D02*
X157397714Y-77900380D01*
X157312000Y-77900380D01*
X157226285Y-77948000D01*
X157169142Y-78043238D01*
X157140571Y-78138476D01*
X157112000Y-78328952D01*
X157112000Y-78471809D01*
X157140571Y-78662285D01*
X157169142Y-78757523D01*
X157226285Y-78852761D01*
X157312000Y-78900380D01*
X157369142Y-78900380D01*
X157454857Y-78852761D01*
X157483428Y-78805142D01*
X157483428Y-78471809D01*
X157369142Y-78471809D01*
X157740571Y-78900380D02*
X157740571Y-77900380D01*
X158083428Y-78900380D01*
X158083428Y-77900380D01*
X158369142Y-78900380D02*
X158369142Y-77900380D01*
X158512000Y-77900380D01*
X158597714Y-77948000D01*
X158654857Y-78043238D01*
X158683428Y-78138476D01*
X158712000Y-78328952D01*
X158712000Y-78471809D01*
X158683428Y-78662285D01*
X158654857Y-78757523D01*
X158597714Y-78852761D01*
X158512000Y-78900380D01*
X158369142Y-78900380D01*
X102428571Y-89970000D02*
X103000000Y-89970000D01*
X102542857Y-91204761D02*
X102628571Y-91252380D01*
X102771428Y-91252380D01*
X102828571Y-91204761D01*
X102857142Y-91157142D01*
X102885714Y-91061904D01*
X102885714Y-90966666D01*
X102857142Y-90871428D01*
X102828571Y-90823809D01*
X102771428Y-90776190D01*
X102657142Y-90728571D01*
X102600000Y-90680952D01*
X102571428Y-90633333D01*
X102542857Y-90538095D01*
X102542857Y-90442857D01*
X102571428Y-90347619D01*
X102600000Y-90300000D01*
X102657142Y-90252380D01*
X102800000Y-90252380D01*
X102885714Y-90300000D01*
X103000000Y-89970000D02*
X103457142Y-89970000D01*
X103057142Y-90252380D02*
X103400000Y-90252380D01*
X103228571Y-91252380D02*
X103228571Y-90252380D01*
X103457142Y-89970000D02*
X104057142Y-89970000D01*
X103600000Y-91252380D02*
X103600000Y-90252380D01*
X103742857Y-90252380D01*
X103828571Y-90300000D01*
X103885714Y-90395238D01*
X103914285Y-90490476D01*
X103942857Y-90680952D01*
X103942857Y-90823809D01*
X103914285Y-91014285D01*
X103885714Y-91109523D01*
X103828571Y-91204761D01*
X103742857Y-91252380D01*
X103600000Y-91252380D01*
X104057142Y-89970000D02*
X104657142Y-89970000D01*
X104400000Y-90728571D02*
X104485714Y-90776190D01*
X104514285Y-90823809D01*
X104542857Y-90919047D01*
X104542857Y-91061904D01*
X104514285Y-91157142D01*
X104485714Y-91204761D01*
X104428571Y-91252380D01*
X104200000Y-91252380D01*
X104200000Y-90252380D01*
X104400000Y-90252380D01*
X104457142Y-90300000D01*
X104485714Y-90347619D01*
X104514285Y-90442857D01*
X104514285Y-90538095D01*
X104485714Y-90633333D01*
X104457142Y-90680952D01*
X104400000Y-90728571D01*
X104200000Y-90728571D01*
X104657142Y-89970000D02*
X105171428Y-89970000D01*
X104914285Y-90776190D02*
X104914285Y-91252380D01*
X104714285Y-90252380D02*
X104914285Y-90776190D01*
X105114285Y-90252380D01*
X100354642Y-73702380D02*
X100468928Y-73702380D01*
X100526071Y-73750000D01*
X100583214Y-73845238D01*
X100611785Y-74035714D01*
X100611785Y-74369047D01*
X100583214Y-74559523D01*
X100526071Y-74654761D01*
X100468928Y-74702380D01*
X100354642Y-74702380D01*
X100297500Y-74654761D01*
X100240357Y-74559523D01*
X100211785Y-74369047D01*
X100211785Y-74035714D01*
X100240357Y-73845238D01*
X100297500Y-73750000D01*
X100354642Y-73702380D01*
X100868928Y-74702380D02*
X100868928Y-73702380D01*
X101211785Y-74702380D01*
X101211785Y-73702380D01*
X101411785Y-73702380D02*
X101754642Y-73702380D01*
X101583214Y-74702380D02*
X101583214Y-73702380D01*
X101954642Y-74702380D02*
X101954642Y-73702380D01*
X102240357Y-74702380D02*
X102240357Y-73702380D01*
X102440357Y-74416666D01*
X102640357Y-73702380D01*
X102640357Y-74702380D01*
X102926071Y-74178571D02*
X103126071Y-74178571D01*
X103211785Y-74702380D02*
X102926071Y-74702380D01*
X102926071Y-73702380D01*
X103211785Y-73702380D01*
X149165928Y-58056571D02*
X149365928Y-58056571D01*
X149451642Y-58580380D02*
X149165928Y-58580380D01*
X149165928Y-57580380D01*
X149451642Y-57580380D01*
X149708785Y-58580380D02*
X149708785Y-57580380D01*
X150051642Y-58580380D01*
X150051642Y-57580380D01*
X155840380Y-56688000D02*
X156840380Y-56488000D01*
X155840380Y-56288000D01*
X156316571Y-55888000D02*
X156364190Y-55802285D01*
X156411809Y-55773714D01*
X156507047Y-55745142D01*
X156649904Y-55745142D01*
X156745142Y-55773714D01*
X156792761Y-55802285D01*
X156840380Y-55859428D01*
X156840380Y-56088000D01*
X155840380Y-56088000D01*
X155840380Y-55888000D01*
X155888000Y-55830857D01*
X155935619Y-55802285D01*
X156030857Y-55773714D01*
X156126095Y-55773714D01*
X156221333Y-55802285D01*
X156268952Y-55830857D01*
X156316571Y-55888000D01*
X156316571Y-56088000D01*
X155840380Y-55488000D02*
X156649904Y-55488000D01*
X156745142Y-55459428D01*
X156792761Y-55430857D01*
X156840380Y-55373714D01*
X156840380Y-55259428D01*
X156792761Y-55202285D01*
X156745142Y-55173714D01*
X156649904Y-55145142D01*
X155840380Y-55145142D01*
X156792761Y-54888000D02*
X156840380Y-54802285D01*
X156840380Y-54659428D01*
X156792761Y-54602285D01*
X156745142Y-54573714D01*
X156649904Y-54545142D01*
X156554666Y-54545142D01*
X156459428Y-54573714D01*
X156411809Y-54602285D01*
X156364190Y-54659428D01*
X156316571Y-54773714D01*
X156268952Y-54830857D01*
X156221333Y-54859428D01*
X156126095Y-54888000D01*
X156030857Y-54888000D01*
X155935619Y-54859428D01*
X155888000Y-54830857D01*
X155840380Y-54773714D01*
X155840380Y-54630857D01*
X155888000Y-54545142D01*
X163936571Y-60778071D02*
X163936571Y-60578071D01*
X164460380Y-60492357D02*
X164460380Y-60778071D01*
X163460380Y-60778071D01*
X163460380Y-60492357D01*
X164460380Y-60235214D02*
X163460380Y-60235214D01*
X164460380Y-59892357D01*
X163460380Y-59892357D01*
X148280214Y-76360380D02*
X148280214Y-75360380D01*
X148680214Y-75360380D02*
X148794500Y-75360380D01*
X148851642Y-75408000D01*
X148908785Y-75503238D01*
X148937357Y-75693714D01*
X148937357Y-76027047D01*
X148908785Y-76217523D01*
X148851642Y-76312761D01*
X148794500Y-76360380D01*
X148680214Y-76360380D01*
X148623071Y-76312761D01*
X148565928Y-76217523D01*
X148537357Y-76027047D01*
X148537357Y-75693714D01*
X148565928Y-75503238D01*
X148623071Y-75408000D01*
X148680214Y-75360380D01*
X149137357Y-75360380D02*
X149508785Y-75360380D01*
X149308785Y-75741333D01*
X149394500Y-75741333D01*
X149451642Y-75788952D01*
X149480214Y-75836571D01*
X149508785Y-75931809D01*
X149508785Y-76169904D01*
X149480214Y-76265142D01*
X149451642Y-76312761D01*
X149394500Y-76360380D01*
X149223071Y-76360380D01*
X149165928Y-76312761D01*
X149137357Y-76265142D01*
X149794500Y-76360380D02*
X149908785Y-76360380D01*
X149965928Y-76312761D01*
X149994500Y-76265142D01*
X150051642Y-76122285D01*
X150080214Y-75931809D01*
X150080214Y-75550857D01*
X150051642Y-75455619D01*
X150023071Y-75408000D01*
X149965928Y-75360380D01*
X149851642Y-75360380D01*
X149794500Y-75408000D01*
X149765928Y-75455619D01*
X149737357Y-75550857D01*
X149737357Y-75788952D01*
X149765928Y-75884190D01*
X149794500Y-75931809D01*
X149851642Y-75979428D01*
X149965928Y-75979428D01*
X150023071Y-75931809D01*
X150051642Y-75884190D01*
X150080214Y-75788952D01*
X105785714Y-89970000D02*
X106385714Y-89970000D01*
X106271428Y-91157142D02*
X106242857Y-91204761D01*
X106157142Y-91252380D01*
X106100000Y-91252380D01*
X106014285Y-91204761D01*
X105957142Y-91109523D01*
X105928571Y-91014285D01*
X105900000Y-90823809D01*
X105900000Y-90680952D01*
X105928571Y-90490476D01*
X105957142Y-90395238D01*
X106014285Y-90300000D01*
X106100000Y-90252380D01*
X106157142Y-90252380D01*
X106242857Y-90300000D01*
X106271428Y-90347619D01*
X106385714Y-89970000D02*
X107014285Y-89970000D01*
X106528571Y-91252380D02*
X106528571Y-90252380D01*
X106528571Y-90728571D02*
X106871428Y-90728571D01*
X106871428Y-91252380D02*
X106871428Y-90252380D01*
X107014285Y-89970000D02*
X107614285Y-89970000D01*
X107500000Y-91252380D02*
X107300000Y-90776190D01*
X107157142Y-91252380D02*
X107157142Y-90252380D01*
X107385714Y-90252380D01*
X107442857Y-90300000D01*
X107471428Y-90347619D01*
X107500000Y-90442857D01*
X107500000Y-90585714D01*
X107471428Y-90680952D01*
X107442857Y-90728571D01*
X107385714Y-90776190D01*
X107157142Y-90776190D01*
X107614285Y-89970000D02*
X108214285Y-89970000D01*
X108071428Y-90300000D02*
X108014285Y-90252380D01*
X107928571Y-90252380D01*
X107842857Y-90300000D01*
X107785714Y-90395238D01*
X107757142Y-90490476D01*
X107728571Y-90680952D01*
X107728571Y-90823809D01*
X107757142Y-91014285D01*
X107785714Y-91109523D01*
X107842857Y-91204761D01*
X107928571Y-91252380D01*
X107985714Y-91252380D01*
X108071428Y-91204761D01*
X108100000Y-91157142D01*
X108100000Y-90823809D01*
X107985714Y-90823809D01*
X157312000Y-76360380D02*
X157312000Y-75360380D01*
X157712000Y-75360380D02*
X157826285Y-75360380D01*
X157883428Y-75408000D01*
X157940571Y-75503238D01*
X157969142Y-75693714D01*
X157969142Y-76027047D01*
X157940571Y-76217523D01*
X157883428Y-76312761D01*
X157826285Y-76360380D01*
X157712000Y-76360380D01*
X157654857Y-76312761D01*
X157597714Y-76217523D01*
X157569142Y-76027047D01*
X157569142Y-75693714D01*
X157597714Y-75503238D01*
X157654857Y-75408000D01*
X157712000Y-75360380D01*
X158197714Y-75455619D02*
X158226285Y-75408000D01*
X158283428Y-75360380D01*
X158426285Y-75360380D01*
X158483428Y-75408000D01*
X158512000Y-75455619D01*
X158540571Y-75550857D01*
X158540571Y-75646095D01*
X158512000Y-75788952D01*
X158169142Y-76360380D01*
X158540571Y-76360380D01*
X114907142Y-77552380D02*
X114907142Y-76552380D01*
X115535714Y-77552380D02*
X115335714Y-77076190D01*
X115192857Y-77552380D02*
X115192857Y-76552380D01*
X115421428Y-76552380D01*
X115478571Y-76600000D01*
X115507142Y-76647619D01*
X115535714Y-76742857D01*
X115535714Y-76885714D01*
X115507142Y-76980952D01*
X115478571Y-77028571D01*
X115421428Y-77076190D01*
X115192857Y-77076190D01*
X116135714Y-77457142D02*
X116107142Y-77504761D01*
X116021428Y-77552380D01*
X115964285Y-77552380D01*
X115878571Y-77504761D01*
X115821428Y-77409523D01*
X115792857Y-77314285D01*
X115764285Y-77123809D01*
X115764285Y-76980952D01*
X115792857Y-76790476D01*
X115821428Y-76695238D01*
X115878571Y-76600000D01*
X115964285Y-76552380D01*
X116021428Y-76552380D01*
X116107142Y-76600000D01*
X116135714Y-76647619D01*
X116392857Y-76552380D02*
X116392857Y-77361904D01*
X116421428Y-77457142D01*
X116450000Y-77504761D01*
X116507142Y-77552380D01*
X116621428Y-77552380D01*
X116678571Y-77504761D01*
X116707142Y-77457142D01*
X116735714Y-77361904D01*
X116735714Y-76552380D01*
X116935714Y-76552380D02*
X117278571Y-76552380D01*
X117107142Y-77552380D02*
X117107142Y-76552380D01*
X148754642Y-68709761D02*
X148840357Y-68757380D01*
X148983214Y-68757380D01*
X149040357Y-68709761D01*
X149068928Y-68662142D01*
X149097500Y-68566904D01*
X149097500Y-68471666D01*
X149068928Y-68376428D01*
X149040357Y-68328809D01*
X148983214Y-68281190D01*
X148868928Y-68233571D01*
X148811785Y-68185952D01*
X148783214Y-68138333D01*
X148754642Y-68043095D01*
X148754642Y-67947857D01*
X148783214Y-67852619D01*
X148811785Y-67805000D01*
X148868928Y-67757380D01*
X149011785Y-67757380D01*
X149097500Y-67805000D01*
X149697500Y-68662142D02*
X149668928Y-68709761D01*
X149583214Y-68757380D01*
X149526071Y-68757380D01*
X149440357Y-68709761D01*
X149383214Y-68614523D01*
X149354642Y-68519285D01*
X149326071Y-68328809D01*
X149326071Y-68185952D01*
X149354642Y-67995476D01*
X149383214Y-67900238D01*
X149440357Y-67805000D01*
X149526071Y-67757380D01*
X149583214Y-67757380D01*
X149668928Y-67805000D01*
X149697500Y-67852619D01*
X150240357Y-68757380D02*
X149954642Y-68757380D01*
X149954642Y-67757380D01*
X118357142Y-74202380D02*
X118471428Y-74202380D01*
X118528571Y-74250000D01*
X118585714Y-74345238D01*
X118614285Y-74535714D01*
X118614285Y-74869047D01*
X118585714Y-75059523D01*
X118528571Y-75154761D01*
X118471428Y-75202380D01*
X118357142Y-75202380D01*
X118300000Y-75154761D01*
X118242857Y-75059523D01*
X118214285Y-74869047D01*
X118214285Y-74535714D01*
X118242857Y-74345238D01*
X118300000Y-74250000D01*
X118357142Y-74202380D01*
X119185714Y-75202380D02*
X118842857Y-75202380D01*
X119014285Y-75202380D02*
X119014285Y-74202380D01*
X118957142Y-74345238D01*
X118900000Y-74440476D01*
X118842857Y-74488095D01*
X148223071Y-60596571D02*
X148308785Y-60644190D01*
X148337357Y-60691809D01*
X148365928Y-60787047D01*
X148365928Y-60929904D01*
X148337357Y-61025142D01*
X148308785Y-61072761D01*
X148251642Y-61120380D01*
X148023071Y-61120380D01*
X148023071Y-60120380D01*
X148223071Y-60120380D01*
X148280214Y-60168000D01*
X148308785Y-60215619D01*
X148337357Y-60310857D01*
X148337357Y-60406095D01*
X148308785Y-60501333D01*
X148280214Y-60548952D01*
X148223071Y-60596571D01*
X148023071Y-60596571D01*
X148737357Y-60120380D02*
X148851642Y-60120380D01*
X148908785Y-60168000D01*
X148965928Y-60263238D01*
X148994500Y-60453714D01*
X148994500Y-60787047D01*
X148965928Y-60977523D01*
X148908785Y-61072761D01*
X148851642Y-61120380D01*
X148737357Y-61120380D01*
X148680214Y-61072761D01*
X148623071Y-60977523D01*
X148594500Y-60787047D01*
X148594500Y-60453714D01*
X148623071Y-60263238D01*
X148680214Y-60168000D01*
X148737357Y-60120380D01*
X149365928Y-60120380D02*
X149480214Y-60120380D01*
X149537357Y-60168000D01*
X149594500Y-60263238D01*
X149623071Y-60453714D01*
X149623071Y-60787047D01*
X149594500Y-60977523D01*
X149537357Y-61072761D01*
X149480214Y-61120380D01*
X149365928Y-61120380D01*
X149308785Y-61072761D01*
X149251642Y-60977523D01*
X149223071Y-60787047D01*
X149223071Y-60453714D01*
X149251642Y-60263238D01*
X149308785Y-60168000D01*
X149365928Y-60120380D01*
X149794500Y-60120380D02*
X150137357Y-60120380D01*
X149965928Y-61120380D02*
X149965928Y-60120380D01*
X142264166Y-101437380D02*
X142264166Y-100437380D01*
X142497500Y-101151666D01*
X142730833Y-100437380D01*
X142730833Y-101437380D01*
X143364166Y-100770714D02*
X143364166Y-101437380D01*
X143064166Y-100770714D02*
X143064166Y-101294523D01*
X143097500Y-101389761D01*
X143164166Y-101437380D01*
X143264166Y-101437380D01*
X143330833Y-101389761D01*
X143364166Y-101342142D01*
X143797500Y-101437380D02*
X143730833Y-101389761D01*
X143697500Y-101294523D01*
X143697500Y-100437380D01*
X143964166Y-100770714D02*
X144230833Y-100770714D01*
X144064166Y-100437380D02*
X144064166Y-101294523D01*
X144097500Y-101389761D01*
X144164166Y-101437380D01*
X144230833Y-101437380D01*
X144464166Y-101437380D02*
X144464166Y-100770714D01*
X144464166Y-100437380D02*
X144430833Y-100485000D01*
X144464166Y-100532619D01*
X144497500Y-100485000D01*
X144464166Y-100437380D01*
X144464166Y-100532619D01*
X144797500Y-101056428D02*
X145330833Y-101056428D01*
X145664166Y-101437380D02*
X145664166Y-100437380D01*
X145930833Y-100437380D01*
X145997500Y-100485000D01*
X146030833Y-100532619D01*
X146064166Y-100627857D01*
X146064166Y-100770714D01*
X146030833Y-100865952D01*
X145997500Y-100913571D01*
X145930833Y-100961190D01*
X145664166Y-100961190D01*
X146664166Y-100770714D02*
X146664166Y-101437380D01*
X146364166Y-100770714D02*
X146364166Y-101294523D01*
X146397500Y-101389761D01*
X146464166Y-101437380D01*
X146564166Y-101437380D01*
X146630833Y-101389761D01*
X146664166Y-101342142D01*
X146997500Y-101437380D02*
X146997500Y-100770714D01*
X146997500Y-100961190D02*
X147030833Y-100865952D01*
X147064166Y-100818333D01*
X147130833Y-100770714D01*
X147197500Y-100770714D01*
X147430833Y-100770714D02*
X147430833Y-101770714D01*
X147430833Y-100818333D02*
X147497500Y-100770714D01*
X147630833Y-100770714D01*
X147697500Y-100818333D01*
X147730833Y-100865952D01*
X147764166Y-100961190D01*
X147764166Y-101246904D01*
X147730833Y-101342142D01*
X147697500Y-101389761D01*
X147630833Y-101437380D01*
X147497500Y-101437380D01*
X147430833Y-101389761D01*
X148164166Y-101437380D02*
X148097500Y-101389761D01*
X148064166Y-101342142D01*
X148030833Y-101246904D01*
X148030833Y-100961190D01*
X148064166Y-100865952D01*
X148097500Y-100818333D01*
X148164166Y-100770714D01*
X148264166Y-100770714D01*
X148330833Y-100818333D01*
X148364166Y-100865952D01*
X148397500Y-100961190D01*
X148397500Y-101246904D01*
X148364166Y-101342142D01*
X148330833Y-101389761D01*
X148264166Y-101437380D01*
X148164166Y-101437380D01*
X148664166Y-101389761D02*
X148730833Y-101437380D01*
X148864166Y-101437380D01*
X148930833Y-101389761D01*
X148964166Y-101294523D01*
X148964166Y-101246904D01*
X148930833Y-101151666D01*
X148864166Y-101104047D01*
X148764166Y-101104047D01*
X148697500Y-101056428D01*
X148664166Y-100961190D01*
X148664166Y-100913571D01*
X148697500Y-100818333D01*
X148764166Y-100770714D01*
X148864166Y-100770714D01*
X148930833Y-100818333D01*
X149530833Y-101389761D02*
X149464166Y-101437380D01*
X149330833Y-101437380D01*
X149264166Y-101389761D01*
X149230833Y-101294523D01*
X149230833Y-100913571D01*
X149264166Y-100818333D01*
X149330833Y-100770714D01*
X149464166Y-100770714D01*
X149530833Y-100818333D01*
X149564166Y-100913571D01*
X149564166Y-101008809D01*
X149230833Y-101104047D01*
X150797500Y-101342142D02*
X150764166Y-101389761D01*
X150664166Y-101437380D01*
X150597500Y-101437380D01*
X150497500Y-101389761D01*
X150430833Y-101294523D01*
X150397500Y-101199285D01*
X150364166Y-101008809D01*
X150364166Y-100865952D01*
X150397500Y-100675476D01*
X150430833Y-100580238D01*
X150497500Y-100485000D01*
X150597500Y-100437380D01*
X150664166Y-100437380D01*
X150764166Y-100485000D01*
X150797500Y-100532619D01*
X151397500Y-101437380D02*
X151397500Y-100913571D01*
X151364166Y-100818333D01*
X151297500Y-100770714D01*
X151164166Y-100770714D01*
X151097500Y-100818333D01*
X151397500Y-101389761D02*
X151330833Y-101437380D01*
X151164166Y-101437380D01*
X151097500Y-101389761D01*
X151064166Y-101294523D01*
X151064166Y-101199285D01*
X151097500Y-101104047D01*
X151164166Y-101056428D01*
X151330833Y-101056428D01*
X151397500Y-101008809D01*
X151730833Y-101437380D02*
X151730833Y-100770714D01*
X151730833Y-100865952D02*
X151764166Y-100818333D01*
X151830833Y-100770714D01*
X151930833Y-100770714D01*
X151997500Y-100818333D01*
X152030833Y-100913571D01*
X152030833Y-101437380D01*
X152030833Y-100913571D02*
X152064166Y-100818333D01*
X152130833Y-100770714D01*
X152230833Y-100770714D01*
X152297500Y-100818333D01*
X152330833Y-100913571D01*
X152330833Y-101437380D01*
X152930833Y-101389761D02*
X152864166Y-101437380D01*
X152730833Y-101437380D01*
X152664166Y-101389761D01*
X152630833Y-101294523D01*
X152630833Y-100913571D01*
X152664166Y-100818333D01*
X152730833Y-100770714D01*
X152864166Y-100770714D01*
X152930833Y-100818333D01*
X152964166Y-100913571D01*
X152964166Y-101008809D01*
X152630833Y-101104047D01*
X153264166Y-101437380D02*
X153264166Y-100770714D01*
X153264166Y-100961190D02*
X153297500Y-100865952D01*
X153330833Y-100818333D01*
X153397500Y-100770714D01*
X153464166Y-100770714D01*
X153997500Y-101437380D02*
X153997500Y-100913571D01*
X153964166Y-100818333D01*
X153897500Y-100770714D01*
X153764166Y-100770714D01*
X153697500Y-100818333D01*
X153997500Y-101389761D02*
X153930833Y-101437380D01*
X153764166Y-101437380D01*
X153697500Y-101389761D01*
X153664166Y-101294523D01*
X153664166Y-101199285D01*
X153697500Y-101104047D01*
X153764166Y-101056428D01*
X153930833Y-101056428D01*
X153997500Y-101008809D01*
X154864166Y-101437380D02*
X154864166Y-100437380D01*
X155030833Y-100437380D01*
X155130833Y-100485000D01*
X155197500Y-100580238D01*
X155230833Y-100675476D01*
X155264166Y-100865952D01*
X155264166Y-101008809D01*
X155230833Y-101199285D01*
X155197500Y-101294523D01*
X155130833Y-101389761D01*
X155030833Y-101437380D01*
X154864166Y-101437380D01*
X155830833Y-101389761D02*
X155764166Y-101437380D01*
X155630833Y-101437380D01*
X155564166Y-101389761D01*
X155530833Y-101294523D01*
X155530833Y-100913571D01*
X155564166Y-100818333D01*
X155630833Y-100770714D01*
X155764166Y-100770714D01*
X155830833Y-100818333D01*
X155864166Y-100913571D01*
X155864166Y-101008809D01*
X155530833Y-101104047D01*
X156097500Y-100770714D02*
X156264166Y-101437380D01*
X156430833Y-100770714D01*
X156697500Y-101437380D02*
X156697500Y-100437380D01*
X156764166Y-101056428D02*
X156964166Y-101437380D01*
X156964166Y-100770714D02*
X156697500Y-101151666D01*
X157264166Y-101437380D02*
X157264166Y-100770714D01*
X157264166Y-100437380D02*
X157230833Y-100485000D01*
X157264166Y-100532619D01*
X157297500Y-100485000D01*
X157264166Y-100437380D01*
X157264166Y-100532619D01*
X157497500Y-100770714D02*
X157764166Y-100770714D01*
X157597500Y-100437380D02*
X157597500Y-101294523D01*
X157630833Y-101389761D01*
X157697500Y-101437380D01*
X157764166Y-101437380D01*
X142264166Y-103047380D02*
X142264166Y-102380714D01*
X142264166Y-102475952D02*
X142297500Y-102428333D01*
X142364166Y-102380714D01*
X142464166Y-102380714D01*
X142530833Y-102428333D01*
X142564166Y-102523571D01*
X142564166Y-103047380D01*
X142564166Y-102523571D02*
X142597500Y-102428333D01*
X142664166Y-102380714D01*
X142764166Y-102380714D01*
X142830833Y-102428333D01*
X142864166Y-102523571D01*
X142864166Y-103047380D01*
X143497500Y-103047380D02*
X143497500Y-102523571D01*
X143464166Y-102428333D01*
X143397500Y-102380714D01*
X143264166Y-102380714D01*
X143197500Y-102428333D01*
X143497500Y-102999761D02*
X143430833Y-103047380D01*
X143264166Y-103047380D01*
X143197500Y-102999761D01*
X143164166Y-102904523D01*
X143164166Y-102809285D01*
X143197500Y-102714047D01*
X143264166Y-102666428D01*
X143430833Y-102666428D01*
X143497500Y-102618809D01*
X143764166Y-103047380D02*
X144130833Y-102380714D01*
X143764166Y-102380714D02*
X144130833Y-103047380D01*
X144497500Y-103047380D02*
X144430833Y-102999761D01*
X144397500Y-102904523D01*
X144397500Y-102047380D01*
X145064166Y-103047380D02*
X145064166Y-102523571D01*
X145030833Y-102428333D01*
X144964166Y-102380714D01*
X144830833Y-102380714D01*
X144764166Y-102428333D01*
X145064166Y-102999761D02*
X144997500Y-103047380D01*
X144830833Y-103047380D01*
X144764166Y-102999761D01*
X144730833Y-102904523D01*
X144730833Y-102809285D01*
X144764166Y-102714047D01*
X144830833Y-102666428D01*
X144997500Y-102666428D01*
X145064166Y-102618809D01*
X145397500Y-103047380D02*
X145397500Y-102047380D01*
X145397500Y-102428333D02*
X145464166Y-102380714D01*
X145597500Y-102380714D01*
X145664166Y-102428333D01*
X145697500Y-102475952D01*
X145730833Y-102571190D01*
X145730833Y-102856904D01*
X145697500Y-102952142D01*
X145664166Y-102999761D01*
X145597500Y-103047380D01*
X145464166Y-103047380D01*
X145397500Y-102999761D01*
X146030833Y-102952142D02*
X146064166Y-102999761D01*
X146030833Y-103047380D01*
X145997500Y-102999761D01*
X146030833Y-102952142D01*
X146030833Y-103047380D01*
X146364166Y-103047380D02*
X146364166Y-102380714D01*
X146364166Y-102047380D02*
X146330833Y-102095000D01*
X146364166Y-102142619D01*
X146397500Y-102095000D01*
X146364166Y-102047380D01*
X146364166Y-102142619D01*
X146797500Y-103047380D02*
X146730833Y-102999761D01*
X146697500Y-102952142D01*
X146664166Y-102856904D01*
X146664166Y-102571190D01*
X146697500Y-102475952D01*
X146730833Y-102428333D01*
X146797500Y-102380714D01*
X146897500Y-102380714D01*
X146964166Y-102428333D01*
X146997500Y-102475952D01*
X147030833Y-102571190D01*
X147030833Y-102856904D01*
X146997500Y-102952142D01*
X146964166Y-102999761D01*
X146897500Y-103047380D01*
X146797500Y-103047380D01*
X142264166Y-104657380D02*
X142264166Y-103657380D01*
X142564166Y-104657380D02*
X142564166Y-104133571D01*
X142530833Y-104038333D01*
X142464166Y-103990714D01*
X142364166Y-103990714D01*
X142297500Y-104038333D01*
X142264166Y-104085952D01*
X142897500Y-104657380D02*
X142897500Y-103990714D01*
X142897500Y-103657380D02*
X142864166Y-103705000D01*
X142897500Y-103752619D01*
X142930833Y-103705000D01*
X142897500Y-103657380D01*
X142897500Y-103752619D01*
X143664166Y-104181190D02*
X143630833Y-104133571D01*
X143564166Y-104085952D01*
X143497500Y-104085952D01*
X143430833Y-104133571D01*
X143397500Y-104181190D01*
X143364166Y-104276428D01*
X143364166Y-104371666D01*
X143397500Y-104466904D01*
X143430833Y-104514523D01*
X143497500Y-104562142D01*
X143564166Y-104562142D01*
X143630833Y-104514523D01*
X143664166Y-104466904D01*
X143664166Y-104085952D02*
X143664166Y-104466904D01*
X143697500Y-104514523D01*
X143730833Y-104514523D01*
X143797500Y-104466904D01*
X143830833Y-104371666D01*
X143830833Y-104133571D01*
X143764166Y-103990714D01*
X143664166Y-103895476D01*
X143530833Y-103847857D01*
X143397500Y-103895476D01*
X143297500Y-103990714D01*
X143230833Y-104133571D01*
X143197500Y-104324047D01*
X143230833Y-104514523D01*
X143297500Y-104657380D01*
X143397500Y-104752619D01*
X143530833Y-104800238D01*
X143664166Y-104752619D01*
X143764166Y-104657380D01*
X144130833Y-104657380D02*
X144130833Y-103990714D01*
X144130833Y-104085952D02*
X144164166Y-104038333D01*
X144230833Y-103990714D01*
X144330833Y-103990714D01*
X144397500Y-104038333D01*
X144430833Y-104133571D01*
X144430833Y-104657380D01*
X144430833Y-104133571D02*
X144464166Y-104038333D01*
X144530833Y-103990714D01*
X144630833Y-103990714D01*
X144697500Y-104038333D01*
X144730833Y-104133571D01*
X144730833Y-104657380D01*
X145364166Y-104657380D02*
X145364166Y-104133571D01*
X145330833Y-104038333D01*
X145264166Y-103990714D01*
X145130833Y-103990714D01*
X145064166Y-104038333D01*
X145364166Y-104609761D02*
X145297500Y-104657380D01*
X145130833Y-104657380D01*
X145064166Y-104609761D01*
X145030833Y-104514523D01*
X145030833Y-104419285D01*
X145064166Y-104324047D01*
X145130833Y-104276428D01*
X145297500Y-104276428D01*
X145364166Y-104228809D01*
X145630833Y-104657380D02*
X145997500Y-103990714D01*
X145630833Y-103990714D02*
X145997500Y-104657380D01*
X146364166Y-104657380D02*
X146297500Y-104609761D01*
X146264166Y-104514523D01*
X146264166Y-103657380D01*
X146930833Y-104657380D02*
X146930833Y-104133571D01*
X146897500Y-104038333D01*
X146830833Y-103990714D01*
X146697500Y-103990714D01*
X146630833Y-104038333D01*
X146930833Y-104609761D02*
X146864166Y-104657380D01*
X146697500Y-104657380D01*
X146630833Y-104609761D01*
X146597500Y-104514523D01*
X146597500Y-104419285D01*
X146630833Y-104324047D01*
X146697500Y-104276428D01*
X146864166Y-104276428D01*
X146930833Y-104228809D01*
X147264166Y-104657380D02*
X147264166Y-103657380D01*
X147264166Y-104038333D02*
X147330833Y-103990714D01*
X147464166Y-103990714D01*
X147530833Y-104038333D01*
X147564166Y-104085952D01*
X147597500Y-104181190D01*
X147597500Y-104466904D01*
X147564166Y-104562142D01*
X147530833Y-104609761D01*
X147464166Y-104657380D01*
X147330833Y-104657380D01*
X147264166Y-104609761D01*
X147897500Y-104562142D02*
X147930833Y-104609761D01*
X147897500Y-104657380D01*
X147864166Y-104609761D01*
X147897500Y-104562142D01*
X147897500Y-104657380D01*
X148230833Y-104657380D02*
X148230833Y-103990714D01*
X148230833Y-103657380D02*
X148197500Y-103705000D01*
X148230833Y-103752619D01*
X148264166Y-103705000D01*
X148230833Y-103657380D01*
X148230833Y-103752619D01*
X148664166Y-104657380D02*
X148597500Y-104609761D01*
X148564166Y-104562142D01*
X148530833Y-104466904D01*
X148530833Y-104181190D01*
X148564166Y-104085952D01*
X148597500Y-104038333D01*
X148664166Y-103990714D01*
X148764166Y-103990714D01*
X148830833Y-104038333D01*
X148864166Y-104085952D01*
X148897500Y-104181190D01*
X148897500Y-104466904D01*
X148864166Y-104562142D01*
X148830833Y-104609761D01*
X148764166Y-104657380D01*
X148664166Y-104657380D01*
X142264166Y-106267380D02*
X142264166Y-105600714D01*
X142264166Y-105791190D02*
X142297500Y-105695952D01*
X142330833Y-105648333D01*
X142397500Y-105600714D01*
X142464166Y-105600714D01*
X142964166Y-106219761D02*
X142897500Y-106267380D01*
X142764166Y-106267380D01*
X142697500Y-106219761D01*
X142664166Y-106124523D01*
X142664166Y-105743571D01*
X142697500Y-105648333D01*
X142764166Y-105600714D01*
X142897500Y-105600714D01*
X142964166Y-105648333D01*
X142997500Y-105743571D01*
X142997500Y-105838809D01*
X142664166Y-105934047D01*
X143230833Y-105600714D02*
X143397500Y-106267380D01*
X143564166Y-105600714D01*
X143964166Y-105267380D02*
X144030833Y-105267380D01*
X144097500Y-105315000D01*
X144130833Y-105362619D01*
X144164166Y-105457857D01*
X144197500Y-105648333D01*
X144197500Y-105886428D01*
X144164166Y-106076904D01*
X144130833Y-106172142D01*
X144097500Y-106219761D01*
X144030833Y-106267380D01*
X143964166Y-106267380D01*
X143897500Y-106219761D01*
X143864166Y-106172142D01*
X143830833Y-106076904D01*
X143797500Y-105886428D01*
X143797500Y-105648333D01*
X143830833Y-105457857D01*
X143864166Y-105362619D01*
X143897500Y-105315000D01*
X143964166Y-105267380D01*
X144497500Y-105886428D02*
X145030833Y-105886428D01*
X145330833Y-105362619D02*
X145364166Y-105315000D01*
X145430833Y-105267380D01*
X145597500Y-105267380D01*
X145664166Y-105315000D01*
X145697500Y-105362619D01*
X145730833Y-105457857D01*
X145730833Y-105553095D01*
X145697500Y-105695952D01*
X145297500Y-106267380D01*
X145730833Y-106267380D01*
X146164166Y-105267380D02*
X146230833Y-105267380D01*
X146297500Y-105315000D01*
X146330833Y-105362619D01*
X146364166Y-105457857D01*
X146397500Y-105648333D01*
X146397500Y-105886428D01*
X146364166Y-106076904D01*
X146330833Y-106172142D01*
X146297500Y-106219761D01*
X146230833Y-106267380D01*
X146164166Y-106267380D01*
X146097500Y-106219761D01*
X146064166Y-106172142D01*
X146030833Y-106076904D01*
X145997500Y-105886428D01*
X145997500Y-105648333D01*
X146030833Y-105457857D01*
X146064166Y-105362619D01*
X146097500Y-105315000D01*
X146164166Y-105267380D01*
X146664166Y-105362619D02*
X146697500Y-105315000D01*
X146764166Y-105267380D01*
X146930833Y-105267380D01*
X146997500Y-105315000D01*
X147030833Y-105362619D01*
X147064166Y-105457857D01*
X147064166Y-105553095D01*
X147030833Y-105695952D01*
X146630833Y-106267380D01*
X147064166Y-106267380D01*
X147297500Y-105267380D02*
X147730833Y-105267380D01*
X147497500Y-105648333D01*
X147597500Y-105648333D01*
X147664166Y-105695952D01*
X147697500Y-105743571D01*
X147730833Y-105838809D01*
X147730833Y-106076904D01*
X147697500Y-106172142D01*
X147664166Y-106219761D01*
X147597500Y-106267380D01*
X147397500Y-106267380D01*
X147330833Y-106219761D01*
X147297500Y-106172142D01*
X148164166Y-105267380D02*
X148230833Y-105267380D01*
X148297500Y-105315000D01*
X148330833Y-105362619D01*
X148364166Y-105457857D01*
X148397500Y-105648333D01*
X148397500Y-105886428D01*
X148364166Y-106076904D01*
X148330833Y-106172142D01*
X148297500Y-106219761D01*
X148230833Y-106267380D01*
X148164166Y-106267380D01*
X148097500Y-106219761D01*
X148064166Y-106172142D01*
X148030833Y-106076904D01*
X147997500Y-105886428D01*
X147997500Y-105648333D01*
X148030833Y-105457857D01*
X148064166Y-105362619D01*
X148097500Y-105315000D01*
X148164166Y-105267380D01*
X149064166Y-106267380D02*
X148664166Y-106267380D01*
X148864166Y-106267380D02*
X148864166Y-105267380D01*
X148797500Y-105410238D01*
X148730833Y-105505476D01*
X148664166Y-105553095D01*
X149497500Y-105267380D02*
X149564166Y-105267380D01*
X149630833Y-105315000D01*
X149664166Y-105362619D01*
X149697500Y-105457857D01*
X149730833Y-105648333D01*
X149730833Y-105886428D01*
X149697500Y-106076904D01*
X149664166Y-106172142D01*
X149630833Y-106219761D01*
X149564166Y-106267380D01*
X149497500Y-106267380D01*
X149430833Y-106219761D01*
X149397500Y-106172142D01*
X149364166Y-106076904D01*
X149330833Y-105886428D01*
X149330833Y-105648333D01*
X149364166Y-105457857D01*
X149397500Y-105362619D01*
X149430833Y-105315000D01*
X149497500Y-105267380D01*
X150330833Y-105267380D02*
X150197500Y-105267380D01*
X150130833Y-105315000D01*
X150097500Y-105362619D01*
X150030833Y-105505476D01*
X149997500Y-105695952D01*
X149997500Y-106076904D01*
X150030833Y-106172142D01*
X150064166Y-106219761D01*
X150130833Y-106267380D01*
X150264166Y-106267380D01*
X150330833Y-106219761D01*
X150364166Y-106172142D01*
X150397500Y-106076904D01*
X150397500Y-105838809D01*
X150364166Y-105743571D01*
X150330833Y-105695952D01*
X150264166Y-105648333D01*
X150130833Y-105648333D01*
X150064166Y-105695952D01*
X150030833Y-105743571D01*
X149997500Y-105838809D01*
X139242857Y-91052380D02*
X139242857Y-91861904D01*
X139271428Y-91957142D01*
X139300000Y-92004761D01*
X139357142Y-92052380D01*
X139471428Y-92052380D01*
X139528571Y-92004761D01*
X139557142Y-91957142D01*
X139585714Y-91861904D01*
X139585714Y-91052380D01*
X139842857Y-92004761D02*
X139928571Y-92052380D01*
X140071428Y-92052380D01*
X140128571Y-92004761D01*
X140157142Y-91957142D01*
X140185714Y-91861904D01*
X140185714Y-91766666D01*
X140157142Y-91671428D01*
X140128571Y-91623809D01*
X140071428Y-91576190D01*
X139957142Y-91528571D01*
X139900000Y-91480952D01*
X139871428Y-91433333D01*
X139842857Y-91338095D01*
X139842857Y-91242857D01*
X139871428Y-91147619D01*
X139900000Y-91100000D01*
X139957142Y-91052380D01*
X140100000Y-91052380D01*
X140185714Y-91100000D01*
X140785714Y-92052380D02*
X140585714Y-91576190D01*
X140442857Y-92052380D02*
X140442857Y-91052380D01*
X140671428Y-91052380D01*
X140728571Y-91100000D01*
X140757142Y-91147619D01*
X140785714Y-91242857D01*
X140785714Y-91385714D01*
X140757142Y-91480952D01*
X140728571Y-91528571D01*
X140671428Y-91576190D01*
X140442857Y-91576190D01*
X148937357Y-66200380D02*
X148737357Y-65724190D01*
X148594500Y-66200380D02*
X148594500Y-65200380D01*
X148823071Y-65200380D01*
X148880214Y-65248000D01*
X148908785Y-65295619D01*
X148937357Y-65390857D01*
X148937357Y-65533714D01*
X148908785Y-65628952D01*
X148880214Y-65676571D01*
X148823071Y-65724190D01*
X148594500Y-65724190D01*
X149137357Y-65200380D02*
X149537357Y-66200380D01*
X149537357Y-65200380D02*
X149137357Y-66200380D01*
X149880214Y-65200380D02*
X149937357Y-65200380D01*
X149994500Y-65248000D01*
X150023071Y-65295619D01*
X150051642Y-65390857D01*
X150080214Y-65581333D01*
X150080214Y-65819428D01*
X150051642Y-66009904D01*
X150023071Y-66105142D01*
X149994500Y-66152761D01*
X149937357Y-66200380D01*
X149880214Y-66200380D01*
X149823071Y-66152761D01*
X149794500Y-66105142D01*
X149765928Y-66009904D01*
X149737357Y-65819428D01*
X149737357Y-65581333D01*
X149765928Y-65390857D01*
X149794500Y-65295619D01*
X149823071Y-65248000D01*
X149880214Y-65200380D01*
X148651642Y-62660380D02*
X148994500Y-62660380D01*
X148823071Y-63660380D02*
X148823071Y-62660380D01*
X149137357Y-62660380D02*
X149537357Y-63660380D01*
X149537357Y-62660380D02*
X149137357Y-63660380D01*
X149880214Y-62660380D02*
X149937357Y-62660380D01*
X149994500Y-62708000D01*
X150023071Y-62755619D01*
X150051642Y-62850857D01*
X150080214Y-63041333D01*
X150080214Y-63279428D01*
X150051642Y-63469904D01*
X150023071Y-63565142D01*
X149994500Y-63612761D01*
X149937357Y-63660380D01*
X149880214Y-63660380D01*
X149823071Y-63612761D01*
X149794500Y-63565142D01*
X149765928Y-63469904D01*
X149737357Y-63279428D01*
X149737357Y-63041333D01*
X149765928Y-62850857D01*
X149794500Y-62755619D01*
X149823071Y-62708000D01*
X149880214Y-62660380D01*
X148280214Y-73820380D02*
X148280214Y-72820380D01*
X148680214Y-72820380D02*
X148794500Y-72820380D01*
X148851642Y-72868000D01*
X148908785Y-72963238D01*
X148937357Y-73153714D01*
X148937357Y-73487047D01*
X148908785Y-73677523D01*
X148851642Y-73772761D01*
X148794500Y-73820380D01*
X148680214Y-73820380D01*
X148623071Y-73772761D01*
X148565928Y-73677523D01*
X148537357Y-73487047D01*
X148537357Y-73153714D01*
X148565928Y-72963238D01*
X148623071Y-72868000D01*
X148680214Y-72820380D01*
X149137357Y-72820380D02*
X149508785Y-72820380D01*
X149308785Y-73201333D01*
X149394500Y-73201333D01*
X149451642Y-73248952D01*
X149480214Y-73296571D01*
X149508785Y-73391809D01*
X149508785Y-73629904D01*
X149480214Y-73725142D01*
X149451642Y-73772761D01*
X149394500Y-73820380D01*
X149223071Y-73820380D01*
X149165928Y-73772761D01*
X149137357Y-73725142D01*
X149851642Y-73248952D02*
X149794500Y-73201333D01*
X149765928Y-73153714D01*
X149737357Y-73058476D01*
X149737357Y-73010857D01*
X149765928Y-72915619D01*
X149794500Y-72868000D01*
X149851642Y-72820380D01*
X149965928Y-72820380D01*
X150023071Y-72868000D01*
X150051642Y-72915619D01*
X150080214Y-73010857D01*
X150080214Y-73058476D01*
X150051642Y-73153714D01*
X150023071Y-73201333D01*
X149965928Y-73248952D01*
X149851642Y-73248952D01*
X149794500Y-73296571D01*
X149765928Y-73344190D01*
X149737357Y-73439428D01*
X149737357Y-73629904D01*
X149765928Y-73725142D01*
X149794500Y-73772761D01*
X149851642Y-73820380D01*
X149965928Y-73820380D01*
X150023071Y-73772761D01*
X150051642Y-73725142D01*
X150080214Y-73629904D01*
X150080214Y-73439428D01*
X150051642Y-73344190D01*
X150023071Y-73296571D01*
X149965928Y-73248952D01*
X110442857Y-108452380D02*
X110442857Y-107452380D01*
X110585714Y-107452380D01*
X110671428Y-107500000D01*
X110728571Y-107595238D01*
X110757142Y-107690476D01*
X110785714Y-107880952D01*
X110785714Y-108023809D01*
X110757142Y-108214285D01*
X110728571Y-108309523D01*
X110671428Y-108404761D01*
X110585714Y-108452380D01*
X110442857Y-108452380D01*
X111242857Y-107928571D02*
X111328571Y-107976190D01*
X111357142Y-108023809D01*
X111385714Y-108119047D01*
X111385714Y-108261904D01*
X111357142Y-108357142D01*
X111328571Y-108404761D01*
X111271428Y-108452380D01*
X111042857Y-108452380D01*
X111042857Y-107452380D01*
X111242857Y-107452380D01*
X111300000Y-107500000D01*
X111328571Y-107547619D01*
X111357142Y-107642857D01*
X111357142Y-107738095D01*
X111328571Y-107833333D01*
X111300000Y-107880952D01*
X111242857Y-107928571D01*
X111042857Y-107928571D01*
X111957142Y-107500000D02*
X111900000Y-107452380D01*
X111814285Y-107452380D01*
X111728571Y-107500000D01*
X111671428Y-107595238D01*
X111642857Y-107690476D01*
X111614285Y-107880952D01*
X111614285Y-108023809D01*
X111642857Y-108214285D01*
X111671428Y-108309523D01*
X111728571Y-108404761D01*
X111814285Y-108452380D01*
X111871428Y-108452380D01*
X111957142Y-108404761D01*
X111985714Y-108357142D01*
X111985714Y-108023809D01*
X111871428Y-108023809D01*
X157342857Y-72900000D02*
X157285714Y-72852380D01*
X157200000Y-72852380D01*
X157114285Y-72900000D01*
X157057142Y-72995238D01*
X157028571Y-73090476D01*
X157000000Y-73280952D01*
X157000000Y-73423809D01*
X157028571Y-73614285D01*
X157057142Y-73709523D01*
X157114285Y-73804761D01*
X157200000Y-73852380D01*
X157257142Y-73852380D01*
X157342857Y-73804761D01*
X157371428Y-73757142D01*
X157371428Y-73423809D01*
X157257142Y-73423809D01*
X157628571Y-73852380D02*
X157628571Y-72852380D01*
X157971428Y-73852380D01*
X157971428Y-72852380D01*
X158257142Y-73852380D02*
X158257142Y-72852380D01*
X158400000Y-72852380D01*
X158485714Y-72900000D01*
X158542857Y-72995238D01*
X158571428Y-73090476D01*
X158600000Y-73280952D01*
X158600000Y-73423809D01*
X158571428Y-73614285D01*
X158542857Y-73709523D01*
X158485714Y-73804761D01*
X158400000Y-73852380D01*
X158257142Y-73852380D01*
X150051642Y-77948000D02*
X149994500Y-77900380D01*
X149908785Y-77900380D01*
X149823071Y-77948000D01*
X149765928Y-78043238D01*
X149737357Y-78138476D01*
X149708785Y-78328952D01*
X149708785Y-78471809D01*
X149737357Y-78662285D01*
X149765928Y-78757523D01*
X149823071Y-78852761D01*
X149908785Y-78900380D01*
X149965928Y-78900380D01*
X150051642Y-78852761D01*
X150080214Y-78805142D01*
X150080214Y-78471809D01*
X149965928Y-78471809D01*
X99542857Y-106652380D02*
X99542857Y-105652380D01*
X99542857Y-106128571D02*
X99885714Y-106128571D01*
X99885714Y-106652380D02*
X99885714Y-105652380D01*
X100428571Y-105985714D02*
X100428571Y-106652380D01*
X100285714Y-105604761D02*
X100142857Y-106319047D01*
X100514285Y-106319047D01*
X103332857Y-50472380D02*
X103332857Y-49472380D01*
X103332857Y-49948571D02*
X103675714Y-49948571D01*
X103675714Y-50472380D02*
X103675714Y-49472380D01*
X104275714Y-50472380D02*
X103932857Y-50472380D01*
X104104285Y-50472380D02*
X104104285Y-49472380D01*
X104047142Y-49615238D01*
X103990000Y-49710476D01*
X103932857Y-49758095D01*
X141707142Y-77579380D02*
X142050000Y-77579380D01*
X141878571Y-78579380D02*
X141878571Y-77579380D01*
X142250000Y-78579380D02*
X142250000Y-77579380D01*
X142478571Y-77579380D01*
X142535714Y-77627000D01*
X142564285Y-77674619D01*
X142592857Y-77769857D01*
X142592857Y-77912714D01*
X142564285Y-78007952D01*
X142535714Y-78055571D01*
X142478571Y-78103190D01*
X142250000Y-78103190D01*
X142821428Y-77674619D02*
X142850000Y-77627000D01*
X142907142Y-77579380D01*
X143050000Y-77579380D01*
X143107142Y-77627000D01*
X143135714Y-77674619D01*
X143164285Y-77769857D01*
X143164285Y-77865095D01*
X143135714Y-78007952D01*
X142792857Y-78579380D01*
X143164285Y-78579380D01*
X143535714Y-77579380D02*
X143592857Y-77579380D01*
X143650000Y-77627000D01*
X143678571Y-77674619D01*
X143707142Y-77769857D01*
X143735714Y-77960333D01*
X143735714Y-78198428D01*
X143707142Y-78388904D01*
X143678571Y-78484142D01*
X143650000Y-78531761D01*
X143592857Y-78579380D01*
X143535714Y-78579380D01*
X143478571Y-78531761D01*
X143450000Y-78484142D01*
X143421428Y-78388904D01*
X143392857Y-78198428D01*
X143392857Y-77960333D01*
X143421428Y-77769857D01*
X143450000Y-77674619D01*
X143478571Y-77627000D01*
X143535714Y-77579380D01*
X130452380Y-95057142D02*
X129452380Y-95057142D01*
X130452380Y-94714285D02*
X129880952Y-94971428D01*
X129452380Y-94714285D02*
X130023809Y-95057142D01*
X129928571Y-94457142D02*
X129928571Y-94257142D01*
X130452380Y-94171428D02*
X130452380Y-94457142D01*
X129452380Y-94457142D01*
X129452380Y-94171428D01*
X129928571Y-93914285D02*
X129928571Y-93714285D01*
X130452380Y-93628571D02*
X130452380Y-93914285D01*
X129452380Y-93914285D01*
X129452380Y-93628571D01*
X130452380Y-93371428D02*
X129452380Y-93371428D01*
X129452380Y-93142857D01*
X129500000Y-93085714D01*
X129547619Y-93057142D01*
X129642857Y-93028571D01*
X129785714Y-93028571D01*
X129880952Y-93057142D01*
X129928571Y-93085714D01*
X129976190Y-93142857D01*
X129976190Y-93371428D01*
X129452380Y-92657142D02*
X129452380Y-92542857D01*
X129500000Y-92485714D01*
X129595238Y-92428571D01*
X129785714Y-92400000D01*
X130119047Y-92400000D01*
X130309523Y-92428571D01*
X130404761Y-92485714D01*
X130452380Y-92542857D01*
X130452380Y-92657142D01*
X130404761Y-92714285D01*
X130309523Y-92771428D01*
X130119047Y-92800000D01*
X129785714Y-92800000D01*
X129595238Y-92771428D01*
X129500000Y-92714285D01*
X129452380Y-92657142D01*
X129452380Y-92142857D02*
X130261904Y-92142857D01*
X130357142Y-92114285D01*
X130404761Y-92085714D01*
X130452380Y-92028571D01*
X130452380Y-91914285D01*
X130404761Y-91857142D01*
X130357142Y-91828571D01*
X130261904Y-91800000D01*
X129452380Y-91800000D01*
X129452380Y-91600000D02*
X129452380Y-91257142D01*
X130452380Y-91428571D02*
X129452380Y-91428571D01*
X129928571Y-90600000D02*
X129928571Y-90400000D01*
X130452380Y-90314285D02*
X130452380Y-90600000D01*
X129452380Y-90600000D01*
X129452380Y-90314285D01*
X129452380Y-90114285D02*
X130452380Y-89714285D01*
X129452380Y-89714285D02*
X130452380Y-90114285D01*
X130357142Y-89142857D02*
X130404761Y-89171428D01*
X130452380Y-89257142D01*
X130452380Y-89314285D01*
X130404761Y-89400000D01*
X130309523Y-89457142D01*
X130214285Y-89485714D01*
X130023809Y-89514285D01*
X129880952Y-89514285D01*
X129690476Y-89485714D01*
X129595238Y-89457142D01*
X129500000Y-89400000D01*
X129452380Y-89314285D01*
X129452380Y-89257142D01*
X129500000Y-89171428D01*
X129547619Y-89142857D01*
X129928571Y-88885714D02*
X129928571Y-88685714D01*
X130452380Y-88600000D02*
X130452380Y-88885714D01*
X129452380Y-88885714D01*
X129452380Y-88600000D01*
X130452380Y-88342857D02*
X129452380Y-88342857D01*
X129452380Y-88114285D01*
X129500000Y-88057142D01*
X129547619Y-88028571D01*
X129642857Y-88000000D01*
X129785714Y-88000000D01*
X129880952Y-88028571D01*
X129928571Y-88057142D01*
X129976190Y-88114285D01*
X129976190Y-88342857D01*
X129452380Y-87828571D02*
X129452380Y-87485714D01*
X130452380Y-87657142D02*
X129452380Y-87657142D01*
X129500000Y-86514285D02*
X129452380Y-86571428D01*
X129452380Y-86657142D01*
X129500000Y-86742857D01*
X129595238Y-86800000D01*
X129690476Y-86828571D01*
X129880952Y-86857142D01*
X130023809Y-86857142D01*
X130214285Y-86828571D01*
X130309523Y-86800000D01*
X130404761Y-86742857D01*
X130452380Y-86657142D01*
X130452380Y-86600000D01*
X130404761Y-86514285D01*
X130357142Y-86485714D01*
X130023809Y-86485714D01*
X130023809Y-86600000D01*
X130452380Y-85885714D02*
X129976190Y-86085714D01*
X130452380Y-86228571D02*
X129452380Y-86228571D01*
X129452380Y-86000000D01*
X129500000Y-85942857D01*
X129547619Y-85914285D01*
X129642857Y-85885714D01*
X129785714Y-85885714D01*
X129880952Y-85914285D01*
X129928571Y-85942857D01*
X129976190Y-86000000D01*
X129976190Y-86228571D01*
X129452380Y-85514285D02*
X129452380Y-85400000D01*
X129500000Y-85342857D01*
X129595238Y-85285714D01*
X129785714Y-85257142D01*
X130119047Y-85257142D01*
X130309523Y-85285714D01*
X130404761Y-85342857D01*
X130452380Y-85400000D01*
X130452380Y-85514285D01*
X130404761Y-85571428D01*
X130309523Y-85628571D01*
X130119047Y-85657142D01*
X129785714Y-85657142D01*
X129595238Y-85628571D01*
X129500000Y-85571428D01*
X129452380Y-85514285D01*
X129452380Y-85000000D02*
X130261904Y-85000000D01*
X130357142Y-84971428D01*
X130404761Y-84942857D01*
X130452380Y-84885714D01*
X130452380Y-84771428D01*
X130404761Y-84714285D01*
X130357142Y-84685714D01*
X130261904Y-84657142D01*
X129452380Y-84657142D01*
X130452380Y-84371428D02*
X129452380Y-84371428D01*
X130452380Y-84028571D01*
X129452380Y-84028571D01*
X130452380Y-83742857D02*
X129452380Y-83742857D01*
X129452380Y-83600000D01*
X129500000Y-83514285D01*
X129595238Y-83457142D01*
X129690476Y-83428571D01*
X129880952Y-83400000D01*
X130023809Y-83400000D01*
X130214285Y-83428571D01*
X130309523Y-83457142D01*
X130404761Y-83514285D01*
X130452380Y-83600000D01*
X130452380Y-83742857D01*
X130452380Y-82685714D02*
X129452380Y-82685714D01*
X129452380Y-82457142D01*
X129500000Y-82400000D01*
X129547619Y-82371428D01*
X129642857Y-82342857D01*
X129785714Y-82342857D01*
X129880952Y-82371428D01*
X129928571Y-82400000D01*
X129976190Y-82457142D01*
X129976190Y-82685714D01*
X129452380Y-81971428D02*
X129452380Y-81857142D01*
X129500000Y-81800000D01*
X129595238Y-81742857D01*
X129785714Y-81714285D01*
X130119047Y-81714285D01*
X130309523Y-81742857D01*
X130404761Y-81800000D01*
X130452380Y-81857142D01*
X130452380Y-81971428D01*
X130404761Y-82028571D01*
X130309523Y-82085714D01*
X130119047Y-82114285D01*
X129785714Y-82114285D01*
X129595238Y-82085714D01*
X129500000Y-82028571D01*
X129452380Y-81971428D01*
X129452380Y-81457142D02*
X130261904Y-81457142D01*
X130357142Y-81428571D01*
X130404761Y-81400000D01*
X130452380Y-81342857D01*
X130452380Y-81228571D01*
X130404761Y-81171428D01*
X130357142Y-81142857D01*
X130261904Y-81114285D01*
X129452380Y-81114285D01*
X130452380Y-80485714D02*
X129976190Y-80685714D01*
X130452380Y-80828571D02*
X129452380Y-80828571D01*
X129452380Y-80600000D01*
X129500000Y-80542857D01*
X129547619Y-80514285D01*
X129642857Y-80485714D01*
X129785714Y-80485714D01*
X129880952Y-80514285D01*
X129928571Y-80542857D01*
X129976190Y-80600000D01*
X129976190Y-80828571D01*
X130404761Y-80257142D02*
X130452380Y-80171428D01*
X130452380Y-80028571D01*
X130404761Y-79971428D01*
X130357142Y-79942857D01*
X130261904Y-79914285D01*
X130166666Y-79914285D01*
X130071428Y-79942857D01*
X130023809Y-79971428D01*
X129976190Y-80028571D01*
X129928571Y-80142857D01*
X129880952Y-80200000D01*
X129833333Y-80228571D01*
X129738095Y-80257142D01*
X129642857Y-80257142D01*
X129547619Y-80228571D01*
X129500000Y-80200000D01*
X129452380Y-80142857D01*
X129452380Y-80000000D01*
X129500000Y-79914285D01*
X143778857Y-60120380D02*
X144121714Y-60120380D01*
X143950285Y-61120380D02*
X143950285Y-60120380D01*
X144321714Y-61120380D02*
X144321714Y-60120380D01*
X144550285Y-60120380D01*
X144607428Y-60168000D01*
X144636000Y-60215619D01*
X144664571Y-60310857D01*
X144664571Y-60453714D01*
X144636000Y-60548952D01*
X144607428Y-60596571D01*
X144550285Y-60644190D01*
X144321714Y-60644190D01*
X145236000Y-61120380D02*
X144893142Y-61120380D01*
X145064571Y-61120380D02*
X145064571Y-60120380D01*
X145007428Y-60263238D01*
X144950285Y-60358476D01*
X144893142Y-60406095D01*
X122297380Y-93760714D02*
X121821190Y-93960714D01*
X122297380Y-94103571D02*
X121297380Y-94103571D01*
X121297380Y-93875000D01*
X121345000Y-93817857D01*
X121392619Y-93789285D01*
X121487857Y-93760714D01*
X121630714Y-93760714D01*
X121725952Y-93789285D01*
X121773571Y-93817857D01*
X121821190Y-93875000D01*
X121821190Y-94103571D01*
X122297380Y-93189285D02*
X122297380Y-93532142D01*
X122297380Y-93360714D02*
X121297380Y-93360714D01*
X121440238Y-93417857D01*
X121535476Y-93475000D01*
X121583095Y-93532142D01*
X121297380Y-92989285D02*
X121297380Y-92617857D01*
X121678333Y-92817857D01*
X121678333Y-92732142D01*
X121725952Y-92675000D01*
X121773571Y-92646428D01*
X121868809Y-92617857D01*
X122106904Y-92617857D01*
X122202142Y-92646428D01*
X122249761Y-92675000D01*
X122297380Y-92732142D01*
X122297380Y-92903571D01*
X122249761Y-92960714D01*
X122202142Y-92989285D01*
X160600000Y-72494761D02*
X160685714Y-72542380D01*
X160828571Y-72542380D01*
X160885714Y-72494761D01*
X160914285Y-72447142D01*
X160942857Y-72351904D01*
X160942857Y-72256666D01*
X160914285Y-72161428D01*
X160885714Y-72113809D01*
X160828571Y-72066190D01*
X160714285Y-72018571D01*
X160657142Y-71970952D01*
X160628571Y-71923333D01*
X160600000Y-71828095D01*
X160600000Y-71732857D01*
X160628571Y-71637619D01*
X160657142Y-71590000D01*
X160714285Y-71542380D01*
X160857142Y-71542380D01*
X160942857Y-71590000D01*
X161142857Y-71542380D02*
X161285714Y-72542380D01*
X161400000Y-71828095D01*
X161514285Y-72542380D01*
X161657142Y-71542380D01*
X161857142Y-71637619D02*
X161885714Y-71590000D01*
X161942857Y-71542380D01*
X162085714Y-71542380D01*
X162142857Y-71590000D01*
X162171428Y-71637619D01*
X162200000Y-71732857D01*
X162200000Y-71828095D01*
X162171428Y-71970952D01*
X161828571Y-72542380D01*
X162200000Y-72542380D01*
X100122380Y-79170000D02*
X100122380Y-79455714D01*
X99122380Y-79455714D01*
X100122380Y-78655714D02*
X100122380Y-78998571D01*
X100122380Y-78827142D02*
X99122380Y-78827142D01*
X99265238Y-78884285D01*
X99360476Y-78941428D01*
X99408095Y-78998571D01*
X131564285Y-110042142D02*
X131535714Y-110089761D01*
X131450000Y-110137380D01*
X131392857Y-110137380D01*
X131307142Y-110089761D01*
X131250000Y-109994523D01*
X131221428Y-109899285D01*
X131192857Y-109708809D01*
X131192857Y-109565952D01*
X131221428Y-109375476D01*
X131250000Y-109280238D01*
X131307142Y-109185000D01*
X131392857Y-109137380D01*
X131450000Y-109137380D01*
X131535714Y-109185000D01*
X131564285Y-109232619D01*
X131764285Y-109137380D02*
X132135714Y-109137380D01*
X131935714Y-109518333D01*
X132021428Y-109518333D01*
X132078571Y-109565952D01*
X132107142Y-109613571D01*
X132135714Y-109708809D01*
X132135714Y-109946904D01*
X132107142Y-110042142D01*
X132078571Y-110089761D01*
X132021428Y-110137380D01*
X131850000Y-110137380D01*
X131792857Y-110089761D01*
X131764285Y-110042142D01*
X132335714Y-109137380D02*
X132707142Y-109137380D01*
X132507142Y-109518333D01*
X132592857Y-109518333D01*
X132650000Y-109565952D01*
X132678571Y-109613571D01*
X132707142Y-109708809D01*
X132707142Y-109946904D01*
X132678571Y-110042142D01*
X132650000Y-110089761D01*
X132592857Y-110137380D01*
X132421428Y-110137380D01*
X132364285Y-110089761D01*
X132335714Y-110042142D01*
X142357142Y-90652380D02*
X142357142Y-89652380D01*
X142500000Y-89652380D01*
X142585714Y-89700000D01*
X142642857Y-89795238D01*
X142671428Y-89890476D01*
X142700000Y-90080952D01*
X142700000Y-90223809D01*
X142671428Y-90414285D01*
X142642857Y-90509523D01*
X142585714Y-90604761D01*
X142500000Y-90652380D01*
X142357142Y-90652380D01*
X143214285Y-89652380D02*
X143100000Y-89652380D01*
X143042857Y-89700000D01*
X143014285Y-89747619D01*
X142957142Y-89890476D01*
X142928571Y-90080952D01*
X142928571Y-90461904D01*
X142957142Y-90557142D01*
X142985714Y-90604761D01*
X143042857Y-90652380D01*
X143157142Y-90652380D01*
X143214285Y-90604761D01*
X143242857Y-90557142D01*
X143271428Y-90461904D01*
X143271428Y-90223809D01*
X143242857Y-90128571D01*
X143214285Y-90080952D01*
X143157142Y-90033333D01*
X143042857Y-90033333D01*
X142985714Y-90080952D01*
X142957142Y-90128571D01*
X142928571Y-90223809D01*
X142114285Y-83752380D02*
X141914285Y-83276190D01*
X141771428Y-83752380D02*
X141771428Y-82752380D01*
X142000000Y-82752380D01*
X142057142Y-82800000D01*
X142085714Y-82847619D01*
X142114285Y-82942857D01*
X142114285Y-83085714D01*
X142085714Y-83180952D01*
X142057142Y-83228571D01*
X142000000Y-83276190D01*
X141771428Y-83276190D01*
X142342857Y-82847619D02*
X142371428Y-82800000D01*
X142428571Y-82752380D01*
X142571428Y-82752380D01*
X142628571Y-82800000D01*
X142657142Y-82847619D01*
X142685714Y-82942857D01*
X142685714Y-83038095D01*
X142657142Y-83180952D01*
X142314285Y-83752380D01*
X142685714Y-83752380D01*
X143228571Y-82752380D02*
X142942857Y-82752380D01*
X142914285Y-83228571D01*
X142942857Y-83180952D01*
X143000000Y-83133333D01*
X143142857Y-83133333D01*
X143200000Y-83180952D01*
X143228571Y-83228571D01*
X143257142Y-83323809D01*
X143257142Y-83561904D01*
X143228571Y-83657142D01*
X143200000Y-83704761D01*
X143142857Y-83752380D01*
X143000000Y-83752380D01*
X142942857Y-83704761D01*
X142914285Y-83657142D01*
X102757142Y-94252380D02*
X102757142Y-93252380D01*
X102900000Y-93252380D01*
X102985714Y-93300000D01*
X103042857Y-93395238D01*
X103071428Y-93490476D01*
X103100000Y-93680952D01*
X103100000Y-93823809D01*
X103071428Y-94014285D01*
X103042857Y-94109523D01*
X102985714Y-94204761D01*
X102900000Y-94252380D01*
X102757142Y-94252380D01*
X103614285Y-93585714D02*
X103614285Y-94252380D01*
X103471428Y-93204761D02*
X103328571Y-93919047D01*
X103700000Y-93919047D01*
X108697142Y-88252380D02*
X109040000Y-88252380D01*
X108868571Y-89252380D02*
X108868571Y-88252380D01*
X109240000Y-89252380D02*
X109240000Y-88252380D01*
X109468571Y-88252380D01*
X109525714Y-88300000D01*
X109554285Y-88347619D01*
X109582857Y-88442857D01*
X109582857Y-88585714D01*
X109554285Y-88680952D01*
X109525714Y-88728571D01*
X109468571Y-88776190D01*
X109240000Y-88776190D01*
X109782857Y-88252380D02*
X110154285Y-88252380D01*
X109954285Y-88633333D01*
X110040000Y-88633333D01*
X110097142Y-88680952D01*
X110125714Y-88728571D01*
X110154285Y-88823809D01*
X110154285Y-89061904D01*
X110125714Y-89157142D01*
X110097142Y-89204761D01*
X110040000Y-89252380D01*
X109868571Y-89252380D01*
X109811428Y-89204761D01*
X109782857Y-89157142D01*
X110525714Y-88252380D02*
X110582857Y-88252380D01*
X110640000Y-88300000D01*
X110668571Y-88347619D01*
X110697142Y-88442857D01*
X110725714Y-88633333D01*
X110725714Y-88871428D01*
X110697142Y-89061904D01*
X110668571Y-89157142D01*
X110640000Y-89204761D01*
X110582857Y-89252380D01*
X110525714Y-89252380D01*
X110468571Y-89204761D01*
X110440000Y-89157142D01*
X110411428Y-89061904D01*
X110382857Y-88871428D01*
X110382857Y-88633333D01*
X110411428Y-88442857D01*
X110440000Y-88347619D01*
X110468571Y-88300000D01*
X110525714Y-88252380D01*
X116307142Y-54754380D02*
X116650000Y-54754380D01*
X116478571Y-55754380D02*
X116478571Y-54754380D01*
X116850000Y-55754380D02*
X116850000Y-54754380D01*
X117078571Y-54754380D01*
X117135714Y-54802000D01*
X117164285Y-54849619D01*
X117192857Y-54944857D01*
X117192857Y-55087714D01*
X117164285Y-55182952D01*
X117135714Y-55230571D01*
X117078571Y-55278190D01*
X116850000Y-55278190D01*
X117421428Y-54849619D02*
X117450000Y-54802000D01*
X117507142Y-54754380D01*
X117650000Y-54754380D01*
X117707142Y-54802000D01*
X117735714Y-54849619D01*
X117764285Y-54944857D01*
X117764285Y-55040095D01*
X117735714Y-55182952D01*
X117392857Y-55754380D01*
X117764285Y-55754380D01*
X117964285Y-54754380D02*
X118364285Y-54754380D01*
X118107142Y-55754380D01*
X111771428Y-84452380D02*
X111771428Y-83452380D01*
X111914285Y-83452380D01*
X112000000Y-83500000D01*
X112057142Y-83595238D01*
X112085714Y-83690476D01*
X112114285Y-83880952D01*
X112114285Y-84023809D01*
X112085714Y-84214285D01*
X112057142Y-84309523D01*
X112000000Y-84404761D01*
X111914285Y-84452380D01*
X111771428Y-84452380D01*
X112685714Y-84452380D02*
X112342857Y-84452380D01*
X112514285Y-84452380D02*
X112514285Y-83452380D01*
X112457142Y-83595238D01*
X112400000Y-83690476D01*
X112342857Y-83738095D01*
X113257142Y-84452380D02*
X112914285Y-84452380D01*
X113085714Y-84452380D02*
X113085714Y-83452380D01*
X113028571Y-83595238D01*
X112971428Y-83690476D01*
X112914285Y-83738095D01*
X146342857Y-72054380D02*
X146685714Y-72054380D01*
X146514285Y-73054380D02*
X146514285Y-72054380D01*
X146885714Y-73054380D02*
X146885714Y-72054380D01*
X147114285Y-72054380D01*
X147171428Y-72102000D01*
X147200000Y-72149619D01*
X147228571Y-72244857D01*
X147228571Y-72387714D01*
X147200000Y-72482952D01*
X147171428Y-72530571D01*
X147114285Y-72578190D01*
X146885714Y-72578190D01*
X147571428Y-72482952D02*
X147514285Y-72435333D01*
X147485714Y-72387714D01*
X147457142Y-72292476D01*
X147457142Y-72244857D01*
X147485714Y-72149619D01*
X147514285Y-72102000D01*
X147571428Y-72054380D01*
X147685714Y-72054380D01*
X147742857Y-72102000D01*
X147771428Y-72149619D01*
X147800000Y-72244857D01*
X147800000Y-72292476D01*
X147771428Y-72387714D01*
X147742857Y-72435333D01*
X147685714Y-72482952D01*
X147571428Y-72482952D01*
X147514285Y-72530571D01*
X147485714Y-72578190D01*
X147457142Y-72673428D01*
X147457142Y-72863904D01*
X147485714Y-72959142D01*
X147514285Y-73006761D01*
X147571428Y-73054380D01*
X147685714Y-73054380D01*
X147742857Y-73006761D01*
X147771428Y-72959142D01*
X147800000Y-72863904D01*
X147800000Y-72673428D01*
X147771428Y-72578190D01*
X147742857Y-72530571D01*
X147685714Y-72482952D01*
X114627142Y-98784380D02*
X114970000Y-98784380D01*
X114798571Y-99784380D02*
X114798571Y-98784380D01*
X115170000Y-99784380D02*
X115170000Y-98784380D01*
X115398571Y-98784380D01*
X115455714Y-98832000D01*
X115484285Y-98879619D01*
X115512857Y-98974857D01*
X115512857Y-99117714D01*
X115484285Y-99212952D01*
X115455714Y-99260571D01*
X115398571Y-99308190D01*
X115170000Y-99308190D01*
X116084285Y-99784380D02*
X115741428Y-99784380D01*
X115912857Y-99784380D02*
X115912857Y-98784380D01*
X115855714Y-98927238D01*
X115798571Y-99022476D01*
X115741428Y-99070095D01*
X116598571Y-98784380D02*
X116484285Y-98784380D01*
X116427142Y-98832000D01*
X116398571Y-98879619D01*
X116341428Y-99022476D01*
X116312857Y-99212952D01*
X116312857Y-99593904D01*
X116341428Y-99689142D01*
X116370000Y-99736761D01*
X116427142Y-99784380D01*
X116541428Y-99784380D01*
X116598571Y-99736761D01*
X116627142Y-99689142D01*
X116655714Y-99593904D01*
X116655714Y-99355809D01*
X116627142Y-99260571D01*
X116598571Y-99212952D01*
X116541428Y-99165333D01*
X116427142Y-99165333D01*
X116370000Y-99212952D01*
X116341428Y-99260571D01*
X116312857Y-99355809D01*
X141782142Y-74029380D02*
X142125000Y-74029380D01*
X141953571Y-75029380D02*
X141953571Y-74029380D01*
X142325000Y-75029380D02*
X142325000Y-74029380D01*
X142553571Y-74029380D01*
X142610714Y-74077000D01*
X142639285Y-74124619D01*
X142667857Y-74219857D01*
X142667857Y-74362714D01*
X142639285Y-74457952D01*
X142610714Y-74505571D01*
X142553571Y-74553190D01*
X142325000Y-74553190D01*
X143239285Y-75029380D02*
X142896428Y-75029380D01*
X143067857Y-75029380D02*
X143067857Y-74029380D01*
X143010714Y-74172238D01*
X142953571Y-74267476D01*
X142896428Y-74315095D01*
X143525000Y-75029380D02*
X143639285Y-75029380D01*
X143696428Y-74981761D01*
X143725000Y-74934142D01*
X143782142Y-74791285D01*
X143810714Y-74600809D01*
X143810714Y-74219857D01*
X143782142Y-74124619D01*
X143753571Y-74077000D01*
X143696428Y-74029380D01*
X143582142Y-74029380D01*
X143525000Y-74077000D01*
X143496428Y-74124619D01*
X143467857Y-74219857D01*
X143467857Y-74457952D01*
X143496428Y-74553190D01*
X143525000Y-74600809D01*
X143582142Y-74648428D01*
X143696428Y-74648428D01*
X143753571Y-74600809D01*
X143782142Y-74553190D01*
X143810714Y-74457952D01*
X103552857Y-110842380D02*
X103895714Y-110842380D01*
X103724285Y-111842380D02*
X103724285Y-110842380D01*
X104095714Y-111842380D02*
X104095714Y-110842380D01*
X104324285Y-110842380D01*
X104381428Y-110890000D01*
X104410000Y-110937619D01*
X104438571Y-111032857D01*
X104438571Y-111175714D01*
X104410000Y-111270952D01*
X104381428Y-111318571D01*
X104324285Y-111366190D01*
X104095714Y-111366190D01*
X104952857Y-111175714D02*
X104952857Y-111842380D01*
X104810000Y-110794761D02*
X104667142Y-111509047D01*
X105038571Y-111509047D01*
X104207142Y-81242380D02*
X104550000Y-81242380D01*
X104378571Y-82242380D02*
X104378571Y-81242380D01*
X104750000Y-82242380D02*
X104750000Y-81242380D01*
X104978571Y-81242380D01*
X105035714Y-81290000D01*
X105064285Y-81337619D01*
X105092857Y-81432857D01*
X105092857Y-81575714D01*
X105064285Y-81670952D01*
X105035714Y-81718571D01*
X104978571Y-81766190D01*
X104750000Y-81766190D01*
X105321428Y-81337619D02*
X105350000Y-81290000D01*
X105407142Y-81242380D01*
X105550000Y-81242380D01*
X105607142Y-81290000D01*
X105635714Y-81337619D01*
X105664285Y-81432857D01*
X105664285Y-81528095D01*
X105635714Y-81670952D01*
X105292857Y-82242380D01*
X105664285Y-82242380D01*
X106178571Y-81575714D02*
X106178571Y-82242380D01*
X106035714Y-81194761D02*
X105892857Y-81909047D01*
X106264285Y-81909047D01*
X124200000Y-56404761D02*
X124285714Y-56452380D01*
X124428571Y-56452380D01*
X124485714Y-56404761D01*
X124514285Y-56357142D01*
X124542857Y-56261904D01*
X124542857Y-56166666D01*
X124514285Y-56071428D01*
X124485714Y-56023809D01*
X124428571Y-55976190D01*
X124314285Y-55928571D01*
X124257142Y-55880952D01*
X124228571Y-55833333D01*
X124200000Y-55738095D01*
X124200000Y-55642857D01*
X124228571Y-55547619D01*
X124257142Y-55500000D01*
X124314285Y-55452380D01*
X124457142Y-55452380D01*
X124542857Y-55500000D01*
X124742857Y-55452380D02*
X124885714Y-56452380D01*
X125000000Y-55738095D01*
X125114285Y-56452380D01*
X125257142Y-55452380D01*
X125742857Y-55785714D02*
X125742857Y-56452380D01*
X125600000Y-55404761D02*
X125457142Y-56119047D01*
X125828571Y-56119047D01*
X118602380Y-52038571D02*
X119411904Y-52038571D01*
X119507142Y-52010000D01*
X119554761Y-51981428D01*
X119602380Y-51924285D01*
X119602380Y-51810000D01*
X119554761Y-51752857D01*
X119507142Y-51724285D01*
X119411904Y-51695714D01*
X118602380Y-51695714D01*
X119554761Y-51438571D02*
X119602380Y-51352857D01*
X119602380Y-51210000D01*
X119554761Y-51152857D01*
X119507142Y-51124285D01*
X119411904Y-51095714D01*
X119316666Y-51095714D01*
X119221428Y-51124285D01*
X119173809Y-51152857D01*
X119126190Y-51210000D01*
X119078571Y-51324285D01*
X119030952Y-51381428D01*
X118983333Y-51410000D01*
X118888095Y-51438571D01*
X118792857Y-51438571D01*
X118697619Y-51410000D01*
X118650000Y-51381428D01*
X118602380Y-51324285D01*
X118602380Y-51181428D01*
X118650000Y-51095714D01*
X119602380Y-50495714D02*
X119126190Y-50695714D01*
X119602380Y-50838571D02*
X118602380Y-50838571D01*
X118602380Y-50610000D01*
X118650000Y-50552857D01*
X118697619Y-50524285D01*
X118792857Y-50495714D01*
X118935714Y-50495714D01*
X119030952Y-50524285D01*
X119078571Y-50552857D01*
X119126190Y-50610000D01*
X119126190Y-50838571D01*
X119697619Y-50381428D02*
X119697619Y-49924285D01*
X119078571Y-49581428D02*
X119126190Y-49495714D01*
X119173809Y-49467142D01*
X119269047Y-49438571D01*
X119411904Y-49438571D01*
X119507142Y-49467142D01*
X119554761Y-49495714D01*
X119602380Y-49552857D01*
X119602380Y-49781428D01*
X118602380Y-49781428D01*
X118602380Y-49581428D01*
X118650000Y-49524285D01*
X118697619Y-49495714D01*
X118792857Y-49467142D01*
X118888095Y-49467142D01*
X118983333Y-49495714D01*
X119030952Y-49524285D01*
X119078571Y-49581428D01*
X119078571Y-49781428D01*
X118602380Y-49267142D02*
X118602380Y-48924285D01*
X119602380Y-49095714D02*
X118602380Y-49095714D01*
X119602380Y-48724285D02*
X118602380Y-48724285D01*
X119602380Y-48381428D01*
X118602380Y-48381428D01*
X108267857Y-109079380D02*
X108610714Y-109079380D01*
X108439285Y-110079380D02*
X108439285Y-109079380D01*
X108810714Y-110079380D02*
X108810714Y-109079380D01*
X109039285Y-109079380D01*
X109096428Y-109127000D01*
X109125000Y-109174619D01*
X109153571Y-109269857D01*
X109153571Y-109412714D01*
X109125000Y-109507952D01*
X109096428Y-109555571D01*
X109039285Y-109603190D01*
X108810714Y-109603190D01*
X109353571Y-109079380D02*
X109725000Y-109079380D01*
X109525000Y-109460333D01*
X109610714Y-109460333D01*
X109667857Y-109507952D01*
X109696428Y-109555571D01*
X109725000Y-109650809D01*
X109725000Y-109888904D01*
X109696428Y-109984142D01*
X109667857Y-110031761D01*
X109610714Y-110079380D01*
X109439285Y-110079380D01*
X109382142Y-110031761D01*
X109353571Y-109984142D01*
X146921428Y-84552380D02*
X146921428Y-83552380D01*
X147064285Y-83552380D01*
X147150000Y-83600000D01*
X147207142Y-83695238D01*
X147235714Y-83790476D01*
X147264285Y-83980952D01*
X147264285Y-84123809D01*
X147235714Y-84314285D01*
X147207142Y-84409523D01*
X147150000Y-84504761D01*
X147064285Y-84552380D01*
X146921428Y-84552380D01*
X147835714Y-84552380D02*
X147492857Y-84552380D01*
X147664285Y-84552380D02*
X147664285Y-83552380D01*
X147607142Y-83695238D01*
X147550000Y-83790476D01*
X147492857Y-83838095D01*
X148207142Y-83552380D02*
X148264285Y-83552380D01*
X148321428Y-83600000D01*
X148350000Y-83647619D01*
X148378571Y-83742857D01*
X148407142Y-83933333D01*
X148407142Y-84171428D01*
X148378571Y-84361904D01*
X148350000Y-84457142D01*
X148321428Y-84504761D01*
X148264285Y-84552380D01*
X148207142Y-84552380D01*
X148150000Y-84504761D01*
X148121428Y-84457142D01*
X148092857Y-84361904D01*
X148064285Y-84171428D01*
X148064285Y-83933333D01*
X148092857Y-83742857D01*
X148121428Y-83647619D01*
X148150000Y-83600000D01*
X148207142Y-83552380D01*
X145932142Y-76354380D02*
X146275000Y-76354380D01*
X146103571Y-77354380D02*
X146103571Y-76354380D01*
X146475000Y-77354380D02*
X146475000Y-76354380D01*
X146703571Y-76354380D01*
X146760714Y-76402000D01*
X146789285Y-76449619D01*
X146817857Y-76544857D01*
X146817857Y-76687714D01*
X146789285Y-76782952D01*
X146760714Y-76830571D01*
X146703571Y-76878190D01*
X146475000Y-76878190D01*
X147389285Y-77354380D02*
X147046428Y-77354380D01*
X147217857Y-77354380D02*
X147217857Y-76354380D01*
X147160714Y-76497238D01*
X147103571Y-76592476D01*
X147046428Y-76640095D01*
X147589285Y-76354380D02*
X147960714Y-76354380D01*
X147760714Y-76735333D01*
X147846428Y-76735333D01*
X147903571Y-76782952D01*
X147932142Y-76830571D01*
X147960714Y-76925809D01*
X147960714Y-77163904D01*
X147932142Y-77259142D01*
X147903571Y-77306761D01*
X147846428Y-77354380D01*
X147675000Y-77354380D01*
X147617857Y-77306761D01*
X147589285Y-77259142D01*
X111452380Y-98200000D02*
X112166666Y-98200000D01*
X112309523Y-98228571D01*
X112404761Y-98285714D01*
X112452380Y-98371428D01*
X112452380Y-98428571D01*
X112452380Y-97600000D02*
X112452380Y-97942857D01*
X112452380Y-97771428D02*
X111452380Y-97771428D01*
X111595238Y-97828571D01*
X111690476Y-97885714D01*
X111738095Y-97942857D01*
X138339285Y-83657142D02*
X138310714Y-83704761D01*
X138225000Y-83752380D01*
X138167857Y-83752380D01*
X138082142Y-83704761D01*
X138025000Y-83609523D01*
X137996428Y-83514285D01*
X137967857Y-83323809D01*
X137967857Y-83180952D01*
X137996428Y-82990476D01*
X138025000Y-82895238D01*
X138082142Y-82800000D01*
X138167857Y-82752380D01*
X138225000Y-82752380D01*
X138310714Y-82800000D01*
X138339285Y-82847619D01*
X138910714Y-83752380D02*
X138567857Y-83752380D01*
X138739285Y-83752380D02*
X138739285Y-82752380D01*
X138682142Y-82895238D01*
X138625000Y-82990476D01*
X138567857Y-83038095D01*
X139425000Y-83085714D02*
X139425000Y-83752380D01*
X139282142Y-82704761D02*
X139139285Y-83419047D01*
X139510714Y-83419047D01*
X114621428Y-49562380D02*
X114621428Y-48562380D01*
X114764285Y-48562380D01*
X114850000Y-48610000D01*
X114907142Y-48705238D01*
X114935714Y-48800476D01*
X114964285Y-48990952D01*
X114964285Y-49133809D01*
X114935714Y-49324285D01*
X114907142Y-49419523D01*
X114850000Y-49514761D01*
X114764285Y-49562380D01*
X114621428Y-49562380D01*
X115535714Y-49562380D02*
X115192857Y-49562380D01*
X115364285Y-49562380D02*
X115364285Y-48562380D01*
X115307142Y-48705238D01*
X115250000Y-48800476D01*
X115192857Y-48848095D01*
X116078571Y-48562380D02*
X115792857Y-48562380D01*
X115764285Y-49038571D01*
X115792857Y-48990952D01*
X115850000Y-48943333D01*
X115992857Y-48943333D01*
X116050000Y-48990952D01*
X116078571Y-49038571D01*
X116107142Y-49133809D01*
X116107142Y-49371904D01*
X116078571Y-49467142D01*
X116050000Y-49514761D01*
X115992857Y-49562380D01*
X115850000Y-49562380D01*
X115792857Y-49514761D01*
X115764285Y-49467142D01*
X142882142Y-57302380D02*
X142882142Y-58111904D01*
X142910714Y-58207142D01*
X142939285Y-58254761D01*
X142996428Y-58302380D01*
X143110714Y-58302380D01*
X143167857Y-58254761D01*
X143196428Y-58207142D01*
X143225000Y-58111904D01*
X143225000Y-57302380D01*
X143825000Y-58302380D02*
X143482142Y-58302380D01*
X143653571Y-58302380D02*
X143653571Y-57302380D01*
X143596428Y-57445238D01*
X143539285Y-57540476D01*
X143482142Y-57588095D01*
X144025000Y-57302380D02*
X144396428Y-57302380D01*
X144196428Y-57683333D01*
X144282142Y-57683333D01*
X144339285Y-57730952D01*
X144367857Y-57778571D01*
X144396428Y-57873809D01*
X144396428Y-58111904D01*
X144367857Y-58207142D01*
X144339285Y-58254761D01*
X144282142Y-58302380D01*
X144110714Y-58302380D01*
X144053571Y-58254761D01*
X144025000Y-58207142D01*
X114557142Y-86882380D02*
X114557142Y-85882380D01*
X114700000Y-85882380D01*
X114785714Y-85930000D01*
X114842857Y-86025238D01*
X114871428Y-86120476D01*
X114900000Y-86310952D01*
X114900000Y-86453809D01*
X114871428Y-86644285D01*
X114842857Y-86739523D01*
X114785714Y-86834761D01*
X114700000Y-86882380D01*
X114557142Y-86882380D01*
X115185714Y-86882380D02*
X115300000Y-86882380D01*
X115357142Y-86834761D01*
X115385714Y-86787142D01*
X115442857Y-86644285D01*
X115471428Y-86453809D01*
X115471428Y-86072857D01*
X115442857Y-85977619D01*
X115414285Y-85930000D01*
X115357142Y-85882380D01*
X115242857Y-85882380D01*
X115185714Y-85930000D01*
X115157142Y-85977619D01*
X115128571Y-86072857D01*
X115128571Y-86310952D01*
X115157142Y-86406190D01*
X115185714Y-86453809D01*
X115242857Y-86501428D01*
X115357142Y-86501428D01*
X115414285Y-86453809D01*
X115442857Y-86406190D01*
X115471428Y-86310952D01*
X108557142Y-94252380D02*
X108557142Y-93252380D01*
X108700000Y-93252380D01*
X108785714Y-93300000D01*
X108842857Y-93395238D01*
X108871428Y-93490476D01*
X108900000Y-93680952D01*
X108900000Y-93823809D01*
X108871428Y-94014285D01*
X108842857Y-94109523D01*
X108785714Y-94204761D01*
X108700000Y-94252380D01*
X108557142Y-94252380D01*
X109100000Y-93252380D02*
X109471428Y-93252380D01*
X109271428Y-93633333D01*
X109357142Y-93633333D01*
X109414285Y-93680952D01*
X109442857Y-93728571D01*
X109471428Y-93823809D01*
X109471428Y-94061904D01*
X109442857Y-94157142D01*
X109414285Y-94204761D01*
X109357142Y-94252380D01*
X109185714Y-94252380D01*
X109128571Y-94204761D01*
X109100000Y-94157142D01*
X115457142Y-104154380D02*
X115800000Y-104154380D01*
X115628571Y-105154380D02*
X115628571Y-104154380D01*
X116000000Y-105154380D02*
X116000000Y-104154380D01*
X116228571Y-104154380D01*
X116285714Y-104202000D01*
X116314285Y-104249619D01*
X116342857Y-104344857D01*
X116342857Y-104487714D01*
X116314285Y-104582952D01*
X116285714Y-104630571D01*
X116228571Y-104678190D01*
X116000000Y-104678190D01*
X116571428Y-104249619D02*
X116600000Y-104202000D01*
X116657142Y-104154380D01*
X116800000Y-104154380D01*
X116857142Y-104202000D01*
X116885714Y-104249619D01*
X116914285Y-104344857D01*
X116914285Y-104440095D01*
X116885714Y-104582952D01*
X116542857Y-105154380D01*
X116914285Y-105154380D01*
X117114285Y-104154380D02*
X117485714Y-104154380D01*
X117285714Y-104535333D01*
X117371428Y-104535333D01*
X117428571Y-104582952D01*
X117457142Y-104630571D01*
X117485714Y-104725809D01*
X117485714Y-104963904D01*
X117457142Y-105059142D01*
X117428571Y-105106761D01*
X117371428Y-105154380D01*
X117200000Y-105154380D01*
X117142857Y-105106761D01*
X117114285Y-105059142D01*
X146474285Y-55277142D02*
X146445714Y-55324761D01*
X146360000Y-55372380D01*
X146302857Y-55372380D01*
X146217142Y-55324761D01*
X146160000Y-55229523D01*
X146131428Y-55134285D01*
X146102857Y-54943809D01*
X146102857Y-54800952D01*
X146131428Y-54610476D01*
X146160000Y-54515238D01*
X146217142Y-54420000D01*
X146302857Y-54372380D01*
X146360000Y-54372380D01*
X146445714Y-54420000D01*
X146474285Y-54467619D01*
X146674285Y-54372380D02*
X147045714Y-54372380D01*
X146845714Y-54753333D01*
X146931428Y-54753333D01*
X146988571Y-54800952D01*
X147017142Y-54848571D01*
X147045714Y-54943809D01*
X147045714Y-55181904D01*
X147017142Y-55277142D01*
X146988571Y-55324761D01*
X146931428Y-55372380D01*
X146760000Y-55372380D01*
X146702857Y-55324761D01*
X146674285Y-55277142D01*
X147245714Y-54372380D02*
X147645714Y-54372380D01*
X147388571Y-55372380D01*
X104032380Y-84707142D02*
X104841904Y-84707142D01*
X104937142Y-84678571D01*
X104984761Y-84650000D01*
X105032380Y-84592857D01*
X105032380Y-84478571D01*
X104984761Y-84421428D01*
X104937142Y-84392857D01*
X104841904Y-84364285D01*
X104032380Y-84364285D01*
X105032380Y-83764285D02*
X105032380Y-84107142D01*
X105032380Y-83935714D02*
X104032380Y-83935714D01*
X104175238Y-83992857D01*
X104270476Y-84050000D01*
X104318095Y-84107142D01*
X112320000Y-110997142D02*
X112291428Y-111044761D01*
X112205714Y-111092380D01*
X112148571Y-111092380D01*
X112062857Y-111044761D01*
X112005714Y-110949523D01*
X111977142Y-110854285D01*
X111948571Y-110663809D01*
X111948571Y-110520952D01*
X111977142Y-110330476D01*
X112005714Y-110235238D01*
X112062857Y-110140000D01*
X112148571Y-110092380D01*
X112205714Y-110092380D01*
X112291428Y-110140000D01*
X112320000Y-110187619D01*
X112548571Y-110187619D02*
X112577142Y-110140000D01*
X112634285Y-110092380D01*
X112777142Y-110092380D01*
X112834285Y-110140000D01*
X112862857Y-110187619D01*
X112891428Y-110282857D01*
X112891428Y-110378095D01*
X112862857Y-110520952D01*
X112520000Y-111092380D01*
X112891428Y-111092380D01*
X112992857Y-66252380D02*
X112792857Y-65776190D01*
X112650000Y-66252380D02*
X112650000Y-65252380D01*
X112878571Y-65252380D01*
X112935714Y-65300000D01*
X112964285Y-65347619D01*
X112992857Y-65442857D01*
X112992857Y-65585714D01*
X112964285Y-65680952D01*
X112935714Y-65728571D01*
X112878571Y-65776190D01*
X112650000Y-65776190D01*
X113164285Y-65252380D02*
X113364285Y-66252380D01*
X113564285Y-65252380D01*
X113735714Y-65347619D02*
X113764285Y-65300000D01*
X113821428Y-65252380D01*
X113964285Y-65252380D01*
X114021428Y-65300000D01*
X114050000Y-65347619D01*
X114078571Y-65442857D01*
X114078571Y-65538095D01*
X114050000Y-65680952D01*
X113707142Y-66252380D01*
X114078571Y-66252380D01*
X129800000Y-108152380D02*
X129800000Y-108866666D01*
X129771428Y-109009523D01*
X129714285Y-109104761D01*
X129628571Y-109152380D01*
X129571428Y-109152380D01*
X130342857Y-108152380D02*
X130228571Y-108152380D01*
X130171428Y-108200000D01*
X130142857Y-108247619D01*
X130085714Y-108390476D01*
X130057142Y-108580952D01*
X130057142Y-108961904D01*
X130085714Y-109057142D01*
X130114285Y-109104761D01*
X130171428Y-109152380D01*
X130285714Y-109152380D01*
X130342857Y-109104761D01*
X130371428Y-109057142D01*
X130400000Y-108961904D01*
X130400000Y-108723809D01*
X130371428Y-108628571D01*
X130342857Y-108580952D01*
X130285714Y-108533333D01*
X130171428Y-108533333D01*
X130114285Y-108580952D01*
X130085714Y-108628571D01*
X130057142Y-108723809D01*
X147867142Y-85704380D02*
X148210000Y-85704380D01*
X148038571Y-86704380D02*
X148038571Y-85704380D01*
X148410000Y-86704380D02*
X148410000Y-85704380D01*
X148638571Y-85704380D01*
X148695714Y-85752000D01*
X148724285Y-85799619D01*
X148752857Y-85894857D01*
X148752857Y-86037714D01*
X148724285Y-86132952D01*
X148695714Y-86180571D01*
X148638571Y-86228190D01*
X148410000Y-86228190D01*
X149324285Y-86704380D02*
X148981428Y-86704380D01*
X149152857Y-86704380D02*
X149152857Y-85704380D01*
X149095714Y-85847238D01*
X149038571Y-85942476D01*
X148981428Y-85990095D01*
X149695714Y-85704380D02*
X149752857Y-85704380D01*
X149810000Y-85752000D01*
X149838571Y-85799619D01*
X149867142Y-85894857D01*
X149895714Y-86085333D01*
X149895714Y-86323428D01*
X149867142Y-86513904D01*
X149838571Y-86609142D01*
X149810000Y-86656761D01*
X149752857Y-86704380D01*
X149695714Y-86704380D01*
X149638571Y-86656761D01*
X149610000Y-86609142D01*
X149581428Y-86513904D01*
X149552857Y-86323428D01*
X149552857Y-86085333D01*
X149581428Y-85894857D01*
X149610000Y-85799619D01*
X149638571Y-85752000D01*
X149695714Y-85704380D01*
X103557142Y-86484380D02*
X103900000Y-86484380D01*
X103728571Y-87484380D02*
X103728571Y-86484380D01*
X104100000Y-87484380D02*
X104100000Y-86484380D01*
X104328571Y-86484380D01*
X104385714Y-86532000D01*
X104414285Y-86579619D01*
X104442857Y-86674857D01*
X104442857Y-86817714D01*
X104414285Y-86912952D01*
X104385714Y-86960571D01*
X104328571Y-87008190D01*
X104100000Y-87008190D01*
X104671428Y-86579619D02*
X104700000Y-86532000D01*
X104757142Y-86484380D01*
X104900000Y-86484380D01*
X104957142Y-86532000D01*
X104985714Y-86579619D01*
X105014285Y-86674857D01*
X105014285Y-86770095D01*
X104985714Y-86912952D01*
X104642857Y-87484380D01*
X105014285Y-87484380D01*
X105300000Y-87484380D02*
X105414285Y-87484380D01*
X105471428Y-87436761D01*
X105500000Y-87389142D01*
X105557142Y-87246285D01*
X105585714Y-87055809D01*
X105585714Y-86674857D01*
X105557142Y-86579619D01*
X105528571Y-86532000D01*
X105471428Y-86484380D01*
X105357142Y-86484380D01*
X105300000Y-86532000D01*
X105271428Y-86579619D01*
X105242857Y-86674857D01*
X105242857Y-86912952D01*
X105271428Y-87008190D01*
X105300000Y-87055809D01*
X105357142Y-87103428D01*
X105471428Y-87103428D01*
X105528571Y-87055809D01*
X105557142Y-87008190D01*
X105585714Y-86912952D01*
X118507142Y-104154380D02*
X118850000Y-104154380D01*
X118678571Y-105154380D02*
X118678571Y-104154380D01*
X119050000Y-105154380D02*
X119050000Y-104154380D01*
X119278571Y-104154380D01*
X119335714Y-104202000D01*
X119364285Y-104249619D01*
X119392857Y-104344857D01*
X119392857Y-104487714D01*
X119364285Y-104582952D01*
X119335714Y-104630571D01*
X119278571Y-104678190D01*
X119050000Y-104678190D01*
X119621428Y-104249619D02*
X119650000Y-104202000D01*
X119707142Y-104154380D01*
X119850000Y-104154380D01*
X119907142Y-104202000D01*
X119935714Y-104249619D01*
X119964285Y-104344857D01*
X119964285Y-104440095D01*
X119935714Y-104582952D01*
X119592857Y-105154380D01*
X119964285Y-105154380D01*
X120535714Y-105154380D02*
X120192857Y-105154380D01*
X120364285Y-105154380D02*
X120364285Y-104154380D01*
X120307142Y-104297238D01*
X120250000Y-104392476D01*
X120192857Y-104440095D01*
X107737142Y-79474380D02*
X108080000Y-79474380D01*
X107908571Y-80474380D02*
X107908571Y-79474380D01*
X108280000Y-80474380D02*
X108280000Y-79474380D01*
X108508571Y-79474380D01*
X108565714Y-79522000D01*
X108594285Y-79569619D01*
X108622857Y-79664857D01*
X108622857Y-79807714D01*
X108594285Y-79902952D01*
X108565714Y-79950571D01*
X108508571Y-79998190D01*
X108280000Y-79998190D01*
X108851428Y-79569619D02*
X108880000Y-79522000D01*
X108937142Y-79474380D01*
X109080000Y-79474380D01*
X109137142Y-79522000D01*
X109165714Y-79569619D01*
X109194285Y-79664857D01*
X109194285Y-79760095D01*
X109165714Y-79902952D01*
X108822857Y-80474380D01*
X109194285Y-80474380D01*
X109737142Y-79474380D02*
X109451428Y-79474380D01*
X109422857Y-79950571D01*
X109451428Y-79902952D01*
X109508571Y-79855333D01*
X109651428Y-79855333D01*
X109708571Y-79902952D01*
X109737142Y-79950571D01*
X109765714Y-80045809D01*
X109765714Y-80283904D01*
X109737142Y-80379142D01*
X109708571Y-80426761D01*
X109651428Y-80474380D01*
X109508571Y-80474380D01*
X109451428Y-80426761D01*
X109422857Y-80379142D01*
X113737142Y-108592380D02*
X114080000Y-108592380D01*
X113908571Y-109592380D02*
X113908571Y-108592380D01*
X114280000Y-109592380D02*
X114280000Y-108592380D01*
X114508571Y-108592380D01*
X114565714Y-108640000D01*
X114594285Y-108687619D01*
X114622857Y-108782857D01*
X114622857Y-108925714D01*
X114594285Y-109020952D01*
X114565714Y-109068571D01*
X114508571Y-109116190D01*
X114280000Y-109116190D01*
X114851428Y-108687619D02*
X114880000Y-108640000D01*
X114937142Y-108592380D01*
X115080000Y-108592380D01*
X115137142Y-108640000D01*
X115165714Y-108687619D01*
X115194285Y-108782857D01*
X115194285Y-108878095D01*
X115165714Y-109020952D01*
X114822857Y-109592380D01*
X115194285Y-109592380D01*
X115422857Y-108687619D02*
X115451428Y-108640000D01*
X115508571Y-108592380D01*
X115651428Y-108592380D01*
X115708571Y-108640000D01*
X115737142Y-108687619D01*
X115765714Y-108782857D01*
X115765714Y-108878095D01*
X115737142Y-109020952D01*
X115394285Y-109592380D01*
X115765714Y-109592380D01*
X144191428Y-49472380D02*
X144191428Y-48472380D01*
X144334285Y-48472380D01*
X144420000Y-48520000D01*
X144477142Y-48615238D01*
X144505714Y-48710476D01*
X144534285Y-48900952D01*
X144534285Y-49043809D01*
X144505714Y-49234285D01*
X144477142Y-49329523D01*
X144420000Y-49424761D01*
X144334285Y-49472380D01*
X144191428Y-49472380D01*
X145105714Y-49472380D02*
X144762857Y-49472380D01*
X144934285Y-49472380D02*
X144934285Y-48472380D01*
X144877142Y-48615238D01*
X144820000Y-48710476D01*
X144762857Y-48758095D01*
X145620000Y-48805714D02*
X145620000Y-49472380D01*
X145477142Y-48424761D02*
X145334285Y-49139047D01*
X145705714Y-49139047D01*
X117147142Y-102132380D02*
X117490000Y-102132380D01*
X117318571Y-103132380D02*
X117318571Y-102132380D01*
X117690000Y-103132380D02*
X117690000Y-102132380D01*
X117918571Y-102132380D01*
X117975714Y-102180000D01*
X118004285Y-102227619D01*
X118032857Y-102322857D01*
X118032857Y-102465714D01*
X118004285Y-102560952D01*
X117975714Y-102608571D01*
X117918571Y-102656190D01*
X117690000Y-102656190D01*
X118604285Y-103132380D02*
X118261428Y-103132380D01*
X118432857Y-103132380D02*
X118432857Y-102132380D01*
X118375714Y-102275238D01*
X118318571Y-102370476D01*
X118261428Y-102418095D01*
X118804285Y-102132380D02*
X119204285Y-102132380D01*
X118947142Y-103132380D01*
X151962857Y-49244380D02*
X152305714Y-49244380D01*
X152134285Y-50244380D02*
X152134285Y-49244380D01*
X152505714Y-50244380D02*
X152505714Y-49244380D01*
X152734285Y-49244380D01*
X152791428Y-49292000D01*
X152820000Y-49339619D01*
X152848571Y-49434857D01*
X152848571Y-49577714D01*
X152820000Y-49672952D01*
X152791428Y-49720571D01*
X152734285Y-49768190D01*
X152505714Y-49768190D01*
X153077142Y-49339619D02*
X153105714Y-49292000D01*
X153162857Y-49244380D01*
X153305714Y-49244380D01*
X153362857Y-49292000D01*
X153391428Y-49339619D01*
X153420000Y-49434857D01*
X153420000Y-49530095D01*
X153391428Y-49672952D01*
X153048571Y-50244380D01*
X153420000Y-50244380D01*
X135582857Y-82654380D02*
X135925714Y-82654380D01*
X135754285Y-83654380D02*
X135754285Y-82654380D01*
X136125714Y-83654380D02*
X136125714Y-82654380D01*
X136354285Y-82654380D01*
X136411428Y-82702000D01*
X136440000Y-82749619D01*
X136468571Y-82844857D01*
X136468571Y-82987714D01*
X136440000Y-83082952D01*
X136411428Y-83130571D01*
X136354285Y-83178190D01*
X136125714Y-83178190D01*
X136754285Y-83654380D02*
X136868571Y-83654380D01*
X136925714Y-83606761D01*
X136954285Y-83559142D01*
X137011428Y-83416285D01*
X137040000Y-83225809D01*
X137040000Y-82844857D01*
X137011428Y-82749619D01*
X136982857Y-82702000D01*
X136925714Y-82654380D01*
X136811428Y-82654380D01*
X136754285Y-82702000D01*
X136725714Y-82749619D01*
X136697142Y-82844857D01*
X136697142Y-83082952D01*
X136725714Y-83178190D01*
X136754285Y-83225809D01*
X136811428Y-83273428D01*
X136925714Y-83273428D01*
X136982857Y-83225809D01*
X137011428Y-83178190D01*
X137040000Y-83082952D01*
X110780000Y-111112380D02*
X110580000Y-110636190D01*
X110437142Y-111112380D02*
X110437142Y-110112380D01*
X110665714Y-110112380D01*
X110722857Y-110160000D01*
X110751428Y-110207619D01*
X110780000Y-110302857D01*
X110780000Y-110445714D01*
X110751428Y-110540952D01*
X110722857Y-110588571D01*
X110665714Y-110636190D01*
X110437142Y-110636190D01*
X111322857Y-110112380D02*
X111037142Y-110112380D01*
X111008571Y-110588571D01*
X111037142Y-110540952D01*
X111094285Y-110493333D01*
X111237142Y-110493333D01*
X111294285Y-110540952D01*
X111322857Y-110588571D01*
X111351428Y-110683809D01*
X111351428Y-110921904D01*
X111322857Y-111017142D01*
X111294285Y-111064761D01*
X111237142Y-111112380D01*
X111094285Y-111112380D01*
X111037142Y-111064761D01*
X111008571Y-111017142D01*
X141172142Y-87297380D02*
X141515000Y-87297380D01*
X141343571Y-88297380D02*
X141343571Y-87297380D01*
X141715000Y-88297380D02*
X141715000Y-87297380D01*
X141943571Y-87297380D01*
X142000714Y-87345000D01*
X142029285Y-87392619D01*
X142057857Y-87487857D01*
X142057857Y-87630714D01*
X142029285Y-87725952D01*
X142000714Y-87773571D01*
X141943571Y-87821190D01*
X141715000Y-87821190D01*
X142629285Y-88297380D02*
X142286428Y-88297380D01*
X142457857Y-88297380D02*
X142457857Y-87297380D01*
X142400714Y-87440238D01*
X142343571Y-87535476D01*
X142286428Y-87583095D01*
X143172142Y-87297380D02*
X142886428Y-87297380D01*
X142857857Y-87773571D01*
X142886428Y-87725952D01*
X142943571Y-87678333D01*
X143086428Y-87678333D01*
X143143571Y-87725952D01*
X143172142Y-87773571D01*
X143200714Y-87868809D01*
X143200714Y-88106904D01*
X143172142Y-88202142D01*
X143143571Y-88249761D01*
X143086428Y-88297380D01*
X142943571Y-88297380D01*
X142886428Y-88249761D01*
X142857857Y-88202142D01*
X144492857Y-64352380D02*
X144835714Y-64352380D01*
X144664285Y-65352380D02*
X144664285Y-64352380D01*
X145035714Y-65352380D02*
X145035714Y-64352380D01*
X145264285Y-64352380D01*
X145321428Y-64400000D01*
X145350000Y-64447619D01*
X145378571Y-64542857D01*
X145378571Y-64685714D01*
X145350000Y-64780952D01*
X145321428Y-64828571D01*
X145264285Y-64876190D01*
X145035714Y-64876190D01*
X145921428Y-64352380D02*
X145635714Y-64352380D01*
X145607142Y-64828571D01*
X145635714Y-64780952D01*
X145692857Y-64733333D01*
X145835714Y-64733333D01*
X145892857Y-64780952D01*
X145921428Y-64828571D01*
X145950000Y-64923809D01*
X145950000Y-65161904D01*
X145921428Y-65257142D01*
X145892857Y-65304761D01*
X145835714Y-65352380D01*
X145692857Y-65352380D01*
X145635714Y-65304761D01*
X145607142Y-65257142D01*
X97052380Y-77142857D02*
X97052380Y-76800000D01*
X98052380Y-76971428D02*
X97052380Y-76971428D01*
X98052380Y-76600000D02*
X97052380Y-76600000D01*
X97052380Y-76371428D01*
X97100000Y-76314285D01*
X97147619Y-76285714D01*
X97242857Y-76257142D01*
X97385714Y-76257142D01*
X97480952Y-76285714D01*
X97528571Y-76314285D01*
X97576190Y-76371428D01*
X97576190Y-76600000D01*
X97147619Y-76028571D02*
X97100000Y-76000000D01*
X97052380Y-75942857D01*
X97052380Y-75800000D01*
X97100000Y-75742857D01*
X97147619Y-75714285D01*
X97242857Y-75685714D01*
X97338095Y-75685714D01*
X97480952Y-75714285D01*
X98052380Y-76057142D01*
X98052380Y-75685714D01*
X97480952Y-75342857D02*
X97433333Y-75400000D01*
X97385714Y-75428571D01*
X97290476Y-75457142D01*
X97242857Y-75457142D01*
X97147619Y-75428571D01*
X97100000Y-75400000D01*
X97052380Y-75342857D01*
X97052380Y-75228571D01*
X97100000Y-75171428D01*
X97147619Y-75142857D01*
X97242857Y-75114285D01*
X97290476Y-75114285D01*
X97385714Y-75142857D01*
X97433333Y-75171428D01*
X97480952Y-75228571D01*
X97480952Y-75342857D01*
X97528571Y-75400000D01*
X97576190Y-75428571D01*
X97671428Y-75457142D01*
X97861904Y-75457142D01*
X97957142Y-75428571D01*
X98004761Y-75400000D01*
X98052380Y-75342857D01*
X98052380Y-75228571D01*
X98004761Y-75171428D01*
X97957142Y-75142857D01*
X97861904Y-75114285D01*
X97671428Y-75114285D01*
X97576190Y-75142857D01*
X97528571Y-75171428D01*
X97480952Y-75228571D01*
X145421428Y-52002380D02*
X145421428Y-51002380D01*
X145564285Y-51002380D01*
X145650000Y-51050000D01*
X145707142Y-51145238D01*
X145735714Y-51240476D01*
X145764285Y-51430952D01*
X145764285Y-51573809D01*
X145735714Y-51764285D01*
X145707142Y-51859523D01*
X145650000Y-51954761D01*
X145564285Y-52002380D01*
X145421428Y-52002380D01*
X146335714Y-52002380D02*
X145992857Y-52002380D01*
X146164285Y-52002380D02*
X146164285Y-51002380D01*
X146107142Y-51145238D01*
X146050000Y-51240476D01*
X145992857Y-51288095D01*
X146564285Y-51097619D02*
X146592857Y-51050000D01*
X146650000Y-51002380D01*
X146792857Y-51002380D01*
X146850000Y-51050000D01*
X146878571Y-51097619D01*
X146907142Y-51192857D01*
X146907142Y-51288095D01*
X146878571Y-51430952D01*
X146535714Y-52002380D01*
X146907142Y-52002380D01*
X135200000Y-56404761D02*
X135285714Y-56452380D01*
X135428571Y-56452380D01*
X135485714Y-56404761D01*
X135514285Y-56357142D01*
X135542857Y-56261904D01*
X135542857Y-56166666D01*
X135514285Y-56071428D01*
X135485714Y-56023809D01*
X135428571Y-55976190D01*
X135314285Y-55928571D01*
X135257142Y-55880952D01*
X135228571Y-55833333D01*
X135200000Y-55738095D01*
X135200000Y-55642857D01*
X135228571Y-55547619D01*
X135257142Y-55500000D01*
X135314285Y-55452380D01*
X135457142Y-55452380D01*
X135542857Y-55500000D01*
X135742857Y-55452380D02*
X135885714Y-56452380D01*
X136000000Y-55738095D01*
X136114285Y-56452380D01*
X136257142Y-55452380D01*
X136800000Y-56452380D02*
X136457142Y-56452380D01*
X136628571Y-56452380D02*
X136628571Y-55452380D01*
X136571428Y-55595238D01*
X136514285Y-55690476D01*
X136457142Y-55738095D01*
X142402380Y-51428571D02*
X141402380Y-51428571D01*
X141402380Y-51200000D01*
X141450000Y-51142857D01*
X141497619Y-51114285D01*
X141592857Y-51085714D01*
X141735714Y-51085714D01*
X141830952Y-51114285D01*
X141878571Y-51142857D01*
X141926190Y-51200000D01*
X141926190Y-51428571D01*
X141402380Y-50885714D02*
X142402380Y-50742857D01*
X141688095Y-50628571D01*
X142402380Y-50514285D01*
X141402380Y-50371428D01*
X142402380Y-49800000D02*
X141926190Y-50000000D01*
X142402380Y-50142857D02*
X141402380Y-50142857D01*
X141402380Y-49914285D01*
X141450000Y-49857142D01*
X141497619Y-49828571D01*
X141592857Y-49800000D01*
X141735714Y-49800000D01*
X141830952Y-49828571D01*
X141878571Y-49857142D01*
X141926190Y-49914285D01*
X141926190Y-50142857D01*
X141402380Y-49428571D02*
X141402380Y-49314285D01*
X141450000Y-49257142D01*
X141545238Y-49200000D01*
X141735714Y-49171428D01*
X142069047Y-49171428D01*
X142259523Y-49200000D01*
X142354761Y-49257142D01*
X142402380Y-49314285D01*
X142402380Y-49428571D01*
X142354761Y-49485714D01*
X142259523Y-49542857D01*
X142069047Y-49571428D01*
X141735714Y-49571428D01*
X141545238Y-49542857D01*
X141450000Y-49485714D01*
X141402380Y-49428571D01*
X142402380Y-48914285D02*
X141402380Y-48914285D01*
X142402380Y-48571428D01*
X141402380Y-48571428D01*
X161580000Y-53534761D02*
X161665714Y-53582380D01*
X161808571Y-53582380D01*
X161865714Y-53534761D01*
X161894285Y-53487142D01*
X161922857Y-53391904D01*
X161922857Y-53296666D01*
X161894285Y-53201428D01*
X161865714Y-53153809D01*
X161808571Y-53106190D01*
X161694285Y-53058571D01*
X161637142Y-53010952D01*
X161608571Y-52963333D01*
X161580000Y-52868095D01*
X161580000Y-52772857D01*
X161608571Y-52677619D01*
X161637142Y-52630000D01*
X161694285Y-52582380D01*
X161837142Y-52582380D01*
X161922857Y-52630000D01*
X162122857Y-52582380D02*
X162265714Y-53582380D01*
X162380000Y-52868095D01*
X162494285Y-53582380D01*
X162637142Y-52582380D01*
X162808571Y-52582380D02*
X163180000Y-52582380D01*
X162980000Y-52963333D01*
X163065714Y-52963333D01*
X163122857Y-53010952D01*
X163151428Y-53058571D01*
X163180000Y-53153809D01*
X163180000Y-53391904D01*
X163151428Y-53487142D01*
X163122857Y-53534761D01*
X163065714Y-53582380D01*
X162894285Y-53582380D01*
X162837142Y-53534761D01*
X162808571Y-53487142D01*
X144147857Y-69297380D02*
X144490714Y-69297380D01*
X144319285Y-70297380D02*
X144319285Y-69297380D01*
X144690714Y-70297380D02*
X144690714Y-69297380D01*
X144919285Y-69297380D01*
X144976428Y-69345000D01*
X145005000Y-69392619D01*
X145033571Y-69487857D01*
X145033571Y-69630714D01*
X145005000Y-69725952D01*
X144976428Y-69773571D01*
X144919285Y-69821190D01*
X144690714Y-69821190D01*
X145547857Y-69297380D02*
X145433571Y-69297380D01*
X145376428Y-69345000D01*
X145347857Y-69392619D01*
X145290714Y-69535476D01*
X145262142Y-69725952D01*
X145262142Y-70106904D01*
X145290714Y-70202142D01*
X145319285Y-70249761D01*
X145376428Y-70297380D01*
X145490714Y-70297380D01*
X145547857Y-70249761D01*
X145576428Y-70202142D01*
X145605000Y-70106904D01*
X145605000Y-69868809D01*
X145576428Y-69773571D01*
X145547857Y-69725952D01*
X145490714Y-69678333D01*
X145376428Y-69678333D01*
X145319285Y-69725952D01*
X145290714Y-69773571D01*
X145262142Y-69868809D01*
X116000000Y-70452380D02*
X116000000Y-71166666D01*
X115971428Y-71309523D01*
X115914285Y-71404761D01*
X115828571Y-71452380D01*
X115771428Y-71452380D01*
X116571428Y-70452380D02*
X116285714Y-70452380D01*
X116257142Y-70928571D01*
X116285714Y-70880952D01*
X116342857Y-70833333D01*
X116485714Y-70833333D01*
X116542857Y-70880952D01*
X116571428Y-70928571D01*
X116600000Y-71023809D01*
X116600000Y-71261904D01*
X116571428Y-71357142D01*
X116542857Y-71404761D01*
X116485714Y-71452380D01*
X116342857Y-71452380D01*
X116285714Y-71404761D01*
X116257142Y-71357142D01*
X100502380Y-87990000D02*
X101216666Y-87990000D01*
X101359523Y-88018571D01*
X101454761Y-88075714D01*
X101502380Y-88161428D01*
X101502380Y-88218571D01*
X100597619Y-87732857D02*
X100550000Y-87704285D01*
X100502380Y-87647142D01*
X100502380Y-87504285D01*
X100550000Y-87447142D01*
X100597619Y-87418571D01*
X100692857Y-87390000D01*
X100788095Y-87390000D01*
X100930952Y-87418571D01*
X101502380Y-87761428D01*
X101502380Y-87390000D01*
X160082857Y-74614380D02*
X160425714Y-74614380D01*
X160254285Y-75614380D02*
X160254285Y-74614380D01*
X160625714Y-75614380D02*
X160625714Y-74614380D01*
X160854285Y-74614380D01*
X160911428Y-74662000D01*
X160940000Y-74709619D01*
X160968571Y-74804857D01*
X160968571Y-74947714D01*
X160940000Y-75042952D01*
X160911428Y-75090571D01*
X160854285Y-75138190D01*
X160625714Y-75138190D01*
X161168571Y-74614380D02*
X161568571Y-74614380D01*
X161311428Y-75614380D01*
X111701428Y-52002380D02*
X111701428Y-51002380D01*
X111844285Y-51002380D01*
X111930000Y-51050000D01*
X111987142Y-51145238D01*
X112015714Y-51240476D01*
X112044285Y-51430952D01*
X112044285Y-51573809D01*
X112015714Y-51764285D01*
X111987142Y-51859523D01*
X111930000Y-51954761D01*
X111844285Y-52002380D01*
X111701428Y-52002380D01*
X112615714Y-52002380D02*
X112272857Y-52002380D01*
X112444285Y-52002380D02*
X112444285Y-51002380D01*
X112387142Y-51145238D01*
X112330000Y-51240476D01*
X112272857Y-51288095D01*
X112815714Y-51002380D02*
X113187142Y-51002380D01*
X112987142Y-51383333D01*
X113072857Y-51383333D01*
X113130000Y-51430952D01*
X113158571Y-51478571D01*
X113187142Y-51573809D01*
X113187142Y-51811904D01*
X113158571Y-51907142D01*
X113130000Y-51954761D01*
X113072857Y-52002380D01*
X112901428Y-52002380D01*
X112844285Y-51954761D01*
X112815714Y-51907142D01*
X98642857Y-66152380D02*
X98442857Y-65676190D01*
X98300000Y-66152380D02*
X98300000Y-65152380D01*
X98528571Y-65152380D01*
X98585714Y-65200000D01*
X98614285Y-65247619D01*
X98642857Y-65342857D01*
X98642857Y-65485714D01*
X98614285Y-65580952D01*
X98585714Y-65628571D01*
X98528571Y-65676190D01*
X98300000Y-65676190D01*
X98814285Y-65152380D02*
X99014285Y-66152380D01*
X99214285Y-65152380D01*
X99728571Y-66152380D02*
X99385714Y-66152380D01*
X99557142Y-66152380D02*
X99557142Y-65152380D01*
X99500000Y-65295238D01*
X99442857Y-65390476D01*
X99385714Y-65438095D01*
X155732857Y-50312380D02*
X155732857Y-49312380D01*
X155732857Y-49788571D02*
X156075714Y-49788571D01*
X156075714Y-50312380D02*
X156075714Y-49312380D01*
X156332857Y-49407619D02*
X156361428Y-49360000D01*
X156418571Y-49312380D01*
X156561428Y-49312380D01*
X156618571Y-49360000D01*
X156647142Y-49407619D01*
X156675714Y-49502857D01*
X156675714Y-49598095D01*
X156647142Y-49740952D01*
X156304285Y-50312380D01*
X156675714Y-50312380D01*
X152795000Y-52697380D02*
X152795000Y-53411666D01*
X152766428Y-53554523D01*
X152709285Y-53649761D01*
X152623571Y-53697380D01*
X152566428Y-53697380D01*
X153337857Y-53030714D02*
X153337857Y-53697380D01*
X153195000Y-52649761D02*
X153052142Y-53364047D01*
X153423571Y-53364047D01*
X139164285Y-87982380D02*
X138964285Y-87506190D01*
X138821428Y-87982380D02*
X138821428Y-86982380D01*
X139050000Y-86982380D01*
X139107142Y-87030000D01*
X139135714Y-87077619D01*
X139164285Y-87172857D01*
X139164285Y-87315714D01*
X139135714Y-87410952D01*
X139107142Y-87458571D01*
X139050000Y-87506190D01*
X138821428Y-87506190D01*
X139392857Y-87077619D02*
X139421428Y-87030000D01*
X139478571Y-86982380D01*
X139621428Y-86982380D01*
X139678571Y-87030000D01*
X139707142Y-87077619D01*
X139735714Y-87172857D01*
X139735714Y-87268095D01*
X139707142Y-87410952D01*
X139364285Y-87982380D01*
X139735714Y-87982380D01*
X139935714Y-86982380D02*
X140335714Y-86982380D01*
X140078571Y-87982380D01*
X116297142Y-58434380D02*
X116640000Y-58434380D01*
X116468571Y-59434380D02*
X116468571Y-58434380D01*
X116840000Y-59434380D02*
X116840000Y-58434380D01*
X117068571Y-58434380D01*
X117125714Y-58482000D01*
X117154285Y-58529619D01*
X117182857Y-58624857D01*
X117182857Y-58767714D01*
X117154285Y-58862952D01*
X117125714Y-58910571D01*
X117068571Y-58958190D01*
X116840000Y-58958190D01*
X117754285Y-59434380D02*
X117411428Y-59434380D01*
X117582857Y-59434380D02*
X117582857Y-58434380D01*
X117525714Y-58577238D01*
X117468571Y-58672476D01*
X117411428Y-58720095D01*
X118268571Y-58767714D02*
X118268571Y-59434380D01*
X118125714Y-58386761D02*
X117982857Y-59101047D01*
X118354285Y-59101047D01*
X144557142Y-86882380D02*
X144557142Y-85882380D01*
X144700000Y-85882380D01*
X144785714Y-85930000D01*
X144842857Y-86025238D01*
X144871428Y-86120476D01*
X144900000Y-86310952D01*
X144900000Y-86453809D01*
X144871428Y-86644285D01*
X144842857Y-86739523D01*
X144785714Y-86834761D01*
X144700000Y-86882380D01*
X144557142Y-86882380D01*
X145242857Y-86310952D02*
X145185714Y-86263333D01*
X145157142Y-86215714D01*
X145128571Y-86120476D01*
X145128571Y-86072857D01*
X145157142Y-85977619D01*
X145185714Y-85930000D01*
X145242857Y-85882380D01*
X145357142Y-85882380D01*
X145414285Y-85930000D01*
X145442857Y-85977619D01*
X145471428Y-86072857D01*
X145471428Y-86120476D01*
X145442857Y-86215714D01*
X145414285Y-86263333D01*
X145357142Y-86310952D01*
X145242857Y-86310952D01*
X145185714Y-86358571D01*
X145157142Y-86406190D01*
X145128571Y-86501428D01*
X145128571Y-86691904D01*
X145157142Y-86787142D01*
X145185714Y-86834761D01*
X145242857Y-86882380D01*
X145357142Y-86882380D01*
X145414285Y-86834761D01*
X145442857Y-86787142D01*
X145471428Y-86691904D01*
X145471428Y-86501428D01*
X145442857Y-86406190D01*
X145414285Y-86358571D01*
X145357142Y-86310952D01*
X117892857Y-99197619D02*
X117835714Y-99150000D01*
X117778571Y-99054761D01*
X117692857Y-98911904D01*
X117635714Y-98864285D01*
X117578571Y-98864285D01*
X117607142Y-99102380D02*
X117550000Y-99054761D01*
X117492857Y-98959523D01*
X117464285Y-98769047D01*
X117464285Y-98435714D01*
X117492857Y-98245238D01*
X117550000Y-98150000D01*
X117607142Y-98102380D01*
X117721428Y-98102380D01*
X117778571Y-98150000D01*
X117835714Y-98245238D01*
X117864285Y-98435714D01*
X117864285Y-98769047D01*
X117835714Y-98959523D01*
X117778571Y-99054761D01*
X117721428Y-99102380D01*
X117607142Y-99102380D01*
X118064285Y-98102380D02*
X118464285Y-98102380D01*
X118207142Y-99102380D01*
X145557142Y-89452380D02*
X145900000Y-89452380D01*
X145728571Y-90452380D02*
X145728571Y-89452380D01*
X146100000Y-90452380D02*
X146100000Y-89452380D01*
X146328571Y-89452380D01*
X146385714Y-89500000D01*
X146414285Y-89547619D01*
X146442857Y-89642857D01*
X146442857Y-89785714D01*
X146414285Y-89880952D01*
X146385714Y-89928571D01*
X146328571Y-89976190D01*
X146100000Y-89976190D01*
X147014285Y-90452380D02*
X146671428Y-90452380D01*
X146842857Y-90452380D02*
X146842857Y-89452380D01*
X146785714Y-89595238D01*
X146728571Y-89690476D01*
X146671428Y-89738095D01*
X147242857Y-89547619D02*
X147271428Y-89500000D01*
X147328571Y-89452380D01*
X147471428Y-89452380D01*
X147528571Y-89500000D01*
X147557142Y-89547619D01*
X147585714Y-89642857D01*
X147585714Y-89738095D01*
X147557142Y-89880952D01*
X147214285Y-90452380D01*
X147585714Y-90452380D01*
X155742857Y-112252380D02*
X155742857Y-111252380D01*
X155742857Y-111728571D02*
X156085714Y-111728571D01*
X156085714Y-112252380D02*
X156085714Y-111252380D01*
X156314285Y-111252380D02*
X156685714Y-111252380D01*
X156485714Y-111633333D01*
X156571428Y-111633333D01*
X156628571Y-111680952D01*
X156657142Y-111728571D01*
X156685714Y-111823809D01*
X156685714Y-112061904D01*
X156657142Y-112157142D01*
X156628571Y-112204761D01*
X156571428Y-112252380D01*
X156400000Y-112252380D01*
X156342857Y-112204761D01*
X156314285Y-112157142D01*
X120444285Y-98892380D02*
X120244285Y-98416190D01*
X120101428Y-98892380D02*
X120101428Y-97892380D01*
X120330000Y-97892380D01*
X120387142Y-97940000D01*
X120415714Y-97987619D01*
X120444285Y-98082857D01*
X120444285Y-98225714D01*
X120415714Y-98320952D01*
X120387142Y-98368571D01*
X120330000Y-98416190D01*
X120101428Y-98416190D01*
X121015714Y-98892380D02*
X120672857Y-98892380D01*
X120844285Y-98892380D02*
X120844285Y-97892380D01*
X120787142Y-98035238D01*
X120730000Y-98130476D01*
X120672857Y-98178095D01*
X121558571Y-97892380D02*
X121272857Y-97892380D01*
X121244285Y-98368571D01*
X121272857Y-98320952D01*
X121330000Y-98273333D01*
X121472857Y-98273333D01*
X121530000Y-98320952D01*
X121558571Y-98368571D01*
X121587142Y-98463809D01*
X121587142Y-98701904D01*
X121558571Y-98797142D01*
X121530000Y-98844761D01*
X121472857Y-98892380D01*
X121330000Y-98892380D01*
X121272857Y-98844761D01*
X121244285Y-98797142D01*
X117892857Y-90677619D02*
X117835714Y-90630000D01*
X117778571Y-90534761D01*
X117692857Y-90391904D01*
X117635714Y-90344285D01*
X117578571Y-90344285D01*
X117607142Y-90582380D02*
X117550000Y-90534761D01*
X117492857Y-90439523D01*
X117464285Y-90249047D01*
X117464285Y-89915714D01*
X117492857Y-89725238D01*
X117550000Y-89630000D01*
X117607142Y-89582380D01*
X117721428Y-89582380D01*
X117778571Y-89630000D01*
X117835714Y-89725238D01*
X117864285Y-89915714D01*
X117864285Y-90249047D01*
X117835714Y-90439523D01*
X117778571Y-90534761D01*
X117721428Y-90582380D01*
X117607142Y-90582380D01*
X118378571Y-89582380D02*
X118264285Y-89582380D01*
X118207142Y-89630000D01*
X118178571Y-89677619D01*
X118121428Y-89820476D01*
X118092857Y-90010952D01*
X118092857Y-90391904D01*
X118121428Y-90487142D01*
X118150000Y-90534761D01*
X118207142Y-90582380D01*
X118321428Y-90582380D01*
X118378571Y-90534761D01*
X118407142Y-90487142D01*
X118435714Y-90391904D01*
X118435714Y-90153809D01*
X118407142Y-90058571D01*
X118378571Y-90010952D01*
X118321428Y-89963333D01*
X118207142Y-89963333D01*
X118150000Y-90010952D01*
X118121428Y-90058571D01*
X118092857Y-90153809D01*
X150897142Y-85764380D02*
X151240000Y-85764380D01*
X151068571Y-86764380D02*
X151068571Y-85764380D01*
X151440000Y-86764380D02*
X151440000Y-85764380D01*
X151668571Y-85764380D01*
X151725714Y-85812000D01*
X151754285Y-85859619D01*
X151782857Y-85954857D01*
X151782857Y-86097714D01*
X151754285Y-86192952D01*
X151725714Y-86240571D01*
X151668571Y-86288190D01*
X151440000Y-86288190D01*
X152354285Y-86764380D02*
X152011428Y-86764380D01*
X152182857Y-86764380D02*
X152182857Y-85764380D01*
X152125714Y-85907238D01*
X152068571Y-86002476D01*
X152011428Y-86050095D01*
X152925714Y-86764380D02*
X152582857Y-86764380D01*
X152754285Y-86764380D02*
X152754285Y-85764380D01*
X152697142Y-85907238D01*
X152640000Y-86002476D01*
X152582857Y-86050095D01*
X156052380Y-98785714D02*
X155576190Y-98985714D01*
X156052380Y-99128571D02*
X155052380Y-99128571D01*
X155052380Y-98900000D01*
X155100000Y-98842857D01*
X155147619Y-98814285D01*
X155242857Y-98785714D01*
X155385714Y-98785714D01*
X155480952Y-98814285D01*
X155528571Y-98842857D01*
X155576190Y-98900000D01*
X155576190Y-99128571D01*
X155147619Y-98557142D02*
X155100000Y-98528571D01*
X155052380Y-98471428D01*
X155052380Y-98328571D01*
X155100000Y-98271428D01*
X155147619Y-98242857D01*
X155242857Y-98214285D01*
X155338095Y-98214285D01*
X155480952Y-98242857D01*
X156052380Y-98585714D01*
X156052380Y-98214285D01*
X155052380Y-97700000D02*
X155052380Y-97814285D01*
X155100000Y-97871428D01*
X155147619Y-97900000D01*
X155290476Y-97957142D01*
X155480952Y-97985714D01*
X155861904Y-97985714D01*
X155957142Y-97957142D01*
X156004761Y-97928571D01*
X156052380Y-97871428D01*
X156052380Y-97757142D01*
X156004761Y-97700000D01*
X155957142Y-97671428D01*
X155861904Y-97642857D01*
X155623809Y-97642857D01*
X155528571Y-97671428D01*
X155480952Y-97700000D01*
X155433333Y-97757142D01*
X155433333Y-97871428D01*
X155480952Y-97928571D01*
X155528571Y-97957142D01*
X155623809Y-97985714D01*
X114107142Y-53452380D02*
X114450000Y-53452380D01*
X114278571Y-54452380D02*
X114278571Y-53452380D01*
X114650000Y-54452380D02*
X114650000Y-53452380D01*
X114878571Y-53452380D01*
X114935714Y-53500000D01*
X114964285Y-53547619D01*
X114992857Y-53642857D01*
X114992857Y-53785714D01*
X114964285Y-53880952D01*
X114935714Y-53928571D01*
X114878571Y-53976190D01*
X114650000Y-53976190D01*
X115221428Y-53547619D02*
X115250000Y-53500000D01*
X115307142Y-53452380D01*
X115450000Y-53452380D01*
X115507142Y-53500000D01*
X115535714Y-53547619D01*
X115564285Y-53642857D01*
X115564285Y-53738095D01*
X115535714Y-53880952D01*
X115192857Y-54452380D01*
X115564285Y-54452380D01*
X116078571Y-53452380D02*
X115964285Y-53452380D01*
X115907142Y-53500000D01*
X115878571Y-53547619D01*
X115821428Y-53690476D01*
X115792857Y-53880952D01*
X115792857Y-54261904D01*
X115821428Y-54357142D01*
X115850000Y-54404761D01*
X115907142Y-54452380D01*
X116021428Y-54452380D01*
X116078571Y-54404761D01*
X116107142Y-54357142D01*
X116135714Y-54261904D01*
X116135714Y-54023809D01*
X116107142Y-53928571D01*
X116078571Y-53880952D01*
X116021428Y-53833333D01*
X115907142Y-53833333D01*
X115850000Y-53880952D01*
X115821428Y-53928571D01*
X115792857Y-54023809D01*
X98042857Y-53702380D02*
X98042857Y-54511904D01*
X98071428Y-54607142D01*
X98100000Y-54654761D01*
X98157142Y-54702380D01*
X98271428Y-54702380D01*
X98328571Y-54654761D01*
X98357142Y-54607142D01*
X98385714Y-54511904D01*
X98385714Y-53702380D01*
X98957142Y-53702380D02*
X98671428Y-53702380D01*
X98642857Y-54178571D01*
X98671428Y-54130952D01*
X98728571Y-54083333D01*
X98871428Y-54083333D01*
X98928571Y-54130952D01*
X98957142Y-54178571D01*
X98985714Y-54273809D01*
X98985714Y-54511904D01*
X98957142Y-54607142D01*
X98928571Y-54654761D01*
X98871428Y-54702380D01*
X98728571Y-54702380D01*
X98671428Y-54654761D01*
X98642857Y-54607142D01*
X111327142Y-54354380D02*
X111670000Y-54354380D01*
X111498571Y-55354380D02*
X111498571Y-54354380D01*
X111870000Y-55354380D02*
X111870000Y-54354380D01*
X112098571Y-54354380D01*
X112155714Y-54402000D01*
X112184285Y-54449619D01*
X112212857Y-54544857D01*
X112212857Y-54687714D01*
X112184285Y-54782952D01*
X112155714Y-54830571D01*
X112098571Y-54878190D01*
X111870000Y-54878190D01*
X112784285Y-55354380D02*
X112441428Y-55354380D01*
X112612857Y-55354380D02*
X112612857Y-54354380D01*
X112555714Y-54497238D01*
X112498571Y-54592476D01*
X112441428Y-54640095D01*
X113127142Y-54782952D02*
X113070000Y-54735333D01*
X113041428Y-54687714D01*
X113012857Y-54592476D01*
X113012857Y-54544857D01*
X113041428Y-54449619D01*
X113070000Y-54402000D01*
X113127142Y-54354380D01*
X113241428Y-54354380D01*
X113298571Y-54402000D01*
X113327142Y-54449619D01*
X113355714Y-54544857D01*
X113355714Y-54592476D01*
X113327142Y-54687714D01*
X113298571Y-54735333D01*
X113241428Y-54782952D01*
X113127142Y-54782952D01*
X113070000Y-54830571D01*
X113041428Y-54878190D01*
X113012857Y-54973428D01*
X113012857Y-55163904D01*
X113041428Y-55259142D01*
X113070000Y-55306761D01*
X113127142Y-55354380D01*
X113241428Y-55354380D01*
X113298571Y-55306761D01*
X113327142Y-55259142D01*
X113355714Y-55163904D01*
X113355714Y-54973428D01*
X113327142Y-54878190D01*
X113298571Y-54830571D01*
X113241428Y-54782952D01*
X106950000Y-107322380D02*
X106950000Y-108036666D01*
X106921428Y-108179523D01*
X106864285Y-108274761D01*
X106778571Y-108322380D01*
X106721428Y-108322380D01*
X107178571Y-107322380D02*
X107550000Y-107322380D01*
X107350000Y-107703333D01*
X107435714Y-107703333D01*
X107492857Y-107750952D01*
X107521428Y-107798571D01*
X107550000Y-107893809D01*
X107550000Y-108131904D01*
X107521428Y-108227142D01*
X107492857Y-108274761D01*
X107435714Y-108322380D01*
X107264285Y-108322380D01*
X107207142Y-108274761D01*
X107178571Y-108227142D01*
D12*
X143700000Y-79775000D02*
G75*
G03*
X143700000Y-79775000I-950000J0D01*
G01*
X130000000Y-77025000D02*
X119900000Y-77025000D01*
X119900000Y-69300000D02*
X119000000Y-69300000D01*
X119900000Y-56975002D02*
X119900000Y-63800002D01*
X130000000Y-56900000D02*
X119900000Y-56900000D01*
X140100000Y-77025000D02*
X140100000Y-70200000D01*
X130000000Y-77025000D02*
X140100000Y-77025000D01*
X130000000Y-57500000D02*
X130000000Y-76500000D01*
X119900000Y-70200000D02*
X119900000Y-69300000D01*
X140100000Y-69300000D02*
X141000000Y-69300000D01*
X122000000Y-67000000D02*
X138000000Y-67000000D01*
X140100000Y-69300000D02*
X140100000Y-70200000D01*
X140100000Y-56900000D02*
X140100000Y-63800000D01*
X140100000Y-64700000D02*
X141000000Y-64700000D01*
X133000000Y-77025000D02*
X133000000Y-100000000D01*
X119900000Y-64700002D02*
X119000000Y-64700002D01*
X127000000Y-77025000D02*
X127000000Y-100000000D01*
X140100000Y-64700000D02*
X140100000Y-63800000D01*
X119900000Y-77025000D02*
X119900000Y-70200000D01*
X119900000Y-64700002D02*
X119900000Y-63800002D01*
X130000000Y-56900000D02*
X140100000Y-56900000D01*
X141000001Y-69300001D02*
G75*
G03*
X143300001Y-66999999I-1J2300001D01*
G01*
X116700000Y-67000000D02*
G75*
G03*
X119000000Y-69300000I2299999J-1D01*
G01*
X119000000Y-64700000D02*
G75*
G03*
X116700000Y-67000000I-1J-2299999D01*
G01*
X143300000Y-67000000D02*
G75*
G03*
X141000000Y-64700000I-2300000J0D01*
G01*
X147686000Y-60668000D02*
G75*
G03*
X147686000Y-60668000I-950000J0D01*
G01*
X120295000Y-93221359D02*
X120295000Y-93528641D01*
X121055000Y-93221359D02*
X121055000Y-93528641D01*
X157700000Y-68700000D02*
X157250000Y-68250000D01*
X159000000Y-64250000D02*
X161000000Y-64250000D01*
X159000000Y-69750000D02*
X161000000Y-69750000D01*
X162300000Y-65300000D02*
X162750000Y-65750000D01*
X162750000Y-68250000D02*
X162750000Y-65750000D01*
X162300000Y-68700000D02*
X162750000Y-68250000D01*
X157700000Y-65300000D02*
X157250000Y-65750000D01*
X157250000Y-68250000D02*
X157250000Y-65750000D01*
X100640000Y-80711252D02*
X100640000Y-80188748D01*
X102060000Y-80711252D02*
X102060000Y-80188748D01*
X132057836Y-108165000D02*
X131842164Y-108165000D01*
X132057836Y-108885000D02*
X131842164Y-108885000D01*
X139200000Y-90735000D02*
X141485000Y-90735000D01*
X141485000Y-89265000D02*
X139200000Y-89265000D01*
X141485000Y-90735000D02*
X141485000Y-89265000D01*
X141926359Y-82480000D02*
X142233641Y-82480000D01*
X141926359Y-81720000D02*
X142233641Y-81720000D01*
X105025000Y-91515000D02*
X102740000Y-91515000D01*
X102740000Y-92985000D02*
X105025000Y-92985000D01*
X102740000Y-91515000D02*
X102740000Y-92985000D01*
X108180000Y-88670000D02*
G75*
G03*
X108180000Y-88670000I-950000J0D01*
G01*
X118300000Y-56950000D02*
G75*
G03*
X118300000Y-56950000I-950000J0D01*
G01*
X111015000Y-81765000D02*
X111015000Y-83235000D01*
X111015000Y-83235000D02*
X113300000Y-83235000D01*
X113300000Y-81765000D02*
X111015000Y-81765000D01*
X148050000Y-74250000D02*
G75*
G03*
X148050000Y-74250000I-950000J0D01*
G01*
X116620000Y-100980000D02*
G75*
G03*
X116620000Y-100980000I-950000J0D01*
G01*
X143775000Y-76225000D02*
G75*
G03*
X143775000Y-76225000I-950000J0D01*
G01*
X107150000Y-111290000D02*
G75*
G03*
X107150000Y-111290000I-950000J0D01*
G01*
X106200000Y-79840000D02*
G75*
G03*
X106200000Y-79840000I-950000J0D01*
G01*
X125000000Y-46000000D02*
X123250000Y-46000000D01*
X125000000Y-46000000D02*
X126750000Y-46000000D01*
X125000000Y-47000000D02*
X125500000Y-47500000D01*
X125000000Y-47000000D02*
X124500000Y-47500000D01*
X125000000Y-49000000D02*
X125000000Y-47000000D01*
X130000000Y-55000000D02*
X120000000Y-55000000D01*
X120000000Y-55000000D02*
X120000000Y-46000000D01*
X120000000Y-46000000D02*
X130000000Y-46000000D01*
X130000000Y-46000000D02*
X130000000Y-55000000D01*
X109975000Y-111275000D02*
G75*
G03*
X109975000Y-111275000I-950000J0D01*
G01*
X146015000Y-83235000D02*
X148300000Y-83235000D01*
X146015000Y-81765000D02*
X146015000Y-83235000D01*
X148300000Y-81765000D02*
X146015000Y-81765000D01*
X147925000Y-78550000D02*
G75*
G03*
X147925000Y-78550000I-950000J0D01*
G01*
X106950000Y-100300000D02*
X105350000Y-100300000D01*
X110910000Y-100140000D02*
X109310000Y-100140000D01*
X109310000Y-96140000D02*
X110525000Y-96140000D01*
X110910000Y-94940000D02*
X103090000Y-94940000D01*
X103090000Y-97500000D02*
X107450000Y-97500000D01*
X103090000Y-101060000D02*
X110910000Y-101060000D01*
X107450000Y-97500000D02*
X107450000Y-98500000D01*
X107450000Y-98500000D02*
X103090000Y-98500000D01*
X105350000Y-100300000D02*
X105350000Y-99300000D01*
X109310000Y-101060000D02*
X109310000Y-100140000D01*
X109310000Y-94940000D02*
X109310000Y-95860000D01*
X105350000Y-96200000D02*
X103090000Y-96200000D01*
X106950000Y-95700000D02*
X105350000Y-95700000D01*
X105350000Y-96700000D02*
X106950000Y-96700000D01*
X105350000Y-95700000D02*
X105350000Y-96700000D01*
X106950000Y-99300000D02*
X106950000Y-100300000D01*
X110910000Y-101060000D02*
X110910000Y-100140000D01*
X105350000Y-99300000D02*
X106950000Y-99300000D01*
X106950000Y-96700000D02*
X106950000Y-95700000D01*
X110910000Y-95860000D02*
X110910000Y-94940000D01*
X109310000Y-100140000D02*
X109310000Y-99860000D01*
X109310000Y-95860000D02*
X110910000Y-95860000D01*
X103090000Y-94940000D02*
X103090000Y-101060000D01*
X105350000Y-96700000D02*
X103090000Y-96700000D01*
X109310000Y-96140000D02*
X109310000Y-95860000D01*
X138702164Y-81740000D02*
X138917836Y-81740000D01*
X138702164Y-82460000D02*
X138917836Y-82460000D01*
X115800000Y-46765000D02*
X113515000Y-46765000D01*
X113515000Y-48235000D02*
X115800000Y-48235000D01*
X113515000Y-46765000D02*
X113515000Y-48235000D01*
X146180000Y-58960000D02*
X145180000Y-58960000D01*
X147180000Y-56740000D02*
X145180000Y-56740000D01*
X116485000Y-85735000D02*
X116485000Y-84265000D01*
X116485000Y-84265000D02*
X114200000Y-84265000D01*
X114200000Y-85735000D02*
X116485000Y-85735000D01*
X105790000Y-92985000D02*
X108075000Y-92985000D01*
X105790000Y-91515000D02*
X105790000Y-92985000D01*
X108075000Y-91515000D02*
X105790000Y-91515000D01*
X117450000Y-106350000D02*
G75*
G03*
X117450000Y-106350000I-950000J0D01*
G01*
X146987836Y-56410000D02*
X146772164Y-56410000D01*
X146987836Y-55690000D02*
X146772164Y-55690000D01*
X103660000Y-84450000D02*
X103660000Y-83650000D01*
X100540000Y-84450000D02*
X100540000Y-86250000D01*
X100540000Y-84450000D02*
X100540000Y-83650000D01*
X103660000Y-84450000D02*
X103660000Y-85250000D01*
X111840000Y-112672164D02*
X111840000Y-112887836D01*
X112560000Y-112672164D02*
X112560000Y-112887836D01*
X106365000Y-73435000D02*
X106365000Y-66595000D01*
X109275000Y-66595000D02*
X106365000Y-66595000D01*
X113605000Y-73435000D02*
X110575000Y-73435000D01*
X113605000Y-66595000D02*
X110575000Y-66595000D01*
X109275000Y-73435000D02*
X106365000Y-73435000D01*
X113605000Y-73435000D02*
X113605000Y-66595000D01*
X136160000Y-106300000D02*
X136160000Y-107500000D01*
X137650000Y-100500000D02*
X122350000Y-100500000D01*
X123840000Y-106300000D02*
X122350000Y-106300000D01*
X136160000Y-106300000D02*
X137650000Y-106300000D01*
X122350000Y-106300000D02*
X122350000Y-104960000D01*
X122350000Y-100500000D02*
X122350000Y-102240000D01*
X137650000Y-102240000D02*
X137650000Y-100500000D01*
X137650000Y-106300000D02*
X137650000Y-104960000D01*
X149860000Y-87900000D02*
G75*
G03*
X149860000Y-87900000I-950000J0D01*
G01*
X105550000Y-88680000D02*
G75*
G03*
X105550000Y-88680000I-950000J0D01*
G01*
X120500000Y-106350000D02*
G75*
G03*
X120500000Y-106350000I-950000J0D01*
G01*
X109730000Y-81670000D02*
G75*
G03*
X109730000Y-81670000I-950000J0D01*
G01*
X118160000Y-109110000D02*
G75*
G03*
X118160000Y-109110000I-950000J0D01*
G01*
X143515000Y-48235000D02*
X145800000Y-48235000D01*
X145800000Y-46765000D02*
X143515000Y-46765000D01*
X143515000Y-46765000D02*
X143515000Y-48235000D01*
X120240000Y-100970000D02*
G75*
G03*
X120240000Y-100970000I-950000J0D01*
G01*
X153670000Y-51440000D02*
G75*
G03*
X153670000Y-51440000I-950000J0D01*
G01*
X137290000Y-84850000D02*
G75*
G03*
X137290000Y-84850000I-950000J0D01*
G01*
X111580000Y-112953641D02*
X111580000Y-112646359D01*
X110820000Y-112953641D02*
X110820000Y-112646359D01*
X143100000Y-86075000D02*
G75*
G03*
X143100000Y-86075000I-950000J0D01*
G01*
X148300000Y-64925000D02*
G75*
G03*
X148300000Y-64925000I-950000J0D01*
G01*
X100370000Y-76130000D02*
G75*
G03*
X100370000Y-76130000I-950000J0D01*
G01*
X146015000Y-49265000D02*
X146015000Y-50735000D01*
X146015000Y-50735000D02*
X148300000Y-50735000D01*
X148300000Y-49265000D02*
X146015000Y-49265000D01*
X136000000Y-47000000D02*
X136500000Y-47500000D01*
X136000000Y-46000000D02*
X134250000Y-46000000D01*
X136000000Y-47000000D02*
X135500000Y-47500000D01*
X136000000Y-49000000D02*
X136000000Y-47000000D01*
X136000000Y-46000000D02*
X137750000Y-46000000D01*
X141000000Y-55000000D02*
X131000000Y-55000000D01*
X131000000Y-55000000D02*
X131000000Y-46000000D01*
X131000000Y-46000000D02*
X141000000Y-46000000D01*
X141000000Y-46000000D02*
X141000000Y-55000000D01*
X162300000Y-59700000D02*
X162750000Y-59250000D01*
X162300000Y-56300000D02*
X162750000Y-56750000D01*
X162750000Y-59250000D02*
X162750000Y-56750000D01*
X157700000Y-59700000D02*
X157250000Y-59250000D01*
X157700000Y-56300000D02*
X157250000Y-56750000D01*
X159000000Y-60750000D02*
X161000000Y-60750000D01*
X157250000Y-59250000D02*
X157250000Y-56750000D01*
X159000000Y-55250000D02*
X161000000Y-55250000D01*
X147975000Y-69825000D02*
G75*
G03*
X147975000Y-69825000I-950000J0D01*
G01*
X114800000Y-74000000D02*
X115000000Y-73800000D01*
X114800000Y-74000000D02*
X115400000Y-74000000D01*
X114800000Y-74000000D02*
X115000000Y-74200000D01*
X114400000Y-71875000D02*
X117600000Y-71875000D01*
X117600000Y-71875000D02*
X117600000Y-76125000D01*
X117600000Y-76125000D02*
X114400000Y-76125000D01*
X114400000Y-76125000D02*
X114400000Y-71875000D01*
X97430000Y-80990000D02*
X99410000Y-80990000D01*
X99410000Y-88510000D02*
X99410000Y-88090000D01*
X99410000Y-80990000D02*
X99410000Y-81410000D01*
X95060000Y-80990000D02*
X95460000Y-80990000D01*
X97430000Y-88510000D02*
X99410000Y-88510000D01*
X99640000Y-82990000D02*
X100090000Y-82990000D01*
X95460000Y-88510000D02*
X95060000Y-88510000D01*
X100090000Y-83440000D02*
X100090000Y-82990000D01*
G36*
X138636730Y-91557043D02*
G01*
X138693029Y-91736954D01*
X138716341Y-91980557D01*
X138722171Y-92279696D01*
X138705505Y-92479237D01*
X138661673Y-92596093D01*
X138586004Y-92647175D01*
X138530509Y-92653364D01*
X138407182Y-92638009D01*
X138354834Y-92614075D01*
X138337279Y-92541124D01*
X138323772Y-92379540D01*
X138316354Y-92158540D01*
X138315545Y-92052365D01*
X138319265Y-91793227D01*
X138333031Y-91629117D01*
X138360749Y-91537358D01*
X138406330Y-91495271D01*
X138411955Y-91492947D01*
X138544558Y-91478142D01*
X138636730Y-91557043D01*
G37*
G36*
X141142436Y-96507206D02*
G01*
X141356403Y-96528382D01*
X141514633Y-96568473D01*
X141576471Y-96611649D01*
X141603529Y-96727462D01*
X141560944Y-96803180D01*
X141456691Y-96856249D01*
X141272530Y-96889668D01*
X141044769Y-96903439D01*
X140809716Y-96897560D01*
X140603681Y-96872033D01*
X140462970Y-96826856D01*
X140433023Y-96803180D01*
X140387393Y-96689898D01*
X140417497Y-96611649D01*
X140510262Y-96557166D01*
X140684951Y-96521598D01*
X140907147Y-96504945D01*
X141142436Y-96507206D01*
G37*
G36*
X142346759Y-94317482D02*
G01*
X142414599Y-94368411D01*
X142500100Y-94469647D01*
X142613316Y-94634571D01*
X142764296Y-94876564D01*
X142949523Y-95186078D01*
X143121913Y-95473281D01*
X143275379Y-95721571D01*
X143399407Y-95914527D01*
X143483484Y-96035728D01*
X143515472Y-96070069D01*
X143557892Y-96022184D01*
X143648581Y-95888532D01*
X143777094Y-95685545D01*
X143932982Y-95429655D01*
X144075333Y-95189448D01*
X144265448Y-94867531D01*
X144408513Y-94634280D01*
X144515306Y-94475653D01*
X144596605Y-94377611D01*
X144663189Y-94326114D01*
X144725834Y-94307123D01*
X144753944Y-94305457D01*
X144916009Y-94303480D01*
X144916009Y-96896519D01*
X144562413Y-96896519D01*
X144562413Y-95970434D01*
X144562293Y-95595664D01*
X144556328Y-95335966D01*
X144536112Y-95188572D01*
X144493236Y-95150717D01*
X144419295Y-95219633D01*
X144305880Y-95392554D01*
X144144585Y-95666713D01*
X144063520Y-95806264D01*
X143873128Y-96127700D01*
X143729043Y-96356313D01*
X143622977Y-96503739D01*
X143546645Y-96581614D01*
X143496957Y-96601856D01*
X143452232Y-96554081D01*
X143359062Y-96422435D01*
X143229107Y-96224436D01*
X143074027Y-95977601D01*
X142990429Y-95840882D01*
X142529234Y-95079908D01*
X142513005Y-95988213D01*
X142496775Y-96896519D01*
X142146172Y-96896519D01*
X142146172Y-94303480D01*
X142286530Y-94303480D01*
X142346759Y-94317482D01*
G37*
G36*
X137301432Y-99126941D02*
G01*
X137301348Y-99430646D01*
X137273320Y-99632413D01*
X137213371Y-99745708D01*
X137117528Y-99783995D01*
X137107425Y-99784222D01*
X137009311Y-99743019D01*
X136964833Y-99701535D01*
X136928374Y-99590544D01*
X136911455Y-99377595D01*
X136913418Y-99126941D01*
X136930626Y-98635034D01*
X137284223Y-98635034D01*
X137301432Y-99126941D01*
G37*
G36*
X151103944Y-96601856D02*
G01*
X152518329Y-96601856D01*
X152518329Y-96896519D01*
X150750348Y-96896519D01*
X150750348Y-94303480D01*
X151103944Y-94303480D01*
X151103944Y-96601856D01*
G37*
G36*
X139568971Y-93523676D02*
G01*
X140142459Y-94099324D01*
X140142459Y-97163928D01*
X138991163Y-98310904D01*
X135867626Y-98310904D01*
X134720650Y-97159608D01*
X134720650Y-94095004D01*
X135296298Y-93521516D01*
X135871946Y-92948027D01*
X138995483Y-92948027D01*
X139568971Y-93523676D01*
G37*
G36*
X137887584Y-98618502D02*
G01*
X137958972Y-98677071D01*
X137999882Y-98808304D01*
X138017548Y-99029651D01*
X138019979Y-99197842D01*
X138004141Y-99501179D01*
X137953659Y-99694755D01*
X137866266Y-99782139D01*
X137739698Y-99766900D01*
X137679582Y-99734136D01*
X137640591Y-99668152D01*
X137620446Y-99522004D01*
X137617561Y-99280251D01*
X137620649Y-99160445D01*
X137630566Y-98910114D01*
X137644922Y-98753990D01*
X137670558Y-98668438D01*
X137714315Y-98629822D01*
X137778486Y-98615145D01*
X137887584Y-98618502D01*
G37*
G36*
X134188834Y-96493192D02*
G01*
X134357309Y-96523375D01*
X134451243Y-96576599D01*
X134524607Y-96658204D01*
X134543852Y-96690255D01*
X134507593Y-96743187D01*
X134451243Y-96803911D01*
X134362030Y-96855667D01*
X134208202Y-96883820D01*
X133965954Y-96892209D01*
X133906115Y-96891867D01*
X133679363Y-96885942D01*
X133494867Y-96874550D01*
X133387618Y-96859977D01*
X133379930Y-96857489D01*
X133318369Y-96779635D01*
X133311994Y-96657801D01*
X133357431Y-96550295D01*
X133399484Y-96519762D01*
X133502108Y-96502124D01*
X133684511Y-96489347D01*
X133908627Y-96484018D01*
X133925668Y-96483990D01*
X134188834Y-96493192D01*
G37*
G36*
X134188834Y-94371615D02*
G01*
X134357309Y-94401797D01*
X134451243Y-94455021D01*
X134524607Y-94536626D01*
X134543852Y-94568677D01*
X134507593Y-94621610D01*
X134451243Y-94682333D01*
X134362030Y-94734090D01*
X134208202Y-94762242D01*
X133965954Y-94770631D01*
X133906115Y-94770289D01*
X133679363Y-94764365D01*
X133494867Y-94752973D01*
X133387618Y-94738399D01*
X133379930Y-94735912D01*
X133318369Y-94658057D01*
X133311994Y-94536223D01*
X133357431Y-94428717D01*
X133399484Y-94398184D01*
X133502108Y-94380547D01*
X133684511Y-94367769D01*
X133908627Y-94362440D01*
X133925668Y-94362413D01*
X134188834Y-94371615D01*
G37*
G36*
X134205038Y-95090582D02*
G01*
X134397818Y-95149025D01*
X134495158Y-95240469D01*
X134487198Y-95359645D01*
X134483053Y-95367756D01*
X134439263Y-95423496D01*
X134363929Y-95457732D01*
X134231668Y-95475473D01*
X134017098Y-95481727D01*
X133903340Y-95482134D01*
X133666672Y-95477937D01*
X133476905Y-95466725D01*
X133363387Y-95450564D01*
X133345553Y-95442846D01*
X133313955Y-95358016D01*
X133306265Y-95272921D01*
X133330646Y-95179831D01*
X133415326Y-95118944D01*
X133577603Y-95084613D01*
X133834779Y-95071191D01*
X133926678Y-95070410D01*
X134205038Y-95090582D01*
G37*
G36*
X145906965Y-95570533D02*
G01*
X146090310Y-95175464D01*
X146232470Y-94874535D01*
X146341279Y-94654702D01*
X146424573Y-94502917D01*
X146490186Y-94406133D01*
X146545953Y-94351304D01*
X146599710Y-94325384D01*
X146659290Y-94315326D01*
X146660853Y-94315171D01*
X146842223Y-94297397D01*
X147402872Y-95520460D01*
X147565549Y-95871111D01*
X147714299Y-96183747D01*
X147841528Y-96443053D01*
X147939645Y-96633711D01*
X148001056Y-96740407D01*
X148016215Y-96757701D01*
X148067266Y-96717803D01*
X148171524Y-96599893D01*
X148314575Y-96422496D01*
X148482006Y-96204137D01*
X148659404Y-95963343D01*
X148832356Y-95718640D01*
X148888367Y-95636689D01*
X148887083Y-95562523D01*
X148819722Y-95423688D01*
X148681577Y-95211834D01*
X148531897Y-95004341D01*
X148330201Y-94732102D01*
X148191416Y-94541122D01*
X148109500Y-94417067D01*
X148078408Y-94345607D01*
X148092098Y-94312408D01*
X148144526Y-94303139D01*
X148229650Y-94303468D01*
X148236377Y-94303480D01*
X148336174Y-94311204D01*
X148421215Y-94346295D01*
X148512100Y-94426628D01*
X148629432Y-94570078D01*
X148779722Y-94774942D01*
X148928494Y-94975140D01*
X149054701Y-95133125D01*
X149141285Y-95228171D01*
X149167774Y-95246403D01*
X149220835Y-95201576D01*
X149324364Y-95080905D01*
X149461239Y-94905111D01*
X149556097Y-94776473D01*
X149717766Y-94558056D01*
X149834067Y-94419609D01*
X149925307Y-94343229D01*
X150011791Y-94311014D01*
X150090833Y-94305011D01*
X150174765Y-94304050D01*
X150226918Y-94312283D01*
X150241085Y-94344083D01*
X150211061Y-94413823D01*
X150130641Y-94535877D01*
X149993619Y-94724617D01*
X149793791Y-94994417D01*
X149792349Y-94996364D01*
X149611919Y-95251463D01*
X149489540Y-95449142D01*
X149432390Y-95577064D01*
X149432373Y-95615158D01*
X149483271Y-95688897D01*
X149589477Y-95835655D01*
X149735493Y-96034216D01*
X149905826Y-96263368D01*
X149907050Y-96265006D01*
X150072524Y-96488621D01*
X150208565Y-96676493D01*
X150301521Y-96809480D01*
X150337742Y-96868441D01*
X150337819Y-96869066D01*
X150286124Y-96887603D01*
X150159873Y-96896405D01*
X150142003Y-96896519D01*
X150049834Y-96888652D01*
X149968232Y-96853816D01*
X149878836Y-96775160D01*
X149763281Y-96635836D01*
X149603206Y-96418993D01*
X149567409Y-96369262D01*
X149412364Y-96156874D01*
X149282395Y-95985272D01*
X149192589Y-95873962D01*
X149159165Y-95841326D01*
X149115353Y-95886158D01*
X149019230Y-96008188D01*
X148885767Y-96187835D01*
X148756009Y-96368583D01*
X148382320Y-96896519D01*
X147640603Y-96896519D01*
X147509049Y-96572389D01*
X147377494Y-96248259D01*
X145970277Y-96248259D01*
X145821886Y-96572389D01*
X145731262Y-96755289D01*
X145656757Y-96853197D01*
X145573215Y-96891522D01*
X145501016Y-96896519D01*
X145379753Y-96883452D01*
X145331493Y-96852320D01*
X145356085Y-96788401D01*
X145423450Y-96633213D01*
X145526594Y-96402332D01*
X145658526Y-96111334D01*
X145730792Y-95953596D01*
X146096150Y-95953596D01*
X146655268Y-95953596D01*
X146895677Y-95951443D01*
X147084280Y-95945656D01*
X147195465Y-95937244D01*
X147214385Y-95931571D01*
X147191399Y-95864726D01*
X147130830Y-95719171D01*
X147045260Y-95522850D01*
X146947273Y-95303709D01*
X146849451Y-95089695D01*
X146764377Y-94908752D01*
X146704633Y-94788826D01*
X146685539Y-94757041D01*
X146640811Y-94778670D01*
X146571778Y-94884722D01*
X146519802Y-94992772D01*
X146424186Y-95212141D01*
X146311943Y-95467429D01*
X146246728Y-95614733D01*
X146096150Y-95953596D01*
X145730792Y-95953596D01*
X145812251Y-95775793D01*
X145906965Y-95570533D01*
G37*
G36*
X153156533Y-95570533D02*
G01*
X153339889Y-95175420D01*
X153482074Y-94874459D01*
X153590913Y-94654602D01*
X153674234Y-94502804D01*
X153739864Y-94406018D01*
X153795631Y-94351198D01*
X153849361Y-94325298D01*
X153908881Y-94315272D01*
X153909673Y-94315194D01*
X153958650Y-94307801D01*
X153998650Y-94303499D01*
X154035581Y-94312756D01*
X154075349Y-94346044D01*
X154123861Y-94413833D01*
X154187022Y-94526595D01*
X154270740Y-94694800D01*
X154380921Y-94928919D01*
X154523472Y-95239422D01*
X154704299Y-95636781D01*
X154908692Y-96086194D01*
X155277654Y-96896519D01*
X155083490Y-96896519D01*
X154970822Y-96887443D01*
X154894472Y-96842698D01*
X154828039Y-96736013D01*
X154757773Y-96572389D01*
X154626218Y-96248259D01*
X153219001Y-96248259D01*
X153070610Y-96572389D01*
X152979986Y-96755289D01*
X152905481Y-96853197D01*
X152821939Y-96891522D01*
X152749740Y-96896519D01*
X152628636Y-96883459D01*
X152580666Y-96852320D01*
X152605385Y-96788398D01*
X152672861Y-96633203D01*
X152776094Y-96402313D01*
X152908087Y-96111303D01*
X152980350Y-95953596D01*
X153344874Y-95953596D01*
X153903991Y-95953596D01*
X154144400Y-95951443D01*
X154333004Y-95945656D01*
X154444189Y-95937244D01*
X154463109Y-95931571D01*
X154440123Y-95864726D01*
X154379554Y-95719171D01*
X154293984Y-95522850D01*
X154195997Y-95303709D01*
X154098175Y-95089695D01*
X154013100Y-94908752D01*
X153953357Y-94788826D01*
X153934263Y-94757041D01*
X153889535Y-94778670D01*
X153820502Y-94884722D01*
X153768525Y-94992772D01*
X153672910Y-95212141D01*
X153560667Y-95467429D01*
X153495452Y-95614733D01*
X153344874Y-95953596D01*
X152980350Y-95953596D01*
X153061841Y-95775750D01*
X153156533Y-95570533D01*
G37*
G36*
X156363689Y-94303808D02*
G01*
X156776910Y-94312914D01*
X157092046Y-94342511D01*
X157327737Y-94396718D01*
X157502621Y-94479650D01*
X157623241Y-94582049D01*
X157739980Y-94786540D01*
X157769626Y-95025724D01*
X157712731Y-95257618D01*
X157612438Y-95402664D01*
X157518618Y-95503736D01*
X157478843Y-95561423D01*
X157479839Y-95565154D01*
X157537330Y-95601189D01*
X157651312Y-95672478D01*
X157657285Y-95676212D01*
X157816435Y-95837987D01*
X157894005Y-96051895D01*
X157892039Y-96287010D01*
X157812581Y-96512404D01*
X157657677Y-96697149D01*
X157586543Y-96746174D01*
X157486611Y-96795833D01*
X157368701Y-96831329D01*
X157209912Y-96855752D01*
X156987343Y-96872193D01*
X156678093Y-96883742D01*
X156540487Y-96887312D01*
X155700696Y-96907571D01*
X155700696Y-96612584D01*
X156054292Y-96612584D01*
X156667057Y-96592487D01*
X156959975Y-96579123D01*
X157159889Y-96558863D01*
X157291633Y-96527245D01*
X157380042Y-96479807D01*
X157403716Y-96460123D01*
X157505785Y-96296634D01*
X157522938Y-96099964D01*
X157455072Y-95918015D01*
X157405009Y-95860911D01*
X157324397Y-95807598D01*
X157205910Y-95771099D01*
X157025064Y-95746971D01*
X156757377Y-95730770D01*
X156668350Y-95727227D01*
X156054292Y-95704497D01*
X156054292Y-96612584D01*
X155700696Y-96612584D01*
X155700696Y-95423201D01*
X156054292Y-95423201D01*
X156576739Y-95423201D01*
X156843572Y-95418833D01*
X157023323Y-95402053D01*
X157146575Y-95367351D01*
X157243910Y-95309214D01*
X157254465Y-95301059D01*
X157380061Y-95140150D01*
X157404495Y-94955893D01*
X157325898Y-94781713D01*
X157285809Y-94739876D01*
X157199181Y-94683031D01*
X157072195Y-94645295D01*
X156878629Y-94621534D01*
X156608083Y-94607188D01*
X156054292Y-94586766D01*
X156054292Y-95423201D01*
X155700696Y-95423201D01*
X155700696Y-94303480D01*
X156363689Y-94303808D01*
G37*
G36*
X141142436Y-95800014D02*
G01*
X141356403Y-95821190D01*
X141514633Y-95861281D01*
X141576471Y-95904456D01*
X141603529Y-96020270D01*
X141560944Y-96095988D01*
X141456691Y-96149056D01*
X141272530Y-96182476D01*
X141044769Y-96196246D01*
X140809716Y-96190368D01*
X140603681Y-96164840D01*
X140462970Y-96119664D01*
X140433023Y-96095988D01*
X140387393Y-95982705D01*
X140417497Y-95904456D01*
X140510262Y-95849974D01*
X140684951Y-95814406D01*
X140907147Y-95797752D01*
X141142436Y-95800014D01*
G37*
G36*
X137950162Y-91545429D02*
G01*
X137982987Y-91635109D01*
X138006623Y-91805688D01*
X138019805Y-92020464D01*
X138021270Y-92242738D01*
X138009754Y-92435808D01*
X137985110Y-92560145D01*
X137905702Y-92629047D01*
X137776886Y-92654427D01*
X137662300Y-92626112D01*
X137647641Y-92614075D01*
X137628200Y-92538242D01*
X137615493Y-92379386D01*
X137609636Y-92172160D01*
X137610746Y-91951222D01*
X137618939Y-91751227D01*
X137634332Y-91606829D01*
X137644124Y-91567929D01*
X137726702Y-91488278D01*
X137851328Y-91486363D01*
X137950162Y-91545429D01*
G37*
G36*
X138613618Y-98629052D02*
G01*
X138676308Y-98674078D01*
X138706734Y-98782688D01*
X138723361Y-98965504D01*
X138726859Y-99185729D01*
X138717900Y-99406564D01*
X138697154Y-99591212D01*
X138665292Y-99702874D01*
X138657355Y-99713503D01*
X138540617Y-99775416D01*
X138416792Y-99771612D01*
X138340620Y-99705630D01*
X138328673Y-99613160D01*
X138323368Y-99436155D01*
X138325450Y-99207801D01*
X138327737Y-99131036D01*
X138338149Y-98889104D01*
X138353687Y-98740645D01*
X138381809Y-98661293D01*
X138429978Y-98626679D01*
X138485679Y-98615145D01*
X138613618Y-98629052D01*
G37*
G36*
X141278811Y-95080083D02*
G01*
X141444029Y-95114083D01*
X141523169Y-95162214D01*
X141605300Y-95269906D01*
X141590901Y-95357926D01*
X141545058Y-95411415D01*
X141448360Y-95448774D01*
X141270912Y-95472417D01*
X141049025Y-95482344D01*
X140819014Y-95478555D01*
X140617192Y-95461049D01*
X140479872Y-95429827D01*
X140448910Y-95411415D01*
X140373276Y-95289401D01*
X140408260Y-95191076D01*
X140548393Y-95119722D01*
X140788206Y-95078622D01*
X141018366Y-95069605D01*
X141278811Y-95080083D01*
G37*
G36*
X134188834Y-95786000D02*
G01*
X134357309Y-95816182D01*
X134451243Y-95869406D01*
X134524607Y-95951011D01*
X134543852Y-95983062D01*
X134507593Y-96035995D01*
X134451243Y-96096718D01*
X134362030Y-96148475D01*
X134208202Y-96176627D01*
X133965954Y-96185016D01*
X133906115Y-96184674D01*
X133679363Y-96178750D01*
X133494867Y-96167358D01*
X133387618Y-96152785D01*
X133379930Y-96150297D01*
X133318369Y-96072442D01*
X133311994Y-95950608D01*
X133357431Y-95843102D01*
X133399484Y-95812569D01*
X133502108Y-95794932D01*
X133684511Y-95782154D01*
X133908627Y-95776825D01*
X133925668Y-95776798D01*
X134188834Y-95786000D01*
G37*
G36*
X136594239Y-99126941D02*
G01*
X136590815Y-99450116D01*
X136552526Y-99664155D01*
X136477139Y-99773182D01*
X136362420Y-99781317D01*
X136265197Y-99734136D01*
X136226206Y-99668152D01*
X136206061Y-99522004D01*
X136203176Y-99280251D01*
X136206264Y-99160445D01*
X136223434Y-98635034D01*
X136577030Y-98635034D01*
X136594239Y-99126941D01*
G37*
G36*
X141142436Y-94385629D02*
G01*
X141356403Y-94406805D01*
X141514633Y-94446896D01*
X141576471Y-94490071D01*
X141603529Y-94605885D01*
X141560944Y-94681603D01*
X141456691Y-94734671D01*
X141272530Y-94768091D01*
X141044769Y-94781861D01*
X140809716Y-94775983D01*
X140603681Y-94750455D01*
X140462970Y-94705278D01*
X140433023Y-94681603D01*
X140387393Y-94568320D01*
X140417497Y-94490071D01*
X140510262Y-94435588D01*
X140684951Y-94400020D01*
X140907147Y-94383367D01*
X141142436Y-94385629D01*
G37*
G36*
X136497570Y-91525358D02*
G01*
X136549212Y-91665712D01*
X136573423Y-91904088D01*
X136577030Y-92099926D01*
X136575717Y-92349383D01*
X136567435Y-92504566D01*
X136545668Y-92589066D01*
X136503900Y-92626473D01*
X136435615Y-92640378D01*
X136427493Y-92641336D01*
X136298762Y-92639764D01*
X136235962Y-92616781D01*
X136217189Y-92542550D01*
X136202747Y-92379880D01*
X136194825Y-92158179D01*
X136193968Y-92052365D01*
X136197687Y-91793227D01*
X136211453Y-91629117D01*
X136239172Y-91537358D01*
X136284752Y-91495271D01*
X136290377Y-91492947D01*
X136413093Y-91471584D01*
X136497570Y-91525358D01*
G37*
G36*
X137184376Y-91512978D02*
G01*
X137186030Y-91514016D01*
X137234943Y-91566959D01*
X137264961Y-91666311D01*
X137280062Y-91835804D01*
X137284223Y-92099169D01*
X137284223Y-92099926D01*
X137283020Y-92349318D01*
X137274925Y-92504453D01*
X137253205Y-92588936D01*
X137211127Y-92626376D01*
X137141959Y-92640379D01*
X137129686Y-92641819D01*
X136987811Y-92621948D01*
X136938155Y-92563333D01*
X136919841Y-92458852D01*
X136906612Y-92275128D01*
X136901179Y-92050758D01*
X136901160Y-92036966D01*
X136918602Y-91739390D01*
X136971273Y-91553501D01*
X137059692Y-91478347D01*
X137184376Y-91512978D01*
G37*
X161790000Y-76810000D02*
G75*
G03*
X161790000Y-76810000I-950000J0D01*
G01*
X111015000Y-50735000D02*
X113300000Y-50735000D01*
X111015000Y-49265000D02*
X111015000Y-50735000D01*
X113300000Y-49265000D02*
X111015000Y-49265000D01*
X105605000Y-66595000D02*
X102575000Y-66595000D01*
X101275000Y-66595000D02*
X98365000Y-66595000D01*
X101275000Y-73435000D02*
X98365000Y-73435000D01*
X105605000Y-73435000D02*
X102575000Y-73435000D01*
X98365000Y-73435000D02*
X98365000Y-66595000D01*
X105605000Y-73435000D02*
X105605000Y-66595000D01*
X150395000Y-56845000D02*
X152995000Y-56845000D01*
X150395000Y-79765000D02*
X155595000Y-79765000D01*
X152995000Y-56845000D02*
X152995000Y-54245000D01*
X152995000Y-54245000D02*
X155595000Y-54245000D01*
X155595000Y-54245000D02*
X155595000Y-79765000D01*
X150395000Y-54245000D02*
X151725000Y-54245000D01*
X150395000Y-55575000D02*
X150395000Y-54245000D01*
X150395000Y-56845000D02*
X150395000Y-79765000D01*
X139603641Y-88295000D02*
X139296359Y-88295000D01*
X139603641Y-89055000D02*
X139296359Y-89055000D01*
X118290000Y-60630000D02*
G75*
G03*
X118290000Y-60630000I-950000J0D01*
G01*
X146485000Y-85735000D02*
X146485000Y-84265000D01*
X144200000Y-85735000D02*
X146485000Y-85735000D01*
X146485000Y-84265000D02*
X144200000Y-84265000D01*
X118212500Y-97635000D02*
X117562500Y-97635000D01*
X118212500Y-97635000D02*
X119887500Y-97635000D01*
X118212500Y-94515000D02*
X117562500Y-94515000D01*
X118212500Y-94515000D02*
X118862500Y-94515000D01*
X146070000Y-91470000D02*
G75*
G03*
X146070000Y-91470000I-950000J0D01*
G01*
X121080000Y-96696359D02*
X121080000Y-97003641D01*
X120320000Y-96696359D02*
X120320000Y-97003641D01*
X118200000Y-91040000D02*
X118850000Y-91040000D01*
X118200000Y-94160000D02*
X119875000Y-94160000D01*
X118200000Y-91040000D02*
X117550000Y-91040000D01*
X118200000Y-94160000D02*
X117550000Y-94160000D01*
X152890000Y-87960000D02*
G75*
G03*
X152890000Y-87960000I-950000J0D01*
G01*
X154760000Y-97883641D02*
X154760000Y-97576359D01*
X154000000Y-97883641D02*
X154000000Y-97576359D01*
X117100000Y-52250000D02*
G75*
G03*
X117100000Y-52250000I-950000J0D01*
G01*
D13*
X110000000Y-64000000D02*
X108500000Y-64000000D01*
X108500000Y-64000000D02*
X108500000Y-62500000D01*
X108500000Y-62500000D02*
X110000000Y-62500000D01*
X110000000Y-62500000D02*
X110000000Y-64000000D01*
D12*
X103000000Y-61000000D02*
G75*
G03*
X105000000Y-61828427I2000000J1999999D01*
G01*
X110171605Y-62042121D02*
G75*
G03*
X105000000Y-65000000I-5171605J3042121D01*
G01*
X107000000Y-57000000D02*
G75*
G03*
X105000000Y-56171573I-2000000J-2000000D01*
G01*
X109550000Y-59000000D02*
G75*
G03*
X109550000Y-59000000I-4550000J0D01*
G01*
X113320000Y-56550000D02*
G75*
G03*
X113320000Y-56550000I-950000J0D01*
G01*
X111480000Y-107050000D02*
X112080000Y-106450000D01*
X103825000Y-106270000D02*
X103825000Y-105635000D01*
X103900000Y-107050000D02*
X101920000Y-105650000D01*
X112080000Y-103550000D02*
X112080000Y-106450000D01*
X104460000Y-106270000D02*
X103825000Y-106270000D01*
X101920000Y-104350000D02*
X103900000Y-102950000D01*
X101920000Y-105650000D02*
X101920000Y-104350000D01*
X103900000Y-102950000D02*
X111480000Y-102950000D01*
X111480000Y-102950000D02*
X112080000Y-103550000D01*
X111480000Y-107050000D02*
X103900000Y-107050000D01*
%LPC*%
D14*
X100000000Y-110000000D03*
D15*
X100000000Y-110000000D03*
D14*
X100000000Y-50000000D03*
D15*
X100000000Y-50000000D03*
D16*
X142750000Y-79775000D03*
D17*
X119000000Y-67000000D03*
X141000000Y-67000000D03*
D16*
X146736000Y-60668000D03*
D18*
X120675000Y-92865000D03*
X120675000Y-93885000D03*
D19*
X158100000Y-70150000D03*
X158100000Y-63850000D03*
X161900000Y-63850000D03*
X161900000Y-70150000D03*
D20*
X101350000Y-81475000D03*
X101350000Y-79425000D03*
D21*
X132430000Y-108525000D03*
X131470000Y-108525000D03*
D22*
X140787500Y-90000000D03*
X139212500Y-90000000D03*
D23*
X141570000Y-82100000D03*
X142590000Y-82100000D03*
D24*
X103437500Y-92250000D03*
X105012500Y-92250000D03*
D16*
X107230000Y-88670000D03*
X117350000Y-56950000D03*
D24*
X111712500Y-82500000D03*
X113287500Y-82500000D03*
D16*
X147100000Y-74250000D03*
X115670000Y-100980000D03*
X142825000Y-76225000D03*
X106200000Y-111290000D03*
X105250000Y-79840000D03*
D25*
X121400000Y-52500000D03*
X128600000Y-52500000D03*
X127250000Y-50000000D03*
X122750000Y-50000000D03*
D16*
X109025000Y-111275000D03*
D24*
X146712500Y-82500000D03*
X148287500Y-82500000D03*
D16*
X146975000Y-78550000D03*
D26*
X109450000Y-97000000D03*
D27*
X109450000Y-99000000D03*
D28*
X138330000Y-82100000D03*
X139290000Y-82100000D03*
D24*
X114212500Y-47500000D03*
X115787500Y-47500000D03*
D29*
X146967500Y-58500000D03*
X146967500Y-57850000D03*
X146967500Y-57200000D03*
X145392500Y-57200000D03*
X145392500Y-57850000D03*
X145392500Y-58500000D03*
D22*
X115787500Y-85000000D03*
X114212500Y-85000000D03*
D24*
X106487500Y-92250000D03*
X108062500Y-92250000D03*
D16*
X116500000Y-106350000D03*
D21*
X147360000Y-56050000D03*
X146400000Y-56050000D03*
D30*
X101150000Y-85587500D03*
X102100000Y-85587500D03*
X103050000Y-85587500D03*
X103050000Y-83312500D03*
X102100000Y-83312500D03*
X101150000Y-83312500D03*
D31*
X112200000Y-112300000D03*
X112200000Y-113260000D03*
D32*
X109925000Y-67475000D03*
X107385000Y-70015000D03*
X109925000Y-72555000D03*
D33*
X135750000Y-106850000D03*
X135250000Y-106850000D03*
X134750000Y-106850000D03*
X134250000Y-106850000D03*
X133750000Y-106850000D03*
X133250000Y-106850000D03*
X132750000Y-106850000D03*
X132250000Y-106850000D03*
X131750000Y-106850000D03*
X131250000Y-106850000D03*
X130750000Y-106850000D03*
X130250000Y-106850000D03*
X129750000Y-106850000D03*
X129250000Y-106850000D03*
X128750000Y-106850000D03*
X128250000Y-106850000D03*
X127750000Y-106850000D03*
X127250000Y-106850000D03*
X126750000Y-106850000D03*
X126250000Y-106850000D03*
X125750000Y-106850000D03*
X125250000Y-106850000D03*
X124750000Y-106850000D03*
X124250000Y-106850000D03*
D34*
X137650000Y-103600000D03*
X122350000Y-103600000D03*
D16*
X148910000Y-87900000D03*
X104600000Y-88680000D03*
X119550000Y-106350000D03*
X108780000Y-81670000D03*
X117210000Y-109110000D03*
D24*
X144212500Y-47500000D03*
X145787500Y-47500000D03*
D16*
X119290000Y-100970000D03*
X152720000Y-51440000D03*
X136340000Y-84850000D03*
D35*
X111200000Y-113310000D03*
X111200000Y-112290000D03*
D16*
X142150000Y-86075000D03*
X147350000Y-64925000D03*
X99420000Y-76130000D03*
D24*
X146712500Y-50000000D03*
X148287500Y-50000000D03*
D25*
X139600000Y-52500000D03*
X132400000Y-52500000D03*
X138250000Y-50000000D03*
X133750000Y-50000000D03*
D19*
X158100000Y-54850000D03*
X158100000Y-61150000D03*
X161900000Y-61150000D03*
X161900000Y-54850000D03*
D16*
X147025000Y-69825000D03*
D36*
X116500000Y-74625000D03*
X116500000Y-73375000D03*
D37*
X99150000Y-83450000D03*
X99150000Y-84100000D03*
X99150000Y-84750000D03*
X99150000Y-85400000D03*
X99150000Y-86050000D03*
D38*
X96450000Y-83750000D03*
D39*
X96450000Y-87650000D03*
D38*
X96450000Y-85750000D03*
D40*
X96450000Y-81250000D03*
D41*
X99150000Y-87250000D03*
D39*
X96450000Y-81850000D03*
D41*
X99150000Y-82250000D03*
D40*
X96450000Y-88250000D03*
D16*
X160840000Y-76810000D03*
D24*
X111712500Y-50000000D03*
X113287500Y-50000000D03*
D32*
X101925000Y-67475000D03*
X99385000Y-70015000D03*
X101925000Y-72555000D03*
D15*
X160000000Y-50000000D03*
D14*
X160000000Y-50000000D03*
D42*
X151725000Y-55575000D03*
D43*
X154265000Y-55575000D03*
X151725000Y-58115000D03*
X154265000Y-58115000D03*
X151725000Y-60655000D03*
X154265000Y-60655000D03*
X151725000Y-63195000D03*
X154265000Y-63195000D03*
X151725000Y-65735000D03*
X154265000Y-65735000D03*
X151725000Y-68275000D03*
X154265000Y-68275000D03*
X151725000Y-70815000D03*
X154265000Y-70815000D03*
X151725000Y-73355000D03*
X154265000Y-73355000D03*
X151725000Y-75895000D03*
X154265000Y-75895000D03*
X151725000Y-78435000D03*
X154265000Y-78435000D03*
D44*
X139960000Y-88675000D03*
X138940000Y-88675000D03*
D16*
X117340000Y-60630000D03*
D22*
X145787500Y-85000000D03*
X144212500Y-85000000D03*
D45*
X119150000Y-97025000D03*
X119150000Y-95125000D03*
X117275000Y-96075000D03*
D16*
X145120000Y-91470000D03*
D15*
X160000000Y-110000000D03*
D14*
X160000000Y-110000000D03*
D18*
X120700000Y-96340000D03*
X120700000Y-97360000D03*
D45*
X119137500Y-93550000D03*
X119137500Y-91650000D03*
X117262500Y-92600000D03*
D16*
X151940000Y-87960000D03*
D35*
X154380000Y-98240000D03*
X154380000Y-97220000D03*
D16*
X116150000Y-52250000D03*
D46*
X106123152Y-61691848D03*
D47*
X107700000Y-60115000D03*
X107700000Y-57885000D03*
X103876848Y-56308152D03*
X102300000Y-57885000D03*
X102300000Y-60115000D03*
D16*
X112370000Y-56550000D03*
D48*
X110810000Y-106016000D03*
X110810000Y-103984000D03*
X103190000Y-105000000D03*
D49*
X104460000Y-105635000D03*
X105730000Y-105635000D03*
X107000000Y-105635000D03*
X108270000Y-105635000D03*
X109540000Y-105635000D03*
X109540000Y-104365000D03*
X108270000Y-104365000D03*
X107000000Y-104365000D03*
X105730000Y-104365000D03*
X104460000Y-104365000D03*
D50*
X149960000Y-92230000D03*
X149960000Y-93630000D03*
X149260000Y-92930000D03*
X149960000Y-90830000D03*
X147860000Y-92930000D03*
X150660000Y-92930000D03*
X147860000Y-91530000D03*
X149260000Y-91530000D03*
X148560000Y-90830000D03*
X148560000Y-92230000D03*
X150660000Y-91530000D03*
X148560000Y-93630000D03*
M02*
