G04 #@! TF.GenerationSoftware,KiCad,Pcbnew,(6.0.10)*
G04 #@! TF.CreationDate,2023-01-06T16:36:23-08:00*
G04 #@! TF.ProjectId,ai-camera,61692d63-616d-4657-9261-2e6b69636164,rev?*
G04 #@! TF.SameCoordinates,Original*
G04 #@! TF.FileFunction,Profile,NP*
%FSLAX46Y46*%
G04 Gerber Fmt 4.6, Leading zero omitted, Abs format (unit mm)*
G04 Created by KiCad (PCBNEW (6.0.10)) date 2023-01-06 16:36:23*
%MOMM*%
%LPD*%
G01*
G04 APERTURE LIST*
G04 #@! TA.AperFunction,Profile*
%ADD10C,0.100000*%
G04 #@! TD*
G04 APERTURE END LIST*
D10*
X165000000Y-50000000D02*
G75*
G03*
X160000000Y-45000000I-5000000J0D01*
G01*
X95000000Y-89250000D02*
G75*
G03*
X97500000Y-91750000I2500000J0D01*
G01*
X165000000Y-102000000D02*
X165000000Y-110000000D01*
X100000000Y-45000000D02*
X160000000Y-45000000D01*
X158000000Y-98000000D02*
G75*
G03*
X160000000Y-100000000I2000000J0D01*
G01*
X97500000Y-104250000D02*
G75*
G03*
X95000000Y-106750000I0J-2500000D01*
G01*
X162999999Y-80999999D02*
X160000000Y-80999999D01*
X100000000Y-45000000D02*
G75*
G03*
X95000000Y-50000000I0J-5000000D01*
G01*
X165000000Y-102000000D02*
G75*
G03*
X163000000Y-100000000I-2000000J0D01*
G01*
X95000000Y-89250000D02*
X95000000Y-50000000D01*
X100000000Y-94250000D02*
G75*
G03*
X97500000Y-91750000I-2500000J0D01*
G01*
X160000000Y-81000000D02*
G75*
G03*
X158000000Y-83000000I0J-2000000D01*
G01*
X160000000Y-100000000D02*
X163000000Y-100000000D01*
X160000000Y-115000000D02*
G75*
G03*
X165000000Y-110000000I0J5000000D01*
G01*
X100000000Y-101750000D02*
X100000000Y-94250000D01*
X95000000Y-106750000D02*
X95000000Y-110000000D01*
X165000000Y-50000000D02*
X165000000Y-78999999D01*
X95000000Y-110000000D02*
G75*
G03*
X100000000Y-115000000I5000000J0D01*
G01*
X160000000Y-115000000D02*
X100000000Y-115000000D01*
X97500000Y-104250000D02*
G75*
G03*
X100000000Y-101750000I0J2500000D01*
G01*
X162999999Y-80999999D02*
G75*
G03*
X164999999Y-78999999I1J1999999D01*
G01*
X158000000Y-83000000D02*
X158000000Y-98000000D01*
M02*
