%TF.GenerationSoftware,KiCad,Pcbnew,(6.0.10)*%
%TF.CreationDate,2023-01-09T17:37:14-08:00*%
%TF.ProjectId,ai-camera,61692d63-616d-4657-9261-2e6b69636164,rev?*%
%TF.SameCoordinates,PX5a995c0PY2aea540*%
%TF.FileFunction,Legend,Top*%
%TF.FilePolarity,Positive*%
%FSLAX46Y46*%
G04 Gerber Fmt 4.6, Leading zero omitted, Abs format (unit mm)*
G04 Created by KiCad (PCBNEW (6.0.10)) date 2023-01-09 17:37:14*
%MOMM*%
%LPD*%
G01*
G04 APERTURE LIST*
G04 Aperture macros list*
%AMRoundRect*
0 Rectangle with rounded corners*
0 $1 Rounding radius*
0 $2 $3 $4 $5 $6 $7 $8 $9 X,Y pos of 4 corners*
0 Add a 4 corners polygon primitive as box body*
4,1,4,$2,$3,$4,$5,$6,$7,$8,$9,$2,$3,0*
0 Add four circle primitives for the rounded corners*
1,1,$1+$1,$2,$3*
1,1,$1+$1,$4,$5*
1,1,$1+$1,$6,$7*
1,1,$1+$1,$8,$9*
0 Add four rect primitives between the rounded corners*
20,1,$1+$1,$2,$3,$4,$5,0*
20,1,$1+$1,$4,$5,$6,$7,0*
20,1,$1+$1,$6,$7,$8,$9,0*
20,1,$1+$1,$8,$9,$2,$3,0*%
G04 Aperture macros list end*
%ADD10C,0.177800*%
%ADD11C,0.150000*%
%ADD12C,0.120000*%
%ADD13C,0.100000*%
%ADD14RoundRect,0.250000X-1.500000X0.250000X-1.500000X-0.250000X1.500000X-0.250000X1.500000X0.250000X0*%
%ADD15RoundRect,0.250001X-1.449999X0.499999X-1.449999X-0.499999X1.449999X-0.499999X1.449999X0.499999X0*%
%ADD16C,5.600000*%
%ADD17C,3.600000*%
%ADD18C,1.500000*%
%ADD19C,4.000000*%
%ADD20RoundRect,0.135000X-0.185000X0.135000X-0.185000X-0.135000X0.185000X-0.135000X0.185000X0.135000X0*%
%ADD21R,1.000000X1.700000*%
%ADD22RoundRect,0.250000X0.450000X-0.325000X0.450000X0.325000X-0.450000X0.325000X-0.450000X-0.325000X0*%
%ADD23RoundRect,0.140000X0.140000X0.170000X-0.140000X0.170000X-0.140000X-0.170000X0.140000X-0.170000X0*%
%ADD24RoundRect,0.218750X0.218750X0.256250X-0.218750X0.256250X-0.218750X-0.256250X0.218750X-0.256250X0*%
%ADD25RoundRect,0.135000X-0.135000X-0.185000X0.135000X-0.185000X0.135000X0.185000X-0.135000X0.185000X0*%
%ADD26RoundRect,0.218750X-0.218750X-0.256250X0.218750X-0.256250X0.218750X0.256250X-0.218750X0.256250X0*%
%ADD27C,1.700000*%
%ADD28RoundRect,0.140000X-0.140000X-0.170000X0.140000X-0.170000X0.140000X0.170000X-0.140000X0.170000X0*%
%ADD29RoundRect,0.075000X0.512500X0.075000X-0.512500X0.075000X-0.512500X-0.075000X0.512500X-0.075000X0*%
%ADD30RoundRect,0.150000X0.150000X-0.512500X0.150000X0.512500X-0.150000X0.512500X-0.150000X-0.512500X0*%
%ADD31RoundRect,0.140000X-0.170000X0.140000X-0.170000X-0.140000X0.170000X-0.140000X0.170000X0.140000X0*%
%ADD32C,1.440000*%
%ADD33R,0.300000X1.300000*%
%ADD34R,1.800000X2.200000*%
%ADD35RoundRect,0.135000X0.185000X-0.135000X0.185000X0.135000X-0.185000X0.135000X-0.185000X-0.135000X0*%
%ADD36C,0.800000*%
%ADD37R,1.350000X0.400000*%
%ADD38R,1.550000X1.500000*%
%ADD39R,1.550000X1.200000*%
%ADD40O,1.550000X0.890000*%
%ADD41O,0.950000X1.250000*%
%ADD42R,1.700000X1.700000*%
%ADD43O,1.700000X1.700000*%
%ADD44RoundRect,0.135000X0.135000X0.185000X-0.135000X0.185000X-0.135000X-0.185000X0.135000X-0.185000X0*%
%ADD45RoundRect,0.150000X0.587500X0.150000X-0.587500X0.150000X-0.587500X-0.150000X0.587500X-0.150000X0*%
%ADD46R,1.524000X1.524000*%
%ADD47C,1.524000*%
%ADD48C,0.990600*%
%ADD49C,0.787400*%
%ADD50C,0.600000*%
G04 APERTURE END LIST*
D10*
X61750000Y-28500000D02*
X61500000Y-28500000D01*
D11*
X17862857Y-49010000D02*
X17805714Y-48962380D01*
X17720000Y-48962380D01*
X17634285Y-49010000D01*
X17577142Y-49105238D01*
X17548571Y-49200476D01*
X17520000Y-49390952D01*
X17520000Y-49533809D01*
X17548571Y-49724285D01*
X17577142Y-49819523D01*
X17634285Y-49914761D01*
X17720000Y-49962380D01*
X17777142Y-49962380D01*
X17862857Y-49914761D01*
X17891428Y-49867142D01*
X17891428Y-49533809D01*
X17777142Y-49533809D01*
X18148571Y-49962380D02*
X18148571Y-48962380D01*
X18491428Y-49962380D01*
X18491428Y-48962380D01*
X18777142Y-49962380D02*
X18777142Y-48962380D01*
X18920000Y-48962380D01*
X19005714Y-49010000D01*
X19062857Y-49105238D01*
X19091428Y-49200476D01*
X19120000Y-49390952D01*
X19120000Y-49533809D01*
X19091428Y-49724285D01*
X19062857Y-49819523D01*
X19005714Y-49914761D01*
X18920000Y-49962380D01*
X18777142Y-49962380D01*
X17077142Y-54441428D02*
X17534285Y-54441428D01*
X17305714Y-54822380D02*
X17305714Y-54060476D01*
X18020000Y-54298571D02*
X18105714Y-54346190D01*
X18134285Y-54393809D01*
X18162857Y-54489047D01*
X18162857Y-54631904D01*
X18134285Y-54727142D01*
X18105714Y-54774761D01*
X18048571Y-54822380D01*
X17820000Y-54822380D01*
X17820000Y-53822380D01*
X18020000Y-53822380D01*
X18077142Y-53870000D01*
X18105714Y-53917619D01*
X18134285Y-54012857D01*
X18134285Y-54108095D01*
X18105714Y-54203333D01*
X18077142Y-54250952D01*
X18020000Y-54298571D01*
X17820000Y-54298571D01*
X18391428Y-54536666D02*
X18677142Y-54536666D01*
X18334285Y-54822380D02*
X18534285Y-53822380D01*
X18734285Y-54822380D01*
X18848571Y-53822380D02*
X19191428Y-53822380D01*
X19020000Y-54822380D02*
X19020000Y-53822380D01*
X19305714Y-53822380D02*
X19648571Y-53822380D01*
X19477142Y-54822380D02*
X19477142Y-53822380D01*
D10*
X61388000Y-12112000D02*
X61388000Y-29384000D01*
X61388000Y-29384000D02*
X60880000Y-29384000D01*
X60880000Y-34464000D02*
X61388000Y-34464000D01*
X60880000Y-12112000D02*
X61388000Y-12112000D01*
D11*
X68936571Y-25356928D02*
X68984190Y-25271214D01*
X69031809Y-25242642D01*
X69127047Y-25214071D01*
X69269904Y-25214071D01*
X69365142Y-25242642D01*
X69412761Y-25271214D01*
X69460380Y-25328357D01*
X69460380Y-25556928D01*
X68460380Y-25556928D01*
X68460380Y-25356928D01*
X68508000Y-25299785D01*
X68555619Y-25271214D01*
X68650857Y-25242642D01*
X68746095Y-25242642D01*
X68841333Y-25271214D01*
X68888952Y-25299785D01*
X68936571Y-25356928D01*
X68936571Y-25556928D01*
X68460380Y-24842642D02*
X68460380Y-24728357D01*
X68508000Y-24671214D01*
X68603238Y-24614071D01*
X68793714Y-24585500D01*
X69127047Y-24585500D01*
X69317523Y-24614071D01*
X69412761Y-24671214D01*
X69460380Y-24728357D01*
X69460380Y-24842642D01*
X69412761Y-24899785D01*
X69317523Y-24956928D01*
X69127047Y-24985500D01*
X68793714Y-24985500D01*
X68603238Y-24956928D01*
X68508000Y-24899785D01*
X68460380Y-24842642D01*
X68460380Y-24214071D02*
X68460380Y-24099785D01*
X68508000Y-24042642D01*
X68603238Y-23985500D01*
X68793714Y-23956928D01*
X69127047Y-23956928D01*
X69317523Y-23985500D01*
X69412761Y-24042642D01*
X69460380Y-24099785D01*
X69460380Y-24214071D01*
X69412761Y-24271214D01*
X69317523Y-24328357D01*
X69127047Y-24356928D01*
X68793714Y-24356928D01*
X68603238Y-24328357D01*
X68508000Y-24271214D01*
X68460380Y-24214071D01*
X68460380Y-23785500D02*
X68460380Y-23442642D01*
X69460380Y-23614071D02*
X68460380Y-23614071D01*
X53623071Y-26232761D02*
X53708785Y-26280380D01*
X53851642Y-26280380D01*
X53908785Y-26232761D01*
X53937357Y-26185142D01*
X53965928Y-26089904D01*
X53965928Y-25994666D01*
X53937357Y-25899428D01*
X53908785Y-25851809D01*
X53851642Y-25804190D01*
X53737357Y-25756571D01*
X53680214Y-25708952D01*
X53651642Y-25661333D01*
X53623071Y-25566095D01*
X53623071Y-25470857D01*
X53651642Y-25375619D01*
X53680214Y-25328000D01*
X53737357Y-25280380D01*
X53880214Y-25280380D01*
X53965928Y-25328000D01*
X54223071Y-26280380D02*
X54223071Y-25280380D01*
X54365928Y-25280380D01*
X54451642Y-25328000D01*
X54508785Y-25423238D01*
X54537357Y-25518476D01*
X54565928Y-25708952D01*
X54565928Y-25851809D01*
X54537357Y-26042285D01*
X54508785Y-26137523D01*
X54451642Y-26232761D01*
X54365928Y-26280380D01*
X54223071Y-26280380D01*
X54794500Y-25994666D02*
X55080214Y-25994666D01*
X54737357Y-26280380D02*
X54937357Y-25280380D01*
X55137357Y-26280380D01*
X53726071Y-10027380D02*
X54097500Y-10027380D01*
X53897500Y-10408333D01*
X53983214Y-10408333D01*
X54040357Y-10455952D01*
X54068928Y-10503571D01*
X54097500Y-10598809D01*
X54097500Y-10836904D01*
X54068928Y-10932142D01*
X54040357Y-10979761D01*
X53983214Y-11027380D01*
X53811785Y-11027380D01*
X53754642Y-10979761D01*
X53726071Y-10932142D01*
X54268928Y-10027380D02*
X54468928Y-11027380D01*
X54668928Y-10027380D01*
X54811785Y-10027380D02*
X55183214Y-10027380D01*
X54983214Y-10408333D01*
X55068928Y-10408333D01*
X55126071Y-10455952D01*
X55154642Y-10503571D01*
X55183214Y-10598809D01*
X55183214Y-10836904D01*
X55154642Y-10932142D01*
X55126071Y-10979761D01*
X55068928Y-11027380D01*
X54897500Y-11027380D01*
X54840357Y-10979761D01*
X54811785Y-10932142D01*
X13011785Y-29704761D02*
X13097500Y-29752380D01*
X13240357Y-29752380D01*
X13297500Y-29704761D01*
X13326071Y-29657142D01*
X13354642Y-29561904D01*
X13354642Y-29466666D01*
X13326071Y-29371428D01*
X13297500Y-29323809D01*
X13240357Y-29276190D01*
X13126071Y-29228571D01*
X13068928Y-29180952D01*
X13040357Y-29133333D01*
X13011785Y-29038095D01*
X13011785Y-28942857D01*
X13040357Y-28847619D01*
X13068928Y-28800000D01*
X13126071Y-28752380D01*
X13268928Y-28752380D01*
X13354642Y-28800000D01*
X13611785Y-29228571D02*
X13811785Y-29228571D01*
X13897500Y-29752380D02*
X13611785Y-29752380D01*
X13611785Y-28752380D01*
X13897500Y-28752380D01*
X14154642Y-29752380D02*
X14154642Y-28752380D01*
X14497500Y-29752380D01*
X14497500Y-28752380D01*
X14754642Y-29704761D02*
X14840357Y-29752380D01*
X14983214Y-29752380D01*
X15040357Y-29704761D01*
X15068928Y-29657142D01*
X15097500Y-29561904D01*
X15097500Y-29466666D01*
X15068928Y-29371428D01*
X15040357Y-29323809D01*
X14983214Y-29276190D01*
X14868928Y-29228571D01*
X14811785Y-29180952D01*
X14783214Y-29133333D01*
X14754642Y-29038095D01*
X14754642Y-28942857D01*
X14783214Y-28847619D01*
X14811785Y-28800000D01*
X14868928Y-28752380D01*
X15011785Y-28752380D01*
X15097500Y-28800000D01*
X23357142Y-27902380D02*
X23471428Y-27902380D01*
X23528571Y-27950000D01*
X23585714Y-28045238D01*
X23614285Y-28235714D01*
X23614285Y-28569047D01*
X23585714Y-28759523D01*
X23528571Y-28854761D01*
X23471428Y-28902380D01*
X23357142Y-28902380D01*
X23300000Y-28854761D01*
X23242857Y-28759523D01*
X23214285Y-28569047D01*
X23214285Y-28235714D01*
X23242857Y-28045238D01*
X23300000Y-27950000D01*
X23357142Y-27902380D01*
X23842857Y-27997619D02*
X23871428Y-27950000D01*
X23928571Y-27902380D01*
X24071428Y-27902380D01*
X24128571Y-27950000D01*
X24157142Y-27997619D01*
X24185714Y-28092857D01*
X24185714Y-28188095D01*
X24157142Y-28330952D01*
X23814285Y-28902380D01*
X24185714Y-28902380D01*
X62454857Y-32948000D02*
X62397714Y-32900380D01*
X62312000Y-32900380D01*
X62226285Y-32948000D01*
X62169142Y-33043238D01*
X62140571Y-33138476D01*
X62112000Y-33328952D01*
X62112000Y-33471809D01*
X62140571Y-33662285D01*
X62169142Y-33757523D01*
X62226285Y-33852761D01*
X62312000Y-33900380D01*
X62369142Y-33900380D01*
X62454857Y-33852761D01*
X62483428Y-33805142D01*
X62483428Y-33471809D01*
X62369142Y-33471809D01*
X62740571Y-33900380D02*
X62740571Y-32900380D01*
X63083428Y-33900380D01*
X63083428Y-32900380D01*
X63369142Y-33900380D02*
X63369142Y-32900380D01*
X63512000Y-32900380D01*
X63597714Y-32948000D01*
X63654857Y-33043238D01*
X63683428Y-33138476D01*
X63712000Y-33328952D01*
X63712000Y-33471809D01*
X63683428Y-33662285D01*
X63654857Y-33757523D01*
X63597714Y-33852761D01*
X63512000Y-33900380D01*
X63369142Y-33900380D01*
X4698571Y-45400000D02*
X5270000Y-45400000D01*
X4812857Y-46634761D02*
X4898571Y-46682380D01*
X5041428Y-46682380D01*
X5098571Y-46634761D01*
X5127142Y-46587142D01*
X5155714Y-46491904D01*
X5155714Y-46396666D01*
X5127142Y-46301428D01*
X5098571Y-46253809D01*
X5041428Y-46206190D01*
X4927142Y-46158571D01*
X4870000Y-46110952D01*
X4841428Y-46063333D01*
X4812857Y-45968095D01*
X4812857Y-45872857D01*
X4841428Y-45777619D01*
X4870000Y-45730000D01*
X4927142Y-45682380D01*
X5070000Y-45682380D01*
X5155714Y-45730000D01*
X5270000Y-45400000D02*
X5727142Y-45400000D01*
X5327142Y-45682380D02*
X5670000Y-45682380D01*
X5498571Y-46682380D02*
X5498571Y-45682380D01*
X5727142Y-45400000D02*
X6327142Y-45400000D01*
X5870000Y-46682380D02*
X5870000Y-45682380D01*
X6012857Y-45682380D01*
X6098571Y-45730000D01*
X6155714Y-45825238D01*
X6184285Y-45920476D01*
X6212857Y-46110952D01*
X6212857Y-46253809D01*
X6184285Y-46444285D01*
X6155714Y-46539523D01*
X6098571Y-46634761D01*
X6012857Y-46682380D01*
X5870000Y-46682380D01*
X6327142Y-45400000D02*
X6927142Y-45400000D01*
X6670000Y-46158571D02*
X6755714Y-46206190D01*
X6784285Y-46253809D01*
X6812857Y-46349047D01*
X6812857Y-46491904D01*
X6784285Y-46587142D01*
X6755714Y-46634761D01*
X6698571Y-46682380D01*
X6470000Y-46682380D01*
X6470000Y-45682380D01*
X6670000Y-45682380D01*
X6727142Y-45730000D01*
X6755714Y-45777619D01*
X6784285Y-45872857D01*
X6784285Y-45968095D01*
X6755714Y-46063333D01*
X6727142Y-46110952D01*
X6670000Y-46158571D01*
X6470000Y-46158571D01*
X6927142Y-45400000D02*
X7441428Y-45400000D01*
X7184285Y-46206190D02*
X7184285Y-46682380D01*
X6984285Y-45682380D02*
X7184285Y-46206190D01*
X7384285Y-45682380D01*
X5354642Y-28702380D02*
X5468928Y-28702380D01*
X5526071Y-28750000D01*
X5583214Y-28845238D01*
X5611785Y-29035714D01*
X5611785Y-29369047D01*
X5583214Y-29559523D01*
X5526071Y-29654761D01*
X5468928Y-29702380D01*
X5354642Y-29702380D01*
X5297500Y-29654761D01*
X5240357Y-29559523D01*
X5211785Y-29369047D01*
X5211785Y-29035714D01*
X5240357Y-28845238D01*
X5297500Y-28750000D01*
X5354642Y-28702380D01*
X5868928Y-29702380D02*
X5868928Y-28702380D01*
X6211785Y-29702380D01*
X6211785Y-28702380D01*
X6411785Y-28702380D02*
X6754642Y-28702380D01*
X6583214Y-29702380D02*
X6583214Y-28702380D01*
X6954642Y-29702380D02*
X6954642Y-28702380D01*
X7240357Y-29702380D02*
X7240357Y-28702380D01*
X7440357Y-29416666D01*
X7640357Y-28702380D01*
X7640357Y-29702380D01*
X7926071Y-29178571D02*
X8126071Y-29178571D01*
X8211785Y-29702380D02*
X7926071Y-29702380D01*
X7926071Y-28702380D01*
X8211785Y-28702380D01*
X54165928Y-13056571D02*
X54365928Y-13056571D01*
X54451642Y-13580380D02*
X54165928Y-13580380D01*
X54165928Y-12580380D01*
X54451642Y-12580380D01*
X54708785Y-13580380D02*
X54708785Y-12580380D01*
X55051642Y-13580380D01*
X55051642Y-12580380D01*
X60840380Y-11688000D02*
X61840380Y-11488000D01*
X60840380Y-11288000D01*
X61316571Y-10888000D02*
X61364190Y-10802285D01*
X61411809Y-10773714D01*
X61507047Y-10745142D01*
X61649904Y-10745142D01*
X61745142Y-10773714D01*
X61792761Y-10802285D01*
X61840380Y-10859428D01*
X61840380Y-11088000D01*
X60840380Y-11088000D01*
X60840380Y-10888000D01*
X60888000Y-10830857D01*
X60935619Y-10802285D01*
X61030857Y-10773714D01*
X61126095Y-10773714D01*
X61221333Y-10802285D01*
X61268952Y-10830857D01*
X61316571Y-10888000D01*
X61316571Y-11088000D01*
X60840380Y-10488000D02*
X61649904Y-10488000D01*
X61745142Y-10459428D01*
X61792761Y-10430857D01*
X61840380Y-10373714D01*
X61840380Y-10259428D01*
X61792761Y-10202285D01*
X61745142Y-10173714D01*
X61649904Y-10145142D01*
X60840380Y-10145142D01*
X61792761Y-9888000D02*
X61840380Y-9802285D01*
X61840380Y-9659428D01*
X61792761Y-9602285D01*
X61745142Y-9573714D01*
X61649904Y-9545142D01*
X61554666Y-9545142D01*
X61459428Y-9573714D01*
X61411809Y-9602285D01*
X61364190Y-9659428D01*
X61316571Y-9773714D01*
X61268952Y-9830857D01*
X61221333Y-9859428D01*
X61126095Y-9888000D01*
X61030857Y-9888000D01*
X60935619Y-9859428D01*
X60888000Y-9830857D01*
X60840380Y-9773714D01*
X60840380Y-9630857D01*
X60888000Y-9545142D01*
X68936571Y-15778071D02*
X68936571Y-15578071D01*
X69460380Y-15492357D02*
X69460380Y-15778071D01*
X68460380Y-15778071D01*
X68460380Y-15492357D01*
X69460380Y-15235214D02*
X68460380Y-15235214D01*
X69460380Y-14892357D01*
X68460380Y-14892357D01*
X53280214Y-31360380D02*
X53280214Y-30360380D01*
X53680214Y-30360380D02*
X53794500Y-30360380D01*
X53851642Y-30408000D01*
X53908785Y-30503238D01*
X53937357Y-30693714D01*
X53937357Y-31027047D01*
X53908785Y-31217523D01*
X53851642Y-31312761D01*
X53794500Y-31360380D01*
X53680214Y-31360380D01*
X53623071Y-31312761D01*
X53565928Y-31217523D01*
X53537357Y-31027047D01*
X53537357Y-30693714D01*
X53565928Y-30503238D01*
X53623071Y-30408000D01*
X53680214Y-30360380D01*
X54137357Y-30360380D02*
X54508785Y-30360380D01*
X54308785Y-30741333D01*
X54394500Y-30741333D01*
X54451642Y-30788952D01*
X54480214Y-30836571D01*
X54508785Y-30931809D01*
X54508785Y-31169904D01*
X54480214Y-31265142D01*
X54451642Y-31312761D01*
X54394500Y-31360380D01*
X54223071Y-31360380D01*
X54165928Y-31312761D01*
X54137357Y-31265142D01*
X54794500Y-31360380D02*
X54908785Y-31360380D01*
X54965928Y-31312761D01*
X54994500Y-31265142D01*
X55051642Y-31122285D01*
X55080214Y-30931809D01*
X55080214Y-30550857D01*
X55051642Y-30455619D01*
X55023071Y-30408000D01*
X54965928Y-30360380D01*
X54851642Y-30360380D01*
X54794500Y-30408000D01*
X54765928Y-30455619D01*
X54737357Y-30550857D01*
X54737357Y-30788952D01*
X54765928Y-30884190D01*
X54794500Y-30931809D01*
X54851642Y-30979428D01*
X54965928Y-30979428D01*
X55023071Y-30931809D01*
X55051642Y-30884190D01*
X55080214Y-30788952D01*
X14185714Y-45250000D02*
X14785714Y-45250000D01*
X14671428Y-46437142D02*
X14642857Y-46484761D01*
X14557142Y-46532380D01*
X14500000Y-46532380D01*
X14414285Y-46484761D01*
X14357142Y-46389523D01*
X14328571Y-46294285D01*
X14300000Y-46103809D01*
X14300000Y-45960952D01*
X14328571Y-45770476D01*
X14357142Y-45675238D01*
X14414285Y-45580000D01*
X14500000Y-45532380D01*
X14557142Y-45532380D01*
X14642857Y-45580000D01*
X14671428Y-45627619D01*
X14785714Y-45250000D02*
X15414285Y-45250000D01*
X14928571Y-46532380D02*
X14928571Y-45532380D01*
X14928571Y-46008571D02*
X15271428Y-46008571D01*
X15271428Y-46532380D02*
X15271428Y-45532380D01*
X15414285Y-45250000D02*
X16014285Y-45250000D01*
X15900000Y-46532380D02*
X15700000Y-46056190D01*
X15557142Y-46532380D02*
X15557142Y-45532380D01*
X15785714Y-45532380D01*
X15842857Y-45580000D01*
X15871428Y-45627619D01*
X15900000Y-45722857D01*
X15900000Y-45865714D01*
X15871428Y-45960952D01*
X15842857Y-46008571D01*
X15785714Y-46056190D01*
X15557142Y-46056190D01*
X16014285Y-45250000D02*
X16614285Y-45250000D01*
X16471428Y-45580000D02*
X16414285Y-45532380D01*
X16328571Y-45532380D01*
X16242857Y-45580000D01*
X16185714Y-45675238D01*
X16157142Y-45770476D01*
X16128571Y-45960952D01*
X16128571Y-46103809D01*
X16157142Y-46294285D01*
X16185714Y-46389523D01*
X16242857Y-46484761D01*
X16328571Y-46532380D01*
X16385714Y-46532380D01*
X16471428Y-46484761D01*
X16500000Y-46437142D01*
X16500000Y-46103809D01*
X16385714Y-46103809D01*
X62312000Y-31360380D02*
X62312000Y-30360380D01*
X62712000Y-30360380D02*
X62826285Y-30360380D01*
X62883428Y-30408000D01*
X62940571Y-30503238D01*
X62969142Y-30693714D01*
X62969142Y-31027047D01*
X62940571Y-31217523D01*
X62883428Y-31312761D01*
X62826285Y-31360380D01*
X62712000Y-31360380D01*
X62654857Y-31312761D01*
X62597714Y-31217523D01*
X62569142Y-31027047D01*
X62569142Y-30693714D01*
X62597714Y-30503238D01*
X62654857Y-30408000D01*
X62712000Y-30360380D01*
X63197714Y-30455619D02*
X63226285Y-30408000D01*
X63283428Y-30360380D01*
X63426285Y-30360380D01*
X63483428Y-30408000D01*
X63512000Y-30455619D01*
X63540571Y-30550857D01*
X63540571Y-30646095D01*
X63512000Y-30788952D01*
X63169142Y-31360380D01*
X63540571Y-31360380D01*
X19907142Y-32552380D02*
X19907142Y-31552380D01*
X20535714Y-32552380D02*
X20335714Y-32076190D01*
X20192857Y-32552380D02*
X20192857Y-31552380D01*
X20421428Y-31552380D01*
X20478571Y-31600000D01*
X20507142Y-31647619D01*
X20535714Y-31742857D01*
X20535714Y-31885714D01*
X20507142Y-31980952D01*
X20478571Y-32028571D01*
X20421428Y-32076190D01*
X20192857Y-32076190D01*
X21135714Y-32457142D02*
X21107142Y-32504761D01*
X21021428Y-32552380D01*
X20964285Y-32552380D01*
X20878571Y-32504761D01*
X20821428Y-32409523D01*
X20792857Y-32314285D01*
X20764285Y-32123809D01*
X20764285Y-31980952D01*
X20792857Y-31790476D01*
X20821428Y-31695238D01*
X20878571Y-31600000D01*
X20964285Y-31552380D01*
X21021428Y-31552380D01*
X21107142Y-31600000D01*
X21135714Y-31647619D01*
X21392857Y-31552380D02*
X21392857Y-32361904D01*
X21421428Y-32457142D01*
X21450000Y-32504761D01*
X21507142Y-32552380D01*
X21621428Y-32552380D01*
X21678571Y-32504761D01*
X21707142Y-32457142D01*
X21735714Y-32361904D01*
X21735714Y-31552380D01*
X21935714Y-31552380D02*
X22278571Y-31552380D01*
X22107142Y-32552380D02*
X22107142Y-31552380D01*
X53754642Y-23709761D02*
X53840357Y-23757380D01*
X53983214Y-23757380D01*
X54040357Y-23709761D01*
X54068928Y-23662142D01*
X54097500Y-23566904D01*
X54097500Y-23471666D01*
X54068928Y-23376428D01*
X54040357Y-23328809D01*
X53983214Y-23281190D01*
X53868928Y-23233571D01*
X53811785Y-23185952D01*
X53783214Y-23138333D01*
X53754642Y-23043095D01*
X53754642Y-22947857D01*
X53783214Y-22852619D01*
X53811785Y-22805000D01*
X53868928Y-22757380D01*
X54011785Y-22757380D01*
X54097500Y-22805000D01*
X54697500Y-23662142D02*
X54668928Y-23709761D01*
X54583214Y-23757380D01*
X54526071Y-23757380D01*
X54440357Y-23709761D01*
X54383214Y-23614523D01*
X54354642Y-23519285D01*
X54326071Y-23328809D01*
X54326071Y-23185952D01*
X54354642Y-22995476D01*
X54383214Y-22900238D01*
X54440357Y-22805000D01*
X54526071Y-22757380D01*
X54583214Y-22757380D01*
X54668928Y-22805000D01*
X54697500Y-22852619D01*
X55240357Y-23757380D02*
X54954642Y-23757380D01*
X54954642Y-22757380D01*
X23357142Y-29202380D02*
X23471428Y-29202380D01*
X23528571Y-29250000D01*
X23585714Y-29345238D01*
X23614285Y-29535714D01*
X23614285Y-29869047D01*
X23585714Y-30059523D01*
X23528571Y-30154761D01*
X23471428Y-30202380D01*
X23357142Y-30202380D01*
X23300000Y-30154761D01*
X23242857Y-30059523D01*
X23214285Y-29869047D01*
X23214285Y-29535714D01*
X23242857Y-29345238D01*
X23300000Y-29250000D01*
X23357142Y-29202380D01*
X24185714Y-30202380D02*
X23842857Y-30202380D01*
X24014285Y-30202380D02*
X24014285Y-29202380D01*
X23957142Y-29345238D01*
X23900000Y-29440476D01*
X23842857Y-29488095D01*
X53223071Y-15596571D02*
X53308785Y-15644190D01*
X53337357Y-15691809D01*
X53365928Y-15787047D01*
X53365928Y-15929904D01*
X53337357Y-16025142D01*
X53308785Y-16072761D01*
X53251642Y-16120380D01*
X53023071Y-16120380D01*
X53023071Y-15120380D01*
X53223071Y-15120380D01*
X53280214Y-15168000D01*
X53308785Y-15215619D01*
X53337357Y-15310857D01*
X53337357Y-15406095D01*
X53308785Y-15501333D01*
X53280214Y-15548952D01*
X53223071Y-15596571D01*
X53023071Y-15596571D01*
X53737357Y-15120380D02*
X53851642Y-15120380D01*
X53908785Y-15168000D01*
X53965928Y-15263238D01*
X53994500Y-15453714D01*
X53994500Y-15787047D01*
X53965928Y-15977523D01*
X53908785Y-16072761D01*
X53851642Y-16120380D01*
X53737357Y-16120380D01*
X53680214Y-16072761D01*
X53623071Y-15977523D01*
X53594500Y-15787047D01*
X53594500Y-15453714D01*
X53623071Y-15263238D01*
X53680214Y-15168000D01*
X53737357Y-15120380D01*
X54365928Y-15120380D02*
X54480214Y-15120380D01*
X54537357Y-15168000D01*
X54594500Y-15263238D01*
X54623071Y-15453714D01*
X54623071Y-15787047D01*
X54594500Y-15977523D01*
X54537357Y-16072761D01*
X54480214Y-16120380D01*
X54365928Y-16120380D01*
X54308785Y-16072761D01*
X54251642Y-15977523D01*
X54223071Y-15787047D01*
X54223071Y-15453714D01*
X54251642Y-15263238D01*
X54308785Y-15168000D01*
X54365928Y-15120380D01*
X54794500Y-15120380D02*
X55137357Y-15120380D01*
X54965928Y-16120380D02*
X54965928Y-15120380D01*
X47264166Y-56437380D02*
X47264166Y-55437380D01*
X47497500Y-56151666D01*
X47730833Y-55437380D01*
X47730833Y-56437380D01*
X48364166Y-55770714D02*
X48364166Y-56437380D01*
X48064166Y-55770714D02*
X48064166Y-56294523D01*
X48097500Y-56389761D01*
X48164166Y-56437380D01*
X48264166Y-56437380D01*
X48330833Y-56389761D01*
X48364166Y-56342142D01*
X48797500Y-56437380D02*
X48730833Y-56389761D01*
X48697500Y-56294523D01*
X48697500Y-55437380D01*
X48964166Y-55770714D02*
X49230833Y-55770714D01*
X49064166Y-55437380D02*
X49064166Y-56294523D01*
X49097500Y-56389761D01*
X49164166Y-56437380D01*
X49230833Y-56437380D01*
X49464166Y-56437380D02*
X49464166Y-55770714D01*
X49464166Y-55437380D02*
X49430833Y-55485000D01*
X49464166Y-55532619D01*
X49497500Y-55485000D01*
X49464166Y-55437380D01*
X49464166Y-55532619D01*
X49797500Y-56056428D02*
X50330833Y-56056428D01*
X50664166Y-56437380D02*
X50664166Y-55437380D01*
X50930833Y-55437380D01*
X50997500Y-55485000D01*
X51030833Y-55532619D01*
X51064166Y-55627857D01*
X51064166Y-55770714D01*
X51030833Y-55865952D01*
X50997500Y-55913571D01*
X50930833Y-55961190D01*
X50664166Y-55961190D01*
X51664166Y-55770714D02*
X51664166Y-56437380D01*
X51364166Y-55770714D02*
X51364166Y-56294523D01*
X51397500Y-56389761D01*
X51464166Y-56437380D01*
X51564166Y-56437380D01*
X51630833Y-56389761D01*
X51664166Y-56342142D01*
X51997500Y-56437380D02*
X51997500Y-55770714D01*
X51997500Y-55961190D02*
X52030833Y-55865952D01*
X52064166Y-55818333D01*
X52130833Y-55770714D01*
X52197500Y-55770714D01*
X52430833Y-55770714D02*
X52430833Y-56770714D01*
X52430833Y-55818333D02*
X52497500Y-55770714D01*
X52630833Y-55770714D01*
X52697500Y-55818333D01*
X52730833Y-55865952D01*
X52764166Y-55961190D01*
X52764166Y-56246904D01*
X52730833Y-56342142D01*
X52697500Y-56389761D01*
X52630833Y-56437380D01*
X52497500Y-56437380D01*
X52430833Y-56389761D01*
X53164166Y-56437380D02*
X53097500Y-56389761D01*
X53064166Y-56342142D01*
X53030833Y-56246904D01*
X53030833Y-55961190D01*
X53064166Y-55865952D01*
X53097500Y-55818333D01*
X53164166Y-55770714D01*
X53264166Y-55770714D01*
X53330833Y-55818333D01*
X53364166Y-55865952D01*
X53397500Y-55961190D01*
X53397500Y-56246904D01*
X53364166Y-56342142D01*
X53330833Y-56389761D01*
X53264166Y-56437380D01*
X53164166Y-56437380D01*
X53664166Y-56389761D02*
X53730833Y-56437380D01*
X53864166Y-56437380D01*
X53930833Y-56389761D01*
X53964166Y-56294523D01*
X53964166Y-56246904D01*
X53930833Y-56151666D01*
X53864166Y-56104047D01*
X53764166Y-56104047D01*
X53697500Y-56056428D01*
X53664166Y-55961190D01*
X53664166Y-55913571D01*
X53697500Y-55818333D01*
X53764166Y-55770714D01*
X53864166Y-55770714D01*
X53930833Y-55818333D01*
X54530833Y-56389761D02*
X54464166Y-56437380D01*
X54330833Y-56437380D01*
X54264166Y-56389761D01*
X54230833Y-56294523D01*
X54230833Y-55913571D01*
X54264166Y-55818333D01*
X54330833Y-55770714D01*
X54464166Y-55770714D01*
X54530833Y-55818333D01*
X54564166Y-55913571D01*
X54564166Y-56008809D01*
X54230833Y-56104047D01*
X55797500Y-56342142D02*
X55764166Y-56389761D01*
X55664166Y-56437380D01*
X55597500Y-56437380D01*
X55497500Y-56389761D01*
X55430833Y-56294523D01*
X55397500Y-56199285D01*
X55364166Y-56008809D01*
X55364166Y-55865952D01*
X55397500Y-55675476D01*
X55430833Y-55580238D01*
X55497500Y-55485000D01*
X55597500Y-55437380D01*
X55664166Y-55437380D01*
X55764166Y-55485000D01*
X55797500Y-55532619D01*
X56397500Y-56437380D02*
X56397500Y-55913571D01*
X56364166Y-55818333D01*
X56297500Y-55770714D01*
X56164166Y-55770714D01*
X56097500Y-55818333D01*
X56397500Y-56389761D02*
X56330833Y-56437380D01*
X56164166Y-56437380D01*
X56097500Y-56389761D01*
X56064166Y-56294523D01*
X56064166Y-56199285D01*
X56097500Y-56104047D01*
X56164166Y-56056428D01*
X56330833Y-56056428D01*
X56397500Y-56008809D01*
X56730833Y-56437380D02*
X56730833Y-55770714D01*
X56730833Y-55865952D02*
X56764166Y-55818333D01*
X56830833Y-55770714D01*
X56930833Y-55770714D01*
X56997500Y-55818333D01*
X57030833Y-55913571D01*
X57030833Y-56437380D01*
X57030833Y-55913571D02*
X57064166Y-55818333D01*
X57130833Y-55770714D01*
X57230833Y-55770714D01*
X57297500Y-55818333D01*
X57330833Y-55913571D01*
X57330833Y-56437380D01*
X57930833Y-56389761D02*
X57864166Y-56437380D01*
X57730833Y-56437380D01*
X57664166Y-56389761D01*
X57630833Y-56294523D01*
X57630833Y-55913571D01*
X57664166Y-55818333D01*
X57730833Y-55770714D01*
X57864166Y-55770714D01*
X57930833Y-55818333D01*
X57964166Y-55913571D01*
X57964166Y-56008809D01*
X57630833Y-56104047D01*
X58264166Y-56437380D02*
X58264166Y-55770714D01*
X58264166Y-55961190D02*
X58297500Y-55865952D01*
X58330833Y-55818333D01*
X58397500Y-55770714D01*
X58464166Y-55770714D01*
X58997500Y-56437380D02*
X58997500Y-55913571D01*
X58964166Y-55818333D01*
X58897500Y-55770714D01*
X58764166Y-55770714D01*
X58697500Y-55818333D01*
X58997500Y-56389761D02*
X58930833Y-56437380D01*
X58764166Y-56437380D01*
X58697500Y-56389761D01*
X58664166Y-56294523D01*
X58664166Y-56199285D01*
X58697500Y-56104047D01*
X58764166Y-56056428D01*
X58930833Y-56056428D01*
X58997500Y-56008809D01*
X59864166Y-56437380D02*
X59864166Y-55437380D01*
X60030833Y-55437380D01*
X60130833Y-55485000D01*
X60197500Y-55580238D01*
X60230833Y-55675476D01*
X60264166Y-55865952D01*
X60264166Y-56008809D01*
X60230833Y-56199285D01*
X60197500Y-56294523D01*
X60130833Y-56389761D01*
X60030833Y-56437380D01*
X59864166Y-56437380D01*
X60830833Y-56389761D02*
X60764166Y-56437380D01*
X60630833Y-56437380D01*
X60564166Y-56389761D01*
X60530833Y-56294523D01*
X60530833Y-55913571D01*
X60564166Y-55818333D01*
X60630833Y-55770714D01*
X60764166Y-55770714D01*
X60830833Y-55818333D01*
X60864166Y-55913571D01*
X60864166Y-56008809D01*
X60530833Y-56104047D01*
X61097500Y-55770714D02*
X61264166Y-56437380D01*
X61430833Y-55770714D01*
X61697500Y-56437380D02*
X61697500Y-55437380D01*
X61764166Y-56056428D02*
X61964166Y-56437380D01*
X61964166Y-55770714D02*
X61697500Y-56151666D01*
X62264166Y-56437380D02*
X62264166Y-55770714D01*
X62264166Y-55437380D02*
X62230833Y-55485000D01*
X62264166Y-55532619D01*
X62297500Y-55485000D01*
X62264166Y-55437380D01*
X62264166Y-55532619D01*
X62497500Y-55770714D02*
X62764166Y-55770714D01*
X62597500Y-55437380D02*
X62597500Y-56294523D01*
X62630833Y-56389761D01*
X62697500Y-56437380D01*
X62764166Y-56437380D01*
X47264166Y-58047380D02*
X47264166Y-57380714D01*
X47264166Y-57475952D02*
X47297500Y-57428333D01*
X47364166Y-57380714D01*
X47464166Y-57380714D01*
X47530833Y-57428333D01*
X47564166Y-57523571D01*
X47564166Y-58047380D01*
X47564166Y-57523571D02*
X47597500Y-57428333D01*
X47664166Y-57380714D01*
X47764166Y-57380714D01*
X47830833Y-57428333D01*
X47864166Y-57523571D01*
X47864166Y-58047380D01*
X48497500Y-58047380D02*
X48497500Y-57523571D01*
X48464166Y-57428333D01*
X48397500Y-57380714D01*
X48264166Y-57380714D01*
X48197500Y-57428333D01*
X48497500Y-57999761D02*
X48430833Y-58047380D01*
X48264166Y-58047380D01*
X48197500Y-57999761D01*
X48164166Y-57904523D01*
X48164166Y-57809285D01*
X48197500Y-57714047D01*
X48264166Y-57666428D01*
X48430833Y-57666428D01*
X48497500Y-57618809D01*
X48764166Y-58047380D02*
X49130833Y-57380714D01*
X48764166Y-57380714D02*
X49130833Y-58047380D01*
X49497500Y-58047380D02*
X49430833Y-57999761D01*
X49397500Y-57904523D01*
X49397500Y-57047380D01*
X50064166Y-58047380D02*
X50064166Y-57523571D01*
X50030833Y-57428333D01*
X49964166Y-57380714D01*
X49830833Y-57380714D01*
X49764166Y-57428333D01*
X50064166Y-57999761D02*
X49997500Y-58047380D01*
X49830833Y-58047380D01*
X49764166Y-57999761D01*
X49730833Y-57904523D01*
X49730833Y-57809285D01*
X49764166Y-57714047D01*
X49830833Y-57666428D01*
X49997500Y-57666428D01*
X50064166Y-57618809D01*
X50397500Y-58047380D02*
X50397500Y-57047380D01*
X50397500Y-57428333D02*
X50464166Y-57380714D01*
X50597500Y-57380714D01*
X50664166Y-57428333D01*
X50697500Y-57475952D01*
X50730833Y-57571190D01*
X50730833Y-57856904D01*
X50697500Y-57952142D01*
X50664166Y-57999761D01*
X50597500Y-58047380D01*
X50464166Y-58047380D01*
X50397500Y-57999761D01*
X51030833Y-57952142D02*
X51064166Y-57999761D01*
X51030833Y-58047380D01*
X50997500Y-57999761D01*
X51030833Y-57952142D01*
X51030833Y-58047380D01*
X51364166Y-58047380D02*
X51364166Y-57380714D01*
X51364166Y-57047380D02*
X51330833Y-57095000D01*
X51364166Y-57142619D01*
X51397500Y-57095000D01*
X51364166Y-57047380D01*
X51364166Y-57142619D01*
X51797500Y-58047380D02*
X51730833Y-57999761D01*
X51697500Y-57952142D01*
X51664166Y-57856904D01*
X51664166Y-57571190D01*
X51697500Y-57475952D01*
X51730833Y-57428333D01*
X51797500Y-57380714D01*
X51897500Y-57380714D01*
X51964166Y-57428333D01*
X51997500Y-57475952D01*
X52030833Y-57571190D01*
X52030833Y-57856904D01*
X51997500Y-57952142D01*
X51964166Y-57999761D01*
X51897500Y-58047380D01*
X51797500Y-58047380D01*
X47264166Y-59657380D02*
X47264166Y-58657380D01*
X47564166Y-59657380D02*
X47564166Y-59133571D01*
X47530833Y-59038333D01*
X47464166Y-58990714D01*
X47364166Y-58990714D01*
X47297500Y-59038333D01*
X47264166Y-59085952D01*
X47897500Y-59657380D02*
X47897500Y-58990714D01*
X47897500Y-58657380D02*
X47864166Y-58705000D01*
X47897500Y-58752619D01*
X47930833Y-58705000D01*
X47897500Y-58657380D01*
X47897500Y-58752619D01*
X48664166Y-59181190D02*
X48630833Y-59133571D01*
X48564166Y-59085952D01*
X48497500Y-59085952D01*
X48430833Y-59133571D01*
X48397500Y-59181190D01*
X48364166Y-59276428D01*
X48364166Y-59371666D01*
X48397500Y-59466904D01*
X48430833Y-59514523D01*
X48497500Y-59562142D01*
X48564166Y-59562142D01*
X48630833Y-59514523D01*
X48664166Y-59466904D01*
X48664166Y-59085952D02*
X48664166Y-59466904D01*
X48697500Y-59514523D01*
X48730833Y-59514523D01*
X48797500Y-59466904D01*
X48830833Y-59371666D01*
X48830833Y-59133571D01*
X48764166Y-58990714D01*
X48664166Y-58895476D01*
X48530833Y-58847857D01*
X48397500Y-58895476D01*
X48297500Y-58990714D01*
X48230833Y-59133571D01*
X48197500Y-59324047D01*
X48230833Y-59514523D01*
X48297500Y-59657380D01*
X48397500Y-59752619D01*
X48530833Y-59800238D01*
X48664166Y-59752619D01*
X48764166Y-59657380D01*
X49130833Y-59657380D02*
X49130833Y-58990714D01*
X49130833Y-59085952D02*
X49164166Y-59038333D01*
X49230833Y-58990714D01*
X49330833Y-58990714D01*
X49397500Y-59038333D01*
X49430833Y-59133571D01*
X49430833Y-59657380D01*
X49430833Y-59133571D02*
X49464166Y-59038333D01*
X49530833Y-58990714D01*
X49630833Y-58990714D01*
X49697500Y-59038333D01*
X49730833Y-59133571D01*
X49730833Y-59657380D01*
X50364166Y-59657380D02*
X50364166Y-59133571D01*
X50330833Y-59038333D01*
X50264166Y-58990714D01*
X50130833Y-58990714D01*
X50064166Y-59038333D01*
X50364166Y-59609761D02*
X50297500Y-59657380D01*
X50130833Y-59657380D01*
X50064166Y-59609761D01*
X50030833Y-59514523D01*
X50030833Y-59419285D01*
X50064166Y-59324047D01*
X50130833Y-59276428D01*
X50297500Y-59276428D01*
X50364166Y-59228809D01*
X50630833Y-59657380D02*
X50997500Y-58990714D01*
X50630833Y-58990714D02*
X50997500Y-59657380D01*
X51364166Y-59657380D02*
X51297500Y-59609761D01*
X51264166Y-59514523D01*
X51264166Y-58657380D01*
X51930833Y-59657380D02*
X51930833Y-59133571D01*
X51897500Y-59038333D01*
X51830833Y-58990714D01*
X51697500Y-58990714D01*
X51630833Y-59038333D01*
X51930833Y-59609761D02*
X51864166Y-59657380D01*
X51697500Y-59657380D01*
X51630833Y-59609761D01*
X51597500Y-59514523D01*
X51597500Y-59419285D01*
X51630833Y-59324047D01*
X51697500Y-59276428D01*
X51864166Y-59276428D01*
X51930833Y-59228809D01*
X52264166Y-59657380D02*
X52264166Y-58657380D01*
X52264166Y-59038333D02*
X52330833Y-58990714D01*
X52464166Y-58990714D01*
X52530833Y-59038333D01*
X52564166Y-59085952D01*
X52597500Y-59181190D01*
X52597500Y-59466904D01*
X52564166Y-59562142D01*
X52530833Y-59609761D01*
X52464166Y-59657380D01*
X52330833Y-59657380D01*
X52264166Y-59609761D01*
X52897500Y-59562142D02*
X52930833Y-59609761D01*
X52897500Y-59657380D01*
X52864166Y-59609761D01*
X52897500Y-59562142D01*
X52897500Y-59657380D01*
X53230833Y-59657380D02*
X53230833Y-58990714D01*
X53230833Y-58657380D02*
X53197500Y-58705000D01*
X53230833Y-58752619D01*
X53264166Y-58705000D01*
X53230833Y-58657380D01*
X53230833Y-58752619D01*
X53664166Y-59657380D02*
X53597500Y-59609761D01*
X53564166Y-59562142D01*
X53530833Y-59466904D01*
X53530833Y-59181190D01*
X53564166Y-59085952D01*
X53597500Y-59038333D01*
X53664166Y-58990714D01*
X53764166Y-58990714D01*
X53830833Y-59038333D01*
X53864166Y-59085952D01*
X53897500Y-59181190D01*
X53897500Y-59466904D01*
X53864166Y-59562142D01*
X53830833Y-59609761D01*
X53764166Y-59657380D01*
X53664166Y-59657380D01*
X47264166Y-61267380D02*
X47264166Y-60600714D01*
X47264166Y-60791190D02*
X47297500Y-60695952D01*
X47330833Y-60648333D01*
X47397500Y-60600714D01*
X47464166Y-60600714D01*
X47964166Y-61219761D02*
X47897500Y-61267380D01*
X47764166Y-61267380D01*
X47697500Y-61219761D01*
X47664166Y-61124523D01*
X47664166Y-60743571D01*
X47697500Y-60648333D01*
X47764166Y-60600714D01*
X47897500Y-60600714D01*
X47964166Y-60648333D01*
X47997500Y-60743571D01*
X47997500Y-60838809D01*
X47664166Y-60934047D01*
X48230833Y-60600714D02*
X48397500Y-61267380D01*
X48564166Y-60600714D01*
X48964166Y-60267380D02*
X49030833Y-60267380D01*
X49097500Y-60315000D01*
X49130833Y-60362619D01*
X49164166Y-60457857D01*
X49197500Y-60648333D01*
X49197500Y-60886428D01*
X49164166Y-61076904D01*
X49130833Y-61172142D01*
X49097500Y-61219761D01*
X49030833Y-61267380D01*
X48964166Y-61267380D01*
X48897500Y-61219761D01*
X48864166Y-61172142D01*
X48830833Y-61076904D01*
X48797500Y-60886428D01*
X48797500Y-60648333D01*
X48830833Y-60457857D01*
X48864166Y-60362619D01*
X48897500Y-60315000D01*
X48964166Y-60267380D01*
X49497500Y-60886428D02*
X50030833Y-60886428D01*
X50330833Y-60362619D02*
X50364166Y-60315000D01*
X50430833Y-60267380D01*
X50597500Y-60267380D01*
X50664166Y-60315000D01*
X50697500Y-60362619D01*
X50730833Y-60457857D01*
X50730833Y-60553095D01*
X50697500Y-60695952D01*
X50297500Y-61267380D01*
X50730833Y-61267380D01*
X51164166Y-60267380D02*
X51230833Y-60267380D01*
X51297500Y-60315000D01*
X51330833Y-60362619D01*
X51364166Y-60457857D01*
X51397500Y-60648333D01*
X51397500Y-60886428D01*
X51364166Y-61076904D01*
X51330833Y-61172142D01*
X51297500Y-61219761D01*
X51230833Y-61267380D01*
X51164166Y-61267380D01*
X51097500Y-61219761D01*
X51064166Y-61172142D01*
X51030833Y-61076904D01*
X50997500Y-60886428D01*
X50997500Y-60648333D01*
X51030833Y-60457857D01*
X51064166Y-60362619D01*
X51097500Y-60315000D01*
X51164166Y-60267380D01*
X51664166Y-60362619D02*
X51697500Y-60315000D01*
X51764166Y-60267380D01*
X51930833Y-60267380D01*
X51997500Y-60315000D01*
X52030833Y-60362619D01*
X52064166Y-60457857D01*
X52064166Y-60553095D01*
X52030833Y-60695952D01*
X51630833Y-61267380D01*
X52064166Y-61267380D01*
X52297500Y-60267380D02*
X52730833Y-60267380D01*
X52497500Y-60648333D01*
X52597500Y-60648333D01*
X52664166Y-60695952D01*
X52697500Y-60743571D01*
X52730833Y-60838809D01*
X52730833Y-61076904D01*
X52697500Y-61172142D01*
X52664166Y-61219761D01*
X52597500Y-61267380D01*
X52397500Y-61267380D01*
X52330833Y-61219761D01*
X52297500Y-61172142D01*
X53164166Y-60267380D02*
X53230833Y-60267380D01*
X53297500Y-60315000D01*
X53330833Y-60362619D01*
X53364166Y-60457857D01*
X53397500Y-60648333D01*
X53397500Y-60886428D01*
X53364166Y-61076904D01*
X53330833Y-61172142D01*
X53297500Y-61219761D01*
X53230833Y-61267380D01*
X53164166Y-61267380D01*
X53097500Y-61219761D01*
X53064166Y-61172142D01*
X53030833Y-61076904D01*
X52997500Y-60886428D01*
X52997500Y-60648333D01*
X53030833Y-60457857D01*
X53064166Y-60362619D01*
X53097500Y-60315000D01*
X53164166Y-60267380D01*
X54064166Y-61267380D02*
X53664166Y-61267380D01*
X53864166Y-61267380D02*
X53864166Y-60267380D01*
X53797500Y-60410238D01*
X53730833Y-60505476D01*
X53664166Y-60553095D01*
X54497500Y-60267380D02*
X54564166Y-60267380D01*
X54630833Y-60315000D01*
X54664166Y-60362619D01*
X54697500Y-60457857D01*
X54730833Y-60648333D01*
X54730833Y-60886428D01*
X54697500Y-61076904D01*
X54664166Y-61172142D01*
X54630833Y-61219761D01*
X54564166Y-61267380D01*
X54497500Y-61267380D01*
X54430833Y-61219761D01*
X54397500Y-61172142D01*
X54364166Y-61076904D01*
X54330833Y-60886428D01*
X54330833Y-60648333D01*
X54364166Y-60457857D01*
X54397500Y-60362619D01*
X54430833Y-60315000D01*
X54497500Y-60267380D01*
X55330833Y-60267380D02*
X55197500Y-60267380D01*
X55130833Y-60315000D01*
X55097500Y-60362619D01*
X55030833Y-60505476D01*
X54997500Y-60695952D01*
X54997500Y-61076904D01*
X55030833Y-61172142D01*
X55064166Y-61219761D01*
X55130833Y-61267380D01*
X55264166Y-61267380D01*
X55330833Y-61219761D01*
X55364166Y-61172142D01*
X55397500Y-61076904D01*
X55397500Y-60838809D01*
X55364166Y-60743571D01*
X55330833Y-60695952D01*
X55264166Y-60648333D01*
X55130833Y-60648333D01*
X55064166Y-60695952D01*
X55030833Y-60743571D01*
X54997500Y-60838809D01*
X44242857Y-46052380D02*
X44242857Y-46861904D01*
X44271428Y-46957142D01*
X44300000Y-47004761D01*
X44357142Y-47052380D01*
X44471428Y-47052380D01*
X44528571Y-47004761D01*
X44557142Y-46957142D01*
X44585714Y-46861904D01*
X44585714Y-46052380D01*
X44842857Y-47004761D02*
X44928571Y-47052380D01*
X45071428Y-47052380D01*
X45128571Y-47004761D01*
X45157142Y-46957142D01*
X45185714Y-46861904D01*
X45185714Y-46766666D01*
X45157142Y-46671428D01*
X45128571Y-46623809D01*
X45071428Y-46576190D01*
X44957142Y-46528571D01*
X44900000Y-46480952D01*
X44871428Y-46433333D01*
X44842857Y-46338095D01*
X44842857Y-46242857D01*
X44871428Y-46147619D01*
X44900000Y-46100000D01*
X44957142Y-46052380D01*
X45100000Y-46052380D01*
X45185714Y-46100000D01*
X45785714Y-47052380D02*
X45585714Y-46576190D01*
X45442857Y-47052380D02*
X45442857Y-46052380D01*
X45671428Y-46052380D01*
X45728571Y-46100000D01*
X45757142Y-46147619D01*
X45785714Y-46242857D01*
X45785714Y-46385714D01*
X45757142Y-46480952D01*
X45728571Y-46528571D01*
X45671428Y-46576190D01*
X45442857Y-46576190D01*
X53937357Y-21200380D02*
X53737357Y-20724190D01*
X53594500Y-21200380D02*
X53594500Y-20200380D01*
X53823071Y-20200380D01*
X53880214Y-20248000D01*
X53908785Y-20295619D01*
X53937357Y-20390857D01*
X53937357Y-20533714D01*
X53908785Y-20628952D01*
X53880214Y-20676571D01*
X53823071Y-20724190D01*
X53594500Y-20724190D01*
X54137357Y-20200380D02*
X54537357Y-21200380D01*
X54537357Y-20200380D02*
X54137357Y-21200380D01*
X54880214Y-20200380D02*
X54937357Y-20200380D01*
X54994500Y-20248000D01*
X55023071Y-20295619D01*
X55051642Y-20390857D01*
X55080214Y-20581333D01*
X55080214Y-20819428D01*
X55051642Y-21009904D01*
X55023071Y-21105142D01*
X54994500Y-21152761D01*
X54937357Y-21200380D01*
X54880214Y-21200380D01*
X54823071Y-21152761D01*
X54794500Y-21105142D01*
X54765928Y-21009904D01*
X54737357Y-20819428D01*
X54737357Y-20581333D01*
X54765928Y-20390857D01*
X54794500Y-20295619D01*
X54823071Y-20248000D01*
X54880214Y-20200380D01*
X53651642Y-17660380D02*
X53994500Y-17660380D01*
X53823071Y-18660380D02*
X53823071Y-17660380D01*
X54137357Y-17660380D02*
X54537357Y-18660380D01*
X54537357Y-17660380D02*
X54137357Y-18660380D01*
X54880214Y-17660380D02*
X54937357Y-17660380D01*
X54994500Y-17708000D01*
X55023071Y-17755619D01*
X55051642Y-17850857D01*
X55080214Y-18041333D01*
X55080214Y-18279428D01*
X55051642Y-18469904D01*
X55023071Y-18565142D01*
X54994500Y-18612761D01*
X54937357Y-18660380D01*
X54880214Y-18660380D01*
X54823071Y-18612761D01*
X54794500Y-18565142D01*
X54765928Y-18469904D01*
X54737357Y-18279428D01*
X54737357Y-18041333D01*
X54765928Y-17850857D01*
X54794500Y-17755619D01*
X54823071Y-17708000D01*
X54880214Y-17660380D01*
X53280214Y-28820380D02*
X53280214Y-27820380D01*
X53680214Y-27820380D02*
X53794500Y-27820380D01*
X53851642Y-27868000D01*
X53908785Y-27963238D01*
X53937357Y-28153714D01*
X53937357Y-28487047D01*
X53908785Y-28677523D01*
X53851642Y-28772761D01*
X53794500Y-28820380D01*
X53680214Y-28820380D01*
X53623071Y-28772761D01*
X53565928Y-28677523D01*
X53537357Y-28487047D01*
X53537357Y-28153714D01*
X53565928Y-27963238D01*
X53623071Y-27868000D01*
X53680214Y-27820380D01*
X54137357Y-27820380D02*
X54508785Y-27820380D01*
X54308785Y-28201333D01*
X54394500Y-28201333D01*
X54451642Y-28248952D01*
X54480214Y-28296571D01*
X54508785Y-28391809D01*
X54508785Y-28629904D01*
X54480214Y-28725142D01*
X54451642Y-28772761D01*
X54394500Y-28820380D01*
X54223071Y-28820380D01*
X54165928Y-28772761D01*
X54137357Y-28725142D01*
X54851642Y-28248952D02*
X54794500Y-28201333D01*
X54765928Y-28153714D01*
X54737357Y-28058476D01*
X54737357Y-28010857D01*
X54765928Y-27915619D01*
X54794500Y-27868000D01*
X54851642Y-27820380D01*
X54965928Y-27820380D01*
X55023071Y-27868000D01*
X55051642Y-27915619D01*
X55080214Y-28010857D01*
X55080214Y-28058476D01*
X55051642Y-28153714D01*
X55023071Y-28201333D01*
X54965928Y-28248952D01*
X54851642Y-28248952D01*
X54794500Y-28296571D01*
X54765928Y-28344190D01*
X54737357Y-28439428D01*
X54737357Y-28629904D01*
X54765928Y-28725142D01*
X54794500Y-28772761D01*
X54851642Y-28820380D01*
X54965928Y-28820380D01*
X55023071Y-28772761D01*
X55051642Y-28725142D01*
X55080214Y-28629904D01*
X55080214Y-28439428D01*
X55051642Y-28344190D01*
X55023071Y-28296571D01*
X54965928Y-28248952D01*
X15442857Y-63452380D02*
X15442857Y-62452380D01*
X15585714Y-62452380D01*
X15671428Y-62500000D01*
X15728571Y-62595238D01*
X15757142Y-62690476D01*
X15785714Y-62880952D01*
X15785714Y-63023809D01*
X15757142Y-63214285D01*
X15728571Y-63309523D01*
X15671428Y-63404761D01*
X15585714Y-63452380D01*
X15442857Y-63452380D01*
X16242857Y-62928571D02*
X16328571Y-62976190D01*
X16357142Y-63023809D01*
X16385714Y-63119047D01*
X16385714Y-63261904D01*
X16357142Y-63357142D01*
X16328571Y-63404761D01*
X16271428Y-63452380D01*
X16042857Y-63452380D01*
X16042857Y-62452380D01*
X16242857Y-62452380D01*
X16300000Y-62500000D01*
X16328571Y-62547619D01*
X16357142Y-62642857D01*
X16357142Y-62738095D01*
X16328571Y-62833333D01*
X16300000Y-62880952D01*
X16242857Y-62928571D01*
X16042857Y-62928571D01*
X16957142Y-62500000D02*
X16900000Y-62452380D01*
X16814285Y-62452380D01*
X16728571Y-62500000D01*
X16671428Y-62595238D01*
X16642857Y-62690476D01*
X16614285Y-62880952D01*
X16614285Y-63023809D01*
X16642857Y-63214285D01*
X16671428Y-63309523D01*
X16728571Y-63404761D01*
X16814285Y-63452380D01*
X16871428Y-63452380D01*
X16957142Y-63404761D01*
X16985714Y-63357142D01*
X16985714Y-63023809D01*
X16871428Y-63023809D01*
X62342857Y-27900000D02*
X62285714Y-27852380D01*
X62200000Y-27852380D01*
X62114285Y-27900000D01*
X62057142Y-27995238D01*
X62028571Y-28090476D01*
X62000000Y-28280952D01*
X62000000Y-28423809D01*
X62028571Y-28614285D01*
X62057142Y-28709523D01*
X62114285Y-28804761D01*
X62200000Y-28852380D01*
X62257142Y-28852380D01*
X62342857Y-28804761D01*
X62371428Y-28757142D01*
X62371428Y-28423809D01*
X62257142Y-28423809D01*
X62628571Y-28852380D02*
X62628571Y-27852380D01*
X62971428Y-28852380D01*
X62971428Y-27852380D01*
X63257142Y-28852380D02*
X63257142Y-27852380D01*
X63400000Y-27852380D01*
X63485714Y-27900000D01*
X63542857Y-27995238D01*
X63571428Y-28090476D01*
X63600000Y-28280952D01*
X63600000Y-28423809D01*
X63571428Y-28614285D01*
X63542857Y-28709523D01*
X63485714Y-28804761D01*
X63400000Y-28852380D01*
X63257142Y-28852380D01*
X53823071Y-32948000D02*
X53765928Y-32900380D01*
X53680214Y-32900380D01*
X53594500Y-32948000D01*
X53537357Y-33043238D01*
X53508785Y-33138476D01*
X53480214Y-33328952D01*
X53480214Y-33471809D01*
X53508785Y-33662285D01*
X53537357Y-33757523D01*
X53594500Y-33852761D01*
X53680214Y-33900380D01*
X53737357Y-33900380D01*
X53823071Y-33852761D01*
X53851642Y-33805142D01*
X53851642Y-33471809D01*
X53737357Y-33471809D01*
X54108785Y-33900380D02*
X54108785Y-32900380D01*
X54451642Y-33900380D01*
X54451642Y-32900380D01*
X54737357Y-33900380D02*
X54737357Y-32900380D01*
X54880214Y-32900380D01*
X54965928Y-32948000D01*
X55023071Y-33043238D01*
X55051642Y-33138476D01*
X55080214Y-33328952D01*
X55080214Y-33471809D01*
X55051642Y-33662285D01*
X55023071Y-33757523D01*
X54965928Y-33852761D01*
X54880214Y-33900380D01*
X54737357Y-33900380D01*
X18360000Y-56252380D02*
X18360000Y-56966666D01*
X18331428Y-57109523D01*
X18274285Y-57204761D01*
X18188571Y-57252380D01*
X18131428Y-57252380D01*
X18960000Y-57252380D02*
X18617142Y-57252380D01*
X18788571Y-57252380D02*
X18788571Y-56252380D01*
X18731428Y-56395238D01*
X18674285Y-56490476D01*
X18617142Y-56538095D01*
X4542857Y-61652380D02*
X4542857Y-60652380D01*
X4542857Y-61128571D02*
X4885714Y-61128571D01*
X4885714Y-61652380D02*
X4885714Y-60652380D01*
X5428571Y-60985714D02*
X5428571Y-61652380D01*
X5285714Y-60604761D02*
X5142857Y-61319047D01*
X5514285Y-61319047D01*
X8332857Y-5472380D02*
X8332857Y-4472380D01*
X8332857Y-4948571D02*
X8675714Y-4948571D01*
X8675714Y-5472380D02*
X8675714Y-4472380D01*
X9275714Y-5472380D02*
X8932857Y-5472380D01*
X9104285Y-5472380D02*
X9104285Y-4472380D01*
X9047142Y-4615238D01*
X8990000Y-4710476D01*
X8932857Y-4758095D01*
X46707142Y-32579380D02*
X47050000Y-32579380D01*
X46878571Y-33579380D02*
X46878571Y-32579380D01*
X47250000Y-33579380D02*
X47250000Y-32579380D01*
X47478571Y-32579380D01*
X47535714Y-32627000D01*
X47564285Y-32674619D01*
X47592857Y-32769857D01*
X47592857Y-32912714D01*
X47564285Y-33007952D01*
X47535714Y-33055571D01*
X47478571Y-33103190D01*
X47250000Y-33103190D01*
X47821428Y-32674619D02*
X47850000Y-32627000D01*
X47907142Y-32579380D01*
X48050000Y-32579380D01*
X48107142Y-32627000D01*
X48135714Y-32674619D01*
X48164285Y-32769857D01*
X48164285Y-32865095D01*
X48135714Y-33007952D01*
X47792857Y-33579380D01*
X48164285Y-33579380D01*
X48535714Y-32579380D02*
X48592857Y-32579380D01*
X48650000Y-32627000D01*
X48678571Y-32674619D01*
X48707142Y-32769857D01*
X48735714Y-32960333D01*
X48735714Y-33198428D01*
X48707142Y-33388904D01*
X48678571Y-33484142D01*
X48650000Y-33531761D01*
X48592857Y-33579380D01*
X48535714Y-33579380D01*
X48478571Y-33531761D01*
X48450000Y-33484142D01*
X48421428Y-33388904D01*
X48392857Y-33198428D01*
X48392857Y-32960333D01*
X48421428Y-32769857D01*
X48450000Y-32674619D01*
X48478571Y-32627000D01*
X48535714Y-32579380D01*
X35452380Y-50057142D02*
X34452380Y-50057142D01*
X35452380Y-49714285D02*
X34880952Y-49971428D01*
X34452380Y-49714285D02*
X35023809Y-50057142D01*
X34928571Y-49457142D02*
X34928571Y-49257142D01*
X35452380Y-49171428D02*
X35452380Y-49457142D01*
X34452380Y-49457142D01*
X34452380Y-49171428D01*
X34928571Y-48914285D02*
X34928571Y-48714285D01*
X35452380Y-48628571D02*
X35452380Y-48914285D01*
X34452380Y-48914285D01*
X34452380Y-48628571D01*
X35452380Y-48371428D02*
X34452380Y-48371428D01*
X34452380Y-48142857D01*
X34500000Y-48085714D01*
X34547619Y-48057142D01*
X34642857Y-48028571D01*
X34785714Y-48028571D01*
X34880952Y-48057142D01*
X34928571Y-48085714D01*
X34976190Y-48142857D01*
X34976190Y-48371428D01*
X34452380Y-47657142D02*
X34452380Y-47542857D01*
X34500000Y-47485714D01*
X34595238Y-47428571D01*
X34785714Y-47400000D01*
X35119047Y-47400000D01*
X35309523Y-47428571D01*
X35404761Y-47485714D01*
X35452380Y-47542857D01*
X35452380Y-47657142D01*
X35404761Y-47714285D01*
X35309523Y-47771428D01*
X35119047Y-47800000D01*
X34785714Y-47800000D01*
X34595238Y-47771428D01*
X34500000Y-47714285D01*
X34452380Y-47657142D01*
X34452380Y-47142857D02*
X35261904Y-47142857D01*
X35357142Y-47114285D01*
X35404761Y-47085714D01*
X35452380Y-47028571D01*
X35452380Y-46914285D01*
X35404761Y-46857142D01*
X35357142Y-46828571D01*
X35261904Y-46800000D01*
X34452380Y-46800000D01*
X34452380Y-46600000D02*
X34452380Y-46257142D01*
X35452380Y-46428571D02*
X34452380Y-46428571D01*
X34928571Y-45600000D02*
X34928571Y-45400000D01*
X35452380Y-45314285D02*
X35452380Y-45600000D01*
X34452380Y-45600000D01*
X34452380Y-45314285D01*
X34452380Y-45114285D02*
X35452380Y-44714285D01*
X34452380Y-44714285D02*
X35452380Y-45114285D01*
X35357142Y-44142857D02*
X35404761Y-44171428D01*
X35452380Y-44257142D01*
X35452380Y-44314285D01*
X35404761Y-44400000D01*
X35309523Y-44457142D01*
X35214285Y-44485714D01*
X35023809Y-44514285D01*
X34880952Y-44514285D01*
X34690476Y-44485714D01*
X34595238Y-44457142D01*
X34500000Y-44400000D01*
X34452380Y-44314285D01*
X34452380Y-44257142D01*
X34500000Y-44171428D01*
X34547619Y-44142857D01*
X34928571Y-43885714D02*
X34928571Y-43685714D01*
X35452380Y-43600000D02*
X35452380Y-43885714D01*
X34452380Y-43885714D01*
X34452380Y-43600000D01*
X35452380Y-43342857D02*
X34452380Y-43342857D01*
X34452380Y-43114285D01*
X34500000Y-43057142D01*
X34547619Y-43028571D01*
X34642857Y-43000000D01*
X34785714Y-43000000D01*
X34880952Y-43028571D01*
X34928571Y-43057142D01*
X34976190Y-43114285D01*
X34976190Y-43342857D01*
X34452380Y-42828571D02*
X34452380Y-42485714D01*
X35452380Y-42657142D02*
X34452380Y-42657142D01*
X34500000Y-41514285D02*
X34452380Y-41571428D01*
X34452380Y-41657142D01*
X34500000Y-41742857D01*
X34595238Y-41800000D01*
X34690476Y-41828571D01*
X34880952Y-41857142D01*
X35023809Y-41857142D01*
X35214285Y-41828571D01*
X35309523Y-41800000D01*
X35404761Y-41742857D01*
X35452380Y-41657142D01*
X35452380Y-41600000D01*
X35404761Y-41514285D01*
X35357142Y-41485714D01*
X35023809Y-41485714D01*
X35023809Y-41600000D01*
X35452380Y-40885714D02*
X34976190Y-41085714D01*
X35452380Y-41228571D02*
X34452380Y-41228571D01*
X34452380Y-41000000D01*
X34500000Y-40942857D01*
X34547619Y-40914285D01*
X34642857Y-40885714D01*
X34785714Y-40885714D01*
X34880952Y-40914285D01*
X34928571Y-40942857D01*
X34976190Y-41000000D01*
X34976190Y-41228571D01*
X34452380Y-40514285D02*
X34452380Y-40400000D01*
X34500000Y-40342857D01*
X34595238Y-40285714D01*
X34785714Y-40257142D01*
X35119047Y-40257142D01*
X35309523Y-40285714D01*
X35404761Y-40342857D01*
X35452380Y-40400000D01*
X35452380Y-40514285D01*
X35404761Y-40571428D01*
X35309523Y-40628571D01*
X35119047Y-40657142D01*
X34785714Y-40657142D01*
X34595238Y-40628571D01*
X34500000Y-40571428D01*
X34452380Y-40514285D01*
X34452380Y-40000000D02*
X35261904Y-40000000D01*
X35357142Y-39971428D01*
X35404761Y-39942857D01*
X35452380Y-39885714D01*
X35452380Y-39771428D01*
X35404761Y-39714285D01*
X35357142Y-39685714D01*
X35261904Y-39657142D01*
X34452380Y-39657142D01*
X35452380Y-39371428D02*
X34452380Y-39371428D01*
X35452380Y-39028571D01*
X34452380Y-39028571D01*
X35452380Y-38742857D02*
X34452380Y-38742857D01*
X34452380Y-38600000D01*
X34500000Y-38514285D01*
X34595238Y-38457142D01*
X34690476Y-38428571D01*
X34880952Y-38400000D01*
X35023809Y-38400000D01*
X35214285Y-38428571D01*
X35309523Y-38457142D01*
X35404761Y-38514285D01*
X35452380Y-38600000D01*
X35452380Y-38742857D01*
X35452380Y-37685714D02*
X34452380Y-37685714D01*
X34452380Y-37457142D01*
X34500000Y-37400000D01*
X34547619Y-37371428D01*
X34642857Y-37342857D01*
X34785714Y-37342857D01*
X34880952Y-37371428D01*
X34928571Y-37400000D01*
X34976190Y-37457142D01*
X34976190Y-37685714D01*
X34452380Y-36971428D02*
X34452380Y-36857142D01*
X34500000Y-36800000D01*
X34595238Y-36742857D01*
X34785714Y-36714285D01*
X35119047Y-36714285D01*
X35309523Y-36742857D01*
X35404761Y-36800000D01*
X35452380Y-36857142D01*
X35452380Y-36971428D01*
X35404761Y-37028571D01*
X35309523Y-37085714D01*
X35119047Y-37114285D01*
X34785714Y-37114285D01*
X34595238Y-37085714D01*
X34500000Y-37028571D01*
X34452380Y-36971428D01*
X34452380Y-36457142D02*
X35261904Y-36457142D01*
X35357142Y-36428571D01*
X35404761Y-36400000D01*
X35452380Y-36342857D01*
X35452380Y-36228571D01*
X35404761Y-36171428D01*
X35357142Y-36142857D01*
X35261904Y-36114285D01*
X34452380Y-36114285D01*
X35452380Y-35485714D02*
X34976190Y-35685714D01*
X35452380Y-35828571D02*
X34452380Y-35828571D01*
X34452380Y-35600000D01*
X34500000Y-35542857D01*
X34547619Y-35514285D01*
X34642857Y-35485714D01*
X34785714Y-35485714D01*
X34880952Y-35514285D01*
X34928571Y-35542857D01*
X34976190Y-35600000D01*
X34976190Y-35828571D01*
X35404761Y-35257142D02*
X35452380Y-35171428D01*
X35452380Y-35028571D01*
X35404761Y-34971428D01*
X35357142Y-34942857D01*
X35261904Y-34914285D01*
X35166666Y-34914285D01*
X35071428Y-34942857D01*
X35023809Y-34971428D01*
X34976190Y-35028571D01*
X34928571Y-35142857D01*
X34880952Y-35200000D01*
X34833333Y-35228571D01*
X34738095Y-35257142D01*
X34642857Y-35257142D01*
X34547619Y-35228571D01*
X34500000Y-35200000D01*
X34452380Y-35142857D01*
X34452380Y-35000000D01*
X34500000Y-34914285D01*
X48778857Y-15120380D02*
X49121714Y-15120380D01*
X48950285Y-16120380D02*
X48950285Y-15120380D01*
X49321714Y-16120380D02*
X49321714Y-15120380D01*
X49550285Y-15120380D01*
X49607428Y-15168000D01*
X49636000Y-15215619D01*
X49664571Y-15310857D01*
X49664571Y-15453714D01*
X49636000Y-15548952D01*
X49607428Y-15596571D01*
X49550285Y-15644190D01*
X49321714Y-15644190D01*
X50236000Y-16120380D02*
X49893142Y-16120380D01*
X50064571Y-16120380D02*
X50064571Y-15120380D01*
X50007428Y-15263238D01*
X49950285Y-15358476D01*
X49893142Y-15406095D01*
X27297380Y-48760714D02*
X26821190Y-48960714D01*
X27297380Y-49103571D02*
X26297380Y-49103571D01*
X26297380Y-48875000D01*
X26345000Y-48817857D01*
X26392619Y-48789285D01*
X26487857Y-48760714D01*
X26630714Y-48760714D01*
X26725952Y-48789285D01*
X26773571Y-48817857D01*
X26821190Y-48875000D01*
X26821190Y-49103571D01*
X27297380Y-48189285D02*
X27297380Y-48532142D01*
X27297380Y-48360714D02*
X26297380Y-48360714D01*
X26440238Y-48417857D01*
X26535476Y-48475000D01*
X26583095Y-48532142D01*
X26297380Y-47989285D02*
X26297380Y-47617857D01*
X26678333Y-47817857D01*
X26678333Y-47732142D01*
X26725952Y-47675000D01*
X26773571Y-47646428D01*
X26868809Y-47617857D01*
X27106904Y-47617857D01*
X27202142Y-47646428D01*
X27249761Y-47675000D01*
X27297380Y-47732142D01*
X27297380Y-47903571D01*
X27249761Y-47960714D01*
X27202142Y-47989285D01*
X65600000Y-27494761D02*
X65685714Y-27542380D01*
X65828571Y-27542380D01*
X65885714Y-27494761D01*
X65914285Y-27447142D01*
X65942857Y-27351904D01*
X65942857Y-27256666D01*
X65914285Y-27161428D01*
X65885714Y-27113809D01*
X65828571Y-27066190D01*
X65714285Y-27018571D01*
X65657142Y-26970952D01*
X65628571Y-26923333D01*
X65600000Y-26828095D01*
X65600000Y-26732857D01*
X65628571Y-26637619D01*
X65657142Y-26590000D01*
X65714285Y-26542380D01*
X65857142Y-26542380D01*
X65942857Y-26590000D01*
X66142857Y-26542380D02*
X66285714Y-27542380D01*
X66400000Y-26828095D01*
X66514285Y-27542380D01*
X66657142Y-26542380D01*
X66857142Y-26637619D02*
X66885714Y-26590000D01*
X66942857Y-26542380D01*
X67085714Y-26542380D01*
X67142857Y-26590000D01*
X67171428Y-26637619D01*
X67200000Y-26732857D01*
X67200000Y-26828095D01*
X67171428Y-26970952D01*
X66828571Y-27542380D01*
X67200000Y-27542380D01*
X5122380Y-34170000D02*
X5122380Y-34455714D01*
X4122380Y-34455714D01*
X5122380Y-33655714D02*
X5122380Y-33998571D01*
X5122380Y-33827142D02*
X4122380Y-33827142D01*
X4265238Y-33884285D01*
X4360476Y-33941428D01*
X4408095Y-33998571D01*
X36564285Y-65042142D02*
X36535714Y-65089761D01*
X36450000Y-65137380D01*
X36392857Y-65137380D01*
X36307142Y-65089761D01*
X36250000Y-64994523D01*
X36221428Y-64899285D01*
X36192857Y-64708809D01*
X36192857Y-64565952D01*
X36221428Y-64375476D01*
X36250000Y-64280238D01*
X36307142Y-64185000D01*
X36392857Y-64137380D01*
X36450000Y-64137380D01*
X36535714Y-64185000D01*
X36564285Y-64232619D01*
X36764285Y-64137380D02*
X37135714Y-64137380D01*
X36935714Y-64518333D01*
X37021428Y-64518333D01*
X37078571Y-64565952D01*
X37107142Y-64613571D01*
X37135714Y-64708809D01*
X37135714Y-64946904D01*
X37107142Y-65042142D01*
X37078571Y-65089761D01*
X37021428Y-65137380D01*
X36850000Y-65137380D01*
X36792857Y-65089761D01*
X36764285Y-65042142D01*
X37335714Y-64137380D02*
X37707142Y-64137380D01*
X37507142Y-64518333D01*
X37592857Y-64518333D01*
X37650000Y-64565952D01*
X37678571Y-64613571D01*
X37707142Y-64708809D01*
X37707142Y-64946904D01*
X37678571Y-65042142D01*
X37650000Y-65089761D01*
X37592857Y-65137380D01*
X37421428Y-65137380D01*
X37364285Y-65089761D01*
X37335714Y-65042142D01*
X47357142Y-45652380D02*
X47357142Y-44652380D01*
X47500000Y-44652380D01*
X47585714Y-44700000D01*
X47642857Y-44795238D01*
X47671428Y-44890476D01*
X47700000Y-45080952D01*
X47700000Y-45223809D01*
X47671428Y-45414285D01*
X47642857Y-45509523D01*
X47585714Y-45604761D01*
X47500000Y-45652380D01*
X47357142Y-45652380D01*
X48214285Y-44652380D02*
X48100000Y-44652380D01*
X48042857Y-44700000D01*
X48014285Y-44747619D01*
X47957142Y-44890476D01*
X47928571Y-45080952D01*
X47928571Y-45461904D01*
X47957142Y-45557142D01*
X47985714Y-45604761D01*
X48042857Y-45652380D01*
X48157142Y-45652380D01*
X48214285Y-45604761D01*
X48242857Y-45557142D01*
X48271428Y-45461904D01*
X48271428Y-45223809D01*
X48242857Y-45128571D01*
X48214285Y-45080952D01*
X48157142Y-45033333D01*
X48042857Y-45033333D01*
X47985714Y-45080952D01*
X47957142Y-45128571D01*
X47928571Y-45223809D01*
X47114285Y-38752380D02*
X46914285Y-38276190D01*
X46771428Y-38752380D02*
X46771428Y-37752380D01*
X47000000Y-37752380D01*
X47057142Y-37800000D01*
X47085714Y-37847619D01*
X47114285Y-37942857D01*
X47114285Y-38085714D01*
X47085714Y-38180952D01*
X47057142Y-38228571D01*
X47000000Y-38276190D01*
X46771428Y-38276190D01*
X47342857Y-37847619D02*
X47371428Y-37800000D01*
X47428571Y-37752380D01*
X47571428Y-37752380D01*
X47628571Y-37800000D01*
X47657142Y-37847619D01*
X47685714Y-37942857D01*
X47685714Y-38038095D01*
X47657142Y-38180952D01*
X47314285Y-38752380D01*
X47685714Y-38752380D01*
X48228571Y-37752380D02*
X47942857Y-37752380D01*
X47914285Y-38228571D01*
X47942857Y-38180952D01*
X48000000Y-38133333D01*
X48142857Y-38133333D01*
X48200000Y-38180952D01*
X48228571Y-38228571D01*
X48257142Y-38323809D01*
X48257142Y-38561904D01*
X48228571Y-38657142D01*
X48200000Y-38704761D01*
X48142857Y-38752380D01*
X48000000Y-38752380D01*
X47942857Y-38704761D01*
X47914285Y-38657142D01*
X7747142Y-47972380D02*
X7747142Y-46972380D01*
X7890000Y-46972380D01*
X7975714Y-47020000D01*
X8032857Y-47115238D01*
X8061428Y-47210476D01*
X8090000Y-47400952D01*
X8090000Y-47543809D01*
X8061428Y-47734285D01*
X8032857Y-47829523D01*
X7975714Y-47924761D01*
X7890000Y-47972380D01*
X7747142Y-47972380D01*
X8604285Y-47305714D02*
X8604285Y-47972380D01*
X8461428Y-46924761D02*
X8318571Y-47639047D01*
X8690000Y-47639047D01*
X13447142Y-42372380D02*
X13790000Y-42372380D01*
X13618571Y-43372380D02*
X13618571Y-42372380D01*
X13990000Y-43372380D02*
X13990000Y-42372380D01*
X14218571Y-42372380D01*
X14275714Y-42420000D01*
X14304285Y-42467619D01*
X14332857Y-42562857D01*
X14332857Y-42705714D01*
X14304285Y-42800952D01*
X14275714Y-42848571D01*
X14218571Y-42896190D01*
X13990000Y-42896190D01*
X14532857Y-42372380D02*
X14904285Y-42372380D01*
X14704285Y-42753333D01*
X14790000Y-42753333D01*
X14847142Y-42800952D01*
X14875714Y-42848571D01*
X14904285Y-42943809D01*
X14904285Y-43181904D01*
X14875714Y-43277142D01*
X14847142Y-43324761D01*
X14790000Y-43372380D01*
X14618571Y-43372380D01*
X14561428Y-43324761D01*
X14532857Y-43277142D01*
X15275714Y-42372380D02*
X15332857Y-42372380D01*
X15390000Y-42420000D01*
X15418571Y-42467619D01*
X15447142Y-42562857D01*
X15475714Y-42753333D01*
X15475714Y-42991428D01*
X15447142Y-43181904D01*
X15418571Y-43277142D01*
X15390000Y-43324761D01*
X15332857Y-43372380D01*
X15275714Y-43372380D01*
X15218571Y-43324761D01*
X15190000Y-43277142D01*
X15161428Y-43181904D01*
X15132857Y-42991428D01*
X15132857Y-42753333D01*
X15161428Y-42562857D01*
X15190000Y-42467619D01*
X15218571Y-42420000D01*
X15275714Y-42372380D01*
X21307142Y-9754380D02*
X21650000Y-9754380D01*
X21478571Y-10754380D02*
X21478571Y-9754380D01*
X21850000Y-10754380D02*
X21850000Y-9754380D01*
X22078571Y-9754380D01*
X22135714Y-9802000D01*
X22164285Y-9849619D01*
X22192857Y-9944857D01*
X22192857Y-10087714D01*
X22164285Y-10182952D01*
X22135714Y-10230571D01*
X22078571Y-10278190D01*
X21850000Y-10278190D01*
X22421428Y-9849619D02*
X22450000Y-9802000D01*
X22507142Y-9754380D01*
X22650000Y-9754380D01*
X22707142Y-9802000D01*
X22735714Y-9849619D01*
X22764285Y-9944857D01*
X22764285Y-10040095D01*
X22735714Y-10182952D01*
X22392857Y-10754380D01*
X22764285Y-10754380D01*
X22964285Y-9754380D02*
X23364285Y-9754380D01*
X23107142Y-10754380D01*
X16771428Y-39452380D02*
X16771428Y-38452380D01*
X16914285Y-38452380D01*
X17000000Y-38500000D01*
X17057142Y-38595238D01*
X17085714Y-38690476D01*
X17114285Y-38880952D01*
X17114285Y-39023809D01*
X17085714Y-39214285D01*
X17057142Y-39309523D01*
X17000000Y-39404761D01*
X16914285Y-39452380D01*
X16771428Y-39452380D01*
X17685714Y-39452380D02*
X17342857Y-39452380D01*
X17514285Y-39452380D02*
X17514285Y-38452380D01*
X17457142Y-38595238D01*
X17400000Y-38690476D01*
X17342857Y-38738095D01*
X18257142Y-39452380D02*
X17914285Y-39452380D01*
X18085714Y-39452380D02*
X18085714Y-38452380D01*
X18028571Y-38595238D01*
X17971428Y-38690476D01*
X17914285Y-38738095D01*
X51342857Y-27054380D02*
X51685714Y-27054380D01*
X51514285Y-28054380D02*
X51514285Y-27054380D01*
X51885714Y-28054380D02*
X51885714Y-27054380D01*
X52114285Y-27054380D01*
X52171428Y-27102000D01*
X52200000Y-27149619D01*
X52228571Y-27244857D01*
X52228571Y-27387714D01*
X52200000Y-27482952D01*
X52171428Y-27530571D01*
X52114285Y-27578190D01*
X51885714Y-27578190D01*
X52571428Y-27482952D02*
X52514285Y-27435333D01*
X52485714Y-27387714D01*
X52457142Y-27292476D01*
X52457142Y-27244857D01*
X52485714Y-27149619D01*
X52514285Y-27102000D01*
X52571428Y-27054380D01*
X52685714Y-27054380D01*
X52742857Y-27102000D01*
X52771428Y-27149619D01*
X52800000Y-27244857D01*
X52800000Y-27292476D01*
X52771428Y-27387714D01*
X52742857Y-27435333D01*
X52685714Y-27482952D01*
X52571428Y-27482952D01*
X52514285Y-27530571D01*
X52485714Y-27578190D01*
X52457142Y-27673428D01*
X52457142Y-27863904D01*
X52485714Y-27959142D01*
X52514285Y-28006761D01*
X52571428Y-28054380D01*
X52685714Y-28054380D01*
X52742857Y-28006761D01*
X52771428Y-27959142D01*
X52800000Y-27863904D01*
X52800000Y-27673428D01*
X52771428Y-27578190D01*
X52742857Y-27530571D01*
X52685714Y-27482952D01*
X20537142Y-57452380D02*
X20880000Y-57452380D01*
X20708571Y-58452380D02*
X20708571Y-57452380D01*
X21080000Y-58452380D02*
X21080000Y-57452380D01*
X21308571Y-57452380D01*
X21365714Y-57500000D01*
X21394285Y-57547619D01*
X21422857Y-57642857D01*
X21422857Y-57785714D01*
X21394285Y-57880952D01*
X21365714Y-57928571D01*
X21308571Y-57976190D01*
X21080000Y-57976190D01*
X21994285Y-58452380D02*
X21651428Y-58452380D01*
X21822857Y-58452380D02*
X21822857Y-57452380D01*
X21765714Y-57595238D01*
X21708571Y-57690476D01*
X21651428Y-57738095D01*
X22508571Y-57452380D02*
X22394285Y-57452380D01*
X22337142Y-57500000D01*
X22308571Y-57547619D01*
X22251428Y-57690476D01*
X22222857Y-57880952D01*
X22222857Y-58261904D01*
X22251428Y-58357142D01*
X22280000Y-58404761D01*
X22337142Y-58452380D01*
X22451428Y-58452380D01*
X22508571Y-58404761D01*
X22537142Y-58357142D01*
X22565714Y-58261904D01*
X22565714Y-58023809D01*
X22537142Y-57928571D01*
X22508571Y-57880952D01*
X22451428Y-57833333D01*
X22337142Y-57833333D01*
X22280000Y-57880952D01*
X22251428Y-57928571D01*
X22222857Y-58023809D01*
X46782142Y-29029380D02*
X47125000Y-29029380D01*
X46953571Y-30029380D02*
X46953571Y-29029380D01*
X47325000Y-30029380D02*
X47325000Y-29029380D01*
X47553571Y-29029380D01*
X47610714Y-29077000D01*
X47639285Y-29124619D01*
X47667857Y-29219857D01*
X47667857Y-29362714D01*
X47639285Y-29457952D01*
X47610714Y-29505571D01*
X47553571Y-29553190D01*
X47325000Y-29553190D01*
X48239285Y-30029380D02*
X47896428Y-30029380D01*
X48067857Y-30029380D02*
X48067857Y-29029380D01*
X48010714Y-29172238D01*
X47953571Y-29267476D01*
X47896428Y-29315095D01*
X48525000Y-30029380D02*
X48639285Y-30029380D01*
X48696428Y-29981761D01*
X48725000Y-29934142D01*
X48782142Y-29791285D01*
X48810714Y-29600809D01*
X48810714Y-29219857D01*
X48782142Y-29124619D01*
X48753571Y-29077000D01*
X48696428Y-29029380D01*
X48582142Y-29029380D01*
X48525000Y-29077000D01*
X48496428Y-29124619D01*
X48467857Y-29219857D01*
X48467857Y-29457952D01*
X48496428Y-29553190D01*
X48525000Y-29600809D01*
X48582142Y-29648428D01*
X48696428Y-29648428D01*
X48753571Y-29600809D01*
X48782142Y-29553190D01*
X48810714Y-29457952D01*
X8552857Y-65842380D02*
X8895714Y-65842380D01*
X8724285Y-66842380D02*
X8724285Y-65842380D01*
X9095714Y-66842380D02*
X9095714Y-65842380D01*
X9324285Y-65842380D01*
X9381428Y-65890000D01*
X9410000Y-65937619D01*
X9438571Y-66032857D01*
X9438571Y-66175714D01*
X9410000Y-66270952D01*
X9381428Y-66318571D01*
X9324285Y-66366190D01*
X9095714Y-66366190D01*
X9952857Y-66175714D02*
X9952857Y-66842380D01*
X9810000Y-65794761D02*
X9667142Y-66509047D01*
X10038571Y-66509047D01*
X9207142Y-36242380D02*
X9550000Y-36242380D01*
X9378571Y-37242380D02*
X9378571Y-36242380D01*
X9750000Y-37242380D02*
X9750000Y-36242380D01*
X9978571Y-36242380D01*
X10035714Y-36290000D01*
X10064285Y-36337619D01*
X10092857Y-36432857D01*
X10092857Y-36575714D01*
X10064285Y-36670952D01*
X10035714Y-36718571D01*
X9978571Y-36766190D01*
X9750000Y-36766190D01*
X10321428Y-36337619D02*
X10350000Y-36290000D01*
X10407142Y-36242380D01*
X10550000Y-36242380D01*
X10607142Y-36290000D01*
X10635714Y-36337619D01*
X10664285Y-36432857D01*
X10664285Y-36528095D01*
X10635714Y-36670952D01*
X10292857Y-37242380D01*
X10664285Y-37242380D01*
X11178571Y-36575714D02*
X11178571Y-37242380D01*
X11035714Y-36194761D02*
X10892857Y-36909047D01*
X11264285Y-36909047D01*
X29200000Y-11404761D02*
X29285714Y-11452380D01*
X29428571Y-11452380D01*
X29485714Y-11404761D01*
X29514285Y-11357142D01*
X29542857Y-11261904D01*
X29542857Y-11166666D01*
X29514285Y-11071428D01*
X29485714Y-11023809D01*
X29428571Y-10976190D01*
X29314285Y-10928571D01*
X29257142Y-10880952D01*
X29228571Y-10833333D01*
X29200000Y-10738095D01*
X29200000Y-10642857D01*
X29228571Y-10547619D01*
X29257142Y-10500000D01*
X29314285Y-10452380D01*
X29457142Y-10452380D01*
X29542857Y-10500000D01*
X29742857Y-10452380D02*
X29885714Y-11452380D01*
X30000000Y-10738095D01*
X30114285Y-11452380D01*
X30257142Y-10452380D01*
X30742857Y-10785714D02*
X30742857Y-11452380D01*
X30600000Y-10404761D02*
X30457142Y-11119047D01*
X30828571Y-11119047D01*
X23602380Y-7038571D02*
X24411904Y-7038571D01*
X24507142Y-7010000D01*
X24554761Y-6981428D01*
X24602380Y-6924285D01*
X24602380Y-6810000D01*
X24554761Y-6752857D01*
X24507142Y-6724285D01*
X24411904Y-6695714D01*
X23602380Y-6695714D01*
X24554761Y-6438571D02*
X24602380Y-6352857D01*
X24602380Y-6210000D01*
X24554761Y-6152857D01*
X24507142Y-6124285D01*
X24411904Y-6095714D01*
X24316666Y-6095714D01*
X24221428Y-6124285D01*
X24173809Y-6152857D01*
X24126190Y-6210000D01*
X24078571Y-6324285D01*
X24030952Y-6381428D01*
X23983333Y-6410000D01*
X23888095Y-6438571D01*
X23792857Y-6438571D01*
X23697619Y-6410000D01*
X23650000Y-6381428D01*
X23602380Y-6324285D01*
X23602380Y-6181428D01*
X23650000Y-6095714D01*
X24602380Y-5495714D02*
X24126190Y-5695714D01*
X24602380Y-5838571D02*
X23602380Y-5838571D01*
X23602380Y-5610000D01*
X23650000Y-5552857D01*
X23697619Y-5524285D01*
X23792857Y-5495714D01*
X23935714Y-5495714D01*
X24030952Y-5524285D01*
X24078571Y-5552857D01*
X24126190Y-5610000D01*
X24126190Y-5838571D01*
X24697619Y-5381428D02*
X24697619Y-4924285D01*
X24078571Y-4581428D02*
X24126190Y-4495714D01*
X24173809Y-4467142D01*
X24269047Y-4438571D01*
X24411904Y-4438571D01*
X24507142Y-4467142D01*
X24554761Y-4495714D01*
X24602380Y-4552857D01*
X24602380Y-4781428D01*
X23602380Y-4781428D01*
X23602380Y-4581428D01*
X23650000Y-4524285D01*
X23697619Y-4495714D01*
X23792857Y-4467142D01*
X23888095Y-4467142D01*
X23983333Y-4495714D01*
X24030952Y-4524285D01*
X24078571Y-4581428D01*
X24078571Y-4781428D01*
X23602380Y-4267142D02*
X23602380Y-3924285D01*
X24602380Y-4095714D02*
X23602380Y-4095714D01*
X24602380Y-3724285D02*
X23602380Y-3724285D01*
X24602380Y-3381428D01*
X23602380Y-3381428D01*
X13267857Y-64079380D02*
X13610714Y-64079380D01*
X13439285Y-65079380D02*
X13439285Y-64079380D01*
X13810714Y-65079380D02*
X13810714Y-64079380D01*
X14039285Y-64079380D01*
X14096428Y-64127000D01*
X14125000Y-64174619D01*
X14153571Y-64269857D01*
X14153571Y-64412714D01*
X14125000Y-64507952D01*
X14096428Y-64555571D01*
X14039285Y-64603190D01*
X13810714Y-64603190D01*
X14353571Y-64079380D02*
X14725000Y-64079380D01*
X14525000Y-64460333D01*
X14610714Y-64460333D01*
X14667857Y-64507952D01*
X14696428Y-64555571D01*
X14725000Y-64650809D01*
X14725000Y-64888904D01*
X14696428Y-64984142D01*
X14667857Y-65031761D01*
X14610714Y-65079380D01*
X14439285Y-65079380D01*
X14382142Y-65031761D01*
X14353571Y-64984142D01*
X51921428Y-39552380D02*
X51921428Y-38552380D01*
X52064285Y-38552380D01*
X52150000Y-38600000D01*
X52207142Y-38695238D01*
X52235714Y-38790476D01*
X52264285Y-38980952D01*
X52264285Y-39123809D01*
X52235714Y-39314285D01*
X52207142Y-39409523D01*
X52150000Y-39504761D01*
X52064285Y-39552380D01*
X51921428Y-39552380D01*
X52835714Y-39552380D02*
X52492857Y-39552380D01*
X52664285Y-39552380D02*
X52664285Y-38552380D01*
X52607142Y-38695238D01*
X52550000Y-38790476D01*
X52492857Y-38838095D01*
X53207142Y-38552380D02*
X53264285Y-38552380D01*
X53321428Y-38600000D01*
X53350000Y-38647619D01*
X53378571Y-38742857D01*
X53407142Y-38933333D01*
X53407142Y-39171428D01*
X53378571Y-39361904D01*
X53350000Y-39457142D01*
X53321428Y-39504761D01*
X53264285Y-39552380D01*
X53207142Y-39552380D01*
X53150000Y-39504761D01*
X53121428Y-39457142D01*
X53092857Y-39361904D01*
X53064285Y-39171428D01*
X53064285Y-38933333D01*
X53092857Y-38742857D01*
X53121428Y-38647619D01*
X53150000Y-38600000D01*
X53207142Y-38552380D01*
X50932142Y-31354380D02*
X51275000Y-31354380D01*
X51103571Y-32354380D02*
X51103571Y-31354380D01*
X51475000Y-32354380D02*
X51475000Y-31354380D01*
X51703571Y-31354380D01*
X51760714Y-31402000D01*
X51789285Y-31449619D01*
X51817857Y-31544857D01*
X51817857Y-31687714D01*
X51789285Y-31782952D01*
X51760714Y-31830571D01*
X51703571Y-31878190D01*
X51475000Y-31878190D01*
X52389285Y-32354380D02*
X52046428Y-32354380D01*
X52217857Y-32354380D02*
X52217857Y-31354380D01*
X52160714Y-31497238D01*
X52103571Y-31592476D01*
X52046428Y-31640095D01*
X52589285Y-31354380D02*
X52960714Y-31354380D01*
X52760714Y-31735333D01*
X52846428Y-31735333D01*
X52903571Y-31782952D01*
X52932142Y-31830571D01*
X52960714Y-31925809D01*
X52960714Y-32163904D01*
X52932142Y-32259142D01*
X52903571Y-32306761D01*
X52846428Y-32354380D01*
X52675000Y-32354380D01*
X52617857Y-32306761D01*
X52589285Y-32259142D01*
X43339285Y-38657142D02*
X43310714Y-38704761D01*
X43225000Y-38752380D01*
X43167857Y-38752380D01*
X43082142Y-38704761D01*
X43025000Y-38609523D01*
X42996428Y-38514285D01*
X42967857Y-38323809D01*
X42967857Y-38180952D01*
X42996428Y-37990476D01*
X43025000Y-37895238D01*
X43082142Y-37800000D01*
X43167857Y-37752380D01*
X43225000Y-37752380D01*
X43310714Y-37800000D01*
X43339285Y-37847619D01*
X43910714Y-38752380D02*
X43567857Y-38752380D01*
X43739285Y-38752380D02*
X43739285Y-37752380D01*
X43682142Y-37895238D01*
X43625000Y-37990476D01*
X43567857Y-38038095D01*
X44425000Y-38085714D02*
X44425000Y-38752380D01*
X44282142Y-37704761D02*
X44139285Y-38419047D01*
X44510714Y-38419047D01*
X19621428Y-4562380D02*
X19621428Y-3562380D01*
X19764285Y-3562380D01*
X19850000Y-3610000D01*
X19907142Y-3705238D01*
X19935714Y-3800476D01*
X19964285Y-3990952D01*
X19964285Y-4133809D01*
X19935714Y-4324285D01*
X19907142Y-4419523D01*
X19850000Y-4514761D01*
X19764285Y-4562380D01*
X19621428Y-4562380D01*
X20535714Y-4562380D02*
X20192857Y-4562380D01*
X20364285Y-4562380D02*
X20364285Y-3562380D01*
X20307142Y-3705238D01*
X20250000Y-3800476D01*
X20192857Y-3848095D01*
X21078571Y-3562380D02*
X20792857Y-3562380D01*
X20764285Y-4038571D01*
X20792857Y-3990952D01*
X20850000Y-3943333D01*
X20992857Y-3943333D01*
X21050000Y-3990952D01*
X21078571Y-4038571D01*
X21107142Y-4133809D01*
X21107142Y-4371904D01*
X21078571Y-4467142D01*
X21050000Y-4514761D01*
X20992857Y-4562380D01*
X20850000Y-4562380D01*
X20792857Y-4514761D01*
X20764285Y-4467142D01*
X47882142Y-12302380D02*
X47882142Y-13111904D01*
X47910714Y-13207142D01*
X47939285Y-13254761D01*
X47996428Y-13302380D01*
X48110714Y-13302380D01*
X48167857Y-13254761D01*
X48196428Y-13207142D01*
X48225000Y-13111904D01*
X48225000Y-12302380D01*
X48825000Y-13302380D02*
X48482142Y-13302380D01*
X48653571Y-13302380D02*
X48653571Y-12302380D01*
X48596428Y-12445238D01*
X48539285Y-12540476D01*
X48482142Y-12588095D01*
X49025000Y-12302380D02*
X49396428Y-12302380D01*
X49196428Y-12683333D01*
X49282142Y-12683333D01*
X49339285Y-12730952D01*
X49367857Y-12778571D01*
X49396428Y-12873809D01*
X49396428Y-13111904D01*
X49367857Y-13207142D01*
X49339285Y-13254761D01*
X49282142Y-13302380D01*
X49110714Y-13302380D01*
X49053571Y-13254761D01*
X49025000Y-13207142D01*
X19557142Y-41882380D02*
X19557142Y-40882380D01*
X19700000Y-40882380D01*
X19785714Y-40930000D01*
X19842857Y-41025238D01*
X19871428Y-41120476D01*
X19900000Y-41310952D01*
X19900000Y-41453809D01*
X19871428Y-41644285D01*
X19842857Y-41739523D01*
X19785714Y-41834761D01*
X19700000Y-41882380D01*
X19557142Y-41882380D01*
X20185714Y-41882380D02*
X20300000Y-41882380D01*
X20357142Y-41834761D01*
X20385714Y-41787142D01*
X20442857Y-41644285D01*
X20471428Y-41453809D01*
X20471428Y-41072857D01*
X20442857Y-40977619D01*
X20414285Y-40930000D01*
X20357142Y-40882380D01*
X20242857Y-40882380D01*
X20185714Y-40930000D01*
X20157142Y-40977619D01*
X20128571Y-41072857D01*
X20128571Y-41310952D01*
X20157142Y-41406190D01*
X20185714Y-41453809D01*
X20242857Y-41501428D01*
X20357142Y-41501428D01*
X20414285Y-41453809D01*
X20442857Y-41406190D01*
X20471428Y-41310952D01*
X13327142Y-47702380D02*
X13327142Y-46702380D01*
X13470000Y-46702380D01*
X13555714Y-46750000D01*
X13612857Y-46845238D01*
X13641428Y-46940476D01*
X13670000Y-47130952D01*
X13670000Y-47273809D01*
X13641428Y-47464285D01*
X13612857Y-47559523D01*
X13555714Y-47654761D01*
X13470000Y-47702380D01*
X13327142Y-47702380D01*
X13870000Y-46702380D02*
X14241428Y-46702380D01*
X14041428Y-47083333D01*
X14127142Y-47083333D01*
X14184285Y-47130952D01*
X14212857Y-47178571D01*
X14241428Y-47273809D01*
X14241428Y-47511904D01*
X14212857Y-47607142D01*
X14184285Y-47654761D01*
X14127142Y-47702380D01*
X13955714Y-47702380D01*
X13898571Y-47654761D01*
X13870000Y-47607142D01*
X20457142Y-59154380D02*
X20800000Y-59154380D01*
X20628571Y-60154380D02*
X20628571Y-59154380D01*
X21000000Y-60154380D02*
X21000000Y-59154380D01*
X21228571Y-59154380D01*
X21285714Y-59202000D01*
X21314285Y-59249619D01*
X21342857Y-59344857D01*
X21342857Y-59487714D01*
X21314285Y-59582952D01*
X21285714Y-59630571D01*
X21228571Y-59678190D01*
X21000000Y-59678190D01*
X21571428Y-59249619D02*
X21600000Y-59202000D01*
X21657142Y-59154380D01*
X21800000Y-59154380D01*
X21857142Y-59202000D01*
X21885714Y-59249619D01*
X21914285Y-59344857D01*
X21914285Y-59440095D01*
X21885714Y-59582952D01*
X21542857Y-60154380D01*
X21914285Y-60154380D01*
X22114285Y-59154380D02*
X22485714Y-59154380D01*
X22285714Y-59535333D01*
X22371428Y-59535333D01*
X22428571Y-59582952D01*
X22457142Y-59630571D01*
X22485714Y-59725809D01*
X22485714Y-59963904D01*
X22457142Y-60059142D01*
X22428571Y-60106761D01*
X22371428Y-60154380D01*
X22200000Y-60154380D01*
X22142857Y-60106761D01*
X22114285Y-60059142D01*
X51474285Y-10277142D02*
X51445714Y-10324761D01*
X51360000Y-10372380D01*
X51302857Y-10372380D01*
X51217142Y-10324761D01*
X51160000Y-10229523D01*
X51131428Y-10134285D01*
X51102857Y-9943809D01*
X51102857Y-9800952D01*
X51131428Y-9610476D01*
X51160000Y-9515238D01*
X51217142Y-9420000D01*
X51302857Y-9372380D01*
X51360000Y-9372380D01*
X51445714Y-9420000D01*
X51474285Y-9467619D01*
X51674285Y-9372380D02*
X52045714Y-9372380D01*
X51845714Y-9753333D01*
X51931428Y-9753333D01*
X51988571Y-9800952D01*
X52017142Y-9848571D01*
X52045714Y-9943809D01*
X52045714Y-10181904D01*
X52017142Y-10277142D01*
X51988571Y-10324761D01*
X51931428Y-10372380D01*
X51760000Y-10372380D01*
X51702857Y-10324761D01*
X51674285Y-10277142D01*
X52245714Y-9372380D02*
X52645714Y-9372380D01*
X52388571Y-10372380D01*
X9032380Y-39707142D02*
X9841904Y-39707142D01*
X9937142Y-39678571D01*
X9984761Y-39650000D01*
X10032380Y-39592857D01*
X10032380Y-39478571D01*
X9984761Y-39421428D01*
X9937142Y-39392857D01*
X9841904Y-39364285D01*
X9032380Y-39364285D01*
X10032380Y-38764285D02*
X10032380Y-39107142D01*
X10032380Y-38935714D02*
X9032380Y-38935714D01*
X9175238Y-38992857D01*
X9270476Y-39050000D01*
X9318095Y-39107142D01*
X17320000Y-65997142D02*
X17291428Y-66044761D01*
X17205714Y-66092380D01*
X17148571Y-66092380D01*
X17062857Y-66044761D01*
X17005714Y-65949523D01*
X16977142Y-65854285D01*
X16948571Y-65663809D01*
X16948571Y-65520952D01*
X16977142Y-65330476D01*
X17005714Y-65235238D01*
X17062857Y-65140000D01*
X17148571Y-65092380D01*
X17205714Y-65092380D01*
X17291428Y-65140000D01*
X17320000Y-65187619D01*
X17548571Y-65187619D02*
X17577142Y-65140000D01*
X17634285Y-65092380D01*
X17777142Y-65092380D01*
X17834285Y-65140000D01*
X17862857Y-65187619D01*
X17891428Y-65282857D01*
X17891428Y-65378095D01*
X17862857Y-65520952D01*
X17520000Y-66092380D01*
X17891428Y-66092380D01*
X14092857Y-21227380D02*
X13892857Y-20751190D01*
X13750000Y-21227380D02*
X13750000Y-20227380D01*
X13978571Y-20227380D01*
X14035714Y-20275000D01*
X14064285Y-20322619D01*
X14092857Y-20417857D01*
X14092857Y-20560714D01*
X14064285Y-20655952D01*
X14035714Y-20703571D01*
X13978571Y-20751190D01*
X13750000Y-20751190D01*
X14264285Y-20227380D02*
X14464285Y-21227380D01*
X14664285Y-20227380D01*
X14835714Y-20322619D02*
X14864285Y-20275000D01*
X14921428Y-20227380D01*
X15064285Y-20227380D01*
X15121428Y-20275000D01*
X15150000Y-20322619D01*
X15178571Y-20417857D01*
X15178571Y-20513095D01*
X15150000Y-20655952D01*
X14807142Y-21227380D01*
X15178571Y-21227380D01*
X34800000Y-63152380D02*
X34800000Y-63866666D01*
X34771428Y-64009523D01*
X34714285Y-64104761D01*
X34628571Y-64152380D01*
X34571428Y-64152380D01*
X35342857Y-63152380D02*
X35228571Y-63152380D01*
X35171428Y-63200000D01*
X35142857Y-63247619D01*
X35085714Y-63390476D01*
X35057142Y-63580952D01*
X35057142Y-63961904D01*
X35085714Y-64057142D01*
X35114285Y-64104761D01*
X35171428Y-64152380D01*
X35285714Y-64152380D01*
X35342857Y-64104761D01*
X35371428Y-64057142D01*
X35400000Y-63961904D01*
X35400000Y-63723809D01*
X35371428Y-63628571D01*
X35342857Y-63580952D01*
X35285714Y-63533333D01*
X35171428Y-63533333D01*
X35114285Y-63580952D01*
X35085714Y-63628571D01*
X35057142Y-63723809D01*
X52867142Y-40704380D02*
X53210000Y-40704380D01*
X53038571Y-41704380D02*
X53038571Y-40704380D01*
X53410000Y-41704380D02*
X53410000Y-40704380D01*
X53638571Y-40704380D01*
X53695714Y-40752000D01*
X53724285Y-40799619D01*
X53752857Y-40894857D01*
X53752857Y-41037714D01*
X53724285Y-41132952D01*
X53695714Y-41180571D01*
X53638571Y-41228190D01*
X53410000Y-41228190D01*
X54324285Y-41704380D02*
X53981428Y-41704380D01*
X54152857Y-41704380D02*
X54152857Y-40704380D01*
X54095714Y-40847238D01*
X54038571Y-40942476D01*
X53981428Y-40990095D01*
X54695714Y-40704380D02*
X54752857Y-40704380D01*
X54810000Y-40752000D01*
X54838571Y-40799619D01*
X54867142Y-40894857D01*
X54895714Y-41085333D01*
X54895714Y-41323428D01*
X54867142Y-41513904D01*
X54838571Y-41609142D01*
X54810000Y-41656761D01*
X54752857Y-41704380D01*
X54695714Y-41704380D01*
X54638571Y-41656761D01*
X54610000Y-41609142D01*
X54581428Y-41513904D01*
X54552857Y-41323428D01*
X54552857Y-41085333D01*
X54581428Y-40894857D01*
X54610000Y-40799619D01*
X54638571Y-40752000D01*
X54695714Y-40704380D01*
X6167142Y-42482380D02*
X6510000Y-42482380D01*
X6338571Y-43482380D02*
X6338571Y-42482380D01*
X6710000Y-43482380D02*
X6710000Y-42482380D01*
X6938571Y-42482380D01*
X6995714Y-42530000D01*
X7024285Y-42577619D01*
X7052857Y-42672857D01*
X7052857Y-42815714D01*
X7024285Y-42910952D01*
X6995714Y-42958571D01*
X6938571Y-43006190D01*
X6710000Y-43006190D01*
X7281428Y-42577619D02*
X7310000Y-42530000D01*
X7367142Y-42482380D01*
X7510000Y-42482380D01*
X7567142Y-42530000D01*
X7595714Y-42577619D01*
X7624285Y-42672857D01*
X7624285Y-42768095D01*
X7595714Y-42910952D01*
X7252857Y-43482380D01*
X7624285Y-43482380D01*
X7910000Y-43482380D02*
X8024285Y-43482380D01*
X8081428Y-43434761D01*
X8110000Y-43387142D01*
X8167142Y-43244285D01*
X8195714Y-43053809D01*
X8195714Y-42672857D01*
X8167142Y-42577619D01*
X8138571Y-42530000D01*
X8081428Y-42482380D01*
X7967142Y-42482380D01*
X7910000Y-42530000D01*
X7881428Y-42577619D01*
X7852857Y-42672857D01*
X7852857Y-42910952D01*
X7881428Y-43006190D01*
X7910000Y-43053809D01*
X7967142Y-43101428D01*
X8081428Y-43101428D01*
X8138571Y-43053809D01*
X8167142Y-43006190D01*
X8195714Y-42910952D01*
X23507142Y-59154380D02*
X23850000Y-59154380D01*
X23678571Y-60154380D02*
X23678571Y-59154380D01*
X24050000Y-60154380D02*
X24050000Y-59154380D01*
X24278571Y-59154380D01*
X24335714Y-59202000D01*
X24364285Y-59249619D01*
X24392857Y-59344857D01*
X24392857Y-59487714D01*
X24364285Y-59582952D01*
X24335714Y-59630571D01*
X24278571Y-59678190D01*
X24050000Y-59678190D01*
X24621428Y-59249619D02*
X24650000Y-59202000D01*
X24707142Y-59154380D01*
X24850000Y-59154380D01*
X24907142Y-59202000D01*
X24935714Y-59249619D01*
X24964285Y-59344857D01*
X24964285Y-59440095D01*
X24935714Y-59582952D01*
X24592857Y-60154380D01*
X24964285Y-60154380D01*
X25535714Y-60154380D02*
X25192857Y-60154380D01*
X25364285Y-60154380D02*
X25364285Y-59154380D01*
X25307142Y-59297238D01*
X25250000Y-59392476D01*
X25192857Y-59440095D01*
X12232142Y-38777380D02*
X12575000Y-38777380D01*
X12403571Y-39777380D02*
X12403571Y-38777380D01*
X12775000Y-39777380D02*
X12775000Y-38777380D01*
X13003571Y-38777380D01*
X13060714Y-38825000D01*
X13089285Y-38872619D01*
X13117857Y-38967857D01*
X13117857Y-39110714D01*
X13089285Y-39205952D01*
X13060714Y-39253571D01*
X13003571Y-39301190D01*
X12775000Y-39301190D01*
X13346428Y-38872619D02*
X13375000Y-38825000D01*
X13432142Y-38777380D01*
X13575000Y-38777380D01*
X13632142Y-38825000D01*
X13660714Y-38872619D01*
X13689285Y-38967857D01*
X13689285Y-39063095D01*
X13660714Y-39205952D01*
X13317857Y-39777380D01*
X13689285Y-39777380D01*
X14232142Y-38777380D02*
X13946428Y-38777380D01*
X13917857Y-39253571D01*
X13946428Y-39205952D01*
X14003571Y-39158333D01*
X14146428Y-39158333D01*
X14203571Y-39205952D01*
X14232142Y-39253571D01*
X14260714Y-39348809D01*
X14260714Y-39586904D01*
X14232142Y-39682142D01*
X14203571Y-39729761D01*
X14146428Y-39777380D01*
X14003571Y-39777380D01*
X13946428Y-39729761D01*
X13917857Y-39682142D01*
X18737142Y-63592380D02*
X19080000Y-63592380D01*
X18908571Y-64592380D02*
X18908571Y-63592380D01*
X19280000Y-64592380D02*
X19280000Y-63592380D01*
X19508571Y-63592380D01*
X19565714Y-63640000D01*
X19594285Y-63687619D01*
X19622857Y-63782857D01*
X19622857Y-63925714D01*
X19594285Y-64020952D01*
X19565714Y-64068571D01*
X19508571Y-64116190D01*
X19280000Y-64116190D01*
X19851428Y-63687619D02*
X19880000Y-63640000D01*
X19937142Y-63592380D01*
X20080000Y-63592380D01*
X20137142Y-63640000D01*
X20165714Y-63687619D01*
X20194285Y-63782857D01*
X20194285Y-63878095D01*
X20165714Y-64020952D01*
X19822857Y-64592380D01*
X20194285Y-64592380D01*
X20422857Y-63687619D02*
X20451428Y-63640000D01*
X20508571Y-63592380D01*
X20651428Y-63592380D01*
X20708571Y-63640000D01*
X20737142Y-63687619D01*
X20765714Y-63782857D01*
X20765714Y-63878095D01*
X20737142Y-64020952D01*
X20394285Y-64592380D01*
X20765714Y-64592380D01*
X49191428Y-4472380D02*
X49191428Y-3472380D01*
X49334285Y-3472380D01*
X49420000Y-3520000D01*
X49477142Y-3615238D01*
X49505714Y-3710476D01*
X49534285Y-3900952D01*
X49534285Y-4043809D01*
X49505714Y-4234285D01*
X49477142Y-4329523D01*
X49420000Y-4424761D01*
X49334285Y-4472380D01*
X49191428Y-4472380D01*
X50105714Y-4472380D02*
X49762857Y-4472380D01*
X49934285Y-4472380D02*
X49934285Y-3472380D01*
X49877142Y-3615238D01*
X49820000Y-3710476D01*
X49762857Y-3758095D01*
X50620000Y-3805714D02*
X50620000Y-4472380D01*
X50477142Y-3424761D02*
X50334285Y-4139047D01*
X50705714Y-4139047D01*
X23577142Y-57512380D02*
X23920000Y-57512380D01*
X23748571Y-58512380D02*
X23748571Y-57512380D01*
X24120000Y-58512380D02*
X24120000Y-57512380D01*
X24348571Y-57512380D01*
X24405714Y-57560000D01*
X24434285Y-57607619D01*
X24462857Y-57702857D01*
X24462857Y-57845714D01*
X24434285Y-57940952D01*
X24405714Y-57988571D01*
X24348571Y-58036190D01*
X24120000Y-58036190D01*
X25034285Y-58512380D02*
X24691428Y-58512380D01*
X24862857Y-58512380D02*
X24862857Y-57512380D01*
X24805714Y-57655238D01*
X24748571Y-57750476D01*
X24691428Y-57798095D01*
X25234285Y-57512380D02*
X25634285Y-57512380D01*
X25377142Y-58512380D01*
X56962857Y-4244380D02*
X57305714Y-4244380D01*
X57134285Y-5244380D02*
X57134285Y-4244380D01*
X57505714Y-5244380D02*
X57505714Y-4244380D01*
X57734285Y-4244380D01*
X57791428Y-4292000D01*
X57820000Y-4339619D01*
X57848571Y-4434857D01*
X57848571Y-4577714D01*
X57820000Y-4672952D01*
X57791428Y-4720571D01*
X57734285Y-4768190D01*
X57505714Y-4768190D01*
X58077142Y-4339619D02*
X58105714Y-4292000D01*
X58162857Y-4244380D01*
X58305714Y-4244380D01*
X58362857Y-4292000D01*
X58391428Y-4339619D01*
X58420000Y-4434857D01*
X58420000Y-4530095D01*
X58391428Y-4672952D01*
X58048571Y-5244380D01*
X58420000Y-5244380D01*
X40582857Y-37654380D02*
X40925714Y-37654380D01*
X40754285Y-38654380D02*
X40754285Y-37654380D01*
X41125714Y-38654380D02*
X41125714Y-37654380D01*
X41354285Y-37654380D01*
X41411428Y-37702000D01*
X41440000Y-37749619D01*
X41468571Y-37844857D01*
X41468571Y-37987714D01*
X41440000Y-38082952D01*
X41411428Y-38130571D01*
X41354285Y-38178190D01*
X41125714Y-38178190D01*
X41754285Y-38654380D02*
X41868571Y-38654380D01*
X41925714Y-38606761D01*
X41954285Y-38559142D01*
X42011428Y-38416285D01*
X42040000Y-38225809D01*
X42040000Y-37844857D01*
X42011428Y-37749619D01*
X41982857Y-37702000D01*
X41925714Y-37654380D01*
X41811428Y-37654380D01*
X41754285Y-37702000D01*
X41725714Y-37749619D01*
X41697142Y-37844857D01*
X41697142Y-38082952D01*
X41725714Y-38178190D01*
X41754285Y-38225809D01*
X41811428Y-38273428D01*
X41925714Y-38273428D01*
X41982857Y-38225809D01*
X42011428Y-38178190D01*
X42040000Y-38082952D01*
X15780000Y-66112380D02*
X15580000Y-65636190D01*
X15437142Y-66112380D02*
X15437142Y-65112380D01*
X15665714Y-65112380D01*
X15722857Y-65160000D01*
X15751428Y-65207619D01*
X15780000Y-65302857D01*
X15780000Y-65445714D01*
X15751428Y-65540952D01*
X15722857Y-65588571D01*
X15665714Y-65636190D01*
X15437142Y-65636190D01*
X16322857Y-65112380D02*
X16037142Y-65112380D01*
X16008571Y-65588571D01*
X16037142Y-65540952D01*
X16094285Y-65493333D01*
X16237142Y-65493333D01*
X16294285Y-65540952D01*
X16322857Y-65588571D01*
X16351428Y-65683809D01*
X16351428Y-65921904D01*
X16322857Y-66017142D01*
X16294285Y-66064761D01*
X16237142Y-66112380D01*
X16094285Y-66112380D01*
X16037142Y-66064761D01*
X16008571Y-66017142D01*
X46172142Y-42297380D02*
X46515000Y-42297380D01*
X46343571Y-43297380D02*
X46343571Y-42297380D01*
X46715000Y-43297380D02*
X46715000Y-42297380D01*
X46943571Y-42297380D01*
X47000714Y-42345000D01*
X47029285Y-42392619D01*
X47057857Y-42487857D01*
X47057857Y-42630714D01*
X47029285Y-42725952D01*
X47000714Y-42773571D01*
X46943571Y-42821190D01*
X46715000Y-42821190D01*
X47629285Y-43297380D02*
X47286428Y-43297380D01*
X47457857Y-43297380D02*
X47457857Y-42297380D01*
X47400714Y-42440238D01*
X47343571Y-42535476D01*
X47286428Y-42583095D01*
X48172142Y-42297380D02*
X47886428Y-42297380D01*
X47857857Y-42773571D01*
X47886428Y-42725952D01*
X47943571Y-42678333D01*
X48086428Y-42678333D01*
X48143571Y-42725952D01*
X48172142Y-42773571D01*
X48200714Y-42868809D01*
X48200714Y-43106904D01*
X48172142Y-43202142D01*
X48143571Y-43249761D01*
X48086428Y-43297380D01*
X47943571Y-43297380D01*
X47886428Y-43249761D01*
X47857857Y-43202142D01*
X49492857Y-19352380D02*
X49835714Y-19352380D01*
X49664285Y-20352380D02*
X49664285Y-19352380D01*
X50035714Y-20352380D02*
X50035714Y-19352380D01*
X50264285Y-19352380D01*
X50321428Y-19400000D01*
X50350000Y-19447619D01*
X50378571Y-19542857D01*
X50378571Y-19685714D01*
X50350000Y-19780952D01*
X50321428Y-19828571D01*
X50264285Y-19876190D01*
X50035714Y-19876190D01*
X50921428Y-19352380D02*
X50635714Y-19352380D01*
X50607142Y-19828571D01*
X50635714Y-19780952D01*
X50692857Y-19733333D01*
X50835714Y-19733333D01*
X50892857Y-19780952D01*
X50921428Y-19828571D01*
X50950000Y-19923809D01*
X50950000Y-20161904D01*
X50921428Y-20257142D01*
X50892857Y-20304761D01*
X50835714Y-20352380D01*
X50692857Y-20352380D01*
X50635714Y-20304761D01*
X50607142Y-20257142D01*
X2052380Y-32142857D02*
X2052380Y-31800000D01*
X3052380Y-31971428D02*
X2052380Y-31971428D01*
X3052380Y-31600000D02*
X2052380Y-31600000D01*
X2052380Y-31371428D01*
X2100000Y-31314285D01*
X2147619Y-31285714D01*
X2242857Y-31257142D01*
X2385714Y-31257142D01*
X2480952Y-31285714D01*
X2528571Y-31314285D01*
X2576190Y-31371428D01*
X2576190Y-31600000D01*
X2147619Y-31028571D02*
X2100000Y-31000000D01*
X2052380Y-30942857D01*
X2052380Y-30800000D01*
X2100000Y-30742857D01*
X2147619Y-30714285D01*
X2242857Y-30685714D01*
X2338095Y-30685714D01*
X2480952Y-30714285D01*
X3052380Y-31057142D01*
X3052380Y-30685714D01*
X2480952Y-30342857D02*
X2433333Y-30400000D01*
X2385714Y-30428571D01*
X2290476Y-30457142D01*
X2242857Y-30457142D01*
X2147619Y-30428571D01*
X2100000Y-30400000D01*
X2052380Y-30342857D01*
X2052380Y-30228571D01*
X2100000Y-30171428D01*
X2147619Y-30142857D01*
X2242857Y-30114285D01*
X2290476Y-30114285D01*
X2385714Y-30142857D01*
X2433333Y-30171428D01*
X2480952Y-30228571D01*
X2480952Y-30342857D01*
X2528571Y-30400000D01*
X2576190Y-30428571D01*
X2671428Y-30457142D01*
X2861904Y-30457142D01*
X2957142Y-30428571D01*
X3004761Y-30400000D01*
X3052380Y-30342857D01*
X3052380Y-30228571D01*
X3004761Y-30171428D01*
X2957142Y-30142857D01*
X2861904Y-30114285D01*
X2671428Y-30114285D01*
X2576190Y-30142857D01*
X2528571Y-30171428D01*
X2480952Y-30228571D01*
X50421428Y-7002380D02*
X50421428Y-6002380D01*
X50564285Y-6002380D01*
X50650000Y-6050000D01*
X50707142Y-6145238D01*
X50735714Y-6240476D01*
X50764285Y-6430952D01*
X50764285Y-6573809D01*
X50735714Y-6764285D01*
X50707142Y-6859523D01*
X50650000Y-6954761D01*
X50564285Y-7002380D01*
X50421428Y-7002380D01*
X51335714Y-7002380D02*
X50992857Y-7002380D01*
X51164285Y-7002380D02*
X51164285Y-6002380D01*
X51107142Y-6145238D01*
X51050000Y-6240476D01*
X50992857Y-6288095D01*
X51564285Y-6097619D02*
X51592857Y-6050000D01*
X51650000Y-6002380D01*
X51792857Y-6002380D01*
X51850000Y-6050000D01*
X51878571Y-6097619D01*
X51907142Y-6192857D01*
X51907142Y-6288095D01*
X51878571Y-6430952D01*
X51535714Y-7002380D01*
X51907142Y-7002380D01*
X40200000Y-11404761D02*
X40285714Y-11452380D01*
X40428571Y-11452380D01*
X40485714Y-11404761D01*
X40514285Y-11357142D01*
X40542857Y-11261904D01*
X40542857Y-11166666D01*
X40514285Y-11071428D01*
X40485714Y-11023809D01*
X40428571Y-10976190D01*
X40314285Y-10928571D01*
X40257142Y-10880952D01*
X40228571Y-10833333D01*
X40200000Y-10738095D01*
X40200000Y-10642857D01*
X40228571Y-10547619D01*
X40257142Y-10500000D01*
X40314285Y-10452380D01*
X40457142Y-10452380D01*
X40542857Y-10500000D01*
X40742857Y-10452380D02*
X40885714Y-11452380D01*
X41000000Y-10738095D01*
X41114285Y-11452380D01*
X41257142Y-10452380D01*
X41800000Y-11452380D02*
X41457142Y-11452380D01*
X41628571Y-11452380D02*
X41628571Y-10452380D01*
X41571428Y-10595238D01*
X41514285Y-10690476D01*
X41457142Y-10738095D01*
X47402380Y-6428571D02*
X46402380Y-6428571D01*
X46402380Y-6200000D01*
X46450000Y-6142857D01*
X46497619Y-6114285D01*
X46592857Y-6085714D01*
X46735714Y-6085714D01*
X46830952Y-6114285D01*
X46878571Y-6142857D01*
X46926190Y-6200000D01*
X46926190Y-6428571D01*
X46402380Y-5885714D02*
X47402380Y-5742857D01*
X46688095Y-5628571D01*
X47402380Y-5514285D01*
X46402380Y-5371428D01*
X47402380Y-4800000D02*
X46926190Y-5000000D01*
X47402380Y-5142857D02*
X46402380Y-5142857D01*
X46402380Y-4914285D01*
X46450000Y-4857142D01*
X46497619Y-4828571D01*
X46592857Y-4800000D01*
X46735714Y-4800000D01*
X46830952Y-4828571D01*
X46878571Y-4857142D01*
X46926190Y-4914285D01*
X46926190Y-5142857D01*
X46402380Y-4428571D02*
X46402380Y-4314285D01*
X46450000Y-4257142D01*
X46545238Y-4200000D01*
X46735714Y-4171428D01*
X47069047Y-4171428D01*
X47259523Y-4200000D01*
X47354761Y-4257142D01*
X47402380Y-4314285D01*
X47402380Y-4428571D01*
X47354761Y-4485714D01*
X47259523Y-4542857D01*
X47069047Y-4571428D01*
X46735714Y-4571428D01*
X46545238Y-4542857D01*
X46450000Y-4485714D01*
X46402380Y-4428571D01*
X47402380Y-3914285D02*
X46402380Y-3914285D01*
X47402380Y-3571428D01*
X46402380Y-3571428D01*
X66580000Y-8534761D02*
X66665714Y-8582380D01*
X66808571Y-8582380D01*
X66865714Y-8534761D01*
X66894285Y-8487142D01*
X66922857Y-8391904D01*
X66922857Y-8296666D01*
X66894285Y-8201428D01*
X66865714Y-8153809D01*
X66808571Y-8106190D01*
X66694285Y-8058571D01*
X66637142Y-8010952D01*
X66608571Y-7963333D01*
X66580000Y-7868095D01*
X66580000Y-7772857D01*
X66608571Y-7677619D01*
X66637142Y-7630000D01*
X66694285Y-7582380D01*
X66837142Y-7582380D01*
X66922857Y-7630000D01*
X67122857Y-7582380D02*
X67265714Y-8582380D01*
X67380000Y-7868095D01*
X67494285Y-8582380D01*
X67637142Y-7582380D01*
X67808571Y-7582380D02*
X68180000Y-7582380D01*
X67980000Y-7963333D01*
X68065714Y-7963333D01*
X68122857Y-8010952D01*
X68151428Y-8058571D01*
X68180000Y-8153809D01*
X68180000Y-8391904D01*
X68151428Y-8487142D01*
X68122857Y-8534761D01*
X68065714Y-8582380D01*
X67894285Y-8582380D01*
X67837142Y-8534761D01*
X67808571Y-8487142D01*
X49147857Y-24297380D02*
X49490714Y-24297380D01*
X49319285Y-25297380D02*
X49319285Y-24297380D01*
X49690714Y-25297380D02*
X49690714Y-24297380D01*
X49919285Y-24297380D01*
X49976428Y-24345000D01*
X50005000Y-24392619D01*
X50033571Y-24487857D01*
X50033571Y-24630714D01*
X50005000Y-24725952D01*
X49976428Y-24773571D01*
X49919285Y-24821190D01*
X49690714Y-24821190D01*
X50547857Y-24297380D02*
X50433571Y-24297380D01*
X50376428Y-24345000D01*
X50347857Y-24392619D01*
X50290714Y-24535476D01*
X50262142Y-24725952D01*
X50262142Y-25106904D01*
X50290714Y-25202142D01*
X50319285Y-25249761D01*
X50376428Y-25297380D01*
X50490714Y-25297380D01*
X50547857Y-25249761D01*
X50576428Y-25202142D01*
X50605000Y-25106904D01*
X50605000Y-24868809D01*
X50576428Y-24773571D01*
X50547857Y-24725952D01*
X50490714Y-24678333D01*
X50376428Y-24678333D01*
X50319285Y-24725952D01*
X50290714Y-24773571D01*
X50262142Y-24868809D01*
X18452380Y-34400000D02*
X19166666Y-34400000D01*
X19309523Y-34428571D01*
X19404761Y-34485714D01*
X19452380Y-34571428D01*
X19452380Y-34628571D01*
X18452380Y-33828571D02*
X18452380Y-34114285D01*
X18928571Y-34142857D01*
X18880952Y-34114285D01*
X18833333Y-34057142D01*
X18833333Y-33914285D01*
X18880952Y-33857142D01*
X18928571Y-33828571D01*
X19023809Y-33800000D01*
X19261904Y-33800000D01*
X19357142Y-33828571D01*
X19404761Y-33857142D01*
X19452380Y-33914285D01*
X19452380Y-34057142D01*
X19404761Y-34114285D01*
X19357142Y-34142857D01*
X2950000Y-44342380D02*
X2950000Y-45056666D01*
X2921428Y-45199523D01*
X2864285Y-45294761D01*
X2778571Y-45342380D01*
X2721428Y-45342380D01*
X3207142Y-44437619D02*
X3235714Y-44390000D01*
X3292857Y-44342380D01*
X3435714Y-44342380D01*
X3492857Y-44390000D01*
X3521428Y-44437619D01*
X3550000Y-44532857D01*
X3550000Y-44628095D01*
X3521428Y-44770952D01*
X3178571Y-45342380D01*
X3550000Y-45342380D01*
X65082857Y-29614380D02*
X65425714Y-29614380D01*
X65254285Y-30614380D02*
X65254285Y-29614380D01*
X65625714Y-30614380D02*
X65625714Y-29614380D01*
X65854285Y-29614380D01*
X65911428Y-29662000D01*
X65940000Y-29709619D01*
X65968571Y-29804857D01*
X65968571Y-29947714D01*
X65940000Y-30042952D01*
X65911428Y-30090571D01*
X65854285Y-30138190D01*
X65625714Y-30138190D01*
X66168571Y-29614380D02*
X66568571Y-29614380D01*
X66311428Y-30614380D01*
X16701428Y-7002380D02*
X16701428Y-6002380D01*
X16844285Y-6002380D01*
X16930000Y-6050000D01*
X16987142Y-6145238D01*
X17015714Y-6240476D01*
X17044285Y-6430952D01*
X17044285Y-6573809D01*
X17015714Y-6764285D01*
X16987142Y-6859523D01*
X16930000Y-6954761D01*
X16844285Y-7002380D01*
X16701428Y-7002380D01*
X17615714Y-7002380D02*
X17272857Y-7002380D01*
X17444285Y-7002380D02*
X17444285Y-6002380D01*
X17387142Y-6145238D01*
X17330000Y-6240476D01*
X17272857Y-6288095D01*
X17815714Y-6002380D02*
X18187142Y-6002380D01*
X17987142Y-6383333D01*
X18072857Y-6383333D01*
X18130000Y-6430952D01*
X18158571Y-6478571D01*
X18187142Y-6573809D01*
X18187142Y-6811904D01*
X18158571Y-6907142D01*
X18130000Y-6954761D01*
X18072857Y-7002380D01*
X17901428Y-7002380D01*
X17844285Y-6954761D01*
X17815714Y-6907142D01*
X3767857Y-21227380D02*
X3567857Y-20751190D01*
X3425000Y-21227380D02*
X3425000Y-20227380D01*
X3653571Y-20227380D01*
X3710714Y-20275000D01*
X3739285Y-20322619D01*
X3767857Y-20417857D01*
X3767857Y-20560714D01*
X3739285Y-20655952D01*
X3710714Y-20703571D01*
X3653571Y-20751190D01*
X3425000Y-20751190D01*
X3939285Y-20227380D02*
X4139285Y-21227380D01*
X4339285Y-20227380D01*
X4853571Y-21227380D02*
X4510714Y-21227380D01*
X4682142Y-21227380D02*
X4682142Y-20227380D01*
X4625000Y-20370238D01*
X4567857Y-20465476D01*
X4510714Y-20513095D01*
X60732857Y-5312380D02*
X60732857Y-4312380D01*
X60732857Y-4788571D02*
X61075714Y-4788571D01*
X61075714Y-5312380D02*
X61075714Y-4312380D01*
X61332857Y-4407619D02*
X61361428Y-4360000D01*
X61418571Y-4312380D01*
X61561428Y-4312380D01*
X61618571Y-4360000D01*
X61647142Y-4407619D01*
X61675714Y-4502857D01*
X61675714Y-4598095D01*
X61647142Y-4740952D01*
X61304285Y-5312380D01*
X61675714Y-5312380D01*
X57795000Y-7697380D02*
X57795000Y-8411666D01*
X57766428Y-8554523D01*
X57709285Y-8649761D01*
X57623571Y-8697380D01*
X57566428Y-8697380D01*
X58337857Y-8030714D02*
X58337857Y-8697380D01*
X58195000Y-7649761D02*
X58052142Y-8364047D01*
X58423571Y-8364047D01*
X44164285Y-42982380D02*
X43964285Y-42506190D01*
X43821428Y-42982380D02*
X43821428Y-41982380D01*
X44050000Y-41982380D01*
X44107142Y-42030000D01*
X44135714Y-42077619D01*
X44164285Y-42172857D01*
X44164285Y-42315714D01*
X44135714Y-42410952D01*
X44107142Y-42458571D01*
X44050000Y-42506190D01*
X43821428Y-42506190D01*
X44392857Y-42077619D02*
X44421428Y-42030000D01*
X44478571Y-41982380D01*
X44621428Y-41982380D01*
X44678571Y-42030000D01*
X44707142Y-42077619D01*
X44735714Y-42172857D01*
X44735714Y-42268095D01*
X44707142Y-42410952D01*
X44364285Y-42982380D01*
X44735714Y-42982380D01*
X44935714Y-41982380D02*
X45335714Y-41982380D01*
X45078571Y-42982380D01*
X21297142Y-13434380D02*
X21640000Y-13434380D01*
X21468571Y-14434380D02*
X21468571Y-13434380D01*
X21840000Y-14434380D02*
X21840000Y-13434380D01*
X22068571Y-13434380D01*
X22125714Y-13482000D01*
X22154285Y-13529619D01*
X22182857Y-13624857D01*
X22182857Y-13767714D01*
X22154285Y-13862952D01*
X22125714Y-13910571D01*
X22068571Y-13958190D01*
X21840000Y-13958190D01*
X22754285Y-14434380D02*
X22411428Y-14434380D01*
X22582857Y-14434380D02*
X22582857Y-13434380D01*
X22525714Y-13577238D01*
X22468571Y-13672476D01*
X22411428Y-13720095D01*
X23268571Y-13767714D02*
X23268571Y-14434380D01*
X23125714Y-13386761D02*
X22982857Y-14101047D01*
X23354285Y-14101047D01*
X49557142Y-41882380D02*
X49557142Y-40882380D01*
X49700000Y-40882380D01*
X49785714Y-40930000D01*
X49842857Y-41025238D01*
X49871428Y-41120476D01*
X49900000Y-41310952D01*
X49900000Y-41453809D01*
X49871428Y-41644285D01*
X49842857Y-41739523D01*
X49785714Y-41834761D01*
X49700000Y-41882380D01*
X49557142Y-41882380D01*
X50242857Y-41310952D02*
X50185714Y-41263333D01*
X50157142Y-41215714D01*
X50128571Y-41120476D01*
X50128571Y-41072857D01*
X50157142Y-40977619D01*
X50185714Y-40930000D01*
X50242857Y-40882380D01*
X50357142Y-40882380D01*
X50414285Y-40930000D01*
X50442857Y-40977619D01*
X50471428Y-41072857D01*
X50471428Y-41120476D01*
X50442857Y-41215714D01*
X50414285Y-41263333D01*
X50357142Y-41310952D01*
X50242857Y-41310952D01*
X50185714Y-41358571D01*
X50157142Y-41406190D01*
X50128571Y-41501428D01*
X50128571Y-41691904D01*
X50157142Y-41787142D01*
X50185714Y-41834761D01*
X50242857Y-41882380D01*
X50357142Y-41882380D01*
X50414285Y-41834761D01*
X50442857Y-41787142D01*
X50471428Y-41691904D01*
X50471428Y-41501428D01*
X50442857Y-41406190D01*
X50414285Y-41358571D01*
X50357142Y-41310952D01*
X22892857Y-54197619D02*
X22835714Y-54150000D01*
X22778571Y-54054761D01*
X22692857Y-53911904D01*
X22635714Y-53864285D01*
X22578571Y-53864285D01*
X22607142Y-54102380D02*
X22550000Y-54054761D01*
X22492857Y-53959523D01*
X22464285Y-53769047D01*
X22464285Y-53435714D01*
X22492857Y-53245238D01*
X22550000Y-53150000D01*
X22607142Y-53102380D01*
X22721428Y-53102380D01*
X22778571Y-53150000D01*
X22835714Y-53245238D01*
X22864285Y-53435714D01*
X22864285Y-53769047D01*
X22835714Y-53959523D01*
X22778571Y-54054761D01*
X22721428Y-54102380D01*
X22607142Y-54102380D01*
X23064285Y-53102380D02*
X23464285Y-53102380D01*
X23207142Y-54102380D01*
X50557142Y-44452380D02*
X50900000Y-44452380D01*
X50728571Y-45452380D02*
X50728571Y-44452380D01*
X51100000Y-45452380D02*
X51100000Y-44452380D01*
X51328571Y-44452380D01*
X51385714Y-44500000D01*
X51414285Y-44547619D01*
X51442857Y-44642857D01*
X51442857Y-44785714D01*
X51414285Y-44880952D01*
X51385714Y-44928571D01*
X51328571Y-44976190D01*
X51100000Y-44976190D01*
X52014285Y-45452380D02*
X51671428Y-45452380D01*
X51842857Y-45452380D02*
X51842857Y-44452380D01*
X51785714Y-44595238D01*
X51728571Y-44690476D01*
X51671428Y-44738095D01*
X52242857Y-44547619D02*
X52271428Y-44500000D01*
X52328571Y-44452380D01*
X52471428Y-44452380D01*
X52528571Y-44500000D01*
X52557142Y-44547619D01*
X52585714Y-44642857D01*
X52585714Y-44738095D01*
X52557142Y-44880952D01*
X52214285Y-45452380D01*
X52585714Y-45452380D01*
X60742857Y-67252380D02*
X60742857Y-66252380D01*
X60742857Y-66728571D02*
X61085714Y-66728571D01*
X61085714Y-67252380D02*
X61085714Y-66252380D01*
X61314285Y-66252380D02*
X61685714Y-66252380D01*
X61485714Y-66633333D01*
X61571428Y-66633333D01*
X61628571Y-66680952D01*
X61657142Y-66728571D01*
X61685714Y-66823809D01*
X61685714Y-67061904D01*
X61657142Y-67157142D01*
X61628571Y-67204761D01*
X61571428Y-67252380D01*
X61400000Y-67252380D01*
X61342857Y-67204761D01*
X61314285Y-67157142D01*
X25444285Y-53892380D02*
X25244285Y-53416190D01*
X25101428Y-53892380D02*
X25101428Y-52892380D01*
X25330000Y-52892380D01*
X25387142Y-52940000D01*
X25415714Y-52987619D01*
X25444285Y-53082857D01*
X25444285Y-53225714D01*
X25415714Y-53320952D01*
X25387142Y-53368571D01*
X25330000Y-53416190D01*
X25101428Y-53416190D01*
X26015714Y-53892380D02*
X25672857Y-53892380D01*
X25844285Y-53892380D02*
X25844285Y-52892380D01*
X25787142Y-53035238D01*
X25730000Y-53130476D01*
X25672857Y-53178095D01*
X26558571Y-52892380D02*
X26272857Y-52892380D01*
X26244285Y-53368571D01*
X26272857Y-53320952D01*
X26330000Y-53273333D01*
X26472857Y-53273333D01*
X26530000Y-53320952D01*
X26558571Y-53368571D01*
X26587142Y-53463809D01*
X26587142Y-53701904D01*
X26558571Y-53797142D01*
X26530000Y-53844761D01*
X26472857Y-53892380D01*
X26330000Y-53892380D01*
X26272857Y-53844761D01*
X26244285Y-53797142D01*
X22892857Y-45677619D02*
X22835714Y-45630000D01*
X22778571Y-45534761D01*
X22692857Y-45391904D01*
X22635714Y-45344285D01*
X22578571Y-45344285D01*
X22607142Y-45582380D02*
X22550000Y-45534761D01*
X22492857Y-45439523D01*
X22464285Y-45249047D01*
X22464285Y-44915714D01*
X22492857Y-44725238D01*
X22550000Y-44630000D01*
X22607142Y-44582380D01*
X22721428Y-44582380D01*
X22778571Y-44630000D01*
X22835714Y-44725238D01*
X22864285Y-44915714D01*
X22864285Y-45249047D01*
X22835714Y-45439523D01*
X22778571Y-45534761D01*
X22721428Y-45582380D01*
X22607142Y-45582380D01*
X23378571Y-44582380D02*
X23264285Y-44582380D01*
X23207142Y-44630000D01*
X23178571Y-44677619D01*
X23121428Y-44820476D01*
X23092857Y-45010952D01*
X23092857Y-45391904D01*
X23121428Y-45487142D01*
X23150000Y-45534761D01*
X23207142Y-45582380D01*
X23321428Y-45582380D01*
X23378571Y-45534761D01*
X23407142Y-45487142D01*
X23435714Y-45391904D01*
X23435714Y-45153809D01*
X23407142Y-45058571D01*
X23378571Y-45010952D01*
X23321428Y-44963333D01*
X23207142Y-44963333D01*
X23150000Y-45010952D01*
X23121428Y-45058571D01*
X23092857Y-45153809D01*
X55897142Y-40764380D02*
X56240000Y-40764380D01*
X56068571Y-41764380D02*
X56068571Y-40764380D01*
X56440000Y-41764380D02*
X56440000Y-40764380D01*
X56668571Y-40764380D01*
X56725714Y-40812000D01*
X56754285Y-40859619D01*
X56782857Y-40954857D01*
X56782857Y-41097714D01*
X56754285Y-41192952D01*
X56725714Y-41240571D01*
X56668571Y-41288190D01*
X56440000Y-41288190D01*
X57354285Y-41764380D02*
X57011428Y-41764380D01*
X57182857Y-41764380D02*
X57182857Y-40764380D01*
X57125714Y-40907238D01*
X57068571Y-41002476D01*
X57011428Y-41050095D01*
X57925714Y-41764380D02*
X57582857Y-41764380D01*
X57754285Y-41764380D02*
X57754285Y-40764380D01*
X57697142Y-40907238D01*
X57640000Y-41002476D01*
X57582857Y-41050095D01*
X61052380Y-53785714D02*
X60576190Y-53985714D01*
X61052380Y-54128571D02*
X60052380Y-54128571D01*
X60052380Y-53900000D01*
X60100000Y-53842857D01*
X60147619Y-53814285D01*
X60242857Y-53785714D01*
X60385714Y-53785714D01*
X60480952Y-53814285D01*
X60528571Y-53842857D01*
X60576190Y-53900000D01*
X60576190Y-54128571D01*
X60147619Y-53557142D02*
X60100000Y-53528571D01*
X60052380Y-53471428D01*
X60052380Y-53328571D01*
X60100000Y-53271428D01*
X60147619Y-53242857D01*
X60242857Y-53214285D01*
X60338095Y-53214285D01*
X60480952Y-53242857D01*
X61052380Y-53585714D01*
X61052380Y-53214285D01*
X60052380Y-52700000D02*
X60052380Y-52814285D01*
X60100000Y-52871428D01*
X60147619Y-52900000D01*
X60290476Y-52957142D01*
X60480952Y-52985714D01*
X60861904Y-52985714D01*
X60957142Y-52957142D01*
X61004761Y-52928571D01*
X61052380Y-52871428D01*
X61052380Y-52757142D01*
X61004761Y-52700000D01*
X60957142Y-52671428D01*
X60861904Y-52642857D01*
X60623809Y-52642857D01*
X60528571Y-52671428D01*
X60480952Y-52700000D01*
X60433333Y-52757142D01*
X60433333Y-52871428D01*
X60480952Y-52928571D01*
X60528571Y-52957142D01*
X60623809Y-52985714D01*
X19107142Y-8452380D02*
X19450000Y-8452380D01*
X19278571Y-9452380D02*
X19278571Y-8452380D01*
X19650000Y-9452380D02*
X19650000Y-8452380D01*
X19878571Y-8452380D01*
X19935714Y-8500000D01*
X19964285Y-8547619D01*
X19992857Y-8642857D01*
X19992857Y-8785714D01*
X19964285Y-8880952D01*
X19935714Y-8928571D01*
X19878571Y-8976190D01*
X19650000Y-8976190D01*
X20221428Y-8547619D02*
X20250000Y-8500000D01*
X20307142Y-8452380D01*
X20450000Y-8452380D01*
X20507142Y-8500000D01*
X20535714Y-8547619D01*
X20564285Y-8642857D01*
X20564285Y-8738095D01*
X20535714Y-8880952D01*
X20192857Y-9452380D01*
X20564285Y-9452380D01*
X21078571Y-8452380D02*
X20964285Y-8452380D01*
X20907142Y-8500000D01*
X20878571Y-8547619D01*
X20821428Y-8690476D01*
X20792857Y-8880952D01*
X20792857Y-9261904D01*
X20821428Y-9357142D01*
X20850000Y-9404761D01*
X20907142Y-9452380D01*
X21021428Y-9452380D01*
X21078571Y-9404761D01*
X21107142Y-9357142D01*
X21135714Y-9261904D01*
X21135714Y-9023809D01*
X21107142Y-8928571D01*
X21078571Y-8880952D01*
X21021428Y-8833333D01*
X20907142Y-8833333D01*
X20850000Y-8880952D01*
X20821428Y-8928571D01*
X20792857Y-9023809D01*
X3042857Y-8702380D02*
X3042857Y-9511904D01*
X3071428Y-9607142D01*
X3100000Y-9654761D01*
X3157142Y-9702380D01*
X3271428Y-9702380D01*
X3328571Y-9654761D01*
X3357142Y-9607142D01*
X3385714Y-9511904D01*
X3385714Y-8702380D01*
X3957142Y-8702380D02*
X3671428Y-8702380D01*
X3642857Y-9178571D01*
X3671428Y-9130952D01*
X3728571Y-9083333D01*
X3871428Y-9083333D01*
X3928571Y-9130952D01*
X3957142Y-9178571D01*
X3985714Y-9273809D01*
X3985714Y-9511904D01*
X3957142Y-9607142D01*
X3928571Y-9654761D01*
X3871428Y-9702380D01*
X3728571Y-9702380D01*
X3671428Y-9654761D01*
X3642857Y-9607142D01*
X16327142Y-9354380D02*
X16670000Y-9354380D01*
X16498571Y-10354380D02*
X16498571Y-9354380D01*
X16870000Y-10354380D02*
X16870000Y-9354380D01*
X17098571Y-9354380D01*
X17155714Y-9402000D01*
X17184285Y-9449619D01*
X17212857Y-9544857D01*
X17212857Y-9687714D01*
X17184285Y-9782952D01*
X17155714Y-9830571D01*
X17098571Y-9878190D01*
X16870000Y-9878190D01*
X17784285Y-10354380D02*
X17441428Y-10354380D01*
X17612857Y-10354380D02*
X17612857Y-9354380D01*
X17555714Y-9497238D01*
X17498571Y-9592476D01*
X17441428Y-9640095D01*
X18127142Y-9782952D02*
X18070000Y-9735333D01*
X18041428Y-9687714D01*
X18012857Y-9592476D01*
X18012857Y-9544857D01*
X18041428Y-9449619D01*
X18070000Y-9402000D01*
X18127142Y-9354380D01*
X18241428Y-9354380D01*
X18298571Y-9402000D01*
X18327142Y-9449619D01*
X18355714Y-9544857D01*
X18355714Y-9592476D01*
X18327142Y-9687714D01*
X18298571Y-9735333D01*
X18241428Y-9782952D01*
X18127142Y-9782952D01*
X18070000Y-9830571D01*
X18041428Y-9878190D01*
X18012857Y-9973428D01*
X18012857Y-10163904D01*
X18041428Y-10259142D01*
X18070000Y-10306761D01*
X18127142Y-10354380D01*
X18241428Y-10354380D01*
X18298571Y-10306761D01*
X18327142Y-10259142D01*
X18355714Y-10163904D01*
X18355714Y-9973428D01*
X18327142Y-9878190D01*
X18298571Y-9830571D01*
X18241428Y-9782952D01*
X11950000Y-62322380D02*
X11950000Y-63036666D01*
X11921428Y-63179523D01*
X11864285Y-63274761D01*
X11778571Y-63322380D01*
X11721428Y-63322380D01*
X12178571Y-62322380D02*
X12550000Y-62322380D01*
X12350000Y-62703333D01*
X12435714Y-62703333D01*
X12492857Y-62750952D01*
X12521428Y-62798571D01*
X12550000Y-62893809D01*
X12550000Y-63131904D01*
X12521428Y-63227142D01*
X12492857Y-63274761D01*
X12435714Y-63322380D01*
X12264285Y-63322380D01*
X12207142Y-63274761D01*
X12178571Y-63227142D01*
D12*
X15710000Y-48960000D02*
X15710000Y-50240000D01*
X15710000Y-55040000D02*
X15710000Y-53760000D01*
X17310000Y-48960000D02*
X15710000Y-48960000D01*
X15710000Y-50240000D02*
X18600000Y-50240000D01*
X13060000Y-47940000D02*
X17310000Y-47940000D01*
X17310000Y-47940000D02*
X17310000Y-48960000D01*
X9490000Y-49660000D02*
X9490000Y-54340000D01*
X17310000Y-55040000D02*
X15710000Y-55040000D01*
X17310000Y-56060000D02*
X17310000Y-55040000D01*
X13060000Y-56060000D02*
X17310000Y-56060000D01*
X48700000Y-34775000D02*
G75*
G03*
X48700000Y-34775000I-950000J0D01*
G01*
X35000000Y-32025000D02*
X24900000Y-32025000D01*
X24900000Y-24300000D02*
X24000000Y-24300000D01*
X24900000Y-11975002D02*
X24900000Y-18800002D01*
X35000000Y-11900000D02*
X24900000Y-11900000D01*
X45100000Y-32025000D02*
X45100000Y-25200000D01*
X35000000Y-32025000D02*
X45100000Y-32025000D01*
X35000000Y-12500000D02*
X35000000Y-31500000D01*
X24900000Y-25200000D02*
X24900000Y-24300000D01*
X45100000Y-24300000D02*
X46000000Y-24300000D01*
X27000000Y-22000000D02*
X43000000Y-22000000D01*
X45100000Y-24300000D02*
X45100000Y-25200000D01*
X45100000Y-11900000D02*
X45100000Y-18800000D01*
X45100000Y-19700000D02*
X46000000Y-19700000D01*
X38000000Y-32025000D02*
X38000000Y-55000000D01*
X24900000Y-19700002D02*
X24000000Y-19700002D01*
X32000000Y-32025000D02*
X32000000Y-55000000D01*
X45100000Y-19700000D02*
X45100000Y-18800000D01*
X24900000Y-32025000D02*
X24900000Y-25200000D01*
X24900000Y-19700002D02*
X24900000Y-18800002D01*
X35000000Y-11900000D02*
X45100000Y-11900000D01*
X46000001Y-24300001D02*
G75*
G03*
X48300001Y-21999999I-1J2300001D01*
G01*
X21700000Y-22000000D02*
G75*
G03*
X24000000Y-24300000I2299999J-1D01*
G01*
X24000000Y-19700000D02*
G75*
G03*
X21700000Y-22000000I-1J-2299999D01*
G01*
X48300000Y-22000000D02*
G75*
G03*
X46000000Y-19700000I-2300000J0D01*
G01*
X52686000Y-15668000D02*
G75*
G03*
X52686000Y-15668000I-950000J0D01*
G01*
X25295000Y-48221359D02*
X25295000Y-48528641D01*
X26055000Y-48221359D02*
X26055000Y-48528641D01*
X62700000Y-23700000D02*
X62250000Y-23250000D01*
X64000000Y-19250000D02*
X66000000Y-19250000D01*
X64000000Y-24750000D02*
X66000000Y-24750000D01*
X67300000Y-20300000D02*
X67750000Y-20750000D01*
X67750000Y-23250000D02*
X67750000Y-20750000D01*
X67300000Y-23700000D02*
X67750000Y-23250000D01*
X62700000Y-20300000D02*
X62250000Y-20750000D01*
X62250000Y-23250000D02*
X62250000Y-20750000D01*
X5640000Y-35711252D02*
X5640000Y-35188748D01*
X7060000Y-35711252D02*
X7060000Y-35188748D01*
X37057836Y-63165000D02*
X36842164Y-63165000D01*
X37057836Y-63885000D02*
X36842164Y-63885000D01*
X44200000Y-45735000D02*
X46485000Y-45735000D01*
X46485000Y-44265000D02*
X44200000Y-44265000D01*
X46485000Y-45735000D02*
X46485000Y-44265000D01*
X46926359Y-37480000D02*
X47233641Y-37480000D01*
X46926359Y-36720000D02*
X47233641Y-36720000D01*
X10025000Y-45265000D02*
X7740000Y-45265000D01*
X7740000Y-46735000D02*
X10025000Y-46735000D01*
X7740000Y-45265000D02*
X7740000Y-46735000D01*
X13180000Y-43670000D02*
G75*
G03*
X13180000Y-43670000I-950000J0D01*
G01*
X23300000Y-11950000D02*
G75*
G03*
X23300000Y-11950000I-950000J0D01*
G01*
X16015000Y-36765000D02*
X16015000Y-38235000D01*
X16015000Y-38235000D02*
X18300000Y-38235000D01*
X18300000Y-36765000D02*
X16015000Y-36765000D01*
X53050000Y-29250000D02*
G75*
G03*
X53050000Y-29250000I-950000J0D01*
G01*
X21620000Y-55980000D02*
G75*
G03*
X21620000Y-55980000I-950000J0D01*
G01*
X48775000Y-31225000D02*
G75*
G03*
X48775000Y-31225000I-950000J0D01*
G01*
X12150000Y-66290000D02*
G75*
G03*
X12150000Y-66290000I-950000J0D01*
G01*
X11200000Y-34840000D02*
G75*
G03*
X11200000Y-34840000I-950000J0D01*
G01*
X30000000Y-1000000D02*
X28250000Y-1000000D01*
X30000000Y-1000000D02*
X31750000Y-1000000D01*
X30000000Y-2000000D02*
X30500000Y-2500000D01*
X30000000Y-2000000D02*
X29500000Y-2500000D01*
X30000000Y-4000000D02*
X30000000Y-2000000D01*
X35000000Y-10000000D02*
X25000000Y-10000000D01*
X25000000Y-10000000D02*
X25000000Y-1000000D01*
X25000000Y-1000000D02*
X35000000Y-1000000D01*
X35000000Y-1000000D02*
X35000000Y-10000000D01*
X14975000Y-66275000D02*
G75*
G03*
X14975000Y-66275000I-950000J0D01*
G01*
X51015000Y-38235000D02*
X53300000Y-38235000D01*
X51015000Y-36765000D02*
X51015000Y-38235000D01*
X53300000Y-36765000D02*
X51015000Y-36765000D01*
X52925000Y-33550000D02*
G75*
G03*
X52925000Y-33550000I-950000J0D01*
G01*
X43702164Y-36740000D02*
X43917836Y-36740000D01*
X43702164Y-37460000D02*
X43917836Y-37460000D01*
X20800000Y-1765000D02*
X18515000Y-1765000D01*
X18515000Y-3235000D02*
X20800000Y-3235000D01*
X18515000Y-1765000D02*
X18515000Y-3235000D01*
X51180000Y-13960000D02*
X50180000Y-13960000D01*
X52180000Y-11740000D02*
X50180000Y-11740000D01*
X21485000Y-40735000D02*
X21485000Y-39265000D01*
X21485000Y-39265000D02*
X19200000Y-39265000D01*
X19200000Y-40735000D02*
X21485000Y-40735000D01*
X10790000Y-46735000D02*
X13075000Y-46735000D01*
X10790000Y-45265000D02*
X10790000Y-46735000D01*
X13075000Y-45265000D02*
X10790000Y-45265000D01*
X22450000Y-61350000D02*
G75*
G03*
X22450000Y-61350000I-950000J0D01*
G01*
X51987836Y-11410000D02*
X51772164Y-11410000D01*
X51987836Y-10690000D02*
X51772164Y-10690000D01*
X8660000Y-39450000D02*
X8660000Y-38650000D01*
X5540000Y-39450000D02*
X5540000Y-41250000D01*
X5540000Y-39450000D02*
X5540000Y-38650000D01*
X8660000Y-39450000D02*
X8660000Y-40250000D01*
X16840000Y-67672164D02*
X16840000Y-67887836D01*
X17560000Y-67672164D02*
X17560000Y-67887836D01*
X11380000Y-28420000D02*
X11380000Y-21580000D01*
X18620000Y-28420000D02*
X18620000Y-21580000D01*
X18620000Y-21580000D02*
X15590000Y-21580000D01*
X14290000Y-28420000D02*
X11380000Y-28420000D01*
X18620000Y-28420000D02*
X15590000Y-28420000D01*
X14290000Y-21580000D02*
X11380000Y-21580000D01*
X41160000Y-61300000D02*
X41160000Y-62500000D01*
X42650000Y-55500000D02*
X27350000Y-55500000D01*
X28840000Y-61300000D02*
X27350000Y-61300000D01*
X41160000Y-61300000D02*
X42650000Y-61300000D01*
X27350000Y-61300000D02*
X27350000Y-59960000D01*
X27350000Y-55500000D02*
X27350000Y-57240000D01*
X42650000Y-57240000D02*
X42650000Y-55500000D01*
X42650000Y-61300000D02*
X42650000Y-59960000D01*
X54860000Y-42900000D02*
G75*
G03*
X54860000Y-42900000I-950000J0D01*
G01*
X10550000Y-43680000D02*
G75*
G03*
X10550000Y-43680000I-950000J0D01*
G01*
X25500000Y-61350000D02*
G75*
G03*
X25500000Y-61350000I-950000J0D01*
G01*
X14225000Y-37300000D02*
G75*
G03*
X14225000Y-37300000I-950000J0D01*
G01*
X23160000Y-64110000D02*
G75*
G03*
X23160000Y-64110000I-950000J0D01*
G01*
X48515000Y-3235000D02*
X50800000Y-3235000D01*
X50800000Y-1765000D02*
X48515000Y-1765000D01*
X48515000Y-1765000D02*
X48515000Y-3235000D01*
X25240000Y-55970000D02*
G75*
G03*
X25240000Y-55970000I-950000J0D01*
G01*
X58670000Y-6440000D02*
G75*
G03*
X58670000Y-6440000I-950000J0D01*
G01*
X42290000Y-39850000D02*
G75*
G03*
X42290000Y-39850000I-950000J0D01*
G01*
X16580000Y-67953641D02*
X16580000Y-67646359D01*
X15820000Y-67953641D02*
X15820000Y-67646359D01*
X48100000Y-41075000D02*
G75*
G03*
X48100000Y-41075000I-950000J0D01*
G01*
X53300000Y-19925000D02*
G75*
G03*
X53300000Y-19925000I-950000J0D01*
G01*
X5370000Y-31130000D02*
G75*
G03*
X5370000Y-31130000I-950000J0D01*
G01*
X51015000Y-4265000D02*
X51015000Y-5735000D01*
X51015000Y-5735000D02*
X53300000Y-5735000D01*
X53300000Y-4265000D02*
X51015000Y-4265000D01*
X41000000Y-2000000D02*
X41500000Y-2500000D01*
X41000000Y-1000000D02*
X39250000Y-1000000D01*
X41000000Y-2000000D02*
X40500000Y-2500000D01*
X41000000Y-4000000D02*
X41000000Y-2000000D01*
X41000000Y-1000000D02*
X42750000Y-1000000D01*
X46000000Y-10000000D02*
X36000000Y-10000000D01*
X36000000Y-10000000D02*
X36000000Y-1000000D01*
X36000000Y-1000000D02*
X46000000Y-1000000D01*
X46000000Y-1000000D02*
X46000000Y-10000000D01*
X67300000Y-14700000D02*
X67750000Y-14250000D01*
X67300000Y-11300000D02*
X67750000Y-11750000D01*
X67750000Y-14250000D02*
X67750000Y-11750000D01*
X62700000Y-14700000D02*
X62250000Y-14250000D01*
X62700000Y-11300000D02*
X62250000Y-11750000D01*
X64000000Y-15750000D02*
X66000000Y-15750000D01*
X62250000Y-14250000D02*
X62250000Y-11750000D01*
X64000000Y-10250000D02*
X66000000Y-10250000D01*
X52975000Y-24825000D02*
G75*
G03*
X52975000Y-24825000I-950000J0D01*
G01*
X16000000Y-32800000D02*
X16200000Y-33000000D01*
X16000000Y-32800000D02*
X16000000Y-33400000D01*
X16000000Y-32800000D02*
X15800000Y-33000000D01*
X18125000Y-32400000D02*
X13875000Y-32400000D01*
X13875000Y-32400000D02*
X13875000Y-35600000D01*
X13875000Y-35600000D02*
X18125000Y-35600000D01*
X18125000Y-35600000D02*
X18125000Y-32400000D01*
X2430000Y-35990000D02*
X4410000Y-35990000D01*
X4410000Y-43510000D02*
X4410000Y-43090000D01*
X4410000Y-35990000D02*
X4410000Y-36410000D01*
X60000Y-35990000D02*
X460000Y-35990000D01*
X2430000Y-43510000D02*
X4410000Y-43510000D01*
X4640000Y-37990000D02*
X5090000Y-37990000D01*
X460000Y-43510000D02*
X60000Y-43510000D01*
X5090000Y-38440000D02*
X5090000Y-37990000D01*
G36*
X43636730Y-46557043D02*
G01*
X43693029Y-46736954D01*
X43716341Y-46980557D01*
X43722171Y-47279696D01*
X43705505Y-47479237D01*
X43661673Y-47596093D01*
X43586004Y-47647175D01*
X43530509Y-47653364D01*
X43407182Y-47638009D01*
X43354834Y-47614075D01*
X43337279Y-47541124D01*
X43323772Y-47379540D01*
X43316354Y-47158540D01*
X43315545Y-47052365D01*
X43319265Y-46793227D01*
X43333031Y-46629117D01*
X43360749Y-46537358D01*
X43406330Y-46495271D01*
X43411955Y-46492947D01*
X43544558Y-46478142D01*
X43636730Y-46557043D01*
G37*
G36*
X46142436Y-51507206D02*
G01*
X46356403Y-51528382D01*
X46514633Y-51568473D01*
X46576471Y-51611649D01*
X46603529Y-51727462D01*
X46560944Y-51803180D01*
X46456691Y-51856249D01*
X46272530Y-51889668D01*
X46044769Y-51903439D01*
X45809716Y-51897560D01*
X45603681Y-51872033D01*
X45462970Y-51826856D01*
X45433023Y-51803180D01*
X45387393Y-51689898D01*
X45417497Y-51611649D01*
X45510262Y-51557166D01*
X45684951Y-51521598D01*
X45907147Y-51504945D01*
X46142436Y-51507206D01*
G37*
G36*
X47346759Y-49317482D02*
G01*
X47414599Y-49368411D01*
X47500100Y-49469647D01*
X47613316Y-49634571D01*
X47764296Y-49876564D01*
X47949523Y-50186078D01*
X48121913Y-50473281D01*
X48275379Y-50721571D01*
X48399407Y-50914527D01*
X48483484Y-51035728D01*
X48515472Y-51070069D01*
X48557892Y-51022184D01*
X48648581Y-50888532D01*
X48777094Y-50685545D01*
X48932982Y-50429655D01*
X49075333Y-50189448D01*
X49265448Y-49867531D01*
X49408513Y-49634280D01*
X49515306Y-49475653D01*
X49596605Y-49377611D01*
X49663189Y-49326114D01*
X49725834Y-49307123D01*
X49753944Y-49305457D01*
X49916009Y-49303480D01*
X49916009Y-51896519D01*
X49562413Y-51896519D01*
X49562413Y-50970434D01*
X49562293Y-50595664D01*
X49556328Y-50335966D01*
X49536112Y-50188572D01*
X49493236Y-50150717D01*
X49419295Y-50219633D01*
X49305880Y-50392554D01*
X49144585Y-50666713D01*
X49063520Y-50806264D01*
X48873128Y-51127700D01*
X48729043Y-51356313D01*
X48622977Y-51503739D01*
X48546645Y-51581614D01*
X48496957Y-51601856D01*
X48452232Y-51554081D01*
X48359062Y-51422435D01*
X48229107Y-51224436D01*
X48074027Y-50977601D01*
X47990429Y-50840882D01*
X47529234Y-50079908D01*
X47513005Y-50988213D01*
X47496775Y-51896519D01*
X47146172Y-51896519D01*
X47146172Y-49303480D01*
X47286530Y-49303480D01*
X47346759Y-49317482D01*
G37*
G36*
X42301432Y-54126941D02*
G01*
X42301348Y-54430646D01*
X42273320Y-54632413D01*
X42213371Y-54745708D01*
X42117528Y-54783995D01*
X42107425Y-54784222D01*
X42009311Y-54743019D01*
X41964833Y-54701535D01*
X41928374Y-54590544D01*
X41911455Y-54377595D01*
X41913418Y-54126941D01*
X41930626Y-53635034D01*
X42284223Y-53635034D01*
X42301432Y-54126941D01*
G37*
G36*
X56103944Y-51601856D02*
G01*
X57518329Y-51601856D01*
X57518329Y-51896519D01*
X55750348Y-51896519D01*
X55750348Y-49303480D01*
X56103944Y-49303480D01*
X56103944Y-51601856D01*
G37*
G36*
X44568971Y-48523676D02*
G01*
X45142459Y-49099324D01*
X45142459Y-52163928D01*
X43991163Y-53310904D01*
X40867626Y-53310904D01*
X39720650Y-52159608D01*
X39720650Y-49095004D01*
X40296298Y-48521516D01*
X40871946Y-47948027D01*
X43995483Y-47948027D01*
X44568971Y-48523676D01*
G37*
G36*
X42887584Y-53618502D02*
G01*
X42958972Y-53677071D01*
X42999882Y-53808304D01*
X43017548Y-54029651D01*
X43019979Y-54197842D01*
X43004141Y-54501179D01*
X42953659Y-54694755D01*
X42866266Y-54782139D01*
X42739698Y-54766900D01*
X42679582Y-54734136D01*
X42640591Y-54668152D01*
X42620446Y-54522004D01*
X42617561Y-54280251D01*
X42620649Y-54160445D01*
X42630566Y-53910114D01*
X42644922Y-53753990D01*
X42670558Y-53668438D01*
X42714315Y-53629822D01*
X42778486Y-53615145D01*
X42887584Y-53618502D01*
G37*
G36*
X39188834Y-51493192D02*
G01*
X39357309Y-51523375D01*
X39451243Y-51576599D01*
X39524607Y-51658204D01*
X39543852Y-51690255D01*
X39507593Y-51743187D01*
X39451243Y-51803911D01*
X39362030Y-51855667D01*
X39208202Y-51883820D01*
X38965954Y-51892209D01*
X38906115Y-51891867D01*
X38679363Y-51885942D01*
X38494867Y-51874550D01*
X38387618Y-51859977D01*
X38379930Y-51857489D01*
X38318369Y-51779635D01*
X38311994Y-51657801D01*
X38357431Y-51550295D01*
X38399484Y-51519762D01*
X38502108Y-51502124D01*
X38684511Y-51489347D01*
X38908627Y-51484018D01*
X38925668Y-51483990D01*
X39188834Y-51493192D01*
G37*
G36*
X39188834Y-49371615D02*
G01*
X39357309Y-49401797D01*
X39451243Y-49455021D01*
X39524607Y-49536626D01*
X39543852Y-49568677D01*
X39507593Y-49621610D01*
X39451243Y-49682333D01*
X39362030Y-49734090D01*
X39208202Y-49762242D01*
X38965954Y-49770631D01*
X38906115Y-49770289D01*
X38679363Y-49764365D01*
X38494867Y-49752973D01*
X38387618Y-49738399D01*
X38379930Y-49735912D01*
X38318369Y-49658057D01*
X38311994Y-49536223D01*
X38357431Y-49428717D01*
X38399484Y-49398184D01*
X38502108Y-49380547D01*
X38684511Y-49367769D01*
X38908627Y-49362440D01*
X38925668Y-49362413D01*
X39188834Y-49371615D01*
G37*
G36*
X39205038Y-50090582D02*
G01*
X39397818Y-50149025D01*
X39495158Y-50240469D01*
X39487198Y-50359645D01*
X39483053Y-50367756D01*
X39439263Y-50423496D01*
X39363929Y-50457732D01*
X39231668Y-50475473D01*
X39017098Y-50481727D01*
X38903340Y-50482134D01*
X38666672Y-50477937D01*
X38476905Y-50466725D01*
X38363387Y-50450564D01*
X38345553Y-50442846D01*
X38313955Y-50358016D01*
X38306265Y-50272921D01*
X38330646Y-50179831D01*
X38415326Y-50118944D01*
X38577603Y-50084613D01*
X38834779Y-50071191D01*
X38926678Y-50070410D01*
X39205038Y-50090582D01*
G37*
G36*
X50906965Y-50570533D02*
G01*
X51090310Y-50175464D01*
X51232470Y-49874535D01*
X51341279Y-49654702D01*
X51424573Y-49502917D01*
X51490186Y-49406133D01*
X51545953Y-49351304D01*
X51599710Y-49325384D01*
X51659290Y-49315326D01*
X51660853Y-49315171D01*
X51842223Y-49297397D01*
X52402872Y-50520460D01*
X52565549Y-50871111D01*
X52714299Y-51183747D01*
X52841528Y-51443053D01*
X52939645Y-51633711D01*
X53001056Y-51740407D01*
X53016215Y-51757701D01*
X53067266Y-51717803D01*
X53171524Y-51599893D01*
X53314575Y-51422496D01*
X53482006Y-51204137D01*
X53659404Y-50963343D01*
X53832356Y-50718640D01*
X53888367Y-50636689D01*
X53887083Y-50562523D01*
X53819722Y-50423688D01*
X53681577Y-50211834D01*
X53531897Y-50004341D01*
X53330201Y-49732102D01*
X53191416Y-49541122D01*
X53109500Y-49417067D01*
X53078408Y-49345607D01*
X53092098Y-49312408D01*
X53144526Y-49303139D01*
X53229650Y-49303468D01*
X53236377Y-49303480D01*
X53336174Y-49311204D01*
X53421215Y-49346295D01*
X53512100Y-49426628D01*
X53629432Y-49570078D01*
X53779722Y-49774942D01*
X53928494Y-49975140D01*
X54054701Y-50133125D01*
X54141285Y-50228171D01*
X54167774Y-50246403D01*
X54220835Y-50201576D01*
X54324364Y-50080905D01*
X54461239Y-49905111D01*
X54556097Y-49776473D01*
X54717766Y-49558056D01*
X54834067Y-49419609D01*
X54925307Y-49343229D01*
X55011791Y-49311014D01*
X55090833Y-49305011D01*
X55174765Y-49304050D01*
X55226918Y-49312283D01*
X55241085Y-49344083D01*
X55211061Y-49413823D01*
X55130641Y-49535877D01*
X54993619Y-49724617D01*
X54793791Y-49994417D01*
X54792349Y-49996364D01*
X54611919Y-50251463D01*
X54489540Y-50449142D01*
X54432390Y-50577064D01*
X54432373Y-50615158D01*
X54483271Y-50688897D01*
X54589477Y-50835655D01*
X54735493Y-51034216D01*
X54905826Y-51263368D01*
X54907050Y-51265006D01*
X55072524Y-51488621D01*
X55208565Y-51676493D01*
X55301521Y-51809480D01*
X55337742Y-51868441D01*
X55337819Y-51869066D01*
X55286124Y-51887603D01*
X55159873Y-51896405D01*
X55142003Y-51896519D01*
X55049834Y-51888652D01*
X54968232Y-51853816D01*
X54878836Y-51775160D01*
X54763281Y-51635836D01*
X54603206Y-51418993D01*
X54567409Y-51369262D01*
X54412364Y-51156874D01*
X54282395Y-50985272D01*
X54192589Y-50873962D01*
X54159165Y-50841326D01*
X54115353Y-50886158D01*
X54019230Y-51008188D01*
X53885767Y-51187835D01*
X53756009Y-51368583D01*
X53382320Y-51896519D01*
X52640603Y-51896519D01*
X52509049Y-51572389D01*
X52377494Y-51248259D01*
X50970277Y-51248259D01*
X50821886Y-51572389D01*
X50731262Y-51755289D01*
X50656757Y-51853197D01*
X50573215Y-51891522D01*
X50501016Y-51896519D01*
X50379753Y-51883452D01*
X50331493Y-51852320D01*
X50356085Y-51788401D01*
X50423450Y-51633213D01*
X50526594Y-51402332D01*
X50658526Y-51111334D01*
X50730792Y-50953596D01*
X51096150Y-50953596D01*
X51655268Y-50953596D01*
X51895677Y-50951443D01*
X52084280Y-50945656D01*
X52195465Y-50937244D01*
X52214385Y-50931571D01*
X52191399Y-50864726D01*
X52130830Y-50719171D01*
X52045260Y-50522850D01*
X51947273Y-50303709D01*
X51849451Y-50089695D01*
X51764377Y-49908752D01*
X51704633Y-49788826D01*
X51685539Y-49757041D01*
X51640811Y-49778670D01*
X51571778Y-49884722D01*
X51519802Y-49992772D01*
X51424186Y-50212141D01*
X51311943Y-50467429D01*
X51246728Y-50614733D01*
X51096150Y-50953596D01*
X50730792Y-50953596D01*
X50812251Y-50775793D01*
X50906965Y-50570533D01*
G37*
G36*
X58156533Y-50570533D02*
G01*
X58339889Y-50175420D01*
X58482074Y-49874459D01*
X58590913Y-49654602D01*
X58674234Y-49502804D01*
X58739864Y-49406018D01*
X58795631Y-49351198D01*
X58849361Y-49325298D01*
X58908881Y-49315272D01*
X58909673Y-49315194D01*
X58958650Y-49307801D01*
X58998650Y-49303499D01*
X59035581Y-49312756D01*
X59075349Y-49346044D01*
X59123861Y-49413833D01*
X59187022Y-49526595D01*
X59270740Y-49694800D01*
X59380921Y-49928919D01*
X59523472Y-50239422D01*
X59704299Y-50636781D01*
X59908692Y-51086194D01*
X60277654Y-51896519D01*
X60083490Y-51896519D01*
X59970822Y-51887443D01*
X59894472Y-51842698D01*
X59828039Y-51736013D01*
X59757773Y-51572389D01*
X59626218Y-51248259D01*
X58219001Y-51248259D01*
X58070610Y-51572389D01*
X57979986Y-51755289D01*
X57905481Y-51853197D01*
X57821939Y-51891522D01*
X57749740Y-51896519D01*
X57628636Y-51883459D01*
X57580666Y-51852320D01*
X57605385Y-51788398D01*
X57672861Y-51633203D01*
X57776094Y-51402313D01*
X57908087Y-51111303D01*
X57980350Y-50953596D01*
X58344874Y-50953596D01*
X58903991Y-50953596D01*
X59144400Y-50951443D01*
X59333004Y-50945656D01*
X59444189Y-50937244D01*
X59463109Y-50931571D01*
X59440123Y-50864726D01*
X59379554Y-50719171D01*
X59293984Y-50522850D01*
X59195997Y-50303709D01*
X59098175Y-50089695D01*
X59013100Y-49908752D01*
X58953357Y-49788826D01*
X58934263Y-49757041D01*
X58889535Y-49778670D01*
X58820502Y-49884722D01*
X58768525Y-49992772D01*
X58672910Y-50212141D01*
X58560667Y-50467429D01*
X58495452Y-50614733D01*
X58344874Y-50953596D01*
X57980350Y-50953596D01*
X58061841Y-50775750D01*
X58156533Y-50570533D01*
G37*
G36*
X61363689Y-49303808D02*
G01*
X61776910Y-49312914D01*
X62092046Y-49342511D01*
X62327737Y-49396718D01*
X62502621Y-49479650D01*
X62623241Y-49582049D01*
X62739980Y-49786540D01*
X62769626Y-50025724D01*
X62712731Y-50257618D01*
X62612438Y-50402664D01*
X62518618Y-50503736D01*
X62478843Y-50561423D01*
X62479839Y-50565154D01*
X62537330Y-50601189D01*
X62651312Y-50672478D01*
X62657285Y-50676212D01*
X62816435Y-50837987D01*
X62894005Y-51051895D01*
X62892039Y-51287010D01*
X62812581Y-51512404D01*
X62657677Y-51697149D01*
X62586543Y-51746174D01*
X62486611Y-51795833D01*
X62368701Y-51831329D01*
X62209912Y-51855752D01*
X61987343Y-51872193D01*
X61678093Y-51883742D01*
X61540487Y-51887312D01*
X60700696Y-51907571D01*
X60700696Y-51612584D01*
X61054292Y-51612584D01*
X61667057Y-51592487D01*
X61959975Y-51579123D01*
X62159889Y-51558863D01*
X62291633Y-51527245D01*
X62380042Y-51479807D01*
X62403716Y-51460123D01*
X62505785Y-51296634D01*
X62522938Y-51099964D01*
X62455072Y-50918015D01*
X62405009Y-50860911D01*
X62324397Y-50807598D01*
X62205910Y-50771099D01*
X62025064Y-50746971D01*
X61757377Y-50730770D01*
X61668350Y-50727227D01*
X61054292Y-50704497D01*
X61054292Y-51612584D01*
X60700696Y-51612584D01*
X60700696Y-50423201D01*
X61054292Y-50423201D01*
X61576739Y-50423201D01*
X61843572Y-50418833D01*
X62023323Y-50402053D01*
X62146575Y-50367351D01*
X62243910Y-50309214D01*
X62254465Y-50301059D01*
X62380061Y-50140150D01*
X62404495Y-49955893D01*
X62325898Y-49781713D01*
X62285809Y-49739876D01*
X62199181Y-49683031D01*
X62072195Y-49645295D01*
X61878629Y-49621534D01*
X61608083Y-49607188D01*
X61054292Y-49586766D01*
X61054292Y-50423201D01*
X60700696Y-50423201D01*
X60700696Y-49303480D01*
X61363689Y-49303808D01*
G37*
G36*
X46142436Y-50800014D02*
G01*
X46356403Y-50821190D01*
X46514633Y-50861281D01*
X46576471Y-50904456D01*
X46603529Y-51020270D01*
X46560944Y-51095988D01*
X46456691Y-51149056D01*
X46272530Y-51182476D01*
X46044769Y-51196246D01*
X45809716Y-51190368D01*
X45603681Y-51164840D01*
X45462970Y-51119664D01*
X45433023Y-51095988D01*
X45387393Y-50982705D01*
X45417497Y-50904456D01*
X45510262Y-50849974D01*
X45684951Y-50814406D01*
X45907147Y-50797752D01*
X46142436Y-50800014D01*
G37*
G36*
X42950162Y-46545429D02*
G01*
X42982987Y-46635109D01*
X43006623Y-46805688D01*
X43019805Y-47020464D01*
X43021270Y-47242738D01*
X43009754Y-47435808D01*
X42985110Y-47560145D01*
X42905702Y-47629047D01*
X42776886Y-47654427D01*
X42662300Y-47626112D01*
X42647641Y-47614075D01*
X42628200Y-47538242D01*
X42615493Y-47379386D01*
X42609636Y-47172160D01*
X42610746Y-46951222D01*
X42618939Y-46751227D01*
X42634332Y-46606829D01*
X42644124Y-46567929D01*
X42726702Y-46488278D01*
X42851328Y-46486363D01*
X42950162Y-46545429D01*
G37*
G36*
X43613618Y-53629052D02*
G01*
X43676308Y-53674078D01*
X43706734Y-53782688D01*
X43723361Y-53965504D01*
X43726859Y-54185729D01*
X43717900Y-54406564D01*
X43697154Y-54591212D01*
X43665292Y-54702874D01*
X43657355Y-54713503D01*
X43540617Y-54775416D01*
X43416792Y-54771612D01*
X43340620Y-54705630D01*
X43328673Y-54613160D01*
X43323368Y-54436155D01*
X43325450Y-54207801D01*
X43327737Y-54131036D01*
X43338149Y-53889104D01*
X43353687Y-53740645D01*
X43381809Y-53661293D01*
X43429978Y-53626679D01*
X43485679Y-53615145D01*
X43613618Y-53629052D01*
G37*
G36*
X46278811Y-50080083D02*
G01*
X46444029Y-50114083D01*
X46523169Y-50162214D01*
X46605300Y-50269906D01*
X46590901Y-50357926D01*
X46545058Y-50411415D01*
X46448360Y-50448774D01*
X46270912Y-50472417D01*
X46049025Y-50482344D01*
X45819014Y-50478555D01*
X45617192Y-50461049D01*
X45479872Y-50429827D01*
X45448910Y-50411415D01*
X45373276Y-50289401D01*
X45408260Y-50191076D01*
X45548393Y-50119722D01*
X45788206Y-50078622D01*
X46018366Y-50069605D01*
X46278811Y-50080083D01*
G37*
G36*
X39188834Y-50786000D02*
G01*
X39357309Y-50816182D01*
X39451243Y-50869406D01*
X39524607Y-50951011D01*
X39543852Y-50983062D01*
X39507593Y-51035995D01*
X39451243Y-51096718D01*
X39362030Y-51148475D01*
X39208202Y-51176627D01*
X38965954Y-51185016D01*
X38906115Y-51184674D01*
X38679363Y-51178750D01*
X38494867Y-51167358D01*
X38387618Y-51152785D01*
X38379930Y-51150297D01*
X38318369Y-51072442D01*
X38311994Y-50950608D01*
X38357431Y-50843102D01*
X38399484Y-50812569D01*
X38502108Y-50794932D01*
X38684511Y-50782154D01*
X38908627Y-50776825D01*
X38925668Y-50776798D01*
X39188834Y-50786000D01*
G37*
G36*
X41594239Y-54126941D02*
G01*
X41590815Y-54450116D01*
X41552526Y-54664155D01*
X41477139Y-54773182D01*
X41362420Y-54781317D01*
X41265197Y-54734136D01*
X41226206Y-54668152D01*
X41206061Y-54522004D01*
X41203176Y-54280251D01*
X41206264Y-54160445D01*
X41223434Y-53635034D01*
X41577030Y-53635034D01*
X41594239Y-54126941D01*
G37*
G36*
X46142436Y-49385629D02*
G01*
X46356403Y-49406805D01*
X46514633Y-49446896D01*
X46576471Y-49490071D01*
X46603529Y-49605885D01*
X46560944Y-49681603D01*
X46456691Y-49734671D01*
X46272530Y-49768091D01*
X46044769Y-49781861D01*
X45809716Y-49775983D01*
X45603681Y-49750455D01*
X45462970Y-49705278D01*
X45433023Y-49681603D01*
X45387393Y-49568320D01*
X45417497Y-49490071D01*
X45510262Y-49435588D01*
X45684951Y-49400020D01*
X45907147Y-49383367D01*
X46142436Y-49385629D01*
G37*
G36*
X41497570Y-46525358D02*
G01*
X41549212Y-46665712D01*
X41573423Y-46904088D01*
X41577030Y-47099926D01*
X41575717Y-47349383D01*
X41567435Y-47504566D01*
X41545668Y-47589066D01*
X41503900Y-47626473D01*
X41435615Y-47640378D01*
X41427493Y-47641336D01*
X41298762Y-47639764D01*
X41235962Y-47616781D01*
X41217189Y-47542550D01*
X41202747Y-47379880D01*
X41194825Y-47158179D01*
X41193968Y-47052365D01*
X41197687Y-46793227D01*
X41211453Y-46629117D01*
X41239172Y-46537358D01*
X41284752Y-46495271D01*
X41290377Y-46492947D01*
X41413093Y-46471584D01*
X41497570Y-46525358D01*
G37*
G36*
X42184376Y-46512978D02*
G01*
X42186030Y-46514016D01*
X42234943Y-46566959D01*
X42264961Y-46666311D01*
X42280062Y-46835804D01*
X42284223Y-47099169D01*
X42284223Y-47099926D01*
X42283020Y-47349318D01*
X42274925Y-47504453D01*
X42253205Y-47588936D01*
X42211127Y-47626376D01*
X42141959Y-47640379D01*
X42129686Y-47641819D01*
X41987811Y-47621948D01*
X41938155Y-47563333D01*
X41919841Y-47458852D01*
X41906612Y-47275128D01*
X41901179Y-47050758D01*
X41901160Y-47036966D01*
X41918602Y-46739390D01*
X41971273Y-46553501D01*
X42059692Y-46478347D01*
X42184376Y-46512978D01*
G37*
X66790000Y-31810000D02*
G75*
G03*
X66790000Y-31810000I-950000J0D01*
G01*
X16015000Y-5735000D02*
X18300000Y-5735000D01*
X16015000Y-4265000D02*
X16015000Y-5735000D01*
X18300000Y-4265000D02*
X16015000Y-4265000D01*
X10620000Y-28420000D02*
X7590000Y-28420000D01*
X10620000Y-21580000D02*
X7590000Y-21580000D01*
X6290000Y-21580000D02*
X3380000Y-21580000D01*
X10620000Y-28420000D02*
X10620000Y-21580000D01*
X6290000Y-28420000D02*
X3380000Y-28420000D01*
X3380000Y-28420000D02*
X3380000Y-21580000D01*
X55395000Y-11845000D02*
X57995000Y-11845000D01*
X55395000Y-34765000D02*
X60595000Y-34765000D01*
X57995000Y-11845000D02*
X57995000Y-9245000D01*
X57995000Y-9245000D02*
X60595000Y-9245000D01*
X60595000Y-9245000D02*
X60595000Y-34765000D01*
X55395000Y-9245000D02*
X56725000Y-9245000D01*
X55395000Y-10575000D02*
X55395000Y-9245000D01*
X55395000Y-11845000D02*
X55395000Y-34765000D01*
X44603641Y-43295000D02*
X44296359Y-43295000D01*
X44603641Y-44055000D02*
X44296359Y-44055000D01*
X23290000Y-15630000D02*
G75*
G03*
X23290000Y-15630000I-950000J0D01*
G01*
X51485000Y-40735000D02*
X51485000Y-39265000D01*
X49200000Y-40735000D02*
X51485000Y-40735000D01*
X51485000Y-39265000D02*
X49200000Y-39265000D01*
X23212500Y-52635000D02*
X22562500Y-52635000D01*
X23212500Y-52635000D02*
X24887500Y-52635000D01*
X23212500Y-49515000D02*
X22562500Y-49515000D01*
X23212500Y-49515000D02*
X23862500Y-49515000D01*
X51070000Y-46470000D02*
G75*
G03*
X51070000Y-46470000I-950000J0D01*
G01*
X26080000Y-51696359D02*
X26080000Y-52003641D01*
X25320000Y-51696359D02*
X25320000Y-52003641D01*
X23200000Y-46040000D02*
X23850000Y-46040000D01*
X23200000Y-49160000D02*
X24875000Y-49160000D01*
X23200000Y-46040000D02*
X22550000Y-46040000D01*
X23200000Y-49160000D02*
X22550000Y-49160000D01*
X57890000Y-42960000D02*
G75*
G03*
X57890000Y-42960000I-950000J0D01*
G01*
X59760000Y-52883641D02*
X59760000Y-52576359D01*
X59000000Y-52883641D02*
X59000000Y-52576359D01*
X22100000Y-7250000D02*
G75*
G03*
X22100000Y-7250000I-950000J0D01*
G01*
D13*
X15000000Y-19000000D02*
X13500000Y-19000000D01*
X13500000Y-19000000D02*
X13500000Y-17500000D01*
X13500000Y-17500000D02*
X15000000Y-17500000D01*
X15000000Y-17500000D02*
X15000000Y-19000000D01*
D12*
X8000000Y-16000000D02*
G75*
G03*
X10000000Y-16828427I2000000J1999999D01*
G01*
X15171605Y-17042121D02*
G75*
G03*
X10000000Y-20000000I-5171605J3042121D01*
G01*
X12000000Y-12000000D02*
G75*
G03*
X10000000Y-11171573I-2000000J-2000000D01*
G01*
X14550000Y-14000000D02*
G75*
G03*
X14550000Y-14000000I-4550000J0D01*
G01*
X18320000Y-11550000D02*
G75*
G03*
X18320000Y-11550000I-950000J0D01*
G01*
X16480000Y-62050000D02*
X17080000Y-61450000D01*
X8825000Y-61270000D02*
X8825000Y-60635000D01*
X8900000Y-62050000D02*
X6920000Y-60650000D01*
X17080000Y-58550000D02*
X17080000Y-61450000D01*
X9460000Y-61270000D02*
X8825000Y-61270000D01*
X6920000Y-59350000D02*
X8900000Y-57950000D01*
X6920000Y-60650000D02*
X6920000Y-59350000D01*
X8900000Y-57950000D02*
X16480000Y-57950000D01*
X16480000Y-57950000D02*
X17080000Y-58550000D01*
X16480000Y-62050000D02*
X8900000Y-62050000D01*
%LPC*%
D14*
X16850000Y-51000000D03*
X16850000Y-53000000D03*
D15*
X11100000Y-55350000D03*
X11100000Y-48650000D03*
D16*
X5000000Y-65000000D03*
D17*
X5000000Y-65000000D03*
D16*
X5000000Y-5000000D03*
D17*
X5000000Y-5000000D03*
D18*
X47750000Y-34775000D03*
D19*
X24000000Y-22000000D03*
X46000000Y-22000000D03*
D18*
X51736000Y-15668000D03*
D20*
X25675000Y-47865000D03*
X25675000Y-48885000D03*
D21*
X63100000Y-25150000D03*
X63100000Y-18850000D03*
X66900000Y-18850000D03*
X66900000Y-25150000D03*
D22*
X6350000Y-36475000D03*
X6350000Y-34425000D03*
D23*
X37430000Y-63525000D03*
X36470000Y-63525000D03*
D24*
X45787500Y-45000000D03*
X44212500Y-45000000D03*
D25*
X46570000Y-37100000D03*
X47590000Y-37100000D03*
D26*
X8437500Y-46000000D03*
X10012500Y-46000000D03*
D18*
X12230000Y-43670000D03*
X22350000Y-11950000D03*
D26*
X16712500Y-37500000D03*
X18287500Y-37500000D03*
D18*
X52100000Y-29250000D03*
X20670000Y-55980000D03*
X47825000Y-31225000D03*
X11200000Y-66290000D03*
X10250000Y-34840000D03*
D27*
X26400000Y-7500000D03*
X33600000Y-7500000D03*
X32250000Y-5000000D03*
X27750000Y-5000000D03*
D18*
X14025000Y-66275000D03*
D26*
X51712500Y-37500000D03*
X53287500Y-37500000D03*
D18*
X51975000Y-33550000D03*
D28*
X43330000Y-37100000D03*
X44290000Y-37100000D03*
D26*
X19212500Y-2500000D03*
X20787500Y-2500000D03*
D29*
X51967500Y-13500000D03*
X51967500Y-12850000D03*
X51967500Y-12200000D03*
X50392500Y-12200000D03*
X50392500Y-12850000D03*
X50392500Y-13500000D03*
D24*
X20787500Y-40000000D03*
X19212500Y-40000000D03*
D26*
X11487500Y-46000000D03*
X13062500Y-46000000D03*
D18*
X21500000Y-61350000D03*
D23*
X52360000Y-11050000D03*
X51400000Y-11050000D03*
D30*
X6150000Y-40587500D03*
X7100000Y-40587500D03*
X8050000Y-40587500D03*
X8050000Y-38312500D03*
X7100000Y-38312500D03*
X6150000Y-38312500D03*
D31*
X17200000Y-67300000D03*
X17200000Y-68260000D03*
D32*
X14940000Y-22460000D03*
X12400000Y-25000000D03*
X14940000Y-27540000D03*
D33*
X40750000Y-61850000D03*
X40250000Y-61850000D03*
X39750000Y-61850000D03*
X39250000Y-61850000D03*
X38750000Y-61850000D03*
X38250000Y-61850000D03*
X37750000Y-61850000D03*
X37250000Y-61850000D03*
X36750000Y-61850000D03*
X36250000Y-61850000D03*
X35750000Y-61850000D03*
X35250000Y-61850000D03*
X34750000Y-61850000D03*
X34250000Y-61850000D03*
X33750000Y-61850000D03*
X33250000Y-61850000D03*
X32750000Y-61850000D03*
X32250000Y-61850000D03*
X31750000Y-61850000D03*
X31250000Y-61850000D03*
X30750000Y-61850000D03*
X30250000Y-61850000D03*
X29750000Y-61850000D03*
X29250000Y-61850000D03*
D34*
X42650000Y-58600000D03*
X27350000Y-58600000D03*
D18*
X53910000Y-42900000D03*
X9600000Y-43680000D03*
X24550000Y-61350000D03*
X13275000Y-37300000D03*
X22210000Y-64110000D03*
D26*
X49212500Y-2500000D03*
X50787500Y-2500000D03*
D18*
X24290000Y-55970000D03*
X57720000Y-6440000D03*
X41340000Y-39850000D03*
D35*
X16200000Y-68310000D03*
X16200000Y-67290000D03*
D18*
X47150000Y-41075000D03*
X52350000Y-19925000D03*
X4420000Y-31130000D03*
D26*
X51712500Y-5000000D03*
X53287500Y-5000000D03*
D27*
X44600000Y-7500000D03*
X37400000Y-7500000D03*
X43250000Y-5000000D03*
X38750000Y-5000000D03*
D21*
X63100000Y-9850000D03*
X63100000Y-16150000D03*
X66900000Y-16150000D03*
X66900000Y-9850000D03*
D18*
X52025000Y-24825000D03*
D36*
X15375000Y-34500000D03*
X16625000Y-34500000D03*
D37*
X4150000Y-38450000D03*
X4150000Y-39100000D03*
X4150000Y-39750000D03*
X4150000Y-40400000D03*
X4150000Y-41050000D03*
D38*
X1450000Y-38750000D03*
D39*
X1450000Y-42650000D03*
D38*
X1450000Y-40750000D03*
D40*
X1450000Y-36250000D03*
D41*
X4150000Y-42250000D03*
D39*
X1450000Y-36850000D03*
D41*
X4150000Y-37250000D03*
D40*
X1450000Y-43250000D03*
D18*
X65840000Y-31810000D03*
D26*
X16712500Y-5000000D03*
X18287500Y-5000000D03*
D32*
X6940000Y-22460000D03*
X4400000Y-25000000D03*
X6940000Y-27540000D03*
D17*
X65000000Y-5000000D03*
D16*
X65000000Y-5000000D03*
D42*
X56725000Y-10575000D03*
D43*
X59265000Y-10575000D03*
X56725000Y-13115000D03*
X59265000Y-13115000D03*
X56725000Y-15655000D03*
X59265000Y-15655000D03*
X56725000Y-18195000D03*
X59265000Y-18195000D03*
X56725000Y-20735000D03*
X59265000Y-20735000D03*
X56725000Y-23275000D03*
X59265000Y-23275000D03*
X56725000Y-25815000D03*
X59265000Y-25815000D03*
X56725000Y-28355000D03*
X59265000Y-28355000D03*
X56725000Y-30895000D03*
X59265000Y-30895000D03*
X56725000Y-33435000D03*
X59265000Y-33435000D03*
D44*
X44960000Y-43675000D03*
X43940000Y-43675000D03*
D18*
X22340000Y-15630000D03*
D24*
X50787500Y-40000000D03*
X49212500Y-40000000D03*
D45*
X24150000Y-52025000D03*
X24150000Y-50125000D03*
X22275000Y-51075000D03*
D18*
X50120000Y-46470000D03*
D17*
X65000000Y-65000000D03*
D16*
X65000000Y-65000000D03*
D20*
X25700000Y-51340000D03*
X25700000Y-52360000D03*
D45*
X24137500Y-48550000D03*
X24137500Y-46650000D03*
X22262500Y-47600000D03*
D18*
X56940000Y-42960000D03*
D35*
X59380000Y-53240000D03*
X59380000Y-52220000D03*
D18*
X21150000Y-7250000D03*
D46*
X11123152Y-16691848D03*
D47*
X12700000Y-15115000D03*
X12700000Y-12885000D03*
X8876848Y-11308152D03*
X7300000Y-12885000D03*
X7300000Y-15115000D03*
D18*
X17370000Y-11550000D03*
D48*
X15810000Y-61016000D03*
X15810000Y-58984000D03*
X8190000Y-60000000D03*
D49*
X9460000Y-60635000D03*
X10730000Y-60635000D03*
X12000000Y-60635000D03*
X13270000Y-60635000D03*
X14540000Y-60635000D03*
X14540000Y-59365000D03*
X13270000Y-59365000D03*
X12000000Y-59365000D03*
X10730000Y-59365000D03*
X9460000Y-59365000D03*
D50*
X54960000Y-47230000D03*
X54960000Y-48630000D03*
X54260000Y-47930000D03*
X54960000Y-45830000D03*
X52860000Y-47930000D03*
X55660000Y-47930000D03*
X52860000Y-46530000D03*
X54260000Y-46530000D03*
X53560000Y-45830000D03*
X53560000Y-47230000D03*
X55660000Y-46530000D03*
X53560000Y-48630000D03*
M02*
