%TF.GenerationSoftware,KiCad,Pcbnew,(6.0.10)*%
%TF.CreationDate,2023-01-09T17:37:14-08:00*%
%TF.ProjectId,ai-camera,61692d63-616d-4657-9261-2e6b69636164,rev?*%
%TF.SameCoordinates,PX5a995c0PY2aea540*%
%TF.FileFunction,Soldermask,Bot*%
%TF.FilePolarity,Negative*%
%FSLAX46Y46*%
G04 Gerber Fmt 4.6, Leading zero omitted, Abs format (unit mm)*
G04 Created by KiCad (PCBNEW (6.0.10)) date 2023-01-09 17:37:14*
%MOMM*%
%LPD*%
G01*
G04 APERTURE LIST*
G04 Aperture macros list*
%AMRoundRect*
0 Rectangle with rounded corners*
0 $1 Rounding radius*
0 $2 $3 $4 $5 $6 $7 $8 $9 X,Y pos of 4 corners*
0 Add a 4 corners polygon primitive as box body*
4,1,4,$2,$3,$4,$5,$6,$7,$8,$9,$2,$3,0*
0 Add four circle primitives for the rounded corners*
1,1,$1+$1,$2,$3*
1,1,$1+$1,$4,$5*
1,1,$1+$1,$6,$7*
1,1,$1+$1,$8,$9*
0 Add four rect primitives between the rounded corners*
20,1,$1+$1,$2,$3,$4,$5,0*
20,1,$1+$1,$4,$5,$6,$7,0*
20,1,$1+$1,$6,$7,$8,$9,0*
20,1,$1+$1,$8,$9,$2,$3,0*%
%AMFreePoly0*
4,1,22,0.500000,-0.750000,0.000000,-0.750000,0.000000,-0.745033,-0.079941,-0.743568,-0.215256,-0.701293,-0.333266,-0.622738,-0.424486,-0.514219,-0.481581,-0.384460,-0.499164,-0.250000,-0.500000,-0.250000,-0.500000,0.250000,-0.499164,0.250000,-0.499963,0.256109,-0.478152,0.396186,-0.417904,0.524511,-0.324060,0.630769,-0.204165,0.706417,-0.067858,0.745374,0.000000,0.744959,0.000000,0.750000,
0.500000,0.750000,0.500000,-0.750000,0.500000,-0.750000,$1*%
%AMFreePoly1*
4,1,20,0.000000,0.744959,0.073905,0.744508,0.209726,0.703889,0.328688,0.626782,0.421226,0.519385,0.479903,0.390333,0.500000,0.250000,0.500000,-0.250000,0.499851,-0.262216,0.476331,-0.402017,0.414519,-0.529596,0.319384,-0.634700,0.198574,-0.708877,0.061801,-0.746166,0.000000,-0.745033,0.000000,-0.750000,-0.500000,-0.750000,-0.500000,0.750000,0.000000,0.750000,0.000000,0.744959,
0.000000,0.744959,$1*%
G04 Aperture macros list end*
%ADD10C,5.600000*%
%ADD11C,3.600000*%
%ADD12C,4.000000*%
%ADD13C,1.700000*%
%ADD14C,1.440000*%
%ADD15C,0.800000*%
%ADD16O,1.550000X0.890000*%
%ADD17O,0.950000X1.250000*%
%ADD18R,1.700000X1.700000*%
%ADD19O,1.700000X1.700000*%
%ADD20R,1.524000X1.524000*%
%ADD21C,1.524000*%
%ADD22C,0.990600*%
%ADD23RoundRect,0.150000X-0.587500X-0.150000X0.587500X-0.150000X0.587500X0.150000X-0.587500X0.150000X0*%
%ADD24RoundRect,0.250000X0.475000X-0.250000X0.475000X0.250000X-0.475000X0.250000X-0.475000X-0.250000X0*%
%ADD25R,1.100000X3.700000*%
%ADD26RoundRect,0.225000X0.250000X-0.225000X0.250000X0.225000X-0.250000X0.225000X-0.250000X-0.225000X0*%
%ADD27RoundRect,0.140000X0.170000X-0.140000X0.170000X0.140000X-0.170000X0.140000X-0.170000X-0.140000X0*%
%ADD28RoundRect,0.135000X0.185000X-0.135000X0.185000X0.135000X-0.185000X0.135000X-0.185000X-0.135000X0*%
%ADD29RoundRect,0.135000X0.135000X0.185000X-0.135000X0.185000X-0.135000X-0.185000X0.135000X-0.185000X0*%
%ADD30R,0.900000X1.500000*%
%ADD31R,1.500000X0.900000*%
%ADD32C,0.600000*%
%ADD33R,3.900000X3.900000*%
%ADD34RoundRect,0.140000X0.140000X0.170000X-0.140000X0.170000X-0.140000X-0.170000X0.140000X-0.170000X0*%
%ADD35R,1.800000X1.000000*%
%ADD36RoundRect,0.225000X0.225000X0.250000X-0.225000X0.250000X-0.225000X-0.250000X0.225000X-0.250000X0*%
%ADD37RoundRect,0.140000X-0.170000X0.140000X-0.170000X-0.140000X0.170000X-0.140000X0.170000X0.140000X0*%
%ADD38R,0.900000X1.200000*%
%ADD39RoundRect,0.135000X-0.135000X-0.185000X0.135000X-0.185000X0.135000X0.185000X-0.135000X0.185000X0*%
%ADD40RoundRect,0.250000X0.250000X0.475000X-0.250000X0.475000X-0.250000X-0.475000X0.250000X-0.475000X0*%
%ADD41RoundRect,0.135000X-0.185000X0.135000X-0.185000X-0.135000X0.185000X-0.135000X0.185000X0.135000X0*%
%ADD42R,3.700000X1.100000*%
%ADD43RoundRect,0.150000X-0.150000X0.587500X-0.150000X-0.587500X0.150000X-0.587500X0.150000X0.587500X0*%
%ADD44RoundRect,0.140000X-0.140000X-0.170000X0.140000X-0.170000X0.140000X0.170000X-0.140000X0.170000X0*%
%ADD45FreePoly0,270.000000*%
%ADD46FreePoly1,270.000000*%
%ADD47RoundRect,0.150000X0.150000X-0.587500X0.150000X0.587500X-0.150000X0.587500X-0.150000X-0.587500X0*%
%ADD48FreePoly0,180.000000*%
%ADD49FreePoly1,180.000000*%
%ADD50RoundRect,0.150000X0.825000X0.150000X-0.825000X0.150000X-0.825000X-0.150000X0.825000X-0.150000X0*%
%ADD51RoundRect,0.150000X-0.150000X0.512500X-0.150000X-0.512500X0.150000X-0.512500X0.150000X0.512500X0*%
%ADD52RoundRect,0.225000X-0.250000X0.225000X-0.250000X-0.225000X0.250000X-0.225000X0.250000X0.225000X0*%
%ADD53R,1.200000X0.900000*%
%ADD54RoundRect,0.225000X-0.225000X-0.250000X0.225000X-0.250000X0.225000X0.250000X-0.225000X0.250000X0*%
%ADD55RoundRect,0.150000X0.512500X0.150000X-0.512500X0.150000X-0.512500X-0.150000X0.512500X-0.150000X0*%
%ADD56RoundRect,0.250000X-0.250000X-0.475000X0.250000X-0.475000X0.250000X0.475000X-0.250000X0.475000X0*%
%ADD57RoundRect,0.150000X-0.512500X-0.150000X0.512500X-0.150000X0.512500X0.150000X-0.512500X0.150000X0*%
%ADD58RoundRect,0.250000X0.262500X0.450000X-0.262500X0.450000X-0.262500X-0.450000X0.262500X-0.450000X0*%
%ADD59RoundRect,0.150000X0.150000X-0.512500X0.150000X0.512500X-0.150000X0.512500X-0.150000X-0.512500X0*%
G04 APERTURE END LIST*
D10*
X5000000Y-65000000D03*
D11*
X5000000Y-65000000D03*
X5000000Y-5000000D03*
D10*
X5000000Y-5000000D03*
D12*
X24000000Y-22000000D03*
X46000000Y-22000000D03*
D13*
X26400000Y-7500000D03*
X33600000Y-7500000D03*
X32250000Y-5000000D03*
X27750000Y-5000000D03*
D14*
X14940000Y-22460000D03*
X12400000Y-25000000D03*
X14940000Y-27540000D03*
D13*
X44600000Y-7500000D03*
X37400000Y-7500000D03*
X43250000Y-5000000D03*
X38750000Y-5000000D03*
D15*
X15375000Y-34500000D03*
X16625000Y-34500000D03*
D16*
X1450000Y-36250000D03*
D17*
X4150000Y-42250000D03*
X4150000Y-37250000D03*
D16*
X1450000Y-43250000D03*
D14*
X6940000Y-22460000D03*
X4400000Y-25000000D03*
X6940000Y-27540000D03*
D11*
X65000000Y-5000000D03*
D10*
X65000000Y-5000000D03*
D18*
X56725000Y-10575000D03*
D19*
X59265000Y-10575000D03*
X56725000Y-13115000D03*
X59265000Y-13115000D03*
X56725000Y-15655000D03*
X59265000Y-15655000D03*
X56725000Y-18195000D03*
X59265000Y-18195000D03*
X56725000Y-20735000D03*
X59265000Y-20735000D03*
X56725000Y-23275000D03*
X59265000Y-23275000D03*
X56725000Y-25815000D03*
X59265000Y-25815000D03*
X56725000Y-28355000D03*
X59265000Y-28355000D03*
X56725000Y-30895000D03*
X59265000Y-30895000D03*
X56725000Y-33435000D03*
X59265000Y-33435000D03*
D11*
X65000000Y-65000000D03*
D10*
X65000000Y-65000000D03*
D20*
X11123152Y-16691848D03*
D21*
X12700000Y-15115000D03*
X12700000Y-12885000D03*
X8876848Y-11308152D03*
X7300000Y-12885000D03*
X7300000Y-15115000D03*
D22*
X15810000Y-61016000D03*
X15810000Y-58984000D03*
X8190000Y-60000000D03*
D23*
X18772500Y-20540000D03*
X18772500Y-18640000D03*
X20647500Y-19590000D03*
D24*
X8450000Y-54850000D03*
X8450000Y-52950000D03*
D25*
X25230000Y-45360000D03*
X28230000Y-45360000D03*
D26*
X41790000Y-36185000D03*
X41790000Y-34635000D03*
D27*
X50750000Y-60730000D03*
X50750000Y-59770000D03*
D28*
X23275000Y-43635000D03*
X23275000Y-42615000D03*
D29*
X17790000Y-54970000D03*
X16770000Y-54970000D03*
D30*
X61980000Y-54480000D03*
X60710000Y-54480000D03*
X59440000Y-54480000D03*
X58170000Y-54480000D03*
X56900000Y-54480000D03*
X55630000Y-54480000D03*
X54360000Y-54480000D03*
X53090000Y-54480000D03*
X51820000Y-54480000D03*
X50550000Y-54480000D03*
X49280000Y-54480000D03*
X48010000Y-54480000D03*
X46740000Y-54480000D03*
X45470000Y-54480000D03*
D31*
X44220000Y-52715000D03*
X44220000Y-51445000D03*
X44220000Y-50175000D03*
X44220000Y-48905000D03*
X44220000Y-47635000D03*
X44220000Y-46365000D03*
X44220000Y-45095000D03*
X44220000Y-43825000D03*
X44220000Y-42555000D03*
X44220000Y-41285000D03*
X44220000Y-40015000D03*
X44220000Y-38745000D03*
D30*
X45470000Y-36980000D03*
X46740000Y-36980000D03*
X48010000Y-36980000D03*
X49280000Y-36980000D03*
X50550000Y-36980000D03*
X51820000Y-36980000D03*
X53090000Y-36980000D03*
X54360000Y-36980000D03*
X55630000Y-36980000D03*
X56900000Y-36980000D03*
X58170000Y-36980000D03*
X59440000Y-36980000D03*
X60710000Y-36980000D03*
X61980000Y-36980000D03*
D32*
X54960000Y-47230000D03*
D33*
X54260000Y-47230000D03*
D32*
X54960000Y-48630000D03*
X54260000Y-47930000D03*
X54960000Y-45830000D03*
X52860000Y-47930000D03*
X55660000Y-47930000D03*
X52860000Y-46530000D03*
X54260000Y-46530000D03*
X53560000Y-45830000D03*
X53560000Y-47230000D03*
X55660000Y-46530000D03*
X53560000Y-48630000D03*
D34*
X10155000Y-30875000D03*
X9195000Y-30875000D03*
D35*
X59925000Y-62275000D03*
X59925000Y-59775000D03*
D36*
X18250000Y-30100000D03*
X16700000Y-30100000D03*
D37*
X46580000Y-25130000D03*
X46580000Y-26090000D03*
D38*
X9425000Y-45125000D03*
X6125000Y-45125000D03*
D39*
X9190000Y-29825000D03*
X10210000Y-29825000D03*
D36*
X13645000Y-2955000D03*
X12095000Y-2955000D03*
D40*
X17600000Y-31900000D03*
X15700000Y-31900000D03*
D37*
X61620000Y-56030000D03*
X61620000Y-56990000D03*
D26*
X29750000Y-66150000D03*
X29750000Y-64600000D03*
D23*
X13775000Y-39175000D03*
X13775000Y-37275000D03*
X15650000Y-38225000D03*
D27*
X10720000Y-10060000D03*
X10720000Y-9100000D03*
D28*
X12550000Y-50985000D03*
X12550000Y-49965000D03*
X50750000Y-64635000D03*
X50750000Y-63615000D03*
D37*
X34260000Y-61130000D03*
X34260000Y-62090000D03*
D26*
X29440000Y-61845000D03*
X29440000Y-60295000D03*
D41*
X45800000Y-60110000D03*
X45800000Y-61130000D03*
D34*
X16500000Y-8392500D03*
X15540000Y-8392500D03*
D42*
X41240000Y-33070000D03*
X41240000Y-30070000D03*
D41*
X13350000Y-21690000D03*
X13350000Y-22710000D03*
D43*
X31325000Y-63987500D03*
X33225000Y-63987500D03*
X32275000Y-65862500D03*
D41*
X8525000Y-21615000D03*
X8525000Y-22635000D03*
D29*
X16005000Y-3167500D03*
X14985000Y-3167500D03*
D44*
X18120000Y-45010000D03*
X19080000Y-45010000D03*
D45*
X11450000Y-42575000D03*
D46*
X11450000Y-43875000D03*
D39*
X18090000Y-43970000D03*
X19110000Y-43970000D03*
D24*
X39970000Y-36590000D03*
X39970000Y-34690000D03*
D28*
X17235000Y-20850000D03*
X17235000Y-19830000D03*
D37*
X15425000Y-29445000D03*
X15425000Y-30405000D03*
D47*
X14020000Y-6617500D03*
X12120000Y-6617500D03*
X13070000Y-4742500D03*
D37*
X62630000Y-56020000D03*
X62630000Y-56980000D03*
D29*
X19100000Y-42930000D03*
X18080000Y-42930000D03*
D48*
X19070000Y-22850000D03*
D49*
X17770000Y-22850000D03*
D50*
X57475000Y-59795000D03*
X57475000Y-61065000D03*
X57475000Y-62335000D03*
X57475000Y-63605000D03*
X52525000Y-63605000D03*
X52525000Y-62335000D03*
X52525000Y-61065000D03*
X52525000Y-59795000D03*
D51*
X44395000Y-30692500D03*
X45345000Y-30692500D03*
X46295000Y-30692500D03*
X46295000Y-32967500D03*
X45345000Y-32967500D03*
X44395000Y-32967500D03*
D52*
X46850000Y-27365000D03*
X46850000Y-28915000D03*
D51*
X15620000Y-4655000D03*
X16570000Y-4655000D03*
X17520000Y-4655000D03*
X17520000Y-6930000D03*
X16570000Y-6930000D03*
X15620000Y-6930000D03*
D39*
X16935000Y-3167500D03*
X17955000Y-3167500D03*
D38*
X9425000Y-42725000D03*
X6125000Y-42725000D03*
D23*
X47337500Y-62325000D03*
X47337500Y-60425000D03*
X49212500Y-61375000D03*
D41*
X12237500Y-40015000D03*
X12237500Y-41035000D03*
D28*
X11212500Y-41035000D03*
X11212500Y-40015000D03*
D53*
X44810000Y-25640000D03*
X44810000Y-28940000D03*
D54*
X61865000Y-58230000D03*
X63415000Y-58230000D03*
D28*
X46560000Y-35380000D03*
X46560000Y-34360000D03*
D41*
X45800000Y-63630000D03*
X45800000Y-64650000D03*
D26*
X60350000Y-57865000D03*
X60350000Y-56315000D03*
D54*
X12095000Y-8430000D03*
X13645000Y-8430000D03*
D37*
X54230000Y-34360000D03*
X54230000Y-35320000D03*
D55*
X22835000Y-44910000D03*
X22835000Y-45860000D03*
X22835000Y-46810000D03*
X20560000Y-46810000D03*
X20560000Y-44910000D03*
D52*
X48400000Y-27355000D03*
X48400000Y-28905000D03*
D39*
X13940000Y-50240000D03*
X14960000Y-50240000D03*
D40*
X24690000Y-48630000D03*
X22790000Y-48630000D03*
D56*
X18700000Y-48620000D03*
X20600000Y-48620000D03*
D26*
X24695000Y-66125000D03*
X24695000Y-64575000D03*
D34*
X10155000Y-31925000D03*
X9195000Y-31925000D03*
D57*
X11637500Y-31650000D03*
X11637500Y-30700000D03*
X11637500Y-29750000D03*
X13912500Y-29750000D03*
X13912500Y-30700000D03*
X13912500Y-31650000D03*
D41*
X50750000Y-61665000D03*
X50750000Y-62685000D03*
D37*
X33270000Y-61140000D03*
X33270000Y-62100000D03*
D38*
X16850000Y-44650000D03*
X13550000Y-44650000D03*
D56*
X61910000Y-60030000D03*
X63810000Y-60030000D03*
D28*
X11600000Y-51010000D03*
X11600000Y-49990000D03*
D39*
X13940000Y-49190000D03*
X14960000Y-49190000D03*
D52*
X10275000Y-49150000D03*
X10275000Y-50700000D03*
D26*
X31990000Y-61845000D03*
X31990000Y-60295000D03*
D41*
X17260000Y-16355000D03*
X17260000Y-17375000D03*
D26*
X11987500Y-38800000D03*
X11987500Y-37250000D03*
D40*
X24680000Y-50690000D03*
X22780000Y-50690000D03*
D52*
X34760000Y-63735000D03*
X34760000Y-65285000D03*
D58*
X20237500Y-40650000D03*
X18412500Y-40650000D03*
D43*
X26245000Y-63987500D03*
X28145000Y-63987500D03*
X27195000Y-65862500D03*
D37*
X30710000Y-61120000D03*
X30710000Y-62080000D03*
D23*
X47337500Y-65850000D03*
X47337500Y-63950000D03*
X49212500Y-64900000D03*
D59*
X12175000Y-54712500D03*
X11225000Y-54712500D03*
X10275000Y-54712500D03*
X10275000Y-52437500D03*
X11225000Y-52437500D03*
X12175000Y-52437500D03*
D23*
X18797500Y-17040000D03*
X18797500Y-15140000D03*
X20672500Y-16090000D03*
D27*
X44100000Y-35330000D03*
X44100000Y-34370000D03*
D39*
X16760000Y-53950000D03*
X17780000Y-53950000D03*
D23*
X13775000Y-42650000D03*
X13775000Y-40750000D03*
X15650000Y-41700000D03*
M02*
