%TF.GenerationSoftware,KiCad,Pcbnew,(6.0.10)*%
%TF.CreationDate,2023-01-06T19:14:31-08:00*%
%TF.ProjectId,ai-camera,61692d63-616d-4657-9261-2e6b69636164,rev?*%
%TF.SameCoordinates,PX5f5e100PY2faf080*%
%TF.FileFunction,AssemblyDrawing,Bot*%
%FSLAX46Y46*%
G04 Gerber Fmt 4.6, Leading zero omitted, Abs format (unit mm)*
G04 Created by KiCad (PCBNEW (6.0.10)) date 2023-01-06 19:14:31*
%MOMM*%
%LPD*%
G01*
G04 APERTURE LIST*
%ADD10C,0.050000*%
%ADD11C,0.080000*%
%ADD12C,0.075000*%
%ADD13C,0.060000*%
%ADD14C,0.040000*%
%ADD15C,0.150000*%
%ADD16C,0.100000*%
G04 APERTURE END LIST*
D10*
X14740476Y-14765238D02*
X14770952Y-14750000D01*
X14801428Y-14719523D01*
X14847142Y-14673809D01*
X14877619Y-14658571D01*
X14908095Y-14658571D01*
X14892857Y-14734761D02*
X14923333Y-14719523D01*
X14953809Y-14689047D01*
X14969047Y-14628095D01*
X14969047Y-14521428D01*
X14953809Y-14460476D01*
X14923333Y-14430000D01*
X14892857Y-14414761D01*
X14831904Y-14414761D01*
X14801428Y-14430000D01*
X14770952Y-14460476D01*
X14755714Y-14521428D01*
X14755714Y-14628095D01*
X14770952Y-14689047D01*
X14801428Y-14719523D01*
X14831904Y-14734761D01*
X14892857Y-14734761D01*
X14466190Y-14414761D02*
X14618571Y-14414761D01*
X14633809Y-14567142D01*
X14618571Y-14551904D01*
X14588095Y-14536666D01*
X14511904Y-14536666D01*
X14481428Y-14551904D01*
X14466190Y-14567142D01*
X14450952Y-14597619D01*
X14450952Y-14673809D01*
X14466190Y-14704285D01*
X14481428Y-14719523D01*
X14511904Y-14734761D01*
X14588095Y-14734761D01*
X14618571Y-14719523D01*
X14633809Y-14704285D01*
D11*
X3628571Y-48816666D02*
X3652380Y-48792857D01*
X3676190Y-48721428D01*
X3676190Y-48673809D01*
X3652380Y-48602380D01*
X3604761Y-48554761D01*
X3557142Y-48530952D01*
X3461904Y-48507142D01*
X3390476Y-48507142D01*
X3295238Y-48530952D01*
X3247619Y-48554761D01*
X3200000Y-48602380D01*
X3176190Y-48673809D01*
X3176190Y-48721428D01*
X3200000Y-48792857D01*
X3223809Y-48816666D01*
X3342857Y-49245238D02*
X3676190Y-49245238D01*
X3152380Y-49126190D02*
X3509523Y-49007142D01*
X3509523Y-49316666D01*
D12*
X21813333Y-40586190D02*
X22051428Y-40586190D01*
X22051428Y-40086190D01*
X21670476Y-40133809D02*
X21646666Y-40110000D01*
X21599047Y-40086190D01*
X21480000Y-40086190D01*
X21432380Y-40110000D01*
X21408571Y-40133809D01*
X21384761Y-40181428D01*
X21384761Y-40229047D01*
X21408571Y-40300476D01*
X21694285Y-40586190D01*
X21384761Y-40586190D01*
D13*
X36932857Y-30152857D02*
X36951904Y-30133809D01*
X36970952Y-30076666D01*
X36970952Y-30038571D01*
X36951904Y-29981428D01*
X36913809Y-29943333D01*
X36875714Y-29924285D01*
X36799523Y-29905238D01*
X36742380Y-29905238D01*
X36666190Y-29924285D01*
X36628095Y-29943333D01*
X36590000Y-29981428D01*
X36570952Y-30038571D01*
X36570952Y-30076666D01*
X36590000Y-30133809D01*
X36609047Y-30152857D01*
X36609047Y-30305238D02*
X36590000Y-30324285D01*
X36570952Y-30362380D01*
X36570952Y-30457619D01*
X36590000Y-30495714D01*
X36609047Y-30514761D01*
X36647142Y-30533809D01*
X36685238Y-30533809D01*
X36742380Y-30514761D01*
X36970952Y-30286190D01*
X36970952Y-30533809D01*
X36970952Y-30724285D02*
X36970952Y-30800476D01*
X36951904Y-30838571D01*
X36932857Y-30857619D01*
X36875714Y-30895714D01*
X36799523Y-30914761D01*
X36647142Y-30914761D01*
X36609047Y-30895714D01*
X36590000Y-30876666D01*
X36570952Y-30838571D01*
X36570952Y-30762380D01*
X36590000Y-30724285D01*
X36609047Y-30705238D01*
X36647142Y-30686190D01*
X36742380Y-30686190D01*
X36780476Y-30705238D01*
X36799523Y-30724285D01*
X36818571Y-30762380D01*
X36818571Y-30838571D01*
X36799523Y-30876666D01*
X36780476Y-30895714D01*
X36742380Y-30914761D01*
D14*
X45839285Y-55208333D02*
X45851190Y-55196428D01*
X45863095Y-55160714D01*
X45863095Y-55136904D01*
X45851190Y-55101190D01*
X45827380Y-55077380D01*
X45803571Y-55065476D01*
X45755952Y-55053571D01*
X45720238Y-55053571D01*
X45672619Y-55065476D01*
X45648809Y-55077380D01*
X45625000Y-55101190D01*
X45613095Y-55136904D01*
X45613095Y-55160714D01*
X45625000Y-55196428D01*
X45636904Y-55208333D01*
X45613095Y-55291666D02*
X45613095Y-55446428D01*
X45708333Y-55363095D01*
X45708333Y-55398809D01*
X45720238Y-55422619D01*
X45732142Y-55434523D01*
X45755952Y-55446428D01*
X45815476Y-55446428D01*
X45839285Y-55434523D01*
X45851190Y-55422619D01*
X45863095Y-55398809D01*
X45863095Y-55327380D01*
X45851190Y-55303571D01*
X45839285Y-55291666D01*
X18392619Y-37957857D02*
X18268809Y-37871190D01*
X18392619Y-37809285D02*
X18132619Y-37809285D01*
X18132619Y-37908333D01*
X18145000Y-37933095D01*
X18157380Y-37945476D01*
X18182142Y-37957857D01*
X18219285Y-37957857D01*
X18244047Y-37945476D01*
X18256428Y-37933095D01*
X18268809Y-37908333D01*
X18268809Y-37809285D01*
X18392619Y-38205476D02*
X18392619Y-38056904D01*
X18392619Y-38131190D02*
X18132619Y-38131190D01*
X18169761Y-38106428D01*
X18194523Y-38081666D01*
X18206904Y-38056904D01*
X18132619Y-38428333D02*
X18132619Y-38378809D01*
X18145000Y-38354047D01*
X18157380Y-38341666D01*
X18194523Y-38316904D01*
X18244047Y-38304523D01*
X18343095Y-38304523D01*
X18367857Y-38316904D01*
X18380238Y-38329285D01*
X18392619Y-38354047D01*
X18392619Y-38403571D01*
X18380238Y-38428333D01*
X18367857Y-38440714D01*
X18343095Y-38453095D01*
X18281190Y-38453095D01*
X18256428Y-38440714D01*
X18244047Y-38428333D01*
X18231666Y-38403571D01*
X18231666Y-38354047D01*
X18244047Y-38329285D01*
X18256428Y-38316904D01*
X18281190Y-38304523D01*
X12323333Y-50087619D02*
X12410000Y-49963809D01*
X12471904Y-50087619D02*
X12471904Y-49827619D01*
X12372857Y-49827619D01*
X12348095Y-49840000D01*
X12335714Y-49852380D01*
X12323333Y-49877142D01*
X12323333Y-49914285D01*
X12335714Y-49939047D01*
X12348095Y-49951428D01*
X12372857Y-49963809D01*
X12471904Y-49963809D01*
X12224285Y-49852380D02*
X12211904Y-49840000D01*
X12187142Y-49827619D01*
X12125238Y-49827619D01*
X12100476Y-49840000D01*
X12088095Y-49852380D01*
X12075714Y-49877142D01*
X12075714Y-49901904D01*
X12088095Y-49939047D01*
X12236666Y-50087619D01*
X12075714Y-50087619D01*
D15*
X52867619Y-41968095D02*
X52058095Y-41968095D01*
X51962857Y-41920476D01*
X51915238Y-41872857D01*
X51867619Y-41777619D01*
X51867619Y-41587142D01*
X51915238Y-41491904D01*
X51962857Y-41444285D01*
X52058095Y-41396666D01*
X52867619Y-41396666D01*
X51867619Y-40396666D02*
X51867619Y-40968095D01*
X51867619Y-40682380D02*
X52867619Y-40682380D01*
X52724761Y-40777619D01*
X52629523Y-40872857D01*
X52581904Y-40968095D01*
X51867619Y-39444285D02*
X51867619Y-40015714D01*
X51867619Y-39730000D02*
X52867619Y-39730000D01*
X52724761Y-39825238D01*
X52629523Y-39920476D01*
X52581904Y-40015714D01*
D14*
X4835714Y-25964285D02*
X4847619Y-25976190D01*
X4883333Y-25988095D01*
X4907142Y-25988095D01*
X4942857Y-25976190D01*
X4966666Y-25952380D01*
X4978571Y-25928571D01*
X4990476Y-25880952D01*
X4990476Y-25845238D01*
X4978571Y-25797619D01*
X4966666Y-25773809D01*
X4942857Y-25750000D01*
X4907142Y-25738095D01*
X4883333Y-25738095D01*
X4847619Y-25750000D01*
X4835714Y-25761904D01*
X4597619Y-25988095D02*
X4740476Y-25988095D01*
X4669047Y-25988095D02*
X4669047Y-25738095D01*
X4692857Y-25773809D01*
X4716666Y-25797619D01*
X4740476Y-25809523D01*
X4454761Y-25845238D02*
X4478571Y-25833333D01*
X4490476Y-25821428D01*
X4502380Y-25797619D01*
X4502380Y-25785714D01*
X4490476Y-25761904D01*
X4478571Y-25750000D01*
X4454761Y-25738095D01*
X4407142Y-25738095D01*
X4383333Y-25750000D01*
X4371428Y-25761904D01*
X4359523Y-25785714D01*
X4359523Y-25797619D01*
X4371428Y-25821428D01*
X4383333Y-25833333D01*
X4407142Y-25845238D01*
X4454761Y-25845238D01*
X4478571Y-25857142D01*
X4490476Y-25869047D01*
X4502380Y-25892857D01*
X4502380Y-25940476D01*
X4490476Y-25964285D01*
X4478571Y-25976190D01*
X4454761Y-25988095D01*
X4407142Y-25988095D01*
X4383333Y-25976190D01*
X4371428Y-25964285D01*
X4359523Y-25940476D01*
X4359523Y-25892857D01*
X4371428Y-25869047D01*
X4383333Y-25857142D01*
X4407142Y-25845238D01*
D15*
X54946190Y-55573809D02*
X55422380Y-55573809D01*
X54422380Y-55240476D02*
X54946190Y-55573809D01*
X54422380Y-55907142D01*
X55422380Y-56764285D02*
X55422380Y-56192857D01*
X55422380Y-56478571D02*
X54422380Y-56478571D01*
X54565238Y-56383333D01*
X54660476Y-56288095D01*
X54708095Y-56192857D01*
D13*
X12732142Y-25242857D02*
X12751190Y-25261904D01*
X12808333Y-25280952D01*
X12846428Y-25280952D01*
X12903571Y-25261904D01*
X12941666Y-25223809D01*
X12960714Y-25185714D01*
X12979761Y-25109523D01*
X12979761Y-25052380D01*
X12960714Y-24976190D01*
X12941666Y-24938095D01*
X12903571Y-24900000D01*
X12846428Y-24880952D01*
X12808333Y-24880952D01*
X12751190Y-24900000D01*
X12732142Y-24919047D01*
X12579761Y-24919047D02*
X12560714Y-24900000D01*
X12522619Y-24880952D01*
X12427380Y-24880952D01*
X12389285Y-24900000D01*
X12370238Y-24919047D01*
X12351190Y-24957142D01*
X12351190Y-24995238D01*
X12370238Y-25052380D01*
X12598809Y-25280952D01*
X12351190Y-25280952D01*
X12198809Y-24919047D02*
X12179761Y-24900000D01*
X12141666Y-24880952D01*
X12046428Y-24880952D01*
X12008333Y-24900000D01*
X11989285Y-24919047D01*
X11970238Y-24957142D01*
X11970238Y-24995238D01*
X11989285Y-25052380D01*
X12217857Y-25280952D01*
X11970238Y-25280952D01*
D14*
X41669285Y-20449285D02*
X41681190Y-20437380D01*
X41693095Y-20401666D01*
X41693095Y-20377857D01*
X41681190Y-20342142D01*
X41657380Y-20318333D01*
X41633571Y-20306428D01*
X41585952Y-20294523D01*
X41550238Y-20294523D01*
X41502619Y-20306428D01*
X41478809Y-20318333D01*
X41455000Y-20342142D01*
X41443095Y-20377857D01*
X41443095Y-20401666D01*
X41455000Y-20437380D01*
X41466904Y-20449285D01*
X41443095Y-20532619D02*
X41443095Y-20687380D01*
X41538333Y-20604047D01*
X41538333Y-20639761D01*
X41550238Y-20663571D01*
X41562142Y-20675476D01*
X41585952Y-20687380D01*
X41645476Y-20687380D01*
X41669285Y-20675476D01*
X41681190Y-20663571D01*
X41693095Y-20639761D01*
X41693095Y-20568333D01*
X41681190Y-20544523D01*
X41669285Y-20532619D01*
X41443095Y-20901666D02*
X41443095Y-20854047D01*
X41455000Y-20830238D01*
X41466904Y-20818333D01*
X41502619Y-20794523D01*
X41550238Y-20782619D01*
X41645476Y-20782619D01*
X41669285Y-20794523D01*
X41681190Y-20806428D01*
X41693095Y-20830238D01*
X41693095Y-20877857D01*
X41681190Y-20901666D01*
X41669285Y-20913571D01*
X41645476Y-20925476D01*
X41585952Y-20925476D01*
X41562142Y-20913571D01*
X41550238Y-20901666D01*
X41538333Y-20877857D01*
X41538333Y-20830238D01*
X41550238Y-20806428D01*
X41562142Y-20794523D01*
X41585952Y-20782619D01*
D15*
X3548095Y-42222380D02*
X3548095Y-41222380D01*
X3310000Y-41222380D01*
X3167142Y-41270000D01*
X3071904Y-41365238D01*
X3024285Y-41460476D01*
X2976666Y-41650952D01*
X2976666Y-41793809D01*
X3024285Y-41984285D01*
X3071904Y-42079523D01*
X3167142Y-42174761D01*
X3310000Y-42222380D01*
X3548095Y-42222380D01*
X2595714Y-41317619D02*
X2548095Y-41270000D01*
X2452857Y-41222380D01*
X2214761Y-41222380D01*
X2119523Y-41270000D01*
X2071904Y-41317619D01*
X2024285Y-41412857D01*
X2024285Y-41508095D01*
X2071904Y-41650952D01*
X2643333Y-42222380D01*
X2024285Y-42222380D01*
D14*
X4867142Y-24942619D02*
X4953809Y-24818809D01*
X5015714Y-24942619D02*
X5015714Y-24682619D01*
X4916666Y-24682619D01*
X4891904Y-24695000D01*
X4879523Y-24707380D01*
X4867142Y-24732142D01*
X4867142Y-24769285D01*
X4879523Y-24794047D01*
X4891904Y-24806428D01*
X4916666Y-24818809D01*
X5015714Y-24818809D01*
X4768095Y-24707380D02*
X4755714Y-24695000D01*
X4730952Y-24682619D01*
X4669047Y-24682619D01*
X4644285Y-24695000D01*
X4631904Y-24707380D01*
X4619523Y-24732142D01*
X4619523Y-24756904D01*
X4631904Y-24794047D01*
X4780476Y-24942619D01*
X4619523Y-24942619D01*
X4470952Y-24794047D02*
X4495714Y-24781666D01*
X4508095Y-24769285D01*
X4520476Y-24744523D01*
X4520476Y-24732142D01*
X4508095Y-24707380D01*
X4495714Y-24695000D01*
X4470952Y-24682619D01*
X4421428Y-24682619D01*
X4396666Y-24695000D01*
X4384285Y-24707380D01*
X4371904Y-24732142D01*
X4371904Y-24744523D01*
X4384285Y-24769285D01*
X4396666Y-24781666D01*
X4421428Y-24794047D01*
X4470952Y-24794047D01*
X4495714Y-24806428D01*
X4508095Y-24818809D01*
X4520476Y-24843571D01*
X4520476Y-24893095D01*
X4508095Y-24917857D01*
X4495714Y-24930238D01*
X4470952Y-24942619D01*
X4421428Y-24942619D01*
X4396666Y-24930238D01*
X4384285Y-24917857D01*
X4371904Y-24893095D01*
X4371904Y-24843571D01*
X4384285Y-24818809D01*
X4396666Y-24806428D01*
X4421428Y-24794047D01*
D13*
X7936666Y1902143D02*
X7955714Y1883096D01*
X8012857Y1864048D01*
X8050952Y1864048D01*
X8108095Y1883096D01*
X8146190Y1921191D01*
X8165238Y1959286D01*
X8184285Y2035477D01*
X8184285Y2092620D01*
X8165238Y2168810D01*
X8146190Y2206905D01*
X8108095Y2245000D01*
X8050952Y2264048D01*
X8012857Y2264048D01*
X7955714Y2245000D01*
X7936666Y2225953D01*
X7574761Y2264048D02*
X7765238Y2264048D01*
X7784285Y2073572D01*
X7765238Y2092620D01*
X7727142Y2111667D01*
X7631904Y2111667D01*
X7593809Y2092620D01*
X7574761Y2073572D01*
X7555714Y2035477D01*
X7555714Y1940239D01*
X7574761Y1902143D01*
X7593809Y1883096D01*
X7631904Y1864048D01*
X7727142Y1864048D01*
X7765238Y1883096D01*
X7784285Y1902143D01*
D11*
X11971428Y-27078571D02*
X11995238Y-27102380D01*
X12066666Y-27126190D01*
X12114285Y-27126190D01*
X12185714Y-27102380D01*
X12233333Y-27054761D01*
X12257142Y-27007142D01*
X12280952Y-26911904D01*
X12280952Y-26840476D01*
X12257142Y-26745238D01*
X12233333Y-26697619D01*
X12185714Y-26650000D01*
X12114285Y-26626190D01*
X12066666Y-26626190D01*
X11995238Y-26650000D01*
X11971428Y-26673809D01*
X11780952Y-26673809D02*
X11757142Y-26650000D01*
X11709523Y-26626190D01*
X11590476Y-26626190D01*
X11542857Y-26650000D01*
X11519047Y-26673809D01*
X11495238Y-26721428D01*
X11495238Y-26769047D01*
X11519047Y-26840476D01*
X11804761Y-27126190D01*
X11495238Y-27126190D01*
X11042857Y-26626190D02*
X11280952Y-26626190D01*
X11304761Y-26864285D01*
X11280952Y-26840476D01*
X11233333Y-26816666D01*
X11114285Y-26816666D01*
X11066666Y-26840476D01*
X11042857Y-26864285D01*
X11019047Y-26911904D01*
X11019047Y-27030952D01*
X11042857Y-27078571D01*
X11066666Y-27102380D01*
X11114285Y-27126190D01*
X11233333Y-27126190D01*
X11280952Y-27102380D01*
X11304761Y-27078571D01*
D14*
X56709285Y-51349285D02*
X56721190Y-51337380D01*
X56733095Y-51301666D01*
X56733095Y-51277857D01*
X56721190Y-51242142D01*
X56697380Y-51218333D01*
X56673571Y-51206428D01*
X56625952Y-51194523D01*
X56590238Y-51194523D01*
X56542619Y-51206428D01*
X56518809Y-51218333D01*
X56495000Y-51242142D01*
X56483095Y-51277857D01*
X56483095Y-51301666D01*
X56495000Y-51337380D01*
X56506904Y-51349285D01*
X56483095Y-51432619D02*
X56483095Y-51587380D01*
X56578333Y-51504047D01*
X56578333Y-51539761D01*
X56590238Y-51563571D01*
X56602142Y-51575476D01*
X56625952Y-51587380D01*
X56685476Y-51587380D01*
X56709285Y-51575476D01*
X56721190Y-51563571D01*
X56733095Y-51539761D01*
X56733095Y-51468333D01*
X56721190Y-51444523D01*
X56709285Y-51432619D01*
X56483095Y-51742142D02*
X56483095Y-51765952D01*
X56495000Y-51789761D01*
X56506904Y-51801666D01*
X56530714Y-51813571D01*
X56578333Y-51825476D01*
X56637857Y-51825476D01*
X56685476Y-51813571D01*
X56709285Y-51801666D01*
X56721190Y-51789761D01*
X56733095Y-51765952D01*
X56733095Y-51742142D01*
X56721190Y-51718333D01*
X56709285Y-51706428D01*
X56685476Y-51694523D01*
X56637857Y-51682619D01*
X56578333Y-51682619D01*
X56530714Y-51694523D01*
X56506904Y-51706428D01*
X56495000Y-51718333D01*
X56483095Y-51742142D01*
D13*
X24892857Y-60117857D02*
X24911904Y-60098809D01*
X24930952Y-60041666D01*
X24930952Y-60003571D01*
X24911904Y-59946428D01*
X24873809Y-59908333D01*
X24835714Y-59889285D01*
X24759523Y-59870238D01*
X24702380Y-59870238D01*
X24626190Y-59889285D01*
X24588095Y-59908333D01*
X24550000Y-59946428D01*
X24530952Y-60003571D01*
X24530952Y-60041666D01*
X24550000Y-60098809D01*
X24569047Y-60117857D01*
X24569047Y-60270238D02*
X24550000Y-60289285D01*
X24530952Y-60327380D01*
X24530952Y-60422619D01*
X24550000Y-60460714D01*
X24569047Y-60479761D01*
X24607142Y-60498809D01*
X24645238Y-60498809D01*
X24702380Y-60479761D01*
X24930952Y-60251190D01*
X24930952Y-60498809D01*
X24530952Y-60746428D02*
X24530952Y-60784523D01*
X24550000Y-60822619D01*
X24569047Y-60841666D01*
X24607142Y-60860714D01*
X24683333Y-60879761D01*
X24778571Y-60879761D01*
X24854761Y-60860714D01*
X24892857Y-60841666D01*
X24911904Y-60822619D01*
X24930952Y-60784523D01*
X24930952Y-60746428D01*
X24911904Y-60708333D01*
X24892857Y-60689285D01*
X24854761Y-60670238D01*
X24778571Y-60651190D01*
X24683333Y-60651190D01*
X24607142Y-60670238D01*
X24569047Y-60689285D01*
X24550000Y-60708333D01*
X24530952Y-60746428D01*
D10*
X9742976Y-33400238D02*
X9773452Y-33385000D01*
X9803928Y-33354523D01*
X9849642Y-33308809D01*
X9880119Y-33293571D01*
X9910595Y-33293571D01*
X9895357Y-33369761D02*
X9925833Y-33354523D01*
X9956309Y-33324047D01*
X9971547Y-33263095D01*
X9971547Y-33156428D01*
X9956309Y-33095476D01*
X9925833Y-33065000D01*
X9895357Y-33049761D01*
X9834404Y-33049761D01*
X9803928Y-33065000D01*
X9773452Y-33095476D01*
X9758214Y-33156428D01*
X9758214Y-33263095D01*
X9773452Y-33324047D01*
X9803928Y-33354523D01*
X9834404Y-33369761D01*
X9895357Y-33369761D01*
X9453452Y-33369761D02*
X9636309Y-33369761D01*
X9544880Y-33369761D02*
X9544880Y-33049761D01*
X9575357Y-33095476D01*
X9605833Y-33125952D01*
X9636309Y-33141190D01*
D14*
X5809285Y-4538333D02*
X5821190Y-4526428D01*
X5833095Y-4490714D01*
X5833095Y-4466904D01*
X5821190Y-4431190D01*
X5797380Y-4407380D01*
X5773571Y-4395476D01*
X5725952Y-4383571D01*
X5690238Y-4383571D01*
X5642619Y-4395476D01*
X5618809Y-4407380D01*
X5595000Y-4431190D01*
X5583095Y-4466904D01*
X5583095Y-4490714D01*
X5595000Y-4526428D01*
X5606904Y-4538333D01*
X5690238Y-4681190D02*
X5678333Y-4657380D01*
X5666428Y-4645476D01*
X5642619Y-4633571D01*
X5630714Y-4633571D01*
X5606904Y-4645476D01*
X5595000Y-4657380D01*
X5583095Y-4681190D01*
X5583095Y-4728809D01*
X5595000Y-4752619D01*
X5606904Y-4764523D01*
X5630714Y-4776428D01*
X5642619Y-4776428D01*
X5666428Y-4764523D01*
X5678333Y-4752619D01*
X5690238Y-4728809D01*
X5690238Y-4681190D01*
X5702142Y-4657380D01*
X5714047Y-4645476D01*
X5737857Y-4633571D01*
X5785476Y-4633571D01*
X5809285Y-4645476D01*
X5821190Y-4657380D01*
X5833095Y-4681190D01*
X5833095Y-4728809D01*
X5821190Y-4752619D01*
X5809285Y-4764523D01*
X5785476Y-4776428D01*
X5737857Y-4776428D01*
X5714047Y-4764523D01*
X5702142Y-4752619D01*
X5690238Y-4728809D01*
X7667619Y-45431666D02*
X7543809Y-45345000D01*
X7667619Y-45283095D02*
X7407619Y-45283095D01*
X7407619Y-45382142D01*
X7420000Y-45406904D01*
X7432380Y-45419285D01*
X7457142Y-45431666D01*
X7494285Y-45431666D01*
X7519047Y-45419285D01*
X7531428Y-45406904D01*
X7543809Y-45382142D01*
X7543809Y-45283095D01*
X7494285Y-45654523D02*
X7667619Y-45654523D01*
X7395238Y-45592619D02*
X7580952Y-45530714D01*
X7580952Y-45691666D01*
X45867619Y-59081666D02*
X45743809Y-58995000D01*
X45867619Y-58933095D02*
X45607619Y-58933095D01*
X45607619Y-59032142D01*
X45620000Y-59056904D01*
X45632380Y-59069285D01*
X45657142Y-59081666D01*
X45694285Y-59081666D01*
X45719047Y-59069285D01*
X45731428Y-59056904D01*
X45743809Y-59032142D01*
X45743809Y-58933095D01*
X45867619Y-59205476D02*
X45867619Y-59255000D01*
X45855238Y-59279761D01*
X45842857Y-59292142D01*
X45805714Y-59316904D01*
X45756190Y-59329285D01*
X45657142Y-59329285D01*
X45632380Y-59316904D01*
X45620000Y-59304523D01*
X45607619Y-59279761D01*
X45607619Y-59230238D01*
X45620000Y-59205476D01*
X45632380Y-59193095D01*
X45657142Y-59180714D01*
X45719047Y-59180714D01*
X45743809Y-59193095D01*
X45756190Y-59205476D01*
X45768571Y-59230238D01*
X45768571Y-59279761D01*
X45756190Y-59304523D01*
X45743809Y-59316904D01*
X45719047Y-59329285D01*
X29349285Y-56449285D02*
X29361190Y-56437380D01*
X29373095Y-56401666D01*
X29373095Y-56377857D01*
X29361190Y-56342142D01*
X29337380Y-56318333D01*
X29313571Y-56306428D01*
X29265952Y-56294523D01*
X29230238Y-56294523D01*
X29182619Y-56306428D01*
X29158809Y-56318333D01*
X29135000Y-56342142D01*
X29123095Y-56377857D01*
X29123095Y-56401666D01*
X29135000Y-56437380D01*
X29146904Y-56449285D01*
X29206428Y-56663571D02*
X29373095Y-56663571D01*
X29111190Y-56604047D02*
X29289761Y-56544523D01*
X29289761Y-56699285D01*
X29123095Y-56842142D02*
X29123095Y-56865952D01*
X29135000Y-56889761D01*
X29146904Y-56901666D01*
X29170714Y-56913571D01*
X29218333Y-56925476D01*
X29277857Y-56925476D01*
X29325476Y-56913571D01*
X29349285Y-56901666D01*
X29361190Y-56889761D01*
X29373095Y-56865952D01*
X29373095Y-56842142D01*
X29361190Y-56818333D01*
X29349285Y-56806428D01*
X29325476Y-56794523D01*
X29277857Y-56782619D01*
X29218333Y-56782619D01*
X29170714Y-56794523D01*
X29146904Y-56806428D01*
X29135000Y-56818333D01*
X29123095Y-56842142D01*
D13*
X24582857Y-55812857D02*
X24601904Y-55793809D01*
X24620952Y-55736666D01*
X24620952Y-55698571D01*
X24601904Y-55641428D01*
X24563809Y-55603333D01*
X24525714Y-55584285D01*
X24449523Y-55565238D01*
X24392380Y-55565238D01*
X24316190Y-55584285D01*
X24278095Y-55603333D01*
X24240000Y-55641428D01*
X24220952Y-55698571D01*
X24220952Y-55736666D01*
X24240000Y-55793809D01*
X24259047Y-55812857D01*
X24259047Y-55965238D02*
X24240000Y-55984285D01*
X24220952Y-56022380D01*
X24220952Y-56117619D01*
X24240000Y-56155714D01*
X24259047Y-56174761D01*
X24297142Y-56193809D01*
X24335238Y-56193809D01*
X24392380Y-56174761D01*
X24620952Y-55946190D01*
X24620952Y-56193809D01*
X24220952Y-56327142D02*
X24220952Y-56574761D01*
X24373333Y-56441428D01*
X24373333Y-56498571D01*
X24392380Y-56536666D01*
X24411428Y-56555714D01*
X24449523Y-56574761D01*
X24544761Y-56574761D01*
X24582857Y-56555714D01*
X24601904Y-56536666D01*
X24620952Y-56498571D01*
X24620952Y-56384285D01*
X24601904Y-56346190D01*
X24582857Y-56327142D01*
D14*
X40917619Y-55452857D02*
X40793809Y-55366190D01*
X40917619Y-55304285D02*
X40657619Y-55304285D01*
X40657619Y-55403333D01*
X40670000Y-55428095D01*
X40682380Y-55440476D01*
X40707142Y-55452857D01*
X40744285Y-55452857D01*
X40769047Y-55440476D01*
X40781428Y-55428095D01*
X40793809Y-55403333D01*
X40793809Y-55304285D01*
X40682380Y-55551904D02*
X40670000Y-55564285D01*
X40657619Y-55589047D01*
X40657619Y-55650952D01*
X40670000Y-55675714D01*
X40682380Y-55688095D01*
X40707142Y-55700476D01*
X40731904Y-55700476D01*
X40769047Y-55688095D01*
X40917619Y-55539523D01*
X40917619Y-55700476D01*
X40657619Y-55787142D02*
X40657619Y-55948095D01*
X40756666Y-55861428D01*
X40756666Y-55898571D01*
X40769047Y-55923333D01*
X40781428Y-55935714D01*
X40806190Y-55948095D01*
X40868095Y-55948095D01*
X40892857Y-55935714D01*
X40905238Y-55923333D01*
X40917619Y-55898571D01*
X40917619Y-55824285D01*
X40905238Y-55799523D01*
X40892857Y-55787142D01*
X11180714Y-3481785D02*
X11192619Y-3493690D01*
X11228333Y-3505595D01*
X11252142Y-3505595D01*
X11287857Y-3493690D01*
X11311666Y-3469880D01*
X11323571Y-3446071D01*
X11335476Y-3398452D01*
X11335476Y-3362738D01*
X11323571Y-3315119D01*
X11311666Y-3291309D01*
X11287857Y-3267500D01*
X11252142Y-3255595D01*
X11228333Y-3255595D01*
X11192619Y-3267500D01*
X11180714Y-3279404D01*
X10942619Y-3505595D02*
X11085476Y-3505595D01*
X11014047Y-3505595D02*
X11014047Y-3255595D01*
X11037857Y-3291309D01*
X11061666Y-3315119D01*
X11085476Y-3327023D01*
X10787857Y-3255595D02*
X10764047Y-3255595D01*
X10740238Y-3267500D01*
X10728333Y-3279404D01*
X10716428Y-3303214D01*
X10704523Y-3350833D01*
X10704523Y-3410357D01*
X10716428Y-3457976D01*
X10728333Y-3481785D01*
X10740238Y-3493690D01*
X10764047Y-3505595D01*
X10787857Y-3505595D01*
X10811666Y-3493690D01*
X10823571Y-3481785D01*
X10835476Y-3457976D01*
X10847380Y-3410357D01*
X10847380Y-3350833D01*
X10835476Y-3303214D01*
X10823571Y-3279404D01*
X10811666Y-3267500D01*
X10787857Y-3255595D01*
D12*
X36466190Y-26486666D02*
X36466190Y-26248571D01*
X35966190Y-26248571D01*
X35966190Y-26605714D02*
X35966190Y-26915238D01*
X36156666Y-26748571D01*
X36156666Y-26820000D01*
X36180476Y-26867619D01*
X36204285Y-26891428D01*
X36251904Y-26915238D01*
X36370952Y-26915238D01*
X36418571Y-26891428D01*
X36442380Y-26867619D01*
X36466190Y-26820000D01*
X36466190Y-26677142D01*
X36442380Y-26629523D01*
X36418571Y-26605714D01*
D14*
X8467619Y-17032857D02*
X8343809Y-16946190D01*
X8467619Y-16884285D02*
X8207619Y-16884285D01*
X8207619Y-16983333D01*
X8220000Y-17008095D01*
X8232380Y-17020476D01*
X8257142Y-17032857D01*
X8294285Y-17032857D01*
X8319047Y-17020476D01*
X8331428Y-17008095D01*
X8343809Y-16983333D01*
X8343809Y-16884285D01*
X8467619Y-17280476D02*
X8467619Y-17131904D01*
X8467619Y-17206190D02*
X8207619Y-17206190D01*
X8244761Y-17181428D01*
X8269523Y-17156666D01*
X8281904Y-17131904D01*
X8207619Y-17367142D02*
X8207619Y-17540476D01*
X8467619Y-17429047D01*
D10*
X27099761Y-59681190D02*
X27358809Y-59681190D01*
X27389285Y-59696428D01*
X27404523Y-59711666D01*
X27419761Y-59742142D01*
X27419761Y-59803095D01*
X27404523Y-59833571D01*
X27389285Y-59848809D01*
X27358809Y-59864047D01*
X27099761Y-59864047D01*
X27419761Y-60031666D02*
X27419761Y-60092619D01*
X27404523Y-60123095D01*
X27389285Y-60138333D01*
X27343571Y-60168809D01*
X27282619Y-60184047D01*
X27160714Y-60184047D01*
X27130238Y-60168809D01*
X27115000Y-60153571D01*
X27099761Y-60123095D01*
X27099761Y-60062142D01*
X27115000Y-60031666D01*
X27130238Y-60016428D01*
X27160714Y-60001190D01*
X27236904Y-60001190D01*
X27267380Y-60016428D01*
X27282619Y-60031666D01*
X27297857Y-60062142D01*
X27297857Y-60123095D01*
X27282619Y-60153571D01*
X27267380Y-60168809D01*
X27236904Y-60184047D01*
D14*
X3642619Y-16957857D02*
X3518809Y-16871190D01*
X3642619Y-16809285D02*
X3382619Y-16809285D01*
X3382619Y-16908333D01*
X3395000Y-16933095D01*
X3407380Y-16945476D01*
X3432142Y-16957857D01*
X3469285Y-16957857D01*
X3494047Y-16945476D01*
X3506428Y-16933095D01*
X3518809Y-16908333D01*
X3518809Y-16809285D01*
X3642619Y-17205476D02*
X3642619Y-17056904D01*
X3642619Y-17131190D02*
X3382619Y-17131190D01*
X3419761Y-17106428D01*
X3444523Y-17081666D01*
X3456904Y-17056904D01*
X3469285Y-17428333D02*
X3642619Y-17428333D01*
X3370238Y-17366428D02*
X3555952Y-17304523D01*
X3555952Y-17465476D01*
X10662142Y1714881D02*
X10748809Y1838691D01*
X10810714Y1714881D02*
X10810714Y1974881D01*
X10711666Y1974881D01*
X10686904Y1962500D01*
X10674523Y1950120D01*
X10662142Y1925358D01*
X10662142Y1888215D01*
X10674523Y1863453D01*
X10686904Y1851072D01*
X10711666Y1838691D01*
X10810714Y1838691D01*
X10563095Y1950120D02*
X10550714Y1962500D01*
X10525952Y1974881D01*
X10464047Y1974881D01*
X10439285Y1962500D01*
X10426904Y1950120D01*
X10414523Y1925358D01*
X10414523Y1900596D01*
X10426904Y1863453D01*
X10575476Y1714881D01*
X10414523Y1714881D01*
X10166904Y1714881D02*
X10315476Y1714881D01*
X10241190Y1714881D02*
X10241190Y1974881D01*
X10265952Y1937739D01*
X10290714Y1912977D01*
X10315476Y1900596D01*
X13760714Y-40099285D02*
X13772619Y-40111190D01*
X13808333Y-40123095D01*
X13832142Y-40123095D01*
X13867857Y-40111190D01*
X13891666Y-40087380D01*
X13903571Y-40063571D01*
X13915476Y-40015952D01*
X13915476Y-39980238D01*
X13903571Y-39932619D01*
X13891666Y-39908809D01*
X13867857Y-39885000D01*
X13832142Y-39873095D01*
X13808333Y-39873095D01*
X13772619Y-39885000D01*
X13760714Y-39896904D01*
X13522619Y-40123095D02*
X13665476Y-40123095D01*
X13594047Y-40123095D02*
X13594047Y-39873095D01*
X13617857Y-39908809D01*
X13641666Y-39932619D01*
X13665476Y-39944523D01*
X13284523Y-40123095D02*
X13427380Y-40123095D01*
X13355952Y-40123095D02*
X13355952Y-39873095D01*
X13379761Y-39908809D01*
X13403571Y-39932619D01*
X13427380Y-39944523D01*
X13767142Y-39087619D02*
X13853809Y-38963809D01*
X13915714Y-39087619D02*
X13915714Y-38827619D01*
X13816666Y-38827619D01*
X13791904Y-38840000D01*
X13779523Y-38852380D01*
X13767142Y-38877142D01*
X13767142Y-38914285D01*
X13779523Y-38939047D01*
X13791904Y-38951428D01*
X13816666Y-38963809D01*
X13915714Y-38963809D01*
X13519523Y-39087619D02*
X13668095Y-39087619D01*
X13593809Y-39087619D02*
X13593809Y-38827619D01*
X13618571Y-38864761D01*
X13643333Y-38889523D01*
X13668095Y-38901904D01*
X13395714Y-39087619D02*
X13346190Y-39087619D01*
X13321428Y-39075238D01*
X13309047Y-39062857D01*
X13284285Y-39025714D01*
X13271904Y-38976190D01*
X13271904Y-38877142D01*
X13284285Y-38852380D01*
X13296666Y-38840000D01*
X13321428Y-38827619D01*
X13370952Y-38827619D01*
X13395714Y-38840000D01*
X13408095Y-38852380D01*
X13420476Y-38877142D01*
X13420476Y-38939047D01*
X13408095Y-38963809D01*
X13395714Y-38976190D01*
X13370952Y-38988571D01*
X13321428Y-38988571D01*
X13296666Y-38976190D01*
X13284285Y-38963809D01*
X13271904Y-38939047D01*
D11*
X35148571Y-30318571D02*
X35172380Y-30294761D01*
X35196190Y-30223333D01*
X35196190Y-30175714D01*
X35172380Y-30104285D01*
X35124761Y-30056666D01*
X35077142Y-30032857D01*
X34981904Y-30009047D01*
X34910476Y-30009047D01*
X34815238Y-30032857D01*
X34767619Y-30056666D01*
X34720000Y-30104285D01*
X34696190Y-30175714D01*
X34696190Y-30223333D01*
X34720000Y-30294761D01*
X34743809Y-30318571D01*
X34743809Y-30509047D02*
X34720000Y-30532857D01*
X34696190Y-30580476D01*
X34696190Y-30699523D01*
X34720000Y-30747142D01*
X34743809Y-30770952D01*
X34791428Y-30794761D01*
X34839047Y-30794761D01*
X34910476Y-30770952D01*
X35196190Y-30485238D01*
X35196190Y-30794761D01*
X34910476Y-31080476D02*
X34886666Y-31032857D01*
X34862857Y-31009047D01*
X34815238Y-30985238D01*
X34791428Y-30985238D01*
X34743809Y-31009047D01*
X34720000Y-31032857D01*
X34696190Y-31080476D01*
X34696190Y-31175714D01*
X34720000Y-31223333D01*
X34743809Y-31247142D01*
X34791428Y-31270952D01*
X34815238Y-31270952D01*
X34862857Y-31247142D01*
X34886666Y-31223333D01*
X34910476Y-31175714D01*
X34910476Y-31080476D01*
X34934285Y-31032857D01*
X34958095Y-31009047D01*
X35005714Y-30985238D01*
X35100952Y-30985238D01*
X35148571Y-31009047D01*
X35172380Y-31032857D01*
X35196190Y-31080476D01*
X35196190Y-31175714D01*
X35172380Y-31223333D01*
X35148571Y-31247142D01*
X35100952Y-31270952D01*
X35005714Y-31270952D01*
X34958095Y-31247142D01*
X34934285Y-31223333D01*
X34910476Y-31175714D01*
D14*
X12352619Y-15172857D02*
X12228809Y-15086190D01*
X12352619Y-15024285D02*
X12092619Y-15024285D01*
X12092619Y-15123333D01*
X12105000Y-15148095D01*
X12117380Y-15160476D01*
X12142142Y-15172857D01*
X12179285Y-15172857D01*
X12204047Y-15160476D01*
X12216428Y-15148095D01*
X12228809Y-15123333D01*
X12228809Y-15024285D01*
X12352619Y-15420476D02*
X12352619Y-15271904D01*
X12352619Y-15346190D02*
X12092619Y-15346190D01*
X12129761Y-15321428D01*
X12154523Y-15296666D01*
X12166904Y-15271904D01*
X12117380Y-15519523D02*
X12105000Y-15531904D01*
X12092619Y-15556666D01*
X12092619Y-15618571D01*
X12105000Y-15643333D01*
X12117380Y-15655714D01*
X12142142Y-15668095D01*
X12166904Y-15668095D01*
X12204047Y-15655714D01*
X12352619Y-15507142D01*
X12352619Y-15668095D01*
X10514285Y-24764285D02*
X10526190Y-24752380D01*
X10538095Y-24716666D01*
X10538095Y-24692857D01*
X10526190Y-24657142D01*
X10502380Y-24633333D01*
X10478571Y-24621428D01*
X10430952Y-24609523D01*
X10395238Y-24609523D01*
X10347619Y-24621428D01*
X10323809Y-24633333D01*
X10300000Y-24657142D01*
X10288095Y-24692857D01*
X10288095Y-24716666D01*
X10300000Y-24752380D01*
X10311904Y-24764285D01*
X10311904Y-24859523D02*
X10300000Y-24871428D01*
X10288095Y-24895238D01*
X10288095Y-24954761D01*
X10300000Y-24978571D01*
X10311904Y-24990476D01*
X10335714Y-25002380D01*
X10359523Y-25002380D01*
X10395238Y-24990476D01*
X10538095Y-24847619D01*
X10538095Y-25002380D01*
X10538095Y-25240476D02*
X10538095Y-25097619D01*
X10538095Y-25169047D02*
X10288095Y-25169047D01*
X10323809Y-25145238D01*
X10347619Y-25121428D01*
X10359523Y-25097619D01*
D10*
X7894761Y-436190D02*
X8153809Y-436190D01*
X8184285Y-451428D01*
X8199523Y-466666D01*
X8214761Y-497142D01*
X8214761Y-558095D01*
X8199523Y-588571D01*
X8184285Y-603809D01*
X8153809Y-619047D01*
X7894761Y-619047D01*
X8001428Y-908571D02*
X8214761Y-908571D01*
X7879523Y-832380D02*
X8108095Y-756190D01*
X8108095Y-954285D01*
D14*
X57719285Y-51339285D02*
X57731190Y-51327380D01*
X57743095Y-51291666D01*
X57743095Y-51267857D01*
X57731190Y-51232142D01*
X57707380Y-51208333D01*
X57683571Y-51196428D01*
X57635952Y-51184523D01*
X57600238Y-51184523D01*
X57552619Y-51196428D01*
X57528809Y-51208333D01*
X57505000Y-51232142D01*
X57493095Y-51267857D01*
X57493095Y-51291666D01*
X57505000Y-51327380D01*
X57516904Y-51339285D01*
X57493095Y-51422619D02*
X57493095Y-51577380D01*
X57588333Y-51494047D01*
X57588333Y-51529761D01*
X57600238Y-51553571D01*
X57612142Y-51565476D01*
X57635952Y-51577380D01*
X57695476Y-51577380D01*
X57719285Y-51565476D01*
X57731190Y-51553571D01*
X57743095Y-51529761D01*
X57743095Y-51458333D01*
X57731190Y-51434523D01*
X57719285Y-51422619D01*
X57516904Y-51672619D02*
X57505000Y-51684523D01*
X57493095Y-51708333D01*
X57493095Y-51767857D01*
X57505000Y-51791666D01*
X57516904Y-51803571D01*
X57540714Y-51815476D01*
X57564523Y-51815476D01*
X57600238Y-51803571D01*
X57743095Y-51660714D01*
X57743095Y-51815476D01*
X13757142Y-38047619D02*
X13843809Y-37923809D01*
X13905714Y-38047619D02*
X13905714Y-37787619D01*
X13806666Y-37787619D01*
X13781904Y-37800000D01*
X13769523Y-37812380D01*
X13757142Y-37837142D01*
X13757142Y-37874285D01*
X13769523Y-37899047D01*
X13781904Y-37911428D01*
X13806666Y-37923809D01*
X13905714Y-37923809D01*
X13658095Y-37812380D02*
X13645714Y-37800000D01*
X13620952Y-37787619D01*
X13559047Y-37787619D01*
X13534285Y-37800000D01*
X13521904Y-37812380D01*
X13509523Y-37837142D01*
X13509523Y-37861904D01*
X13521904Y-37899047D01*
X13670476Y-38047619D01*
X13509523Y-38047619D01*
X13348571Y-37787619D02*
X13323809Y-37787619D01*
X13299047Y-37800000D01*
X13286666Y-37812380D01*
X13274285Y-37837142D01*
X13261904Y-37886666D01*
X13261904Y-37948571D01*
X13274285Y-37998095D01*
X13286666Y-38022857D01*
X13299047Y-38035238D01*
X13323809Y-38047619D01*
X13348571Y-38047619D01*
X13373333Y-38035238D01*
X13385714Y-38022857D01*
X13398095Y-37998095D01*
X13410476Y-37948571D01*
X13410476Y-37886666D01*
X13398095Y-37837142D01*
X13385714Y-37812380D01*
X13373333Y-37800000D01*
X13348571Y-37787619D01*
D15*
X50746666Y-56163333D02*
X50746666Y-56956666D01*
X50700000Y-57050000D01*
X50653333Y-57096666D01*
X50560000Y-57143333D01*
X50373333Y-57143333D01*
X50280000Y-57096666D01*
X50233333Y-57050000D01*
X50186666Y-56956666D01*
X50186666Y-56163333D01*
X49813333Y-56163333D02*
X49206666Y-56163333D01*
X49533333Y-56536666D01*
X49393333Y-56536666D01*
X49300000Y-56583333D01*
X49253333Y-56630000D01*
X49206666Y-56723333D01*
X49206666Y-56956666D01*
X49253333Y-57050000D01*
X49300000Y-57096666D01*
X49393333Y-57143333D01*
X49673333Y-57143333D01*
X49766666Y-57096666D01*
X49813333Y-57050000D01*
D13*
X40125952Y-26334761D02*
X40449761Y-26334761D01*
X40487857Y-26353809D01*
X40506904Y-26372857D01*
X40525952Y-26410952D01*
X40525952Y-26487142D01*
X40506904Y-26525238D01*
X40487857Y-26544285D01*
X40449761Y-26563333D01*
X40125952Y-26563333D01*
X40525952Y-26963333D02*
X40525952Y-26734761D01*
X40525952Y-26849047D02*
X40125952Y-26849047D01*
X40183095Y-26810952D01*
X40221190Y-26772857D01*
X40240238Y-26734761D01*
X40164047Y-27115714D02*
X40145000Y-27134761D01*
X40125952Y-27172857D01*
X40125952Y-27268095D01*
X40145000Y-27306190D01*
X40164047Y-27325238D01*
X40202142Y-27344285D01*
X40240238Y-27344285D01*
X40297380Y-27325238D01*
X40525952Y-27096666D01*
X40525952Y-27344285D01*
X41992857Y-22882857D02*
X42011904Y-22863809D01*
X42030952Y-22806666D01*
X42030952Y-22768571D01*
X42011904Y-22711428D01*
X41973809Y-22673333D01*
X41935714Y-22654285D01*
X41859523Y-22635238D01*
X41802380Y-22635238D01*
X41726190Y-22654285D01*
X41688095Y-22673333D01*
X41650000Y-22711428D01*
X41630952Y-22768571D01*
X41630952Y-22806666D01*
X41650000Y-22863809D01*
X41669047Y-22882857D01*
X41630952Y-23016190D02*
X41630952Y-23263809D01*
X41783333Y-23130476D01*
X41783333Y-23187619D01*
X41802380Y-23225714D01*
X41821428Y-23244761D01*
X41859523Y-23263809D01*
X41954761Y-23263809D01*
X41992857Y-23244761D01*
X42011904Y-23225714D01*
X42030952Y-23187619D01*
X42030952Y-23073333D01*
X42011904Y-23035238D01*
X41992857Y-23016190D01*
X41630952Y-23625714D02*
X41630952Y-23435238D01*
X41821428Y-23416190D01*
X41802380Y-23435238D01*
X41783333Y-23473333D01*
X41783333Y-23568571D01*
X41802380Y-23606666D01*
X41821428Y-23625714D01*
X41859523Y-23644761D01*
X41954761Y-23644761D01*
X41992857Y-23625714D01*
X42011904Y-23606666D01*
X42030952Y-23568571D01*
X42030952Y-23473333D01*
X42011904Y-23435238D01*
X41992857Y-23416190D01*
X11350952Y-487738D02*
X11674761Y-487738D01*
X11712857Y-506785D01*
X11731904Y-525833D01*
X11750952Y-563928D01*
X11750952Y-640119D01*
X11731904Y-678214D01*
X11712857Y-697261D01*
X11674761Y-716309D01*
X11350952Y-716309D01*
X11350952Y-868690D02*
X11350952Y-1135357D01*
X11750952Y-963928D01*
D14*
X12612142Y1714881D02*
X12698809Y1838691D01*
X12760714Y1714881D02*
X12760714Y1974881D01*
X12661666Y1974881D01*
X12636904Y1962500D01*
X12624523Y1950120D01*
X12612142Y1925358D01*
X12612142Y1888215D01*
X12624523Y1863453D01*
X12636904Y1851072D01*
X12661666Y1838691D01*
X12760714Y1838691D01*
X12513095Y1950120D02*
X12500714Y1962500D01*
X12475952Y1974881D01*
X12414047Y1974881D01*
X12389285Y1962500D01*
X12376904Y1950120D01*
X12364523Y1925358D01*
X12364523Y1900596D01*
X12376904Y1863453D01*
X12525476Y1714881D01*
X12364523Y1714881D01*
X12265476Y1950120D02*
X12253095Y1962500D01*
X12228333Y1974881D01*
X12166428Y1974881D01*
X12141666Y1962500D01*
X12129285Y1950120D01*
X12116904Y1925358D01*
X12116904Y1900596D01*
X12129285Y1863453D01*
X12277857Y1714881D01*
X12116904Y1714881D01*
D15*
X3498095Y-36642380D02*
X3498095Y-35642380D01*
X3260000Y-35642380D01*
X3117142Y-35690000D01*
X3021904Y-35785238D01*
X2974285Y-35880476D01*
X2926666Y-36070952D01*
X2926666Y-36213809D01*
X2974285Y-36404285D01*
X3021904Y-36499523D01*
X3117142Y-36594761D01*
X3260000Y-36642380D01*
X3498095Y-36642380D01*
X1974285Y-36642380D02*
X2545714Y-36642380D01*
X2260000Y-36642380D02*
X2260000Y-35642380D01*
X2355238Y-35785238D01*
X2450476Y-35880476D01*
X2545714Y-35928095D01*
D10*
X43305476Y-56550238D02*
X43335952Y-56535000D01*
X43366428Y-56504523D01*
X43412142Y-56458809D01*
X43442619Y-56443571D01*
X43473095Y-56443571D01*
X43457857Y-56519761D02*
X43488333Y-56504523D01*
X43518809Y-56474047D01*
X43534047Y-56413095D01*
X43534047Y-56306428D01*
X43518809Y-56245476D01*
X43488333Y-56215000D01*
X43457857Y-56199761D01*
X43396904Y-56199761D01*
X43366428Y-56215000D01*
X43335952Y-56245476D01*
X43320714Y-56306428D01*
X43320714Y-56413095D01*
X43335952Y-56474047D01*
X43366428Y-56504523D01*
X43396904Y-56519761D01*
X43457857Y-56519761D01*
X43198809Y-56230238D02*
X43183571Y-56215000D01*
X43153095Y-56199761D01*
X43076904Y-56199761D01*
X43046428Y-56215000D01*
X43031190Y-56230238D01*
X43015952Y-56260714D01*
X43015952Y-56291190D01*
X43031190Y-56336904D01*
X43214047Y-56519761D01*
X43015952Y-56519761D01*
D14*
X7355119Y-35357857D02*
X7231309Y-35271190D01*
X7355119Y-35209285D02*
X7095119Y-35209285D01*
X7095119Y-35308333D01*
X7107500Y-35333095D01*
X7119880Y-35345476D01*
X7144642Y-35357857D01*
X7181785Y-35357857D01*
X7206547Y-35345476D01*
X7218928Y-35333095D01*
X7231309Y-35308333D01*
X7231309Y-35209285D01*
X7355119Y-35605476D02*
X7355119Y-35456904D01*
X7355119Y-35531190D02*
X7095119Y-35531190D01*
X7132261Y-35506428D01*
X7157023Y-35481666D01*
X7169404Y-35456904D01*
X7095119Y-35766428D02*
X7095119Y-35791190D01*
X7107500Y-35815952D01*
X7119880Y-35828333D01*
X7144642Y-35840714D01*
X7194166Y-35853095D01*
X7256071Y-35853095D01*
X7305595Y-35840714D01*
X7330357Y-35828333D01*
X7342738Y-35815952D01*
X7355119Y-35791190D01*
X7355119Y-35766428D01*
X7342738Y-35741666D01*
X7330357Y-35729285D01*
X7305595Y-35716904D01*
X7256071Y-35704523D01*
X7194166Y-35704523D01*
X7144642Y-35716904D01*
X7119880Y-35729285D01*
X7107500Y-35741666D01*
X7095119Y-35766428D01*
X6330119Y-35357857D02*
X6206309Y-35271190D01*
X6330119Y-35209285D02*
X6070119Y-35209285D01*
X6070119Y-35308333D01*
X6082500Y-35333095D01*
X6094880Y-35345476D01*
X6119642Y-35357857D01*
X6156785Y-35357857D01*
X6181547Y-35345476D01*
X6193928Y-35333095D01*
X6206309Y-35308333D01*
X6206309Y-35209285D01*
X6330119Y-35605476D02*
X6330119Y-35456904D01*
X6330119Y-35531190D02*
X6070119Y-35531190D01*
X6107261Y-35506428D01*
X6132023Y-35481666D01*
X6144404Y-35456904D01*
X6330119Y-35853095D02*
X6330119Y-35704523D01*
X6330119Y-35778809D02*
X6070119Y-35778809D01*
X6107261Y-35754047D01*
X6132023Y-35729285D01*
X6144404Y-35704523D01*
D15*
X38262380Y-21551904D02*
X37262380Y-21551904D01*
X37262380Y-21790000D01*
X37310000Y-21932857D01*
X37405238Y-22028095D01*
X37500476Y-22075714D01*
X37690952Y-22123333D01*
X37833809Y-22123333D01*
X38024285Y-22075714D01*
X38119523Y-22028095D01*
X38214761Y-21932857D01*
X38262380Y-21790000D01*
X38262380Y-21551904D01*
X37262380Y-22456666D02*
X37262380Y-23123333D01*
X38262380Y-22694761D01*
D13*
X57897142Y-53372857D02*
X57916190Y-53391904D01*
X57973333Y-53410952D01*
X58011428Y-53410952D01*
X58068571Y-53391904D01*
X58106666Y-53353809D01*
X58125714Y-53315714D01*
X58144761Y-53239523D01*
X58144761Y-53182380D01*
X58125714Y-53106190D01*
X58106666Y-53068095D01*
X58068571Y-53030000D01*
X58011428Y-53010952D01*
X57973333Y-53010952D01*
X57916190Y-53030000D01*
X57897142Y-53049047D01*
X57744761Y-53049047D02*
X57725714Y-53030000D01*
X57687619Y-53010952D01*
X57592380Y-53010952D01*
X57554285Y-53030000D01*
X57535238Y-53049047D01*
X57516190Y-53087142D01*
X57516190Y-53125238D01*
X57535238Y-53182380D01*
X57763809Y-53410952D01*
X57516190Y-53410952D01*
X57382857Y-53010952D02*
X57116190Y-53010952D01*
X57287619Y-53410952D01*
D14*
X41677619Y-29702857D02*
X41553809Y-29616190D01*
X41677619Y-29554285D02*
X41417619Y-29554285D01*
X41417619Y-29653333D01*
X41430000Y-29678095D01*
X41442380Y-29690476D01*
X41467142Y-29702857D01*
X41504285Y-29702857D01*
X41529047Y-29690476D01*
X41541428Y-29678095D01*
X41553809Y-29653333D01*
X41553809Y-29554285D01*
X41442380Y-29801904D02*
X41430000Y-29814285D01*
X41417619Y-29839047D01*
X41417619Y-29900952D01*
X41430000Y-29925714D01*
X41442380Y-29938095D01*
X41467142Y-29950476D01*
X41491904Y-29950476D01*
X41529047Y-29938095D01*
X41677619Y-29789523D01*
X41677619Y-29950476D01*
X41677619Y-30074285D02*
X41677619Y-30123809D01*
X41665238Y-30148571D01*
X41652857Y-30160952D01*
X41615714Y-30185714D01*
X41566190Y-30198095D01*
X41467142Y-30198095D01*
X41442380Y-30185714D01*
X41430000Y-30173333D01*
X41417619Y-30148571D01*
X41417619Y-30099047D01*
X41430000Y-30074285D01*
X41442380Y-30061904D01*
X41467142Y-30049523D01*
X41529047Y-30049523D01*
X41553809Y-30061904D01*
X41566190Y-30074285D01*
X41578571Y-30099047D01*
X41578571Y-30148571D01*
X41566190Y-30173333D01*
X41553809Y-30185714D01*
X41529047Y-30198095D01*
X40917619Y-58972857D02*
X40793809Y-58886190D01*
X40917619Y-58824285D02*
X40657619Y-58824285D01*
X40657619Y-58923333D01*
X40670000Y-58948095D01*
X40682380Y-58960476D01*
X40707142Y-58972857D01*
X40744285Y-58972857D01*
X40769047Y-58960476D01*
X40781428Y-58948095D01*
X40793809Y-58923333D01*
X40793809Y-58824285D01*
X40682380Y-59071904D02*
X40670000Y-59084285D01*
X40657619Y-59109047D01*
X40657619Y-59170952D01*
X40670000Y-59195714D01*
X40682380Y-59208095D01*
X40707142Y-59220476D01*
X40731904Y-59220476D01*
X40769047Y-59208095D01*
X40917619Y-59059523D01*
X40917619Y-59220476D01*
X40744285Y-59443333D02*
X40917619Y-59443333D01*
X40645238Y-59381428D02*
X40830952Y-59319523D01*
X40830952Y-59480476D01*
D13*
X55492857Y-51832857D02*
X55511904Y-51813809D01*
X55530952Y-51756666D01*
X55530952Y-51718571D01*
X55511904Y-51661428D01*
X55473809Y-51623333D01*
X55435714Y-51604285D01*
X55359523Y-51585238D01*
X55302380Y-51585238D01*
X55226190Y-51604285D01*
X55188095Y-51623333D01*
X55150000Y-51661428D01*
X55130952Y-51718571D01*
X55130952Y-51756666D01*
X55150000Y-51813809D01*
X55169047Y-51832857D01*
X55530952Y-52213809D02*
X55530952Y-51985238D01*
X55530952Y-52099523D02*
X55130952Y-52099523D01*
X55188095Y-52061428D01*
X55226190Y-52023333D01*
X55245238Y-51985238D01*
X55130952Y-52575714D02*
X55130952Y-52385238D01*
X55321428Y-52366190D01*
X55302380Y-52385238D01*
X55283333Y-52423333D01*
X55283333Y-52518571D01*
X55302380Y-52556666D01*
X55321428Y-52575714D01*
X55359523Y-52594761D01*
X55454761Y-52594761D01*
X55492857Y-52575714D01*
X55511904Y-52556666D01*
X55530952Y-52518571D01*
X55530952Y-52423333D01*
X55511904Y-52385238D01*
X55492857Y-52366190D01*
X7936666Y-3572857D02*
X7955714Y-3591904D01*
X8012857Y-3610952D01*
X8050952Y-3610952D01*
X8108095Y-3591904D01*
X8146190Y-3553809D01*
X8165238Y-3515714D01*
X8184285Y-3439523D01*
X8184285Y-3382380D01*
X8165238Y-3306190D01*
X8146190Y-3268095D01*
X8108095Y-3230000D01*
X8050952Y-3210952D01*
X8012857Y-3210952D01*
X7955714Y-3230000D01*
X7936666Y-3249047D01*
X7803333Y-3210952D02*
X7536666Y-3210952D01*
X7708095Y-3610952D01*
D14*
X49319285Y-29679285D02*
X49331190Y-29667380D01*
X49343095Y-29631666D01*
X49343095Y-29607857D01*
X49331190Y-29572142D01*
X49307380Y-29548333D01*
X49283571Y-29536428D01*
X49235952Y-29524523D01*
X49200238Y-29524523D01*
X49152619Y-29536428D01*
X49128809Y-29548333D01*
X49105000Y-29572142D01*
X49093095Y-29607857D01*
X49093095Y-29631666D01*
X49105000Y-29667380D01*
X49116904Y-29679285D01*
X49343095Y-29917380D02*
X49343095Y-29774523D01*
X49343095Y-29845952D02*
X49093095Y-29845952D01*
X49128809Y-29822142D01*
X49152619Y-29798333D01*
X49164523Y-29774523D01*
X49093095Y-30131666D02*
X49093095Y-30084047D01*
X49105000Y-30060238D01*
X49116904Y-30048333D01*
X49152619Y-30024523D01*
X49200238Y-30012619D01*
X49295476Y-30012619D01*
X49319285Y-30024523D01*
X49331190Y-30036428D01*
X49343095Y-30060238D01*
X49343095Y-30107857D01*
X49331190Y-30131666D01*
X49319285Y-30143571D01*
X49295476Y-30155476D01*
X49235952Y-30155476D01*
X49212142Y-30143571D01*
X49200238Y-30131666D01*
X49188333Y-30107857D01*
X49188333Y-30060238D01*
X49200238Y-30036428D01*
X49212142Y-30024523D01*
X49235952Y-30012619D01*
D13*
X17002261Y-40640952D02*
X17002261Y-40964761D01*
X16983214Y-41002857D01*
X16964166Y-41021904D01*
X16926071Y-41040952D01*
X16849880Y-41040952D01*
X16811785Y-41021904D01*
X16792738Y-41002857D01*
X16773690Y-40964761D01*
X16773690Y-40640952D01*
X16411785Y-40640952D02*
X16487976Y-40640952D01*
X16526071Y-40660000D01*
X16545119Y-40679047D01*
X16583214Y-40736190D01*
X16602261Y-40812380D01*
X16602261Y-40964761D01*
X16583214Y-41002857D01*
X16564166Y-41021904D01*
X16526071Y-41040952D01*
X16449880Y-41040952D01*
X16411785Y-41021904D01*
X16392738Y-41002857D01*
X16373690Y-40964761D01*
X16373690Y-40869523D01*
X16392738Y-40831428D01*
X16411785Y-40812380D01*
X16449880Y-40793333D01*
X16526071Y-40793333D01*
X16564166Y-40812380D01*
X16583214Y-40831428D01*
X16602261Y-40869523D01*
X43542857Y-22872857D02*
X43561904Y-22853809D01*
X43580952Y-22796666D01*
X43580952Y-22758571D01*
X43561904Y-22701428D01*
X43523809Y-22663333D01*
X43485714Y-22644285D01*
X43409523Y-22625238D01*
X43352380Y-22625238D01*
X43276190Y-22644285D01*
X43238095Y-22663333D01*
X43200000Y-22701428D01*
X43180952Y-22758571D01*
X43180952Y-22796666D01*
X43200000Y-22853809D01*
X43219047Y-22872857D01*
X43180952Y-23006190D02*
X43180952Y-23253809D01*
X43333333Y-23120476D01*
X43333333Y-23177619D01*
X43352380Y-23215714D01*
X43371428Y-23234761D01*
X43409523Y-23253809D01*
X43504761Y-23253809D01*
X43542857Y-23234761D01*
X43561904Y-23215714D01*
X43580952Y-23177619D01*
X43580952Y-23063333D01*
X43561904Y-23025238D01*
X43542857Y-23006190D01*
X43314285Y-23596666D02*
X43580952Y-23596666D01*
X43161904Y-23501428D02*
X43447619Y-23406190D01*
X43447619Y-23653809D01*
D14*
X9493333Y-45357619D02*
X9580000Y-45233809D01*
X9641904Y-45357619D02*
X9641904Y-45097619D01*
X9542857Y-45097619D01*
X9518095Y-45110000D01*
X9505714Y-45122380D01*
X9493333Y-45147142D01*
X9493333Y-45184285D01*
X9505714Y-45209047D01*
X9518095Y-45221428D01*
X9542857Y-45233809D01*
X9641904Y-45233809D01*
X9270476Y-45097619D02*
X9320000Y-45097619D01*
X9344761Y-45110000D01*
X9357142Y-45122380D01*
X9381904Y-45159523D01*
X9394285Y-45209047D01*
X9394285Y-45308095D01*
X9381904Y-45332857D01*
X9369523Y-45345238D01*
X9344761Y-45357619D01*
X9295238Y-45357619D01*
X9270476Y-45345238D01*
X9258095Y-45332857D01*
X9245714Y-45308095D01*
X9245714Y-45246190D01*
X9258095Y-45221428D01*
X9270476Y-45209047D01*
X9295238Y-45196666D01*
X9344761Y-45196666D01*
X9369523Y-45209047D01*
X9381904Y-45221428D01*
X9394285Y-45246190D01*
D11*
X19061428Y-43808571D02*
X19085238Y-43832380D01*
X19156666Y-43856190D01*
X19204285Y-43856190D01*
X19275714Y-43832380D01*
X19323333Y-43784761D01*
X19347142Y-43737142D01*
X19370952Y-43641904D01*
X19370952Y-43570476D01*
X19347142Y-43475238D01*
X19323333Y-43427619D01*
X19275714Y-43380000D01*
X19204285Y-43356190D01*
X19156666Y-43356190D01*
X19085238Y-43380000D01*
X19061428Y-43403809D01*
X18585238Y-43856190D02*
X18870952Y-43856190D01*
X18728095Y-43856190D02*
X18728095Y-43356190D01*
X18775714Y-43427619D01*
X18823333Y-43475238D01*
X18870952Y-43499047D01*
X18394761Y-43403809D02*
X18370952Y-43380000D01*
X18323333Y-43356190D01*
X18204285Y-43356190D01*
X18156666Y-43380000D01*
X18132857Y-43403809D01*
X18109047Y-43451428D01*
X18109047Y-43499047D01*
X18132857Y-43570476D01*
X18418571Y-43856190D01*
X18109047Y-43856190D01*
X14733333Y-43798571D02*
X14757142Y-43822380D01*
X14828571Y-43846190D01*
X14876190Y-43846190D01*
X14947619Y-43822380D01*
X14995238Y-43774761D01*
X15019047Y-43727142D01*
X15042857Y-43631904D01*
X15042857Y-43560476D01*
X15019047Y-43465238D01*
X14995238Y-43417619D01*
X14947619Y-43370000D01*
X14876190Y-43346190D01*
X14828571Y-43346190D01*
X14757142Y-43370000D01*
X14733333Y-43393809D01*
X14495238Y-43846190D02*
X14400000Y-43846190D01*
X14352380Y-43822380D01*
X14328571Y-43798571D01*
X14280952Y-43727142D01*
X14257142Y-43631904D01*
X14257142Y-43441428D01*
X14280952Y-43393809D01*
X14304761Y-43370000D01*
X14352380Y-43346190D01*
X14447619Y-43346190D01*
X14495238Y-43370000D01*
X14519047Y-43393809D01*
X14542857Y-43441428D01*
X14542857Y-43560476D01*
X14519047Y-43608095D01*
X14495238Y-43631904D01*
X14447619Y-43655714D01*
X14352380Y-43655714D01*
X14304761Y-43631904D01*
X14280952Y-43608095D01*
X14257142Y-43560476D01*
D13*
X19837857Y-60092857D02*
X19856904Y-60073809D01*
X19875952Y-60016666D01*
X19875952Y-59978571D01*
X19856904Y-59921428D01*
X19818809Y-59883333D01*
X19780714Y-59864285D01*
X19704523Y-59845238D01*
X19647380Y-59845238D01*
X19571190Y-59864285D01*
X19533095Y-59883333D01*
X19495000Y-59921428D01*
X19475952Y-59978571D01*
X19475952Y-60016666D01*
X19495000Y-60073809D01*
X19514047Y-60092857D01*
X19875952Y-60473809D02*
X19875952Y-60245238D01*
X19875952Y-60359523D02*
X19475952Y-60359523D01*
X19533095Y-60321428D01*
X19571190Y-60283333D01*
X19590238Y-60245238D01*
X19875952Y-60664285D02*
X19875952Y-60740476D01*
X19856904Y-60778571D01*
X19837857Y-60797619D01*
X19780714Y-60835714D01*
X19704523Y-60854761D01*
X19552142Y-60854761D01*
X19514047Y-60835714D01*
X19495000Y-60816666D01*
X19475952Y-60778571D01*
X19475952Y-60702380D01*
X19495000Y-60664285D01*
X19514047Y-60645238D01*
X19552142Y-60626190D01*
X19647380Y-60626190D01*
X19685476Y-60645238D01*
X19704523Y-60664285D01*
X19723571Y-60702380D01*
X19723571Y-60778571D01*
X19704523Y-60816666D01*
X19685476Y-60835714D01*
X19647380Y-60854761D01*
D14*
X4835714Y-27014285D02*
X4847619Y-27026190D01*
X4883333Y-27038095D01*
X4907142Y-27038095D01*
X4942857Y-27026190D01*
X4966666Y-27002380D01*
X4978571Y-26978571D01*
X4990476Y-26930952D01*
X4990476Y-26895238D01*
X4978571Y-26847619D01*
X4966666Y-26823809D01*
X4942857Y-26800000D01*
X4907142Y-26788095D01*
X4883333Y-26788095D01*
X4847619Y-26800000D01*
X4835714Y-26811904D01*
X4597619Y-27038095D02*
X4740476Y-27038095D01*
X4669047Y-27038095D02*
X4669047Y-26788095D01*
X4692857Y-26823809D01*
X4716666Y-26847619D01*
X4740476Y-26859523D01*
X4514285Y-26788095D02*
X4347619Y-26788095D01*
X4454761Y-27038095D01*
D13*
X8270238Y-25480952D02*
X8270238Y-25804761D01*
X8251190Y-25842857D01*
X8232142Y-25861904D01*
X8194047Y-25880952D01*
X8117857Y-25880952D01*
X8079761Y-25861904D01*
X8060714Y-25842857D01*
X8041666Y-25804761D01*
X8041666Y-25480952D01*
X7641666Y-25880952D02*
X7870238Y-25880952D01*
X7755952Y-25880952D02*
X7755952Y-25480952D01*
X7794047Y-25538095D01*
X7832142Y-25576190D01*
X7870238Y-25595238D01*
X7394047Y-25480952D02*
X7355952Y-25480952D01*
X7317857Y-25500000D01*
X7298809Y-25519047D01*
X7279761Y-25557142D01*
X7260714Y-25633333D01*
X7260714Y-25728571D01*
X7279761Y-25804761D01*
X7298809Y-25842857D01*
X7317857Y-25861904D01*
X7355952Y-25880952D01*
X7394047Y-25880952D01*
X7432142Y-25861904D01*
X7451190Y-25842857D01*
X7470238Y-25804761D01*
X7489285Y-25728571D01*
X7489285Y-25633333D01*
X7470238Y-25557142D01*
X7451190Y-25519047D01*
X7432142Y-25500000D01*
X7394047Y-25480952D01*
D14*
X45867619Y-57131666D02*
X45743809Y-57045000D01*
X45867619Y-56983095D02*
X45607619Y-56983095D01*
X45607619Y-57082142D01*
X45620000Y-57106904D01*
X45632380Y-57119285D01*
X45657142Y-57131666D01*
X45694285Y-57131666D01*
X45719047Y-57119285D01*
X45731428Y-57106904D01*
X45743809Y-57082142D01*
X45743809Y-56983095D01*
X45719047Y-57280238D02*
X45706666Y-57255476D01*
X45694285Y-57243095D01*
X45669523Y-57230714D01*
X45657142Y-57230714D01*
X45632380Y-57243095D01*
X45620000Y-57255476D01*
X45607619Y-57280238D01*
X45607619Y-57329761D01*
X45620000Y-57354523D01*
X45632380Y-57366904D01*
X45657142Y-57379285D01*
X45669523Y-57379285D01*
X45694285Y-57366904D01*
X45706666Y-57354523D01*
X45719047Y-57329761D01*
X45719047Y-57280238D01*
X45731428Y-57255476D01*
X45743809Y-57243095D01*
X45768571Y-57230714D01*
X45818095Y-57230714D01*
X45842857Y-57243095D01*
X45855238Y-57255476D01*
X45867619Y-57280238D01*
X45867619Y-57329761D01*
X45855238Y-57354523D01*
X45842857Y-57366904D01*
X45818095Y-57379285D01*
X45768571Y-57379285D01*
X45743809Y-57366904D01*
X45731428Y-57354523D01*
X45719047Y-57329761D01*
X28359285Y-56459285D02*
X28371190Y-56447380D01*
X28383095Y-56411666D01*
X28383095Y-56387857D01*
X28371190Y-56352142D01*
X28347380Y-56328333D01*
X28323571Y-56316428D01*
X28275952Y-56304523D01*
X28240238Y-56304523D01*
X28192619Y-56316428D01*
X28168809Y-56328333D01*
X28145000Y-56352142D01*
X28133095Y-56387857D01*
X28133095Y-56411666D01*
X28145000Y-56447380D01*
X28156904Y-56459285D01*
X28133095Y-56542619D02*
X28133095Y-56697380D01*
X28228333Y-56614047D01*
X28228333Y-56649761D01*
X28240238Y-56673571D01*
X28252142Y-56685476D01*
X28275952Y-56697380D01*
X28335476Y-56697380D01*
X28359285Y-56685476D01*
X28371190Y-56673571D01*
X28383095Y-56649761D01*
X28383095Y-56578333D01*
X28371190Y-56554523D01*
X28359285Y-56542619D01*
X28383095Y-56816428D02*
X28383095Y-56864047D01*
X28371190Y-56887857D01*
X28359285Y-56899761D01*
X28323571Y-56923571D01*
X28275952Y-56935476D01*
X28180714Y-56935476D01*
X28156904Y-56923571D01*
X28145000Y-56911666D01*
X28133095Y-56887857D01*
X28133095Y-56840238D01*
X28145000Y-56816428D01*
X28156904Y-56804523D01*
X28180714Y-56792619D01*
X28240238Y-56792619D01*
X28264047Y-56804523D01*
X28275952Y-56816428D01*
X28287857Y-56840238D01*
X28287857Y-56887857D01*
X28275952Y-56911666D01*
X28264047Y-56923571D01*
X28240238Y-56935476D01*
D15*
X10868095Y-41732380D02*
X10868095Y-40732380D01*
X10630000Y-40732380D01*
X10487142Y-40780000D01*
X10391904Y-40875238D01*
X10344285Y-40970476D01*
X10296666Y-41160952D01*
X10296666Y-41303809D01*
X10344285Y-41494285D01*
X10391904Y-41589523D01*
X10487142Y-41684761D01*
X10630000Y-41732380D01*
X10868095Y-41732380D01*
X9391904Y-40732380D02*
X9868095Y-40732380D01*
X9915714Y-41208571D01*
X9868095Y-41160952D01*
X9772857Y-41113333D01*
X9534761Y-41113333D01*
X9439523Y-41160952D01*
X9391904Y-41208571D01*
X9344285Y-41303809D01*
X9344285Y-41541904D01*
X9391904Y-41637142D01*
X9439523Y-41684761D01*
X9534761Y-41732380D01*
X9772857Y-41732380D01*
X9868095Y-41684761D01*
X9915714Y-41637142D01*
D11*
X58181428Y-55208571D02*
X58205238Y-55232380D01*
X58276666Y-55256190D01*
X58324285Y-55256190D01*
X58395714Y-55232380D01*
X58443333Y-55184761D01*
X58467142Y-55137142D01*
X58490952Y-55041904D01*
X58490952Y-54970476D01*
X58467142Y-54875238D01*
X58443333Y-54827619D01*
X58395714Y-54780000D01*
X58324285Y-54756190D01*
X58276666Y-54756190D01*
X58205238Y-54780000D01*
X58181428Y-54803809D01*
X57990952Y-54803809D02*
X57967142Y-54780000D01*
X57919523Y-54756190D01*
X57800476Y-54756190D01*
X57752857Y-54780000D01*
X57729047Y-54803809D01*
X57705238Y-54851428D01*
X57705238Y-54899047D01*
X57729047Y-54970476D01*
X58014761Y-55256190D01*
X57705238Y-55256190D01*
X57276666Y-54756190D02*
X57371904Y-54756190D01*
X57419523Y-54780000D01*
X57443333Y-54803809D01*
X57490952Y-54875238D01*
X57514761Y-54970476D01*
X57514761Y-55160952D01*
X57490952Y-55208571D01*
X57467142Y-55232380D01*
X57419523Y-55256190D01*
X57324285Y-55256190D01*
X57276666Y-55232380D01*
X57252857Y-55208571D01*
X57229047Y-55160952D01*
X57229047Y-55041904D01*
X57252857Y-54994285D01*
X57276666Y-54970476D01*
X57324285Y-54946666D01*
X57419523Y-54946666D01*
X57467142Y-54970476D01*
X57490952Y-54994285D01*
X57514761Y-55041904D01*
D14*
X6717619Y-45456666D02*
X6593809Y-45370000D01*
X6717619Y-45308095D02*
X6457619Y-45308095D01*
X6457619Y-45407142D01*
X6470000Y-45431904D01*
X6482380Y-45444285D01*
X6507142Y-45456666D01*
X6544285Y-45456666D01*
X6569047Y-45444285D01*
X6581428Y-45431904D01*
X6593809Y-45407142D01*
X6593809Y-45308095D01*
X6457619Y-45543333D02*
X6457619Y-45704285D01*
X6556666Y-45617619D01*
X6556666Y-45654761D01*
X6569047Y-45679523D01*
X6581428Y-45691904D01*
X6606190Y-45704285D01*
X6668095Y-45704285D01*
X6692857Y-45691904D01*
X6705238Y-45679523D01*
X6717619Y-45654761D01*
X6717619Y-45580476D01*
X6705238Y-45555714D01*
X6692857Y-45543333D01*
X9493333Y-44307619D02*
X9580000Y-44183809D01*
X9641904Y-44307619D02*
X9641904Y-44047619D01*
X9542857Y-44047619D01*
X9518095Y-44060000D01*
X9505714Y-44072380D01*
X9493333Y-44097142D01*
X9493333Y-44134285D01*
X9505714Y-44159047D01*
X9518095Y-44171428D01*
X9542857Y-44183809D01*
X9641904Y-44183809D01*
X9406666Y-44047619D02*
X9233333Y-44047619D01*
X9344761Y-44307619D01*
D13*
X5417857Y-44858333D02*
X5436904Y-44839285D01*
X5455952Y-44782142D01*
X5455952Y-44744047D01*
X5436904Y-44686904D01*
X5398809Y-44648809D01*
X5360714Y-44629761D01*
X5284523Y-44610714D01*
X5227380Y-44610714D01*
X5151190Y-44629761D01*
X5113095Y-44648809D01*
X5075000Y-44686904D01*
X5055952Y-44744047D01*
X5055952Y-44782142D01*
X5075000Y-44839285D01*
X5094047Y-44858333D01*
X5455952Y-45239285D02*
X5455952Y-45010714D01*
X5455952Y-45125000D02*
X5055952Y-45125000D01*
X5113095Y-45086904D01*
X5151190Y-45048809D01*
X5170238Y-45010714D01*
X27132857Y-55812857D02*
X27151904Y-55793809D01*
X27170952Y-55736666D01*
X27170952Y-55698571D01*
X27151904Y-55641428D01*
X27113809Y-55603333D01*
X27075714Y-55584285D01*
X26999523Y-55565238D01*
X26942380Y-55565238D01*
X26866190Y-55584285D01*
X26828095Y-55603333D01*
X26790000Y-55641428D01*
X26770952Y-55698571D01*
X26770952Y-55736666D01*
X26790000Y-55793809D01*
X26809047Y-55812857D01*
X26809047Y-55965238D02*
X26790000Y-55984285D01*
X26770952Y-56022380D01*
X26770952Y-56117619D01*
X26790000Y-56155714D01*
X26809047Y-56174761D01*
X26847142Y-56193809D01*
X26885238Y-56193809D01*
X26942380Y-56174761D01*
X27170952Y-55946190D01*
X27170952Y-56193809D01*
X26904285Y-56536666D02*
X27170952Y-56536666D01*
X26751904Y-56441428D02*
X27037619Y-56346190D01*
X27037619Y-56593809D01*
D14*
X12377619Y-11697857D02*
X12253809Y-11611190D01*
X12377619Y-11549285D02*
X12117619Y-11549285D01*
X12117619Y-11648333D01*
X12130000Y-11673095D01*
X12142380Y-11685476D01*
X12167142Y-11697857D01*
X12204285Y-11697857D01*
X12229047Y-11685476D01*
X12241428Y-11673095D01*
X12253809Y-11648333D01*
X12253809Y-11549285D01*
X12377619Y-11945476D02*
X12377619Y-11796904D01*
X12377619Y-11871190D02*
X12117619Y-11871190D01*
X12154761Y-11846428D01*
X12179523Y-11821666D01*
X12191904Y-11796904D01*
X12229047Y-12094047D02*
X12216666Y-12069285D01*
X12204285Y-12056904D01*
X12179523Y-12044523D01*
X12167142Y-12044523D01*
X12142380Y-12056904D01*
X12130000Y-12069285D01*
X12117619Y-12094047D01*
X12117619Y-12143571D01*
X12130000Y-12168333D01*
X12142380Y-12180714D01*
X12167142Y-12193095D01*
X12179523Y-12193095D01*
X12204285Y-12180714D01*
X12216666Y-12168333D01*
X12229047Y-12143571D01*
X12229047Y-12094047D01*
X12241428Y-12069285D01*
X12253809Y-12056904D01*
X12278571Y-12044523D01*
X12328095Y-12044523D01*
X12352857Y-12056904D01*
X12365238Y-12069285D01*
X12377619Y-12094047D01*
X12377619Y-12143571D01*
X12365238Y-12168333D01*
X12352857Y-12180714D01*
X12328095Y-12193095D01*
X12278571Y-12193095D01*
X12253809Y-12180714D01*
X12241428Y-12168333D01*
X12229047Y-12143571D01*
D13*
X7130357Y-32958333D02*
X7149404Y-32939285D01*
X7168452Y-32882142D01*
X7168452Y-32844047D01*
X7149404Y-32786904D01*
X7111309Y-32748809D01*
X7073214Y-32729761D01*
X6997023Y-32710714D01*
X6939880Y-32710714D01*
X6863690Y-32729761D01*
X6825595Y-32748809D01*
X6787500Y-32786904D01*
X6768452Y-32844047D01*
X6768452Y-32882142D01*
X6787500Y-32939285D01*
X6806547Y-32958333D01*
X6768452Y-33301190D02*
X6768452Y-33225000D01*
X6787500Y-33186904D01*
X6806547Y-33167857D01*
X6863690Y-33129761D01*
X6939880Y-33110714D01*
X7092261Y-33110714D01*
X7130357Y-33129761D01*
X7149404Y-33148809D01*
X7168452Y-33186904D01*
X7168452Y-33263095D01*
X7149404Y-33301190D01*
X7130357Y-33320238D01*
X7092261Y-33339285D01*
X6997023Y-33339285D01*
X6958928Y-33320238D01*
X6939880Y-33301190D01*
X6920833Y-33263095D01*
X6920833Y-33186904D01*
X6939880Y-33148809D01*
X6958928Y-33129761D01*
X6997023Y-33110714D01*
D11*
X19051428Y-45868571D02*
X19075238Y-45892380D01*
X19146666Y-45916190D01*
X19194285Y-45916190D01*
X19265714Y-45892380D01*
X19313333Y-45844761D01*
X19337142Y-45797142D01*
X19360952Y-45701904D01*
X19360952Y-45630476D01*
X19337142Y-45535238D01*
X19313333Y-45487619D01*
X19265714Y-45440000D01*
X19194285Y-45416190D01*
X19146666Y-45416190D01*
X19075238Y-45440000D01*
X19051428Y-45463809D01*
X18575238Y-45916190D02*
X18860952Y-45916190D01*
X18718095Y-45916190D02*
X18718095Y-45416190D01*
X18765714Y-45487619D01*
X18813333Y-45535238D01*
X18860952Y-45559047D01*
X18408571Y-45416190D02*
X18099047Y-45416190D01*
X18265714Y-45606666D01*
X18194285Y-45606666D01*
X18146666Y-45630476D01*
X18122857Y-45654285D01*
X18099047Y-45701904D01*
X18099047Y-45820952D01*
X18122857Y-45868571D01*
X18146666Y-45892380D01*
X18194285Y-45916190D01*
X18337142Y-45916190D01*
X18384761Y-45892380D01*
X18408571Y-45868571D01*
D13*
X29902857Y-59252857D02*
X29921904Y-59233809D01*
X29940952Y-59176666D01*
X29940952Y-59138571D01*
X29921904Y-59081428D01*
X29883809Y-59043333D01*
X29845714Y-59024285D01*
X29769523Y-59005238D01*
X29712380Y-59005238D01*
X29636190Y-59024285D01*
X29598095Y-59043333D01*
X29560000Y-59081428D01*
X29540952Y-59138571D01*
X29540952Y-59176666D01*
X29560000Y-59233809D01*
X29579047Y-59252857D01*
X29540952Y-59386190D02*
X29540952Y-59633809D01*
X29693333Y-59500476D01*
X29693333Y-59557619D01*
X29712380Y-59595714D01*
X29731428Y-59614761D01*
X29769523Y-59633809D01*
X29864761Y-59633809D01*
X29902857Y-59614761D01*
X29921904Y-59595714D01*
X29940952Y-59557619D01*
X29940952Y-59443333D01*
X29921904Y-59405238D01*
X29902857Y-59386190D01*
X29712380Y-59862380D02*
X29693333Y-59824285D01*
X29674285Y-59805238D01*
X29636190Y-59786190D01*
X29617142Y-59786190D01*
X29579047Y-59805238D01*
X29560000Y-59824285D01*
X29540952Y-59862380D01*
X29540952Y-59938571D01*
X29560000Y-59976666D01*
X29579047Y-59995714D01*
X29617142Y-60014761D01*
X29636190Y-60014761D01*
X29674285Y-59995714D01*
X29693333Y-59976666D01*
X29712380Y-59938571D01*
X29712380Y-59862380D01*
X29731428Y-59824285D01*
X29750476Y-59805238D01*
X29788571Y-59786190D01*
X29864761Y-59786190D01*
X29902857Y-59805238D01*
X29921904Y-59824285D01*
X29940952Y-59862380D01*
X29940952Y-59938571D01*
X29921904Y-59976666D01*
X29902857Y-59995714D01*
X29864761Y-60014761D01*
X29788571Y-60014761D01*
X29750476Y-59995714D01*
X29731428Y-59976666D01*
X29712380Y-59938571D01*
D11*
X14646428Y-35876190D02*
X14813095Y-35638095D01*
X14932142Y-35876190D02*
X14932142Y-35376190D01*
X14741666Y-35376190D01*
X14694047Y-35400000D01*
X14670238Y-35423809D01*
X14646428Y-35471428D01*
X14646428Y-35542857D01*
X14670238Y-35590476D01*
X14694047Y-35614285D01*
X14741666Y-35638095D01*
X14932142Y-35638095D01*
X14479761Y-35376190D02*
X14170238Y-35376190D01*
X14336904Y-35566666D01*
X14265476Y-35566666D01*
X14217857Y-35590476D01*
X14194047Y-35614285D01*
X14170238Y-35661904D01*
X14170238Y-35780952D01*
X14194047Y-35828571D01*
X14217857Y-35852380D01*
X14265476Y-35876190D01*
X14408333Y-35876190D01*
X14455952Y-35852380D01*
X14479761Y-35828571D01*
X13860714Y-35376190D02*
X13813095Y-35376190D01*
X13765476Y-35400000D01*
X13741666Y-35423809D01*
X13717857Y-35471428D01*
X13694047Y-35566666D01*
X13694047Y-35685714D01*
X13717857Y-35780952D01*
X13741666Y-35828571D01*
X13765476Y-35852380D01*
X13813095Y-35876190D01*
X13860714Y-35876190D01*
X13908333Y-35852380D01*
X13932142Y-35828571D01*
X13955952Y-35780952D01*
X13979761Y-35685714D01*
X13979761Y-35566666D01*
X13955952Y-35471428D01*
X13932142Y-35423809D01*
X13908333Y-35400000D01*
X13860714Y-35376190D01*
D10*
X22019761Y-59681190D02*
X22278809Y-59681190D01*
X22309285Y-59696428D01*
X22324523Y-59711666D01*
X22339761Y-59742142D01*
X22339761Y-59803095D01*
X22324523Y-59833571D01*
X22309285Y-59848809D01*
X22278809Y-59864047D01*
X22019761Y-59864047D01*
X22156904Y-60062142D02*
X22141666Y-60031666D01*
X22126428Y-60016428D01*
X22095952Y-60001190D01*
X22080714Y-60001190D01*
X22050238Y-60016428D01*
X22035000Y-60031666D01*
X22019761Y-60062142D01*
X22019761Y-60123095D01*
X22035000Y-60153571D01*
X22050238Y-60168809D01*
X22080714Y-60184047D01*
X22095952Y-60184047D01*
X22126428Y-60168809D01*
X22141666Y-60153571D01*
X22156904Y-60123095D01*
X22156904Y-60062142D01*
X22172142Y-60031666D01*
X22187380Y-60016428D01*
X22217857Y-60001190D01*
X22278809Y-60001190D01*
X22309285Y-60016428D01*
X22324523Y-60031666D01*
X22339761Y-60062142D01*
X22339761Y-60123095D01*
X22324523Y-60153571D01*
X22309285Y-60168809D01*
X22278809Y-60184047D01*
X22217857Y-60184047D01*
X22187380Y-60168809D01*
X22172142Y-60153571D01*
X22156904Y-60123095D01*
D14*
X25799285Y-56439285D02*
X25811190Y-56427380D01*
X25823095Y-56391666D01*
X25823095Y-56367857D01*
X25811190Y-56332142D01*
X25787380Y-56308333D01*
X25763571Y-56296428D01*
X25715952Y-56284523D01*
X25680238Y-56284523D01*
X25632619Y-56296428D01*
X25608809Y-56308333D01*
X25585000Y-56332142D01*
X25573095Y-56367857D01*
X25573095Y-56391666D01*
X25585000Y-56427380D01*
X25596904Y-56439285D01*
X25656428Y-56653571D02*
X25823095Y-56653571D01*
X25561190Y-56594047D02*
X25739761Y-56534523D01*
X25739761Y-56689285D01*
X25823095Y-56915476D02*
X25823095Y-56772619D01*
X25823095Y-56844047D02*
X25573095Y-56844047D01*
X25608809Y-56820238D01*
X25632619Y-56796428D01*
X25644523Y-56772619D01*
D10*
X43305476Y-60075238D02*
X43335952Y-60060000D01*
X43366428Y-60029523D01*
X43412142Y-59983809D01*
X43442619Y-59968571D01*
X43473095Y-59968571D01*
X43457857Y-60044761D02*
X43488333Y-60029523D01*
X43518809Y-59999047D01*
X43534047Y-59938095D01*
X43534047Y-59831428D01*
X43518809Y-59770476D01*
X43488333Y-59740000D01*
X43457857Y-59724761D01*
X43396904Y-59724761D01*
X43366428Y-59740000D01*
X43335952Y-59770476D01*
X43320714Y-59831428D01*
X43320714Y-59938095D01*
X43335952Y-59999047D01*
X43366428Y-60029523D01*
X43396904Y-60044761D01*
X43457857Y-60044761D01*
X43214047Y-59724761D02*
X43015952Y-59724761D01*
X43122619Y-59846666D01*
X43076904Y-59846666D01*
X43046428Y-59861904D01*
X43031190Y-59877142D01*
X43015952Y-59907619D01*
X43015952Y-59983809D01*
X43031190Y-60014285D01*
X43046428Y-60029523D01*
X43076904Y-60044761D01*
X43168333Y-60044761D01*
X43198809Y-60029523D01*
X43214047Y-60014285D01*
D13*
X6005952Y-48270238D02*
X6329761Y-48270238D01*
X6367857Y-48289285D01*
X6386904Y-48308333D01*
X6405952Y-48346428D01*
X6405952Y-48422619D01*
X6386904Y-48460714D01*
X6367857Y-48479761D01*
X6329761Y-48498809D01*
X6005952Y-48498809D01*
X6044047Y-48670238D02*
X6025000Y-48689285D01*
X6005952Y-48727380D01*
X6005952Y-48822619D01*
X6025000Y-48860714D01*
X6044047Y-48879761D01*
X6082142Y-48898809D01*
X6120238Y-48898809D01*
X6177380Y-48879761D01*
X6405952Y-48651190D01*
X6405952Y-48898809D01*
D10*
X14765476Y-11265238D02*
X14795952Y-11250000D01*
X14826428Y-11219523D01*
X14872142Y-11173809D01*
X14902619Y-11158571D01*
X14933095Y-11158571D01*
X14917857Y-11234761D02*
X14948333Y-11219523D01*
X14978809Y-11189047D01*
X14994047Y-11128095D01*
X14994047Y-11021428D01*
X14978809Y-10960476D01*
X14948333Y-10930000D01*
X14917857Y-10914761D01*
X14856904Y-10914761D01*
X14826428Y-10930000D01*
X14795952Y-10960476D01*
X14780714Y-11021428D01*
X14780714Y-11128095D01*
X14795952Y-11189047D01*
X14826428Y-11219523D01*
X14856904Y-11234761D01*
X14917857Y-11234761D01*
X14597857Y-11051904D02*
X14628333Y-11036666D01*
X14643571Y-11021428D01*
X14658809Y-10990952D01*
X14658809Y-10975714D01*
X14643571Y-10945238D01*
X14628333Y-10930000D01*
X14597857Y-10914761D01*
X14536904Y-10914761D01*
X14506428Y-10930000D01*
X14491190Y-10945238D01*
X14475952Y-10975714D01*
X14475952Y-10990952D01*
X14491190Y-11021428D01*
X14506428Y-11036666D01*
X14536904Y-11051904D01*
X14597857Y-11051904D01*
X14628333Y-11067142D01*
X14643571Y-11082380D01*
X14658809Y-11112857D01*
X14658809Y-11173809D01*
X14643571Y-11204285D01*
X14628333Y-11219523D01*
X14597857Y-11234761D01*
X14536904Y-11234761D01*
X14506428Y-11219523D01*
X14491190Y-11204285D01*
X14475952Y-11173809D01*
X14475952Y-11112857D01*
X14491190Y-11082380D01*
X14506428Y-11067142D01*
X14536904Y-11051904D01*
D14*
X39189285Y-29689285D02*
X39201190Y-29677380D01*
X39213095Y-29641666D01*
X39213095Y-29617857D01*
X39201190Y-29582142D01*
X39177380Y-29558333D01*
X39153571Y-29546428D01*
X39105952Y-29534523D01*
X39070238Y-29534523D01*
X39022619Y-29546428D01*
X38998809Y-29558333D01*
X38975000Y-29582142D01*
X38963095Y-29617857D01*
X38963095Y-29641666D01*
X38975000Y-29677380D01*
X38986904Y-29689285D01*
X38963095Y-29772619D02*
X38963095Y-29927380D01*
X39058333Y-29844047D01*
X39058333Y-29879761D01*
X39070238Y-29903571D01*
X39082142Y-29915476D01*
X39105952Y-29927380D01*
X39165476Y-29927380D01*
X39189285Y-29915476D01*
X39201190Y-29903571D01*
X39213095Y-29879761D01*
X39213095Y-29808333D01*
X39201190Y-29784523D01*
X39189285Y-29772619D01*
X39213095Y-30165476D02*
X39213095Y-30022619D01*
X39213095Y-30094047D02*
X38963095Y-30094047D01*
X38998809Y-30070238D01*
X39022619Y-30046428D01*
X39034523Y-30022619D01*
X12313333Y-49067619D02*
X12400000Y-48943809D01*
X12461904Y-49067619D02*
X12461904Y-48807619D01*
X12362857Y-48807619D01*
X12338095Y-48820000D01*
X12325714Y-48832380D01*
X12313333Y-48857142D01*
X12313333Y-48894285D01*
X12325714Y-48919047D01*
X12338095Y-48931428D01*
X12362857Y-48943809D01*
X12461904Y-48943809D01*
X12065714Y-49067619D02*
X12214285Y-49067619D01*
X12140000Y-49067619D02*
X12140000Y-48807619D01*
X12164761Y-48844761D01*
X12189523Y-48869523D01*
X12214285Y-48881904D01*
D10*
X9742976Y-36875238D02*
X9773452Y-36860000D01*
X9803928Y-36829523D01*
X9849642Y-36783809D01*
X9880119Y-36768571D01*
X9910595Y-36768571D01*
X9895357Y-36844761D02*
X9925833Y-36829523D01*
X9956309Y-36799047D01*
X9971547Y-36738095D01*
X9971547Y-36631428D01*
X9956309Y-36570476D01*
X9925833Y-36540000D01*
X9895357Y-36524761D01*
X9834404Y-36524761D01*
X9803928Y-36540000D01*
X9773452Y-36570476D01*
X9758214Y-36631428D01*
X9758214Y-36738095D01*
X9773452Y-36799047D01*
X9803928Y-36829523D01*
X9834404Y-36844761D01*
X9895357Y-36844761D01*
X9483928Y-36631428D02*
X9483928Y-36844761D01*
X9560119Y-36509523D02*
X9636309Y-36738095D01*
X9438214Y-36738095D01*
D16*
X15360000Y-16040000D02*
X15360000Y-13140000D01*
X14385000Y-16040000D02*
X15360000Y-16040000D01*
X14060000Y-13140000D02*
X14060000Y-15715000D01*
X14060000Y-15715000D02*
X14385000Y-16040000D01*
X15360000Y-13140000D02*
X14060000Y-13140000D01*
X4075000Y-49900000D02*
X4075000Y-47900000D01*
X2825000Y-49900000D02*
X4075000Y-49900000D01*
X2825000Y-47900000D02*
X2825000Y-49900000D01*
X4075000Y-47900000D02*
X2825000Y-47900000D01*
X23730000Y-42360000D02*
X19730000Y-42360000D01*
X19730000Y-38360000D02*
X23730000Y-38360000D01*
X23730000Y-38360000D02*
X23730000Y-42360000D01*
X19730000Y-42360000D02*
X19730000Y-38360000D01*
X36390000Y-29610000D02*
X36390000Y-31210000D01*
X36390000Y-31210000D02*
X37190000Y-31210000D01*
X37190000Y-31210000D02*
X37190000Y-29610000D01*
X37190000Y-29610000D02*
X36390000Y-29610000D01*
X45500000Y-54750000D02*
X45500000Y-55750000D01*
X45500000Y-55750000D02*
X46000000Y-55750000D01*
X46000000Y-54750000D02*
X45500000Y-54750000D01*
X46000000Y-55750000D02*
X46000000Y-54750000D01*
X18005000Y-38650000D02*
X18545000Y-38650000D01*
X18545000Y-38650000D02*
X18545000Y-37600000D01*
X18005000Y-37600000D02*
X18005000Y-38650000D01*
X18545000Y-37600000D02*
X18005000Y-37600000D01*
X11755000Y-49700000D02*
X11755000Y-50240000D01*
X12805000Y-49700000D02*
X11755000Y-49700000D01*
X11755000Y-50240000D02*
X12805000Y-50240000D01*
X12805000Y-50240000D02*
X12805000Y-49700000D01*
X38970000Y-31730000D02*
X64470000Y-31730000D01*
X64470000Y-49730000D02*
X64470000Y-31730000D01*
X38970000Y-49730000D02*
X64470000Y-49730000D01*
X58470000Y-49730000D02*
X58470000Y-31730000D01*
X38970000Y-49730000D02*
X38970000Y-31730000D01*
X5175000Y-25625000D02*
X4175000Y-25625000D01*
X4175000Y-25625000D02*
X4175000Y-26125000D01*
X4175000Y-26125000D02*
X5175000Y-26125000D01*
X5175000Y-26125000D02*
X5175000Y-25625000D01*
X54175000Y-54425000D02*
X54175000Y-57625000D01*
X55675000Y-54425000D02*
X55675000Y-57625000D01*
X54175000Y-54425000D02*
X55675000Y-54425000D01*
X54175000Y-57625000D02*
X55675000Y-57625000D01*
X11675000Y-25500000D02*
X13275000Y-25500000D01*
X13275000Y-25500000D02*
X13275000Y-24700000D01*
X11675000Y-24700000D02*
X11675000Y-25500000D01*
X13275000Y-24700000D02*
X11675000Y-24700000D01*
X41330000Y-20110000D02*
X41330000Y-21110000D01*
X41830000Y-20110000D02*
X41330000Y-20110000D01*
X41330000Y-21110000D02*
X41830000Y-21110000D01*
X41830000Y-21110000D02*
X41830000Y-20110000D01*
X3525000Y-40125000D02*
X3125000Y-40125000D01*
X3125000Y-40125000D02*
X2525000Y-39725000D01*
X2525000Y-40125000D02*
X2025000Y-40125000D01*
X4175000Y-39225000D02*
X1375000Y-39225000D01*
X2525000Y-40525000D02*
X3125000Y-40125000D01*
X1375000Y-41025000D02*
X4175000Y-41025000D01*
X1375000Y-39225000D02*
X1375000Y-41025000D01*
X3125000Y-40125000D02*
X3125000Y-40675000D01*
X2525000Y-39725000D02*
X2525000Y-40525000D01*
X3125000Y-40125000D02*
X3125000Y-39575000D01*
X4175000Y-41025000D02*
X4175000Y-39225000D01*
X5225000Y-24555000D02*
X4175000Y-24555000D01*
X4175000Y-24555000D02*
X4175000Y-25095000D01*
X5225000Y-25095000D02*
X5225000Y-24555000D01*
X4175000Y-25095000D02*
X5225000Y-25095000D01*
X7070000Y2445000D02*
X7070000Y1645000D01*
X8670000Y1645000D02*
X8670000Y2445000D01*
X7070000Y1645000D02*
X8670000Y1645000D01*
X8670000Y2445000D02*
X7070000Y2445000D01*
X12650000Y-26275000D02*
X10650000Y-26275000D01*
X10650000Y-27525000D02*
X12650000Y-27525000D01*
X10650000Y-26275000D02*
X10650000Y-27525000D01*
X12650000Y-27525000D02*
X12650000Y-26275000D01*
X56370000Y-51010000D02*
X56370000Y-52010000D01*
X56870000Y-51010000D02*
X56370000Y-51010000D01*
X56370000Y-52010000D02*
X56870000Y-52010000D01*
X56870000Y-52010000D02*
X56870000Y-51010000D01*
X25150000Y-61175000D02*
X25150000Y-59575000D01*
X24350000Y-59575000D02*
X24350000Y-61175000D01*
X25150000Y-59575000D02*
X24350000Y-59575000D01*
X24350000Y-61175000D02*
X25150000Y-61175000D01*
X9387500Y-34675000D02*
X10362500Y-34675000D01*
X9062500Y-31775000D02*
X9062500Y-34350000D01*
X10362500Y-34675000D02*
X10362500Y-31775000D01*
X10362500Y-31775000D02*
X9062500Y-31775000D01*
X9062500Y-34350000D02*
X9387500Y-34675000D01*
X5470000Y-5080000D02*
X5970000Y-5080000D01*
X5970000Y-4080000D02*
X5470000Y-4080000D01*
X5970000Y-5080000D02*
X5970000Y-4080000D01*
X5470000Y-4080000D02*
X5470000Y-5080000D01*
X7280000Y-46000000D02*
X7820000Y-46000000D01*
X7820000Y-44950000D02*
X7280000Y-44950000D01*
X7280000Y-44950000D02*
X7280000Y-46000000D01*
X7820000Y-46000000D02*
X7820000Y-44950000D01*
X46020000Y-59650000D02*
X46020000Y-58600000D01*
X45480000Y-58600000D02*
X45480000Y-59650000D01*
X45480000Y-59650000D02*
X46020000Y-59650000D01*
X46020000Y-58600000D02*
X45480000Y-58600000D01*
X29010000Y-56110000D02*
X29010000Y-57110000D01*
X29510000Y-57110000D02*
X29510000Y-56110000D01*
X29510000Y-56110000D02*
X29010000Y-56110000D01*
X29010000Y-57110000D02*
X29510000Y-57110000D01*
X24840000Y-55270000D02*
X24040000Y-55270000D01*
X24040000Y-55270000D02*
X24040000Y-56870000D01*
X24040000Y-56870000D02*
X24840000Y-56870000D01*
X24840000Y-56870000D02*
X24840000Y-55270000D01*
X40530000Y-56145000D02*
X41070000Y-56145000D01*
X40530000Y-55095000D02*
X40530000Y-56145000D01*
X41070000Y-56145000D02*
X41070000Y-55095000D01*
X41070000Y-55095000D02*
X40530000Y-55095000D01*
X10520000Y-3142500D02*
X10520000Y-3642500D01*
X10520000Y-3642500D02*
X11520000Y-3642500D01*
X11520000Y-3142500D02*
X10520000Y-3142500D01*
X11520000Y-3642500D02*
X11520000Y-3142500D01*
X34240000Y-28570000D02*
X34240000Y-24570000D01*
X34240000Y-24570000D02*
X38240000Y-24570000D01*
X38240000Y-28570000D02*
X34240000Y-28570000D01*
X38240000Y-24570000D02*
X38240000Y-28570000D01*
X8080000Y-16675000D02*
X8080000Y-17725000D01*
X8080000Y-17725000D02*
X8620000Y-17725000D01*
X8620000Y-16675000D02*
X8080000Y-16675000D01*
X8620000Y-17725000D02*
X8620000Y-16675000D01*
X26150000Y-59275000D02*
X25825000Y-59600000D01*
X28725000Y-60575000D02*
X28725000Y-59275000D01*
X25825000Y-60575000D02*
X28725000Y-60575000D01*
X25825000Y-59600000D02*
X25825000Y-60575000D01*
X28725000Y-59275000D02*
X26150000Y-59275000D01*
X3255000Y-17650000D02*
X3795000Y-17650000D01*
X3255000Y-16600000D02*
X3255000Y-17650000D01*
X3795000Y-17650000D02*
X3795000Y-16600000D01*
X3795000Y-16600000D02*
X3255000Y-16600000D01*
X9970000Y1562500D02*
X11020000Y1562500D01*
X11020000Y1562500D02*
X11020000Y2102500D01*
X11020000Y2102500D02*
X9970000Y2102500D01*
X9970000Y2102500D02*
X9970000Y1562500D01*
X13100000Y-40260000D02*
X14100000Y-40260000D01*
X13100000Y-39760000D02*
X13100000Y-40260000D01*
X14100000Y-39760000D02*
X13100000Y-39760000D01*
X14100000Y-40260000D02*
X14100000Y-39760000D01*
X14125000Y-38700000D02*
X13075000Y-38700000D01*
X13075000Y-39240000D02*
X14125000Y-39240000D01*
X14125000Y-39240000D02*
X14125000Y-38700000D01*
X13075000Y-38700000D02*
X13075000Y-39240000D01*
X35595000Y-29640000D02*
X34345000Y-29640000D01*
X34345000Y-31640000D02*
X35595000Y-31640000D01*
X34345000Y-29640000D02*
X34345000Y-31640000D01*
X35595000Y-31640000D02*
X35595000Y-29640000D01*
X11965000Y-15865000D02*
X12505000Y-15865000D01*
X12505000Y-14815000D02*
X11965000Y-14815000D01*
X12505000Y-15865000D02*
X12505000Y-14815000D01*
X11965000Y-14815000D02*
X11965000Y-15865000D01*
X10175000Y-25425000D02*
X10675000Y-25425000D01*
X10675000Y-24425000D02*
X10175000Y-24425000D01*
X10675000Y-25425000D02*
X10675000Y-24425000D01*
X10175000Y-24425000D02*
X10175000Y-25425000D01*
X6620000Y-30000D02*
X6620000Y-1330000D01*
X9520000Y-1005000D02*
X9520000Y-30000D01*
X9520000Y-30000D02*
X6620000Y-30000D01*
X6620000Y-1330000D02*
X9195000Y-1330000D01*
X9195000Y-1330000D02*
X9520000Y-1005000D01*
X57880000Y-51000000D02*
X57380000Y-51000000D01*
X57880000Y-52000000D02*
X57880000Y-51000000D01*
X57380000Y-52000000D02*
X57880000Y-52000000D01*
X57380000Y-51000000D02*
X57380000Y-52000000D01*
X13065000Y-38200000D02*
X14115000Y-38200000D01*
X14115000Y-38200000D02*
X14115000Y-37660000D01*
X13065000Y-37660000D02*
X13065000Y-38200000D01*
X14115000Y-37660000D02*
X13065000Y-37660000D01*
X51950000Y-59150000D02*
X51950000Y-55225000D01*
X48050000Y-54250000D02*
X48050000Y-59150000D01*
X50975000Y-54250000D02*
X48050000Y-54250000D01*
X51950000Y-55225000D02*
X50975000Y-54250000D01*
X48050000Y-59150000D02*
X51950000Y-59150000D01*
X41795000Y-27630000D02*
X41795000Y-26030000D01*
X38895000Y-27630000D02*
X41795000Y-27630000D01*
X41795000Y-26030000D02*
X39295000Y-26030000D01*
X38895000Y-26430000D02*
X38895000Y-27630000D01*
X39295000Y-26030000D02*
X38895000Y-26430000D01*
X41450000Y-22340000D02*
X41450000Y-23940000D01*
X42250000Y-22340000D02*
X41450000Y-22340000D01*
X41450000Y-23940000D02*
X42250000Y-23940000D01*
X42250000Y-23940000D02*
X42250000Y-22340000D01*
X10520000Y7500D02*
X10120000Y-392500D01*
X10120000Y-1592500D02*
X13020000Y-1592500D01*
X13020000Y7500D02*
X10520000Y7500D01*
X10120000Y-392500D02*
X10120000Y-1592500D01*
X13020000Y-1592500D02*
X13020000Y7500D01*
X11920000Y2102500D02*
X11920000Y1562500D01*
X12970000Y2102500D02*
X11920000Y2102500D01*
X12970000Y1562500D02*
X12970000Y2102500D01*
X11920000Y1562500D02*
X12970000Y1562500D01*
X4175000Y-38625000D02*
X4175000Y-36825000D01*
X2525000Y-38125000D02*
X3125000Y-37725000D01*
X1375000Y-36825000D02*
X1375000Y-38625000D01*
X3125000Y-37725000D02*
X2525000Y-37325000D01*
X3125000Y-37725000D02*
X3125000Y-38275000D01*
X4175000Y-36825000D02*
X1375000Y-36825000D01*
X3125000Y-37725000D02*
X3125000Y-37175000D01*
X3525000Y-37725000D02*
X3125000Y-37725000D01*
X1375000Y-38625000D02*
X4175000Y-38625000D01*
X2525000Y-37725000D02*
X2025000Y-37725000D01*
X2525000Y-37325000D02*
X2525000Y-38125000D01*
X42950000Y-57825000D02*
X43925000Y-57825000D01*
X43925000Y-57825000D02*
X43925000Y-54925000D01*
X42625000Y-57500000D02*
X42950000Y-57825000D01*
X42625000Y-54925000D02*
X42625000Y-57500000D01*
X43925000Y-54925000D02*
X42625000Y-54925000D01*
X7507500Y-36050000D02*
X7507500Y-35000000D01*
X6967500Y-35000000D02*
X6967500Y-36050000D01*
X7507500Y-35000000D02*
X6967500Y-35000000D01*
X6967500Y-36050000D02*
X7507500Y-36050000D01*
X5942500Y-35000000D02*
X5942500Y-36050000D01*
X6482500Y-35000000D02*
X5942500Y-35000000D01*
X5942500Y-36050000D02*
X6482500Y-36050000D01*
X6482500Y-36050000D02*
X6482500Y-35000000D01*
X39410000Y-22540000D02*
X40210000Y-22540000D01*
X38910000Y-20890000D02*
X38910000Y-23690000D01*
X40210000Y-22540000D02*
X39810000Y-21940000D01*
X39810000Y-21940000D02*
X39410000Y-22540000D01*
X38910000Y-23690000D02*
X40710000Y-23690000D01*
X40710000Y-23690000D02*
X40710000Y-20890000D01*
X39810000Y-21940000D02*
X39260000Y-21940000D01*
X40710000Y-20890000D02*
X38910000Y-20890000D01*
X39810000Y-22540000D02*
X39810000Y-23040000D01*
X39810000Y-21940000D02*
X40360000Y-21940000D01*
X39810000Y-21540000D02*
X39810000Y-21940000D01*
X58440000Y-53630000D02*
X58440000Y-52830000D01*
X56840000Y-52830000D02*
X56840000Y-53630000D01*
X58440000Y-52830000D02*
X56840000Y-52830000D01*
X56840000Y-53630000D02*
X58440000Y-53630000D01*
X41290000Y-30395000D02*
X41830000Y-30395000D01*
X41830000Y-29345000D02*
X41290000Y-29345000D01*
X41290000Y-29345000D02*
X41290000Y-30395000D01*
X41830000Y-30395000D02*
X41830000Y-29345000D01*
X41070000Y-59665000D02*
X41070000Y-58615000D01*
X40530000Y-58615000D02*
X40530000Y-59665000D01*
X40530000Y-59665000D02*
X41070000Y-59665000D01*
X41070000Y-58615000D02*
X40530000Y-58615000D01*
X55750000Y-52890000D02*
X55750000Y-51290000D01*
X54950000Y-52890000D02*
X55750000Y-52890000D01*
X55750000Y-51290000D02*
X54950000Y-51290000D01*
X54950000Y-51290000D02*
X54950000Y-52890000D01*
X7070000Y-3830000D02*
X8670000Y-3830000D01*
X8670000Y-3030000D02*
X7070000Y-3030000D01*
X8670000Y-3830000D02*
X8670000Y-3030000D01*
X7070000Y-3030000D02*
X7070000Y-3830000D01*
X49480000Y-29340000D02*
X48980000Y-29340000D01*
X48980000Y-29340000D02*
X48980000Y-30340000D01*
X49480000Y-30340000D02*
X49480000Y-29340000D01*
X48980000Y-30340000D02*
X49480000Y-30340000D01*
X17497500Y-39810000D02*
X17097500Y-39410000D01*
X17097500Y-39410000D02*
X15897500Y-39410000D01*
X15897500Y-39410000D02*
X15897500Y-42310000D01*
X15897500Y-42310000D02*
X17497500Y-42310000D01*
X17497500Y-42310000D02*
X17497500Y-39810000D01*
X43800000Y-23930000D02*
X43800000Y-22330000D01*
X43000000Y-23930000D02*
X43800000Y-23930000D01*
X43000000Y-22330000D02*
X43000000Y-23930000D01*
X43800000Y-22330000D02*
X43000000Y-22330000D01*
X8925000Y-45510000D02*
X9975000Y-45510000D01*
X9975000Y-44970000D02*
X8925000Y-44970000D01*
X9975000Y-45510000D02*
X9975000Y-44970000D01*
X8925000Y-44970000D02*
X8925000Y-45510000D01*
X19740000Y-43005000D02*
X17740000Y-43005000D01*
X17740000Y-43005000D02*
X17740000Y-44255000D01*
X19740000Y-44255000D02*
X19740000Y-43005000D01*
X17740000Y-44255000D02*
X19740000Y-44255000D01*
X15650000Y-42995000D02*
X13650000Y-42995000D01*
X13650000Y-42995000D02*
X13650000Y-44245000D01*
X15650000Y-44245000D02*
X15650000Y-42995000D01*
X13650000Y-44245000D02*
X15650000Y-44245000D01*
X19295000Y-59550000D02*
X19295000Y-61150000D01*
X20095000Y-59550000D02*
X19295000Y-59550000D01*
X19295000Y-61150000D02*
X20095000Y-61150000D01*
X20095000Y-61150000D02*
X20095000Y-59550000D01*
X4175000Y-27175000D02*
X5175000Y-27175000D01*
X5175000Y-27175000D02*
X5175000Y-26675000D01*
X4175000Y-26675000D02*
X4175000Y-27175000D01*
X5175000Y-26675000D02*
X4175000Y-26675000D01*
X7375000Y-27150000D02*
X8575000Y-27150000D01*
X6975000Y-26750000D02*
X7375000Y-27150000D01*
X8575000Y-27150000D02*
X8575000Y-24250000D01*
X8575000Y-24250000D02*
X6975000Y-24250000D01*
X6975000Y-24250000D02*
X6975000Y-26750000D01*
X45480000Y-57700000D02*
X46020000Y-57700000D01*
X46020000Y-57700000D02*
X46020000Y-56650000D01*
X45480000Y-56650000D02*
X45480000Y-57700000D01*
X46020000Y-56650000D02*
X45480000Y-56650000D01*
X28020000Y-57120000D02*
X28520000Y-57120000D01*
X28520000Y-56120000D02*
X28020000Y-56120000D01*
X28520000Y-57120000D02*
X28520000Y-56120000D01*
X28020000Y-56120000D02*
X28020000Y-57120000D01*
X8800000Y-38750000D02*
X8800000Y-40550000D01*
X11600000Y-40550000D02*
X11600000Y-38750000D01*
X10550000Y-39650000D02*
X9950000Y-39250000D01*
X10550000Y-39650000D02*
X10550000Y-40200000D01*
X10550000Y-39650000D02*
X10550000Y-39100000D01*
X9950000Y-40050000D02*
X10550000Y-39650000D01*
X11600000Y-38750000D02*
X8800000Y-38750000D01*
X8800000Y-40550000D02*
X11600000Y-40550000D01*
X9950000Y-39250000D02*
X9950000Y-40050000D01*
X9950000Y-39650000D02*
X9450000Y-39650000D01*
X10950000Y-39650000D02*
X10550000Y-39650000D01*
X58860000Y-55655000D02*
X58860000Y-54405000D01*
X56860000Y-55655000D02*
X58860000Y-55655000D01*
X56860000Y-54405000D02*
X56860000Y-55655000D01*
X58860000Y-54405000D02*
X56860000Y-54405000D01*
X6330000Y-44975000D02*
X6330000Y-46025000D01*
X6330000Y-46025000D02*
X6870000Y-46025000D01*
X6870000Y-46025000D02*
X6870000Y-44975000D01*
X6870000Y-44975000D02*
X6330000Y-44975000D01*
X8925000Y-43920000D02*
X8925000Y-44460000D01*
X8925000Y-44460000D02*
X9975000Y-44460000D01*
X9975000Y-43920000D02*
X8925000Y-43920000D01*
X9975000Y-44460000D02*
X9975000Y-43920000D01*
X5675000Y-45725000D02*
X5675000Y-44125000D01*
X4875000Y-44125000D02*
X4875000Y-45725000D01*
X5675000Y-44125000D02*
X4875000Y-44125000D01*
X4875000Y-45725000D02*
X5675000Y-45725000D01*
X26590000Y-55270000D02*
X26590000Y-56870000D01*
X27390000Y-56870000D02*
X27390000Y-55270000D01*
X26590000Y-56870000D02*
X27390000Y-56870000D01*
X27390000Y-55270000D02*
X26590000Y-55270000D01*
X12530000Y-12390000D02*
X12530000Y-11340000D01*
X11990000Y-11340000D02*
X11990000Y-12390000D01*
X11990000Y-12390000D02*
X12530000Y-12390000D01*
X12530000Y-11340000D02*
X11990000Y-11340000D01*
X7387500Y-33825000D02*
X7387500Y-32225000D01*
X7387500Y-32225000D02*
X6587500Y-32225000D01*
X6587500Y-32225000D02*
X6587500Y-33825000D01*
X6587500Y-33825000D02*
X7387500Y-33825000D01*
X19730000Y-46315000D02*
X19730000Y-45065000D01*
X17730000Y-46315000D02*
X19730000Y-46315000D01*
X17730000Y-45065000D02*
X17730000Y-46315000D01*
X19730000Y-45065000D02*
X17730000Y-45065000D01*
X29360000Y-60310000D02*
X30160000Y-60310000D01*
X30160000Y-60310000D02*
X30160000Y-58710000D01*
X30160000Y-58710000D02*
X29360000Y-58710000D01*
X29360000Y-58710000D02*
X29360000Y-60310000D01*
X13325000Y-36275000D02*
X15325000Y-36275000D01*
X15325000Y-36275000D02*
X15325000Y-35025000D01*
X13325000Y-35025000D02*
X13325000Y-36275000D01*
X15325000Y-35025000D02*
X13325000Y-35025000D01*
X23645000Y-60575000D02*
X23645000Y-59275000D01*
X20745000Y-59600000D02*
X20745000Y-60575000D01*
X20745000Y-60575000D02*
X23645000Y-60575000D01*
X21070000Y-59275000D02*
X20745000Y-59600000D01*
X23645000Y-59275000D02*
X21070000Y-59275000D01*
X25960000Y-57100000D02*
X25960000Y-56100000D01*
X25460000Y-57100000D02*
X25960000Y-57100000D01*
X25960000Y-56100000D02*
X25460000Y-56100000D01*
X25460000Y-56100000D02*
X25460000Y-57100000D01*
X42625000Y-58450000D02*
X42625000Y-61025000D01*
X43925000Y-58450000D02*
X42625000Y-58450000D01*
X42950000Y-61350000D02*
X43925000Y-61350000D01*
X43925000Y-61350000D02*
X43925000Y-58450000D01*
X42625000Y-61025000D02*
X42950000Y-61350000D01*
X7675000Y-47775000D02*
X4775000Y-47775000D01*
X7675000Y-48975000D02*
X7675000Y-47775000D01*
X4775000Y-49375000D02*
X7275000Y-49375000D01*
X7275000Y-49375000D02*
X7675000Y-48975000D01*
X4775000Y-47775000D02*
X4775000Y-49375000D01*
X15385000Y-9640000D02*
X14085000Y-9640000D01*
X15385000Y-12540000D02*
X15385000Y-9640000D01*
X14085000Y-12215000D02*
X14410000Y-12540000D01*
X14410000Y-12540000D02*
X15385000Y-12540000D01*
X14085000Y-9640000D02*
X14085000Y-12215000D01*
X39350000Y-30350000D02*
X39350000Y-29350000D01*
X38850000Y-30350000D02*
X39350000Y-30350000D01*
X39350000Y-29350000D02*
X38850000Y-29350000D01*
X38850000Y-29350000D02*
X38850000Y-30350000D01*
X11745000Y-48680000D02*
X11745000Y-49220000D01*
X12795000Y-48680000D02*
X11745000Y-48680000D01*
X11745000Y-49220000D02*
X12795000Y-49220000D01*
X12795000Y-49220000D02*
X12795000Y-48680000D01*
X9387500Y-38150000D02*
X10362500Y-38150000D01*
X9062500Y-37825000D02*
X9387500Y-38150000D01*
X10362500Y-38150000D02*
X10362500Y-35250000D01*
X9062500Y-35250000D02*
X9062500Y-37825000D01*
X10362500Y-35250000D02*
X9062500Y-35250000D01*
M02*
