%TF.GenerationSoftware,KiCad,Pcbnew,(6.0.10)*%
%TF.CreationDate,2023-01-09T17:37:19-08:00*%
%TF.ProjectId,ai-camera,61692d63-616d-4657-9261-2e6b69636164,rev?*%
%TF.SameCoordinates,PX5a995c0PY2aea540*%
%TF.FileFunction,Drillmap*%
%TF.FilePolarity,Positive*%
%FSLAX45Y45*%
G04 Gerber Fmt 4.5, Leading zero omitted, Abs format (unit mm)*
G04 Created by KiCad (PCBNEW (6.0.10)) date 2023-01-09 17:37:19*
%MOMM*%
%LPD*%
G01*
G04 APERTURE LIST*
%ADD10C,0.100000*%
%ADD11C,0.200000*%
%ADD12C,0.099060*%
%ADD13C,0.140000*%
%ADD14C,0.230000*%
G04 APERTURE END LIST*
D10*
X7000000Y-500000D02*
G75*
G03*
X6500000Y0I-500000J0D01*
G01*
X0Y-4425000D02*
G75*
G03*
X250000Y-4675000I250000J0D01*
G01*
X7000000Y-5700000D02*
X7000000Y-6500000D01*
X500000Y0D02*
X6500000Y0D01*
X6300000Y-5300000D02*
G75*
G03*
X6500000Y-5500000I200000J0D01*
G01*
X250000Y-5925000D02*
G75*
G03*
X0Y-6175000I0J-250000D01*
G01*
X6800000Y-3600000D02*
X6500000Y-3600000D01*
X500000Y0D02*
G75*
G03*
X0Y-500000I0J-500000D01*
G01*
X7000000Y-5700000D02*
G75*
G03*
X6800000Y-5500000I-200000J0D01*
G01*
X0Y-4425000D02*
X0Y-500000D01*
X500000Y-4925000D02*
G75*
G03*
X250000Y-4675000I-250000J0D01*
G01*
X6500000Y-3600000D02*
G75*
G03*
X6300000Y-3800000I0J-200000D01*
G01*
X6500000Y-5500000D02*
X6800000Y-5500000D01*
X6500000Y-7000000D02*
G75*
G03*
X7000000Y-6500000I0J500000D01*
G01*
X500000Y-5675000D02*
X500000Y-4925000D01*
X0Y-6175000D02*
X0Y-6500000D01*
X7000000Y-500000D02*
X7000000Y-3400000D01*
X0Y-6500000D02*
G75*
G03*
X500000Y-7000000I500000J0D01*
G01*
X6500000Y-7000000D02*
X500000Y-7000000D01*
X250000Y-5925000D02*
G75*
G03*
X500000Y-5675000I0J250000D01*
G01*
X6800000Y-3600000D02*
G75*
G03*
X7000000Y-3400000I0J200000D01*
G01*
X6300000Y-3800000D02*
X6300000Y-5300000D01*
D11*
D12*
X769470Y-5950470D02*
X868530Y-6049530D01*
X868530Y-5950470D02*
X769470Y-6049530D01*
X1531470Y-5848870D02*
X1630530Y-5947930D01*
X1630530Y-5848870D02*
X1531470Y-5947930D01*
X1531470Y-6052070D02*
X1630530Y-6151130D01*
X1630530Y-6052070D02*
X1531470Y-6151130D01*
D13*
X2710000Y-750000D02*
G75*
G03*
X2710000Y-750000I-70000J0D01*
G01*
X3430000Y-750000D02*
G75*
G03*
X3430000Y-750000I-70000J0D01*
G01*
X3810000Y-750000D02*
G75*
G03*
X3810000Y-750000I-70000J0D01*
G01*
X4530000Y-750000D02*
G75*
G03*
X4530000Y-750000I-70000J0D01*
G01*
D14*
X2400000Y-2085000D02*
X2400000Y-2315000D01*
X2285000Y-2200000D02*
X2515000Y-2200000D01*
X4600000Y-2085000D02*
X4600000Y-2315000D01*
X4485000Y-2200000D02*
X4715000Y-2200000D01*
D11*
X252619Y-7315476D02*
X252619Y-7115476D01*
X300238Y-7115476D01*
X328810Y-7125000D01*
X347857Y-7144048D01*
X357381Y-7163095D01*
X366905Y-7201190D01*
X366905Y-7229762D01*
X357381Y-7267857D01*
X347857Y-7286905D01*
X328810Y-7305952D01*
X300238Y-7315476D01*
X252619Y-7315476D01*
X452619Y-7315476D02*
X452619Y-7182143D01*
X452619Y-7220238D02*
X462143Y-7201190D01*
X471667Y-7191667D01*
X490714Y-7182143D01*
X509762Y-7182143D01*
X576429Y-7315476D02*
X576429Y-7182143D01*
X576429Y-7115476D02*
X566905Y-7125000D01*
X576429Y-7134524D01*
X585952Y-7125000D01*
X576429Y-7115476D01*
X576429Y-7134524D01*
X700238Y-7315476D02*
X681190Y-7305952D01*
X671667Y-7286905D01*
X671667Y-7115476D01*
X805000Y-7315476D02*
X785952Y-7305952D01*
X776428Y-7286905D01*
X776428Y-7115476D01*
X1033571Y-7315476D02*
X1033571Y-7115476D01*
X1100238Y-7258333D01*
X1166905Y-7115476D01*
X1166905Y-7315476D01*
X1347857Y-7315476D02*
X1347857Y-7210714D01*
X1338333Y-7191667D01*
X1319286Y-7182143D01*
X1281190Y-7182143D01*
X1262143Y-7191667D01*
X1347857Y-7305952D02*
X1328810Y-7315476D01*
X1281190Y-7315476D01*
X1262143Y-7305952D01*
X1252619Y-7286905D01*
X1252619Y-7267857D01*
X1262143Y-7248809D01*
X1281190Y-7239286D01*
X1328810Y-7239286D01*
X1347857Y-7229762D01*
X1443095Y-7182143D02*
X1443095Y-7382143D01*
X1443095Y-7191667D02*
X1462143Y-7182143D01*
X1500238Y-7182143D01*
X1519286Y-7191667D01*
X1528809Y-7201190D01*
X1538333Y-7220238D01*
X1538333Y-7277381D01*
X1528809Y-7296428D01*
X1519286Y-7305952D01*
X1500238Y-7315476D01*
X1462143Y-7315476D01*
X1443095Y-7305952D01*
X1624048Y-7296428D02*
X1633571Y-7305952D01*
X1624048Y-7315476D01*
X1614524Y-7305952D01*
X1624048Y-7296428D01*
X1624048Y-7315476D01*
X1624048Y-7191667D02*
X1633571Y-7201190D01*
X1624048Y-7210714D01*
X1614524Y-7201190D01*
X1624048Y-7191667D01*
X1624048Y-7210714D01*
D12*
X-104060Y-7595470D02*
X-5000Y-7694530D01*
X-5000Y-7595470D02*
X-104060Y-7694530D01*
D11*
X290714Y-7535476D02*
X309762Y-7535476D01*
X328810Y-7545000D01*
X338333Y-7554524D01*
X347857Y-7573571D01*
X357381Y-7611667D01*
X357381Y-7659286D01*
X347857Y-7697381D01*
X338333Y-7716428D01*
X328810Y-7725952D01*
X309762Y-7735476D01*
X290714Y-7735476D01*
X271667Y-7725952D01*
X262143Y-7716428D01*
X252619Y-7697381D01*
X243095Y-7659286D01*
X243095Y-7611667D01*
X252619Y-7573571D01*
X262143Y-7554524D01*
X271667Y-7545000D01*
X290714Y-7535476D01*
X443095Y-7716428D02*
X452619Y-7725952D01*
X443095Y-7735476D01*
X433571Y-7725952D01*
X443095Y-7716428D01*
X443095Y-7735476D01*
X547857Y-7735476D02*
X585952Y-7735476D01*
X605000Y-7725952D01*
X614524Y-7716428D01*
X633571Y-7687857D01*
X643095Y-7649762D01*
X643095Y-7573571D01*
X633571Y-7554524D01*
X624048Y-7545000D01*
X605000Y-7535476D01*
X566905Y-7535476D01*
X547857Y-7545000D01*
X538333Y-7554524D01*
X528810Y-7573571D01*
X528810Y-7621190D01*
X538333Y-7640238D01*
X547857Y-7649762D01*
X566905Y-7659286D01*
X605000Y-7659286D01*
X624048Y-7649762D01*
X633571Y-7640238D01*
X643095Y-7621190D01*
X738333Y-7735476D02*
X776428Y-7735476D01*
X795476Y-7725952D01*
X805000Y-7716428D01*
X824048Y-7687857D01*
X833571Y-7649762D01*
X833571Y-7573571D01*
X824048Y-7554524D01*
X814524Y-7545000D01*
X795476Y-7535476D01*
X757381Y-7535476D01*
X738333Y-7545000D01*
X728809Y-7554524D01*
X719286Y-7573571D01*
X719286Y-7621190D01*
X728809Y-7640238D01*
X738333Y-7649762D01*
X757381Y-7659286D01*
X795476Y-7659286D01*
X814524Y-7649762D01*
X824048Y-7640238D01*
X833571Y-7621190D01*
X1024048Y-7735476D02*
X909762Y-7735476D01*
X966905Y-7735476D02*
X966905Y-7535476D01*
X947857Y-7564048D01*
X928809Y-7583095D01*
X909762Y-7592619D01*
X1109762Y-7735476D02*
X1109762Y-7602143D01*
X1109762Y-7621190D02*
X1119286Y-7611667D01*
X1138333Y-7602143D01*
X1166905Y-7602143D01*
X1185952Y-7611667D01*
X1195476Y-7630714D01*
X1195476Y-7735476D01*
X1195476Y-7630714D02*
X1205000Y-7611667D01*
X1224048Y-7602143D01*
X1252619Y-7602143D01*
X1271667Y-7611667D01*
X1281190Y-7630714D01*
X1281190Y-7735476D01*
X1376429Y-7735476D02*
X1376429Y-7602143D01*
X1376429Y-7621190D02*
X1385952Y-7611667D01*
X1405000Y-7602143D01*
X1433571Y-7602143D01*
X1452619Y-7611667D01*
X1462143Y-7630714D01*
X1462143Y-7735476D01*
X1462143Y-7630714D02*
X1471667Y-7611667D01*
X1490714Y-7602143D01*
X1519286Y-7602143D01*
X1538333Y-7611667D01*
X1547857Y-7630714D01*
X1547857Y-7735476D01*
X1938333Y-7525952D02*
X1766905Y-7783095D01*
X2195476Y-7535476D02*
X2214524Y-7535476D01*
X2233571Y-7545000D01*
X2243095Y-7554524D01*
X2252619Y-7573571D01*
X2262143Y-7611667D01*
X2262143Y-7659286D01*
X2252619Y-7697381D01*
X2243095Y-7716428D01*
X2233571Y-7725952D01*
X2214524Y-7735476D01*
X2195476Y-7735476D01*
X2176429Y-7725952D01*
X2166905Y-7716428D01*
X2157381Y-7697381D01*
X2147857Y-7659286D01*
X2147857Y-7611667D01*
X2157381Y-7573571D01*
X2166905Y-7554524D01*
X2176429Y-7545000D01*
X2195476Y-7535476D01*
X2347857Y-7716428D02*
X2357381Y-7725952D01*
X2347857Y-7735476D01*
X2338333Y-7725952D01*
X2347857Y-7716428D01*
X2347857Y-7735476D01*
X2481190Y-7535476D02*
X2500238Y-7535476D01*
X2519286Y-7545000D01*
X2528810Y-7554524D01*
X2538333Y-7573571D01*
X2547857Y-7611667D01*
X2547857Y-7659286D01*
X2538333Y-7697381D01*
X2528810Y-7716428D01*
X2519286Y-7725952D01*
X2500238Y-7735476D01*
X2481190Y-7735476D01*
X2462143Y-7725952D01*
X2452619Y-7716428D01*
X2443095Y-7697381D01*
X2433571Y-7659286D01*
X2433571Y-7611667D01*
X2443095Y-7573571D01*
X2452619Y-7554524D01*
X2462143Y-7545000D01*
X2481190Y-7535476D01*
X2614524Y-7535476D02*
X2738333Y-7535476D01*
X2671667Y-7611667D01*
X2700238Y-7611667D01*
X2719286Y-7621190D01*
X2728810Y-7630714D01*
X2738333Y-7649762D01*
X2738333Y-7697381D01*
X2728810Y-7716428D01*
X2719286Y-7725952D01*
X2700238Y-7735476D01*
X2643095Y-7735476D01*
X2624048Y-7725952D01*
X2614524Y-7716428D01*
X2833571Y-7735476D02*
X2871667Y-7735476D01*
X2890714Y-7725952D01*
X2900238Y-7716428D01*
X2919286Y-7687857D01*
X2928809Y-7649762D01*
X2928809Y-7573571D01*
X2919286Y-7554524D01*
X2909762Y-7545000D01*
X2890714Y-7535476D01*
X2852619Y-7535476D01*
X2833571Y-7545000D01*
X2824048Y-7554524D01*
X2814524Y-7573571D01*
X2814524Y-7621190D01*
X2824048Y-7640238D01*
X2833571Y-7649762D01*
X2852619Y-7659286D01*
X2890714Y-7659286D01*
X2909762Y-7649762D01*
X2919286Y-7640238D01*
X2928809Y-7621190D01*
X3052619Y-7535476D02*
X3071667Y-7535476D01*
X3090714Y-7545000D01*
X3100238Y-7554524D01*
X3109762Y-7573571D01*
X3119286Y-7611667D01*
X3119286Y-7659286D01*
X3109762Y-7697381D01*
X3100238Y-7716428D01*
X3090714Y-7725952D01*
X3071667Y-7735476D01*
X3052619Y-7735476D01*
X3033571Y-7725952D01*
X3024048Y-7716428D01*
X3014524Y-7697381D01*
X3005000Y-7659286D01*
X3005000Y-7611667D01*
X3014524Y-7573571D01*
X3024048Y-7554524D01*
X3033571Y-7545000D01*
X3052619Y-7535476D01*
X3195476Y-7535476D02*
X3195476Y-7573571D01*
X3271667Y-7535476D02*
X3271667Y-7573571D01*
X3566905Y-7811667D02*
X3557381Y-7802143D01*
X3538333Y-7773571D01*
X3528809Y-7754524D01*
X3519286Y-7725952D01*
X3509762Y-7678333D01*
X3509762Y-7640238D01*
X3519286Y-7592619D01*
X3528809Y-7564048D01*
X3538333Y-7545000D01*
X3557381Y-7516428D01*
X3566905Y-7506905D01*
X3624048Y-7535476D02*
X3747857Y-7535476D01*
X3681190Y-7611667D01*
X3709762Y-7611667D01*
X3728809Y-7621190D01*
X3738333Y-7630714D01*
X3747857Y-7649762D01*
X3747857Y-7697381D01*
X3738333Y-7716428D01*
X3728809Y-7725952D01*
X3709762Y-7735476D01*
X3652619Y-7735476D01*
X3633571Y-7725952D01*
X3624048Y-7716428D01*
X3985952Y-7735476D02*
X3985952Y-7535476D01*
X4071667Y-7735476D02*
X4071667Y-7630714D01*
X4062143Y-7611667D01*
X4043095Y-7602143D01*
X4014524Y-7602143D01*
X3995476Y-7611667D01*
X3985952Y-7621190D01*
X4195476Y-7735476D02*
X4176428Y-7725952D01*
X4166905Y-7716428D01*
X4157381Y-7697381D01*
X4157381Y-7640238D01*
X4166905Y-7621190D01*
X4176428Y-7611667D01*
X4195476Y-7602143D01*
X4224048Y-7602143D01*
X4243095Y-7611667D01*
X4252619Y-7621190D01*
X4262143Y-7640238D01*
X4262143Y-7697381D01*
X4252619Y-7716428D01*
X4243095Y-7725952D01*
X4224048Y-7735476D01*
X4195476Y-7735476D01*
X4376429Y-7735476D02*
X4357381Y-7725952D01*
X4347857Y-7706905D01*
X4347857Y-7535476D01*
X4528810Y-7725952D02*
X4509762Y-7735476D01*
X4471667Y-7735476D01*
X4452619Y-7725952D01*
X4443095Y-7706905D01*
X4443095Y-7630714D01*
X4452619Y-7611667D01*
X4471667Y-7602143D01*
X4509762Y-7602143D01*
X4528810Y-7611667D01*
X4538333Y-7630714D01*
X4538333Y-7649762D01*
X4443095Y-7668809D01*
X4614524Y-7725952D02*
X4633571Y-7735476D01*
X4671667Y-7735476D01*
X4690714Y-7725952D01*
X4700238Y-7706905D01*
X4700238Y-7697381D01*
X4690714Y-7678333D01*
X4671667Y-7668809D01*
X4643095Y-7668809D01*
X4624048Y-7659286D01*
X4614524Y-7640238D01*
X4614524Y-7630714D01*
X4624048Y-7611667D01*
X4643095Y-7602143D01*
X4671667Y-7602143D01*
X4690714Y-7611667D01*
X4766905Y-7811667D02*
X4776429Y-7802143D01*
X4795476Y-7773571D01*
X4805000Y-7754524D01*
X4814524Y-7725952D01*
X4824048Y-7678333D01*
X4824048Y-7640238D01*
X4814524Y-7592619D01*
X4805000Y-7564048D01*
X4795476Y-7545000D01*
X4776429Y-7516428D01*
X4766905Y-7506905D01*
X5128810Y-7811667D02*
X5119286Y-7802143D01*
X5100238Y-7773571D01*
X5090714Y-7754524D01*
X5081190Y-7725952D01*
X5071667Y-7678333D01*
X5071667Y-7640238D01*
X5081190Y-7592619D01*
X5090714Y-7564048D01*
X5100238Y-7545000D01*
X5119286Y-7516428D01*
X5128810Y-7506905D01*
X5205000Y-7602143D02*
X5205000Y-7735476D01*
X5205000Y-7621190D02*
X5214524Y-7611667D01*
X5233571Y-7602143D01*
X5262143Y-7602143D01*
X5281190Y-7611667D01*
X5290714Y-7630714D01*
X5290714Y-7735476D01*
X5414524Y-7735476D02*
X5395476Y-7725952D01*
X5385952Y-7716428D01*
X5376429Y-7697381D01*
X5376429Y-7640238D01*
X5385952Y-7621190D01*
X5395476Y-7611667D01*
X5414524Y-7602143D01*
X5443095Y-7602143D01*
X5462143Y-7611667D01*
X5471667Y-7621190D01*
X5481190Y-7640238D01*
X5481190Y-7697381D01*
X5471667Y-7716428D01*
X5462143Y-7725952D01*
X5443095Y-7735476D01*
X5414524Y-7735476D01*
X5538333Y-7602143D02*
X5614524Y-7602143D01*
X5566905Y-7535476D02*
X5566905Y-7706905D01*
X5576429Y-7725952D01*
X5595476Y-7735476D01*
X5614524Y-7735476D01*
X5833571Y-7602143D02*
X5833571Y-7802143D01*
X5833571Y-7611667D02*
X5852619Y-7602143D01*
X5890714Y-7602143D01*
X5909762Y-7611667D01*
X5919286Y-7621190D01*
X5928809Y-7640238D01*
X5928809Y-7697381D01*
X5919286Y-7716428D01*
X5909762Y-7725952D01*
X5890714Y-7735476D01*
X5852619Y-7735476D01*
X5833571Y-7725952D01*
X6043095Y-7735476D02*
X6024048Y-7725952D01*
X6014524Y-7706905D01*
X6014524Y-7535476D01*
X6205000Y-7735476D02*
X6205000Y-7630714D01*
X6195476Y-7611667D01*
X6176428Y-7602143D01*
X6138333Y-7602143D01*
X6119286Y-7611667D01*
X6205000Y-7725952D02*
X6185952Y-7735476D01*
X6138333Y-7735476D01*
X6119286Y-7725952D01*
X6109762Y-7706905D01*
X6109762Y-7687857D01*
X6119286Y-7668809D01*
X6138333Y-7659286D01*
X6185952Y-7659286D01*
X6205000Y-7649762D01*
X6271667Y-7602143D02*
X6347857Y-7602143D01*
X6300238Y-7535476D02*
X6300238Y-7706905D01*
X6309762Y-7725952D01*
X6328809Y-7735476D01*
X6347857Y-7735476D01*
X6490714Y-7725952D02*
X6471667Y-7735476D01*
X6433571Y-7735476D01*
X6414524Y-7725952D01*
X6405000Y-7706905D01*
X6405000Y-7630714D01*
X6414524Y-7611667D01*
X6433571Y-7602143D01*
X6471667Y-7602143D01*
X6490714Y-7611667D01*
X6500238Y-7630714D01*
X6500238Y-7649762D01*
X6405000Y-7668809D01*
X6671667Y-7735476D02*
X6671667Y-7535476D01*
X6671667Y-7725952D02*
X6652619Y-7735476D01*
X6614524Y-7735476D01*
X6595476Y-7725952D01*
X6585952Y-7716428D01*
X6576428Y-7697381D01*
X6576428Y-7640238D01*
X6585952Y-7621190D01*
X6595476Y-7611667D01*
X6614524Y-7602143D01*
X6652619Y-7602143D01*
X6671667Y-7611667D01*
X6747857Y-7811667D02*
X6757381Y-7802143D01*
X6776428Y-7773571D01*
X6785952Y-7754524D01*
X6795476Y-7725952D01*
X6805000Y-7678333D01*
X6805000Y-7640238D01*
X6795476Y-7592619D01*
X6785952Y-7564048D01*
X6776428Y-7545000D01*
X6757381Y-7516428D01*
X6747857Y-7506905D01*
D13*
X-5000Y-7909000D02*
G75*
G03*
X-5000Y-7909000I-70000J0D01*
G01*
D11*
X357381Y-7999476D02*
X243095Y-7999476D01*
X300238Y-7999476D02*
X300238Y-7799476D01*
X281190Y-7828048D01*
X262143Y-7847095D01*
X243095Y-7856619D01*
X443095Y-7980428D02*
X452619Y-7989952D01*
X443095Y-7999476D01*
X433571Y-7989952D01*
X443095Y-7980428D01*
X443095Y-7999476D01*
X624048Y-7866143D02*
X624048Y-7999476D01*
X576429Y-7789952D02*
X528810Y-7932809D01*
X652619Y-7932809D01*
X766905Y-7799476D02*
X785952Y-7799476D01*
X805000Y-7809000D01*
X814524Y-7818524D01*
X824048Y-7837571D01*
X833571Y-7875667D01*
X833571Y-7923286D01*
X824048Y-7961381D01*
X814524Y-7980428D01*
X805000Y-7989952D01*
X785952Y-7999476D01*
X766905Y-7999476D01*
X747857Y-7989952D01*
X738333Y-7980428D01*
X728809Y-7961381D01*
X719286Y-7923286D01*
X719286Y-7875667D01*
X728809Y-7837571D01*
X738333Y-7818524D01*
X747857Y-7809000D01*
X766905Y-7799476D01*
X957381Y-7799476D02*
X976428Y-7799476D01*
X995476Y-7809000D01*
X1005000Y-7818524D01*
X1014524Y-7837571D01*
X1024048Y-7875667D01*
X1024048Y-7923286D01*
X1014524Y-7961381D01*
X1005000Y-7980428D01*
X995476Y-7989952D01*
X976428Y-7999476D01*
X957381Y-7999476D01*
X938333Y-7989952D01*
X928809Y-7980428D01*
X919286Y-7961381D01*
X909762Y-7923286D01*
X909762Y-7875667D01*
X919286Y-7837571D01*
X928809Y-7818524D01*
X938333Y-7809000D01*
X957381Y-7799476D01*
X1109762Y-7999476D02*
X1109762Y-7866143D01*
X1109762Y-7885190D02*
X1119286Y-7875667D01*
X1138333Y-7866143D01*
X1166905Y-7866143D01*
X1185952Y-7875667D01*
X1195476Y-7894714D01*
X1195476Y-7999476D01*
X1195476Y-7894714D02*
X1205000Y-7875667D01*
X1224048Y-7866143D01*
X1252619Y-7866143D01*
X1271667Y-7875667D01*
X1281190Y-7894714D01*
X1281190Y-7999476D01*
X1376429Y-7999476D02*
X1376429Y-7866143D01*
X1376429Y-7885190D02*
X1385952Y-7875667D01*
X1405000Y-7866143D01*
X1433571Y-7866143D01*
X1452619Y-7875667D01*
X1462143Y-7894714D01*
X1462143Y-7999476D01*
X1462143Y-7894714D02*
X1471667Y-7875667D01*
X1490714Y-7866143D01*
X1519286Y-7866143D01*
X1538333Y-7875667D01*
X1547857Y-7894714D01*
X1547857Y-7999476D01*
X1938333Y-7789952D02*
X1766905Y-8047095D01*
X2195476Y-7799476D02*
X2214524Y-7799476D01*
X2233571Y-7809000D01*
X2243095Y-7818524D01*
X2252619Y-7837571D01*
X2262143Y-7875667D01*
X2262143Y-7923286D01*
X2252619Y-7961381D01*
X2243095Y-7980428D01*
X2233571Y-7989952D01*
X2214524Y-7999476D01*
X2195476Y-7999476D01*
X2176429Y-7989952D01*
X2166905Y-7980428D01*
X2157381Y-7961381D01*
X2147857Y-7923286D01*
X2147857Y-7875667D01*
X2157381Y-7837571D01*
X2166905Y-7818524D01*
X2176429Y-7809000D01*
X2195476Y-7799476D01*
X2347857Y-7980428D02*
X2357381Y-7989952D01*
X2347857Y-7999476D01*
X2338333Y-7989952D01*
X2347857Y-7980428D01*
X2347857Y-7999476D01*
X2481190Y-7799476D02*
X2500238Y-7799476D01*
X2519286Y-7809000D01*
X2528810Y-7818524D01*
X2538333Y-7837571D01*
X2547857Y-7875667D01*
X2547857Y-7923286D01*
X2538333Y-7961381D01*
X2528810Y-7980428D01*
X2519286Y-7989952D01*
X2500238Y-7999476D01*
X2481190Y-7999476D01*
X2462143Y-7989952D01*
X2452619Y-7980428D01*
X2443095Y-7961381D01*
X2433571Y-7923286D01*
X2433571Y-7875667D01*
X2443095Y-7837571D01*
X2452619Y-7818524D01*
X2462143Y-7809000D01*
X2481190Y-7799476D01*
X2728810Y-7799476D02*
X2633571Y-7799476D01*
X2624048Y-7894714D01*
X2633571Y-7885190D01*
X2652619Y-7875667D01*
X2700238Y-7875667D01*
X2719286Y-7885190D01*
X2728810Y-7894714D01*
X2738333Y-7913762D01*
X2738333Y-7961381D01*
X2728810Y-7980428D01*
X2719286Y-7989952D01*
X2700238Y-7999476D01*
X2652619Y-7999476D01*
X2633571Y-7989952D01*
X2624048Y-7980428D01*
X2919286Y-7799476D02*
X2824048Y-7799476D01*
X2814524Y-7894714D01*
X2824048Y-7885190D01*
X2843095Y-7875667D01*
X2890714Y-7875667D01*
X2909762Y-7885190D01*
X2919286Y-7894714D01*
X2928809Y-7913762D01*
X2928809Y-7961381D01*
X2919286Y-7980428D01*
X2909762Y-7989952D01*
X2890714Y-7999476D01*
X2843095Y-7999476D01*
X2824048Y-7989952D01*
X2814524Y-7980428D01*
X3119286Y-7999476D02*
X3005000Y-7999476D01*
X3062143Y-7999476D02*
X3062143Y-7799476D01*
X3043095Y-7828048D01*
X3024048Y-7847095D01*
X3005000Y-7856619D01*
X3195476Y-7799476D02*
X3195476Y-7837571D01*
X3271667Y-7799476D02*
X3271667Y-7837571D01*
X3566905Y-8075667D02*
X3557381Y-8066143D01*
X3538333Y-8037571D01*
X3528809Y-8018524D01*
X3519286Y-7989952D01*
X3509762Y-7942333D01*
X3509762Y-7904238D01*
X3519286Y-7856619D01*
X3528809Y-7828048D01*
X3538333Y-7809000D01*
X3557381Y-7780428D01*
X3566905Y-7770905D01*
X3728809Y-7866143D02*
X3728809Y-7999476D01*
X3681190Y-7789952D02*
X3633571Y-7932809D01*
X3757381Y-7932809D01*
X3985952Y-7999476D02*
X3985952Y-7799476D01*
X4071667Y-7999476D02*
X4071667Y-7894714D01*
X4062143Y-7875667D01*
X4043095Y-7866143D01*
X4014524Y-7866143D01*
X3995476Y-7875667D01*
X3985952Y-7885190D01*
X4195476Y-7999476D02*
X4176428Y-7989952D01*
X4166905Y-7980428D01*
X4157381Y-7961381D01*
X4157381Y-7904238D01*
X4166905Y-7885190D01*
X4176428Y-7875667D01*
X4195476Y-7866143D01*
X4224048Y-7866143D01*
X4243095Y-7875667D01*
X4252619Y-7885190D01*
X4262143Y-7904238D01*
X4262143Y-7961381D01*
X4252619Y-7980428D01*
X4243095Y-7989952D01*
X4224048Y-7999476D01*
X4195476Y-7999476D01*
X4376429Y-7999476D02*
X4357381Y-7989952D01*
X4347857Y-7970905D01*
X4347857Y-7799476D01*
X4528810Y-7989952D02*
X4509762Y-7999476D01*
X4471667Y-7999476D01*
X4452619Y-7989952D01*
X4443095Y-7970905D01*
X4443095Y-7894714D01*
X4452619Y-7875667D01*
X4471667Y-7866143D01*
X4509762Y-7866143D01*
X4528810Y-7875667D01*
X4538333Y-7894714D01*
X4538333Y-7913762D01*
X4443095Y-7932809D01*
X4614524Y-7989952D02*
X4633571Y-7999476D01*
X4671667Y-7999476D01*
X4690714Y-7989952D01*
X4700238Y-7970905D01*
X4700238Y-7961381D01*
X4690714Y-7942333D01*
X4671667Y-7932809D01*
X4643095Y-7932809D01*
X4624048Y-7923286D01*
X4614524Y-7904238D01*
X4614524Y-7894714D01*
X4624048Y-7875667D01*
X4643095Y-7866143D01*
X4671667Y-7866143D01*
X4690714Y-7875667D01*
X4766905Y-8075667D02*
X4776429Y-8066143D01*
X4795476Y-8037571D01*
X4805000Y-8018524D01*
X4814524Y-7989952D01*
X4824048Y-7942333D01*
X4824048Y-7904238D01*
X4814524Y-7856619D01*
X4805000Y-7828048D01*
X4795476Y-7809000D01*
X4776429Y-7780428D01*
X4766905Y-7770905D01*
X5128810Y-8075667D02*
X5119286Y-8066143D01*
X5100238Y-8037571D01*
X5090714Y-8018524D01*
X5081190Y-7989952D01*
X5071667Y-7942333D01*
X5071667Y-7904238D01*
X5081190Y-7856619D01*
X5090714Y-7828048D01*
X5100238Y-7809000D01*
X5119286Y-7780428D01*
X5128810Y-7770905D01*
X5205000Y-7866143D02*
X5205000Y-7999476D01*
X5205000Y-7885190D02*
X5214524Y-7875667D01*
X5233571Y-7866143D01*
X5262143Y-7866143D01*
X5281190Y-7875667D01*
X5290714Y-7894714D01*
X5290714Y-7999476D01*
X5414524Y-7999476D02*
X5395476Y-7989952D01*
X5385952Y-7980428D01*
X5376429Y-7961381D01*
X5376429Y-7904238D01*
X5385952Y-7885190D01*
X5395476Y-7875667D01*
X5414524Y-7866143D01*
X5443095Y-7866143D01*
X5462143Y-7875667D01*
X5471667Y-7885190D01*
X5481190Y-7904238D01*
X5481190Y-7961381D01*
X5471667Y-7980428D01*
X5462143Y-7989952D01*
X5443095Y-7999476D01*
X5414524Y-7999476D01*
X5538333Y-7866143D02*
X5614524Y-7866143D01*
X5566905Y-7799476D02*
X5566905Y-7970905D01*
X5576429Y-7989952D01*
X5595476Y-7999476D01*
X5614524Y-7999476D01*
X5833571Y-7866143D02*
X5833571Y-8066143D01*
X5833571Y-7875667D02*
X5852619Y-7866143D01*
X5890714Y-7866143D01*
X5909762Y-7875667D01*
X5919286Y-7885190D01*
X5928809Y-7904238D01*
X5928809Y-7961381D01*
X5919286Y-7980428D01*
X5909762Y-7989952D01*
X5890714Y-7999476D01*
X5852619Y-7999476D01*
X5833571Y-7989952D01*
X6043095Y-7999476D02*
X6024048Y-7989952D01*
X6014524Y-7970905D01*
X6014524Y-7799476D01*
X6205000Y-7999476D02*
X6205000Y-7894714D01*
X6195476Y-7875667D01*
X6176428Y-7866143D01*
X6138333Y-7866143D01*
X6119286Y-7875667D01*
X6205000Y-7989952D02*
X6185952Y-7999476D01*
X6138333Y-7999476D01*
X6119286Y-7989952D01*
X6109762Y-7970905D01*
X6109762Y-7951857D01*
X6119286Y-7932809D01*
X6138333Y-7923286D01*
X6185952Y-7923286D01*
X6205000Y-7913762D01*
X6271667Y-7866143D02*
X6347857Y-7866143D01*
X6300238Y-7799476D02*
X6300238Y-7970905D01*
X6309762Y-7989952D01*
X6328809Y-7999476D01*
X6347857Y-7999476D01*
X6490714Y-7989952D02*
X6471667Y-7999476D01*
X6433571Y-7999476D01*
X6414524Y-7989952D01*
X6405000Y-7970905D01*
X6405000Y-7894714D01*
X6414524Y-7875667D01*
X6433571Y-7866143D01*
X6471667Y-7866143D01*
X6490714Y-7875667D01*
X6500238Y-7894714D01*
X6500238Y-7913762D01*
X6405000Y-7932809D01*
X6671667Y-7999476D02*
X6671667Y-7799476D01*
X6671667Y-7989952D02*
X6652619Y-7999476D01*
X6614524Y-7999476D01*
X6595476Y-7989952D01*
X6585952Y-7980428D01*
X6576428Y-7961381D01*
X6576428Y-7904238D01*
X6585952Y-7885190D01*
X6595476Y-7875667D01*
X6614524Y-7866143D01*
X6652619Y-7866143D01*
X6671667Y-7875667D01*
X6747857Y-8075667D02*
X6757381Y-8066143D01*
X6776428Y-8037571D01*
X6785952Y-8018524D01*
X6795476Y-7989952D01*
X6805000Y-7942333D01*
X6805000Y-7904238D01*
X6795476Y-7856619D01*
X6785952Y-7828048D01*
X6776428Y-7809000D01*
X6757381Y-7780428D01*
X6747857Y-7770905D01*
X-105000Y-8073000D02*
X-105000Y-8273000D01*
X-205000Y-8173000D02*
X-5000Y-8173000D01*
X243095Y-8082524D02*
X252619Y-8073000D01*
X271667Y-8063476D01*
X319286Y-8063476D01*
X338333Y-8073000D01*
X347857Y-8082524D01*
X357381Y-8101571D01*
X357381Y-8120619D01*
X347857Y-8149190D01*
X233571Y-8263476D01*
X357381Y-8263476D01*
X443095Y-8244428D02*
X452619Y-8253952D01*
X443095Y-8263476D01*
X433571Y-8253952D01*
X443095Y-8244428D01*
X443095Y-8263476D01*
X519286Y-8063476D02*
X643095Y-8063476D01*
X576429Y-8139667D01*
X605000Y-8139667D01*
X624048Y-8149190D01*
X633571Y-8158714D01*
X643095Y-8177762D01*
X643095Y-8225381D01*
X633571Y-8244428D01*
X624048Y-8253952D01*
X605000Y-8263476D01*
X547857Y-8263476D01*
X528810Y-8253952D01*
X519286Y-8244428D01*
X766905Y-8063476D02*
X785952Y-8063476D01*
X805000Y-8073000D01*
X814524Y-8082524D01*
X824048Y-8101571D01*
X833571Y-8139667D01*
X833571Y-8187286D01*
X824048Y-8225381D01*
X814524Y-8244428D01*
X805000Y-8253952D01*
X785952Y-8263476D01*
X766905Y-8263476D01*
X747857Y-8253952D01*
X738333Y-8244428D01*
X728809Y-8225381D01*
X719286Y-8187286D01*
X719286Y-8139667D01*
X728809Y-8101571D01*
X738333Y-8082524D01*
X747857Y-8073000D01*
X766905Y-8063476D01*
X957381Y-8063476D02*
X976428Y-8063476D01*
X995476Y-8073000D01*
X1005000Y-8082524D01*
X1014524Y-8101571D01*
X1024048Y-8139667D01*
X1024048Y-8187286D01*
X1014524Y-8225381D01*
X1005000Y-8244428D01*
X995476Y-8253952D01*
X976428Y-8263476D01*
X957381Y-8263476D01*
X938333Y-8253952D01*
X928809Y-8244428D01*
X919286Y-8225381D01*
X909762Y-8187286D01*
X909762Y-8139667D01*
X919286Y-8101571D01*
X928809Y-8082524D01*
X938333Y-8073000D01*
X957381Y-8063476D01*
X1109762Y-8263476D02*
X1109762Y-8130143D01*
X1109762Y-8149190D02*
X1119286Y-8139667D01*
X1138333Y-8130143D01*
X1166905Y-8130143D01*
X1185952Y-8139667D01*
X1195476Y-8158714D01*
X1195476Y-8263476D01*
X1195476Y-8158714D02*
X1205000Y-8139667D01*
X1224048Y-8130143D01*
X1252619Y-8130143D01*
X1271667Y-8139667D01*
X1281190Y-8158714D01*
X1281190Y-8263476D01*
X1376429Y-8263476D02*
X1376429Y-8130143D01*
X1376429Y-8149190D02*
X1385952Y-8139667D01*
X1405000Y-8130143D01*
X1433571Y-8130143D01*
X1452619Y-8139667D01*
X1462143Y-8158714D01*
X1462143Y-8263476D01*
X1462143Y-8158714D02*
X1471667Y-8139667D01*
X1490714Y-8130143D01*
X1519286Y-8130143D01*
X1538333Y-8139667D01*
X1547857Y-8158714D01*
X1547857Y-8263476D01*
X1938333Y-8053952D02*
X1766905Y-8311095D01*
X2195476Y-8063476D02*
X2214524Y-8063476D01*
X2233571Y-8073000D01*
X2243095Y-8082524D01*
X2252619Y-8101571D01*
X2262143Y-8139667D01*
X2262143Y-8187286D01*
X2252619Y-8225381D01*
X2243095Y-8244428D01*
X2233571Y-8253952D01*
X2214524Y-8263476D01*
X2195476Y-8263476D01*
X2176429Y-8253952D01*
X2166905Y-8244428D01*
X2157381Y-8225381D01*
X2147857Y-8187286D01*
X2147857Y-8139667D01*
X2157381Y-8101571D01*
X2166905Y-8082524D01*
X2176429Y-8073000D01*
X2195476Y-8063476D01*
X2347857Y-8244428D02*
X2357381Y-8253952D01*
X2347857Y-8263476D01*
X2338333Y-8253952D01*
X2347857Y-8244428D01*
X2347857Y-8263476D01*
X2481190Y-8063476D02*
X2500238Y-8063476D01*
X2519286Y-8073000D01*
X2528810Y-8082524D01*
X2538333Y-8101571D01*
X2547857Y-8139667D01*
X2547857Y-8187286D01*
X2538333Y-8225381D01*
X2528810Y-8244428D01*
X2519286Y-8253952D01*
X2500238Y-8263476D01*
X2481190Y-8263476D01*
X2462143Y-8253952D01*
X2452619Y-8244428D01*
X2443095Y-8225381D01*
X2433571Y-8187286D01*
X2433571Y-8139667D01*
X2443095Y-8101571D01*
X2452619Y-8082524D01*
X2462143Y-8073000D01*
X2481190Y-8063476D01*
X2643095Y-8263476D02*
X2681190Y-8263476D01*
X2700238Y-8253952D01*
X2709762Y-8244428D01*
X2728810Y-8215857D01*
X2738333Y-8177762D01*
X2738333Y-8101571D01*
X2728810Y-8082524D01*
X2719286Y-8073000D01*
X2700238Y-8063476D01*
X2662143Y-8063476D01*
X2643095Y-8073000D01*
X2633571Y-8082524D01*
X2624048Y-8101571D01*
X2624048Y-8149190D01*
X2633571Y-8168238D01*
X2643095Y-8177762D01*
X2662143Y-8187286D01*
X2700238Y-8187286D01*
X2719286Y-8177762D01*
X2728810Y-8168238D01*
X2738333Y-8149190D01*
X2862143Y-8063476D02*
X2881190Y-8063476D01*
X2900238Y-8073000D01*
X2909762Y-8082524D01*
X2919286Y-8101571D01*
X2928809Y-8139667D01*
X2928809Y-8187286D01*
X2919286Y-8225381D01*
X2909762Y-8244428D01*
X2900238Y-8253952D01*
X2881190Y-8263476D01*
X2862143Y-8263476D01*
X2843095Y-8253952D01*
X2833571Y-8244428D01*
X2824048Y-8225381D01*
X2814524Y-8187286D01*
X2814524Y-8139667D01*
X2824048Y-8101571D01*
X2833571Y-8082524D01*
X2843095Y-8073000D01*
X2862143Y-8063476D01*
X3100238Y-8063476D02*
X3062143Y-8063476D01*
X3043095Y-8073000D01*
X3033571Y-8082524D01*
X3014524Y-8111095D01*
X3005000Y-8149190D01*
X3005000Y-8225381D01*
X3014524Y-8244428D01*
X3024048Y-8253952D01*
X3043095Y-8263476D01*
X3081190Y-8263476D01*
X3100238Y-8253952D01*
X3109762Y-8244428D01*
X3119286Y-8225381D01*
X3119286Y-8177762D01*
X3109762Y-8158714D01*
X3100238Y-8149190D01*
X3081190Y-8139667D01*
X3043095Y-8139667D01*
X3024048Y-8149190D01*
X3014524Y-8158714D01*
X3005000Y-8177762D01*
X3195476Y-8063476D02*
X3195476Y-8101571D01*
X3271667Y-8063476D02*
X3271667Y-8101571D01*
X3566905Y-8339667D02*
X3557381Y-8330143D01*
X3538333Y-8301571D01*
X3528809Y-8282524D01*
X3519286Y-8253952D01*
X3509762Y-8206333D01*
X3509762Y-8168238D01*
X3519286Y-8120619D01*
X3528809Y-8092048D01*
X3538333Y-8073000D01*
X3557381Y-8044428D01*
X3566905Y-8034905D01*
X3633571Y-8082524D02*
X3643095Y-8073000D01*
X3662143Y-8063476D01*
X3709762Y-8063476D01*
X3728809Y-8073000D01*
X3738333Y-8082524D01*
X3747857Y-8101571D01*
X3747857Y-8120619D01*
X3738333Y-8149190D01*
X3624048Y-8263476D01*
X3747857Y-8263476D01*
X3985952Y-8263476D02*
X3985952Y-8063476D01*
X4071667Y-8263476D02*
X4071667Y-8158714D01*
X4062143Y-8139667D01*
X4043095Y-8130143D01*
X4014524Y-8130143D01*
X3995476Y-8139667D01*
X3985952Y-8149190D01*
X4195476Y-8263476D02*
X4176428Y-8253952D01*
X4166905Y-8244428D01*
X4157381Y-8225381D01*
X4157381Y-8168238D01*
X4166905Y-8149190D01*
X4176428Y-8139667D01*
X4195476Y-8130143D01*
X4224048Y-8130143D01*
X4243095Y-8139667D01*
X4252619Y-8149190D01*
X4262143Y-8168238D01*
X4262143Y-8225381D01*
X4252619Y-8244428D01*
X4243095Y-8253952D01*
X4224048Y-8263476D01*
X4195476Y-8263476D01*
X4376429Y-8263476D02*
X4357381Y-8253952D01*
X4347857Y-8234905D01*
X4347857Y-8063476D01*
X4528810Y-8253952D02*
X4509762Y-8263476D01*
X4471667Y-8263476D01*
X4452619Y-8253952D01*
X4443095Y-8234905D01*
X4443095Y-8158714D01*
X4452619Y-8139667D01*
X4471667Y-8130143D01*
X4509762Y-8130143D01*
X4528810Y-8139667D01*
X4538333Y-8158714D01*
X4538333Y-8177762D01*
X4443095Y-8196809D01*
X4614524Y-8253952D02*
X4633571Y-8263476D01*
X4671667Y-8263476D01*
X4690714Y-8253952D01*
X4700238Y-8234905D01*
X4700238Y-8225381D01*
X4690714Y-8206333D01*
X4671667Y-8196809D01*
X4643095Y-8196809D01*
X4624048Y-8187286D01*
X4614524Y-8168238D01*
X4614524Y-8158714D01*
X4624048Y-8139667D01*
X4643095Y-8130143D01*
X4671667Y-8130143D01*
X4690714Y-8139667D01*
X4766905Y-8339667D02*
X4776429Y-8330143D01*
X4795476Y-8301571D01*
X4805000Y-8282524D01*
X4814524Y-8253952D01*
X4824048Y-8206333D01*
X4824048Y-8168238D01*
X4814524Y-8120619D01*
X4805000Y-8092048D01*
X4795476Y-8073000D01*
X4776429Y-8044428D01*
X4766905Y-8034905D01*
X5128810Y-8339667D02*
X5119286Y-8330143D01*
X5100238Y-8301571D01*
X5090714Y-8282524D01*
X5081190Y-8253952D01*
X5071667Y-8206333D01*
X5071667Y-8168238D01*
X5081190Y-8120619D01*
X5090714Y-8092048D01*
X5100238Y-8073000D01*
X5119286Y-8044428D01*
X5128810Y-8034905D01*
X5205000Y-8130143D02*
X5205000Y-8263476D01*
X5205000Y-8149190D02*
X5214524Y-8139667D01*
X5233571Y-8130143D01*
X5262143Y-8130143D01*
X5281190Y-8139667D01*
X5290714Y-8158714D01*
X5290714Y-8263476D01*
X5414524Y-8263476D02*
X5395476Y-8253952D01*
X5385952Y-8244428D01*
X5376429Y-8225381D01*
X5376429Y-8168238D01*
X5385952Y-8149190D01*
X5395476Y-8139667D01*
X5414524Y-8130143D01*
X5443095Y-8130143D01*
X5462143Y-8139667D01*
X5471667Y-8149190D01*
X5481190Y-8168238D01*
X5481190Y-8225381D01*
X5471667Y-8244428D01*
X5462143Y-8253952D01*
X5443095Y-8263476D01*
X5414524Y-8263476D01*
X5538333Y-8130143D02*
X5614524Y-8130143D01*
X5566905Y-8063476D02*
X5566905Y-8234905D01*
X5576429Y-8253952D01*
X5595476Y-8263476D01*
X5614524Y-8263476D01*
X5833571Y-8130143D02*
X5833571Y-8330143D01*
X5833571Y-8139667D02*
X5852619Y-8130143D01*
X5890714Y-8130143D01*
X5909762Y-8139667D01*
X5919286Y-8149190D01*
X5928809Y-8168238D01*
X5928809Y-8225381D01*
X5919286Y-8244428D01*
X5909762Y-8253952D01*
X5890714Y-8263476D01*
X5852619Y-8263476D01*
X5833571Y-8253952D01*
X6043095Y-8263476D02*
X6024048Y-8253952D01*
X6014524Y-8234905D01*
X6014524Y-8063476D01*
X6205000Y-8263476D02*
X6205000Y-8158714D01*
X6195476Y-8139667D01*
X6176428Y-8130143D01*
X6138333Y-8130143D01*
X6119286Y-8139667D01*
X6205000Y-8253952D02*
X6185952Y-8263476D01*
X6138333Y-8263476D01*
X6119286Y-8253952D01*
X6109762Y-8234905D01*
X6109762Y-8215857D01*
X6119286Y-8196809D01*
X6138333Y-8187286D01*
X6185952Y-8187286D01*
X6205000Y-8177762D01*
X6271667Y-8130143D02*
X6347857Y-8130143D01*
X6300238Y-8063476D02*
X6300238Y-8234905D01*
X6309762Y-8253952D01*
X6328809Y-8263476D01*
X6347857Y-8263476D01*
X6490714Y-8253952D02*
X6471667Y-8263476D01*
X6433571Y-8263476D01*
X6414524Y-8253952D01*
X6405000Y-8234905D01*
X6405000Y-8158714D01*
X6414524Y-8139667D01*
X6433571Y-8130143D01*
X6471667Y-8130143D01*
X6490714Y-8139667D01*
X6500238Y-8158714D01*
X6500238Y-8177762D01*
X6405000Y-8196809D01*
X6671667Y-8263476D02*
X6671667Y-8063476D01*
X6671667Y-8253952D02*
X6652619Y-8263476D01*
X6614524Y-8263476D01*
X6595476Y-8253952D01*
X6585952Y-8244428D01*
X6576428Y-8225381D01*
X6576428Y-8168238D01*
X6585952Y-8149190D01*
X6595476Y-8139667D01*
X6614524Y-8130143D01*
X6652619Y-8130143D01*
X6671667Y-8139667D01*
X6747857Y-8339667D02*
X6757381Y-8330143D01*
X6776428Y-8301571D01*
X6785952Y-8282524D01*
X6795476Y-8253952D01*
X6805000Y-8206333D01*
X6805000Y-8168238D01*
X6795476Y-8120619D01*
X6785952Y-8092048D01*
X6776428Y-8073000D01*
X6757381Y-8044428D01*
X6747857Y-8034905D01*
M02*
