%TF.GenerationSoftware,KiCad,Pcbnew,(7.0.0-93-gc189053ee5-dirty)*%
%TF.CreationDate,2023-02-21T15:15:16-08:00*%
%TF.ProjectId,ai-camera,61692d63-616d-4657-9261-2e6b69636164,rev1*%
%TF.SameCoordinates,PX5a995c0PY2aea540*%
%TF.FileFunction,Copper,L4,Bot*%
%TF.FilePolarity,Positive*%
%FSLAX46Y46*%
G04 Gerber Fmt 4.6, Leading zero omitted, Abs format (unit mm)*
G04 Created by KiCad (PCBNEW (7.0.0-93-gc189053ee5-dirty)) date 2023-02-21 15:15:16*
%MOMM*%
%LPD*%
G01*
G04 APERTURE LIST*
G04 Aperture macros list*
%AMRoundRect*
0 Rectangle with rounded corners*
0 $1 Rounding radius*
0 $2 $3 $4 $5 $6 $7 $8 $9 X,Y pos of 4 corners*
0 Add a 4 corners polygon primitive as box body*
4,1,4,$2,$3,$4,$5,$6,$7,$8,$9,$2,$3,0*
0 Add four circle primitives for the rounded corners*
1,1,$1+$1,$2,$3*
1,1,$1+$1,$4,$5*
1,1,$1+$1,$6,$7*
1,1,$1+$1,$8,$9*
0 Add four rect primitives between the rounded corners*
20,1,$1+$1,$2,$3,$4,$5,0*
20,1,$1+$1,$4,$5,$6,$7,0*
20,1,$1+$1,$6,$7,$8,$9,0*
20,1,$1+$1,$8,$9,$2,$3,0*%
%AMRotRect*
0 Rectangle, with rotation*
0 The origin of the aperture is its center*
0 $1 length*
0 $2 width*
0 $3 Rotation angle, in degrees counterclockwise*
0 Add horizontal line*
21,1,$1,$2,0,0,$3*%
%AMFreePoly0*
4,1,19,0.500000,-0.750000,0.000000,-0.750000,0.000000,-0.744911,-0.071157,-0.744911,-0.207708,-0.704816,-0.327430,-0.627875,-0.420627,-0.520320,-0.479746,-0.390866,-0.500000,-0.250000,-0.500000,0.250000,-0.479746,0.390866,-0.420627,0.520320,-0.327430,0.627875,-0.207708,0.704816,-0.071157,0.744911,0.000000,0.744911,0.000000,0.750000,0.500000,0.750000,0.500000,-0.750000,0.500000,-0.750000,
$1*%
%AMFreePoly1*
4,1,19,0.000000,0.744911,0.071157,0.744911,0.207708,0.704816,0.327430,0.627875,0.420627,0.520320,0.479746,0.390866,0.500000,0.250000,0.500000,-0.250000,0.479746,-0.390866,0.420627,-0.520320,0.327430,-0.627875,0.207708,-0.704816,0.071157,-0.744911,0.000000,-0.744911,0.000000,-0.750000,-0.500000,-0.750000,-0.500000,0.750000,0.000000,0.750000,0.000000,0.744911,0.000000,0.744911,
$1*%
G04 Aperture macros list end*
%TA.AperFunction,ComponentPad*%
%ADD10O,2.100000X1.000000*%
%TD*%
%TA.AperFunction,ComponentPad*%
%ADD11O,1.600000X1.000000*%
%TD*%
%TA.AperFunction,ComponentPad*%
%ADD12C,3.600000*%
%TD*%
%TA.AperFunction,ConnectorPad*%
%ADD13C,5.600000*%
%TD*%
%TA.AperFunction,WasherPad*%
%ADD14C,4.000000*%
%TD*%
%TA.AperFunction,WasherPad*%
%ADD15C,1.700000*%
%TD*%
%TA.AperFunction,ComponentPad*%
%ADD16C,1.700000*%
%TD*%
%TA.AperFunction,ComponentPad*%
%ADD17C,0.800000*%
%TD*%
%TA.AperFunction,ComponentPad*%
%ADD18RotRect,1.524000X1.524000X45.000000*%
%TD*%
%TA.AperFunction,ComponentPad*%
%ADD19C,1.524000*%
%TD*%
%TA.AperFunction,ComponentPad*%
%ADD20R,1.700000X1.700000*%
%TD*%
%TA.AperFunction,ComponentPad*%
%ADD21O,1.700000X1.700000*%
%TD*%
%TA.AperFunction,SMDPad,CuDef*%
%ADD22RoundRect,0.150000X-0.587500X-0.150000X0.587500X-0.150000X0.587500X0.150000X-0.587500X0.150000X0*%
%TD*%
%TA.AperFunction,SMDPad,CuDef*%
%ADD23RoundRect,0.250000X0.412500X0.925000X-0.412500X0.925000X-0.412500X-0.925000X0.412500X-0.925000X0*%
%TD*%
%TA.AperFunction,SMDPad,CuDef*%
%ADD24C,1.500000*%
%TD*%
%TA.AperFunction,SMDPad,CuDef*%
%ADD25RoundRect,0.135000X0.135000X0.185000X-0.135000X0.185000X-0.135000X-0.185000X0.135000X-0.185000X0*%
%TD*%
%TA.AperFunction,SMDPad,CuDef*%
%ADD26RoundRect,0.140000X0.170000X-0.140000X0.170000X0.140000X-0.170000X0.140000X-0.170000X-0.140000X0*%
%TD*%
%TA.AperFunction,SMDPad,CuDef*%
%ADD27R,0.900000X1.500000*%
%TD*%
%TA.AperFunction,SMDPad,CuDef*%
%ADD28R,1.500000X0.900000*%
%TD*%
%TA.AperFunction,ComponentPad*%
%ADD29C,0.600000*%
%TD*%
%TA.AperFunction,SMDPad,CuDef*%
%ADD30R,3.900000X3.900000*%
%TD*%
%TA.AperFunction,SMDPad,CuDef*%
%ADD31RoundRect,0.140000X-0.170000X0.140000X-0.170000X-0.140000X0.170000X-0.140000X0.170000X0.140000X0*%
%TD*%
%TA.AperFunction,SMDPad,CuDef*%
%ADD32RoundRect,0.225000X-0.250000X0.225000X-0.250000X-0.225000X0.250000X-0.225000X0.250000X0.225000X0*%
%TD*%
%TA.AperFunction,SMDPad,CuDef*%
%ADD33RoundRect,0.135000X-0.135000X-0.185000X0.135000X-0.185000X0.135000X0.185000X-0.135000X0.185000X0*%
%TD*%
%TA.AperFunction,SMDPad,CuDef*%
%ADD34RoundRect,0.140000X-0.140000X-0.170000X0.140000X-0.170000X0.140000X0.170000X-0.140000X0.170000X0*%
%TD*%
%TA.AperFunction,SMDPad,CuDef*%
%ADD35RoundRect,0.150000X0.587500X0.150000X-0.587500X0.150000X-0.587500X-0.150000X0.587500X-0.150000X0*%
%TD*%
%TA.AperFunction,SMDPad,CuDef*%
%ADD36RoundRect,0.140000X0.140000X0.170000X-0.140000X0.170000X-0.140000X-0.170000X0.140000X-0.170000X0*%
%TD*%
%TA.AperFunction,SMDPad,CuDef*%
%ADD37RoundRect,0.150000X-0.150000X0.587500X-0.150000X-0.587500X0.150000X-0.587500X0.150000X0.587500X0*%
%TD*%
%TA.AperFunction,SMDPad,CuDef*%
%ADD38RoundRect,0.225000X0.250000X-0.225000X0.250000X0.225000X-0.250000X0.225000X-0.250000X-0.225000X0*%
%TD*%
%TA.AperFunction,SMDPad,CuDef*%
%ADD39RoundRect,0.135000X0.185000X-0.135000X0.185000X0.135000X-0.185000X0.135000X-0.185000X-0.135000X0*%
%TD*%
%TA.AperFunction,SMDPad,CuDef*%
%ADD40FreePoly0,0.000000*%
%TD*%
%TA.AperFunction,SMDPad,CuDef*%
%ADD41FreePoly1,0.000000*%
%TD*%
%TA.AperFunction,SMDPad,CuDef*%
%ADD42RoundRect,0.150000X0.512500X0.150000X-0.512500X0.150000X-0.512500X-0.150000X0.512500X-0.150000X0*%
%TD*%
%TA.AperFunction,SMDPad,CuDef*%
%ADD43RoundRect,0.135000X-0.185000X0.135000X-0.185000X-0.135000X0.185000X-0.135000X0.185000X0.135000X0*%
%TD*%
%TA.AperFunction,SMDPad,CuDef*%
%ADD44RoundRect,0.225000X-0.225000X-0.250000X0.225000X-0.250000X0.225000X0.250000X-0.225000X0.250000X0*%
%TD*%
%TA.AperFunction,SMDPad,CuDef*%
%ADD45RoundRect,0.150000X0.150000X-0.512500X0.150000X0.512500X-0.150000X0.512500X-0.150000X-0.512500X0*%
%TD*%
%TA.AperFunction,SMDPad,CuDef*%
%ADD46RoundRect,0.250000X0.450000X-0.325000X0.450000X0.325000X-0.450000X0.325000X-0.450000X-0.325000X0*%
%TD*%
%TA.AperFunction,ViaPad*%
%ADD47C,0.600000*%
%TD*%
%TA.AperFunction,Conductor*%
%ADD48C,0.127000*%
%TD*%
%TA.AperFunction,Conductor*%
%ADD49C,0.203200*%
%TD*%
%TA.AperFunction,Conductor*%
%ADD50C,0.200000*%
%TD*%
%TA.AperFunction,Conductor*%
%ADD51C,0.500000*%
%TD*%
G04 APERTURE END LIST*
G36*
X17760000Y-13610000D02*
G01*
X17260000Y-13610000D01*
X17260000Y-13010000D01*
X17760000Y-13010000D01*
X17760000Y-13610000D01*
G37*
D10*
X5629999Y-35179999D03*
D11*
X1449999Y-35179999D03*
D10*
X5629999Y-43819999D03*
D11*
X1449999Y-43819999D03*
D12*
X5000000Y-65000000D03*
D13*
X5000000Y-65000000D03*
D12*
X5000000Y-5000000D03*
D13*
X5000000Y-5000000D03*
D14*
X24000000Y-22000000D03*
X46000000Y-22000000D03*
D15*
X44600000Y-7000000D03*
X37400000Y-7000000D03*
D16*
X43250000Y-4500000D03*
X38750000Y-4500000D03*
D15*
X32600000Y-7000000D03*
X25400000Y-7000000D03*
D16*
X31250000Y-4500000D03*
X26750000Y-4500000D03*
D17*
X21500000Y-16625000D03*
X21500000Y-15375000D03*
D18*
X8459999Y-13499999D03*
D19*
X11000000Y-16040000D03*
X13540000Y-13500000D03*
D12*
X65000000Y-5000000D03*
D13*
X65000000Y-5000000D03*
D20*
X56724999Y-10574999D03*
D21*
X59264999Y-10574999D03*
X56724999Y-13114999D03*
X59264999Y-13114999D03*
X56724999Y-15654999D03*
X59264999Y-15654999D03*
X56724999Y-18194999D03*
X59264999Y-18194999D03*
X56724999Y-20734999D03*
X59264999Y-20734999D03*
X56724999Y-23274999D03*
X59264999Y-23274999D03*
X56724999Y-25814999D03*
X59264999Y-25814999D03*
X56724999Y-28354999D03*
X59264999Y-28354999D03*
X56724999Y-30894999D03*
X59264999Y-30894999D03*
X56724999Y-33434999D03*
X59264999Y-33434999D03*
D12*
X65000000Y-65000000D03*
D13*
X65000000Y-65000000D03*
D22*
X20302500Y-13810000D03*
X20302500Y-11910000D03*
X22177500Y-12860000D03*
D23*
X59375000Y-62637500D03*
X56300000Y-62637500D03*
D24*
X25750000Y-31750000D03*
D25*
X15430000Y-28870000D03*
X14410000Y-28870000D03*
D24*
X9500000Y-53000000D03*
D26*
X60760000Y-35390000D03*
X60760000Y-34430000D03*
D27*
X61979999Y-54479999D03*
X60709999Y-54479999D03*
X59439999Y-54479999D03*
X58169999Y-54479999D03*
X56899999Y-54479999D03*
X55629999Y-54479999D03*
X54359999Y-54479999D03*
X53089999Y-54479999D03*
X51819999Y-54479999D03*
X50549999Y-54479999D03*
X49279999Y-54479999D03*
X48009999Y-54479999D03*
X46739999Y-54479999D03*
X45469999Y-54479999D03*
D28*
X44219999Y-52714999D03*
X44219999Y-51444999D03*
X44219999Y-50174999D03*
X44219999Y-48904999D03*
X44219999Y-47634999D03*
X44219999Y-46364999D03*
X44219999Y-45094999D03*
X44219999Y-43824999D03*
X44219999Y-42554999D03*
X44219999Y-41284999D03*
X44219999Y-40014999D03*
X44219999Y-38744999D03*
D27*
X45469999Y-36979999D03*
X46739999Y-36979999D03*
X48009999Y-36979999D03*
X49279999Y-36979999D03*
X50549999Y-36979999D03*
X51819999Y-36979999D03*
X53089999Y-36979999D03*
X54359999Y-36979999D03*
X55629999Y-36979999D03*
X56899999Y-36979999D03*
X58169999Y-36979999D03*
X59439999Y-36979999D03*
X60709999Y-36979999D03*
X61979999Y-36979999D03*
D29*
X53560000Y-48630000D03*
X54960000Y-48630000D03*
X52860000Y-47930000D03*
X54260000Y-47930000D03*
X55660000Y-47930000D03*
X53560000Y-47230000D03*
D30*
X54259999Y-47229999D03*
D29*
X54960000Y-47230000D03*
X52860000Y-46530000D03*
X54260000Y-46530000D03*
X55660000Y-46530000D03*
X53560000Y-45830000D03*
X54960000Y-45830000D03*
D24*
X25750000Y-39250000D03*
D31*
X20325000Y-24965000D03*
X20325000Y-25925000D03*
D32*
X17685000Y-17950000D03*
X17685000Y-19500000D03*
D26*
X37236400Y-42418000D03*
X37236400Y-41458000D03*
D24*
X39000000Y-39250000D03*
D33*
X17135000Y-25045000D03*
X18155000Y-25045000D03*
D24*
X50500000Y-20500000D03*
D32*
X10030000Y-18165000D03*
X10030000Y-19715000D03*
X20375000Y-17925000D03*
X20375000Y-19475000D03*
D34*
X60895000Y-56975000D03*
X61855000Y-56975000D03*
D35*
X15837500Y-39210000D03*
X15837500Y-41110000D03*
X13962500Y-40160000D03*
D36*
X6650000Y-13440000D03*
X5690000Y-13440000D03*
D32*
X29413200Y-44646900D03*
X29413200Y-46196900D03*
D31*
X8500000Y-10450000D03*
X8500000Y-11410000D03*
D23*
X59387500Y-66050000D03*
X56312500Y-66050000D03*
D24*
X16000000Y-6500000D03*
D37*
X30990200Y-44934900D03*
X32890200Y-44934900D03*
X31940200Y-46809900D03*
D24*
X48250000Y-6750000D03*
X63750000Y-11500000D03*
D36*
X46300000Y-35440000D03*
X45340000Y-35440000D03*
D38*
X20726400Y-46173800D03*
X20726400Y-44623800D03*
D39*
X13730000Y-9470000D03*
X13730000Y-8450000D03*
D33*
X19740000Y-10570000D03*
X20760000Y-10570000D03*
D31*
X19015000Y-18795000D03*
X19015000Y-19755000D03*
D22*
X6342500Y-20130000D03*
X6342500Y-18230000D03*
X8217500Y-19180000D03*
D34*
X60895000Y-55975000D03*
X61855000Y-55975000D03*
D24*
X9500000Y-49750000D03*
D40*
X16860000Y-13310000D03*
D41*
X18160000Y-13310000D03*
D35*
X6087500Y-14760000D03*
X6087500Y-16660000D03*
X4212500Y-15710000D03*
D42*
X12247500Y-9200000D03*
X12247500Y-10150000D03*
X12247500Y-11100000D03*
X9972500Y-11100000D03*
X9972500Y-10150000D03*
X9972500Y-9200000D03*
D43*
X13730000Y-10400000D03*
X13730000Y-11420000D03*
D24*
X64750000Y-32500000D03*
D32*
X24282400Y-44623800D03*
X24282400Y-46173800D03*
D24*
X36250000Y-18750000D03*
X18000000Y-31750000D03*
D33*
X17310000Y-36460000D03*
X18330000Y-36460000D03*
X3680000Y-13430000D03*
X4700000Y-13430000D03*
D25*
X18330000Y-35450000D03*
X17310000Y-35450000D03*
D44*
X61175000Y-59825000D03*
X62725000Y-59825000D03*
X30911200Y-48666400D03*
X32461200Y-48666400D03*
D24*
X63750000Y-15250000D03*
D32*
X4540000Y-18225000D03*
X4540000Y-19775000D03*
D31*
X54102000Y-34346000D03*
X54102000Y-35306000D03*
D44*
X61175000Y-58275000D03*
X62725000Y-58275000D03*
X25939200Y-48675400D03*
X27489200Y-48675400D03*
D24*
X38750000Y-21500000D03*
X29000000Y-25250000D03*
D31*
X19305000Y-24975000D03*
X19305000Y-25935000D03*
D23*
X59362500Y-59250000D03*
X56287500Y-59250000D03*
D45*
X20020000Y-23527500D03*
X19070000Y-23527500D03*
X18120000Y-23527500D03*
X18120000Y-21252500D03*
X19070000Y-21252500D03*
X20020000Y-21252500D03*
D46*
X22504400Y-46795800D03*
X22504400Y-44745800D03*
D24*
X63750000Y-18750000D03*
X25750000Y-41750000D03*
X20750000Y-31750000D03*
D32*
X34512200Y-44637900D03*
X34512200Y-46187900D03*
D24*
X48250000Y-9750000D03*
D25*
X24740000Y-15150000D03*
X23720000Y-15150000D03*
D24*
X39000000Y-44750000D03*
D32*
X17680000Y-39185000D03*
X17680000Y-40735000D03*
X36068000Y-44640200D03*
X36068000Y-46190200D03*
D37*
X25923200Y-44934900D03*
X27823200Y-44934900D03*
X26873200Y-46809900D03*
D22*
X24272500Y-13800000D03*
X24272500Y-11900000D03*
X26147500Y-12850000D03*
D24*
X48250000Y-13000000D03*
X21000000Y-39250000D03*
X38750000Y-25250000D03*
D33*
X14410000Y-29880000D03*
X15430000Y-29880000D03*
D24*
X32000000Y-42500000D03*
D35*
X15837500Y-35700000D03*
X15837500Y-37600000D03*
X13962500Y-36650000D03*
D47*
X58740000Y-57010000D03*
X28500000Y-59000000D03*
X39850000Y-32870000D03*
X28469205Y-58050000D03*
X13000000Y-37500000D03*
X22000000Y-31750000D03*
X26000000Y-60000000D03*
X11800000Y-59400000D03*
X27680000Y-47660000D03*
X20375000Y-17270000D03*
X18500000Y-6500000D03*
X62500000Y-57000000D03*
X56500000Y-64000000D03*
X10350000Y-41025000D03*
X29000000Y-60000000D03*
X37000000Y-33000000D03*
X33000000Y-30500000D03*
X51000000Y-28500000D03*
X34521504Y-46818538D03*
X4300000Y-43000000D03*
X32950000Y-49325000D03*
X14380000Y-9910000D03*
X55500000Y-66925500D03*
X59584483Y-52218483D03*
X56240000Y-6940000D03*
X4190000Y-36300000D03*
X19340000Y-26480000D03*
X10000000Y-37250000D03*
X20070000Y-28490000D03*
X28000000Y-60000000D03*
X13250000Y-47550000D03*
X48650000Y-56550000D03*
X25000000Y-47000000D03*
X60000000Y-44000000D03*
X5440000Y-20140000D03*
X7300000Y-43575000D03*
X12725000Y-60775000D03*
X10621692Y-44835022D03*
X63000000Y-56500000D03*
X20250000Y-57767600D03*
X8000000Y-27000000D03*
X16650000Y-25060000D03*
X17025000Y-51500000D03*
X57658000Y-50546000D03*
X55118000Y-52070000D03*
X20000000Y-45000000D03*
X19015000Y-18280000D03*
X25800000Y-53375000D03*
X51054000Y-53086000D03*
X19440000Y-28400000D03*
X62500000Y-56000000D03*
X56500000Y-58000000D03*
X7234026Y-24150065D03*
X53000000Y-62500000D03*
X2625000Y-31650000D03*
X29275000Y-41375000D03*
X65975000Y-18125000D03*
X12610000Y-65980000D03*
X7475000Y-35500000D03*
X55000000Y-39000000D03*
X15900000Y-50600000D03*
X62562335Y-53028074D03*
X3240938Y-21030000D03*
X27000000Y-61000000D03*
X32000000Y-18500000D03*
X52324000Y-44704000D03*
X42000000Y-18000000D03*
X8657168Y-23719501D03*
X11800000Y-60325000D03*
X32000000Y-13000000D03*
X22750000Y-60000000D03*
X55500000Y-59000000D03*
X33000000Y-35500000D03*
X55040000Y-7000000D03*
X49250000Y-13500000D03*
X63500000Y-60000000D03*
X21000000Y-44000000D03*
X10750000Y-40000000D03*
X46999146Y-35422111D03*
X53640000Y-16780000D03*
X55500000Y-58000000D03*
X52578000Y-53086000D03*
X26500000Y-59000000D03*
X11000000Y-27000000D03*
X14800000Y-50600000D03*
X40000000Y-54000000D03*
X9700000Y-47450000D03*
X11800000Y-57750000D03*
X20250000Y-54500000D03*
X35290000Y-46210000D03*
X18100000Y-11625000D03*
X16200000Y-66700000D03*
X60500000Y-53000000D03*
X9500000Y-27000000D03*
X28000000Y-66000000D03*
X7700000Y-45200000D03*
X39750000Y-22250000D03*
X28000000Y-35000000D03*
X65950000Y-27525000D03*
X45000000Y-31000000D03*
X25500000Y-61000000D03*
X46750000Y-57650000D03*
X25300000Y-15160000D03*
X29000000Y-27000000D03*
X14900000Y-52300000D03*
X49498138Y-44629123D03*
X63500000Y-59000000D03*
X63500000Y-58000000D03*
X31500000Y-66000000D03*
X21250000Y-53000000D03*
X55500000Y-65000000D03*
X55500000Y-62000000D03*
X28000000Y-38000000D03*
X8250000Y-53000000D03*
X12323500Y-26610000D03*
X20000000Y-44000000D03*
X39970000Y-45120000D03*
X36225000Y-41525000D03*
X8618870Y-22366501D03*
X38110000Y-49070000D03*
X13800000Y-28860000D03*
X55500000Y-66000000D03*
X35020000Y-39870000D03*
X17200000Y-66750000D03*
X30000000Y-38000000D03*
X29460000Y-46890000D03*
X51280000Y-14590000D03*
X33000000Y-33000000D03*
X8180000Y-11660000D03*
X30000000Y-61000000D03*
X37500000Y-38000000D03*
X12250000Y-37500000D03*
X9600000Y-41075000D03*
X7475000Y-34625000D03*
X15110000Y-23580000D03*
X3700000Y-19860000D03*
X5670000Y-12710000D03*
X17600000Y-17250000D03*
X37000000Y-13000000D03*
X23000000Y-41000000D03*
X59500000Y-40000000D03*
X12306655Y-44180096D03*
X13225000Y-66575000D03*
X19250000Y-56250000D03*
X53990000Y-33650000D03*
X26390000Y-44890000D03*
X62325000Y-36450000D03*
X23750000Y-60000000D03*
X11000000Y-37500000D03*
X66025000Y-11550000D03*
X27000000Y-60000000D03*
X20280000Y-26420000D03*
X42000000Y-13000000D03*
X58166000Y-47244000D03*
X37290000Y-67200000D03*
X55500000Y-60000000D03*
X55500000Y-63000000D03*
X49500000Y-38500000D03*
X56500000Y-61500000D03*
X44525000Y-57650000D03*
X18173800Y-37155053D03*
X63750000Y-16250000D03*
X48000000Y-29000000D03*
X25250000Y-40000000D03*
X24000000Y-47000000D03*
X21250000Y-56250000D03*
X25000000Y-60000000D03*
X20250000Y-51500000D03*
X9500000Y-25500000D03*
X11825000Y-58550000D03*
X7229838Y-23485458D03*
X30930000Y-45880000D03*
X12000000Y-27500000D03*
X30210000Y-45890000D03*
X36000000Y-58000000D03*
X18525000Y-25850000D03*
X62300000Y-37150000D03*
X40700000Y-52050000D03*
X52000000Y-34000000D03*
X36040000Y-46770000D03*
X21750000Y-60000000D03*
X37250000Y-40825000D03*
X49400000Y-65290000D03*
X24260000Y-11050000D03*
X38500000Y-27000000D03*
X13750000Y-37500000D03*
X28500000Y-13000000D03*
X34280000Y-45580000D03*
X32000000Y-27000000D03*
X56388000Y-51308000D03*
X23440000Y-36920000D03*
X61271900Y-53000069D03*
X53848000Y-52578000D03*
X8840000Y-9280000D03*
X18300000Y-10500000D03*
X32000000Y-21000000D03*
X7300000Y-44450000D03*
X53375000Y-43000000D03*
X11350000Y-41925000D03*
X28500000Y-61000000D03*
X8720000Y-18230000D03*
X66125000Y-20650000D03*
X19250000Y-53000000D03*
X44610000Y-61620000D03*
X15900000Y-52300000D03*
X62300000Y-37850000D03*
X29000000Y-54000000D03*
X8685000Y-30745000D03*
X6815000Y-30715000D03*
X28200000Y-52450000D03*
X55625000Y-7850000D03*
X29000000Y-55000000D03*
X29000000Y-56000000D03*
X7795000Y-30725000D03*
X2730000Y-23438550D03*
X29000000Y-53000000D03*
X52475000Y-9400000D03*
X13960000Y-54460000D03*
X14850000Y-54450000D03*
X12850000Y-54410000D03*
X12680000Y-53500000D03*
X33000000Y-63500000D03*
X33000000Y-62500000D03*
X30000000Y-63500000D03*
X18940206Y-58172407D03*
X32000000Y-63500000D03*
X49410000Y-66550000D03*
X53500000Y-14500000D03*
X52825000Y-19125000D03*
X32000000Y-62500000D03*
X61625000Y-30500000D03*
X31000000Y-63500000D03*
X53500000Y-13750000D03*
X17630000Y-57570000D03*
X61100000Y-61625000D03*
X50249992Y-39647776D03*
X63000000Y-20500000D03*
X59410000Y-54770000D03*
X57400000Y-8380000D03*
X59385200Y-52933600D03*
X63250000Y-12250000D03*
X54250000Y-35840000D03*
X53860000Y-28740000D03*
X30010000Y-44090000D03*
X33680000Y-43820000D03*
X51308000Y-52324000D03*
X37250001Y-43493728D03*
X11050000Y-33975000D03*
X8100000Y-41300000D03*
X8050000Y-42750000D03*
X8075000Y-42025000D03*
X45261500Y-57650000D03*
X45988500Y-57650000D03*
X56240000Y-3990000D03*
X58369200Y-38455600D03*
X54820378Y-4328100D03*
X56794400Y-38455600D03*
X52140000Y-39050000D03*
X53860000Y-38500000D03*
X58216800Y-48310800D03*
X56946800Y-49987200D03*
X55575200Y-50647600D03*
X54356000Y-51358800D03*
X53035200Y-52070000D03*
X49784000Y-52832000D03*
X49276000Y-55829200D03*
X47720000Y-56050000D03*
X34750000Y-40890000D03*
X33223200Y-40589200D03*
X38130000Y-50110000D03*
X40995600Y-51054000D03*
X39776400Y-52019200D03*
X51206400Y-44704000D03*
X45170000Y-34040000D03*
X31496000Y-41198800D03*
X29941257Y-41085334D03*
X48545083Y-44622117D03*
X46320000Y-33150000D03*
X6025971Y-22366501D03*
X18330000Y-28330000D03*
X3346394Y-34305199D03*
X5358517Y-38311483D03*
X50830000Y-42480000D03*
X5290000Y-40860000D03*
X4070000Y-34370000D03*
X43850000Y-38630000D03*
X43850000Y-30690000D03*
X41780000Y-31510000D03*
X41200000Y-35110000D03*
X55570000Y-38490000D03*
X42090000Y-37010000D03*
X40480000Y-30970000D03*
X4720000Y-21250000D03*
X44480000Y-32220000D03*
X44490000Y-35160000D03*
X59842400Y-38455600D03*
X40880000Y-29460000D03*
X42160000Y-35780000D03*
X25660000Y-10420000D03*
X46820000Y-30080000D03*
X13250000Y-62790000D03*
X29750000Y-58190000D03*
X35463517Y-44696483D03*
X5378688Y-21740000D03*
X11281483Y-21441483D03*
X17580000Y-34570000D03*
D48*
X25290000Y-15150000D02*
X25300000Y-15160000D01*
X18804500Y-25434500D02*
X18804500Y-25570500D01*
X9972500Y-9200000D02*
X8920000Y-9200000D01*
X39370000Y-45120000D02*
X39970000Y-45120000D01*
X13730000Y-9470000D02*
X14170000Y-9910000D01*
X20000000Y-44000000D02*
X20102600Y-44000000D01*
X20102600Y-44000000D02*
X20726400Y-44623800D01*
X20750000Y-31750000D02*
X22000000Y-31750000D01*
X32461200Y-48836200D02*
X32950000Y-49325000D01*
X35290000Y-46210000D02*
X35270200Y-46190200D01*
X30990200Y-45819800D02*
X30930000Y-45880000D01*
X34512200Y-46809234D02*
X34521504Y-46818538D01*
X12247500Y-10150000D02*
X13050000Y-10150000D01*
X37236400Y-40838600D02*
X37250000Y-40825000D01*
X36068000Y-46190200D02*
X35309800Y-46190200D01*
X21000000Y-44350200D02*
X21000000Y-44000000D01*
X20376200Y-44623800D02*
X20000000Y-45000000D01*
X25968100Y-44890000D02*
X26390000Y-44890000D01*
X20325000Y-26375000D02*
X20280000Y-26420000D01*
X13180000Y-10150000D02*
X13430000Y-10400000D01*
X25750000Y-39500000D02*
X25250000Y-40000000D01*
X18330000Y-36998853D02*
X18173800Y-37155053D01*
X20325000Y-25925000D02*
X20325000Y-26375000D01*
X8920000Y-9200000D02*
X8840000Y-9280000D01*
X38750000Y-21500000D02*
X39500000Y-22250000D01*
X30920000Y-45890000D02*
X30930000Y-45880000D01*
X36068000Y-46190200D02*
X36068000Y-46742000D01*
X20302500Y-11910000D02*
X18385000Y-11910000D01*
X30210000Y-45890000D02*
X29720100Y-45890000D01*
X18804500Y-25570500D02*
X18525000Y-25850000D01*
X19305000Y-25935000D02*
X19305000Y-26445000D01*
X13430000Y-10400000D02*
X13730000Y-10400000D01*
X24282400Y-46282400D02*
X25000000Y-47000000D01*
X19015000Y-18795000D02*
X19015000Y-18280000D01*
X9965000Y-18230000D02*
X8720000Y-18230000D01*
X16665000Y-25045000D02*
X16650000Y-25060000D01*
X36068000Y-46742000D02*
X36040000Y-46770000D01*
X48750000Y-13000000D02*
X49250000Y-13500000D01*
X29413200Y-46196900D02*
X29413200Y-46843200D01*
X46981257Y-35440000D02*
X46999146Y-35422111D01*
X30990200Y-44934900D02*
X30990200Y-45819800D01*
X35309800Y-46190200D02*
X35290000Y-46210000D01*
X35270200Y-46190200D02*
X34514500Y-46190200D01*
X60220000Y-34390000D02*
X60720000Y-34390000D01*
X6332500Y-20140000D02*
X5440000Y-20140000D01*
X19070000Y-23527500D02*
X18804500Y-23793000D01*
X18370000Y-10570000D02*
X18300000Y-10500000D01*
X24260000Y-11887500D02*
X24260000Y-11050000D01*
X24740000Y-15150000D02*
X25290000Y-15150000D01*
X18804500Y-23793000D02*
X18804500Y-25434500D01*
X62300000Y-37150000D02*
X62300000Y-37850000D01*
X59265000Y-33435000D02*
X60220000Y-34390000D01*
X14170000Y-9910000D02*
X14380000Y-9910000D01*
X39500000Y-22250000D02*
X39750000Y-22250000D01*
X18804500Y-25434500D02*
X19305000Y-25935000D01*
X14410000Y-28870000D02*
X13810000Y-28870000D01*
X13730000Y-10400000D02*
X14220000Y-9910000D01*
X34512200Y-46187900D02*
X34512200Y-46809234D01*
X17135000Y-25045000D02*
X16665000Y-25045000D01*
X27680000Y-48484600D02*
X27680000Y-47660000D01*
X8430000Y-11410000D02*
X8180000Y-11660000D01*
X13810000Y-28870000D02*
X13800000Y-28860000D01*
X37236400Y-41458000D02*
X37236400Y-40838600D01*
X24282400Y-46717600D02*
X24000000Y-47000000D01*
X17685000Y-17950000D02*
X17685000Y-17335000D01*
X17685000Y-17335000D02*
X17600000Y-17250000D01*
X9500000Y-53000000D02*
X8250000Y-53000000D01*
X30210000Y-45890000D02*
X30920000Y-45890000D01*
X18330000Y-36460000D02*
X18330000Y-36998853D01*
X18385000Y-11910000D02*
X18100000Y-11625000D01*
X54102000Y-34346000D02*
X54102000Y-33762000D01*
X5670000Y-13420000D02*
X5670000Y-12710000D01*
X24282400Y-46173800D02*
X24282400Y-46717600D01*
X13050000Y-10150000D02*
X13730000Y-9470000D01*
X14220000Y-9910000D02*
X14380000Y-9910000D01*
X12247500Y-10150000D02*
X13180000Y-10150000D01*
X63750000Y-15250000D02*
X63750000Y-16250000D01*
X4540000Y-19775000D02*
X3785000Y-19775000D01*
X29413200Y-46843200D02*
X29460000Y-46890000D01*
X19305000Y-26445000D02*
X19340000Y-26480000D01*
X46300000Y-35440000D02*
X46981257Y-35440000D01*
X19740000Y-10570000D02*
X18370000Y-10570000D01*
X3785000Y-19775000D02*
X3700000Y-19860000D01*
X20375000Y-17925000D02*
X20375000Y-17270000D01*
X54102000Y-33762000D02*
X53990000Y-33650000D01*
D49*
X52475000Y-4325000D02*
X52475000Y-9400000D01*
X17430000Y-49540000D02*
X18380000Y-50490000D01*
X53000000Y-3800000D02*
X52475000Y-4325000D01*
X13880000Y-33960000D02*
X17910000Y-33960000D01*
X8217500Y-19180000D02*
X8752500Y-19715000D01*
X17430000Y-42900000D02*
X17430000Y-49540000D01*
X13880000Y-33960000D02*
X13880000Y-36567500D01*
X19230000Y-38250000D02*
X20000000Y-38250000D01*
X3310000Y-22858550D02*
X2730000Y-23438550D01*
X3310000Y-21770000D02*
X3310000Y-22858550D01*
X19230000Y-41100000D02*
X17430000Y-42900000D01*
X8752500Y-19715000D02*
X10030000Y-19715000D01*
X20000000Y-38250000D02*
X21000000Y-39250000D01*
X19230000Y-35280000D02*
X19230000Y-38250000D01*
X55625000Y-4175000D02*
X55250000Y-3800000D01*
X18380000Y-50490000D02*
X22920000Y-50490000D01*
X17910000Y-33960000D02*
X19230000Y-35280000D01*
X24880000Y-52450000D02*
X28200000Y-52450000D01*
X4360000Y-20720000D02*
X3310000Y-21770000D01*
X19230000Y-38250000D02*
X19230000Y-41100000D01*
X10030000Y-19715000D02*
X9025000Y-20720000D01*
X9025000Y-20720000D02*
X4360000Y-20720000D01*
X22920000Y-50490000D02*
X24880000Y-52450000D01*
X55250000Y-3800000D02*
X53000000Y-3800000D01*
X13880000Y-33960000D02*
X10635000Y-30715000D01*
X55625000Y-7850000D02*
X55625000Y-4175000D01*
X10635000Y-30715000D02*
X6815000Y-30715000D01*
X11531250Y-37728750D02*
X11721400Y-37538600D01*
X14410000Y-30410000D02*
X15750000Y-31750000D01*
X15750000Y-31750000D02*
X18000000Y-31750000D01*
X11721400Y-37281046D02*
X13060000Y-35942446D01*
X11721400Y-37538600D02*
X11721400Y-37281046D01*
X11040000Y-29080000D02*
X11840000Y-29880000D01*
X5640000Y-29080000D02*
X11040000Y-29080000D01*
X14410000Y-29880000D02*
X14410000Y-30410000D01*
X13060000Y-34220000D02*
X11530000Y-32690000D01*
X11840000Y-29880000D02*
X14410000Y-29880000D01*
X12680000Y-44553598D02*
X12680000Y-53500000D01*
X5050000Y-31420000D02*
X5050000Y-29670000D01*
X13060000Y-35942446D02*
X13060000Y-34220000D01*
X6320000Y-32690000D02*
X5050000Y-31420000D01*
X13962500Y-40160000D02*
X11531250Y-37728750D01*
X13962500Y-40160000D02*
X13962500Y-43271098D01*
X11530000Y-32690000D02*
X6320000Y-32690000D01*
X5050000Y-29670000D02*
X5640000Y-29080000D01*
X13962500Y-43271098D02*
X12680000Y-44553598D01*
D48*
X3680000Y-13430000D02*
X2790000Y-14320000D01*
X6650000Y-13440000D02*
X6650000Y-12670000D01*
X9160000Y-10450000D02*
X8500000Y-10450000D01*
X10166540Y-10150000D02*
X11250000Y-9066540D01*
X3680000Y-12810000D02*
X3680000Y-13430000D01*
X2790000Y-14320000D02*
X2790000Y-17750000D01*
X8400000Y-10450000D02*
X6650000Y-12200000D01*
X13803460Y-6500000D02*
X16000000Y-6500000D01*
X11250000Y-9066540D02*
X11250000Y-9053460D01*
X4540000Y-18225000D02*
X6337500Y-18225000D01*
X6170000Y-12190000D02*
X4300000Y-12190000D01*
X4300000Y-12190000D02*
X3680000Y-12810000D01*
X2790000Y-17750000D02*
X3270000Y-18230000D01*
X8460000Y-13500000D02*
X6710000Y-13500000D01*
X6650000Y-12670000D02*
X6170000Y-12190000D01*
X9460000Y-10150000D02*
X9160000Y-10450000D01*
X11250000Y-9053460D02*
X13803460Y-6500000D01*
X6650000Y-12200000D02*
X6650000Y-13440000D01*
X3270000Y-18230000D02*
X6342500Y-18230000D01*
D49*
X33500000Y-63500000D02*
X33000000Y-63500000D01*
X61300000Y-30175000D02*
X61625000Y-30500000D01*
X61300000Y-9950000D02*
X61300000Y-30175000D01*
X61175000Y-58275000D02*
X61175000Y-57255000D01*
X19015000Y-19755000D02*
X19015000Y-21197500D01*
X19723800Y-46173800D02*
X20726400Y-46173800D01*
X60140000Y-57190000D02*
X59362500Y-57967500D01*
X60550000Y-9200000D02*
X61300000Y-9950000D01*
X31000000Y-51000000D02*
X32000000Y-52000000D01*
X15925000Y-25975000D02*
X17575000Y-27625000D01*
X48610000Y-66550000D02*
X52660000Y-66550000D01*
X50500000Y-20500000D02*
X51750000Y-20500000D01*
X52825000Y-15175000D02*
X53500000Y-14500000D01*
X31420000Y-56960000D02*
X32000000Y-57540000D01*
X20775000Y-27625000D02*
X22575000Y-29425000D01*
X26680000Y-56850000D02*
X26790000Y-56960000D01*
X32000000Y-57540000D02*
X32000000Y-63500000D01*
X57983900Y-67453600D02*
X53563600Y-67453600D01*
X21795800Y-46795800D02*
X22504400Y-46795800D01*
X18940206Y-58172407D02*
X20262613Y-56850000D01*
X53563600Y-67453600D02*
X52660000Y-66550000D01*
X19070000Y-21500421D02*
X18426821Y-22143600D01*
X20726400Y-46173800D02*
X21173800Y-46173800D01*
X61175000Y-57255000D02*
X60895000Y-56975000D01*
X22504400Y-48504400D02*
X25000000Y-51000000D01*
X18650000Y-20330000D02*
X19520000Y-20330000D01*
X18426821Y-22143600D02*
X17681400Y-22143600D01*
X22575000Y-40025000D02*
X19325000Y-43275000D01*
X56725000Y-10575000D02*
X58100000Y-9200000D01*
X36550000Y-66550000D02*
X33500000Y-63500000D01*
X60140000Y-55680000D02*
X60140000Y-57190000D01*
X52825000Y-19125000D02*
X52825000Y-15175000D01*
X48610000Y-66550000D02*
X36550000Y-66550000D01*
X17681400Y-22143600D02*
X15925000Y-23900000D01*
X51750000Y-20500000D02*
X52825000Y-19425000D01*
X21173800Y-46173800D02*
X21795800Y-46795800D01*
X17820000Y-19500000D02*
X18650000Y-20330000D01*
X59387500Y-66050000D02*
X57983900Y-67453600D01*
X19325000Y-45775000D02*
X19723800Y-46173800D01*
X20262613Y-56850000D02*
X26680000Y-56850000D01*
X25000000Y-51000000D02*
X31000000Y-51000000D01*
X52825000Y-19425000D02*
X52825000Y-19125000D01*
X22504400Y-46795800D02*
X22504400Y-48504400D01*
X17575000Y-27625000D02*
X20775000Y-27625000D01*
X19520000Y-20330000D02*
X20375000Y-19475000D01*
X26790000Y-56960000D02*
X31420000Y-56960000D01*
X18940206Y-58172407D02*
X18232407Y-58172407D01*
X15925000Y-23900000D02*
X15925000Y-25975000D01*
X58100000Y-9200000D02*
X60550000Y-9200000D01*
X61175000Y-58275000D02*
X61175000Y-59825000D01*
X59362500Y-57967500D02*
X59362500Y-59250000D01*
X60895000Y-55975000D02*
X60895000Y-54665000D01*
X18232407Y-58172407D02*
X17630000Y-57570000D01*
X32000000Y-52000000D02*
X32000000Y-57540000D01*
X60710000Y-55110000D02*
X60140000Y-55680000D01*
X22575000Y-29425000D02*
X22575000Y-40025000D01*
X19325000Y-43275000D02*
X19325000Y-45775000D01*
D48*
X50141269Y-39756499D02*
X50249992Y-39647776D01*
X63750000Y-18750000D02*
X63000000Y-19500000D01*
X63000000Y-19500000D02*
X63000000Y-20500000D01*
X45470000Y-37280000D02*
X47946499Y-39756499D01*
X47946499Y-39756499D02*
X50141269Y-39756499D01*
X45470000Y-35570000D02*
X45470000Y-36980000D01*
X63750000Y-11750000D02*
X63250000Y-12250000D01*
X55684500Y-9549004D02*
X56853504Y-8380000D01*
X59385200Y-52933600D02*
X59440000Y-52988400D01*
X59440000Y-52988400D02*
X59440000Y-54480000D01*
X56725000Y-13115000D02*
X55684500Y-12074500D01*
X55684500Y-12074500D02*
X55684500Y-9549004D01*
X56853504Y-8380000D02*
X57400000Y-8380000D01*
X38750000Y-4500000D02*
X42610000Y-8360000D01*
X53860000Y-26762165D02*
X53860000Y-28740000D01*
X42610000Y-8360000D02*
X42610000Y-15512165D01*
X54102000Y-35642000D02*
X54102000Y-35306000D01*
X54360000Y-36980000D02*
X54360000Y-35900000D01*
X54250000Y-35840000D02*
X54250000Y-36870000D01*
X54360000Y-35900000D02*
X54102000Y-35642000D01*
X42610000Y-15512165D02*
X53860000Y-26762165D01*
X26750000Y-42750000D02*
X27750000Y-42750000D01*
X29970100Y-44090000D02*
X29413200Y-44646900D01*
X27750000Y-42750000D02*
X27750000Y-44861700D01*
X25750000Y-41750000D02*
X26750000Y-42750000D01*
X27823200Y-44934900D02*
X29125200Y-44934900D01*
X30010000Y-44090000D02*
X29970100Y-44090000D01*
X33360000Y-43500000D02*
X32500000Y-43500000D01*
X33560000Y-44637900D02*
X33187200Y-44637900D01*
X33680000Y-43820000D02*
X33360000Y-43500000D01*
X33560000Y-43940000D02*
X33680000Y-43820000D01*
X34512200Y-44637900D02*
X33560000Y-44637900D01*
X33187200Y-44637900D02*
X32890200Y-44934900D01*
X32500000Y-43500000D02*
X32000000Y-43000000D01*
X33560000Y-44637900D02*
X33560000Y-43940000D01*
X51820000Y-52836000D02*
X51308000Y-52324000D01*
X37236400Y-43480127D02*
X37250001Y-43493728D01*
X37236400Y-42418000D02*
X37236400Y-43480127D01*
X51820000Y-54480000D02*
X51820000Y-52836000D01*
D49*
X8100000Y-34850000D02*
X8975000Y-33975000D01*
X8100000Y-41300000D02*
X8100000Y-34850000D01*
X9500000Y-44750000D02*
X9500000Y-46250000D01*
X8750000Y-47000000D02*
X8750000Y-49000000D01*
X8050000Y-42750000D02*
X8050000Y-43300000D01*
X8975000Y-33975000D02*
X11050000Y-33975000D01*
X8050000Y-43300000D02*
X9500000Y-44750000D01*
X8750000Y-49000000D02*
X9500000Y-49750000D01*
X9500000Y-46250000D02*
X8750000Y-47000000D01*
D50*
X45492724Y-56213500D02*
X43617724Y-56213500D01*
X43617724Y-56213500D02*
X43013500Y-56817724D01*
X45461500Y-57850000D02*
X45261500Y-57650000D01*
X46268500Y-55437724D02*
X45492724Y-56213500D01*
X43013500Y-56817724D02*
X43013500Y-58257276D01*
X45461500Y-58482276D02*
X45461500Y-57850000D01*
X46268500Y-55251500D02*
X46268500Y-55437724D01*
X43967724Y-59211500D02*
X44732276Y-59211500D01*
X46740000Y-54780000D02*
X46268500Y-55251500D01*
X44732276Y-59211500D02*
X45461500Y-58482276D01*
X43013500Y-58257276D02*
X43967724Y-59211500D01*
X43482276Y-55886500D02*
X42686500Y-56682276D01*
X45788500Y-57850000D02*
X45988500Y-57650000D01*
X45941500Y-55251500D02*
X45941500Y-55302276D01*
X45470000Y-54780000D02*
X45941500Y-55251500D01*
X43832276Y-59538500D02*
X44867724Y-59538500D01*
X44867724Y-59538500D02*
X45788500Y-58617724D01*
X45357276Y-55886500D02*
X43482276Y-55886500D01*
X45788500Y-58617724D02*
X45788500Y-57850000D01*
X45941500Y-55302276D02*
X45357276Y-55886500D01*
X42686500Y-56682276D02*
X42686500Y-58392724D01*
X42686500Y-58392724D02*
X43832276Y-59538500D01*
D48*
X56725000Y-18195000D02*
X55070000Y-16540000D01*
X56240000Y-3740000D02*
X55750000Y-3250000D01*
X57210000Y-4960000D02*
X56240000Y-3990000D01*
X55070000Y-16540000D02*
X55070000Y-9805000D01*
X55750000Y-3250000D02*
X51750000Y-3250000D01*
X58170000Y-38256400D02*
X58170000Y-36980000D01*
X55070000Y-9805000D02*
X57210000Y-7665000D01*
X51750000Y-3250000D02*
X48250000Y-6750000D01*
X56240000Y-3990000D02*
X56240000Y-3740000D01*
X58369200Y-38455600D02*
X58170000Y-38256400D01*
X57210000Y-7665000D02*
X57210000Y-4960000D01*
X48250000Y-9750000D02*
X50750000Y-9750000D01*
X56900000Y-38350000D02*
X56900000Y-36980000D01*
X50750000Y-9750000D02*
X51250000Y-10250000D01*
X56725000Y-20735000D02*
X54300000Y-18310000D01*
X54300000Y-18310000D02*
X54300000Y-10250000D01*
X54300000Y-10250000D02*
X54300000Y-4848478D01*
X51250000Y-10250000D02*
X54300000Y-10250000D01*
X56794400Y-38455600D02*
X56900000Y-38350000D01*
X54300000Y-4848478D02*
X54820378Y-4328100D01*
X50550000Y-37460000D02*
X52140000Y-39050000D01*
X51820000Y-37280000D02*
X53040000Y-38500000D01*
X53040000Y-38500000D02*
X53860000Y-38500000D01*
X58216800Y-48310800D02*
X58170000Y-48357600D01*
X58170000Y-48357600D02*
X58170000Y-54480000D01*
X56946800Y-49987200D02*
X56900000Y-50034000D01*
X56900000Y-50034000D02*
X56900000Y-54480000D01*
X55575200Y-50647600D02*
X55630000Y-50702400D01*
X55630000Y-50702400D02*
X55630000Y-54480000D01*
X54360000Y-51362800D02*
X54360000Y-54480000D01*
X54356000Y-51358800D02*
X54360000Y-51362800D01*
X53035200Y-52070000D02*
X53090000Y-52124800D01*
X53090000Y-52124800D02*
X53090000Y-54480000D01*
X50546000Y-54476000D02*
X50546000Y-53594000D01*
X50546000Y-53594000D02*
X49784000Y-52832000D01*
X49276000Y-55829200D02*
X49280000Y-55825200D01*
X49280000Y-55825200D02*
X49280000Y-54480000D01*
X48010000Y-54480000D02*
X48010000Y-55760000D01*
X48010000Y-55760000D02*
X47720000Y-56050000D01*
X37890000Y-40335000D02*
X35305000Y-40335000D01*
X43920000Y-46365000D02*
X37890000Y-40335000D01*
X35305000Y-40335000D02*
X34750000Y-40890000D01*
X33223200Y-40589200D02*
X39192400Y-34620000D01*
X39192400Y-34620000D02*
X51030000Y-34620000D01*
X51030000Y-34620000D02*
X53090000Y-36680000D01*
X39010000Y-53060000D02*
X38130000Y-52180000D01*
X41500000Y-51640000D02*
X42965000Y-50175000D01*
X41190000Y-53060000D02*
X39010000Y-53060000D01*
X38130000Y-52180000D02*
X38130000Y-50110000D01*
X41500000Y-52750000D02*
X41190000Y-53060000D01*
X44220000Y-50175000D02*
X42965000Y-50175000D01*
X41500000Y-51640000D02*
X41500000Y-52750000D01*
X44220000Y-48905000D02*
X43144600Y-48905000D01*
X43144600Y-48905000D02*
X40995600Y-51054000D01*
X42738200Y-47635000D02*
X39776400Y-50596800D01*
X44220000Y-47635000D02*
X42738200Y-47635000D01*
X39776400Y-50596800D02*
X39776400Y-52019200D01*
X44220000Y-52715000D02*
X48275400Y-52715000D01*
X57765500Y-26399000D02*
X56850000Y-27314500D01*
X31496000Y-41198800D02*
X38631299Y-34063501D01*
X45170000Y-34040000D02*
X45586000Y-34040000D01*
X54733501Y-28873508D02*
X54733501Y-30277969D01*
X51206400Y-49784000D02*
X51206400Y-44704000D01*
X48275400Y-52715000D02*
X51206400Y-49784000D01*
X56292509Y-27314500D02*
X54733501Y-28873508D01*
X45562499Y-34063501D02*
X45590000Y-34036000D01*
X54733501Y-30277969D02*
X50975470Y-34036000D01*
X50975470Y-34036000D02*
X45590000Y-34036000D01*
X57765500Y-24315500D02*
X57765500Y-26399000D01*
X45586000Y-34040000D02*
X45590000Y-34036000D01*
X56725000Y-23275000D02*
X57765500Y-24315500D01*
X56850000Y-27314500D02*
X56292509Y-27314500D01*
X38631299Y-34063501D02*
X45562499Y-34063501D01*
X56725000Y-25815000D02*
X54480000Y-28060000D01*
X54480000Y-29300000D02*
X50630000Y-33150000D01*
X50630000Y-33150000D02*
X46320000Y-33150000D01*
X48072200Y-45095000D02*
X48545083Y-44622117D01*
X54480000Y-28060000D02*
X54480000Y-29300000D01*
X37216591Y-33810000D02*
X29941257Y-41085334D01*
X45352965Y-33150000D02*
X44692965Y-33810000D01*
X44692965Y-33810000D02*
X37216591Y-33810000D01*
X44220000Y-45095000D02*
X48072200Y-45095000D01*
X46320000Y-33150000D02*
X45352965Y-33150000D01*
D51*
X8338654Y-23043001D02*
X7662154Y-22366501D01*
X7662154Y-22366501D02*
X6025971Y-22366501D01*
X12316864Y-23043001D02*
X8338654Y-23043001D01*
X17603863Y-28330000D02*
X12316864Y-23043001D01*
X18330000Y-28330000D02*
X17603863Y-28330000D01*
D48*
X4352978Y-38311483D02*
X5358517Y-38311483D01*
X3346394Y-34305199D02*
X3076499Y-34575094D01*
X3076499Y-34575094D02*
X3076499Y-37035004D01*
X3076499Y-37035004D02*
X4352978Y-38311483D01*
X39000000Y-39250000D02*
X41750000Y-42000000D01*
X49485000Y-43825000D02*
X50830000Y-42480000D01*
X44220000Y-43825000D02*
X49485000Y-43825000D01*
X42325000Y-43825000D02*
X44220000Y-43825000D01*
X41750000Y-42000000D02*
X41750000Y-43250000D01*
X41750000Y-43250000D02*
X42325000Y-43825000D01*
X5980000Y-40170000D02*
X5290000Y-40860000D01*
X3400000Y-35870000D02*
X3400000Y-36770000D01*
X5510000Y-37770000D02*
X5980000Y-38240000D01*
X4070000Y-34370000D02*
X4070000Y-35200000D01*
X3400000Y-36770000D02*
X4400000Y-37770000D01*
X4400000Y-37770000D02*
X5510000Y-37770000D01*
X5980000Y-38240000D02*
X5980000Y-40170000D01*
X4070000Y-35200000D02*
X3400000Y-35870000D01*
X15110000Y-28090000D02*
X3660000Y-28090000D01*
X15020000Y-2650000D02*
X9679500Y-7990500D01*
X64000000Y-33250000D02*
X64750000Y-32500000D01*
X62200000Y-33950000D02*
X62900000Y-33250000D01*
X62900000Y-33250000D02*
X64000000Y-33250000D01*
X2240000Y-20830000D02*
X2240000Y-24480000D01*
X2220000Y-26650000D02*
X3660000Y-28090000D01*
X60710000Y-35440000D02*
X60710000Y-36980000D01*
X7449500Y-7990500D02*
X2410000Y-13030000D01*
X58650000Y-2650000D02*
X15020000Y-2650000D01*
X2240000Y-24480000D02*
X2220000Y-24500000D01*
X2220000Y-24500000D02*
X2220000Y-26650000D01*
X2410000Y-13030000D02*
X2410000Y-20660000D01*
X62240000Y-33910000D02*
X62240000Y-6240000D01*
X15460000Y-29850000D02*
X15460000Y-28900000D01*
X15430000Y-28410000D02*
X15110000Y-28090000D01*
X2410000Y-20660000D02*
X2240000Y-20830000D01*
X15430000Y-28870000D02*
X15430000Y-28410000D01*
X9679500Y-7990500D02*
X7449500Y-7990500D01*
X62240000Y-6240000D02*
X58650000Y-2650000D01*
X60760000Y-35390000D02*
X62200000Y-33950000D01*
X62200000Y-33950000D02*
X62240000Y-33910000D01*
X12247500Y-9200000D02*
X12850000Y-9200000D01*
X28801496Y-8450000D02*
X38050748Y-17699252D01*
X37000000Y-18750000D02*
X38050748Y-17699252D01*
X36250000Y-18750000D02*
X37000000Y-18750000D01*
X13730000Y-8450000D02*
X28801496Y-8450000D01*
X42680000Y-22328504D02*
X42680000Y-29520000D01*
X42680000Y-29520000D02*
X43850000Y-30690000D01*
X12850000Y-9200000D02*
X13600000Y-8450000D01*
X38050748Y-17699252D02*
X42680000Y-22328504D01*
X13730000Y-11420000D02*
X15540000Y-9610000D01*
X38750000Y-25250000D02*
X41640000Y-28140000D01*
X26540000Y-9610000D02*
X33500000Y-16570000D01*
X33500000Y-20000000D02*
X38750000Y-25250000D01*
X41640000Y-28140000D02*
X41640000Y-31370000D01*
X33500000Y-16570000D02*
X33500000Y-20000000D01*
X13730000Y-11420000D02*
X12567500Y-11420000D01*
X41640000Y-31370000D02*
X41780000Y-31510000D01*
X12567500Y-11420000D02*
X12247500Y-11100000D01*
X15540000Y-9610000D02*
X26540000Y-9610000D01*
X41200000Y-39835000D02*
X41200000Y-35110000D01*
X43920000Y-42555000D02*
X41200000Y-39835000D01*
X55630000Y-38430000D02*
X55570000Y-38490000D01*
X55630000Y-36980000D02*
X55630000Y-38430000D01*
X18120000Y-23333460D02*
X18873460Y-22580000D01*
X35644997Y-29713501D02*
X36901496Y-30970000D01*
X28095000Y-29655000D02*
X26000000Y-31750000D01*
X21020000Y-22580000D02*
X28095000Y-29655000D01*
X43909000Y-40015000D02*
X42090000Y-38196000D01*
X28095000Y-29655000D02*
X28153501Y-29713501D01*
X28153501Y-29713501D02*
X35644997Y-29713501D01*
X18873460Y-22580000D02*
X21020000Y-22580000D01*
X36901496Y-30970000D02*
X40480000Y-30970000D01*
X42090000Y-38196000D02*
X42090000Y-37010000D01*
X18120000Y-23527500D02*
X18120000Y-25010000D01*
X41170000Y-32120000D02*
X41270000Y-32220000D01*
X44829500Y-37920500D02*
X44490000Y-37581000D01*
X40600000Y-30330000D02*
X41170000Y-30900000D01*
X10780000Y-21250000D02*
X17245500Y-14784500D01*
X50200000Y-44650000D02*
X51860000Y-42990000D01*
X45060500Y-37920500D02*
X44829500Y-37920500D01*
X47150000Y-40010000D02*
X45060500Y-37920500D01*
X44490000Y-37581000D02*
X44490000Y-35160000D01*
X29000000Y-25250000D02*
X30750000Y-25250000D01*
X21764500Y-14784500D02*
X37310000Y-30330000D01*
X4720000Y-21250000D02*
X10780000Y-21250000D01*
X37310000Y-30330000D02*
X40600000Y-30330000D01*
X48990000Y-50240000D02*
X48990000Y-46360000D01*
X41170000Y-30900000D02*
X41170000Y-32120000D01*
X17245500Y-14784500D02*
X21764500Y-14784500D01*
X51860000Y-42990000D02*
X51860000Y-41950000D01*
X50200000Y-45150000D02*
X50200000Y-44650000D01*
X47785000Y-51445000D02*
X48990000Y-50240000D01*
X44220000Y-51445000D02*
X47785000Y-51445000D01*
X30750000Y-25250000D02*
X31500000Y-24500000D01*
X51860000Y-41950000D02*
X49920000Y-40010000D01*
X41270000Y-32220000D02*
X44480000Y-32220000D01*
X49920000Y-40010000D02*
X47150000Y-40010000D01*
X48990000Y-46360000D02*
X50200000Y-45150000D01*
X17872035Y-15875000D02*
X21000000Y-15875000D01*
X21000000Y-15875000D02*
X21500000Y-15375000D01*
X16890000Y-16857035D02*
X16890000Y-20022500D01*
X16890000Y-20022500D02*
X18120000Y-21252500D01*
X17872035Y-15875000D02*
X16890000Y-16857035D01*
X59440000Y-36980000D02*
X59440000Y-38053200D01*
X59440000Y-38053200D02*
X59842400Y-38455600D01*
X22000000Y-19272500D02*
X22000000Y-17125000D01*
X22000000Y-17125000D02*
X21500000Y-16625000D01*
X20020000Y-21252500D02*
X22000000Y-19272500D01*
X26147500Y-12850000D02*
X26147500Y-17157500D01*
X38450000Y-29460000D02*
X40880000Y-29460000D01*
X41580000Y-38945000D02*
X41580000Y-36360000D01*
X26147500Y-17157500D02*
X38450000Y-29460000D01*
X43920000Y-41285000D02*
X41580000Y-38945000D01*
X41580000Y-36360000D02*
X42160000Y-35780000D01*
X21620000Y-10690000D02*
X21620000Y-11830000D01*
X21110000Y-12340000D02*
X21110000Y-13460000D01*
X21500000Y-10570000D02*
X21620000Y-10690000D01*
X20760000Y-10570000D02*
X21500000Y-10570000D01*
X18800000Y-13810000D02*
X20302500Y-13810000D01*
X21110000Y-13460000D02*
X20760000Y-13810000D01*
X18300000Y-13310000D02*
X18800000Y-13810000D01*
X21620000Y-11830000D02*
X21110000Y-12340000D01*
X23720000Y-14847500D02*
X23472500Y-14600000D01*
X24272500Y-13800000D02*
X23472500Y-14600000D01*
X4212500Y-15710000D02*
X9170000Y-15710000D01*
X23403499Y-14530999D02*
X23472500Y-14600000D01*
X15590000Y-14580000D02*
X16860000Y-13310000D01*
X9170000Y-15710000D02*
X10300000Y-14580000D01*
X16860000Y-13529408D02*
X17861591Y-14530999D01*
X23720000Y-15150000D02*
X23720000Y-14847500D01*
X17861591Y-14530999D02*
X23403499Y-14530999D01*
X10300000Y-14580000D02*
X15590000Y-14580000D01*
X16840000Y-62790000D02*
X13250000Y-62790000D01*
X31250000Y-8650000D02*
X43480000Y-20880000D01*
X22070000Y-57560000D02*
X28930000Y-57560000D01*
X28930000Y-57560000D02*
X29560000Y-58190000D01*
X43480000Y-20880000D02*
X43480000Y-26740000D01*
X22177500Y-12860000D02*
X22840000Y-12197500D01*
X22840000Y-11080000D02*
X23500000Y-10420000D01*
X43480000Y-26740000D02*
X46820000Y-30080000D01*
X22840000Y-12197500D02*
X22840000Y-11080000D01*
X16840000Y-62790000D02*
X22070000Y-57560000D01*
X31250000Y-4500000D02*
X31250000Y-8650000D01*
X29750000Y-58190000D02*
X29560000Y-58190000D01*
X23500000Y-10420000D02*
X25660000Y-10420000D01*
X8640000Y-15170000D02*
X9972500Y-13837500D01*
X5290000Y-14760000D02*
X6087500Y-14760000D01*
X6087500Y-14760000D02*
X6497500Y-15170000D01*
X6497500Y-15170000D02*
X8640000Y-15170000D01*
X4700000Y-13430000D02*
X4700000Y-14170000D01*
X4700000Y-14170000D02*
X5290000Y-14760000D01*
X9972500Y-13837500D02*
X9972500Y-11100000D01*
X9710000Y-16040000D02*
X11000000Y-16040000D01*
X6087500Y-16660000D02*
X9090000Y-16660000D01*
X9090000Y-16660000D02*
X9710000Y-16040000D01*
D49*
X36180000Y-47750000D02*
X37200000Y-46730000D01*
X26873200Y-46809900D02*
X26873200Y-47741400D01*
X37200000Y-45300000D02*
X36540200Y-44640200D01*
X26873200Y-46809900D02*
X28029900Y-46809900D01*
X32880300Y-47750000D02*
X36180000Y-47750000D01*
X35519800Y-44640200D02*
X35463517Y-44696483D01*
X24282400Y-44623800D02*
X25939200Y-46280600D01*
X36540200Y-44640200D02*
X36068000Y-44640200D01*
X31940200Y-46809900D02*
X31940200Y-47637400D01*
X26873200Y-47741400D02*
X25939200Y-48675400D01*
X29886400Y-48666400D02*
X30911200Y-48666400D01*
X22504400Y-44745800D02*
X24160400Y-44745800D01*
X31940200Y-47637400D02*
X30911200Y-48666400D01*
X36068000Y-44640200D02*
X35519800Y-44640200D01*
X25939200Y-46280600D02*
X25939200Y-48675400D01*
X31940200Y-46809900D02*
X32880300Y-47750000D01*
X28029900Y-46809900D02*
X29886400Y-48666400D01*
X37200000Y-46730000D02*
X37200000Y-45300000D01*
D48*
X20020000Y-23527500D02*
X20020000Y-24260000D01*
X20020000Y-24260000D02*
X19305000Y-24975000D01*
X20020000Y-24660000D02*
X20325000Y-24965000D01*
X20020000Y-23527500D02*
X20020000Y-24660000D01*
D51*
X5428687Y-21690001D02*
X11032965Y-21690001D01*
X5378688Y-21740000D02*
X5428687Y-21690001D01*
X11032965Y-21690001D02*
X11281483Y-21441483D01*
D49*
X17580000Y-34570000D02*
X17580000Y-34700000D01*
X17580000Y-34700000D02*
X18330000Y-35450000D01*
D48*
X17310000Y-35950000D02*
X17060000Y-35700000D01*
X17680000Y-38107500D02*
X17680000Y-39185000D01*
X17310000Y-36460000D02*
X17310000Y-37737500D01*
X15837500Y-35700000D02*
X17060000Y-35700000D01*
X17310000Y-36460000D02*
X17310000Y-35950000D01*
X17310000Y-37737500D02*
X17680000Y-38107500D01*
X15862500Y-39185000D02*
X17680000Y-39185000D01*
X17060000Y-35700000D02*
X17310000Y-35450000D01*
D49*
X16920000Y-41110000D02*
X15837500Y-41110000D01*
X14871400Y-38566100D02*
X14871400Y-39516821D01*
X15837500Y-40482921D02*
X15837500Y-41110000D01*
X14871400Y-39516821D02*
X15837500Y-40482921D01*
X15837500Y-37600000D02*
X14871400Y-38566100D01*
X17295000Y-40735000D02*
X16920000Y-41110000D01*
X17680000Y-40735000D02*
X17295000Y-40735000D01*
%TA.AperFunction,Conductor*%
G36*
X65002610Y-608D02*
G01*
X65008781Y-863D01*
X65217403Y-9491D01*
X65413375Y-18048D01*
X65423423Y-18893D01*
X65636807Y-45491D01*
X65834874Y-71568D01*
X65844273Y-73170D01*
X66053521Y-117044D01*
X66054833Y-117327D01*
X66250312Y-160664D01*
X66258953Y-162905D01*
X66463679Y-223855D01*
X66465355Y-224369D01*
X66656618Y-284674D01*
X66664509Y-287453D01*
X66863268Y-365008D01*
X66865621Y-365955D01*
X67050950Y-442721D01*
X67058044Y-445921D01*
X67249605Y-539569D01*
X67252354Y-540957D01*
X67430373Y-633627D01*
X67436681Y-637145D01*
X67619781Y-746248D01*
X67622957Y-748205D01*
X67792228Y-856043D01*
X67797745Y-859765D01*
X67971164Y-983585D01*
X67974619Y-986142D01*
X68133880Y-1108347D01*
X68138610Y-1112162D01*
X68301195Y-1249865D01*
X68304885Y-1253116D01*
X68452875Y-1388723D01*
X68456846Y-1392525D01*
X68607473Y-1543152D01*
X68611275Y-1547123D01*
X68746882Y-1695113D01*
X68750133Y-1698803D01*
X68887836Y-1861388D01*
X68891651Y-1866118D01*
X69013844Y-2025363D01*
X69016426Y-2028851D01*
X69140233Y-2202254D01*
X69143955Y-2207770D01*
X69251776Y-2377014D01*
X69253750Y-2380217D01*
X69362853Y-2563317D01*
X69366375Y-2569633D01*
X69459010Y-2747582D01*
X69460444Y-2750424D01*
X69554071Y-2941941D01*
X69557283Y-2949062D01*
X69634030Y-3134346D01*
X69635002Y-3136762D01*
X69712541Y-3335478D01*
X69715328Y-3343391D01*
X69775583Y-3534493D01*
X69776177Y-3536430D01*
X69837089Y-3741030D01*
X69839340Y-3749711D01*
X69882660Y-3945117D01*
X69882965Y-3946531D01*
X69926827Y-4155721D01*
X69928431Y-4165131D01*
X69954476Y-4362954D01*
X69954586Y-4363816D01*
X69981103Y-4576555D01*
X69981951Y-4586643D01*
X69990513Y-4782727D01*
X69990525Y-4783017D01*
X69999392Y-4997389D01*
X69999500Y-5002596D01*
X69999500Y-33995862D01*
X69999230Y-34004104D01*
X69994043Y-34083229D01*
X69993992Y-34083976D01*
X69981299Y-34261446D01*
X69979199Y-34277038D01*
X69957070Y-34388289D01*
X69956612Y-34390491D01*
X69926239Y-34530116D01*
X69922431Y-34543835D01*
X69883805Y-34657623D01*
X69882548Y-34661154D01*
X69834974Y-34788704D01*
X69829924Y-34800400D01*
X69775579Y-34910599D01*
X69773161Y-34915255D01*
X69709191Y-35032408D01*
X69703368Y-35042025D01*
X69634422Y-35145210D01*
X69630526Y-35150716D01*
X69551229Y-35256646D01*
X69545091Y-35264216D01*
X69462896Y-35357940D01*
X69457260Y-35363957D01*
X69363957Y-35457260D01*
X69357950Y-35462887D01*
X69351298Y-35468722D01*
X69312600Y-35491922D01*
X69268210Y-35500000D01*
X68126000Y-35500000D01*
X68063000Y-35483119D01*
X68016881Y-35437000D01*
X68000000Y-35374000D01*
X68000000Y-8012410D01*
X68000000Y-8000000D01*
X67991225Y-7991225D01*
X67247139Y-7247138D01*
X67215159Y-7192924D01*
X67213394Y-7130005D01*
X67242284Y-7074083D01*
X67389121Y-6909772D01*
X67393522Y-6904253D01*
X67587921Y-6630273D01*
X67591682Y-6624288D01*
X67754182Y-6330265D01*
X67757247Y-6323900D01*
X67885808Y-6013530D01*
X67888140Y-6006863D01*
X67981144Y-5684040D01*
X67982712Y-5677171D01*
X68038987Y-5345962D01*
X68039777Y-5338949D01*
X68058614Y-5003526D01*
X68058614Y-4996474D01*
X68039777Y-4661050D01*
X68038987Y-4654037D01*
X67982712Y-4322828D01*
X67981144Y-4315959D01*
X67888140Y-3993136D01*
X67885808Y-3986469D01*
X67757247Y-3676099D01*
X67754182Y-3669734D01*
X67591682Y-3375711D01*
X67587921Y-3369726D01*
X67393522Y-3095746D01*
X67389121Y-3090227D01*
X67259118Y-2944752D01*
X67247515Y-2937310D01*
X67235510Y-2944093D01*
X65089801Y-5089801D01*
X64910196Y-4910196D01*
X67055905Y-2764488D01*
X67062687Y-2752484D01*
X67055242Y-2740878D01*
X66909770Y-2610876D01*
X66904260Y-2606482D01*
X66630273Y-2412078D01*
X66624288Y-2408317D01*
X66330265Y-2245817D01*
X66323900Y-2242752D01*
X66013530Y-2114191D01*
X66006863Y-2111859D01*
X65684040Y-2018855D01*
X65677171Y-2017287D01*
X65345962Y-1961012D01*
X65338949Y-1960222D01*
X65003526Y-1941386D01*
X64996474Y-1941386D01*
X64661050Y-1960222D01*
X64654037Y-1961012D01*
X64322828Y-2017287D01*
X64315959Y-2018855D01*
X63993136Y-2111859D01*
X63986469Y-2114191D01*
X63676099Y-2242752D01*
X63669734Y-2245817D01*
X63375711Y-2408317D01*
X63369726Y-2412078D01*
X63095746Y-2606477D01*
X63090218Y-2610885D01*
X62925914Y-2757716D01*
X62869992Y-2786606D01*
X62807074Y-2784841D01*
X62752860Y-2752860D01*
X62008775Y-2008775D01*
X62008775Y-2008774D01*
X62000000Y-2000000D01*
X61987590Y-2000000D01*
X8012410Y-2000000D01*
X8000000Y-2000000D01*
X7991226Y-2008773D01*
X7991227Y-2008773D01*
X7247139Y-2752861D01*
X7192925Y-2784841D01*
X7130006Y-2786606D01*
X7074084Y-2757716D01*
X6909772Y-2610878D01*
X6904253Y-2606477D01*
X6630273Y-2412078D01*
X6624288Y-2408317D01*
X6330265Y-2245817D01*
X6323900Y-2242752D01*
X6013530Y-2114191D01*
X6006863Y-2111859D01*
X5684040Y-2018855D01*
X5677171Y-2017287D01*
X5345962Y-1961012D01*
X5338949Y-1960222D01*
X5003526Y-1941386D01*
X4996474Y-1941386D01*
X4661050Y-1960222D01*
X4654037Y-1961012D01*
X4322828Y-2017287D01*
X4315959Y-2018855D01*
X3993136Y-2111859D01*
X3986469Y-2114191D01*
X3676099Y-2242752D01*
X3669734Y-2245817D01*
X3375711Y-2408317D01*
X3369726Y-2412078D01*
X3095739Y-2606482D01*
X3090229Y-2610876D01*
X2944754Y-2740879D01*
X2937310Y-2752483D01*
X2944093Y-2764488D01*
X5089802Y-4910197D01*
X4910197Y-5089802D01*
X2764488Y-2944093D01*
X2752483Y-2937310D01*
X2740879Y-2944754D01*
X2610876Y-3090229D01*
X2606482Y-3095739D01*
X2412078Y-3369726D01*
X2408317Y-3375711D01*
X2245817Y-3669734D01*
X2242752Y-3676099D01*
X2114191Y-3986469D01*
X2111859Y-3993136D01*
X2018855Y-4315959D01*
X2017287Y-4322828D01*
X1961012Y-4654037D01*
X1960222Y-4661050D01*
X1941386Y-4996474D01*
X1941386Y-5003526D01*
X1960222Y-5338949D01*
X1961012Y-5345962D01*
X2017287Y-5677171D01*
X2018855Y-5684040D01*
X2111859Y-6006863D01*
X2114191Y-6013530D01*
X2242752Y-6323900D01*
X2245817Y-6330265D01*
X2408317Y-6624288D01*
X2412078Y-6630273D01*
X2606477Y-6904253D01*
X2610878Y-6909772D01*
X2757716Y-7074084D01*
X2786606Y-7130006D01*
X2784841Y-7192925D01*
X2752862Y-7247138D01*
X2000000Y-8000000D01*
X2000000Y-8012410D01*
X2000000Y-20575929D01*
X1983116Y-20638934D01*
X1974288Y-20654223D01*
X1968396Y-20663471D01*
X1947348Y-20693534D01*
X1944497Y-20704170D01*
X1943159Y-20707040D01*
X1942073Y-20710022D01*
X1936568Y-20719560D01*
X1934655Y-20730404D01*
X1934652Y-20730415D01*
X1930195Y-20755693D01*
X1927818Y-20766418D01*
X1921176Y-20791207D01*
X1921175Y-20791210D01*
X1918323Y-20801857D01*
X1919283Y-20812834D01*
X1919283Y-20812839D01*
X1921521Y-20838410D01*
X1922000Y-20849392D01*
X1922000Y-24358013D01*
X1916441Y-24389539D01*
X1916567Y-24389562D01*
X1910195Y-24425693D01*
X1907818Y-24436418D01*
X1901176Y-24461207D01*
X1901175Y-24461210D01*
X1898323Y-24471857D01*
X1899283Y-24482834D01*
X1899283Y-24482839D01*
X1901521Y-24508410D01*
X1902000Y-24519392D01*
X1902000Y-26630608D01*
X1901521Y-26641590D01*
X1899283Y-26667160D01*
X1899283Y-26667165D01*
X1898323Y-26678143D01*
X1901175Y-26688790D01*
X1901176Y-26688791D01*
X1907818Y-26713579D01*
X1910197Y-26724309D01*
X1916568Y-26760440D01*
X1922076Y-26769982D01*
X1923163Y-26772967D01*
X1924496Y-26775826D01*
X1927348Y-26786466D01*
X1948404Y-26816538D01*
X1954293Y-26825784D01*
X1972640Y-26857560D01*
X1974693Y-26859283D01*
X1992401Y-26889953D01*
X2000000Y-26933048D01*
X2000000Y-34305010D01*
X1987409Y-34359913D01*
X1952153Y-34403844D01*
X1901277Y-34428022D01*
X1852663Y-34427671D01*
X1852562Y-34428544D01*
X1830794Y-34426000D01*
X1593590Y-34426000D01*
X1580506Y-34429506D01*
X1577000Y-34442590D01*
X1577000Y-35036410D01*
X1580506Y-35049493D01*
X1593590Y-35053000D01*
X2479441Y-35053000D01*
X2491943Y-35050228D01*
X2513055Y-35034029D01*
X2513392Y-35034469D01*
X2528558Y-35018279D01*
X2593920Y-35000000D01*
X2632499Y-35000000D01*
X2695499Y-35016881D01*
X2741618Y-35063000D01*
X2758499Y-35126000D01*
X2758499Y-37015612D01*
X2758020Y-37026594D01*
X2755782Y-37052164D01*
X2755782Y-37052169D01*
X2754822Y-37063147D01*
X2757674Y-37073794D01*
X2757675Y-37073795D01*
X2764317Y-37098583D01*
X2766696Y-37109313D01*
X2770577Y-37131326D01*
X2773067Y-37145444D01*
X2778575Y-37154986D01*
X2779662Y-37157971D01*
X2780995Y-37160830D01*
X2783847Y-37171470D01*
X2804903Y-37201542D01*
X2810792Y-37210788D01*
X2829139Y-37242564D01*
X2837585Y-37249651D01*
X2857244Y-37266147D01*
X2865348Y-37273573D01*
X4114402Y-38522627D01*
X4121828Y-38530730D01*
X4138332Y-38550399D01*
X4138333Y-38550400D01*
X4145418Y-38558843D01*
X4175674Y-38576311D01*
X4177192Y-38577188D01*
X4186460Y-38583093D01*
X4216512Y-38604135D01*
X4227157Y-38606987D01*
X4230013Y-38608319D01*
X4232989Y-38609402D01*
X4242538Y-38614915D01*
X4278667Y-38621285D01*
X4289379Y-38623658D01*
X4324835Y-38633160D01*
X4361388Y-38629961D01*
X4372370Y-38629483D01*
X4841459Y-38629483D01*
X4897187Y-38642477D01*
X4941419Y-38678776D01*
X4963043Y-38706957D01*
X5078874Y-38795838D01*
X5213763Y-38851711D01*
X5221950Y-38852788D01*
X5221951Y-38852789D01*
X5286140Y-38861239D01*
X5358517Y-38870768D01*
X5503271Y-38851711D01*
X5506270Y-38850468D01*
X5560581Y-38848691D01*
X5612704Y-38872308D01*
X5649006Y-38916542D01*
X5662000Y-38972270D01*
X5662000Y-39986089D01*
X5652409Y-40034307D01*
X5625095Y-40075185D01*
X5430754Y-40269524D01*
X5382162Y-40299741D01*
X5325216Y-40305350D01*
X5298193Y-40301793D01*
X5298188Y-40301793D01*
X5290000Y-40300715D01*
X5281812Y-40301793D01*
X5153431Y-40318694D01*
X5153427Y-40318694D01*
X5145246Y-40319772D01*
X5137627Y-40322927D01*
X5137619Y-40322930D01*
X5017986Y-40372485D01*
X5017983Y-40372486D01*
X5010358Y-40375645D01*
X5003810Y-40380668D01*
X5003807Y-40380671D01*
X4901071Y-40459503D01*
X4901067Y-40459506D01*
X4894526Y-40464526D01*
X4889506Y-40471067D01*
X4889503Y-40471071D01*
X4810671Y-40573807D01*
X4810668Y-40573810D01*
X4805645Y-40580358D01*
X4802486Y-40587983D01*
X4802485Y-40587986D01*
X4752930Y-40707619D01*
X4752927Y-40707627D01*
X4749772Y-40715246D01*
X4748694Y-40723427D01*
X4748694Y-40723431D01*
X4744811Y-40752927D01*
X4730715Y-40860000D01*
X4731793Y-40868188D01*
X4748693Y-40996565D01*
X4748694Y-40996571D01*
X4749772Y-41004754D01*
X4752931Y-41012382D01*
X4752932Y-41012383D01*
X4802484Y-41132013D01*
X4802485Y-41132016D01*
X4805645Y-41139643D01*
X4810671Y-41146194D01*
X4810673Y-41146196D01*
X4889499Y-41248923D01*
X4894526Y-41255474D01*
X5010357Y-41344355D01*
X5145246Y-41400228D01*
X5153433Y-41401305D01*
X5153434Y-41401306D01*
X5217622Y-41409756D01*
X5290000Y-41419285D01*
X5434754Y-41400228D01*
X5569643Y-41344355D01*
X5685474Y-41255474D01*
X5774355Y-41139643D01*
X5830228Y-41004754D01*
X5849285Y-40860000D01*
X5844648Y-40824782D01*
X5850256Y-40767838D01*
X5880473Y-40719245D01*
X6191153Y-40408565D01*
X6199249Y-40401147D01*
X6218914Y-40384647D01*
X6218914Y-40384646D01*
X6227360Y-40377560D01*
X6245711Y-40345774D01*
X6251603Y-40336524D01*
X6272651Y-40306466D01*
X6275505Y-40295809D01*
X6276837Y-40292955D01*
X6277913Y-40289997D01*
X6283432Y-40280440D01*
X6289802Y-40244310D01*
X6292182Y-40233575D01*
X6298824Y-40208788D01*
X6301677Y-40198143D01*
X6298478Y-40161589D01*
X6298000Y-40150608D01*
X6298000Y-38259392D01*
X6298479Y-38248410D01*
X6299283Y-38239220D01*
X6301677Y-38211857D01*
X6292178Y-38176409D01*
X6289802Y-38165689D01*
X6285346Y-38140415D01*
X6285345Y-38140414D01*
X6283432Y-38129560D01*
X6277919Y-38120013D01*
X6276844Y-38117057D01*
X6275504Y-38114184D01*
X6272651Y-38103534D01*
X6251608Y-38073481D01*
X6245704Y-38064213D01*
X6242859Y-38059285D01*
X6227360Y-38032440D01*
X6199247Y-38008850D01*
X6191144Y-38001424D01*
X5748569Y-37558849D01*
X5741143Y-37550745D01*
X5724647Y-37531086D01*
X5717560Y-37522640D01*
X5685784Y-37504293D01*
X5676538Y-37498404D01*
X5646466Y-37477348D01*
X5635826Y-37474496D01*
X5632967Y-37473163D01*
X5629982Y-37472076D01*
X5620440Y-37466568D01*
X5609586Y-37464654D01*
X5584309Y-37460197D01*
X5573579Y-37457818D01*
X5548791Y-37451176D01*
X5548790Y-37451175D01*
X5538143Y-37448323D01*
X5527165Y-37449283D01*
X5527160Y-37449283D01*
X5501590Y-37451521D01*
X5490608Y-37452000D01*
X4583910Y-37452000D01*
X4535692Y-37442409D01*
X4494815Y-37415095D01*
X4148872Y-37069152D01*
X4115258Y-37008669D01*
X4118654Y-36939555D01*
X4158034Y-36882657D01*
X4221520Y-36855135D01*
X4334754Y-36840228D01*
X4421229Y-36804408D01*
X4485890Y-36795895D01*
X4546148Y-36820853D01*
X4585854Y-36872597D01*
X4594140Y-36892601D01*
X4594142Y-36892605D01*
X4597302Y-36900233D01*
X4602329Y-36906784D01*
X4602330Y-36906786D01*
X4681759Y-37010299D01*
X4689549Y-37020451D01*
X4809767Y-37112698D01*
X4949764Y-37170687D01*
X5062280Y-37185500D01*
X5133598Y-37185500D01*
X5137720Y-37185500D01*
X5250236Y-37170687D01*
X5390233Y-37112698D01*
X5510451Y-37020451D01*
X5602698Y-36900233D01*
X5603612Y-36898025D01*
X5639241Y-36859565D01*
X5691216Y-36839025D01*
X5746961Y-36842985D01*
X5753347Y-36844923D01*
X5801565Y-36854514D01*
X5852190Y-36859500D01*
X5855282Y-36859500D01*
X6874000Y-36859500D01*
X6937000Y-36876381D01*
X6983119Y-36922500D01*
X7000000Y-36985500D01*
X7000000Y-42014500D01*
X6983119Y-42077500D01*
X6937000Y-42123619D01*
X6874000Y-42140500D01*
X5926000Y-42140500D01*
X5921914Y-42141037D01*
X5921912Y-42141038D01*
X5862927Y-42148803D01*
X5862920Y-42148804D01*
X5858836Y-42149342D01*
X5854868Y-42150405D01*
X5854854Y-42150408D01*
X5799810Y-42165157D01*
X5799793Y-42165162D01*
X5795836Y-42166223D01*
X5792033Y-42167798D01*
X5792025Y-42167801D01*
X5770886Y-42176557D01*
X5706222Y-42185070D01*
X5645966Y-42160111D01*
X5610693Y-42114144D01*
X5609989Y-42114551D01*
X5606899Y-42109200D01*
X5606261Y-42108368D01*
X5605859Y-42107398D01*
X5605858Y-42107396D01*
X5602698Y-42099767D01*
X5510451Y-41979549D01*
X5500427Y-41971857D01*
X5396786Y-41892330D01*
X5396784Y-41892329D01*
X5390233Y-41887302D01*
X5382606Y-41884142D01*
X5382603Y-41884141D01*
X5257865Y-41832473D01*
X5257864Y-41832472D01*
X5250236Y-41829313D01*
X5242053Y-41828235D01*
X5242047Y-41828234D01*
X5141807Y-41815038D01*
X5141806Y-41815037D01*
X5137720Y-41814500D01*
X5062280Y-41814500D01*
X5058194Y-41815037D01*
X5058192Y-41815038D01*
X4957952Y-41828234D01*
X4957944Y-41828236D01*
X4949764Y-41829313D01*
X4942137Y-41832472D01*
X4942134Y-41832473D01*
X4817396Y-41884141D01*
X4817390Y-41884144D01*
X4809767Y-41887302D01*
X4803218Y-41892326D01*
X4803213Y-41892330D01*
X4696099Y-41974522D01*
X4696094Y-41974526D01*
X4689549Y-41979549D01*
X4684526Y-41986094D01*
X4684522Y-41986099D01*
X4602330Y-42093213D01*
X4602326Y-42093218D01*
X4597302Y-42099767D01*
X4594144Y-42107390D01*
X4594141Y-42107396D01*
X4542473Y-42232134D01*
X4539313Y-42239764D01*
X4538235Y-42247949D01*
X4538235Y-42247951D01*
X4525677Y-42343339D01*
X4500718Y-42403596D01*
X4448973Y-42443301D01*
X4384309Y-42451814D01*
X4308189Y-42441793D01*
X4308188Y-42441793D01*
X4300000Y-42440715D01*
X4291812Y-42441793D01*
X4163431Y-42458694D01*
X4163427Y-42458694D01*
X4155246Y-42459772D01*
X4147627Y-42462927D01*
X4147619Y-42462930D01*
X4027986Y-42512485D01*
X4027983Y-42512486D01*
X4020358Y-42515645D01*
X4013810Y-42520668D01*
X4013807Y-42520671D01*
X3911071Y-42599503D01*
X3911067Y-42599506D01*
X3904526Y-42604526D01*
X3899506Y-42611067D01*
X3899503Y-42611071D01*
X3820671Y-42713807D01*
X3820668Y-42713810D01*
X3815645Y-42720358D01*
X3812486Y-42727983D01*
X3812485Y-42727986D01*
X3762930Y-42847619D01*
X3762927Y-42847627D01*
X3759772Y-42855246D01*
X3758694Y-42863427D01*
X3758694Y-42863431D01*
X3745268Y-42965414D01*
X3740715Y-43000000D01*
X3741793Y-43008188D01*
X3758693Y-43136565D01*
X3758694Y-43136571D01*
X3759772Y-43144754D01*
X3762931Y-43152382D01*
X3762932Y-43152383D01*
X3812484Y-43272013D01*
X3812485Y-43272016D01*
X3815645Y-43279643D01*
X3820671Y-43286194D01*
X3820673Y-43286196D01*
X3897614Y-43386466D01*
X3904526Y-43395474D01*
X3911076Y-43400500D01*
X3957075Y-43435797D01*
X4020357Y-43484355D01*
X4155246Y-43540228D01*
X4224225Y-43549309D01*
X4285925Y-43575392D01*
X4325538Y-43629410D01*
X4328368Y-43659236D01*
X4329476Y-43658997D01*
X4336039Y-43689300D01*
X4349328Y-43693000D01*
X5486410Y-43693000D01*
X5499493Y-43689493D01*
X5503000Y-43676410D01*
X5503000Y-43082590D01*
X5499493Y-43069504D01*
X5494524Y-43068173D01*
X5435173Y-43032599D01*
X5403557Y-42971049D01*
X5409211Y-42902085D01*
X5450428Y-42846508D01*
X5492393Y-42814307D01*
X5547212Y-42790185D01*
X5606981Y-42794102D01*
X5658188Y-42825176D01*
X5741946Y-42908934D01*
X5774557Y-42965414D01*
X5774560Y-43030632D01*
X5767771Y-43042392D01*
X5757000Y-43082590D01*
X5757000Y-43821000D01*
X5740119Y-43884000D01*
X5694000Y-43930119D01*
X5631000Y-43947000D01*
X4350559Y-43947000D01*
X4338056Y-43949771D01*
X4316945Y-43965971D01*
X4316607Y-43965530D01*
X4301442Y-43981721D01*
X4236080Y-44000000D01*
X2595889Y-44000000D01*
X2545982Y-43989695D01*
X2504239Y-43960465D01*
X2495405Y-43951101D01*
X2480672Y-43947000D01*
X1593590Y-43947000D01*
X1580506Y-43950506D01*
X1577000Y-43963590D01*
X1577000Y-44557410D01*
X1580506Y-44570493D01*
X1593590Y-44574000D01*
X1790246Y-44574000D01*
X1797559Y-44573574D01*
X1917780Y-44559521D01*
X1931963Y-44556160D01*
X2083804Y-44500895D01*
X2096824Y-44494356D01*
X2231826Y-44405564D01*
X2243001Y-44396187D01*
X2282351Y-44354479D01*
X2332286Y-44322050D01*
X2391536Y-44316171D01*
X2446870Y-44338154D01*
X2485932Y-44383090D01*
X2500000Y-44440945D01*
X2500000Y-44750000D01*
X2749242Y-44750000D01*
X2750750Y-44750009D01*
X2754472Y-44750053D01*
X2953257Y-44752434D01*
X2964055Y-44753029D01*
X3367842Y-44792799D01*
X3380037Y-44794608D01*
X3777234Y-44873615D01*
X3789217Y-44876617D01*
X4176749Y-44994173D01*
X4188385Y-44998337D01*
X4562522Y-45153309D01*
X4573683Y-45158588D01*
X4752257Y-45254038D01*
X4930825Y-45349486D01*
X4941430Y-45355843D01*
X5278136Y-45580821D01*
X5288067Y-45588185D01*
X5511928Y-45771904D01*
X5601107Y-45845091D01*
X5610268Y-45853395D01*
X5896604Y-46139731D01*
X5904908Y-46148892D01*
X6161812Y-46461930D01*
X6169178Y-46471863D01*
X6394156Y-46808569D01*
X6400513Y-46819174D01*
X6591407Y-47176308D01*
X6596694Y-47187486D01*
X6751661Y-47561611D01*
X6755827Y-47573253D01*
X6873381Y-47960778D01*
X6876385Y-47972772D01*
X6955388Y-48369942D01*
X6957202Y-48382174D01*
X6996968Y-48785922D01*
X6997566Y-48796763D01*
X6999991Y-48999249D01*
X7000000Y-49000758D01*
X7000000Y-56749242D01*
X6999991Y-56750751D01*
X6997566Y-56953236D01*
X6996968Y-56964077D01*
X6957202Y-57367825D01*
X6955388Y-57380057D01*
X6876385Y-57777227D01*
X6873381Y-57789221D01*
X6755827Y-58176746D01*
X6751661Y-58188388D01*
X6596694Y-58562513D01*
X6591407Y-58573691D01*
X6400513Y-58930825D01*
X6394156Y-58941430D01*
X6169178Y-59278136D01*
X6161812Y-59288069D01*
X5904908Y-59601107D01*
X5896604Y-59610268D01*
X5610268Y-59896604D01*
X5601107Y-59904908D01*
X5288069Y-60161812D01*
X5278136Y-60169178D01*
X4941430Y-60394156D01*
X4930825Y-60400513D01*
X4573691Y-60591407D01*
X4562513Y-60596694D01*
X4188388Y-60751661D01*
X4176746Y-60755827D01*
X3789221Y-60873381D01*
X3777227Y-60876385D01*
X3380057Y-60955388D01*
X3367825Y-60957202D01*
X2964077Y-60996968D01*
X2953236Y-60997566D01*
X2750325Y-60999996D01*
X2750303Y-60999996D01*
X2750000Y-61000000D01*
X2749797Y-61000004D01*
X2749674Y-61000007D01*
X2672029Y-61001891D01*
X2672027Y-61001891D01*
X2665726Y-61002044D01*
X2659580Y-61003446D01*
X2659578Y-61003447D01*
X2508299Y-61037974D01*
X2508290Y-61037977D01*
X2501403Y-61039549D01*
X2495033Y-61042616D01*
X2495029Y-61042618D01*
X2355925Y-61109607D01*
X2355921Y-61109609D01*
X2349545Y-61112680D01*
X2344015Y-61117089D01*
X2344007Y-61117095D01*
X2223299Y-61213358D01*
X2223294Y-61213362D01*
X2217769Y-61217769D01*
X2213362Y-61223294D01*
X2213358Y-61223299D01*
X2117095Y-61344007D01*
X2117089Y-61344015D01*
X2112680Y-61349545D01*
X2109609Y-61355921D01*
X2109607Y-61355925D01*
X2042618Y-61495029D01*
X2042616Y-61495033D01*
X2039549Y-61501403D01*
X2037977Y-61508290D01*
X2037974Y-61508299D01*
X2005315Y-61651394D01*
X2002044Y-61665726D01*
X2001891Y-61672027D01*
X2001891Y-61672029D01*
X2000018Y-61749219D01*
X2000017Y-61749292D01*
X2000000Y-61750000D01*
X2000000Y-61750783D01*
X2000000Y-64413948D01*
X1998220Y-64435054D01*
X1961012Y-64654037D01*
X1960222Y-64661050D01*
X1941386Y-64996474D01*
X1941386Y-65003526D01*
X1960222Y-65338949D01*
X1961012Y-65345962D01*
X2017287Y-65677171D01*
X2018855Y-65684040D01*
X2111859Y-66006863D01*
X2114191Y-66013530D01*
X2242752Y-66323900D01*
X2245817Y-66330265D01*
X2408317Y-66624288D01*
X2412078Y-66630273D01*
X2606482Y-66904260D01*
X2610876Y-66909770D01*
X2740878Y-67055242D01*
X2752484Y-67062687D01*
X2764488Y-67055905D01*
X4820393Y-65000000D01*
X5000000Y-65000000D01*
X5089801Y-65089801D01*
X2944093Y-67235510D01*
X2937310Y-67247515D01*
X2944752Y-67259118D01*
X3090227Y-67389121D01*
X3095746Y-67393522D01*
X3369726Y-67587921D01*
X3375711Y-67591682D01*
X3669734Y-67754182D01*
X3676099Y-67757247D01*
X3986469Y-67885808D01*
X3993136Y-67888140D01*
X4315959Y-67981144D01*
X4322828Y-67982712D01*
X4654037Y-68038987D01*
X4661050Y-68039777D01*
X4996474Y-68058614D01*
X5003526Y-68058614D01*
X5338949Y-68039777D01*
X5345962Y-68038987D01*
X5677171Y-67982712D01*
X5684040Y-67981144D01*
X6006863Y-67888140D01*
X6013530Y-67885808D01*
X6323900Y-67757247D01*
X6330265Y-67754182D01*
X6624288Y-67591682D01*
X6630273Y-67587921D01*
X6904253Y-67393522D01*
X6909772Y-67389121D01*
X7074084Y-67242283D01*
X7130006Y-67213393D01*
X7192925Y-67215158D01*
X7247139Y-67247139D01*
X8000000Y-68000000D01*
X8012410Y-68000000D01*
X61987590Y-68000000D01*
X62000000Y-68000000D01*
X62752863Y-67247136D01*
X62807074Y-67215158D01*
X62869993Y-67213393D01*
X62925915Y-67242283D01*
X63090227Y-67389121D01*
X63095746Y-67393522D01*
X63369726Y-67587921D01*
X63375711Y-67591682D01*
X63669734Y-67754182D01*
X63676099Y-67757247D01*
X63986469Y-67885808D01*
X63993136Y-67888140D01*
X64315959Y-67981144D01*
X64322828Y-67982712D01*
X64654037Y-68038987D01*
X64661050Y-68039777D01*
X64996474Y-68058614D01*
X65003526Y-68058614D01*
X65338949Y-68039777D01*
X65345962Y-68038987D01*
X65677171Y-67982712D01*
X65684040Y-67981144D01*
X66006863Y-67888140D01*
X66013530Y-67885808D01*
X66323900Y-67757247D01*
X66330265Y-67754182D01*
X66624288Y-67591682D01*
X66630273Y-67587921D01*
X66904253Y-67393522D01*
X66909772Y-67389121D01*
X67055245Y-67259118D01*
X67062688Y-67247515D01*
X67055905Y-67235510D01*
X64910197Y-65089802D01*
X65089802Y-64910197D01*
X67235510Y-67055905D01*
X67247515Y-67062688D01*
X67259118Y-67055245D01*
X67389121Y-66909772D01*
X67393522Y-66904253D01*
X67587921Y-66630273D01*
X67591682Y-66624288D01*
X67754182Y-66330265D01*
X67757247Y-66323900D01*
X67885808Y-66013530D01*
X67888140Y-66006863D01*
X67981144Y-65684040D01*
X67982712Y-65677171D01*
X68038987Y-65345962D01*
X68039777Y-65338949D01*
X68058614Y-65003526D01*
X68058614Y-64996474D01*
X68039777Y-64661050D01*
X68038987Y-64654037D01*
X67982712Y-64322828D01*
X67981144Y-64315959D01*
X67888140Y-63993136D01*
X67885808Y-63986469D01*
X67757247Y-63676099D01*
X67754182Y-63669734D01*
X67591682Y-63375711D01*
X67587921Y-63369726D01*
X67393522Y-63095746D01*
X67389121Y-63090227D01*
X67242283Y-62925915D01*
X67213393Y-62869993D01*
X67215158Y-62807074D01*
X67247136Y-62752863D01*
X68000000Y-62000000D01*
X68000000Y-55686572D01*
X68016720Y-55623852D01*
X68062441Y-55577777D01*
X68125028Y-55560576D01*
X69319452Y-55551388D01*
X69368183Y-55560790D01*
X69409508Y-55588288D01*
X69457265Y-55636045D01*
X69462901Y-55642062D01*
X69545092Y-55735782D01*
X69551218Y-55743337D01*
X69605338Y-55815633D01*
X69630519Y-55849271D01*
X69634415Y-55854776D01*
X69703382Y-55957993D01*
X69709196Y-55967595D01*
X69773162Y-56084742D01*
X69775580Y-56089398D01*
X69829925Y-56199597D01*
X69834975Y-56211293D01*
X69882549Y-56338843D01*
X69883794Y-56342342D01*
X69922434Y-56456170D01*
X69926240Y-56469881D01*
X69956613Y-56609506D01*
X69957071Y-56611708D01*
X69979200Y-56722959D01*
X69981300Y-56738551D01*
X69993993Y-56916021D01*
X69994044Y-56916768D01*
X69999230Y-56995880D01*
X69999500Y-57004122D01*
X69999500Y-64997404D01*
X69999392Y-65002611D01*
X69990525Y-65216982D01*
X69990513Y-65217272D01*
X69981951Y-65413355D01*
X69981103Y-65423443D01*
X69954586Y-65636182D01*
X69954476Y-65637044D01*
X69928431Y-65834867D01*
X69926827Y-65844277D01*
X69882965Y-66053467D01*
X69882660Y-66054881D01*
X69839340Y-66250287D01*
X69837089Y-66258968D01*
X69776177Y-66463568D01*
X69775583Y-66465505D01*
X69715328Y-66656607D01*
X69712541Y-66664520D01*
X69635002Y-66863236D01*
X69634030Y-66865652D01*
X69557283Y-67050936D01*
X69554071Y-67058057D01*
X69460444Y-67249574D01*
X69459010Y-67252416D01*
X69366375Y-67430365D01*
X69362853Y-67436681D01*
X69253750Y-67619781D01*
X69251776Y-67622984D01*
X69143955Y-67792228D01*
X69140233Y-67797744D01*
X69016426Y-67971147D01*
X69013844Y-67974635D01*
X68891651Y-68133880D01*
X68887836Y-68138610D01*
X68750133Y-68301195D01*
X68746882Y-68304885D01*
X68611275Y-68452875D01*
X68607473Y-68456846D01*
X68456846Y-68607473D01*
X68452875Y-68611275D01*
X68304885Y-68746882D01*
X68301195Y-68750133D01*
X68138610Y-68887836D01*
X68133880Y-68891651D01*
X67974635Y-69013844D01*
X67971147Y-69016426D01*
X67797744Y-69140233D01*
X67792228Y-69143955D01*
X67622984Y-69251776D01*
X67619781Y-69253750D01*
X67436681Y-69362853D01*
X67430365Y-69366375D01*
X67252416Y-69459010D01*
X67249574Y-69460444D01*
X67058057Y-69554071D01*
X67050936Y-69557283D01*
X66865652Y-69634030D01*
X66863236Y-69635002D01*
X66664520Y-69712541D01*
X66656607Y-69715328D01*
X66465505Y-69775583D01*
X66463568Y-69776177D01*
X66258968Y-69837089D01*
X66250287Y-69839340D01*
X66054881Y-69882660D01*
X66053467Y-69882965D01*
X65844277Y-69926827D01*
X65834867Y-69928431D01*
X65637044Y-69954476D01*
X65636182Y-69954586D01*
X65423443Y-69981103D01*
X65413354Y-69981951D01*
X65217291Y-69990512D01*
X65217002Y-69990524D01*
X65002611Y-69999392D01*
X64997404Y-69999500D01*
X5002596Y-69999500D01*
X4997389Y-69999392D01*
X4782996Y-69990524D01*
X4782707Y-69990512D01*
X4586644Y-69981951D01*
X4576555Y-69981103D01*
X4363816Y-69954586D01*
X4362954Y-69954476D01*
X4165131Y-69928431D01*
X4155721Y-69926827D01*
X3946531Y-69882965D01*
X3945117Y-69882660D01*
X3749711Y-69839340D01*
X3741030Y-69837089D01*
X3536430Y-69776177D01*
X3534493Y-69775583D01*
X3343391Y-69715328D01*
X3335478Y-69712541D01*
X3136762Y-69635002D01*
X3134346Y-69634030D01*
X2949062Y-69557283D01*
X2941941Y-69554071D01*
X2750424Y-69460444D01*
X2747582Y-69459010D01*
X2569633Y-69366375D01*
X2563317Y-69362853D01*
X2380217Y-69253750D01*
X2377014Y-69251776D01*
X2207770Y-69143955D01*
X2202254Y-69140233D01*
X2028851Y-69016426D01*
X2025363Y-69013844D01*
X1866118Y-68891651D01*
X1861388Y-68887836D01*
X1698803Y-68750133D01*
X1695113Y-68746882D01*
X1547123Y-68611275D01*
X1543152Y-68607473D01*
X1392525Y-68456846D01*
X1388723Y-68452875D01*
X1253116Y-68304885D01*
X1249865Y-68301195D01*
X1112162Y-68138610D01*
X1108347Y-68133880D01*
X986142Y-67974619D01*
X983572Y-67971147D01*
X924306Y-67888140D01*
X859765Y-67797744D01*
X856043Y-67792228D01*
X831805Y-67754182D01*
X748205Y-67622957D01*
X746248Y-67619781D01*
X637145Y-67436681D01*
X633623Y-67430365D01*
X612153Y-67389121D01*
X540957Y-67252354D01*
X539554Y-67249574D01*
X538547Y-67247515D01*
X445921Y-67058044D01*
X442721Y-67050950D01*
X365955Y-66865621D01*
X364996Y-66863236D01*
X361643Y-66854643D01*
X287453Y-66664509D01*
X284670Y-66656607D01*
X274480Y-66624288D01*
X224369Y-66465355D01*
X223855Y-66463679D01*
X162905Y-66258953D01*
X160664Y-66250312D01*
X117327Y-66054833D01*
X117033Y-66053467D01*
X111495Y-66027057D01*
X73170Y-65844273D01*
X71567Y-65834867D01*
X45491Y-65636807D01*
X18893Y-65423423D01*
X18048Y-65413375D01*
X9484Y-65217218D01*
X608Y-65002611D01*
X500Y-64997404D01*
X500Y-61753804D01*
X730Y-61746197D01*
X5216Y-61672027D01*
X6493Y-61650908D01*
X19840Y-61447294D01*
X21629Y-61432866D01*
X45689Y-61301573D01*
X45986Y-61300020D01*
X78282Y-61137653D01*
X81551Y-61124808D01*
X123483Y-60990244D01*
X124400Y-60987428D01*
X175176Y-60837846D01*
X179570Y-60826685D01*
X238637Y-60695444D01*
X240454Y-60691590D01*
X309000Y-60552591D01*
X314153Y-60543179D01*
X389341Y-60418804D01*
X392346Y-60414079D01*
X477657Y-60286402D01*
X483201Y-60278747D01*
X573268Y-60163784D01*
X577637Y-60158514D01*
X678540Y-60043457D01*
X684119Y-60037502D01*
X787502Y-59934119D01*
X793457Y-59928540D01*
X908514Y-59827637D01*
X913784Y-59823268D01*
X1028747Y-59733201D01*
X1036402Y-59727657D01*
X1164079Y-59642346D01*
X1168804Y-59639341D01*
X1293179Y-59564153D01*
X1302591Y-59559000D01*
X1441590Y-59490454D01*
X1445444Y-59488637D01*
X1576685Y-59429570D01*
X1587846Y-59425176D01*
X1737428Y-59374400D01*
X1740244Y-59373483D01*
X1874808Y-59331551D01*
X1887653Y-59328282D01*
X2050020Y-59295986D01*
X2051573Y-59295689D01*
X2182866Y-59271629D01*
X2197294Y-59269840D01*
X2400908Y-59256493D01*
X2496198Y-59250729D01*
X2503804Y-59250500D01*
X2647443Y-59250500D01*
X2651252Y-59250500D01*
X2951551Y-59214037D01*
X3245266Y-59141643D01*
X3528113Y-59034373D01*
X3795967Y-58893792D01*
X4044924Y-58721950D01*
X4271352Y-58521352D01*
X4471950Y-58294924D01*
X4643792Y-58045967D01*
X4784373Y-57778113D01*
X4891643Y-57495266D01*
X4964037Y-57201551D01*
X5000500Y-56901252D01*
X5000500Y-56750000D01*
X5000500Y-56749500D01*
X5000500Y-49249901D01*
X5000500Y-49098748D01*
X4964037Y-48798449D01*
X4891643Y-48504734D01*
X4840523Y-48369942D01*
X4785724Y-48225449D01*
X4785723Y-48225447D01*
X4784373Y-48221887D01*
X4670246Y-48004437D01*
X4645564Y-47957409D01*
X4645562Y-47957407D01*
X4643792Y-47954033D01*
X4471950Y-47705076D01*
X4271352Y-47478648D01*
X4044924Y-47278050D01*
X4033780Y-47270358D01*
X3799102Y-47108372D01*
X3795967Y-47106208D01*
X3792597Y-47104439D01*
X3792590Y-47104435D01*
X3531489Y-46967399D01*
X3531490Y-46967399D01*
X3528113Y-46965627D01*
X3524560Y-46964279D01*
X3524550Y-46964275D01*
X3248830Y-46859708D01*
X3248820Y-46859705D01*
X3245266Y-46858357D01*
X3241576Y-46857447D01*
X3241568Y-46857445D01*
X2955243Y-46786873D01*
X2951551Y-46785963D01*
X2947784Y-46785505D01*
X2947770Y-46785503D01*
X2655035Y-46749959D01*
X2655029Y-46749958D01*
X2651252Y-46749500D01*
X2647443Y-46749500D01*
X2503807Y-46749500D01*
X2496198Y-46749270D01*
X2401368Y-46743533D01*
X2400736Y-46743493D01*
X2197314Y-46730160D01*
X2182843Y-46728366D01*
X2051733Y-46704339D01*
X2049864Y-46703982D01*
X1887683Y-46671723D01*
X1874778Y-46668439D01*
X1740331Y-46626543D01*
X1737315Y-46625561D01*
X1587873Y-46574832D01*
X1576663Y-46570419D01*
X1445525Y-46511399D01*
X1441508Y-46509505D01*
X1302613Y-46441009D01*
X1293158Y-46435832D01*
X1168851Y-46360686D01*
X1164033Y-46357622D01*
X1036427Y-46272358D01*
X1028723Y-46266779D01*
X913835Y-46176771D01*
X908473Y-46172325D01*
X793488Y-46071486D01*
X787471Y-46065849D01*
X684149Y-45962527D01*
X678512Y-45956510D01*
X577668Y-45841519D01*
X573240Y-45836178D01*
X491242Y-45731516D01*
X483219Y-45721275D01*
X477640Y-45713571D01*
X392376Y-45585965D01*
X389312Y-45581147D01*
X385777Y-45575300D01*
X314165Y-45456839D01*
X308989Y-45447385D01*
X240475Y-45308453D01*
X238617Y-45304511D01*
X179576Y-45173328D01*
X175171Y-45162138D01*
X124416Y-45012618D01*
X123468Y-45009708D01*
X81553Y-44875200D01*
X78280Y-44862337D01*
X45995Y-44700028D01*
X45681Y-44698381D01*
X21629Y-44567137D01*
X19840Y-44552701D01*
X6493Y-44349070D01*
X6464Y-44348604D01*
X6093Y-44342475D01*
X729Y-44253801D01*
X500Y-44246196D01*
X500Y-43960587D01*
X409157Y-43960587D01*
X421485Y-44030497D01*
X425665Y-44044460D01*
X489663Y-44192822D01*
X496955Y-44205454D01*
X593448Y-44335067D01*
X603444Y-44345662D01*
X727227Y-44449528D01*
X739411Y-44457541D01*
X883802Y-44530058D01*
X897499Y-44535043D01*
X1054731Y-44572308D01*
X1069207Y-44574000D01*
X1306410Y-44574000D01*
X1319493Y-44570493D01*
X1323000Y-44557410D01*
X1323000Y-43963590D01*
X1319493Y-43950506D01*
X1306410Y-43947000D01*
X420559Y-43947000D01*
X409645Y-43949419D01*
X409157Y-43960587D01*
X500Y-43960587D01*
X500Y-43681733D01*
X404400Y-43681733D01*
X406039Y-43689300D01*
X419328Y-43693000D01*
X1306410Y-43693000D01*
X1319493Y-43689493D01*
X1323000Y-43676410D01*
X1577000Y-43676410D01*
X1580506Y-43689493D01*
X1593590Y-43693000D01*
X2479441Y-43693000D01*
X2490354Y-43690580D01*
X2490842Y-43679412D01*
X2478514Y-43609502D01*
X2474334Y-43595539D01*
X2410336Y-43447177D01*
X2403044Y-43434545D01*
X2306551Y-43304932D01*
X2296555Y-43294337D01*
X2172772Y-43190471D01*
X2160588Y-43182458D01*
X2016197Y-43109941D01*
X2002500Y-43104956D01*
X1845268Y-43067691D01*
X1830793Y-43066000D01*
X1593590Y-43066000D01*
X1580506Y-43069506D01*
X1577000Y-43082590D01*
X1577000Y-43676410D01*
X1323000Y-43676410D01*
X1323000Y-43082590D01*
X1319493Y-43069506D01*
X1306410Y-43066000D01*
X1109754Y-43066000D01*
X1102440Y-43066425D01*
X982219Y-43080478D01*
X968036Y-43083839D01*
X816195Y-43139104D01*
X803175Y-43145643D01*
X668173Y-43234435D01*
X656998Y-43243812D01*
X546120Y-43361336D01*
X537411Y-43373035D01*
X456624Y-43512962D01*
X450846Y-43526357D01*
X404502Y-43681154D01*
X404400Y-43681733D01*
X500Y-43681733D01*
X500Y-35320587D01*
X409157Y-35320587D01*
X421485Y-35390497D01*
X425665Y-35404460D01*
X489663Y-35552822D01*
X496955Y-35565454D01*
X593448Y-35695067D01*
X603444Y-35705662D01*
X727227Y-35809528D01*
X739411Y-35817541D01*
X883802Y-35890058D01*
X897499Y-35895043D01*
X1054731Y-35932308D01*
X1069207Y-35934000D01*
X1306410Y-35934000D01*
X1319493Y-35930493D01*
X1323000Y-35917410D01*
X1577000Y-35917410D01*
X1580506Y-35930493D01*
X1593590Y-35934000D01*
X1790246Y-35934000D01*
X1797559Y-35933574D01*
X1917780Y-35919521D01*
X1931963Y-35916160D01*
X2083804Y-35860895D01*
X2096824Y-35854356D01*
X2231826Y-35765564D01*
X2243001Y-35756187D01*
X2353879Y-35638663D01*
X2362588Y-35626964D01*
X2443375Y-35487037D01*
X2449153Y-35473642D01*
X2495497Y-35318845D01*
X2495599Y-35318266D01*
X2493960Y-35310699D01*
X2480672Y-35307000D01*
X1593590Y-35307000D01*
X1580506Y-35310506D01*
X1577000Y-35323590D01*
X1577000Y-35917410D01*
X1323000Y-35917410D01*
X1323000Y-35323590D01*
X1319493Y-35310506D01*
X1306410Y-35307000D01*
X420559Y-35307000D01*
X409645Y-35309419D01*
X409157Y-35320587D01*
X500Y-35320587D01*
X500Y-35041733D01*
X404400Y-35041733D01*
X406039Y-35049300D01*
X419328Y-35053000D01*
X1306410Y-35053000D01*
X1319493Y-35049493D01*
X1323000Y-35036410D01*
X1323000Y-34442590D01*
X1319493Y-34429506D01*
X1306410Y-34426000D01*
X1109754Y-34426000D01*
X1102440Y-34426425D01*
X982219Y-34440478D01*
X968036Y-34443839D01*
X816195Y-34499104D01*
X803175Y-34505643D01*
X668173Y-34594435D01*
X656998Y-34603812D01*
X546120Y-34721336D01*
X537411Y-34733035D01*
X456624Y-34872962D01*
X450846Y-34886357D01*
X404502Y-35041154D01*
X404400Y-35041733D01*
X500Y-35041733D01*
X500Y-5002596D01*
X608Y-4997389D01*
X4214Y-4910196D01*
X9496Y-4782477D01*
X18049Y-4586620D01*
X18892Y-4576580D01*
X45486Y-4363234D01*
X71569Y-4165116D01*
X73168Y-4155735D01*
X117062Y-3946395D01*
X117311Y-3945238D01*
X160667Y-3749673D01*
X162901Y-3741059D01*
X223878Y-3536240D01*
X224346Y-3534715D01*
X284680Y-3343362D01*
X287446Y-3335508D01*
X365035Y-3136663D01*
X365927Y-3134446D01*
X442731Y-2949024D01*
X445909Y-2941979D01*
X539601Y-2750329D01*
X540924Y-2747708D01*
X633643Y-2569596D01*
X637145Y-2563317D01*
X746283Y-2380158D01*
X748167Y-2377102D01*
X856066Y-2207735D01*
X859741Y-2202289D01*
X983625Y-2028778D01*
X986100Y-2025435D01*
X1108385Y-1866069D01*
X1112141Y-1861412D01*
X1249870Y-1698796D01*
X1253084Y-1695149D01*
X1388767Y-1547076D01*
X1392479Y-1543199D01*
X1543199Y-1392479D01*
X1547076Y-1388767D01*
X1695149Y-1253084D01*
X1698803Y-1249865D01*
X1861412Y-1112141D01*
X1866069Y-1108385D01*
X2025435Y-986100D01*
X2028778Y-983625D01*
X2202289Y-859741D01*
X2207735Y-856066D01*
X2377102Y-748167D01*
X2380158Y-746283D01*
X2563323Y-637141D01*
X2569596Y-633643D01*
X2747708Y-540924D01*
X2750329Y-539601D01*
X2941979Y-445909D01*
X2949024Y-442731D01*
X3134446Y-365927D01*
X3136663Y-365035D01*
X3335508Y-287446D01*
X3343362Y-284680D01*
X3534715Y-224346D01*
X3536240Y-223878D01*
X3741059Y-162901D01*
X3749673Y-160667D01*
X3945238Y-117311D01*
X3946395Y-117062D01*
X4155735Y-73168D01*
X4165116Y-71569D01*
X4363234Y-45486D01*
X4576580Y-18892D01*
X4586620Y-18049D01*
X4782375Y-9501D01*
X4992831Y-796D01*
X4997390Y-608D01*
X5002596Y-500D01*
X64997404Y-500D01*
X65002610Y-608D01*
G37*
%TD.AperFunction*%
%TA.AperFunction,Conductor*%
G36*
X7937000Y-34216881D02*
G01*
X7983119Y-34263000D01*
X8000000Y-34326000D01*
X8000000Y-34394208D01*
X7990409Y-34442426D01*
X7963096Y-34483301D01*
X7901065Y-34545333D01*
X7883555Y-34562843D01*
X7865465Y-34577533D01*
X7864221Y-34578677D01*
X7855485Y-34584386D01*
X7849074Y-34592621D01*
X7849069Y-34592627D01*
X7836847Y-34608330D01*
X7833571Y-34612365D01*
X7831012Y-34615385D01*
X7827334Y-34619065D01*
X7824312Y-34623296D01*
X7824307Y-34623303D01*
X7815970Y-34634979D01*
X7812864Y-34639144D01*
X7797639Y-34658706D01*
X7782489Y-34678172D01*
X7780041Y-34685300D01*
X7775659Y-34691439D01*
X7772681Y-34701439D01*
X7772679Y-34701445D01*
X7761537Y-34738869D01*
X7759949Y-34743824D01*
X7743900Y-34790577D01*
X7743900Y-34798116D01*
X7741748Y-34805344D01*
X7742179Y-34815772D01*
X7742179Y-34815776D01*
X7743792Y-34854756D01*
X7743900Y-34859964D01*
X7743900Y-36203910D01*
X7734309Y-36252128D01*
X7706995Y-36293005D01*
X7436905Y-36563095D01*
X7396028Y-36590409D01*
X7347810Y-36600000D01*
X5852190Y-36600000D01*
X5803972Y-36590409D01*
X5763095Y-36563095D01*
X5679063Y-36479063D01*
X5651749Y-36438186D01*
X5609591Y-36336408D01*
X5600000Y-36288190D01*
X5600000Y-36060500D01*
X5616881Y-35997500D01*
X5663000Y-35951381D01*
X5726000Y-35934500D01*
X6220272Y-35934500D01*
X6223941Y-35934500D01*
X6355184Y-35919160D01*
X6520924Y-35858836D01*
X6668285Y-35761915D01*
X6789322Y-35633623D01*
X6812374Y-35593695D01*
X6832388Y-35567611D01*
X7000000Y-35400000D01*
X7000000Y-34326000D01*
X7016881Y-34263000D01*
X7063000Y-34216881D01*
X7126000Y-34200000D01*
X7874000Y-34200000D01*
X7937000Y-34216881D01*
G37*
%TD.AperFunction*%
%TA.AperFunction,Conductor*%
G36*
X29437000Y-52016881D02*
G01*
X29483119Y-52063000D01*
X29500000Y-52126000D01*
X29500000Y-56374000D01*
X29483119Y-56437000D01*
X29437000Y-56483119D01*
X29374000Y-56500000D01*
X27932190Y-56500000D01*
X27883972Y-56490409D01*
X27843095Y-56463095D01*
X27086905Y-55706905D01*
X27059591Y-55666028D01*
X27050000Y-55617810D01*
X27050000Y-52502190D01*
X27059591Y-52453972D01*
X27086905Y-52413095D01*
X27463095Y-52036905D01*
X27503972Y-52009591D01*
X27552190Y-52000000D01*
X29374000Y-52000000D01*
X29437000Y-52016881D01*
G37*
%TD.AperFunction*%
%TA.AperFunction,Conductor*%
G36*
X8696028Y-40859591D02*
G01*
X8736905Y-40886905D01*
X9034990Y-41184990D01*
X9062304Y-41225867D01*
X9112484Y-41347013D01*
X9112485Y-41347016D01*
X9115645Y-41354643D01*
X9204526Y-41470474D01*
X9320357Y-41559355D01*
X9455246Y-41615228D01*
X9600000Y-41634285D01*
X9608188Y-41633207D01*
X9657554Y-41626708D01*
X9727250Y-41637435D01*
X9780267Y-41683930D01*
X9800000Y-41751630D01*
X9800000Y-42925000D01*
X9808774Y-42933774D01*
X9808775Y-42933775D01*
X10138095Y-43263095D01*
X10165409Y-43303972D01*
X10175000Y-43352190D01*
X10175000Y-43899000D01*
X10158119Y-43962000D01*
X10112000Y-44008119D01*
X10049000Y-44025000D01*
X8385500Y-44025000D01*
X8322500Y-44008119D01*
X8276381Y-43962000D01*
X8259500Y-43899000D01*
X8259500Y-43855282D01*
X8259500Y-43852190D01*
X8254514Y-43801565D01*
X8244923Y-43753347D01*
X8230155Y-43704664D01*
X8206173Y-43659798D01*
X8178859Y-43618921D01*
X8146589Y-43579601D01*
X7896405Y-43329417D01*
X7869091Y-43288540D01*
X7859500Y-43240322D01*
X7859500Y-43119766D01*
X7859500Y-43117186D01*
X7856034Y-43074913D01*
X7849347Y-43034412D01*
X7822175Y-42954364D01*
X7802827Y-42918164D01*
X7801431Y-42915999D01*
X7800126Y-42913781D01*
X7800325Y-42913663D01*
X7791550Y-42896918D01*
X7768940Y-42842334D01*
X7760427Y-42810566D01*
X7754618Y-42766437D01*
X7754618Y-42733561D01*
X7761514Y-42681173D01*
X7765000Y-42664020D01*
X7779316Y-42612293D01*
X7788300Y-42551724D01*
X7789858Y-42488214D01*
X7775939Y-42426228D01*
X7755311Y-42368576D01*
X7726747Y-42311828D01*
X7705592Y-42287304D01*
X7682896Y-42248905D01*
X7675000Y-42205004D01*
X7675000Y-41127190D01*
X7684591Y-41078972D01*
X7711905Y-41038095D01*
X7863095Y-40886905D01*
X7903972Y-40859591D01*
X7952190Y-40850000D01*
X8647810Y-40850000D01*
X8696028Y-40859591D01*
G37*
%TD.AperFunction*%
%TA.AperFunction,Conductor*%
G36*
X17382427Y-50009591D02*
G01*
X17423304Y-50036905D01*
X17463095Y-50076696D01*
X17490409Y-50117573D01*
X17500000Y-50165791D01*
X17500000Y-52874000D01*
X17483119Y-52937000D01*
X17437000Y-52983119D01*
X17374000Y-53000000D01*
X14126000Y-53000000D01*
X14063000Y-52983119D01*
X14016881Y-52937000D01*
X14000000Y-52874000D01*
X14000000Y-50126000D01*
X14016881Y-50063000D01*
X14063000Y-50016881D01*
X14126000Y-50000000D01*
X17334209Y-50000000D01*
X17382427Y-50009591D01*
G37*
%TD.AperFunction*%
%TA.AperFunction,Conductor*%
G36*
X53920000Y-13516613D02*
G01*
X53965387Y-13562000D01*
X53982000Y-13624000D01*
X53982000Y-14876000D01*
X53965387Y-14938000D01*
X53920000Y-14983387D01*
X53858000Y-15000000D01*
X53124000Y-15000000D01*
X53062000Y-14983387D01*
X53016613Y-14938000D01*
X53000000Y-14876000D01*
X53000000Y-13624000D01*
X53016613Y-13562000D01*
X53062000Y-13516613D01*
X53124000Y-13500000D01*
X53858000Y-13500000D01*
X53920000Y-13516613D01*
G37*
%TD.AperFunction*%
%TA.AperFunction,Conductor*%
G36*
X9272000Y-30071881D02*
G01*
X9318119Y-30118000D01*
X9335000Y-30181000D01*
X9335000Y-31072810D01*
X9325409Y-31121028D01*
X9298095Y-31161905D01*
X9261905Y-31198095D01*
X9221028Y-31225409D01*
X9172810Y-31235000D01*
X6361000Y-31235000D01*
X6298000Y-31218119D01*
X6251881Y-31172000D01*
X6235000Y-31109000D01*
X6235000Y-30181000D01*
X6251881Y-30118000D01*
X6298000Y-30071881D01*
X6361000Y-30055000D01*
X9209000Y-30055000D01*
X9272000Y-30071881D01*
G37*
%TD.AperFunction*%
%TA.AperFunction,Conductor*%
G36*
X13437000Y-52516881D02*
G01*
X13483119Y-52563000D01*
X13500000Y-52626000D01*
X13500000Y-53500000D01*
X17374000Y-53500000D01*
X17437000Y-53516881D01*
X17483119Y-53563000D01*
X17500000Y-53626000D01*
X17500000Y-54874000D01*
X17483119Y-54937000D01*
X17437000Y-54983119D01*
X17374000Y-55000000D01*
X12126000Y-55000000D01*
X12063000Y-54983119D01*
X12016881Y-54937000D01*
X12000000Y-54874000D01*
X12000000Y-52626000D01*
X12016881Y-52563000D01*
X12063000Y-52516881D01*
X12126000Y-52500000D01*
X13374000Y-52500000D01*
X13437000Y-52516881D01*
G37*
%TD.AperFunction*%
%TA.AperFunction,Conductor*%
G36*
X7465611Y-42414878D02*
G01*
X7510980Y-42455998D01*
X7531608Y-42513650D01*
X7522624Y-42574219D01*
X7512930Y-42597620D01*
X7512928Y-42597625D01*
X7509772Y-42605246D01*
X7490715Y-42750000D01*
X7491793Y-42758188D01*
X7508693Y-42886565D01*
X7508694Y-42886571D01*
X7509772Y-42894754D01*
X7512931Y-42902382D01*
X7512932Y-42902383D01*
X7562484Y-43022013D01*
X7562485Y-43022016D01*
X7565645Y-43029643D01*
X7573965Y-43040485D01*
X7593313Y-43076685D01*
X7600000Y-43117186D01*
X7600000Y-43400000D01*
X7608775Y-43408775D01*
X7963095Y-43763095D01*
X7990409Y-43803972D01*
X8000000Y-43852190D01*
X8000000Y-45074000D01*
X7983119Y-45137000D01*
X7937000Y-45183119D01*
X7874000Y-45200000D01*
X7052190Y-45200000D01*
X7003972Y-45190409D01*
X6963095Y-45163095D01*
X6836905Y-45036905D01*
X6809591Y-44996028D01*
X6800000Y-44947810D01*
X6800000Y-44288889D01*
X6816881Y-44225889D01*
X6831933Y-44199818D01*
X6877510Y-44120876D01*
X6928095Y-43951909D01*
X6938351Y-43775831D01*
X6907723Y-43602134D01*
X6837864Y-43440182D01*
X6820772Y-43417224D01*
X6736918Y-43304588D01*
X6736917Y-43304587D01*
X6732539Y-43298706D01*
X6716301Y-43285081D01*
X6603050Y-43190051D01*
X6603048Y-43190049D01*
X6597427Y-43185333D01*
X6439811Y-43106176D01*
X6432674Y-43104484D01*
X6432662Y-43104480D01*
X6299433Y-43072904D01*
X6239396Y-43039396D01*
X5836905Y-42636905D01*
X5809591Y-42596028D01*
X5800000Y-42547810D01*
X5800000Y-42526000D01*
X5816881Y-42463000D01*
X5863000Y-42416881D01*
X5926000Y-42400000D01*
X7406215Y-42400000D01*
X7465611Y-42414878D01*
G37*
%TD.AperFunction*%
%TA.AperFunction,Conductor*%
G36*
X13996028Y-57009591D02*
G01*
X14036905Y-57036905D01*
X14463095Y-57463095D01*
X14490409Y-57503972D01*
X14500000Y-57552190D01*
X14500000Y-60947810D01*
X14490409Y-60996028D01*
X14463095Y-61036905D01*
X14036905Y-61463095D01*
X13996028Y-61490409D01*
X13947810Y-61500000D01*
X11552190Y-61500000D01*
X11503972Y-61490409D01*
X11463095Y-61463095D01*
X11036905Y-61036905D01*
X11009591Y-60996028D01*
X11000000Y-60947810D01*
X11000000Y-57552190D01*
X11009591Y-57503972D01*
X11036905Y-57463095D01*
X11463095Y-57036905D01*
X11503972Y-57009591D01*
X11552190Y-57000000D01*
X13947810Y-57000000D01*
X13996028Y-57009591D01*
G37*
%TD.AperFunction*%
%TA.AperFunction,Conductor*%
G36*
X57437000Y-57516881D02*
G01*
X57483119Y-57563000D01*
X57500000Y-57626000D01*
X57500000Y-66971500D01*
X57483119Y-67034500D01*
X57437000Y-67080619D01*
X57374000Y-67097500D01*
X57355000Y-67097500D01*
X57292000Y-67080619D01*
X57245881Y-67034500D01*
X57229000Y-66971500D01*
X57229000Y-66193590D01*
X57225493Y-66180506D01*
X57212410Y-66177000D01*
X55412591Y-66177000D01*
X55399507Y-66180506D01*
X55396001Y-66193590D01*
X55396001Y-66971500D01*
X55379120Y-67034500D01*
X55333001Y-67080619D01*
X55270001Y-67097500D01*
X55126000Y-67097500D01*
X55063000Y-67080619D01*
X55016881Y-67034500D01*
X55000000Y-66971500D01*
X55000000Y-65906410D01*
X55396000Y-65906410D01*
X55399506Y-65919493D01*
X55412590Y-65923000D01*
X56168910Y-65923000D01*
X56181993Y-65919493D01*
X56185500Y-65906410D01*
X56439500Y-65906410D01*
X56443006Y-65919493D01*
X56456090Y-65923000D01*
X57212409Y-65923000D01*
X57225492Y-65919493D01*
X57228999Y-65906410D01*
X57228999Y-65080160D01*
X57228638Y-65073435D01*
X57223389Y-65024606D01*
X57219790Y-65009375D01*
X57175050Y-64889424D01*
X57166496Y-64873757D01*
X57090445Y-64772164D01*
X57077835Y-64759554D01*
X56976242Y-64683503D01*
X56960575Y-64674949D01*
X56840626Y-64630210D01*
X56825391Y-64626609D01*
X56776561Y-64621360D01*
X56769842Y-64621000D01*
X56456090Y-64621000D01*
X56443006Y-64624506D01*
X56439500Y-64637590D01*
X56439500Y-65906410D01*
X56185500Y-65906410D01*
X56185500Y-64637591D01*
X56181993Y-64624507D01*
X56168910Y-64621001D01*
X55855160Y-64621001D01*
X55848435Y-64621361D01*
X55799606Y-64626610D01*
X55784375Y-64630209D01*
X55664424Y-64674949D01*
X55648757Y-64683503D01*
X55547164Y-64759554D01*
X55534554Y-64772164D01*
X55458503Y-64873757D01*
X55449949Y-64889424D01*
X55405210Y-65009373D01*
X55401609Y-65024608D01*
X55396360Y-65073438D01*
X55396000Y-65080158D01*
X55396000Y-65906410D01*
X55000000Y-65906410D01*
X55000000Y-63607340D01*
X55383501Y-63607340D01*
X55383861Y-63614064D01*
X55389110Y-63662893D01*
X55392709Y-63678124D01*
X55437449Y-63798075D01*
X55446003Y-63813742D01*
X55522054Y-63915335D01*
X55534664Y-63927945D01*
X55636257Y-64003996D01*
X55651924Y-64012550D01*
X55771873Y-64057289D01*
X55787108Y-64060890D01*
X55835938Y-64066139D01*
X55842658Y-64066500D01*
X56156410Y-64066500D01*
X56169493Y-64062993D01*
X56173000Y-64049910D01*
X56173000Y-64049909D01*
X56427000Y-64049909D01*
X56430506Y-64062992D01*
X56443590Y-64066499D01*
X56757340Y-64066499D01*
X56764064Y-64066138D01*
X56812893Y-64060889D01*
X56828124Y-64057290D01*
X56948075Y-64012550D01*
X56963742Y-64003996D01*
X57065335Y-63927945D01*
X57077945Y-63915335D01*
X57153996Y-63813742D01*
X57162550Y-63798075D01*
X57207289Y-63678126D01*
X57210890Y-63662891D01*
X57216139Y-63614061D01*
X57216500Y-63607342D01*
X57216500Y-62781090D01*
X57212993Y-62768006D01*
X57199910Y-62764500D01*
X56443590Y-62764500D01*
X56430506Y-62768006D01*
X56427000Y-62781090D01*
X56427000Y-64049909D01*
X56173000Y-64049909D01*
X56173000Y-62781090D01*
X56169493Y-62768006D01*
X56156410Y-62764500D01*
X55400091Y-62764500D01*
X55387007Y-62768006D01*
X55383501Y-62781090D01*
X55383501Y-63607340D01*
X55000000Y-63607340D01*
X55000000Y-62493910D01*
X55383500Y-62493910D01*
X55387006Y-62506993D01*
X55400090Y-62510500D01*
X56156410Y-62510500D01*
X56169493Y-62506993D01*
X56173000Y-62493910D01*
X56427000Y-62493910D01*
X56430506Y-62506993D01*
X56443590Y-62510500D01*
X57199909Y-62510500D01*
X57212992Y-62506993D01*
X57216499Y-62493910D01*
X57216499Y-61667660D01*
X57216138Y-61660935D01*
X57210889Y-61612106D01*
X57207290Y-61596875D01*
X57162550Y-61476924D01*
X57153996Y-61461257D01*
X57077945Y-61359664D01*
X57065335Y-61347054D01*
X56963742Y-61271003D01*
X56948075Y-61262449D01*
X56828126Y-61217710D01*
X56812891Y-61214109D01*
X56764061Y-61208860D01*
X56757342Y-61208500D01*
X56443590Y-61208500D01*
X56430506Y-61212006D01*
X56427000Y-61225090D01*
X56427000Y-62493910D01*
X56173000Y-62493910D01*
X56173000Y-61225091D01*
X56169493Y-61212007D01*
X56156410Y-61208501D01*
X55842660Y-61208501D01*
X55835935Y-61208861D01*
X55787106Y-61214110D01*
X55771875Y-61217709D01*
X55651924Y-61262449D01*
X55636257Y-61271003D01*
X55534664Y-61347054D01*
X55522054Y-61359664D01*
X55446003Y-61461257D01*
X55437449Y-61476924D01*
X55392710Y-61596873D01*
X55389109Y-61612108D01*
X55383860Y-61660938D01*
X55383500Y-61667658D01*
X55383500Y-62493910D01*
X55000000Y-62493910D01*
X55000000Y-60219840D01*
X55371001Y-60219840D01*
X55371361Y-60226564D01*
X55376610Y-60275393D01*
X55380209Y-60290624D01*
X55424949Y-60410575D01*
X55433503Y-60426242D01*
X55509554Y-60527835D01*
X55522164Y-60540445D01*
X55623757Y-60616496D01*
X55639424Y-60625050D01*
X55759373Y-60669789D01*
X55774608Y-60673390D01*
X55823438Y-60678639D01*
X55830158Y-60679000D01*
X56143910Y-60679000D01*
X56156993Y-60675493D01*
X56160500Y-60662410D01*
X56160500Y-60662409D01*
X56414500Y-60662409D01*
X56418006Y-60675492D01*
X56431090Y-60678999D01*
X56744840Y-60678999D01*
X56751564Y-60678638D01*
X56800393Y-60673389D01*
X56815624Y-60669790D01*
X56935575Y-60625050D01*
X56951242Y-60616496D01*
X57052835Y-60540445D01*
X57065445Y-60527835D01*
X57141496Y-60426242D01*
X57150050Y-60410575D01*
X57194789Y-60290626D01*
X57198390Y-60275391D01*
X57203639Y-60226561D01*
X57204000Y-60219842D01*
X57204000Y-59393590D01*
X57200493Y-59380506D01*
X57187410Y-59377000D01*
X56431090Y-59377000D01*
X56418006Y-59380506D01*
X56414500Y-59393590D01*
X56414500Y-60662409D01*
X56160500Y-60662409D01*
X56160500Y-59393590D01*
X56156993Y-59380506D01*
X56143910Y-59377000D01*
X55387591Y-59377000D01*
X55374507Y-59380506D01*
X55371001Y-59393590D01*
X55371001Y-60219840D01*
X55000000Y-60219840D01*
X55000000Y-59106410D01*
X55371000Y-59106410D01*
X55374506Y-59119493D01*
X55387590Y-59123000D01*
X56143910Y-59123000D01*
X56156993Y-59119493D01*
X56160500Y-59106410D01*
X56414500Y-59106410D01*
X56418006Y-59119493D01*
X56431090Y-59123000D01*
X57187409Y-59123000D01*
X57200492Y-59119493D01*
X57203999Y-59106410D01*
X57203999Y-58280160D01*
X57203638Y-58273435D01*
X57198389Y-58224606D01*
X57194790Y-58209375D01*
X57150050Y-58089424D01*
X57141496Y-58073757D01*
X57065445Y-57972164D01*
X57052835Y-57959554D01*
X56951242Y-57883503D01*
X56935575Y-57874949D01*
X56815626Y-57830210D01*
X56800391Y-57826609D01*
X56751561Y-57821360D01*
X56744842Y-57821000D01*
X56431090Y-57821000D01*
X56418006Y-57824506D01*
X56414500Y-57837590D01*
X56414500Y-59106410D01*
X56160500Y-59106410D01*
X56160500Y-57837591D01*
X56156993Y-57824507D01*
X56143910Y-57821001D01*
X55830160Y-57821001D01*
X55823435Y-57821361D01*
X55774606Y-57826610D01*
X55759375Y-57830209D01*
X55639424Y-57874949D01*
X55623757Y-57883503D01*
X55522164Y-57959554D01*
X55509554Y-57972164D01*
X55433503Y-58073757D01*
X55424949Y-58089424D01*
X55380210Y-58209373D01*
X55376609Y-58224608D01*
X55371360Y-58273438D01*
X55371000Y-58280158D01*
X55371000Y-59106410D01*
X55000000Y-59106410D01*
X55000000Y-57626000D01*
X55016881Y-57563000D01*
X55063000Y-57516881D01*
X55126000Y-57500000D01*
X57374000Y-57500000D01*
X57437000Y-57516881D01*
G37*
%TD.AperFunction*%
%TA.AperFunction,Conductor*%
G36*
X33437000Y-62016881D02*
G01*
X33483119Y-62063000D01*
X33500000Y-62126000D01*
X33500000Y-63874000D01*
X33483119Y-63937000D01*
X33437000Y-63983119D01*
X33374000Y-64000000D01*
X29626000Y-64000000D01*
X29563000Y-63983119D01*
X29516881Y-63937000D01*
X29500000Y-63874000D01*
X29500000Y-62126000D01*
X29516881Y-62063000D01*
X29563000Y-62016881D01*
X29626000Y-62000000D01*
X33374000Y-62000000D01*
X33437000Y-62016881D01*
G37*
%TD.AperFunction*%
%TA.AperFunction,Conductor*%
G36*
X60160715Y-55470158D02*
G01*
X60160894Y-55469263D01*
X60228914Y-55482792D01*
X60241168Y-55483999D01*
X60270743Y-55483999D01*
X60332309Y-55500062D01*
X60378176Y-55544159D01*
X60396650Y-55605044D01*
X60383018Y-55667193D01*
X60380116Y-55672889D01*
X60374062Y-55691521D01*
X60361774Y-55769102D01*
X60361000Y-55778946D01*
X60361000Y-55831410D01*
X60364506Y-55844493D01*
X60377590Y-55848000D01*
X60896000Y-55848000D01*
X60959000Y-55864881D01*
X61000000Y-55905881D01*
X61000000Y-57044119D01*
X60959000Y-57085119D01*
X60896000Y-57102000D01*
X60377591Y-57102000D01*
X60364507Y-57105506D01*
X60361001Y-57118590D01*
X60361001Y-57171051D01*
X60361775Y-57180899D01*
X60374061Y-57258472D01*
X60380116Y-57277107D01*
X60427773Y-57370641D01*
X60439285Y-57386485D01*
X60513514Y-57460714D01*
X60529358Y-57472226D01*
X60567515Y-57491668D01*
X60612245Y-57529870D01*
X60634759Y-57584215D01*
X60630149Y-57642858D01*
X60606345Y-57681714D01*
X60607813Y-57682813D01*
X60530668Y-57785865D01*
X60522118Y-57801523D01*
X60479887Y-57914749D01*
X60476290Y-57929970D01*
X60471360Y-57975831D01*
X60471000Y-57982547D01*
X60471000Y-58050471D01*
X60451960Y-58117071D01*
X60400594Y-58163543D01*
X60332426Y-58175842D01*
X60268058Y-58150250D01*
X60226944Y-58094503D01*
X60225048Y-58089419D01*
X60216496Y-58073757D01*
X60140445Y-57972164D01*
X60127835Y-57959554D01*
X60026242Y-57883503D01*
X60010575Y-57874949D01*
X59890626Y-57830210D01*
X59875391Y-57826609D01*
X59826561Y-57821360D01*
X59819842Y-57821000D01*
X59506090Y-57821000D01*
X59493006Y-57824506D01*
X59489500Y-57837590D01*
X59489500Y-59106410D01*
X59493006Y-59119493D01*
X59506090Y-59123000D01*
X60262409Y-59123000D01*
X60275492Y-59119493D01*
X60278999Y-59106410D01*
X60278999Y-58795020D01*
X60298039Y-58728420D01*
X60349404Y-58681948D01*
X60417572Y-58669649D01*
X60481939Y-58695239D01*
X60516067Y-58741513D01*
X60517800Y-58740568D01*
X60530668Y-58764134D01*
X60602417Y-58859979D01*
X60615020Y-58872582D01*
X60717277Y-58949132D01*
X60754440Y-58993601D01*
X60767767Y-59050000D01*
X60754440Y-59106399D01*
X60717277Y-59150868D01*
X60615020Y-59227417D01*
X60602417Y-59240020D01*
X60530668Y-59335865D01*
X60522118Y-59351523D01*
X60511824Y-59379122D01*
X60475826Y-59430705D01*
X60419377Y-59458457D01*
X60356546Y-59455463D01*
X60302992Y-59422469D01*
X60283005Y-59387076D01*
X60276779Y-59380850D01*
X60262410Y-59377000D01*
X59506090Y-59377000D01*
X59493006Y-59380506D01*
X59489500Y-59393590D01*
X59489500Y-60662409D01*
X59493006Y-60675492D01*
X59506090Y-60678999D01*
X59819840Y-60678999D01*
X59826564Y-60678638D01*
X59875393Y-60673389D01*
X59890624Y-60669790D01*
X60010575Y-60625050D01*
X60026242Y-60616496D01*
X60127835Y-60540445D01*
X60140445Y-60527835D01*
X60216496Y-60426242D01*
X60225050Y-60410575D01*
X60269789Y-60290629D01*
X60270992Y-60285537D01*
X60300782Y-60229313D01*
X60354247Y-60194814D01*
X60417752Y-60190838D01*
X60475102Y-60218400D01*
X60511672Y-60270471D01*
X60522117Y-60298474D01*
X60530668Y-60314134D01*
X60602417Y-60409979D01*
X60615020Y-60422582D01*
X60710865Y-60494331D01*
X60726523Y-60502881D01*
X60839749Y-60545112D01*
X60854970Y-60548709D01*
X60900831Y-60553639D01*
X60907547Y-60554000D01*
X61031410Y-60554000D01*
X61044493Y-60550493D01*
X61048000Y-60537410D01*
X61048000Y-59824000D01*
X61064881Y-59761000D01*
X61111000Y-59714881D01*
X61174000Y-59698000D01*
X61176000Y-59698000D01*
X61239000Y-59714881D01*
X61285119Y-59761000D01*
X61302000Y-59824000D01*
X61302000Y-60537410D01*
X61305506Y-60550493D01*
X61318590Y-60554000D01*
X61324000Y-60554000D01*
X61387000Y-60570881D01*
X61433119Y-60617000D01*
X61450000Y-60680000D01*
X61450000Y-65997810D01*
X61440409Y-66046028D01*
X61413095Y-66086905D01*
X60519095Y-66980905D01*
X60468936Y-67011643D01*
X60410289Y-67016259D01*
X60355939Y-66993746D01*
X60317733Y-66949013D01*
X60304000Y-66891810D01*
X60304000Y-66193590D01*
X60300493Y-66180506D01*
X60287410Y-66177000D01*
X58487591Y-66177000D01*
X58474507Y-66180506D01*
X58471001Y-66193590D01*
X58471001Y-67019840D01*
X58471361Y-67026564D01*
X58476610Y-67075393D01*
X58480209Y-67090624D01*
X58509540Y-67169262D01*
X58515320Y-67236551D01*
X58485522Y-67297158D01*
X58428706Y-67333672D01*
X58361197Y-67335601D01*
X58302390Y-67302390D01*
X57886905Y-66886905D01*
X57859591Y-66846028D01*
X57850000Y-66797810D01*
X57850000Y-65906410D01*
X58471000Y-65906410D01*
X58474506Y-65919493D01*
X58487590Y-65923000D01*
X59243910Y-65923000D01*
X59256993Y-65919493D01*
X59260500Y-65906410D01*
X59514500Y-65906410D01*
X59518006Y-65919493D01*
X59531090Y-65923000D01*
X60287409Y-65923000D01*
X60300492Y-65919493D01*
X60303999Y-65906410D01*
X60303999Y-65080160D01*
X60303638Y-65073435D01*
X60298389Y-65024606D01*
X60294790Y-65009375D01*
X60250050Y-64889424D01*
X60241496Y-64873757D01*
X60165445Y-64772164D01*
X60152835Y-64759554D01*
X60051242Y-64683503D01*
X60035575Y-64674949D01*
X59915626Y-64630210D01*
X59900391Y-64626609D01*
X59851561Y-64621360D01*
X59844842Y-64621000D01*
X59531090Y-64621000D01*
X59518006Y-64624506D01*
X59514500Y-64637590D01*
X59514500Y-65906410D01*
X59260500Y-65906410D01*
X59260500Y-64637591D01*
X59256993Y-64624507D01*
X59243910Y-64621001D01*
X58930160Y-64621001D01*
X58923435Y-64621361D01*
X58874606Y-64626610D01*
X58859375Y-64630209D01*
X58739424Y-64674949D01*
X58723757Y-64683503D01*
X58622164Y-64759554D01*
X58609554Y-64772164D01*
X58533503Y-64873757D01*
X58524949Y-64889424D01*
X58480210Y-65009373D01*
X58476609Y-65024608D01*
X58471360Y-65073438D01*
X58471000Y-65080158D01*
X58471000Y-65906410D01*
X57850000Y-65906410D01*
X57850000Y-63607340D01*
X58458501Y-63607340D01*
X58458861Y-63614064D01*
X58464110Y-63662893D01*
X58467709Y-63678124D01*
X58512449Y-63798075D01*
X58521003Y-63813742D01*
X58597054Y-63915335D01*
X58609664Y-63927945D01*
X58711257Y-64003996D01*
X58726924Y-64012550D01*
X58846873Y-64057289D01*
X58862108Y-64060890D01*
X58910938Y-64066139D01*
X58917658Y-64066500D01*
X59231410Y-64066500D01*
X59244493Y-64062993D01*
X59248000Y-64049910D01*
X59248000Y-64049909D01*
X59502000Y-64049909D01*
X59505506Y-64062992D01*
X59518590Y-64066499D01*
X59832340Y-64066499D01*
X59839064Y-64066138D01*
X59887893Y-64060889D01*
X59903124Y-64057290D01*
X60023075Y-64012550D01*
X60038742Y-64003996D01*
X60140335Y-63927945D01*
X60152945Y-63915335D01*
X60228996Y-63813742D01*
X60237550Y-63798075D01*
X60282289Y-63678126D01*
X60285890Y-63662891D01*
X60291139Y-63614061D01*
X60291500Y-63607342D01*
X60291500Y-62781090D01*
X60287993Y-62768006D01*
X60274910Y-62764500D01*
X59518590Y-62764500D01*
X59505506Y-62768006D01*
X59502000Y-62781090D01*
X59502000Y-64049909D01*
X59248000Y-64049909D01*
X59248000Y-62781090D01*
X59244493Y-62768006D01*
X59231410Y-62764500D01*
X58475091Y-62764500D01*
X58462007Y-62768006D01*
X58458501Y-62781090D01*
X58458501Y-63607340D01*
X57850000Y-63607340D01*
X57850000Y-62493910D01*
X58458500Y-62493910D01*
X58462006Y-62506993D01*
X58475090Y-62510500D01*
X59231410Y-62510500D01*
X59244493Y-62506993D01*
X59248000Y-62493910D01*
X59502000Y-62493910D01*
X59505506Y-62506993D01*
X59518590Y-62510500D01*
X60274909Y-62510500D01*
X60287992Y-62506993D01*
X60291499Y-62493910D01*
X60291499Y-61667660D01*
X60291138Y-61660935D01*
X60285889Y-61612106D01*
X60282290Y-61596875D01*
X60237550Y-61476924D01*
X60228996Y-61461257D01*
X60152945Y-61359664D01*
X60140335Y-61347054D01*
X60038742Y-61271003D01*
X60023075Y-61262449D01*
X59903126Y-61217710D01*
X59887891Y-61214109D01*
X59839061Y-61208860D01*
X59832342Y-61208500D01*
X59518590Y-61208500D01*
X59505506Y-61212006D01*
X59502000Y-61225090D01*
X59502000Y-62493910D01*
X59248000Y-62493910D01*
X59248000Y-61225091D01*
X59244493Y-61212007D01*
X59231410Y-61208501D01*
X58917660Y-61208501D01*
X58910935Y-61208861D01*
X58862106Y-61214110D01*
X58846875Y-61217709D01*
X58726924Y-61262449D01*
X58711257Y-61271003D01*
X58609664Y-61347054D01*
X58597054Y-61359664D01*
X58521003Y-61461257D01*
X58512449Y-61476924D01*
X58467710Y-61596873D01*
X58464109Y-61612108D01*
X58458860Y-61660938D01*
X58458500Y-61667658D01*
X58458500Y-62493910D01*
X57850000Y-62493910D01*
X57850000Y-60219840D01*
X58446001Y-60219840D01*
X58446361Y-60226564D01*
X58451610Y-60275393D01*
X58455209Y-60290624D01*
X58499949Y-60410575D01*
X58508503Y-60426242D01*
X58584554Y-60527835D01*
X58597164Y-60540445D01*
X58698757Y-60616496D01*
X58714424Y-60625050D01*
X58834373Y-60669789D01*
X58849608Y-60673390D01*
X58898438Y-60678639D01*
X58905158Y-60679000D01*
X59218910Y-60679000D01*
X59231993Y-60675493D01*
X59235500Y-60662410D01*
X59235500Y-59393590D01*
X59231993Y-59380506D01*
X59218910Y-59377000D01*
X58462591Y-59377000D01*
X58449507Y-59380506D01*
X58446001Y-59393590D01*
X58446001Y-60219840D01*
X57850000Y-60219840D01*
X57850000Y-59106410D01*
X58446000Y-59106410D01*
X58449506Y-59119493D01*
X58462590Y-59123000D01*
X59218910Y-59123000D01*
X59231993Y-59119493D01*
X59235500Y-59106410D01*
X59235500Y-57837591D01*
X59231993Y-57824507D01*
X59218910Y-57821001D01*
X58905160Y-57821001D01*
X58898435Y-57821361D01*
X58849606Y-57826610D01*
X58834375Y-57830209D01*
X58714424Y-57874949D01*
X58698757Y-57883503D01*
X58597164Y-57959554D01*
X58584554Y-57972164D01*
X58508503Y-58073757D01*
X58499949Y-58089424D01*
X58455210Y-58209373D01*
X58451609Y-58224608D01*
X58446360Y-58273438D01*
X58446000Y-58280158D01*
X58446000Y-59106410D01*
X57850000Y-59106410D01*
X57850000Y-58202191D01*
X57859591Y-58153973D01*
X57886904Y-58113096D01*
X58017453Y-57982547D01*
X58432853Y-57567146D01*
X58473726Y-57539837D01*
X58521945Y-57530246D01*
X58570165Y-57539839D01*
X58587616Y-57547068D01*
X58587619Y-57547068D01*
X58595246Y-57550228D01*
X58740000Y-57569285D01*
X58884754Y-57550228D01*
X58982860Y-57509590D01*
X59031078Y-57500000D01*
X59983410Y-57500000D01*
X60000000Y-57500000D01*
X60000000Y-56831410D01*
X60361000Y-56831410D01*
X60364506Y-56844493D01*
X60377590Y-56848000D01*
X60751410Y-56848000D01*
X60764493Y-56844493D01*
X60768000Y-56831410D01*
X60768000Y-56118590D01*
X60764493Y-56105506D01*
X60751410Y-56102000D01*
X60377591Y-56102000D01*
X60364507Y-56105506D01*
X60361001Y-56118590D01*
X60361001Y-56171051D01*
X60361775Y-56180899D01*
X60374061Y-56258472D01*
X60380116Y-56277107D01*
X60427773Y-56370641D01*
X60445113Y-56394506D01*
X60444097Y-56395244D01*
X60471317Y-56442389D01*
X60471317Y-56507611D01*
X60444097Y-56554755D01*
X60445113Y-56555494D01*
X60427773Y-56579358D01*
X60380113Y-56672896D01*
X60374062Y-56691521D01*
X60361774Y-56769102D01*
X60361000Y-56778946D01*
X60361000Y-56831410D01*
X60000000Y-56831410D01*
X60000000Y-55588570D01*
X60014878Y-55529174D01*
X60055999Y-55483804D01*
X60113652Y-55463177D01*
X60160715Y-55470158D01*
G37*
%TD.AperFunction*%
%TA.AperFunction,Conductor*%
G36*
X62936500Y-52516881D02*
G01*
X62982619Y-52563000D01*
X62999500Y-52626000D01*
X62999500Y-52999500D01*
X62999500Y-53000000D01*
X62999500Y-53131120D01*
X62999832Y-53133649D01*
X63000000Y-53138748D01*
X63000000Y-56000000D01*
X63008775Y-56008774D01*
X63008775Y-56008775D01*
X63963095Y-56963095D01*
X63990409Y-57003972D01*
X64000000Y-57052190D01*
X64000000Y-60874000D01*
X63983119Y-60937000D01*
X63937000Y-60983119D01*
X63874000Y-61000000D01*
X62126000Y-61000000D01*
X62063000Y-60983119D01*
X62016881Y-60937000D01*
X62000000Y-60874000D01*
X62000000Y-60550767D01*
X62018803Y-60484549D01*
X62069600Y-60438095D01*
X62137231Y-60425269D01*
X62201509Y-60449899D01*
X62260861Y-60494329D01*
X62276523Y-60502881D01*
X62389749Y-60545112D01*
X62404970Y-60548709D01*
X62450831Y-60553639D01*
X62457547Y-60554000D01*
X62581410Y-60554000D01*
X62594493Y-60550493D01*
X62598000Y-60537410D01*
X62852000Y-60537410D01*
X62855506Y-60550493D01*
X62868590Y-60554000D01*
X62992453Y-60554000D01*
X62999168Y-60553639D01*
X63045029Y-60548709D01*
X63060250Y-60545112D01*
X63173476Y-60502881D01*
X63189134Y-60494331D01*
X63284979Y-60422582D01*
X63297582Y-60409979D01*
X63369331Y-60314134D01*
X63377881Y-60298476D01*
X63420112Y-60185250D01*
X63423709Y-60170029D01*
X63428639Y-60124168D01*
X63429000Y-60117453D01*
X63429000Y-59968590D01*
X63425493Y-59955506D01*
X63412410Y-59952000D01*
X62868590Y-59952000D01*
X62855506Y-59955506D01*
X62852000Y-59968590D01*
X62852000Y-60537410D01*
X62598000Y-60537410D01*
X62598000Y-59824000D01*
X62614881Y-59761000D01*
X62661000Y-59714881D01*
X62724000Y-59698000D01*
X63412410Y-59698000D01*
X63425493Y-59694493D01*
X63429000Y-59681410D01*
X63429000Y-59532547D01*
X63428639Y-59525831D01*
X63423709Y-59479970D01*
X63420112Y-59464749D01*
X63377881Y-59351523D01*
X63369331Y-59335865D01*
X63297582Y-59240020D01*
X63284976Y-59227414D01*
X63182723Y-59150868D01*
X63145560Y-59106400D01*
X63132232Y-59050000D01*
X63145560Y-58993600D01*
X63182723Y-58949132D01*
X63284976Y-58872585D01*
X63297582Y-58859979D01*
X63369331Y-58764134D01*
X63377881Y-58748476D01*
X63420112Y-58635250D01*
X63423709Y-58620029D01*
X63428639Y-58574168D01*
X63429000Y-58567453D01*
X63429000Y-58418590D01*
X63425493Y-58405506D01*
X63412410Y-58402000D01*
X62724000Y-58402000D01*
X62661000Y-58385119D01*
X62614881Y-58339000D01*
X62598000Y-58276000D01*
X62598000Y-58131410D01*
X62852000Y-58131410D01*
X62855506Y-58144493D01*
X62868590Y-58148000D01*
X63412410Y-58148000D01*
X63425493Y-58144493D01*
X63429000Y-58131410D01*
X63429000Y-57982547D01*
X63428639Y-57975831D01*
X63423709Y-57929970D01*
X63420112Y-57914749D01*
X63377881Y-57801523D01*
X63369331Y-57785865D01*
X63297582Y-57690020D01*
X63284979Y-57677417D01*
X63189134Y-57605668D01*
X63173476Y-57597118D01*
X63060250Y-57554887D01*
X63045029Y-57551290D01*
X62999168Y-57546360D01*
X62992453Y-57546000D01*
X62868590Y-57546000D01*
X62855506Y-57549506D01*
X62852000Y-57562590D01*
X62852000Y-58131410D01*
X62598000Y-58131410D01*
X62598000Y-57562590D01*
X62594493Y-57549506D01*
X62581410Y-57546000D01*
X62457547Y-57546000D01*
X62447455Y-57546541D01*
X62447406Y-57545641D01*
X62385410Y-57535529D01*
X62334211Y-57492498D01*
X62312246Y-57429326D01*
X62325705Y-57363813D01*
X62369886Y-57277103D01*
X62375937Y-57258478D01*
X62388225Y-57180897D01*
X62389000Y-57171054D01*
X62389000Y-57118590D01*
X62385493Y-57105506D01*
X62372410Y-57102000D01*
X61854000Y-57102000D01*
X61791000Y-57085119D01*
X61744881Y-57039000D01*
X61728000Y-56976000D01*
X61728000Y-56831410D01*
X61982000Y-56831410D01*
X61985506Y-56844493D01*
X61998590Y-56848000D01*
X62372409Y-56848000D01*
X62385492Y-56844493D01*
X62388999Y-56831410D01*
X62388999Y-56778949D01*
X62388224Y-56769100D01*
X62375938Y-56691527D01*
X62369883Y-56672892D01*
X62322226Y-56579358D01*
X62304887Y-56555494D01*
X62305902Y-56554755D01*
X62278683Y-56507611D01*
X62278683Y-56442389D01*
X62305902Y-56395244D01*
X62304887Y-56394506D01*
X62322226Y-56370641D01*
X62369886Y-56277103D01*
X62375937Y-56258478D01*
X62388225Y-56180897D01*
X62389000Y-56171054D01*
X62389000Y-56118590D01*
X62385493Y-56105506D01*
X62372410Y-56102000D01*
X61998590Y-56102000D01*
X61985506Y-56105506D01*
X61982000Y-56118590D01*
X61982000Y-56831410D01*
X61728000Y-56831410D01*
X61728000Y-55831410D01*
X61982000Y-55831410D01*
X61985506Y-55844493D01*
X61998590Y-55848000D01*
X62372409Y-55848000D01*
X62385492Y-55844493D01*
X62388999Y-55831410D01*
X62388999Y-55778949D01*
X62388224Y-55769100D01*
X62375938Y-55691527D01*
X62369883Y-55672892D01*
X62365826Y-55664928D01*
X62352107Y-55605850D01*
X62367578Y-55547207D01*
X62408655Y-55502585D01*
X62455416Y-55486011D01*
X62455016Y-55483999D01*
X62516930Y-55471684D01*
X62539426Y-55462366D01*
X62602808Y-55420016D01*
X62620016Y-55402808D01*
X62662367Y-55339425D01*
X62671684Y-55316933D01*
X62682792Y-55261085D01*
X62684000Y-55248830D01*
X62684000Y-54623590D01*
X62680493Y-54610506D01*
X62667410Y-54607000D01*
X62123590Y-54607000D01*
X62110506Y-54610506D01*
X62107000Y-54623590D01*
X62107000Y-55398268D01*
X62095194Y-55451520D01*
X62061987Y-55494793D01*
X62013603Y-55519977D01*
X62003576Y-55522663D01*
X61985732Y-55522661D01*
X61985733Y-55526655D01*
X61982000Y-55540587D01*
X61982000Y-55831410D01*
X61728000Y-55831410D01*
X61728000Y-55496732D01*
X61739804Y-55443484D01*
X61773006Y-55400213D01*
X61821383Y-55375027D01*
X61831409Y-55372340D01*
X61849266Y-55372339D01*
X61849267Y-55368340D01*
X61853000Y-55354410D01*
X61853000Y-54336410D01*
X62107000Y-54336410D01*
X62110506Y-54349493D01*
X62123590Y-54353000D01*
X62667409Y-54353000D01*
X62680492Y-54349493D01*
X62683999Y-54336410D01*
X62683999Y-53711172D01*
X62682791Y-53698912D01*
X62671684Y-53643069D01*
X62662366Y-53620573D01*
X62620016Y-53557191D01*
X62602808Y-53539983D01*
X62539425Y-53497632D01*
X62516933Y-53488315D01*
X62461085Y-53477207D01*
X62448830Y-53476000D01*
X62123590Y-53476000D01*
X62110506Y-53479506D01*
X62107000Y-53492590D01*
X62107000Y-54336410D01*
X61853000Y-54336410D01*
X61853000Y-53492591D01*
X61849493Y-53479507D01*
X61836410Y-53476001D01*
X61511172Y-53476001D01*
X61498912Y-53477208D01*
X61443069Y-53488315D01*
X61420571Y-53497633D01*
X61415448Y-53501057D01*
X61370027Y-53519870D01*
X61320864Y-53519868D01*
X61275445Y-53501053D01*
X61269621Y-53497161D01*
X61269618Y-53497159D01*
X61259301Y-53490266D01*
X61247131Y-53487845D01*
X61247128Y-53487844D01*
X61191135Y-53476707D01*
X61185067Y-53475500D01*
X61178880Y-53475500D01*
X60241122Y-53475500D01*
X60241111Y-53475500D01*
X60234934Y-53475501D01*
X60228868Y-53476707D01*
X60228862Y-53476708D01*
X60160699Y-53490266D01*
X60160510Y-53489320D01*
X60113651Y-53496272D01*
X60055999Y-53475645D01*
X60014878Y-53430275D01*
X60000000Y-53370879D01*
X60000000Y-52626000D01*
X60016881Y-52563000D01*
X60063000Y-52516881D01*
X60126000Y-52500000D01*
X62873500Y-52500000D01*
X62936500Y-52516881D01*
G37*
%TD.AperFunction*%
M02*
