%TF.GenerationSoftware,KiCad,Pcbnew,(6.0.10)*%
%TF.CreationDate,2023-01-09T17:37:14-08:00*%
%TF.ProjectId,ai-camera,61692d63-616d-4657-9261-2e6b69636164,rev?*%
%TF.SameCoordinates,PX5a995c0PY2aea540*%
%TF.FileFunction,Paste,Top*%
%TF.FilePolarity,Positive*%
%FSLAX46Y46*%
G04 Gerber Fmt 4.6, Leading zero omitted, Abs format (unit mm)*
G04 Created by KiCad (PCBNEW (6.0.10)) date 2023-01-09 17:37:14*
%MOMM*%
%LPD*%
G01*
G04 APERTURE LIST*
G04 Aperture macros list*
%AMRoundRect*
0 Rectangle with rounded corners*
0 $1 Rounding radius*
0 $2 $3 $4 $5 $6 $7 $8 $9 X,Y pos of 4 corners*
0 Add a 4 corners polygon primitive as box body*
4,1,4,$2,$3,$4,$5,$6,$7,$8,$9,$2,$3,0*
0 Add four circle primitives for the rounded corners*
1,1,$1+$1,$2,$3*
1,1,$1+$1,$4,$5*
1,1,$1+$1,$6,$7*
1,1,$1+$1,$8,$9*
0 Add four rect primitives between the rounded corners*
20,1,$1+$1,$2,$3,$4,$5,0*
20,1,$1+$1,$4,$5,$6,$7,0*
20,1,$1+$1,$6,$7,$8,$9,0*
20,1,$1+$1,$8,$9,$2,$3,0*%
G04 Aperture macros list end*
%ADD10RoundRect,0.250000X-1.500000X0.250000X-1.500000X-0.250000X1.500000X-0.250000X1.500000X0.250000X0*%
%ADD11RoundRect,0.250001X-1.449999X0.499999X-1.449999X-0.499999X1.449999X-0.499999X1.449999X0.499999X0*%
%ADD12RoundRect,0.135000X-0.185000X0.135000X-0.185000X-0.135000X0.185000X-0.135000X0.185000X0.135000X0*%
%ADD13R,1.000000X1.700000*%
%ADD14RoundRect,0.250000X0.450000X-0.325000X0.450000X0.325000X-0.450000X0.325000X-0.450000X-0.325000X0*%
%ADD15RoundRect,0.140000X0.140000X0.170000X-0.140000X0.170000X-0.140000X-0.170000X0.140000X-0.170000X0*%
%ADD16RoundRect,0.218750X0.218750X0.256250X-0.218750X0.256250X-0.218750X-0.256250X0.218750X-0.256250X0*%
%ADD17RoundRect,0.135000X-0.135000X-0.185000X0.135000X-0.185000X0.135000X0.185000X-0.135000X0.185000X0*%
%ADD18RoundRect,0.218750X-0.218750X-0.256250X0.218750X-0.256250X0.218750X0.256250X-0.218750X0.256250X0*%
%ADD19RoundRect,0.140000X-0.140000X-0.170000X0.140000X-0.170000X0.140000X0.170000X-0.140000X0.170000X0*%
%ADD20RoundRect,0.075000X0.512500X0.075000X-0.512500X0.075000X-0.512500X-0.075000X0.512500X-0.075000X0*%
%ADD21RoundRect,0.150000X0.150000X-0.512500X0.150000X0.512500X-0.150000X0.512500X-0.150000X-0.512500X0*%
%ADD22RoundRect,0.140000X-0.170000X0.140000X-0.170000X-0.140000X0.170000X-0.140000X0.170000X0.140000X0*%
%ADD23R,0.300000X1.300000*%
%ADD24R,1.800000X2.200000*%
%ADD25RoundRect,0.135000X0.185000X-0.135000X0.185000X0.135000X-0.185000X0.135000X-0.185000X-0.135000X0*%
%ADD26O,0.950000X1.250000*%
%ADD27O,1.550000X0.890000*%
%ADD28R,1.350000X0.400000*%
%ADD29R,1.550000X1.500000*%
%ADD30R,1.550000X1.200000*%
%ADD31RoundRect,0.135000X0.135000X0.185000X-0.135000X0.185000X-0.135000X-0.185000X0.135000X-0.185000X0*%
%ADD32RoundRect,0.150000X0.587500X0.150000X-0.587500X0.150000X-0.587500X-0.150000X0.587500X-0.150000X0*%
G04 APERTURE END LIST*
D10*
X16850000Y-51000000D03*
X16850000Y-53000000D03*
D11*
X11100000Y-55350000D03*
X11100000Y-48650000D03*
D12*
X25675000Y-47865000D03*
X25675000Y-48885000D03*
D13*
X63100000Y-25150000D03*
X63100000Y-18850000D03*
X66900000Y-18850000D03*
X66900000Y-25150000D03*
D14*
X6350000Y-36475000D03*
X6350000Y-34425000D03*
D15*
X37430000Y-63525000D03*
X36470000Y-63525000D03*
D16*
X45787500Y-45000000D03*
X44212500Y-45000000D03*
D17*
X46570000Y-37100000D03*
X47590000Y-37100000D03*
D18*
X8437500Y-46000000D03*
X10012500Y-46000000D03*
X16712500Y-37500000D03*
X18287500Y-37500000D03*
X51712500Y-37500000D03*
X53287500Y-37500000D03*
D19*
X43330000Y-37100000D03*
X44290000Y-37100000D03*
D18*
X19212500Y-2500000D03*
X20787500Y-2500000D03*
D20*
X51967500Y-13500000D03*
X51967500Y-12850000D03*
X51967500Y-12200000D03*
X50392500Y-12200000D03*
X50392500Y-12850000D03*
X50392500Y-13500000D03*
D16*
X20787500Y-40000000D03*
X19212500Y-40000000D03*
D18*
X11487500Y-46000000D03*
X13062500Y-46000000D03*
D15*
X52360000Y-11050000D03*
X51400000Y-11050000D03*
D21*
X6150000Y-40587500D03*
X7100000Y-40587500D03*
X8050000Y-40587500D03*
X8050000Y-38312500D03*
X7100000Y-38312500D03*
X6150000Y-38312500D03*
D22*
X17200000Y-67300000D03*
X17200000Y-68260000D03*
D23*
X40750000Y-61850000D03*
X40250000Y-61850000D03*
X39750000Y-61850000D03*
X39250000Y-61850000D03*
X38750000Y-61850000D03*
X38250000Y-61850000D03*
X37750000Y-61850000D03*
X37250000Y-61850000D03*
X36750000Y-61850000D03*
X36250000Y-61850000D03*
X35750000Y-61850000D03*
X35250000Y-61850000D03*
X34750000Y-61850000D03*
X34250000Y-61850000D03*
X33750000Y-61850000D03*
X33250000Y-61850000D03*
X32750000Y-61850000D03*
X32250000Y-61850000D03*
X31750000Y-61850000D03*
X31250000Y-61850000D03*
X30750000Y-61850000D03*
X30250000Y-61850000D03*
X29750000Y-61850000D03*
X29250000Y-61850000D03*
D24*
X42650000Y-58600000D03*
X27350000Y-58600000D03*
D18*
X49212500Y-2500000D03*
X50787500Y-2500000D03*
D25*
X16200000Y-68310000D03*
X16200000Y-67290000D03*
D18*
X51712500Y-5000000D03*
X53287500Y-5000000D03*
D13*
X63100000Y-9850000D03*
X63100000Y-16150000D03*
X66900000Y-16150000D03*
X66900000Y-9850000D03*
D26*
X4150000Y-37250000D03*
D27*
X1450000Y-36250000D03*
D26*
X4150000Y-42250000D03*
D27*
X1450000Y-43250000D03*
D28*
X4150000Y-38450000D03*
X4150000Y-39100000D03*
X4150000Y-39750000D03*
X4150000Y-40400000D03*
X4150000Y-41050000D03*
D29*
X1450000Y-38750000D03*
D30*
X1450000Y-42650000D03*
D29*
X1450000Y-40750000D03*
D30*
X1450000Y-36850000D03*
D18*
X16712500Y-5000000D03*
X18287500Y-5000000D03*
D31*
X44960000Y-43675000D03*
X43940000Y-43675000D03*
D16*
X50787500Y-40000000D03*
X49212500Y-40000000D03*
D32*
X24150000Y-52025000D03*
X24150000Y-50125000D03*
X22275000Y-51075000D03*
D12*
X25700000Y-51340000D03*
X25700000Y-52360000D03*
D32*
X24137500Y-48550000D03*
X24137500Y-46650000D03*
X22262500Y-47600000D03*
D25*
X59380000Y-53240000D03*
X59380000Y-52220000D03*
M02*
