%TF.GenerationSoftware,KiCad,Pcbnew,(7.0.0-93-gc189053ee5-dirty)*%
%TF.CreationDate,2023-02-21T15:15:17-08:00*%
%TF.ProjectId,ai-camera,61692d63-616d-4657-9261-2e6b69636164,rev1*%
%TF.SameCoordinates,PX5a995c0PY2aea540*%
%TF.FileFunction,Soldermask,Bot*%
%TF.FilePolarity,Negative*%
%FSLAX46Y46*%
G04 Gerber Fmt 4.6, Leading zero omitted, Abs format (unit mm)*
G04 Created by KiCad (PCBNEW (7.0.0-93-gc189053ee5-dirty)) date 2023-02-21 15:15:17*
%MOMM*%
%LPD*%
G01*
G04 APERTURE LIST*
G04 Aperture macros list*
%AMRoundRect*
0 Rectangle with rounded corners*
0 $1 Rounding radius*
0 $2 $3 $4 $5 $6 $7 $8 $9 X,Y pos of 4 corners*
0 Add a 4 corners polygon primitive as box body*
4,1,4,$2,$3,$4,$5,$6,$7,$8,$9,$2,$3,0*
0 Add four circle primitives for the rounded corners*
1,1,$1+$1,$2,$3*
1,1,$1+$1,$4,$5*
1,1,$1+$1,$6,$7*
1,1,$1+$1,$8,$9*
0 Add four rect primitives between the rounded corners*
20,1,$1+$1,$2,$3,$4,$5,0*
20,1,$1+$1,$4,$5,$6,$7,0*
20,1,$1+$1,$6,$7,$8,$9,0*
20,1,$1+$1,$8,$9,$2,$3,0*%
%AMRotRect*
0 Rectangle, with rotation*
0 The origin of the aperture is its center*
0 $1 length*
0 $2 width*
0 $3 Rotation angle, in degrees counterclockwise*
0 Add horizontal line*
21,1,$1,$2,0,0,$3*%
%AMFreePoly0*
4,1,19,0.500000,-0.750000,0.000000,-0.750000,0.000000,-0.744911,-0.071157,-0.744911,-0.207708,-0.704816,-0.327430,-0.627875,-0.420627,-0.520320,-0.479746,-0.390866,-0.500000,-0.250000,-0.500000,0.250000,-0.479746,0.390866,-0.420627,0.520320,-0.327430,0.627875,-0.207708,0.704816,-0.071157,0.744911,0.000000,0.744911,0.000000,0.750000,0.500000,0.750000,0.500000,-0.750000,0.500000,-0.750000,
$1*%
%AMFreePoly1*
4,1,19,0.000000,0.744911,0.071157,0.744911,0.207708,0.704816,0.327430,0.627875,0.420627,0.520320,0.479746,0.390866,0.500000,0.250000,0.500000,-0.250000,0.479746,-0.390866,0.420627,-0.520320,0.327430,-0.627875,0.207708,-0.704816,0.071157,-0.744911,0.000000,-0.744911,0.000000,-0.750000,-0.500000,-0.750000,-0.500000,0.750000,0.000000,0.750000,0.000000,0.744911,0.000000,0.744911,
$1*%
G04 Aperture macros list end*
%ADD10C,0.650000*%
%ADD11O,2.100000X1.000000*%
%ADD12O,1.600000X1.000000*%
%ADD13C,3.600000*%
%ADD14C,5.600000*%
%ADD15C,4.000000*%
%ADD16C,1.700000*%
%ADD17C,0.800000*%
%ADD18RotRect,1.524000X1.524000X45.000000*%
%ADD19C,1.524000*%
%ADD20R,1.700000X1.700000*%
%ADD21O,1.700000X1.700000*%
%ADD22C,0.990600*%
%ADD23RoundRect,0.150000X-0.587500X-0.150000X0.587500X-0.150000X0.587500X0.150000X-0.587500X0.150000X0*%
%ADD24RoundRect,0.250000X0.412500X0.925000X-0.412500X0.925000X-0.412500X-0.925000X0.412500X-0.925000X0*%
%ADD25C,1.500000*%
%ADD26RoundRect,0.135000X0.135000X0.185000X-0.135000X0.185000X-0.135000X-0.185000X0.135000X-0.185000X0*%
%ADD27RoundRect,0.140000X0.170000X-0.140000X0.170000X0.140000X-0.170000X0.140000X-0.170000X-0.140000X0*%
%ADD28R,0.900000X1.500000*%
%ADD29R,1.500000X0.900000*%
%ADD30C,0.600000*%
%ADD31R,3.900000X3.900000*%
%ADD32RoundRect,0.140000X-0.170000X0.140000X-0.170000X-0.140000X0.170000X-0.140000X0.170000X0.140000X0*%
%ADD33RoundRect,0.225000X-0.250000X0.225000X-0.250000X-0.225000X0.250000X-0.225000X0.250000X0.225000X0*%
%ADD34RoundRect,0.135000X-0.135000X-0.185000X0.135000X-0.185000X0.135000X0.185000X-0.135000X0.185000X0*%
%ADD35RoundRect,0.140000X-0.140000X-0.170000X0.140000X-0.170000X0.140000X0.170000X-0.140000X0.170000X0*%
%ADD36RoundRect,0.150000X0.587500X0.150000X-0.587500X0.150000X-0.587500X-0.150000X0.587500X-0.150000X0*%
%ADD37RoundRect,0.140000X0.140000X0.170000X-0.140000X0.170000X-0.140000X-0.170000X0.140000X-0.170000X0*%
%ADD38RoundRect,0.150000X-0.150000X0.587500X-0.150000X-0.587500X0.150000X-0.587500X0.150000X0.587500X0*%
%ADD39RoundRect,0.225000X0.250000X-0.225000X0.250000X0.225000X-0.250000X0.225000X-0.250000X-0.225000X0*%
%ADD40RoundRect,0.135000X0.185000X-0.135000X0.185000X0.135000X-0.185000X0.135000X-0.185000X-0.135000X0*%
%ADD41FreePoly0,0.000000*%
%ADD42FreePoly1,0.000000*%
%ADD43RoundRect,0.150000X0.512500X0.150000X-0.512500X0.150000X-0.512500X-0.150000X0.512500X-0.150000X0*%
%ADD44RoundRect,0.135000X-0.185000X0.135000X-0.185000X-0.135000X0.185000X-0.135000X0.185000X0.135000X0*%
%ADD45RoundRect,0.225000X-0.225000X-0.250000X0.225000X-0.250000X0.225000X0.250000X-0.225000X0.250000X0*%
%ADD46RoundRect,0.150000X0.150000X-0.512500X0.150000X0.512500X-0.150000X0.512500X-0.150000X-0.512500X0*%
%ADD47RoundRect,0.250000X0.450000X-0.325000X0.450000X0.325000X-0.450000X0.325000X-0.450000X-0.325000X0*%
G04 APERTURE END LIST*
D10*
X5100000Y-36610000D03*
X5100000Y-42390000D03*
D11*
X5629999Y-35179999D03*
D12*
X1449999Y-35179999D03*
D11*
X5629999Y-43819999D03*
D12*
X1449999Y-43819999D03*
D13*
X5000000Y-65000000D03*
D14*
X5000000Y-65000000D03*
D13*
X5000000Y-5000000D03*
D14*
X5000000Y-5000000D03*
D15*
X24000000Y-22000000D03*
X46000000Y-22000000D03*
D16*
X44600000Y-7000000D03*
X37400000Y-7000000D03*
X43250000Y-4500000D03*
X38750000Y-4500000D03*
X32600000Y-7000000D03*
X25400000Y-7000000D03*
X31250000Y-4500000D03*
X26750000Y-4500000D03*
D17*
X21500000Y-16625000D03*
X21500000Y-15375000D03*
D18*
X8459999Y-13499999D03*
D19*
X11000000Y-16040000D03*
X13540000Y-13500000D03*
D13*
X65000000Y-5000000D03*
D14*
X65000000Y-5000000D03*
D20*
X56724999Y-10574999D03*
D21*
X59264999Y-10574999D03*
X56724999Y-13114999D03*
X59264999Y-13114999D03*
X56724999Y-15654999D03*
X59264999Y-15654999D03*
X56724999Y-18194999D03*
X59264999Y-18194999D03*
X56724999Y-20734999D03*
X59264999Y-20734999D03*
X56724999Y-23274999D03*
X59264999Y-23274999D03*
X56724999Y-25814999D03*
X59264999Y-25814999D03*
X56724999Y-28354999D03*
X59264999Y-28354999D03*
X56724999Y-30894999D03*
X59264999Y-30894999D03*
X56724999Y-33434999D03*
X59264999Y-33434999D03*
D13*
X65000000Y-65000000D03*
D14*
X65000000Y-65000000D03*
D22*
X51190000Y-5635000D03*
X58810000Y-4619000D03*
X58810000Y-6651000D03*
D23*
X20302500Y-13810000D03*
X20302500Y-11910000D03*
X22177500Y-12860000D03*
D24*
X59375000Y-62637500D03*
X56300000Y-62637500D03*
D25*
X25750000Y-31750000D03*
D26*
X15430000Y-28870000D03*
X14410000Y-28870000D03*
D25*
X9500000Y-53000000D03*
D27*
X60760000Y-35390000D03*
X60760000Y-34430000D03*
D28*
X61979999Y-54479999D03*
X60709999Y-54479999D03*
X59439999Y-54479999D03*
X58169999Y-54479999D03*
X56899999Y-54479999D03*
X55629999Y-54479999D03*
X54359999Y-54479999D03*
X53089999Y-54479999D03*
X51819999Y-54479999D03*
X50549999Y-54479999D03*
X49279999Y-54479999D03*
X48009999Y-54479999D03*
X46739999Y-54479999D03*
X45469999Y-54479999D03*
D29*
X44219999Y-52714999D03*
X44219999Y-51444999D03*
X44219999Y-50174999D03*
X44219999Y-48904999D03*
X44219999Y-47634999D03*
X44219999Y-46364999D03*
X44219999Y-45094999D03*
X44219999Y-43824999D03*
X44219999Y-42554999D03*
X44219999Y-41284999D03*
X44219999Y-40014999D03*
X44219999Y-38744999D03*
D28*
X45469999Y-36979999D03*
X46739999Y-36979999D03*
X48009999Y-36979999D03*
X49279999Y-36979999D03*
X50549999Y-36979999D03*
X51819999Y-36979999D03*
X53089999Y-36979999D03*
X54359999Y-36979999D03*
X55629999Y-36979999D03*
X56899999Y-36979999D03*
X58169999Y-36979999D03*
X59439999Y-36979999D03*
X60709999Y-36979999D03*
X61979999Y-36979999D03*
D30*
X53560000Y-48630000D03*
X54960000Y-48630000D03*
X52860000Y-47930000D03*
X54260000Y-47930000D03*
X55660000Y-47930000D03*
X53560000Y-47230000D03*
D31*
X54259999Y-47229999D03*
D30*
X54960000Y-47230000D03*
X52860000Y-46530000D03*
X54260000Y-46530000D03*
X55660000Y-46530000D03*
X53560000Y-45830000D03*
X54960000Y-45830000D03*
D25*
X25750000Y-39250000D03*
D32*
X20325000Y-24965000D03*
X20325000Y-25925000D03*
D33*
X17685000Y-17950000D03*
X17685000Y-19500000D03*
D27*
X37236400Y-42418000D03*
X37236400Y-41458000D03*
D25*
X39000000Y-39250000D03*
D34*
X17135000Y-25045000D03*
X18155000Y-25045000D03*
D25*
X50500000Y-20500000D03*
D33*
X10030000Y-18165000D03*
X10030000Y-19715000D03*
X20375000Y-17925000D03*
X20375000Y-19475000D03*
D35*
X60895000Y-56975000D03*
X61855000Y-56975000D03*
D36*
X15837500Y-39210000D03*
X15837500Y-41110000D03*
X13962500Y-40160000D03*
D37*
X6650000Y-13440000D03*
X5690000Y-13440000D03*
D33*
X29413200Y-44646900D03*
X29413200Y-46196900D03*
D32*
X8500000Y-10450000D03*
X8500000Y-11410000D03*
D24*
X59387500Y-66050000D03*
X56312500Y-66050000D03*
D25*
X16000000Y-6500000D03*
D38*
X30990200Y-44934900D03*
X32890200Y-44934900D03*
X31940200Y-46809900D03*
D25*
X48250000Y-6750000D03*
X63750000Y-11500000D03*
D37*
X46300000Y-35440000D03*
X45340000Y-35440000D03*
D39*
X20726400Y-46173800D03*
X20726400Y-44623800D03*
D40*
X13730000Y-9470000D03*
X13730000Y-8450000D03*
D34*
X19740000Y-10570000D03*
X20760000Y-10570000D03*
D32*
X19015000Y-18795000D03*
X19015000Y-19755000D03*
D23*
X6342500Y-20130000D03*
X6342500Y-18230000D03*
X8217500Y-19180000D03*
D35*
X60895000Y-55975000D03*
X61855000Y-55975000D03*
D25*
X9500000Y-49750000D03*
D41*
X16860000Y-13310000D03*
D42*
X18160000Y-13310000D03*
D36*
X6087500Y-14760000D03*
X6087500Y-16660000D03*
X4212500Y-15710000D03*
D43*
X12247500Y-9200000D03*
X12247500Y-10150000D03*
X12247500Y-11100000D03*
X9972500Y-11100000D03*
X9972500Y-10150000D03*
X9972500Y-9200000D03*
D44*
X13730000Y-10400000D03*
X13730000Y-11420000D03*
D25*
X64750000Y-32500000D03*
D33*
X24282400Y-44623800D03*
X24282400Y-46173800D03*
D25*
X36250000Y-18750000D03*
X18000000Y-31750000D03*
D34*
X17310000Y-36460000D03*
X18330000Y-36460000D03*
X3680000Y-13430000D03*
X4700000Y-13430000D03*
D26*
X18330000Y-35450000D03*
X17310000Y-35450000D03*
D45*
X61175000Y-59825000D03*
X62725000Y-59825000D03*
X30911200Y-48666400D03*
X32461200Y-48666400D03*
D25*
X63750000Y-15250000D03*
D33*
X4540000Y-18225000D03*
X4540000Y-19775000D03*
D32*
X54102000Y-34346000D03*
X54102000Y-35306000D03*
D45*
X61175000Y-58275000D03*
X62725000Y-58275000D03*
X25939200Y-48675400D03*
X27489200Y-48675400D03*
D25*
X38750000Y-21500000D03*
X29000000Y-25250000D03*
D32*
X19305000Y-24975000D03*
X19305000Y-25935000D03*
D24*
X59362500Y-59250000D03*
X56287500Y-59250000D03*
D46*
X20020000Y-23527500D03*
X19070000Y-23527500D03*
X18120000Y-23527500D03*
X18120000Y-21252500D03*
X19070000Y-21252500D03*
X20020000Y-21252500D03*
D47*
X22504400Y-46795800D03*
X22504400Y-44745800D03*
D25*
X63750000Y-18750000D03*
X25750000Y-41750000D03*
X20750000Y-31750000D03*
D33*
X34512200Y-44637900D03*
X34512200Y-46187900D03*
D25*
X48250000Y-9750000D03*
D26*
X24740000Y-15150000D03*
X23720000Y-15150000D03*
D25*
X39000000Y-44750000D03*
D33*
X17680000Y-39185000D03*
X17680000Y-40735000D03*
X36068000Y-44640200D03*
X36068000Y-46190200D03*
D38*
X25923200Y-44934900D03*
X27823200Y-44934900D03*
X26873200Y-46809900D03*
D23*
X24272500Y-13800000D03*
X24272500Y-11900000D03*
X26147500Y-12850000D03*
D25*
X48250000Y-13000000D03*
X21000000Y-39250000D03*
X38750000Y-25250000D03*
D34*
X14410000Y-29880000D03*
X15430000Y-29880000D03*
D25*
X32000000Y-42500000D03*
D36*
X15837500Y-35700000D03*
X15837500Y-37600000D03*
X13962500Y-36650000D03*
M02*
