%TF.GenerationSoftware,KiCad,Pcbnew,(6.0.10)*%
%TF.CreationDate,2023-01-06T19:14:31-08:00*%
%TF.ProjectId,ai-camera,61692d63-616d-4657-9261-2e6b69636164,rev?*%
%TF.SameCoordinates,PX5f5e100PY2faf080*%
%TF.FileFunction,Copper,L1,Top*%
%TF.FilePolarity,Positive*%
%FSLAX46Y46*%
G04 Gerber Fmt 4.6, Leading zero omitted, Abs format (unit mm)*
G04 Created by KiCad (PCBNEW (6.0.10)) date 2023-01-06 19:14:31*
%MOMM*%
%LPD*%
G01*
G04 APERTURE LIST*
G04 Aperture macros list*
%AMRoundRect*
0 Rectangle with rounded corners*
0 $1 Rounding radius*
0 $2 $3 $4 $5 $6 $7 $8 $9 X,Y pos of 4 corners*
0 Add a 4 corners polygon primitive as box body*
4,1,4,$2,$3,$4,$5,$6,$7,$8,$9,$2,$3,0*
0 Add four circle primitives for the rounded corners*
1,1,$1+$1,$2,$3*
1,1,$1+$1,$4,$5*
1,1,$1+$1,$6,$7*
1,1,$1+$1,$8,$9*
0 Add four rect primitives between the rounded corners*
20,1,$1+$1,$2,$3,$4,$5,0*
20,1,$1+$1,$4,$5,$6,$7,0*
20,1,$1+$1,$6,$7,$8,$9,0*
20,1,$1+$1,$8,$9,$2,$3,0*%
G04 Aperture macros list end*
%TA.AperFunction,ConnectorPad*%
%ADD10C,5.600000*%
%TD*%
%TA.AperFunction,ComponentPad*%
%ADD11C,3.600000*%
%TD*%
%TA.AperFunction,SMDPad,CuDef*%
%ADD12C,1.500000*%
%TD*%
%TA.AperFunction,WasherPad*%
%ADD13C,4.000000*%
%TD*%
%TA.AperFunction,SMDPad,CuDef*%
%ADD14RoundRect,0.135000X-0.185000X0.135000X-0.185000X-0.135000X0.185000X-0.135000X0.185000X0.135000X0*%
%TD*%
%TA.AperFunction,SMDPad,CuDef*%
%ADD15R,1.000000X1.700000*%
%TD*%
%TA.AperFunction,SMDPad,CuDef*%
%ADD16RoundRect,0.250000X0.450000X-0.325000X0.450000X0.325000X-0.450000X0.325000X-0.450000X-0.325000X0*%
%TD*%
%TA.AperFunction,SMDPad,CuDef*%
%ADD17RoundRect,0.140000X0.140000X0.170000X-0.140000X0.170000X-0.140000X-0.170000X0.140000X-0.170000X0*%
%TD*%
%TA.AperFunction,SMDPad,CuDef*%
%ADD18RoundRect,0.218750X0.218750X0.256250X-0.218750X0.256250X-0.218750X-0.256250X0.218750X-0.256250X0*%
%TD*%
%TA.AperFunction,SMDPad,CuDef*%
%ADD19RoundRect,0.135000X-0.135000X-0.185000X0.135000X-0.185000X0.135000X0.185000X-0.135000X0.185000X0*%
%TD*%
%TA.AperFunction,SMDPad,CuDef*%
%ADD20RoundRect,0.218750X-0.218750X-0.256250X0.218750X-0.256250X0.218750X0.256250X-0.218750X0.256250X0*%
%TD*%
%TA.AperFunction,WasherPad*%
%ADD21C,1.700000*%
%TD*%
%TA.AperFunction,ComponentPad*%
%ADD22C,1.700000*%
%TD*%
%TA.AperFunction,ComponentPad*%
%ADD23RoundRect,0.250000X-0.625000X0.350000X-0.625000X-0.350000X0.625000X-0.350000X0.625000X0.350000X0*%
%TD*%
%TA.AperFunction,ComponentPad*%
%ADD24O,1.750000X1.200000*%
%TD*%
%TA.AperFunction,SMDPad,CuDef*%
%ADD25RoundRect,0.140000X-0.140000X-0.170000X0.140000X-0.170000X0.140000X0.170000X-0.140000X0.170000X0*%
%TD*%
%TA.AperFunction,SMDPad,CuDef*%
%ADD26RoundRect,0.075000X0.512500X0.075000X-0.512500X0.075000X-0.512500X-0.075000X0.512500X-0.075000X0*%
%TD*%
%TA.AperFunction,SMDPad,CuDef*%
%ADD27RoundRect,0.150000X0.150000X-0.512500X0.150000X0.512500X-0.150000X0.512500X-0.150000X-0.512500X0*%
%TD*%
%TA.AperFunction,SMDPad,CuDef*%
%ADD28RoundRect,0.140000X-0.170000X0.140000X-0.170000X-0.140000X0.170000X-0.140000X0.170000X0.140000X0*%
%TD*%
%TA.AperFunction,ComponentPad*%
%ADD29C,1.440000*%
%TD*%
%TA.AperFunction,SMDPad,CuDef*%
%ADD30R,0.300000X1.300000*%
%TD*%
%TA.AperFunction,SMDPad,CuDef*%
%ADD31R,1.800000X2.200000*%
%TD*%
%TA.AperFunction,SMDPad,CuDef*%
%ADD32RoundRect,0.135000X0.185000X-0.135000X0.185000X0.135000X-0.185000X0.135000X-0.185000X-0.135000X0*%
%TD*%
%TA.AperFunction,ComponentPad*%
%ADD33C,0.800000*%
%TD*%
%TA.AperFunction,SMDPad,CuDef*%
%ADD34R,1.350000X0.400000*%
%TD*%
%TA.AperFunction,SMDPad,CuDef*%
%ADD35R,1.550000X1.500000*%
%TD*%
%TA.AperFunction,SMDPad,CuDef*%
%ADD36R,1.550000X1.200000*%
%TD*%
%TA.AperFunction,ComponentPad*%
%ADD37O,1.550000X0.890000*%
%TD*%
%TA.AperFunction,ComponentPad*%
%ADD38O,0.950000X1.250000*%
%TD*%
%TA.AperFunction,ComponentPad*%
%ADD39R,1.700000X1.700000*%
%TD*%
%TA.AperFunction,ComponentPad*%
%ADD40O,1.700000X1.700000*%
%TD*%
%TA.AperFunction,SMDPad,CuDef*%
%ADD41RoundRect,0.135000X0.135000X0.185000X-0.135000X0.185000X-0.135000X-0.185000X0.135000X-0.185000X0*%
%TD*%
%TA.AperFunction,SMDPad,CuDef*%
%ADD42RoundRect,0.150000X0.587500X0.150000X-0.587500X0.150000X-0.587500X-0.150000X0.587500X-0.150000X0*%
%TD*%
%TA.AperFunction,ComponentPad*%
%ADD43R,1.524000X1.524000*%
%TD*%
%TA.AperFunction,ComponentPad*%
%ADD44C,1.524000*%
%TD*%
%TA.AperFunction,ConnectorPad*%
%ADD45C,0.787400*%
%TD*%
%TA.AperFunction,ComponentPad*%
%ADD46C,0.600000*%
%TD*%
%TA.AperFunction,ViaPad*%
%ADD47C,0.600000*%
%TD*%
%TA.AperFunction,Conductor*%
%ADD48C,0.127000*%
%TD*%
%TA.AperFunction,Conductor*%
%ADD49C,0.500000*%
%TD*%
%TA.AperFunction,Conductor*%
%ADD50C,0.203200*%
%TD*%
%TA.AperFunction,Conductor*%
%ADD51C,0.250000*%
%TD*%
%TA.AperFunction,Conductor*%
%ADD52C,0.200000*%
%TD*%
G04 APERTURE END LIST*
D10*
X0Y-60000000D03*
D11*
X0Y-60000000D03*
D10*
X0Y0D03*
D11*
X0Y0D03*
D12*
X42750000Y-29775000D03*
D13*
X19000000Y-17000000D03*
X41000000Y-17000000D03*
D12*
X46736000Y-10668000D03*
D14*
X20675000Y-42865000D03*
X20675000Y-43885000D03*
D15*
X58100000Y-20150000D03*
X58100000Y-13850000D03*
X61900000Y-13850000D03*
X61900000Y-20150000D03*
D16*
X1350000Y-31475000D03*
X1350000Y-29425000D03*
D17*
X32430000Y-58525000D03*
X31470000Y-58525000D03*
D18*
X40787500Y-40000000D03*
X39212500Y-40000000D03*
D19*
X41570000Y-32100000D03*
X42590000Y-32100000D03*
D20*
X3437500Y-42250000D03*
X5012500Y-42250000D03*
D12*
X7230000Y-38670000D03*
X17350000Y-6950000D03*
D20*
X11712500Y-32500000D03*
X13287500Y-32500000D03*
D12*
X47100000Y-24250000D03*
X15670000Y-50980000D03*
X42825000Y-26225000D03*
X6200000Y-61290000D03*
X5250000Y-29840000D03*
D21*
X21400000Y-2500000D03*
X28600000Y-2500000D03*
D22*
X27250000Y0D03*
X22750000Y0D03*
D12*
X9025000Y-61275000D03*
D20*
X46712500Y-32500000D03*
X48287500Y-32500000D03*
D12*
X46975000Y-28550000D03*
D23*
X9450000Y-47000000D03*
D24*
X9450000Y-49000000D03*
D25*
X38330000Y-32100000D03*
X39290000Y-32100000D03*
D20*
X14212500Y2500000D03*
X15787500Y2500000D03*
D26*
X46967500Y-8500000D03*
X46967500Y-7850000D03*
X46967500Y-7200000D03*
X45392500Y-7200000D03*
X45392500Y-7850000D03*
X45392500Y-8500000D03*
D18*
X15787500Y-35000000D03*
X14212500Y-35000000D03*
D20*
X6487500Y-42250000D03*
X8062500Y-42250000D03*
D12*
X16500000Y-56350000D03*
D17*
X47360000Y-6050000D03*
X46400000Y-6050000D03*
D27*
X1150000Y-35587500D03*
X2100000Y-35587500D03*
X3050000Y-35587500D03*
X3050000Y-33312500D03*
X2100000Y-33312500D03*
X1150000Y-33312500D03*
D28*
X12200000Y-62300000D03*
X12200000Y-63260000D03*
D29*
X9925000Y-17475000D03*
X7385000Y-20015000D03*
X9925000Y-22555000D03*
D30*
X35750000Y-56850000D03*
X35250000Y-56850000D03*
X34750000Y-56850000D03*
X34250000Y-56850000D03*
X33750000Y-56850000D03*
X33250000Y-56850000D03*
X32750000Y-56850000D03*
X32250000Y-56850000D03*
X31750000Y-56850000D03*
X31250000Y-56850000D03*
X30750000Y-56850000D03*
X30250000Y-56850000D03*
X29750000Y-56850000D03*
X29250000Y-56850000D03*
X28750000Y-56850000D03*
X28250000Y-56850000D03*
X27750000Y-56850000D03*
X27250000Y-56850000D03*
X26750000Y-56850000D03*
X26250000Y-56850000D03*
X25750000Y-56850000D03*
X25250000Y-56850000D03*
X24750000Y-56850000D03*
X24250000Y-56850000D03*
D31*
X37650000Y-53600000D03*
X22350000Y-53600000D03*
D12*
X48910000Y-37900000D03*
X4600000Y-38680000D03*
X19550000Y-56350000D03*
X8275000Y-32300000D03*
X17210000Y-59110000D03*
D20*
X44212500Y2500000D03*
X45787500Y2500000D03*
D12*
X19290000Y-50970000D03*
X52720000Y-1440000D03*
X36340000Y-34850000D03*
D32*
X11200000Y-63310000D03*
X11200000Y-62290000D03*
D12*
X42150000Y-36075000D03*
X47350000Y-14925000D03*
X-580000Y-26130000D03*
D20*
X46712500Y0D03*
X48287500Y0D03*
D21*
X39600000Y-2500000D03*
X32400000Y-2500000D03*
D22*
X38250000Y0D03*
X33750000Y0D03*
D15*
X58100000Y-4850000D03*
X58100000Y-11150000D03*
X61900000Y-11150000D03*
X61900000Y-4850000D03*
D12*
X47025000Y-19825000D03*
D33*
X10375000Y-29500000D03*
X11625000Y-29500000D03*
D34*
X-850000Y-33450000D03*
X-850000Y-34100000D03*
X-850000Y-34750000D03*
X-850000Y-35400000D03*
X-850000Y-36050000D03*
D35*
X-3550000Y-33750000D03*
D36*
X-3550000Y-37650000D03*
D35*
X-3550000Y-35750000D03*
D37*
X-3550000Y-31250000D03*
D38*
X-850000Y-37250000D03*
D36*
X-3550000Y-31850000D03*
D38*
X-850000Y-32250000D03*
D37*
X-3550000Y-38250000D03*
D12*
X60840000Y-26810000D03*
D20*
X11712500Y0D03*
X13287500Y0D03*
D29*
X1925000Y-17475000D03*
X-615000Y-20015000D03*
X1925000Y-22555000D03*
D11*
X60000000Y0D03*
D10*
X60000000Y0D03*
D39*
X51725000Y-5575000D03*
D40*
X54265000Y-5575000D03*
X51725000Y-8115000D03*
X54265000Y-8115000D03*
X51725000Y-10655000D03*
X54265000Y-10655000D03*
X51725000Y-13195000D03*
X54265000Y-13195000D03*
X51725000Y-15735000D03*
X54265000Y-15735000D03*
X51725000Y-18275000D03*
X54265000Y-18275000D03*
X51725000Y-20815000D03*
X54265000Y-20815000D03*
X51725000Y-23355000D03*
X54265000Y-23355000D03*
X51725000Y-25895000D03*
X54265000Y-25895000D03*
X51725000Y-28435000D03*
X54265000Y-28435000D03*
D41*
X39960000Y-38675000D03*
X38940000Y-38675000D03*
D12*
X17340000Y-10630000D03*
D18*
X45787500Y-35000000D03*
X44212500Y-35000000D03*
D42*
X19150000Y-47025000D03*
X19150000Y-45125000D03*
X17275000Y-46075000D03*
D12*
X45120000Y-41470000D03*
D11*
X60000000Y-60000000D03*
D10*
X60000000Y-60000000D03*
D14*
X20700000Y-46340000D03*
X20700000Y-47360000D03*
D42*
X19137500Y-43550000D03*
X19137500Y-41650000D03*
X17262500Y-42600000D03*
D12*
X51940000Y-37960000D03*
D32*
X54380000Y-48240000D03*
X54380000Y-47220000D03*
D12*
X16150000Y-2250000D03*
D43*
X6123152Y-11691848D03*
D44*
X7700000Y-10115000D03*
X7700000Y-7885000D03*
X3876848Y-6308152D03*
X2300000Y-7885000D03*
X2300000Y-10115000D03*
D12*
X12370000Y-6550000D03*
D45*
X4460000Y-55635000D03*
X5730000Y-55635000D03*
X7000000Y-55635000D03*
X8270000Y-55635000D03*
X9540000Y-55635000D03*
X9540000Y-54365000D03*
X8270000Y-54365000D03*
X7000000Y-54365000D03*
X5730000Y-54365000D03*
X4460000Y-54365000D03*
D46*
X49960000Y-42230000D03*
X49960000Y-43630000D03*
X49260000Y-42930000D03*
X49960000Y-40830000D03*
X47860000Y-42930000D03*
X50660000Y-42930000D03*
X47860000Y-41530000D03*
X49260000Y-41530000D03*
X48560000Y-40830000D03*
X48560000Y-42230000D03*
X50660000Y-41530000D03*
X48560000Y-43630000D03*
D47*
X4875000Y-1300000D03*
X17175000Y-30075000D03*
X7850000Y-30000000D03*
X5350000Y-30950000D03*
X22350000Y-21750000D03*
X29500000Y-54500000D03*
X10910000Y-50100000D03*
X5930000Y-50920000D03*
X11407500Y1832500D03*
X56450000Y-30650000D03*
X41820000Y-39990000D03*
X59170000Y-53270000D03*
X17290000Y-38340000D03*
X44968517Y-43351483D03*
X15750000Y-46250000D03*
X24404162Y-59228100D03*
X39740000Y-30360000D03*
X43343931Y-39185097D03*
X15000000Y-46250000D03*
X31750000Y-54250000D03*
X3710000Y-25540000D03*
X41700000Y-46840000D03*
X28670000Y-60706998D03*
X58140000Y-5970000D03*
X12950000Y-62300000D03*
X18500000Y-9975000D03*
X47400000Y-2010000D03*
X16500000Y-38500000D03*
X2110000Y-36600000D03*
X26000000Y-36500000D03*
X36553500Y-32100000D03*
X36000000Y-58200000D03*
X22200000Y-48000000D03*
X56980000Y-47620000D03*
X24491767Y-57926137D03*
X53873501Y-35184986D03*
X3690000Y-26350000D03*
X33180000Y-7380000D03*
X29230000Y-55310000D03*
X13640000Y-9460000D03*
X42167739Y-41980000D03*
X26990001Y-54430001D03*
X25900000Y-23270000D03*
X60500000Y-7000000D03*
X8690000Y-4100000D03*
X25740000Y-55384672D03*
X47460000Y-30450000D03*
X24250000Y-34000000D03*
X26000000Y-42500000D03*
X21440000Y-46330000D03*
X47775000Y-59350000D03*
X44300000Y-45590000D03*
X45610000Y-6110000D03*
X15547039Y-38332961D03*
X10170397Y-24448819D03*
X43223500Y-21660000D03*
X13520000Y-27270000D03*
X26000000Y-39500000D03*
X55610000Y-30650000D03*
X34000000Y-36500000D03*
X56710000Y-29890000D03*
X58080000Y-52450000D03*
X54350000Y-58790735D03*
X46350000Y-39325000D03*
X40950000Y-30360000D03*
X26000000Y-45500000D03*
X56220000Y-52330000D03*
X20530000Y-44720000D03*
X42140000Y-20130000D03*
X8500000Y-60500000D03*
X44465000Y-47470000D03*
X26000000Y-48500000D03*
X50310000Y-340000D03*
X51860000Y-35260000D03*
X18000000Y-33000000D03*
X9850000Y-1190000D03*
X40330000Y-24816502D03*
X47500000Y-61485000D03*
X34000000Y-48500000D03*
X26000000Y-33500000D03*
X30860000Y-58210000D03*
X4890000Y-4120000D03*
X37956500Y-32178949D03*
X34000000Y-39500000D03*
X12200000Y-61650000D03*
X14790000Y-13620000D03*
X3730000Y-24820000D03*
X3680000Y-24090000D03*
X34000000Y-42500000D03*
X59630000Y-28200000D03*
X45525000Y-45250000D03*
X16250000Y-36190000D03*
X19223500Y-125000D03*
X33997694Y-33502130D03*
X12190000Y-16270000D03*
X10450000Y-62300000D03*
X24440000Y-54380000D03*
X50575000Y-57825000D03*
X10710000Y-3980000D03*
X15000000Y-45500000D03*
X36500000Y-57000000D03*
X57450000Y-48230000D03*
X7000000Y-56500000D03*
X50050000Y-2370000D03*
X8500000Y-56500000D03*
X60500000Y-14500000D03*
X15750000Y-45500000D03*
X34000000Y-45500000D03*
X14090000Y-25100000D03*
X31290000Y-24600000D03*
X39480000Y-21640000D03*
X27840000Y-53460000D03*
X19500000Y-37500000D03*
X5792309Y-23853500D03*
X55370000Y-53420000D03*
X59040000Y-20250000D03*
X34140000Y-58200000D03*
X300000Y-36120000D03*
X8850000Y1450000D03*
X25898688Y-59178100D03*
X15400000Y-30025000D03*
X48853500Y-28463759D03*
X33250000Y-54273497D03*
X3780000Y-46840000D03*
X52930000Y-61680000D03*
X6000000Y-59500000D03*
X26000000Y-30500000D03*
X4570000Y-43480000D03*
X17225000Y-28350000D03*
X12250000Y-10890000D03*
X34730000Y-8090000D03*
X15825000Y-27200000D03*
X10625000Y-43850000D03*
X5920000Y-25720000D03*
X44970000Y-54360000D03*
X56530000Y-48240000D03*
X19690000Y-58700000D03*
X11200000Y-61650000D03*
X59487498Y-55007498D03*
X10650000Y-45425000D03*
X52585000Y-33500000D03*
X35508609Y-54508609D03*
X17090935Y834219D03*
X45301500Y-17100000D03*
X34838983Y-32121017D03*
X58100000Y-12400000D03*
X15500000Y-61000000D03*
X21160000Y-57900000D03*
X45096500Y-8540000D03*
X7500000Y-36600000D03*
X24250000Y-36500000D03*
X54598237Y-35846180D03*
X63000000Y-62000000D03*
X64000000Y-60000000D03*
X37000000Y-64000000D03*
X64000000Y-51000000D03*
X-4000000Y-6000000D03*
X39000000Y4000000D03*
X54000000Y4000000D03*
X1000000Y-45000000D03*
X1000000Y-51000000D03*
X64000000Y0D03*
X43000000Y-64000000D03*
X57000000Y4000000D03*
X51000000Y4000000D03*
X-4000000Y-57000000D03*
X46000000Y-64000000D03*
X1000000Y-64000000D03*
X64000000Y-24000000D03*
X64000000Y-15000000D03*
X3000000Y4000000D03*
X-2500000Y-63000000D03*
X21000000Y4000000D03*
X7000000Y-64000000D03*
X31000000Y-64000000D03*
X-3000000Y-40000000D03*
X48000000Y4000000D03*
X55000000Y-64000000D03*
X22000000Y-64000000D03*
X27000000Y4000000D03*
X60000000Y4000000D03*
X64000000Y-27000000D03*
X9000000Y4000000D03*
X-4000000Y-21000000D03*
X64000000Y-54000000D03*
X64000000Y-12000000D03*
X4000000Y-64000000D03*
X64000000Y-18000000D03*
X-2000000Y-55000000D03*
X36000000Y4000000D03*
X-4000000Y-24000000D03*
X64000000Y-21000000D03*
X-2500000Y2500000D03*
X10000000Y-64000000D03*
X61000000Y-64000000D03*
X62500000Y2500000D03*
X40000000Y-64000000D03*
X0Y-42000000D03*
X64000000Y-6000000D03*
X64000000Y-9000000D03*
X52000000Y-64000000D03*
X-4000000Y-12000000D03*
X1000000Y-48000000D03*
X-4000000Y-18000000D03*
X-4000000Y-27000000D03*
X33000000Y4000000D03*
X16000000Y-64000000D03*
X28000000Y-64000000D03*
X34000000Y-64000000D03*
X13000000Y-64000000D03*
X64000000Y-3000000D03*
X15000000Y4000000D03*
X19000000Y-64000000D03*
X64000000Y-57000000D03*
X-4000000Y0D03*
X42000000Y4000000D03*
X-4000000Y-3000000D03*
X49000000Y-64000000D03*
X64000000Y-30000000D03*
X6000000Y4000000D03*
X24000000Y4000000D03*
X12000000Y4000000D03*
X0Y4000000D03*
X25000000Y-64000000D03*
X-4000000Y-9000000D03*
X18000000Y4000000D03*
X-4000000Y-15000000D03*
X-4000000Y-60000000D03*
X58000000Y-64000000D03*
X30000000Y4000000D03*
X45000000Y4000000D03*
X34720000Y-7360000D03*
X33950000Y-7450000D03*
X13500000Y-42000000D03*
X2980000Y-20520000D03*
X5664854Y-1589854D03*
X5152354Y-2102354D03*
X11500000Y-5300000D03*
X13000000Y-40500000D03*
X16350000Y-28875000D03*
X23000000Y-46000000D03*
X56048292Y-50617256D03*
X18040000Y-1530000D03*
X49200000Y1410000D03*
X21000000Y-45500000D03*
X49860000Y1400000D03*
X18050000Y-2260000D03*
X14575000Y-27200000D03*
X51270000Y-2370000D03*
X23000000Y-45000000D03*
X15125000Y-27725000D03*
X29260000Y-57990000D03*
X57100000Y-56150000D03*
X55500000Y-47000000D03*
X40500000Y-32000000D03*
X20500000Y-37500000D03*
X60500000Y-13500000D03*
X18000000Y-33771900D03*
X9500000Y-57000000D03*
X54480000Y-49410000D03*
X15403517Y-61903517D03*
X46500000Y-61485000D03*
X60500000Y-6000000D03*
X45301500Y-16230000D03*
X48240000Y-29760000D03*
X25749999Y-57743728D03*
X23120000Y-57840000D03*
X27150000Y-59090000D03*
X28340000Y-55433500D03*
X33250000Y-53500000D03*
X2500000Y-28500000D03*
X2500000Y-29500000D03*
X1500000Y-28500000D03*
X1780000Y-40150000D03*
X7120522Y-50302123D03*
X7696636Y-43214154D03*
X24180000Y-34865000D03*
X24180000Y-35715000D03*
X8500000Y-53500000D03*
X8500000Y-59500000D03*
X53446490Y-34395027D03*
X51858497Y-33500000D03*
X7000000Y-53500000D03*
X6000000Y-58500000D03*
X17140000Y-14772599D03*
X25200000Y-44000000D03*
X50600000Y-56800000D03*
X34600000Y-44400000D03*
X36500000Y-56250000D03*
X35250000Y-58200000D03*
X36250000Y-54500000D03*
X33260000Y-58200000D03*
X33250000Y-55500000D03*
X31750000Y-55500000D03*
X30750000Y-53750000D03*
X30250000Y-55500000D03*
X41230303Y-42112662D03*
X44070000Y-39160000D03*
X43348630Y-46743812D03*
X43450000Y-44930000D03*
X44830000Y-44330000D03*
X37920000Y-47070000D03*
X41760000Y-47640000D03*
X41990000Y-54360000D03*
X26280000Y-53390000D03*
X56500000Y-33690000D03*
X35550000Y-50080000D03*
X42411483Y-60081483D03*
X34430000Y-49330000D03*
X24580000Y-53150000D03*
X41190000Y-33763500D03*
X37430000Y-40170000D03*
X6169340Y-46837201D03*
X7280000Y-44250000D03*
X49540000Y-170000D03*
X48530000Y-2270000D03*
X40433517Y-21986483D03*
X40350000Y-29090000D03*
X31280000Y-25570000D03*
X15260000Y-34120000D03*
X44325000Y-58825000D03*
X46850000Y-57325000D03*
X47075000Y-59650000D03*
X44175000Y-60525000D03*
X19175000Y-39950000D03*
X34800000Y-47400000D03*
X37040000Y-38860000D03*
X21400000Y-47400000D03*
X52000000Y-61620000D03*
X13020000Y-50640000D03*
X54775000Y-34450000D03*
X35280000Y-33280000D03*
X40580000Y-36800000D03*
X45750000Y-38450000D03*
X40550000Y-35090000D03*
X22360000Y-20840000D03*
X25090000Y-23340000D03*
X41540000Y-27640000D03*
D48*
X48250000Y-60975000D02*
X51900000Y-57325000D01*
X16001601Y-60501601D02*
X27501601Y-60501601D01*
X14000000Y-58500000D02*
X16001601Y-60501601D01*
X44542965Y-60975000D02*
X48250000Y-60975000D01*
X44498931Y-61019034D02*
X44542965Y-60975000D01*
X52880500Y-38349568D02*
X52880500Y-34522003D01*
X52880500Y-34522003D02*
X51858497Y-33500000D01*
X51900000Y-39330068D02*
X52880500Y-38349568D01*
X41276471Y-61575000D02*
X41832437Y-61019034D01*
X41832437Y-61019034D02*
X44498931Y-61019034D01*
X51900000Y-57325000D02*
X51900000Y-39330068D01*
X28575000Y-61575000D02*
X41276471Y-61575000D01*
X6000000Y-58500000D02*
X14000000Y-58500000D01*
X27501601Y-60501601D02*
X28575000Y-61575000D01*
X40875000Y-59750000D02*
X43975000Y-56650000D01*
X38575000Y-59750000D02*
X40875000Y-59750000D01*
X38500000Y-59825000D02*
X38575000Y-59750000D01*
X38178005Y-59825000D02*
X38500000Y-59825000D01*
X38078005Y-59925000D02*
X38178005Y-59825000D01*
X43975000Y-56650000D02*
X43975000Y-47370182D01*
X30105009Y-59199497D02*
X30830512Y-59925000D01*
X30830512Y-59925000D02*
X38078005Y-59925000D01*
X29062489Y-59199497D02*
X30105009Y-59199497D01*
X27750000Y-57887008D02*
X29062489Y-59199497D01*
X43975000Y-47370182D02*
X43348630Y-46743812D01*
X27750000Y-56850000D02*
X27750000Y-57887008D01*
X28250000Y-56850000D02*
X28250000Y-57695983D01*
X39283504Y-58575000D02*
X40490981Y-58575000D01*
X40490981Y-58575000D02*
X42626499Y-56439482D01*
X28250000Y-57695983D02*
X29500013Y-58945996D01*
X42626499Y-42330536D02*
X44070000Y-40887035D01*
X29500013Y-58945996D02*
X30210012Y-58945996D01*
X30210012Y-58945996D02*
X30814016Y-59550000D01*
X30814016Y-59550000D02*
X38308504Y-59550000D01*
X38308504Y-59550000D02*
X39283504Y-58575000D01*
X42626499Y-56439482D02*
X42626499Y-42330536D01*
X44070000Y-40887035D02*
X44070000Y-39160000D01*
X27250000Y-56850000D02*
X27250000Y-57746218D01*
X40958530Y-60300000D02*
X45750000Y-55508530D01*
X27250000Y-57746218D02*
X28956780Y-59452998D01*
X28956780Y-59452998D02*
X30000006Y-59452998D01*
X30000006Y-59452998D02*
X30847008Y-60300000D01*
X30847008Y-60300000D02*
X40958530Y-60300000D01*
X45750000Y-55508530D02*
X45750000Y-47900000D01*
X45750000Y-47900000D02*
X43450000Y-45600000D01*
X43450000Y-45600000D02*
X43450000Y-44930000D01*
X25250000Y-56850000D02*
X25250000Y-58100000D01*
X25250000Y-58100000D02*
X25400000Y-58250000D01*
X25400000Y-58250000D02*
X27002965Y-58250000D01*
X27002965Y-58250000D02*
X29902965Y-61150000D01*
X29902965Y-61150000D02*
X41008505Y-61150000D01*
X41008505Y-61150000D02*
X41383505Y-60775000D01*
X41383505Y-60775000D02*
X41717966Y-60775000D01*
X41717966Y-60775000D02*
X42411483Y-60081483D01*
X26750000Y-56850000D02*
X26750000Y-57638531D01*
X47071499Y-54728501D02*
X47071499Y-47546499D01*
X26750000Y-57638531D02*
X28817968Y-59706499D01*
X28817968Y-59706499D02*
X29256499Y-59706499D01*
X41100000Y-60700000D02*
X47071499Y-54728501D01*
X29256499Y-59706499D02*
X30250000Y-60700000D01*
X30250000Y-60700000D02*
X41100000Y-60700000D01*
X47071499Y-47546499D02*
X44830000Y-45305000D01*
X44830000Y-45305000D02*
X44830000Y-44330000D01*
X29750000Y-56850000D02*
X29750000Y-58197478D01*
X31193102Y-59025500D02*
X31765898Y-59025500D01*
X29750000Y-58197478D02*
X30245017Y-58692495D01*
X30245017Y-58692495D02*
X30315016Y-58692495D01*
X30315016Y-58692495D02*
X30433518Y-58810996D01*
X37190000Y-59110000D02*
X38740500Y-57559500D01*
X30433518Y-58810996D02*
X30978597Y-58810996D01*
X31765898Y-59025500D02*
X31850398Y-59110000D01*
X30978597Y-58810996D02*
X31193102Y-59025500D01*
X31850398Y-59110000D02*
X37190000Y-59110000D01*
X38740500Y-57559500D02*
X38740500Y-49109500D01*
X38740500Y-49109500D02*
X41230303Y-46619697D01*
X41230303Y-46619697D02*
X41230303Y-42112662D01*
X43660500Y-31589500D02*
X42320173Y-31589500D01*
X39720000Y-6500000D02*
X39720000Y-13450000D01*
X46170000Y-6950000D02*
X45840000Y-6620000D01*
X45840000Y-6620000D02*
X45065001Y-6620000D01*
X43459999Y-25529931D02*
X43765500Y-25835432D01*
D49*
X44150000Y-29230000D02*
X46712500Y-31792500D01*
D48*
X45170000Y-5170000D02*
X47510000Y-5170000D01*
X43459999Y-26920069D02*
X43459999Y-29154931D01*
X46170000Y-7800000D02*
X46170000Y-6950000D01*
X45065001Y-6620000D02*
X45065001Y-5274999D01*
X47510000Y-5170000D02*
X49310000Y-3370000D01*
X43459999Y-29154931D02*
X43509999Y-29204931D01*
X45065001Y-5274999D02*
X45170000Y-5170000D01*
X49310000Y-3370000D02*
X49310000Y-1810000D01*
X43509999Y-29204931D02*
X43509999Y-29212255D01*
X43459999Y-22859999D02*
X43459999Y-25529931D01*
X49310000Y-1810000D02*
X48950000Y-1450000D01*
X43509999Y-29212255D02*
X44175000Y-29877256D01*
X43765500Y-26614568D02*
X43459999Y-26920069D01*
X39720000Y-13450000D02*
X37750000Y-15420000D01*
X42320173Y-31589500D02*
X42129500Y-31780173D01*
X43765500Y-25835432D02*
X43765500Y-26614568D01*
X42129500Y-32824000D02*
X41190000Y-33763500D01*
X37750000Y-17150000D02*
X43459999Y-22859999D01*
D49*
X43625000Y-5335000D02*
X43625000Y-14482791D01*
D48*
X48950000Y-1450000D02*
X44770000Y-1450000D01*
X44175000Y-29877256D02*
X44175000Y-31075000D01*
X42129500Y-31780173D02*
X42129500Y-32824000D01*
X37750000Y-15420000D02*
X37750000Y-17150000D01*
X44175000Y-31075000D02*
X43660500Y-31589500D01*
X44770000Y-1450000D02*
X39720000Y-6500000D01*
D49*
X44150000Y-26852323D02*
X44150000Y-29230000D01*
X48530000Y-2270000D02*
X48530000Y-2680000D01*
X48530000Y-2680000D02*
X48260000Y-2950000D01*
X48260000Y-2950000D02*
X46010000Y-2950000D01*
X44205501Y-26796823D02*
X44150000Y-26852323D01*
X46010000Y-2950000D02*
X43625000Y-5335000D01*
X43625000Y-14482791D02*
X44150000Y-15007791D01*
X44150000Y-15007791D02*
X44150000Y-25597676D01*
X44150000Y-25597676D02*
X44205501Y-25653178D01*
X44205501Y-25653178D02*
X44205501Y-26796823D01*
X46712500Y-31792500D02*
X46712500Y-32500000D01*
X12435500Y-31648000D02*
X13287500Y-32500000D01*
X4080000Y-28050000D02*
X7648982Y-28050000D01*
X482000Y-24452000D02*
X4080000Y-28050000D01*
X11246982Y-31648000D02*
X12435500Y-31648000D01*
X482000Y-4736284D02*
X482000Y-24452000D01*
X7648982Y-28050000D02*
X11246982Y-31648000D01*
X5218284Y0D02*
X482000Y-4736284D01*
X11712500Y0D02*
X5218284Y0D01*
D50*
X23876062Y-57849215D02*
X23876062Y-58298938D01*
D51*
X24750000Y-57667904D02*
X24491767Y-57926137D01*
D50*
X19550000Y-56350000D02*
X22376847Y-56350000D01*
X25150000Y-58650000D02*
X25100000Y-58700000D01*
X26940000Y-59090000D02*
X26500000Y-58650000D01*
X22376847Y-56350000D02*
X23876062Y-57849215D01*
X26500000Y-58650000D02*
X25150000Y-58650000D01*
D51*
X24750000Y-56850000D02*
X24750000Y-57667904D01*
D50*
X25100000Y-58700000D02*
X24277124Y-58700000D01*
X24277124Y-58700000D02*
X23876062Y-58298938D01*
X27150000Y-59090000D02*
X26940000Y-59090000D01*
D48*
X8275000Y-32300000D02*
X8275000Y-30425000D01*
X8275000Y-30425000D02*
X7850000Y-30000000D01*
D49*
X16350000Y-28875000D02*
X16350000Y-29250000D01*
X16350000Y-29250000D02*
X17175000Y-30075000D01*
X16250000Y-28875000D02*
X16350000Y-28875000D01*
X14575000Y-27200000D02*
X16250000Y-28875000D01*
X15100000Y-27725000D02*
X15125000Y-27725000D01*
X14575000Y-27200000D02*
X15100000Y-27725000D01*
X15723000Y-26052000D02*
X14575000Y-27200000D01*
X15723000Y-6207000D02*
X15723000Y-26052000D01*
X5250000Y-29840000D02*
X5250000Y-30850000D01*
X5250000Y-30850000D02*
X5350000Y-30950000D01*
D48*
X46400000Y-6050000D02*
X45670000Y-6050000D01*
X18830000Y-58560000D02*
X19550000Y-58560000D01*
X18330000Y-59060000D02*
X18830000Y-58560000D01*
D49*
X8270000Y-55635000D02*
X8270000Y-56270000D01*
D51*
X31250000Y-56850000D02*
X31250000Y-58305000D01*
D48*
X17340000Y-10630000D02*
X17995000Y-9975000D01*
X58100000Y-5930000D02*
X58140000Y-5970000D01*
D49*
X2100000Y-36045291D02*
X2100000Y-35587500D01*
D48*
X41810000Y-40000000D02*
X41820000Y-39990000D01*
D49*
X2100000Y-35587500D02*
X2100000Y-36630000D01*
D48*
X51940000Y-37960000D02*
X51940000Y-35340000D01*
X58100000Y-20150000D02*
X58940000Y-20150000D01*
D49*
X2100000Y-36630000D02*
X2110000Y-36640000D01*
X230000Y-36050000D02*
X300000Y-36120000D01*
D51*
X31175000Y-58525000D02*
X30860000Y-58210000D01*
D48*
X51940000Y-35340000D02*
X51860000Y-35260000D01*
D49*
X8270000Y-56270000D02*
X8500000Y-56500000D01*
D48*
X17995000Y-9975000D02*
X18500000Y-9975000D01*
X58100000Y-4850000D02*
X58100000Y-5930000D01*
D49*
X12200000Y-62300000D02*
X12200000Y-61650000D01*
D51*
X31750000Y-54250000D02*
X31070000Y-54930000D01*
D48*
X9025000Y-61025000D02*
X8500000Y-60500000D01*
X21430000Y-46340000D02*
X21440000Y-46330000D01*
X20700000Y-46340000D02*
X21430000Y-46340000D01*
D49*
X11200000Y-62290000D02*
X11200000Y-61650000D01*
D48*
X38330000Y-32100000D02*
X38035449Y-32100000D01*
D51*
X31250000Y-55950000D02*
X31250000Y-56850000D01*
D48*
X38035449Y-32100000D02*
X37956500Y-32178949D01*
D51*
X31250000Y-58305000D02*
X31470000Y-58525000D01*
D48*
X58940000Y-20150000D02*
X59040000Y-20250000D01*
X59630000Y-28020000D02*
X59630000Y-28200000D01*
X7230000Y-36870000D02*
X7230000Y-38670000D01*
X58100000Y-12400000D02*
X58100000Y-13850000D01*
D49*
X2100000Y-36045291D02*
X2223500Y-36168791D01*
X-850000Y-36050000D02*
X230000Y-36050000D01*
D48*
X60840000Y-26810000D02*
X59630000Y-28020000D01*
X17420000Y-59060000D02*
X18330000Y-59060000D01*
D51*
X31070000Y-54930000D02*
X31070000Y-55770000D01*
D48*
X42750000Y-29775000D02*
X41535000Y-29775000D01*
X20125000Y-45125000D02*
X20530000Y-44720000D01*
D49*
X2100000Y-36590000D02*
X2110000Y-36600000D01*
D48*
X41535000Y-29775000D02*
X40950000Y-30360000D01*
X19150000Y-45125000D02*
X20125000Y-45125000D01*
D51*
X31070000Y-55770000D02*
X31250000Y-55950000D01*
D48*
X40787500Y-40000000D02*
X41810000Y-40000000D01*
X19550000Y-58560000D02*
X19690000Y-58700000D01*
D51*
X31470000Y-58525000D02*
X31175000Y-58525000D01*
D48*
X45670000Y-6050000D02*
X45610000Y-6110000D01*
D49*
X2100000Y-36045291D02*
X2100000Y-36590000D01*
X2223500Y-36168791D02*
X2223500Y-36661737D01*
X7000000Y-55635000D02*
X7000000Y-56500000D01*
D48*
X7500000Y-36600000D02*
X7230000Y-36870000D01*
X58100000Y-11150000D02*
X58100000Y-12400000D01*
D49*
X14980000Y-4720000D02*
X14980000Y-7290000D01*
X20060000Y-2130000D02*
X20060000Y-5670000D01*
X13325000Y-2025000D02*
X13325000Y-1975000D01*
X11340000Y-8800000D02*
X10130000Y-10010000D01*
X20675000Y-42175000D02*
X20675000Y-42865000D01*
X5700000Y-2025000D02*
X13325000Y-2025000D01*
X10130000Y-10821393D02*
X2980000Y-17971393D01*
X33910000Y-7410000D02*
X33950000Y-7450000D01*
X16150000Y-2250000D02*
X16150000Y-3550000D01*
X13850000Y-41650000D02*
X19137500Y-41650000D01*
X5229708Y-2025000D02*
X5700000Y-2025000D01*
X33910000Y-6610000D02*
X34590000Y-6610000D01*
X2980000Y-17971393D02*
X2980000Y-20520000D01*
X5700000Y-1625000D02*
X5700000Y-2025000D01*
X34720000Y-6740000D02*
X34590000Y-6610000D01*
X19137500Y-41650000D02*
X20150000Y-41650000D01*
X21000000Y-6610000D02*
X33910000Y-6610000D01*
X34720000Y-7360000D02*
X34720000Y-6740000D01*
X13470000Y-8800000D02*
X11340000Y-8800000D01*
X18650000Y-720000D02*
X20060000Y-2130000D01*
X20060000Y-5670000D02*
X21000000Y-6610000D01*
X20150000Y-41650000D02*
X20675000Y-42175000D01*
X5664854Y-1589854D02*
X5700000Y-1625000D01*
X10130000Y-10010000D02*
X10130000Y-10821393D01*
X13325000Y-1975000D02*
X15875000Y-1975000D01*
X33910000Y-6610000D02*
X33910000Y-7410000D01*
X16150000Y-3550000D02*
X14980000Y-4720000D01*
X16080000Y-1770000D02*
X17130000Y-720000D01*
X14980000Y-7290000D02*
X13470000Y-8800000D01*
X17130000Y-720000D02*
X18650000Y-720000D01*
X13500000Y-42000000D02*
X13850000Y-41650000D01*
X5152354Y-2102354D02*
X5229708Y-2025000D01*
D48*
X12370000Y-6550000D02*
X11500000Y-5680000D01*
X11500000Y-5680000D02*
X11500000Y-5300000D01*
D50*
X47860000Y-36040000D02*
X50270000Y-33630000D01*
X47360000Y-6807500D02*
X46967500Y-7200000D01*
X50270000Y-33360000D02*
X51350000Y-32280000D01*
X17400000Y-47400000D02*
X14400000Y-47400000D01*
D49*
X48065000Y-5575000D02*
X51725000Y-5575000D01*
X57520000Y-34450000D02*
X57520000Y-21660000D01*
D50*
X21000000Y-45500000D02*
X20846400Y-45653600D01*
D49*
X55870000Y-1090000D02*
X53380000Y1400000D01*
D50*
X54380000Y-47220000D02*
X55280000Y-47220000D01*
D49*
X16375000Y-54425000D02*
X18715000Y-54425000D01*
X23000000Y-50140000D02*
X23000000Y-46000000D01*
X18040000Y-1530000D02*
X18040000Y-2250000D01*
X49200000Y1410000D02*
X49850000Y1410000D01*
D50*
X20846400Y-45653600D02*
X19146400Y-45653600D01*
X47360000Y-6050000D02*
X47360000Y-6807500D01*
D49*
X57100000Y-51850000D02*
X57100000Y-56150000D01*
X57520000Y-21660000D02*
X55870000Y-20010000D01*
D50*
X17350000Y-4580000D02*
X15723000Y-6207000D01*
X17350000Y-6950000D02*
X17350000Y-4580000D01*
D49*
X56180000Y-36160000D02*
X56180000Y-35790000D01*
X47835000Y-5575000D02*
X47360000Y-6050000D01*
D51*
X29250000Y-56850000D02*
X29250000Y-57980000D01*
D49*
X51725000Y-5575000D02*
X51725000Y-2825000D01*
X51725000Y-2825000D02*
X51270000Y-2370000D01*
D50*
X50270000Y-33630000D02*
X50270000Y-33360000D01*
D49*
X56785000Y-35185000D02*
X57520000Y-34450000D01*
D51*
X29250000Y-57980000D02*
X29260000Y-57990000D01*
D49*
X55500000Y-50250000D02*
X57100000Y-51850000D01*
D50*
X19146400Y-45653600D02*
X17400000Y-47400000D01*
D49*
X49850000Y1410000D02*
X49860000Y1400000D01*
D50*
X45121400Y-34041400D02*
X45121400Y-35661400D01*
D49*
X14775000Y-55850000D02*
X14950000Y-55850000D01*
X18050000Y-2260000D02*
X18050000Y-3880000D01*
X55500000Y-47000000D02*
X55500000Y-36840000D01*
X5730000Y-55635000D02*
X5730000Y-56191775D01*
D50*
X45121400Y-35661400D02*
X45500000Y-36040000D01*
D49*
X5730000Y-56191775D02*
X6714725Y-57176500D01*
D50*
X51350000Y-32280000D02*
X53880000Y-32280000D01*
X43180000Y-32100000D02*
X45121400Y-34041400D01*
X42590000Y-32100000D02*
X43180000Y-32100000D01*
X12000000Y-41500000D02*
X13000000Y-40500000D01*
X14270000Y-47270000D02*
X14270000Y-44470000D01*
D49*
X8095000Y-58000000D02*
X12625000Y-58000000D01*
X56180000Y-35790000D02*
X56785000Y-35185000D01*
X48065000Y-5575000D02*
X47835000Y-5575000D01*
D50*
X53880000Y-32280000D02*
X56785000Y-35185000D01*
D49*
X18715000Y-54425000D02*
X23000000Y-50140000D01*
X6714725Y-57176500D02*
X7271500Y-57176500D01*
X23000000Y-45000000D02*
X23000000Y-46000000D01*
D50*
X14400000Y-47400000D02*
X14270000Y-47270000D01*
D49*
X18040000Y-2250000D02*
X18050000Y-2260000D01*
X55500000Y-36840000D02*
X56180000Y-36160000D01*
X55500000Y-47000000D02*
X55500000Y-50250000D01*
D50*
X45500000Y-36040000D02*
X47860000Y-36040000D01*
D49*
X55870000Y-20010000D02*
X55870000Y-1090000D01*
X14950000Y-55850000D02*
X16375000Y-54425000D01*
X7271500Y-57176500D02*
X8095000Y-58000000D01*
D50*
X14270000Y-44470000D02*
X12000000Y-42200000D01*
X12000000Y-42200000D02*
X12000000Y-41500000D01*
D49*
X53380000Y1400000D02*
X49860000Y1400000D01*
D50*
X55280000Y-47220000D02*
X55500000Y-47000000D01*
D49*
X18050000Y-3880000D02*
X15723000Y-6207000D01*
X12625000Y-58000000D02*
X14775000Y-55850000D01*
D48*
X60500000Y-13500000D02*
X60850000Y-13850000D01*
X51725000Y-10655000D02*
X53010000Y-9370000D01*
X44655500Y-1065500D02*
X42440001Y1149999D01*
X36270000Y579998D02*
X36270000Y-9000000D01*
X52720000Y-1530000D02*
X52085000Y-2165000D01*
X11140000Y-41290000D02*
X12930000Y-39500000D01*
X11140000Y-42270000D02*
X11140000Y-41290000D01*
X40600000Y-32100000D02*
X40500000Y-32000000D01*
X41570000Y-32100000D02*
X40600000Y-32100000D01*
X16210000Y-20990000D02*
X19220000Y-24000000D01*
X40400000Y-32100000D02*
X40500000Y-32000000D01*
X11400000Y-42530000D02*
X11140000Y-42270000D01*
X9540000Y-54365000D02*
X9540000Y-53808225D01*
X34320000Y-10950000D02*
X19290000Y-10950000D01*
X61900000Y-13850000D02*
X61900000Y-20150000D01*
X19220000Y-24000000D02*
X19220000Y-32551900D01*
X36840001Y1149999D02*
X36270000Y579998D01*
X19220000Y-32551900D02*
X18000000Y-33771900D01*
X19290000Y-10950000D02*
X16210000Y-14030000D01*
X60850000Y-13850000D02*
X61900000Y-13850000D01*
X18500000Y-39500000D02*
X20500000Y-37500000D01*
X42440001Y1149999D02*
X36840001Y1149999D01*
X53010000Y-9370000D02*
X53010000Y-3090000D01*
X52085000Y-2165000D02*
X51160000Y-1240000D01*
X9540000Y-53808225D02*
X11400000Y-51948225D01*
X16210000Y-14030000D02*
X16210000Y-20990000D01*
X53010000Y-3090000D02*
X52085000Y-2165000D01*
X11400000Y-51948225D02*
X11400000Y-42530000D01*
X12930000Y-39500000D02*
X18500000Y-39500000D01*
X50234500Y-1065500D02*
X44655500Y-1065500D01*
X39290000Y-32100000D02*
X40400000Y-32100000D01*
X36270000Y-9000000D02*
X34320000Y-10950000D01*
X50409000Y-1240000D02*
X50234500Y-1065500D01*
X51160000Y-1240000D02*
X50409000Y-1240000D01*
X49172000Y-10668000D02*
X46736000Y-10668000D01*
X26300000Y-61500000D02*
X26525000Y-61725000D01*
X28237035Y-61725000D02*
X28467035Y-61955000D01*
X54380000Y-48240000D02*
X54380000Y-49310000D01*
X51725000Y-8115000D02*
X49172000Y-10668000D01*
X9540000Y-56960000D02*
X9500000Y-57000000D01*
X26525000Y-61725000D02*
X28237035Y-61725000D01*
X28872965Y-61955000D02*
X28877965Y-61950000D01*
X28877965Y-61950000D02*
X46035000Y-61950000D01*
X61900000Y-4850000D02*
X61900000Y-11150000D01*
X46035000Y-61950000D02*
X46500000Y-61485000D01*
X15807034Y-61500000D02*
X26300000Y-61500000D01*
X60750000Y-6000000D02*
X60500000Y-6000000D01*
X61900000Y-4850000D02*
X60750000Y-6000000D01*
X15403517Y-61903517D02*
X15807034Y-61500000D01*
X9540000Y-55635000D02*
X9540000Y-56960000D01*
X28467035Y-61955000D02*
X28872965Y-61955000D01*
X54380000Y-49310000D02*
X54480000Y-49410000D01*
X45504465Y-16610000D02*
X45306500Y-16610000D01*
X45791500Y-16897035D02*
X45504465Y-16610000D01*
X45306500Y-16235000D02*
X45301500Y-16230000D01*
X45504465Y-17590000D02*
X45791500Y-17302965D01*
X48240000Y-29760000D02*
X45306500Y-26826500D01*
X45791500Y-17302965D02*
X45791500Y-16897035D01*
X45306500Y-17590000D02*
X45504465Y-17590000D01*
X45306500Y-16610000D02*
X45306500Y-16235000D01*
X45306500Y-26826500D02*
X45306500Y-17590000D01*
D50*
X20800000Y-57070000D02*
X22320000Y-57070000D01*
X20030000Y-57840000D02*
X20800000Y-57070000D01*
X17990000Y-57840000D02*
X20030000Y-57840000D01*
X23090000Y-57840000D02*
X23120000Y-57840000D01*
X16500000Y-56350000D02*
X17990000Y-57840000D01*
D51*
X25749999Y-57743728D02*
X25750000Y-56850000D01*
D50*
X22320000Y-57070000D02*
X23090000Y-57840000D01*
D51*
X28750000Y-55843500D02*
X28340000Y-55433500D01*
X28750000Y-56850000D02*
X28750000Y-55843500D01*
D48*
X32250000Y-56850000D02*
X32250000Y-54500000D01*
X32250000Y-58500000D02*
X32250000Y-56850000D01*
X32250000Y-54500000D02*
X33250000Y-53500000D01*
D50*
X1500000Y-27570000D02*
X1500000Y-28500000D01*
X60000Y-26130000D02*
X1500000Y-27570000D01*
D49*
X2811130Y-56028699D02*
X2194699Y-55412268D01*
X4460000Y-55635000D02*
X4066301Y-56028699D01*
X2194699Y-55412268D02*
X2194699Y-54305301D01*
X2500000Y-40870000D02*
X1780000Y-40150000D01*
X3000000Y-44000000D02*
X2500000Y-43500000D01*
D50*
X4600000Y-38680000D02*
X3250000Y-38680000D01*
D49*
X4066301Y-56028699D02*
X2811130Y-56028699D01*
X2194699Y-54305301D02*
X3000000Y-53500000D01*
X2500000Y-43500000D02*
X2500000Y-40870000D01*
D50*
X3250000Y-38680000D02*
X1780000Y-40150000D01*
D49*
X3000000Y-53500000D02*
X3000000Y-44000000D01*
D48*
X6487500Y-42250000D02*
X6487500Y-42960465D01*
X7632965Y-43700000D02*
X7950000Y-44017035D01*
X7950000Y-44017035D02*
X7950000Y-49472645D01*
X7227035Y-43700000D02*
X7632965Y-43700000D01*
X6487500Y-42960465D02*
X7227035Y-43700000D01*
X7950000Y-49472645D02*
X7120522Y-50302123D01*
X8062500Y-42250000D02*
X8062500Y-42848290D01*
X8062500Y-42848290D02*
X7696636Y-43214154D01*
X39212500Y-40000000D02*
X39212500Y-38947500D01*
X39212500Y-38947500D02*
X38940000Y-38675000D01*
D50*
X1350000Y-31850000D02*
X2100000Y-32600000D01*
X2100000Y-32600000D02*
X2100000Y-33312500D01*
D52*
X362500Y-34100000D02*
X1150000Y-33312500D01*
X1150000Y-33558159D02*
X1801841Y-34210000D01*
X19736801Y-35064999D02*
X17446800Y-37355000D01*
X24180000Y-34865000D02*
X23980001Y-35064999D01*
X10533200Y-37355000D02*
X9405000Y-36226800D01*
X17446800Y-37355000D02*
X10533200Y-37355000D01*
X9405000Y-36226800D02*
X9405000Y-34936800D01*
X8693200Y-34225000D02*
X3962499Y-34224999D01*
X3962499Y-34224999D02*
X3050000Y-33312500D01*
X2520000Y-34210000D02*
X3050000Y-33680000D01*
X1801841Y-34210000D02*
X2520000Y-34210000D01*
X23980001Y-35064999D02*
X19736801Y-35064999D01*
X9405000Y-34936800D02*
X8693200Y-34225000D01*
X-850000Y-34100000D02*
X362500Y-34100000D01*
X8955000Y-36413200D02*
X8955000Y-35123200D01*
X8506800Y-34675000D02*
X3962499Y-34675001D01*
X2406159Y-34698000D02*
X3050000Y-35341841D01*
X3962499Y-34675001D02*
X3050000Y-35587500D01*
X24180000Y-35715000D02*
X23980001Y-35515001D01*
X-850000Y-34750000D02*
X312500Y-34750000D01*
X17633200Y-37805000D02*
X10346800Y-37805000D01*
X10346800Y-37805000D02*
X8955000Y-36413200D01*
X1150000Y-35341841D02*
X1793841Y-34698000D01*
X312500Y-34750000D02*
X1150000Y-35587500D01*
X19923199Y-35515001D02*
X17633200Y-37805000D01*
X1793841Y-34698000D02*
X2406159Y-34698000D01*
X23980001Y-35515001D02*
X19923199Y-35515001D01*
X8955000Y-35123200D02*
X8506800Y-34675000D01*
D48*
X16000000Y-62000000D02*
X28153531Y-62000000D01*
X8500000Y-59500000D02*
X11000000Y-59500000D01*
X49330003Y-61228501D02*
X50130003Y-61228501D01*
X6200000Y-61290000D02*
X7350000Y-60140000D01*
X48350003Y-62208501D02*
X49330003Y-61228501D01*
X50130003Y-61228501D02*
X53383501Y-57975003D01*
X28362032Y-62208501D02*
X48350003Y-62208501D01*
X28153531Y-62000000D02*
X28362032Y-62208501D01*
X8500000Y-53500000D02*
X8500000Y-54135000D01*
X7350000Y-60140000D02*
X7860000Y-60140000D01*
X53313501Y-34596500D02*
X53446490Y-34463511D01*
X14000000Y-62500000D02*
X15500000Y-62500000D01*
X53383501Y-34666500D02*
X53313501Y-34596500D01*
X53383501Y-57975003D02*
X53383501Y-34666500D01*
X7860000Y-60140000D02*
X8500000Y-59500000D01*
X15500000Y-62500000D02*
X16000000Y-62000000D01*
X53446490Y-34463511D02*
X53446490Y-34395027D01*
X11000000Y-59500000D02*
X14000000Y-62500000D01*
X7000000Y-54365000D02*
X7000000Y-53500000D01*
X51725000Y-15735000D02*
X48160000Y-15735000D01*
X48160000Y-15735000D02*
X47350000Y-14925000D01*
X51725000Y-23355000D02*
X50845000Y-23355000D01*
X50845000Y-23355000D02*
X47315000Y-19825000D01*
X47100000Y-24250000D02*
X48745000Y-25895000D01*
X48745000Y-25895000D02*
X51725000Y-25895000D01*
X38040000Y-37300000D02*
X36010000Y-37300000D01*
X19137500Y-43550000D02*
X17275000Y-45412500D01*
X36000000Y-43000000D02*
X34600000Y-44400000D01*
X17902599Y-14010000D02*
X29580000Y-14010000D01*
X25085000Y-43885000D02*
X25200000Y-44000000D01*
X47410000Y-39940000D02*
X47410000Y-38210000D01*
X34170000Y-32622965D02*
X34750000Y-33202965D01*
X33840000Y-22590000D02*
X34170000Y-22920000D01*
X33480000Y-14600000D02*
X37260000Y-10820000D01*
X36000000Y-37290000D02*
X36000000Y-43000000D01*
X20221169Y-43550000D02*
X20556169Y-43885000D01*
X34750000Y-33202965D02*
X34750000Y-36040000D01*
X30280000Y-14710000D02*
X30810000Y-14710000D01*
X46470000Y-40880000D02*
X47410000Y-39940000D01*
X37260000Y-10820000D02*
X37260000Y-990000D01*
X38430000Y-37710000D02*
X38040000Y-37320000D01*
X30810000Y-14710000D02*
X33840000Y-17740000D01*
X17275000Y-45412500D02*
X17275000Y-46075000D01*
X29580000Y-14010000D02*
X30280000Y-14710000D01*
X20675000Y-43885000D02*
X25085000Y-43885000D01*
X46570000Y-43400000D02*
X46570000Y-41990000D01*
X36010000Y-37300000D02*
X36000000Y-37290000D01*
X30280000Y-14710000D02*
X32560000Y-14710000D01*
X37260000Y-990000D02*
X38250000Y0D01*
X50600000Y-47430000D02*
X46570000Y-43400000D01*
X17140000Y-14772599D02*
X17902599Y-14010000D01*
X47410000Y-38210000D02*
X46910000Y-37710000D01*
X46570000Y-41990000D02*
X46470000Y-41890000D01*
X19137500Y-43550000D02*
X20221169Y-43550000D01*
X50600000Y-56800000D02*
X50600000Y-47430000D01*
X34750000Y-36040000D02*
X36000000Y-37290000D01*
X46910000Y-37710000D02*
X38430000Y-37710000D01*
X34170000Y-22920000D02*
X34170000Y-32622965D01*
X33840000Y-17740000D02*
X33840000Y-22590000D01*
X32560000Y-14710000D02*
X32670000Y-14600000D01*
X38040000Y-37320000D02*
X38040000Y-37300000D01*
X46470000Y-41890000D02*
X46470000Y-40880000D01*
X32670000Y-14600000D02*
X33480000Y-14600000D01*
X34813500Y-56009500D02*
X36259500Y-56009500D01*
X34750000Y-56073000D02*
X34813500Y-56009500D01*
X36259500Y-56009500D02*
X36500000Y-56250000D01*
X34750000Y-56850000D02*
X34750000Y-56073000D01*
X34250000Y-56850000D02*
X34250000Y-57627000D01*
X34760000Y-57710000D02*
X35250000Y-58200000D01*
X34250000Y-57627000D02*
X34333000Y-57710000D01*
X34333000Y-57710000D02*
X34760000Y-57710000D01*
X35624265Y-55125735D02*
X36250000Y-54500000D01*
X34697265Y-55125735D02*
X35624265Y-55125735D01*
X33750000Y-56073000D02*
X34697265Y-55125735D01*
X33750000Y-56850000D02*
X33750000Y-56073000D01*
X33250000Y-56850000D02*
X33250000Y-58190000D01*
X33250000Y-58190000D02*
X33260000Y-58200000D01*
X32750000Y-56000000D02*
X33250000Y-55500000D01*
X32750000Y-56850000D02*
X32750000Y-56000000D01*
X31750000Y-56850000D02*
X31750000Y-55500000D01*
X30750000Y-56850000D02*
X30750000Y-53750000D01*
X30250000Y-56850000D02*
X30250000Y-55500000D01*
X41990000Y-54360000D02*
X41990000Y-47870000D01*
X46045001Y-15922032D02*
X45212000Y-15089031D01*
X37920000Y-47710000D02*
X37920000Y-47070000D01*
X45212000Y-15089031D02*
X45212000Y-10160000D01*
X53224500Y-30194500D02*
X53224500Y-19774500D01*
X46045001Y-16025001D02*
X46045001Y-15922032D01*
X56500000Y-33470000D02*
X53224500Y-30194500D01*
X51725000Y-18275000D02*
X48295000Y-18275000D01*
X41990000Y-47870000D02*
X41760000Y-47640000D01*
X45212000Y-10160000D02*
X46872000Y-8500000D01*
X35550000Y-50080000D02*
X37920000Y-47710000D01*
X56500000Y-33690000D02*
X56500000Y-33470000D01*
X53224500Y-19774500D02*
X51725000Y-18275000D01*
X48295000Y-18275000D02*
X46045001Y-16025001D01*
X26250000Y-56850000D02*
X26250000Y-53480000D01*
X37110000Y-40490000D02*
X37430000Y-40170000D01*
X45791500Y-16130004D02*
X45791500Y-16027035D01*
X46170000Y-8843496D02*
X46170000Y-7800000D01*
X44958499Y-10054997D02*
X46170000Y-8843496D01*
X46220000Y-7850000D02*
X46170000Y-7800000D01*
X44958499Y-15194034D02*
X44958499Y-10054997D01*
X37110000Y-46650000D02*
X37110000Y-40490000D01*
X51725000Y-20815000D02*
X50476496Y-20815000D01*
X34430000Y-49330000D02*
X37110000Y-46650000D01*
X25250000Y-56850000D02*
X25250000Y-53820000D01*
X46967500Y-7850000D02*
X46220000Y-7850000D01*
X50476496Y-20815000D02*
X45791500Y-16130004D01*
X45791500Y-16027035D02*
X44958499Y-15194034D01*
X25250000Y-53820000D02*
X24580000Y-53150000D01*
X3437500Y-43227500D02*
X6169340Y-45959340D01*
X3437500Y-42250000D02*
X3437500Y-43227500D01*
X6169340Y-45959340D02*
X6169340Y-46837201D01*
X6070000Y-44250000D02*
X7280000Y-44250000D01*
X5012500Y-42250000D02*
X5012500Y-43192500D01*
X5012500Y-43192500D02*
X6070000Y-44250000D01*
D49*
X45787500Y-35000000D02*
X46690000Y-35000000D01*
X46690000Y-35000000D02*
X48287500Y-33402500D01*
X48287500Y-33402500D02*
X48287500Y-32500000D01*
X13270000Y-35000000D02*
X11712500Y-33442500D01*
X11712500Y-33442500D02*
X11712500Y-32500000D01*
X14212500Y-35000000D02*
X13270000Y-35000000D01*
X49540000Y-170000D02*
X48457500Y-170000D01*
X40350000Y-29090000D02*
X40350000Y-27130000D01*
X40350000Y-27130000D02*
X39390000Y-26170000D01*
X39040000Y-29090000D02*
X37280000Y-30850000D01*
X37280000Y-30850000D02*
X37280000Y-32720000D01*
X39390000Y-26170000D02*
X39390000Y-22780000D01*
X37600000Y-33040000D02*
X39350000Y-33040000D01*
X39350000Y-33040000D02*
X40750000Y-34440000D01*
X40750000Y-34440000D02*
X43652500Y-34440000D01*
X43652500Y-34440000D02*
X44212500Y-35000000D01*
X37280000Y-32720000D02*
X37600000Y-33040000D01*
X40183517Y-21986483D02*
X40433517Y-21986483D01*
X40350000Y-29090000D02*
X39040000Y-29090000D01*
X39390000Y-22780000D02*
X40183517Y-21986483D01*
D50*
X31280000Y-25570000D02*
X27286316Y-25570000D01*
X20180000Y-33710000D02*
X19590000Y-34300000D01*
X19590000Y-34300000D02*
X16195148Y-34300000D01*
X16195148Y-34300000D02*
X16191548Y-34296400D01*
X16191548Y-34296400D02*
X15787500Y-34700448D01*
D49*
X15260000Y-34472500D02*
X15787500Y-35000000D01*
X15260000Y-34120000D02*
X15260000Y-34472500D01*
D50*
X20180000Y-32676316D02*
X20180000Y-33710000D01*
X27286316Y-25570000D02*
X20180000Y-32676316D01*
D49*
X46712500Y867500D02*
X45787500Y1792500D01*
X45787500Y1792500D02*
X45787500Y2500000D01*
X46712500Y0D02*
X46712500Y867500D01*
X14212500Y2500000D02*
X14212500Y1692500D01*
X13287500Y767500D02*
X13287500Y0D01*
X14212500Y1692500D02*
X13287500Y767500D01*
X18060000Y2500000D02*
X18970000Y1590000D01*
X42510000Y2500000D02*
X44212500Y2500000D01*
X15787500Y2500000D02*
X18060000Y2500000D01*
X41600000Y1590000D02*
X42510000Y2500000D01*
X18970000Y1590000D02*
X41600000Y1590000D01*
D48*
X44325000Y-58825000D02*
X45825000Y-57325000D01*
X45825000Y-57325000D02*
X46850000Y-57325000D01*
X46200000Y-60525000D02*
X47075000Y-59650000D01*
X44175000Y-60525000D02*
X46200000Y-60525000D01*
X18209500Y-42859500D02*
X17950000Y-42600000D01*
X20355173Y-43325500D02*
X21074500Y-43325500D01*
X21500000Y-42275000D02*
X21500000Y-42900000D01*
X19175000Y-39950000D02*
X21500000Y-42275000D01*
X18209500Y-42859500D02*
X19889173Y-42859500D01*
X19889173Y-42859500D02*
X20355173Y-43325500D01*
X17950000Y-42600000D02*
X17262500Y-42600000D01*
X21074500Y-43325500D02*
X21500000Y-42900000D01*
X20365000Y-47025000D02*
X20700000Y-47360000D01*
X19290000Y-50970000D02*
X20670000Y-49590000D01*
X20670000Y-49590000D02*
X20670000Y-47390000D01*
X36330000Y-39570000D02*
X37040000Y-38860000D01*
X34800000Y-47400000D02*
X36330000Y-45870000D01*
X36330000Y-45870000D02*
X36330000Y-39570000D01*
X19150000Y-47025000D02*
X20365000Y-47025000D01*
X21400000Y-47400000D02*
X20740000Y-47400000D01*
X53860000Y-59760000D02*
X52000000Y-61620000D01*
X53903501Y-57813508D02*
X53860000Y-57857008D01*
X54076466Y-35674986D02*
X53876466Y-35674986D01*
X53869500Y-47970173D02*
X53869500Y-48509827D01*
X53903501Y-48543828D02*
X53903501Y-57813508D01*
X53903501Y-47936172D02*
X53869500Y-47970173D01*
X53903501Y-47523828D02*
X53903501Y-47936172D01*
X53869500Y-48509827D02*
X53903501Y-48543828D01*
X53869500Y-35681952D02*
X53869500Y-47489827D01*
X53860000Y-57857008D02*
X53860000Y-59760000D01*
X53869500Y-47489827D02*
X53903501Y-47523828D01*
X54775000Y-34976452D02*
X54076466Y-35674986D01*
X53876466Y-35674986D02*
X53869500Y-35681952D01*
X54775000Y-34450000D02*
X54775000Y-34976452D01*
X13360000Y-50980000D02*
X13020000Y-50640000D01*
X15670000Y-50980000D02*
X13360000Y-50980000D01*
X36340000Y-34850000D02*
X35280000Y-33790000D01*
X35280000Y-33790000D02*
X35280000Y-33280000D01*
X42990000Y-37280000D02*
X43100000Y-37390000D01*
X41060000Y-37280000D02*
X42990000Y-37280000D01*
X43100000Y-37390000D02*
X47800000Y-37390000D01*
X40580000Y-36800000D02*
X41060000Y-37280000D01*
X47800000Y-37390000D02*
X48310000Y-37900000D01*
X45550000Y-38250000D02*
X45750000Y-38450000D01*
X40385000Y-38250000D02*
X45550000Y-38250000D01*
X45120000Y-39980000D02*
X45120000Y-41470000D01*
X45750000Y-38450000D02*
X45750000Y-39350000D01*
X45750000Y-39350000D02*
X45120000Y-39980000D01*
X39960000Y-38675000D02*
X40385000Y-38250000D01*
X42150000Y-36075000D02*
X41165000Y-35090000D01*
X22360000Y-20840000D02*
X23130000Y-21610000D01*
X25090000Y-23340000D02*
X23360000Y-21610000D01*
X23130000Y-21610000D02*
X23360000Y-21610000D01*
X41165000Y-35090000D02*
X40550000Y-35090000D01*
X42825000Y-26355000D02*
X41540000Y-27640000D01*
%TA.AperFunction,Conductor*%
G36*
X59987103Y4743079D02*
G01*
X60000000Y4740514D01*
X60012170Y4742935D01*
X60022599Y4742935D01*
X60035735Y4743940D01*
X60356412Y4729939D01*
X60408103Y4727682D01*
X60419051Y4726724D01*
X60818604Y4674122D01*
X60829413Y4672215D01*
X61222854Y4584992D01*
X61233471Y4582147D01*
X61617813Y4460964D01*
X61628128Y4457211D01*
X62000468Y4302983D01*
X62010412Y4298345D01*
X62295219Y4150084D01*
X62367867Y4112266D01*
X62377387Y4106770D01*
X62717262Y3890245D01*
X62726266Y3883941D01*
X63045993Y3638607D01*
X63054397Y3631555D01*
X63130501Y3561818D01*
X63351519Y3359291D01*
X63359291Y3351519D01*
X63470515Y3230140D01*
X63631555Y3054397D01*
X63638607Y3045993D01*
X63764005Y2882570D01*
X63883941Y2726266D01*
X63890245Y2717262D01*
X64101349Y2385897D01*
X64106770Y2377387D01*
X64112265Y2367868D01*
X64274193Y2056809D01*
X64298341Y2010421D01*
X64302983Y2000468D01*
X64457208Y1628135D01*
X64460964Y1617813D01*
X64553369Y1324744D01*
X64582147Y1233472D01*
X64584992Y1222855D01*
X64661678Y876948D01*
X64672214Y829421D01*
X64674122Y818604D01*
X64724719Y434284D01*
X64726724Y419052D01*
X64727682Y408102D01*
X64743940Y35735D01*
X64742935Y22599D01*
X64742935Y12170D01*
X64740514Y0D01*
X64743079Y-12894D01*
X64745500Y-37476D01*
X64745500Y-28962518D01*
X64743079Y-28987097D01*
X64740513Y-28999999D01*
X64742934Y-29012171D01*
X64742934Y-29024578D01*
X64742294Y-29024578D01*
X64742970Y-29035357D01*
X64741203Y-29060061D01*
X64728375Y-29239419D01*
X64725817Y-29257213D01*
X64676709Y-29482959D01*
X64671644Y-29500208D01*
X64662545Y-29524605D01*
X64590909Y-29716669D01*
X64583443Y-29733016D01*
X64472724Y-29935781D01*
X64463005Y-29950904D01*
X64324558Y-30135848D01*
X64312785Y-30149434D01*
X64149434Y-30312785D01*
X64135848Y-30324558D01*
X63952444Y-30461853D01*
X63950902Y-30463007D01*
X63935786Y-30472722D01*
X63914054Y-30484589D01*
X63853671Y-30500000D01*
X63126000Y-30500000D01*
X63057879Y-30479998D01*
X63011386Y-30426342D01*
X63000000Y-30374000D01*
X63000000Y-3000000D01*
X62246940Y-2246940D01*
X62212914Y-2184628D01*
X62217979Y-2113813D01*
X62244185Y-2071592D01*
X62340774Y-1968734D01*
X62345297Y-1963345D01*
X62545640Y-1695540D01*
X62549530Y-1689686D01*
X62718774Y-1401215D01*
X62721989Y-1394961D01*
X62858024Y-1089422D01*
X62860521Y-1082847D01*
X62961648Y-764056D01*
X62963400Y-757233D01*
X63028361Y-429155D01*
X63029338Y-422201D01*
X63057436Y-87591D01*
X63057650Y-83222D01*
X63058782Y-2178D01*
X63058691Y2172D01*
X63039945Y337454D01*
X63039163Y344428D01*
X62983386Y674207D01*
X62981828Y681061D01*
X62889639Y1002561D01*
X62887331Y1009189D01*
X62759874Y1318424D01*
X62756845Y1324744D01*
X62595715Y1617839D01*
X62591990Y1623801D01*
X62399195Y1897104D01*
X62394837Y1902603D01*
X62259837Y2054657D01*
X62246449Y2063034D01*
X62236889Y2057284D01*
X60192417Y12812D01*
X60184803Y-1132D01*
X60184934Y-2965D01*
X60189185Y-9580D01*
X61481389Y-1301784D01*
X61515415Y-1364096D01*
X61510350Y-1434911D01*
X61481389Y-1479974D01*
X61480682Y-1480682D01*
X58519319Y1480681D01*
X58520026Y1481389D01*
X58582338Y1515415D01*
X58653153Y1510350D01*
X58698216Y1481389D01*
X59987188Y192417D01*
X60001132Y184803D01*
X60002965Y184934D01*
X60009580Y189185D01*
X62055177Y2234782D01*
X62062791Y2248726D01*
X62062786Y2248800D01*
X62056679Y2257778D01*
X61919281Y2381491D01*
X61913801Y2385897D01*
X61641852Y2580593D01*
X61635925Y2584355D01*
X61343972Y2747522D01*
X61337646Y2750608D01*
X61029325Y2880214D01*
X61022711Y2882570D01*
X60701848Y2977004D01*
X60695026Y2978604D01*
X60365633Y3036685D01*
X60358664Y3037516D01*
X60024872Y3058516D01*
X60017840Y3058565D01*
X59683774Y3042228D01*
X59676796Y3041494D01*
X59346640Y2988020D01*
X59339772Y2986510D01*
X59017642Y2896569D01*
X59010986Y2894303D01*
X58700885Y2769015D01*
X58694530Y2766025D01*
X58400323Y2606947D01*
X58394334Y2603263D01*
X58119692Y2412382D01*
X58114161Y2408061D01*
X57924423Y2241958D01*
X57859992Y2212137D01*
X57789668Y2221884D01*
X57752333Y2247667D01*
X57000000Y3000000D01*
X46478053Y3000000D01*
X46409932Y3020002D01*
X46377226Y3050436D01*
X46374252Y3054405D01*
X46344330Y3094330D01*
X46235853Y3175628D01*
X46227452Y3178778D01*
X46227449Y3178779D01*
X46151525Y3207242D01*
X46108919Y3223214D01*
X46101066Y3224067D01*
X46101062Y3224068D01*
X46054452Y3229131D01*
X46054448Y3229131D01*
X46051053Y3229500D01*
X45787539Y3229500D01*
X45523948Y3229499D01*
X45466081Y3223214D01*
X45411245Y3202657D01*
X45347551Y3178779D01*
X45347548Y3178778D01*
X45339147Y3175628D01*
X45230670Y3094330D01*
X45200749Y3054405D01*
X45197774Y3050436D01*
X45140915Y3007920D01*
X45096947Y3000000D01*
X44903053Y3000000D01*
X44834932Y3020002D01*
X44802226Y3050436D01*
X44799252Y3054405D01*
X44769330Y3094330D01*
X44660853Y3175628D01*
X44652452Y3178778D01*
X44652449Y3178779D01*
X44576525Y3207242D01*
X44533919Y3223214D01*
X44526066Y3224067D01*
X44526062Y3224068D01*
X44479452Y3229131D01*
X44479448Y3229131D01*
X44476053Y3229500D01*
X44212539Y3229500D01*
X43948948Y3229499D01*
X43891081Y3223214D01*
X43836245Y3202657D01*
X43772551Y3178779D01*
X43772548Y3178778D01*
X43764147Y3175628D01*
X43655670Y3094330D01*
X43650290Y3087151D01*
X43650288Y3087149D01*
X43626145Y3054935D01*
X43569286Y3012420D01*
X43525319Y3004500D01*
X42580624Y3004500D01*
X42568619Y3005841D01*
X42568579Y3005345D01*
X42559632Y3006065D01*
X42550876Y3008046D01*
X42507338Y3005345D01*
X42497618Y3004742D01*
X42489816Y3004500D01*
X42473774Y3004500D01*
X42469343Y3003865D01*
X42469338Y3003865D01*
X42465313Y3003288D01*
X42463543Y3003035D01*
X42453483Y3002004D01*
X42433050Y3000736D01*
X42425081Y3000242D01*
X42417282Y3000000D01*
X18144490Y3000000D01*
X18135149Y3000347D01*
X18122639Y3001277D01*
X18112596Y3002430D01*
X18104114Y3003751D01*
X18104111Y3003751D01*
X18099303Y3004500D01*
X18083938Y3004500D01*
X18074601Y3004846D01*
X18067048Y3005407D01*
X18025333Y3008507D01*
X18016558Y3006634D01*
X18007862Y3006041D01*
X17993262Y3004500D01*
X16474681Y3004500D01*
X16406560Y3024502D01*
X16373855Y3054935D01*
X16349712Y3087149D01*
X16349710Y3087151D01*
X16344330Y3094330D01*
X16235853Y3175628D01*
X16227452Y3178778D01*
X16227449Y3178779D01*
X16151525Y3207242D01*
X16108919Y3223214D01*
X16101066Y3224067D01*
X16101062Y3224068D01*
X16054452Y3229131D01*
X16054448Y3229131D01*
X16051053Y3229500D01*
X15787539Y3229500D01*
X15523948Y3229499D01*
X15466081Y3223214D01*
X15411245Y3202657D01*
X15347551Y3178779D01*
X15347548Y3178778D01*
X15339147Y3175628D01*
X15230670Y3094330D01*
X15200749Y3054405D01*
X15197774Y3050436D01*
X15140915Y3007920D01*
X15096947Y3000000D01*
X14903053Y3000000D01*
X14834932Y3020002D01*
X14802226Y3050436D01*
X14799252Y3054405D01*
X14769330Y3094330D01*
X14660853Y3175628D01*
X14652452Y3178778D01*
X14652449Y3178779D01*
X14576525Y3207242D01*
X14533919Y3223214D01*
X14526066Y3224067D01*
X14526062Y3224068D01*
X14479452Y3229131D01*
X14479448Y3229131D01*
X14476053Y3229500D01*
X14212539Y3229500D01*
X13948948Y3229499D01*
X13891081Y3223214D01*
X13836245Y3202657D01*
X13772551Y3178779D01*
X13772548Y3178778D01*
X13764147Y3175628D01*
X13655670Y3094330D01*
X13625749Y3054405D01*
X13622774Y3050436D01*
X13565915Y3007920D01*
X13521947Y3000000D01*
X3000000Y3000000D01*
X2247046Y2247046D01*
X2184734Y2213020D01*
X2113919Y2218085D01*
X2073641Y2242505D01*
X1919281Y2381491D01*
X1913801Y2385897D01*
X1641852Y2580593D01*
X1635925Y2584355D01*
X1343972Y2747522D01*
X1337646Y2750608D01*
X1029325Y2880214D01*
X1022711Y2882570D01*
X701848Y2977004D01*
X695026Y2978604D01*
X365633Y3036685D01*
X358664Y3037516D01*
X24872Y3058516D01*
X17840Y3058565D01*
X-316226Y3042228D01*
X-323204Y3041494D01*
X-653360Y2988020D01*
X-660228Y2986510D01*
X-982358Y2896569D01*
X-989014Y2894303D01*
X-1299115Y2769015D01*
X-1305470Y2766025D01*
X-1599677Y2606947D01*
X-1605666Y2603263D01*
X-1880308Y2412382D01*
X-1885839Y2408061D01*
X-2054896Y2260063D01*
X-2063294Y2246849D01*
X-2057449Y2237054D01*
X-12812Y192417D01*
X1132Y184803D01*
X2965Y184934D01*
X9580Y189185D01*
X1301784Y1481389D01*
X1364096Y1515415D01*
X1434911Y1510350D01*
X1479974Y1481389D01*
X1480682Y1480681D01*
X-1480681Y-1480682D01*
X-1481389Y-1479974D01*
X-1515415Y-1417662D01*
X-1510350Y-1346847D01*
X-1481389Y-1301784D01*
X-192417Y-12812D01*
X-184803Y1132D01*
X-184934Y2965D01*
X-189185Y9580D01*
X-2234673Y2055068D01*
X-2248617Y2062682D01*
X-2248928Y2062660D01*
X-2257594Y2056809D01*
X-2368040Y1935854D01*
X-2372478Y1930413D01*
X-2569061Y1659838D01*
X-2572878Y1653916D01*
X-2738072Y1363121D01*
X-2741202Y1356816D01*
X-2872958Y1049407D01*
X-2875360Y1042806D01*
X-2972027Y722632D01*
X-2973682Y715789D01*
X-3034058Y386828D01*
X-3034937Y379866D01*
X-3058268Y46226D01*
X-3058366Y39181D01*
X-3044361Y-294971D01*
X-3043676Y-301961D01*
X-2992508Y-632490D01*
X-2991048Y-639357D01*
X-2903355Y-962119D01*
X-2901139Y-968780D01*
X-2778018Y-1279750D01*
X-2775067Y-1286135D01*
X-2618047Y-1581445D01*
X-2614413Y-1587446D01*
X-2425456Y-1863412D01*
X-2421162Y-1868987D01*
X-2241855Y-2076715D01*
X-2212485Y-2141351D01*
X-2222722Y-2211606D01*
X-2248141Y-2248141D01*
X-3000000Y-3000000D01*
X-3000000Y-30000000D01*
X-2385500Y-30000000D01*
X-2317379Y-30020002D01*
X-2270886Y-30073658D01*
X-2259500Y-30126000D01*
X-2259500Y-33092895D01*
X-2256510Y-33118548D01*
X-2253297Y-33146117D01*
X-2252545Y-33152572D01*
X-2239218Y-33208970D01*
X-2238647Y-33210852D01*
X-2232185Y-33232158D01*
X-2232183Y-33232161D01*
X-2229814Y-33239973D01*
X-2225523Y-33246920D01*
X-2194015Y-33297929D01*
X-2176604Y-33326117D01*
X-2128227Y-33378080D01*
X-2126144Y-33379951D01*
X-2126139Y-33379956D01*
X-2102017Y-33401624D01*
X-2093812Y-33408994D01*
X-2085681Y-33412884D01*
X-2085680Y-33412885D01*
X-2027513Y-33440715D01*
X-2002476Y-33452694D01*
X-1996481Y-33454224D01*
X-1996479Y-33454225D01*
X-1973446Y-33460104D01*
X-1933685Y-33470253D01*
X-1888021Y-33477654D01*
X-1888516Y-33480711D01*
X-1835491Y-33497318D01*
X-1789966Y-33551798D01*
X-1779499Y-33602079D01*
X-1779499Y-33675066D01*
X-1766132Y-33742270D01*
X-1764734Y-33749301D01*
X-1768934Y-33750136D01*
X-1763843Y-33797324D01*
X-1764828Y-33800680D01*
X-1764734Y-33800699D01*
X-1779500Y-33874933D01*
X-1779499Y-34325066D01*
X-1775473Y-34345307D01*
X-1764734Y-34399301D01*
X-1768934Y-34400136D01*
X-1763843Y-34447324D01*
X-1764828Y-34450680D01*
X-1764734Y-34450699D01*
X-1779500Y-34524933D01*
X-1779499Y-34975066D01*
X-1765521Y-35045345D01*
X-1764734Y-35049301D01*
X-1768934Y-35050136D01*
X-1763843Y-35097324D01*
X-1764828Y-35100680D01*
X-1764734Y-35100699D01*
X-1779500Y-35174933D01*
X-1779499Y-35625066D01*
X-1767797Y-35683900D01*
X-1764734Y-35699301D01*
X-1768934Y-35700136D01*
X-1763843Y-35747324D01*
X-1764828Y-35750680D01*
X-1764734Y-35750699D01*
X-1779500Y-35824933D01*
X-1779499Y-36275066D01*
X-1776787Y-36288701D01*
X-1767504Y-36335372D01*
X-1764734Y-36349301D01*
X-1757839Y-36359621D01*
X-1757838Y-36359622D01*
X-1733766Y-36395648D01*
X-1708484Y-36433484D01*
X-1624301Y-36489734D01*
X-1550067Y-36504500D01*
X-1550287Y-36505607D01*
X-1490152Y-36529887D01*
X-1449140Y-36587840D01*
X-1445969Y-36658766D01*
X-1460875Y-36692637D01*
X-1460624Y-36692765D01*
X-1462848Y-36697121D01*
X-1463504Y-36698611D01*
X-1463952Y-36699283D01*
X-1534601Y-36837642D01*
X-1539670Y-36851270D01*
X-1577001Y-37003830D01*
X-1578683Y-37014884D01*
X-1578880Y-37018061D01*
X-1579000Y-37021939D01*
X-1579000Y-37104885D01*
X-1574525Y-37120124D01*
X-1573135Y-37121329D01*
X-1565452Y-37123000D01*
X-849000Y-37123000D01*
X-780879Y-37143002D01*
X-734386Y-37196658D01*
X-723000Y-37249000D01*
X-723000Y-38099772D01*
X-719194Y-38112734D01*
X-704279Y-38114670D01*
X-649989Y-38105341D01*
X-636032Y-38101233D01*
X-493089Y-38040410D01*
X-480456Y-38033204D01*
X-355337Y-37941128D01*
X-344695Y-37931204D01*
X-244115Y-37812813D01*
X-231985Y-37794625D01*
X-229807Y-37796077D01*
X-189428Y-37753394D01*
X-120499Y-37736385D01*
X-53317Y-37759342D01*
X-9211Y-37814976D01*
X0Y-37862265D01*
X0Y-38874000D01*
X-20002Y-38942121D01*
X-73658Y-38988614D01*
X-126000Y-39000000D01*
X-2500000Y-39000000D01*
X-2500000Y-39750000D01*
X-2250758Y-39750000D01*
X-2249249Y-39750009D01*
X-2046764Y-39752434D01*
X-2035923Y-39753032D01*
X-1632174Y-39792798D01*
X-1619943Y-39794612D01*
X-1222770Y-39873615D01*
X-1210783Y-39876617D01*
X-823244Y-39994175D01*
X-811621Y-39998335D01*
X-472154Y-40138946D01*
X-437486Y-40153306D01*
X-426308Y-40158593D01*
X-69174Y-40349486D01*
X-58568Y-40355843D01*
X278138Y-40580822D01*
X288070Y-40588188D01*
X601108Y-40845092D01*
X610269Y-40853396D01*
X896604Y-41139731D01*
X904908Y-41148892D01*
X1161812Y-41461930D01*
X1169178Y-41471862D01*
X1394157Y-41808568D01*
X1400514Y-41819174D01*
X1591407Y-42176308D01*
X1596694Y-42187486D01*
X1751665Y-42561621D01*
X1755825Y-42573244D01*
X1873382Y-42960779D01*
X1876385Y-42972770D01*
X1891725Y-43049888D01*
X1955388Y-43369943D01*
X1957202Y-43382174D01*
X1996968Y-43785923D01*
X1997566Y-43796764D01*
X1999991Y-43999249D01*
X2000000Y-44000758D01*
X2000000Y-51749242D01*
X1999991Y-51750751D01*
X1997566Y-51953236D01*
X1996968Y-51964077D01*
X1957202Y-52367826D01*
X1955388Y-52380057D01*
X1900144Y-52657789D01*
X1876386Y-52777226D01*
X1873383Y-52789217D01*
X1824577Y-52950112D01*
X1755828Y-53176747D01*
X1751665Y-53188379D01*
X1636157Y-53467241D01*
X1596694Y-53562514D01*
X1591407Y-53573692D01*
X1414531Y-53904603D01*
X1400514Y-53930826D01*
X1394157Y-53941432D01*
X1169178Y-54278138D01*
X1161812Y-54288070D01*
X904908Y-54601108D01*
X896604Y-54610269D01*
X610269Y-54896604D01*
X601108Y-54904908D01*
X288070Y-55161812D01*
X278138Y-55169178D01*
X-58568Y-55394157D01*
X-69174Y-55400514D01*
X-426308Y-55591407D01*
X-437487Y-55596694D01*
X-811621Y-55751665D01*
X-823244Y-55755825D01*
X-1210783Y-55873383D01*
X-1222770Y-55876385D01*
X-1576678Y-55946782D01*
X-1619943Y-55955388D01*
X-1632174Y-55957202D01*
X-2035923Y-55996968D01*
X-2046764Y-55997566D01*
X-2249674Y-55999996D01*
X-2249689Y-55999996D01*
X-2250000Y-56000000D01*
X-2287495Y-56000909D01*
X-2327970Y-56001891D01*
X-2327971Y-56001891D01*
X-2334274Y-56002044D01*
X-2340420Y-56003447D01*
X-2340422Y-56003447D01*
X-2425628Y-56022895D01*
X-2498597Y-56039549D01*
X-2566786Y-56072387D01*
X-2644075Y-56109607D01*
X-2644079Y-56109609D01*
X-2650455Y-56112680D01*
X-2782231Y-56217769D01*
X-2887320Y-56349545D01*
X-2890391Y-56355921D01*
X-2890393Y-56355925D01*
X-2923024Y-56423685D01*
X-2960451Y-56501403D01*
X-2997956Y-56665726D01*
X-3000000Y-56750000D01*
X-3000000Y-59416140D01*
X-3002070Y-59438885D01*
X-3034058Y-59613172D01*
X-3034937Y-59620134D01*
X-3058268Y-59953774D01*
X-3058366Y-59960819D01*
X-3044361Y-60294971D01*
X-3043676Y-60301961D01*
X-2992508Y-60632490D01*
X-2991048Y-60639357D01*
X-2903355Y-60962119D01*
X-2901139Y-60968780D01*
X-2778018Y-61279750D01*
X-2775067Y-61286135D01*
X-2618047Y-61581445D01*
X-2614413Y-61587446D01*
X-2425456Y-61863412D01*
X-2421162Y-61868987D01*
X-2260394Y-62055238D01*
X-2247352Y-62063655D01*
X-2237321Y-62057716D01*
X-192417Y-60012812D01*
X-185421Y-60000000D01*
X0Y-60000000D01*
X1480682Y-61480682D01*
X1479974Y-61481389D01*
X1417662Y-61515415D01*
X1346847Y-61510350D01*
X1301784Y-61481389D01*
X12812Y-60192417D01*
X-1132Y-60184803D01*
X-2965Y-60184934D01*
X-9580Y-60189185D01*
X-2055063Y-62234668D01*
X-2062677Y-62248612D01*
X-2062638Y-62249157D01*
X-2057036Y-62257517D01*
X-1952344Y-62354462D01*
X-1946931Y-62358941D01*
X-1677715Y-62557424D01*
X-1671852Y-62561261D01*
X-1382198Y-62728492D01*
X-1375929Y-62731659D01*
X-1069438Y-62865562D01*
X-1062854Y-62868010D01*
X-743353Y-62966912D01*
X-736539Y-62968611D01*
X-407998Y-63031284D01*
X-401049Y-63032211D01*
X-67556Y-63057872D01*
X-60549Y-63058018D01*
X273713Y-63046346D01*
X280709Y-63045709D01*
X611568Y-62996853D01*
X618467Y-62995437D01*
X941834Y-62909999D01*
X948494Y-62907835D01*
X1260329Y-62786882D01*
X1266728Y-62783979D01*
X1563120Y-62629029D01*
X1569165Y-62625426D01*
X1846439Y-62438402D01*
X1852033Y-62434156D01*
X2077970Y-62241869D01*
X2142810Y-62212951D01*
X2212992Y-62223679D01*
X2248728Y-62248728D01*
X3000000Y-63000000D01*
X10501447Y-63000000D01*
X10569568Y-63020002D01*
X10616061Y-63073658D01*
X10627059Y-63135887D01*
X10626000Y-63149341D01*
X10626000Y-63164885D01*
X10630475Y-63180124D01*
X10631865Y-63181329D01*
X10639548Y-63183000D01*
X11577885Y-63183000D01*
X11593124Y-63178526D01*
X11594889Y-63176488D01*
X11654615Y-63138104D01*
X11690114Y-63133000D01*
X12745884Y-63133000D01*
X12761123Y-63128525D01*
X12762328Y-63127135D01*
X12766878Y-63106217D01*
X12769632Y-63106816D01*
X12784001Y-63057879D01*
X12837657Y-63011386D01*
X12889999Y-63000000D01*
X57000000Y-63000000D01*
X57753134Y-62246866D01*
X57815446Y-62212840D01*
X57886261Y-62217905D01*
X57927838Y-62243511D01*
X58047654Y-62354462D01*
X58053065Y-62358938D01*
X58322285Y-62557424D01*
X58328148Y-62561261D01*
X58617802Y-62728492D01*
X58624071Y-62731659D01*
X58930562Y-62865562D01*
X58937146Y-62868010D01*
X59256647Y-62966912D01*
X59263461Y-62968611D01*
X59592002Y-63031284D01*
X59598951Y-63032211D01*
X59932444Y-63057872D01*
X59939451Y-63058018D01*
X60273713Y-63046346D01*
X60280709Y-63045709D01*
X60611568Y-62996853D01*
X60618467Y-62995437D01*
X60941834Y-62909999D01*
X60948494Y-62907835D01*
X61260329Y-62786882D01*
X61266728Y-62783979D01*
X61563120Y-62629029D01*
X61569165Y-62625426D01*
X61846439Y-62438402D01*
X61852033Y-62434156D01*
X62055690Y-62260831D01*
X62064122Y-62247963D01*
X62058093Y-62237698D01*
X60012812Y-60192417D01*
X59998868Y-60184803D01*
X59997035Y-60184934D01*
X59990420Y-60189185D01*
X58698216Y-61481389D01*
X58635904Y-61515415D01*
X58565089Y-61510350D01*
X58520026Y-61481389D01*
X58519319Y-61480682D01*
X61480682Y-58519319D01*
X61481389Y-58520026D01*
X61515415Y-58582338D01*
X61510350Y-58653153D01*
X61481389Y-58698216D01*
X60192417Y-59987188D01*
X60184803Y-60001132D01*
X60184934Y-60002965D01*
X60189185Y-60009580D01*
X62234769Y-62055164D01*
X62248713Y-62062778D01*
X62249492Y-62062723D01*
X62257542Y-62057368D01*
X62340765Y-61968744D01*
X62345301Y-61963338D01*
X62545640Y-61695540D01*
X62549530Y-61689686D01*
X62718774Y-61401215D01*
X62721989Y-61394961D01*
X62858024Y-61089422D01*
X62860521Y-61082847D01*
X62961648Y-60764056D01*
X62963400Y-60757233D01*
X63028361Y-60429155D01*
X63029338Y-60422201D01*
X63057436Y-60087591D01*
X63057650Y-60083222D01*
X63058782Y-60002178D01*
X63058691Y-59997828D01*
X63039945Y-59662546D01*
X63039163Y-59655572D01*
X62983386Y-59325793D01*
X62981828Y-59318939D01*
X62889639Y-58997439D01*
X62887331Y-58990811D01*
X62759874Y-58681576D01*
X62756845Y-58675256D01*
X62595715Y-58382161D01*
X62591990Y-58376199D01*
X62399202Y-58102905D01*
X62394834Y-58097394D01*
X62242174Y-57925448D01*
X62211905Y-57861227D01*
X62221161Y-57790836D01*
X62247302Y-57752698D01*
X63000000Y-57000000D01*
X63000000Y-50686573D01*
X63020002Y-50618452D01*
X63073658Y-50571959D01*
X63125031Y-50560577D01*
X63268814Y-50559471D01*
X63931213Y-50554376D01*
X63999485Y-50573853D01*
X64007691Y-50579504D01*
X64135848Y-50675441D01*
X64149434Y-50687214D01*
X64312786Y-50850566D01*
X64324559Y-50864152D01*
X64463006Y-51049095D01*
X64472725Y-51064218D01*
X64583444Y-51266983D01*
X64590910Y-51283330D01*
X64636050Y-51404355D01*
X64671645Y-51499791D01*
X64676710Y-51517040D01*
X64725818Y-51742786D01*
X64728376Y-51760580D01*
X64742931Y-51964077D01*
X64742971Y-51964639D01*
X64742295Y-51975421D01*
X64742935Y-51975421D01*
X64742935Y-51987828D01*
X64740514Y-52000000D01*
X64742935Y-52012170D01*
X64743079Y-52012894D01*
X64745500Y-52037476D01*
X64745500Y-59962524D01*
X64743079Y-59987103D01*
X64740514Y-60000000D01*
X64742935Y-60012170D01*
X64742935Y-60022599D01*
X64743940Y-60035735D01*
X64727682Y-60408102D01*
X64726724Y-60419051D01*
X64682202Y-60757233D01*
X64674123Y-60818596D01*
X64672215Y-60829413D01*
X64584992Y-61222854D01*
X64582147Y-61233471D01*
X64472314Y-61581819D01*
X64460967Y-61617806D01*
X64457211Y-61628128D01*
X64306839Y-61991160D01*
X64302987Y-62000459D01*
X64298345Y-62010412D01*
X64147595Y-62300000D01*
X64112266Y-62367867D01*
X64106770Y-62377387D01*
X63890245Y-62717262D01*
X63883941Y-62726266D01*
X63830180Y-62796329D01*
X63638607Y-63045993D01*
X63631555Y-63054397D01*
X63563629Y-63128525D01*
X63359291Y-63351519D01*
X63351519Y-63359291D01*
X63229980Y-63470662D01*
X63054397Y-63631555D01*
X63045993Y-63638607D01*
X62851123Y-63788135D01*
X62726266Y-63883941D01*
X62717262Y-63890245D01*
X62377387Y-64106770D01*
X62367868Y-64112265D01*
X62010412Y-64298345D01*
X62000468Y-64302983D01*
X61628128Y-64457211D01*
X61617813Y-64460964D01*
X61233472Y-64582147D01*
X61222855Y-64584992D01*
X60829413Y-64672215D01*
X60818604Y-64674122D01*
X60419052Y-64726724D01*
X60408103Y-64727682D01*
X60356412Y-64729939D01*
X60035735Y-64743940D01*
X60022599Y-64742935D01*
X60012170Y-64742935D01*
X60000000Y-64740514D01*
X59987103Y-64743079D01*
X59962524Y-64745500D01*
X37476Y-64745500D01*
X12897Y-64743079D01*
X0Y-64740514D01*
X-12170Y-64742935D01*
X-22599Y-64742935D01*
X-35735Y-64743940D01*
X-356412Y-64729939D01*
X-408103Y-64727682D01*
X-419052Y-64726724D01*
X-818604Y-64674122D01*
X-829413Y-64672215D01*
X-1222855Y-64584992D01*
X-1233472Y-64582147D01*
X-1617813Y-64460964D01*
X-1628128Y-64457211D01*
X-2000468Y-64302983D01*
X-2010412Y-64298345D01*
X-2367868Y-64112265D01*
X-2377387Y-64106770D01*
X-2717262Y-63890245D01*
X-2726266Y-63883941D01*
X-2851123Y-63788135D01*
X-3045993Y-63638607D01*
X-3054397Y-63631555D01*
X-3229980Y-63470662D01*
X10626000Y-63470662D01*
X10626775Y-63480508D01*
X10638876Y-63556913D01*
X10644928Y-63575540D01*
X10691869Y-63667667D01*
X10703380Y-63683510D01*
X10776490Y-63756620D01*
X10792333Y-63768131D01*
X10884460Y-63815072D01*
X10903087Y-63821124D01*
X10979492Y-63833225D01*
X10989338Y-63834000D01*
X11054885Y-63834000D01*
X11070124Y-63829525D01*
X11071329Y-63828135D01*
X11073000Y-63820452D01*
X11073000Y-63815885D01*
X11327000Y-63815885D01*
X11331475Y-63831124D01*
X11332865Y-63832329D01*
X11340548Y-63834000D01*
X11410662Y-63834000D01*
X11420508Y-63833225D01*
X11496913Y-63821124D01*
X11515540Y-63815072D01*
X11607667Y-63768131D01*
X11623510Y-63756620D01*
X11640543Y-63739587D01*
X11702855Y-63705561D01*
X11773670Y-63710626D01*
X11803706Y-63726751D01*
X11804364Y-63727229D01*
X11897897Y-63774886D01*
X11916521Y-63780938D01*
X11994103Y-63793225D01*
X12003946Y-63794000D01*
X12054885Y-63794000D01*
X12070124Y-63789525D01*
X12071329Y-63788135D01*
X12073000Y-63780452D01*
X12073000Y-63775884D01*
X12327000Y-63775884D01*
X12331475Y-63791123D01*
X12332865Y-63792328D01*
X12340548Y-63793999D01*
X12396051Y-63793999D01*
X12405900Y-63793224D01*
X12483472Y-63780939D01*
X12502108Y-63774884D01*
X12595642Y-63727226D01*
X12611485Y-63715715D01*
X12685715Y-63641485D01*
X12697226Y-63625642D01*
X12744886Y-63532103D01*
X12750938Y-63513479D01*
X12763225Y-63435897D01*
X12764000Y-63426054D01*
X12764000Y-63405115D01*
X12759525Y-63389876D01*
X12758135Y-63388671D01*
X12750452Y-63387000D01*
X12345115Y-63387000D01*
X12329876Y-63391475D01*
X12328671Y-63392865D01*
X12327000Y-63400548D01*
X12327000Y-63775884D01*
X12073000Y-63775884D01*
X12073000Y-63405115D01*
X12068525Y-63389876D01*
X12067135Y-63388671D01*
X12059452Y-63387000D01*
X11832115Y-63387000D01*
X11816876Y-63391474D01*
X11815111Y-63393512D01*
X11755385Y-63431896D01*
X11719886Y-63437000D01*
X11345115Y-63437000D01*
X11329876Y-63441475D01*
X11328671Y-63442865D01*
X11327000Y-63450548D01*
X11327000Y-63815885D01*
X11073000Y-63815885D01*
X11073000Y-63455115D01*
X11068525Y-63439876D01*
X11067135Y-63438671D01*
X11059452Y-63437000D01*
X10644115Y-63437000D01*
X10628876Y-63441475D01*
X10627671Y-63442865D01*
X10626000Y-63450548D01*
X10626000Y-63470662D01*
X-3229980Y-63470662D01*
X-3351519Y-63359291D01*
X-3359291Y-63351519D01*
X-3563629Y-63128525D01*
X-3631555Y-63054397D01*
X-3638607Y-63045993D01*
X-3830180Y-62796329D01*
X-3883941Y-62726266D01*
X-3890245Y-62717262D01*
X-4106770Y-62377387D01*
X-4112266Y-62367867D01*
X-4147595Y-62300000D01*
X-4298345Y-62010412D01*
X-4302987Y-62000459D01*
X-4306838Y-61991160D01*
X-4457211Y-61628128D01*
X-4460967Y-61617806D01*
X-4472313Y-61581819D01*
X-4582147Y-61233471D01*
X-4584992Y-61222854D01*
X-4672215Y-60829413D01*
X-4674123Y-60818596D01*
X-4682201Y-60757233D01*
X-4726724Y-60419051D01*
X-4727682Y-60408102D01*
X-4743940Y-60035735D01*
X-4742935Y-60022599D01*
X-4742935Y-60012170D01*
X-4740514Y-60000000D01*
X-4743079Y-59987103D01*
X-4745500Y-59962524D01*
X-4745500Y-56787476D01*
X-4743079Y-56762894D01*
X-4742935Y-56762170D01*
X-4740514Y-56750000D01*
X-4742935Y-56737828D01*
X-4742935Y-56725420D01*
X-4742615Y-56725420D01*
X-4743355Y-56714544D01*
X-4729588Y-56486943D01*
X-4727754Y-56471839D01*
X-4681624Y-56220115D01*
X-4677983Y-56205342D01*
X-4668507Y-56174933D01*
X-4601844Y-55961004D01*
X-4596450Y-55946782D01*
X-4595178Y-55943957D01*
X-4491420Y-55713414D01*
X-4484350Y-55699943D01*
X-4351951Y-55480931D01*
X-4343308Y-55468410D01*
X-4185481Y-55266957D01*
X-4175391Y-55255568D01*
X-3994432Y-55074609D01*
X-3983043Y-55064519D01*
X-3781590Y-54906692D01*
X-3769069Y-54898049D01*
X-3550057Y-54765650D01*
X-3536584Y-54758579D01*
X-3303214Y-54653549D01*
X-3288996Y-54648156D01*
X-3044658Y-54572017D01*
X-3029885Y-54568376D01*
X-2778161Y-54522246D01*
X-2763057Y-54520412D01*
X-2535456Y-54506645D01*
X-2524580Y-54507385D01*
X-2524580Y-54507065D01*
X-2512172Y-54507065D01*
X-2500000Y-54509486D01*
X-2495475Y-54508586D01*
X-2191108Y-54491493D01*
X-1886100Y-54439670D01*
X-1609560Y-54360000D01*
X-1592211Y-54355002D01*
X-1592210Y-54355002D01*
X-1588813Y-54354023D01*
X-1554881Y-54339968D01*
X-1306252Y-54236983D01*
X-1306247Y-54236980D01*
X-1302984Y-54235629D01*
X-1032209Y-54085977D01*
X-779891Y-53906948D01*
X-549206Y-53700794D01*
X-343052Y-53470109D01*
X-164023Y-53217791D01*
X-14371Y-52947016D01*
X-9126Y-52934355D01*
X102669Y-52664456D01*
X102669Y-52664455D01*
X104023Y-52661187D01*
X189670Y-52363900D01*
X241493Y-52058892D01*
X258586Y-51754525D01*
X259486Y-51750000D01*
X256921Y-51737103D01*
X254500Y-51712524D01*
X254500Y-44287476D01*
X256921Y-44262894D01*
X259486Y-44250000D01*
X258586Y-44245475D01*
X241493Y-43941108D01*
X189670Y-43636100D01*
X104023Y-43338813D01*
X52388Y-43214154D01*
X-13017Y-43056252D01*
X-13020Y-43056247D01*
X-14371Y-43052984D01*
X-164023Y-42782209D01*
X-328037Y-42551052D01*
X-341017Y-42532759D01*
X-341017Y-42532758D01*
X-343052Y-42529891D01*
X-549206Y-42299206D01*
X-779891Y-42093052D01*
X-790892Y-42085246D01*
X-1022219Y-41921111D01*
X-1032209Y-41914023D01*
X-1223016Y-41808568D01*
X-1299888Y-41766082D01*
X-1299889Y-41766081D01*
X-1302984Y-41764371D01*
X-1306247Y-41763020D01*
X-1306252Y-41763017D01*
X-1585544Y-41647331D01*
X-1585545Y-41647331D01*
X-1588813Y-41645977D01*
X-1886100Y-41560330D01*
X-2191108Y-41508507D01*
X-2495475Y-41491414D01*
X-2500000Y-41490514D01*
X-2512172Y-41492935D01*
X-2524580Y-41492935D01*
X-2524580Y-41492615D01*
X-2535456Y-41493355D01*
X-2763057Y-41479588D01*
X-2778161Y-41477754D01*
X-3029885Y-41431624D01*
X-3044658Y-41427983D01*
X-3112162Y-41406948D01*
X-3288996Y-41351844D01*
X-3303214Y-41346451D01*
X-3536586Y-41241420D01*
X-3550057Y-41234350D01*
X-3769069Y-41101951D01*
X-3781590Y-41093308D01*
X-3983043Y-40935481D01*
X-3994432Y-40925391D01*
X-4175391Y-40744432D01*
X-4185481Y-40733043D01*
X-4188257Y-40729499D01*
X-4254206Y-40645321D01*
X-4343308Y-40531590D01*
X-4351951Y-40519069D01*
X-4484350Y-40300057D01*
X-4491421Y-40286584D01*
X-4559754Y-40134754D01*
X-4596451Y-40053214D01*
X-4601846Y-40038991D01*
X-4615901Y-39993885D01*
X-4677983Y-39794658D01*
X-4681624Y-39779885D01*
X-4727754Y-39528161D01*
X-4729588Y-39513057D01*
X-4743355Y-39285456D01*
X-4742615Y-39274580D01*
X-4742935Y-39274580D01*
X-4742935Y-39262172D01*
X-4740514Y-39250000D01*
X-4743079Y-39237103D01*
X-4745500Y-39212524D01*
X-4745500Y-38616078D01*
X-4725498Y-38547957D01*
X-4671842Y-38501464D01*
X-4601568Y-38491360D01*
X-4536988Y-38520854D01*
X-4507534Y-38558289D01*
X-4465859Y-38639033D01*
X-4457384Y-38651505D01*
X-4356154Y-38767547D01*
X-4344940Y-38777644D01*
X-4218959Y-38866185D01*
X-4205655Y-38873318D01*
X-4062187Y-38929253D01*
X-4047582Y-38933003D01*
X-3930161Y-38948462D01*
X-3921952Y-38949000D01*
X-3695115Y-38949000D01*
X-3679876Y-38944525D01*
X-3678671Y-38943135D01*
X-3677000Y-38935452D01*
X-3677000Y-38930885D01*
X-3423000Y-38930885D01*
X-3418525Y-38946124D01*
X-3417135Y-38947329D01*
X-3409452Y-38949000D01*
X-3181363Y-38949000D01*
X-3173808Y-38948544D01*
X-3059580Y-38934721D01*
X-3044938Y-38931125D01*
X-2900881Y-38876690D01*
X-2887520Y-38869705D01*
X-2760607Y-38782481D01*
X-2749295Y-38772508D01*
X-2646854Y-38657531D01*
X-2638246Y-38645145D01*
X-2566189Y-38509053D01*
X-2560784Y-38494973D01*
X-2535564Y-38394571D01*
X-2536121Y-38380480D01*
X-2544613Y-38377000D01*
X-3404885Y-38377000D01*
X-3420124Y-38381475D01*
X-3421329Y-38382865D01*
X-3423000Y-38390548D01*
X-3423000Y-38930885D01*
X-3677000Y-38930885D01*
X-3677000Y-38104885D01*
X-3423000Y-38104885D01*
X-3418525Y-38120124D01*
X-3417135Y-38121329D01*
X-3409452Y-38123000D01*
X-2539115Y-38123000D01*
X-2523876Y-38118525D01*
X-2522671Y-38117135D01*
X-2521000Y-38109452D01*
X-2521000Y-37795115D01*
X-2525475Y-37779876D01*
X-2526865Y-37778671D01*
X-2534548Y-37777000D01*
X-3404885Y-37777000D01*
X-3420124Y-37781475D01*
X-3421329Y-37782865D01*
X-3423000Y-37790548D01*
X-3423000Y-38104885D01*
X-3677000Y-38104885D01*
X-3677000Y-37504885D01*
X-3423000Y-37504885D01*
X-3418525Y-37520124D01*
X-3417135Y-37521329D01*
X-3409452Y-37523000D01*
X-2539116Y-37523000D01*
X-2523877Y-37518525D01*
X-2522672Y-37517135D01*
X-2521001Y-37509452D01*
X-2521001Y-37438906D01*
X-1579000Y-37438906D01*
X-1578576Y-37446207D01*
X-1565125Y-37561575D01*
X-1561779Y-37575730D01*
X-1508773Y-37721760D01*
X-1502263Y-37734759D01*
X-1417083Y-37864680D01*
X-1407759Y-37875832D01*
X-1294977Y-37982671D01*
X-1283330Y-37991384D01*
X-1148996Y-38069412D01*
X-1135659Y-38075211D01*
X-988223Y-38119865D01*
X-979732Y-38117935D01*
X-977000Y-38107020D01*
X-977000Y-37395115D01*
X-981475Y-37379876D01*
X-982865Y-37378671D01*
X-990548Y-37377000D01*
X-1560885Y-37377000D01*
X-1576124Y-37381475D01*
X-1577329Y-37382865D01*
X-1579000Y-37390548D01*
X-1579000Y-37438906D01*
X-2521001Y-37438906D01*
X-2521001Y-37031172D01*
X-2522209Y-37018912D01*
X-2533315Y-36963069D01*
X-2542633Y-36940573D01*
X-2584983Y-36877192D01*
X-2598080Y-36864095D01*
X-2632106Y-36801783D01*
X-2627041Y-36730968D01*
X-2598080Y-36685905D01*
X-2584983Y-36672808D01*
X-2542632Y-36609425D01*
X-2533316Y-36586934D01*
X-2522207Y-36531085D01*
X-2521000Y-36518830D01*
X-2521000Y-35895115D01*
X-2525475Y-35879876D01*
X-2526865Y-35878671D01*
X-2534548Y-35877000D01*
X-3404885Y-35877000D01*
X-3420124Y-35881475D01*
X-3421329Y-35882865D01*
X-3423000Y-35890548D01*
X-3423000Y-36735882D01*
X-3422855Y-36736376D01*
X-3420631Y-36798654D01*
X-3423000Y-36809545D01*
X-3423000Y-37504885D01*
X-3677000Y-37504885D01*
X-3677000Y-36814118D01*
X-3677145Y-36813624D01*
X-3679369Y-36751346D01*
X-3677000Y-36740455D01*
X-3677000Y-35604885D01*
X-3423000Y-35604885D01*
X-3418525Y-35620124D01*
X-3417135Y-35621329D01*
X-3409452Y-35623000D01*
X-2539116Y-35623000D01*
X-2523877Y-35618525D01*
X-2522672Y-35617135D01*
X-2521001Y-35609452D01*
X-2521001Y-34981172D01*
X-2522209Y-34968912D01*
X-2533315Y-34913069D01*
X-2542633Y-34890573D01*
X-2589787Y-34820002D01*
X-2611002Y-34752249D01*
X-2589787Y-34679998D01*
X-2542632Y-34609426D01*
X-2533316Y-34586934D01*
X-2522207Y-34531085D01*
X-2521000Y-34518830D01*
X-2521000Y-33895115D01*
X-2525475Y-33879876D01*
X-2526865Y-33878671D01*
X-2534548Y-33877000D01*
X-3404885Y-33877000D01*
X-3420124Y-33881475D01*
X-3421329Y-33882865D01*
X-3423000Y-33890548D01*
X-3423000Y-35604885D01*
X-3677000Y-35604885D01*
X-3677000Y-33604885D01*
X-3423000Y-33604885D01*
X-3418525Y-33620124D01*
X-3417135Y-33621329D01*
X-3409452Y-33623000D01*
X-2539116Y-33623000D01*
X-2523877Y-33618525D01*
X-2522672Y-33617135D01*
X-2521001Y-33609452D01*
X-2521001Y-32981172D01*
X-2522209Y-32968912D01*
X-2533315Y-32913069D01*
X-2542633Y-32890573D01*
X-2584983Y-32827192D01*
X-2598080Y-32814095D01*
X-2632106Y-32751783D01*
X-2627041Y-32680968D01*
X-2598080Y-32635905D01*
X-2584983Y-32622808D01*
X-2542632Y-32559425D01*
X-2533316Y-32536934D01*
X-2522207Y-32481085D01*
X-2521000Y-32468830D01*
X-2521000Y-31995115D01*
X-2525475Y-31979876D01*
X-2526865Y-31978671D01*
X-2534548Y-31977000D01*
X-3404885Y-31977000D01*
X-3420124Y-31981475D01*
X-3421329Y-31982865D01*
X-3423000Y-31990548D01*
X-3423000Y-32685882D01*
X-3422855Y-32686376D01*
X-3420631Y-32748654D01*
X-3423000Y-32759545D01*
X-3423000Y-33604885D01*
X-3677000Y-33604885D01*
X-3677000Y-32764118D01*
X-3677145Y-32763624D01*
X-3679369Y-32701346D01*
X-3677000Y-32690455D01*
X-3677000Y-31704885D01*
X-3423000Y-31704885D01*
X-3418525Y-31720124D01*
X-3417135Y-31721329D01*
X-3409452Y-31723000D01*
X-2539116Y-31723000D01*
X-2523877Y-31718525D01*
X-2522672Y-31717135D01*
X-2521001Y-31709452D01*
X-2521001Y-31395115D01*
X-2525476Y-31379876D01*
X-2526866Y-31378671D01*
X-2534549Y-31377000D01*
X-3404885Y-31377000D01*
X-3420124Y-31381475D01*
X-3421329Y-31382865D01*
X-3423000Y-31390548D01*
X-3423000Y-31704885D01*
X-3677000Y-31704885D01*
X-3677000Y-31104885D01*
X-3423000Y-31104885D01*
X-3418525Y-31120124D01*
X-3417135Y-31121329D01*
X-3409452Y-31123000D01*
X-2549707Y-31123000D01*
X-2536176Y-31119027D01*
X-2534816Y-31109569D01*
X-2558254Y-31011948D01*
X-2563513Y-30997807D01*
X-2634141Y-30860967D01*
X-2642616Y-30848495D01*
X-2743846Y-30732453D01*
X-2755060Y-30722356D01*
X-2881041Y-30633815D01*
X-2894345Y-30626682D01*
X-3037813Y-30570747D01*
X-3052418Y-30566997D01*
X-3169839Y-30551538D01*
X-3178048Y-30551000D01*
X-3404885Y-30551000D01*
X-3420124Y-30555475D01*
X-3421329Y-30556865D01*
X-3423000Y-30564548D01*
X-3423000Y-31104885D01*
X-3677000Y-31104885D01*
X-3677000Y-30569115D01*
X-3681475Y-30553876D01*
X-3682865Y-30552671D01*
X-3690548Y-30551000D01*
X-3918637Y-30551000D01*
X-3926192Y-30551456D01*
X-4040420Y-30565279D01*
X-4055062Y-30568875D01*
X-4199119Y-30623310D01*
X-4212480Y-30630295D01*
X-4339393Y-30717519D01*
X-4350705Y-30727492D01*
X-4453146Y-30842469D01*
X-4461754Y-30854855D01*
X-4508146Y-30942474D01*
X-4557699Y-30993317D01*
X-4626873Y-31009299D01*
X-4693707Y-30985345D01*
X-4736980Y-30929061D01*
X-4745500Y-30883515D01*
X-4745500Y-37476D01*
X-4743079Y-12894D01*
X-4740514Y0D01*
X-4742935Y12170D01*
X-4742935Y22599D01*
X-4743940Y35735D01*
X-4727682Y408102D01*
X-4726724Y419052D01*
X-4724719Y434284D01*
X-4674122Y818604D01*
X-4672214Y829421D01*
X-4661677Y876948D01*
X-4584992Y1222855D01*
X-4582147Y1233472D01*
X-4553369Y1324744D01*
X-4460964Y1617813D01*
X-4457208Y1628135D01*
X-4302983Y2000468D01*
X-4298341Y2010421D01*
X-4274192Y2056809D01*
X-4112265Y2367868D01*
X-4106770Y2377387D01*
X-4101348Y2385897D01*
X-3890245Y2717262D01*
X-3883941Y2726266D01*
X-3764005Y2882570D01*
X-3638607Y3045993D01*
X-3631555Y3054397D01*
X-3470515Y3230140D01*
X-3359291Y3351519D01*
X-3351519Y3359291D01*
X-3130501Y3561818D01*
X-3054397Y3631555D01*
X-3045993Y3638607D01*
X-2726266Y3883941D01*
X-2717262Y3890245D01*
X-2377387Y4106770D01*
X-2367867Y4112266D01*
X-2295219Y4150084D01*
X-2010412Y4298345D01*
X-2000468Y4302983D01*
X-1628128Y4457211D01*
X-1617813Y4460964D01*
X-1233471Y4582147D01*
X-1222854Y4584992D01*
X-829413Y4672215D01*
X-818604Y4674122D01*
X-419051Y4726724D01*
X-408103Y4727682D01*
X-356412Y4729939D01*
X-35735Y4743940D01*
X-22599Y4742935D01*
X-12170Y4742935D01*
X0Y4740514D01*
X12897Y4743079D01*
X37476Y4745500D01*
X59962524Y4745500D01*
X59987103Y4743079D01*
G37*
%TD.AperFunction*%
%TA.AperFunction,Conductor*%
G36*
X3332460Y-28020002D02*
G01*
X3353434Y-28036905D01*
X3673323Y-28356794D01*
X3680865Y-28366234D01*
X3681245Y-28365911D01*
X3687063Y-28372747D01*
X3691853Y-28380339D01*
X3698581Y-28386281D01*
X3731859Y-28415671D01*
X3737546Y-28421017D01*
X3748880Y-28432351D01*
X3752466Y-28435038D01*
X3752471Y-28435043D01*
X3757159Y-28438557D01*
X3764997Y-28444938D01*
X3800170Y-28476001D01*
X3808293Y-28479815D01*
X3811104Y-28481661D01*
X3825103Y-28490072D01*
X3828052Y-28491686D01*
X3835235Y-28497070D01*
X3872023Y-28510861D01*
X3879174Y-28513542D01*
X3888494Y-28517469D01*
X3930982Y-28537417D01*
X3939853Y-28538798D01*
X3943075Y-28539783D01*
X3958846Y-28543920D01*
X3962140Y-28544644D01*
X3970552Y-28547798D01*
X3979510Y-28548464D01*
X3979511Y-28548464D01*
X4017350Y-28551276D01*
X4027374Y-28552426D01*
X4040697Y-28554500D01*
X4056062Y-28554500D01*
X4065399Y-28554846D01*
X4114666Y-28558507D01*
X4123441Y-28556634D01*
X4132137Y-28556041D01*
X4146737Y-28554500D01*
X4374000Y-28554500D01*
X4442121Y-28574502D01*
X4488614Y-28628158D01*
X4500000Y-28680500D01*
X4500000Y-29125165D01*
X4479998Y-29193286D01*
X4470529Y-29206147D01*
X4417163Y-29269745D01*
X4322262Y-29442371D01*
X4320398Y-29448246D01*
X4320397Y-29448249D01*
X4310851Y-29478342D01*
X4262697Y-29630142D01*
X4240738Y-29825907D01*
X4241254Y-29832051D01*
X4243891Y-29863457D01*
X4229659Y-29933013D01*
X4180082Y-29983832D01*
X4118333Y-30000000D01*
X2422318Y-30000000D01*
X2354197Y-29979998D01*
X2307704Y-29926342D01*
X2298083Y-29859424D01*
X2297305Y-29859340D01*
X2297634Y-29856307D01*
X2297600Y-29856068D01*
X2297741Y-29855328D01*
X2303631Y-29801108D01*
X2304000Y-29794294D01*
X2304000Y-29570115D01*
X2299525Y-29554876D01*
X2298135Y-29553671D01*
X2290452Y-29552000D01*
X1349000Y-29552000D01*
X1280879Y-29531998D01*
X1234386Y-29478342D01*
X1223000Y-29426000D01*
X1223000Y-29279885D01*
X1477000Y-29279885D01*
X1481475Y-29295124D01*
X1482865Y-29296329D01*
X1490548Y-29298000D01*
X2285884Y-29298000D01*
X2301123Y-29293525D01*
X2302328Y-29292135D01*
X2303999Y-29284452D01*
X2303999Y-29055708D01*
X2303630Y-29048890D01*
X2298159Y-28998518D01*
X2294530Y-28983259D01*
X2249778Y-28863882D01*
X2241246Y-28848296D01*
X2165428Y-28747133D01*
X2152867Y-28734572D01*
X2051704Y-28658754D01*
X2036118Y-28650222D01*
X1916735Y-28605467D01*
X1901490Y-28601842D01*
X1851108Y-28596369D01*
X1844294Y-28596000D01*
X1495115Y-28596000D01*
X1479876Y-28600475D01*
X1478671Y-28601865D01*
X1477000Y-28609548D01*
X1477000Y-29279885D01*
X1223000Y-29279885D01*
X1223000Y-28614116D01*
X1218525Y-28598877D01*
X1217135Y-28597672D01*
X1209452Y-28596001D01*
X855708Y-28596001D01*
X848890Y-28596370D01*
X798518Y-28601841D01*
X783259Y-28605470D01*
X670229Y-28647842D01*
X599422Y-28653025D01*
X537053Y-28619104D01*
X502924Y-28556848D01*
X500000Y-28529860D01*
X500000Y-28126000D01*
X520002Y-28057879D01*
X573658Y-28011386D01*
X626000Y-28000000D01*
X3264339Y-28000000D01*
X3332460Y-28020002D01*
G37*
%TD.AperFunction*%
%TA.AperFunction,Conductor*%
G36*
X461947Y-30020002D02*
G01*
X494652Y-30050435D01*
X539596Y-30110404D01*
X546776Y-30115785D01*
X648054Y-30191689D01*
X648057Y-30191691D01*
X655236Y-30197071D01*
X722621Y-30222332D01*
X783157Y-30245026D01*
X783159Y-30245026D01*
X790552Y-30247798D01*
X798402Y-30248651D01*
X798403Y-30248651D01*
X848847Y-30254131D01*
X852244Y-30254500D01*
X1847756Y-30254500D01*
X1851153Y-30254131D01*
X1901597Y-30248651D01*
X1901598Y-30248651D01*
X1909448Y-30247798D01*
X1916841Y-30245026D01*
X1916843Y-30245026D01*
X1977379Y-30222332D01*
X2044764Y-30197071D01*
X2053813Y-30190289D01*
X2055983Y-30189478D01*
X2059821Y-30187377D01*
X2060124Y-30187931D01*
X2120319Y-30165442D01*
X2189702Y-30180495D01*
X2189844Y-30180584D01*
X2191369Y-30182056D01*
X2281088Y-30228987D01*
X2287024Y-30230730D01*
X2344886Y-30247720D01*
X2344890Y-30247721D01*
X2349209Y-30248989D01*
X2353657Y-30249629D01*
X2353664Y-30249630D01*
X2417870Y-30258861D01*
X2417877Y-30258861D01*
X2422318Y-30259500D01*
X3874000Y-30259500D01*
X3942121Y-30279502D01*
X3988614Y-30333158D01*
X4000000Y-30385500D01*
X4000000Y-33374000D01*
X3979998Y-33442121D01*
X3926342Y-33488614D01*
X3874000Y-33500000D01*
X3791028Y-33500000D01*
X3722907Y-33479998D01*
X3701933Y-33463095D01*
X3641405Y-33402567D01*
X3607379Y-33340255D01*
X3604500Y-33313472D01*
X3604500Y-32768166D01*
X3589498Y-32673445D01*
X3531326Y-32559277D01*
X3440723Y-32468674D01*
X3326555Y-32410502D01*
X3231834Y-32395500D01*
X2868166Y-32395500D01*
X2773445Y-32410502D01*
X2717648Y-32438932D01*
X2668110Y-32464173D01*
X2668109Y-32464174D01*
X2659277Y-32468674D01*
X2652266Y-32475685D01*
X2648631Y-32478326D01*
X2581764Y-32502185D01*
X2512612Y-32486106D01*
X2500505Y-32478325D01*
X2481589Y-32464581D01*
X2385232Y-32415485D01*
X2366608Y-32409433D01*
X2286685Y-32396775D01*
X2276842Y-32396000D01*
X2223434Y-32396000D01*
X2155313Y-32375998D01*
X2108820Y-32322342D01*
X2098716Y-32252068D01*
X2128210Y-32187488D01*
X2147868Y-32169174D01*
X2152869Y-32165426D01*
X2165428Y-32152867D01*
X2241246Y-32051704D01*
X2249778Y-32036118D01*
X2294533Y-31916735D01*
X2298158Y-31901490D01*
X2303631Y-31851108D01*
X2304000Y-31844294D01*
X2304000Y-31620115D01*
X2299525Y-31604876D01*
X2298135Y-31603671D01*
X2290452Y-31602000D01*
X414116Y-31602000D01*
X398877Y-31606475D01*
X397672Y-31607865D01*
X396001Y-31615548D01*
X396001Y-31844292D01*
X396370Y-31851110D01*
X401841Y-31901482D01*
X405470Y-31916741D01*
X450222Y-32036118D01*
X458754Y-32051704D01*
X534572Y-32152867D01*
X547133Y-32165428D01*
X648296Y-32241246D01*
X663878Y-32249776D01*
X709229Y-32266777D01*
X765994Y-32309418D01*
X790695Y-32375980D01*
X775488Y-32445329D01*
X754096Y-32473855D01*
X668674Y-32559277D01*
X610502Y-32673445D01*
X595500Y-32768166D01*
X595500Y-33313471D01*
X575498Y-33381592D01*
X558595Y-33402566D01*
X498066Y-33463095D01*
X435754Y-33497121D01*
X408971Y-33500000D01*
X193905Y-33500000D01*
X125784Y-33479998D01*
X125652Y-33479845D01*
X114648Y-33500000D01*
X0Y-33500000D01*
X0Y-33577000D01*
X-851000Y-33577000D01*
X-919121Y-33556998D01*
X-965614Y-33503342D01*
X-977000Y-33451000D01*
X-977000Y-33449000D01*
X-956998Y-33380879D01*
X-903342Y-33334386D01*
X-851000Y-33323000D01*
X4094Y-33323000D01*
X71732Y-33342860D01*
X78999Y-33309453D01*
X78999Y-33231172D01*
X77791Y-33218912D01*
X66685Y-33163069D01*
X57367Y-33140573D01*
X15017Y-33077192D01*
X-2192Y-33059983D01*
X-65575Y-33017632D01*
X-88066Y-33008316D01*
X-149983Y-32996000D01*
X-149746Y-32994810D01*
X-209607Y-32970634D01*
X-250614Y-32912677D01*
X-253776Y-32841751D01*
X-238753Y-32807619D01*
X-238958Y-32807514D01*
X-237136Y-32803945D01*
X-161598Y-32656014D01*
X-121166Y-32490781D01*
X-120500Y-32480046D01*
X-120500Y-32057405D01*
X-135233Y-31931036D01*
X-145957Y-31901490D01*
X-190777Y-31778015D01*
X-193274Y-31771136D01*
X-286543Y-31628877D01*
X-410038Y-31511890D01*
X-416365Y-31508215D01*
X-416369Y-31508212D01*
X-550802Y-31430128D01*
X-557132Y-31426451D01*
X-564136Y-31424330D01*
X-564140Y-31424328D01*
X-712931Y-31379264D01*
X-712930Y-31379264D01*
X-719937Y-31377142D01*
X-889719Y-31366609D01*
X-896935Y-31367849D01*
X-896937Y-31367849D01*
X-1050154Y-31394177D01*
X-1057370Y-31395417D01*
X-1213898Y-31462020D01*
X-1219786Y-31466353D01*
X-1219791Y-31466356D01*
X-1345006Y-31558504D01*
X-1345010Y-31558508D01*
X-1350905Y-31562846D01*
X-1461042Y-31692486D01*
X-1538402Y-31843986D01*
X-1540141Y-31851091D01*
X-1540142Y-31851095D01*
X-1556205Y-31916741D01*
X-1578834Y-32009219D01*
X-1579500Y-32019954D01*
X-1579500Y-32442595D01*
X-1569121Y-32531615D01*
X-1565896Y-32559277D01*
X-1564767Y-32568964D01*
X-1562271Y-32575841D01*
X-1562270Y-32575844D01*
X-1509223Y-32721985D01*
X-1506726Y-32728864D01*
X-1458586Y-32802290D01*
X-1437963Y-32870224D01*
X-1457343Y-32938524D01*
X-1510572Y-32985505D01*
X-1551604Y-32996767D01*
X-1556089Y-32997209D01*
X-1611931Y-33008315D01*
X-1634427Y-33017633D01*
X-1697808Y-33059983D01*
X-1715017Y-33077192D01*
X-1757369Y-33140576D01*
X-1757592Y-33141115D01*
X-1758393Y-33142109D01*
X-1764263Y-33150894D01*
X-1765049Y-33150369D01*
X-1802141Y-33196395D01*
X-1869505Y-33218815D01*
X-1938296Y-33201256D01*
X-1986673Y-33149293D01*
X-2000000Y-33092895D01*
X-2000000Y-31329885D01*
X396000Y-31329885D01*
X400475Y-31345124D01*
X401865Y-31346329D01*
X409548Y-31348000D01*
X1204885Y-31348000D01*
X1220124Y-31343525D01*
X1221329Y-31342135D01*
X1223000Y-31334452D01*
X1223000Y-31329885D01*
X1477000Y-31329885D01*
X1481475Y-31345124D01*
X1482865Y-31346329D01*
X1490548Y-31348000D01*
X2285884Y-31348000D01*
X2301123Y-31343525D01*
X2302328Y-31342135D01*
X2303999Y-31334452D01*
X2303999Y-31105708D01*
X2303630Y-31098890D01*
X2298159Y-31048518D01*
X2294530Y-31033259D01*
X2249778Y-30913882D01*
X2241246Y-30898296D01*
X2165428Y-30797133D01*
X2152867Y-30784572D01*
X2051704Y-30708754D01*
X2036118Y-30700222D01*
X1916735Y-30655467D01*
X1901490Y-30651842D01*
X1851108Y-30646369D01*
X1844294Y-30646000D01*
X1495115Y-30646000D01*
X1479876Y-30650475D01*
X1478671Y-30651865D01*
X1477000Y-30659548D01*
X1477000Y-31329885D01*
X1223000Y-31329885D01*
X1223000Y-30664116D01*
X1218525Y-30648877D01*
X1217135Y-30647672D01*
X1209452Y-30646001D01*
X855708Y-30646001D01*
X848890Y-30646370D01*
X798518Y-30651841D01*
X783259Y-30655470D01*
X663882Y-30700222D01*
X648296Y-30708754D01*
X547133Y-30784572D01*
X534572Y-30797133D01*
X458754Y-30898296D01*
X450222Y-30913882D01*
X405467Y-31033265D01*
X401842Y-31048510D01*
X396369Y-31098892D01*
X396000Y-31105706D01*
X396000Y-31329885D01*
X-2000000Y-31329885D01*
X-2000000Y-30126000D01*
X-1979998Y-30057879D01*
X-1926342Y-30011386D01*
X-1874000Y-30000000D01*
X393826Y-30000000D01*
X461947Y-30020002D01*
G37*
%TD.AperFunction*%
M02*
