%TF.GenerationSoftware,KiCad,Pcbnew,(7.0.0-93-gc189053ee5-dirty)*%
%TF.CreationDate,2023-02-21T15:15:17-08:00*%
%TF.ProjectId,ai-camera,61692d63-616d-4657-9261-2e6b69636164,rev1*%
%TF.SameCoordinates,PX5a995c0PY2aea540*%
%TF.FileFunction,Legend,Bot*%
%TF.FilePolarity,Positive*%
%FSLAX46Y46*%
G04 Gerber Fmt 4.6, Leading zero omitted, Abs format (unit mm)*
G04 Created by KiCad (PCBNEW (7.0.0-93-gc189053ee5-dirty)) date 2023-02-21 15:15:17*
%MOMM*%
%LPD*%
G01*
G04 APERTURE LIST*
G04 Aperture macros list*
%AMRoundRect*
0 Rectangle with rounded corners*
0 $1 Rounding radius*
0 $2 $3 $4 $5 $6 $7 $8 $9 X,Y pos of 4 corners*
0 Add a 4 corners polygon primitive as box body*
4,1,4,$2,$3,$4,$5,$6,$7,$8,$9,$2,$3,0*
0 Add four circle primitives for the rounded corners*
1,1,$1+$1,$2,$3*
1,1,$1+$1,$4,$5*
1,1,$1+$1,$6,$7*
1,1,$1+$1,$8,$9*
0 Add four rect primitives between the rounded corners*
20,1,$1+$1,$2,$3,$4,$5,0*
20,1,$1+$1,$4,$5,$6,$7,0*
20,1,$1+$1,$6,$7,$8,$9,0*
20,1,$1+$1,$8,$9,$2,$3,0*%
%AMRotRect*
0 Rectangle, with rotation*
0 The origin of the aperture is its center*
0 $1 length*
0 $2 width*
0 $3 Rotation angle, in degrees counterclockwise*
0 Add horizontal line*
21,1,$1,$2,0,0,$3*%
%AMFreePoly0*
4,1,19,0.500000,-0.750000,0.000000,-0.750000,0.000000,-0.744911,-0.071157,-0.744911,-0.207708,-0.704816,-0.327430,-0.627875,-0.420627,-0.520320,-0.479746,-0.390866,-0.500000,-0.250000,-0.500000,0.250000,-0.479746,0.390866,-0.420627,0.520320,-0.327430,0.627875,-0.207708,0.704816,-0.071157,0.744911,0.000000,0.744911,0.000000,0.750000,0.500000,0.750000,0.500000,-0.750000,0.500000,-0.750000,
$1*%
%AMFreePoly1*
4,1,19,0.000000,0.744911,0.071157,0.744911,0.207708,0.704816,0.327430,0.627875,0.420627,0.520320,0.479746,0.390866,0.500000,0.250000,0.500000,-0.250000,0.479746,-0.390866,0.420627,-0.520320,0.327430,-0.627875,0.207708,-0.704816,0.071157,-0.744911,0.000000,-0.744911,0.000000,-0.750000,-0.500000,-0.750000,-0.500000,0.750000,0.000000,0.750000,0.000000,0.744911,0.000000,0.744911,
$1*%
G04 Aperture macros list end*
%ADD10C,0.150000*%
%ADD11C,0.120000*%
%ADD12C,0.650000*%
%ADD13O,2.100000X1.000000*%
%ADD14O,1.600000X1.000000*%
%ADD15C,3.600000*%
%ADD16C,5.600000*%
%ADD17C,4.000000*%
%ADD18C,1.700000*%
%ADD19C,0.800000*%
%ADD20RotRect,1.524000X1.524000X45.000000*%
%ADD21C,1.524000*%
%ADD22R,1.700000X1.700000*%
%ADD23O,1.700000X1.700000*%
%ADD24C,0.990600*%
%ADD25RoundRect,0.150000X-0.587500X-0.150000X0.587500X-0.150000X0.587500X0.150000X-0.587500X0.150000X0*%
%ADD26RoundRect,0.250000X0.412500X0.925000X-0.412500X0.925000X-0.412500X-0.925000X0.412500X-0.925000X0*%
%ADD27C,1.500000*%
%ADD28RoundRect,0.135000X0.135000X0.185000X-0.135000X0.185000X-0.135000X-0.185000X0.135000X-0.185000X0*%
%ADD29RoundRect,0.140000X0.170000X-0.140000X0.170000X0.140000X-0.170000X0.140000X-0.170000X-0.140000X0*%
%ADD30R,0.900000X1.500000*%
%ADD31R,1.500000X0.900000*%
%ADD32C,0.600000*%
%ADD33R,3.900000X3.900000*%
%ADD34RoundRect,0.140000X-0.170000X0.140000X-0.170000X-0.140000X0.170000X-0.140000X0.170000X0.140000X0*%
%ADD35RoundRect,0.225000X-0.250000X0.225000X-0.250000X-0.225000X0.250000X-0.225000X0.250000X0.225000X0*%
%ADD36RoundRect,0.135000X-0.135000X-0.185000X0.135000X-0.185000X0.135000X0.185000X-0.135000X0.185000X0*%
%ADD37RoundRect,0.140000X-0.140000X-0.170000X0.140000X-0.170000X0.140000X0.170000X-0.140000X0.170000X0*%
%ADD38RoundRect,0.150000X0.587500X0.150000X-0.587500X0.150000X-0.587500X-0.150000X0.587500X-0.150000X0*%
%ADD39RoundRect,0.140000X0.140000X0.170000X-0.140000X0.170000X-0.140000X-0.170000X0.140000X-0.170000X0*%
%ADD40RoundRect,0.150000X-0.150000X0.587500X-0.150000X-0.587500X0.150000X-0.587500X0.150000X0.587500X0*%
%ADD41RoundRect,0.225000X0.250000X-0.225000X0.250000X0.225000X-0.250000X0.225000X-0.250000X-0.225000X0*%
%ADD42RoundRect,0.135000X0.185000X-0.135000X0.185000X0.135000X-0.185000X0.135000X-0.185000X-0.135000X0*%
%ADD43FreePoly0,0.000000*%
%ADD44FreePoly1,0.000000*%
%ADD45RoundRect,0.150000X0.512500X0.150000X-0.512500X0.150000X-0.512500X-0.150000X0.512500X-0.150000X0*%
%ADD46RoundRect,0.135000X-0.185000X0.135000X-0.185000X-0.135000X0.185000X-0.135000X0.185000X0.135000X0*%
%ADD47RoundRect,0.225000X-0.225000X-0.250000X0.225000X-0.250000X0.225000X0.250000X-0.225000X0.250000X0*%
%ADD48RoundRect,0.150000X0.150000X-0.512500X0.150000X0.512500X-0.150000X0.512500X-0.150000X-0.512500X0*%
%ADD49RoundRect,0.250000X0.450000X-0.325000X0.450000X0.325000X-0.450000X0.325000X-0.450000X-0.325000X0*%
G04 APERTURE END LIST*
D10*
X45827142Y-14137380D02*
X45827142Y-13137380D01*
X45827142Y-13137380D02*
X45484285Y-14137380D01*
X45484285Y-14137380D02*
X45484285Y-13137380D01*
X45084286Y-13137380D02*
X44970000Y-13137380D01*
X44970000Y-13137380D02*
X44912857Y-13185000D01*
X44912857Y-13185000D02*
X44855714Y-13280238D01*
X44855714Y-13280238D02*
X44827143Y-13470714D01*
X44827143Y-13470714D02*
X44827143Y-13804047D01*
X44827143Y-13804047D02*
X44855714Y-13994523D01*
X44855714Y-13994523D02*
X44912857Y-14089761D01*
X44912857Y-14089761D02*
X44970000Y-14137380D01*
X44970000Y-14137380D02*
X45084286Y-14137380D01*
X45084286Y-14137380D02*
X45141429Y-14089761D01*
X45141429Y-14089761D02*
X45198571Y-13994523D01*
X45198571Y-13994523D02*
X45227143Y-13804047D01*
X45227143Y-13804047D02*
X45227143Y-13470714D01*
X45227143Y-13470714D02*
X45198571Y-13280238D01*
X45198571Y-13280238D02*
X45141429Y-13185000D01*
X45141429Y-13185000D02*
X45084286Y-13137380D01*
X44655715Y-13137380D02*
X44312858Y-13137380D01*
X44484286Y-14137380D02*
X44484286Y-13137380D01*
X44112857Y-13613571D02*
X43912857Y-13613571D01*
X43827143Y-14137380D02*
X44112857Y-14137380D01*
X44112857Y-14137380D02*
X44112857Y-13137380D01*
X44112857Y-13137380D02*
X43827143Y-13137380D01*
X43598572Y-14089761D02*
X43512858Y-14137380D01*
X43512858Y-14137380D02*
X43370000Y-14137380D01*
X43370000Y-14137380D02*
X43312858Y-14089761D01*
X43312858Y-14089761D02*
X43284286Y-14042142D01*
X43284286Y-14042142D02*
X43255715Y-13946904D01*
X43255715Y-13946904D02*
X43255715Y-13851666D01*
X43255715Y-13851666D02*
X43284286Y-13756428D01*
X43284286Y-13756428D02*
X43312858Y-13708809D01*
X43312858Y-13708809D02*
X43370000Y-13661190D01*
X43370000Y-13661190D02*
X43484286Y-13613571D01*
X43484286Y-13613571D02*
X43541429Y-13565952D01*
X43541429Y-13565952D02*
X43570000Y-13518333D01*
X43570000Y-13518333D02*
X43598572Y-13423095D01*
X43598572Y-13423095D02*
X43598572Y-13327857D01*
X43598572Y-13327857D02*
X43570000Y-13232619D01*
X43570000Y-13232619D02*
X43541429Y-13185000D01*
X43541429Y-13185000D02*
X43484286Y-13137380D01*
X43484286Y-13137380D02*
X43341429Y-13137380D01*
X43341429Y-13137380D02*
X43255715Y-13185000D01*
X42998571Y-14042142D02*
X42970000Y-14089761D01*
X42970000Y-14089761D02*
X42998571Y-14137380D01*
X42998571Y-14137380D02*
X43027143Y-14089761D01*
X43027143Y-14089761D02*
X42998571Y-14042142D01*
X42998571Y-14042142D02*
X42998571Y-14137380D01*
X42998571Y-13518333D02*
X42970000Y-13565952D01*
X42970000Y-13565952D02*
X42998571Y-13613571D01*
X42998571Y-13613571D02*
X43027143Y-13565952D01*
X43027143Y-13565952D02*
X42998571Y-13518333D01*
X42998571Y-13518333D02*
X42998571Y-13613571D01*
X45627142Y-15233571D02*
X45541428Y-15281190D01*
X45541428Y-15281190D02*
X45512857Y-15328809D01*
X45512857Y-15328809D02*
X45484285Y-15424047D01*
X45484285Y-15424047D02*
X45484285Y-15566904D01*
X45484285Y-15566904D02*
X45512857Y-15662142D01*
X45512857Y-15662142D02*
X45541428Y-15709761D01*
X45541428Y-15709761D02*
X45598571Y-15757380D01*
X45598571Y-15757380D02*
X45827142Y-15757380D01*
X45827142Y-15757380D02*
X45827142Y-14757380D01*
X45827142Y-14757380D02*
X45627142Y-14757380D01*
X45627142Y-14757380D02*
X45570000Y-14805000D01*
X45570000Y-14805000D02*
X45541428Y-14852619D01*
X45541428Y-14852619D02*
X45512857Y-14947857D01*
X45512857Y-14947857D02*
X45512857Y-15043095D01*
X45512857Y-15043095D02*
X45541428Y-15138333D01*
X45541428Y-15138333D02*
X45570000Y-15185952D01*
X45570000Y-15185952D02*
X45627142Y-15233571D01*
X45627142Y-15233571D02*
X45827142Y-15233571D01*
X44970000Y-15757380D02*
X44970000Y-15233571D01*
X44970000Y-15233571D02*
X44998571Y-15138333D01*
X44998571Y-15138333D02*
X45055714Y-15090714D01*
X45055714Y-15090714D02*
X45170000Y-15090714D01*
X45170000Y-15090714D02*
X45227142Y-15138333D01*
X44970000Y-15709761D02*
X45027142Y-15757380D01*
X45027142Y-15757380D02*
X45170000Y-15757380D01*
X45170000Y-15757380D02*
X45227142Y-15709761D01*
X45227142Y-15709761D02*
X45255714Y-15614523D01*
X45255714Y-15614523D02*
X45255714Y-15519285D01*
X45255714Y-15519285D02*
X45227142Y-15424047D01*
X45227142Y-15424047D02*
X45170000Y-15376428D01*
X45170000Y-15376428D02*
X45027142Y-15376428D01*
X45027142Y-15376428D02*
X44970000Y-15328809D01*
X44770000Y-15090714D02*
X44541428Y-15090714D01*
X44684285Y-14757380D02*
X44684285Y-15614523D01*
X44684285Y-15614523D02*
X44655714Y-15709761D01*
X44655714Y-15709761D02*
X44598571Y-15757380D01*
X44598571Y-15757380D02*
X44541428Y-15757380D01*
X44427143Y-15090714D02*
X44198571Y-15090714D01*
X44341428Y-14757380D02*
X44341428Y-15614523D01*
X44341428Y-15614523D02*
X44312857Y-15709761D01*
X44312857Y-15709761D02*
X44255714Y-15757380D01*
X44255714Y-15757380D02*
X44198571Y-15757380D01*
X43770000Y-15709761D02*
X43827143Y-15757380D01*
X43827143Y-15757380D02*
X43941429Y-15757380D01*
X43941429Y-15757380D02*
X43998571Y-15709761D01*
X43998571Y-15709761D02*
X44027143Y-15614523D01*
X44027143Y-15614523D02*
X44027143Y-15233571D01*
X44027143Y-15233571D02*
X43998571Y-15138333D01*
X43998571Y-15138333D02*
X43941429Y-15090714D01*
X43941429Y-15090714D02*
X43827143Y-15090714D01*
X43827143Y-15090714D02*
X43770000Y-15138333D01*
X43770000Y-15138333D02*
X43741429Y-15233571D01*
X43741429Y-15233571D02*
X43741429Y-15328809D01*
X43741429Y-15328809D02*
X44027143Y-15424047D01*
X43484285Y-15757380D02*
X43484285Y-15090714D01*
X43484285Y-15281190D02*
X43455714Y-15185952D01*
X43455714Y-15185952D02*
X43427143Y-15138333D01*
X43427143Y-15138333D02*
X43370000Y-15090714D01*
X43370000Y-15090714D02*
X43312857Y-15090714D01*
X43169999Y-15090714D02*
X43027142Y-15757380D01*
X42884285Y-15090714D02*
X43027142Y-15757380D01*
X43027142Y-15757380D02*
X43084285Y-15995476D01*
X43084285Y-15995476D02*
X43112856Y-16043095D01*
X43112856Y-16043095D02*
X43169999Y-16090714D01*
X42038571Y-15709761D02*
X42095713Y-15757380D01*
X42095713Y-15757380D02*
X42209999Y-15757380D01*
X42209999Y-15757380D02*
X42267142Y-15709761D01*
X42267142Y-15709761D02*
X42295713Y-15662142D01*
X42295713Y-15662142D02*
X42324285Y-15566904D01*
X42324285Y-15566904D02*
X42324285Y-15281190D01*
X42324285Y-15281190D02*
X42295713Y-15185952D01*
X42295713Y-15185952D02*
X42267142Y-15138333D01*
X42267142Y-15138333D02*
X42209999Y-15090714D01*
X42209999Y-15090714D02*
X42095713Y-15090714D01*
X42095713Y-15090714D02*
X42038571Y-15138333D01*
X41695713Y-15757380D02*
X41752856Y-15709761D01*
X41752856Y-15709761D02*
X41781427Y-15662142D01*
X41781427Y-15662142D02*
X41809999Y-15566904D01*
X41809999Y-15566904D02*
X41809999Y-15281190D01*
X41809999Y-15281190D02*
X41781427Y-15185952D01*
X41781427Y-15185952D02*
X41752856Y-15138333D01*
X41752856Y-15138333D02*
X41695713Y-15090714D01*
X41695713Y-15090714D02*
X41609999Y-15090714D01*
X41609999Y-15090714D02*
X41552856Y-15138333D01*
X41552856Y-15138333D02*
X41524285Y-15185952D01*
X41524285Y-15185952D02*
X41495713Y-15281190D01*
X41495713Y-15281190D02*
X41495713Y-15566904D01*
X41495713Y-15566904D02*
X41524285Y-15662142D01*
X41524285Y-15662142D02*
X41552856Y-15709761D01*
X41552856Y-15709761D02*
X41609999Y-15757380D01*
X41609999Y-15757380D02*
X41695713Y-15757380D01*
X41238570Y-15090714D02*
X41238570Y-15757380D01*
X41238570Y-15185952D02*
X41209999Y-15138333D01*
X41209999Y-15138333D02*
X41152856Y-15090714D01*
X41152856Y-15090714D02*
X41067142Y-15090714D01*
X41067142Y-15090714D02*
X41009999Y-15138333D01*
X41009999Y-15138333D02*
X40981428Y-15233571D01*
X40981428Y-15233571D02*
X40981428Y-15757380D01*
X40695713Y-15090714D02*
X40695713Y-15757380D01*
X40695713Y-15185952D02*
X40667142Y-15138333D01*
X40667142Y-15138333D02*
X40609999Y-15090714D01*
X40609999Y-15090714D02*
X40524285Y-15090714D01*
X40524285Y-15090714D02*
X40467142Y-15138333D01*
X40467142Y-15138333D02*
X40438571Y-15233571D01*
X40438571Y-15233571D02*
X40438571Y-15757380D01*
X39924285Y-15709761D02*
X39981428Y-15757380D01*
X39981428Y-15757380D02*
X40095714Y-15757380D01*
X40095714Y-15757380D02*
X40152856Y-15709761D01*
X40152856Y-15709761D02*
X40181428Y-15614523D01*
X40181428Y-15614523D02*
X40181428Y-15233571D01*
X40181428Y-15233571D02*
X40152856Y-15138333D01*
X40152856Y-15138333D02*
X40095714Y-15090714D01*
X40095714Y-15090714D02*
X39981428Y-15090714D01*
X39981428Y-15090714D02*
X39924285Y-15138333D01*
X39924285Y-15138333D02*
X39895714Y-15233571D01*
X39895714Y-15233571D02*
X39895714Y-15328809D01*
X39895714Y-15328809D02*
X40181428Y-15424047D01*
X39381428Y-15709761D02*
X39438570Y-15757380D01*
X39438570Y-15757380D02*
X39552856Y-15757380D01*
X39552856Y-15757380D02*
X39609999Y-15709761D01*
X39609999Y-15709761D02*
X39638570Y-15662142D01*
X39638570Y-15662142D02*
X39667142Y-15566904D01*
X39667142Y-15566904D02*
X39667142Y-15281190D01*
X39667142Y-15281190D02*
X39638570Y-15185952D01*
X39638570Y-15185952D02*
X39609999Y-15138333D01*
X39609999Y-15138333D02*
X39552856Y-15090714D01*
X39552856Y-15090714D02*
X39438570Y-15090714D01*
X39438570Y-15090714D02*
X39381428Y-15138333D01*
X39209999Y-15090714D02*
X38981427Y-15090714D01*
X39124284Y-14757380D02*
X39124284Y-15614523D01*
X39124284Y-15614523D02*
X39095713Y-15709761D01*
X39095713Y-15709761D02*
X39038570Y-15757380D01*
X39038570Y-15757380D02*
X38981427Y-15757380D01*
X38695713Y-15757380D02*
X38752856Y-15709761D01*
X38752856Y-15709761D02*
X38781427Y-15662142D01*
X38781427Y-15662142D02*
X38809999Y-15566904D01*
X38809999Y-15566904D02*
X38809999Y-15281190D01*
X38809999Y-15281190D02*
X38781427Y-15185952D01*
X38781427Y-15185952D02*
X38752856Y-15138333D01*
X38752856Y-15138333D02*
X38695713Y-15090714D01*
X38695713Y-15090714D02*
X38609999Y-15090714D01*
X38609999Y-15090714D02*
X38552856Y-15138333D01*
X38552856Y-15138333D02*
X38524285Y-15185952D01*
X38524285Y-15185952D02*
X38495713Y-15281190D01*
X38495713Y-15281190D02*
X38495713Y-15566904D01*
X38495713Y-15566904D02*
X38524285Y-15662142D01*
X38524285Y-15662142D02*
X38552856Y-15709761D01*
X38552856Y-15709761D02*
X38609999Y-15757380D01*
X38609999Y-15757380D02*
X38695713Y-15757380D01*
X38238570Y-15757380D02*
X38238570Y-15090714D01*
X38238570Y-15281190D02*
X38209999Y-15185952D01*
X38209999Y-15185952D02*
X38181428Y-15138333D01*
X38181428Y-15138333D02*
X38124285Y-15090714D01*
X38124285Y-15090714D02*
X38067142Y-15090714D01*
X37867141Y-15662142D02*
X37838570Y-15709761D01*
X37838570Y-15709761D02*
X37867141Y-15757380D01*
X37867141Y-15757380D02*
X37895713Y-15709761D01*
X37895713Y-15709761D02*
X37867141Y-15662142D01*
X37867141Y-15662142D02*
X37867141Y-15757380D01*
X37867141Y-15138333D02*
X37838570Y-15185952D01*
X37838570Y-15185952D02*
X37867141Y-15233571D01*
X37867141Y-15233571D02*
X37895713Y-15185952D01*
X37895713Y-15185952D02*
X37867141Y-15138333D01*
X37867141Y-15138333D02*
X37867141Y-15233571D01*
X37049999Y-14757380D02*
X37049999Y-15471666D01*
X37049999Y-15471666D02*
X37078570Y-15614523D01*
X37078570Y-15614523D02*
X37135713Y-15709761D01*
X37135713Y-15709761D02*
X37221427Y-15757380D01*
X37221427Y-15757380D02*
X37278570Y-15757380D01*
X36792856Y-15709761D02*
X36707142Y-15757380D01*
X36707142Y-15757380D02*
X36564284Y-15757380D01*
X36564284Y-15757380D02*
X36507142Y-15709761D01*
X36507142Y-15709761D02*
X36478570Y-15662142D01*
X36478570Y-15662142D02*
X36449999Y-15566904D01*
X36449999Y-15566904D02*
X36449999Y-15471666D01*
X36449999Y-15471666D02*
X36478570Y-15376428D01*
X36478570Y-15376428D02*
X36507142Y-15328809D01*
X36507142Y-15328809D02*
X36564284Y-15281190D01*
X36564284Y-15281190D02*
X36678570Y-15233571D01*
X36678570Y-15233571D02*
X36735713Y-15185952D01*
X36735713Y-15185952D02*
X36764284Y-15138333D01*
X36764284Y-15138333D02*
X36792856Y-15043095D01*
X36792856Y-15043095D02*
X36792856Y-14947857D01*
X36792856Y-14947857D02*
X36764284Y-14852619D01*
X36764284Y-14852619D02*
X36735713Y-14805000D01*
X36735713Y-14805000D02*
X36678570Y-14757380D01*
X36678570Y-14757380D02*
X36535713Y-14757380D01*
X36535713Y-14757380D02*
X36449999Y-14805000D01*
X36278570Y-14757380D02*
X35935713Y-14757380D01*
X36107141Y-15757380D02*
X36107141Y-14757380D01*
X35735712Y-15376428D02*
X35278570Y-15376428D01*
X34992855Y-15757380D02*
X34992855Y-14757380D01*
X34992855Y-14757380D02*
X34764284Y-14757380D01*
X34764284Y-14757380D02*
X34707141Y-14805000D01*
X34707141Y-14805000D02*
X34678570Y-14852619D01*
X34678570Y-14852619D02*
X34649998Y-14947857D01*
X34649998Y-14947857D02*
X34649998Y-15090714D01*
X34649998Y-15090714D02*
X34678570Y-15185952D01*
X34678570Y-15185952D02*
X34707141Y-15233571D01*
X34707141Y-15233571D02*
X34764284Y-15281190D01*
X34764284Y-15281190D02*
X34992855Y-15281190D01*
X34392855Y-15757380D02*
X34392855Y-14757380D01*
X34392855Y-15233571D02*
X34049998Y-15233571D01*
X34049998Y-15757380D02*
X34049998Y-14757380D01*
X33432856Y-14852619D02*
X33404284Y-14805000D01*
X33404284Y-14805000D02*
X33347142Y-14757380D01*
X33347142Y-14757380D02*
X33204284Y-14757380D01*
X33204284Y-14757380D02*
X33147142Y-14805000D01*
X33147142Y-14805000D02*
X33118570Y-14852619D01*
X33118570Y-14852619D02*
X33089999Y-14947857D01*
X33089999Y-14947857D02*
X33089999Y-15043095D01*
X33089999Y-15043095D02*
X33118570Y-15185952D01*
X33118570Y-15185952D02*
X33461427Y-15757380D01*
X33461427Y-15757380D02*
X33089999Y-15757380D01*
X32832855Y-15757380D02*
X32832855Y-15090714D01*
X32832855Y-15185952D02*
X32804284Y-15138333D01*
X32804284Y-15138333D02*
X32747141Y-15090714D01*
X32747141Y-15090714D02*
X32661427Y-15090714D01*
X32661427Y-15090714D02*
X32604284Y-15138333D01*
X32604284Y-15138333D02*
X32575713Y-15233571D01*
X32575713Y-15233571D02*
X32575713Y-15757380D01*
X32575713Y-15233571D02*
X32547141Y-15138333D01*
X32547141Y-15138333D02*
X32489998Y-15090714D01*
X32489998Y-15090714D02*
X32404284Y-15090714D01*
X32404284Y-15090714D02*
X32347141Y-15138333D01*
X32347141Y-15138333D02*
X32318570Y-15233571D01*
X32318570Y-15233571D02*
X32318570Y-15757380D01*
X32032855Y-15757380D02*
X32032855Y-15090714D01*
X32032855Y-15185952D02*
X32004284Y-15138333D01*
X32004284Y-15138333D02*
X31947141Y-15090714D01*
X31947141Y-15090714D02*
X31861427Y-15090714D01*
X31861427Y-15090714D02*
X31804284Y-15138333D01*
X31804284Y-15138333D02*
X31775713Y-15233571D01*
X31775713Y-15233571D02*
X31775713Y-15757380D01*
X31775713Y-15233571D02*
X31747141Y-15138333D01*
X31747141Y-15138333D02*
X31689998Y-15090714D01*
X31689998Y-15090714D02*
X31604284Y-15090714D01*
X31604284Y-15090714D02*
X31547141Y-15138333D01*
X31547141Y-15138333D02*
X31518570Y-15233571D01*
X31518570Y-15233571D02*
X31518570Y-15757380D01*
X30872855Y-15090714D02*
X30872855Y-16090714D01*
X30872855Y-15138333D02*
X30815713Y-15090714D01*
X30815713Y-15090714D02*
X30701427Y-15090714D01*
X30701427Y-15090714D02*
X30644284Y-15138333D01*
X30644284Y-15138333D02*
X30615713Y-15185952D01*
X30615713Y-15185952D02*
X30587141Y-15281190D01*
X30587141Y-15281190D02*
X30587141Y-15566904D01*
X30587141Y-15566904D02*
X30615713Y-15662142D01*
X30615713Y-15662142D02*
X30644284Y-15709761D01*
X30644284Y-15709761D02*
X30701427Y-15757380D01*
X30701427Y-15757380D02*
X30815713Y-15757380D01*
X30815713Y-15757380D02*
X30872855Y-15709761D01*
X30329998Y-15757380D02*
X30329998Y-15090714D01*
X30329998Y-14757380D02*
X30358570Y-14805000D01*
X30358570Y-14805000D02*
X30329998Y-14852619D01*
X30329998Y-14852619D02*
X30301427Y-14805000D01*
X30301427Y-14805000D02*
X30329998Y-14757380D01*
X30329998Y-14757380D02*
X30329998Y-14852619D01*
X30129999Y-15090714D02*
X29901427Y-15090714D01*
X30044284Y-14757380D02*
X30044284Y-15614523D01*
X30044284Y-15614523D02*
X30015713Y-15709761D01*
X30015713Y-15709761D02*
X29958570Y-15757380D01*
X29958570Y-15757380D02*
X29901427Y-15757380D01*
X29444285Y-15709761D02*
X29501427Y-15757380D01*
X29501427Y-15757380D02*
X29615713Y-15757380D01*
X29615713Y-15757380D02*
X29672856Y-15709761D01*
X29672856Y-15709761D02*
X29701427Y-15662142D01*
X29701427Y-15662142D02*
X29729999Y-15566904D01*
X29729999Y-15566904D02*
X29729999Y-15281190D01*
X29729999Y-15281190D02*
X29701427Y-15185952D01*
X29701427Y-15185952D02*
X29672856Y-15138333D01*
X29672856Y-15138333D02*
X29615713Y-15090714D01*
X29615713Y-15090714D02*
X29501427Y-15090714D01*
X29501427Y-15090714D02*
X29444285Y-15138333D01*
X29187141Y-15757380D02*
X29187141Y-14757380D01*
X28929999Y-15757380D02*
X28929999Y-15233571D01*
X28929999Y-15233571D02*
X28958570Y-15138333D01*
X28958570Y-15138333D02*
X29015713Y-15090714D01*
X29015713Y-15090714D02*
X29101427Y-15090714D01*
X29101427Y-15090714D02*
X29158570Y-15138333D01*
X29158570Y-15138333D02*
X29187141Y-15185952D01*
X45827142Y-17377380D02*
X45827142Y-16377380D01*
X45198571Y-17377380D02*
X45398571Y-16901190D01*
X45541428Y-17377380D02*
X45541428Y-16377380D01*
X45541428Y-16377380D02*
X45312857Y-16377380D01*
X45312857Y-16377380D02*
X45255714Y-16425000D01*
X45255714Y-16425000D02*
X45227143Y-16472619D01*
X45227143Y-16472619D02*
X45198571Y-16567857D01*
X45198571Y-16567857D02*
X45198571Y-16710714D01*
X45198571Y-16710714D02*
X45227143Y-16805952D01*
X45227143Y-16805952D02*
X45255714Y-16853571D01*
X45255714Y-16853571D02*
X45312857Y-16901190D01*
X45312857Y-16901190D02*
X45541428Y-16901190D01*
X44598571Y-17282142D02*
X44627143Y-17329761D01*
X44627143Y-17329761D02*
X44712857Y-17377380D01*
X44712857Y-17377380D02*
X44770000Y-17377380D01*
X44770000Y-17377380D02*
X44855714Y-17329761D01*
X44855714Y-17329761D02*
X44912857Y-17234523D01*
X44912857Y-17234523D02*
X44941428Y-17139285D01*
X44941428Y-17139285D02*
X44970000Y-16948809D01*
X44970000Y-16948809D02*
X44970000Y-16805952D01*
X44970000Y-16805952D02*
X44941428Y-16615476D01*
X44941428Y-16615476D02*
X44912857Y-16520238D01*
X44912857Y-16520238D02*
X44855714Y-16425000D01*
X44855714Y-16425000D02*
X44770000Y-16377380D01*
X44770000Y-16377380D02*
X44712857Y-16377380D01*
X44712857Y-16377380D02*
X44627143Y-16425000D01*
X44627143Y-16425000D02*
X44598571Y-16472619D01*
X44341428Y-16377380D02*
X44341428Y-17186904D01*
X44341428Y-17186904D02*
X44312857Y-17282142D01*
X44312857Y-17282142D02*
X44284286Y-17329761D01*
X44284286Y-17329761D02*
X44227143Y-17377380D01*
X44227143Y-17377380D02*
X44112857Y-17377380D01*
X44112857Y-17377380D02*
X44055714Y-17329761D01*
X44055714Y-17329761D02*
X44027143Y-17282142D01*
X44027143Y-17282142D02*
X43998571Y-17186904D01*
X43998571Y-17186904D02*
X43998571Y-16377380D01*
X43798572Y-16377380D02*
X43455715Y-16377380D01*
X43627143Y-17377380D02*
X43627143Y-16377380D01*
X42638572Y-17329761D02*
X42695714Y-17377380D01*
X42695714Y-17377380D02*
X42810000Y-17377380D01*
X42810000Y-17377380D02*
X42867143Y-17329761D01*
X42867143Y-17329761D02*
X42895714Y-17282142D01*
X42895714Y-17282142D02*
X42924286Y-17186904D01*
X42924286Y-17186904D02*
X42924286Y-16901190D01*
X42924286Y-16901190D02*
X42895714Y-16805952D01*
X42895714Y-16805952D02*
X42867143Y-16758333D01*
X42867143Y-16758333D02*
X42810000Y-16710714D01*
X42810000Y-16710714D02*
X42695714Y-16710714D01*
X42695714Y-16710714D02*
X42638572Y-16758333D01*
X42295714Y-17377380D02*
X42352857Y-17329761D01*
X42352857Y-17329761D02*
X42381428Y-17282142D01*
X42381428Y-17282142D02*
X42410000Y-17186904D01*
X42410000Y-17186904D02*
X42410000Y-16901190D01*
X42410000Y-16901190D02*
X42381428Y-16805952D01*
X42381428Y-16805952D02*
X42352857Y-16758333D01*
X42352857Y-16758333D02*
X42295714Y-16710714D01*
X42295714Y-16710714D02*
X42210000Y-16710714D01*
X42210000Y-16710714D02*
X42152857Y-16758333D01*
X42152857Y-16758333D02*
X42124286Y-16805952D01*
X42124286Y-16805952D02*
X42095714Y-16901190D01*
X42095714Y-16901190D02*
X42095714Y-17186904D01*
X42095714Y-17186904D02*
X42124286Y-17282142D01*
X42124286Y-17282142D02*
X42152857Y-17329761D01*
X42152857Y-17329761D02*
X42210000Y-17377380D01*
X42210000Y-17377380D02*
X42295714Y-17377380D01*
X41838571Y-16710714D02*
X41838571Y-17377380D01*
X41838571Y-16805952D02*
X41810000Y-16758333D01*
X41810000Y-16758333D02*
X41752857Y-16710714D01*
X41752857Y-16710714D02*
X41667143Y-16710714D01*
X41667143Y-16710714D02*
X41610000Y-16758333D01*
X41610000Y-16758333D02*
X41581429Y-16853571D01*
X41581429Y-16853571D02*
X41581429Y-17377380D01*
X41295714Y-16710714D02*
X41295714Y-17377380D01*
X41295714Y-16805952D02*
X41267143Y-16758333D01*
X41267143Y-16758333D02*
X41210000Y-16710714D01*
X41210000Y-16710714D02*
X41124286Y-16710714D01*
X41124286Y-16710714D02*
X41067143Y-16758333D01*
X41067143Y-16758333D02*
X41038572Y-16853571D01*
X41038572Y-16853571D02*
X41038572Y-17377380D01*
X40524286Y-17329761D02*
X40581429Y-17377380D01*
X40581429Y-17377380D02*
X40695715Y-17377380D01*
X40695715Y-17377380D02*
X40752857Y-17329761D01*
X40752857Y-17329761D02*
X40781429Y-17234523D01*
X40781429Y-17234523D02*
X40781429Y-16853571D01*
X40781429Y-16853571D02*
X40752857Y-16758333D01*
X40752857Y-16758333D02*
X40695715Y-16710714D01*
X40695715Y-16710714D02*
X40581429Y-16710714D01*
X40581429Y-16710714D02*
X40524286Y-16758333D01*
X40524286Y-16758333D02*
X40495715Y-16853571D01*
X40495715Y-16853571D02*
X40495715Y-16948809D01*
X40495715Y-16948809D02*
X40781429Y-17044047D01*
X39981429Y-17329761D02*
X40038571Y-17377380D01*
X40038571Y-17377380D02*
X40152857Y-17377380D01*
X40152857Y-17377380D02*
X40210000Y-17329761D01*
X40210000Y-17329761D02*
X40238571Y-17282142D01*
X40238571Y-17282142D02*
X40267143Y-17186904D01*
X40267143Y-17186904D02*
X40267143Y-16901190D01*
X40267143Y-16901190D02*
X40238571Y-16805952D01*
X40238571Y-16805952D02*
X40210000Y-16758333D01*
X40210000Y-16758333D02*
X40152857Y-16710714D01*
X40152857Y-16710714D02*
X40038571Y-16710714D01*
X40038571Y-16710714D02*
X39981429Y-16758333D01*
X39810000Y-16710714D02*
X39581428Y-16710714D01*
X39724285Y-16377380D02*
X39724285Y-17234523D01*
X39724285Y-17234523D02*
X39695714Y-17329761D01*
X39695714Y-17329761D02*
X39638571Y-17377380D01*
X39638571Y-17377380D02*
X39581428Y-17377380D01*
X39295714Y-17377380D02*
X39352857Y-17329761D01*
X39352857Y-17329761D02*
X39381428Y-17282142D01*
X39381428Y-17282142D02*
X39410000Y-17186904D01*
X39410000Y-17186904D02*
X39410000Y-16901190D01*
X39410000Y-16901190D02*
X39381428Y-16805952D01*
X39381428Y-16805952D02*
X39352857Y-16758333D01*
X39352857Y-16758333D02*
X39295714Y-16710714D01*
X39295714Y-16710714D02*
X39210000Y-16710714D01*
X39210000Y-16710714D02*
X39152857Y-16758333D01*
X39152857Y-16758333D02*
X39124286Y-16805952D01*
X39124286Y-16805952D02*
X39095714Y-16901190D01*
X39095714Y-16901190D02*
X39095714Y-17186904D01*
X39095714Y-17186904D02*
X39124286Y-17282142D01*
X39124286Y-17282142D02*
X39152857Y-17329761D01*
X39152857Y-17329761D02*
X39210000Y-17377380D01*
X39210000Y-17377380D02*
X39295714Y-17377380D01*
X38838571Y-17377380D02*
X38838571Y-16710714D01*
X38838571Y-16901190D02*
X38810000Y-16805952D01*
X38810000Y-16805952D02*
X38781429Y-16758333D01*
X38781429Y-16758333D02*
X38724286Y-16710714D01*
X38724286Y-16710714D02*
X38667143Y-16710714D01*
X38467142Y-17282142D02*
X38438571Y-17329761D01*
X38438571Y-17329761D02*
X38467142Y-17377380D01*
X38467142Y-17377380D02*
X38495714Y-17329761D01*
X38495714Y-17329761D02*
X38467142Y-17282142D01*
X38467142Y-17282142D02*
X38467142Y-17377380D01*
X38467142Y-16758333D02*
X38438571Y-16805952D01*
X38438571Y-16805952D02*
X38467142Y-16853571D01*
X38467142Y-16853571D02*
X38495714Y-16805952D01*
X38495714Y-16805952D02*
X38467142Y-16758333D01*
X38467142Y-16758333D02*
X38467142Y-16853571D01*
X37821428Y-17377380D02*
X37821428Y-16377380D01*
X37821428Y-16377380D02*
X37621428Y-17091666D01*
X37621428Y-17091666D02*
X37421428Y-16377380D01*
X37421428Y-16377380D02*
X37421428Y-17377380D01*
X37050000Y-17377380D02*
X37107143Y-17329761D01*
X37107143Y-17329761D02*
X37135714Y-17282142D01*
X37135714Y-17282142D02*
X37164286Y-17186904D01*
X37164286Y-17186904D02*
X37164286Y-16901190D01*
X37164286Y-16901190D02*
X37135714Y-16805952D01*
X37135714Y-16805952D02*
X37107143Y-16758333D01*
X37107143Y-16758333D02*
X37050000Y-16710714D01*
X37050000Y-16710714D02*
X36964286Y-16710714D01*
X36964286Y-16710714D02*
X36907143Y-16758333D01*
X36907143Y-16758333D02*
X36878572Y-16805952D01*
X36878572Y-16805952D02*
X36850000Y-16901190D01*
X36850000Y-16901190D02*
X36850000Y-17186904D01*
X36850000Y-17186904D02*
X36878572Y-17282142D01*
X36878572Y-17282142D02*
X36907143Y-17329761D01*
X36907143Y-17329761D02*
X36964286Y-17377380D01*
X36964286Y-17377380D02*
X37050000Y-17377380D01*
X36507143Y-17377380D02*
X36564286Y-17329761D01*
X36564286Y-17329761D02*
X36592857Y-17234523D01*
X36592857Y-17234523D02*
X36592857Y-16377380D01*
X36050000Y-17329761D02*
X36107143Y-17377380D01*
X36107143Y-17377380D02*
X36221429Y-17377380D01*
X36221429Y-17377380D02*
X36278571Y-17329761D01*
X36278571Y-17329761D02*
X36307143Y-17234523D01*
X36307143Y-17234523D02*
X36307143Y-16853571D01*
X36307143Y-16853571D02*
X36278571Y-16758333D01*
X36278571Y-16758333D02*
X36221429Y-16710714D01*
X36221429Y-16710714D02*
X36107143Y-16710714D01*
X36107143Y-16710714D02*
X36050000Y-16758333D01*
X36050000Y-16758333D02*
X36021429Y-16853571D01*
X36021429Y-16853571D02*
X36021429Y-16948809D01*
X36021429Y-16948809D02*
X36307143Y-17044047D01*
X35821428Y-17377380D02*
X35507143Y-16710714D01*
X35821428Y-16710714D02*
X35507143Y-17377380D01*
X35278571Y-17377380D02*
X35278571Y-16377380D01*
X35278571Y-16377380D02*
X35050000Y-16377380D01*
X35050000Y-16377380D02*
X34992857Y-16425000D01*
X34992857Y-16425000D02*
X34964286Y-16472619D01*
X34964286Y-16472619D02*
X34935714Y-16567857D01*
X34935714Y-16567857D02*
X34935714Y-16710714D01*
X34935714Y-16710714D02*
X34964286Y-16805952D01*
X34964286Y-16805952D02*
X34992857Y-16853571D01*
X34992857Y-16853571D02*
X35050000Y-16901190D01*
X35050000Y-16901190D02*
X35278571Y-16901190D01*
X34678571Y-17377380D02*
X34678571Y-16710714D01*
X34678571Y-16377380D02*
X34707143Y-16425000D01*
X34707143Y-16425000D02*
X34678571Y-16472619D01*
X34678571Y-16472619D02*
X34650000Y-16425000D01*
X34650000Y-16425000D02*
X34678571Y-16377380D01*
X34678571Y-16377380D02*
X34678571Y-16472619D01*
X34135715Y-17329761D02*
X34192857Y-17377380D01*
X34192857Y-17377380D02*
X34307143Y-17377380D01*
X34307143Y-17377380D02*
X34364286Y-17329761D01*
X34364286Y-17329761D02*
X34392857Y-17282142D01*
X34392857Y-17282142D02*
X34421429Y-17186904D01*
X34421429Y-17186904D02*
X34421429Y-16901190D01*
X34421429Y-16901190D02*
X34392857Y-16805952D01*
X34392857Y-16805952D02*
X34364286Y-16758333D01*
X34364286Y-16758333D02*
X34307143Y-16710714D01*
X34307143Y-16710714D02*
X34192857Y-16710714D01*
X34192857Y-16710714D02*
X34135715Y-16758333D01*
X33792857Y-17377380D02*
X33850000Y-17329761D01*
X33850000Y-17329761D02*
X33878571Y-17282142D01*
X33878571Y-17282142D02*
X33907143Y-17186904D01*
X33907143Y-17186904D02*
X33907143Y-16901190D01*
X33907143Y-16901190D02*
X33878571Y-16805952D01*
X33878571Y-16805952D02*
X33850000Y-16758333D01*
X33850000Y-16758333D02*
X33792857Y-16710714D01*
X33792857Y-16710714D02*
X33707143Y-16710714D01*
X33707143Y-16710714D02*
X33650000Y-16758333D01*
X33650000Y-16758333D02*
X33621429Y-16805952D01*
X33621429Y-16805952D02*
X33592857Y-16901190D01*
X33592857Y-16901190D02*
X33592857Y-17186904D01*
X33592857Y-17186904D02*
X33621429Y-17282142D01*
X33621429Y-17282142D02*
X33650000Y-17329761D01*
X33650000Y-17329761D02*
X33707143Y-17377380D01*
X33707143Y-17377380D02*
X33792857Y-17377380D01*
X33335714Y-17377380D02*
X33335714Y-16377380D01*
X33335714Y-16758333D02*
X33278572Y-16710714D01*
X33278572Y-16710714D02*
X33164286Y-16710714D01*
X33164286Y-16710714D02*
X33107143Y-16758333D01*
X33107143Y-16758333D02*
X33078572Y-16805952D01*
X33078572Y-16805952D02*
X33050000Y-16901190D01*
X33050000Y-16901190D02*
X33050000Y-17186904D01*
X33050000Y-17186904D02*
X33078572Y-17282142D01*
X33078572Y-17282142D02*
X33107143Y-17329761D01*
X33107143Y-17329761D02*
X33164286Y-17377380D01*
X33164286Y-17377380D02*
X33278572Y-17377380D01*
X33278572Y-17377380D02*
X33335714Y-17329761D01*
X32707143Y-17377380D02*
X32764286Y-17329761D01*
X32764286Y-17329761D02*
X32792857Y-17234523D01*
X32792857Y-17234523D02*
X32792857Y-16377380D01*
X32221429Y-17377380D02*
X32221429Y-16853571D01*
X32221429Y-16853571D02*
X32250000Y-16758333D01*
X32250000Y-16758333D02*
X32307143Y-16710714D01*
X32307143Y-16710714D02*
X32421429Y-16710714D01*
X32421429Y-16710714D02*
X32478571Y-16758333D01*
X32221429Y-17329761D02*
X32278571Y-17377380D01*
X32278571Y-17377380D02*
X32421429Y-17377380D01*
X32421429Y-17377380D02*
X32478571Y-17329761D01*
X32478571Y-17329761D02*
X32507143Y-17234523D01*
X32507143Y-17234523D02*
X32507143Y-17139285D01*
X32507143Y-17139285D02*
X32478571Y-17044047D01*
X32478571Y-17044047D02*
X32421429Y-16996428D01*
X32421429Y-16996428D02*
X32278571Y-16996428D01*
X32278571Y-16996428D02*
X32221429Y-16948809D01*
X31678572Y-17377380D02*
X31678572Y-16377380D01*
X31678572Y-17329761D02*
X31735714Y-17377380D01*
X31735714Y-17377380D02*
X31850000Y-17377380D01*
X31850000Y-17377380D02*
X31907143Y-17329761D01*
X31907143Y-17329761D02*
X31935714Y-17282142D01*
X31935714Y-17282142D02*
X31964286Y-17186904D01*
X31964286Y-17186904D02*
X31964286Y-16901190D01*
X31964286Y-16901190D02*
X31935714Y-16805952D01*
X31935714Y-16805952D02*
X31907143Y-16758333D01*
X31907143Y-16758333D02*
X31850000Y-16710714D01*
X31850000Y-16710714D02*
X31735714Y-16710714D01*
X31735714Y-16710714D02*
X31678572Y-16758333D01*
X31164286Y-17329761D02*
X31221429Y-17377380D01*
X31221429Y-17377380D02*
X31335715Y-17377380D01*
X31335715Y-17377380D02*
X31392857Y-17329761D01*
X31392857Y-17329761D02*
X31421429Y-17234523D01*
X31421429Y-17234523D02*
X31421429Y-16853571D01*
X31421429Y-16853571D02*
X31392857Y-16758333D01*
X31392857Y-16758333D02*
X31335715Y-16710714D01*
X31335715Y-16710714D02*
X31221429Y-16710714D01*
X31221429Y-16710714D02*
X31164286Y-16758333D01*
X31164286Y-16758333D02*
X31135715Y-16853571D01*
X31135715Y-16853571D02*
X31135715Y-16948809D01*
X31135715Y-16948809D02*
X31421429Y-17044047D01*
X30204286Y-17377380D02*
X30547143Y-17377380D01*
X30375714Y-17377380D02*
X30375714Y-16377380D01*
X30375714Y-16377380D02*
X30432857Y-16520238D01*
X30432857Y-16520238D02*
X30490000Y-16615476D01*
X30490000Y-16615476D02*
X30547143Y-16663095D01*
X29947142Y-17282142D02*
X29918571Y-17329761D01*
X29918571Y-17329761D02*
X29947142Y-17377380D01*
X29947142Y-17377380D02*
X29975714Y-17329761D01*
X29975714Y-17329761D02*
X29947142Y-17282142D01*
X29947142Y-17282142D02*
X29947142Y-17377380D01*
X29690000Y-16472619D02*
X29661428Y-16425000D01*
X29661428Y-16425000D02*
X29604286Y-16377380D01*
X29604286Y-16377380D02*
X29461428Y-16377380D01*
X29461428Y-16377380D02*
X29404286Y-16425000D01*
X29404286Y-16425000D02*
X29375714Y-16472619D01*
X29375714Y-16472619D02*
X29347143Y-16567857D01*
X29347143Y-16567857D02*
X29347143Y-16663095D01*
X29347143Y-16663095D02*
X29375714Y-16805952D01*
X29375714Y-16805952D02*
X29718571Y-17377380D01*
X29718571Y-17377380D02*
X29347143Y-17377380D01*
X28804285Y-16377380D02*
X29089999Y-16377380D01*
X29089999Y-16377380D02*
X29118571Y-16853571D01*
X29118571Y-16853571D02*
X29089999Y-16805952D01*
X29089999Y-16805952D02*
X29032857Y-16758333D01*
X29032857Y-16758333D02*
X28889999Y-16758333D01*
X28889999Y-16758333D02*
X28832857Y-16805952D01*
X28832857Y-16805952D02*
X28804285Y-16853571D01*
X28804285Y-16853571D02*
X28775714Y-16948809D01*
X28775714Y-16948809D02*
X28775714Y-17186904D01*
X28775714Y-17186904D02*
X28804285Y-17282142D01*
X28804285Y-17282142D02*
X28832857Y-17329761D01*
X28832857Y-17329761D02*
X28889999Y-17377380D01*
X28889999Y-17377380D02*
X29032857Y-17377380D01*
X29032857Y-17377380D02*
X29089999Y-17329761D01*
X29089999Y-17329761D02*
X29118571Y-17282142D01*
X28518570Y-17377380D02*
X28518570Y-16710714D01*
X28518570Y-16805952D02*
X28489999Y-16758333D01*
X28489999Y-16758333D02*
X28432856Y-16710714D01*
X28432856Y-16710714D02*
X28347142Y-16710714D01*
X28347142Y-16710714D02*
X28289999Y-16758333D01*
X28289999Y-16758333D02*
X28261428Y-16853571D01*
X28261428Y-16853571D02*
X28261428Y-17377380D01*
X28261428Y-16853571D02*
X28232856Y-16758333D01*
X28232856Y-16758333D02*
X28175713Y-16710714D01*
X28175713Y-16710714D02*
X28089999Y-16710714D01*
X28089999Y-16710714D02*
X28032856Y-16758333D01*
X28032856Y-16758333D02*
X28004285Y-16853571D01*
X28004285Y-16853571D02*
X28004285Y-17377380D01*
X27718570Y-17377380D02*
X27718570Y-16710714D01*
X27718570Y-16805952D02*
X27689999Y-16758333D01*
X27689999Y-16758333D02*
X27632856Y-16710714D01*
X27632856Y-16710714D02*
X27547142Y-16710714D01*
X27547142Y-16710714D02*
X27489999Y-16758333D01*
X27489999Y-16758333D02*
X27461428Y-16853571D01*
X27461428Y-16853571D02*
X27461428Y-17377380D01*
X27461428Y-16853571D02*
X27432856Y-16758333D01*
X27432856Y-16758333D02*
X27375713Y-16710714D01*
X27375713Y-16710714D02*
X27289999Y-16710714D01*
X27289999Y-16710714D02*
X27232856Y-16758333D01*
X27232856Y-16758333D02*
X27204285Y-16853571D01*
X27204285Y-16853571D02*
X27204285Y-17377380D01*
X26558570Y-16710714D02*
X26558570Y-17710714D01*
X26558570Y-16758333D02*
X26501428Y-16710714D01*
X26501428Y-16710714D02*
X26387142Y-16710714D01*
X26387142Y-16710714D02*
X26329999Y-16758333D01*
X26329999Y-16758333D02*
X26301428Y-16805952D01*
X26301428Y-16805952D02*
X26272856Y-16901190D01*
X26272856Y-16901190D02*
X26272856Y-17186904D01*
X26272856Y-17186904D02*
X26301428Y-17282142D01*
X26301428Y-17282142D02*
X26329999Y-17329761D01*
X26329999Y-17329761D02*
X26387142Y-17377380D01*
X26387142Y-17377380D02*
X26501428Y-17377380D01*
X26501428Y-17377380D02*
X26558570Y-17329761D01*
X26015713Y-17377380D02*
X26015713Y-16710714D01*
X26015713Y-16377380D02*
X26044285Y-16425000D01*
X26044285Y-16425000D02*
X26015713Y-16472619D01*
X26015713Y-16472619D02*
X25987142Y-16425000D01*
X25987142Y-16425000D02*
X26015713Y-16377380D01*
X26015713Y-16377380D02*
X26015713Y-16472619D01*
X25815714Y-16710714D02*
X25587142Y-16710714D01*
X25729999Y-16377380D02*
X25729999Y-17234523D01*
X25729999Y-17234523D02*
X25701428Y-17329761D01*
X25701428Y-17329761D02*
X25644285Y-17377380D01*
X25644285Y-17377380D02*
X25587142Y-17377380D01*
X25130000Y-17329761D02*
X25187142Y-17377380D01*
X25187142Y-17377380D02*
X25301428Y-17377380D01*
X25301428Y-17377380D02*
X25358571Y-17329761D01*
X25358571Y-17329761D02*
X25387142Y-17282142D01*
X25387142Y-17282142D02*
X25415714Y-17186904D01*
X25415714Y-17186904D02*
X25415714Y-16901190D01*
X25415714Y-16901190D02*
X25387142Y-16805952D01*
X25387142Y-16805952D02*
X25358571Y-16758333D01*
X25358571Y-16758333D02*
X25301428Y-16710714D01*
X25301428Y-16710714D02*
X25187142Y-16710714D01*
X25187142Y-16710714D02*
X25130000Y-16758333D01*
X24872856Y-17377380D02*
X24872856Y-16377380D01*
X24615714Y-17377380D02*
X24615714Y-16853571D01*
X24615714Y-16853571D02*
X24644285Y-16758333D01*
X24644285Y-16758333D02*
X24701428Y-16710714D01*
X24701428Y-16710714D02*
X24787142Y-16710714D01*
X24787142Y-16710714D02*
X24844285Y-16758333D01*
X24844285Y-16758333D02*
X24872856Y-16805952D01*
X22527142Y-10932619D02*
X22584285Y-10885000D01*
X22584285Y-10885000D02*
X22641428Y-10789761D01*
X22641428Y-10789761D02*
X22727142Y-10646904D01*
X22727142Y-10646904D02*
X22784285Y-10599285D01*
X22784285Y-10599285D02*
X22841428Y-10599285D01*
X22812857Y-10837380D02*
X22870000Y-10789761D01*
X22870000Y-10789761D02*
X22927142Y-10694523D01*
X22927142Y-10694523D02*
X22955714Y-10504047D01*
X22955714Y-10504047D02*
X22955714Y-10170714D01*
X22955714Y-10170714D02*
X22927142Y-9980238D01*
X22927142Y-9980238D02*
X22870000Y-9885000D01*
X22870000Y-9885000D02*
X22812857Y-9837380D01*
X22812857Y-9837380D02*
X22698571Y-9837380D01*
X22698571Y-9837380D02*
X22641428Y-9885000D01*
X22641428Y-9885000D02*
X22584285Y-9980238D01*
X22584285Y-9980238D02*
X22555714Y-10170714D01*
X22555714Y-10170714D02*
X22555714Y-10504047D01*
X22555714Y-10504047D02*
X22584285Y-10694523D01*
X22584285Y-10694523D02*
X22641428Y-10789761D01*
X22641428Y-10789761D02*
X22698571Y-10837380D01*
X22698571Y-10837380D02*
X22812857Y-10837380D01*
X22012857Y-9837380D02*
X22298571Y-9837380D01*
X22298571Y-9837380D02*
X22327143Y-10313571D01*
X22327143Y-10313571D02*
X22298571Y-10265952D01*
X22298571Y-10265952D02*
X22241429Y-10218333D01*
X22241429Y-10218333D02*
X22098571Y-10218333D01*
X22098571Y-10218333D02*
X22041429Y-10265952D01*
X22041429Y-10265952D02*
X22012857Y-10313571D01*
X22012857Y-10313571D02*
X21984286Y-10408809D01*
X21984286Y-10408809D02*
X21984286Y-10646904D01*
X21984286Y-10646904D02*
X22012857Y-10742142D01*
X22012857Y-10742142D02*
X22041429Y-10789761D01*
X22041429Y-10789761D02*
X22098571Y-10837380D01*
X22098571Y-10837380D02*
X22241429Y-10837380D01*
X22241429Y-10837380D02*
X22298571Y-10789761D01*
X22298571Y-10789761D02*
X22327143Y-10742142D01*
X54393214Y-63309642D02*
X54421786Y-63357261D01*
X54421786Y-63357261D02*
X54507500Y-63404880D01*
X54507500Y-63404880D02*
X54564643Y-63404880D01*
X54564643Y-63404880D02*
X54650357Y-63357261D01*
X54650357Y-63357261D02*
X54707500Y-63262023D01*
X54707500Y-63262023D02*
X54736071Y-63166785D01*
X54736071Y-63166785D02*
X54764643Y-62976309D01*
X54764643Y-62976309D02*
X54764643Y-62833452D01*
X54764643Y-62833452D02*
X54736071Y-62642976D01*
X54736071Y-62642976D02*
X54707500Y-62547738D01*
X54707500Y-62547738D02*
X54650357Y-62452500D01*
X54650357Y-62452500D02*
X54564643Y-62404880D01*
X54564643Y-62404880D02*
X54507500Y-62404880D01*
X54507500Y-62404880D02*
X54421786Y-62452500D01*
X54421786Y-62452500D02*
X54393214Y-62500119D01*
X54193214Y-62404880D02*
X53821786Y-62404880D01*
X53821786Y-62404880D02*
X54021786Y-62785833D01*
X54021786Y-62785833D02*
X53936071Y-62785833D01*
X53936071Y-62785833D02*
X53878929Y-62833452D01*
X53878929Y-62833452D02*
X53850357Y-62881071D01*
X53850357Y-62881071D02*
X53821786Y-62976309D01*
X53821786Y-62976309D02*
X53821786Y-63214404D01*
X53821786Y-63214404D02*
X53850357Y-63309642D01*
X53850357Y-63309642D02*
X53878929Y-63357261D01*
X53878929Y-63357261D02*
X53936071Y-63404880D01*
X53936071Y-63404880D02*
X54107500Y-63404880D01*
X54107500Y-63404880D02*
X54164643Y-63357261D01*
X54164643Y-63357261D02*
X54193214Y-63309642D01*
X53536071Y-63404880D02*
X53421785Y-63404880D01*
X53421785Y-63404880D02*
X53364642Y-63357261D01*
X53364642Y-63357261D02*
X53336071Y-63309642D01*
X53336071Y-63309642D02*
X53278928Y-63166785D01*
X53278928Y-63166785D02*
X53250357Y-62976309D01*
X53250357Y-62976309D02*
X53250357Y-62595357D01*
X53250357Y-62595357D02*
X53278928Y-62500119D01*
X53278928Y-62500119D02*
X53307500Y-62452500D01*
X53307500Y-62452500D02*
X53364642Y-62404880D01*
X53364642Y-62404880D02*
X53478928Y-62404880D01*
X53478928Y-62404880D02*
X53536071Y-62452500D01*
X53536071Y-62452500D02*
X53564642Y-62500119D01*
X53564642Y-62500119D02*
X53593214Y-62595357D01*
X53593214Y-62595357D02*
X53593214Y-62833452D01*
X53593214Y-62833452D02*
X53564642Y-62928690D01*
X53564642Y-62928690D02*
X53536071Y-62976309D01*
X53536071Y-62976309D02*
X53478928Y-63023928D01*
X53478928Y-63023928D02*
X53364642Y-63023928D01*
X53364642Y-63023928D02*
X53307500Y-62976309D01*
X53307500Y-62976309D02*
X53278928Y-62928690D01*
X53278928Y-62928690D02*
X53250357Y-62833452D01*
X61230951Y-63666428D02*
X60469047Y-63666428D01*
X60849999Y-64047380D02*
X60849999Y-63285476D01*
X26792857Y-29469380D02*
X26450000Y-29469380D01*
X26621428Y-30469380D02*
X26621428Y-29469380D01*
X26249999Y-30469380D02*
X26249999Y-29469380D01*
X26249999Y-29469380D02*
X26021428Y-29469380D01*
X26021428Y-29469380D02*
X25964285Y-29517000D01*
X25964285Y-29517000D02*
X25935714Y-29564619D01*
X25935714Y-29564619D02*
X25907142Y-29659857D01*
X25907142Y-29659857D02*
X25907142Y-29802714D01*
X25907142Y-29802714D02*
X25935714Y-29897952D01*
X25935714Y-29897952D02*
X25964285Y-29945571D01*
X25964285Y-29945571D02*
X26021428Y-29993190D01*
X26021428Y-29993190D02*
X26249999Y-29993190D01*
X25335714Y-30469380D02*
X25678571Y-30469380D01*
X25507142Y-30469380D02*
X25507142Y-29469380D01*
X25507142Y-29469380D02*
X25564285Y-29612238D01*
X25564285Y-29612238D02*
X25621428Y-29707476D01*
X25621428Y-29707476D02*
X25678571Y-29755095D01*
X24964285Y-29469380D02*
X24907142Y-29469380D01*
X24907142Y-29469380D02*
X24849999Y-29517000D01*
X24849999Y-29517000D02*
X24821428Y-29564619D01*
X24821428Y-29564619D02*
X24792856Y-29659857D01*
X24792856Y-29659857D02*
X24764285Y-29850333D01*
X24764285Y-29850333D02*
X24764285Y-30088428D01*
X24764285Y-30088428D02*
X24792856Y-30278904D01*
X24792856Y-30278904D02*
X24821428Y-30374142D01*
X24821428Y-30374142D02*
X24849999Y-30421761D01*
X24849999Y-30421761D02*
X24907142Y-30469380D01*
X24907142Y-30469380D02*
X24964285Y-30469380D01*
X24964285Y-30469380D02*
X25021428Y-30421761D01*
X25021428Y-30421761D02*
X25049999Y-30374142D01*
X25049999Y-30374142D02*
X25078570Y-30278904D01*
X25078570Y-30278904D02*
X25107142Y-30088428D01*
X25107142Y-30088428D02*
X25107142Y-29850333D01*
X25107142Y-29850333D02*
X25078570Y-29659857D01*
X25078570Y-29659857D02*
X25049999Y-29564619D01*
X25049999Y-29564619D02*
X25021428Y-29517000D01*
X25021428Y-29517000D02*
X24964285Y-29469380D01*
X15009999Y-27987380D02*
X15209999Y-27511190D01*
X15352856Y-27987380D02*
X15352856Y-26987380D01*
X15352856Y-26987380D02*
X15124285Y-26987380D01*
X15124285Y-26987380D02*
X15067142Y-27035000D01*
X15067142Y-27035000D02*
X15038571Y-27082619D01*
X15038571Y-27082619D02*
X15009999Y-27177857D01*
X15009999Y-27177857D02*
X15009999Y-27320714D01*
X15009999Y-27320714D02*
X15038571Y-27415952D01*
X15038571Y-27415952D02*
X15067142Y-27463571D01*
X15067142Y-27463571D02*
X15124285Y-27511190D01*
X15124285Y-27511190D02*
X15352856Y-27511190D01*
X14781428Y-27082619D02*
X14752856Y-27035000D01*
X14752856Y-27035000D02*
X14695714Y-26987380D01*
X14695714Y-26987380D02*
X14552856Y-26987380D01*
X14552856Y-26987380D02*
X14495714Y-27035000D01*
X14495714Y-27035000D02*
X14467142Y-27082619D01*
X14467142Y-27082619D02*
X14438571Y-27177857D01*
X14438571Y-27177857D02*
X14438571Y-27273095D01*
X14438571Y-27273095D02*
X14467142Y-27415952D01*
X14467142Y-27415952D02*
X14809999Y-27987380D01*
X14809999Y-27987380D02*
X14438571Y-27987380D01*
X10552857Y-54567380D02*
X10210000Y-54567380D01*
X10381428Y-55567380D02*
X10381428Y-54567380D01*
X10009999Y-55567380D02*
X10009999Y-54567380D01*
X10009999Y-54567380D02*
X9781428Y-54567380D01*
X9781428Y-54567380D02*
X9724285Y-54615000D01*
X9724285Y-54615000D02*
X9695714Y-54662619D01*
X9695714Y-54662619D02*
X9667142Y-54757857D01*
X9667142Y-54757857D02*
X9667142Y-54900714D01*
X9667142Y-54900714D02*
X9695714Y-54995952D01*
X9695714Y-54995952D02*
X9724285Y-55043571D01*
X9724285Y-55043571D02*
X9781428Y-55091190D01*
X9781428Y-55091190D02*
X10009999Y-55091190D01*
X9438571Y-54662619D02*
X9409999Y-54615000D01*
X9409999Y-54615000D02*
X9352857Y-54567380D01*
X9352857Y-54567380D02*
X9209999Y-54567380D01*
X9209999Y-54567380D02*
X9152857Y-54615000D01*
X9152857Y-54615000D02*
X9124285Y-54662619D01*
X9124285Y-54662619D02*
X9095714Y-54757857D01*
X9095714Y-54757857D02*
X9095714Y-54853095D01*
X9095714Y-54853095D02*
X9124285Y-54995952D01*
X9124285Y-54995952D02*
X9467142Y-55567380D01*
X9467142Y-55567380D02*
X9095714Y-55567380D01*
X8581428Y-54900714D02*
X8581428Y-55567380D01*
X8724285Y-54519761D02*
X8867142Y-55234047D01*
X8867142Y-55234047D02*
X8495713Y-55234047D01*
X62322142Y-34524285D02*
X62369761Y-34495713D01*
X62369761Y-34495713D02*
X62417380Y-34409999D01*
X62417380Y-34409999D02*
X62417380Y-34352856D01*
X62417380Y-34352856D02*
X62369761Y-34267142D01*
X62369761Y-34267142D02*
X62274523Y-34209999D01*
X62274523Y-34209999D02*
X62179285Y-34181428D01*
X62179285Y-34181428D02*
X61988809Y-34152856D01*
X61988809Y-34152856D02*
X61845952Y-34152856D01*
X61845952Y-34152856D02*
X61655476Y-34181428D01*
X61655476Y-34181428D02*
X61560238Y-34209999D01*
X61560238Y-34209999D02*
X61465000Y-34267142D01*
X61465000Y-34267142D02*
X61417380Y-34352856D01*
X61417380Y-34352856D02*
X61417380Y-34409999D01*
X61417380Y-34409999D02*
X61465000Y-34495713D01*
X61465000Y-34495713D02*
X61512619Y-34524285D01*
X61417380Y-34724285D02*
X61417380Y-35095713D01*
X61417380Y-35095713D02*
X61798333Y-34895713D01*
X61798333Y-34895713D02*
X61798333Y-34981428D01*
X61798333Y-34981428D02*
X61845952Y-35038571D01*
X61845952Y-35038571D02*
X61893571Y-35067142D01*
X61893571Y-35067142D02*
X61988809Y-35095713D01*
X61988809Y-35095713D02*
X62226904Y-35095713D01*
X62226904Y-35095713D02*
X62322142Y-35067142D01*
X62322142Y-35067142D02*
X62369761Y-35038571D01*
X62369761Y-35038571D02*
X62417380Y-34981428D01*
X62417380Y-34981428D02*
X62417380Y-34809999D01*
X62417380Y-34809999D02*
X62369761Y-34752856D01*
X62369761Y-34752856D02*
X62322142Y-34724285D01*
X61512619Y-35324285D02*
X61465000Y-35352857D01*
X61465000Y-35352857D02*
X61417380Y-35410000D01*
X61417380Y-35410000D02*
X61417380Y-35552857D01*
X61417380Y-35552857D02*
X61465000Y-35610000D01*
X61465000Y-35610000D02*
X61512619Y-35638571D01*
X61512619Y-35638571D02*
X61607857Y-35667142D01*
X61607857Y-35667142D02*
X61703095Y-35667142D01*
X61703095Y-35667142D02*
X61845952Y-35638571D01*
X61845952Y-35638571D02*
X62417380Y-35295714D01*
X62417380Y-35295714D02*
X62417380Y-35667142D01*
X46062856Y-55597380D02*
X46062856Y-56406904D01*
X46062856Y-56406904D02*
X46034285Y-56502142D01*
X46034285Y-56502142D02*
X46005714Y-56549761D01*
X46005714Y-56549761D02*
X45948571Y-56597380D01*
X45948571Y-56597380D02*
X45834285Y-56597380D01*
X45834285Y-56597380D02*
X45777142Y-56549761D01*
X45777142Y-56549761D02*
X45748571Y-56502142D01*
X45748571Y-56502142D02*
X45719999Y-56406904D01*
X45719999Y-56406904D02*
X45719999Y-55597380D01*
X45120000Y-56597380D02*
X45462857Y-56597380D01*
X45291428Y-56597380D02*
X45291428Y-55597380D01*
X45291428Y-55597380D02*
X45348571Y-55740238D01*
X45348571Y-55740238D02*
X45405714Y-55835476D01*
X45405714Y-55835476D02*
X45462857Y-55883095D01*
X44748571Y-55597380D02*
X44691428Y-55597380D01*
X44691428Y-55597380D02*
X44634285Y-55645000D01*
X44634285Y-55645000D02*
X44605714Y-55692619D01*
X44605714Y-55692619D02*
X44577142Y-55787857D01*
X44577142Y-55787857D02*
X44548571Y-55978333D01*
X44548571Y-55978333D02*
X44548571Y-56216428D01*
X44548571Y-56216428D02*
X44577142Y-56406904D01*
X44577142Y-56406904D02*
X44605714Y-56502142D01*
X44605714Y-56502142D02*
X44634285Y-56549761D01*
X44634285Y-56549761D02*
X44691428Y-56597380D01*
X44691428Y-56597380D02*
X44748571Y-56597380D01*
X44748571Y-56597380D02*
X44805714Y-56549761D01*
X44805714Y-56549761D02*
X44834285Y-56502142D01*
X44834285Y-56502142D02*
X44862856Y-56406904D01*
X44862856Y-56406904D02*
X44891428Y-56216428D01*
X44891428Y-56216428D02*
X44891428Y-55978333D01*
X44891428Y-55978333D02*
X44862856Y-55787857D01*
X44862856Y-55787857D02*
X44834285Y-55692619D01*
X44834285Y-55692619D02*
X44805714Y-55645000D01*
X44805714Y-55645000D02*
X44748571Y-55597380D01*
X29032857Y-39367380D02*
X28690000Y-39367380D01*
X28861428Y-40367380D02*
X28861428Y-39367380D01*
X28489999Y-40367380D02*
X28489999Y-39367380D01*
X28489999Y-39367380D02*
X28261428Y-39367380D01*
X28261428Y-39367380D02*
X28204285Y-39415000D01*
X28204285Y-39415000D02*
X28175714Y-39462619D01*
X28175714Y-39462619D02*
X28147142Y-39557857D01*
X28147142Y-39557857D02*
X28147142Y-39700714D01*
X28147142Y-39700714D02*
X28175714Y-39795952D01*
X28175714Y-39795952D02*
X28204285Y-39843571D01*
X28204285Y-39843571D02*
X28261428Y-39891190D01*
X28261428Y-39891190D02*
X28489999Y-39891190D01*
X27575714Y-40367380D02*
X27918571Y-40367380D01*
X27747142Y-40367380D02*
X27747142Y-39367380D01*
X27747142Y-39367380D02*
X27804285Y-39510238D01*
X27804285Y-39510238D02*
X27861428Y-39605476D01*
X27861428Y-39605476D02*
X27918571Y-39653095D01*
X27375713Y-39367380D02*
X26975713Y-39367380D01*
X26975713Y-39367380D02*
X27232856Y-40367380D01*
X21882142Y-25054285D02*
X21929761Y-25025713D01*
X21929761Y-25025713D02*
X21977380Y-24939999D01*
X21977380Y-24939999D02*
X21977380Y-24882856D01*
X21977380Y-24882856D02*
X21929761Y-24797142D01*
X21929761Y-24797142D02*
X21834523Y-24739999D01*
X21834523Y-24739999D02*
X21739285Y-24711428D01*
X21739285Y-24711428D02*
X21548809Y-24682856D01*
X21548809Y-24682856D02*
X21405952Y-24682856D01*
X21405952Y-24682856D02*
X21215476Y-24711428D01*
X21215476Y-24711428D02*
X21120238Y-24739999D01*
X21120238Y-24739999D02*
X21025000Y-24797142D01*
X21025000Y-24797142D02*
X20977380Y-24882856D01*
X20977380Y-24882856D02*
X20977380Y-24939999D01*
X20977380Y-24939999D02*
X21025000Y-25025713D01*
X21025000Y-25025713D02*
X21072619Y-25054285D01*
X21072619Y-25282856D02*
X21025000Y-25311428D01*
X21025000Y-25311428D02*
X20977380Y-25368571D01*
X20977380Y-25368571D02*
X20977380Y-25511428D01*
X20977380Y-25511428D02*
X21025000Y-25568571D01*
X21025000Y-25568571D02*
X21072619Y-25597142D01*
X21072619Y-25597142D02*
X21167857Y-25625713D01*
X21167857Y-25625713D02*
X21263095Y-25625713D01*
X21263095Y-25625713D02*
X21405952Y-25597142D01*
X21405952Y-25597142D02*
X21977380Y-25254285D01*
X21977380Y-25254285D02*
X21977380Y-25625713D01*
X21977380Y-25911428D02*
X21977380Y-26025714D01*
X21977380Y-26025714D02*
X21929761Y-26082857D01*
X21929761Y-26082857D02*
X21882142Y-26111428D01*
X21882142Y-26111428D02*
X21739285Y-26168571D01*
X21739285Y-26168571D02*
X21548809Y-26197142D01*
X21548809Y-26197142D02*
X21167857Y-26197142D01*
X21167857Y-26197142D02*
X21072619Y-26168571D01*
X21072619Y-26168571D02*
X21025000Y-26140000D01*
X21025000Y-26140000D02*
X20977380Y-26082857D01*
X20977380Y-26082857D02*
X20977380Y-25968571D01*
X20977380Y-25968571D02*
X21025000Y-25911428D01*
X21025000Y-25911428D02*
X21072619Y-25882857D01*
X21072619Y-25882857D02*
X21167857Y-25854285D01*
X21167857Y-25854285D02*
X21405952Y-25854285D01*
X21405952Y-25854285D02*
X21501190Y-25882857D01*
X21501190Y-25882857D02*
X21548809Y-25911428D01*
X21548809Y-25911428D02*
X21596428Y-25968571D01*
X21596428Y-25968571D02*
X21596428Y-26082857D01*
X21596428Y-26082857D02*
X21548809Y-26140000D01*
X21548809Y-26140000D02*
X21501190Y-26168571D01*
X21501190Y-26168571D02*
X21405952Y-26197142D01*
X17942142Y-15534285D02*
X17989761Y-15505713D01*
X17989761Y-15505713D02*
X18037380Y-15419999D01*
X18037380Y-15419999D02*
X18037380Y-15362856D01*
X18037380Y-15362856D02*
X17989761Y-15277142D01*
X17989761Y-15277142D02*
X17894523Y-15219999D01*
X17894523Y-15219999D02*
X17799285Y-15191428D01*
X17799285Y-15191428D02*
X17608809Y-15162856D01*
X17608809Y-15162856D02*
X17465952Y-15162856D01*
X17465952Y-15162856D02*
X17275476Y-15191428D01*
X17275476Y-15191428D02*
X17180238Y-15219999D01*
X17180238Y-15219999D02*
X17085000Y-15277142D01*
X17085000Y-15277142D02*
X17037380Y-15362856D01*
X17037380Y-15362856D02*
X17037380Y-15419999D01*
X17037380Y-15419999D02*
X17085000Y-15505713D01*
X17085000Y-15505713D02*
X17132619Y-15534285D01*
X17037380Y-15734285D02*
X17037380Y-16105713D01*
X17037380Y-16105713D02*
X17418333Y-15905713D01*
X17418333Y-15905713D02*
X17418333Y-15991428D01*
X17418333Y-15991428D02*
X17465952Y-16048571D01*
X17465952Y-16048571D02*
X17513571Y-16077142D01*
X17513571Y-16077142D02*
X17608809Y-16105713D01*
X17608809Y-16105713D02*
X17846904Y-16105713D01*
X17846904Y-16105713D02*
X17942142Y-16077142D01*
X17942142Y-16077142D02*
X17989761Y-16048571D01*
X17989761Y-16048571D02*
X18037380Y-15991428D01*
X18037380Y-15991428D02*
X18037380Y-15819999D01*
X18037380Y-15819999D02*
X17989761Y-15762856D01*
X17989761Y-15762856D02*
X17942142Y-15734285D01*
X17370714Y-16620000D02*
X18037380Y-16620000D01*
X16989761Y-16477142D02*
X17704047Y-16334285D01*
X17704047Y-16334285D02*
X17704047Y-16705714D01*
X36482142Y-39904285D02*
X36529761Y-39875713D01*
X36529761Y-39875713D02*
X36577380Y-39789999D01*
X36577380Y-39789999D02*
X36577380Y-39732856D01*
X36577380Y-39732856D02*
X36529761Y-39647142D01*
X36529761Y-39647142D02*
X36434523Y-39589999D01*
X36434523Y-39589999D02*
X36339285Y-39561428D01*
X36339285Y-39561428D02*
X36148809Y-39532856D01*
X36148809Y-39532856D02*
X36005952Y-39532856D01*
X36005952Y-39532856D02*
X35815476Y-39561428D01*
X35815476Y-39561428D02*
X35720238Y-39589999D01*
X35720238Y-39589999D02*
X35625000Y-39647142D01*
X35625000Y-39647142D02*
X35577380Y-39732856D01*
X35577380Y-39732856D02*
X35577380Y-39789999D01*
X35577380Y-39789999D02*
X35625000Y-39875713D01*
X35625000Y-39875713D02*
X35672619Y-39904285D01*
X35910714Y-40418571D02*
X36577380Y-40418571D01*
X35529761Y-40275713D02*
X36244047Y-40132856D01*
X36244047Y-40132856D02*
X36244047Y-40504285D01*
X36005952Y-40818571D02*
X35958333Y-40761428D01*
X35958333Y-40761428D02*
X35910714Y-40732857D01*
X35910714Y-40732857D02*
X35815476Y-40704285D01*
X35815476Y-40704285D02*
X35767857Y-40704285D01*
X35767857Y-40704285D02*
X35672619Y-40732857D01*
X35672619Y-40732857D02*
X35625000Y-40761428D01*
X35625000Y-40761428D02*
X35577380Y-40818571D01*
X35577380Y-40818571D02*
X35577380Y-40932857D01*
X35577380Y-40932857D02*
X35625000Y-40990000D01*
X35625000Y-40990000D02*
X35672619Y-41018571D01*
X35672619Y-41018571D02*
X35767857Y-41047142D01*
X35767857Y-41047142D02*
X35815476Y-41047142D01*
X35815476Y-41047142D02*
X35910714Y-41018571D01*
X35910714Y-41018571D02*
X35958333Y-40990000D01*
X35958333Y-40990000D02*
X36005952Y-40932857D01*
X36005952Y-40932857D02*
X36005952Y-40818571D01*
X36005952Y-40818571D02*
X36053571Y-40761428D01*
X36053571Y-40761428D02*
X36101190Y-40732857D01*
X36101190Y-40732857D02*
X36196428Y-40704285D01*
X36196428Y-40704285D02*
X36386904Y-40704285D01*
X36386904Y-40704285D02*
X36482142Y-40732857D01*
X36482142Y-40732857D02*
X36529761Y-40761428D01*
X36529761Y-40761428D02*
X36577380Y-40818571D01*
X36577380Y-40818571D02*
X36577380Y-40932857D01*
X36577380Y-40932857D02*
X36529761Y-40990000D01*
X36529761Y-40990000D02*
X36482142Y-41018571D01*
X36482142Y-41018571D02*
X36386904Y-41047142D01*
X36386904Y-41047142D02*
X36196428Y-41047142D01*
X36196428Y-41047142D02*
X36101190Y-41018571D01*
X36101190Y-41018571D02*
X36053571Y-40990000D01*
X36053571Y-40990000D02*
X36005952Y-40932857D01*
X40042857Y-36969380D02*
X39700000Y-36969380D01*
X39871428Y-37969380D02*
X39871428Y-36969380D01*
X39499999Y-37969380D02*
X39499999Y-36969380D01*
X39499999Y-36969380D02*
X39271428Y-36969380D01*
X39271428Y-36969380D02*
X39214285Y-37017000D01*
X39214285Y-37017000D02*
X39185714Y-37064619D01*
X39185714Y-37064619D02*
X39157142Y-37159857D01*
X39157142Y-37159857D02*
X39157142Y-37302714D01*
X39157142Y-37302714D02*
X39185714Y-37397952D01*
X39185714Y-37397952D02*
X39214285Y-37445571D01*
X39214285Y-37445571D02*
X39271428Y-37493190D01*
X39271428Y-37493190D02*
X39499999Y-37493190D01*
X38585714Y-37969380D02*
X38928571Y-37969380D01*
X38757142Y-37969380D02*
X38757142Y-36969380D01*
X38757142Y-36969380D02*
X38814285Y-37112238D01*
X38814285Y-37112238D02*
X38871428Y-37207476D01*
X38871428Y-37207476D02*
X38928571Y-37255095D01*
X38357142Y-37064619D02*
X38328570Y-37017000D01*
X38328570Y-37017000D02*
X38271428Y-36969380D01*
X38271428Y-36969380D02*
X38128570Y-36969380D01*
X38128570Y-36969380D02*
X38071428Y-37017000D01*
X38071428Y-37017000D02*
X38042856Y-37064619D01*
X38042856Y-37064619D02*
X38014285Y-37159857D01*
X38014285Y-37159857D02*
X38014285Y-37255095D01*
X38014285Y-37255095D02*
X38042856Y-37397952D01*
X38042856Y-37397952D02*
X38385713Y-37969380D01*
X38385713Y-37969380D02*
X38014285Y-37969380D01*
X16795714Y-24297380D02*
X16995714Y-23821190D01*
X17138571Y-24297380D02*
X17138571Y-23297380D01*
X17138571Y-23297380D02*
X16910000Y-23297380D01*
X16910000Y-23297380D02*
X16852857Y-23345000D01*
X16852857Y-23345000D02*
X16824286Y-23392619D01*
X16824286Y-23392619D02*
X16795714Y-23487857D01*
X16795714Y-23487857D02*
X16795714Y-23630714D01*
X16795714Y-23630714D02*
X16824286Y-23725952D01*
X16824286Y-23725952D02*
X16852857Y-23773571D01*
X16852857Y-23773571D02*
X16910000Y-23821190D01*
X16910000Y-23821190D02*
X17138571Y-23821190D01*
X16595714Y-23297380D02*
X16224286Y-23297380D01*
X16224286Y-23297380D02*
X16424286Y-23678333D01*
X16424286Y-23678333D02*
X16338571Y-23678333D01*
X16338571Y-23678333D02*
X16281429Y-23725952D01*
X16281429Y-23725952D02*
X16252857Y-23773571D01*
X16252857Y-23773571D02*
X16224286Y-23868809D01*
X16224286Y-23868809D02*
X16224286Y-24106904D01*
X16224286Y-24106904D02*
X16252857Y-24202142D01*
X16252857Y-24202142D02*
X16281429Y-24249761D01*
X16281429Y-24249761D02*
X16338571Y-24297380D01*
X16338571Y-24297380D02*
X16510000Y-24297380D01*
X16510000Y-24297380D02*
X16567143Y-24249761D01*
X16567143Y-24249761D02*
X16595714Y-24202142D01*
X15852857Y-23297380D02*
X15795714Y-23297380D01*
X15795714Y-23297380D02*
X15738571Y-23345000D01*
X15738571Y-23345000D02*
X15710000Y-23392619D01*
X15710000Y-23392619D02*
X15681428Y-23487857D01*
X15681428Y-23487857D02*
X15652857Y-23678333D01*
X15652857Y-23678333D02*
X15652857Y-23916428D01*
X15652857Y-23916428D02*
X15681428Y-24106904D01*
X15681428Y-24106904D02*
X15710000Y-24202142D01*
X15710000Y-24202142D02*
X15738571Y-24249761D01*
X15738571Y-24249761D02*
X15795714Y-24297380D01*
X15795714Y-24297380D02*
X15852857Y-24297380D01*
X15852857Y-24297380D02*
X15910000Y-24249761D01*
X15910000Y-24249761D02*
X15938571Y-24202142D01*
X15938571Y-24202142D02*
X15967142Y-24106904D01*
X15967142Y-24106904D02*
X15995714Y-23916428D01*
X15995714Y-23916428D02*
X15995714Y-23678333D01*
X15995714Y-23678333D02*
X15967142Y-23487857D01*
X15967142Y-23487857D02*
X15938571Y-23392619D01*
X15938571Y-23392619D02*
X15910000Y-23345000D01*
X15910000Y-23345000D02*
X15852857Y-23297380D01*
X51552857Y-21887380D02*
X51210000Y-21887380D01*
X51381428Y-22887380D02*
X51381428Y-21887380D01*
X51009999Y-22887380D02*
X51009999Y-21887380D01*
X51009999Y-21887380D02*
X50781428Y-21887380D01*
X50781428Y-21887380D02*
X50724285Y-21935000D01*
X50724285Y-21935000D02*
X50695714Y-21982619D01*
X50695714Y-21982619D02*
X50667142Y-22077857D01*
X50667142Y-22077857D02*
X50667142Y-22220714D01*
X50667142Y-22220714D02*
X50695714Y-22315952D01*
X50695714Y-22315952D02*
X50724285Y-22363571D01*
X50724285Y-22363571D02*
X50781428Y-22411190D01*
X50781428Y-22411190D02*
X51009999Y-22411190D01*
X50438571Y-21982619D02*
X50409999Y-21935000D01*
X50409999Y-21935000D02*
X50352857Y-21887380D01*
X50352857Y-21887380D02*
X50209999Y-21887380D01*
X50209999Y-21887380D02*
X50152857Y-21935000D01*
X50152857Y-21935000D02*
X50124285Y-21982619D01*
X50124285Y-21982619D02*
X50095714Y-22077857D01*
X50095714Y-22077857D02*
X50095714Y-22173095D01*
X50095714Y-22173095D02*
X50124285Y-22315952D01*
X50124285Y-22315952D02*
X50467142Y-22887380D01*
X50467142Y-22887380D02*
X50095714Y-22887380D01*
X49867142Y-21982619D02*
X49838570Y-21935000D01*
X49838570Y-21935000D02*
X49781428Y-21887380D01*
X49781428Y-21887380D02*
X49638570Y-21887380D01*
X49638570Y-21887380D02*
X49581428Y-21935000D01*
X49581428Y-21935000D02*
X49552856Y-21982619D01*
X49552856Y-21982619D02*
X49524285Y-22077857D01*
X49524285Y-22077857D02*
X49524285Y-22173095D01*
X49524285Y-22173095D02*
X49552856Y-22315952D01*
X49552856Y-22315952D02*
X49895713Y-22887380D01*
X49895713Y-22887380D02*
X49524285Y-22887380D01*
X10332142Y-21050000D02*
X10379761Y-21021428D01*
X10379761Y-21021428D02*
X10427380Y-20935714D01*
X10427380Y-20935714D02*
X10427380Y-20878571D01*
X10427380Y-20878571D02*
X10379761Y-20792857D01*
X10379761Y-20792857D02*
X10284523Y-20735714D01*
X10284523Y-20735714D02*
X10189285Y-20707143D01*
X10189285Y-20707143D02*
X9998809Y-20678571D01*
X9998809Y-20678571D02*
X9855952Y-20678571D01*
X9855952Y-20678571D02*
X9665476Y-20707143D01*
X9665476Y-20707143D02*
X9570238Y-20735714D01*
X9570238Y-20735714D02*
X9475000Y-20792857D01*
X9475000Y-20792857D02*
X9427380Y-20878571D01*
X9427380Y-20878571D02*
X9427380Y-20935714D01*
X9427380Y-20935714D02*
X9475000Y-21021428D01*
X9475000Y-21021428D02*
X9522619Y-21050000D01*
X9760714Y-21564286D02*
X10427380Y-21564286D01*
X9379761Y-21421428D02*
X10094047Y-21278571D01*
X10094047Y-21278571D02*
X10094047Y-21650000D01*
X20752142Y-15434285D02*
X20799761Y-15405713D01*
X20799761Y-15405713D02*
X20847380Y-15319999D01*
X20847380Y-15319999D02*
X20847380Y-15262856D01*
X20847380Y-15262856D02*
X20799761Y-15177142D01*
X20799761Y-15177142D02*
X20704523Y-15119999D01*
X20704523Y-15119999D02*
X20609285Y-15091428D01*
X20609285Y-15091428D02*
X20418809Y-15062856D01*
X20418809Y-15062856D02*
X20275952Y-15062856D01*
X20275952Y-15062856D02*
X20085476Y-15091428D01*
X20085476Y-15091428D02*
X19990238Y-15119999D01*
X19990238Y-15119999D02*
X19895000Y-15177142D01*
X19895000Y-15177142D02*
X19847380Y-15262856D01*
X19847380Y-15262856D02*
X19847380Y-15319999D01*
X19847380Y-15319999D02*
X19895000Y-15405713D01*
X19895000Y-15405713D02*
X19942619Y-15434285D01*
X19847380Y-15634285D02*
X19847380Y-16005713D01*
X19847380Y-16005713D02*
X20228333Y-15805713D01*
X20228333Y-15805713D02*
X20228333Y-15891428D01*
X20228333Y-15891428D02*
X20275952Y-15948571D01*
X20275952Y-15948571D02*
X20323571Y-15977142D01*
X20323571Y-15977142D02*
X20418809Y-16005713D01*
X20418809Y-16005713D02*
X20656904Y-16005713D01*
X20656904Y-16005713D02*
X20752142Y-15977142D01*
X20752142Y-15977142D02*
X20799761Y-15948571D01*
X20799761Y-15948571D02*
X20847380Y-15891428D01*
X20847380Y-15891428D02*
X20847380Y-15719999D01*
X20847380Y-15719999D02*
X20799761Y-15662856D01*
X20799761Y-15662856D02*
X20752142Y-15634285D01*
X19847380Y-16205714D02*
X19847380Y-16605714D01*
X19847380Y-16605714D02*
X20847380Y-16348571D01*
X65385714Y-57142142D02*
X65414286Y-57189761D01*
X65414286Y-57189761D02*
X65500000Y-57237380D01*
X65500000Y-57237380D02*
X65557143Y-57237380D01*
X65557143Y-57237380D02*
X65642857Y-57189761D01*
X65642857Y-57189761D02*
X65700000Y-57094523D01*
X65700000Y-57094523D02*
X65728571Y-56999285D01*
X65728571Y-56999285D02*
X65757143Y-56808809D01*
X65757143Y-56808809D02*
X65757143Y-56665952D01*
X65757143Y-56665952D02*
X65728571Y-56475476D01*
X65728571Y-56475476D02*
X65700000Y-56380238D01*
X65700000Y-56380238D02*
X65642857Y-56285000D01*
X65642857Y-56285000D02*
X65557143Y-56237380D01*
X65557143Y-56237380D02*
X65500000Y-56237380D01*
X65500000Y-56237380D02*
X65414286Y-56285000D01*
X65414286Y-56285000D02*
X65385714Y-56332619D01*
X64871429Y-56570714D02*
X64871429Y-57237380D01*
X65014286Y-56189761D02*
X65157143Y-56904047D01*
X65157143Y-56904047D02*
X64785714Y-56904047D01*
X64300000Y-56237380D02*
X64414285Y-56237380D01*
X64414285Y-56237380D02*
X64471428Y-56285000D01*
X64471428Y-56285000D02*
X64500000Y-56332619D01*
X64500000Y-56332619D02*
X64557142Y-56475476D01*
X64557142Y-56475476D02*
X64585714Y-56665952D01*
X64585714Y-56665952D02*
X64585714Y-57046904D01*
X64585714Y-57046904D02*
X64557142Y-57142142D01*
X64557142Y-57142142D02*
X64528571Y-57189761D01*
X64528571Y-57189761D02*
X64471428Y-57237380D01*
X64471428Y-57237380D02*
X64357142Y-57237380D01*
X64357142Y-57237380D02*
X64300000Y-57189761D01*
X64300000Y-57189761D02*
X64271428Y-57142142D01*
X64271428Y-57142142D02*
X64242857Y-57046904D01*
X64242857Y-57046904D02*
X64242857Y-56808809D01*
X64242857Y-56808809D02*
X64271428Y-56713571D01*
X64271428Y-56713571D02*
X64300000Y-56665952D01*
X64300000Y-56665952D02*
X64357142Y-56618333D01*
X64357142Y-56618333D02*
X64471428Y-56618333D01*
X64471428Y-56618333D02*
X64528571Y-56665952D01*
X64528571Y-56665952D02*
X64557142Y-56713571D01*
X64557142Y-56713571D02*
X64585714Y-56808809D01*
X14987142Y-43212619D02*
X15044285Y-43165000D01*
X15044285Y-43165000D02*
X15101428Y-43069761D01*
X15101428Y-43069761D02*
X15187142Y-42926904D01*
X15187142Y-42926904D02*
X15244285Y-42879285D01*
X15244285Y-42879285D02*
X15301428Y-42879285D01*
X15272857Y-43117380D02*
X15330000Y-43069761D01*
X15330000Y-43069761D02*
X15387142Y-42974523D01*
X15387142Y-42974523D02*
X15415714Y-42784047D01*
X15415714Y-42784047D02*
X15415714Y-42450714D01*
X15415714Y-42450714D02*
X15387142Y-42260238D01*
X15387142Y-42260238D02*
X15330000Y-42165000D01*
X15330000Y-42165000D02*
X15272857Y-42117380D01*
X15272857Y-42117380D02*
X15158571Y-42117380D01*
X15158571Y-42117380D02*
X15101428Y-42165000D01*
X15101428Y-42165000D02*
X15044285Y-42260238D01*
X15044285Y-42260238D02*
X15015714Y-42450714D01*
X15015714Y-42450714D02*
X15015714Y-42784047D01*
X15015714Y-42784047D02*
X15044285Y-42974523D01*
X15044285Y-42974523D02*
X15101428Y-43069761D01*
X15101428Y-43069761D02*
X15158571Y-43117380D01*
X15158571Y-43117380D02*
X15272857Y-43117380D01*
X14815714Y-42117380D02*
X14444286Y-42117380D01*
X14444286Y-42117380D02*
X14644286Y-42498333D01*
X14644286Y-42498333D02*
X14558571Y-42498333D01*
X14558571Y-42498333D02*
X14501429Y-42545952D01*
X14501429Y-42545952D02*
X14472857Y-42593571D01*
X14472857Y-42593571D02*
X14444286Y-42688809D01*
X14444286Y-42688809D02*
X14444286Y-42926904D01*
X14444286Y-42926904D02*
X14472857Y-43022142D01*
X14472857Y-43022142D02*
X14501429Y-43069761D01*
X14501429Y-43069761D02*
X14558571Y-43117380D01*
X14558571Y-43117380D02*
X14730000Y-43117380D01*
X14730000Y-43117380D02*
X14787143Y-43069761D01*
X14787143Y-43069761D02*
X14815714Y-43022142D01*
X7205714Y-12672142D02*
X7234286Y-12719761D01*
X7234286Y-12719761D02*
X7320000Y-12767380D01*
X7320000Y-12767380D02*
X7377143Y-12767380D01*
X7377143Y-12767380D02*
X7462857Y-12719761D01*
X7462857Y-12719761D02*
X7520000Y-12624523D01*
X7520000Y-12624523D02*
X7548571Y-12529285D01*
X7548571Y-12529285D02*
X7577143Y-12338809D01*
X7577143Y-12338809D02*
X7577143Y-12195952D01*
X7577143Y-12195952D02*
X7548571Y-12005476D01*
X7548571Y-12005476D02*
X7520000Y-11910238D01*
X7520000Y-11910238D02*
X7462857Y-11815000D01*
X7462857Y-11815000D02*
X7377143Y-11767380D01*
X7377143Y-11767380D02*
X7320000Y-11767380D01*
X7320000Y-11767380D02*
X7234286Y-11815000D01*
X7234286Y-11815000D02*
X7205714Y-11862619D01*
X6634286Y-12767380D02*
X6977143Y-12767380D01*
X6805714Y-12767380D02*
X6805714Y-11767380D01*
X6805714Y-11767380D02*
X6862857Y-11910238D01*
X6862857Y-11910238D02*
X6920000Y-12005476D01*
X6920000Y-12005476D02*
X6977143Y-12053095D01*
X6120000Y-11767380D02*
X6234285Y-11767380D01*
X6234285Y-11767380D02*
X6291428Y-11815000D01*
X6291428Y-11815000D02*
X6320000Y-11862619D01*
X6320000Y-11862619D02*
X6377142Y-12005476D01*
X6377142Y-12005476D02*
X6405714Y-12195952D01*
X6405714Y-12195952D02*
X6405714Y-12576904D01*
X6405714Y-12576904D02*
X6377142Y-12672142D01*
X6377142Y-12672142D02*
X6348571Y-12719761D01*
X6348571Y-12719761D02*
X6291428Y-12767380D01*
X6291428Y-12767380D02*
X6177142Y-12767380D01*
X6177142Y-12767380D02*
X6120000Y-12719761D01*
X6120000Y-12719761D02*
X6091428Y-12672142D01*
X6091428Y-12672142D02*
X6062857Y-12576904D01*
X6062857Y-12576904D02*
X6062857Y-12338809D01*
X6062857Y-12338809D02*
X6091428Y-12243571D01*
X6091428Y-12243571D02*
X6120000Y-12195952D01*
X6120000Y-12195952D02*
X6177142Y-12148333D01*
X6177142Y-12148333D02*
X6291428Y-12148333D01*
X6291428Y-12148333D02*
X6348571Y-12195952D01*
X6348571Y-12195952D02*
X6377142Y-12243571D01*
X6377142Y-12243571D02*
X6405714Y-12338809D01*
X30192142Y-42494285D02*
X30239761Y-42465713D01*
X30239761Y-42465713D02*
X30287380Y-42379999D01*
X30287380Y-42379999D02*
X30287380Y-42322856D01*
X30287380Y-42322856D02*
X30239761Y-42237142D01*
X30239761Y-42237142D02*
X30144523Y-42179999D01*
X30144523Y-42179999D02*
X30049285Y-42151428D01*
X30049285Y-42151428D02*
X29858809Y-42122856D01*
X29858809Y-42122856D02*
X29715952Y-42122856D01*
X29715952Y-42122856D02*
X29525476Y-42151428D01*
X29525476Y-42151428D02*
X29430238Y-42179999D01*
X29430238Y-42179999D02*
X29335000Y-42237142D01*
X29335000Y-42237142D02*
X29287380Y-42322856D01*
X29287380Y-42322856D02*
X29287380Y-42379999D01*
X29287380Y-42379999D02*
X29335000Y-42465713D01*
X29335000Y-42465713D02*
X29382619Y-42494285D01*
X29287380Y-42694285D02*
X29287380Y-43065713D01*
X29287380Y-43065713D02*
X29668333Y-42865713D01*
X29668333Y-42865713D02*
X29668333Y-42951428D01*
X29668333Y-42951428D02*
X29715952Y-43008571D01*
X29715952Y-43008571D02*
X29763571Y-43037142D01*
X29763571Y-43037142D02*
X29858809Y-43065713D01*
X29858809Y-43065713D02*
X30096904Y-43065713D01*
X30096904Y-43065713D02*
X30192142Y-43037142D01*
X30192142Y-43037142D02*
X30239761Y-43008571D01*
X30239761Y-43008571D02*
X30287380Y-42951428D01*
X30287380Y-42951428D02*
X30287380Y-42779999D01*
X30287380Y-42779999D02*
X30239761Y-42722856D01*
X30239761Y-42722856D02*
X30192142Y-42694285D01*
X29287380Y-43608571D02*
X29287380Y-43322857D01*
X29287380Y-43322857D02*
X29763571Y-43294285D01*
X29763571Y-43294285D02*
X29715952Y-43322857D01*
X29715952Y-43322857D02*
X29668333Y-43380000D01*
X29668333Y-43380000D02*
X29668333Y-43522857D01*
X29668333Y-43522857D02*
X29715952Y-43580000D01*
X29715952Y-43580000D02*
X29763571Y-43608571D01*
X29763571Y-43608571D02*
X29858809Y-43637142D01*
X29858809Y-43637142D02*
X30096904Y-43637142D01*
X30096904Y-43637142D02*
X30192142Y-43608571D01*
X30192142Y-43608571D02*
X30239761Y-43580000D01*
X30239761Y-43580000D02*
X30287380Y-43522857D01*
X30287380Y-43522857D02*
X30287380Y-43380000D01*
X30287380Y-43380000D02*
X30239761Y-43322857D01*
X30239761Y-43322857D02*
X30192142Y-43294285D01*
X7672142Y-10074285D02*
X7719761Y-10045713D01*
X7719761Y-10045713D02*
X7767380Y-9959999D01*
X7767380Y-9959999D02*
X7767380Y-9902856D01*
X7767380Y-9902856D02*
X7719761Y-9817142D01*
X7719761Y-9817142D02*
X7624523Y-9759999D01*
X7624523Y-9759999D02*
X7529285Y-9731428D01*
X7529285Y-9731428D02*
X7338809Y-9702856D01*
X7338809Y-9702856D02*
X7195952Y-9702856D01*
X7195952Y-9702856D02*
X7005476Y-9731428D01*
X7005476Y-9731428D02*
X6910238Y-9759999D01*
X6910238Y-9759999D02*
X6815000Y-9817142D01*
X6815000Y-9817142D02*
X6767380Y-9902856D01*
X6767380Y-9902856D02*
X6767380Y-9959999D01*
X6767380Y-9959999D02*
X6815000Y-10045713D01*
X6815000Y-10045713D02*
X6862619Y-10074285D01*
X7767380Y-10645713D02*
X7767380Y-10302856D01*
X7767380Y-10474285D02*
X6767380Y-10474285D01*
X6767380Y-10474285D02*
X6910238Y-10417142D01*
X6910238Y-10417142D02*
X7005476Y-10359999D01*
X7005476Y-10359999D02*
X7053095Y-10302856D01*
X6767380Y-11017142D02*
X6767380Y-11074285D01*
X6767380Y-11074285D02*
X6815000Y-11131428D01*
X6815000Y-11131428D02*
X6862619Y-11160000D01*
X6862619Y-11160000D02*
X6957857Y-11188571D01*
X6957857Y-11188571D02*
X7148333Y-11217142D01*
X7148333Y-11217142D02*
X7386428Y-11217142D01*
X7386428Y-11217142D02*
X7576904Y-11188571D01*
X7576904Y-11188571D02*
X7672142Y-11160000D01*
X7672142Y-11160000D02*
X7719761Y-11131428D01*
X7719761Y-11131428D02*
X7767380Y-11074285D01*
X7767380Y-11074285D02*
X7767380Y-11017142D01*
X7767380Y-11017142D02*
X7719761Y-10960000D01*
X7719761Y-10960000D02*
X7672142Y-10931428D01*
X7672142Y-10931428D02*
X7576904Y-10902857D01*
X7576904Y-10902857D02*
X7386428Y-10874285D01*
X7386428Y-10874285D02*
X7148333Y-10874285D01*
X7148333Y-10874285D02*
X6957857Y-10902857D01*
X6957857Y-10902857D02*
X6862619Y-10931428D01*
X6862619Y-10931428D02*
X6815000Y-10960000D01*
X6815000Y-10960000D02*
X6767380Y-11017142D01*
X54405714Y-66722142D02*
X54434286Y-66769761D01*
X54434286Y-66769761D02*
X54520000Y-66817380D01*
X54520000Y-66817380D02*
X54577143Y-66817380D01*
X54577143Y-66817380D02*
X54662857Y-66769761D01*
X54662857Y-66769761D02*
X54720000Y-66674523D01*
X54720000Y-66674523D02*
X54748571Y-66579285D01*
X54748571Y-66579285D02*
X54777143Y-66388809D01*
X54777143Y-66388809D02*
X54777143Y-66245952D01*
X54777143Y-66245952D02*
X54748571Y-66055476D01*
X54748571Y-66055476D02*
X54720000Y-65960238D01*
X54720000Y-65960238D02*
X54662857Y-65865000D01*
X54662857Y-65865000D02*
X54577143Y-65817380D01*
X54577143Y-65817380D02*
X54520000Y-65817380D01*
X54520000Y-65817380D02*
X54434286Y-65865000D01*
X54434286Y-65865000D02*
X54405714Y-65912619D01*
X53891429Y-66150714D02*
X53891429Y-66817380D01*
X54034286Y-65769761D02*
X54177143Y-66484047D01*
X54177143Y-66484047D02*
X53805714Y-66484047D01*
X53462857Y-65817380D02*
X53405714Y-65817380D01*
X53405714Y-65817380D02*
X53348571Y-65865000D01*
X53348571Y-65865000D02*
X53320000Y-65912619D01*
X53320000Y-65912619D02*
X53291428Y-66007857D01*
X53291428Y-66007857D02*
X53262857Y-66198333D01*
X53262857Y-66198333D02*
X53262857Y-66436428D01*
X53262857Y-66436428D02*
X53291428Y-66626904D01*
X53291428Y-66626904D02*
X53320000Y-66722142D01*
X53320000Y-66722142D02*
X53348571Y-66769761D01*
X53348571Y-66769761D02*
X53405714Y-66817380D01*
X53405714Y-66817380D02*
X53462857Y-66817380D01*
X53462857Y-66817380D02*
X53520000Y-66769761D01*
X53520000Y-66769761D02*
X53548571Y-66722142D01*
X53548571Y-66722142D02*
X53577142Y-66626904D01*
X53577142Y-66626904D02*
X53605714Y-66436428D01*
X53605714Y-66436428D02*
X53605714Y-66198333D01*
X53605714Y-66198333D02*
X53577142Y-66007857D01*
X53577142Y-66007857D02*
X53548571Y-65912619D01*
X53548571Y-65912619D02*
X53520000Y-65865000D01*
X53520000Y-65865000D02*
X53462857Y-65817380D01*
X61230951Y-67116428D02*
X60469047Y-67116428D01*
X60849999Y-67497380D02*
X60849999Y-66735476D01*
X17042857Y-4219380D02*
X16700000Y-4219380D01*
X16871428Y-5219380D02*
X16871428Y-4219380D01*
X16499999Y-5219380D02*
X16499999Y-4219380D01*
X16499999Y-4219380D02*
X16271428Y-4219380D01*
X16271428Y-4219380D02*
X16214285Y-4267000D01*
X16214285Y-4267000D02*
X16185714Y-4314619D01*
X16185714Y-4314619D02*
X16157142Y-4409857D01*
X16157142Y-4409857D02*
X16157142Y-4552714D01*
X16157142Y-4552714D02*
X16185714Y-4647952D01*
X16185714Y-4647952D02*
X16214285Y-4695571D01*
X16214285Y-4695571D02*
X16271428Y-4743190D01*
X16271428Y-4743190D02*
X16499999Y-4743190D01*
X15585714Y-5219380D02*
X15928571Y-5219380D01*
X15757142Y-5219380D02*
X15757142Y-4219380D01*
X15757142Y-4219380D02*
X15814285Y-4362238D01*
X15814285Y-4362238D02*
X15871428Y-4457476D01*
X15871428Y-4457476D02*
X15928571Y-4505095D01*
X15385713Y-4219380D02*
X15014285Y-4219380D01*
X15014285Y-4219380D02*
X15214285Y-4600333D01*
X15214285Y-4600333D02*
X15128570Y-4600333D01*
X15128570Y-4600333D02*
X15071428Y-4647952D01*
X15071428Y-4647952D02*
X15042856Y-4695571D01*
X15042856Y-4695571D02*
X15014285Y-4790809D01*
X15014285Y-4790809D02*
X15014285Y-5028904D01*
X15014285Y-5028904D02*
X15042856Y-5124142D01*
X15042856Y-5124142D02*
X15071428Y-5171761D01*
X15071428Y-5171761D02*
X15128570Y-5219380D01*
X15128570Y-5219380D02*
X15299999Y-5219380D01*
X15299999Y-5219380D02*
X15357142Y-5171761D01*
X15357142Y-5171761D02*
X15385713Y-5124142D01*
X30027142Y-47277380D02*
X30027142Y-48086904D01*
X30027142Y-48086904D02*
X29998571Y-48182142D01*
X29998571Y-48182142D02*
X29970000Y-48229761D01*
X29970000Y-48229761D02*
X29912857Y-48277380D01*
X29912857Y-48277380D02*
X29798571Y-48277380D01*
X29798571Y-48277380D02*
X29741428Y-48229761D01*
X29741428Y-48229761D02*
X29712857Y-48182142D01*
X29712857Y-48182142D02*
X29684285Y-48086904D01*
X29684285Y-48086904D02*
X29684285Y-47277380D01*
X29312857Y-47705952D02*
X29370000Y-47658333D01*
X29370000Y-47658333D02*
X29398571Y-47610714D01*
X29398571Y-47610714D02*
X29427143Y-47515476D01*
X29427143Y-47515476D02*
X29427143Y-47467857D01*
X29427143Y-47467857D02*
X29398571Y-47372619D01*
X29398571Y-47372619D02*
X29370000Y-47325000D01*
X29370000Y-47325000D02*
X29312857Y-47277380D01*
X29312857Y-47277380D02*
X29198571Y-47277380D01*
X29198571Y-47277380D02*
X29141429Y-47325000D01*
X29141429Y-47325000D02*
X29112857Y-47372619D01*
X29112857Y-47372619D02*
X29084286Y-47467857D01*
X29084286Y-47467857D02*
X29084286Y-47515476D01*
X29084286Y-47515476D02*
X29112857Y-47610714D01*
X29112857Y-47610714D02*
X29141429Y-47658333D01*
X29141429Y-47658333D02*
X29198571Y-47705952D01*
X29198571Y-47705952D02*
X29312857Y-47705952D01*
X29312857Y-47705952D02*
X29370000Y-47753571D01*
X29370000Y-47753571D02*
X29398571Y-47801190D01*
X29398571Y-47801190D02*
X29427143Y-47896428D01*
X29427143Y-47896428D02*
X29427143Y-48086904D01*
X29427143Y-48086904D02*
X29398571Y-48182142D01*
X29398571Y-48182142D02*
X29370000Y-48229761D01*
X29370000Y-48229761D02*
X29312857Y-48277380D01*
X29312857Y-48277380D02*
X29198571Y-48277380D01*
X29198571Y-48277380D02*
X29141429Y-48229761D01*
X29141429Y-48229761D02*
X29112857Y-48182142D01*
X29112857Y-48182142D02*
X29084286Y-48086904D01*
X29084286Y-48086904D02*
X29084286Y-47896428D01*
X29084286Y-47896428D02*
X29112857Y-47801190D01*
X29112857Y-47801190D02*
X29141429Y-47753571D01*
X29141429Y-47753571D02*
X29198571Y-47705952D01*
X50937143Y-6997380D02*
X50594286Y-6997380D01*
X50765714Y-7997380D02*
X50765714Y-6997380D01*
X50394285Y-7997380D02*
X50394285Y-6997380D01*
X50394285Y-6997380D02*
X50165714Y-6997380D01*
X50165714Y-6997380D02*
X50108571Y-7045000D01*
X50108571Y-7045000D02*
X50080000Y-7092619D01*
X50080000Y-7092619D02*
X50051428Y-7187857D01*
X50051428Y-7187857D02*
X50051428Y-7330714D01*
X50051428Y-7330714D02*
X50080000Y-7425952D01*
X50080000Y-7425952D02*
X50108571Y-7473571D01*
X50108571Y-7473571D02*
X50165714Y-7521190D01*
X50165714Y-7521190D02*
X50394285Y-7521190D01*
X49537143Y-7330714D02*
X49537143Y-7997380D01*
X49680000Y-6949761D02*
X49822857Y-7664047D01*
X49822857Y-7664047D02*
X49451428Y-7664047D01*
X64507143Y-9219380D02*
X64164286Y-9219380D01*
X64335714Y-10219380D02*
X64335714Y-9219380D01*
X63964285Y-10219380D02*
X63964285Y-9219380D01*
X63964285Y-9219380D02*
X63735714Y-9219380D01*
X63735714Y-9219380D02*
X63678571Y-9267000D01*
X63678571Y-9267000D02*
X63650000Y-9314619D01*
X63650000Y-9314619D02*
X63621428Y-9409857D01*
X63621428Y-9409857D02*
X63621428Y-9552714D01*
X63621428Y-9552714D02*
X63650000Y-9647952D01*
X63650000Y-9647952D02*
X63678571Y-9695571D01*
X63678571Y-9695571D02*
X63735714Y-9743190D01*
X63735714Y-9743190D02*
X63964285Y-9743190D01*
X63050000Y-10219380D02*
X63392857Y-10219380D01*
X63221428Y-10219380D02*
X63221428Y-9219380D01*
X63221428Y-9219380D02*
X63278571Y-9362238D01*
X63278571Y-9362238D02*
X63335714Y-9457476D01*
X63335714Y-9457476D02*
X63392857Y-9505095D01*
X47025714Y-34642142D02*
X47054286Y-34689761D01*
X47054286Y-34689761D02*
X47140000Y-34737380D01*
X47140000Y-34737380D02*
X47197143Y-34737380D01*
X47197143Y-34737380D02*
X47282857Y-34689761D01*
X47282857Y-34689761D02*
X47340000Y-34594523D01*
X47340000Y-34594523D02*
X47368571Y-34499285D01*
X47368571Y-34499285D02*
X47397143Y-34308809D01*
X47397143Y-34308809D02*
X47397143Y-34165952D01*
X47397143Y-34165952D02*
X47368571Y-33975476D01*
X47368571Y-33975476D02*
X47340000Y-33880238D01*
X47340000Y-33880238D02*
X47282857Y-33785000D01*
X47282857Y-33785000D02*
X47197143Y-33737380D01*
X47197143Y-33737380D02*
X47140000Y-33737380D01*
X47140000Y-33737380D02*
X47054286Y-33785000D01*
X47054286Y-33785000D02*
X47025714Y-33832619D01*
X46797143Y-33832619D02*
X46768571Y-33785000D01*
X46768571Y-33785000D02*
X46711429Y-33737380D01*
X46711429Y-33737380D02*
X46568571Y-33737380D01*
X46568571Y-33737380D02*
X46511429Y-33785000D01*
X46511429Y-33785000D02*
X46482857Y-33832619D01*
X46482857Y-33832619D02*
X46454286Y-33927857D01*
X46454286Y-33927857D02*
X46454286Y-34023095D01*
X46454286Y-34023095D02*
X46482857Y-34165952D01*
X46482857Y-34165952D02*
X46825714Y-34737380D01*
X46825714Y-34737380D02*
X46454286Y-34737380D01*
X45882857Y-34737380D02*
X46225714Y-34737380D01*
X46054285Y-34737380D02*
X46054285Y-33737380D01*
X46054285Y-33737380D02*
X46111428Y-33880238D01*
X46111428Y-33880238D02*
X46168571Y-33975476D01*
X46168571Y-33975476D02*
X46225714Y-34023095D01*
X20812142Y-42424285D02*
X20859761Y-42395713D01*
X20859761Y-42395713D02*
X20907380Y-42309999D01*
X20907380Y-42309999D02*
X20907380Y-42252856D01*
X20907380Y-42252856D02*
X20859761Y-42167142D01*
X20859761Y-42167142D02*
X20764523Y-42109999D01*
X20764523Y-42109999D02*
X20669285Y-42081428D01*
X20669285Y-42081428D02*
X20478809Y-42052856D01*
X20478809Y-42052856D02*
X20335952Y-42052856D01*
X20335952Y-42052856D02*
X20145476Y-42081428D01*
X20145476Y-42081428D02*
X20050238Y-42109999D01*
X20050238Y-42109999D02*
X19955000Y-42167142D01*
X19955000Y-42167142D02*
X19907380Y-42252856D01*
X19907380Y-42252856D02*
X19907380Y-42309999D01*
X19907380Y-42309999D02*
X19955000Y-42395713D01*
X19955000Y-42395713D02*
X20002619Y-42424285D01*
X20002619Y-42652856D02*
X19955000Y-42681428D01*
X19955000Y-42681428D02*
X19907380Y-42738571D01*
X19907380Y-42738571D02*
X19907380Y-42881428D01*
X19907380Y-42881428D02*
X19955000Y-42938571D01*
X19955000Y-42938571D02*
X20002619Y-42967142D01*
X20002619Y-42967142D02*
X20097857Y-42995713D01*
X20097857Y-42995713D02*
X20193095Y-42995713D01*
X20193095Y-42995713D02*
X20335952Y-42967142D01*
X20335952Y-42967142D02*
X20907380Y-42624285D01*
X20907380Y-42624285D02*
X20907380Y-42995713D01*
X19907380Y-43510000D02*
X19907380Y-43395714D01*
X19907380Y-43395714D02*
X19955000Y-43338571D01*
X19955000Y-43338571D02*
X20002619Y-43310000D01*
X20002619Y-43310000D02*
X20145476Y-43252857D01*
X20145476Y-43252857D02*
X20335952Y-43224285D01*
X20335952Y-43224285D02*
X20716904Y-43224285D01*
X20716904Y-43224285D02*
X20812142Y-43252857D01*
X20812142Y-43252857D02*
X20859761Y-43281428D01*
X20859761Y-43281428D02*
X20907380Y-43338571D01*
X20907380Y-43338571D02*
X20907380Y-43452857D01*
X20907380Y-43452857D02*
X20859761Y-43510000D01*
X20859761Y-43510000D02*
X20812142Y-43538571D01*
X20812142Y-43538571D02*
X20716904Y-43567142D01*
X20716904Y-43567142D02*
X20478809Y-43567142D01*
X20478809Y-43567142D02*
X20383571Y-43538571D01*
X20383571Y-43538571D02*
X20335952Y-43510000D01*
X20335952Y-43510000D02*
X20288333Y-43452857D01*
X20288333Y-43452857D02*
X20288333Y-43338571D01*
X20288333Y-43338571D02*
X20335952Y-43281428D01*
X20335952Y-43281428D02*
X20383571Y-43252857D01*
X20383571Y-43252857D02*
X20478809Y-43224285D01*
X14127380Y-6534285D02*
X13651190Y-6334285D01*
X14127380Y-6191428D02*
X13127380Y-6191428D01*
X13127380Y-6191428D02*
X13127380Y-6419999D01*
X13127380Y-6419999D02*
X13175000Y-6477142D01*
X13175000Y-6477142D02*
X13222619Y-6505713D01*
X13222619Y-6505713D02*
X13317857Y-6534285D01*
X13317857Y-6534285D02*
X13460714Y-6534285D01*
X13460714Y-6534285D02*
X13555952Y-6505713D01*
X13555952Y-6505713D02*
X13603571Y-6477142D01*
X13603571Y-6477142D02*
X13651190Y-6419999D01*
X13651190Y-6419999D02*
X13651190Y-6191428D01*
X14127380Y-7105713D02*
X14127380Y-6762856D01*
X14127380Y-6934285D02*
X13127380Y-6934285D01*
X13127380Y-6934285D02*
X13270238Y-6877142D01*
X13270238Y-6877142D02*
X13365476Y-6819999D01*
X13365476Y-6819999D02*
X13413095Y-6762856D01*
X13127380Y-7620000D02*
X13127380Y-7505714D01*
X13127380Y-7505714D02*
X13175000Y-7448571D01*
X13175000Y-7448571D02*
X13222619Y-7420000D01*
X13222619Y-7420000D02*
X13365476Y-7362857D01*
X13365476Y-7362857D02*
X13555952Y-7334285D01*
X13555952Y-7334285D02*
X13936904Y-7334285D01*
X13936904Y-7334285D02*
X14032142Y-7362857D01*
X14032142Y-7362857D02*
X14079761Y-7391428D01*
X14079761Y-7391428D02*
X14127380Y-7448571D01*
X14127380Y-7448571D02*
X14127380Y-7562857D01*
X14127380Y-7562857D02*
X14079761Y-7620000D01*
X14079761Y-7620000D02*
X14032142Y-7648571D01*
X14032142Y-7648571D02*
X13936904Y-7677142D01*
X13936904Y-7677142D02*
X13698809Y-7677142D01*
X13698809Y-7677142D02*
X13603571Y-7648571D01*
X13603571Y-7648571D02*
X13555952Y-7620000D01*
X13555952Y-7620000D02*
X13508333Y-7562857D01*
X13508333Y-7562857D02*
X13508333Y-7448571D01*
X13508333Y-7448571D02*
X13555952Y-7391428D01*
X13555952Y-7391428D02*
X13603571Y-7362857D01*
X13603571Y-7362857D02*
X13698809Y-7334285D01*
X20565714Y-9752380D02*
X20765714Y-9276190D01*
X20908571Y-9752380D02*
X20908571Y-8752380D01*
X20908571Y-8752380D02*
X20680000Y-8752380D01*
X20680000Y-8752380D02*
X20622857Y-8800000D01*
X20622857Y-8800000D02*
X20594286Y-8847619D01*
X20594286Y-8847619D02*
X20565714Y-8942857D01*
X20565714Y-8942857D02*
X20565714Y-9085714D01*
X20565714Y-9085714D02*
X20594286Y-9180952D01*
X20594286Y-9180952D02*
X20622857Y-9228571D01*
X20622857Y-9228571D02*
X20680000Y-9276190D01*
X20680000Y-9276190D02*
X20908571Y-9276190D01*
X19994286Y-9752380D02*
X20337143Y-9752380D01*
X20165714Y-9752380D02*
X20165714Y-8752380D01*
X20165714Y-8752380D02*
X20222857Y-8895238D01*
X20222857Y-8895238D02*
X20280000Y-8990476D01*
X20280000Y-8990476D02*
X20337143Y-9038095D01*
X19794285Y-8752380D02*
X19394285Y-8752380D01*
X19394285Y-8752380D02*
X19651428Y-9752380D01*
X19392142Y-16614285D02*
X19439761Y-16585713D01*
X19439761Y-16585713D02*
X19487380Y-16499999D01*
X19487380Y-16499999D02*
X19487380Y-16442856D01*
X19487380Y-16442856D02*
X19439761Y-16357142D01*
X19439761Y-16357142D02*
X19344523Y-16299999D01*
X19344523Y-16299999D02*
X19249285Y-16271428D01*
X19249285Y-16271428D02*
X19058809Y-16242856D01*
X19058809Y-16242856D02*
X18915952Y-16242856D01*
X18915952Y-16242856D02*
X18725476Y-16271428D01*
X18725476Y-16271428D02*
X18630238Y-16299999D01*
X18630238Y-16299999D02*
X18535000Y-16357142D01*
X18535000Y-16357142D02*
X18487380Y-16442856D01*
X18487380Y-16442856D02*
X18487380Y-16499999D01*
X18487380Y-16499999D02*
X18535000Y-16585713D01*
X18535000Y-16585713D02*
X18582619Y-16614285D01*
X18487380Y-16814285D02*
X18487380Y-17185713D01*
X18487380Y-17185713D02*
X18868333Y-16985713D01*
X18868333Y-16985713D02*
X18868333Y-17071428D01*
X18868333Y-17071428D02*
X18915952Y-17128571D01*
X18915952Y-17128571D02*
X18963571Y-17157142D01*
X18963571Y-17157142D02*
X19058809Y-17185713D01*
X19058809Y-17185713D02*
X19296904Y-17185713D01*
X19296904Y-17185713D02*
X19392142Y-17157142D01*
X19392142Y-17157142D02*
X19439761Y-17128571D01*
X19439761Y-17128571D02*
X19487380Y-17071428D01*
X19487380Y-17071428D02*
X19487380Y-16899999D01*
X19487380Y-16899999D02*
X19439761Y-16842856D01*
X19439761Y-16842856D02*
X19392142Y-16814285D01*
X18487380Y-17385714D02*
X18487380Y-17757142D01*
X18487380Y-17757142D02*
X18868333Y-17557142D01*
X18868333Y-17557142D02*
X18868333Y-17642857D01*
X18868333Y-17642857D02*
X18915952Y-17700000D01*
X18915952Y-17700000D02*
X18963571Y-17728571D01*
X18963571Y-17728571D02*
X19058809Y-17757142D01*
X19058809Y-17757142D02*
X19296904Y-17757142D01*
X19296904Y-17757142D02*
X19392142Y-17728571D01*
X19392142Y-17728571D02*
X19439761Y-17700000D01*
X19439761Y-17700000D02*
X19487380Y-17642857D01*
X19487380Y-17642857D02*
X19487380Y-17471428D01*
X19487380Y-17471428D02*
X19439761Y-17414285D01*
X19439761Y-17414285D02*
X19392142Y-17385714D01*
X8407142Y-16267380D02*
X8407142Y-17076904D01*
X8407142Y-17076904D02*
X8378571Y-17172142D01*
X8378571Y-17172142D02*
X8350000Y-17219761D01*
X8350000Y-17219761D02*
X8292857Y-17267380D01*
X8292857Y-17267380D02*
X8178571Y-17267380D01*
X8178571Y-17267380D02*
X8121428Y-17219761D01*
X8121428Y-17219761D02*
X8092857Y-17172142D01*
X8092857Y-17172142D02*
X8064285Y-17076904D01*
X8064285Y-17076904D02*
X8064285Y-16267380D01*
X7807143Y-16362619D02*
X7778571Y-16315000D01*
X7778571Y-16315000D02*
X7721429Y-16267380D01*
X7721429Y-16267380D02*
X7578571Y-16267380D01*
X7578571Y-16267380D02*
X7521429Y-16315000D01*
X7521429Y-16315000D02*
X7492857Y-16362619D01*
X7492857Y-16362619D02*
X7464286Y-16457857D01*
X7464286Y-16457857D02*
X7464286Y-16553095D01*
X7464286Y-16553095D02*
X7492857Y-16695952D01*
X7492857Y-16695952D02*
X7835714Y-17267380D01*
X7835714Y-17267380D02*
X7464286Y-17267380D01*
X59855714Y-56452142D02*
X59884286Y-56499761D01*
X59884286Y-56499761D02*
X59970000Y-56547380D01*
X59970000Y-56547380D02*
X60027143Y-56547380D01*
X60027143Y-56547380D02*
X60112857Y-56499761D01*
X60112857Y-56499761D02*
X60170000Y-56404523D01*
X60170000Y-56404523D02*
X60198571Y-56309285D01*
X60198571Y-56309285D02*
X60227143Y-56118809D01*
X60227143Y-56118809D02*
X60227143Y-55975952D01*
X60227143Y-55975952D02*
X60198571Y-55785476D01*
X60198571Y-55785476D02*
X60170000Y-55690238D01*
X60170000Y-55690238D02*
X60112857Y-55595000D01*
X60112857Y-55595000D02*
X60027143Y-55547380D01*
X60027143Y-55547380D02*
X59970000Y-55547380D01*
X59970000Y-55547380D02*
X59884286Y-55595000D01*
X59884286Y-55595000D02*
X59855714Y-55642619D01*
X59341429Y-55880714D02*
X59341429Y-56547380D01*
X59484286Y-55499761D02*
X59627143Y-56214047D01*
X59627143Y-56214047D02*
X59255714Y-56214047D01*
X59084285Y-55547380D02*
X58684285Y-55547380D01*
X58684285Y-55547380D02*
X58941428Y-56547380D01*
X13062857Y-49327380D02*
X12720000Y-49327380D01*
X12891428Y-50327380D02*
X12891428Y-49327380D01*
X12519999Y-50327380D02*
X12519999Y-49327380D01*
X12519999Y-49327380D02*
X12291428Y-49327380D01*
X12291428Y-49327380D02*
X12234285Y-49375000D01*
X12234285Y-49375000D02*
X12205714Y-49422619D01*
X12205714Y-49422619D02*
X12177142Y-49517857D01*
X12177142Y-49517857D02*
X12177142Y-49660714D01*
X12177142Y-49660714D02*
X12205714Y-49755952D01*
X12205714Y-49755952D02*
X12234285Y-49803571D01*
X12234285Y-49803571D02*
X12291428Y-49851190D01*
X12291428Y-49851190D02*
X12519999Y-49851190D01*
X11948571Y-49422619D02*
X11919999Y-49375000D01*
X11919999Y-49375000D02*
X11862857Y-49327380D01*
X11862857Y-49327380D02*
X11719999Y-49327380D01*
X11719999Y-49327380D02*
X11662857Y-49375000D01*
X11662857Y-49375000D02*
X11634285Y-49422619D01*
X11634285Y-49422619D02*
X11605714Y-49517857D01*
X11605714Y-49517857D02*
X11605714Y-49613095D01*
X11605714Y-49613095D02*
X11634285Y-49755952D01*
X11634285Y-49755952D02*
X11977142Y-50327380D01*
X11977142Y-50327380D02*
X11605714Y-50327380D01*
X11405713Y-49327380D02*
X11034285Y-49327380D01*
X11034285Y-49327380D02*
X11234285Y-49708333D01*
X11234285Y-49708333D02*
X11148570Y-49708333D01*
X11148570Y-49708333D02*
X11091428Y-49755952D01*
X11091428Y-49755952D02*
X11062856Y-49803571D01*
X11062856Y-49803571D02*
X11034285Y-49898809D01*
X11034285Y-49898809D02*
X11034285Y-50136904D01*
X11034285Y-50136904D02*
X11062856Y-50232142D01*
X11062856Y-50232142D02*
X11091428Y-50279761D01*
X11091428Y-50279761D02*
X11148570Y-50327380D01*
X11148570Y-50327380D02*
X11319999Y-50327380D01*
X11319999Y-50327380D02*
X11377142Y-50279761D01*
X11377142Y-50279761D02*
X11405713Y-50232142D01*
X17470000Y-10997380D02*
X17470000Y-11711666D01*
X17470000Y-11711666D02*
X17498571Y-11854523D01*
X17498571Y-11854523D02*
X17555714Y-11949761D01*
X17555714Y-11949761D02*
X17641428Y-11997380D01*
X17641428Y-11997380D02*
X17698571Y-11997380D01*
X17184285Y-11997380D02*
X17184285Y-10997380D01*
X17184285Y-10997380D02*
X16955714Y-10997380D01*
X16955714Y-10997380D02*
X16898571Y-11045000D01*
X16898571Y-11045000D02*
X16870000Y-11092619D01*
X16870000Y-11092619D02*
X16841428Y-11187857D01*
X16841428Y-11187857D02*
X16841428Y-11330714D01*
X16841428Y-11330714D02*
X16870000Y-11425952D01*
X16870000Y-11425952D02*
X16898571Y-11473571D01*
X16898571Y-11473571D02*
X16955714Y-11521190D01*
X16955714Y-11521190D02*
X17184285Y-11521190D01*
X16612857Y-11092619D02*
X16584285Y-11045000D01*
X16584285Y-11045000D02*
X16527143Y-10997380D01*
X16527143Y-10997380D02*
X16384285Y-10997380D01*
X16384285Y-10997380D02*
X16327143Y-11045000D01*
X16327143Y-11045000D02*
X16298571Y-11092619D01*
X16298571Y-11092619D02*
X16270000Y-11187857D01*
X16270000Y-11187857D02*
X16270000Y-11283095D01*
X16270000Y-11283095D02*
X16298571Y-11425952D01*
X16298571Y-11425952D02*
X16641428Y-11997380D01*
X16641428Y-11997380D02*
X16270000Y-11997380D01*
X2427142Y-16032619D02*
X2484285Y-15985000D01*
X2484285Y-15985000D02*
X2541428Y-15889761D01*
X2541428Y-15889761D02*
X2627142Y-15746904D01*
X2627142Y-15746904D02*
X2684285Y-15699285D01*
X2684285Y-15699285D02*
X2741428Y-15699285D01*
X2712857Y-15937380D02*
X2770000Y-15889761D01*
X2770000Y-15889761D02*
X2827142Y-15794523D01*
X2827142Y-15794523D02*
X2855714Y-15604047D01*
X2855714Y-15604047D02*
X2855714Y-15270714D01*
X2855714Y-15270714D02*
X2827142Y-15080238D01*
X2827142Y-15080238D02*
X2770000Y-14985000D01*
X2770000Y-14985000D02*
X2712857Y-14937380D01*
X2712857Y-14937380D02*
X2598571Y-14937380D01*
X2598571Y-14937380D02*
X2541428Y-14985000D01*
X2541428Y-14985000D02*
X2484285Y-15080238D01*
X2484285Y-15080238D02*
X2455714Y-15270714D01*
X2455714Y-15270714D02*
X2455714Y-15604047D01*
X2455714Y-15604047D02*
X2484285Y-15794523D01*
X2484285Y-15794523D02*
X2541428Y-15889761D01*
X2541428Y-15889761D02*
X2598571Y-15937380D01*
X2598571Y-15937380D02*
X2712857Y-15937380D01*
X2112857Y-15365952D02*
X2170000Y-15318333D01*
X2170000Y-15318333D02*
X2198571Y-15270714D01*
X2198571Y-15270714D02*
X2227143Y-15175476D01*
X2227143Y-15175476D02*
X2227143Y-15127857D01*
X2227143Y-15127857D02*
X2198571Y-15032619D01*
X2198571Y-15032619D02*
X2170000Y-14985000D01*
X2170000Y-14985000D02*
X2112857Y-14937380D01*
X2112857Y-14937380D02*
X1998571Y-14937380D01*
X1998571Y-14937380D02*
X1941429Y-14985000D01*
X1941429Y-14985000D02*
X1912857Y-15032619D01*
X1912857Y-15032619D02*
X1884286Y-15127857D01*
X1884286Y-15127857D02*
X1884286Y-15175476D01*
X1884286Y-15175476D02*
X1912857Y-15270714D01*
X1912857Y-15270714D02*
X1941429Y-15318333D01*
X1941429Y-15318333D02*
X1998571Y-15365952D01*
X1998571Y-15365952D02*
X2112857Y-15365952D01*
X2112857Y-15365952D02*
X2170000Y-15413571D01*
X2170000Y-15413571D02*
X2198571Y-15461190D01*
X2198571Y-15461190D02*
X2227143Y-15556428D01*
X2227143Y-15556428D02*
X2227143Y-15746904D01*
X2227143Y-15746904D02*
X2198571Y-15842142D01*
X2198571Y-15842142D02*
X2170000Y-15889761D01*
X2170000Y-15889761D02*
X2112857Y-15937380D01*
X2112857Y-15937380D02*
X1998571Y-15937380D01*
X1998571Y-15937380D02*
X1941429Y-15889761D01*
X1941429Y-15889761D02*
X1912857Y-15842142D01*
X1912857Y-15842142D02*
X1884286Y-15746904D01*
X1884286Y-15746904D02*
X1884286Y-15556428D01*
X1884286Y-15556428D02*
X1912857Y-15461190D01*
X1912857Y-15461190D02*
X1941429Y-15413571D01*
X1941429Y-15413571D02*
X1998571Y-15365952D01*
X11537142Y-12097380D02*
X11537142Y-12906904D01*
X11537142Y-12906904D02*
X11508571Y-13002142D01*
X11508571Y-13002142D02*
X11480000Y-13049761D01*
X11480000Y-13049761D02*
X11422857Y-13097380D01*
X11422857Y-13097380D02*
X11308571Y-13097380D01*
X11308571Y-13097380D02*
X11251428Y-13049761D01*
X11251428Y-13049761D02*
X11222857Y-13002142D01*
X11222857Y-13002142D02*
X11194285Y-12906904D01*
X11194285Y-12906904D02*
X11194285Y-12097380D01*
X10651429Y-12430714D02*
X10651429Y-13097380D01*
X10794286Y-12049761D02*
X10937143Y-12764047D01*
X10937143Y-12764047D02*
X10565714Y-12764047D01*
X15457380Y-10744285D02*
X14981190Y-10544285D01*
X15457380Y-10401428D02*
X14457380Y-10401428D01*
X14457380Y-10401428D02*
X14457380Y-10629999D01*
X14457380Y-10629999D02*
X14505000Y-10687142D01*
X14505000Y-10687142D02*
X14552619Y-10715713D01*
X14552619Y-10715713D02*
X14647857Y-10744285D01*
X14647857Y-10744285D02*
X14790714Y-10744285D01*
X14790714Y-10744285D02*
X14885952Y-10715713D01*
X14885952Y-10715713D02*
X14933571Y-10687142D01*
X14933571Y-10687142D02*
X14981190Y-10629999D01*
X14981190Y-10629999D02*
X14981190Y-10401428D01*
X15457380Y-11315713D02*
X15457380Y-10972856D01*
X15457380Y-11144285D02*
X14457380Y-11144285D01*
X14457380Y-11144285D02*
X14600238Y-11087142D01*
X14600238Y-11087142D02*
X14695476Y-11029999D01*
X14695476Y-11029999D02*
X14743095Y-10972856D01*
X14457380Y-11858571D02*
X14457380Y-11572857D01*
X14457380Y-11572857D02*
X14933571Y-11544285D01*
X14933571Y-11544285D02*
X14885952Y-11572857D01*
X14885952Y-11572857D02*
X14838333Y-11630000D01*
X14838333Y-11630000D02*
X14838333Y-11772857D01*
X14838333Y-11772857D02*
X14885952Y-11830000D01*
X14885952Y-11830000D02*
X14933571Y-11858571D01*
X14933571Y-11858571D02*
X15028809Y-11887142D01*
X15028809Y-11887142D02*
X15266904Y-11887142D01*
X15266904Y-11887142D02*
X15362142Y-11858571D01*
X15362142Y-11858571D02*
X15409761Y-11830000D01*
X15409761Y-11830000D02*
X15457380Y-11772857D01*
X15457380Y-11772857D02*
X15457380Y-11630000D01*
X15457380Y-11630000D02*
X15409761Y-11572857D01*
X15409761Y-11572857D02*
X15362142Y-11544285D01*
X65792857Y-30219380D02*
X65450000Y-30219380D01*
X65621428Y-31219380D02*
X65621428Y-30219380D01*
X65249999Y-31219380D02*
X65249999Y-30219380D01*
X65249999Y-30219380D02*
X65021428Y-30219380D01*
X65021428Y-30219380D02*
X64964285Y-30267000D01*
X64964285Y-30267000D02*
X64935714Y-30314619D01*
X64935714Y-30314619D02*
X64907142Y-30409857D01*
X64907142Y-30409857D02*
X64907142Y-30552714D01*
X64907142Y-30552714D02*
X64935714Y-30647952D01*
X64935714Y-30647952D02*
X64964285Y-30695571D01*
X64964285Y-30695571D02*
X65021428Y-30743190D01*
X65021428Y-30743190D02*
X65249999Y-30743190D01*
X64335714Y-31219380D02*
X64678571Y-31219380D01*
X64507142Y-31219380D02*
X64507142Y-30219380D01*
X64507142Y-30219380D02*
X64564285Y-30362238D01*
X64564285Y-30362238D02*
X64621428Y-30457476D01*
X64621428Y-30457476D02*
X64678571Y-30505095D01*
X63764285Y-31219380D02*
X64107142Y-31219380D01*
X63935713Y-31219380D02*
X63935713Y-30219380D01*
X63935713Y-30219380D02*
X63992856Y-30362238D01*
X63992856Y-30362238D02*
X64049999Y-30457476D01*
X64049999Y-30457476D02*
X64107142Y-30505095D01*
X24322142Y-42394285D02*
X24369761Y-42365713D01*
X24369761Y-42365713D02*
X24417380Y-42279999D01*
X24417380Y-42279999D02*
X24417380Y-42222856D01*
X24417380Y-42222856D02*
X24369761Y-42137142D01*
X24369761Y-42137142D02*
X24274523Y-42079999D01*
X24274523Y-42079999D02*
X24179285Y-42051428D01*
X24179285Y-42051428D02*
X23988809Y-42022856D01*
X23988809Y-42022856D02*
X23845952Y-42022856D01*
X23845952Y-42022856D02*
X23655476Y-42051428D01*
X23655476Y-42051428D02*
X23560238Y-42079999D01*
X23560238Y-42079999D02*
X23465000Y-42137142D01*
X23465000Y-42137142D02*
X23417380Y-42222856D01*
X23417380Y-42222856D02*
X23417380Y-42279999D01*
X23417380Y-42279999D02*
X23465000Y-42365713D01*
X23465000Y-42365713D02*
X23512619Y-42394285D01*
X23512619Y-42622856D02*
X23465000Y-42651428D01*
X23465000Y-42651428D02*
X23417380Y-42708571D01*
X23417380Y-42708571D02*
X23417380Y-42851428D01*
X23417380Y-42851428D02*
X23465000Y-42908571D01*
X23465000Y-42908571D02*
X23512619Y-42937142D01*
X23512619Y-42937142D02*
X23607857Y-42965713D01*
X23607857Y-42965713D02*
X23703095Y-42965713D01*
X23703095Y-42965713D02*
X23845952Y-42937142D01*
X23845952Y-42937142D02*
X24417380Y-42594285D01*
X24417380Y-42594285D02*
X24417380Y-42965713D01*
X23417380Y-43165714D02*
X23417380Y-43565714D01*
X23417380Y-43565714D02*
X24417380Y-43308571D01*
X34767143Y-18297380D02*
X34424286Y-18297380D01*
X34595714Y-19297380D02*
X34595714Y-18297380D01*
X34224285Y-19297380D02*
X34224285Y-18297380D01*
X34224285Y-18297380D02*
X33995714Y-18297380D01*
X33995714Y-18297380D02*
X33938571Y-18345000D01*
X33938571Y-18345000D02*
X33910000Y-18392619D01*
X33910000Y-18392619D02*
X33881428Y-18487857D01*
X33881428Y-18487857D02*
X33881428Y-18630714D01*
X33881428Y-18630714D02*
X33910000Y-18725952D01*
X33910000Y-18725952D02*
X33938571Y-18773571D01*
X33938571Y-18773571D02*
X33995714Y-18821190D01*
X33995714Y-18821190D02*
X34224285Y-18821190D01*
X33681428Y-18297380D02*
X33281428Y-18297380D01*
X33281428Y-18297380D02*
X33538571Y-19297380D01*
X19042857Y-29469380D02*
X18700000Y-29469380D01*
X18871428Y-30469380D02*
X18871428Y-29469380D01*
X18499999Y-30469380D02*
X18499999Y-29469380D01*
X18499999Y-29469380D02*
X18271428Y-29469380D01*
X18271428Y-29469380D02*
X18214285Y-29517000D01*
X18214285Y-29517000D02*
X18185714Y-29564619D01*
X18185714Y-29564619D02*
X18157142Y-29659857D01*
X18157142Y-29659857D02*
X18157142Y-29802714D01*
X18157142Y-29802714D02*
X18185714Y-29897952D01*
X18185714Y-29897952D02*
X18214285Y-29945571D01*
X18214285Y-29945571D02*
X18271428Y-29993190D01*
X18271428Y-29993190D02*
X18499999Y-29993190D01*
X17585714Y-30469380D02*
X17928571Y-30469380D01*
X17757142Y-30469380D02*
X17757142Y-29469380D01*
X17757142Y-29469380D02*
X17814285Y-29612238D01*
X17814285Y-29612238D02*
X17871428Y-29707476D01*
X17871428Y-29707476D02*
X17928571Y-29755095D01*
X17299999Y-30469380D02*
X17185713Y-30469380D01*
X17185713Y-30469380D02*
X17128570Y-30421761D01*
X17128570Y-30421761D02*
X17099999Y-30374142D01*
X17099999Y-30374142D02*
X17042856Y-30231285D01*
X17042856Y-30231285D02*
X17014285Y-30040809D01*
X17014285Y-30040809D02*
X17014285Y-29659857D01*
X17014285Y-29659857D02*
X17042856Y-29564619D01*
X17042856Y-29564619D02*
X17071428Y-29517000D01*
X17071428Y-29517000D02*
X17128570Y-29469380D01*
X17128570Y-29469380D02*
X17242856Y-29469380D01*
X17242856Y-29469380D02*
X17299999Y-29517000D01*
X17299999Y-29517000D02*
X17328570Y-29564619D01*
X17328570Y-29564619D02*
X17357142Y-29659857D01*
X17357142Y-29659857D02*
X17357142Y-29897952D01*
X17357142Y-29897952D02*
X17328570Y-29993190D01*
X17328570Y-29993190D02*
X17299999Y-30040809D01*
X17299999Y-30040809D02*
X17242856Y-30088428D01*
X17242856Y-30088428D02*
X17128570Y-30088428D01*
X17128570Y-30088428D02*
X17071428Y-30040809D01*
X17071428Y-30040809D02*
X17042856Y-29993190D01*
X17042856Y-29993190D02*
X17014285Y-29897952D01*
X20095714Y-37067380D02*
X20295714Y-36591190D01*
X20438571Y-37067380D02*
X20438571Y-36067380D01*
X20438571Y-36067380D02*
X20210000Y-36067380D01*
X20210000Y-36067380D02*
X20152857Y-36115000D01*
X20152857Y-36115000D02*
X20124286Y-36162619D01*
X20124286Y-36162619D02*
X20095714Y-36257857D01*
X20095714Y-36257857D02*
X20095714Y-36400714D01*
X20095714Y-36400714D02*
X20124286Y-36495952D01*
X20124286Y-36495952D02*
X20152857Y-36543571D01*
X20152857Y-36543571D02*
X20210000Y-36591190D01*
X20210000Y-36591190D02*
X20438571Y-36591190D01*
X19524286Y-37067380D02*
X19867143Y-37067380D01*
X19695714Y-37067380D02*
X19695714Y-36067380D01*
X19695714Y-36067380D02*
X19752857Y-36210238D01*
X19752857Y-36210238D02*
X19810000Y-36305476D01*
X19810000Y-36305476D02*
X19867143Y-36353095D01*
X19324285Y-36067380D02*
X18952857Y-36067380D01*
X18952857Y-36067380D02*
X19152857Y-36448333D01*
X19152857Y-36448333D02*
X19067142Y-36448333D01*
X19067142Y-36448333D02*
X19010000Y-36495952D01*
X19010000Y-36495952D02*
X18981428Y-36543571D01*
X18981428Y-36543571D02*
X18952857Y-36638809D01*
X18952857Y-36638809D02*
X18952857Y-36876904D01*
X18952857Y-36876904D02*
X18981428Y-36972142D01*
X18981428Y-36972142D02*
X19010000Y-37019761D01*
X19010000Y-37019761D02*
X19067142Y-37067380D01*
X19067142Y-37067380D02*
X19238571Y-37067380D01*
X19238571Y-37067380D02*
X19295714Y-37019761D01*
X19295714Y-37019761D02*
X19324285Y-36972142D01*
X4615714Y-12657380D02*
X4815714Y-12181190D01*
X4958571Y-12657380D02*
X4958571Y-11657380D01*
X4958571Y-11657380D02*
X4730000Y-11657380D01*
X4730000Y-11657380D02*
X4672857Y-11705000D01*
X4672857Y-11705000D02*
X4644286Y-11752619D01*
X4644286Y-11752619D02*
X4615714Y-11847857D01*
X4615714Y-11847857D02*
X4615714Y-11990714D01*
X4615714Y-11990714D02*
X4644286Y-12085952D01*
X4644286Y-12085952D02*
X4672857Y-12133571D01*
X4672857Y-12133571D02*
X4730000Y-12181190D01*
X4730000Y-12181190D02*
X4958571Y-12181190D01*
X4387143Y-11752619D02*
X4358571Y-11705000D01*
X4358571Y-11705000D02*
X4301429Y-11657380D01*
X4301429Y-11657380D02*
X4158571Y-11657380D01*
X4158571Y-11657380D02*
X4101429Y-11705000D01*
X4101429Y-11705000D02*
X4072857Y-11752619D01*
X4072857Y-11752619D02*
X4044286Y-11847857D01*
X4044286Y-11847857D02*
X4044286Y-11943095D01*
X4044286Y-11943095D02*
X4072857Y-12085952D01*
X4072857Y-12085952D02*
X4415714Y-12657380D01*
X4415714Y-12657380D02*
X4044286Y-12657380D01*
X3672857Y-11657380D02*
X3615714Y-11657380D01*
X3615714Y-11657380D02*
X3558571Y-11705000D01*
X3558571Y-11705000D02*
X3530000Y-11752619D01*
X3530000Y-11752619D02*
X3501428Y-11847857D01*
X3501428Y-11847857D02*
X3472857Y-12038333D01*
X3472857Y-12038333D02*
X3472857Y-12276428D01*
X3472857Y-12276428D02*
X3501428Y-12466904D01*
X3501428Y-12466904D02*
X3530000Y-12562142D01*
X3530000Y-12562142D02*
X3558571Y-12609761D01*
X3558571Y-12609761D02*
X3615714Y-12657380D01*
X3615714Y-12657380D02*
X3672857Y-12657380D01*
X3672857Y-12657380D02*
X3730000Y-12609761D01*
X3730000Y-12609761D02*
X3758571Y-12562142D01*
X3758571Y-12562142D02*
X3787142Y-12466904D01*
X3787142Y-12466904D02*
X3815714Y-12276428D01*
X3815714Y-12276428D02*
X3815714Y-12038333D01*
X3815714Y-12038333D02*
X3787142Y-11847857D01*
X3787142Y-11847857D02*
X3758571Y-11752619D01*
X3758571Y-11752619D02*
X3730000Y-11705000D01*
X3730000Y-11705000D02*
X3672857Y-11657380D01*
X20105714Y-35387380D02*
X20305714Y-34911190D01*
X20448571Y-35387380D02*
X20448571Y-34387380D01*
X20448571Y-34387380D02*
X20220000Y-34387380D01*
X20220000Y-34387380D02*
X20162857Y-34435000D01*
X20162857Y-34435000D02*
X20134286Y-34482619D01*
X20134286Y-34482619D02*
X20105714Y-34577857D01*
X20105714Y-34577857D02*
X20105714Y-34720714D01*
X20105714Y-34720714D02*
X20134286Y-34815952D01*
X20134286Y-34815952D02*
X20162857Y-34863571D01*
X20162857Y-34863571D02*
X20220000Y-34911190D01*
X20220000Y-34911190D02*
X20448571Y-34911190D01*
X19534286Y-35387380D02*
X19877143Y-35387380D01*
X19705714Y-35387380D02*
X19705714Y-34387380D01*
X19705714Y-34387380D02*
X19762857Y-34530238D01*
X19762857Y-34530238D02*
X19820000Y-34625476D01*
X19820000Y-34625476D02*
X19877143Y-34673095D01*
X19020000Y-34720714D02*
X19020000Y-35387380D01*
X19162857Y-34339761D02*
X19305714Y-35054047D01*
X19305714Y-35054047D02*
X18934285Y-35054047D01*
X65375714Y-60257142D02*
X65404286Y-60304761D01*
X65404286Y-60304761D02*
X65490000Y-60352380D01*
X65490000Y-60352380D02*
X65547143Y-60352380D01*
X65547143Y-60352380D02*
X65632857Y-60304761D01*
X65632857Y-60304761D02*
X65690000Y-60209523D01*
X65690000Y-60209523D02*
X65718571Y-60114285D01*
X65718571Y-60114285D02*
X65747143Y-59923809D01*
X65747143Y-59923809D02*
X65747143Y-59780952D01*
X65747143Y-59780952D02*
X65718571Y-59590476D01*
X65718571Y-59590476D02*
X65690000Y-59495238D01*
X65690000Y-59495238D02*
X65632857Y-59400000D01*
X65632857Y-59400000D02*
X65547143Y-59352380D01*
X65547143Y-59352380D02*
X65490000Y-59352380D01*
X65490000Y-59352380D02*
X65404286Y-59400000D01*
X65404286Y-59400000D02*
X65375714Y-59447619D01*
X64861429Y-59685714D02*
X64861429Y-60352380D01*
X65004286Y-59304761D02*
X65147143Y-60019047D01*
X65147143Y-60019047D02*
X64775714Y-60019047D01*
X64575714Y-59447619D02*
X64547142Y-59400000D01*
X64547142Y-59400000D02*
X64490000Y-59352380D01*
X64490000Y-59352380D02*
X64347142Y-59352380D01*
X64347142Y-59352380D02*
X64290000Y-59400000D01*
X64290000Y-59400000D02*
X64261428Y-59447619D01*
X64261428Y-59447619D02*
X64232857Y-59542857D01*
X64232857Y-59542857D02*
X64232857Y-59638095D01*
X64232857Y-59638095D02*
X64261428Y-59780952D01*
X64261428Y-59780952D02*
X64604285Y-60352380D01*
X64604285Y-60352380D02*
X64232857Y-60352380D01*
X32071914Y-50368542D02*
X32100486Y-50416161D01*
X32100486Y-50416161D02*
X32186200Y-50463780D01*
X32186200Y-50463780D02*
X32243343Y-50463780D01*
X32243343Y-50463780D02*
X32329057Y-50416161D01*
X32329057Y-50416161D02*
X32386200Y-50320923D01*
X32386200Y-50320923D02*
X32414771Y-50225685D01*
X32414771Y-50225685D02*
X32443343Y-50035209D01*
X32443343Y-50035209D02*
X32443343Y-49892352D01*
X32443343Y-49892352D02*
X32414771Y-49701876D01*
X32414771Y-49701876D02*
X32386200Y-49606638D01*
X32386200Y-49606638D02*
X32329057Y-49511400D01*
X32329057Y-49511400D02*
X32243343Y-49463780D01*
X32243343Y-49463780D02*
X32186200Y-49463780D01*
X32186200Y-49463780D02*
X32100486Y-49511400D01*
X32100486Y-49511400D02*
X32071914Y-49559019D01*
X31871914Y-49463780D02*
X31500486Y-49463780D01*
X31500486Y-49463780D02*
X31700486Y-49844733D01*
X31700486Y-49844733D02*
X31614771Y-49844733D01*
X31614771Y-49844733D02*
X31557629Y-49892352D01*
X31557629Y-49892352D02*
X31529057Y-49939971D01*
X31529057Y-49939971D02*
X31500486Y-50035209D01*
X31500486Y-50035209D02*
X31500486Y-50273304D01*
X31500486Y-50273304D02*
X31529057Y-50368542D01*
X31529057Y-50368542D02*
X31557629Y-50416161D01*
X31557629Y-50416161D02*
X31614771Y-50463780D01*
X31614771Y-50463780D02*
X31786200Y-50463780D01*
X31786200Y-50463780D02*
X31843343Y-50416161D01*
X31843343Y-50416161D02*
X31871914Y-50368542D01*
X30929057Y-50463780D02*
X31271914Y-50463780D01*
X31100485Y-50463780D02*
X31100485Y-49463780D01*
X31100485Y-49463780D02*
X31157628Y-49606638D01*
X31157628Y-49606638D02*
X31214771Y-49701876D01*
X31214771Y-49701876D02*
X31271914Y-49749495D01*
X64507143Y-12969380D02*
X64164286Y-12969380D01*
X64335714Y-13969380D02*
X64335714Y-12969380D01*
X63964285Y-13969380D02*
X63964285Y-12969380D01*
X63964285Y-12969380D02*
X63735714Y-12969380D01*
X63735714Y-12969380D02*
X63678571Y-13017000D01*
X63678571Y-13017000D02*
X63650000Y-13064619D01*
X63650000Y-13064619D02*
X63621428Y-13159857D01*
X63621428Y-13159857D02*
X63621428Y-13302714D01*
X63621428Y-13302714D02*
X63650000Y-13397952D01*
X63650000Y-13397952D02*
X63678571Y-13445571D01*
X63678571Y-13445571D02*
X63735714Y-13493190D01*
X63735714Y-13493190D02*
X63964285Y-13493190D01*
X63421428Y-12969380D02*
X63050000Y-12969380D01*
X63050000Y-12969380D02*
X63250000Y-13350333D01*
X63250000Y-13350333D02*
X63164285Y-13350333D01*
X63164285Y-13350333D02*
X63107143Y-13397952D01*
X63107143Y-13397952D02*
X63078571Y-13445571D01*
X63078571Y-13445571D02*
X63050000Y-13540809D01*
X63050000Y-13540809D02*
X63050000Y-13778904D01*
X63050000Y-13778904D02*
X63078571Y-13874142D01*
X63078571Y-13874142D02*
X63107143Y-13921761D01*
X63107143Y-13921761D02*
X63164285Y-13969380D01*
X63164285Y-13969380D02*
X63335714Y-13969380D01*
X63335714Y-13969380D02*
X63392857Y-13921761D01*
X63392857Y-13921761D02*
X63421428Y-13874142D01*
X3382142Y-18900000D02*
X3429761Y-18871428D01*
X3429761Y-18871428D02*
X3477380Y-18785714D01*
X3477380Y-18785714D02*
X3477380Y-18728571D01*
X3477380Y-18728571D02*
X3429761Y-18642857D01*
X3429761Y-18642857D02*
X3334523Y-18585714D01*
X3334523Y-18585714D02*
X3239285Y-18557143D01*
X3239285Y-18557143D02*
X3048809Y-18528571D01*
X3048809Y-18528571D02*
X2905952Y-18528571D01*
X2905952Y-18528571D02*
X2715476Y-18557143D01*
X2715476Y-18557143D02*
X2620238Y-18585714D01*
X2620238Y-18585714D02*
X2525000Y-18642857D01*
X2525000Y-18642857D02*
X2477380Y-18728571D01*
X2477380Y-18728571D02*
X2477380Y-18785714D01*
X2477380Y-18785714D02*
X2525000Y-18871428D01*
X2525000Y-18871428D02*
X2572619Y-18900000D01*
X2477380Y-19100000D02*
X2477380Y-19500000D01*
X2477380Y-19500000D02*
X3477380Y-19242857D01*
X53392142Y-34424285D02*
X53439761Y-34395713D01*
X53439761Y-34395713D02*
X53487380Y-34309999D01*
X53487380Y-34309999D02*
X53487380Y-34252856D01*
X53487380Y-34252856D02*
X53439761Y-34167142D01*
X53439761Y-34167142D02*
X53344523Y-34109999D01*
X53344523Y-34109999D02*
X53249285Y-34081428D01*
X53249285Y-34081428D02*
X53058809Y-34052856D01*
X53058809Y-34052856D02*
X52915952Y-34052856D01*
X52915952Y-34052856D02*
X52725476Y-34081428D01*
X52725476Y-34081428D02*
X52630238Y-34109999D01*
X52630238Y-34109999D02*
X52535000Y-34167142D01*
X52535000Y-34167142D02*
X52487380Y-34252856D01*
X52487380Y-34252856D02*
X52487380Y-34309999D01*
X52487380Y-34309999D02*
X52535000Y-34395713D01*
X52535000Y-34395713D02*
X52582619Y-34424285D01*
X52582619Y-34652856D02*
X52535000Y-34681428D01*
X52535000Y-34681428D02*
X52487380Y-34738571D01*
X52487380Y-34738571D02*
X52487380Y-34881428D01*
X52487380Y-34881428D02*
X52535000Y-34938571D01*
X52535000Y-34938571D02*
X52582619Y-34967142D01*
X52582619Y-34967142D02*
X52677857Y-34995713D01*
X52677857Y-34995713D02*
X52773095Y-34995713D01*
X52773095Y-34995713D02*
X52915952Y-34967142D01*
X52915952Y-34967142D02*
X53487380Y-34624285D01*
X53487380Y-34624285D02*
X53487380Y-34995713D01*
X52487380Y-35195714D02*
X52487380Y-35567142D01*
X52487380Y-35567142D02*
X52868333Y-35367142D01*
X52868333Y-35367142D02*
X52868333Y-35452857D01*
X52868333Y-35452857D02*
X52915952Y-35510000D01*
X52915952Y-35510000D02*
X52963571Y-35538571D01*
X52963571Y-35538571D02*
X53058809Y-35567142D01*
X53058809Y-35567142D02*
X53296904Y-35567142D01*
X53296904Y-35567142D02*
X53392142Y-35538571D01*
X53392142Y-35538571D02*
X53439761Y-35510000D01*
X53439761Y-35510000D02*
X53487380Y-35452857D01*
X53487380Y-35452857D02*
X53487380Y-35281428D01*
X53487380Y-35281428D02*
X53439761Y-35224285D01*
X53439761Y-35224285D02*
X53392142Y-35195714D01*
X65385714Y-58572142D02*
X65414286Y-58619761D01*
X65414286Y-58619761D02*
X65500000Y-58667380D01*
X65500000Y-58667380D02*
X65557143Y-58667380D01*
X65557143Y-58667380D02*
X65642857Y-58619761D01*
X65642857Y-58619761D02*
X65700000Y-58524523D01*
X65700000Y-58524523D02*
X65728571Y-58429285D01*
X65728571Y-58429285D02*
X65757143Y-58238809D01*
X65757143Y-58238809D02*
X65757143Y-58095952D01*
X65757143Y-58095952D02*
X65728571Y-57905476D01*
X65728571Y-57905476D02*
X65700000Y-57810238D01*
X65700000Y-57810238D02*
X65642857Y-57715000D01*
X65642857Y-57715000D02*
X65557143Y-57667380D01*
X65557143Y-57667380D02*
X65500000Y-57667380D01*
X65500000Y-57667380D02*
X65414286Y-57715000D01*
X65414286Y-57715000D02*
X65385714Y-57762619D01*
X64871429Y-58000714D02*
X64871429Y-58667380D01*
X65014286Y-57619761D02*
X65157143Y-58334047D01*
X65157143Y-58334047D02*
X64785714Y-58334047D01*
X64300000Y-58000714D02*
X64300000Y-58667380D01*
X64442857Y-57619761D02*
X64585714Y-58334047D01*
X64585714Y-58334047D02*
X64214285Y-58334047D01*
X27115714Y-50472142D02*
X27144286Y-50519761D01*
X27144286Y-50519761D02*
X27230000Y-50567380D01*
X27230000Y-50567380D02*
X27287143Y-50567380D01*
X27287143Y-50567380D02*
X27372857Y-50519761D01*
X27372857Y-50519761D02*
X27430000Y-50424523D01*
X27430000Y-50424523D02*
X27458571Y-50329285D01*
X27458571Y-50329285D02*
X27487143Y-50138809D01*
X27487143Y-50138809D02*
X27487143Y-49995952D01*
X27487143Y-49995952D02*
X27458571Y-49805476D01*
X27458571Y-49805476D02*
X27430000Y-49710238D01*
X27430000Y-49710238D02*
X27372857Y-49615000D01*
X27372857Y-49615000D02*
X27287143Y-49567380D01*
X27287143Y-49567380D02*
X27230000Y-49567380D01*
X27230000Y-49567380D02*
X27144286Y-49615000D01*
X27144286Y-49615000D02*
X27115714Y-49662619D01*
X26915714Y-49567380D02*
X26544286Y-49567380D01*
X26544286Y-49567380D02*
X26744286Y-49948333D01*
X26744286Y-49948333D02*
X26658571Y-49948333D01*
X26658571Y-49948333D02*
X26601429Y-49995952D01*
X26601429Y-49995952D02*
X26572857Y-50043571D01*
X26572857Y-50043571D02*
X26544286Y-50138809D01*
X26544286Y-50138809D02*
X26544286Y-50376904D01*
X26544286Y-50376904D02*
X26572857Y-50472142D01*
X26572857Y-50472142D02*
X26601429Y-50519761D01*
X26601429Y-50519761D02*
X26658571Y-50567380D01*
X26658571Y-50567380D02*
X26830000Y-50567380D01*
X26830000Y-50567380D02*
X26887143Y-50519761D01*
X26887143Y-50519761D02*
X26915714Y-50472142D01*
X26172857Y-49567380D02*
X26115714Y-49567380D01*
X26115714Y-49567380D02*
X26058571Y-49615000D01*
X26058571Y-49615000D02*
X26030000Y-49662619D01*
X26030000Y-49662619D02*
X26001428Y-49757857D01*
X26001428Y-49757857D02*
X25972857Y-49948333D01*
X25972857Y-49948333D02*
X25972857Y-50186428D01*
X25972857Y-50186428D02*
X26001428Y-50376904D01*
X26001428Y-50376904D02*
X26030000Y-50472142D01*
X26030000Y-50472142D02*
X26058571Y-50519761D01*
X26058571Y-50519761D02*
X26115714Y-50567380D01*
X26115714Y-50567380D02*
X26172857Y-50567380D01*
X26172857Y-50567380D02*
X26230000Y-50519761D01*
X26230000Y-50519761D02*
X26258571Y-50472142D01*
X26258571Y-50472142D02*
X26287142Y-50376904D01*
X26287142Y-50376904D02*
X26315714Y-50186428D01*
X26315714Y-50186428D02*
X26315714Y-49948333D01*
X26315714Y-49948333D02*
X26287142Y-49757857D01*
X26287142Y-49757857D02*
X26258571Y-49662619D01*
X26258571Y-49662619D02*
X26230000Y-49615000D01*
X26230000Y-49615000D02*
X26172857Y-49567380D01*
X39507143Y-19219380D02*
X39164286Y-19219380D01*
X39335714Y-20219380D02*
X39335714Y-19219380D01*
X38964285Y-20219380D02*
X38964285Y-19219380D01*
X38964285Y-19219380D02*
X38735714Y-19219380D01*
X38735714Y-19219380D02*
X38678571Y-19267000D01*
X38678571Y-19267000D02*
X38650000Y-19314619D01*
X38650000Y-19314619D02*
X38621428Y-19409857D01*
X38621428Y-19409857D02*
X38621428Y-19552714D01*
X38621428Y-19552714D02*
X38650000Y-19647952D01*
X38650000Y-19647952D02*
X38678571Y-19695571D01*
X38678571Y-19695571D02*
X38735714Y-19743190D01*
X38735714Y-19743190D02*
X38964285Y-19743190D01*
X38335714Y-20219380D02*
X38221428Y-20219380D01*
X38221428Y-20219380D02*
X38164285Y-20171761D01*
X38164285Y-20171761D02*
X38135714Y-20124142D01*
X38135714Y-20124142D02*
X38078571Y-19981285D01*
X38078571Y-19981285D02*
X38050000Y-19790809D01*
X38050000Y-19790809D02*
X38050000Y-19409857D01*
X38050000Y-19409857D02*
X38078571Y-19314619D01*
X38078571Y-19314619D02*
X38107143Y-19267000D01*
X38107143Y-19267000D02*
X38164285Y-19219380D01*
X38164285Y-19219380D02*
X38278571Y-19219380D01*
X38278571Y-19219380D02*
X38335714Y-19267000D01*
X38335714Y-19267000D02*
X38364285Y-19314619D01*
X38364285Y-19314619D02*
X38392857Y-19409857D01*
X38392857Y-19409857D02*
X38392857Y-19647952D01*
X38392857Y-19647952D02*
X38364285Y-19743190D01*
X38364285Y-19743190D02*
X38335714Y-19790809D01*
X38335714Y-19790809D02*
X38278571Y-19838428D01*
X38278571Y-19838428D02*
X38164285Y-19838428D01*
X38164285Y-19838428D02*
X38107143Y-19790809D01*
X38107143Y-19790809D02*
X38078571Y-19743190D01*
X38078571Y-19743190D02*
X38050000Y-19647952D01*
X30042857Y-22969380D02*
X29700000Y-22969380D01*
X29871428Y-23969380D02*
X29871428Y-22969380D01*
X29499999Y-23969380D02*
X29499999Y-22969380D01*
X29499999Y-22969380D02*
X29271428Y-22969380D01*
X29271428Y-22969380D02*
X29214285Y-23017000D01*
X29214285Y-23017000D02*
X29185714Y-23064619D01*
X29185714Y-23064619D02*
X29157142Y-23159857D01*
X29157142Y-23159857D02*
X29157142Y-23302714D01*
X29157142Y-23302714D02*
X29185714Y-23397952D01*
X29185714Y-23397952D02*
X29214285Y-23445571D01*
X29214285Y-23445571D02*
X29271428Y-23493190D01*
X29271428Y-23493190D02*
X29499999Y-23493190D01*
X28585714Y-23969380D02*
X28928571Y-23969380D01*
X28757142Y-23969380D02*
X28757142Y-22969380D01*
X28757142Y-22969380D02*
X28814285Y-23112238D01*
X28814285Y-23112238D02*
X28871428Y-23207476D01*
X28871428Y-23207476D02*
X28928571Y-23255095D01*
X28071428Y-23302714D02*
X28071428Y-23969380D01*
X28214285Y-22921761D02*
X28357142Y-23636047D01*
X28357142Y-23636047D02*
X27985713Y-23636047D01*
X19675714Y-27732142D02*
X19704286Y-27779761D01*
X19704286Y-27779761D02*
X19790000Y-27827380D01*
X19790000Y-27827380D02*
X19847143Y-27827380D01*
X19847143Y-27827380D02*
X19932857Y-27779761D01*
X19932857Y-27779761D02*
X19990000Y-27684523D01*
X19990000Y-27684523D02*
X20018571Y-27589285D01*
X20018571Y-27589285D02*
X20047143Y-27398809D01*
X20047143Y-27398809D02*
X20047143Y-27255952D01*
X20047143Y-27255952D02*
X20018571Y-27065476D01*
X20018571Y-27065476D02*
X19990000Y-26970238D01*
X19990000Y-26970238D02*
X19932857Y-26875000D01*
X19932857Y-26875000D02*
X19847143Y-26827380D01*
X19847143Y-26827380D02*
X19790000Y-26827380D01*
X19790000Y-26827380D02*
X19704286Y-26875000D01*
X19704286Y-26875000D02*
X19675714Y-26922619D01*
X19447143Y-26922619D02*
X19418571Y-26875000D01*
X19418571Y-26875000D02*
X19361429Y-26827380D01*
X19361429Y-26827380D02*
X19218571Y-26827380D01*
X19218571Y-26827380D02*
X19161429Y-26875000D01*
X19161429Y-26875000D02*
X19132857Y-26922619D01*
X19132857Y-26922619D02*
X19104286Y-27017857D01*
X19104286Y-27017857D02*
X19104286Y-27113095D01*
X19104286Y-27113095D02*
X19132857Y-27255952D01*
X19132857Y-27255952D02*
X19475714Y-27827380D01*
X19475714Y-27827380D02*
X19104286Y-27827380D01*
X18761428Y-27255952D02*
X18818571Y-27208333D01*
X18818571Y-27208333D02*
X18847142Y-27160714D01*
X18847142Y-27160714D02*
X18875714Y-27065476D01*
X18875714Y-27065476D02*
X18875714Y-27017857D01*
X18875714Y-27017857D02*
X18847142Y-26922619D01*
X18847142Y-26922619D02*
X18818571Y-26875000D01*
X18818571Y-26875000D02*
X18761428Y-26827380D01*
X18761428Y-26827380D02*
X18647142Y-26827380D01*
X18647142Y-26827380D02*
X18590000Y-26875000D01*
X18590000Y-26875000D02*
X18561428Y-26922619D01*
X18561428Y-26922619D02*
X18532857Y-27017857D01*
X18532857Y-27017857D02*
X18532857Y-27065476D01*
X18532857Y-27065476D02*
X18561428Y-27160714D01*
X18561428Y-27160714D02*
X18590000Y-27208333D01*
X18590000Y-27208333D02*
X18647142Y-27255952D01*
X18647142Y-27255952D02*
X18761428Y-27255952D01*
X18761428Y-27255952D02*
X18818571Y-27303571D01*
X18818571Y-27303571D02*
X18847142Y-27351190D01*
X18847142Y-27351190D02*
X18875714Y-27446428D01*
X18875714Y-27446428D02*
X18875714Y-27636904D01*
X18875714Y-27636904D02*
X18847142Y-27732142D01*
X18847142Y-27732142D02*
X18818571Y-27779761D01*
X18818571Y-27779761D02*
X18761428Y-27827380D01*
X18761428Y-27827380D02*
X18647142Y-27827380D01*
X18647142Y-27827380D02*
X18590000Y-27779761D01*
X18590000Y-27779761D02*
X18561428Y-27732142D01*
X18561428Y-27732142D02*
X18532857Y-27636904D01*
X18532857Y-27636904D02*
X18532857Y-27446428D01*
X18532857Y-27446428D02*
X18561428Y-27351190D01*
X18561428Y-27351190D02*
X18590000Y-27303571D01*
X18590000Y-27303571D02*
X18647142Y-27255952D01*
X54435714Y-59652142D02*
X54464286Y-59699761D01*
X54464286Y-59699761D02*
X54550000Y-59747380D01*
X54550000Y-59747380D02*
X54607143Y-59747380D01*
X54607143Y-59747380D02*
X54692857Y-59699761D01*
X54692857Y-59699761D02*
X54750000Y-59604523D01*
X54750000Y-59604523D02*
X54778571Y-59509285D01*
X54778571Y-59509285D02*
X54807143Y-59318809D01*
X54807143Y-59318809D02*
X54807143Y-59175952D01*
X54807143Y-59175952D02*
X54778571Y-58985476D01*
X54778571Y-58985476D02*
X54750000Y-58890238D01*
X54750000Y-58890238D02*
X54692857Y-58795000D01*
X54692857Y-58795000D02*
X54607143Y-58747380D01*
X54607143Y-58747380D02*
X54550000Y-58747380D01*
X54550000Y-58747380D02*
X54464286Y-58795000D01*
X54464286Y-58795000D02*
X54435714Y-58842619D01*
X54235714Y-58747380D02*
X53864286Y-58747380D01*
X53864286Y-58747380D02*
X54064286Y-59128333D01*
X54064286Y-59128333D02*
X53978571Y-59128333D01*
X53978571Y-59128333D02*
X53921429Y-59175952D01*
X53921429Y-59175952D02*
X53892857Y-59223571D01*
X53892857Y-59223571D02*
X53864286Y-59318809D01*
X53864286Y-59318809D02*
X53864286Y-59556904D01*
X53864286Y-59556904D02*
X53892857Y-59652142D01*
X53892857Y-59652142D02*
X53921429Y-59699761D01*
X53921429Y-59699761D02*
X53978571Y-59747380D01*
X53978571Y-59747380D02*
X54150000Y-59747380D01*
X54150000Y-59747380D02*
X54207143Y-59699761D01*
X54207143Y-59699761D02*
X54235714Y-59652142D01*
X53521428Y-59175952D02*
X53578571Y-59128333D01*
X53578571Y-59128333D02*
X53607142Y-59080714D01*
X53607142Y-59080714D02*
X53635714Y-58985476D01*
X53635714Y-58985476D02*
X53635714Y-58937857D01*
X53635714Y-58937857D02*
X53607142Y-58842619D01*
X53607142Y-58842619D02*
X53578571Y-58795000D01*
X53578571Y-58795000D02*
X53521428Y-58747380D01*
X53521428Y-58747380D02*
X53407142Y-58747380D01*
X53407142Y-58747380D02*
X53350000Y-58795000D01*
X53350000Y-58795000D02*
X53321428Y-58842619D01*
X53321428Y-58842619D02*
X53292857Y-58937857D01*
X53292857Y-58937857D02*
X53292857Y-58985476D01*
X53292857Y-58985476D02*
X53321428Y-59080714D01*
X53321428Y-59080714D02*
X53350000Y-59128333D01*
X53350000Y-59128333D02*
X53407142Y-59175952D01*
X53407142Y-59175952D02*
X53521428Y-59175952D01*
X53521428Y-59175952D02*
X53578571Y-59223571D01*
X53578571Y-59223571D02*
X53607142Y-59271190D01*
X53607142Y-59271190D02*
X53635714Y-59366428D01*
X53635714Y-59366428D02*
X53635714Y-59556904D01*
X53635714Y-59556904D02*
X53607142Y-59652142D01*
X53607142Y-59652142D02*
X53578571Y-59699761D01*
X53578571Y-59699761D02*
X53521428Y-59747380D01*
X53521428Y-59747380D02*
X53407142Y-59747380D01*
X53407142Y-59747380D02*
X53350000Y-59699761D01*
X53350000Y-59699761D02*
X53321428Y-59652142D01*
X53321428Y-59652142D02*
X53292857Y-59556904D01*
X53292857Y-59556904D02*
X53292857Y-59366428D01*
X53292857Y-59366428D02*
X53321428Y-59271190D01*
X53321428Y-59271190D02*
X53350000Y-59223571D01*
X53350000Y-59223571D02*
X53407142Y-59175952D01*
X60360951Y-57136428D02*
X59599047Y-57136428D01*
X59979999Y-57517380D02*
X59979999Y-56755476D01*
X16067380Y-20712857D02*
X16876904Y-20712857D01*
X16876904Y-20712857D02*
X16972142Y-20741428D01*
X16972142Y-20741428D02*
X17019761Y-20770000D01*
X17019761Y-20770000D02*
X17067380Y-20827142D01*
X17067380Y-20827142D02*
X17067380Y-20941428D01*
X17067380Y-20941428D02*
X17019761Y-20998571D01*
X17019761Y-20998571D02*
X16972142Y-21027142D01*
X16972142Y-21027142D02*
X16876904Y-21055714D01*
X16876904Y-21055714D02*
X16067380Y-21055714D01*
X17067380Y-21369999D02*
X17067380Y-21484285D01*
X17067380Y-21484285D02*
X17019761Y-21541428D01*
X17019761Y-21541428D02*
X16972142Y-21569999D01*
X16972142Y-21569999D02*
X16829285Y-21627142D01*
X16829285Y-21627142D02*
X16638809Y-21655713D01*
X16638809Y-21655713D02*
X16257857Y-21655713D01*
X16257857Y-21655713D02*
X16162619Y-21627142D01*
X16162619Y-21627142D02*
X16115000Y-21598571D01*
X16115000Y-21598571D02*
X16067380Y-21541428D01*
X16067380Y-21541428D02*
X16067380Y-21427142D01*
X16067380Y-21427142D02*
X16115000Y-21369999D01*
X16115000Y-21369999D02*
X16162619Y-21341428D01*
X16162619Y-21341428D02*
X16257857Y-21312856D01*
X16257857Y-21312856D02*
X16495952Y-21312856D01*
X16495952Y-21312856D02*
X16591190Y-21341428D01*
X16591190Y-21341428D02*
X16638809Y-21369999D01*
X16638809Y-21369999D02*
X16686428Y-21427142D01*
X16686428Y-21427142D02*
X16686428Y-21541428D01*
X16686428Y-21541428D02*
X16638809Y-21598571D01*
X16638809Y-21598571D02*
X16591190Y-21627142D01*
X16591190Y-21627142D02*
X16495952Y-21655713D01*
X22747380Y-42960000D02*
X22747380Y-42674286D01*
X22747380Y-42674286D02*
X21747380Y-42674286D01*
X22080714Y-43417143D02*
X22747380Y-43417143D01*
X21699761Y-43274285D02*
X22414047Y-43131428D01*
X22414047Y-43131428D02*
X22414047Y-43502857D01*
X64507143Y-16469380D02*
X64164286Y-16469380D01*
X64335714Y-17469380D02*
X64335714Y-16469380D01*
X63964285Y-17469380D02*
X63964285Y-16469380D01*
X63964285Y-16469380D02*
X63735714Y-16469380D01*
X63735714Y-16469380D02*
X63678571Y-16517000D01*
X63678571Y-16517000D02*
X63650000Y-16564619D01*
X63650000Y-16564619D02*
X63621428Y-16659857D01*
X63621428Y-16659857D02*
X63621428Y-16802714D01*
X63621428Y-16802714D02*
X63650000Y-16897952D01*
X63650000Y-16897952D02*
X63678571Y-16945571D01*
X63678571Y-16945571D02*
X63735714Y-16993190D01*
X63735714Y-16993190D02*
X63964285Y-16993190D01*
X63392857Y-16564619D02*
X63364285Y-16517000D01*
X63364285Y-16517000D02*
X63307143Y-16469380D01*
X63307143Y-16469380D02*
X63164285Y-16469380D01*
X63164285Y-16469380D02*
X63107143Y-16517000D01*
X63107143Y-16517000D02*
X63078571Y-16564619D01*
X63078571Y-16564619D02*
X63050000Y-16659857D01*
X63050000Y-16659857D02*
X63050000Y-16755095D01*
X63050000Y-16755095D02*
X63078571Y-16897952D01*
X63078571Y-16897952D02*
X63421428Y-17469380D01*
X63421428Y-17469380D02*
X63050000Y-17469380D01*
X29032857Y-42037380D02*
X28690000Y-42037380D01*
X28861428Y-43037380D02*
X28861428Y-42037380D01*
X28489999Y-43037380D02*
X28489999Y-42037380D01*
X28489999Y-42037380D02*
X28261428Y-42037380D01*
X28261428Y-42037380D02*
X28204285Y-42085000D01*
X28204285Y-42085000D02*
X28175714Y-42132619D01*
X28175714Y-42132619D02*
X28147142Y-42227857D01*
X28147142Y-42227857D02*
X28147142Y-42370714D01*
X28147142Y-42370714D02*
X28175714Y-42465952D01*
X28175714Y-42465952D02*
X28204285Y-42513571D01*
X28204285Y-42513571D02*
X28261428Y-42561190D01*
X28261428Y-42561190D02*
X28489999Y-42561190D01*
X27575714Y-43037380D02*
X27918571Y-43037380D01*
X27747142Y-43037380D02*
X27747142Y-42037380D01*
X27747142Y-42037380D02*
X27804285Y-42180238D01*
X27804285Y-42180238D02*
X27861428Y-42275476D01*
X27861428Y-42275476D02*
X27918571Y-42323095D01*
X27232856Y-42465952D02*
X27289999Y-42418333D01*
X27289999Y-42418333D02*
X27318570Y-42370714D01*
X27318570Y-42370714D02*
X27347142Y-42275476D01*
X27347142Y-42275476D02*
X27347142Y-42227857D01*
X27347142Y-42227857D02*
X27318570Y-42132619D01*
X27318570Y-42132619D02*
X27289999Y-42085000D01*
X27289999Y-42085000D02*
X27232856Y-42037380D01*
X27232856Y-42037380D02*
X27118570Y-42037380D01*
X27118570Y-42037380D02*
X27061428Y-42085000D01*
X27061428Y-42085000D02*
X27032856Y-42132619D01*
X27032856Y-42132619D02*
X27004285Y-42227857D01*
X27004285Y-42227857D02*
X27004285Y-42275476D01*
X27004285Y-42275476D02*
X27032856Y-42370714D01*
X27032856Y-42370714D02*
X27061428Y-42418333D01*
X27061428Y-42418333D02*
X27118570Y-42465952D01*
X27118570Y-42465952D02*
X27232856Y-42465952D01*
X27232856Y-42465952D02*
X27289999Y-42513571D01*
X27289999Y-42513571D02*
X27318570Y-42561190D01*
X27318570Y-42561190D02*
X27347142Y-42656428D01*
X27347142Y-42656428D02*
X27347142Y-42846904D01*
X27347142Y-42846904D02*
X27318570Y-42942142D01*
X27318570Y-42942142D02*
X27289999Y-42989761D01*
X27289999Y-42989761D02*
X27232856Y-43037380D01*
X27232856Y-43037380D02*
X27118570Y-43037380D01*
X27118570Y-43037380D02*
X27061428Y-42989761D01*
X27061428Y-42989761D02*
X27032856Y-42942142D01*
X27032856Y-42942142D02*
X27004285Y-42846904D01*
X27004285Y-42846904D02*
X27004285Y-42656428D01*
X27004285Y-42656428D02*
X27032856Y-42561190D01*
X27032856Y-42561190D02*
X27061428Y-42513571D01*
X27061428Y-42513571D02*
X27118570Y-42465952D01*
X21792857Y-29469380D02*
X21450000Y-29469380D01*
X21621428Y-30469380D02*
X21621428Y-29469380D01*
X21249999Y-30469380D02*
X21249999Y-29469380D01*
X21249999Y-29469380D02*
X21021428Y-29469380D01*
X21021428Y-29469380D02*
X20964285Y-29517000D01*
X20964285Y-29517000D02*
X20935714Y-29564619D01*
X20935714Y-29564619D02*
X20907142Y-29659857D01*
X20907142Y-29659857D02*
X20907142Y-29802714D01*
X20907142Y-29802714D02*
X20935714Y-29897952D01*
X20935714Y-29897952D02*
X20964285Y-29945571D01*
X20964285Y-29945571D02*
X21021428Y-29993190D01*
X21021428Y-29993190D02*
X21249999Y-29993190D01*
X20678571Y-29564619D02*
X20649999Y-29517000D01*
X20649999Y-29517000D02*
X20592857Y-29469380D01*
X20592857Y-29469380D02*
X20449999Y-29469380D01*
X20449999Y-29469380D02*
X20392857Y-29517000D01*
X20392857Y-29517000D02*
X20364285Y-29564619D01*
X20364285Y-29564619D02*
X20335714Y-29659857D01*
X20335714Y-29659857D02*
X20335714Y-29755095D01*
X20335714Y-29755095D02*
X20364285Y-29897952D01*
X20364285Y-29897952D02*
X20707142Y-30469380D01*
X20707142Y-30469380D02*
X20335714Y-30469380D01*
X19964285Y-29469380D02*
X19907142Y-29469380D01*
X19907142Y-29469380D02*
X19849999Y-29517000D01*
X19849999Y-29517000D02*
X19821428Y-29564619D01*
X19821428Y-29564619D02*
X19792856Y-29659857D01*
X19792856Y-29659857D02*
X19764285Y-29850333D01*
X19764285Y-29850333D02*
X19764285Y-30088428D01*
X19764285Y-30088428D02*
X19792856Y-30278904D01*
X19792856Y-30278904D02*
X19821428Y-30374142D01*
X19821428Y-30374142D02*
X19849999Y-30421761D01*
X19849999Y-30421761D02*
X19907142Y-30469380D01*
X19907142Y-30469380D02*
X19964285Y-30469380D01*
X19964285Y-30469380D02*
X20021428Y-30421761D01*
X20021428Y-30421761D02*
X20049999Y-30374142D01*
X20049999Y-30374142D02*
X20078570Y-30278904D01*
X20078570Y-30278904D02*
X20107142Y-30088428D01*
X20107142Y-30088428D02*
X20107142Y-29850333D01*
X20107142Y-29850333D02*
X20078570Y-29659857D01*
X20078570Y-29659857D02*
X20049999Y-29564619D01*
X20049999Y-29564619D02*
X20021428Y-29517000D01*
X20021428Y-29517000D02*
X19964285Y-29469380D01*
X34664342Y-47817185D02*
X34711961Y-47788613D01*
X34711961Y-47788613D02*
X34759580Y-47702899D01*
X34759580Y-47702899D02*
X34759580Y-47645756D01*
X34759580Y-47645756D02*
X34711961Y-47560042D01*
X34711961Y-47560042D02*
X34616723Y-47502899D01*
X34616723Y-47502899D02*
X34521485Y-47474328D01*
X34521485Y-47474328D02*
X34331009Y-47445756D01*
X34331009Y-47445756D02*
X34188152Y-47445756D01*
X34188152Y-47445756D02*
X33997676Y-47474328D01*
X33997676Y-47474328D02*
X33902438Y-47502899D01*
X33902438Y-47502899D02*
X33807200Y-47560042D01*
X33807200Y-47560042D02*
X33759580Y-47645756D01*
X33759580Y-47645756D02*
X33759580Y-47702899D01*
X33759580Y-47702899D02*
X33807200Y-47788613D01*
X33807200Y-47788613D02*
X33854819Y-47817185D01*
X33759580Y-48017185D02*
X33759580Y-48388613D01*
X33759580Y-48388613D02*
X34140533Y-48188613D01*
X34140533Y-48188613D02*
X34140533Y-48274328D01*
X34140533Y-48274328D02*
X34188152Y-48331471D01*
X34188152Y-48331471D02*
X34235771Y-48360042D01*
X34235771Y-48360042D02*
X34331009Y-48388613D01*
X34331009Y-48388613D02*
X34569104Y-48388613D01*
X34569104Y-48388613D02*
X34664342Y-48360042D01*
X34664342Y-48360042D02*
X34711961Y-48331471D01*
X34711961Y-48331471D02*
X34759580Y-48274328D01*
X34759580Y-48274328D02*
X34759580Y-48102899D01*
X34759580Y-48102899D02*
X34711961Y-48045756D01*
X34711961Y-48045756D02*
X34664342Y-48017185D01*
X33759580Y-48902900D02*
X33759580Y-48788614D01*
X33759580Y-48788614D02*
X33807200Y-48731471D01*
X33807200Y-48731471D02*
X33854819Y-48702900D01*
X33854819Y-48702900D02*
X33997676Y-48645757D01*
X33997676Y-48645757D02*
X34188152Y-48617185D01*
X34188152Y-48617185D02*
X34569104Y-48617185D01*
X34569104Y-48617185D02*
X34664342Y-48645757D01*
X34664342Y-48645757D02*
X34711961Y-48674328D01*
X34711961Y-48674328D02*
X34759580Y-48731471D01*
X34759580Y-48731471D02*
X34759580Y-48845757D01*
X34759580Y-48845757D02*
X34711961Y-48902900D01*
X34711961Y-48902900D02*
X34664342Y-48931471D01*
X34664342Y-48931471D02*
X34569104Y-48960042D01*
X34569104Y-48960042D02*
X34331009Y-48960042D01*
X34331009Y-48960042D02*
X34235771Y-48931471D01*
X34235771Y-48931471D02*
X34188152Y-48902900D01*
X34188152Y-48902900D02*
X34140533Y-48845757D01*
X34140533Y-48845757D02*
X34140533Y-48731471D01*
X34140533Y-48731471D02*
X34188152Y-48674328D01*
X34188152Y-48674328D02*
X34235771Y-48645757D01*
X34235771Y-48645757D02*
X34331009Y-48617185D01*
X50937143Y-9997380D02*
X50594286Y-9997380D01*
X50765714Y-10997380D02*
X50765714Y-9997380D01*
X50394285Y-10997380D02*
X50394285Y-9997380D01*
X50394285Y-9997380D02*
X50165714Y-9997380D01*
X50165714Y-9997380D02*
X50108571Y-10045000D01*
X50108571Y-10045000D02*
X50080000Y-10092619D01*
X50080000Y-10092619D02*
X50051428Y-10187857D01*
X50051428Y-10187857D02*
X50051428Y-10330714D01*
X50051428Y-10330714D02*
X50080000Y-10425952D01*
X50080000Y-10425952D02*
X50108571Y-10473571D01*
X50108571Y-10473571D02*
X50165714Y-10521190D01*
X50165714Y-10521190D02*
X50394285Y-10521190D01*
X49508571Y-9997380D02*
X49794285Y-9997380D01*
X49794285Y-9997380D02*
X49822857Y-10473571D01*
X49822857Y-10473571D02*
X49794285Y-10425952D01*
X49794285Y-10425952D02*
X49737143Y-10378333D01*
X49737143Y-10378333D02*
X49594285Y-10378333D01*
X49594285Y-10378333D02*
X49537143Y-10425952D01*
X49537143Y-10425952D02*
X49508571Y-10473571D01*
X49508571Y-10473571D02*
X49480000Y-10568809D01*
X49480000Y-10568809D02*
X49480000Y-10806904D01*
X49480000Y-10806904D02*
X49508571Y-10902142D01*
X49508571Y-10902142D02*
X49537143Y-10949761D01*
X49537143Y-10949761D02*
X49594285Y-10997380D01*
X49594285Y-10997380D02*
X49737143Y-10997380D01*
X49737143Y-10997380D02*
X49794285Y-10949761D01*
X49794285Y-10949761D02*
X49822857Y-10902142D01*
X23665714Y-16797380D02*
X23865714Y-16321190D01*
X24008571Y-16797380D02*
X24008571Y-15797380D01*
X24008571Y-15797380D02*
X23780000Y-15797380D01*
X23780000Y-15797380D02*
X23722857Y-15845000D01*
X23722857Y-15845000D02*
X23694286Y-15892619D01*
X23694286Y-15892619D02*
X23665714Y-15987857D01*
X23665714Y-15987857D02*
X23665714Y-16130714D01*
X23665714Y-16130714D02*
X23694286Y-16225952D01*
X23694286Y-16225952D02*
X23722857Y-16273571D01*
X23722857Y-16273571D02*
X23780000Y-16321190D01*
X23780000Y-16321190D02*
X24008571Y-16321190D01*
X23437143Y-15892619D02*
X23408571Y-15845000D01*
X23408571Y-15845000D02*
X23351429Y-15797380D01*
X23351429Y-15797380D02*
X23208571Y-15797380D01*
X23208571Y-15797380D02*
X23151429Y-15845000D01*
X23151429Y-15845000D02*
X23122857Y-15892619D01*
X23122857Y-15892619D02*
X23094286Y-15987857D01*
X23094286Y-15987857D02*
X23094286Y-16083095D01*
X23094286Y-16083095D02*
X23122857Y-16225952D01*
X23122857Y-16225952D02*
X23465714Y-16797380D01*
X23465714Y-16797380D02*
X23094286Y-16797380D01*
X22865714Y-15892619D02*
X22837142Y-15845000D01*
X22837142Y-15845000D02*
X22780000Y-15797380D01*
X22780000Y-15797380D02*
X22637142Y-15797380D01*
X22637142Y-15797380D02*
X22580000Y-15845000D01*
X22580000Y-15845000D02*
X22551428Y-15892619D01*
X22551428Y-15892619D02*
X22522857Y-15987857D01*
X22522857Y-15987857D02*
X22522857Y-16083095D01*
X22522857Y-16083095D02*
X22551428Y-16225952D01*
X22551428Y-16225952D02*
X22894285Y-16797380D01*
X22894285Y-16797380D02*
X22522857Y-16797380D01*
X40042857Y-42469380D02*
X39700000Y-42469380D01*
X39871428Y-43469380D02*
X39871428Y-42469380D01*
X39499999Y-43469380D02*
X39499999Y-42469380D01*
X39499999Y-42469380D02*
X39271428Y-42469380D01*
X39271428Y-42469380D02*
X39214285Y-42517000D01*
X39214285Y-42517000D02*
X39185714Y-42564619D01*
X39185714Y-42564619D02*
X39157142Y-42659857D01*
X39157142Y-42659857D02*
X39157142Y-42802714D01*
X39157142Y-42802714D02*
X39185714Y-42897952D01*
X39185714Y-42897952D02*
X39214285Y-42945571D01*
X39214285Y-42945571D02*
X39271428Y-42993190D01*
X39271428Y-42993190D02*
X39499999Y-42993190D01*
X38585714Y-43469380D02*
X38928571Y-43469380D01*
X38757142Y-43469380D02*
X38757142Y-42469380D01*
X38757142Y-42469380D02*
X38814285Y-42612238D01*
X38814285Y-42612238D02*
X38871428Y-42707476D01*
X38871428Y-42707476D02*
X38928571Y-42755095D01*
X38042856Y-42469380D02*
X38328570Y-42469380D01*
X38328570Y-42469380D02*
X38357142Y-42945571D01*
X38357142Y-42945571D02*
X38328570Y-42897952D01*
X38328570Y-42897952D02*
X38271428Y-42850333D01*
X38271428Y-42850333D02*
X38128570Y-42850333D01*
X38128570Y-42850333D02*
X38071428Y-42897952D01*
X38071428Y-42897952D02*
X38042856Y-42945571D01*
X38042856Y-42945571D02*
X38014285Y-43040809D01*
X38014285Y-43040809D02*
X38014285Y-43278904D01*
X38014285Y-43278904D02*
X38042856Y-43374142D01*
X38042856Y-43374142D02*
X38071428Y-43421761D01*
X38071428Y-43421761D02*
X38128570Y-43469380D01*
X38128570Y-43469380D02*
X38271428Y-43469380D01*
X38271428Y-43469380D02*
X38328570Y-43421761D01*
X38328570Y-43421761D02*
X38357142Y-43374142D01*
X17779999Y-42552142D02*
X17808571Y-42599761D01*
X17808571Y-42599761D02*
X17894285Y-42647380D01*
X17894285Y-42647380D02*
X17951428Y-42647380D01*
X17951428Y-42647380D02*
X18037142Y-42599761D01*
X18037142Y-42599761D02*
X18094285Y-42504523D01*
X18094285Y-42504523D02*
X18122856Y-42409285D01*
X18122856Y-42409285D02*
X18151428Y-42218809D01*
X18151428Y-42218809D02*
X18151428Y-42075952D01*
X18151428Y-42075952D02*
X18122856Y-41885476D01*
X18122856Y-41885476D02*
X18094285Y-41790238D01*
X18094285Y-41790238D02*
X18037142Y-41695000D01*
X18037142Y-41695000D02*
X17951428Y-41647380D01*
X17951428Y-41647380D02*
X17894285Y-41647380D01*
X17894285Y-41647380D02*
X17808571Y-41695000D01*
X17808571Y-41695000D02*
X17779999Y-41742619D01*
X17437142Y-42075952D02*
X17494285Y-42028333D01*
X17494285Y-42028333D02*
X17522856Y-41980714D01*
X17522856Y-41980714D02*
X17551428Y-41885476D01*
X17551428Y-41885476D02*
X17551428Y-41837857D01*
X17551428Y-41837857D02*
X17522856Y-41742619D01*
X17522856Y-41742619D02*
X17494285Y-41695000D01*
X17494285Y-41695000D02*
X17437142Y-41647380D01*
X17437142Y-41647380D02*
X17322856Y-41647380D01*
X17322856Y-41647380D02*
X17265714Y-41695000D01*
X17265714Y-41695000D02*
X17237142Y-41742619D01*
X17237142Y-41742619D02*
X17208571Y-41837857D01*
X17208571Y-41837857D02*
X17208571Y-41885476D01*
X17208571Y-41885476D02*
X17237142Y-41980714D01*
X17237142Y-41980714D02*
X17265714Y-42028333D01*
X17265714Y-42028333D02*
X17322856Y-42075952D01*
X17322856Y-42075952D02*
X17437142Y-42075952D01*
X17437142Y-42075952D02*
X17494285Y-42123571D01*
X17494285Y-42123571D02*
X17522856Y-42171190D01*
X17522856Y-42171190D02*
X17551428Y-42266428D01*
X17551428Y-42266428D02*
X17551428Y-42456904D01*
X17551428Y-42456904D02*
X17522856Y-42552142D01*
X17522856Y-42552142D02*
X17494285Y-42599761D01*
X17494285Y-42599761D02*
X17437142Y-42647380D01*
X17437142Y-42647380D02*
X17322856Y-42647380D01*
X17322856Y-42647380D02*
X17265714Y-42599761D01*
X17265714Y-42599761D02*
X17237142Y-42552142D01*
X17237142Y-42552142D02*
X17208571Y-42456904D01*
X17208571Y-42456904D02*
X17208571Y-42266428D01*
X17208571Y-42266428D02*
X17237142Y-42171190D01*
X17237142Y-42171190D02*
X17265714Y-42123571D01*
X17265714Y-42123571D02*
X17322856Y-42075952D01*
X36362142Y-47884285D02*
X36409761Y-47855713D01*
X36409761Y-47855713D02*
X36457380Y-47769999D01*
X36457380Y-47769999D02*
X36457380Y-47712856D01*
X36457380Y-47712856D02*
X36409761Y-47627142D01*
X36409761Y-47627142D02*
X36314523Y-47569999D01*
X36314523Y-47569999D02*
X36219285Y-47541428D01*
X36219285Y-47541428D02*
X36028809Y-47512856D01*
X36028809Y-47512856D02*
X35885952Y-47512856D01*
X35885952Y-47512856D02*
X35695476Y-47541428D01*
X35695476Y-47541428D02*
X35600238Y-47569999D01*
X35600238Y-47569999D02*
X35505000Y-47627142D01*
X35505000Y-47627142D02*
X35457380Y-47712856D01*
X35457380Y-47712856D02*
X35457380Y-47769999D01*
X35457380Y-47769999D02*
X35505000Y-47855713D01*
X35505000Y-47855713D02*
X35552619Y-47884285D01*
X35457380Y-48427142D02*
X35457380Y-48141428D01*
X35457380Y-48141428D02*
X35933571Y-48112856D01*
X35933571Y-48112856D02*
X35885952Y-48141428D01*
X35885952Y-48141428D02*
X35838333Y-48198571D01*
X35838333Y-48198571D02*
X35838333Y-48341428D01*
X35838333Y-48341428D02*
X35885952Y-48398571D01*
X35885952Y-48398571D02*
X35933571Y-48427142D01*
X35933571Y-48427142D02*
X36028809Y-48455713D01*
X36028809Y-48455713D02*
X36266904Y-48455713D01*
X36266904Y-48455713D02*
X36362142Y-48427142D01*
X36362142Y-48427142D02*
X36409761Y-48398571D01*
X36409761Y-48398571D02*
X36457380Y-48341428D01*
X36457380Y-48341428D02*
X36457380Y-48198571D01*
X36457380Y-48198571D02*
X36409761Y-48141428D01*
X36409761Y-48141428D02*
X36362142Y-48112856D01*
X35457380Y-48655714D02*
X35457380Y-49027142D01*
X35457380Y-49027142D02*
X35838333Y-48827142D01*
X35838333Y-48827142D02*
X35838333Y-48912857D01*
X35838333Y-48912857D02*
X35885952Y-48970000D01*
X35885952Y-48970000D02*
X35933571Y-48998571D01*
X35933571Y-48998571D02*
X36028809Y-49027142D01*
X36028809Y-49027142D02*
X36266904Y-49027142D01*
X36266904Y-49027142D02*
X36362142Y-48998571D01*
X36362142Y-48998571D02*
X36409761Y-48970000D01*
X36409761Y-48970000D02*
X36457380Y-48912857D01*
X36457380Y-48912857D02*
X36457380Y-48741428D01*
X36457380Y-48741428D02*
X36409761Y-48684285D01*
X36409761Y-48684285D02*
X36362142Y-48655714D01*
X25037142Y-47517380D02*
X25037142Y-48326904D01*
X25037142Y-48326904D02*
X25008571Y-48422142D01*
X25008571Y-48422142D02*
X24980000Y-48469761D01*
X24980000Y-48469761D02*
X24922857Y-48517380D01*
X24922857Y-48517380D02*
X24808571Y-48517380D01*
X24808571Y-48517380D02*
X24751428Y-48469761D01*
X24751428Y-48469761D02*
X24722857Y-48422142D01*
X24722857Y-48422142D02*
X24694285Y-48326904D01*
X24694285Y-48326904D02*
X24694285Y-47517380D01*
X24465714Y-47517380D02*
X24065714Y-47517380D01*
X24065714Y-47517380D02*
X24322857Y-48517380D01*
X25772142Y-10842619D02*
X25829285Y-10795000D01*
X25829285Y-10795000D02*
X25886428Y-10699761D01*
X25886428Y-10699761D02*
X25972142Y-10556904D01*
X25972142Y-10556904D02*
X26029285Y-10509285D01*
X26029285Y-10509285D02*
X26086428Y-10509285D01*
X26057857Y-10747380D02*
X26115000Y-10699761D01*
X26115000Y-10699761D02*
X26172142Y-10604523D01*
X26172142Y-10604523D02*
X26200714Y-10414047D01*
X26200714Y-10414047D02*
X26200714Y-10080714D01*
X26200714Y-10080714D02*
X26172142Y-9890238D01*
X26172142Y-9890238D02*
X26115000Y-9795000D01*
X26115000Y-9795000D02*
X26057857Y-9747380D01*
X26057857Y-9747380D02*
X25943571Y-9747380D01*
X25943571Y-9747380D02*
X25886428Y-9795000D01*
X25886428Y-9795000D02*
X25829285Y-9890238D01*
X25829285Y-9890238D02*
X25800714Y-10080714D01*
X25800714Y-10080714D02*
X25800714Y-10414047D01*
X25800714Y-10414047D02*
X25829285Y-10604523D01*
X25829285Y-10604523D02*
X25886428Y-10699761D01*
X25886428Y-10699761D02*
X25943571Y-10747380D01*
X25943571Y-10747380D02*
X26057857Y-10747380D01*
X25515000Y-10747380D02*
X25400714Y-10747380D01*
X25400714Y-10747380D02*
X25343571Y-10699761D01*
X25343571Y-10699761D02*
X25315000Y-10652142D01*
X25315000Y-10652142D02*
X25257857Y-10509285D01*
X25257857Y-10509285D02*
X25229286Y-10318809D01*
X25229286Y-10318809D02*
X25229286Y-9937857D01*
X25229286Y-9937857D02*
X25257857Y-9842619D01*
X25257857Y-9842619D02*
X25286429Y-9795000D01*
X25286429Y-9795000D02*
X25343571Y-9747380D01*
X25343571Y-9747380D02*
X25457857Y-9747380D01*
X25457857Y-9747380D02*
X25515000Y-9795000D01*
X25515000Y-9795000D02*
X25543571Y-9842619D01*
X25543571Y-9842619D02*
X25572143Y-9937857D01*
X25572143Y-9937857D02*
X25572143Y-10175952D01*
X25572143Y-10175952D02*
X25543571Y-10271190D01*
X25543571Y-10271190D02*
X25515000Y-10318809D01*
X25515000Y-10318809D02*
X25457857Y-10366428D01*
X25457857Y-10366428D02*
X25343571Y-10366428D01*
X25343571Y-10366428D02*
X25286429Y-10318809D01*
X25286429Y-10318809D02*
X25257857Y-10271190D01*
X25257857Y-10271190D02*
X25229286Y-10175952D01*
X50937143Y-13247380D02*
X50594286Y-13247380D01*
X50765714Y-14247380D02*
X50765714Y-13247380D01*
X50394285Y-14247380D02*
X50394285Y-13247380D01*
X50394285Y-13247380D02*
X50165714Y-13247380D01*
X50165714Y-13247380D02*
X50108571Y-13295000D01*
X50108571Y-13295000D02*
X50080000Y-13342619D01*
X50080000Y-13342619D02*
X50051428Y-13437857D01*
X50051428Y-13437857D02*
X50051428Y-13580714D01*
X50051428Y-13580714D02*
X50080000Y-13675952D01*
X50080000Y-13675952D02*
X50108571Y-13723571D01*
X50108571Y-13723571D02*
X50165714Y-13771190D01*
X50165714Y-13771190D02*
X50394285Y-13771190D01*
X49537143Y-13247380D02*
X49651428Y-13247380D01*
X49651428Y-13247380D02*
X49708571Y-13295000D01*
X49708571Y-13295000D02*
X49737143Y-13342619D01*
X49737143Y-13342619D02*
X49794285Y-13485476D01*
X49794285Y-13485476D02*
X49822857Y-13675952D01*
X49822857Y-13675952D02*
X49822857Y-14056904D01*
X49822857Y-14056904D02*
X49794285Y-14152142D01*
X49794285Y-14152142D02*
X49765714Y-14199761D01*
X49765714Y-14199761D02*
X49708571Y-14247380D01*
X49708571Y-14247380D02*
X49594285Y-14247380D01*
X49594285Y-14247380D02*
X49537143Y-14199761D01*
X49537143Y-14199761D02*
X49508571Y-14152142D01*
X49508571Y-14152142D02*
X49480000Y-14056904D01*
X49480000Y-14056904D02*
X49480000Y-13818809D01*
X49480000Y-13818809D02*
X49508571Y-13723571D01*
X49508571Y-13723571D02*
X49537143Y-13675952D01*
X49537143Y-13675952D02*
X49594285Y-13628333D01*
X49594285Y-13628333D02*
X49708571Y-13628333D01*
X49708571Y-13628333D02*
X49765714Y-13675952D01*
X49765714Y-13675952D02*
X49794285Y-13723571D01*
X49794285Y-13723571D02*
X49822857Y-13818809D01*
X22167380Y-38237142D02*
X22167380Y-38580000D01*
X23167380Y-38408571D02*
X22167380Y-38408571D01*
X23167380Y-38780000D02*
X22167380Y-38780000D01*
X22167380Y-38780000D02*
X22167380Y-39008571D01*
X22167380Y-39008571D02*
X22215000Y-39065714D01*
X22215000Y-39065714D02*
X22262619Y-39094285D01*
X22262619Y-39094285D02*
X22357857Y-39122857D01*
X22357857Y-39122857D02*
X22500714Y-39122857D01*
X22500714Y-39122857D02*
X22595952Y-39094285D01*
X22595952Y-39094285D02*
X22643571Y-39065714D01*
X22643571Y-39065714D02*
X22691190Y-39008571D01*
X22691190Y-39008571D02*
X22691190Y-38780000D01*
X22262619Y-39351428D02*
X22215000Y-39380000D01*
X22215000Y-39380000D02*
X22167380Y-39437143D01*
X22167380Y-39437143D02*
X22167380Y-39580000D01*
X22167380Y-39580000D02*
X22215000Y-39637143D01*
X22215000Y-39637143D02*
X22262619Y-39665714D01*
X22262619Y-39665714D02*
X22357857Y-39694285D01*
X22357857Y-39694285D02*
X22453095Y-39694285D01*
X22453095Y-39694285D02*
X22595952Y-39665714D01*
X22595952Y-39665714D02*
X23167380Y-39322857D01*
X23167380Y-39322857D02*
X23167380Y-39694285D01*
X23167380Y-40265714D02*
X23167380Y-39922857D01*
X23167380Y-40094286D02*
X22167380Y-40094286D01*
X22167380Y-40094286D02*
X22310238Y-40037143D01*
X22310238Y-40037143D02*
X22405476Y-39980000D01*
X22405476Y-39980000D02*
X22453095Y-39922857D01*
X39507143Y-22969380D02*
X39164286Y-22969380D01*
X39335714Y-23969380D02*
X39335714Y-22969380D01*
X38964285Y-23969380D02*
X38964285Y-22969380D01*
X38964285Y-22969380D02*
X38735714Y-22969380D01*
X38735714Y-22969380D02*
X38678571Y-23017000D01*
X38678571Y-23017000D02*
X38650000Y-23064619D01*
X38650000Y-23064619D02*
X38621428Y-23159857D01*
X38621428Y-23159857D02*
X38621428Y-23302714D01*
X38621428Y-23302714D02*
X38650000Y-23397952D01*
X38650000Y-23397952D02*
X38678571Y-23445571D01*
X38678571Y-23445571D02*
X38735714Y-23493190D01*
X38735714Y-23493190D02*
X38964285Y-23493190D01*
X38278571Y-23397952D02*
X38335714Y-23350333D01*
X38335714Y-23350333D02*
X38364285Y-23302714D01*
X38364285Y-23302714D02*
X38392857Y-23207476D01*
X38392857Y-23207476D02*
X38392857Y-23159857D01*
X38392857Y-23159857D02*
X38364285Y-23064619D01*
X38364285Y-23064619D02*
X38335714Y-23017000D01*
X38335714Y-23017000D02*
X38278571Y-22969380D01*
X38278571Y-22969380D02*
X38164285Y-22969380D01*
X38164285Y-22969380D02*
X38107143Y-23017000D01*
X38107143Y-23017000D02*
X38078571Y-23064619D01*
X38078571Y-23064619D02*
X38050000Y-23159857D01*
X38050000Y-23159857D02*
X38050000Y-23207476D01*
X38050000Y-23207476D02*
X38078571Y-23302714D01*
X38078571Y-23302714D02*
X38107143Y-23350333D01*
X38107143Y-23350333D02*
X38164285Y-23397952D01*
X38164285Y-23397952D02*
X38278571Y-23397952D01*
X38278571Y-23397952D02*
X38335714Y-23445571D01*
X38335714Y-23445571D02*
X38364285Y-23493190D01*
X38364285Y-23493190D02*
X38392857Y-23588428D01*
X38392857Y-23588428D02*
X38392857Y-23778904D01*
X38392857Y-23778904D02*
X38364285Y-23874142D01*
X38364285Y-23874142D02*
X38335714Y-23921761D01*
X38335714Y-23921761D02*
X38278571Y-23969380D01*
X38278571Y-23969380D02*
X38164285Y-23969380D01*
X38164285Y-23969380D02*
X38107143Y-23921761D01*
X38107143Y-23921761D02*
X38078571Y-23874142D01*
X38078571Y-23874142D02*
X38050000Y-23778904D01*
X38050000Y-23778904D02*
X38050000Y-23588428D01*
X38050000Y-23588428D02*
X38078571Y-23493190D01*
X38078571Y-23493190D02*
X38107143Y-23445571D01*
X38107143Y-23445571D02*
X38164285Y-23397952D01*
X15049999Y-31637380D02*
X15249999Y-31161190D01*
X15392856Y-31637380D02*
X15392856Y-30637380D01*
X15392856Y-30637380D02*
X15164285Y-30637380D01*
X15164285Y-30637380D02*
X15107142Y-30685000D01*
X15107142Y-30685000D02*
X15078571Y-30732619D01*
X15078571Y-30732619D02*
X15049999Y-30827857D01*
X15049999Y-30827857D02*
X15049999Y-30970714D01*
X15049999Y-30970714D02*
X15078571Y-31065952D01*
X15078571Y-31065952D02*
X15107142Y-31113571D01*
X15107142Y-31113571D02*
X15164285Y-31161190D01*
X15164285Y-31161190D02*
X15392856Y-31161190D01*
X14478571Y-31637380D02*
X14821428Y-31637380D01*
X14649999Y-31637380D02*
X14649999Y-30637380D01*
X14649999Y-30637380D02*
X14707142Y-30780238D01*
X14707142Y-30780238D02*
X14764285Y-30875476D01*
X14764285Y-30875476D02*
X14821428Y-30923095D01*
X35422857Y-42117380D02*
X35080000Y-42117380D01*
X35251428Y-43117380D02*
X35251428Y-42117380D01*
X34879999Y-43117380D02*
X34879999Y-42117380D01*
X34879999Y-42117380D02*
X34651428Y-42117380D01*
X34651428Y-42117380D02*
X34594285Y-42165000D01*
X34594285Y-42165000D02*
X34565714Y-42212619D01*
X34565714Y-42212619D02*
X34537142Y-42307857D01*
X34537142Y-42307857D02*
X34537142Y-42450714D01*
X34537142Y-42450714D02*
X34565714Y-42545952D01*
X34565714Y-42545952D02*
X34594285Y-42593571D01*
X34594285Y-42593571D02*
X34651428Y-42641190D01*
X34651428Y-42641190D02*
X34879999Y-42641190D01*
X33965714Y-43117380D02*
X34308571Y-43117380D01*
X34137142Y-43117380D02*
X34137142Y-42117380D01*
X34137142Y-42117380D02*
X34194285Y-42260238D01*
X34194285Y-42260238D02*
X34251428Y-42355476D01*
X34251428Y-42355476D02*
X34308571Y-42403095D01*
X33451428Y-42117380D02*
X33565713Y-42117380D01*
X33565713Y-42117380D02*
X33622856Y-42165000D01*
X33622856Y-42165000D02*
X33651428Y-42212619D01*
X33651428Y-42212619D02*
X33708570Y-42355476D01*
X33708570Y-42355476D02*
X33737142Y-42545952D01*
X33737142Y-42545952D02*
X33737142Y-42926904D01*
X33737142Y-42926904D02*
X33708570Y-43022142D01*
X33708570Y-43022142D02*
X33679999Y-43069761D01*
X33679999Y-43069761D02*
X33622856Y-43117380D01*
X33622856Y-43117380D02*
X33508570Y-43117380D01*
X33508570Y-43117380D02*
X33451428Y-43069761D01*
X33451428Y-43069761D02*
X33422856Y-43022142D01*
X33422856Y-43022142D02*
X33394285Y-42926904D01*
X33394285Y-42926904D02*
X33394285Y-42688809D01*
X33394285Y-42688809D02*
X33422856Y-42593571D01*
X33422856Y-42593571D02*
X33451428Y-42545952D01*
X33451428Y-42545952D02*
X33508570Y-42498333D01*
X33508570Y-42498333D02*
X33622856Y-42498333D01*
X33622856Y-42498333D02*
X33679999Y-42545952D01*
X33679999Y-42545952D02*
X33708570Y-42593571D01*
X33708570Y-42593571D02*
X33737142Y-42688809D01*
X12327142Y-38362619D02*
X12384285Y-38315000D01*
X12384285Y-38315000D02*
X12441428Y-38219761D01*
X12441428Y-38219761D02*
X12527142Y-38076904D01*
X12527142Y-38076904D02*
X12584285Y-38029285D01*
X12584285Y-38029285D02*
X12641428Y-38029285D01*
X12612857Y-38267380D02*
X12670000Y-38219761D01*
X12670000Y-38219761D02*
X12727142Y-38124523D01*
X12727142Y-38124523D02*
X12755714Y-37934047D01*
X12755714Y-37934047D02*
X12755714Y-37600714D01*
X12755714Y-37600714D02*
X12727142Y-37410238D01*
X12727142Y-37410238D02*
X12670000Y-37315000D01*
X12670000Y-37315000D02*
X12612857Y-37267380D01*
X12612857Y-37267380D02*
X12498571Y-37267380D01*
X12498571Y-37267380D02*
X12441428Y-37315000D01*
X12441428Y-37315000D02*
X12384285Y-37410238D01*
X12384285Y-37410238D02*
X12355714Y-37600714D01*
X12355714Y-37600714D02*
X12355714Y-37934047D01*
X12355714Y-37934047D02*
X12384285Y-38124523D01*
X12384285Y-38124523D02*
X12441428Y-38219761D01*
X12441428Y-38219761D02*
X12498571Y-38267380D01*
X12498571Y-38267380D02*
X12612857Y-38267380D01*
X11841429Y-37600714D02*
X11841429Y-38267380D01*
X11984286Y-37219761D02*
X12127143Y-37934047D01*
X12127143Y-37934047D02*
X11755714Y-37934047D01*
D11*
X21240000Y-11300000D02*
X20590000Y-11300000D01*
X21240000Y-11300000D02*
X21890000Y-11300000D01*
X21240000Y-14420000D02*
X19565000Y-14420000D01*
X21240000Y-14420000D02*
X21890000Y-14420000D01*
X60297500Y-64147500D02*
X56087500Y-64147500D01*
X60297500Y-61127500D02*
X60297500Y-64147500D01*
X56087500Y-61127500D02*
X60297500Y-61127500D01*
X26700000Y-31750000D02*
G75*
G03*
X26700000Y-31750000I-950000J0D01*
G01*
X15073641Y-29250000D02*
X14766359Y-29250000D01*
X15073641Y-28490000D02*
X14766359Y-28490000D01*
X10450000Y-53000000D02*
G75*
G03*
X10450000Y-53000000I-950000J0D01*
G01*
X60400000Y-35017836D02*
X60400000Y-34802164D01*
X61120000Y-35017836D02*
X61120000Y-34802164D01*
X43770000Y-54930000D02*
X43770000Y-53430000D01*
X44770000Y-54930000D02*
X43770000Y-54930000D01*
X62820000Y-54930000D02*
X62820000Y-55330000D01*
X62820000Y-54930000D02*
X69620000Y-54930000D01*
X69620000Y-54930000D02*
X69620000Y-36530000D01*
X43770000Y-36530000D02*
X43770000Y-38030000D01*
X43770000Y-36530000D02*
X44770000Y-36530000D01*
X69620000Y-36530000D02*
X63420000Y-36530000D01*
X26700000Y-39250000D02*
G75*
G03*
X26700000Y-39250000I-950000J0D01*
G01*
X20685000Y-25337164D02*
X20685000Y-25552836D01*
X19965000Y-25337164D02*
X19965000Y-25552836D01*
X18195000Y-18584420D02*
X18195000Y-18865580D01*
X17175000Y-18584420D02*
X17175000Y-18865580D01*
X36876400Y-42045836D02*
X36876400Y-41830164D01*
X37596400Y-42045836D02*
X37596400Y-41830164D01*
X39950000Y-39250000D02*
G75*
G03*
X39950000Y-39250000I-950000J0D01*
G01*
X17491359Y-24665000D02*
X17798641Y-24665000D01*
X17491359Y-25425000D02*
X17798641Y-25425000D01*
X51450000Y-20500000D02*
G75*
G03*
X51450000Y-20500000I-950000J0D01*
G01*
X10540000Y-18799420D02*
X10540000Y-19080580D01*
X9520000Y-18799420D02*
X9520000Y-19080580D01*
X20885000Y-18559420D02*
X20885000Y-18840580D01*
X19865000Y-18559420D02*
X19865000Y-18840580D01*
X61267164Y-56615000D02*
X61482836Y-56615000D01*
X61267164Y-57335000D02*
X61482836Y-57335000D01*
X14900000Y-41720000D02*
X15550000Y-41720000D01*
X14900000Y-41720000D02*
X14250000Y-41720000D01*
X14900000Y-38600000D02*
X16575000Y-38600000D01*
X14900000Y-38600000D02*
X14250000Y-38600000D01*
X6277836Y-13800000D02*
X6062164Y-13800000D01*
X6277836Y-13080000D02*
X6062164Y-13080000D01*
X29923200Y-45281320D02*
X29923200Y-45562480D01*
X28903200Y-45281320D02*
X28903200Y-45562480D01*
X8860000Y-10822164D02*
X8860000Y-11037836D01*
X8140000Y-10822164D02*
X8140000Y-11037836D01*
X60310000Y-67560000D02*
X56100000Y-67560000D01*
X60310000Y-64540000D02*
X60310000Y-67560000D01*
X56100000Y-64540000D02*
X60310000Y-64540000D01*
X16950000Y-6500000D02*
G75*
G03*
X16950000Y-6500000I-950000J0D01*
G01*
X33500200Y-45872400D02*
X33500200Y-45222400D01*
X33500200Y-45872400D02*
X33500200Y-46522400D01*
X30380200Y-45872400D02*
X30380200Y-44197400D01*
X30380200Y-45872400D02*
X30380200Y-46522400D01*
X49200000Y-6750000D02*
G75*
G03*
X49200000Y-6750000I-950000J0D01*
G01*
X64700000Y-11500000D02*
G75*
G03*
X64700000Y-11500000I-950000J0D01*
G01*
X45927836Y-35800000D02*
X45712164Y-35800000D01*
X45927836Y-35080000D02*
X45712164Y-35080000D01*
X20216400Y-45539380D02*
X20216400Y-45258220D01*
X21236400Y-45539380D02*
X21236400Y-45258220D01*
X13350000Y-9113641D02*
X13350000Y-8806359D01*
X14110000Y-9113641D02*
X14110000Y-8806359D01*
X20096359Y-10190000D02*
X20403641Y-10190000D01*
X20096359Y-10950000D02*
X20403641Y-10950000D01*
X19375000Y-19167164D02*
X19375000Y-19382836D01*
X18655000Y-19167164D02*
X18655000Y-19382836D01*
X7280000Y-17620000D02*
X6630000Y-17620000D01*
X7280000Y-17620000D02*
X7930000Y-17620000D01*
X7280000Y-20740000D02*
X5605000Y-20740000D01*
X7280000Y-20740000D02*
X7930000Y-20740000D01*
X61267164Y-55615000D02*
X61482836Y-55615000D01*
X61267164Y-56335000D02*
X61482836Y-56335000D01*
X10450000Y-49750000D02*
G75*
G03*
X10450000Y-49750000I-950000J0D01*
G01*
X16110000Y-13010000D02*
X16110000Y-13610000D01*
X16810000Y-14310000D02*
X18210000Y-14310000D01*
X18210000Y-12310000D02*
X16810000Y-12310000D01*
X18910000Y-13610000D02*
X18910000Y-13010000D01*
X16810000Y-12310000D02*
G75*
G03*
X16110000Y-13010000I-1J-699999D01*
G01*
X16110000Y-13610000D02*
G75*
G03*
X16810000Y-14310000I699999J-1D01*
G01*
X18910000Y-13010000D02*
G75*
G03*
X18210000Y-12310000I-700000J0D01*
G01*
X18210000Y-14310000D02*
G75*
G03*
X18910000Y-13610000I0J700000D01*
G01*
X5150000Y-17270000D02*
X5800000Y-17270000D01*
X5150000Y-17270000D02*
X4500000Y-17270000D01*
X5150000Y-14150000D02*
X6825000Y-14150000D01*
X5150000Y-14150000D02*
X4500000Y-14150000D01*
X11110000Y-11710000D02*
X11910000Y-11710000D01*
X11110000Y-11710000D02*
X10310000Y-11710000D01*
X11110000Y-8590000D02*
X12910000Y-8590000D01*
X11110000Y-8590000D02*
X10310000Y-8590000D01*
X14110000Y-10756359D02*
X14110000Y-11063641D01*
X13350000Y-10756359D02*
X13350000Y-11063641D01*
X65700000Y-32500000D02*
G75*
G03*
X65700000Y-32500000I-950000J0D01*
G01*
X24792400Y-45258220D02*
X24792400Y-45539380D01*
X23772400Y-45258220D02*
X23772400Y-45539380D01*
X37200000Y-18750000D02*
G75*
G03*
X37200000Y-18750000I-950000J0D01*
G01*
X18950000Y-31750000D02*
G75*
G03*
X18950000Y-31750000I-950000J0D01*
G01*
X17666359Y-36080000D02*
X17973641Y-36080000D01*
X17666359Y-36840000D02*
X17973641Y-36840000D01*
X4036359Y-13050000D02*
X4343641Y-13050000D01*
X4036359Y-13810000D02*
X4343641Y-13810000D01*
X17973641Y-35830000D02*
X17666359Y-35830000D01*
X17973641Y-35070000D02*
X17666359Y-35070000D01*
X61809420Y-59315000D02*
X62090580Y-59315000D01*
X61809420Y-60335000D02*
X62090580Y-60335000D01*
X31545620Y-48156400D02*
X31826780Y-48156400D01*
X31545620Y-49176400D02*
X31826780Y-49176400D01*
X64700000Y-15250000D02*
G75*
G03*
X64700000Y-15250000I-950000J0D01*
G01*
X5050000Y-18859420D02*
X5050000Y-19140580D01*
X4030000Y-18859420D02*
X4030000Y-19140580D01*
X54462000Y-34718164D02*
X54462000Y-34933836D01*
X53742000Y-34718164D02*
X53742000Y-34933836D01*
X61809420Y-57765000D02*
X62090580Y-57765000D01*
X61809420Y-58785000D02*
X62090580Y-58785000D01*
X26573620Y-48165400D02*
X26854780Y-48165400D01*
X26573620Y-49185400D02*
X26854780Y-49185400D01*
X39700000Y-21500000D02*
G75*
G03*
X39700000Y-21500000I-950000J0D01*
G01*
X29950000Y-25250000D02*
G75*
G03*
X29950000Y-25250000I-950000J0D01*
G01*
X19665000Y-25347164D02*
X19665000Y-25562836D01*
X18945000Y-25347164D02*
X18945000Y-25562836D01*
X60285000Y-60760000D02*
X56075000Y-60760000D01*
X60285000Y-57740000D02*
X60285000Y-60760000D01*
X56075000Y-57740000D02*
X60285000Y-57740000D01*
X17510000Y-22390000D02*
X17510000Y-23190000D01*
X17510000Y-22390000D02*
X17510000Y-21590000D01*
X20630000Y-22390000D02*
X20630000Y-24190000D01*
X20630000Y-22390000D02*
X20630000Y-21590000D01*
X21794400Y-46032052D02*
X21794400Y-45509548D01*
X23214400Y-46032052D02*
X23214400Y-45509548D01*
X64700000Y-18750000D02*
G75*
G03*
X64700000Y-18750000I-950000J0D01*
G01*
X26700000Y-41750000D02*
G75*
G03*
X26700000Y-41750000I-950000J0D01*
G01*
X21700000Y-31750000D02*
G75*
G03*
X21700000Y-31750000I-950000J0D01*
G01*
X35022200Y-45272320D02*
X35022200Y-45553480D01*
X34002200Y-45272320D02*
X34002200Y-45553480D01*
X49200000Y-9750000D02*
G75*
G03*
X49200000Y-9750000I-950000J0D01*
G01*
X24383641Y-15530000D02*
X24076359Y-15530000D01*
X24383641Y-14770000D02*
X24076359Y-14770000D01*
X39950000Y-44750000D02*
G75*
G03*
X39950000Y-44750000I-950000J0D01*
G01*
X18190000Y-39819420D02*
X18190000Y-40100580D01*
X17170000Y-39819420D02*
X17170000Y-40100580D01*
X36578000Y-45274620D02*
X36578000Y-45555780D01*
X35558000Y-45274620D02*
X35558000Y-45555780D01*
X28433200Y-45872400D02*
X28433200Y-45222400D01*
X28433200Y-45872400D02*
X28433200Y-46522400D01*
X25313200Y-45872400D02*
X25313200Y-44197400D01*
X25313200Y-45872400D02*
X25313200Y-46522400D01*
X25210000Y-11290000D02*
X24560000Y-11290000D01*
X25210000Y-11290000D02*
X25860000Y-11290000D01*
X25210000Y-14410000D02*
X23535000Y-14410000D01*
X25210000Y-14410000D02*
X25860000Y-14410000D01*
X49200000Y-13000000D02*
G75*
G03*
X49200000Y-13000000I-950000J0D01*
G01*
X21950000Y-39250000D02*
G75*
G03*
X21950000Y-39250000I-950000J0D01*
G01*
X39700000Y-25250000D02*
G75*
G03*
X39700000Y-25250000I-950000J0D01*
G01*
X14766359Y-29500000D02*
X15073641Y-29500000D01*
X14766359Y-30260000D02*
X15073641Y-30260000D01*
X32950000Y-42500000D02*
G75*
G03*
X32950000Y-42500000I-950000J0D01*
G01*
X14900000Y-38210000D02*
X15550000Y-38210000D01*
X14900000Y-38210000D02*
X14250000Y-38210000D01*
X14900000Y-35090000D02*
X16575000Y-35090000D01*
X14900000Y-35090000D02*
X14250000Y-35090000D01*
%LPC*%
D12*
X5100000Y-36610000D03*
X5100000Y-42390000D03*
D13*
X5629999Y-35179999D03*
D14*
X1449999Y-35179999D03*
D13*
X5629999Y-43819999D03*
D14*
X1449999Y-43819999D03*
D15*
X5000000Y-65000000D03*
D16*
X5000000Y-65000000D03*
D15*
X5000000Y-5000000D03*
D16*
X5000000Y-5000000D03*
D17*
X24000000Y-22000000D03*
X46000000Y-22000000D03*
D18*
X44600000Y-7000000D03*
X37400000Y-7000000D03*
X43250000Y-4500000D03*
X38750000Y-4500000D03*
X32600000Y-7000000D03*
X25400000Y-7000000D03*
X31250000Y-4500000D03*
X26750000Y-4500000D03*
D19*
X21500000Y-16625000D03*
X21500000Y-15375000D03*
D20*
X8459999Y-13499999D03*
D21*
X11000000Y-16040000D03*
X13540000Y-13500000D03*
D15*
X65000000Y-5000000D03*
D16*
X65000000Y-5000000D03*
D22*
X56724999Y-10574999D03*
D23*
X59264999Y-10574999D03*
X56724999Y-13114999D03*
X59264999Y-13114999D03*
X56724999Y-15654999D03*
X59264999Y-15654999D03*
X56724999Y-18194999D03*
X59264999Y-18194999D03*
X56724999Y-20734999D03*
X59264999Y-20734999D03*
X56724999Y-23274999D03*
X59264999Y-23274999D03*
X56724999Y-25814999D03*
X59264999Y-25814999D03*
X56724999Y-28354999D03*
X59264999Y-28354999D03*
X56724999Y-30894999D03*
X59264999Y-30894999D03*
X56724999Y-33434999D03*
X59264999Y-33434999D03*
D15*
X65000000Y-65000000D03*
D16*
X65000000Y-65000000D03*
D24*
X51190000Y-5635000D03*
X58810000Y-4619000D03*
X58810000Y-6651000D03*
D25*
X20302500Y-13810000D03*
X20302500Y-11910000D03*
X22177500Y-12860000D03*
D26*
X59375000Y-62637500D03*
X56300000Y-62637500D03*
D27*
X25750000Y-31750000D03*
D28*
X15430000Y-28870000D03*
X14410000Y-28870000D03*
D27*
X9500000Y-53000000D03*
D29*
X60760000Y-35390000D03*
X60760000Y-34430000D03*
D30*
X61979999Y-54479999D03*
X60709999Y-54479999D03*
X59439999Y-54479999D03*
X58169999Y-54479999D03*
X56899999Y-54479999D03*
X55629999Y-54479999D03*
X54359999Y-54479999D03*
X53089999Y-54479999D03*
X51819999Y-54479999D03*
X50549999Y-54479999D03*
X49279999Y-54479999D03*
X48009999Y-54479999D03*
X46739999Y-54479999D03*
X45469999Y-54479999D03*
D31*
X44219999Y-52714999D03*
X44219999Y-51444999D03*
X44219999Y-50174999D03*
X44219999Y-48904999D03*
X44219999Y-47634999D03*
X44219999Y-46364999D03*
X44219999Y-45094999D03*
X44219999Y-43824999D03*
X44219999Y-42554999D03*
X44219999Y-41284999D03*
X44219999Y-40014999D03*
X44219999Y-38744999D03*
D30*
X45469999Y-36979999D03*
X46739999Y-36979999D03*
X48009999Y-36979999D03*
X49279999Y-36979999D03*
X50549999Y-36979999D03*
X51819999Y-36979999D03*
X53089999Y-36979999D03*
X54359999Y-36979999D03*
X55629999Y-36979999D03*
X56899999Y-36979999D03*
X58169999Y-36979999D03*
X59439999Y-36979999D03*
X60709999Y-36979999D03*
X61979999Y-36979999D03*
D32*
X53560000Y-48630000D03*
X54960000Y-48630000D03*
X52860000Y-47930000D03*
X54260000Y-47930000D03*
X55660000Y-47930000D03*
X53560000Y-47230000D03*
D33*
X54259999Y-47229999D03*
D32*
X54960000Y-47230000D03*
X52860000Y-46530000D03*
X54260000Y-46530000D03*
X55660000Y-46530000D03*
X53560000Y-45830000D03*
X54960000Y-45830000D03*
D27*
X25750000Y-39250000D03*
D34*
X20325000Y-24965000D03*
X20325000Y-25925000D03*
D35*
X17685000Y-17950000D03*
X17685000Y-19500000D03*
D29*
X37236400Y-42418000D03*
X37236400Y-41458000D03*
D27*
X39000000Y-39250000D03*
D36*
X17135000Y-25045000D03*
X18155000Y-25045000D03*
D27*
X50500000Y-20500000D03*
D35*
X10030000Y-18165000D03*
X10030000Y-19715000D03*
X20375000Y-17925000D03*
X20375000Y-19475000D03*
D37*
X60895000Y-56975000D03*
X61855000Y-56975000D03*
D38*
X15837500Y-39210000D03*
X15837500Y-41110000D03*
X13962500Y-40160000D03*
D39*
X6650000Y-13440000D03*
X5690000Y-13440000D03*
D35*
X29413200Y-44646900D03*
X29413200Y-46196900D03*
D34*
X8500000Y-10450000D03*
X8500000Y-11410000D03*
D26*
X59387500Y-66050000D03*
X56312500Y-66050000D03*
D27*
X16000000Y-6500000D03*
D40*
X30990200Y-44934900D03*
X32890200Y-44934900D03*
X31940200Y-46809900D03*
D27*
X48250000Y-6750000D03*
X63750000Y-11500000D03*
D39*
X46300000Y-35440000D03*
X45340000Y-35440000D03*
D41*
X20726400Y-46173800D03*
X20726400Y-44623800D03*
D42*
X13730000Y-9470000D03*
X13730000Y-8450000D03*
D36*
X19740000Y-10570000D03*
X20760000Y-10570000D03*
D34*
X19015000Y-18795000D03*
X19015000Y-19755000D03*
D25*
X6342500Y-20130000D03*
X6342500Y-18230000D03*
X8217500Y-19180000D03*
D37*
X60895000Y-55975000D03*
X61855000Y-55975000D03*
D27*
X9500000Y-49750000D03*
D43*
X16860000Y-13310000D03*
D44*
X18160000Y-13310000D03*
D38*
X6087500Y-14760000D03*
X6087500Y-16660000D03*
X4212500Y-15710000D03*
D45*
X12247500Y-9200000D03*
X12247500Y-10150000D03*
X12247500Y-11100000D03*
X9972500Y-11100000D03*
X9972500Y-10150000D03*
X9972500Y-9200000D03*
D46*
X13730000Y-10400000D03*
X13730000Y-11420000D03*
D27*
X64750000Y-32500000D03*
D35*
X24282400Y-44623800D03*
X24282400Y-46173800D03*
D27*
X36250000Y-18750000D03*
X18000000Y-31750000D03*
D36*
X17310000Y-36460000D03*
X18330000Y-36460000D03*
X3680000Y-13430000D03*
X4700000Y-13430000D03*
D28*
X18330000Y-35450000D03*
X17310000Y-35450000D03*
D47*
X61175000Y-59825000D03*
X62725000Y-59825000D03*
X30911200Y-48666400D03*
X32461200Y-48666400D03*
D27*
X63750000Y-15250000D03*
D35*
X4540000Y-18225000D03*
X4540000Y-19775000D03*
D34*
X54102000Y-34346000D03*
X54102000Y-35306000D03*
D47*
X61175000Y-58275000D03*
X62725000Y-58275000D03*
X25939200Y-48675400D03*
X27489200Y-48675400D03*
D27*
X38750000Y-21500000D03*
X29000000Y-25250000D03*
D34*
X19305000Y-24975000D03*
X19305000Y-25935000D03*
D26*
X59362500Y-59250000D03*
X56287500Y-59250000D03*
D48*
X20020000Y-23527500D03*
X19070000Y-23527500D03*
X18120000Y-23527500D03*
X18120000Y-21252500D03*
X19070000Y-21252500D03*
X20020000Y-21252500D03*
D49*
X22504400Y-46795800D03*
X22504400Y-44745800D03*
D27*
X63750000Y-18750000D03*
X25750000Y-41750000D03*
X20750000Y-31750000D03*
D35*
X34512200Y-44637900D03*
X34512200Y-46187900D03*
D27*
X48250000Y-9750000D03*
D28*
X24740000Y-15150000D03*
X23720000Y-15150000D03*
D27*
X39000000Y-44750000D03*
D35*
X17680000Y-39185000D03*
X17680000Y-40735000D03*
X36068000Y-44640200D03*
X36068000Y-46190200D03*
D40*
X25923200Y-44934900D03*
X27823200Y-44934900D03*
X26873200Y-46809900D03*
D25*
X24272500Y-13800000D03*
X24272500Y-11900000D03*
X26147500Y-12850000D03*
D27*
X48250000Y-13000000D03*
X21000000Y-39250000D03*
X38750000Y-25250000D03*
D36*
X14410000Y-29880000D03*
X15430000Y-29880000D03*
D27*
X32000000Y-42500000D03*
D38*
X15837500Y-35700000D03*
X15837500Y-37600000D03*
X13962500Y-36650000D03*
M02*
