%TF.GenerationSoftware,KiCad,Pcbnew,(6.0.10)*%
%TF.CreationDate,2023-01-06T19:14:35-08:00*%
%TF.ProjectId,ai-camera,61692d63-616d-4657-9261-2e6b69636164,rev?*%
%TF.SameCoordinates,PX5f5e100PY2faf080*%
%TF.FileFunction,Drillmap*%
%TF.FilePolarity,Positive*%
%FSLAX45Y45*%
G04 Gerber Fmt 4.5, Leading zero omitted, Abs format (unit mm)*
G04 Created by KiCad (PCBNEW (6.0.10)) date 2023-01-06 19:14:35*
%MOMM*%
%LPD*%
G01*
G04 APERTURE LIST*
%ADD10C,0.100000*%
%ADD11C,0.200000*%
%ADD12C,0.030000*%
%ADD13C,0.050000*%
%ADD14C,0.055000*%
%ADD15C,0.075000*%
%ADD16C,0.076200*%
%ADD17C,0.080000*%
%ADD18C,0.110000*%
%ADD19C,0.320000*%
G04 APERTURE END LIST*
D10*
X6500000Y0D02*
G75*
G03*
X6000000Y500000I-500000J0D01*
G01*
X-500000Y-3925000D02*
G75*
G03*
X-250000Y-4175000I250000J0D01*
G01*
X6500000Y-5200000D02*
X6500000Y-6000000D01*
X0Y500000D02*
X6000000Y500000D01*
X5800000Y-4800000D02*
G75*
G03*
X6000000Y-5000000I200000J0D01*
G01*
X-250000Y-5425000D02*
G75*
G03*
X-500000Y-5675000I0J-250000D01*
G01*
X6300000Y-3100000D02*
X6000000Y-3100000D01*
X0Y500000D02*
G75*
G03*
X-500000Y0I0J-500000D01*
G01*
X6500000Y-5200000D02*
G75*
G03*
X6300000Y-5000000I-200000J0D01*
G01*
X-500000Y-3925000D02*
X-500000Y0D01*
X0Y-4425000D02*
G75*
G03*
X-250000Y-4175000I-250000J0D01*
G01*
X6000000Y-3100000D02*
G75*
G03*
X5800000Y-3300000I0J-200000D01*
G01*
X6000000Y-5000000D02*
X6300000Y-5000000D01*
X6000000Y-6500000D02*
G75*
G03*
X6500000Y-6000000I0J500000D01*
G01*
X0Y-5175000D02*
X0Y-4425000D01*
X-500000Y-5675000D02*
X-500000Y-6000000D01*
X6500000Y0D02*
X6500000Y-2900000D01*
X-500000Y-6000000D02*
G75*
G03*
X0Y-6500000I500000J0D01*
G01*
X6000000Y-6500000D02*
X0Y-6500000D01*
X-250000Y-5425000D02*
G75*
G03*
X0Y-5175000I0J250000D01*
G01*
X6300000Y-3100000D02*
G75*
G03*
X6500000Y-2900000I0J200000D01*
G01*
X5800000Y-3300000D02*
X5800000Y-4800000D01*
D11*
D12*
X-415000Y15000D02*
X-385000Y-15000D01*
X-385000Y15000D02*
X-415000Y-15000D01*
X-415000Y-285000D02*
X-385000Y-315000D01*
X-385000Y-285000D02*
X-415000Y-315000D01*
X-415000Y-585000D02*
X-385000Y-615000D01*
X-385000Y-585000D02*
X-415000Y-615000D01*
X-415000Y-885000D02*
X-385000Y-915000D01*
X-385000Y-885000D02*
X-415000Y-915000D01*
X-415000Y-1185000D02*
X-385000Y-1215000D01*
X-385000Y-1185000D02*
X-415000Y-1215000D01*
X-415000Y-1485000D02*
X-385000Y-1515000D01*
X-385000Y-1485000D02*
X-415000Y-1515000D01*
X-415000Y-1785000D02*
X-385000Y-1815000D01*
X-385000Y-1785000D02*
X-415000Y-1815000D01*
X-415000Y-2085000D02*
X-385000Y-2115000D01*
X-385000Y-2085000D02*
X-415000Y-2115000D01*
X-415000Y-2385000D02*
X-385000Y-2415000D01*
X-385000Y-2385000D02*
X-415000Y-2415000D01*
X-415000Y-2685000D02*
X-385000Y-2715000D01*
X-385000Y-2685000D02*
X-415000Y-2715000D01*
X-415000Y-5685000D02*
X-385000Y-5715000D01*
X-385000Y-5685000D02*
X-415000Y-5715000D01*
X-415000Y-5985000D02*
X-385000Y-6015000D01*
X-385000Y-5985000D02*
X-415000Y-6015000D01*
X-315000Y-3985000D02*
X-285000Y-4015000D01*
X-285000Y-3985000D02*
X-315000Y-4015000D01*
X-265000Y265000D02*
X-235000Y235000D01*
X-235000Y265000D02*
X-265000Y235000D01*
X-265000Y-6285000D02*
X-235000Y-6315000D01*
X-235000Y-6285000D02*
X-265000Y-6315000D01*
X-215000Y-5485000D02*
X-185000Y-5515000D01*
X-185000Y-5485000D02*
X-215000Y-5515000D01*
X-15000Y415000D02*
X15000Y385000D01*
X15000Y415000D02*
X-15000Y385000D01*
X-15000Y-4185000D02*
X15000Y-4215000D01*
X15000Y-4185000D02*
X-15000Y-4215000D01*
X15000Y-3597000D02*
X45000Y-3627000D01*
X45000Y-3597000D02*
X15000Y-3627000D01*
X85000Y-4485000D02*
X115000Y-4515000D01*
X115000Y-4485000D02*
X85000Y-4515000D01*
X85000Y-4785000D02*
X115000Y-4815000D01*
X115000Y-4785000D02*
X85000Y-4815000D01*
X85000Y-5085000D02*
X115000Y-5115000D01*
X115000Y-5085000D02*
X85000Y-5115000D01*
X85000Y-6385000D02*
X115000Y-6415000D01*
X115000Y-6385000D02*
X85000Y-6415000D01*
X135000Y-2835000D02*
X165000Y-2865000D01*
X165000Y-2835000D02*
X135000Y-2865000D01*
X163000Y-4000000D02*
X193000Y-4030000D01*
X193000Y-4000000D02*
X163000Y-4030000D01*
X196000Y-3645000D02*
X226000Y-3675000D01*
X226000Y-3645000D02*
X196000Y-3675000D01*
X235000Y-2835000D02*
X265000Y-2865000D01*
X265000Y-2835000D02*
X235000Y-2865000D01*
X235000Y-2935000D02*
X265000Y-2965000D01*
X265000Y-2935000D02*
X235000Y-2965000D01*
X283000Y-2037000D02*
X313000Y-2067000D01*
X313000Y-2037000D02*
X283000Y-2067000D01*
X285000Y415000D02*
X315000Y385000D01*
X315000Y415000D02*
X285000Y385000D01*
X353000Y-2394000D02*
X383000Y-2424000D01*
X383000Y-2394000D02*
X353000Y-2424000D01*
X354000Y-2620000D02*
X384000Y-2650000D01*
X384000Y-2620000D02*
X354000Y-2650000D01*
X356000Y-2539000D02*
X386000Y-2569000D01*
X386000Y-2539000D02*
X356000Y-2569000D01*
X358000Y-2467000D02*
X388000Y-2497000D01*
X388000Y-2467000D02*
X358000Y-2497000D01*
X363000Y-4669000D02*
X393000Y-4699000D01*
X393000Y-4669000D02*
X363000Y-4699000D01*
X385000Y-6385000D02*
X415000Y-6415000D01*
X415000Y-6385000D02*
X385000Y-6415000D01*
X442000Y-4333000D02*
X472000Y-4363000D01*
X472000Y-4333000D02*
X442000Y-4363000D01*
X472500Y-115000D02*
X502500Y-145000D01*
X502500Y-115000D02*
X472500Y-145000D01*
X474000Y-397000D02*
X504000Y-427000D01*
X504000Y-397000D02*
X474000Y-427000D01*
X500235Y-195235D02*
X530235Y-225235D01*
X530235Y-195235D02*
X500235Y-225235D01*
X520000Y-3080000D02*
X550000Y-3110000D01*
X550000Y-3080000D02*
X520000Y-3110000D01*
X551485Y-143985D02*
X581485Y-173985D01*
X581485Y-143985D02*
X551485Y-173985D01*
X564231Y-2370350D02*
X594231Y-2400350D01*
X594231Y-2370350D02*
X564231Y-2400350D01*
X577000Y-2557000D02*
X607000Y-2587000D01*
X607000Y-2557000D02*
X577000Y-2587000D01*
X578000Y-5077000D02*
X608000Y-5107000D01*
X608000Y-5077000D02*
X578000Y-5107000D01*
X585000Y415000D02*
X615000Y385000D01*
X615000Y415000D02*
X585000Y385000D01*
X585000Y-5835000D02*
X615000Y-5865000D01*
X615000Y-5835000D02*
X585000Y-5865000D01*
X585000Y-5935000D02*
X615000Y-5965000D01*
X615000Y-5935000D02*
X585000Y-5965000D01*
X601934Y-4668720D02*
X631934Y-4698720D01*
X631934Y-4668720D02*
X601934Y-4698720D01*
X685000Y-5335000D02*
X715000Y-5365000D01*
X715000Y-5335000D02*
X685000Y-5365000D01*
X685000Y-5635000D02*
X715000Y-5665000D01*
X715000Y-5635000D02*
X685000Y-5665000D01*
X685000Y-6385000D02*
X715000Y-6415000D01*
X715000Y-6385000D02*
X685000Y-6415000D01*
X697052Y-5015212D02*
X727052Y-5045212D01*
X727052Y-5015212D02*
X697052Y-5045212D01*
X713000Y-4410000D02*
X743000Y-4440000D01*
X743000Y-4410000D02*
X713000Y-4440000D01*
X735000Y-3645000D02*
X765000Y-3675000D01*
X765000Y-3645000D02*
X735000Y-3675000D01*
X754664Y-4306415D02*
X784664Y-4336415D01*
X784664Y-4306415D02*
X754664Y-4336415D01*
X770000Y-2985000D02*
X800000Y-3015000D01*
X800000Y-2985000D02*
X770000Y-3015000D01*
X835000Y-5335000D02*
X865000Y-5365000D01*
X865000Y-5335000D02*
X835000Y-5365000D01*
X835000Y-5635000D02*
X865000Y-5665000D01*
X865000Y-5635000D02*
X835000Y-5665000D01*
X835000Y-5935000D02*
X865000Y-5965000D01*
X865000Y-5935000D02*
X835000Y-5965000D01*
X835000Y-6035000D02*
X865000Y-6065000D01*
X865000Y-6035000D02*
X835000Y-6065000D01*
X854000Y-395000D02*
X884000Y-425000D01*
X884000Y-395000D02*
X854000Y-425000D01*
X870000Y160000D02*
X900000Y130000D01*
X900000Y160000D02*
X870000Y130000D01*
X885000Y415000D02*
X915000Y385000D01*
X915000Y415000D02*
X885000Y385000D01*
X935000Y-5685000D02*
X965000Y-5715000D01*
X965000Y-5685000D02*
X935000Y-5715000D01*
X970000Y-104000D02*
X1000000Y-134000D01*
X1000000Y-104000D02*
X970000Y-134000D01*
X985000Y-6385000D02*
X1015000Y-6415000D01*
X1015000Y-6385000D02*
X985000Y-6415000D01*
X1002040Y-2429882D02*
X1032040Y-2459882D01*
X1032040Y-2429882D02*
X1002040Y-2459882D01*
X1030000Y-6215000D02*
X1060000Y-6245000D01*
X1060000Y-6215000D02*
X1030000Y-6245000D01*
X1047500Y-4370000D02*
X1077500Y-4400000D01*
X1077500Y-4370000D02*
X1047500Y-4400000D01*
X1050000Y-4527500D02*
X1080000Y-4557500D01*
X1080000Y-4527500D02*
X1050000Y-4557500D01*
X1056000Y-383000D02*
X1086000Y-413000D01*
X1086000Y-383000D02*
X1056000Y-413000D01*
X1076000Y-4995000D02*
X1106000Y-5025000D01*
X1106000Y-4995000D02*
X1076000Y-5025000D01*
X1105000Y-6150000D02*
X1135000Y-6180000D01*
X1135000Y-6150000D02*
X1105000Y-6180000D01*
X1125750Y198250D02*
X1155750Y168250D01*
X1155750Y198250D02*
X1125750Y168250D01*
X1135000Y-515000D02*
X1165000Y-545000D01*
X1165000Y-515000D02*
X1135000Y-545000D01*
X1185000Y415000D02*
X1215000Y385000D01*
X1215000Y415000D02*
X1185000Y385000D01*
X1204000Y-1612000D02*
X1234000Y-1642000D01*
X1234000Y-1612000D02*
X1204000Y-1642000D01*
X1205000Y-6150000D02*
X1235000Y-6180000D01*
X1235000Y-6150000D02*
X1205000Y-6180000D01*
X1210000Y-1074000D02*
X1240000Y-1104000D01*
X1240000Y-1074000D02*
X1210000Y-1104000D01*
X1280000Y-6215000D02*
X1310000Y-6245000D01*
X1310000Y-6215000D02*
X1280000Y-6245000D01*
X1285000Y-4035000D02*
X1315000Y-4065000D01*
X1315000Y-4035000D02*
X1285000Y-4065000D01*
X1285000Y-6385000D02*
X1315000Y-6415000D01*
X1315000Y-6385000D02*
X1285000Y-6415000D01*
X1287000Y-5049000D02*
X1317000Y-5079000D01*
X1317000Y-5049000D02*
X1287000Y-5079000D01*
X1335000Y-4185000D02*
X1365000Y-4215000D01*
X1365000Y-4185000D02*
X1335000Y-4215000D01*
X1337000Y-2712000D02*
X1367000Y-2742000D01*
X1367000Y-2712000D02*
X1337000Y-2742000D01*
X1349000Y-931000D02*
X1379000Y-961000D01*
X1379000Y-931000D02*
X1349000Y-961000D01*
X1394000Y-2495000D02*
X1424000Y-2525000D01*
X1424000Y-2495000D02*
X1394000Y-2525000D01*
X1442500Y-2705000D02*
X1472500Y-2735000D01*
X1472500Y-2705000D02*
X1442500Y-2735000D01*
X1464000Y-1347000D02*
X1494000Y-1377000D01*
X1494000Y-1347000D02*
X1464000Y-1377000D01*
X1485000Y415000D02*
X1515000Y385000D01*
X1515000Y415000D02*
X1485000Y385000D01*
X1485000Y-4535000D02*
X1515000Y-4565000D01*
X1515000Y-4535000D02*
X1485000Y-4565000D01*
X1485000Y-4610000D02*
X1515000Y-4640000D01*
X1515000Y-4610000D02*
X1485000Y-4640000D01*
X1497500Y-2757500D02*
X1527500Y-2787500D01*
X1527500Y-2757500D02*
X1497500Y-2787500D01*
X1511000Y-3397000D02*
X1541000Y-3427000D01*
X1541000Y-3397000D02*
X1511000Y-3427000D01*
X1525000Y-2987500D02*
X1555000Y-3017500D01*
X1555000Y-2987500D02*
X1525000Y-3017500D01*
X1525352Y-6175352D02*
X1555352Y-6205352D01*
X1555352Y-6175352D02*
X1525352Y-6205352D01*
X1535000Y-6085000D02*
X1565000Y-6115000D01*
X1565000Y-6085000D02*
X1535000Y-6115000D01*
X1539704Y-3818296D02*
X1569704Y-3848296D01*
X1569704Y-3818296D02*
X1539704Y-3848296D01*
X1560000Y-4535000D02*
X1590000Y-4565000D01*
X1590000Y-4535000D02*
X1560000Y-4565000D01*
X1560000Y-4610000D02*
X1590000Y-4640000D01*
X1590000Y-4610000D02*
X1560000Y-4640000D01*
X1567500Y-2705000D02*
X1597500Y-2735000D01*
X1597500Y-2705000D02*
X1567500Y-2735000D01*
X1585000Y-6385000D02*
X1615000Y-6415000D01*
X1615000Y-6385000D02*
X1585000Y-6415000D01*
X1610000Y-3604000D02*
X1640000Y-3634000D01*
X1640000Y-3604000D02*
X1610000Y-3634000D01*
X1620000Y-2872500D02*
X1650000Y-2902500D01*
X1650000Y-2872500D02*
X1620000Y-2902500D01*
X1635000Y-3835000D02*
X1665000Y-3865000D01*
X1665000Y-3835000D02*
X1635000Y-3865000D01*
X1694093Y98422D02*
X1724093Y68422D01*
X1724093Y98422D02*
X1694093Y68422D01*
X1699000Y-1462260D02*
X1729000Y-1492260D01*
X1729000Y-1462260D02*
X1699000Y-1492260D01*
X1702500Y-2992500D02*
X1732500Y-3022500D01*
X1732500Y-2992500D02*
X1702500Y-3022500D01*
X1707500Y-2820000D02*
X1737500Y-2850000D01*
X1737500Y-2820000D02*
X1707500Y-2850000D01*
X1714000Y-3819000D02*
X1744000Y-3849000D01*
X1744000Y-3819000D02*
X1714000Y-3849000D01*
X1785000Y415000D02*
X1815000Y385000D01*
X1815000Y415000D02*
X1785000Y385000D01*
X1785000Y-3285000D02*
X1815000Y-3315000D01*
X1815000Y-3285000D02*
X1785000Y-3315000D01*
X1785000Y-3362190D02*
X1815000Y-3392190D01*
X1815000Y-3362190D02*
X1785000Y-3392190D01*
X1789000Y-138000D02*
X1819000Y-168000D01*
X1819000Y-138000D02*
X1789000Y-168000D01*
X1790000Y-211000D02*
X1820000Y-241000D01*
X1820000Y-211000D02*
X1790000Y-241000D01*
X1835000Y-982500D02*
X1865000Y-1012500D01*
X1865000Y-982500D02*
X1835000Y-1012500D01*
X1885000Y-6385000D02*
X1915000Y-6415000D01*
X1915000Y-6385000D02*
X1885000Y-6415000D01*
X1902500Y-3980000D02*
X1932500Y-4010000D01*
X1932500Y-3980000D02*
X1902500Y-4010000D01*
X1907350Y2500D02*
X1937350Y-27500D01*
X1937350Y2500D02*
X1907350Y-27500D01*
X1935000Y-3735000D02*
X1965000Y-3765000D01*
X1965000Y-3735000D02*
X1935000Y-3765000D01*
X1954000Y-5855000D02*
X1984000Y-5885000D01*
X1984000Y-5855000D02*
X1954000Y-5885000D01*
X2035000Y-3735000D02*
X2065000Y-3765000D01*
X2065000Y-3735000D02*
X2035000Y-3765000D01*
X2038000Y-4457000D02*
X2068000Y-4487000D01*
X2068000Y-4457000D02*
X2038000Y-4487000D01*
X2085000Y415000D02*
X2115000Y385000D01*
X2115000Y415000D02*
X2085000Y385000D01*
X2085000Y-4535000D02*
X2115000Y-4565000D01*
X2115000Y-4535000D02*
X2085000Y-4565000D01*
X2101000Y-5775000D02*
X2131000Y-5805000D01*
X2131000Y-5775000D02*
X2101000Y-5805000D01*
X2125000Y-4725000D02*
X2155000Y-4755000D01*
X2155000Y-4725000D02*
X2125000Y-4755000D01*
X2129000Y-4618000D02*
X2159000Y-4648000D01*
X2159000Y-4618000D02*
X2129000Y-4648000D01*
X2185000Y-6385000D02*
X2215000Y-6415000D01*
X2215000Y-6385000D02*
X2185000Y-6415000D01*
X2205000Y-4785000D02*
X2235000Y-4815000D01*
X2235000Y-4785000D02*
X2205000Y-4815000D01*
X2220000Y-2160000D02*
X2250000Y-2190000D01*
X2250000Y-2160000D02*
X2220000Y-2190000D01*
X2221000Y-2069000D02*
X2251000Y-2099000D01*
X2251000Y-2069000D02*
X2221000Y-2099000D01*
X2285000Y-4485000D02*
X2315000Y-4515000D01*
X2315000Y-4485000D02*
X2285000Y-4515000D01*
X2285000Y-4585000D02*
X2315000Y-4615000D01*
X2315000Y-4585000D02*
X2285000Y-4615000D01*
X2297000Y-5769000D02*
X2327000Y-5799000D01*
X2327000Y-5769000D02*
X2297000Y-5799000D01*
X2385000Y415000D02*
X2415000Y385000D01*
X2415000Y415000D02*
X2385000Y385000D01*
X2403000Y-3471500D02*
X2433000Y-3501500D01*
X2433000Y-3471500D02*
X2403000Y-3501500D01*
X2403000Y-3556500D02*
X2433000Y-3586500D01*
X2433000Y-3556500D02*
X2403000Y-3586500D01*
X2410000Y-3385000D02*
X2440000Y-3415000D01*
X2440000Y-3385000D02*
X2410000Y-3415000D01*
X2410000Y-3635000D02*
X2440000Y-3665000D01*
X2440000Y-3635000D02*
X2410000Y-3665000D01*
X2425416Y-5907810D02*
X2455416Y-5937810D01*
X2455416Y-5907810D02*
X2425416Y-5937810D01*
X2429000Y-5423000D02*
X2459000Y-5453000D01*
X2459000Y-5423000D02*
X2429000Y-5453000D01*
X2434177Y-5777614D02*
X2464177Y-5807614D01*
X2464177Y-5777614D02*
X2434177Y-5807614D01*
X2443000Y-5300000D02*
X2473000Y-5330000D01*
X2473000Y-5300000D02*
X2443000Y-5330000D01*
X2485000Y-6385000D02*
X2515000Y-6415000D01*
X2515000Y-6385000D02*
X2485000Y-6415000D01*
X2494000Y-2319000D02*
X2524000Y-2349000D01*
X2524000Y-2319000D02*
X2494000Y-2349000D01*
X2505000Y-4385000D02*
X2535000Y-4415000D01*
X2535000Y-4385000D02*
X2505000Y-4415000D01*
X2559000Y-5523467D02*
X2589000Y-5553467D01*
X2589000Y-5523467D02*
X2559000Y-5553467D01*
X2560000Y-5759373D02*
X2590000Y-5789373D01*
X2590000Y-5759373D02*
X2560000Y-5789373D01*
X2574869Y-5902810D02*
X2604869Y-5932810D01*
X2604869Y-5902810D02*
X2574869Y-5932810D01*
X2575000Y-2312000D02*
X2605000Y-2342000D01*
X2605000Y-2312000D02*
X2575000Y-2342000D01*
X2585000Y-3035000D02*
X2615000Y-3065000D01*
X2615000Y-3035000D02*
X2585000Y-3065000D01*
X2585000Y-3335000D02*
X2615000Y-3365000D01*
X2615000Y-3335000D02*
X2585000Y-3365000D01*
X2585000Y-3635000D02*
X2615000Y-3665000D01*
X2615000Y-3635000D02*
X2585000Y-3665000D01*
X2585000Y-3935000D02*
X2615000Y-3965000D01*
X2615000Y-3935000D02*
X2585000Y-3965000D01*
X2585000Y-4235000D02*
X2615000Y-4265000D01*
X2615000Y-4235000D02*
X2585000Y-4265000D01*
X2585000Y-4535000D02*
X2615000Y-4565000D01*
X2615000Y-4535000D02*
X2585000Y-4565000D01*
X2585000Y-4835000D02*
X2615000Y-4865000D01*
X2615000Y-4835000D02*
X2585000Y-4865000D01*
X2613000Y-5324000D02*
X2643000Y-5354000D01*
X2643000Y-5324000D02*
X2613000Y-5354000D01*
X2684000Y-5428000D02*
X2714000Y-5458000D01*
X2714000Y-5428000D02*
X2684000Y-5458000D01*
X2685000Y415000D02*
X2715000Y385000D01*
X2715000Y415000D02*
X2685000Y385000D01*
X2700000Y-5894000D02*
X2730000Y-5924000D01*
X2730000Y-5894000D02*
X2700000Y-5924000D01*
X2769000Y-5331000D02*
X2799000Y-5361000D01*
X2799000Y-5331000D02*
X2769000Y-5361000D01*
X2785000Y-6385000D02*
X2815000Y-6415000D01*
X2815000Y-6385000D02*
X2785000Y-6415000D01*
X2819000Y-5528350D02*
X2849000Y-5558350D01*
X2849000Y-5528350D02*
X2819000Y-5558350D01*
X2852000Y-6055700D02*
X2882000Y-6085700D01*
X2882000Y-6055700D02*
X2852000Y-6085700D01*
X2908000Y-5516000D02*
X2938000Y-5546000D01*
X2938000Y-5516000D02*
X2908000Y-5546000D01*
X2911000Y-5784000D02*
X2941000Y-5814000D01*
X2941000Y-5784000D02*
X2911000Y-5814000D01*
X2935000Y-5435000D02*
X2965000Y-5465000D01*
X2965000Y-5435000D02*
X2935000Y-5465000D01*
X2985000Y415000D02*
X3015000Y385000D01*
X3015000Y415000D02*
X2985000Y385000D01*
X3010000Y-5535000D02*
X3040000Y-5565000D01*
X3040000Y-5535000D02*
X3010000Y-5565000D01*
X3060000Y-5360000D02*
X3090000Y-5390000D01*
X3090000Y-5360000D02*
X3060000Y-5390000D01*
X3071000Y-5806000D02*
X3101000Y-5836000D01*
X3101000Y-5806000D02*
X3071000Y-5836000D01*
X3085000Y-6385000D02*
X3115000Y-6415000D01*
X3115000Y-6385000D02*
X3085000Y-6415000D01*
X3113000Y-2542000D02*
X3143000Y-2572000D01*
X3143000Y-2542000D02*
X3113000Y-2572000D01*
X3114000Y-2445000D02*
X3144000Y-2475000D01*
X3144000Y-2445000D02*
X3114000Y-2475000D01*
X3160000Y-5410000D02*
X3190000Y-5440000D01*
X3190000Y-5410000D02*
X3160000Y-5440000D01*
X3160000Y-5535000D02*
X3190000Y-5565000D01*
X3190000Y-5535000D02*
X3160000Y-5565000D01*
X3285000Y415000D02*
X3315000Y385000D01*
X3315000Y415000D02*
X3285000Y385000D01*
X3303000Y-723000D02*
X3333000Y-753000D01*
X3333000Y-723000D02*
X3303000Y-753000D01*
X3310000Y-5335000D02*
X3340000Y-5365000D01*
X3340000Y-5335000D02*
X3310000Y-5365000D01*
X3310000Y-5412350D02*
X3340000Y-5442350D01*
X3340000Y-5412350D02*
X3310000Y-5442350D01*
X3310000Y-5535000D02*
X3340000Y-5565000D01*
X3340000Y-5535000D02*
X3310000Y-5565000D01*
X3311000Y-5805000D02*
X3341000Y-5835000D01*
X3341000Y-5805000D02*
X3311000Y-5835000D01*
X3380000Y-730000D02*
X3410000Y-760000D01*
X3410000Y-730000D02*
X3380000Y-760000D01*
X3384769Y-3335213D02*
X3414769Y-3365213D01*
X3414769Y-3335213D02*
X3384769Y-3365213D01*
X3385000Y-3635000D02*
X3415000Y-3665000D01*
X3415000Y-3635000D02*
X3385000Y-3665000D01*
X3385000Y-3935000D02*
X3415000Y-3965000D01*
X3415000Y-3935000D02*
X3385000Y-3965000D01*
X3385000Y-4235000D02*
X3415000Y-4265000D01*
X3415000Y-4235000D02*
X3385000Y-4265000D01*
X3385000Y-4535000D02*
X3415000Y-4565000D01*
X3415000Y-4535000D02*
X3385000Y-4565000D01*
X3385000Y-4835000D02*
X3415000Y-4865000D01*
X3415000Y-4835000D02*
X3385000Y-4865000D01*
X3385000Y-6385000D02*
X3415000Y-6415000D01*
X3415000Y-6385000D02*
X3385000Y-6415000D01*
X3399000Y-5805000D02*
X3429000Y-5835000D01*
X3429000Y-5805000D02*
X3399000Y-5835000D01*
X3428000Y-4918000D02*
X3458000Y-4948000D01*
X3458000Y-4918000D02*
X3428000Y-4948000D01*
X3445000Y-4425000D02*
X3475000Y-4455000D01*
X3475000Y-4425000D02*
X3445000Y-4455000D01*
X3457000Y-721000D02*
X3487000Y-751000D01*
X3487000Y-721000D02*
X3457000Y-751000D01*
X3458000Y-794000D02*
X3488000Y-824000D01*
X3488000Y-794000D02*
X3458000Y-824000D01*
X3465000Y-4725000D02*
X3495000Y-4755000D01*
X3495000Y-4725000D02*
X3465000Y-4755000D01*
X3468898Y-3197102D02*
X3498898Y-3227102D01*
X3498898Y-3197102D02*
X3468898Y-3227102D01*
X3510000Y-5805000D02*
X3540000Y-5835000D01*
X3540000Y-5805000D02*
X3510000Y-5835000D01*
X3513000Y-3313000D02*
X3543000Y-3343000D01*
X3543000Y-3313000D02*
X3513000Y-3343000D01*
X3535861Y-5435861D02*
X3565861Y-5465861D01*
X3565861Y-5435861D02*
X3535861Y-5465861D01*
X3540000Y-4993000D02*
X3570000Y-5023000D01*
X3570000Y-4993000D02*
X3540000Y-5023000D01*
X3585000Y415000D02*
X3615000Y385000D01*
X3615000Y415000D02*
X3585000Y385000D01*
X3585000Y-5805000D02*
X3615000Y-5835000D01*
X3615000Y-5805000D02*
X3585000Y-5835000D01*
X3610000Y-5435000D02*
X3640000Y-5465000D01*
X3640000Y-5435000D02*
X3610000Y-5465000D01*
X3635000Y-5610000D02*
X3665000Y-5640000D01*
X3665000Y-5610000D02*
X3635000Y-5640000D01*
X3635000Y-5685000D02*
X3665000Y-5715000D01*
X3665000Y-5685000D02*
X3635000Y-5715000D01*
X3640350Y-3195000D02*
X3670350Y-3225000D01*
X3670350Y-3195000D02*
X3640350Y-3225000D01*
X3685000Y-6385000D02*
X3715000Y-6415000D01*
X3715000Y-6385000D02*
X3685000Y-6415000D01*
X3689000Y-3871000D02*
X3719000Y-3901000D01*
X3719000Y-3871000D02*
X3689000Y-3901000D01*
X3728000Y-4002000D02*
X3758000Y-4032000D01*
X3758000Y-4002000D02*
X3728000Y-4032000D01*
X3777000Y-4692000D02*
X3807000Y-4722000D01*
X3807000Y-4692000D02*
X3777000Y-4722000D01*
X3780650Y-3202895D02*
X3810650Y-3232895D01*
X3810650Y-3202895D02*
X3780650Y-3232895D01*
X3885000Y415000D02*
X3915000Y385000D01*
X3915000Y415000D02*
X3885000Y385000D01*
X3933000Y-2149000D02*
X3963000Y-2179000D01*
X3963000Y-2149000D02*
X3933000Y-2179000D01*
X3959000Y-3021000D02*
X3989000Y-3051000D01*
X3989000Y-3021000D02*
X3959000Y-3051000D01*
X3985000Y-6385000D02*
X4015000Y-6415000D01*
X4015000Y-6385000D02*
X3985000Y-6415000D01*
X4018000Y-2466650D02*
X4048000Y-2496650D01*
X4048000Y-2466650D02*
X4018000Y-2496650D01*
X4020000Y-2894000D02*
X4050000Y-2924000D01*
X4050000Y-2894000D02*
X4020000Y-2924000D01*
X4028352Y-2183648D02*
X4058352Y-2213648D01*
X4058352Y-2183648D02*
X4028352Y-2213648D01*
X4035000Y-3185000D02*
X4065000Y-3215000D01*
X4065000Y-3185000D02*
X4035000Y-3215000D01*
X4040000Y-3494000D02*
X4070000Y-3524000D01*
X4070000Y-3494000D02*
X4040000Y-3524000D01*
X4043000Y-3665000D02*
X4073000Y-3695000D01*
X4073000Y-3665000D02*
X4043000Y-3695000D01*
X4080000Y-3021000D02*
X4110000Y-3051000D01*
X4110000Y-3021000D02*
X4080000Y-3051000D01*
X4104000Y-3361350D02*
X4134000Y-3391350D01*
X4134000Y-3361350D02*
X4104000Y-3391350D01*
X4108030Y-4196266D02*
X4138030Y-4226266D01*
X4138030Y-4196266D02*
X4108030Y-4226266D01*
X4139000Y-2749000D02*
X4169000Y-2779000D01*
X4169000Y-2749000D02*
X4139000Y-2779000D01*
X4155000Y-4669000D02*
X4185000Y-4699000D01*
X4185000Y-4669000D02*
X4155000Y-4699000D01*
X4161000Y-4749000D02*
X4191000Y-4779000D01*
X4191000Y-4749000D02*
X4161000Y-4779000D01*
X4167000Y-3984000D02*
X4197000Y-4014000D01*
X4197000Y-3984000D02*
X4167000Y-4014000D01*
X4184000Y-5421000D02*
X4214000Y-5451000D01*
X4214000Y-5421000D02*
X4184000Y-5451000D01*
X4185000Y415000D02*
X4215000Y385000D01*
X4215000Y415000D02*
X4185000Y385000D01*
X4199000Y-1998000D02*
X4229000Y-2028000D01*
X4229000Y-1998000D02*
X4199000Y-2028000D01*
X4201774Y-4183000D02*
X4231774Y-4213000D01*
X4231774Y-4183000D02*
X4201774Y-4213000D01*
X4226148Y-5993148D02*
X4256148Y-6023148D01*
X4256148Y-5993148D02*
X4226148Y-6023148D01*
X4285000Y-6385000D02*
X4315000Y-6415000D01*
X4315000Y-6385000D02*
X4285000Y-6415000D01*
X4307350Y-2151000D02*
X4337350Y-2181000D01*
X4337350Y-2151000D02*
X4307350Y-2181000D01*
X4319393Y-3903510D02*
X4349393Y-3933510D01*
X4349393Y-3903510D02*
X4319393Y-3933510D01*
X4319863Y-4659381D02*
X4349863Y-4689381D01*
X4349863Y-4659381D02*
X4319863Y-4689381D01*
X4330000Y-4478000D02*
X4360000Y-4508000D01*
X4360000Y-4478000D02*
X4330000Y-4508000D01*
X4392000Y-3901000D02*
X4422000Y-3931000D01*
X4422000Y-3901000D02*
X4392000Y-3931000D01*
X4402500Y-6037500D02*
X4432500Y-6067500D01*
X4432500Y-6037500D02*
X4402500Y-6067500D01*
X4415000Y-4544000D02*
X4445000Y-4574000D01*
X4445000Y-4544000D02*
X4415000Y-4574000D01*
X4417500Y-5867500D02*
X4447500Y-5897500D01*
X4447500Y-5867500D02*
X4417500Y-5897500D01*
X4431500Y-4732000D02*
X4461500Y-4762000D01*
X4461500Y-4732000D02*
X4431500Y-4762000D01*
X4468000Y-4418000D02*
X4498000Y-4448000D01*
X4498000Y-4418000D02*
X4468000Y-4448000D01*
X4481852Y-4320148D02*
X4511852Y-4350148D01*
X4511852Y-4320148D02*
X4481852Y-4350148D01*
X4482000Y-5421000D02*
X4512000Y-5451000D01*
X4512000Y-5421000D02*
X4482000Y-5451000D01*
X4485000Y415000D02*
X4515000Y385000D01*
X4515000Y415000D02*
X4485000Y385000D01*
X4494650Y-839000D02*
X4524650Y-869000D01*
X4524650Y-839000D02*
X4494650Y-869000D01*
X4515150Y-1608000D02*
X4545150Y-1638000D01*
X4545150Y-1608000D02*
X4515150Y-1638000D01*
X4515150Y-1695000D02*
X4545150Y-1725000D01*
X4545150Y-1695000D02*
X4515150Y-1725000D01*
X4537500Y-4510000D02*
X4567500Y-4540000D01*
X4567500Y-4510000D02*
X4537500Y-4540000D01*
X4546000Y-596000D02*
X4576000Y-626000D01*
X4576000Y-596000D02*
X4546000Y-626000D01*
X4560000Y-3830000D02*
X4590000Y-3860000D01*
X4590000Y-3830000D02*
X4560000Y-3860000D01*
X4585000Y-6385000D02*
X4615000Y-6415000D01*
X4615000Y-6385000D02*
X4585000Y-6415000D01*
X4620000Y-3917500D02*
X4650000Y-3947500D01*
X4650000Y-3917500D02*
X4620000Y-3947500D01*
X4635000Y-6133500D02*
X4665000Y-6163500D01*
X4665000Y-6133500D02*
X4635000Y-6163500D01*
X4670000Y-5717500D02*
X4700000Y-5747500D01*
X4700000Y-5717500D02*
X4670000Y-5747500D01*
X4692500Y-5950000D02*
X4722500Y-5980000D01*
X4722500Y-5950000D02*
X4692500Y-5980000D01*
X4725000Y-186000D02*
X4755000Y-216000D01*
X4755000Y-186000D02*
X4725000Y-216000D01*
X4731000Y-3030000D02*
X4761000Y-3060000D01*
X4761000Y-3030000D02*
X4731000Y-3060000D01*
X4735000Y-6133500D02*
X4765000Y-6163500D01*
X4765000Y-6133500D02*
X4735000Y-6163500D01*
X4762500Y-5920000D02*
X4792500Y-5950000D01*
X4792500Y-5920000D02*
X4762500Y-5950000D01*
X4785000Y415000D02*
X4815000Y385000D01*
X4815000Y415000D02*
X4785000Y385000D01*
X4809000Y-2961000D02*
X4839000Y-2991000D01*
X4839000Y-2961000D02*
X4809000Y-2991000D01*
X4838000Y-212000D02*
X4868000Y-242000D01*
X4868000Y-212000D02*
X4838000Y-242000D01*
X4870350Y-2831376D02*
X4900350Y-2861376D01*
X4900350Y-2831376D02*
X4870350Y-2861376D01*
X4885000Y-6385000D02*
X4915000Y-6415000D01*
X4915000Y-6385000D02*
X4885000Y-6415000D01*
X4905000Y156000D02*
X4935000Y126000D01*
X4935000Y156000D02*
X4905000Y126000D01*
X4939000Y-2000D02*
X4969000Y-32000D01*
X4969000Y-2000D02*
X4939000Y-32000D01*
X4971000Y155000D02*
X5001000Y125000D01*
X5001000Y155000D02*
X4971000Y125000D01*
X4990000Y-222000D02*
X5020000Y-252000D01*
X5020000Y-222000D02*
X4990000Y-252000D01*
X5016000Y-19000D02*
X5046000Y-49000D01*
X5046000Y-19000D02*
X5016000Y-49000D01*
X5042500Y-5767500D02*
X5072500Y-5797500D01*
X5072500Y-5767500D02*
X5042500Y-5797500D01*
X5045000Y-5665000D02*
X5075000Y-5695000D01*
X5075000Y-5665000D02*
X5045000Y-5695000D01*
X5085000Y415000D02*
X5115000Y385000D01*
X5115000Y415000D02*
X5085000Y385000D01*
X5112000Y-222000D02*
X5142000Y-252000D01*
X5142000Y-222000D02*
X5112000Y-252000D01*
X5170850Y-3335000D02*
X5200850Y-3365000D01*
X5200850Y-3335000D02*
X5170850Y-3365000D01*
X5171000Y-3511000D02*
X5201000Y-3541000D01*
X5201000Y-3511000D02*
X5171000Y-3541000D01*
X5185000Y-6147000D02*
X5215000Y-6177000D01*
X5215000Y-6147000D02*
X5185000Y-6177000D01*
X5185000Y-6385000D02*
X5215000Y-6415000D01*
X5215000Y-6385000D02*
X5185000Y-6415000D01*
X5243500Y-3335000D02*
X5273500Y-3365000D01*
X5273500Y-3335000D02*
X5243500Y-3365000D01*
X5278000Y-6153000D02*
X5308000Y-6183000D01*
X5308000Y-6153000D02*
X5278000Y-6183000D01*
X5329649Y-3424503D02*
X5359649Y-3454503D01*
X5359649Y-3424503D02*
X5329649Y-3454503D01*
X5372350Y-3503499D02*
X5402350Y-3533499D01*
X5402350Y-3503499D02*
X5372350Y-3533499D01*
X5385000Y415000D02*
X5415000Y385000D01*
X5415000Y415000D02*
X5385000Y385000D01*
X5420000Y-5864073D02*
X5450000Y-5894073D01*
X5450000Y-5864073D02*
X5420000Y-5894073D01*
X5433000Y-4926000D02*
X5463000Y-4956000D01*
X5463000Y-4926000D02*
X5433000Y-4956000D01*
X5444824Y-3569618D02*
X5474824Y-3599618D01*
X5474824Y-3569618D02*
X5444824Y-3599618D01*
X5462500Y-3430000D02*
X5492500Y-3460000D01*
X5492500Y-3430000D02*
X5462500Y-3460000D01*
X5485000Y-6385000D02*
X5515000Y-6415000D01*
X5515000Y-6385000D02*
X5485000Y-6415000D01*
X5522000Y-5327000D02*
X5552000Y-5357000D01*
X5552000Y-5327000D02*
X5522000Y-5357000D01*
X5535000Y-4685000D02*
X5565000Y-4715000D01*
X5565000Y-4685000D02*
X5535000Y-4715000D01*
X5546000Y-3050000D02*
X5576000Y-3080000D01*
X5576000Y-3050000D02*
X5546000Y-3080000D01*
X5589829Y-5046726D02*
X5619829Y-5076726D01*
X5619829Y-5046726D02*
X5589829Y-5076726D01*
X5607000Y-5218000D02*
X5637000Y-5248000D01*
X5637000Y-5218000D02*
X5607000Y-5248000D01*
X5630000Y-3050000D02*
X5660000Y-3080000D01*
X5660000Y-3050000D02*
X5630000Y-3080000D01*
X5635000Y-3354000D02*
X5665000Y-3384000D01*
X5665000Y-3354000D02*
X5635000Y-3384000D01*
X5638000Y-4809000D02*
X5668000Y-4839000D01*
X5668000Y-4809000D02*
X5638000Y-4839000D01*
X5656000Y-2974000D02*
X5686000Y-3004000D01*
X5686000Y-2974000D02*
X5656000Y-3004000D01*
X5683000Y-4747000D02*
X5713000Y-4777000D01*
X5713000Y-4747000D02*
X5683000Y-4777000D01*
X5685000Y415000D02*
X5715000Y385000D01*
X5715000Y415000D02*
X5685000Y385000D01*
X5695000Y-5600000D02*
X5725000Y-5630000D01*
X5725000Y-5600000D02*
X5695000Y-5630000D01*
X5730000Y-4808000D02*
X5760000Y-4838000D01*
X5760000Y-4808000D02*
X5730000Y-4838000D01*
X5785000Y-6385000D02*
X5815000Y-6415000D01*
X5815000Y-6385000D02*
X5785000Y-6415000D01*
X5793000Y-5230000D02*
X5823000Y-5260000D01*
X5823000Y-5230000D02*
X5793000Y-5260000D01*
X5795000Y-1225000D02*
X5825000Y-1255000D01*
X5825000Y-1225000D02*
X5795000Y-1255000D01*
X5799000Y-582000D02*
X5829000Y-612000D01*
X5829000Y-582000D02*
X5799000Y-612000D01*
X5889000Y-2010000D02*
X5919000Y-2040000D01*
X5919000Y-2010000D02*
X5889000Y-2040000D01*
X5902000Y-5312000D02*
X5932000Y-5342000D01*
X5932000Y-5312000D02*
X5902000Y-5342000D01*
X5933750Y-5485750D02*
X5963750Y-5515750D01*
X5963750Y-5485750D02*
X5933750Y-5515750D01*
X5948000Y-2805000D02*
X5978000Y-2835000D01*
X5978000Y-2805000D02*
X5948000Y-2835000D01*
X5985000Y415000D02*
X6015000Y385000D01*
X6015000Y415000D02*
X5985000Y385000D01*
X6035000Y-585000D02*
X6065000Y-615000D01*
X6065000Y-585000D02*
X6035000Y-615000D01*
X6035000Y-685000D02*
X6065000Y-715000D01*
X6065000Y-685000D02*
X6035000Y-715000D01*
X6035000Y-1335000D02*
X6065000Y-1365000D01*
X6065000Y-1335000D02*
X6035000Y-1365000D01*
X6035000Y-1435000D02*
X6065000Y-1465000D01*
X6065000Y-1435000D02*
X6035000Y-1465000D01*
X6085000Y-6385000D02*
X6115000Y-6415000D01*
X6115000Y-6385000D02*
X6085000Y-6415000D01*
X6235000Y265000D02*
X6265000Y235000D01*
X6265000Y265000D02*
X6235000Y235000D01*
X6285000Y-6185000D02*
X6315000Y-6215000D01*
X6315000Y-6185000D02*
X6285000Y-6215000D01*
X6385000Y15000D02*
X6415000Y-15000D01*
X6415000Y15000D02*
X6385000Y-15000D01*
X6385000Y-285000D02*
X6415000Y-315000D01*
X6415000Y-285000D02*
X6385000Y-315000D01*
X6385000Y-585000D02*
X6415000Y-615000D01*
X6415000Y-585000D02*
X6385000Y-615000D01*
X6385000Y-885000D02*
X6415000Y-915000D01*
X6415000Y-885000D02*
X6385000Y-915000D01*
X6385000Y-1185000D02*
X6415000Y-1215000D01*
X6415000Y-1185000D02*
X6385000Y-1215000D01*
X6385000Y-1485000D02*
X6415000Y-1515000D01*
X6415000Y-1485000D02*
X6385000Y-1515000D01*
X6385000Y-1785000D02*
X6415000Y-1815000D01*
X6415000Y-1785000D02*
X6385000Y-1815000D01*
X6385000Y-2085000D02*
X6415000Y-2115000D01*
X6415000Y-2085000D02*
X6385000Y-2115000D01*
X6385000Y-2385000D02*
X6415000Y-2415000D01*
X6415000Y-2385000D02*
X6385000Y-2415000D01*
X6385000Y-2685000D02*
X6415000Y-2715000D01*
X6415000Y-2685000D02*
X6385000Y-2715000D01*
X6385000Y-2985000D02*
X6415000Y-3015000D01*
X6415000Y-2985000D02*
X6385000Y-3015000D01*
X6385000Y-5085000D02*
X6415000Y-5115000D01*
X6415000Y-5085000D02*
X6385000Y-5115000D01*
X6385000Y-5385000D02*
X6415000Y-5415000D01*
X6415000Y-5385000D02*
X6385000Y-5415000D01*
X6385000Y-5685000D02*
X6415000Y-5715000D01*
X6415000Y-5685000D02*
X6385000Y-5715000D01*
X6385000Y-5985000D02*
X6415000Y-6015000D01*
X6415000Y-5985000D02*
X6385000Y-6015000D01*
X4801000Y-4153000D02*
G75*
G03*
X4801000Y-4153000I-15000J0D01*
G01*
X4801000Y-4293000D02*
G75*
G03*
X4801000Y-4293000I-15000J0D01*
G01*
X4871000Y-4083000D02*
G75*
G03*
X4871000Y-4083000I-15000J0D01*
G01*
X4871000Y-4223000D02*
G75*
G03*
X4871000Y-4223000I-15000J0D01*
G01*
X4871000Y-4363000D02*
G75*
G03*
X4871000Y-4363000I-15000J0D01*
G01*
X4941000Y-4153000D02*
G75*
G03*
X4941000Y-4153000I-15000J0D01*
G01*
X4941000Y-4293000D02*
G75*
G03*
X4941000Y-4293000I-15000J0D01*
G01*
X5011000Y-4083000D02*
G75*
G03*
X5011000Y-4083000I-15000J0D01*
G01*
X5011000Y-4223000D02*
G75*
G03*
X5011000Y-4223000I-15000J0D01*
G01*
X5011000Y-4363000D02*
G75*
G03*
X5011000Y-4363000I-15000J0D01*
G01*
X5081000Y-4153000D02*
G75*
G03*
X5081000Y-4153000I-15000J0D01*
G01*
X5081000Y-4293000D02*
G75*
G03*
X5081000Y-4293000I-15000J0D01*
G01*
D13*
X-355000Y-3100000D02*
X-355000Y-3150000D01*
X-380000Y-3125000D02*
X-330000Y-3125000D01*
D11*
X-322500Y-3100000D02*
X-387500Y-3100000D01*
X-322500Y-3150000D02*
X-387500Y-3150000D01*
X-387500Y-3100000D02*
G75*
G03*
X-387500Y-3150000I0J-25000D01*
G01*
X-322500Y-3150000D02*
G75*
G03*
X-322500Y-3100000I0J25000D01*
G01*
D13*
X-355000Y-3800000D02*
X-355000Y-3850000D01*
X-380000Y-3825000D02*
X-330000Y-3825000D01*
D11*
X-322500Y-3800000D02*
X-387500Y-3800000D01*
X-322500Y-3850000D02*
X-387500Y-3850000D01*
X-387500Y-3800000D02*
G75*
G03*
X-387500Y-3850000I0J-25000D01*
G01*
X-322500Y-3850000D02*
G75*
G03*
X-322500Y-3800000I0J25000D01*
G01*
D13*
X1037500Y-2925000D02*
X1037500Y-2975000D01*
X1012500Y-2950000D02*
X1062500Y-2950000D01*
X1162500Y-2925000D02*
X1162500Y-2975000D01*
X1137500Y-2950000D02*
X1187500Y-2950000D01*
D14*
X-65554Y-3244446D02*
X-65554Y-3205554D01*
X-104446Y-3205554D01*
X-104446Y-3244446D01*
X-65554Y-3244446D01*
D11*
X-112500Y-3210000D02*
X-112500Y-3240000D01*
X-57500Y-3210000D02*
X-57500Y-3240000D01*
X-112500Y-3240000D02*
G75*
G03*
X-57500Y-3240000I27500J0D01*
G01*
X-57500Y-3210000D02*
G75*
G03*
X-112500Y-3210000I-27500J0D01*
G01*
D14*
X-65554Y-3744446D02*
X-65554Y-3705554D01*
X-104446Y-3705554D01*
X-104446Y-3744446D01*
X-65554Y-3744446D01*
D11*
X-112500Y-3710000D02*
X-112500Y-3740000D01*
X-57500Y-3710000D02*
X-57500Y-3740000D01*
X-112500Y-3740000D02*
G75*
G03*
X-57500Y-3740000I27500J0D01*
G01*
X-57500Y-3710000D02*
G75*
G03*
X-112500Y-3710000I-27500J0D01*
G01*
D15*
X945000Y-4737500D02*
X982500Y-4700000D01*
X945000Y-4662500D01*
X907500Y-4700000D01*
X945000Y-4737500D01*
X945000Y-4937500D02*
X982500Y-4900000D01*
X945000Y-4862500D01*
X907500Y-4900000D01*
X945000Y-4937500D01*
D16*
X191900Y-750400D02*
X268100Y-826600D01*
X268100Y-750400D02*
X191900Y-826600D01*
X268100Y-788500D02*
G75*
G03*
X268100Y-788500I-38100J0D01*
G01*
X191900Y-973400D02*
X268100Y-1049600D01*
X268100Y-973400D02*
X191900Y-1049600D01*
X268100Y-1011500D02*
G75*
G03*
X268100Y-1011500I-38100J0D01*
G01*
X349585Y-592715D02*
X425785Y-668915D01*
X425785Y-592715D02*
X349585Y-668915D01*
X425785Y-630815D02*
G75*
G03*
X425785Y-630815I-38100J0D01*
G01*
X574215Y-1131085D02*
X650415Y-1207285D01*
X650415Y-1131085D02*
X574215Y-1207285D01*
X650415Y-1169185D02*
G75*
G03*
X650415Y-1169185I-38100J0D01*
G01*
X731900Y-750400D02*
X808100Y-826600D01*
X808100Y-750400D02*
X731900Y-826600D01*
X808100Y-788500D02*
G75*
G03*
X808100Y-788500I-38100J0D01*
G01*
X731900Y-973400D02*
X808100Y-1049600D01*
X808100Y-973400D02*
X731900Y-1049600D01*
X808100Y-1011500D02*
G75*
G03*
X808100Y-1011500I-38100J0D01*
G01*
D17*
X-101500Y-1961500D02*
X-21500Y-2041500D01*
X-21500Y-1961500D02*
X-101500Y-2041500D01*
X-61500Y-1961500D02*
X-61500Y-2041500D01*
X-101500Y-2001500D02*
X-21500Y-2001500D01*
X152500Y-1707500D02*
X232500Y-1787500D01*
X232500Y-1707500D02*
X152500Y-1787500D01*
X192500Y-1707500D02*
X192500Y-1787500D01*
X152500Y-1747500D02*
X232500Y-1747500D01*
X152500Y-2215500D02*
X232500Y-2295500D01*
X232500Y-2215500D02*
X152500Y-2295500D01*
X192500Y-2215500D02*
X192500Y-2295500D01*
X152500Y-2255500D02*
X232500Y-2255500D01*
X698500Y-1961500D02*
X778500Y-2041500D01*
X778500Y-1961500D02*
X698500Y-2041500D01*
X738500Y-1961500D02*
X738500Y-2041500D01*
X698500Y-2001500D02*
X778500Y-2001500D01*
X952500Y-1707500D02*
X1032500Y-1787500D01*
X1032500Y-1707500D02*
X952500Y-1787500D01*
X992500Y-1707500D02*
X992500Y-1787500D01*
X952500Y-1747500D02*
X1032500Y-1747500D01*
X952500Y-2215500D02*
X1032500Y-2295500D01*
X1032500Y-2215500D02*
X952500Y-2295500D01*
X992500Y-2215500D02*
X992500Y-2295500D01*
X952500Y-2255500D02*
X1032500Y-2255500D01*
D10*
X5122500Y-507500D02*
X5222500Y-607500D01*
X5222500Y-507500D02*
X5122500Y-607500D01*
X5207856Y-592856D02*
X5207856Y-522144D01*
X5137144Y-522144D01*
X5137144Y-592856D01*
X5207856Y-592856D01*
X5122500Y-761500D02*
X5222500Y-861500D01*
X5222500Y-761500D02*
X5122500Y-861500D01*
X5207856Y-846856D02*
X5207856Y-776144D01*
X5137144Y-776144D01*
X5137144Y-846856D01*
X5207856Y-846856D01*
X5122500Y-1015500D02*
X5222500Y-1115500D01*
X5222500Y-1015500D02*
X5122500Y-1115500D01*
X5207856Y-1100856D02*
X5207856Y-1030144D01*
X5137144Y-1030144D01*
X5137144Y-1100856D01*
X5207856Y-1100856D01*
X5122500Y-1269500D02*
X5222500Y-1369500D01*
X5222500Y-1269500D02*
X5122500Y-1369500D01*
X5207856Y-1354856D02*
X5207856Y-1284144D01*
X5137144Y-1284144D01*
X5137144Y-1354856D01*
X5207856Y-1354856D01*
X5122500Y-1523500D02*
X5222500Y-1623500D01*
X5222500Y-1523500D02*
X5122500Y-1623500D01*
X5207856Y-1608856D02*
X5207856Y-1538144D01*
X5137144Y-1538144D01*
X5137144Y-1608856D01*
X5207856Y-1608856D01*
X5122500Y-1777500D02*
X5222500Y-1877500D01*
X5222500Y-1777500D02*
X5122500Y-1877500D01*
X5207856Y-1862856D02*
X5207856Y-1792144D01*
X5137144Y-1792144D01*
X5137144Y-1862856D01*
X5207856Y-1862856D01*
X5122500Y-2031500D02*
X5222500Y-2131500D01*
X5222500Y-2031500D02*
X5122500Y-2131500D01*
X5207856Y-2116856D02*
X5207856Y-2046144D01*
X5137144Y-2046144D01*
X5137144Y-2116856D01*
X5207856Y-2116856D01*
X5122500Y-2285500D02*
X5222500Y-2385500D01*
X5222500Y-2285500D02*
X5122500Y-2385500D01*
X5207856Y-2370856D02*
X5207856Y-2300144D01*
X5137144Y-2300144D01*
X5137144Y-2370856D01*
X5207856Y-2370856D01*
X5122500Y-2539500D02*
X5222500Y-2639500D01*
X5222500Y-2539500D02*
X5122500Y-2639500D01*
X5207856Y-2624856D02*
X5207856Y-2554144D01*
X5137144Y-2554144D01*
X5137144Y-2624856D01*
X5207856Y-2624856D01*
X5122500Y-2793500D02*
X5222500Y-2893500D01*
X5222500Y-2793500D02*
X5122500Y-2893500D01*
X5207856Y-2878856D02*
X5207856Y-2808144D01*
X5137144Y-2808144D01*
X5137144Y-2878856D01*
X5207856Y-2878856D01*
X5376500Y-507500D02*
X5476500Y-607500D01*
X5476500Y-507500D02*
X5376500Y-607500D01*
X5461856Y-592856D02*
X5461856Y-522144D01*
X5391144Y-522144D01*
X5391144Y-592856D01*
X5461856Y-592856D01*
X5376500Y-761500D02*
X5476500Y-861500D01*
X5476500Y-761500D02*
X5376500Y-861500D01*
X5461856Y-846856D02*
X5461856Y-776144D01*
X5391144Y-776144D01*
X5391144Y-846856D01*
X5461856Y-846856D01*
X5376500Y-1015500D02*
X5476500Y-1115500D01*
X5476500Y-1015500D02*
X5376500Y-1115500D01*
X5461856Y-1100856D02*
X5461856Y-1030144D01*
X5391144Y-1030144D01*
X5391144Y-1100856D01*
X5461856Y-1100856D01*
X5376500Y-1269500D02*
X5476500Y-1369500D01*
X5476500Y-1269500D02*
X5376500Y-1369500D01*
X5461856Y-1354856D02*
X5461856Y-1284144D01*
X5391144Y-1284144D01*
X5391144Y-1354856D01*
X5461856Y-1354856D01*
X5376500Y-1523500D02*
X5476500Y-1623500D01*
X5476500Y-1523500D02*
X5376500Y-1623500D01*
X5461856Y-1608856D02*
X5461856Y-1538144D01*
X5391144Y-1538144D01*
X5391144Y-1608856D01*
X5461856Y-1608856D01*
X5376500Y-1777500D02*
X5476500Y-1877500D01*
X5476500Y-1777500D02*
X5376500Y-1877500D01*
X5461856Y-1862856D02*
X5461856Y-1792144D01*
X5391144Y-1792144D01*
X5391144Y-1862856D01*
X5461856Y-1862856D01*
X5376500Y-2031500D02*
X5476500Y-2131500D01*
X5476500Y-2031500D02*
X5376500Y-2131500D01*
X5461856Y-2116856D02*
X5461856Y-2046144D01*
X5391144Y-2046144D01*
X5391144Y-2116856D01*
X5461856Y-2116856D01*
X5376500Y-2285500D02*
X5476500Y-2385500D01*
X5476500Y-2285500D02*
X5376500Y-2385500D01*
X5461856Y-2370856D02*
X5461856Y-2300144D01*
X5391144Y-2300144D01*
X5391144Y-2370856D01*
X5461856Y-2370856D01*
X5376500Y-2539500D02*
X5476500Y-2639500D01*
X5476500Y-2539500D02*
X5376500Y-2639500D01*
X5461856Y-2624856D02*
X5461856Y-2554144D01*
X5391144Y-2554144D01*
X5391144Y-2624856D01*
X5461856Y-2624856D01*
X5376500Y-2793500D02*
X5476500Y-2893500D01*
X5476500Y-2793500D02*
X5376500Y-2893500D01*
X5461856Y-2878856D02*
X5461856Y-2808144D01*
X5391144Y-2808144D01*
X5391144Y-2878856D01*
X5461856Y-2878856D01*
D18*
X2220000Y55000D02*
X2330000Y-55000D01*
X2330000Y55000D02*
X2220000Y-55000D01*
X2275000Y-55000D02*
X2330000Y0D01*
X2275000Y55000D01*
X2220000Y0D01*
X2275000Y-55000D01*
X2670000Y55000D02*
X2780000Y-55000D01*
X2780000Y55000D02*
X2670000Y-55000D01*
X2725000Y-55000D02*
X2780000Y0D01*
X2725000Y55000D01*
X2670000Y0D01*
X2725000Y-55000D01*
X3320000Y55000D02*
X3430000Y-55000D01*
X3430000Y55000D02*
X3320000Y-55000D01*
X3375000Y-55000D02*
X3430000Y0D01*
X3375000Y55000D01*
X3320000Y0D01*
X3375000Y-55000D01*
X3770000Y55000D02*
X3880000Y-55000D01*
X3880000Y55000D02*
X3770000Y-55000D01*
X3825000Y-55000D02*
X3880000Y0D01*
X3825000Y55000D01*
X3770000Y0D01*
X3825000Y-55000D01*
D19*
X0Y160000D02*
X0Y-160000D01*
X-160000Y0D02*
X160000Y0D01*
X160000Y0D02*
G75*
G03*
X160000Y0I-160000J0D01*
G01*
X0Y-5840000D02*
X0Y-6160000D01*
X-160000Y-6000000D02*
X160000Y-6000000D01*
X160000Y-6000000D02*
G75*
G03*
X160000Y-6000000I-160000J0D01*
G01*
X6000000Y160000D02*
X6000000Y-160000D01*
X5840000Y0D02*
X6160000Y0D01*
X6160000Y0D02*
G75*
G03*
X6160000Y0I-160000J0D01*
G01*
X6000000Y-5840000D02*
X6000000Y-6160000D01*
X5840000Y-6000000D02*
X6160000Y-6000000D01*
X6160000Y-6000000D02*
G75*
G03*
X6160000Y-6000000I-160000J0D01*
G01*
D11*
X-247381Y-6815476D02*
X-247381Y-6615476D01*
X-199762Y-6615476D01*
X-171191Y-6625000D01*
X-152143Y-6644048D01*
X-142619Y-6663095D01*
X-133095Y-6701190D01*
X-133095Y-6729762D01*
X-142619Y-6767857D01*
X-152143Y-6786905D01*
X-171191Y-6805952D01*
X-199762Y-6815476D01*
X-247381Y-6815476D01*
X-47381Y-6815476D02*
X-47381Y-6682143D01*
X-47381Y-6720238D02*
X-37857Y-6701190D01*
X-28333Y-6691667D01*
X-9286Y-6682143D01*
X9762Y-6682143D01*
X76429Y-6815476D02*
X76429Y-6682143D01*
X76429Y-6615476D02*
X66905Y-6625000D01*
X76429Y-6634524D01*
X85952Y-6625000D01*
X76429Y-6615476D01*
X76429Y-6634524D01*
X200238Y-6815476D02*
X181190Y-6805952D01*
X171667Y-6786905D01*
X171667Y-6615476D01*
X305000Y-6815476D02*
X285952Y-6805952D01*
X276429Y-6786905D01*
X276429Y-6615476D01*
X533571Y-6815476D02*
X533571Y-6615476D01*
X600238Y-6758333D01*
X666905Y-6615476D01*
X666905Y-6815476D01*
X847857Y-6815476D02*
X847857Y-6710714D01*
X838333Y-6691667D01*
X819286Y-6682143D01*
X781190Y-6682143D01*
X762143Y-6691667D01*
X847857Y-6805952D02*
X828809Y-6815476D01*
X781190Y-6815476D01*
X762143Y-6805952D01*
X752619Y-6786905D01*
X752619Y-6767857D01*
X762143Y-6748809D01*
X781190Y-6739286D01*
X828809Y-6739286D01*
X847857Y-6729762D01*
X943095Y-6682143D02*
X943095Y-6882143D01*
X943095Y-6691667D02*
X962143Y-6682143D01*
X1000238Y-6682143D01*
X1019286Y-6691667D01*
X1028809Y-6701190D01*
X1038333Y-6720238D01*
X1038333Y-6777381D01*
X1028809Y-6796428D01*
X1019286Y-6805952D01*
X1000238Y-6815476D01*
X962143Y-6815476D01*
X943095Y-6805952D01*
X1124048Y-6796428D02*
X1133571Y-6805952D01*
X1124048Y-6815476D01*
X1114524Y-6805952D01*
X1124048Y-6796428D01*
X1124048Y-6815476D01*
X1124048Y-6691667D02*
X1133571Y-6701190D01*
X1124048Y-6710714D01*
X1114524Y-6701190D01*
X1124048Y-6691667D01*
X1124048Y-6710714D01*
D12*
X-535000Y-7130000D02*
X-505000Y-7160000D01*
X-505000Y-7130000D02*
X-535000Y-7160000D01*
D11*
X-209286Y-7035476D02*
X-190238Y-7035476D01*
X-171191Y-7045000D01*
X-161667Y-7054524D01*
X-152143Y-7073571D01*
X-142619Y-7111667D01*
X-142619Y-7159286D01*
X-152143Y-7197381D01*
X-161667Y-7216428D01*
X-171191Y-7225952D01*
X-190238Y-7235476D01*
X-209286Y-7235476D01*
X-228333Y-7225952D01*
X-237857Y-7216428D01*
X-247381Y-7197381D01*
X-256905Y-7159286D01*
X-256905Y-7111667D01*
X-247381Y-7073571D01*
X-237857Y-7054524D01*
X-228333Y-7045000D01*
X-209286Y-7035476D01*
X-56905Y-7216428D02*
X-47381Y-7225952D01*
X-56905Y-7235476D01*
X-66429Y-7225952D01*
X-56905Y-7216428D01*
X-56905Y-7235476D01*
X19286Y-7035476D02*
X143095Y-7035476D01*
X76429Y-7111667D01*
X105000Y-7111667D01*
X124048Y-7121190D01*
X133571Y-7130714D01*
X143095Y-7149762D01*
X143095Y-7197381D01*
X133571Y-7216428D01*
X124048Y-7225952D01*
X105000Y-7235476D01*
X47857Y-7235476D01*
X28809Y-7225952D01*
X19286Y-7216428D01*
X266905Y-7035476D02*
X285952Y-7035476D01*
X305000Y-7045000D01*
X314524Y-7054524D01*
X324048Y-7073571D01*
X333571Y-7111667D01*
X333571Y-7159286D01*
X324048Y-7197381D01*
X314524Y-7216428D01*
X305000Y-7225952D01*
X285952Y-7235476D01*
X266905Y-7235476D01*
X247857Y-7225952D01*
X238333Y-7216428D01*
X228809Y-7197381D01*
X219286Y-7159286D01*
X219286Y-7111667D01*
X228809Y-7073571D01*
X238333Y-7054524D01*
X247857Y-7045000D01*
X266905Y-7035476D01*
X457381Y-7035476D02*
X476428Y-7035476D01*
X495476Y-7045000D01*
X505000Y-7054524D01*
X514524Y-7073571D01*
X524048Y-7111667D01*
X524048Y-7159286D01*
X514524Y-7197381D01*
X505000Y-7216428D01*
X495476Y-7225952D01*
X476428Y-7235476D01*
X457381Y-7235476D01*
X438333Y-7225952D01*
X428809Y-7216428D01*
X419286Y-7197381D01*
X409762Y-7159286D01*
X409762Y-7111667D01*
X419286Y-7073571D01*
X428809Y-7054524D01*
X438333Y-7045000D01*
X457381Y-7035476D01*
X609762Y-7235476D02*
X609762Y-7102143D01*
X609762Y-7121190D02*
X619286Y-7111667D01*
X638333Y-7102143D01*
X666905Y-7102143D01*
X685952Y-7111667D01*
X695476Y-7130714D01*
X695476Y-7235476D01*
X695476Y-7130714D02*
X705000Y-7111667D01*
X724048Y-7102143D01*
X752619Y-7102143D01*
X771667Y-7111667D01*
X781190Y-7130714D01*
X781190Y-7235476D01*
X876428Y-7235476D02*
X876428Y-7102143D01*
X876428Y-7121190D02*
X885952Y-7111667D01*
X905000Y-7102143D01*
X933571Y-7102143D01*
X952619Y-7111667D01*
X962143Y-7130714D01*
X962143Y-7235476D01*
X962143Y-7130714D02*
X971667Y-7111667D01*
X990714Y-7102143D01*
X1019286Y-7102143D01*
X1038333Y-7111667D01*
X1047857Y-7130714D01*
X1047857Y-7235476D01*
X1438333Y-7025952D02*
X1266905Y-7283095D01*
X1695476Y-7035476D02*
X1714524Y-7035476D01*
X1733571Y-7045000D01*
X1743095Y-7054524D01*
X1752619Y-7073571D01*
X1762143Y-7111667D01*
X1762143Y-7159286D01*
X1752619Y-7197381D01*
X1743095Y-7216428D01*
X1733571Y-7225952D01*
X1714524Y-7235476D01*
X1695476Y-7235476D01*
X1676428Y-7225952D01*
X1666905Y-7216428D01*
X1657381Y-7197381D01*
X1647857Y-7159286D01*
X1647857Y-7111667D01*
X1657381Y-7073571D01*
X1666905Y-7054524D01*
X1676428Y-7045000D01*
X1695476Y-7035476D01*
X1847857Y-7216428D02*
X1857381Y-7225952D01*
X1847857Y-7235476D01*
X1838333Y-7225952D01*
X1847857Y-7216428D01*
X1847857Y-7235476D01*
X1981190Y-7035476D02*
X2000238Y-7035476D01*
X2019286Y-7045000D01*
X2028809Y-7054524D01*
X2038333Y-7073571D01*
X2047857Y-7111667D01*
X2047857Y-7159286D01*
X2038333Y-7197381D01*
X2028809Y-7216428D01*
X2019286Y-7225952D01*
X2000238Y-7235476D01*
X1981190Y-7235476D01*
X1962143Y-7225952D01*
X1952619Y-7216428D01*
X1943095Y-7197381D01*
X1933571Y-7159286D01*
X1933571Y-7111667D01*
X1943095Y-7073571D01*
X1952619Y-7054524D01*
X1962143Y-7045000D01*
X1981190Y-7035476D01*
X2238333Y-7235476D02*
X2124048Y-7235476D01*
X2181190Y-7235476D02*
X2181190Y-7035476D01*
X2162143Y-7064048D01*
X2143095Y-7083095D01*
X2124048Y-7092619D01*
X2428810Y-7235476D02*
X2314524Y-7235476D01*
X2371667Y-7235476D02*
X2371667Y-7035476D01*
X2352619Y-7064048D01*
X2333571Y-7083095D01*
X2314524Y-7092619D01*
X2543095Y-7121190D02*
X2524048Y-7111667D01*
X2514524Y-7102143D01*
X2505000Y-7083095D01*
X2505000Y-7073571D01*
X2514524Y-7054524D01*
X2524048Y-7045000D01*
X2543095Y-7035476D01*
X2581190Y-7035476D01*
X2600238Y-7045000D01*
X2609762Y-7054524D01*
X2619286Y-7073571D01*
X2619286Y-7083095D01*
X2609762Y-7102143D01*
X2600238Y-7111667D01*
X2581190Y-7121190D01*
X2543095Y-7121190D01*
X2524048Y-7130714D01*
X2514524Y-7140238D01*
X2505000Y-7159286D01*
X2505000Y-7197381D01*
X2514524Y-7216428D01*
X2524048Y-7225952D01*
X2543095Y-7235476D01*
X2581190Y-7235476D01*
X2600238Y-7225952D01*
X2609762Y-7216428D01*
X2619286Y-7197381D01*
X2619286Y-7159286D01*
X2609762Y-7140238D01*
X2600238Y-7130714D01*
X2581190Y-7121190D01*
X2695476Y-7035476D02*
X2695476Y-7073571D01*
X2771667Y-7035476D02*
X2771667Y-7073571D01*
X3066905Y-7311667D02*
X3057381Y-7302143D01*
X3038333Y-7273571D01*
X3028809Y-7254524D01*
X3019286Y-7225952D01*
X3009762Y-7178333D01*
X3009762Y-7140238D01*
X3019286Y-7092619D01*
X3028809Y-7064048D01*
X3038333Y-7045000D01*
X3057381Y-7016428D01*
X3066905Y-7006905D01*
X3124048Y-7035476D02*
X3247857Y-7035476D01*
X3181190Y-7111667D01*
X3209762Y-7111667D01*
X3228809Y-7121190D01*
X3238333Y-7130714D01*
X3247857Y-7149762D01*
X3247857Y-7197381D01*
X3238333Y-7216428D01*
X3228809Y-7225952D01*
X3209762Y-7235476D01*
X3152619Y-7235476D01*
X3133571Y-7225952D01*
X3124048Y-7216428D01*
X3314524Y-7035476D02*
X3438333Y-7035476D01*
X3371667Y-7111667D01*
X3400238Y-7111667D01*
X3419286Y-7121190D01*
X3428809Y-7130714D01*
X3438333Y-7149762D01*
X3438333Y-7197381D01*
X3428809Y-7216428D01*
X3419286Y-7225952D01*
X3400238Y-7235476D01*
X3343095Y-7235476D01*
X3324048Y-7225952D01*
X3314524Y-7216428D01*
X3552619Y-7121190D02*
X3533571Y-7111667D01*
X3524048Y-7102143D01*
X3514524Y-7083095D01*
X3514524Y-7073571D01*
X3524048Y-7054524D01*
X3533571Y-7045000D01*
X3552619Y-7035476D01*
X3590714Y-7035476D01*
X3609762Y-7045000D01*
X3619286Y-7054524D01*
X3628809Y-7073571D01*
X3628809Y-7083095D01*
X3619286Y-7102143D01*
X3609762Y-7111667D01*
X3590714Y-7121190D01*
X3552619Y-7121190D01*
X3533571Y-7130714D01*
X3524048Y-7140238D01*
X3514524Y-7159286D01*
X3514524Y-7197381D01*
X3524048Y-7216428D01*
X3533571Y-7225952D01*
X3552619Y-7235476D01*
X3590714Y-7235476D01*
X3609762Y-7225952D01*
X3619286Y-7216428D01*
X3628809Y-7197381D01*
X3628809Y-7159286D01*
X3619286Y-7140238D01*
X3609762Y-7130714D01*
X3590714Y-7121190D01*
X3866905Y-7235476D02*
X3866905Y-7035476D01*
X3952619Y-7235476D02*
X3952619Y-7130714D01*
X3943095Y-7111667D01*
X3924048Y-7102143D01*
X3895476Y-7102143D01*
X3876428Y-7111667D01*
X3866905Y-7121190D01*
X4076428Y-7235476D02*
X4057381Y-7225952D01*
X4047857Y-7216428D01*
X4038333Y-7197381D01*
X4038333Y-7140238D01*
X4047857Y-7121190D01*
X4057381Y-7111667D01*
X4076428Y-7102143D01*
X4105000Y-7102143D01*
X4124048Y-7111667D01*
X4133571Y-7121190D01*
X4143095Y-7140238D01*
X4143095Y-7197381D01*
X4133571Y-7216428D01*
X4124048Y-7225952D01*
X4105000Y-7235476D01*
X4076428Y-7235476D01*
X4257381Y-7235476D02*
X4238333Y-7225952D01*
X4228810Y-7206905D01*
X4228810Y-7035476D01*
X4409762Y-7225952D02*
X4390714Y-7235476D01*
X4352619Y-7235476D01*
X4333571Y-7225952D01*
X4324048Y-7206905D01*
X4324048Y-7130714D01*
X4333571Y-7111667D01*
X4352619Y-7102143D01*
X4390714Y-7102143D01*
X4409762Y-7111667D01*
X4419286Y-7130714D01*
X4419286Y-7149762D01*
X4324048Y-7168809D01*
X4495476Y-7225952D02*
X4514524Y-7235476D01*
X4552619Y-7235476D01*
X4571667Y-7225952D01*
X4581190Y-7206905D01*
X4581190Y-7197381D01*
X4571667Y-7178333D01*
X4552619Y-7168809D01*
X4524048Y-7168809D01*
X4505000Y-7159286D01*
X4495476Y-7140238D01*
X4495476Y-7130714D01*
X4505000Y-7111667D01*
X4524048Y-7102143D01*
X4552619Y-7102143D01*
X4571667Y-7111667D01*
X4647857Y-7311667D02*
X4657381Y-7302143D01*
X4676429Y-7273571D01*
X4685952Y-7254524D01*
X4695476Y-7225952D01*
X4705000Y-7178333D01*
X4705000Y-7140238D01*
X4695476Y-7092619D01*
X4685952Y-7064048D01*
X4676429Y-7045000D01*
X4657381Y-7016428D01*
X4647857Y-7006905D01*
D12*
X-505000Y-7409000D02*
G75*
G03*
X-505000Y-7409000I-15000J0D01*
G01*
D11*
X-209286Y-7299476D02*
X-190238Y-7299476D01*
X-171191Y-7309000D01*
X-161667Y-7318524D01*
X-152143Y-7337571D01*
X-142619Y-7375667D01*
X-142619Y-7423286D01*
X-152143Y-7461381D01*
X-161667Y-7480428D01*
X-171191Y-7489952D01*
X-190238Y-7499476D01*
X-209286Y-7499476D01*
X-228333Y-7489952D01*
X-237857Y-7480428D01*
X-247381Y-7461381D01*
X-256905Y-7423286D01*
X-256905Y-7375667D01*
X-247381Y-7337571D01*
X-237857Y-7318524D01*
X-228333Y-7309000D01*
X-209286Y-7299476D01*
X-56905Y-7480428D02*
X-47381Y-7489952D01*
X-56905Y-7499476D01*
X-66429Y-7489952D01*
X-56905Y-7480428D01*
X-56905Y-7499476D01*
X19286Y-7299476D02*
X143095Y-7299476D01*
X76429Y-7375667D01*
X105000Y-7375667D01*
X124048Y-7385190D01*
X133571Y-7394714D01*
X143095Y-7413762D01*
X143095Y-7461381D01*
X133571Y-7480428D01*
X124048Y-7489952D01*
X105000Y-7499476D01*
X47857Y-7499476D01*
X28809Y-7489952D01*
X19286Y-7480428D01*
X266905Y-7299476D02*
X285952Y-7299476D01*
X305000Y-7309000D01*
X314524Y-7318524D01*
X324048Y-7337571D01*
X333571Y-7375667D01*
X333571Y-7423286D01*
X324048Y-7461381D01*
X314524Y-7480428D01*
X305000Y-7489952D01*
X285952Y-7499476D01*
X266905Y-7499476D01*
X247857Y-7489952D01*
X238333Y-7480428D01*
X228809Y-7461381D01*
X219286Y-7423286D01*
X219286Y-7375667D01*
X228809Y-7337571D01*
X238333Y-7318524D01*
X247857Y-7309000D01*
X266905Y-7299476D01*
X457381Y-7299476D02*
X476428Y-7299476D01*
X495476Y-7309000D01*
X505000Y-7318524D01*
X514524Y-7337571D01*
X524048Y-7375667D01*
X524048Y-7423286D01*
X514524Y-7461381D01*
X505000Y-7480428D01*
X495476Y-7489952D01*
X476428Y-7499476D01*
X457381Y-7499476D01*
X438333Y-7489952D01*
X428809Y-7480428D01*
X419286Y-7461381D01*
X409762Y-7423286D01*
X409762Y-7375667D01*
X419286Y-7337571D01*
X428809Y-7318524D01*
X438333Y-7309000D01*
X457381Y-7299476D01*
X609762Y-7499476D02*
X609762Y-7366143D01*
X609762Y-7385190D02*
X619286Y-7375667D01*
X638333Y-7366143D01*
X666905Y-7366143D01*
X685952Y-7375667D01*
X695476Y-7394714D01*
X695476Y-7499476D01*
X695476Y-7394714D02*
X705000Y-7375667D01*
X724048Y-7366143D01*
X752619Y-7366143D01*
X771667Y-7375667D01*
X781190Y-7394714D01*
X781190Y-7499476D01*
X876428Y-7499476D02*
X876428Y-7366143D01*
X876428Y-7385190D02*
X885952Y-7375667D01*
X905000Y-7366143D01*
X933571Y-7366143D01*
X952619Y-7375667D01*
X962143Y-7394714D01*
X962143Y-7499476D01*
X962143Y-7394714D02*
X971667Y-7375667D01*
X990714Y-7366143D01*
X1019286Y-7366143D01*
X1038333Y-7375667D01*
X1047857Y-7394714D01*
X1047857Y-7499476D01*
X1438333Y-7289952D02*
X1266905Y-7547095D01*
X1695476Y-7299476D02*
X1714524Y-7299476D01*
X1733571Y-7309000D01*
X1743095Y-7318524D01*
X1752619Y-7337571D01*
X1762143Y-7375667D01*
X1762143Y-7423286D01*
X1752619Y-7461381D01*
X1743095Y-7480428D01*
X1733571Y-7489952D01*
X1714524Y-7499476D01*
X1695476Y-7499476D01*
X1676428Y-7489952D01*
X1666905Y-7480428D01*
X1657381Y-7461381D01*
X1647857Y-7423286D01*
X1647857Y-7375667D01*
X1657381Y-7337571D01*
X1666905Y-7318524D01*
X1676428Y-7309000D01*
X1695476Y-7299476D01*
X1847857Y-7480428D02*
X1857381Y-7489952D01*
X1847857Y-7499476D01*
X1838333Y-7489952D01*
X1847857Y-7480428D01*
X1847857Y-7499476D01*
X1981190Y-7299476D02*
X2000238Y-7299476D01*
X2019286Y-7309000D01*
X2028809Y-7318524D01*
X2038333Y-7337571D01*
X2047857Y-7375667D01*
X2047857Y-7423286D01*
X2038333Y-7461381D01*
X2028809Y-7480428D01*
X2019286Y-7489952D01*
X2000238Y-7499476D01*
X1981190Y-7499476D01*
X1962143Y-7489952D01*
X1952619Y-7480428D01*
X1943095Y-7461381D01*
X1933571Y-7423286D01*
X1933571Y-7375667D01*
X1943095Y-7337571D01*
X1952619Y-7318524D01*
X1962143Y-7309000D01*
X1981190Y-7299476D01*
X2238333Y-7499476D02*
X2124048Y-7499476D01*
X2181190Y-7499476D02*
X2181190Y-7299476D01*
X2162143Y-7328048D01*
X2143095Y-7347095D01*
X2124048Y-7356619D01*
X2428810Y-7499476D02*
X2314524Y-7499476D01*
X2371667Y-7499476D02*
X2371667Y-7299476D01*
X2352619Y-7328048D01*
X2333571Y-7347095D01*
X2314524Y-7356619D01*
X2543095Y-7385190D02*
X2524048Y-7375667D01*
X2514524Y-7366143D01*
X2505000Y-7347095D01*
X2505000Y-7337571D01*
X2514524Y-7318524D01*
X2524048Y-7309000D01*
X2543095Y-7299476D01*
X2581190Y-7299476D01*
X2600238Y-7309000D01*
X2609762Y-7318524D01*
X2619286Y-7337571D01*
X2619286Y-7347095D01*
X2609762Y-7366143D01*
X2600238Y-7375667D01*
X2581190Y-7385190D01*
X2543095Y-7385190D01*
X2524048Y-7394714D01*
X2514524Y-7404238D01*
X2505000Y-7423286D01*
X2505000Y-7461381D01*
X2514524Y-7480428D01*
X2524048Y-7489952D01*
X2543095Y-7499476D01*
X2581190Y-7499476D01*
X2600238Y-7489952D01*
X2609762Y-7480428D01*
X2619286Y-7461381D01*
X2619286Y-7423286D01*
X2609762Y-7404238D01*
X2600238Y-7394714D01*
X2581190Y-7385190D01*
X2695476Y-7299476D02*
X2695476Y-7337571D01*
X2771667Y-7299476D02*
X2771667Y-7337571D01*
X3066905Y-7575667D02*
X3057381Y-7566143D01*
X3038333Y-7537571D01*
X3028809Y-7518524D01*
X3019286Y-7489952D01*
X3009762Y-7442333D01*
X3009762Y-7404238D01*
X3019286Y-7356619D01*
X3028809Y-7328048D01*
X3038333Y-7309000D01*
X3057381Y-7280428D01*
X3066905Y-7270905D01*
X3247857Y-7499476D02*
X3133571Y-7499476D01*
X3190714Y-7499476D02*
X3190714Y-7299476D01*
X3171667Y-7328048D01*
X3152619Y-7347095D01*
X3133571Y-7356619D01*
X3324048Y-7318524D02*
X3333571Y-7309000D01*
X3352619Y-7299476D01*
X3400238Y-7299476D01*
X3419286Y-7309000D01*
X3428809Y-7318524D01*
X3438333Y-7337571D01*
X3438333Y-7356619D01*
X3428809Y-7385190D01*
X3314524Y-7499476D01*
X3438333Y-7499476D01*
X3676428Y-7499476D02*
X3676428Y-7299476D01*
X3762143Y-7499476D02*
X3762143Y-7394714D01*
X3752619Y-7375667D01*
X3733571Y-7366143D01*
X3705000Y-7366143D01*
X3685952Y-7375667D01*
X3676428Y-7385190D01*
X3885952Y-7499476D02*
X3866905Y-7489952D01*
X3857381Y-7480428D01*
X3847857Y-7461381D01*
X3847857Y-7404238D01*
X3857381Y-7385190D01*
X3866905Y-7375667D01*
X3885952Y-7366143D01*
X3914524Y-7366143D01*
X3933571Y-7375667D01*
X3943095Y-7385190D01*
X3952619Y-7404238D01*
X3952619Y-7461381D01*
X3943095Y-7480428D01*
X3933571Y-7489952D01*
X3914524Y-7499476D01*
X3885952Y-7499476D01*
X4066905Y-7499476D02*
X4047857Y-7489952D01*
X4038333Y-7470905D01*
X4038333Y-7299476D01*
X4219286Y-7489952D02*
X4200238Y-7499476D01*
X4162143Y-7499476D01*
X4143095Y-7489952D01*
X4133571Y-7470905D01*
X4133571Y-7394714D01*
X4143095Y-7375667D01*
X4162143Y-7366143D01*
X4200238Y-7366143D01*
X4219286Y-7375667D01*
X4228810Y-7394714D01*
X4228810Y-7413762D01*
X4133571Y-7432809D01*
X4305000Y-7489952D02*
X4324048Y-7499476D01*
X4362143Y-7499476D01*
X4381190Y-7489952D01*
X4390714Y-7470905D01*
X4390714Y-7461381D01*
X4381190Y-7442333D01*
X4362143Y-7432809D01*
X4333571Y-7432809D01*
X4314524Y-7423286D01*
X4305000Y-7404238D01*
X4305000Y-7394714D01*
X4314524Y-7375667D01*
X4333571Y-7366143D01*
X4362143Y-7366143D01*
X4381190Y-7375667D01*
X4457381Y-7575667D02*
X4466905Y-7566143D01*
X4485952Y-7537571D01*
X4495476Y-7518524D01*
X4505000Y-7489952D01*
X4514524Y-7442333D01*
X4514524Y-7404238D01*
X4505000Y-7356619D01*
X4495476Y-7328048D01*
X4485952Y-7309000D01*
X4466905Y-7280428D01*
X4457381Y-7270905D01*
D13*
X-530000Y-7648000D02*
X-530000Y-7698000D01*
X-555000Y-7673000D02*
X-505000Y-7673000D01*
D11*
X-209286Y-7563476D02*
X-190238Y-7563476D01*
X-171191Y-7573000D01*
X-161667Y-7582524D01*
X-152143Y-7601571D01*
X-142619Y-7639667D01*
X-142619Y-7687286D01*
X-152143Y-7725381D01*
X-161667Y-7744428D01*
X-171191Y-7753952D01*
X-190238Y-7763476D01*
X-209286Y-7763476D01*
X-228333Y-7753952D01*
X-237857Y-7744428D01*
X-247381Y-7725381D01*
X-256905Y-7687286D01*
X-256905Y-7639667D01*
X-247381Y-7601571D01*
X-237857Y-7582524D01*
X-228333Y-7573000D01*
X-209286Y-7563476D01*
X-56905Y-7744428D02*
X-47381Y-7753952D01*
X-56905Y-7763476D01*
X-66429Y-7753952D01*
X-56905Y-7744428D01*
X-56905Y-7763476D01*
X133571Y-7563476D02*
X38333Y-7563476D01*
X28809Y-7658714D01*
X38333Y-7649190D01*
X57381Y-7639667D01*
X105000Y-7639667D01*
X124048Y-7649190D01*
X133571Y-7658714D01*
X143095Y-7677762D01*
X143095Y-7725381D01*
X133571Y-7744428D01*
X124048Y-7753952D01*
X105000Y-7763476D01*
X57381Y-7763476D01*
X38333Y-7753952D01*
X28809Y-7744428D01*
X266905Y-7563476D02*
X285952Y-7563476D01*
X305000Y-7573000D01*
X314524Y-7582524D01*
X324048Y-7601571D01*
X333571Y-7639667D01*
X333571Y-7687286D01*
X324048Y-7725381D01*
X314524Y-7744428D01*
X305000Y-7753952D01*
X285952Y-7763476D01*
X266905Y-7763476D01*
X247857Y-7753952D01*
X238333Y-7744428D01*
X228809Y-7725381D01*
X219286Y-7687286D01*
X219286Y-7639667D01*
X228809Y-7601571D01*
X238333Y-7582524D01*
X247857Y-7573000D01*
X266905Y-7563476D01*
X457381Y-7563476D02*
X476428Y-7563476D01*
X495476Y-7573000D01*
X505000Y-7582524D01*
X514524Y-7601571D01*
X524048Y-7639667D01*
X524048Y-7687286D01*
X514524Y-7725381D01*
X505000Y-7744428D01*
X495476Y-7753952D01*
X476428Y-7763476D01*
X457381Y-7763476D01*
X438333Y-7753952D01*
X428809Y-7744428D01*
X419286Y-7725381D01*
X409762Y-7687286D01*
X409762Y-7639667D01*
X419286Y-7601571D01*
X428809Y-7582524D01*
X438333Y-7573000D01*
X457381Y-7563476D01*
X609762Y-7763476D02*
X609762Y-7630143D01*
X609762Y-7649190D02*
X619286Y-7639667D01*
X638333Y-7630143D01*
X666905Y-7630143D01*
X685952Y-7639667D01*
X695476Y-7658714D01*
X695476Y-7763476D01*
X695476Y-7658714D02*
X705000Y-7639667D01*
X724048Y-7630143D01*
X752619Y-7630143D01*
X771667Y-7639667D01*
X781190Y-7658714D01*
X781190Y-7763476D01*
X876428Y-7763476D02*
X876428Y-7630143D01*
X876428Y-7649190D02*
X885952Y-7639667D01*
X905000Y-7630143D01*
X933571Y-7630143D01*
X952619Y-7639667D01*
X962143Y-7658714D01*
X962143Y-7763476D01*
X962143Y-7658714D02*
X971667Y-7639667D01*
X990714Y-7630143D01*
X1019286Y-7630143D01*
X1038333Y-7639667D01*
X1047857Y-7658714D01*
X1047857Y-7763476D01*
X1438333Y-7553952D02*
X1266905Y-7811095D01*
X1695476Y-7563476D02*
X1714524Y-7563476D01*
X1733571Y-7573000D01*
X1743095Y-7582524D01*
X1752619Y-7601571D01*
X1762143Y-7639667D01*
X1762143Y-7687286D01*
X1752619Y-7725381D01*
X1743095Y-7744428D01*
X1733571Y-7753952D01*
X1714524Y-7763476D01*
X1695476Y-7763476D01*
X1676428Y-7753952D01*
X1666905Y-7744428D01*
X1657381Y-7725381D01*
X1647857Y-7687286D01*
X1647857Y-7639667D01*
X1657381Y-7601571D01*
X1666905Y-7582524D01*
X1676428Y-7573000D01*
X1695476Y-7563476D01*
X1847857Y-7744428D02*
X1857381Y-7753952D01*
X1847857Y-7763476D01*
X1838333Y-7753952D01*
X1847857Y-7744428D01*
X1847857Y-7763476D01*
X1981190Y-7563476D02*
X2000238Y-7563476D01*
X2019286Y-7573000D01*
X2028809Y-7582524D01*
X2038333Y-7601571D01*
X2047857Y-7639667D01*
X2047857Y-7687286D01*
X2038333Y-7725381D01*
X2028809Y-7744428D01*
X2019286Y-7753952D01*
X2000238Y-7763476D01*
X1981190Y-7763476D01*
X1962143Y-7753952D01*
X1952619Y-7744428D01*
X1943095Y-7725381D01*
X1933571Y-7687286D01*
X1933571Y-7639667D01*
X1943095Y-7601571D01*
X1952619Y-7582524D01*
X1962143Y-7573000D01*
X1981190Y-7563476D01*
X2238333Y-7763476D02*
X2124048Y-7763476D01*
X2181190Y-7763476D02*
X2181190Y-7563476D01*
X2162143Y-7592048D01*
X2143095Y-7611095D01*
X2124048Y-7620619D01*
X2333571Y-7763476D02*
X2371667Y-7763476D01*
X2390714Y-7753952D01*
X2400238Y-7744428D01*
X2419286Y-7715857D01*
X2428810Y-7677762D01*
X2428810Y-7601571D01*
X2419286Y-7582524D01*
X2409762Y-7573000D01*
X2390714Y-7563476D01*
X2352619Y-7563476D01*
X2333571Y-7573000D01*
X2324048Y-7582524D01*
X2314524Y-7601571D01*
X2314524Y-7649190D01*
X2324048Y-7668238D01*
X2333571Y-7677762D01*
X2352619Y-7687286D01*
X2390714Y-7687286D01*
X2409762Y-7677762D01*
X2419286Y-7668238D01*
X2428810Y-7649190D01*
X2495476Y-7563476D02*
X2628810Y-7563476D01*
X2543095Y-7763476D01*
X2695476Y-7563476D02*
X2695476Y-7601571D01*
X2771667Y-7563476D02*
X2771667Y-7601571D01*
X3066905Y-7839667D02*
X3057381Y-7830143D01*
X3038333Y-7801571D01*
X3028809Y-7782524D01*
X3019286Y-7753952D01*
X3009762Y-7706333D01*
X3009762Y-7668238D01*
X3019286Y-7620619D01*
X3028809Y-7592048D01*
X3038333Y-7573000D01*
X3057381Y-7544428D01*
X3066905Y-7534905D01*
X3133571Y-7582524D02*
X3143095Y-7573000D01*
X3162143Y-7563476D01*
X3209762Y-7563476D01*
X3228809Y-7573000D01*
X3238333Y-7582524D01*
X3247857Y-7601571D01*
X3247857Y-7620619D01*
X3238333Y-7649190D01*
X3124048Y-7763476D01*
X3247857Y-7763476D01*
X3485952Y-7763476D02*
X3485952Y-7563476D01*
X3571667Y-7763476D02*
X3571667Y-7658714D01*
X3562143Y-7639667D01*
X3543095Y-7630143D01*
X3514524Y-7630143D01*
X3495476Y-7639667D01*
X3485952Y-7649190D01*
X3695476Y-7763476D02*
X3676428Y-7753952D01*
X3666905Y-7744428D01*
X3657381Y-7725381D01*
X3657381Y-7668238D01*
X3666905Y-7649190D01*
X3676428Y-7639667D01*
X3695476Y-7630143D01*
X3724048Y-7630143D01*
X3743095Y-7639667D01*
X3752619Y-7649190D01*
X3762143Y-7668238D01*
X3762143Y-7725381D01*
X3752619Y-7744428D01*
X3743095Y-7753952D01*
X3724048Y-7763476D01*
X3695476Y-7763476D01*
X3876428Y-7763476D02*
X3857381Y-7753952D01*
X3847857Y-7734905D01*
X3847857Y-7563476D01*
X4028809Y-7753952D02*
X4009762Y-7763476D01*
X3971667Y-7763476D01*
X3952619Y-7753952D01*
X3943095Y-7734905D01*
X3943095Y-7658714D01*
X3952619Y-7639667D01*
X3971667Y-7630143D01*
X4009762Y-7630143D01*
X4028809Y-7639667D01*
X4038333Y-7658714D01*
X4038333Y-7677762D01*
X3943095Y-7696809D01*
X4114524Y-7753952D02*
X4133571Y-7763476D01*
X4171667Y-7763476D01*
X4190714Y-7753952D01*
X4200238Y-7734905D01*
X4200238Y-7725381D01*
X4190714Y-7706333D01*
X4171667Y-7696809D01*
X4143095Y-7696809D01*
X4124048Y-7687286D01*
X4114524Y-7668238D01*
X4114524Y-7658714D01*
X4124048Y-7639667D01*
X4143095Y-7630143D01*
X4171667Y-7630143D01*
X4190714Y-7639667D01*
X4438333Y-7687286D02*
X4590714Y-7687286D01*
X4514524Y-7763476D02*
X4514524Y-7611095D01*
X4828810Y-7582524D02*
X4838333Y-7573000D01*
X4857381Y-7563476D01*
X4905000Y-7563476D01*
X4924048Y-7573000D01*
X4933571Y-7582524D01*
X4943095Y-7601571D01*
X4943095Y-7620619D01*
X4933571Y-7649190D01*
X4819286Y-7763476D01*
X4943095Y-7763476D01*
X5171667Y-7753952D02*
X5190714Y-7763476D01*
X5228810Y-7763476D01*
X5247857Y-7753952D01*
X5257381Y-7734905D01*
X5257381Y-7725381D01*
X5247857Y-7706333D01*
X5228810Y-7696809D01*
X5200238Y-7696809D01*
X5181190Y-7687286D01*
X5171667Y-7668238D01*
X5171667Y-7658714D01*
X5181190Y-7639667D01*
X5200238Y-7630143D01*
X5228810Y-7630143D01*
X5247857Y-7639667D01*
X5371667Y-7763476D02*
X5352619Y-7753952D01*
X5343095Y-7734905D01*
X5343095Y-7563476D01*
X5476429Y-7763476D02*
X5457381Y-7753952D01*
X5447857Y-7744428D01*
X5438333Y-7725381D01*
X5438333Y-7668238D01*
X5447857Y-7649190D01*
X5457381Y-7639667D01*
X5476429Y-7630143D01*
X5505000Y-7630143D01*
X5524048Y-7639667D01*
X5533571Y-7649190D01*
X5543095Y-7668238D01*
X5543095Y-7725381D01*
X5533571Y-7744428D01*
X5524048Y-7753952D01*
X5505000Y-7763476D01*
X5476429Y-7763476D01*
X5600238Y-7630143D02*
X5676428Y-7630143D01*
X5628809Y-7563476D02*
X5628809Y-7734905D01*
X5638333Y-7753952D01*
X5657381Y-7763476D01*
X5676428Y-7763476D01*
X5733571Y-7753952D02*
X5752619Y-7763476D01*
X5790714Y-7763476D01*
X5809762Y-7753952D01*
X5819286Y-7734905D01*
X5819286Y-7725381D01*
X5809762Y-7706333D01*
X5790714Y-7696809D01*
X5762143Y-7696809D01*
X5743095Y-7687286D01*
X5733571Y-7668238D01*
X5733571Y-7658714D01*
X5743095Y-7639667D01*
X5762143Y-7630143D01*
X5790714Y-7630143D01*
X5809762Y-7639667D01*
X5885952Y-7839667D02*
X5895476Y-7830143D01*
X5914524Y-7801571D01*
X5924048Y-7782524D01*
X5933571Y-7753952D01*
X5943095Y-7706333D01*
X5943095Y-7668238D01*
X5933571Y-7620619D01*
X5924048Y-7592048D01*
X5914524Y-7573000D01*
X5895476Y-7544428D01*
X5885952Y-7534905D01*
D14*
X-513054Y-7956446D02*
X-513054Y-7917554D01*
X-551946Y-7917554D01*
X-551946Y-7956446D01*
X-513054Y-7956446D01*
D11*
X-209286Y-7827476D02*
X-190238Y-7827476D01*
X-171191Y-7837000D01*
X-161667Y-7846524D01*
X-152143Y-7865571D01*
X-142619Y-7903667D01*
X-142619Y-7951286D01*
X-152143Y-7989381D01*
X-161667Y-8008428D01*
X-171191Y-8017952D01*
X-190238Y-8027476D01*
X-209286Y-8027476D01*
X-228333Y-8017952D01*
X-237857Y-8008428D01*
X-247381Y-7989381D01*
X-256905Y-7951286D01*
X-256905Y-7903667D01*
X-247381Y-7865571D01*
X-237857Y-7846524D01*
X-228333Y-7837000D01*
X-209286Y-7827476D01*
X-56905Y-8008428D02*
X-47381Y-8017952D01*
X-56905Y-8027476D01*
X-66429Y-8017952D01*
X-56905Y-8008428D01*
X-56905Y-8027476D01*
X133571Y-7827476D02*
X38333Y-7827476D01*
X28809Y-7922714D01*
X38333Y-7913190D01*
X57381Y-7903667D01*
X105000Y-7903667D01*
X124048Y-7913190D01*
X133571Y-7922714D01*
X143095Y-7941762D01*
X143095Y-7989381D01*
X133571Y-8008428D01*
X124048Y-8017952D01*
X105000Y-8027476D01*
X57381Y-8027476D01*
X38333Y-8017952D01*
X28809Y-8008428D01*
X324048Y-7827476D02*
X228809Y-7827476D01*
X219286Y-7922714D01*
X228809Y-7913190D01*
X247857Y-7903667D01*
X295476Y-7903667D01*
X314524Y-7913190D01*
X324048Y-7922714D01*
X333571Y-7941762D01*
X333571Y-7989381D01*
X324048Y-8008428D01*
X314524Y-8017952D01*
X295476Y-8027476D01*
X247857Y-8027476D01*
X228809Y-8017952D01*
X219286Y-8008428D01*
X457381Y-7827476D02*
X476428Y-7827476D01*
X495476Y-7837000D01*
X505000Y-7846524D01*
X514524Y-7865571D01*
X524048Y-7903667D01*
X524048Y-7951286D01*
X514524Y-7989381D01*
X505000Y-8008428D01*
X495476Y-8017952D01*
X476428Y-8027476D01*
X457381Y-8027476D01*
X438333Y-8017952D01*
X428809Y-8008428D01*
X419286Y-7989381D01*
X409762Y-7951286D01*
X409762Y-7903667D01*
X419286Y-7865571D01*
X428809Y-7846524D01*
X438333Y-7837000D01*
X457381Y-7827476D01*
X609762Y-8027476D02*
X609762Y-7894143D01*
X609762Y-7913190D02*
X619286Y-7903667D01*
X638333Y-7894143D01*
X666905Y-7894143D01*
X685952Y-7903667D01*
X695476Y-7922714D01*
X695476Y-8027476D01*
X695476Y-7922714D02*
X705000Y-7903667D01*
X724048Y-7894143D01*
X752619Y-7894143D01*
X771667Y-7903667D01*
X781190Y-7922714D01*
X781190Y-8027476D01*
X876428Y-8027476D02*
X876428Y-7894143D01*
X876428Y-7913190D02*
X885952Y-7903667D01*
X905000Y-7894143D01*
X933571Y-7894143D01*
X952619Y-7903667D01*
X962143Y-7922714D01*
X962143Y-8027476D01*
X962143Y-7922714D02*
X971667Y-7903667D01*
X990714Y-7894143D01*
X1019286Y-7894143D01*
X1038333Y-7903667D01*
X1047857Y-7922714D01*
X1047857Y-8027476D01*
X1438333Y-7817952D02*
X1266905Y-8075095D01*
X1695476Y-7827476D02*
X1714524Y-7827476D01*
X1733571Y-7837000D01*
X1743095Y-7846524D01*
X1752619Y-7865571D01*
X1762143Y-7903667D01*
X1762143Y-7951286D01*
X1752619Y-7989381D01*
X1743095Y-8008428D01*
X1733571Y-8017952D01*
X1714524Y-8027476D01*
X1695476Y-8027476D01*
X1676428Y-8017952D01*
X1666905Y-8008428D01*
X1657381Y-7989381D01*
X1647857Y-7951286D01*
X1647857Y-7903667D01*
X1657381Y-7865571D01*
X1666905Y-7846524D01*
X1676428Y-7837000D01*
X1695476Y-7827476D01*
X1847857Y-8008428D02*
X1857381Y-8017952D01*
X1847857Y-8027476D01*
X1838333Y-8017952D01*
X1847857Y-8008428D01*
X1847857Y-8027476D01*
X1981190Y-7827476D02*
X2000238Y-7827476D01*
X2019286Y-7837000D01*
X2028809Y-7846524D01*
X2038333Y-7865571D01*
X2047857Y-7903667D01*
X2047857Y-7951286D01*
X2038333Y-7989381D01*
X2028809Y-8008428D01*
X2019286Y-8017952D01*
X2000238Y-8027476D01*
X1981190Y-8027476D01*
X1962143Y-8017952D01*
X1952619Y-8008428D01*
X1943095Y-7989381D01*
X1933571Y-7951286D01*
X1933571Y-7903667D01*
X1943095Y-7865571D01*
X1952619Y-7846524D01*
X1962143Y-7837000D01*
X1981190Y-7827476D01*
X2124048Y-7846524D02*
X2133571Y-7837000D01*
X2152619Y-7827476D01*
X2200238Y-7827476D01*
X2219286Y-7837000D01*
X2228810Y-7846524D01*
X2238333Y-7865571D01*
X2238333Y-7884619D01*
X2228810Y-7913190D01*
X2114524Y-8027476D01*
X2238333Y-8027476D01*
X2428810Y-8027476D02*
X2314524Y-8027476D01*
X2371667Y-8027476D02*
X2371667Y-7827476D01*
X2352619Y-7856048D01*
X2333571Y-7875095D01*
X2314524Y-7884619D01*
X2495476Y-7827476D02*
X2628810Y-7827476D01*
X2543095Y-8027476D01*
X2695476Y-7827476D02*
X2695476Y-7865571D01*
X2771667Y-7827476D02*
X2771667Y-7865571D01*
X3066905Y-8103667D02*
X3057381Y-8094143D01*
X3038333Y-8065571D01*
X3028809Y-8046524D01*
X3019286Y-8017952D01*
X3009762Y-7970333D01*
X3009762Y-7932238D01*
X3019286Y-7884619D01*
X3028809Y-7856048D01*
X3038333Y-7837000D01*
X3057381Y-7808428D01*
X3066905Y-7798905D01*
X3181190Y-7827476D02*
X3200238Y-7827476D01*
X3219286Y-7837000D01*
X3228809Y-7846524D01*
X3238333Y-7865571D01*
X3247857Y-7903667D01*
X3247857Y-7951286D01*
X3238333Y-7989381D01*
X3228809Y-8008428D01*
X3219286Y-8017952D01*
X3200238Y-8027476D01*
X3181190Y-8027476D01*
X3162143Y-8017952D01*
X3152619Y-8008428D01*
X3143095Y-7989381D01*
X3133571Y-7951286D01*
X3133571Y-7903667D01*
X3143095Y-7865571D01*
X3152619Y-7846524D01*
X3162143Y-7837000D01*
X3181190Y-7827476D01*
X3485952Y-8027476D02*
X3485952Y-7827476D01*
X3571667Y-8027476D02*
X3571667Y-7922714D01*
X3562143Y-7903667D01*
X3543095Y-7894143D01*
X3514524Y-7894143D01*
X3495476Y-7903667D01*
X3485952Y-7913190D01*
X3695476Y-8027476D02*
X3676428Y-8017952D01*
X3666905Y-8008428D01*
X3657381Y-7989381D01*
X3657381Y-7932238D01*
X3666905Y-7913190D01*
X3676428Y-7903667D01*
X3695476Y-7894143D01*
X3724048Y-7894143D01*
X3743095Y-7903667D01*
X3752619Y-7913190D01*
X3762143Y-7932238D01*
X3762143Y-7989381D01*
X3752619Y-8008428D01*
X3743095Y-8017952D01*
X3724048Y-8027476D01*
X3695476Y-8027476D01*
X3876428Y-8027476D02*
X3857381Y-8017952D01*
X3847857Y-7998905D01*
X3847857Y-7827476D01*
X4028809Y-8017952D02*
X4009762Y-8027476D01*
X3971667Y-8027476D01*
X3952619Y-8017952D01*
X3943095Y-7998905D01*
X3943095Y-7922714D01*
X3952619Y-7903667D01*
X3971667Y-7894143D01*
X4009762Y-7894143D01*
X4028809Y-7903667D01*
X4038333Y-7922714D01*
X4038333Y-7941762D01*
X3943095Y-7960809D01*
X4114524Y-8017952D02*
X4133571Y-8027476D01*
X4171667Y-8027476D01*
X4190714Y-8017952D01*
X4200238Y-7998905D01*
X4200238Y-7989381D01*
X4190714Y-7970333D01*
X4171667Y-7960809D01*
X4143095Y-7960809D01*
X4124048Y-7951286D01*
X4114524Y-7932238D01*
X4114524Y-7922714D01*
X4124048Y-7903667D01*
X4143095Y-7894143D01*
X4171667Y-7894143D01*
X4190714Y-7903667D01*
X4438333Y-7951286D02*
X4590714Y-7951286D01*
X4514524Y-8027476D02*
X4514524Y-7875095D01*
X4828810Y-7846524D02*
X4838333Y-7837000D01*
X4857381Y-7827476D01*
X4905000Y-7827476D01*
X4924048Y-7837000D01*
X4933571Y-7846524D01*
X4943095Y-7865571D01*
X4943095Y-7884619D01*
X4933571Y-7913190D01*
X4819286Y-8027476D01*
X4943095Y-8027476D01*
X5171667Y-8017952D02*
X5190714Y-8027476D01*
X5228810Y-8027476D01*
X5247857Y-8017952D01*
X5257381Y-7998905D01*
X5257381Y-7989381D01*
X5247857Y-7970333D01*
X5228810Y-7960809D01*
X5200238Y-7960809D01*
X5181190Y-7951286D01*
X5171667Y-7932238D01*
X5171667Y-7922714D01*
X5181190Y-7903667D01*
X5200238Y-7894143D01*
X5228810Y-7894143D01*
X5247857Y-7903667D01*
X5371667Y-8027476D02*
X5352619Y-8017952D01*
X5343095Y-7998905D01*
X5343095Y-7827476D01*
X5476429Y-8027476D02*
X5457381Y-8017952D01*
X5447857Y-8008428D01*
X5438333Y-7989381D01*
X5438333Y-7932238D01*
X5447857Y-7913190D01*
X5457381Y-7903667D01*
X5476429Y-7894143D01*
X5505000Y-7894143D01*
X5524048Y-7903667D01*
X5533571Y-7913190D01*
X5543095Y-7932238D01*
X5543095Y-7989381D01*
X5533571Y-8008428D01*
X5524048Y-8017952D01*
X5505000Y-8027476D01*
X5476429Y-8027476D01*
X5600238Y-7894143D02*
X5676428Y-7894143D01*
X5628809Y-7827476D02*
X5628809Y-7998905D01*
X5638333Y-8017952D01*
X5657381Y-8027476D01*
X5676428Y-8027476D01*
X5733571Y-8017952D02*
X5752619Y-8027476D01*
X5790714Y-8027476D01*
X5809762Y-8017952D01*
X5819286Y-7998905D01*
X5819286Y-7989381D01*
X5809762Y-7970333D01*
X5790714Y-7960809D01*
X5762143Y-7960809D01*
X5743095Y-7951286D01*
X5733571Y-7932238D01*
X5733571Y-7922714D01*
X5743095Y-7903667D01*
X5762143Y-7894143D01*
X5790714Y-7894143D01*
X5809762Y-7903667D01*
X5885952Y-8103667D02*
X5895476Y-8094143D01*
X5914524Y-8065571D01*
X5924048Y-8046524D01*
X5933571Y-8017952D01*
X5943095Y-7970333D01*
X5943095Y-7932238D01*
X5933571Y-7884619D01*
X5924048Y-7856048D01*
X5914524Y-7837000D01*
X5895476Y-7808428D01*
X5885952Y-7798905D01*
D15*
X-542500Y-8238500D02*
X-505000Y-8201000D01*
X-542500Y-8163500D01*
X-580000Y-8201000D01*
X-542500Y-8238500D01*
D11*
X-209286Y-8091476D02*
X-190238Y-8091476D01*
X-171191Y-8101000D01*
X-161667Y-8110524D01*
X-152143Y-8129571D01*
X-142619Y-8167667D01*
X-142619Y-8215286D01*
X-152143Y-8253381D01*
X-161667Y-8272428D01*
X-171191Y-8281952D01*
X-190238Y-8291476D01*
X-209286Y-8291476D01*
X-228333Y-8281952D01*
X-237857Y-8272428D01*
X-247381Y-8253381D01*
X-256905Y-8215286D01*
X-256905Y-8167667D01*
X-247381Y-8129571D01*
X-237857Y-8110524D01*
X-228333Y-8101000D01*
X-209286Y-8091476D01*
X-56905Y-8272428D02*
X-47381Y-8281952D01*
X-56905Y-8291476D01*
X-66429Y-8281952D01*
X-56905Y-8272428D01*
X-56905Y-8291476D01*
X19286Y-8091476D02*
X152619Y-8091476D01*
X66905Y-8291476D01*
X324048Y-8091476D02*
X228809Y-8091476D01*
X219286Y-8186714D01*
X228809Y-8177190D01*
X247857Y-8167667D01*
X295476Y-8167667D01*
X314524Y-8177190D01*
X324048Y-8186714D01*
X333571Y-8205762D01*
X333571Y-8253381D01*
X324048Y-8272428D01*
X314524Y-8281952D01*
X295476Y-8291476D01*
X247857Y-8291476D01*
X228809Y-8281952D01*
X219286Y-8272428D01*
X457381Y-8091476D02*
X476428Y-8091476D01*
X495476Y-8101000D01*
X505000Y-8110524D01*
X514524Y-8129571D01*
X524048Y-8167667D01*
X524048Y-8215286D01*
X514524Y-8253381D01*
X505000Y-8272428D01*
X495476Y-8281952D01*
X476428Y-8291476D01*
X457381Y-8291476D01*
X438333Y-8281952D01*
X428809Y-8272428D01*
X419286Y-8253381D01*
X409762Y-8215286D01*
X409762Y-8167667D01*
X419286Y-8129571D01*
X428809Y-8110524D01*
X438333Y-8101000D01*
X457381Y-8091476D01*
X609762Y-8291476D02*
X609762Y-8158143D01*
X609762Y-8177190D02*
X619286Y-8167667D01*
X638333Y-8158143D01*
X666905Y-8158143D01*
X685952Y-8167667D01*
X695476Y-8186714D01*
X695476Y-8291476D01*
X695476Y-8186714D02*
X705000Y-8167667D01*
X724048Y-8158143D01*
X752619Y-8158143D01*
X771667Y-8167667D01*
X781190Y-8186714D01*
X781190Y-8291476D01*
X876428Y-8291476D02*
X876428Y-8158143D01*
X876428Y-8177190D02*
X885952Y-8167667D01*
X905000Y-8158143D01*
X933571Y-8158143D01*
X952619Y-8167667D01*
X962143Y-8186714D01*
X962143Y-8291476D01*
X962143Y-8186714D02*
X971667Y-8167667D01*
X990714Y-8158143D01*
X1019286Y-8158143D01*
X1038333Y-8167667D01*
X1047857Y-8186714D01*
X1047857Y-8291476D01*
X1438333Y-8081952D02*
X1266905Y-8339095D01*
X1695476Y-8091476D02*
X1714524Y-8091476D01*
X1733571Y-8101000D01*
X1743095Y-8110524D01*
X1752619Y-8129571D01*
X1762143Y-8167667D01*
X1762143Y-8215286D01*
X1752619Y-8253381D01*
X1743095Y-8272428D01*
X1733571Y-8281952D01*
X1714524Y-8291476D01*
X1695476Y-8291476D01*
X1676428Y-8281952D01*
X1666905Y-8272428D01*
X1657381Y-8253381D01*
X1647857Y-8215286D01*
X1647857Y-8167667D01*
X1657381Y-8129571D01*
X1666905Y-8110524D01*
X1676428Y-8101000D01*
X1695476Y-8091476D01*
X1847857Y-8272428D02*
X1857381Y-8281952D01*
X1847857Y-8291476D01*
X1838333Y-8281952D01*
X1847857Y-8272428D01*
X1847857Y-8291476D01*
X1981190Y-8091476D02*
X2000238Y-8091476D01*
X2019286Y-8101000D01*
X2028809Y-8110524D01*
X2038333Y-8129571D01*
X2047857Y-8167667D01*
X2047857Y-8215286D01*
X2038333Y-8253381D01*
X2028809Y-8272428D01*
X2019286Y-8281952D01*
X2000238Y-8291476D01*
X1981190Y-8291476D01*
X1962143Y-8281952D01*
X1952619Y-8272428D01*
X1943095Y-8253381D01*
X1933571Y-8215286D01*
X1933571Y-8167667D01*
X1943095Y-8129571D01*
X1952619Y-8110524D01*
X1962143Y-8101000D01*
X1981190Y-8091476D01*
X2124048Y-8110524D02*
X2133571Y-8101000D01*
X2152619Y-8091476D01*
X2200238Y-8091476D01*
X2219286Y-8101000D01*
X2228810Y-8110524D01*
X2238333Y-8129571D01*
X2238333Y-8148619D01*
X2228810Y-8177190D01*
X2114524Y-8291476D01*
X2238333Y-8291476D01*
X2333571Y-8291476D02*
X2371667Y-8291476D01*
X2390714Y-8281952D01*
X2400238Y-8272428D01*
X2419286Y-8243857D01*
X2428810Y-8205762D01*
X2428810Y-8129571D01*
X2419286Y-8110524D01*
X2409762Y-8101000D01*
X2390714Y-8091476D01*
X2352619Y-8091476D01*
X2333571Y-8101000D01*
X2324048Y-8110524D01*
X2314524Y-8129571D01*
X2314524Y-8177190D01*
X2324048Y-8196238D01*
X2333571Y-8205762D01*
X2352619Y-8215286D01*
X2390714Y-8215286D01*
X2409762Y-8205762D01*
X2419286Y-8196238D01*
X2428810Y-8177190D01*
X2609762Y-8091476D02*
X2514524Y-8091476D01*
X2505000Y-8186714D01*
X2514524Y-8177190D01*
X2533571Y-8167667D01*
X2581190Y-8167667D01*
X2600238Y-8177190D01*
X2609762Y-8186714D01*
X2619286Y-8205762D01*
X2619286Y-8253381D01*
X2609762Y-8272428D01*
X2600238Y-8281952D01*
X2581190Y-8291476D01*
X2533571Y-8291476D01*
X2514524Y-8281952D01*
X2505000Y-8272428D01*
X2695476Y-8091476D02*
X2695476Y-8129571D01*
X2771667Y-8091476D02*
X2771667Y-8129571D01*
X3066905Y-8367667D02*
X3057381Y-8358143D01*
X3038333Y-8329571D01*
X3028809Y-8310524D01*
X3019286Y-8281952D01*
X3009762Y-8234333D01*
X3009762Y-8196238D01*
X3019286Y-8148619D01*
X3028809Y-8120048D01*
X3038333Y-8101000D01*
X3057381Y-8072428D01*
X3066905Y-8062905D01*
X3133571Y-8110524D02*
X3143095Y-8101000D01*
X3162143Y-8091476D01*
X3209762Y-8091476D01*
X3228809Y-8101000D01*
X3238333Y-8110524D01*
X3247857Y-8129571D01*
X3247857Y-8148619D01*
X3238333Y-8177190D01*
X3124048Y-8291476D01*
X3247857Y-8291476D01*
X3485952Y-8291476D02*
X3485952Y-8091476D01*
X3571667Y-8291476D02*
X3571667Y-8186714D01*
X3562143Y-8167667D01*
X3543095Y-8158143D01*
X3514524Y-8158143D01*
X3495476Y-8167667D01*
X3485952Y-8177190D01*
X3695476Y-8291476D02*
X3676428Y-8281952D01*
X3666905Y-8272428D01*
X3657381Y-8253381D01*
X3657381Y-8196238D01*
X3666905Y-8177190D01*
X3676428Y-8167667D01*
X3695476Y-8158143D01*
X3724048Y-8158143D01*
X3743095Y-8167667D01*
X3752619Y-8177190D01*
X3762143Y-8196238D01*
X3762143Y-8253381D01*
X3752619Y-8272428D01*
X3743095Y-8281952D01*
X3724048Y-8291476D01*
X3695476Y-8291476D01*
X3876428Y-8291476D02*
X3857381Y-8281952D01*
X3847857Y-8262905D01*
X3847857Y-8091476D01*
X4028809Y-8281952D02*
X4009762Y-8291476D01*
X3971667Y-8291476D01*
X3952619Y-8281952D01*
X3943095Y-8262905D01*
X3943095Y-8186714D01*
X3952619Y-8167667D01*
X3971667Y-8158143D01*
X4009762Y-8158143D01*
X4028809Y-8167667D01*
X4038333Y-8186714D01*
X4038333Y-8205762D01*
X3943095Y-8224809D01*
X4114524Y-8281952D02*
X4133571Y-8291476D01*
X4171667Y-8291476D01*
X4190714Y-8281952D01*
X4200238Y-8262905D01*
X4200238Y-8253381D01*
X4190714Y-8234333D01*
X4171667Y-8224809D01*
X4143095Y-8224809D01*
X4124048Y-8215286D01*
X4114524Y-8196238D01*
X4114524Y-8186714D01*
X4124048Y-8167667D01*
X4143095Y-8158143D01*
X4171667Y-8158143D01*
X4190714Y-8167667D01*
X4266905Y-8367667D02*
X4276429Y-8358143D01*
X4295476Y-8329571D01*
X4305000Y-8310524D01*
X4314524Y-8281952D01*
X4324048Y-8234333D01*
X4324048Y-8196238D01*
X4314524Y-8148619D01*
X4305000Y-8120048D01*
X4295476Y-8101000D01*
X4276429Y-8072428D01*
X4266905Y-8062905D01*
D16*
X-581200Y-8426900D02*
X-505000Y-8503100D01*
X-505000Y-8426900D02*
X-581200Y-8503100D01*
X-505000Y-8465000D02*
G75*
G03*
X-505000Y-8465000I-38100J0D01*
G01*
D11*
X-209286Y-8355476D02*
X-190238Y-8355476D01*
X-171191Y-8365000D01*
X-161667Y-8374524D01*
X-152143Y-8393571D01*
X-142619Y-8431667D01*
X-142619Y-8479286D01*
X-152143Y-8517381D01*
X-161667Y-8536429D01*
X-171191Y-8545952D01*
X-190238Y-8555476D01*
X-209286Y-8555476D01*
X-228333Y-8545952D01*
X-237857Y-8536429D01*
X-247381Y-8517381D01*
X-256905Y-8479286D01*
X-256905Y-8431667D01*
X-247381Y-8393571D01*
X-237857Y-8374524D01*
X-228333Y-8365000D01*
X-209286Y-8355476D01*
X-56905Y-8536429D02*
X-47381Y-8545952D01*
X-56905Y-8555476D01*
X-66429Y-8545952D01*
X-56905Y-8536429D01*
X-56905Y-8555476D01*
X19286Y-8355476D02*
X152619Y-8355476D01*
X66905Y-8555476D01*
X314524Y-8355476D02*
X276429Y-8355476D01*
X257381Y-8365000D01*
X247857Y-8374524D01*
X228809Y-8403095D01*
X219286Y-8441190D01*
X219286Y-8517381D01*
X228809Y-8536429D01*
X238333Y-8545952D01*
X257381Y-8555476D01*
X295476Y-8555476D01*
X314524Y-8545952D01*
X324048Y-8536429D01*
X333571Y-8517381D01*
X333571Y-8469762D01*
X324048Y-8450714D01*
X314524Y-8441190D01*
X295476Y-8431667D01*
X257381Y-8431667D01*
X238333Y-8441190D01*
X228809Y-8450714D01*
X219286Y-8469762D01*
X409762Y-8374524D02*
X419286Y-8365000D01*
X438333Y-8355476D01*
X485952Y-8355476D01*
X505000Y-8365000D01*
X514524Y-8374524D01*
X524048Y-8393571D01*
X524048Y-8412619D01*
X514524Y-8441190D01*
X400238Y-8555476D01*
X524048Y-8555476D01*
X609762Y-8555476D02*
X609762Y-8422143D01*
X609762Y-8441190D02*
X619286Y-8431667D01*
X638333Y-8422143D01*
X666905Y-8422143D01*
X685952Y-8431667D01*
X695476Y-8450714D01*
X695476Y-8555476D01*
X695476Y-8450714D02*
X705000Y-8431667D01*
X724048Y-8422143D01*
X752619Y-8422143D01*
X771667Y-8431667D01*
X781190Y-8450714D01*
X781190Y-8555476D01*
X876428Y-8555476D02*
X876428Y-8422143D01*
X876428Y-8441190D02*
X885952Y-8431667D01*
X905000Y-8422143D01*
X933571Y-8422143D01*
X952619Y-8431667D01*
X962143Y-8450714D01*
X962143Y-8555476D01*
X962143Y-8450714D02*
X971667Y-8431667D01*
X990714Y-8422143D01*
X1019286Y-8422143D01*
X1038333Y-8431667D01*
X1047857Y-8450714D01*
X1047857Y-8555476D01*
X1438333Y-8345952D02*
X1266905Y-8603095D01*
X1695476Y-8355476D02*
X1714524Y-8355476D01*
X1733571Y-8365000D01*
X1743095Y-8374524D01*
X1752619Y-8393571D01*
X1762143Y-8431667D01*
X1762143Y-8479286D01*
X1752619Y-8517381D01*
X1743095Y-8536429D01*
X1733571Y-8545952D01*
X1714524Y-8555476D01*
X1695476Y-8555476D01*
X1676428Y-8545952D01*
X1666905Y-8536429D01*
X1657381Y-8517381D01*
X1647857Y-8479286D01*
X1647857Y-8431667D01*
X1657381Y-8393571D01*
X1666905Y-8374524D01*
X1676428Y-8365000D01*
X1695476Y-8355476D01*
X1847857Y-8536429D02*
X1857381Y-8545952D01*
X1847857Y-8555476D01*
X1838333Y-8545952D01*
X1847857Y-8536429D01*
X1847857Y-8555476D01*
X1981190Y-8355476D02*
X2000238Y-8355476D01*
X2019286Y-8365000D01*
X2028809Y-8374524D01*
X2038333Y-8393571D01*
X2047857Y-8431667D01*
X2047857Y-8479286D01*
X2038333Y-8517381D01*
X2028809Y-8536429D01*
X2019286Y-8545952D01*
X2000238Y-8555476D01*
X1981190Y-8555476D01*
X1962143Y-8545952D01*
X1952619Y-8536429D01*
X1943095Y-8517381D01*
X1933571Y-8479286D01*
X1933571Y-8431667D01*
X1943095Y-8393571D01*
X1952619Y-8374524D01*
X1962143Y-8365000D01*
X1981190Y-8355476D01*
X2114524Y-8355476D02*
X2238333Y-8355476D01*
X2171667Y-8431667D01*
X2200238Y-8431667D01*
X2219286Y-8441190D01*
X2228810Y-8450714D01*
X2238333Y-8469762D01*
X2238333Y-8517381D01*
X2228810Y-8536429D01*
X2219286Y-8545952D01*
X2200238Y-8555476D01*
X2143095Y-8555476D01*
X2124048Y-8545952D01*
X2114524Y-8536429D01*
X2362143Y-8355476D02*
X2381190Y-8355476D01*
X2400238Y-8365000D01*
X2409762Y-8374524D01*
X2419286Y-8393571D01*
X2428810Y-8431667D01*
X2428810Y-8479286D01*
X2419286Y-8517381D01*
X2409762Y-8536429D01*
X2400238Y-8545952D01*
X2381190Y-8555476D01*
X2362143Y-8555476D01*
X2343095Y-8545952D01*
X2333571Y-8536429D01*
X2324048Y-8517381D01*
X2314524Y-8479286D01*
X2314524Y-8431667D01*
X2324048Y-8393571D01*
X2333571Y-8374524D01*
X2343095Y-8365000D01*
X2362143Y-8355476D01*
X2552619Y-8355476D02*
X2571667Y-8355476D01*
X2590714Y-8365000D01*
X2600238Y-8374524D01*
X2609762Y-8393571D01*
X2619286Y-8431667D01*
X2619286Y-8479286D01*
X2609762Y-8517381D01*
X2600238Y-8536429D01*
X2590714Y-8545952D01*
X2571667Y-8555476D01*
X2552619Y-8555476D01*
X2533571Y-8545952D01*
X2524048Y-8536429D01*
X2514524Y-8517381D01*
X2505000Y-8479286D01*
X2505000Y-8431667D01*
X2514524Y-8393571D01*
X2524048Y-8374524D01*
X2533571Y-8365000D01*
X2552619Y-8355476D01*
X2695476Y-8355476D02*
X2695476Y-8393571D01*
X2771667Y-8355476D02*
X2771667Y-8393571D01*
X3066905Y-8631667D02*
X3057381Y-8622143D01*
X3038333Y-8593571D01*
X3028809Y-8574524D01*
X3019286Y-8545952D01*
X3009762Y-8498333D01*
X3009762Y-8460238D01*
X3019286Y-8412619D01*
X3028809Y-8384048D01*
X3038333Y-8365000D01*
X3057381Y-8336428D01*
X3066905Y-8326905D01*
X3228809Y-8355476D02*
X3190714Y-8355476D01*
X3171667Y-8365000D01*
X3162143Y-8374524D01*
X3143095Y-8403095D01*
X3133571Y-8441190D01*
X3133571Y-8517381D01*
X3143095Y-8536429D01*
X3152619Y-8545952D01*
X3171667Y-8555476D01*
X3209762Y-8555476D01*
X3228809Y-8545952D01*
X3238333Y-8536429D01*
X3247857Y-8517381D01*
X3247857Y-8469762D01*
X3238333Y-8450714D01*
X3228809Y-8441190D01*
X3209762Y-8431667D01*
X3171667Y-8431667D01*
X3152619Y-8441190D01*
X3143095Y-8450714D01*
X3133571Y-8469762D01*
X3485952Y-8555476D02*
X3485952Y-8355476D01*
X3571667Y-8555476D02*
X3571667Y-8450714D01*
X3562143Y-8431667D01*
X3543095Y-8422143D01*
X3514524Y-8422143D01*
X3495476Y-8431667D01*
X3485952Y-8441190D01*
X3695476Y-8555476D02*
X3676428Y-8545952D01*
X3666905Y-8536429D01*
X3657381Y-8517381D01*
X3657381Y-8460238D01*
X3666905Y-8441190D01*
X3676428Y-8431667D01*
X3695476Y-8422143D01*
X3724048Y-8422143D01*
X3743095Y-8431667D01*
X3752619Y-8441190D01*
X3762143Y-8460238D01*
X3762143Y-8517381D01*
X3752619Y-8536429D01*
X3743095Y-8545952D01*
X3724048Y-8555476D01*
X3695476Y-8555476D01*
X3876428Y-8555476D02*
X3857381Y-8545952D01*
X3847857Y-8526905D01*
X3847857Y-8355476D01*
X4028809Y-8545952D02*
X4009762Y-8555476D01*
X3971667Y-8555476D01*
X3952619Y-8545952D01*
X3943095Y-8526905D01*
X3943095Y-8450714D01*
X3952619Y-8431667D01*
X3971667Y-8422143D01*
X4009762Y-8422143D01*
X4028809Y-8431667D01*
X4038333Y-8450714D01*
X4038333Y-8469762D01*
X3943095Y-8488810D01*
X4114524Y-8545952D02*
X4133571Y-8555476D01*
X4171667Y-8555476D01*
X4190714Y-8545952D01*
X4200238Y-8526905D01*
X4200238Y-8517381D01*
X4190714Y-8498333D01*
X4171667Y-8488810D01*
X4143095Y-8488810D01*
X4124048Y-8479286D01*
X4114524Y-8460238D01*
X4114524Y-8450714D01*
X4124048Y-8431667D01*
X4143095Y-8422143D01*
X4171667Y-8422143D01*
X4190714Y-8431667D01*
X4266905Y-8631667D02*
X4276429Y-8622143D01*
X4295476Y-8593571D01*
X4305000Y-8574524D01*
X4314524Y-8545952D01*
X4324048Y-8498333D01*
X4324048Y-8460238D01*
X4314524Y-8412619D01*
X4305000Y-8384048D01*
X4295476Y-8365000D01*
X4276429Y-8336428D01*
X4266905Y-8326905D01*
D17*
X-585000Y-8689000D02*
X-505000Y-8769000D01*
X-505000Y-8689000D02*
X-585000Y-8769000D01*
X-545000Y-8689000D02*
X-545000Y-8769000D01*
X-585000Y-8729000D02*
X-505000Y-8729000D01*
D11*
X-209286Y-8619476D02*
X-190238Y-8619476D01*
X-171191Y-8629000D01*
X-161667Y-8638524D01*
X-152143Y-8657571D01*
X-142619Y-8695667D01*
X-142619Y-8743286D01*
X-152143Y-8781381D01*
X-161667Y-8800429D01*
X-171191Y-8809952D01*
X-190238Y-8819476D01*
X-209286Y-8819476D01*
X-228333Y-8809952D01*
X-237857Y-8800429D01*
X-247381Y-8781381D01*
X-256905Y-8743286D01*
X-256905Y-8695667D01*
X-247381Y-8657571D01*
X-237857Y-8638524D01*
X-228333Y-8629000D01*
X-209286Y-8619476D01*
X-56905Y-8800429D02*
X-47381Y-8809952D01*
X-56905Y-8819476D01*
X-66429Y-8809952D01*
X-56905Y-8800429D01*
X-56905Y-8819476D01*
X66905Y-8705190D02*
X47857Y-8695667D01*
X38333Y-8686143D01*
X28809Y-8667095D01*
X28809Y-8657571D01*
X38333Y-8638524D01*
X47857Y-8629000D01*
X66905Y-8619476D01*
X105000Y-8619476D01*
X124048Y-8629000D01*
X133571Y-8638524D01*
X143095Y-8657571D01*
X143095Y-8667095D01*
X133571Y-8686143D01*
X124048Y-8695667D01*
X105000Y-8705190D01*
X66905Y-8705190D01*
X47857Y-8714714D01*
X38333Y-8724238D01*
X28809Y-8743286D01*
X28809Y-8781381D01*
X38333Y-8800429D01*
X47857Y-8809952D01*
X66905Y-8819476D01*
X105000Y-8819476D01*
X124048Y-8809952D01*
X133571Y-8800429D01*
X143095Y-8781381D01*
X143095Y-8743286D01*
X133571Y-8724238D01*
X124048Y-8714714D01*
X105000Y-8705190D01*
X266905Y-8619476D02*
X285952Y-8619476D01*
X305000Y-8629000D01*
X314524Y-8638524D01*
X324048Y-8657571D01*
X333571Y-8695667D01*
X333571Y-8743286D01*
X324048Y-8781381D01*
X314524Y-8800429D01*
X305000Y-8809952D01*
X285952Y-8819476D01*
X266905Y-8819476D01*
X247857Y-8809952D01*
X238333Y-8800429D01*
X228809Y-8781381D01*
X219286Y-8743286D01*
X219286Y-8695667D01*
X228809Y-8657571D01*
X238333Y-8638524D01*
X247857Y-8629000D01*
X266905Y-8619476D01*
X457381Y-8619476D02*
X476428Y-8619476D01*
X495476Y-8629000D01*
X505000Y-8638524D01*
X514524Y-8657571D01*
X524048Y-8695667D01*
X524048Y-8743286D01*
X514524Y-8781381D01*
X505000Y-8800429D01*
X495476Y-8809952D01*
X476428Y-8819476D01*
X457381Y-8819476D01*
X438333Y-8809952D01*
X428809Y-8800429D01*
X419286Y-8781381D01*
X409762Y-8743286D01*
X409762Y-8695667D01*
X419286Y-8657571D01*
X428809Y-8638524D01*
X438333Y-8629000D01*
X457381Y-8619476D01*
X609762Y-8819476D02*
X609762Y-8686143D01*
X609762Y-8705190D02*
X619286Y-8695667D01*
X638333Y-8686143D01*
X666905Y-8686143D01*
X685952Y-8695667D01*
X695476Y-8714714D01*
X695476Y-8819476D01*
X695476Y-8714714D02*
X705000Y-8695667D01*
X724048Y-8686143D01*
X752619Y-8686143D01*
X771667Y-8695667D01*
X781190Y-8714714D01*
X781190Y-8819476D01*
X876428Y-8819476D02*
X876428Y-8686143D01*
X876428Y-8705190D02*
X885952Y-8695667D01*
X905000Y-8686143D01*
X933571Y-8686143D01*
X952619Y-8695667D01*
X962143Y-8714714D01*
X962143Y-8819476D01*
X962143Y-8714714D02*
X971667Y-8695667D01*
X990714Y-8686143D01*
X1019286Y-8686143D01*
X1038333Y-8695667D01*
X1047857Y-8714714D01*
X1047857Y-8819476D01*
X1438333Y-8609952D02*
X1266905Y-8867095D01*
X1695476Y-8619476D02*
X1714524Y-8619476D01*
X1733571Y-8629000D01*
X1743095Y-8638524D01*
X1752619Y-8657571D01*
X1762143Y-8695667D01*
X1762143Y-8743286D01*
X1752619Y-8781381D01*
X1743095Y-8800429D01*
X1733571Y-8809952D01*
X1714524Y-8819476D01*
X1695476Y-8819476D01*
X1676428Y-8809952D01*
X1666905Y-8800429D01*
X1657381Y-8781381D01*
X1647857Y-8743286D01*
X1647857Y-8695667D01*
X1657381Y-8657571D01*
X1666905Y-8638524D01*
X1676428Y-8629000D01*
X1695476Y-8619476D01*
X1847857Y-8800429D02*
X1857381Y-8809952D01*
X1847857Y-8819476D01*
X1838333Y-8809952D01*
X1847857Y-8800429D01*
X1847857Y-8819476D01*
X1981190Y-8619476D02*
X2000238Y-8619476D01*
X2019286Y-8629000D01*
X2028809Y-8638524D01*
X2038333Y-8657571D01*
X2047857Y-8695667D01*
X2047857Y-8743286D01*
X2038333Y-8781381D01*
X2028809Y-8800429D01*
X2019286Y-8809952D01*
X2000238Y-8819476D01*
X1981190Y-8819476D01*
X1962143Y-8809952D01*
X1952619Y-8800429D01*
X1943095Y-8781381D01*
X1933571Y-8743286D01*
X1933571Y-8695667D01*
X1943095Y-8657571D01*
X1952619Y-8638524D01*
X1962143Y-8629000D01*
X1981190Y-8619476D01*
X2114524Y-8619476D02*
X2238333Y-8619476D01*
X2171667Y-8695667D01*
X2200238Y-8695667D01*
X2219286Y-8705190D01*
X2228810Y-8714714D01*
X2238333Y-8733762D01*
X2238333Y-8781381D01*
X2228810Y-8800429D01*
X2219286Y-8809952D01*
X2200238Y-8819476D01*
X2143095Y-8819476D01*
X2124048Y-8809952D01*
X2114524Y-8800429D01*
X2428810Y-8819476D02*
X2314524Y-8819476D01*
X2371667Y-8819476D02*
X2371667Y-8619476D01*
X2352619Y-8648048D01*
X2333571Y-8667095D01*
X2314524Y-8676619D01*
X2609762Y-8619476D02*
X2514524Y-8619476D01*
X2505000Y-8714714D01*
X2514524Y-8705190D01*
X2533571Y-8695667D01*
X2581190Y-8695667D01*
X2600238Y-8705190D01*
X2609762Y-8714714D01*
X2619286Y-8733762D01*
X2619286Y-8781381D01*
X2609762Y-8800429D01*
X2600238Y-8809952D01*
X2581190Y-8819476D01*
X2533571Y-8819476D01*
X2514524Y-8809952D01*
X2505000Y-8800429D01*
X2695476Y-8619476D02*
X2695476Y-8657571D01*
X2771667Y-8619476D02*
X2771667Y-8657571D01*
X3066905Y-8895667D02*
X3057381Y-8886143D01*
X3038333Y-8857571D01*
X3028809Y-8838524D01*
X3019286Y-8809952D01*
X3009762Y-8762333D01*
X3009762Y-8724238D01*
X3019286Y-8676619D01*
X3028809Y-8648048D01*
X3038333Y-8629000D01*
X3057381Y-8600429D01*
X3066905Y-8590905D01*
X3228809Y-8619476D02*
X3190714Y-8619476D01*
X3171667Y-8629000D01*
X3162143Y-8638524D01*
X3143095Y-8667095D01*
X3133571Y-8705190D01*
X3133571Y-8781381D01*
X3143095Y-8800429D01*
X3152619Y-8809952D01*
X3171667Y-8819476D01*
X3209762Y-8819476D01*
X3228809Y-8809952D01*
X3238333Y-8800429D01*
X3247857Y-8781381D01*
X3247857Y-8733762D01*
X3238333Y-8714714D01*
X3228809Y-8705190D01*
X3209762Y-8695667D01*
X3171667Y-8695667D01*
X3152619Y-8705190D01*
X3143095Y-8714714D01*
X3133571Y-8733762D01*
X3485952Y-8819476D02*
X3485952Y-8619476D01*
X3571667Y-8819476D02*
X3571667Y-8714714D01*
X3562143Y-8695667D01*
X3543095Y-8686143D01*
X3514524Y-8686143D01*
X3495476Y-8695667D01*
X3485952Y-8705190D01*
X3695476Y-8819476D02*
X3676428Y-8809952D01*
X3666905Y-8800429D01*
X3657381Y-8781381D01*
X3657381Y-8724238D01*
X3666905Y-8705190D01*
X3676428Y-8695667D01*
X3695476Y-8686143D01*
X3724048Y-8686143D01*
X3743095Y-8695667D01*
X3752619Y-8705190D01*
X3762143Y-8724238D01*
X3762143Y-8781381D01*
X3752619Y-8800429D01*
X3743095Y-8809952D01*
X3724048Y-8819476D01*
X3695476Y-8819476D01*
X3876428Y-8819476D02*
X3857381Y-8809952D01*
X3847857Y-8790905D01*
X3847857Y-8619476D01*
X4028809Y-8809952D02*
X4009762Y-8819476D01*
X3971667Y-8819476D01*
X3952619Y-8809952D01*
X3943095Y-8790905D01*
X3943095Y-8714714D01*
X3952619Y-8695667D01*
X3971667Y-8686143D01*
X4009762Y-8686143D01*
X4028809Y-8695667D01*
X4038333Y-8714714D01*
X4038333Y-8733762D01*
X3943095Y-8752810D01*
X4114524Y-8809952D02*
X4133571Y-8819476D01*
X4171667Y-8819476D01*
X4190714Y-8809952D01*
X4200238Y-8790905D01*
X4200238Y-8781381D01*
X4190714Y-8762333D01*
X4171667Y-8752810D01*
X4143095Y-8752810D01*
X4124048Y-8743286D01*
X4114524Y-8724238D01*
X4114524Y-8714714D01*
X4124048Y-8695667D01*
X4143095Y-8686143D01*
X4171667Y-8686143D01*
X4190714Y-8695667D01*
X4266905Y-8895667D02*
X4276429Y-8886143D01*
X4295476Y-8857571D01*
X4305000Y-8838524D01*
X4314524Y-8809952D01*
X4324048Y-8762333D01*
X4324048Y-8724238D01*
X4314524Y-8676619D01*
X4305000Y-8648048D01*
X4295476Y-8629000D01*
X4276429Y-8600429D01*
X4266905Y-8590905D01*
D10*
X-605000Y-8943000D02*
X-505000Y-9043000D01*
X-505000Y-8943000D02*
X-605000Y-9043000D01*
X-519644Y-9028356D02*
X-519644Y-8957644D01*
X-590356Y-8957644D01*
X-590356Y-9028356D01*
X-519644Y-9028356D01*
D11*
X-142619Y-9083476D02*
X-256905Y-9083476D01*
X-199762Y-9083476D02*
X-199762Y-8883476D01*
X-218810Y-8912048D01*
X-237857Y-8931095D01*
X-256905Y-8940619D01*
X-56905Y-9064429D02*
X-47381Y-9073952D01*
X-56905Y-9083476D01*
X-66429Y-9073952D01*
X-56905Y-9064429D01*
X-56905Y-9083476D01*
X76429Y-8883476D02*
X95476Y-8883476D01*
X114524Y-8893000D01*
X124048Y-8902524D01*
X133571Y-8921571D01*
X143095Y-8959667D01*
X143095Y-9007286D01*
X133571Y-9045381D01*
X124048Y-9064429D01*
X114524Y-9073952D01*
X95476Y-9083476D01*
X76429Y-9083476D01*
X57381Y-9073952D01*
X47857Y-9064429D01*
X38333Y-9045381D01*
X28809Y-9007286D01*
X28809Y-8959667D01*
X38333Y-8921571D01*
X47857Y-8902524D01*
X57381Y-8893000D01*
X76429Y-8883476D01*
X266905Y-8883476D02*
X285952Y-8883476D01*
X305000Y-8893000D01*
X314524Y-8902524D01*
X324048Y-8921571D01*
X333571Y-8959667D01*
X333571Y-9007286D01*
X324048Y-9045381D01*
X314524Y-9064429D01*
X305000Y-9073952D01*
X285952Y-9083476D01*
X266905Y-9083476D01*
X247857Y-9073952D01*
X238333Y-9064429D01*
X228809Y-9045381D01*
X219286Y-9007286D01*
X219286Y-8959667D01*
X228809Y-8921571D01*
X238333Y-8902524D01*
X247857Y-8893000D01*
X266905Y-8883476D01*
X457381Y-8883476D02*
X476428Y-8883476D01*
X495476Y-8893000D01*
X505000Y-8902524D01*
X514524Y-8921571D01*
X524048Y-8959667D01*
X524048Y-9007286D01*
X514524Y-9045381D01*
X505000Y-9064429D01*
X495476Y-9073952D01*
X476428Y-9083476D01*
X457381Y-9083476D01*
X438333Y-9073952D01*
X428809Y-9064429D01*
X419286Y-9045381D01*
X409762Y-9007286D01*
X409762Y-8959667D01*
X419286Y-8921571D01*
X428809Y-8902524D01*
X438333Y-8893000D01*
X457381Y-8883476D01*
X609762Y-9083476D02*
X609762Y-8950143D01*
X609762Y-8969190D02*
X619286Y-8959667D01*
X638333Y-8950143D01*
X666905Y-8950143D01*
X685952Y-8959667D01*
X695476Y-8978714D01*
X695476Y-9083476D01*
X695476Y-8978714D02*
X705000Y-8959667D01*
X724048Y-8950143D01*
X752619Y-8950143D01*
X771667Y-8959667D01*
X781190Y-8978714D01*
X781190Y-9083476D01*
X876428Y-9083476D02*
X876428Y-8950143D01*
X876428Y-8969190D02*
X885952Y-8959667D01*
X905000Y-8950143D01*
X933571Y-8950143D01*
X952619Y-8959667D01*
X962143Y-8978714D01*
X962143Y-9083476D01*
X962143Y-8978714D02*
X971667Y-8959667D01*
X990714Y-8950143D01*
X1019286Y-8950143D01*
X1038333Y-8959667D01*
X1047857Y-8978714D01*
X1047857Y-9083476D01*
X1438333Y-8873952D02*
X1266905Y-9131095D01*
X1695476Y-8883476D02*
X1714524Y-8883476D01*
X1733571Y-8893000D01*
X1743095Y-8902524D01*
X1752619Y-8921571D01*
X1762143Y-8959667D01*
X1762143Y-9007286D01*
X1752619Y-9045381D01*
X1743095Y-9064429D01*
X1733571Y-9073952D01*
X1714524Y-9083476D01*
X1695476Y-9083476D01*
X1676428Y-9073952D01*
X1666905Y-9064429D01*
X1657381Y-9045381D01*
X1647857Y-9007286D01*
X1647857Y-8959667D01*
X1657381Y-8921571D01*
X1666905Y-8902524D01*
X1676428Y-8893000D01*
X1695476Y-8883476D01*
X1847857Y-9064429D02*
X1857381Y-9073952D01*
X1847857Y-9083476D01*
X1838333Y-9073952D01*
X1847857Y-9064429D01*
X1847857Y-9083476D01*
X1981190Y-8883476D02*
X2000238Y-8883476D01*
X2019286Y-8893000D01*
X2028809Y-8902524D01*
X2038333Y-8921571D01*
X2047857Y-8959667D01*
X2047857Y-9007286D01*
X2038333Y-9045381D01*
X2028809Y-9064429D01*
X2019286Y-9073952D01*
X2000238Y-9083476D01*
X1981190Y-9083476D01*
X1962143Y-9073952D01*
X1952619Y-9064429D01*
X1943095Y-9045381D01*
X1933571Y-9007286D01*
X1933571Y-8959667D01*
X1943095Y-8921571D01*
X1952619Y-8902524D01*
X1962143Y-8893000D01*
X1981190Y-8883476D01*
X2114524Y-8883476D02*
X2238333Y-8883476D01*
X2171667Y-8959667D01*
X2200238Y-8959667D01*
X2219286Y-8969190D01*
X2228810Y-8978714D01*
X2238333Y-8997762D01*
X2238333Y-9045381D01*
X2228810Y-9064429D01*
X2219286Y-9073952D01*
X2200238Y-9083476D01*
X2143095Y-9083476D01*
X2124048Y-9073952D01*
X2114524Y-9064429D01*
X2333571Y-9083476D02*
X2371667Y-9083476D01*
X2390714Y-9073952D01*
X2400238Y-9064429D01*
X2419286Y-9035857D01*
X2428810Y-8997762D01*
X2428810Y-8921571D01*
X2419286Y-8902524D01*
X2409762Y-8893000D01*
X2390714Y-8883476D01*
X2352619Y-8883476D01*
X2333571Y-8893000D01*
X2324048Y-8902524D01*
X2314524Y-8921571D01*
X2314524Y-8969190D01*
X2324048Y-8988238D01*
X2333571Y-8997762D01*
X2352619Y-9007286D01*
X2390714Y-9007286D01*
X2409762Y-8997762D01*
X2419286Y-8988238D01*
X2428810Y-8969190D01*
X2600238Y-8950143D02*
X2600238Y-9083476D01*
X2552619Y-8873952D02*
X2505000Y-9016810D01*
X2628810Y-9016810D01*
X2695476Y-8883476D02*
X2695476Y-8921571D01*
X2771667Y-8883476D02*
X2771667Y-8921571D01*
X3066905Y-9159667D02*
X3057381Y-9150143D01*
X3038333Y-9121571D01*
X3028809Y-9102524D01*
X3019286Y-9073952D01*
X3009762Y-9026333D01*
X3009762Y-8988238D01*
X3019286Y-8940619D01*
X3028809Y-8912048D01*
X3038333Y-8893000D01*
X3057381Y-8864429D01*
X3066905Y-8854905D01*
X3133571Y-8902524D02*
X3143095Y-8893000D01*
X3162143Y-8883476D01*
X3209762Y-8883476D01*
X3228809Y-8893000D01*
X3238333Y-8902524D01*
X3247857Y-8921571D01*
X3247857Y-8940619D01*
X3238333Y-8969190D01*
X3124048Y-9083476D01*
X3247857Y-9083476D01*
X3371667Y-8883476D02*
X3390714Y-8883476D01*
X3409762Y-8893000D01*
X3419286Y-8902524D01*
X3428809Y-8921571D01*
X3438333Y-8959667D01*
X3438333Y-9007286D01*
X3428809Y-9045381D01*
X3419286Y-9064429D01*
X3409762Y-9073952D01*
X3390714Y-9083476D01*
X3371667Y-9083476D01*
X3352619Y-9073952D01*
X3343095Y-9064429D01*
X3333571Y-9045381D01*
X3324048Y-9007286D01*
X3324048Y-8959667D01*
X3333571Y-8921571D01*
X3343095Y-8902524D01*
X3352619Y-8893000D01*
X3371667Y-8883476D01*
X3676428Y-9083476D02*
X3676428Y-8883476D01*
X3762143Y-9083476D02*
X3762143Y-8978714D01*
X3752619Y-8959667D01*
X3733571Y-8950143D01*
X3705000Y-8950143D01*
X3685952Y-8959667D01*
X3676428Y-8969190D01*
X3885952Y-9083476D02*
X3866905Y-9073952D01*
X3857381Y-9064429D01*
X3847857Y-9045381D01*
X3847857Y-8988238D01*
X3857381Y-8969190D01*
X3866905Y-8959667D01*
X3885952Y-8950143D01*
X3914524Y-8950143D01*
X3933571Y-8959667D01*
X3943095Y-8969190D01*
X3952619Y-8988238D01*
X3952619Y-9045381D01*
X3943095Y-9064429D01*
X3933571Y-9073952D01*
X3914524Y-9083476D01*
X3885952Y-9083476D01*
X4066905Y-9083476D02*
X4047857Y-9073952D01*
X4038333Y-9054905D01*
X4038333Y-8883476D01*
X4219286Y-9073952D02*
X4200238Y-9083476D01*
X4162143Y-9083476D01*
X4143095Y-9073952D01*
X4133571Y-9054905D01*
X4133571Y-8978714D01*
X4143095Y-8959667D01*
X4162143Y-8950143D01*
X4200238Y-8950143D01*
X4219286Y-8959667D01*
X4228810Y-8978714D01*
X4228810Y-8997762D01*
X4133571Y-9016810D01*
X4305000Y-9073952D02*
X4324048Y-9083476D01*
X4362143Y-9083476D01*
X4381190Y-9073952D01*
X4390714Y-9054905D01*
X4390714Y-9045381D01*
X4381190Y-9026333D01*
X4362143Y-9016810D01*
X4333571Y-9016810D01*
X4314524Y-9007286D01*
X4305000Y-8988238D01*
X4305000Y-8978714D01*
X4314524Y-8959667D01*
X4333571Y-8950143D01*
X4362143Y-8950143D01*
X4381190Y-8959667D01*
X4457381Y-9159667D02*
X4466905Y-9150143D01*
X4485952Y-9121571D01*
X4495476Y-9102524D01*
X4505000Y-9073952D01*
X4514524Y-9026333D01*
X4514524Y-8988238D01*
X4505000Y-8940619D01*
X4495476Y-8912048D01*
X4485952Y-8893000D01*
X4466905Y-8864429D01*
X4457381Y-8854905D01*
D18*
X-615000Y-9202000D02*
X-505000Y-9312000D01*
X-505000Y-9202000D02*
X-615000Y-9312000D01*
X-560000Y-9312000D02*
X-505000Y-9257000D01*
X-560000Y-9202000D01*
X-615000Y-9257000D01*
X-560000Y-9312000D01*
D11*
X-142619Y-9347476D02*
X-256905Y-9347476D01*
X-199762Y-9347476D02*
X-199762Y-9147476D01*
X-218810Y-9176048D01*
X-237857Y-9195095D01*
X-256905Y-9204619D01*
X-56905Y-9328429D02*
X-47381Y-9337952D01*
X-56905Y-9347476D01*
X-66429Y-9337952D01*
X-56905Y-9328429D01*
X-56905Y-9347476D01*
X143095Y-9347476D02*
X28809Y-9347476D01*
X85952Y-9347476D02*
X85952Y-9147476D01*
X66905Y-9176048D01*
X47857Y-9195095D01*
X28809Y-9204619D01*
X266905Y-9147476D02*
X285952Y-9147476D01*
X305000Y-9157000D01*
X314524Y-9166524D01*
X324048Y-9185571D01*
X333571Y-9223667D01*
X333571Y-9271286D01*
X324048Y-9309381D01*
X314524Y-9328429D01*
X305000Y-9337952D01*
X285952Y-9347476D01*
X266905Y-9347476D01*
X247857Y-9337952D01*
X238333Y-9328429D01*
X228809Y-9309381D01*
X219286Y-9271286D01*
X219286Y-9223667D01*
X228809Y-9185571D01*
X238333Y-9166524D01*
X247857Y-9157000D01*
X266905Y-9147476D01*
X457381Y-9147476D02*
X476428Y-9147476D01*
X495476Y-9157000D01*
X505000Y-9166524D01*
X514524Y-9185571D01*
X524048Y-9223667D01*
X524048Y-9271286D01*
X514524Y-9309381D01*
X505000Y-9328429D01*
X495476Y-9337952D01*
X476428Y-9347476D01*
X457381Y-9347476D01*
X438333Y-9337952D01*
X428809Y-9328429D01*
X419286Y-9309381D01*
X409762Y-9271286D01*
X409762Y-9223667D01*
X419286Y-9185571D01*
X428809Y-9166524D01*
X438333Y-9157000D01*
X457381Y-9147476D01*
X609762Y-9347476D02*
X609762Y-9214143D01*
X609762Y-9233190D02*
X619286Y-9223667D01*
X638333Y-9214143D01*
X666905Y-9214143D01*
X685952Y-9223667D01*
X695476Y-9242714D01*
X695476Y-9347476D01*
X695476Y-9242714D02*
X705000Y-9223667D01*
X724048Y-9214143D01*
X752619Y-9214143D01*
X771667Y-9223667D01*
X781190Y-9242714D01*
X781190Y-9347476D01*
X876428Y-9347476D02*
X876428Y-9214143D01*
X876428Y-9233190D02*
X885952Y-9223667D01*
X905000Y-9214143D01*
X933571Y-9214143D01*
X952619Y-9223667D01*
X962143Y-9242714D01*
X962143Y-9347476D01*
X962143Y-9242714D02*
X971667Y-9223667D01*
X990714Y-9214143D01*
X1019286Y-9214143D01*
X1038333Y-9223667D01*
X1047857Y-9242714D01*
X1047857Y-9347476D01*
X1438333Y-9137952D02*
X1266905Y-9395095D01*
X1695476Y-9147476D02*
X1714524Y-9147476D01*
X1733571Y-9157000D01*
X1743095Y-9166524D01*
X1752619Y-9185571D01*
X1762143Y-9223667D01*
X1762143Y-9271286D01*
X1752619Y-9309381D01*
X1743095Y-9328429D01*
X1733571Y-9337952D01*
X1714524Y-9347476D01*
X1695476Y-9347476D01*
X1676428Y-9337952D01*
X1666905Y-9328429D01*
X1657381Y-9309381D01*
X1647857Y-9271286D01*
X1647857Y-9223667D01*
X1657381Y-9185571D01*
X1666905Y-9166524D01*
X1676428Y-9157000D01*
X1695476Y-9147476D01*
X1847857Y-9328429D02*
X1857381Y-9337952D01*
X1847857Y-9347476D01*
X1838333Y-9337952D01*
X1847857Y-9328429D01*
X1847857Y-9347476D01*
X1981190Y-9147476D02*
X2000238Y-9147476D01*
X2019286Y-9157000D01*
X2028809Y-9166524D01*
X2038333Y-9185571D01*
X2047857Y-9223667D01*
X2047857Y-9271286D01*
X2038333Y-9309381D01*
X2028809Y-9328429D01*
X2019286Y-9337952D01*
X2000238Y-9347476D01*
X1981190Y-9347476D01*
X1962143Y-9337952D01*
X1952619Y-9328429D01*
X1943095Y-9309381D01*
X1933571Y-9271286D01*
X1933571Y-9223667D01*
X1943095Y-9185571D01*
X1952619Y-9166524D01*
X1962143Y-9157000D01*
X1981190Y-9147476D01*
X2219286Y-9214143D02*
X2219286Y-9347476D01*
X2171667Y-9137952D02*
X2124048Y-9280810D01*
X2247857Y-9280810D01*
X2305000Y-9147476D02*
X2428810Y-9147476D01*
X2362143Y-9223667D01*
X2390714Y-9223667D01*
X2409762Y-9233190D01*
X2419286Y-9242714D01*
X2428810Y-9261762D01*
X2428810Y-9309381D01*
X2419286Y-9328429D01*
X2409762Y-9337952D01*
X2390714Y-9347476D01*
X2333571Y-9347476D01*
X2314524Y-9337952D01*
X2305000Y-9328429D01*
X2495476Y-9147476D02*
X2619286Y-9147476D01*
X2552619Y-9223667D01*
X2581190Y-9223667D01*
X2600238Y-9233190D01*
X2609762Y-9242714D01*
X2619286Y-9261762D01*
X2619286Y-9309381D01*
X2609762Y-9328429D01*
X2600238Y-9337952D01*
X2581190Y-9347476D01*
X2524048Y-9347476D01*
X2505000Y-9337952D01*
X2495476Y-9328429D01*
X2695476Y-9147476D02*
X2695476Y-9185571D01*
X2771667Y-9147476D02*
X2771667Y-9185571D01*
X3066905Y-9423667D02*
X3057381Y-9414143D01*
X3038333Y-9385571D01*
X3028809Y-9366524D01*
X3019286Y-9337952D01*
X3009762Y-9290333D01*
X3009762Y-9252238D01*
X3019286Y-9204619D01*
X3028809Y-9176048D01*
X3038333Y-9157000D01*
X3057381Y-9128429D01*
X3066905Y-9118905D01*
X3228809Y-9214143D02*
X3228809Y-9347476D01*
X3181190Y-9137952D02*
X3133571Y-9280810D01*
X3257381Y-9280810D01*
X3485952Y-9347476D02*
X3485952Y-9147476D01*
X3571667Y-9347476D02*
X3571667Y-9242714D01*
X3562143Y-9223667D01*
X3543095Y-9214143D01*
X3514524Y-9214143D01*
X3495476Y-9223667D01*
X3485952Y-9233190D01*
X3695476Y-9347476D02*
X3676428Y-9337952D01*
X3666905Y-9328429D01*
X3657381Y-9309381D01*
X3657381Y-9252238D01*
X3666905Y-9233190D01*
X3676428Y-9223667D01*
X3695476Y-9214143D01*
X3724048Y-9214143D01*
X3743095Y-9223667D01*
X3752619Y-9233190D01*
X3762143Y-9252238D01*
X3762143Y-9309381D01*
X3752619Y-9328429D01*
X3743095Y-9337952D01*
X3724048Y-9347476D01*
X3695476Y-9347476D01*
X3876428Y-9347476D02*
X3857381Y-9337952D01*
X3847857Y-9318905D01*
X3847857Y-9147476D01*
X4028809Y-9337952D02*
X4009762Y-9347476D01*
X3971667Y-9347476D01*
X3952619Y-9337952D01*
X3943095Y-9318905D01*
X3943095Y-9242714D01*
X3952619Y-9223667D01*
X3971667Y-9214143D01*
X4009762Y-9214143D01*
X4028809Y-9223667D01*
X4038333Y-9242714D01*
X4038333Y-9261762D01*
X3943095Y-9280810D01*
X4114524Y-9337952D02*
X4133571Y-9347476D01*
X4171667Y-9347476D01*
X4190714Y-9337952D01*
X4200238Y-9318905D01*
X4200238Y-9309381D01*
X4190714Y-9290333D01*
X4171667Y-9280810D01*
X4143095Y-9280810D01*
X4124048Y-9271286D01*
X4114524Y-9252238D01*
X4114524Y-9242714D01*
X4124048Y-9223667D01*
X4143095Y-9214143D01*
X4171667Y-9214143D01*
X4190714Y-9223667D01*
X4266905Y-9423667D02*
X4276429Y-9414143D01*
X4295476Y-9385571D01*
X4305000Y-9366524D01*
X4314524Y-9337952D01*
X4324048Y-9290333D01*
X4324048Y-9252238D01*
X4314524Y-9204619D01*
X4305000Y-9176048D01*
X4295476Y-9157000D01*
X4276429Y-9128429D01*
X4266905Y-9118905D01*
X-605000Y-9421000D02*
X-605000Y-9621000D01*
X-705000Y-9521000D02*
X-505000Y-9521000D01*
X-505000Y-9521000D02*
G75*
G03*
X-505000Y-9521000I-100000J0D01*
G01*
X-266429Y-9411476D02*
X-142619Y-9411476D01*
X-209286Y-9487667D01*
X-180714Y-9487667D01*
X-161667Y-9497190D01*
X-152143Y-9506714D01*
X-142619Y-9525762D01*
X-142619Y-9573381D01*
X-152143Y-9592429D01*
X-161667Y-9601952D01*
X-180714Y-9611476D01*
X-237857Y-9611476D01*
X-256905Y-9601952D01*
X-266429Y-9592429D01*
X-56905Y-9592429D02*
X-47381Y-9601952D01*
X-56905Y-9611476D01*
X-66429Y-9601952D01*
X-56905Y-9592429D01*
X-56905Y-9611476D01*
X28809Y-9430524D02*
X38333Y-9421000D01*
X57381Y-9411476D01*
X105000Y-9411476D01*
X124048Y-9421000D01*
X133571Y-9430524D01*
X143095Y-9449571D01*
X143095Y-9468619D01*
X133571Y-9497190D01*
X19286Y-9611476D01*
X143095Y-9611476D01*
X266905Y-9411476D02*
X285952Y-9411476D01*
X305000Y-9421000D01*
X314524Y-9430524D01*
X324048Y-9449571D01*
X333571Y-9487667D01*
X333571Y-9535286D01*
X324048Y-9573381D01*
X314524Y-9592429D01*
X305000Y-9601952D01*
X285952Y-9611476D01*
X266905Y-9611476D01*
X247857Y-9601952D01*
X238333Y-9592429D01*
X228809Y-9573381D01*
X219286Y-9535286D01*
X219286Y-9487667D01*
X228809Y-9449571D01*
X238333Y-9430524D01*
X247857Y-9421000D01*
X266905Y-9411476D01*
X457381Y-9411476D02*
X476428Y-9411476D01*
X495476Y-9421000D01*
X505000Y-9430524D01*
X514524Y-9449571D01*
X524048Y-9487667D01*
X524048Y-9535286D01*
X514524Y-9573381D01*
X505000Y-9592429D01*
X495476Y-9601952D01*
X476428Y-9611476D01*
X457381Y-9611476D01*
X438333Y-9601952D01*
X428809Y-9592429D01*
X419286Y-9573381D01*
X409762Y-9535286D01*
X409762Y-9487667D01*
X419286Y-9449571D01*
X428809Y-9430524D01*
X438333Y-9421000D01*
X457381Y-9411476D01*
X609762Y-9611476D02*
X609762Y-9478143D01*
X609762Y-9497190D02*
X619286Y-9487667D01*
X638333Y-9478143D01*
X666905Y-9478143D01*
X685952Y-9487667D01*
X695476Y-9506714D01*
X695476Y-9611476D01*
X695476Y-9506714D02*
X705000Y-9487667D01*
X724048Y-9478143D01*
X752619Y-9478143D01*
X771667Y-9487667D01*
X781190Y-9506714D01*
X781190Y-9611476D01*
X876428Y-9611476D02*
X876428Y-9478143D01*
X876428Y-9497190D02*
X885952Y-9487667D01*
X905000Y-9478143D01*
X933571Y-9478143D01*
X952619Y-9487667D01*
X962143Y-9506714D01*
X962143Y-9611476D01*
X962143Y-9506714D02*
X971667Y-9487667D01*
X990714Y-9478143D01*
X1019286Y-9478143D01*
X1038333Y-9487667D01*
X1047857Y-9506714D01*
X1047857Y-9611476D01*
X1438333Y-9401952D02*
X1266905Y-9659095D01*
X1695476Y-9411476D02*
X1714524Y-9411476D01*
X1733571Y-9421000D01*
X1743095Y-9430524D01*
X1752619Y-9449571D01*
X1762143Y-9487667D01*
X1762143Y-9535286D01*
X1752619Y-9573381D01*
X1743095Y-9592429D01*
X1733571Y-9601952D01*
X1714524Y-9611476D01*
X1695476Y-9611476D01*
X1676428Y-9601952D01*
X1666905Y-9592429D01*
X1657381Y-9573381D01*
X1647857Y-9535286D01*
X1647857Y-9487667D01*
X1657381Y-9449571D01*
X1666905Y-9430524D01*
X1676428Y-9421000D01*
X1695476Y-9411476D01*
X1847857Y-9592429D02*
X1857381Y-9601952D01*
X1847857Y-9611476D01*
X1838333Y-9601952D01*
X1847857Y-9592429D01*
X1847857Y-9611476D01*
X2047857Y-9611476D02*
X1933571Y-9611476D01*
X1990714Y-9611476D02*
X1990714Y-9411476D01*
X1971667Y-9440048D01*
X1952619Y-9459095D01*
X1933571Y-9468619D01*
X2124048Y-9430524D02*
X2133571Y-9421000D01*
X2152619Y-9411476D01*
X2200238Y-9411476D01*
X2219286Y-9421000D01*
X2228810Y-9430524D01*
X2238333Y-9449571D01*
X2238333Y-9468619D01*
X2228810Y-9497190D01*
X2114524Y-9611476D01*
X2238333Y-9611476D01*
X2409762Y-9411476D02*
X2371667Y-9411476D01*
X2352619Y-9421000D01*
X2343095Y-9430524D01*
X2324048Y-9459095D01*
X2314524Y-9497190D01*
X2314524Y-9573381D01*
X2324048Y-9592429D01*
X2333571Y-9601952D01*
X2352619Y-9611476D01*
X2390714Y-9611476D01*
X2409762Y-9601952D01*
X2419286Y-9592429D01*
X2428810Y-9573381D01*
X2428810Y-9525762D01*
X2419286Y-9506714D01*
X2409762Y-9497190D01*
X2390714Y-9487667D01*
X2352619Y-9487667D01*
X2333571Y-9497190D01*
X2324048Y-9506714D01*
X2314524Y-9525762D01*
X2552619Y-9411476D02*
X2571667Y-9411476D01*
X2590714Y-9421000D01*
X2600238Y-9430524D01*
X2609762Y-9449571D01*
X2619286Y-9487667D01*
X2619286Y-9535286D01*
X2609762Y-9573381D01*
X2600238Y-9592429D01*
X2590714Y-9601952D01*
X2571667Y-9611476D01*
X2552619Y-9611476D01*
X2533571Y-9601952D01*
X2524048Y-9592429D01*
X2514524Y-9573381D01*
X2505000Y-9535286D01*
X2505000Y-9487667D01*
X2514524Y-9449571D01*
X2524048Y-9430524D01*
X2533571Y-9421000D01*
X2552619Y-9411476D01*
X2695476Y-9411476D02*
X2695476Y-9449571D01*
X2771667Y-9411476D02*
X2771667Y-9449571D01*
X3066905Y-9687667D02*
X3057381Y-9678143D01*
X3038333Y-9649571D01*
X3028809Y-9630524D01*
X3019286Y-9601952D01*
X3009762Y-9554333D01*
X3009762Y-9516238D01*
X3019286Y-9468619D01*
X3028809Y-9440048D01*
X3038333Y-9421000D01*
X3057381Y-9392429D01*
X3066905Y-9382905D01*
X3228809Y-9478143D02*
X3228809Y-9611476D01*
X3181190Y-9401952D02*
X3133571Y-9544810D01*
X3257381Y-9544810D01*
X3485952Y-9611476D02*
X3485952Y-9411476D01*
X3571667Y-9611476D02*
X3571667Y-9506714D01*
X3562143Y-9487667D01*
X3543095Y-9478143D01*
X3514524Y-9478143D01*
X3495476Y-9487667D01*
X3485952Y-9497190D01*
X3695476Y-9611476D02*
X3676428Y-9601952D01*
X3666905Y-9592429D01*
X3657381Y-9573381D01*
X3657381Y-9516238D01*
X3666905Y-9497190D01*
X3676428Y-9487667D01*
X3695476Y-9478143D01*
X3724048Y-9478143D01*
X3743095Y-9487667D01*
X3752619Y-9497190D01*
X3762143Y-9516238D01*
X3762143Y-9573381D01*
X3752619Y-9592429D01*
X3743095Y-9601952D01*
X3724048Y-9611476D01*
X3695476Y-9611476D01*
X3876428Y-9611476D02*
X3857381Y-9601952D01*
X3847857Y-9582905D01*
X3847857Y-9411476D01*
X4028809Y-9601952D02*
X4009762Y-9611476D01*
X3971667Y-9611476D01*
X3952619Y-9601952D01*
X3943095Y-9582905D01*
X3943095Y-9506714D01*
X3952619Y-9487667D01*
X3971667Y-9478143D01*
X4009762Y-9478143D01*
X4028809Y-9487667D01*
X4038333Y-9506714D01*
X4038333Y-9525762D01*
X3943095Y-9544810D01*
X4114524Y-9601952D02*
X4133571Y-9611476D01*
X4171667Y-9611476D01*
X4190714Y-9601952D01*
X4200238Y-9582905D01*
X4200238Y-9573381D01*
X4190714Y-9554333D01*
X4171667Y-9544810D01*
X4143095Y-9544810D01*
X4124048Y-9535286D01*
X4114524Y-9516238D01*
X4114524Y-9506714D01*
X4124048Y-9487667D01*
X4143095Y-9478143D01*
X4171667Y-9478143D01*
X4190714Y-9487667D01*
X4266905Y-9687667D02*
X4276429Y-9678143D01*
X4295476Y-9649571D01*
X4305000Y-9630524D01*
X4314524Y-9601952D01*
X4324048Y-9554333D01*
X4324048Y-9516238D01*
X4314524Y-9468619D01*
X4305000Y-9440048D01*
X4295476Y-9421000D01*
X4276429Y-9392429D01*
X4266905Y-9382905D01*
M02*
