%TF.GenerationSoftware,KiCad,Pcbnew,(6.0.10)*%
%TF.CreationDate,2023-01-06T19:17:38-08:00*%
%TF.ProjectId,ai-camera,61692d63-616d-4657-9261-2e6b69636164,rev?*%
%TF.SameCoordinates,PX5f5e100PY2faf080*%
%TF.FileFunction,Legend,Top*%
%TF.FilePolarity,Positive*%
%FSLAX46Y46*%
G04 Gerber Fmt 4.6, Leading zero omitted, Abs format (unit mm)*
G04 Created by KiCad (PCBNEW (6.0.10)) date 2023-01-06 19:17:38*
%MOMM*%
%LPD*%
G01*
G04 APERTURE LIST*
G04 Aperture macros list*
%AMRoundRect*
0 Rectangle with rounded corners*
0 $1 Rounding radius*
0 $2 $3 $4 $5 $6 $7 $8 $9 X,Y pos of 4 corners*
0 Add a 4 corners polygon primitive as box body*
4,1,4,$2,$3,$4,$5,$6,$7,$8,$9,$2,$3,0*
0 Add four circle primitives for the rounded corners*
1,1,$1+$1,$2,$3*
1,1,$1+$1,$4,$5*
1,1,$1+$1,$6,$7*
1,1,$1+$1,$8,$9*
0 Add four rect primitives between the rounded corners*
20,1,$1+$1,$2,$3,$4,$5,0*
20,1,$1+$1,$4,$5,$6,$7,0*
20,1,$1+$1,$6,$7,$8,$9,0*
20,1,$1+$1,$8,$9,$2,$3,0*%
G04 Aperture macros list end*
%ADD10C,0.177800*%
%ADD11C,0.150000*%
%ADD12C,0.120000*%
%ADD13C,0.100000*%
%ADD14C,5.600000*%
%ADD15C,3.600000*%
%ADD16C,1.500000*%
%ADD17C,4.000000*%
%ADD18RoundRect,0.135000X-0.185000X0.135000X-0.185000X-0.135000X0.185000X-0.135000X0.185000X0.135000X0*%
%ADD19R,1.000000X1.700000*%
%ADD20RoundRect,0.250000X0.450000X-0.325000X0.450000X0.325000X-0.450000X0.325000X-0.450000X-0.325000X0*%
%ADD21RoundRect,0.140000X0.140000X0.170000X-0.140000X0.170000X-0.140000X-0.170000X0.140000X-0.170000X0*%
%ADD22RoundRect,0.218750X0.218750X0.256250X-0.218750X0.256250X-0.218750X-0.256250X0.218750X-0.256250X0*%
%ADD23RoundRect,0.135000X-0.135000X-0.185000X0.135000X-0.185000X0.135000X0.185000X-0.135000X0.185000X0*%
%ADD24RoundRect,0.218750X-0.218750X-0.256250X0.218750X-0.256250X0.218750X0.256250X-0.218750X0.256250X0*%
%ADD25C,1.700000*%
%ADD26RoundRect,0.250000X-0.625000X0.350000X-0.625000X-0.350000X0.625000X-0.350000X0.625000X0.350000X0*%
%ADD27O,1.750000X1.200000*%
%ADD28RoundRect,0.140000X-0.140000X-0.170000X0.140000X-0.170000X0.140000X0.170000X-0.140000X0.170000X0*%
%ADD29RoundRect,0.075000X0.512500X0.075000X-0.512500X0.075000X-0.512500X-0.075000X0.512500X-0.075000X0*%
%ADD30RoundRect,0.150000X0.150000X-0.512500X0.150000X0.512500X-0.150000X0.512500X-0.150000X-0.512500X0*%
%ADD31RoundRect,0.140000X-0.170000X0.140000X-0.170000X-0.140000X0.170000X-0.140000X0.170000X0.140000X0*%
%ADD32C,1.440000*%
%ADD33R,0.300000X1.300000*%
%ADD34R,1.800000X2.200000*%
%ADD35RoundRect,0.135000X0.185000X-0.135000X0.185000X0.135000X-0.185000X0.135000X-0.185000X-0.135000X0*%
%ADD36C,0.800000*%
%ADD37R,1.350000X0.400000*%
%ADD38R,1.550000X1.500000*%
%ADD39R,1.550000X1.200000*%
%ADD40O,1.550000X0.890000*%
%ADD41O,0.950000X1.250000*%
%ADD42R,1.700000X1.700000*%
%ADD43O,1.700000X1.700000*%
%ADD44RoundRect,0.135000X0.135000X0.185000X-0.135000X0.185000X-0.135000X-0.185000X0.135000X-0.185000X0*%
%ADD45RoundRect,0.150000X0.587500X0.150000X-0.587500X0.150000X-0.587500X-0.150000X0.587500X-0.150000X0*%
%ADD46R,1.524000X1.524000*%
%ADD47C,1.524000*%
%ADD48C,0.990600*%
%ADD49C,0.787400*%
%ADD50C,0.600000*%
G04 APERTURE END LIST*
D10*
X56388000Y-7112000D02*
X56388000Y-24384000D01*
X56388000Y-24384000D02*
X55880000Y-24384000D01*
X55880000Y-29464000D02*
X56388000Y-29464000D01*
X55880000Y-7112000D02*
X56388000Y-7112000D01*
D11*
X63936571Y-20356928D02*
X63984190Y-20271214D01*
X64031809Y-20242642D01*
X64127047Y-20214071D01*
X64269904Y-20214071D01*
X64365142Y-20242642D01*
X64412761Y-20271214D01*
X64460380Y-20328357D01*
X64460380Y-20556928D01*
X63460380Y-20556928D01*
X63460380Y-20356928D01*
X63508000Y-20299785D01*
X63555619Y-20271214D01*
X63650857Y-20242642D01*
X63746095Y-20242642D01*
X63841333Y-20271214D01*
X63888952Y-20299785D01*
X63936571Y-20356928D01*
X63936571Y-20556928D01*
X63460380Y-19842642D02*
X63460380Y-19728357D01*
X63508000Y-19671214D01*
X63603238Y-19614071D01*
X63793714Y-19585500D01*
X64127047Y-19585500D01*
X64317523Y-19614071D01*
X64412761Y-19671214D01*
X64460380Y-19728357D01*
X64460380Y-19842642D01*
X64412761Y-19899785D01*
X64317523Y-19956928D01*
X64127047Y-19985500D01*
X63793714Y-19985500D01*
X63603238Y-19956928D01*
X63508000Y-19899785D01*
X63460380Y-19842642D01*
X63460380Y-19214071D02*
X63460380Y-19099785D01*
X63508000Y-19042642D01*
X63603238Y-18985500D01*
X63793714Y-18956928D01*
X64127047Y-18956928D01*
X64317523Y-18985500D01*
X64412761Y-19042642D01*
X64460380Y-19099785D01*
X64460380Y-19214071D01*
X64412761Y-19271214D01*
X64317523Y-19328357D01*
X64127047Y-19356928D01*
X63793714Y-19356928D01*
X63603238Y-19328357D01*
X63508000Y-19271214D01*
X63460380Y-19214071D01*
X63460380Y-18785500D02*
X63460380Y-18442642D01*
X64460380Y-18614071D02*
X63460380Y-18614071D01*
X48623071Y-21232761D02*
X48708785Y-21280380D01*
X48851642Y-21280380D01*
X48908785Y-21232761D01*
X48937357Y-21185142D01*
X48965928Y-21089904D01*
X48965928Y-20994666D01*
X48937357Y-20899428D01*
X48908785Y-20851809D01*
X48851642Y-20804190D01*
X48737357Y-20756571D01*
X48680214Y-20708952D01*
X48651642Y-20661333D01*
X48623071Y-20566095D01*
X48623071Y-20470857D01*
X48651642Y-20375619D01*
X48680214Y-20328000D01*
X48737357Y-20280380D01*
X48880214Y-20280380D01*
X48965928Y-20328000D01*
X49223071Y-21280380D02*
X49223071Y-20280380D01*
X49365928Y-20280380D01*
X49451642Y-20328000D01*
X49508785Y-20423238D01*
X49537357Y-20518476D01*
X49565928Y-20708952D01*
X49565928Y-20851809D01*
X49537357Y-21042285D01*
X49508785Y-21137523D01*
X49451642Y-21232761D01*
X49365928Y-21280380D01*
X49223071Y-21280380D01*
X49794500Y-20994666D02*
X50080214Y-20994666D01*
X49737357Y-21280380D02*
X49937357Y-20280380D01*
X50137357Y-21280380D01*
X48726071Y-5027380D02*
X49097500Y-5027380D01*
X48897500Y-5408333D01*
X48983214Y-5408333D01*
X49040357Y-5455952D01*
X49068928Y-5503571D01*
X49097500Y-5598809D01*
X49097500Y-5836904D01*
X49068928Y-5932142D01*
X49040357Y-5979761D01*
X48983214Y-6027380D01*
X48811785Y-6027380D01*
X48754642Y-5979761D01*
X48726071Y-5932142D01*
X49268928Y-5027380D02*
X49468928Y-6027380D01*
X49668928Y-5027380D01*
X49811785Y-5027380D02*
X50183214Y-5027380D01*
X49983214Y-5408333D01*
X50068928Y-5408333D01*
X50126071Y-5455952D01*
X50154642Y-5503571D01*
X50183214Y-5598809D01*
X50183214Y-5836904D01*
X50154642Y-5932142D01*
X50126071Y-5979761D01*
X50068928Y-6027380D01*
X49897500Y-6027380D01*
X49840357Y-5979761D01*
X49811785Y-5932142D01*
X8011785Y-24704761D02*
X8097500Y-24752380D01*
X8240357Y-24752380D01*
X8297500Y-24704761D01*
X8326071Y-24657142D01*
X8354642Y-24561904D01*
X8354642Y-24466666D01*
X8326071Y-24371428D01*
X8297500Y-24323809D01*
X8240357Y-24276190D01*
X8126071Y-24228571D01*
X8068928Y-24180952D01*
X8040357Y-24133333D01*
X8011785Y-24038095D01*
X8011785Y-23942857D01*
X8040357Y-23847619D01*
X8068928Y-23800000D01*
X8126071Y-23752380D01*
X8268928Y-23752380D01*
X8354642Y-23800000D01*
X8611785Y-24228571D02*
X8811785Y-24228571D01*
X8897500Y-24752380D02*
X8611785Y-24752380D01*
X8611785Y-23752380D01*
X8897500Y-23752380D01*
X9154642Y-24752380D02*
X9154642Y-23752380D01*
X9497500Y-24752380D01*
X9497500Y-23752380D01*
X9754642Y-24704761D02*
X9840357Y-24752380D01*
X9983214Y-24752380D01*
X10040357Y-24704761D01*
X10068928Y-24657142D01*
X10097500Y-24561904D01*
X10097500Y-24466666D01*
X10068928Y-24371428D01*
X10040357Y-24323809D01*
X9983214Y-24276190D01*
X9868928Y-24228571D01*
X9811785Y-24180952D01*
X9783214Y-24133333D01*
X9754642Y-24038095D01*
X9754642Y-23942857D01*
X9783214Y-23847619D01*
X9811785Y-23800000D01*
X9868928Y-23752380D01*
X10011785Y-23752380D01*
X10097500Y-23800000D01*
X18357142Y-22902380D02*
X18471428Y-22902380D01*
X18528571Y-22950000D01*
X18585714Y-23045238D01*
X18614285Y-23235714D01*
X18614285Y-23569047D01*
X18585714Y-23759523D01*
X18528571Y-23854761D01*
X18471428Y-23902380D01*
X18357142Y-23902380D01*
X18300000Y-23854761D01*
X18242857Y-23759523D01*
X18214285Y-23569047D01*
X18214285Y-23235714D01*
X18242857Y-23045238D01*
X18300000Y-22950000D01*
X18357142Y-22902380D01*
X18842857Y-22997619D02*
X18871428Y-22950000D01*
X18928571Y-22902380D01*
X19071428Y-22902380D01*
X19128571Y-22950000D01*
X19157142Y-22997619D01*
X19185714Y-23092857D01*
X19185714Y-23188095D01*
X19157142Y-23330952D01*
X18814285Y-23902380D01*
X19185714Y-23902380D01*
X57454857Y-27948000D02*
X57397714Y-27900380D01*
X57312000Y-27900380D01*
X57226285Y-27948000D01*
X57169142Y-28043238D01*
X57140571Y-28138476D01*
X57112000Y-28328952D01*
X57112000Y-28471809D01*
X57140571Y-28662285D01*
X57169142Y-28757523D01*
X57226285Y-28852761D01*
X57312000Y-28900380D01*
X57369142Y-28900380D01*
X57454857Y-28852761D01*
X57483428Y-28805142D01*
X57483428Y-28471809D01*
X57369142Y-28471809D01*
X57740571Y-28900380D02*
X57740571Y-27900380D01*
X58083428Y-28900380D01*
X58083428Y-27900380D01*
X58369142Y-28900380D02*
X58369142Y-27900380D01*
X58512000Y-27900380D01*
X58597714Y-27948000D01*
X58654857Y-28043238D01*
X58683428Y-28138476D01*
X58712000Y-28328952D01*
X58712000Y-28471809D01*
X58683428Y-28662285D01*
X58654857Y-28757523D01*
X58597714Y-28852761D01*
X58512000Y-28900380D01*
X58369142Y-28900380D01*
X2428571Y-39970000D02*
X3000000Y-39970000D01*
X2542857Y-41204761D02*
X2628571Y-41252380D01*
X2771428Y-41252380D01*
X2828571Y-41204761D01*
X2857142Y-41157142D01*
X2885714Y-41061904D01*
X2885714Y-40966666D01*
X2857142Y-40871428D01*
X2828571Y-40823809D01*
X2771428Y-40776190D01*
X2657142Y-40728571D01*
X2600000Y-40680952D01*
X2571428Y-40633333D01*
X2542857Y-40538095D01*
X2542857Y-40442857D01*
X2571428Y-40347619D01*
X2600000Y-40300000D01*
X2657142Y-40252380D01*
X2800000Y-40252380D01*
X2885714Y-40300000D01*
X3000000Y-39970000D02*
X3457142Y-39970000D01*
X3057142Y-40252380D02*
X3400000Y-40252380D01*
X3228571Y-41252380D02*
X3228571Y-40252380D01*
X3457142Y-39970000D02*
X4057142Y-39970000D01*
X3600000Y-41252380D02*
X3600000Y-40252380D01*
X3742857Y-40252380D01*
X3828571Y-40300000D01*
X3885714Y-40395238D01*
X3914285Y-40490476D01*
X3942857Y-40680952D01*
X3942857Y-40823809D01*
X3914285Y-41014285D01*
X3885714Y-41109523D01*
X3828571Y-41204761D01*
X3742857Y-41252380D01*
X3600000Y-41252380D01*
X4057142Y-39970000D02*
X4657142Y-39970000D01*
X4400000Y-40728571D02*
X4485714Y-40776190D01*
X4514285Y-40823809D01*
X4542857Y-40919047D01*
X4542857Y-41061904D01*
X4514285Y-41157142D01*
X4485714Y-41204761D01*
X4428571Y-41252380D01*
X4200000Y-41252380D01*
X4200000Y-40252380D01*
X4400000Y-40252380D01*
X4457142Y-40300000D01*
X4485714Y-40347619D01*
X4514285Y-40442857D01*
X4514285Y-40538095D01*
X4485714Y-40633333D01*
X4457142Y-40680952D01*
X4400000Y-40728571D01*
X4200000Y-40728571D01*
X4657142Y-39970000D02*
X5171428Y-39970000D01*
X4914285Y-40776190D02*
X4914285Y-41252380D01*
X4714285Y-40252380D02*
X4914285Y-40776190D01*
X5114285Y-40252380D01*
X354642Y-23702380D02*
X468928Y-23702380D01*
X526071Y-23750000D01*
X583214Y-23845238D01*
X611785Y-24035714D01*
X611785Y-24369047D01*
X583214Y-24559523D01*
X526071Y-24654761D01*
X468928Y-24702380D01*
X354642Y-24702380D01*
X297500Y-24654761D01*
X240357Y-24559523D01*
X211785Y-24369047D01*
X211785Y-24035714D01*
X240357Y-23845238D01*
X297500Y-23750000D01*
X354642Y-23702380D01*
X868928Y-24702380D02*
X868928Y-23702380D01*
X1211785Y-24702380D01*
X1211785Y-23702380D01*
X1411785Y-23702380D02*
X1754642Y-23702380D01*
X1583214Y-24702380D02*
X1583214Y-23702380D01*
X1954642Y-24702380D02*
X1954642Y-23702380D01*
X2240357Y-24702380D02*
X2240357Y-23702380D01*
X2440357Y-24416666D01*
X2640357Y-23702380D01*
X2640357Y-24702380D01*
X2926071Y-24178571D02*
X3126071Y-24178571D01*
X3211785Y-24702380D02*
X2926071Y-24702380D01*
X2926071Y-23702380D01*
X3211785Y-23702380D01*
X49165928Y-8056571D02*
X49365928Y-8056571D01*
X49451642Y-8580380D02*
X49165928Y-8580380D01*
X49165928Y-7580380D01*
X49451642Y-7580380D01*
X49708785Y-8580380D02*
X49708785Y-7580380D01*
X50051642Y-8580380D01*
X50051642Y-7580380D01*
X55840380Y-6688000D02*
X56840380Y-6488000D01*
X55840380Y-6288000D01*
X56316571Y-5888000D02*
X56364190Y-5802285D01*
X56411809Y-5773714D01*
X56507047Y-5745142D01*
X56649904Y-5745142D01*
X56745142Y-5773714D01*
X56792761Y-5802285D01*
X56840380Y-5859428D01*
X56840380Y-6088000D01*
X55840380Y-6088000D01*
X55840380Y-5888000D01*
X55888000Y-5830857D01*
X55935619Y-5802285D01*
X56030857Y-5773714D01*
X56126095Y-5773714D01*
X56221333Y-5802285D01*
X56268952Y-5830857D01*
X56316571Y-5888000D01*
X56316571Y-6088000D01*
X55840380Y-5488000D02*
X56649904Y-5488000D01*
X56745142Y-5459428D01*
X56792761Y-5430857D01*
X56840380Y-5373714D01*
X56840380Y-5259428D01*
X56792761Y-5202285D01*
X56745142Y-5173714D01*
X56649904Y-5145142D01*
X55840380Y-5145142D01*
X56792761Y-4888000D02*
X56840380Y-4802285D01*
X56840380Y-4659428D01*
X56792761Y-4602285D01*
X56745142Y-4573714D01*
X56649904Y-4545142D01*
X56554666Y-4545142D01*
X56459428Y-4573714D01*
X56411809Y-4602285D01*
X56364190Y-4659428D01*
X56316571Y-4773714D01*
X56268952Y-4830857D01*
X56221333Y-4859428D01*
X56126095Y-4888000D01*
X56030857Y-4888000D01*
X55935619Y-4859428D01*
X55888000Y-4830857D01*
X55840380Y-4773714D01*
X55840380Y-4630857D01*
X55888000Y-4545142D01*
X63936571Y-10778071D02*
X63936571Y-10578071D01*
X64460380Y-10492357D02*
X64460380Y-10778071D01*
X63460380Y-10778071D01*
X63460380Y-10492357D01*
X64460380Y-10235214D02*
X63460380Y-10235214D01*
X64460380Y-9892357D01*
X63460380Y-9892357D01*
X48280214Y-26360380D02*
X48280214Y-25360380D01*
X48680214Y-25360380D02*
X48794500Y-25360380D01*
X48851642Y-25408000D01*
X48908785Y-25503238D01*
X48937357Y-25693714D01*
X48937357Y-26027047D01*
X48908785Y-26217523D01*
X48851642Y-26312761D01*
X48794500Y-26360380D01*
X48680214Y-26360380D01*
X48623071Y-26312761D01*
X48565928Y-26217523D01*
X48537357Y-26027047D01*
X48537357Y-25693714D01*
X48565928Y-25503238D01*
X48623071Y-25408000D01*
X48680214Y-25360380D01*
X49137357Y-25360380D02*
X49508785Y-25360380D01*
X49308785Y-25741333D01*
X49394500Y-25741333D01*
X49451642Y-25788952D01*
X49480214Y-25836571D01*
X49508785Y-25931809D01*
X49508785Y-26169904D01*
X49480214Y-26265142D01*
X49451642Y-26312761D01*
X49394500Y-26360380D01*
X49223071Y-26360380D01*
X49165928Y-26312761D01*
X49137357Y-26265142D01*
X49794500Y-26360380D02*
X49908785Y-26360380D01*
X49965928Y-26312761D01*
X49994500Y-26265142D01*
X50051642Y-26122285D01*
X50080214Y-25931809D01*
X50080214Y-25550857D01*
X50051642Y-25455619D01*
X50023071Y-25408000D01*
X49965928Y-25360380D01*
X49851642Y-25360380D01*
X49794500Y-25408000D01*
X49765928Y-25455619D01*
X49737357Y-25550857D01*
X49737357Y-25788952D01*
X49765928Y-25884190D01*
X49794500Y-25931809D01*
X49851642Y-25979428D01*
X49965928Y-25979428D01*
X50023071Y-25931809D01*
X50051642Y-25884190D01*
X50080214Y-25788952D01*
X5785714Y-39970000D02*
X6385714Y-39970000D01*
X6271428Y-41157142D02*
X6242857Y-41204761D01*
X6157142Y-41252380D01*
X6100000Y-41252380D01*
X6014285Y-41204761D01*
X5957142Y-41109523D01*
X5928571Y-41014285D01*
X5900000Y-40823809D01*
X5900000Y-40680952D01*
X5928571Y-40490476D01*
X5957142Y-40395238D01*
X6014285Y-40300000D01*
X6100000Y-40252380D01*
X6157142Y-40252380D01*
X6242857Y-40300000D01*
X6271428Y-40347619D01*
X6385714Y-39970000D02*
X7014285Y-39970000D01*
X6528571Y-41252380D02*
X6528571Y-40252380D01*
X6528571Y-40728571D02*
X6871428Y-40728571D01*
X6871428Y-41252380D02*
X6871428Y-40252380D01*
X7014285Y-39970000D02*
X7614285Y-39970000D01*
X7500000Y-41252380D02*
X7300000Y-40776190D01*
X7157142Y-41252380D02*
X7157142Y-40252380D01*
X7385714Y-40252380D01*
X7442857Y-40300000D01*
X7471428Y-40347619D01*
X7500000Y-40442857D01*
X7500000Y-40585714D01*
X7471428Y-40680952D01*
X7442857Y-40728571D01*
X7385714Y-40776190D01*
X7157142Y-40776190D01*
X7614285Y-39970000D02*
X8214285Y-39970000D01*
X8071428Y-40300000D02*
X8014285Y-40252380D01*
X7928571Y-40252380D01*
X7842857Y-40300000D01*
X7785714Y-40395238D01*
X7757142Y-40490476D01*
X7728571Y-40680952D01*
X7728571Y-40823809D01*
X7757142Y-41014285D01*
X7785714Y-41109523D01*
X7842857Y-41204761D01*
X7928571Y-41252380D01*
X7985714Y-41252380D01*
X8071428Y-41204761D01*
X8100000Y-41157142D01*
X8100000Y-40823809D01*
X7985714Y-40823809D01*
X57312000Y-26360380D02*
X57312000Y-25360380D01*
X57712000Y-25360380D02*
X57826285Y-25360380D01*
X57883428Y-25408000D01*
X57940571Y-25503238D01*
X57969142Y-25693714D01*
X57969142Y-26027047D01*
X57940571Y-26217523D01*
X57883428Y-26312761D01*
X57826285Y-26360380D01*
X57712000Y-26360380D01*
X57654857Y-26312761D01*
X57597714Y-26217523D01*
X57569142Y-26027047D01*
X57569142Y-25693714D01*
X57597714Y-25503238D01*
X57654857Y-25408000D01*
X57712000Y-25360380D01*
X58197714Y-25455619D02*
X58226285Y-25408000D01*
X58283428Y-25360380D01*
X58426285Y-25360380D01*
X58483428Y-25408000D01*
X58512000Y-25455619D01*
X58540571Y-25550857D01*
X58540571Y-25646095D01*
X58512000Y-25788952D01*
X58169142Y-26360380D01*
X58540571Y-26360380D01*
X14907142Y-27552380D02*
X14907142Y-26552380D01*
X15535714Y-27552380D02*
X15335714Y-27076190D01*
X15192857Y-27552380D02*
X15192857Y-26552380D01*
X15421428Y-26552380D01*
X15478571Y-26600000D01*
X15507142Y-26647619D01*
X15535714Y-26742857D01*
X15535714Y-26885714D01*
X15507142Y-26980952D01*
X15478571Y-27028571D01*
X15421428Y-27076190D01*
X15192857Y-27076190D01*
X16135714Y-27457142D02*
X16107142Y-27504761D01*
X16021428Y-27552380D01*
X15964285Y-27552380D01*
X15878571Y-27504761D01*
X15821428Y-27409523D01*
X15792857Y-27314285D01*
X15764285Y-27123809D01*
X15764285Y-26980952D01*
X15792857Y-26790476D01*
X15821428Y-26695238D01*
X15878571Y-26600000D01*
X15964285Y-26552380D01*
X16021428Y-26552380D01*
X16107142Y-26600000D01*
X16135714Y-26647619D01*
X16392857Y-26552380D02*
X16392857Y-27361904D01*
X16421428Y-27457142D01*
X16450000Y-27504761D01*
X16507142Y-27552380D01*
X16621428Y-27552380D01*
X16678571Y-27504761D01*
X16707142Y-27457142D01*
X16735714Y-27361904D01*
X16735714Y-26552380D01*
X16935714Y-26552380D02*
X17278571Y-26552380D01*
X17107142Y-27552380D02*
X17107142Y-26552380D01*
X48754642Y-18709761D02*
X48840357Y-18757380D01*
X48983214Y-18757380D01*
X49040357Y-18709761D01*
X49068928Y-18662142D01*
X49097500Y-18566904D01*
X49097500Y-18471666D01*
X49068928Y-18376428D01*
X49040357Y-18328809D01*
X48983214Y-18281190D01*
X48868928Y-18233571D01*
X48811785Y-18185952D01*
X48783214Y-18138333D01*
X48754642Y-18043095D01*
X48754642Y-17947857D01*
X48783214Y-17852619D01*
X48811785Y-17805000D01*
X48868928Y-17757380D01*
X49011785Y-17757380D01*
X49097500Y-17805000D01*
X49697500Y-18662142D02*
X49668928Y-18709761D01*
X49583214Y-18757380D01*
X49526071Y-18757380D01*
X49440357Y-18709761D01*
X49383214Y-18614523D01*
X49354642Y-18519285D01*
X49326071Y-18328809D01*
X49326071Y-18185952D01*
X49354642Y-17995476D01*
X49383214Y-17900238D01*
X49440357Y-17805000D01*
X49526071Y-17757380D01*
X49583214Y-17757380D01*
X49668928Y-17805000D01*
X49697500Y-17852619D01*
X50240357Y-18757380D02*
X49954642Y-18757380D01*
X49954642Y-17757380D01*
X18357142Y-24202380D02*
X18471428Y-24202380D01*
X18528571Y-24250000D01*
X18585714Y-24345238D01*
X18614285Y-24535714D01*
X18614285Y-24869047D01*
X18585714Y-25059523D01*
X18528571Y-25154761D01*
X18471428Y-25202380D01*
X18357142Y-25202380D01*
X18300000Y-25154761D01*
X18242857Y-25059523D01*
X18214285Y-24869047D01*
X18214285Y-24535714D01*
X18242857Y-24345238D01*
X18300000Y-24250000D01*
X18357142Y-24202380D01*
X19185714Y-25202380D02*
X18842857Y-25202380D01*
X19014285Y-25202380D02*
X19014285Y-24202380D01*
X18957142Y-24345238D01*
X18900000Y-24440476D01*
X18842857Y-24488095D01*
X48223071Y-10596571D02*
X48308785Y-10644190D01*
X48337357Y-10691809D01*
X48365928Y-10787047D01*
X48365928Y-10929904D01*
X48337357Y-11025142D01*
X48308785Y-11072761D01*
X48251642Y-11120380D01*
X48023071Y-11120380D01*
X48023071Y-10120380D01*
X48223071Y-10120380D01*
X48280214Y-10168000D01*
X48308785Y-10215619D01*
X48337357Y-10310857D01*
X48337357Y-10406095D01*
X48308785Y-10501333D01*
X48280214Y-10548952D01*
X48223071Y-10596571D01*
X48023071Y-10596571D01*
X48737357Y-10120380D02*
X48851642Y-10120380D01*
X48908785Y-10168000D01*
X48965928Y-10263238D01*
X48994500Y-10453714D01*
X48994500Y-10787047D01*
X48965928Y-10977523D01*
X48908785Y-11072761D01*
X48851642Y-11120380D01*
X48737357Y-11120380D01*
X48680214Y-11072761D01*
X48623071Y-10977523D01*
X48594500Y-10787047D01*
X48594500Y-10453714D01*
X48623071Y-10263238D01*
X48680214Y-10168000D01*
X48737357Y-10120380D01*
X49365928Y-10120380D02*
X49480214Y-10120380D01*
X49537357Y-10168000D01*
X49594500Y-10263238D01*
X49623071Y-10453714D01*
X49623071Y-10787047D01*
X49594500Y-10977523D01*
X49537357Y-11072761D01*
X49480214Y-11120380D01*
X49365928Y-11120380D01*
X49308785Y-11072761D01*
X49251642Y-10977523D01*
X49223071Y-10787047D01*
X49223071Y-10453714D01*
X49251642Y-10263238D01*
X49308785Y-10168000D01*
X49365928Y-10120380D01*
X49794500Y-10120380D02*
X50137357Y-10120380D01*
X49965928Y-11120380D02*
X49965928Y-10120380D01*
X42264166Y-51437380D02*
X42264166Y-50437380D01*
X42497500Y-51151666D01*
X42730833Y-50437380D01*
X42730833Y-51437380D01*
X43364166Y-50770714D02*
X43364166Y-51437380D01*
X43064166Y-50770714D02*
X43064166Y-51294523D01*
X43097500Y-51389761D01*
X43164166Y-51437380D01*
X43264166Y-51437380D01*
X43330833Y-51389761D01*
X43364166Y-51342142D01*
X43797500Y-51437380D02*
X43730833Y-51389761D01*
X43697500Y-51294523D01*
X43697500Y-50437380D01*
X43964166Y-50770714D02*
X44230833Y-50770714D01*
X44064166Y-50437380D02*
X44064166Y-51294523D01*
X44097500Y-51389761D01*
X44164166Y-51437380D01*
X44230833Y-51437380D01*
X44464166Y-51437380D02*
X44464166Y-50770714D01*
X44464166Y-50437380D02*
X44430833Y-50485000D01*
X44464166Y-50532619D01*
X44497500Y-50485000D01*
X44464166Y-50437380D01*
X44464166Y-50532619D01*
X44797500Y-51056428D02*
X45330833Y-51056428D01*
X45664166Y-51437380D02*
X45664166Y-50437380D01*
X45930833Y-50437380D01*
X45997500Y-50485000D01*
X46030833Y-50532619D01*
X46064166Y-50627857D01*
X46064166Y-50770714D01*
X46030833Y-50865952D01*
X45997500Y-50913571D01*
X45930833Y-50961190D01*
X45664166Y-50961190D01*
X46664166Y-50770714D02*
X46664166Y-51437380D01*
X46364166Y-50770714D02*
X46364166Y-51294523D01*
X46397500Y-51389761D01*
X46464166Y-51437380D01*
X46564166Y-51437380D01*
X46630833Y-51389761D01*
X46664166Y-51342142D01*
X46997500Y-51437380D02*
X46997500Y-50770714D01*
X46997500Y-50961190D02*
X47030833Y-50865952D01*
X47064166Y-50818333D01*
X47130833Y-50770714D01*
X47197500Y-50770714D01*
X47430833Y-50770714D02*
X47430833Y-51770714D01*
X47430833Y-50818333D02*
X47497500Y-50770714D01*
X47630833Y-50770714D01*
X47697500Y-50818333D01*
X47730833Y-50865952D01*
X47764166Y-50961190D01*
X47764166Y-51246904D01*
X47730833Y-51342142D01*
X47697500Y-51389761D01*
X47630833Y-51437380D01*
X47497500Y-51437380D01*
X47430833Y-51389761D01*
X48164166Y-51437380D02*
X48097500Y-51389761D01*
X48064166Y-51342142D01*
X48030833Y-51246904D01*
X48030833Y-50961190D01*
X48064166Y-50865952D01*
X48097500Y-50818333D01*
X48164166Y-50770714D01*
X48264166Y-50770714D01*
X48330833Y-50818333D01*
X48364166Y-50865952D01*
X48397500Y-50961190D01*
X48397500Y-51246904D01*
X48364166Y-51342142D01*
X48330833Y-51389761D01*
X48264166Y-51437380D01*
X48164166Y-51437380D01*
X48664166Y-51389761D02*
X48730833Y-51437380D01*
X48864166Y-51437380D01*
X48930833Y-51389761D01*
X48964166Y-51294523D01*
X48964166Y-51246904D01*
X48930833Y-51151666D01*
X48864166Y-51104047D01*
X48764166Y-51104047D01*
X48697500Y-51056428D01*
X48664166Y-50961190D01*
X48664166Y-50913571D01*
X48697500Y-50818333D01*
X48764166Y-50770714D01*
X48864166Y-50770714D01*
X48930833Y-50818333D01*
X49530833Y-51389761D02*
X49464166Y-51437380D01*
X49330833Y-51437380D01*
X49264166Y-51389761D01*
X49230833Y-51294523D01*
X49230833Y-50913571D01*
X49264166Y-50818333D01*
X49330833Y-50770714D01*
X49464166Y-50770714D01*
X49530833Y-50818333D01*
X49564166Y-50913571D01*
X49564166Y-51008809D01*
X49230833Y-51104047D01*
X50797500Y-51342142D02*
X50764166Y-51389761D01*
X50664166Y-51437380D01*
X50597500Y-51437380D01*
X50497500Y-51389761D01*
X50430833Y-51294523D01*
X50397500Y-51199285D01*
X50364166Y-51008809D01*
X50364166Y-50865952D01*
X50397500Y-50675476D01*
X50430833Y-50580238D01*
X50497500Y-50485000D01*
X50597500Y-50437380D01*
X50664166Y-50437380D01*
X50764166Y-50485000D01*
X50797500Y-50532619D01*
X51397500Y-51437380D02*
X51397500Y-50913571D01*
X51364166Y-50818333D01*
X51297500Y-50770714D01*
X51164166Y-50770714D01*
X51097500Y-50818333D01*
X51397500Y-51389761D02*
X51330833Y-51437380D01*
X51164166Y-51437380D01*
X51097500Y-51389761D01*
X51064166Y-51294523D01*
X51064166Y-51199285D01*
X51097500Y-51104047D01*
X51164166Y-51056428D01*
X51330833Y-51056428D01*
X51397500Y-51008809D01*
X51730833Y-51437380D02*
X51730833Y-50770714D01*
X51730833Y-50865952D02*
X51764166Y-50818333D01*
X51830833Y-50770714D01*
X51930833Y-50770714D01*
X51997500Y-50818333D01*
X52030833Y-50913571D01*
X52030833Y-51437380D01*
X52030833Y-50913571D02*
X52064166Y-50818333D01*
X52130833Y-50770714D01*
X52230833Y-50770714D01*
X52297500Y-50818333D01*
X52330833Y-50913571D01*
X52330833Y-51437380D01*
X52930833Y-51389761D02*
X52864166Y-51437380D01*
X52730833Y-51437380D01*
X52664166Y-51389761D01*
X52630833Y-51294523D01*
X52630833Y-50913571D01*
X52664166Y-50818333D01*
X52730833Y-50770714D01*
X52864166Y-50770714D01*
X52930833Y-50818333D01*
X52964166Y-50913571D01*
X52964166Y-51008809D01*
X52630833Y-51104047D01*
X53264166Y-51437380D02*
X53264166Y-50770714D01*
X53264166Y-50961190D02*
X53297500Y-50865952D01*
X53330833Y-50818333D01*
X53397500Y-50770714D01*
X53464166Y-50770714D01*
X53997500Y-51437380D02*
X53997500Y-50913571D01*
X53964166Y-50818333D01*
X53897500Y-50770714D01*
X53764166Y-50770714D01*
X53697500Y-50818333D01*
X53997500Y-51389761D02*
X53930833Y-51437380D01*
X53764166Y-51437380D01*
X53697500Y-51389761D01*
X53664166Y-51294523D01*
X53664166Y-51199285D01*
X53697500Y-51104047D01*
X53764166Y-51056428D01*
X53930833Y-51056428D01*
X53997500Y-51008809D01*
X54864166Y-51437380D02*
X54864166Y-50437380D01*
X55030833Y-50437380D01*
X55130833Y-50485000D01*
X55197500Y-50580238D01*
X55230833Y-50675476D01*
X55264166Y-50865952D01*
X55264166Y-51008809D01*
X55230833Y-51199285D01*
X55197500Y-51294523D01*
X55130833Y-51389761D01*
X55030833Y-51437380D01*
X54864166Y-51437380D01*
X55830833Y-51389761D02*
X55764166Y-51437380D01*
X55630833Y-51437380D01*
X55564166Y-51389761D01*
X55530833Y-51294523D01*
X55530833Y-50913571D01*
X55564166Y-50818333D01*
X55630833Y-50770714D01*
X55764166Y-50770714D01*
X55830833Y-50818333D01*
X55864166Y-50913571D01*
X55864166Y-51008809D01*
X55530833Y-51104047D01*
X56097500Y-50770714D02*
X56264166Y-51437380D01*
X56430833Y-50770714D01*
X56697500Y-51437380D02*
X56697500Y-50437380D01*
X56764166Y-51056428D02*
X56964166Y-51437380D01*
X56964166Y-50770714D02*
X56697500Y-51151666D01*
X57264166Y-51437380D02*
X57264166Y-50770714D01*
X57264166Y-50437380D02*
X57230833Y-50485000D01*
X57264166Y-50532619D01*
X57297500Y-50485000D01*
X57264166Y-50437380D01*
X57264166Y-50532619D01*
X57497500Y-50770714D02*
X57764166Y-50770714D01*
X57597500Y-50437380D02*
X57597500Y-51294523D01*
X57630833Y-51389761D01*
X57697500Y-51437380D01*
X57764166Y-51437380D01*
X42264166Y-53047380D02*
X42264166Y-52380714D01*
X42264166Y-52475952D02*
X42297500Y-52428333D01*
X42364166Y-52380714D01*
X42464166Y-52380714D01*
X42530833Y-52428333D01*
X42564166Y-52523571D01*
X42564166Y-53047380D01*
X42564166Y-52523571D02*
X42597500Y-52428333D01*
X42664166Y-52380714D01*
X42764166Y-52380714D01*
X42830833Y-52428333D01*
X42864166Y-52523571D01*
X42864166Y-53047380D01*
X43497500Y-53047380D02*
X43497500Y-52523571D01*
X43464166Y-52428333D01*
X43397500Y-52380714D01*
X43264166Y-52380714D01*
X43197500Y-52428333D01*
X43497500Y-52999761D02*
X43430833Y-53047380D01*
X43264166Y-53047380D01*
X43197500Y-52999761D01*
X43164166Y-52904523D01*
X43164166Y-52809285D01*
X43197500Y-52714047D01*
X43264166Y-52666428D01*
X43430833Y-52666428D01*
X43497500Y-52618809D01*
X43764166Y-53047380D02*
X44130833Y-52380714D01*
X43764166Y-52380714D02*
X44130833Y-53047380D01*
X44497500Y-53047380D02*
X44430833Y-52999761D01*
X44397500Y-52904523D01*
X44397500Y-52047380D01*
X45064166Y-53047380D02*
X45064166Y-52523571D01*
X45030833Y-52428333D01*
X44964166Y-52380714D01*
X44830833Y-52380714D01*
X44764166Y-52428333D01*
X45064166Y-52999761D02*
X44997500Y-53047380D01*
X44830833Y-53047380D01*
X44764166Y-52999761D01*
X44730833Y-52904523D01*
X44730833Y-52809285D01*
X44764166Y-52714047D01*
X44830833Y-52666428D01*
X44997500Y-52666428D01*
X45064166Y-52618809D01*
X45397500Y-53047380D02*
X45397500Y-52047380D01*
X45397500Y-52428333D02*
X45464166Y-52380714D01*
X45597500Y-52380714D01*
X45664166Y-52428333D01*
X45697500Y-52475952D01*
X45730833Y-52571190D01*
X45730833Y-52856904D01*
X45697500Y-52952142D01*
X45664166Y-52999761D01*
X45597500Y-53047380D01*
X45464166Y-53047380D01*
X45397500Y-52999761D01*
X46030833Y-52952142D02*
X46064166Y-52999761D01*
X46030833Y-53047380D01*
X45997500Y-52999761D01*
X46030833Y-52952142D01*
X46030833Y-53047380D01*
X46364166Y-53047380D02*
X46364166Y-52380714D01*
X46364166Y-52047380D02*
X46330833Y-52095000D01*
X46364166Y-52142619D01*
X46397500Y-52095000D01*
X46364166Y-52047380D01*
X46364166Y-52142619D01*
X46797500Y-53047380D02*
X46730833Y-52999761D01*
X46697500Y-52952142D01*
X46664166Y-52856904D01*
X46664166Y-52571190D01*
X46697500Y-52475952D01*
X46730833Y-52428333D01*
X46797500Y-52380714D01*
X46897500Y-52380714D01*
X46964166Y-52428333D01*
X46997500Y-52475952D01*
X47030833Y-52571190D01*
X47030833Y-52856904D01*
X46997500Y-52952142D01*
X46964166Y-52999761D01*
X46897500Y-53047380D01*
X46797500Y-53047380D01*
X42264166Y-54657380D02*
X42264166Y-53657380D01*
X42564166Y-54657380D02*
X42564166Y-54133571D01*
X42530833Y-54038333D01*
X42464166Y-53990714D01*
X42364166Y-53990714D01*
X42297500Y-54038333D01*
X42264166Y-54085952D01*
X42897500Y-54657380D02*
X42897500Y-53990714D01*
X42897500Y-53657380D02*
X42864166Y-53705000D01*
X42897500Y-53752619D01*
X42930833Y-53705000D01*
X42897500Y-53657380D01*
X42897500Y-53752619D01*
X43664166Y-54181190D02*
X43630833Y-54133571D01*
X43564166Y-54085952D01*
X43497500Y-54085952D01*
X43430833Y-54133571D01*
X43397500Y-54181190D01*
X43364166Y-54276428D01*
X43364166Y-54371666D01*
X43397500Y-54466904D01*
X43430833Y-54514523D01*
X43497500Y-54562142D01*
X43564166Y-54562142D01*
X43630833Y-54514523D01*
X43664166Y-54466904D01*
X43664166Y-54085952D02*
X43664166Y-54466904D01*
X43697500Y-54514523D01*
X43730833Y-54514523D01*
X43797500Y-54466904D01*
X43830833Y-54371666D01*
X43830833Y-54133571D01*
X43764166Y-53990714D01*
X43664166Y-53895476D01*
X43530833Y-53847857D01*
X43397500Y-53895476D01*
X43297500Y-53990714D01*
X43230833Y-54133571D01*
X43197500Y-54324047D01*
X43230833Y-54514523D01*
X43297500Y-54657380D01*
X43397500Y-54752619D01*
X43530833Y-54800238D01*
X43664166Y-54752619D01*
X43764166Y-54657380D01*
X44130833Y-54657380D02*
X44130833Y-53990714D01*
X44130833Y-54085952D02*
X44164166Y-54038333D01*
X44230833Y-53990714D01*
X44330833Y-53990714D01*
X44397500Y-54038333D01*
X44430833Y-54133571D01*
X44430833Y-54657380D01*
X44430833Y-54133571D02*
X44464166Y-54038333D01*
X44530833Y-53990714D01*
X44630833Y-53990714D01*
X44697500Y-54038333D01*
X44730833Y-54133571D01*
X44730833Y-54657380D01*
X45364166Y-54657380D02*
X45364166Y-54133571D01*
X45330833Y-54038333D01*
X45264166Y-53990714D01*
X45130833Y-53990714D01*
X45064166Y-54038333D01*
X45364166Y-54609761D02*
X45297500Y-54657380D01*
X45130833Y-54657380D01*
X45064166Y-54609761D01*
X45030833Y-54514523D01*
X45030833Y-54419285D01*
X45064166Y-54324047D01*
X45130833Y-54276428D01*
X45297500Y-54276428D01*
X45364166Y-54228809D01*
X45630833Y-54657380D02*
X45997500Y-53990714D01*
X45630833Y-53990714D02*
X45997500Y-54657380D01*
X46364166Y-54657380D02*
X46297500Y-54609761D01*
X46264166Y-54514523D01*
X46264166Y-53657380D01*
X46930833Y-54657380D02*
X46930833Y-54133571D01*
X46897500Y-54038333D01*
X46830833Y-53990714D01*
X46697500Y-53990714D01*
X46630833Y-54038333D01*
X46930833Y-54609761D02*
X46864166Y-54657380D01*
X46697500Y-54657380D01*
X46630833Y-54609761D01*
X46597500Y-54514523D01*
X46597500Y-54419285D01*
X46630833Y-54324047D01*
X46697500Y-54276428D01*
X46864166Y-54276428D01*
X46930833Y-54228809D01*
X47264166Y-54657380D02*
X47264166Y-53657380D01*
X47264166Y-54038333D02*
X47330833Y-53990714D01*
X47464166Y-53990714D01*
X47530833Y-54038333D01*
X47564166Y-54085952D01*
X47597500Y-54181190D01*
X47597500Y-54466904D01*
X47564166Y-54562142D01*
X47530833Y-54609761D01*
X47464166Y-54657380D01*
X47330833Y-54657380D01*
X47264166Y-54609761D01*
X47897500Y-54562142D02*
X47930833Y-54609761D01*
X47897500Y-54657380D01*
X47864166Y-54609761D01*
X47897500Y-54562142D01*
X47897500Y-54657380D01*
X48230833Y-54657380D02*
X48230833Y-53990714D01*
X48230833Y-53657380D02*
X48197500Y-53705000D01*
X48230833Y-53752619D01*
X48264166Y-53705000D01*
X48230833Y-53657380D01*
X48230833Y-53752619D01*
X48664166Y-54657380D02*
X48597500Y-54609761D01*
X48564166Y-54562142D01*
X48530833Y-54466904D01*
X48530833Y-54181190D01*
X48564166Y-54085952D01*
X48597500Y-54038333D01*
X48664166Y-53990714D01*
X48764166Y-53990714D01*
X48830833Y-54038333D01*
X48864166Y-54085952D01*
X48897500Y-54181190D01*
X48897500Y-54466904D01*
X48864166Y-54562142D01*
X48830833Y-54609761D01*
X48764166Y-54657380D01*
X48664166Y-54657380D01*
X42264166Y-56267380D02*
X42264166Y-55600714D01*
X42264166Y-55791190D02*
X42297500Y-55695952D01*
X42330833Y-55648333D01*
X42397500Y-55600714D01*
X42464166Y-55600714D01*
X42964166Y-56219761D02*
X42897500Y-56267380D01*
X42764166Y-56267380D01*
X42697500Y-56219761D01*
X42664166Y-56124523D01*
X42664166Y-55743571D01*
X42697500Y-55648333D01*
X42764166Y-55600714D01*
X42897500Y-55600714D01*
X42964166Y-55648333D01*
X42997500Y-55743571D01*
X42997500Y-55838809D01*
X42664166Y-55934047D01*
X43230833Y-55600714D02*
X43397500Y-56267380D01*
X43564166Y-55600714D01*
X43964166Y-55267380D02*
X44030833Y-55267380D01*
X44097500Y-55315000D01*
X44130833Y-55362619D01*
X44164166Y-55457857D01*
X44197500Y-55648333D01*
X44197500Y-55886428D01*
X44164166Y-56076904D01*
X44130833Y-56172142D01*
X44097500Y-56219761D01*
X44030833Y-56267380D01*
X43964166Y-56267380D01*
X43897500Y-56219761D01*
X43864166Y-56172142D01*
X43830833Y-56076904D01*
X43797500Y-55886428D01*
X43797500Y-55648333D01*
X43830833Y-55457857D01*
X43864166Y-55362619D01*
X43897500Y-55315000D01*
X43964166Y-55267380D01*
X44497500Y-55886428D02*
X45030833Y-55886428D01*
X45330833Y-55362619D02*
X45364166Y-55315000D01*
X45430833Y-55267380D01*
X45597500Y-55267380D01*
X45664166Y-55315000D01*
X45697500Y-55362619D01*
X45730833Y-55457857D01*
X45730833Y-55553095D01*
X45697500Y-55695952D01*
X45297500Y-56267380D01*
X45730833Y-56267380D01*
X46164166Y-55267380D02*
X46230833Y-55267380D01*
X46297500Y-55315000D01*
X46330833Y-55362619D01*
X46364166Y-55457857D01*
X46397500Y-55648333D01*
X46397500Y-55886428D01*
X46364166Y-56076904D01*
X46330833Y-56172142D01*
X46297500Y-56219761D01*
X46230833Y-56267380D01*
X46164166Y-56267380D01*
X46097500Y-56219761D01*
X46064166Y-56172142D01*
X46030833Y-56076904D01*
X45997500Y-55886428D01*
X45997500Y-55648333D01*
X46030833Y-55457857D01*
X46064166Y-55362619D01*
X46097500Y-55315000D01*
X46164166Y-55267380D01*
X46664166Y-55362619D02*
X46697500Y-55315000D01*
X46764166Y-55267380D01*
X46930833Y-55267380D01*
X46997500Y-55315000D01*
X47030833Y-55362619D01*
X47064166Y-55457857D01*
X47064166Y-55553095D01*
X47030833Y-55695952D01*
X46630833Y-56267380D01*
X47064166Y-56267380D01*
X47297500Y-55267380D02*
X47730833Y-55267380D01*
X47497500Y-55648333D01*
X47597500Y-55648333D01*
X47664166Y-55695952D01*
X47697500Y-55743571D01*
X47730833Y-55838809D01*
X47730833Y-56076904D01*
X47697500Y-56172142D01*
X47664166Y-56219761D01*
X47597500Y-56267380D01*
X47397500Y-56267380D01*
X47330833Y-56219761D01*
X47297500Y-56172142D01*
X48164166Y-55267380D02*
X48230833Y-55267380D01*
X48297500Y-55315000D01*
X48330833Y-55362619D01*
X48364166Y-55457857D01*
X48397500Y-55648333D01*
X48397500Y-55886428D01*
X48364166Y-56076904D01*
X48330833Y-56172142D01*
X48297500Y-56219761D01*
X48230833Y-56267380D01*
X48164166Y-56267380D01*
X48097500Y-56219761D01*
X48064166Y-56172142D01*
X48030833Y-56076904D01*
X47997500Y-55886428D01*
X47997500Y-55648333D01*
X48030833Y-55457857D01*
X48064166Y-55362619D01*
X48097500Y-55315000D01*
X48164166Y-55267380D01*
X49064166Y-56267380D02*
X48664166Y-56267380D01*
X48864166Y-56267380D02*
X48864166Y-55267380D01*
X48797500Y-55410238D01*
X48730833Y-55505476D01*
X48664166Y-55553095D01*
X49497500Y-55267380D02*
X49564166Y-55267380D01*
X49630833Y-55315000D01*
X49664166Y-55362619D01*
X49697500Y-55457857D01*
X49730833Y-55648333D01*
X49730833Y-55886428D01*
X49697500Y-56076904D01*
X49664166Y-56172142D01*
X49630833Y-56219761D01*
X49564166Y-56267380D01*
X49497500Y-56267380D01*
X49430833Y-56219761D01*
X49397500Y-56172142D01*
X49364166Y-56076904D01*
X49330833Y-55886428D01*
X49330833Y-55648333D01*
X49364166Y-55457857D01*
X49397500Y-55362619D01*
X49430833Y-55315000D01*
X49497500Y-55267380D01*
X50330833Y-55267380D02*
X50197500Y-55267380D01*
X50130833Y-55315000D01*
X50097500Y-55362619D01*
X50030833Y-55505476D01*
X49997500Y-55695952D01*
X49997500Y-56076904D01*
X50030833Y-56172142D01*
X50064166Y-56219761D01*
X50130833Y-56267380D01*
X50264166Y-56267380D01*
X50330833Y-56219761D01*
X50364166Y-56172142D01*
X50397500Y-56076904D01*
X50397500Y-55838809D01*
X50364166Y-55743571D01*
X50330833Y-55695952D01*
X50264166Y-55648333D01*
X50130833Y-55648333D01*
X50064166Y-55695952D01*
X50030833Y-55743571D01*
X49997500Y-55838809D01*
X39242857Y-41052380D02*
X39242857Y-41861904D01*
X39271428Y-41957142D01*
X39300000Y-42004761D01*
X39357142Y-42052380D01*
X39471428Y-42052380D01*
X39528571Y-42004761D01*
X39557142Y-41957142D01*
X39585714Y-41861904D01*
X39585714Y-41052380D01*
X39842857Y-42004761D02*
X39928571Y-42052380D01*
X40071428Y-42052380D01*
X40128571Y-42004761D01*
X40157142Y-41957142D01*
X40185714Y-41861904D01*
X40185714Y-41766666D01*
X40157142Y-41671428D01*
X40128571Y-41623809D01*
X40071428Y-41576190D01*
X39957142Y-41528571D01*
X39900000Y-41480952D01*
X39871428Y-41433333D01*
X39842857Y-41338095D01*
X39842857Y-41242857D01*
X39871428Y-41147619D01*
X39900000Y-41100000D01*
X39957142Y-41052380D01*
X40100000Y-41052380D01*
X40185714Y-41100000D01*
X40785714Y-42052380D02*
X40585714Y-41576190D01*
X40442857Y-42052380D02*
X40442857Y-41052380D01*
X40671428Y-41052380D01*
X40728571Y-41100000D01*
X40757142Y-41147619D01*
X40785714Y-41242857D01*
X40785714Y-41385714D01*
X40757142Y-41480952D01*
X40728571Y-41528571D01*
X40671428Y-41576190D01*
X40442857Y-41576190D01*
X48937357Y-16200380D02*
X48737357Y-15724190D01*
X48594500Y-16200380D02*
X48594500Y-15200380D01*
X48823071Y-15200380D01*
X48880214Y-15248000D01*
X48908785Y-15295619D01*
X48937357Y-15390857D01*
X48937357Y-15533714D01*
X48908785Y-15628952D01*
X48880214Y-15676571D01*
X48823071Y-15724190D01*
X48594500Y-15724190D01*
X49137357Y-15200380D02*
X49537357Y-16200380D01*
X49537357Y-15200380D02*
X49137357Y-16200380D01*
X49880214Y-15200380D02*
X49937357Y-15200380D01*
X49994500Y-15248000D01*
X50023071Y-15295619D01*
X50051642Y-15390857D01*
X50080214Y-15581333D01*
X50080214Y-15819428D01*
X50051642Y-16009904D01*
X50023071Y-16105142D01*
X49994500Y-16152761D01*
X49937357Y-16200380D01*
X49880214Y-16200380D01*
X49823071Y-16152761D01*
X49794500Y-16105142D01*
X49765928Y-16009904D01*
X49737357Y-15819428D01*
X49737357Y-15581333D01*
X49765928Y-15390857D01*
X49794500Y-15295619D01*
X49823071Y-15248000D01*
X49880214Y-15200380D01*
X48651642Y-12660380D02*
X48994500Y-12660380D01*
X48823071Y-13660380D02*
X48823071Y-12660380D01*
X49137357Y-12660380D02*
X49537357Y-13660380D01*
X49537357Y-12660380D02*
X49137357Y-13660380D01*
X49880214Y-12660380D02*
X49937357Y-12660380D01*
X49994500Y-12708000D01*
X50023071Y-12755619D01*
X50051642Y-12850857D01*
X50080214Y-13041333D01*
X50080214Y-13279428D01*
X50051642Y-13469904D01*
X50023071Y-13565142D01*
X49994500Y-13612761D01*
X49937357Y-13660380D01*
X49880214Y-13660380D01*
X49823071Y-13612761D01*
X49794500Y-13565142D01*
X49765928Y-13469904D01*
X49737357Y-13279428D01*
X49737357Y-13041333D01*
X49765928Y-12850857D01*
X49794500Y-12755619D01*
X49823071Y-12708000D01*
X49880214Y-12660380D01*
X48280214Y-23820380D02*
X48280214Y-22820380D01*
X48680214Y-22820380D02*
X48794500Y-22820380D01*
X48851642Y-22868000D01*
X48908785Y-22963238D01*
X48937357Y-23153714D01*
X48937357Y-23487047D01*
X48908785Y-23677523D01*
X48851642Y-23772761D01*
X48794500Y-23820380D01*
X48680214Y-23820380D01*
X48623071Y-23772761D01*
X48565928Y-23677523D01*
X48537357Y-23487047D01*
X48537357Y-23153714D01*
X48565928Y-22963238D01*
X48623071Y-22868000D01*
X48680214Y-22820380D01*
X49137357Y-22820380D02*
X49508785Y-22820380D01*
X49308785Y-23201333D01*
X49394500Y-23201333D01*
X49451642Y-23248952D01*
X49480214Y-23296571D01*
X49508785Y-23391809D01*
X49508785Y-23629904D01*
X49480214Y-23725142D01*
X49451642Y-23772761D01*
X49394500Y-23820380D01*
X49223071Y-23820380D01*
X49165928Y-23772761D01*
X49137357Y-23725142D01*
X49851642Y-23248952D02*
X49794500Y-23201333D01*
X49765928Y-23153714D01*
X49737357Y-23058476D01*
X49737357Y-23010857D01*
X49765928Y-22915619D01*
X49794500Y-22868000D01*
X49851642Y-22820380D01*
X49965928Y-22820380D01*
X50023071Y-22868000D01*
X50051642Y-22915619D01*
X50080214Y-23010857D01*
X50080214Y-23058476D01*
X50051642Y-23153714D01*
X50023071Y-23201333D01*
X49965928Y-23248952D01*
X49851642Y-23248952D01*
X49794500Y-23296571D01*
X49765928Y-23344190D01*
X49737357Y-23439428D01*
X49737357Y-23629904D01*
X49765928Y-23725142D01*
X49794500Y-23772761D01*
X49851642Y-23820380D01*
X49965928Y-23820380D01*
X50023071Y-23772761D01*
X50051642Y-23725142D01*
X50080214Y-23629904D01*
X50080214Y-23439428D01*
X50051642Y-23344190D01*
X50023071Y-23296571D01*
X49965928Y-23248952D01*
X10442857Y-58452380D02*
X10442857Y-57452380D01*
X10585714Y-57452380D01*
X10671428Y-57500000D01*
X10728571Y-57595238D01*
X10757142Y-57690476D01*
X10785714Y-57880952D01*
X10785714Y-58023809D01*
X10757142Y-58214285D01*
X10728571Y-58309523D01*
X10671428Y-58404761D01*
X10585714Y-58452380D01*
X10442857Y-58452380D01*
X11242857Y-57928571D02*
X11328571Y-57976190D01*
X11357142Y-58023809D01*
X11385714Y-58119047D01*
X11385714Y-58261904D01*
X11357142Y-58357142D01*
X11328571Y-58404761D01*
X11271428Y-58452380D01*
X11042857Y-58452380D01*
X11042857Y-57452380D01*
X11242857Y-57452380D01*
X11300000Y-57500000D01*
X11328571Y-57547619D01*
X11357142Y-57642857D01*
X11357142Y-57738095D01*
X11328571Y-57833333D01*
X11300000Y-57880952D01*
X11242857Y-57928571D01*
X11042857Y-57928571D01*
X11957142Y-57500000D02*
X11900000Y-57452380D01*
X11814285Y-57452380D01*
X11728571Y-57500000D01*
X11671428Y-57595238D01*
X11642857Y-57690476D01*
X11614285Y-57880952D01*
X11614285Y-58023809D01*
X11642857Y-58214285D01*
X11671428Y-58309523D01*
X11728571Y-58404761D01*
X11814285Y-58452380D01*
X11871428Y-58452380D01*
X11957142Y-58404761D01*
X11985714Y-58357142D01*
X11985714Y-58023809D01*
X11871428Y-58023809D01*
X57342857Y-22900000D02*
X57285714Y-22852380D01*
X57200000Y-22852380D01*
X57114285Y-22900000D01*
X57057142Y-22995238D01*
X57028571Y-23090476D01*
X57000000Y-23280952D01*
X57000000Y-23423809D01*
X57028571Y-23614285D01*
X57057142Y-23709523D01*
X57114285Y-23804761D01*
X57200000Y-23852380D01*
X57257142Y-23852380D01*
X57342857Y-23804761D01*
X57371428Y-23757142D01*
X57371428Y-23423809D01*
X57257142Y-23423809D01*
X57628571Y-23852380D02*
X57628571Y-22852380D01*
X57971428Y-23852380D01*
X57971428Y-22852380D01*
X58257142Y-23852380D02*
X58257142Y-22852380D01*
X58400000Y-22852380D01*
X58485714Y-22900000D01*
X58542857Y-22995238D01*
X58571428Y-23090476D01*
X58600000Y-23280952D01*
X58600000Y-23423809D01*
X58571428Y-23614285D01*
X58542857Y-23709523D01*
X58485714Y-23804761D01*
X58400000Y-23852380D01*
X58257142Y-23852380D01*
X50051642Y-27948000D02*
X49994500Y-27900380D01*
X49908785Y-27900380D01*
X49823071Y-27948000D01*
X49765928Y-28043238D01*
X49737357Y-28138476D01*
X49708785Y-28328952D01*
X49708785Y-28471809D01*
X49737357Y-28662285D01*
X49765928Y-28757523D01*
X49823071Y-28852761D01*
X49908785Y-28900380D01*
X49965928Y-28900380D01*
X50051642Y-28852761D01*
X50080214Y-28805142D01*
X50080214Y-28471809D01*
X49965928Y-28471809D01*
X-457143Y-56652380D02*
X-457143Y-55652380D01*
X-457143Y-56128571D02*
X-114286Y-56128571D01*
X-114286Y-56652380D02*
X-114286Y-55652380D01*
X428571Y-55985714D02*
X428571Y-56652380D01*
X285714Y-55604761D02*
X142857Y-56319047D01*
X514285Y-56319047D01*
X3332857Y-472380D02*
X3332857Y527620D01*
X3332857Y51429D02*
X3675714Y51429D01*
X3675714Y-472380D02*
X3675714Y527620D01*
X4275714Y-472380D02*
X3932857Y-472380D01*
X4104285Y-472380D02*
X4104285Y527620D01*
X4047142Y384762D01*
X3990000Y289524D01*
X3932857Y241905D01*
X41707142Y-27579380D02*
X42050000Y-27579380D01*
X41878571Y-28579380D02*
X41878571Y-27579380D01*
X42250000Y-28579380D02*
X42250000Y-27579380D01*
X42478571Y-27579380D01*
X42535714Y-27627000D01*
X42564285Y-27674619D01*
X42592857Y-27769857D01*
X42592857Y-27912714D01*
X42564285Y-28007952D01*
X42535714Y-28055571D01*
X42478571Y-28103190D01*
X42250000Y-28103190D01*
X42821428Y-27674619D02*
X42850000Y-27627000D01*
X42907142Y-27579380D01*
X43050000Y-27579380D01*
X43107142Y-27627000D01*
X43135714Y-27674619D01*
X43164285Y-27769857D01*
X43164285Y-27865095D01*
X43135714Y-28007952D01*
X42792857Y-28579380D01*
X43164285Y-28579380D01*
X43535714Y-27579380D02*
X43592857Y-27579380D01*
X43650000Y-27627000D01*
X43678571Y-27674619D01*
X43707142Y-27769857D01*
X43735714Y-27960333D01*
X43735714Y-28198428D01*
X43707142Y-28388904D01*
X43678571Y-28484142D01*
X43650000Y-28531761D01*
X43592857Y-28579380D01*
X43535714Y-28579380D01*
X43478571Y-28531761D01*
X43450000Y-28484142D01*
X43421428Y-28388904D01*
X43392857Y-28198428D01*
X43392857Y-27960333D01*
X43421428Y-27769857D01*
X43450000Y-27674619D01*
X43478571Y-27627000D01*
X43535714Y-27579380D01*
X30452380Y-45057142D02*
X29452380Y-45057142D01*
X30452380Y-44714285D02*
X29880952Y-44971428D01*
X29452380Y-44714285D02*
X30023809Y-45057142D01*
X29928571Y-44457142D02*
X29928571Y-44257142D01*
X30452380Y-44171428D02*
X30452380Y-44457142D01*
X29452380Y-44457142D01*
X29452380Y-44171428D01*
X29928571Y-43914285D02*
X29928571Y-43714285D01*
X30452380Y-43628571D02*
X30452380Y-43914285D01*
X29452380Y-43914285D01*
X29452380Y-43628571D01*
X30452380Y-43371428D02*
X29452380Y-43371428D01*
X29452380Y-43142857D01*
X29500000Y-43085714D01*
X29547619Y-43057142D01*
X29642857Y-43028571D01*
X29785714Y-43028571D01*
X29880952Y-43057142D01*
X29928571Y-43085714D01*
X29976190Y-43142857D01*
X29976190Y-43371428D01*
X29452380Y-42657142D02*
X29452380Y-42542857D01*
X29500000Y-42485714D01*
X29595238Y-42428571D01*
X29785714Y-42400000D01*
X30119047Y-42400000D01*
X30309523Y-42428571D01*
X30404761Y-42485714D01*
X30452380Y-42542857D01*
X30452380Y-42657142D01*
X30404761Y-42714285D01*
X30309523Y-42771428D01*
X30119047Y-42800000D01*
X29785714Y-42800000D01*
X29595238Y-42771428D01*
X29500000Y-42714285D01*
X29452380Y-42657142D01*
X29452380Y-42142857D02*
X30261904Y-42142857D01*
X30357142Y-42114285D01*
X30404761Y-42085714D01*
X30452380Y-42028571D01*
X30452380Y-41914285D01*
X30404761Y-41857142D01*
X30357142Y-41828571D01*
X30261904Y-41800000D01*
X29452380Y-41800000D01*
X29452380Y-41600000D02*
X29452380Y-41257142D01*
X30452380Y-41428571D02*
X29452380Y-41428571D01*
X29928571Y-40600000D02*
X29928571Y-40400000D01*
X30452380Y-40314285D02*
X30452380Y-40600000D01*
X29452380Y-40600000D01*
X29452380Y-40314285D01*
X29452380Y-40114285D02*
X30452380Y-39714285D01*
X29452380Y-39714285D02*
X30452380Y-40114285D01*
X30357142Y-39142857D02*
X30404761Y-39171428D01*
X30452380Y-39257142D01*
X30452380Y-39314285D01*
X30404761Y-39400000D01*
X30309523Y-39457142D01*
X30214285Y-39485714D01*
X30023809Y-39514285D01*
X29880952Y-39514285D01*
X29690476Y-39485714D01*
X29595238Y-39457142D01*
X29500000Y-39400000D01*
X29452380Y-39314285D01*
X29452380Y-39257142D01*
X29500000Y-39171428D01*
X29547619Y-39142857D01*
X29928571Y-38885714D02*
X29928571Y-38685714D01*
X30452380Y-38600000D02*
X30452380Y-38885714D01*
X29452380Y-38885714D01*
X29452380Y-38600000D01*
X30452380Y-38342857D02*
X29452380Y-38342857D01*
X29452380Y-38114285D01*
X29500000Y-38057142D01*
X29547619Y-38028571D01*
X29642857Y-38000000D01*
X29785714Y-38000000D01*
X29880952Y-38028571D01*
X29928571Y-38057142D01*
X29976190Y-38114285D01*
X29976190Y-38342857D01*
X29452380Y-37828571D02*
X29452380Y-37485714D01*
X30452380Y-37657142D02*
X29452380Y-37657142D01*
X29500000Y-36514285D02*
X29452380Y-36571428D01*
X29452380Y-36657142D01*
X29500000Y-36742857D01*
X29595238Y-36800000D01*
X29690476Y-36828571D01*
X29880952Y-36857142D01*
X30023809Y-36857142D01*
X30214285Y-36828571D01*
X30309523Y-36800000D01*
X30404761Y-36742857D01*
X30452380Y-36657142D01*
X30452380Y-36600000D01*
X30404761Y-36514285D01*
X30357142Y-36485714D01*
X30023809Y-36485714D01*
X30023809Y-36600000D01*
X30452380Y-35885714D02*
X29976190Y-36085714D01*
X30452380Y-36228571D02*
X29452380Y-36228571D01*
X29452380Y-36000000D01*
X29500000Y-35942857D01*
X29547619Y-35914285D01*
X29642857Y-35885714D01*
X29785714Y-35885714D01*
X29880952Y-35914285D01*
X29928571Y-35942857D01*
X29976190Y-36000000D01*
X29976190Y-36228571D01*
X29452380Y-35514285D02*
X29452380Y-35400000D01*
X29500000Y-35342857D01*
X29595238Y-35285714D01*
X29785714Y-35257142D01*
X30119047Y-35257142D01*
X30309523Y-35285714D01*
X30404761Y-35342857D01*
X30452380Y-35400000D01*
X30452380Y-35514285D01*
X30404761Y-35571428D01*
X30309523Y-35628571D01*
X30119047Y-35657142D01*
X29785714Y-35657142D01*
X29595238Y-35628571D01*
X29500000Y-35571428D01*
X29452380Y-35514285D01*
X29452380Y-35000000D02*
X30261904Y-35000000D01*
X30357142Y-34971428D01*
X30404761Y-34942857D01*
X30452380Y-34885714D01*
X30452380Y-34771428D01*
X30404761Y-34714285D01*
X30357142Y-34685714D01*
X30261904Y-34657142D01*
X29452380Y-34657142D01*
X30452380Y-34371428D02*
X29452380Y-34371428D01*
X30452380Y-34028571D01*
X29452380Y-34028571D01*
X30452380Y-33742857D02*
X29452380Y-33742857D01*
X29452380Y-33600000D01*
X29500000Y-33514285D01*
X29595238Y-33457142D01*
X29690476Y-33428571D01*
X29880952Y-33400000D01*
X30023809Y-33400000D01*
X30214285Y-33428571D01*
X30309523Y-33457142D01*
X30404761Y-33514285D01*
X30452380Y-33600000D01*
X30452380Y-33742857D01*
X30452380Y-32685714D02*
X29452380Y-32685714D01*
X29452380Y-32457142D01*
X29500000Y-32400000D01*
X29547619Y-32371428D01*
X29642857Y-32342857D01*
X29785714Y-32342857D01*
X29880952Y-32371428D01*
X29928571Y-32400000D01*
X29976190Y-32457142D01*
X29976190Y-32685714D01*
X29452380Y-31971428D02*
X29452380Y-31857142D01*
X29500000Y-31800000D01*
X29595238Y-31742857D01*
X29785714Y-31714285D01*
X30119047Y-31714285D01*
X30309523Y-31742857D01*
X30404761Y-31800000D01*
X30452380Y-31857142D01*
X30452380Y-31971428D01*
X30404761Y-32028571D01*
X30309523Y-32085714D01*
X30119047Y-32114285D01*
X29785714Y-32114285D01*
X29595238Y-32085714D01*
X29500000Y-32028571D01*
X29452380Y-31971428D01*
X29452380Y-31457142D02*
X30261904Y-31457142D01*
X30357142Y-31428571D01*
X30404761Y-31400000D01*
X30452380Y-31342857D01*
X30452380Y-31228571D01*
X30404761Y-31171428D01*
X30357142Y-31142857D01*
X30261904Y-31114285D01*
X29452380Y-31114285D01*
X30452380Y-30485714D02*
X29976190Y-30685714D01*
X30452380Y-30828571D02*
X29452380Y-30828571D01*
X29452380Y-30600000D01*
X29500000Y-30542857D01*
X29547619Y-30514285D01*
X29642857Y-30485714D01*
X29785714Y-30485714D01*
X29880952Y-30514285D01*
X29928571Y-30542857D01*
X29976190Y-30600000D01*
X29976190Y-30828571D01*
X30404761Y-30257142D02*
X30452380Y-30171428D01*
X30452380Y-30028571D01*
X30404761Y-29971428D01*
X30357142Y-29942857D01*
X30261904Y-29914285D01*
X30166666Y-29914285D01*
X30071428Y-29942857D01*
X30023809Y-29971428D01*
X29976190Y-30028571D01*
X29928571Y-30142857D01*
X29880952Y-30200000D01*
X29833333Y-30228571D01*
X29738095Y-30257142D01*
X29642857Y-30257142D01*
X29547619Y-30228571D01*
X29500000Y-30200000D01*
X29452380Y-30142857D01*
X29452380Y-30000000D01*
X29500000Y-29914285D01*
X43778857Y-10120380D02*
X44121714Y-10120380D01*
X43950285Y-11120380D02*
X43950285Y-10120380D01*
X44321714Y-11120380D02*
X44321714Y-10120380D01*
X44550285Y-10120380D01*
X44607428Y-10168000D01*
X44636000Y-10215619D01*
X44664571Y-10310857D01*
X44664571Y-10453714D01*
X44636000Y-10548952D01*
X44607428Y-10596571D01*
X44550285Y-10644190D01*
X44321714Y-10644190D01*
X45236000Y-11120380D02*
X44893142Y-11120380D01*
X45064571Y-11120380D02*
X45064571Y-10120380D01*
X45007428Y-10263238D01*
X44950285Y-10358476D01*
X44893142Y-10406095D01*
X22297380Y-43760714D02*
X21821190Y-43960714D01*
X22297380Y-44103571D02*
X21297380Y-44103571D01*
X21297380Y-43875000D01*
X21345000Y-43817857D01*
X21392619Y-43789285D01*
X21487857Y-43760714D01*
X21630714Y-43760714D01*
X21725952Y-43789285D01*
X21773571Y-43817857D01*
X21821190Y-43875000D01*
X21821190Y-44103571D01*
X22297380Y-43189285D02*
X22297380Y-43532142D01*
X22297380Y-43360714D02*
X21297380Y-43360714D01*
X21440238Y-43417857D01*
X21535476Y-43475000D01*
X21583095Y-43532142D01*
X21297380Y-42989285D02*
X21297380Y-42617857D01*
X21678333Y-42817857D01*
X21678333Y-42732142D01*
X21725952Y-42675000D01*
X21773571Y-42646428D01*
X21868809Y-42617857D01*
X22106904Y-42617857D01*
X22202142Y-42646428D01*
X22249761Y-42675000D01*
X22297380Y-42732142D01*
X22297380Y-42903571D01*
X22249761Y-42960714D01*
X22202142Y-42989285D01*
X60600000Y-22494761D02*
X60685714Y-22542380D01*
X60828571Y-22542380D01*
X60885714Y-22494761D01*
X60914285Y-22447142D01*
X60942857Y-22351904D01*
X60942857Y-22256666D01*
X60914285Y-22161428D01*
X60885714Y-22113809D01*
X60828571Y-22066190D01*
X60714285Y-22018571D01*
X60657142Y-21970952D01*
X60628571Y-21923333D01*
X60600000Y-21828095D01*
X60600000Y-21732857D01*
X60628571Y-21637619D01*
X60657142Y-21590000D01*
X60714285Y-21542380D01*
X60857142Y-21542380D01*
X60942857Y-21590000D01*
X61142857Y-21542380D02*
X61285714Y-22542380D01*
X61400000Y-21828095D01*
X61514285Y-22542380D01*
X61657142Y-21542380D01*
X61857142Y-21637619D02*
X61885714Y-21590000D01*
X61942857Y-21542380D01*
X62085714Y-21542380D01*
X62142857Y-21590000D01*
X62171428Y-21637619D01*
X62200000Y-21732857D01*
X62200000Y-21828095D01*
X62171428Y-21970952D01*
X61828571Y-22542380D01*
X62200000Y-22542380D01*
X122380Y-29170000D02*
X122380Y-29455714D01*
X-877620Y-29455714D01*
X122380Y-28655714D02*
X122380Y-28998571D01*
X122380Y-28827142D02*
X-877620Y-28827142D01*
X-734762Y-28884285D01*
X-639524Y-28941428D01*
X-591905Y-28998571D01*
X31564285Y-60042142D02*
X31535714Y-60089761D01*
X31450000Y-60137380D01*
X31392857Y-60137380D01*
X31307142Y-60089761D01*
X31250000Y-59994523D01*
X31221428Y-59899285D01*
X31192857Y-59708809D01*
X31192857Y-59565952D01*
X31221428Y-59375476D01*
X31250000Y-59280238D01*
X31307142Y-59185000D01*
X31392857Y-59137380D01*
X31450000Y-59137380D01*
X31535714Y-59185000D01*
X31564285Y-59232619D01*
X31764285Y-59137380D02*
X32135714Y-59137380D01*
X31935714Y-59518333D01*
X32021428Y-59518333D01*
X32078571Y-59565952D01*
X32107142Y-59613571D01*
X32135714Y-59708809D01*
X32135714Y-59946904D01*
X32107142Y-60042142D01*
X32078571Y-60089761D01*
X32021428Y-60137380D01*
X31850000Y-60137380D01*
X31792857Y-60089761D01*
X31764285Y-60042142D01*
X32335714Y-59137380D02*
X32707142Y-59137380D01*
X32507142Y-59518333D01*
X32592857Y-59518333D01*
X32650000Y-59565952D01*
X32678571Y-59613571D01*
X32707142Y-59708809D01*
X32707142Y-59946904D01*
X32678571Y-60042142D01*
X32650000Y-60089761D01*
X32592857Y-60137380D01*
X32421428Y-60137380D01*
X32364285Y-60089761D01*
X32335714Y-60042142D01*
X42357142Y-40652380D02*
X42357142Y-39652380D01*
X42500000Y-39652380D01*
X42585714Y-39700000D01*
X42642857Y-39795238D01*
X42671428Y-39890476D01*
X42700000Y-40080952D01*
X42700000Y-40223809D01*
X42671428Y-40414285D01*
X42642857Y-40509523D01*
X42585714Y-40604761D01*
X42500000Y-40652380D01*
X42357142Y-40652380D01*
X43214285Y-39652380D02*
X43100000Y-39652380D01*
X43042857Y-39700000D01*
X43014285Y-39747619D01*
X42957142Y-39890476D01*
X42928571Y-40080952D01*
X42928571Y-40461904D01*
X42957142Y-40557142D01*
X42985714Y-40604761D01*
X43042857Y-40652380D01*
X43157142Y-40652380D01*
X43214285Y-40604761D01*
X43242857Y-40557142D01*
X43271428Y-40461904D01*
X43271428Y-40223809D01*
X43242857Y-40128571D01*
X43214285Y-40080952D01*
X43157142Y-40033333D01*
X43042857Y-40033333D01*
X42985714Y-40080952D01*
X42957142Y-40128571D01*
X42928571Y-40223809D01*
X42114285Y-33752380D02*
X41914285Y-33276190D01*
X41771428Y-33752380D02*
X41771428Y-32752380D01*
X42000000Y-32752380D01*
X42057142Y-32800000D01*
X42085714Y-32847619D01*
X42114285Y-32942857D01*
X42114285Y-33085714D01*
X42085714Y-33180952D01*
X42057142Y-33228571D01*
X42000000Y-33276190D01*
X41771428Y-33276190D01*
X42342857Y-32847619D02*
X42371428Y-32800000D01*
X42428571Y-32752380D01*
X42571428Y-32752380D01*
X42628571Y-32800000D01*
X42657142Y-32847619D01*
X42685714Y-32942857D01*
X42685714Y-33038095D01*
X42657142Y-33180952D01*
X42314285Y-33752380D01*
X42685714Y-33752380D01*
X43228571Y-32752380D02*
X42942857Y-32752380D01*
X42914285Y-33228571D01*
X42942857Y-33180952D01*
X43000000Y-33133333D01*
X43142857Y-33133333D01*
X43200000Y-33180952D01*
X43228571Y-33228571D01*
X43257142Y-33323809D01*
X43257142Y-33561904D01*
X43228571Y-33657142D01*
X43200000Y-33704761D01*
X43142857Y-33752380D01*
X43000000Y-33752380D01*
X42942857Y-33704761D01*
X42914285Y-33657142D01*
X2757142Y-44252380D02*
X2757142Y-43252380D01*
X2900000Y-43252380D01*
X2985714Y-43300000D01*
X3042857Y-43395238D01*
X3071428Y-43490476D01*
X3100000Y-43680952D01*
X3100000Y-43823809D01*
X3071428Y-44014285D01*
X3042857Y-44109523D01*
X2985714Y-44204761D01*
X2900000Y-44252380D01*
X2757142Y-44252380D01*
X3614285Y-43585714D02*
X3614285Y-44252380D01*
X3471428Y-43204761D02*
X3328571Y-43919047D01*
X3700000Y-43919047D01*
X8697142Y-38252380D02*
X9040000Y-38252380D01*
X8868571Y-39252380D02*
X8868571Y-38252380D01*
X9240000Y-39252380D02*
X9240000Y-38252380D01*
X9468571Y-38252380D01*
X9525714Y-38300000D01*
X9554285Y-38347619D01*
X9582857Y-38442857D01*
X9582857Y-38585714D01*
X9554285Y-38680952D01*
X9525714Y-38728571D01*
X9468571Y-38776190D01*
X9240000Y-38776190D01*
X9782857Y-38252380D02*
X10154285Y-38252380D01*
X9954285Y-38633333D01*
X10040000Y-38633333D01*
X10097142Y-38680952D01*
X10125714Y-38728571D01*
X10154285Y-38823809D01*
X10154285Y-39061904D01*
X10125714Y-39157142D01*
X10097142Y-39204761D01*
X10040000Y-39252380D01*
X9868571Y-39252380D01*
X9811428Y-39204761D01*
X9782857Y-39157142D01*
X10525714Y-38252380D02*
X10582857Y-38252380D01*
X10640000Y-38300000D01*
X10668571Y-38347619D01*
X10697142Y-38442857D01*
X10725714Y-38633333D01*
X10725714Y-38871428D01*
X10697142Y-39061904D01*
X10668571Y-39157142D01*
X10640000Y-39204761D01*
X10582857Y-39252380D01*
X10525714Y-39252380D01*
X10468571Y-39204761D01*
X10440000Y-39157142D01*
X10411428Y-39061904D01*
X10382857Y-38871428D01*
X10382857Y-38633333D01*
X10411428Y-38442857D01*
X10440000Y-38347619D01*
X10468571Y-38300000D01*
X10525714Y-38252380D01*
X16307142Y-4754380D02*
X16650000Y-4754380D01*
X16478571Y-5754380D02*
X16478571Y-4754380D01*
X16850000Y-5754380D02*
X16850000Y-4754380D01*
X17078571Y-4754380D01*
X17135714Y-4802000D01*
X17164285Y-4849619D01*
X17192857Y-4944857D01*
X17192857Y-5087714D01*
X17164285Y-5182952D01*
X17135714Y-5230571D01*
X17078571Y-5278190D01*
X16850000Y-5278190D01*
X17421428Y-4849619D02*
X17450000Y-4802000D01*
X17507142Y-4754380D01*
X17650000Y-4754380D01*
X17707142Y-4802000D01*
X17735714Y-4849619D01*
X17764285Y-4944857D01*
X17764285Y-5040095D01*
X17735714Y-5182952D01*
X17392857Y-5754380D01*
X17764285Y-5754380D01*
X17964285Y-4754380D02*
X18364285Y-4754380D01*
X18107142Y-5754380D01*
X11771428Y-34452380D02*
X11771428Y-33452380D01*
X11914285Y-33452380D01*
X12000000Y-33500000D01*
X12057142Y-33595238D01*
X12085714Y-33690476D01*
X12114285Y-33880952D01*
X12114285Y-34023809D01*
X12085714Y-34214285D01*
X12057142Y-34309523D01*
X12000000Y-34404761D01*
X11914285Y-34452380D01*
X11771428Y-34452380D01*
X12685714Y-34452380D02*
X12342857Y-34452380D01*
X12514285Y-34452380D02*
X12514285Y-33452380D01*
X12457142Y-33595238D01*
X12400000Y-33690476D01*
X12342857Y-33738095D01*
X13257142Y-34452380D02*
X12914285Y-34452380D01*
X13085714Y-34452380D02*
X13085714Y-33452380D01*
X13028571Y-33595238D01*
X12971428Y-33690476D01*
X12914285Y-33738095D01*
X46342857Y-22054380D02*
X46685714Y-22054380D01*
X46514285Y-23054380D02*
X46514285Y-22054380D01*
X46885714Y-23054380D02*
X46885714Y-22054380D01*
X47114285Y-22054380D01*
X47171428Y-22102000D01*
X47200000Y-22149619D01*
X47228571Y-22244857D01*
X47228571Y-22387714D01*
X47200000Y-22482952D01*
X47171428Y-22530571D01*
X47114285Y-22578190D01*
X46885714Y-22578190D01*
X47571428Y-22482952D02*
X47514285Y-22435333D01*
X47485714Y-22387714D01*
X47457142Y-22292476D01*
X47457142Y-22244857D01*
X47485714Y-22149619D01*
X47514285Y-22102000D01*
X47571428Y-22054380D01*
X47685714Y-22054380D01*
X47742857Y-22102000D01*
X47771428Y-22149619D01*
X47800000Y-22244857D01*
X47800000Y-22292476D01*
X47771428Y-22387714D01*
X47742857Y-22435333D01*
X47685714Y-22482952D01*
X47571428Y-22482952D01*
X47514285Y-22530571D01*
X47485714Y-22578190D01*
X47457142Y-22673428D01*
X47457142Y-22863904D01*
X47485714Y-22959142D01*
X47514285Y-23006761D01*
X47571428Y-23054380D01*
X47685714Y-23054380D01*
X47742857Y-23006761D01*
X47771428Y-22959142D01*
X47800000Y-22863904D01*
X47800000Y-22673428D01*
X47771428Y-22578190D01*
X47742857Y-22530571D01*
X47685714Y-22482952D01*
X14627142Y-48784380D02*
X14970000Y-48784380D01*
X14798571Y-49784380D02*
X14798571Y-48784380D01*
X15170000Y-49784380D02*
X15170000Y-48784380D01*
X15398571Y-48784380D01*
X15455714Y-48832000D01*
X15484285Y-48879619D01*
X15512857Y-48974857D01*
X15512857Y-49117714D01*
X15484285Y-49212952D01*
X15455714Y-49260571D01*
X15398571Y-49308190D01*
X15170000Y-49308190D01*
X16084285Y-49784380D02*
X15741428Y-49784380D01*
X15912857Y-49784380D02*
X15912857Y-48784380D01*
X15855714Y-48927238D01*
X15798571Y-49022476D01*
X15741428Y-49070095D01*
X16598571Y-48784380D02*
X16484285Y-48784380D01*
X16427142Y-48832000D01*
X16398571Y-48879619D01*
X16341428Y-49022476D01*
X16312857Y-49212952D01*
X16312857Y-49593904D01*
X16341428Y-49689142D01*
X16370000Y-49736761D01*
X16427142Y-49784380D01*
X16541428Y-49784380D01*
X16598571Y-49736761D01*
X16627142Y-49689142D01*
X16655714Y-49593904D01*
X16655714Y-49355809D01*
X16627142Y-49260571D01*
X16598571Y-49212952D01*
X16541428Y-49165333D01*
X16427142Y-49165333D01*
X16370000Y-49212952D01*
X16341428Y-49260571D01*
X16312857Y-49355809D01*
X41782142Y-24029380D02*
X42125000Y-24029380D01*
X41953571Y-25029380D02*
X41953571Y-24029380D01*
X42325000Y-25029380D02*
X42325000Y-24029380D01*
X42553571Y-24029380D01*
X42610714Y-24077000D01*
X42639285Y-24124619D01*
X42667857Y-24219857D01*
X42667857Y-24362714D01*
X42639285Y-24457952D01*
X42610714Y-24505571D01*
X42553571Y-24553190D01*
X42325000Y-24553190D01*
X43239285Y-25029380D02*
X42896428Y-25029380D01*
X43067857Y-25029380D02*
X43067857Y-24029380D01*
X43010714Y-24172238D01*
X42953571Y-24267476D01*
X42896428Y-24315095D01*
X43525000Y-25029380D02*
X43639285Y-25029380D01*
X43696428Y-24981761D01*
X43725000Y-24934142D01*
X43782142Y-24791285D01*
X43810714Y-24600809D01*
X43810714Y-24219857D01*
X43782142Y-24124619D01*
X43753571Y-24077000D01*
X43696428Y-24029380D01*
X43582142Y-24029380D01*
X43525000Y-24077000D01*
X43496428Y-24124619D01*
X43467857Y-24219857D01*
X43467857Y-24457952D01*
X43496428Y-24553190D01*
X43525000Y-24600809D01*
X43582142Y-24648428D01*
X43696428Y-24648428D01*
X43753571Y-24600809D01*
X43782142Y-24553190D01*
X43810714Y-24457952D01*
X3552857Y-60842380D02*
X3895714Y-60842380D01*
X3724285Y-61842380D02*
X3724285Y-60842380D01*
X4095714Y-61842380D02*
X4095714Y-60842380D01*
X4324285Y-60842380D01*
X4381428Y-60890000D01*
X4410000Y-60937619D01*
X4438571Y-61032857D01*
X4438571Y-61175714D01*
X4410000Y-61270952D01*
X4381428Y-61318571D01*
X4324285Y-61366190D01*
X4095714Y-61366190D01*
X4952857Y-61175714D02*
X4952857Y-61842380D01*
X4810000Y-60794761D02*
X4667142Y-61509047D01*
X5038571Y-61509047D01*
X4207142Y-31242380D02*
X4550000Y-31242380D01*
X4378571Y-32242380D02*
X4378571Y-31242380D01*
X4750000Y-32242380D02*
X4750000Y-31242380D01*
X4978571Y-31242380D01*
X5035714Y-31290000D01*
X5064285Y-31337619D01*
X5092857Y-31432857D01*
X5092857Y-31575714D01*
X5064285Y-31670952D01*
X5035714Y-31718571D01*
X4978571Y-31766190D01*
X4750000Y-31766190D01*
X5321428Y-31337619D02*
X5350000Y-31290000D01*
X5407142Y-31242380D01*
X5550000Y-31242380D01*
X5607142Y-31290000D01*
X5635714Y-31337619D01*
X5664285Y-31432857D01*
X5664285Y-31528095D01*
X5635714Y-31670952D01*
X5292857Y-32242380D01*
X5664285Y-32242380D01*
X6178571Y-31575714D02*
X6178571Y-32242380D01*
X6035714Y-31194761D02*
X5892857Y-31909047D01*
X6264285Y-31909047D01*
X24200000Y-6404761D02*
X24285714Y-6452380D01*
X24428571Y-6452380D01*
X24485714Y-6404761D01*
X24514285Y-6357142D01*
X24542857Y-6261904D01*
X24542857Y-6166666D01*
X24514285Y-6071428D01*
X24485714Y-6023809D01*
X24428571Y-5976190D01*
X24314285Y-5928571D01*
X24257142Y-5880952D01*
X24228571Y-5833333D01*
X24200000Y-5738095D01*
X24200000Y-5642857D01*
X24228571Y-5547619D01*
X24257142Y-5500000D01*
X24314285Y-5452380D01*
X24457142Y-5452380D01*
X24542857Y-5500000D01*
X24742857Y-5452380D02*
X24885714Y-6452380D01*
X25000000Y-5738095D01*
X25114285Y-6452380D01*
X25257142Y-5452380D01*
X25742857Y-5785714D02*
X25742857Y-6452380D01*
X25600000Y-5404761D02*
X25457142Y-6119047D01*
X25828571Y-6119047D01*
X18602380Y-2038571D02*
X19411904Y-2038571D01*
X19507142Y-2010000D01*
X19554761Y-1981428D01*
X19602380Y-1924285D01*
X19602380Y-1810000D01*
X19554761Y-1752857D01*
X19507142Y-1724285D01*
X19411904Y-1695714D01*
X18602380Y-1695714D01*
X19554761Y-1438571D02*
X19602380Y-1352857D01*
X19602380Y-1210000D01*
X19554761Y-1152857D01*
X19507142Y-1124285D01*
X19411904Y-1095714D01*
X19316666Y-1095714D01*
X19221428Y-1124285D01*
X19173809Y-1152857D01*
X19126190Y-1210000D01*
X19078571Y-1324285D01*
X19030952Y-1381428D01*
X18983333Y-1410000D01*
X18888095Y-1438571D01*
X18792857Y-1438571D01*
X18697619Y-1410000D01*
X18650000Y-1381428D01*
X18602380Y-1324285D01*
X18602380Y-1181428D01*
X18650000Y-1095714D01*
X19602380Y-495714D02*
X19126190Y-695714D01*
X19602380Y-838571D02*
X18602380Y-838571D01*
X18602380Y-610000D01*
X18650000Y-552857D01*
X18697619Y-524285D01*
X18792857Y-495714D01*
X18935714Y-495714D01*
X19030952Y-524285D01*
X19078571Y-552857D01*
X19126190Y-610000D01*
X19126190Y-838571D01*
X19697619Y-381428D02*
X19697619Y75715D01*
X19078571Y418572D02*
X19126190Y504286D01*
X19173809Y532858D01*
X19269047Y561429D01*
X19411904Y561429D01*
X19507142Y532858D01*
X19554761Y504286D01*
X19602380Y447143D01*
X19602380Y218572D01*
X18602380Y218572D01*
X18602380Y418572D01*
X18650000Y475715D01*
X18697619Y504286D01*
X18792857Y532858D01*
X18888095Y532858D01*
X18983333Y504286D01*
X19030952Y475715D01*
X19078571Y418572D01*
X19078571Y218572D01*
X18602380Y732858D02*
X18602380Y1075715D01*
X19602380Y904286D02*
X18602380Y904286D01*
X19602380Y1275715D02*
X18602380Y1275715D01*
X19602380Y1618572D01*
X18602380Y1618572D01*
X8267857Y-59079380D02*
X8610714Y-59079380D01*
X8439285Y-60079380D02*
X8439285Y-59079380D01*
X8810714Y-60079380D02*
X8810714Y-59079380D01*
X9039285Y-59079380D01*
X9096428Y-59127000D01*
X9125000Y-59174619D01*
X9153571Y-59269857D01*
X9153571Y-59412714D01*
X9125000Y-59507952D01*
X9096428Y-59555571D01*
X9039285Y-59603190D01*
X8810714Y-59603190D01*
X9353571Y-59079380D02*
X9725000Y-59079380D01*
X9525000Y-59460333D01*
X9610714Y-59460333D01*
X9667857Y-59507952D01*
X9696428Y-59555571D01*
X9725000Y-59650809D01*
X9725000Y-59888904D01*
X9696428Y-59984142D01*
X9667857Y-60031761D01*
X9610714Y-60079380D01*
X9439285Y-60079380D01*
X9382142Y-60031761D01*
X9353571Y-59984142D01*
X46921428Y-34552380D02*
X46921428Y-33552380D01*
X47064285Y-33552380D01*
X47150000Y-33600000D01*
X47207142Y-33695238D01*
X47235714Y-33790476D01*
X47264285Y-33980952D01*
X47264285Y-34123809D01*
X47235714Y-34314285D01*
X47207142Y-34409523D01*
X47150000Y-34504761D01*
X47064285Y-34552380D01*
X46921428Y-34552380D01*
X47835714Y-34552380D02*
X47492857Y-34552380D01*
X47664285Y-34552380D02*
X47664285Y-33552380D01*
X47607142Y-33695238D01*
X47550000Y-33790476D01*
X47492857Y-33838095D01*
X48207142Y-33552380D02*
X48264285Y-33552380D01*
X48321428Y-33600000D01*
X48350000Y-33647619D01*
X48378571Y-33742857D01*
X48407142Y-33933333D01*
X48407142Y-34171428D01*
X48378571Y-34361904D01*
X48350000Y-34457142D01*
X48321428Y-34504761D01*
X48264285Y-34552380D01*
X48207142Y-34552380D01*
X48150000Y-34504761D01*
X48121428Y-34457142D01*
X48092857Y-34361904D01*
X48064285Y-34171428D01*
X48064285Y-33933333D01*
X48092857Y-33742857D01*
X48121428Y-33647619D01*
X48150000Y-33600000D01*
X48207142Y-33552380D01*
X45932142Y-26354380D02*
X46275000Y-26354380D01*
X46103571Y-27354380D02*
X46103571Y-26354380D01*
X46475000Y-27354380D02*
X46475000Y-26354380D01*
X46703571Y-26354380D01*
X46760714Y-26402000D01*
X46789285Y-26449619D01*
X46817857Y-26544857D01*
X46817857Y-26687714D01*
X46789285Y-26782952D01*
X46760714Y-26830571D01*
X46703571Y-26878190D01*
X46475000Y-26878190D01*
X47389285Y-27354380D02*
X47046428Y-27354380D01*
X47217857Y-27354380D02*
X47217857Y-26354380D01*
X47160714Y-26497238D01*
X47103571Y-26592476D01*
X47046428Y-26640095D01*
X47589285Y-26354380D02*
X47960714Y-26354380D01*
X47760714Y-26735333D01*
X47846428Y-26735333D01*
X47903571Y-26782952D01*
X47932142Y-26830571D01*
X47960714Y-26925809D01*
X47960714Y-27163904D01*
X47932142Y-27259142D01*
X47903571Y-27306761D01*
X47846428Y-27354380D01*
X47675000Y-27354380D01*
X47617857Y-27306761D01*
X47589285Y-27259142D01*
X11452380Y-48200000D02*
X12166666Y-48200000D01*
X12309523Y-48228571D01*
X12404761Y-48285714D01*
X12452380Y-48371428D01*
X12452380Y-48428571D01*
X12452380Y-47600000D02*
X12452380Y-47942857D01*
X12452380Y-47771428D02*
X11452380Y-47771428D01*
X11595238Y-47828571D01*
X11690476Y-47885714D01*
X11738095Y-47942857D01*
X38339285Y-33657142D02*
X38310714Y-33704761D01*
X38225000Y-33752380D01*
X38167857Y-33752380D01*
X38082142Y-33704761D01*
X38025000Y-33609523D01*
X37996428Y-33514285D01*
X37967857Y-33323809D01*
X37967857Y-33180952D01*
X37996428Y-32990476D01*
X38025000Y-32895238D01*
X38082142Y-32800000D01*
X38167857Y-32752380D01*
X38225000Y-32752380D01*
X38310714Y-32800000D01*
X38339285Y-32847619D01*
X38910714Y-33752380D02*
X38567857Y-33752380D01*
X38739285Y-33752380D02*
X38739285Y-32752380D01*
X38682142Y-32895238D01*
X38625000Y-32990476D01*
X38567857Y-33038095D01*
X39425000Y-33085714D02*
X39425000Y-33752380D01*
X39282142Y-32704761D02*
X39139285Y-33419047D01*
X39510714Y-33419047D01*
X14621428Y437620D02*
X14621428Y1437620D01*
X14764285Y1437620D01*
X14850000Y1390000D01*
X14907142Y1294762D01*
X14935714Y1199524D01*
X14964285Y1009048D01*
X14964285Y866191D01*
X14935714Y675715D01*
X14907142Y580477D01*
X14850000Y485239D01*
X14764285Y437620D01*
X14621428Y437620D01*
X15535714Y437620D02*
X15192857Y437620D01*
X15364285Y437620D02*
X15364285Y1437620D01*
X15307142Y1294762D01*
X15250000Y1199524D01*
X15192857Y1151905D01*
X16078571Y1437620D02*
X15792857Y1437620D01*
X15764285Y961429D01*
X15792857Y1009048D01*
X15850000Y1056667D01*
X15992857Y1056667D01*
X16050000Y1009048D01*
X16078571Y961429D01*
X16107142Y866191D01*
X16107142Y628096D01*
X16078571Y532858D01*
X16050000Y485239D01*
X15992857Y437620D01*
X15850000Y437620D01*
X15792857Y485239D01*
X15764285Y532858D01*
X42882142Y-7302380D02*
X42882142Y-8111904D01*
X42910714Y-8207142D01*
X42939285Y-8254761D01*
X42996428Y-8302380D01*
X43110714Y-8302380D01*
X43167857Y-8254761D01*
X43196428Y-8207142D01*
X43225000Y-8111904D01*
X43225000Y-7302380D01*
X43825000Y-8302380D02*
X43482142Y-8302380D01*
X43653571Y-8302380D02*
X43653571Y-7302380D01*
X43596428Y-7445238D01*
X43539285Y-7540476D01*
X43482142Y-7588095D01*
X44025000Y-7302380D02*
X44396428Y-7302380D01*
X44196428Y-7683333D01*
X44282142Y-7683333D01*
X44339285Y-7730952D01*
X44367857Y-7778571D01*
X44396428Y-7873809D01*
X44396428Y-8111904D01*
X44367857Y-8207142D01*
X44339285Y-8254761D01*
X44282142Y-8302380D01*
X44110714Y-8302380D01*
X44053571Y-8254761D01*
X44025000Y-8207142D01*
X14557142Y-36882380D02*
X14557142Y-35882380D01*
X14700000Y-35882380D01*
X14785714Y-35930000D01*
X14842857Y-36025238D01*
X14871428Y-36120476D01*
X14900000Y-36310952D01*
X14900000Y-36453809D01*
X14871428Y-36644285D01*
X14842857Y-36739523D01*
X14785714Y-36834761D01*
X14700000Y-36882380D01*
X14557142Y-36882380D01*
X15185714Y-36882380D02*
X15300000Y-36882380D01*
X15357142Y-36834761D01*
X15385714Y-36787142D01*
X15442857Y-36644285D01*
X15471428Y-36453809D01*
X15471428Y-36072857D01*
X15442857Y-35977619D01*
X15414285Y-35930000D01*
X15357142Y-35882380D01*
X15242857Y-35882380D01*
X15185714Y-35930000D01*
X15157142Y-35977619D01*
X15128571Y-36072857D01*
X15128571Y-36310952D01*
X15157142Y-36406190D01*
X15185714Y-36453809D01*
X15242857Y-36501428D01*
X15357142Y-36501428D01*
X15414285Y-36453809D01*
X15442857Y-36406190D01*
X15471428Y-36310952D01*
X8557142Y-44252380D02*
X8557142Y-43252380D01*
X8700000Y-43252380D01*
X8785714Y-43300000D01*
X8842857Y-43395238D01*
X8871428Y-43490476D01*
X8900000Y-43680952D01*
X8900000Y-43823809D01*
X8871428Y-44014285D01*
X8842857Y-44109523D01*
X8785714Y-44204761D01*
X8700000Y-44252380D01*
X8557142Y-44252380D01*
X9100000Y-43252380D02*
X9471428Y-43252380D01*
X9271428Y-43633333D01*
X9357142Y-43633333D01*
X9414285Y-43680952D01*
X9442857Y-43728571D01*
X9471428Y-43823809D01*
X9471428Y-44061904D01*
X9442857Y-44157142D01*
X9414285Y-44204761D01*
X9357142Y-44252380D01*
X9185714Y-44252380D01*
X9128571Y-44204761D01*
X9100000Y-44157142D01*
X15457142Y-54154380D02*
X15800000Y-54154380D01*
X15628571Y-55154380D02*
X15628571Y-54154380D01*
X16000000Y-55154380D02*
X16000000Y-54154380D01*
X16228571Y-54154380D01*
X16285714Y-54202000D01*
X16314285Y-54249619D01*
X16342857Y-54344857D01*
X16342857Y-54487714D01*
X16314285Y-54582952D01*
X16285714Y-54630571D01*
X16228571Y-54678190D01*
X16000000Y-54678190D01*
X16571428Y-54249619D02*
X16600000Y-54202000D01*
X16657142Y-54154380D01*
X16800000Y-54154380D01*
X16857142Y-54202000D01*
X16885714Y-54249619D01*
X16914285Y-54344857D01*
X16914285Y-54440095D01*
X16885714Y-54582952D01*
X16542857Y-55154380D01*
X16914285Y-55154380D01*
X17114285Y-54154380D02*
X17485714Y-54154380D01*
X17285714Y-54535333D01*
X17371428Y-54535333D01*
X17428571Y-54582952D01*
X17457142Y-54630571D01*
X17485714Y-54725809D01*
X17485714Y-54963904D01*
X17457142Y-55059142D01*
X17428571Y-55106761D01*
X17371428Y-55154380D01*
X17200000Y-55154380D01*
X17142857Y-55106761D01*
X17114285Y-55059142D01*
X46474285Y-5277142D02*
X46445714Y-5324761D01*
X46360000Y-5372380D01*
X46302857Y-5372380D01*
X46217142Y-5324761D01*
X46160000Y-5229523D01*
X46131428Y-5134285D01*
X46102857Y-4943809D01*
X46102857Y-4800952D01*
X46131428Y-4610476D01*
X46160000Y-4515238D01*
X46217142Y-4420000D01*
X46302857Y-4372380D01*
X46360000Y-4372380D01*
X46445714Y-4420000D01*
X46474285Y-4467619D01*
X46674285Y-4372380D02*
X47045714Y-4372380D01*
X46845714Y-4753333D01*
X46931428Y-4753333D01*
X46988571Y-4800952D01*
X47017142Y-4848571D01*
X47045714Y-4943809D01*
X47045714Y-5181904D01*
X47017142Y-5277142D01*
X46988571Y-5324761D01*
X46931428Y-5372380D01*
X46760000Y-5372380D01*
X46702857Y-5324761D01*
X46674285Y-5277142D01*
X47245714Y-4372380D02*
X47645714Y-4372380D01*
X47388571Y-5372380D01*
X4032380Y-34707142D02*
X4841904Y-34707142D01*
X4937142Y-34678571D01*
X4984761Y-34650000D01*
X5032380Y-34592857D01*
X5032380Y-34478571D01*
X4984761Y-34421428D01*
X4937142Y-34392857D01*
X4841904Y-34364285D01*
X4032380Y-34364285D01*
X5032380Y-33764285D02*
X5032380Y-34107142D01*
X5032380Y-33935714D02*
X4032380Y-33935714D01*
X4175238Y-33992857D01*
X4270476Y-34050000D01*
X4318095Y-34107142D01*
X12320000Y-60997142D02*
X12291428Y-61044761D01*
X12205714Y-61092380D01*
X12148571Y-61092380D01*
X12062857Y-61044761D01*
X12005714Y-60949523D01*
X11977142Y-60854285D01*
X11948571Y-60663809D01*
X11948571Y-60520952D01*
X11977142Y-60330476D01*
X12005714Y-60235238D01*
X12062857Y-60140000D01*
X12148571Y-60092380D01*
X12205714Y-60092380D01*
X12291428Y-60140000D01*
X12320000Y-60187619D01*
X12548571Y-60187619D02*
X12577142Y-60140000D01*
X12634285Y-60092380D01*
X12777142Y-60092380D01*
X12834285Y-60140000D01*
X12862857Y-60187619D01*
X12891428Y-60282857D01*
X12891428Y-60378095D01*
X12862857Y-60520952D01*
X12520000Y-61092380D01*
X12891428Y-61092380D01*
X12992857Y-16252380D02*
X12792857Y-15776190D01*
X12650000Y-16252380D02*
X12650000Y-15252380D01*
X12878571Y-15252380D01*
X12935714Y-15300000D01*
X12964285Y-15347619D01*
X12992857Y-15442857D01*
X12992857Y-15585714D01*
X12964285Y-15680952D01*
X12935714Y-15728571D01*
X12878571Y-15776190D01*
X12650000Y-15776190D01*
X13164285Y-15252380D02*
X13364285Y-16252380D01*
X13564285Y-15252380D01*
X13735714Y-15347619D02*
X13764285Y-15300000D01*
X13821428Y-15252380D01*
X13964285Y-15252380D01*
X14021428Y-15300000D01*
X14050000Y-15347619D01*
X14078571Y-15442857D01*
X14078571Y-15538095D01*
X14050000Y-15680952D01*
X13707142Y-16252380D01*
X14078571Y-16252380D01*
X29800000Y-58152380D02*
X29800000Y-58866666D01*
X29771428Y-59009523D01*
X29714285Y-59104761D01*
X29628571Y-59152380D01*
X29571428Y-59152380D01*
X30342857Y-58152380D02*
X30228571Y-58152380D01*
X30171428Y-58200000D01*
X30142857Y-58247619D01*
X30085714Y-58390476D01*
X30057142Y-58580952D01*
X30057142Y-58961904D01*
X30085714Y-59057142D01*
X30114285Y-59104761D01*
X30171428Y-59152380D01*
X30285714Y-59152380D01*
X30342857Y-59104761D01*
X30371428Y-59057142D01*
X30400000Y-58961904D01*
X30400000Y-58723809D01*
X30371428Y-58628571D01*
X30342857Y-58580952D01*
X30285714Y-58533333D01*
X30171428Y-58533333D01*
X30114285Y-58580952D01*
X30085714Y-58628571D01*
X30057142Y-58723809D01*
X47867142Y-35704380D02*
X48210000Y-35704380D01*
X48038571Y-36704380D02*
X48038571Y-35704380D01*
X48410000Y-36704380D02*
X48410000Y-35704380D01*
X48638571Y-35704380D01*
X48695714Y-35752000D01*
X48724285Y-35799619D01*
X48752857Y-35894857D01*
X48752857Y-36037714D01*
X48724285Y-36132952D01*
X48695714Y-36180571D01*
X48638571Y-36228190D01*
X48410000Y-36228190D01*
X49324285Y-36704380D02*
X48981428Y-36704380D01*
X49152857Y-36704380D02*
X49152857Y-35704380D01*
X49095714Y-35847238D01*
X49038571Y-35942476D01*
X48981428Y-35990095D01*
X49695714Y-35704380D02*
X49752857Y-35704380D01*
X49810000Y-35752000D01*
X49838571Y-35799619D01*
X49867142Y-35894857D01*
X49895714Y-36085333D01*
X49895714Y-36323428D01*
X49867142Y-36513904D01*
X49838571Y-36609142D01*
X49810000Y-36656761D01*
X49752857Y-36704380D01*
X49695714Y-36704380D01*
X49638571Y-36656761D01*
X49610000Y-36609142D01*
X49581428Y-36513904D01*
X49552857Y-36323428D01*
X49552857Y-36085333D01*
X49581428Y-35894857D01*
X49610000Y-35799619D01*
X49638571Y-35752000D01*
X49695714Y-35704380D01*
X3557142Y-36484380D02*
X3900000Y-36484380D01*
X3728571Y-37484380D02*
X3728571Y-36484380D01*
X4100000Y-37484380D02*
X4100000Y-36484380D01*
X4328571Y-36484380D01*
X4385714Y-36532000D01*
X4414285Y-36579619D01*
X4442857Y-36674857D01*
X4442857Y-36817714D01*
X4414285Y-36912952D01*
X4385714Y-36960571D01*
X4328571Y-37008190D01*
X4100000Y-37008190D01*
X4671428Y-36579619D02*
X4700000Y-36532000D01*
X4757142Y-36484380D01*
X4900000Y-36484380D01*
X4957142Y-36532000D01*
X4985714Y-36579619D01*
X5014285Y-36674857D01*
X5014285Y-36770095D01*
X4985714Y-36912952D01*
X4642857Y-37484380D01*
X5014285Y-37484380D01*
X5300000Y-37484380D02*
X5414285Y-37484380D01*
X5471428Y-37436761D01*
X5500000Y-37389142D01*
X5557142Y-37246285D01*
X5585714Y-37055809D01*
X5585714Y-36674857D01*
X5557142Y-36579619D01*
X5528571Y-36532000D01*
X5471428Y-36484380D01*
X5357142Y-36484380D01*
X5300000Y-36532000D01*
X5271428Y-36579619D01*
X5242857Y-36674857D01*
X5242857Y-36912952D01*
X5271428Y-37008190D01*
X5300000Y-37055809D01*
X5357142Y-37103428D01*
X5471428Y-37103428D01*
X5528571Y-37055809D01*
X5557142Y-37008190D01*
X5585714Y-36912952D01*
X18507142Y-54154380D02*
X18850000Y-54154380D01*
X18678571Y-55154380D02*
X18678571Y-54154380D01*
X19050000Y-55154380D02*
X19050000Y-54154380D01*
X19278571Y-54154380D01*
X19335714Y-54202000D01*
X19364285Y-54249619D01*
X19392857Y-54344857D01*
X19392857Y-54487714D01*
X19364285Y-54582952D01*
X19335714Y-54630571D01*
X19278571Y-54678190D01*
X19050000Y-54678190D01*
X19621428Y-54249619D02*
X19650000Y-54202000D01*
X19707142Y-54154380D01*
X19850000Y-54154380D01*
X19907142Y-54202000D01*
X19935714Y-54249619D01*
X19964285Y-54344857D01*
X19964285Y-54440095D01*
X19935714Y-54582952D01*
X19592857Y-55154380D01*
X19964285Y-55154380D01*
X20535714Y-55154380D02*
X20192857Y-55154380D01*
X20364285Y-55154380D02*
X20364285Y-54154380D01*
X20307142Y-54297238D01*
X20250000Y-54392476D01*
X20192857Y-54440095D01*
X7232142Y-33777380D02*
X7575000Y-33777380D01*
X7403571Y-34777380D02*
X7403571Y-33777380D01*
X7775000Y-34777380D02*
X7775000Y-33777380D01*
X8003571Y-33777380D01*
X8060714Y-33825000D01*
X8089285Y-33872619D01*
X8117857Y-33967857D01*
X8117857Y-34110714D01*
X8089285Y-34205952D01*
X8060714Y-34253571D01*
X8003571Y-34301190D01*
X7775000Y-34301190D01*
X8346428Y-33872619D02*
X8375000Y-33825000D01*
X8432142Y-33777380D01*
X8575000Y-33777380D01*
X8632142Y-33825000D01*
X8660714Y-33872619D01*
X8689285Y-33967857D01*
X8689285Y-34063095D01*
X8660714Y-34205952D01*
X8317857Y-34777380D01*
X8689285Y-34777380D01*
X9232142Y-33777380D02*
X8946428Y-33777380D01*
X8917857Y-34253571D01*
X8946428Y-34205952D01*
X9003571Y-34158333D01*
X9146428Y-34158333D01*
X9203571Y-34205952D01*
X9232142Y-34253571D01*
X9260714Y-34348809D01*
X9260714Y-34586904D01*
X9232142Y-34682142D01*
X9203571Y-34729761D01*
X9146428Y-34777380D01*
X9003571Y-34777380D01*
X8946428Y-34729761D01*
X8917857Y-34682142D01*
X13737142Y-58592380D02*
X14080000Y-58592380D01*
X13908571Y-59592380D02*
X13908571Y-58592380D01*
X14280000Y-59592380D02*
X14280000Y-58592380D01*
X14508571Y-58592380D01*
X14565714Y-58640000D01*
X14594285Y-58687619D01*
X14622857Y-58782857D01*
X14622857Y-58925714D01*
X14594285Y-59020952D01*
X14565714Y-59068571D01*
X14508571Y-59116190D01*
X14280000Y-59116190D01*
X14851428Y-58687619D02*
X14880000Y-58640000D01*
X14937142Y-58592380D01*
X15080000Y-58592380D01*
X15137142Y-58640000D01*
X15165714Y-58687619D01*
X15194285Y-58782857D01*
X15194285Y-58878095D01*
X15165714Y-59020952D01*
X14822857Y-59592380D01*
X15194285Y-59592380D01*
X15422857Y-58687619D02*
X15451428Y-58640000D01*
X15508571Y-58592380D01*
X15651428Y-58592380D01*
X15708571Y-58640000D01*
X15737142Y-58687619D01*
X15765714Y-58782857D01*
X15765714Y-58878095D01*
X15737142Y-59020952D01*
X15394285Y-59592380D01*
X15765714Y-59592380D01*
X44191428Y527620D02*
X44191428Y1527620D01*
X44334285Y1527620D01*
X44420000Y1480000D01*
X44477142Y1384762D01*
X44505714Y1289524D01*
X44534285Y1099048D01*
X44534285Y956191D01*
X44505714Y765715D01*
X44477142Y670477D01*
X44420000Y575239D01*
X44334285Y527620D01*
X44191428Y527620D01*
X45105714Y527620D02*
X44762857Y527620D01*
X44934285Y527620D02*
X44934285Y1527620D01*
X44877142Y1384762D01*
X44820000Y1289524D01*
X44762857Y1241905D01*
X45620000Y1194286D02*
X45620000Y527620D01*
X45477142Y1575239D02*
X45334285Y860953D01*
X45705714Y860953D01*
X17147142Y-52132380D02*
X17490000Y-52132380D01*
X17318571Y-53132380D02*
X17318571Y-52132380D01*
X17690000Y-53132380D02*
X17690000Y-52132380D01*
X17918571Y-52132380D01*
X17975714Y-52180000D01*
X18004285Y-52227619D01*
X18032857Y-52322857D01*
X18032857Y-52465714D01*
X18004285Y-52560952D01*
X17975714Y-52608571D01*
X17918571Y-52656190D01*
X17690000Y-52656190D01*
X18604285Y-53132380D02*
X18261428Y-53132380D01*
X18432857Y-53132380D02*
X18432857Y-52132380D01*
X18375714Y-52275238D01*
X18318571Y-52370476D01*
X18261428Y-52418095D01*
X18804285Y-52132380D02*
X19204285Y-52132380D01*
X18947142Y-53132380D01*
X51962857Y755620D02*
X52305714Y755620D01*
X52134285Y-244380D02*
X52134285Y755620D01*
X52505714Y-244380D02*
X52505714Y755620D01*
X52734285Y755620D01*
X52791428Y708000D01*
X52820000Y660381D01*
X52848571Y565143D01*
X52848571Y422286D01*
X52820000Y327048D01*
X52791428Y279429D01*
X52734285Y231810D01*
X52505714Y231810D01*
X53077142Y660381D02*
X53105714Y708000D01*
X53162857Y755620D01*
X53305714Y755620D01*
X53362857Y708000D01*
X53391428Y660381D01*
X53420000Y565143D01*
X53420000Y469905D01*
X53391428Y327048D01*
X53048571Y-244380D01*
X53420000Y-244380D01*
X35582857Y-32654380D02*
X35925714Y-32654380D01*
X35754285Y-33654380D02*
X35754285Y-32654380D01*
X36125714Y-33654380D02*
X36125714Y-32654380D01*
X36354285Y-32654380D01*
X36411428Y-32702000D01*
X36440000Y-32749619D01*
X36468571Y-32844857D01*
X36468571Y-32987714D01*
X36440000Y-33082952D01*
X36411428Y-33130571D01*
X36354285Y-33178190D01*
X36125714Y-33178190D01*
X36754285Y-33654380D02*
X36868571Y-33654380D01*
X36925714Y-33606761D01*
X36954285Y-33559142D01*
X37011428Y-33416285D01*
X37040000Y-33225809D01*
X37040000Y-32844857D01*
X37011428Y-32749619D01*
X36982857Y-32702000D01*
X36925714Y-32654380D01*
X36811428Y-32654380D01*
X36754285Y-32702000D01*
X36725714Y-32749619D01*
X36697142Y-32844857D01*
X36697142Y-33082952D01*
X36725714Y-33178190D01*
X36754285Y-33225809D01*
X36811428Y-33273428D01*
X36925714Y-33273428D01*
X36982857Y-33225809D01*
X37011428Y-33178190D01*
X37040000Y-33082952D01*
X10780000Y-61112380D02*
X10580000Y-60636190D01*
X10437142Y-61112380D02*
X10437142Y-60112380D01*
X10665714Y-60112380D01*
X10722857Y-60160000D01*
X10751428Y-60207619D01*
X10780000Y-60302857D01*
X10780000Y-60445714D01*
X10751428Y-60540952D01*
X10722857Y-60588571D01*
X10665714Y-60636190D01*
X10437142Y-60636190D01*
X11322857Y-60112380D02*
X11037142Y-60112380D01*
X11008571Y-60588571D01*
X11037142Y-60540952D01*
X11094285Y-60493333D01*
X11237142Y-60493333D01*
X11294285Y-60540952D01*
X11322857Y-60588571D01*
X11351428Y-60683809D01*
X11351428Y-60921904D01*
X11322857Y-61017142D01*
X11294285Y-61064761D01*
X11237142Y-61112380D01*
X11094285Y-61112380D01*
X11037142Y-61064761D01*
X11008571Y-61017142D01*
X41172142Y-37297380D02*
X41515000Y-37297380D01*
X41343571Y-38297380D02*
X41343571Y-37297380D01*
X41715000Y-38297380D02*
X41715000Y-37297380D01*
X41943571Y-37297380D01*
X42000714Y-37345000D01*
X42029285Y-37392619D01*
X42057857Y-37487857D01*
X42057857Y-37630714D01*
X42029285Y-37725952D01*
X42000714Y-37773571D01*
X41943571Y-37821190D01*
X41715000Y-37821190D01*
X42629285Y-38297380D02*
X42286428Y-38297380D01*
X42457857Y-38297380D02*
X42457857Y-37297380D01*
X42400714Y-37440238D01*
X42343571Y-37535476D01*
X42286428Y-37583095D01*
X43172142Y-37297380D02*
X42886428Y-37297380D01*
X42857857Y-37773571D01*
X42886428Y-37725952D01*
X42943571Y-37678333D01*
X43086428Y-37678333D01*
X43143571Y-37725952D01*
X43172142Y-37773571D01*
X43200714Y-37868809D01*
X43200714Y-38106904D01*
X43172142Y-38202142D01*
X43143571Y-38249761D01*
X43086428Y-38297380D01*
X42943571Y-38297380D01*
X42886428Y-38249761D01*
X42857857Y-38202142D01*
X44492857Y-14352380D02*
X44835714Y-14352380D01*
X44664285Y-15352380D02*
X44664285Y-14352380D01*
X45035714Y-15352380D02*
X45035714Y-14352380D01*
X45264285Y-14352380D01*
X45321428Y-14400000D01*
X45350000Y-14447619D01*
X45378571Y-14542857D01*
X45378571Y-14685714D01*
X45350000Y-14780952D01*
X45321428Y-14828571D01*
X45264285Y-14876190D01*
X45035714Y-14876190D01*
X45921428Y-14352380D02*
X45635714Y-14352380D01*
X45607142Y-14828571D01*
X45635714Y-14780952D01*
X45692857Y-14733333D01*
X45835714Y-14733333D01*
X45892857Y-14780952D01*
X45921428Y-14828571D01*
X45950000Y-14923809D01*
X45950000Y-15161904D01*
X45921428Y-15257142D01*
X45892857Y-15304761D01*
X45835714Y-15352380D01*
X45692857Y-15352380D01*
X45635714Y-15304761D01*
X45607142Y-15257142D01*
X-2947620Y-27142857D02*
X-2947620Y-26800000D01*
X-1947620Y-26971428D02*
X-2947620Y-26971428D01*
X-1947620Y-26600000D02*
X-2947620Y-26600000D01*
X-2947620Y-26371428D01*
X-2900000Y-26314285D01*
X-2852381Y-26285714D01*
X-2757143Y-26257142D01*
X-2614286Y-26257142D01*
X-2519048Y-26285714D01*
X-2471429Y-26314285D01*
X-2423810Y-26371428D01*
X-2423810Y-26600000D01*
X-2852381Y-26028571D02*
X-2900000Y-26000000D01*
X-2947620Y-25942857D01*
X-2947620Y-25800000D01*
X-2900000Y-25742857D01*
X-2852381Y-25714285D01*
X-2757143Y-25685714D01*
X-2661905Y-25685714D01*
X-2519048Y-25714285D01*
X-1947620Y-26057142D01*
X-1947620Y-25685714D01*
X-2519048Y-25342857D02*
X-2566667Y-25400000D01*
X-2614286Y-25428571D01*
X-2709524Y-25457142D01*
X-2757143Y-25457142D01*
X-2852381Y-25428571D01*
X-2900000Y-25400000D01*
X-2947620Y-25342857D01*
X-2947620Y-25228571D01*
X-2900000Y-25171428D01*
X-2852381Y-25142857D01*
X-2757143Y-25114285D01*
X-2709524Y-25114285D01*
X-2614286Y-25142857D01*
X-2566667Y-25171428D01*
X-2519048Y-25228571D01*
X-2519048Y-25342857D01*
X-2471429Y-25400000D01*
X-2423810Y-25428571D01*
X-2328572Y-25457142D01*
X-2138096Y-25457142D01*
X-2042858Y-25428571D01*
X-1995239Y-25400000D01*
X-1947620Y-25342857D01*
X-1947620Y-25228571D01*
X-1995239Y-25171428D01*
X-2042858Y-25142857D01*
X-2138096Y-25114285D01*
X-2328572Y-25114285D01*
X-2423810Y-25142857D01*
X-2471429Y-25171428D01*
X-2519048Y-25228571D01*
X45421428Y-2002380D02*
X45421428Y-1002380D01*
X45564285Y-1002380D01*
X45650000Y-1050000D01*
X45707142Y-1145238D01*
X45735714Y-1240476D01*
X45764285Y-1430952D01*
X45764285Y-1573809D01*
X45735714Y-1764285D01*
X45707142Y-1859523D01*
X45650000Y-1954761D01*
X45564285Y-2002380D01*
X45421428Y-2002380D01*
X46335714Y-2002380D02*
X45992857Y-2002380D01*
X46164285Y-2002380D02*
X46164285Y-1002380D01*
X46107142Y-1145238D01*
X46050000Y-1240476D01*
X45992857Y-1288095D01*
X46564285Y-1097619D02*
X46592857Y-1050000D01*
X46650000Y-1002380D01*
X46792857Y-1002380D01*
X46850000Y-1050000D01*
X46878571Y-1097619D01*
X46907142Y-1192857D01*
X46907142Y-1288095D01*
X46878571Y-1430952D01*
X46535714Y-2002380D01*
X46907142Y-2002380D01*
X35200000Y-6404761D02*
X35285714Y-6452380D01*
X35428571Y-6452380D01*
X35485714Y-6404761D01*
X35514285Y-6357142D01*
X35542857Y-6261904D01*
X35542857Y-6166666D01*
X35514285Y-6071428D01*
X35485714Y-6023809D01*
X35428571Y-5976190D01*
X35314285Y-5928571D01*
X35257142Y-5880952D01*
X35228571Y-5833333D01*
X35200000Y-5738095D01*
X35200000Y-5642857D01*
X35228571Y-5547619D01*
X35257142Y-5500000D01*
X35314285Y-5452380D01*
X35457142Y-5452380D01*
X35542857Y-5500000D01*
X35742857Y-5452380D02*
X35885714Y-6452380D01*
X36000000Y-5738095D01*
X36114285Y-6452380D01*
X36257142Y-5452380D01*
X36800000Y-6452380D02*
X36457142Y-6452380D01*
X36628571Y-6452380D02*
X36628571Y-5452380D01*
X36571428Y-5595238D01*
X36514285Y-5690476D01*
X36457142Y-5738095D01*
X42402380Y-1428571D02*
X41402380Y-1428571D01*
X41402380Y-1200000D01*
X41450000Y-1142857D01*
X41497619Y-1114285D01*
X41592857Y-1085714D01*
X41735714Y-1085714D01*
X41830952Y-1114285D01*
X41878571Y-1142857D01*
X41926190Y-1200000D01*
X41926190Y-1428571D01*
X41402380Y-885714D02*
X42402380Y-742857D01*
X41688095Y-628571D01*
X42402380Y-514285D01*
X41402380Y-371428D01*
X42402380Y200000D02*
X41926190Y0D01*
X42402380Y-142857D02*
X41402380Y-142857D01*
X41402380Y85715D01*
X41450000Y142858D01*
X41497619Y171429D01*
X41592857Y200000D01*
X41735714Y200000D01*
X41830952Y171429D01*
X41878571Y142858D01*
X41926190Y85715D01*
X41926190Y-142857D01*
X41402380Y571429D02*
X41402380Y685715D01*
X41450000Y742858D01*
X41545238Y800000D01*
X41735714Y828572D01*
X42069047Y828572D01*
X42259523Y800000D01*
X42354761Y742858D01*
X42402380Y685715D01*
X42402380Y571429D01*
X42354761Y514286D01*
X42259523Y457143D01*
X42069047Y428572D01*
X41735714Y428572D01*
X41545238Y457143D01*
X41450000Y514286D01*
X41402380Y571429D01*
X42402380Y1085715D02*
X41402380Y1085715D01*
X42402380Y1428572D01*
X41402380Y1428572D01*
X61580000Y-3534761D02*
X61665714Y-3582380D01*
X61808571Y-3582380D01*
X61865714Y-3534761D01*
X61894285Y-3487142D01*
X61922857Y-3391904D01*
X61922857Y-3296666D01*
X61894285Y-3201428D01*
X61865714Y-3153809D01*
X61808571Y-3106190D01*
X61694285Y-3058571D01*
X61637142Y-3010952D01*
X61608571Y-2963333D01*
X61580000Y-2868095D01*
X61580000Y-2772857D01*
X61608571Y-2677619D01*
X61637142Y-2630000D01*
X61694285Y-2582380D01*
X61837142Y-2582380D01*
X61922857Y-2630000D01*
X62122857Y-2582380D02*
X62265714Y-3582380D01*
X62380000Y-2868095D01*
X62494285Y-3582380D01*
X62637142Y-2582380D01*
X62808571Y-2582380D02*
X63180000Y-2582380D01*
X62980000Y-2963333D01*
X63065714Y-2963333D01*
X63122857Y-3010952D01*
X63151428Y-3058571D01*
X63180000Y-3153809D01*
X63180000Y-3391904D01*
X63151428Y-3487142D01*
X63122857Y-3534761D01*
X63065714Y-3582380D01*
X62894285Y-3582380D01*
X62837142Y-3534761D01*
X62808571Y-3487142D01*
X44147857Y-19297380D02*
X44490714Y-19297380D01*
X44319285Y-20297380D02*
X44319285Y-19297380D01*
X44690714Y-20297380D02*
X44690714Y-19297380D01*
X44919285Y-19297380D01*
X44976428Y-19345000D01*
X45005000Y-19392619D01*
X45033571Y-19487857D01*
X45033571Y-19630714D01*
X45005000Y-19725952D01*
X44976428Y-19773571D01*
X44919285Y-19821190D01*
X44690714Y-19821190D01*
X45547857Y-19297380D02*
X45433571Y-19297380D01*
X45376428Y-19345000D01*
X45347857Y-19392619D01*
X45290714Y-19535476D01*
X45262142Y-19725952D01*
X45262142Y-20106904D01*
X45290714Y-20202142D01*
X45319285Y-20249761D01*
X45376428Y-20297380D01*
X45490714Y-20297380D01*
X45547857Y-20249761D01*
X45576428Y-20202142D01*
X45605000Y-20106904D01*
X45605000Y-19868809D01*
X45576428Y-19773571D01*
X45547857Y-19725952D01*
X45490714Y-19678333D01*
X45376428Y-19678333D01*
X45319285Y-19725952D01*
X45290714Y-19773571D01*
X45262142Y-19868809D01*
X13452380Y-29400000D02*
X14166666Y-29400000D01*
X14309523Y-29428571D01*
X14404761Y-29485714D01*
X14452380Y-29571428D01*
X14452380Y-29628571D01*
X13452380Y-28828571D02*
X13452380Y-29114285D01*
X13928571Y-29142857D01*
X13880952Y-29114285D01*
X13833333Y-29057142D01*
X13833333Y-28914285D01*
X13880952Y-28857142D01*
X13928571Y-28828571D01*
X14023809Y-28800000D01*
X14261904Y-28800000D01*
X14357142Y-28828571D01*
X14404761Y-28857142D01*
X14452380Y-28914285D01*
X14452380Y-29057142D01*
X14404761Y-29114285D01*
X14357142Y-29142857D01*
X502380Y-37990000D02*
X1216666Y-37990000D01*
X1359523Y-38018571D01*
X1454761Y-38075714D01*
X1502380Y-38161428D01*
X1502380Y-38218571D01*
X597619Y-37732857D02*
X550000Y-37704285D01*
X502380Y-37647142D01*
X502380Y-37504285D01*
X550000Y-37447142D01*
X597619Y-37418571D01*
X692857Y-37390000D01*
X788095Y-37390000D01*
X930952Y-37418571D01*
X1502380Y-37761428D01*
X1502380Y-37390000D01*
X60082857Y-24614380D02*
X60425714Y-24614380D01*
X60254285Y-25614380D02*
X60254285Y-24614380D01*
X60625714Y-25614380D02*
X60625714Y-24614380D01*
X60854285Y-24614380D01*
X60911428Y-24662000D01*
X60940000Y-24709619D01*
X60968571Y-24804857D01*
X60968571Y-24947714D01*
X60940000Y-25042952D01*
X60911428Y-25090571D01*
X60854285Y-25138190D01*
X60625714Y-25138190D01*
X61168571Y-24614380D02*
X61568571Y-24614380D01*
X61311428Y-25614380D01*
X11701428Y-2002380D02*
X11701428Y-1002380D01*
X11844285Y-1002380D01*
X11930000Y-1050000D01*
X11987142Y-1145238D01*
X12015714Y-1240476D01*
X12044285Y-1430952D01*
X12044285Y-1573809D01*
X12015714Y-1764285D01*
X11987142Y-1859523D01*
X11930000Y-1954761D01*
X11844285Y-2002380D01*
X11701428Y-2002380D01*
X12615714Y-2002380D02*
X12272857Y-2002380D01*
X12444285Y-2002380D02*
X12444285Y-1002380D01*
X12387142Y-1145238D01*
X12330000Y-1240476D01*
X12272857Y-1288095D01*
X12815714Y-1002380D02*
X13187142Y-1002380D01*
X12987142Y-1383333D01*
X13072857Y-1383333D01*
X13130000Y-1430952D01*
X13158571Y-1478571D01*
X13187142Y-1573809D01*
X13187142Y-1811904D01*
X13158571Y-1907142D01*
X13130000Y-1954761D01*
X13072857Y-2002380D01*
X12901428Y-2002380D01*
X12844285Y-1954761D01*
X12815714Y-1907142D01*
X-1357143Y-16152380D02*
X-1557143Y-15676190D01*
X-1700000Y-16152380D02*
X-1700000Y-15152380D01*
X-1471429Y-15152380D01*
X-1414286Y-15200000D01*
X-1385715Y-15247619D01*
X-1357143Y-15342857D01*
X-1357143Y-15485714D01*
X-1385715Y-15580952D01*
X-1414286Y-15628571D01*
X-1471429Y-15676190D01*
X-1700000Y-15676190D01*
X-1185715Y-15152380D02*
X-985715Y-16152380D01*
X-785715Y-15152380D01*
X-271429Y-16152380D02*
X-614286Y-16152380D01*
X-442858Y-16152380D02*
X-442858Y-15152380D01*
X-500000Y-15295238D01*
X-557143Y-15390476D01*
X-614286Y-15438095D01*
X55732857Y-312380D02*
X55732857Y687620D01*
X55732857Y211429D02*
X56075714Y211429D01*
X56075714Y-312380D02*
X56075714Y687620D01*
X56332857Y592381D02*
X56361428Y640000D01*
X56418571Y687620D01*
X56561428Y687620D01*
X56618571Y640000D01*
X56647142Y592381D01*
X56675714Y497143D01*
X56675714Y401905D01*
X56647142Y259048D01*
X56304285Y-312380D01*
X56675714Y-312380D01*
X52795000Y-2697380D02*
X52795000Y-3411666D01*
X52766428Y-3554523D01*
X52709285Y-3649761D01*
X52623571Y-3697380D01*
X52566428Y-3697380D01*
X53337857Y-3030714D02*
X53337857Y-3697380D01*
X53195000Y-2649761D02*
X53052142Y-3364047D01*
X53423571Y-3364047D01*
X39164285Y-37982380D02*
X38964285Y-37506190D01*
X38821428Y-37982380D02*
X38821428Y-36982380D01*
X39050000Y-36982380D01*
X39107142Y-37030000D01*
X39135714Y-37077619D01*
X39164285Y-37172857D01*
X39164285Y-37315714D01*
X39135714Y-37410952D01*
X39107142Y-37458571D01*
X39050000Y-37506190D01*
X38821428Y-37506190D01*
X39392857Y-37077619D02*
X39421428Y-37030000D01*
X39478571Y-36982380D01*
X39621428Y-36982380D01*
X39678571Y-37030000D01*
X39707142Y-37077619D01*
X39735714Y-37172857D01*
X39735714Y-37268095D01*
X39707142Y-37410952D01*
X39364285Y-37982380D01*
X39735714Y-37982380D01*
X39935714Y-36982380D02*
X40335714Y-36982380D01*
X40078571Y-37982380D01*
X16297142Y-8434380D02*
X16640000Y-8434380D01*
X16468571Y-9434380D02*
X16468571Y-8434380D01*
X16840000Y-9434380D02*
X16840000Y-8434380D01*
X17068571Y-8434380D01*
X17125714Y-8482000D01*
X17154285Y-8529619D01*
X17182857Y-8624857D01*
X17182857Y-8767714D01*
X17154285Y-8862952D01*
X17125714Y-8910571D01*
X17068571Y-8958190D01*
X16840000Y-8958190D01*
X17754285Y-9434380D02*
X17411428Y-9434380D01*
X17582857Y-9434380D02*
X17582857Y-8434380D01*
X17525714Y-8577238D01*
X17468571Y-8672476D01*
X17411428Y-8720095D01*
X18268571Y-8767714D02*
X18268571Y-9434380D01*
X18125714Y-8386761D02*
X17982857Y-9101047D01*
X18354285Y-9101047D01*
X44557142Y-36882380D02*
X44557142Y-35882380D01*
X44700000Y-35882380D01*
X44785714Y-35930000D01*
X44842857Y-36025238D01*
X44871428Y-36120476D01*
X44900000Y-36310952D01*
X44900000Y-36453809D01*
X44871428Y-36644285D01*
X44842857Y-36739523D01*
X44785714Y-36834761D01*
X44700000Y-36882380D01*
X44557142Y-36882380D01*
X45242857Y-36310952D02*
X45185714Y-36263333D01*
X45157142Y-36215714D01*
X45128571Y-36120476D01*
X45128571Y-36072857D01*
X45157142Y-35977619D01*
X45185714Y-35930000D01*
X45242857Y-35882380D01*
X45357142Y-35882380D01*
X45414285Y-35930000D01*
X45442857Y-35977619D01*
X45471428Y-36072857D01*
X45471428Y-36120476D01*
X45442857Y-36215714D01*
X45414285Y-36263333D01*
X45357142Y-36310952D01*
X45242857Y-36310952D01*
X45185714Y-36358571D01*
X45157142Y-36406190D01*
X45128571Y-36501428D01*
X45128571Y-36691904D01*
X45157142Y-36787142D01*
X45185714Y-36834761D01*
X45242857Y-36882380D01*
X45357142Y-36882380D01*
X45414285Y-36834761D01*
X45442857Y-36787142D01*
X45471428Y-36691904D01*
X45471428Y-36501428D01*
X45442857Y-36406190D01*
X45414285Y-36358571D01*
X45357142Y-36310952D01*
X17892857Y-49197619D02*
X17835714Y-49150000D01*
X17778571Y-49054761D01*
X17692857Y-48911904D01*
X17635714Y-48864285D01*
X17578571Y-48864285D01*
X17607142Y-49102380D02*
X17550000Y-49054761D01*
X17492857Y-48959523D01*
X17464285Y-48769047D01*
X17464285Y-48435714D01*
X17492857Y-48245238D01*
X17550000Y-48150000D01*
X17607142Y-48102380D01*
X17721428Y-48102380D01*
X17778571Y-48150000D01*
X17835714Y-48245238D01*
X17864285Y-48435714D01*
X17864285Y-48769047D01*
X17835714Y-48959523D01*
X17778571Y-49054761D01*
X17721428Y-49102380D01*
X17607142Y-49102380D01*
X18064285Y-48102380D02*
X18464285Y-48102380D01*
X18207142Y-49102380D01*
X45557142Y-39452380D02*
X45900000Y-39452380D01*
X45728571Y-40452380D02*
X45728571Y-39452380D01*
X46100000Y-40452380D02*
X46100000Y-39452380D01*
X46328571Y-39452380D01*
X46385714Y-39500000D01*
X46414285Y-39547619D01*
X46442857Y-39642857D01*
X46442857Y-39785714D01*
X46414285Y-39880952D01*
X46385714Y-39928571D01*
X46328571Y-39976190D01*
X46100000Y-39976190D01*
X47014285Y-40452380D02*
X46671428Y-40452380D01*
X46842857Y-40452380D02*
X46842857Y-39452380D01*
X46785714Y-39595238D01*
X46728571Y-39690476D01*
X46671428Y-39738095D01*
X47242857Y-39547619D02*
X47271428Y-39500000D01*
X47328571Y-39452380D01*
X47471428Y-39452380D01*
X47528571Y-39500000D01*
X47557142Y-39547619D01*
X47585714Y-39642857D01*
X47585714Y-39738095D01*
X47557142Y-39880952D01*
X47214285Y-40452380D01*
X47585714Y-40452380D01*
X55742857Y-62252380D02*
X55742857Y-61252380D01*
X55742857Y-61728571D02*
X56085714Y-61728571D01*
X56085714Y-62252380D02*
X56085714Y-61252380D01*
X56314285Y-61252380D02*
X56685714Y-61252380D01*
X56485714Y-61633333D01*
X56571428Y-61633333D01*
X56628571Y-61680952D01*
X56657142Y-61728571D01*
X56685714Y-61823809D01*
X56685714Y-62061904D01*
X56657142Y-62157142D01*
X56628571Y-62204761D01*
X56571428Y-62252380D01*
X56400000Y-62252380D01*
X56342857Y-62204761D01*
X56314285Y-62157142D01*
X20444285Y-48892380D02*
X20244285Y-48416190D01*
X20101428Y-48892380D02*
X20101428Y-47892380D01*
X20330000Y-47892380D01*
X20387142Y-47940000D01*
X20415714Y-47987619D01*
X20444285Y-48082857D01*
X20444285Y-48225714D01*
X20415714Y-48320952D01*
X20387142Y-48368571D01*
X20330000Y-48416190D01*
X20101428Y-48416190D01*
X21015714Y-48892380D02*
X20672857Y-48892380D01*
X20844285Y-48892380D02*
X20844285Y-47892380D01*
X20787142Y-48035238D01*
X20730000Y-48130476D01*
X20672857Y-48178095D01*
X21558571Y-47892380D02*
X21272857Y-47892380D01*
X21244285Y-48368571D01*
X21272857Y-48320952D01*
X21330000Y-48273333D01*
X21472857Y-48273333D01*
X21530000Y-48320952D01*
X21558571Y-48368571D01*
X21587142Y-48463809D01*
X21587142Y-48701904D01*
X21558571Y-48797142D01*
X21530000Y-48844761D01*
X21472857Y-48892380D01*
X21330000Y-48892380D01*
X21272857Y-48844761D01*
X21244285Y-48797142D01*
X17892857Y-40677619D02*
X17835714Y-40630000D01*
X17778571Y-40534761D01*
X17692857Y-40391904D01*
X17635714Y-40344285D01*
X17578571Y-40344285D01*
X17607142Y-40582380D02*
X17550000Y-40534761D01*
X17492857Y-40439523D01*
X17464285Y-40249047D01*
X17464285Y-39915714D01*
X17492857Y-39725238D01*
X17550000Y-39630000D01*
X17607142Y-39582380D01*
X17721428Y-39582380D01*
X17778571Y-39630000D01*
X17835714Y-39725238D01*
X17864285Y-39915714D01*
X17864285Y-40249047D01*
X17835714Y-40439523D01*
X17778571Y-40534761D01*
X17721428Y-40582380D01*
X17607142Y-40582380D01*
X18378571Y-39582380D02*
X18264285Y-39582380D01*
X18207142Y-39630000D01*
X18178571Y-39677619D01*
X18121428Y-39820476D01*
X18092857Y-40010952D01*
X18092857Y-40391904D01*
X18121428Y-40487142D01*
X18150000Y-40534761D01*
X18207142Y-40582380D01*
X18321428Y-40582380D01*
X18378571Y-40534761D01*
X18407142Y-40487142D01*
X18435714Y-40391904D01*
X18435714Y-40153809D01*
X18407142Y-40058571D01*
X18378571Y-40010952D01*
X18321428Y-39963333D01*
X18207142Y-39963333D01*
X18150000Y-40010952D01*
X18121428Y-40058571D01*
X18092857Y-40153809D01*
X50897142Y-35764380D02*
X51240000Y-35764380D01*
X51068571Y-36764380D02*
X51068571Y-35764380D01*
X51440000Y-36764380D02*
X51440000Y-35764380D01*
X51668571Y-35764380D01*
X51725714Y-35812000D01*
X51754285Y-35859619D01*
X51782857Y-35954857D01*
X51782857Y-36097714D01*
X51754285Y-36192952D01*
X51725714Y-36240571D01*
X51668571Y-36288190D01*
X51440000Y-36288190D01*
X52354285Y-36764380D02*
X52011428Y-36764380D01*
X52182857Y-36764380D02*
X52182857Y-35764380D01*
X52125714Y-35907238D01*
X52068571Y-36002476D01*
X52011428Y-36050095D01*
X52925714Y-36764380D02*
X52582857Y-36764380D01*
X52754285Y-36764380D02*
X52754285Y-35764380D01*
X52697142Y-35907238D01*
X52640000Y-36002476D01*
X52582857Y-36050095D01*
X56052380Y-48785714D02*
X55576190Y-48985714D01*
X56052380Y-49128571D02*
X55052380Y-49128571D01*
X55052380Y-48900000D01*
X55100000Y-48842857D01*
X55147619Y-48814285D01*
X55242857Y-48785714D01*
X55385714Y-48785714D01*
X55480952Y-48814285D01*
X55528571Y-48842857D01*
X55576190Y-48900000D01*
X55576190Y-49128571D01*
X55147619Y-48557142D02*
X55100000Y-48528571D01*
X55052380Y-48471428D01*
X55052380Y-48328571D01*
X55100000Y-48271428D01*
X55147619Y-48242857D01*
X55242857Y-48214285D01*
X55338095Y-48214285D01*
X55480952Y-48242857D01*
X56052380Y-48585714D01*
X56052380Y-48214285D01*
X55052380Y-47700000D02*
X55052380Y-47814285D01*
X55100000Y-47871428D01*
X55147619Y-47900000D01*
X55290476Y-47957142D01*
X55480952Y-47985714D01*
X55861904Y-47985714D01*
X55957142Y-47957142D01*
X56004761Y-47928571D01*
X56052380Y-47871428D01*
X56052380Y-47757142D01*
X56004761Y-47700000D01*
X55957142Y-47671428D01*
X55861904Y-47642857D01*
X55623809Y-47642857D01*
X55528571Y-47671428D01*
X55480952Y-47700000D01*
X55433333Y-47757142D01*
X55433333Y-47871428D01*
X55480952Y-47928571D01*
X55528571Y-47957142D01*
X55623809Y-47985714D01*
X14107142Y-3452380D02*
X14450000Y-3452380D01*
X14278571Y-4452380D02*
X14278571Y-3452380D01*
X14650000Y-4452380D02*
X14650000Y-3452380D01*
X14878571Y-3452380D01*
X14935714Y-3500000D01*
X14964285Y-3547619D01*
X14992857Y-3642857D01*
X14992857Y-3785714D01*
X14964285Y-3880952D01*
X14935714Y-3928571D01*
X14878571Y-3976190D01*
X14650000Y-3976190D01*
X15221428Y-3547619D02*
X15250000Y-3500000D01*
X15307142Y-3452380D01*
X15450000Y-3452380D01*
X15507142Y-3500000D01*
X15535714Y-3547619D01*
X15564285Y-3642857D01*
X15564285Y-3738095D01*
X15535714Y-3880952D01*
X15192857Y-4452380D01*
X15564285Y-4452380D01*
X16078571Y-3452380D02*
X15964285Y-3452380D01*
X15907142Y-3500000D01*
X15878571Y-3547619D01*
X15821428Y-3690476D01*
X15792857Y-3880952D01*
X15792857Y-4261904D01*
X15821428Y-4357142D01*
X15850000Y-4404761D01*
X15907142Y-4452380D01*
X16021428Y-4452380D01*
X16078571Y-4404761D01*
X16107142Y-4357142D01*
X16135714Y-4261904D01*
X16135714Y-4023809D01*
X16107142Y-3928571D01*
X16078571Y-3880952D01*
X16021428Y-3833333D01*
X15907142Y-3833333D01*
X15850000Y-3880952D01*
X15821428Y-3928571D01*
X15792857Y-4023809D01*
X-1957143Y-3702380D02*
X-1957143Y-4511904D01*
X-1928572Y-4607142D01*
X-1900000Y-4654761D01*
X-1842858Y-4702380D01*
X-1728572Y-4702380D01*
X-1671429Y-4654761D01*
X-1642858Y-4607142D01*
X-1614286Y-4511904D01*
X-1614286Y-3702380D01*
X-1042858Y-3702380D02*
X-1328572Y-3702380D01*
X-1357143Y-4178571D01*
X-1328572Y-4130952D01*
X-1271429Y-4083333D01*
X-1128572Y-4083333D01*
X-1071429Y-4130952D01*
X-1042858Y-4178571D01*
X-1014286Y-4273809D01*
X-1014286Y-4511904D01*
X-1042858Y-4607142D01*
X-1071429Y-4654761D01*
X-1128572Y-4702380D01*
X-1271429Y-4702380D01*
X-1328572Y-4654761D01*
X-1357143Y-4607142D01*
X11327142Y-4354380D02*
X11670000Y-4354380D01*
X11498571Y-5354380D02*
X11498571Y-4354380D01*
X11870000Y-5354380D02*
X11870000Y-4354380D01*
X12098571Y-4354380D01*
X12155714Y-4402000D01*
X12184285Y-4449619D01*
X12212857Y-4544857D01*
X12212857Y-4687714D01*
X12184285Y-4782952D01*
X12155714Y-4830571D01*
X12098571Y-4878190D01*
X11870000Y-4878190D01*
X12784285Y-5354380D02*
X12441428Y-5354380D01*
X12612857Y-5354380D02*
X12612857Y-4354380D01*
X12555714Y-4497238D01*
X12498571Y-4592476D01*
X12441428Y-4640095D01*
X13127142Y-4782952D02*
X13070000Y-4735333D01*
X13041428Y-4687714D01*
X13012857Y-4592476D01*
X13012857Y-4544857D01*
X13041428Y-4449619D01*
X13070000Y-4402000D01*
X13127142Y-4354380D01*
X13241428Y-4354380D01*
X13298571Y-4402000D01*
X13327142Y-4449619D01*
X13355714Y-4544857D01*
X13355714Y-4592476D01*
X13327142Y-4687714D01*
X13298571Y-4735333D01*
X13241428Y-4782952D01*
X13127142Y-4782952D01*
X13070000Y-4830571D01*
X13041428Y-4878190D01*
X13012857Y-4973428D01*
X13012857Y-5163904D01*
X13041428Y-5259142D01*
X13070000Y-5306761D01*
X13127142Y-5354380D01*
X13241428Y-5354380D01*
X13298571Y-5306761D01*
X13327142Y-5259142D01*
X13355714Y-5163904D01*
X13355714Y-4973428D01*
X13327142Y-4878190D01*
X13298571Y-4830571D01*
X13241428Y-4782952D01*
X6950000Y-57322380D02*
X6950000Y-58036666D01*
X6921428Y-58179523D01*
X6864285Y-58274761D01*
X6778571Y-58322380D01*
X6721428Y-58322380D01*
X7178571Y-57322380D02*
X7550000Y-57322380D01*
X7350000Y-57703333D01*
X7435714Y-57703333D01*
X7492857Y-57750952D01*
X7521428Y-57798571D01*
X7550000Y-57893809D01*
X7550000Y-58131904D01*
X7521428Y-58227142D01*
X7492857Y-58274761D01*
X7435714Y-58322380D01*
X7264285Y-58322380D01*
X7207142Y-58274761D01*
X7178571Y-58227142D01*
D12*
X43700000Y-29775000D02*
G75*
G03*
X43700000Y-29775000I-950000J0D01*
G01*
X30000000Y-27025000D02*
X19900000Y-27025000D01*
X19900000Y-19300000D02*
X19000000Y-19300000D01*
X19900000Y-6975002D02*
X19900000Y-13800002D01*
X30000000Y-6900000D02*
X19900000Y-6900000D01*
X40100000Y-27025000D02*
X40100000Y-20200000D01*
X30000000Y-27025000D02*
X40100000Y-27025000D01*
X30000000Y-7500000D02*
X30000000Y-26500000D01*
X19900000Y-20200000D02*
X19900000Y-19300000D01*
X40100000Y-19300000D02*
X41000000Y-19300000D01*
X22000000Y-17000000D02*
X38000000Y-17000000D01*
X40100000Y-19300000D02*
X40100000Y-20200000D01*
X40100000Y-6900000D02*
X40100000Y-13800000D01*
X40100000Y-14700000D02*
X41000000Y-14700000D01*
X33000000Y-27025000D02*
X33000000Y-50000000D01*
X19900000Y-14700002D02*
X19000000Y-14700002D01*
X27000000Y-27025000D02*
X27000000Y-50000000D01*
X40100000Y-14700000D02*
X40100000Y-13800000D01*
X19900000Y-27025000D02*
X19900000Y-20200000D01*
X19900000Y-14700002D02*
X19900000Y-13800002D01*
X30000000Y-6900000D02*
X40100000Y-6900000D01*
X41000001Y-19300001D02*
G75*
G03*
X43300001Y-16999999I-1J2300001D01*
G01*
X16700000Y-17000000D02*
G75*
G03*
X19000000Y-19300000I2299999J-1D01*
G01*
X19000000Y-14700000D02*
G75*
G03*
X16700000Y-17000000I-1J-2299999D01*
G01*
X43300000Y-17000000D02*
G75*
G03*
X41000000Y-14700000I-2300000J0D01*
G01*
X47686000Y-10668000D02*
G75*
G03*
X47686000Y-10668000I-950000J0D01*
G01*
X20295000Y-43221359D02*
X20295000Y-43528641D01*
X21055000Y-43221359D02*
X21055000Y-43528641D01*
X57700000Y-18700000D02*
X57250000Y-18250000D01*
X59000000Y-14250000D02*
X61000000Y-14250000D01*
X59000000Y-19750000D02*
X61000000Y-19750000D01*
X62300000Y-15300000D02*
X62750000Y-15750000D01*
X62750000Y-18250000D02*
X62750000Y-15750000D01*
X62300000Y-18700000D02*
X62750000Y-18250000D01*
X57700000Y-15300000D02*
X57250000Y-15750000D01*
X57250000Y-18250000D02*
X57250000Y-15750000D01*
X640000Y-30711252D02*
X640000Y-30188748D01*
X2060000Y-30711252D02*
X2060000Y-30188748D01*
X32057836Y-58165000D02*
X31842164Y-58165000D01*
X32057836Y-58885000D02*
X31842164Y-58885000D01*
X39200000Y-40735000D02*
X41485000Y-40735000D01*
X41485000Y-39265000D02*
X39200000Y-39265000D01*
X41485000Y-40735000D02*
X41485000Y-39265000D01*
X41926359Y-32480000D02*
X42233641Y-32480000D01*
X41926359Y-31720000D02*
X42233641Y-31720000D01*
X5025000Y-41515000D02*
X2740000Y-41515000D01*
X2740000Y-42985000D02*
X5025000Y-42985000D01*
X2740000Y-41515000D02*
X2740000Y-42985000D01*
X8180000Y-38670000D02*
G75*
G03*
X8180000Y-38670000I-950000J0D01*
G01*
X18300000Y-6950000D02*
G75*
G03*
X18300000Y-6950000I-950000J0D01*
G01*
X11015000Y-31765000D02*
X11015000Y-33235000D01*
X11015000Y-33235000D02*
X13300000Y-33235000D01*
X13300000Y-31765000D02*
X11015000Y-31765000D01*
X48050000Y-24250000D02*
G75*
G03*
X48050000Y-24250000I-950000J0D01*
G01*
X16620000Y-50980000D02*
G75*
G03*
X16620000Y-50980000I-950000J0D01*
G01*
X43775000Y-26225000D02*
G75*
G03*
X43775000Y-26225000I-950000J0D01*
G01*
X7150000Y-61290000D02*
G75*
G03*
X7150000Y-61290000I-950000J0D01*
G01*
X6200000Y-29840000D02*
G75*
G03*
X6200000Y-29840000I-950000J0D01*
G01*
X25000000Y4000000D02*
X23250000Y4000000D01*
X25000000Y4000000D02*
X26750000Y4000000D01*
X25000000Y3000000D02*
X25500000Y2500000D01*
X25000000Y3000000D02*
X24500000Y2500000D01*
X25000000Y1000000D02*
X25000000Y3000000D01*
X30000000Y-5000000D02*
X20000000Y-5000000D01*
X20000000Y-5000000D02*
X20000000Y4000000D01*
X20000000Y4000000D02*
X30000000Y4000000D01*
X30000000Y4000000D02*
X30000000Y-5000000D01*
X9975000Y-61275000D02*
G75*
G03*
X9975000Y-61275000I-950000J0D01*
G01*
X46015000Y-33235000D02*
X48300000Y-33235000D01*
X46015000Y-31765000D02*
X46015000Y-33235000D01*
X48300000Y-31765000D02*
X46015000Y-31765000D01*
X47925000Y-28550000D02*
G75*
G03*
X47925000Y-28550000I-950000J0D01*
G01*
X6950000Y-50300000D02*
X5350000Y-50300000D01*
X10910000Y-50140000D02*
X9310000Y-50140000D01*
X9310000Y-46140000D02*
X10525000Y-46140000D01*
X10910000Y-44940000D02*
X3090000Y-44940000D01*
X3090000Y-47500000D02*
X7450000Y-47500000D01*
X3090000Y-51060000D02*
X10910000Y-51060000D01*
X7450000Y-47500000D02*
X7450000Y-48500000D01*
X7450000Y-48500000D02*
X3090000Y-48500000D01*
X5350000Y-50300000D02*
X5350000Y-49300000D01*
X9310000Y-51060000D02*
X9310000Y-50140000D01*
X9310000Y-44940000D02*
X9310000Y-45860000D01*
X5350000Y-46200000D02*
X3090000Y-46200000D01*
X6950000Y-45700000D02*
X5350000Y-45700000D01*
X5350000Y-46700000D02*
X6950000Y-46700000D01*
X5350000Y-45700000D02*
X5350000Y-46700000D01*
X6950000Y-49300000D02*
X6950000Y-50300000D01*
X10910000Y-51060000D02*
X10910000Y-50140000D01*
X5350000Y-49300000D02*
X6950000Y-49300000D01*
X6950000Y-46700000D02*
X6950000Y-45700000D01*
X10910000Y-45860000D02*
X10910000Y-44940000D01*
X9310000Y-50140000D02*
X9310000Y-49860000D01*
X9310000Y-45860000D02*
X10910000Y-45860000D01*
X3090000Y-44940000D02*
X3090000Y-51060000D01*
X5350000Y-46700000D02*
X3090000Y-46700000D01*
X9310000Y-46140000D02*
X9310000Y-45860000D01*
X38702164Y-31740000D02*
X38917836Y-31740000D01*
X38702164Y-32460000D02*
X38917836Y-32460000D01*
X15800000Y3235000D02*
X13515000Y3235000D01*
X13515000Y1765000D02*
X15800000Y1765000D01*
X13515000Y3235000D02*
X13515000Y1765000D01*
X46180000Y-8960000D02*
X45180000Y-8960000D01*
X47180000Y-6740000D02*
X45180000Y-6740000D01*
X16485000Y-35735000D02*
X16485000Y-34265000D01*
X16485000Y-34265000D02*
X14200000Y-34265000D01*
X14200000Y-35735000D02*
X16485000Y-35735000D01*
X5790000Y-42985000D02*
X8075000Y-42985000D01*
X5790000Y-41515000D02*
X5790000Y-42985000D01*
X8075000Y-41515000D02*
X5790000Y-41515000D01*
X17450000Y-56350000D02*
G75*
G03*
X17450000Y-56350000I-950000J0D01*
G01*
X46987836Y-6410000D02*
X46772164Y-6410000D01*
X46987836Y-5690000D02*
X46772164Y-5690000D01*
X3660000Y-34450000D02*
X3660000Y-33650000D01*
X540000Y-34450000D02*
X540000Y-36250000D01*
X540000Y-34450000D02*
X540000Y-33650000D01*
X3660000Y-34450000D02*
X3660000Y-35250000D01*
X11840000Y-62672164D02*
X11840000Y-62887836D01*
X12560000Y-62672164D02*
X12560000Y-62887836D01*
X6365000Y-23435000D02*
X6365000Y-16595000D01*
X9275000Y-16595000D02*
X6365000Y-16595000D01*
X13605000Y-23435000D02*
X10575000Y-23435000D01*
X13605000Y-16595000D02*
X10575000Y-16595000D01*
X9275000Y-23435000D02*
X6365000Y-23435000D01*
X13605000Y-23435000D02*
X13605000Y-16595000D01*
X36160000Y-56300000D02*
X36160000Y-57500000D01*
X37650000Y-50500000D02*
X22350000Y-50500000D01*
X23840000Y-56300000D02*
X22350000Y-56300000D01*
X36160000Y-56300000D02*
X37650000Y-56300000D01*
X22350000Y-56300000D02*
X22350000Y-54960000D01*
X22350000Y-50500000D02*
X22350000Y-52240000D01*
X37650000Y-52240000D02*
X37650000Y-50500000D01*
X37650000Y-56300000D02*
X37650000Y-54960000D01*
X49860000Y-37900000D02*
G75*
G03*
X49860000Y-37900000I-950000J0D01*
G01*
X5550000Y-38680000D02*
G75*
G03*
X5550000Y-38680000I-950000J0D01*
G01*
X20500000Y-56350000D02*
G75*
G03*
X20500000Y-56350000I-950000J0D01*
G01*
X9225000Y-32300000D02*
G75*
G03*
X9225000Y-32300000I-950000J0D01*
G01*
X18160000Y-59110000D02*
G75*
G03*
X18160000Y-59110000I-950000J0D01*
G01*
X43515000Y1765000D02*
X45800000Y1765000D01*
X45800000Y3235000D02*
X43515000Y3235000D01*
X43515000Y3235000D02*
X43515000Y1765000D01*
X20240000Y-50970000D02*
G75*
G03*
X20240000Y-50970000I-950000J0D01*
G01*
X53670000Y-1440000D02*
G75*
G03*
X53670000Y-1440000I-950000J0D01*
G01*
X37290000Y-34850000D02*
G75*
G03*
X37290000Y-34850000I-950000J0D01*
G01*
X11580000Y-62953641D02*
X11580000Y-62646359D01*
X10820000Y-62953641D02*
X10820000Y-62646359D01*
X43100000Y-36075000D02*
G75*
G03*
X43100000Y-36075000I-950000J0D01*
G01*
X48300000Y-14925000D02*
G75*
G03*
X48300000Y-14925000I-950000J0D01*
G01*
X370000Y-26130000D02*
G75*
G03*
X370000Y-26130000I-950000J0D01*
G01*
X46015000Y735000D02*
X46015000Y-735000D01*
X46015000Y-735000D02*
X48300000Y-735000D01*
X48300000Y735000D02*
X46015000Y735000D01*
X36000000Y3000000D02*
X36500000Y2500000D01*
X36000000Y4000000D02*
X34250000Y4000000D01*
X36000000Y3000000D02*
X35500000Y2500000D01*
X36000000Y1000000D02*
X36000000Y3000000D01*
X36000000Y4000000D02*
X37750000Y4000000D01*
X41000000Y-5000000D02*
X31000000Y-5000000D01*
X31000000Y-5000000D02*
X31000000Y4000000D01*
X31000000Y4000000D02*
X41000000Y4000000D01*
X41000000Y4000000D02*
X41000000Y-5000000D01*
X62300000Y-9700000D02*
X62750000Y-9250000D01*
X62300000Y-6300000D02*
X62750000Y-6750000D01*
X62750000Y-9250000D02*
X62750000Y-6750000D01*
X57700000Y-9700000D02*
X57250000Y-9250000D01*
X57700000Y-6300000D02*
X57250000Y-6750000D01*
X59000000Y-10750000D02*
X61000000Y-10750000D01*
X57250000Y-9250000D02*
X57250000Y-6750000D01*
X59000000Y-5250000D02*
X61000000Y-5250000D01*
X47975000Y-19825000D02*
G75*
G03*
X47975000Y-19825000I-950000J0D01*
G01*
X11000000Y-27800000D02*
X11200000Y-28000000D01*
X11000000Y-27800000D02*
X11000000Y-28400000D01*
X11000000Y-27800000D02*
X10800000Y-28000000D01*
X13125000Y-27400000D02*
X8875000Y-27400000D01*
X8875000Y-27400000D02*
X8875000Y-30600000D01*
X8875000Y-30600000D02*
X13125000Y-30600000D01*
X13125000Y-30600000D02*
X13125000Y-27400000D01*
X-2570000Y-30990000D02*
X-590000Y-30990000D01*
X-590000Y-38510000D02*
X-590000Y-38090000D01*
X-590000Y-30990000D02*
X-590000Y-31410000D01*
X-4940000Y-30990000D02*
X-4540000Y-30990000D01*
X-2570000Y-38510000D02*
X-590000Y-38510000D01*
X-360000Y-32990000D02*
X90000Y-32990000D01*
X-4540000Y-38510000D02*
X-4940000Y-38510000D01*
X90000Y-33440000D02*
X90000Y-32990000D01*
G36*
X38636730Y-41557043D02*
G01*
X38693029Y-41736954D01*
X38716341Y-41980557D01*
X38722171Y-42279696D01*
X38705505Y-42479237D01*
X38661673Y-42596093D01*
X38586004Y-42647175D01*
X38530509Y-42653364D01*
X38407182Y-42638009D01*
X38354834Y-42614075D01*
X38337279Y-42541124D01*
X38323772Y-42379540D01*
X38316354Y-42158540D01*
X38315545Y-42052365D01*
X38319265Y-41793227D01*
X38333031Y-41629117D01*
X38360749Y-41537358D01*
X38406330Y-41495271D01*
X38411955Y-41492947D01*
X38544558Y-41478142D01*
X38636730Y-41557043D01*
G37*
G36*
X41142436Y-46507206D02*
G01*
X41356403Y-46528382D01*
X41514633Y-46568473D01*
X41576471Y-46611649D01*
X41603529Y-46727462D01*
X41560944Y-46803180D01*
X41456691Y-46856249D01*
X41272530Y-46889668D01*
X41044769Y-46903439D01*
X40809716Y-46897560D01*
X40603681Y-46872033D01*
X40462970Y-46826856D01*
X40433023Y-46803180D01*
X40387393Y-46689898D01*
X40417497Y-46611649D01*
X40510262Y-46557166D01*
X40684951Y-46521598D01*
X40907147Y-46504945D01*
X41142436Y-46507206D01*
G37*
G36*
X42346759Y-44317482D02*
G01*
X42414599Y-44368411D01*
X42500100Y-44469647D01*
X42613316Y-44634571D01*
X42764296Y-44876564D01*
X42949523Y-45186078D01*
X43121913Y-45473281D01*
X43275379Y-45721571D01*
X43399407Y-45914527D01*
X43483484Y-46035728D01*
X43515472Y-46070069D01*
X43557892Y-46022184D01*
X43648581Y-45888532D01*
X43777094Y-45685545D01*
X43932982Y-45429655D01*
X44075333Y-45189448D01*
X44265448Y-44867531D01*
X44408513Y-44634280D01*
X44515306Y-44475653D01*
X44596605Y-44377611D01*
X44663189Y-44326114D01*
X44725834Y-44307123D01*
X44753944Y-44305457D01*
X44916009Y-44303480D01*
X44916009Y-46896519D01*
X44562413Y-46896519D01*
X44562413Y-45970434D01*
X44562293Y-45595664D01*
X44556328Y-45335966D01*
X44536112Y-45188572D01*
X44493236Y-45150717D01*
X44419295Y-45219633D01*
X44305880Y-45392554D01*
X44144585Y-45666713D01*
X44063520Y-45806264D01*
X43873128Y-46127700D01*
X43729043Y-46356313D01*
X43622977Y-46503739D01*
X43546645Y-46581614D01*
X43496957Y-46601856D01*
X43452232Y-46554081D01*
X43359062Y-46422435D01*
X43229107Y-46224436D01*
X43074027Y-45977601D01*
X42990429Y-45840882D01*
X42529234Y-45079908D01*
X42513005Y-45988213D01*
X42496775Y-46896519D01*
X42146172Y-46896519D01*
X42146172Y-44303480D01*
X42286530Y-44303480D01*
X42346759Y-44317482D01*
G37*
G36*
X37301432Y-49126941D02*
G01*
X37301348Y-49430646D01*
X37273320Y-49632413D01*
X37213371Y-49745708D01*
X37117528Y-49783995D01*
X37107425Y-49784222D01*
X37009311Y-49743019D01*
X36964833Y-49701535D01*
X36928374Y-49590544D01*
X36911455Y-49377595D01*
X36913418Y-49126941D01*
X36930626Y-48635034D01*
X37284223Y-48635034D01*
X37301432Y-49126941D01*
G37*
G36*
X51103944Y-46601856D02*
G01*
X52518329Y-46601856D01*
X52518329Y-46896519D01*
X50750348Y-46896519D01*
X50750348Y-44303480D01*
X51103944Y-44303480D01*
X51103944Y-46601856D01*
G37*
G36*
X39568971Y-43523676D02*
G01*
X40142459Y-44099324D01*
X40142459Y-47163928D01*
X38991163Y-48310904D01*
X35867626Y-48310904D01*
X34720650Y-47159608D01*
X34720650Y-44095004D01*
X35296298Y-43521516D01*
X35871946Y-42948027D01*
X38995483Y-42948027D01*
X39568971Y-43523676D01*
G37*
G36*
X37887584Y-48618502D02*
G01*
X37958972Y-48677071D01*
X37999882Y-48808304D01*
X38017548Y-49029651D01*
X38019979Y-49197842D01*
X38004141Y-49501179D01*
X37953659Y-49694755D01*
X37866266Y-49782139D01*
X37739698Y-49766900D01*
X37679582Y-49734136D01*
X37640591Y-49668152D01*
X37620446Y-49522004D01*
X37617561Y-49280251D01*
X37620649Y-49160445D01*
X37630566Y-48910114D01*
X37644922Y-48753990D01*
X37670558Y-48668438D01*
X37714315Y-48629822D01*
X37778486Y-48615145D01*
X37887584Y-48618502D01*
G37*
G36*
X34188834Y-46493192D02*
G01*
X34357309Y-46523375D01*
X34451243Y-46576599D01*
X34524607Y-46658204D01*
X34543852Y-46690255D01*
X34507593Y-46743187D01*
X34451243Y-46803911D01*
X34362030Y-46855667D01*
X34208202Y-46883820D01*
X33965954Y-46892209D01*
X33906115Y-46891867D01*
X33679363Y-46885942D01*
X33494867Y-46874550D01*
X33387618Y-46859977D01*
X33379930Y-46857489D01*
X33318369Y-46779635D01*
X33311994Y-46657801D01*
X33357431Y-46550295D01*
X33399484Y-46519762D01*
X33502108Y-46502124D01*
X33684511Y-46489347D01*
X33908627Y-46484018D01*
X33925668Y-46483990D01*
X34188834Y-46493192D01*
G37*
G36*
X34188834Y-44371615D02*
G01*
X34357309Y-44401797D01*
X34451243Y-44455021D01*
X34524607Y-44536626D01*
X34543852Y-44568677D01*
X34507593Y-44621610D01*
X34451243Y-44682333D01*
X34362030Y-44734090D01*
X34208202Y-44762242D01*
X33965954Y-44770631D01*
X33906115Y-44770289D01*
X33679363Y-44764365D01*
X33494867Y-44752973D01*
X33387618Y-44738399D01*
X33379930Y-44735912D01*
X33318369Y-44658057D01*
X33311994Y-44536223D01*
X33357431Y-44428717D01*
X33399484Y-44398184D01*
X33502108Y-44380547D01*
X33684511Y-44367769D01*
X33908627Y-44362440D01*
X33925668Y-44362413D01*
X34188834Y-44371615D01*
G37*
G36*
X34205038Y-45090582D02*
G01*
X34397818Y-45149025D01*
X34495158Y-45240469D01*
X34487198Y-45359645D01*
X34483053Y-45367756D01*
X34439263Y-45423496D01*
X34363929Y-45457732D01*
X34231668Y-45475473D01*
X34017098Y-45481727D01*
X33903340Y-45482134D01*
X33666672Y-45477937D01*
X33476905Y-45466725D01*
X33363387Y-45450564D01*
X33345553Y-45442846D01*
X33313955Y-45358016D01*
X33306265Y-45272921D01*
X33330646Y-45179831D01*
X33415326Y-45118944D01*
X33577603Y-45084613D01*
X33834779Y-45071191D01*
X33926678Y-45070410D01*
X34205038Y-45090582D01*
G37*
G36*
X45906965Y-45570533D02*
G01*
X46090310Y-45175464D01*
X46232470Y-44874535D01*
X46341279Y-44654702D01*
X46424573Y-44502917D01*
X46490186Y-44406133D01*
X46545953Y-44351304D01*
X46599710Y-44325384D01*
X46659290Y-44315326D01*
X46660853Y-44315171D01*
X46842223Y-44297397D01*
X47402872Y-45520460D01*
X47565549Y-45871111D01*
X47714299Y-46183747D01*
X47841528Y-46443053D01*
X47939645Y-46633711D01*
X48001056Y-46740407D01*
X48016215Y-46757701D01*
X48067266Y-46717803D01*
X48171524Y-46599893D01*
X48314575Y-46422496D01*
X48482006Y-46204137D01*
X48659404Y-45963343D01*
X48832356Y-45718640D01*
X48888367Y-45636689D01*
X48887083Y-45562523D01*
X48819722Y-45423688D01*
X48681577Y-45211834D01*
X48531897Y-45004341D01*
X48330201Y-44732102D01*
X48191416Y-44541122D01*
X48109500Y-44417067D01*
X48078408Y-44345607D01*
X48092098Y-44312408D01*
X48144526Y-44303139D01*
X48229650Y-44303468D01*
X48236377Y-44303480D01*
X48336174Y-44311204D01*
X48421215Y-44346295D01*
X48512100Y-44426628D01*
X48629432Y-44570078D01*
X48779722Y-44774942D01*
X48928494Y-44975140D01*
X49054701Y-45133125D01*
X49141285Y-45228171D01*
X49167774Y-45246403D01*
X49220835Y-45201576D01*
X49324364Y-45080905D01*
X49461239Y-44905111D01*
X49556097Y-44776473D01*
X49717766Y-44558056D01*
X49834067Y-44419609D01*
X49925307Y-44343229D01*
X50011791Y-44311014D01*
X50090833Y-44305011D01*
X50174765Y-44304050D01*
X50226918Y-44312283D01*
X50241085Y-44344083D01*
X50211061Y-44413823D01*
X50130641Y-44535877D01*
X49993619Y-44724617D01*
X49793791Y-44994417D01*
X49792349Y-44996364D01*
X49611919Y-45251463D01*
X49489540Y-45449142D01*
X49432390Y-45577064D01*
X49432373Y-45615158D01*
X49483271Y-45688897D01*
X49589477Y-45835655D01*
X49735493Y-46034216D01*
X49905826Y-46263368D01*
X49907050Y-46265006D01*
X50072524Y-46488621D01*
X50208565Y-46676493D01*
X50301521Y-46809480D01*
X50337742Y-46868441D01*
X50337819Y-46869066D01*
X50286124Y-46887603D01*
X50159873Y-46896405D01*
X50142003Y-46896519D01*
X50049834Y-46888652D01*
X49968232Y-46853816D01*
X49878836Y-46775160D01*
X49763281Y-46635836D01*
X49603206Y-46418993D01*
X49567409Y-46369262D01*
X49412364Y-46156874D01*
X49282395Y-45985272D01*
X49192589Y-45873962D01*
X49159165Y-45841326D01*
X49115353Y-45886158D01*
X49019230Y-46008188D01*
X48885767Y-46187835D01*
X48756009Y-46368583D01*
X48382320Y-46896519D01*
X47640603Y-46896519D01*
X47509049Y-46572389D01*
X47377494Y-46248259D01*
X45970277Y-46248259D01*
X45821886Y-46572389D01*
X45731262Y-46755289D01*
X45656757Y-46853197D01*
X45573215Y-46891522D01*
X45501016Y-46896519D01*
X45379753Y-46883452D01*
X45331493Y-46852320D01*
X45356085Y-46788401D01*
X45423450Y-46633213D01*
X45526594Y-46402332D01*
X45658526Y-46111334D01*
X45730792Y-45953596D01*
X46096150Y-45953596D01*
X46655268Y-45953596D01*
X46895677Y-45951443D01*
X47084280Y-45945656D01*
X47195465Y-45937244D01*
X47214385Y-45931571D01*
X47191399Y-45864726D01*
X47130830Y-45719171D01*
X47045260Y-45522850D01*
X46947273Y-45303709D01*
X46849451Y-45089695D01*
X46764377Y-44908752D01*
X46704633Y-44788826D01*
X46685539Y-44757041D01*
X46640811Y-44778670D01*
X46571778Y-44884722D01*
X46519802Y-44992772D01*
X46424186Y-45212141D01*
X46311943Y-45467429D01*
X46246728Y-45614733D01*
X46096150Y-45953596D01*
X45730792Y-45953596D01*
X45812251Y-45775793D01*
X45906965Y-45570533D01*
G37*
G36*
X53156533Y-45570533D02*
G01*
X53339889Y-45175420D01*
X53482074Y-44874459D01*
X53590913Y-44654602D01*
X53674234Y-44502804D01*
X53739864Y-44406018D01*
X53795631Y-44351198D01*
X53849361Y-44325298D01*
X53908881Y-44315272D01*
X53909673Y-44315194D01*
X53958650Y-44307801D01*
X53998650Y-44303499D01*
X54035581Y-44312756D01*
X54075349Y-44346044D01*
X54123861Y-44413833D01*
X54187022Y-44526595D01*
X54270740Y-44694800D01*
X54380921Y-44928919D01*
X54523472Y-45239422D01*
X54704299Y-45636781D01*
X54908692Y-46086194D01*
X55277654Y-46896519D01*
X55083490Y-46896519D01*
X54970822Y-46887443D01*
X54894472Y-46842698D01*
X54828039Y-46736013D01*
X54757773Y-46572389D01*
X54626218Y-46248259D01*
X53219001Y-46248259D01*
X53070610Y-46572389D01*
X52979986Y-46755289D01*
X52905481Y-46853197D01*
X52821939Y-46891522D01*
X52749740Y-46896519D01*
X52628636Y-46883459D01*
X52580666Y-46852320D01*
X52605385Y-46788398D01*
X52672861Y-46633203D01*
X52776094Y-46402313D01*
X52908087Y-46111303D01*
X52980350Y-45953596D01*
X53344874Y-45953596D01*
X53903991Y-45953596D01*
X54144400Y-45951443D01*
X54333004Y-45945656D01*
X54444189Y-45937244D01*
X54463109Y-45931571D01*
X54440123Y-45864726D01*
X54379554Y-45719171D01*
X54293984Y-45522850D01*
X54195997Y-45303709D01*
X54098175Y-45089695D01*
X54013100Y-44908752D01*
X53953357Y-44788826D01*
X53934263Y-44757041D01*
X53889535Y-44778670D01*
X53820502Y-44884722D01*
X53768525Y-44992772D01*
X53672910Y-45212141D01*
X53560667Y-45467429D01*
X53495452Y-45614733D01*
X53344874Y-45953596D01*
X52980350Y-45953596D01*
X53061841Y-45775750D01*
X53156533Y-45570533D01*
G37*
G36*
X56363689Y-44303808D02*
G01*
X56776910Y-44312914D01*
X57092046Y-44342511D01*
X57327737Y-44396718D01*
X57502621Y-44479650D01*
X57623241Y-44582049D01*
X57739980Y-44786540D01*
X57769626Y-45025724D01*
X57712731Y-45257618D01*
X57612438Y-45402664D01*
X57518618Y-45503736D01*
X57478843Y-45561423D01*
X57479839Y-45565154D01*
X57537330Y-45601189D01*
X57651312Y-45672478D01*
X57657285Y-45676212D01*
X57816435Y-45837987D01*
X57894005Y-46051895D01*
X57892039Y-46287010D01*
X57812581Y-46512404D01*
X57657677Y-46697149D01*
X57586543Y-46746174D01*
X57486611Y-46795833D01*
X57368701Y-46831329D01*
X57209912Y-46855752D01*
X56987343Y-46872193D01*
X56678093Y-46883742D01*
X56540487Y-46887312D01*
X55700696Y-46907571D01*
X55700696Y-46612584D01*
X56054292Y-46612584D01*
X56667057Y-46592487D01*
X56959975Y-46579123D01*
X57159889Y-46558863D01*
X57291633Y-46527245D01*
X57380042Y-46479807D01*
X57403716Y-46460123D01*
X57505785Y-46296634D01*
X57522938Y-46099964D01*
X57455072Y-45918015D01*
X57405009Y-45860911D01*
X57324397Y-45807598D01*
X57205910Y-45771099D01*
X57025064Y-45746971D01*
X56757377Y-45730770D01*
X56668350Y-45727227D01*
X56054292Y-45704497D01*
X56054292Y-46612584D01*
X55700696Y-46612584D01*
X55700696Y-45423201D01*
X56054292Y-45423201D01*
X56576739Y-45423201D01*
X56843572Y-45418833D01*
X57023323Y-45402053D01*
X57146575Y-45367351D01*
X57243910Y-45309214D01*
X57254465Y-45301059D01*
X57380061Y-45140150D01*
X57404495Y-44955893D01*
X57325898Y-44781713D01*
X57285809Y-44739876D01*
X57199181Y-44683031D01*
X57072195Y-44645295D01*
X56878629Y-44621534D01*
X56608083Y-44607188D01*
X56054292Y-44586766D01*
X56054292Y-45423201D01*
X55700696Y-45423201D01*
X55700696Y-44303480D01*
X56363689Y-44303808D01*
G37*
G36*
X41142436Y-45800014D02*
G01*
X41356403Y-45821190D01*
X41514633Y-45861281D01*
X41576471Y-45904456D01*
X41603529Y-46020270D01*
X41560944Y-46095988D01*
X41456691Y-46149056D01*
X41272530Y-46182476D01*
X41044769Y-46196246D01*
X40809716Y-46190368D01*
X40603681Y-46164840D01*
X40462970Y-46119664D01*
X40433023Y-46095988D01*
X40387393Y-45982705D01*
X40417497Y-45904456D01*
X40510262Y-45849974D01*
X40684951Y-45814406D01*
X40907147Y-45797752D01*
X41142436Y-45800014D01*
G37*
G36*
X37950162Y-41545429D02*
G01*
X37982987Y-41635109D01*
X38006623Y-41805688D01*
X38019805Y-42020464D01*
X38021270Y-42242738D01*
X38009754Y-42435808D01*
X37985110Y-42560145D01*
X37905702Y-42629047D01*
X37776886Y-42654427D01*
X37662300Y-42626112D01*
X37647641Y-42614075D01*
X37628200Y-42538242D01*
X37615493Y-42379386D01*
X37609636Y-42172160D01*
X37610746Y-41951222D01*
X37618939Y-41751227D01*
X37634332Y-41606829D01*
X37644124Y-41567929D01*
X37726702Y-41488278D01*
X37851328Y-41486363D01*
X37950162Y-41545429D01*
G37*
G36*
X38613618Y-48629052D02*
G01*
X38676308Y-48674078D01*
X38706734Y-48782688D01*
X38723361Y-48965504D01*
X38726859Y-49185729D01*
X38717900Y-49406564D01*
X38697154Y-49591212D01*
X38665292Y-49702874D01*
X38657355Y-49713503D01*
X38540617Y-49775416D01*
X38416792Y-49771612D01*
X38340620Y-49705630D01*
X38328673Y-49613160D01*
X38323368Y-49436155D01*
X38325450Y-49207801D01*
X38327737Y-49131036D01*
X38338149Y-48889104D01*
X38353687Y-48740645D01*
X38381809Y-48661293D01*
X38429978Y-48626679D01*
X38485679Y-48615145D01*
X38613618Y-48629052D01*
G37*
G36*
X41278811Y-45080083D02*
G01*
X41444029Y-45114083D01*
X41523169Y-45162214D01*
X41605300Y-45269906D01*
X41590901Y-45357926D01*
X41545058Y-45411415D01*
X41448360Y-45448774D01*
X41270912Y-45472417D01*
X41049025Y-45482344D01*
X40819014Y-45478555D01*
X40617192Y-45461049D01*
X40479872Y-45429827D01*
X40448910Y-45411415D01*
X40373276Y-45289401D01*
X40408260Y-45191076D01*
X40548393Y-45119722D01*
X40788206Y-45078622D01*
X41018366Y-45069605D01*
X41278811Y-45080083D01*
G37*
G36*
X34188834Y-45786000D02*
G01*
X34357309Y-45816182D01*
X34451243Y-45869406D01*
X34524607Y-45951011D01*
X34543852Y-45983062D01*
X34507593Y-46035995D01*
X34451243Y-46096718D01*
X34362030Y-46148475D01*
X34208202Y-46176627D01*
X33965954Y-46185016D01*
X33906115Y-46184674D01*
X33679363Y-46178750D01*
X33494867Y-46167358D01*
X33387618Y-46152785D01*
X33379930Y-46150297D01*
X33318369Y-46072442D01*
X33311994Y-45950608D01*
X33357431Y-45843102D01*
X33399484Y-45812569D01*
X33502108Y-45794932D01*
X33684511Y-45782154D01*
X33908627Y-45776825D01*
X33925668Y-45776798D01*
X34188834Y-45786000D01*
G37*
G36*
X36594239Y-49126941D02*
G01*
X36590815Y-49450116D01*
X36552526Y-49664155D01*
X36477139Y-49773182D01*
X36362420Y-49781317D01*
X36265197Y-49734136D01*
X36226206Y-49668152D01*
X36206061Y-49522004D01*
X36203176Y-49280251D01*
X36206264Y-49160445D01*
X36223434Y-48635034D01*
X36577030Y-48635034D01*
X36594239Y-49126941D01*
G37*
G36*
X41142436Y-44385629D02*
G01*
X41356403Y-44406805D01*
X41514633Y-44446896D01*
X41576471Y-44490071D01*
X41603529Y-44605885D01*
X41560944Y-44681603D01*
X41456691Y-44734671D01*
X41272530Y-44768091D01*
X41044769Y-44781861D01*
X40809716Y-44775983D01*
X40603681Y-44750455D01*
X40462970Y-44705278D01*
X40433023Y-44681603D01*
X40387393Y-44568320D01*
X40417497Y-44490071D01*
X40510262Y-44435588D01*
X40684951Y-44400020D01*
X40907147Y-44383367D01*
X41142436Y-44385629D01*
G37*
G36*
X36497570Y-41525358D02*
G01*
X36549212Y-41665712D01*
X36573423Y-41904088D01*
X36577030Y-42099926D01*
X36575717Y-42349383D01*
X36567435Y-42504566D01*
X36545668Y-42589066D01*
X36503900Y-42626473D01*
X36435615Y-42640378D01*
X36427493Y-42641336D01*
X36298762Y-42639764D01*
X36235962Y-42616781D01*
X36217189Y-42542550D01*
X36202747Y-42379880D01*
X36194825Y-42158179D01*
X36193968Y-42052365D01*
X36197687Y-41793227D01*
X36211453Y-41629117D01*
X36239172Y-41537358D01*
X36284752Y-41495271D01*
X36290377Y-41492947D01*
X36413093Y-41471584D01*
X36497570Y-41525358D01*
G37*
G36*
X37184376Y-41512978D02*
G01*
X37186030Y-41514016D01*
X37234943Y-41566959D01*
X37264961Y-41666311D01*
X37280062Y-41835804D01*
X37284223Y-42099169D01*
X37284223Y-42099926D01*
X37283020Y-42349318D01*
X37274925Y-42504453D01*
X37253205Y-42588936D01*
X37211127Y-42626376D01*
X37141959Y-42640379D01*
X37129686Y-42641819D01*
X36987811Y-42621948D01*
X36938155Y-42563333D01*
X36919841Y-42458852D01*
X36906612Y-42275128D01*
X36901179Y-42050758D01*
X36901160Y-42036966D01*
X36918602Y-41739390D01*
X36971273Y-41553501D01*
X37059692Y-41478347D01*
X37184376Y-41512978D01*
G37*
X61790000Y-26810000D02*
G75*
G03*
X61790000Y-26810000I-950000J0D01*
G01*
X11015000Y-735000D02*
X13300000Y-735000D01*
X11015000Y735000D02*
X11015000Y-735000D01*
X13300000Y735000D02*
X11015000Y735000D01*
X5605000Y-16595000D02*
X2575000Y-16595000D01*
X1275000Y-16595000D02*
X-1635000Y-16595000D01*
X1275000Y-23435000D02*
X-1635000Y-23435000D01*
X5605000Y-23435000D02*
X2575000Y-23435000D01*
X-1635000Y-23435000D02*
X-1635000Y-16595000D01*
X5605000Y-23435000D02*
X5605000Y-16595000D01*
X50395000Y-6845000D02*
X52995000Y-6845000D01*
X50395000Y-29765000D02*
X55595000Y-29765000D01*
X52995000Y-6845000D02*
X52995000Y-4245000D01*
X52995000Y-4245000D02*
X55595000Y-4245000D01*
X55595000Y-4245000D02*
X55595000Y-29765000D01*
X50395000Y-4245000D02*
X51725000Y-4245000D01*
X50395000Y-5575000D02*
X50395000Y-4245000D01*
X50395000Y-6845000D02*
X50395000Y-29765000D01*
X39603641Y-38295000D02*
X39296359Y-38295000D01*
X39603641Y-39055000D02*
X39296359Y-39055000D01*
X18290000Y-10630000D02*
G75*
G03*
X18290000Y-10630000I-950000J0D01*
G01*
X46485000Y-35735000D02*
X46485000Y-34265000D01*
X44200000Y-35735000D02*
X46485000Y-35735000D01*
X46485000Y-34265000D02*
X44200000Y-34265000D01*
X18212500Y-47635000D02*
X17562500Y-47635000D01*
X18212500Y-47635000D02*
X19887500Y-47635000D01*
X18212500Y-44515000D02*
X17562500Y-44515000D01*
X18212500Y-44515000D02*
X18862500Y-44515000D01*
X46070000Y-41470000D02*
G75*
G03*
X46070000Y-41470000I-950000J0D01*
G01*
X21080000Y-46696359D02*
X21080000Y-47003641D01*
X20320000Y-46696359D02*
X20320000Y-47003641D01*
X18200000Y-41040000D02*
X18850000Y-41040000D01*
X18200000Y-44160000D02*
X19875000Y-44160000D01*
X18200000Y-41040000D02*
X17550000Y-41040000D01*
X18200000Y-44160000D02*
X17550000Y-44160000D01*
X52890000Y-37960000D02*
G75*
G03*
X52890000Y-37960000I-950000J0D01*
G01*
X54760000Y-47883641D02*
X54760000Y-47576359D01*
X54000000Y-47883641D02*
X54000000Y-47576359D01*
X17100000Y-2250000D02*
G75*
G03*
X17100000Y-2250000I-950000J0D01*
G01*
D13*
X10000000Y-14000000D02*
X8500000Y-14000000D01*
X8500000Y-14000000D02*
X8500000Y-12500000D01*
X8500000Y-12500000D02*
X10000000Y-12500000D01*
X10000000Y-12500000D02*
X10000000Y-14000000D01*
D12*
X3000000Y-11000000D02*
G75*
G03*
X5000000Y-11828427I2000000J1999999D01*
G01*
X10171605Y-12042121D02*
G75*
G03*
X5000000Y-15000000I-5171605J3042121D01*
G01*
X7000000Y-7000000D02*
G75*
G03*
X5000000Y-6171573I-2000000J-2000000D01*
G01*
X9550000Y-9000000D02*
G75*
G03*
X9550000Y-9000000I-4550000J0D01*
G01*
X13320000Y-6550000D02*
G75*
G03*
X13320000Y-6550000I-950000J0D01*
G01*
X11480000Y-57050000D02*
X12080000Y-56450000D01*
X3825000Y-56270000D02*
X3825000Y-55635000D01*
X3900000Y-57050000D02*
X1920000Y-55650000D01*
X12080000Y-53550000D02*
X12080000Y-56450000D01*
X4460000Y-56270000D02*
X3825000Y-56270000D01*
X1920000Y-54350000D02*
X3900000Y-52950000D01*
X1920000Y-55650000D02*
X1920000Y-54350000D01*
X3900000Y-52950000D02*
X11480000Y-52950000D01*
X11480000Y-52950000D02*
X12080000Y-53550000D01*
X11480000Y-57050000D02*
X3900000Y-57050000D01*
%LPC*%
D14*
X0Y-60000000D03*
D15*
X0Y-60000000D03*
D14*
X0Y0D03*
D15*
X0Y0D03*
D16*
X42750000Y-29775000D03*
D17*
X19000000Y-17000000D03*
X41000000Y-17000000D03*
D16*
X46736000Y-10668000D03*
D18*
X20675000Y-42865000D03*
X20675000Y-43885000D03*
D19*
X58100000Y-20150000D03*
X58100000Y-13850000D03*
X61900000Y-13850000D03*
X61900000Y-20150000D03*
D20*
X1350000Y-31475000D03*
X1350000Y-29425000D03*
D21*
X32430000Y-58525000D03*
X31470000Y-58525000D03*
D22*
X40787500Y-40000000D03*
X39212500Y-40000000D03*
D23*
X41570000Y-32100000D03*
X42590000Y-32100000D03*
D24*
X3437500Y-42250000D03*
X5012500Y-42250000D03*
D16*
X7230000Y-38670000D03*
X17350000Y-6950000D03*
D24*
X11712500Y-32500000D03*
X13287500Y-32500000D03*
D16*
X47100000Y-24250000D03*
X15670000Y-50980000D03*
X42825000Y-26225000D03*
X6200000Y-61290000D03*
X5250000Y-29840000D03*
D25*
X21400000Y-2500000D03*
X28600000Y-2500000D03*
X27250000Y0D03*
X22750000Y0D03*
D16*
X9025000Y-61275000D03*
D24*
X46712500Y-32500000D03*
X48287500Y-32500000D03*
D16*
X46975000Y-28550000D03*
D26*
X9450000Y-47000000D03*
D27*
X9450000Y-49000000D03*
D28*
X38330000Y-32100000D03*
X39290000Y-32100000D03*
D24*
X14212500Y2500000D03*
X15787500Y2500000D03*
D29*
X46967500Y-8500000D03*
X46967500Y-7850000D03*
X46967500Y-7200000D03*
X45392500Y-7200000D03*
X45392500Y-7850000D03*
X45392500Y-8500000D03*
D22*
X15787500Y-35000000D03*
X14212500Y-35000000D03*
D24*
X6487500Y-42250000D03*
X8062500Y-42250000D03*
D16*
X16500000Y-56350000D03*
D21*
X47360000Y-6050000D03*
X46400000Y-6050000D03*
D30*
X1150000Y-35587500D03*
X2100000Y-35587500D03*
X3050000Y-35587500D03*
X3050000Y-33312500D03*
X2100000Y-33312500D03*
X1150000Y-33312500D03*
D31*
X12200000Y-62300000D03*
X12200000Y-63260000D03*
D32*
X9925000Y-17475000D03*
X7385000Y-20015000D03*
X9925000Y-22555000D03*
D33*
X35750000Y-56850000D03*
X35250000Y-56850000D03*
X34750000Y-56850000D03*
X34250000Y-56850000D03*
X33750000Y-56850000D03*
X33250000Y-56850000D03*
X32750000Y-56850000D03*
X32250000Y-56850000D03*
X31750000Y-56850000D03*
X31250000Y-56850000D03*
X30750000Y-56850000D03*
X30250000Y-56850000D03*
X29750000Y-56850000D03*
X29250000Y-56850000D03*
X28750000Y-56850000D03*
X28250000Y-56850000D03*
X27750000Y-56850000D03*
X27250000Y-56850000D03*
X26750000Y-56850000D03*
X26250000Y-56850000D03*
X25750000Y-56850000D03*
X25250000Y-56850000D03*
X24750000Y-56850000D03*
X24250000Y-56850000D03*
D34*
X37650000Y-53600000D03*
X22350000Y-53600000D03*
D16*
X48910000Y-37900000D03*
X4600000Y-38680000D03*
X19550000Y-56350000D03*
X8275000Y-32300000D03*
X17210000Y-59110000D03*
D24*
X44212500Y2500000D03*
X45787500Y2500000D03*
D16*
X19290000Y-50970000D03*
X52720000Y-1440000D03*
X36340000Y-34850000D03*
D35*
X11200000Y-63310000D03*
X11200000Y-62290000D03*
D16*
X42150000Y-36075000D03*
X47350000Y-14925000D03*
X-580000Y-26130000D03*
D24*
X46712500Y0D03*
X48287500Y0D03*
D25*
X39600000Y-2500000D03*
X32400000Y-2500000D03*
X38250000Y0D03*
X33750000Y0D03*
D19*
X58100000Y-4850000D03*
X58100000Y-11150000D03*
X61900000Y-11150000D03*
X61900000Y-4850000D03*
D16*
X47025000Y-19825000D03*
D36*
X10375000Y-29500000D03*
X11625000Y-29500000D03*
D37*
X-850000Y-33450000D03*
X-850000Y-34100000D03*
X-850000Y-34750000D03*
X-850000Y-35400000D03*
X-850000Y-36050000D03*
D38*
X-3550000Y-33750000D03*
D39*
X-3550000Y-37650000D03*
D38*
X-3550000Y-35750000D03*
D40*
X-3550000Y-31250000D03*
D41*
X-850000Y-37250000D03*
D39*
X-3550000Y-31850000D03*
D41*
X-850000Y-32250000D03*
D40*
X-3550000Y-38250000D03*
D16*
X60840000Y-26810000D03*
D24*
X11712500Y0D03*
X13287500Y0D03*
D32*
X1925000Y-17475000D03*
X-615000Y-20015000D03*
X1925000Y-22555000D03*
D15*
X60000000Y0D03*
D14*
X60000000Y0D03*
D42*
X51725000Y-5575000D03*
D43*
X54265000Y-5575000D03*
X51725000Y-8115000D03*
X54265000Y-8115000D03*
X51725000Y-10655000D03*
X54265000Y-10655000D03*
X51725000Y-13195000D03*
X54265000Y-13195000D03*
X51725000Y-15735000D03*
X54265000Y-15735000D03*
X51725000Y-18275000D03*
X54265000Y-18275000D03*
X51725000Y-20815000D03*
X54265000Y-20815000D03*
X51725000Y-23355000D03*
X54265000Y-23355000D03*
X51725000Y-25895000D03*
X54265000Y-25895000D03*
X51725000Y-28435000D03*
X54265000Y-28435000D03*
D44*
X39960000Y-38675000D03*
X38940000Y-38675000D03*
D16*
X17340000Y-10630000D03*
D22*
X45787500Y-35000000D03*
X44212500Y-35000000D03*
D45*
X19150000Y-47025000D03*
X19150000Y-45125000D03*
X17275000Y-46075000D03*
D16*
X45120000Y-41470000D03*
D15*
X60000000Y-60000000D03*
D14*
X60000000Y-60000000D03*
D18*
X20700000Y-46340000D03*
X20700000Y-47360000D03*
D45*
X19137500Y-43550000D03*
X19137500Y-41650000D03*
X17262500Y-42600000D03*
D16*
X51940000Y-37960000D03*
D35*
X54380000Y-48240000D03*
X54380000Y-47220000D03*
D16*
X16150000Y-2250000D03*
D46*
X6123152Y-11691848D03*
D47*
X7700000Y-10115000D03*
X7700000Y-7885000D03*
X3876848Y-6308152D03*
X2300000Y-7885000D03*
X2300000Y-10115000D03*
D16*
X12370000Y-6550000D03*
D48*
X10810000Y-56016000D03*
X10810000Y-53984000D03*
X3190000Y-55000000D03*
D49*
X4460000Y-55635000D03*
X5730000Y-55635000D03*
X7000000Y-55635000D03*
X8270000Y-55635000D03*
X9540000Y-55635000D03*
X9540000Y-54365000D03*
X8270000Y-54365000D03*
X7000000Y-54365000D03*
X5730000Y-54365000D03*
X4460000Y-54365000D03*
D50*
X49960000Y-42230000D03*
X49960000Y-43630000D03*
X49260000Y-42930000D03*
X49960000Y-40830000D03*
X47860000Y-42930000D03*
X50660000Y-42930000D03*
X47860000Y-41530000D03*
X49260000Y-41530000D03*
X48560000Y-40830000D03*
X48560000Y-42230000D03*
X50660000Y-41530000D03*
X48560000Y-43630000D03*
M02*
