%TF.GenerationSoftware,KiCad,Pcbnew,(6.0.10)*%
%TF.CreationDate,2023-01-06T19:17:38-08:00*%
%TF.ProjectId,ai-camera,61692d63-616d-4657-9261-2e6b69636164,rev?*%
%TF.SameCoordinates,PX5f5e100PY2faf080*%
%TF.FileFunction,Profile,NP*%
%FSLAX46Y46*%
G04 Gerber Fmt 4.6, Leading zero omitted, Abs format (unit mm)*
G04 Created by KiCad (PCBNEW (6.0.10)) date 2023-01-06 19:17:38*
%MOMM*%
%LPD*%
G01*
G04 APERTURE LIST*
%TA.AperFunction,Profile*%
%ADD10C,0.100000*%
%TD*%
G04 APERTURE END LIST*
D10*
X65000000Y0D02*
G75*
G03*
X60000000Y5000000I-5000000J0D01*
G01*
X-5000000Y-39250000D02*
G75*
G03*
X-2500000Y-41750000I2500000J0D01*
G01*
X65000000Y-52000000D02*
X65000000Y-60000000D01*
X0Y5000000D02*
X60000000Y5000000D01*
X58000000Y-48000000D02*
G75*
G03*
X60000000Y-50000000I2000000J0D01*
G01*
X-2500000Y-54250000D02*
G75*
G03*
X-5000000Y-56750000I0J-2500000D01*
G01*
X62999999Y-30999999D02*
X60000000Y-30999999D01*
X0Y5000000D02*
G75*
G03*
X-5000000Y0I0J-5000000D01*
G01*
X65000000Y-52000000D02*
G75*
G03*
X63000000Y-50000000I-2000000J0D01*
G01*
X-5000000Y-39250000D02*
X-5000000Y0D01*
X0Y-44250000D02*
G75*
G03*
X-2500000Y-41750000I-2500000J0D01*
G01*
X60000000Y-31000000D02*
G75*
G03*
X58000000Y-33000000I0J-2000000D01*
G01*
X60000000Y-50000000D02*
X63000000Y-50000000D01*
X60000000Y-65000000D02*
G75*
G03*
X65000000Y-60000000I0J5000000D01*
G01*
X0Y-51750000D02*
X0Y-44250000D01*
X-5000000Y-56750000D02*
X-5000000Y-60000000D01*
X65000000Y0D02*
X65000000Y-28999999D01*
X-5000000Y-60000000D02*
G75*
G03*
X0Y-65000000I5000000J0D01*
G01*
X60000000Y-65000000D02*
X0Y-65000000D01*
X-2500000Y-54250000D02*
G75*
G03*
X0Y-51750000I0J2500000D01*
G01*
X62999999Y-30999999D02*
G75*
G03*
X64999999Y-28999999I1J1999999D01*
G01*
X58000000Y-33000000D02*
X58000000Y-48000000D01*
M02*
