M48
; DRILL file {KiCad (7.0.0-93-gc189053ee5-dirty)} date Tue 21 Feb 2023 03:15:28 PM PST
; FORMAT={-:-/ absolute / metric / decimal}
; #@! TF.CreationDate,2023-02-21T15:15:28-08:00
; #@! TF.GenerationSoftware,Kicad,Pcbnew,(7.0.0-93-gc189053ee5-dirty)
; #@! TF.FileFunction,Plated,1,4,PTH
FMAT,2
METRIC
; #@! TA.AperFunction,Plated,PTH,ViaDrill
T1C0.300
; #@! TA.AperFunction,Plated,PTH,ComponentDrill
T2C0.300
; #@! TA.AperFunction,Plated,PTH,ComponentDrill
T3C0.500
; #@! TA.AperFunction,Plated,PTH,ComponentDrill
T4C0.600
; #@! TA.AperFunction,Plated,PTH,ComponentDrill
T5C0.762
; #@! TA.AperFunction,Plated,PTH,ComponentDrill
T6C1.000
; #@! TA.AperFunction,Plated,PTH,ComponentDrill
T7C1.100
; #@! TA.AperFunction,Plated,PTH,ComponentDrill
T8C3.200
%
G90
G05
T1
X2.625Y-31.65
X2.73Y-23.439
X3.241Y-21.03
X3.346Y-34.305
X3.7Y-19.86
X4.07Y-34.37
X4.19Y-36.3
X4.3Y-43.0
X4.72Y-21.25
X5.29Y-40.86
X5.359Y-38.311
X5.379Y-21.74
X5.44Y-20.14
X5.67Y-12.71
X6.026Y-22.367
X6.815Y-30.715
X7.23Y-23.485
X7.234Y-24.15
X7.3Y-43.575
X7.3Y-44.45
X7.475Y-34.625
X7.475Y-35.5
X7.7Y-45.2
X7.795Y-30.725
X8.0Y-27.0
X8.05Y-42.75
X8.075Y-42.025
X8.1Y-41.3
X8.18Y-11.66
X8.25Y-53.0
X8.619Y-22.367
X8.657Y-23.72
X8.685Y-30.745
X8.72Y-18.23
X8.84Y-9.28
X9.5Y-25.5
X9.5Y-27.0
X9.6Y-41.075
X9.7Y-47.45
X10.0Y-37.25
X10.35Y-41.025
X10.622Y-44.835
X10.75Y-40.0
X11.0Y-27.0
X11.0Y-37.5
X11.05Y-33.975
X11.281Y-21.441
X11.35Y-41.925
X11.8Y-57.75
X11.8Y-59.4
X11.8Y-60.325
X11.825Y-58.55
X12.0Y-27.5
X12.25Y-37.5
X12.307Y-44.18
X12.323Y-26.61
X12.61Y-65.98
X12.68Y-53.5
X12.725Y-60.775
X12.85Y-54.41
X13.0Y-37.5
X13.225Y-66.575
X13.25Y-47.55
X13.25Y-62.79
X13.75Y-37.5
X13.8Y-28.86
X13.96Y-54.46
X14.38Y-9.91
X14.8Y-50.6
X14.85Y-54.45
X14.9Y-52.3
X15.11Y-23.58
X15.9Y-50.6
X15.9Y-52.3
X16.2Y-66.7
X16.65Y-25.06
X17.025Y-51.5
X17.2Y-66.75
X17.58Y-34.57
X17.6Y-17.25
X17.63Y-57.57
X18.1Y-11.625
X18.174Y-37.155
X18.3Y-10.5
X18.33Y-28.33
X18.5Y-6.5
X18.525Y-25.85
X18.94Y-58.172
X19.015Y-18.28
X19.25Y-53.0
X19.25Y-56.25
X19.34Y-26.48
X19.44Y-28.4
X20.0Y-44.0
X20.0Y-45.0
X20.07Y-28.49
X20.25Y-51.5
X20.25Y-54.5
X20.25Y-57.768
X20.28Y-26.42
X20.375Y-17.27
X21.0Y-44.0
X21.25Y-53.0
X21.25Y-56.25
X21.75Y-60.0
X22.0Y-31.75
X22.75Y-60.0
X23.0Y-41.0
X23.44Y-36.92
X23.75Y-60.0
X24.0Y-47.0
X24.26Y-11.05
X25.0Y-47.0
X25.0Y-60.0
X25.25Y-40.0
X25.3Y-15.16
X25.5Y-61.0
X25.66Y-10.42
X25.8Y-53.375
X26.0Y-60.0
X26.39Y-44.89
X26.5Y-59.0
X27.0Y-60.0
X27.0Y-61.0
X27.68Y-47.66
X28.0Y-35.0
X28.0Y-38.0
X28.0Y-60.0
X28.0Y-66.0
X28.2Y-52.45
X28.469Y-58.05
X28.5Y-13.0
X28.5Y-59.0
X28.5Y-61.0
X29.0Y-27.0
X29.0Y-53.0
X29.0Y-54.0
X29.0Y-55.0
X29.0Y-56.0
X29.0Y-60.0
X29.275Y-41.375
X29.46Y-46.89
X29.75Y-58.19
X29.941Y-41.085
X30.0Y-38.0
X30.0Y-61.0
X30.0Y-63.5
X30.01Y-44.09
X30.21Y-45.89
X30.93Y-45.88
X31.0Y-63.5
X31.496Y-41.199
X31.5Y-66.0
X32.0Y-13.0
X32.0Y-18.5
X32.0Y-21.0
X32.0Y-27.0
X32.0Y-62.5
X32.0Y-63.5
X32.95Y-49.325
X33.0Y-30.5
X33.0Y-33.0
X33.0Y-35.5
X33.0Y-62.5
X33.0Y-63.5
X33.223Y-40.589
X33.68Y-43.82
X34.28Y-45.58
X34.522Y-46.819
X34.75Y-40.89
X35.02Y-39.87
X35.29Y-46.21
X35.464Y-44.696
X36.0Y-58.0
X36.04Y-46.77
X36.225Y-41.525
X37.0Y-13.0
X37.0Y-33.0
X37.25Y-40.825
X37.25Y-43.494
X37.29Y-67.2
X37.5Y-38.0
X38.11Y-49.07
X38.13Y-50.11
X38.5Y-27.0
X39.75Y-22.25
X39.776Y-52.019
X39.85Y-32.87
X39.97Y-45.12
X40.0Y-54.0
X40.48Y-30.97
X40.7Y-52.05
X40.88Y-29.46
X40.996Y-51.054
X41.2Y-35.11
X41.78Y-31.51
X42.0Y-13.0
X42.0Y-18.0
X42.09Y-37.01
X42.16Y-35.78
X43.85Y-30.69
X43.85Y-38.63
X44.48Y-32.22
X44.49Y-35.16
X44.525Y-57.65
X44.61Y-61.62
X45.0Y-31.0
X45.17Y-34.04
X45.261Y-57.65
X45.988Y-57.65
X46.32Y-33.15
X46.75Y-57.65
X46.82Y-30.08
X46.999Y-35.422
X47.72Y-56.05
X48.0Y-29.0
X48.545Y-44.622
X48.65Y-56.55
X49.25Y-13.5
X49.276Y-55.829
X49.4Y-65.29
X49.41Y-66.55
X49.498Y-44.629
X49.5Y-38.5
X49.784Y-52.832
X50.25Y-39.648
X50.83Y-42.48
X51.0Y-28.5
X51.054Y-53.086
X51.206Y-44.704
X51.28Y-14.59
X51.308Y-52.324
X52.0Y-34.0
X52.14Y-39.05
X52.324Y-44.704
X52.475Y-9.4
X52.578Y-53.086
X52.825Y-19.125
X53.0Y-62.5
X53.035Y-52.07
X53.375Y-43.0
X53.5Y-13.75
X53.5Y-14.5
X53.64Y-16.78
X53.848Y-52.578
X53.86Y-28.74
X53.86Y-38.5
X53.99Y-33.65
X54.25Y-35.84
X54.356Y-51.359
X54.82Y-4.328
X55.0Y-39.0
X55.04Y-7.0
X55.118Y-52.07
X55.5Y-58.0
X55.5Y-59.0
X55.5Y-60.0
X55.5Y-62.0
X55.5Y-63.0
X55.5Y-65.0
X55.5Y-66.0
X55.5Y-66.925
X55.57Y-38.49
X55.575Y-50.648
X55.625Y-7.85
X56.24Y-3.99
X56.24Y-6.94
X56.388Y-51.308
X56.5Y-58.0
X56.5Y-61.5
X56.5Y-64.0
X56.794Y-38.456
X56.947Y-49.987
X57.4Y-8.38
X57.658Y-50.546
X58.166Y-47.244
X58.217Y-48.311
X58.369Y-38.456
X58.74Y-57.01
X59.385Y-52.934
X59.41Y-54.77
X59.5Y-40.0
X59.584Y-52.218
X59.842Y-38.456
X60.0Y-44.0
X60.5Y-53.0
X61.1Y-61.625
X61.272Y-53.0
X61.625Y-30.5
X62.3Y-37.15
X62.3Y-37.85
X62.325Y-36.45
X62.5Y-56.0
X62.5Y-57.0
X62.562Y-53.028
X63.0Y-20.5
X63.0Y-56.5
X63.25Y-12.25
X63.5Y-58.0
X63.5Y-59.0
X63.5Y-60.0
X63.75Y-16.25
X65.95Y-27.525
X65.975Y-18.125
X66.025Y-11.55
X66.125Y-20.65
T2
X52.86Y-46.53
X52.86Y-47.93
X53.56Y-45.83
X53.56Y-47.23
X53.56Y-48.63
X54.26Y-46.53
X54.26Y-47.93
X54.96Y-45.83
X54.96Y-47.23
X54.96Y-48.63
X55.66Y-46.53
X55.66Y-47.93
T3
X21.5Y-15.375
X21.5Y-16.625
T5
X8.46Y-13.5
X11.0Y-16.04
X13.54Y-13.5
T6
X56.725Y-10.575
X56.725Y-13.115
X56.725Y-15.655
X56.725Y-18.195
X56.725Y-20.735
X56.725Y-23.275
X56.725Y-25.815
X56.725Y-28.355
X56.725Y-30.895
X56.725Y-33.435
X59.265Y-10.575
X59.265Y-13.115
X59.265Y-15.655
X59.265Y-18.195
X59.265Y-20.735
X59.265Y-23.275
X59.265Y-25.815
X59.265Y-28.355
X59.265Y-30.895
X59.265Y-33.435
T7
X26.75Y-4.5
X31.25Y-4.5
X38.75Y-4.5
X43.25Y-4.5
T8
X5.0Y-5.0
X5.0Y-65.0
X65.0Y-5.0
X65.0Y-65.0
T4
G00X1.75Y-35.18
M15
G01X1.15Y-35.18
M16
G05
G00X1.75Y-43.82
M15
G01X1.15Y-43.82
M16
G05
G00X6.18Y-35.18
M15
G01X5.08Y-35.18
M16
G05
G00X6.18Y-43.82
M15
G01X5.08Y-43.82
M16
G05
T0
M30
