%TF.GenerationSoftware,KiCad,Pcbnew,(7.0.0-93-gc189053ee5-dirty)*%
%TF.CreationDate,2023-02-21T15:15:17-08:00*%
%TF.ProjectId,ai-camera,61692d63-616d-4657-9261-2e6b69636164,rev1*%
%TF.SameCoordinates,PX5a995c0PY2aea540*%
%TF.FileFunction,Paste,Bot*%
%TF.FilePolarity,Positive*%
%FSLAX46Y46*%
G04 Gerber Fmt 4.6, Leading zero omitted, Abs format (unit mm)*
G04 Created by KiCad (PCBNEW (7.0.0-93-gc189053ee5-dirty)) date 2023-02-21 15:15:17*
%MOMM*%
%LPD*%
G01*
G04 APERTURE LIST*
G04 Aperture macros list*
%AMRoundRect*
0 Rectangle with rounded corners*
0 $1 Rounding radius*
0 $2 $3 $4 $5 $6 $7 $8 $9 X,Y pos of 4 corners*
0 Add a 4 corners polygon primitive as box body*
4,1,4,$2,$3,$4,$5,$6,$7,$8,$9,$2,$3,0*
0 Add four circle primitives for the rounded corners*
1,1,$1+$1,$2,$3*
1,1,$1+$1,$4,$5*
1,1,$1+$1,$6,$7*
1,1,$1+$1,$8,$9*
0 Add four rect primitives between the rounded corners*
20,1,$1+$1,$2,$3,$4,$5,0*
20,1,$1+$1,$4,$5,$6,$7,0*
20,1,$1+$1,$6,$7,$8,$9,0*
20,1,$1+$1,$8,$9,$2,$3,0*%
G04 Aperture macros list end*
%ADD10RoundRect,0.150000X-0.587500X-0.150000X0.587500X-0.150000X0.587500X0.150000X-0.587500X0.150000X0*%
%ADD11RoundRect,0.250000X0.412500X0.925000X-0.412500X0.925000X-0.412500X-0.925000X0.412500X-0.925000X0*%
%ADD12RoundRect,0.135000X0.135000X0.185000X-0.135000X0.185000X-0.135000X-0.185000X0.135000X-0.185000X0*%
%ADD13RoundRect,0.140000X0.170000X-0.140000X0.170000X0.140000X-0.170000X0.140000X-0.170000X-0.140000X0*%
%ADD14R,0.900000X0.900000*%
%ADD15R,0.900000X1.500000*%
%ADD16R,1.500000X0.900000*%
%ADD17RoundRect,0.140000X-0.170000X0.140000X-0.170000X-0.140000X0.170000X-0.140000X0.170000X0.140000X0*%
%ADD18RoundRect,0.225000X-0.250000X0.225000X-0.250000X-0.225000X0.250000X-0.225000X0.250000X0.225000X0*%
%ADD19RoundRect,0.135000X-0.135000X-0.185000X0.135000X-0.185000X0.135000X0.185000X-0.135000X0.185000X0*%
%ADD20RoundRect,0.140000X-0.140000X-0.170000X0.140000X-0.170000X0.140000X0.170000X-0.140000X0.170000X0*%
%ADD21RoundRect,0.150000X0.587500X0.150000X-0.587500X0.150000X-0.587500X-0.150000X0.587500X-0.150000X0*%
%ADD22RoundRect,0.140000X0.140000X0.170000X-0.140000X0.170000X-0.140000X-0.170000X0.140000X-0.170000X0*%
%ADD23RoundRect,0.150000X-0.150000X0.587500X-0.150000X-0.587500X0.150000X-0.587500X0.150000X0.587500X0*%
%ADD24RoundRect,0.225000X0.250000X-0.225000X0.250000X0.225000X-0.250000X0.225000X-0.250000X-0.225000X0*%
%ADD25RoundRect,0.135000X0.185000X-0.135000X0.185000X0.135000X-0.185000X0.135000X-0.185000X-0.135000X0*%
%ADD26RoundRect,0.150000X0.512500X0.150000X-0.512500X0.150000X-0.512500X-0.150000X0.512500X-0.150000X0*%
%ADD27RoundRect,0.135000X-0.185000X0.135000X-0.185000X-0.135000X0.185000X-0.135000X0.185000X0.135000X0*%
%ADD28RoundRect,0.225000X-0.225000X-0.250000X0.225000X-0.250000X0.225000X0.250000X-0.225000X0.250000X0*%
%ADD29RoundRect,0.150000X0.150000X-0.512500X0.150000X0.512500X-0.150000X0.512500X-0.150000X-0.512500X0*%
%ADD30RoundRect,0.250000X0.450000X-0.325000X0.450000X0.325000X-0.450000X0.325000X-0.450000X-0.325000X0*%
G04 APERTURE END LIST*
D10*
X20302500Y-13810000D03*
X20302500Y-11910000D03*
X22177500Y-12860000D03*
D11*
X59375000Y-62637500D03*
X56300000Y-62637500D03*
D12*
X15430000Y-28870000D03*
X14410000Y-28870000D03*
D13*
X60760000Y-35390000D03*
X60760000Y-34430000D03*
D14*
X52859999Y-48629999D03*
X54259999Y-48629999D03*
X55659999Y-48629999D03*
X52859999Y-47229999D03*
X54259999Y-47229999D03*
X55659999Y-47229999D03*
X52859999Y-45829999D03*
X54259999Y-45829999D03*
X55659999Y-45829999D03*
D15*
X61979999Y-54479999D03*
X60709999Y-54479999D03*
X59439999Y-54479999D03*
X58169999Y-54479999D03*
X56899999Y-54479999D03*
X55629999Y-54479999D03*
X54359999Y-54479999D03*
X53089999Y-54479999D03*
X51819999Y-54479999D03*
X50549999Y-54479999D03*
X49279999Y-54479999D03*
X48009999Y-54479999D03*
X46739999Y-54479999D03*
X45469999Y-54479999D03*
D16*
X44219999Y-52714999D03*
X44219999Y-51444999D03*
X44219999Y-50174999D03*
X44219999Y-48904999D03*
X44219999Y-47634999D03*
X44219999Y-46364999D03*
X44219999Y-45094999D03*
X44219999Y-43824999D03*
X44219999Y-42554999D03*
X44219999Y-41284999D03*
X44219999Y-40014999D03*
X44219999Y-38744999D03*
D15*
X45469999Y-36979999D03*
X46739999Y-36979999D03*
X48009999Y-36979999D03*
X49279999Y-36979999D03*
X50549999Y-36979999D03*
X51819999Y-36979999D03*
X53089999Y-36979999D03*
X54359999Y-36979999D03*
X55629999Y-36979999D03*
X56899999Y-36979999D03*
X58169999Y-36979999D03*
X59439999Y-36979999D03*
X60709999Y-36979999D03*
X61979999Y-36979999D03*
D17*
X20325000Y-24965000D03*
X20325000Y-25925000D03*
D18*
X17685000Y-17950000D03*
X17685000Y-19500000D03*
D13*
X37236400Y-42418000D03*
X37236400Y-41458000D03*
D19*
X17135000Y-25045000D03*
X18155000Y-25045000D03*
D18*
X10030000Y-18165000D03*
X10030000Y-19715000D03*
X20375000Y-17925000D03*
X20375000Y-19475000D03*
D20*
X60895000Y-56975000D03*
X61855000Y-56975000D03*
D21*
X15837500Y-39210000D03*
X15837500Y-41110000D03*
X13962500Y-40160000D03*
D22*
X6650000Y-13440000D03*
X5690000Y-13440000D03*
D18*
X29413200Y-44646900D03*
X29413200Y-46196900D03*
D17*
X8500000Y-10450000D03*
X8500000Y-11410000D03*
D11*
X59387500Y-66050000D03*
X56312500Y-66050000D03*
D23*
X30990200Y-44934900D03*
X32890200Y-44934900D03*
X31940200Y-46809900D03*
D22*
X46300000Y-35440000D03*
X45340000Y-35440000D03*
D24*
X20726400Y-46173800D03*
X20726400Y-44623800D03*
D25*
X13730000Y-9470000D03*
X13730000Y-8450000D03*
D19*
X19740000Y-10570000D03*
X20760000Y-10570000D03*
D17*
X19015000Y-18795000D03*
X19015000Y-19755000D03*
D10*
X6342500Y-20130000D03*
X6342500Y-18230000D03*
X8217500Y-19180000D03*
D20*
X60895000Y-55975000D03*
X61855000Y-55975000D03*
D21*
X6087500Y-14760000D03*
X6087500Y-16660000D03*
X4212500Y-15710000D03*
D26*
X12247500Y-9200000D03*
X12247500Y-10150000D03*
X12247500Y-11100000D03*
X9972500Y-11100000D03*
X9972500Y-10150000D03*
X9972500Y-9200000D03*
D27*
X13730000Y-10400000D03*
X13730000Y-11420000D03*
D18*
X24282400Y-44623800D03*
X24282400Y-46173800D03*
D19*
X17310000Y-36460000D03*
X18330000Y-36460000D03*
X3680000Y-13430000D03*
X4700000Y-13430000D03*
D12*
X18330000Y-35450000D03*
X17310000Y-35450000D03*
D28*
X61175000Y-59825000D03*
X62725000Y-59825000D03*
X30911200Y-48666400D03*
X32461200Y-48666400D03*
D18*
X4540000Y-18225000D03*
X4540000Y-19775000D03*
D17*
X54102000Y-34346000D03*
X54102000Y-35306000D03*
D28*
X61175000Y-58275000D03*
X62725000Y-58275000D03*
X25939200Y-48675400D03*
X27489200Y-48675400D03*
D17*
X19305000Y-24975000D03*
X19305000Y-25935000D03*
D11*
X59362500Y-59250000D03*
X56287500Y-59250000D03*
D29*
X20020000Y-23527500D03*
X19070000Y-23527500D03*
X18120000Y-23527500D03*
X18120000Y-21252500D03*
X19070000Y-21252500D03*
X20020000Y-21252500D03*
D30*
X22504400Y-46795800D03*
X22504400Y-44745800D03*
D18*
X34512200Y-44637900D03*
X34512200Y-46187900D03*
D12*
X24740000Y-15150000D03*
X23720000Y-15150000D03*
D18*
X17680000Y-39185000D03*
X17680000Y-40735000D03*
X36068000Y-44640200D03*
X36068000Y-46190200D03*
D23*
X25923200Y-44934900D03*
X27823200Y-44934900D03*
X26873200Y-46809900D03*
D10*
X24272500Y-13800000D03*
X24272500Y-11900000D03*
X26147500Y-12850000D03*
D19*
X14410000Y-29880000D03*
X15430000Y-29880000D03*
D21*
X15837500Y-35700000D03*
X15837500Y-37600000D03*
X13962500Y-36650000D03*
M02*
