%TF.GenerationSoftware,KiCad,Pcbnew,(7.0.0-93-gc189053ee5-dirty)*%
%TF.CreationDate,2023-02-21T15:15:17-08:00*%
%TF.ProjectId,ai-camera,61692d63-616d-4657-9261-2e6b69636164,rev1*%
%TF.SameCoordinates,PX5a995c0PY2aea540*%
%TF.FileFunction,Soldermask,Top*%
%TF.FilePolarity,Negative*%
%FSLAX46Y46*%
G04 Gerber Fmt 4.6, Leading zero omitted, Abs format (unit mm)*
G04 Created by KiCad (PCBNEW (7.0.0-93-gc189053ee5-dirty)) date 2023-02-21 15:15:17*
%MOMM*%
%LPD*%
G01*
G04 APERTURE LIST*
G04 Aperture macros list*
%AMRoundRect*
0 Rectangle with rounded corners*
0 $1 Rounding radius*
0 $2 $3 $4 $5 $6 $7 $8 $9 X,Y pos of 4 corners*
0 Add a 4 corners polygon primitive as box body*
4,1,4,$2,$3,$4,$5,$6,$7,$8,$9,$2,$3,0*
0 Add four circle primitives for the rounded corners*
1,1,$1+$1,$2,$3*
1,1,$1+$1,$4,$5*
1,1,$1+$1,$6,$7*
1,1,$1+$1,$8,$9*
0 Add four rect primitives between the rounded corners*
20,1,$1+$1,$2,$3,$4,$5,0*
20,1,$1+$1,$4,$5,$6,$7,0*
20,1,$1+$1,$6,$7,$8,$9,0*
20,1,$1+$1,$8,$9,$2,$3,0*%
%AMRotRect*
0 Rectangle, with rotation*
0 The origin of the aperture is its center*
0 $1 length*
0 $2 width*
0 $3 Rotation angle, in degrees counterclockwise*
0 Add horizontal line*
21,1,$1,$2,0,0,$3*%
%AMFreePoly0*
4,1,19,0.500000,-0.750000,0.000000,-0.750000,0.000000,-0.744911,-0.071157,-0.744911,-0.207708,-0.704816,-0.327430,-0.627875,-0.420627,-0.520320,-0.479746,-0.390866,-0.500000,-0.250000,-0.500000,0.250000,-0.479746,0.390866,-0.420627,0.520320,-0.327430,0.627875,-0.207708,0.704816,-0.071157,0.744911,0.000000,0.744911,0.000000,0.750000,0.500000,0.750000,0.500000,-0.750000,0.500000,-0.750000,
$1*%
%AMFreePoly1*
4,1,19,0.000000,0.744911,0.071157,0.744911,0.207708,0.704816,0.327430,0.627875,0.420627,0.520320,0.479746,0.390866,0.500000,0.250000,0.500000,-0.250000,0.479746,-0.390866,0.420627,-0.520320,0.327430,-0.627875,0.207708,-0.704816,0.071157,-0.744911,0.000000,-0.744911,0.000000,-0.750000,-0.500000,-0.750000,-0.500000,0.750000,0.000000,0.750000,0.000000,0.744911,0.000000,0.744911,
$1*%
G04 Aperture macros list end*
%ADD10R,1.800000X1.000000*%
%ADD11C,0.650000*%
%ADD12R,1.450000X0.600000*%
%ADD13R,1.450000X0.300000*%
%ADD14O,2.100000X1.000000*%
%ADD15O,1.600000X1.000000*%
%ADD16RoundRect,0.225000X-0.225000X-0.250000X0.225000X-0.250000X0.225000X0.250000X-0.225000X0.250000X0*%
%ADD17RoundRect,0.075000X0.250000X0.075000X-0.250000X0.075000X-0.250000X-0.075000X0.250000X-0.075000X0*%
%ADD18C,3.600000*%
%ADD19C,5.600000*%
%ADD20RoundRect,0.150000X-0.725000X-0.150000X0.725000X-0.150000X0.725000X0.150000X-0.725000X0.150000X0*%
%ADD21R,3.700000X1.100000*%
%ADD22RoundRect,0.225000X-0.250000X0.225000X-0.250000X-0.225000X0.250000X-0.225000X0.250000X0.225000X0*%
%ADD23RoundRect,0.200000X0.275000X-0.200000X0.275000X0.200000X-0.275000X0.200000X-0.275000X-0.200000X0*%
%ADD24C,4.000000*%
%ADD25RoundRect,0.140000X-0.140000X-0.170000X0.140000X-0.170000X0.140000X0.170000X-0.140000X0.170000X0*%
%ADD26RoundRect,0.135000X0.135000X0.185000X-0.135000X0.185000X-0.135000X-0.185000X0.135000X-0.185000X0*%
%ADD27RoundRect,0.150000X-0.150000X-0.200000X0.150000X-0.200000X0.150000X0.200000X-0.150000X0.200000X0*%
%ADD28R,1.000000X1.700000*%
%ADD29RoundRect,0.250000X-0.325000X-0.450000X0.325000X-0.450000X0.325000X0.450000X-0.325000X0.450000X0*%
%ADD30RoundRect,0.140000X-0.170000X0.140000X-0.170000X-0.140000X0.170000X-0.140000X0.170000X0.140000X0*%
%ADD31RoundRect,0.218750X0.256250X-0.218750X0.256250X0.218750X-0.256250X0.218750X-0.256250X-0.218750X0*%
%ADD32RoundRect,0.135000X-0.135000X-0.185000X0.135000X-0.185000X0.135000X0.185000X-0.135000X0.185000X0*%
%ADD33RoundRect,0.218750X-0.218750X-0.256250X0.218750X-0.256250X0.218750X0.256250X-0.218750X0.256250X0*%
%ADD34RoundRect,0.250000X0.412500X0.925000X-0.412500X0.925000X-0.412500X-0.925000X0.412500X-0.925000X0*%
%ADD35RoundRect,0.140000X0.170000X-0.140000X0.170000X0.140000X-0.170000X0.140000X-0.170000X-0.140000X0*%
%ADD36C,1.700000*%
%ADD37RoundRect,0.135000X-0.185000X0.135000X-0.185000X-0.135000X0.185000X-0.135000X0.185000X0.135000X0*%
%ADD38RoundRect,0.250000X-1.500000X0.250000X-1.500000X-0.250000X1.500000X-0.250000X1.500000X0.250000X0*%
%ADD39RoundRect,0.250001X-1.449999X0.499999X-1.449999X-0.499999X1.449999X-0.499999X1.449999X0.499999X0*%
%ADD40RoundRect,0.250000X0.325000X0.450000X-0.325000X0.450000X-0.325000X-0.450000X0.325000X-0.450000X0*%
%ADD41FreePoly0,180.000000*%
%ADD42FreePoly1,180.000000*%
%ADD43RoundRect,0.150000X0.512500X0.150000X-0.512500X0.150000X-0.512500X-0.150000X0.512500X-0.150000X0*%
%ADD44R,0.300000X1.300000*%
%ADD45R,1.600000X2.000000*%
%ADD46RoundRect,0.150000X0.587500X0.150000X-0.587500X0.150000X-0.587500X-0.150000X0.587500X-0.150000X0*%
%ADD47RoundRect,0.135000X0.185000X-0.135000X0.185000X0.135000X-0.185000X0.135000X-0.185000X-0.135000X0*%
%ADD48RoundRect,0.150000X-0.200000X0.150000X-0.200000X-0.150000X0.200000X-0.150000X0.200000X0.150000X0*%
%ADD49RoundRect,0.225000X0.225000X0.375000X-0.225000X0.375000X-0.225000X-0.375000X0.225000X-0.375000X0*%
%ADD50C,0.800000*%
%ADD51RoundRect,0.225000X0.250000X-0.225000X0.250000X0.225000X-0.250000X0.225000X-0.250000X-0.225000X0*%
%ADD52RotRect,1.524000X1.524000X45.000000*%
%ADD53C,1.524000*%
%ADD54RoundRect,0.150000X0.150000X-0.512500X0.150000X0.512500X-0.150000X0.512500X-0.150000X-0.512500X0*%
%ADD55R,1.700000X1.700000*%
%ADD56O,1.700000X1.700000*%
%ADD57RoundRect,0.225000X-0.225000X-0.375000X0.225000X-0.375000X0.225000X0.375000X-0.225000X0.375000X0*%
%ADD58RoundRect,0.225000X0.225000X0.250000X-0.225000X0.250000X-0.225000X-0.250000X0.225000X-0.250000X0*%
%ADD59RoundRect,0.150000X-0.587500X-0.150000X0.587500X-0.150000X0.587500X0.150000X-0.587500X0.150000X0*%
%ADD60RoundRect,0.250000X0.450000X-0.262500X0.450000X0.262500X-0.450000X0.262500X-0.450000X-0.262500X0*%
%ADD61C,0.990600*%
%ADD62C,0.787400*%
%ADD63C,0.600000*%
G04 APERTURE END LIST*
D10*
X36219999Y-65429999D03*
X36219999Y-62929999D03*
D11*
X5100000Y-36610000D03*
X5100000Y-42390000D03*
D12*
X6544999Y-36249999D03*
X6544999Y-37049999D03*
D13*
X6544999Y-38249999D03*
X6544999Y-39249999D03*
X6544999Y-39749999D03*
X6544999Y-40749999D03*
D12*
X6544999Y-41949999D03*
X6544999Y-42749999D03*
X6544999Y-42749999D03*
X6544999Y-41949999D03*
D13*
X6544999Y-41249999D03*
X6544999Y-40249999D03*
X6544999Y-38749999D03*
X6544999Y-37749999D03*
D12*
X6544999Y-37049999D03*
X6544999Y-36249999D03*
D14*
X5629999Y-35179999D03*
D15*
X1449999Y-35179999D03*
D14*
X5629999Y-43819999D03*
D15*
X1449999Y-43819999D03*
D16*
X10950000Y-47000000D03*
X12500000Y-47000000D03*
D17*
X50900000Y-16650000D03*
X50900000Y-16000000D03*
X50900000Y-15350000D03*
X49100000Y-15350000D03*
X49100000Y-16000000D03*
X49100000Y-16650000D03*
D18*
X5000000Y-65000000D03*
D19*
X5000000Y-65000000D03*
D20*
X38605000Y-62995000D03*
X38605000Y-64265000D03*
X38605000Y-65535000D03*
X38605000Y-66805000D03*
X43755000Y-66805000D03*
X43755000Y-65535000D03*
X43755000Y-64265000D03*
X43755000Y-62995000D03*
D18*
X5000000Y-5000000D03*
D19*
X5000000Y-5000000D03*
D21*
X21999999Y-63249999D03*
X21999999Y-66249999D03*
D22*
X25937500Y-57412499D03*
X25937500Y-58962499D03*
D23*
X5100000Y-33325000D03*
X5100000Y-31675000D03*
D24*
X24000000Y-22000000D03*
X46000000Y-22000000D03*
D25*
X43040000Y-61620000D03*
X44000000Y-61620000D03*
D26*
X14260000Y-66020000D03*
X13240000Y-66020000D03*
D23*
X3500000Y-33325000D03*
X3500000Y-31675000D03*
D26*
X16200000Y-62530000D03*
X15180000Y-62530000D03*
D27*
X10007500Y-37970000D03*
X8607500Y-37970000D03*
D28*
X66899999Y-20849999D03*
X66899999Y-27149999D03*
X63099999Y-20849999D03*
X63099999Y-27149999D03*
D29*
X8975000Y-35930000D03*
X11025000Y-35930000D03*
D30*
X12450000Y-24905000D03*
X12450000Y-25865000D03*
D31*
X60000000Y-42787500D03*
X60000000Y-41212500D03*
D32*
X63250000Y-28890000D03*
X64270000Y-28890000D03*
D33*
X13248987Y-45459099D03*
X14823987Y-45459099D03*
X19212500Y-36000000D03*
X20787500Y-36000000D03*
D32*
X14040000Y-46750000D03*
X15060000Y-46750000D03*
D34*
X16075000Y-59000000D03*
X13000000Y-59000000D03*
D32*
X37910000Y-61620000D03*
X38930000Y-61620000D03*
D35*
X34798000Y-45311000D03*
X34798000Y-44351000D03*
D32*
X53420000Y-24330000D03*
X54440000Y-24330000D03*
D36*
X44600000Y-7000000D03*
X37400000Y-7000000D03*
X43250000Y-4500000D03*
X38750000Y-4500000D03*
D34*
X23212500Y-56250000D03*
X20137500Y-56250000D03*
D21*
X4849999Y-29489999D03*
X4849999Y-26489999D03*
D33*
X19212500Y-12000000D03*
X20787500Y-12000000D03*
D16*
X26605000Y-53900000D03*
X28155000Y-53900000D03*
D37*
X13920000Y-34750000D03*
X13920000Y-35770000D03*
D38*
X14850000Y-51500000D03*
X14850000Y-53500000D03*
D39*
X9100000Y-49150000D03*
X9100000Y-55850000D03*
D40*
X28075000Y-55670000D03*
X26025000Y-55670000D03*
D33*
X49212500Y-34000000D03*
X50787500Y-34000000D03*
D25*
X19250000Y-58550000D03*
X20210000Y-58550000D03*
D41*
X16770000Y-32740000D03*
D42*
X15470000Y-32740000D03*
D33*
X19212500Y-34000000D03*
X20787500Y-34000000D03*
D37*
X18270000Y-57570000D03*
X18270000Y-58590000D03*
D22*
X8910000Y-28025000D03*
X8910000Y-29575000D03*
D33*
X13261486Y-43859099D03*
X14836486Y-43859099D03*
D37*
X18260000Y-59500000D03*
X18260000Y-60520000D03*
D30*
X17200000Y-68260000D03*
X17200000Y-67300000D03*
D43*
X6247500Y-24820000D03*
X6247500Y-23870000D03*
X6247500Y-22920000D03*
X3972500Y-22920000D03*
X3972500Y-23870000D03*
X3972500Y-24820000D03*
D44*
X40749999Y-42599999D03*
X40249999Y-42599999D03*
X39749999Y-42599999D03*
X39249999Y-42599999D03*
X38749999Y-42599999D03*
X38249999Y-42599999D03*
X37749999Y-42599999D03*
X37249999Y-42599999D03*
X36749999Y-42599999D03*
X36249999Y-42599999D03*
X35749999Y-42599999D03*
X35249999Y-42599999D03*
X34749999Y-42599999D03*
X34249999Y-42599999D03*
X33749999Y-42599999D03*
X33249999Y-42599999D03*
X32749999Y-42599999D03*
X32249999Y-42599999D03*
X31749999Y-42599999D03*
X31249999Y-42599999D03*
X30749999Y-42599999D03*
X30249999Y-42599999D03*
X29749999Y-42599999D03*
X29249999Y-42599999D03*
D45*
X42399999Y-40119999D03*
X27599999Y-40119999D03*
D33*
X49212500Y-10000000D03*
X50787500Y-10000000D03*
D46*
X47927500Y-63290000D03*
X47927500Y-61390000D03*
X46052500Y-62340000D03*
D47*
X16200000Y-67290000D03*
X16200000Y-68310000D03*
D48*
X12630000Y-36270000D03*
X12630000Y-34870000D03*
D33*
X19212500Y-10000000D03*
X20787500Y-10000000D03*
D36*
X32600000Y-7000000D03*
X25400000Y-7000000D03*
X31250000Y-4500000D03*
X26750000Y-4500000D03*
D28*
X66899999Y-11849999D03*
X66899999Y-18149999D03*
X63099999Y-11849999D03*
X63099999Y-18149999D03*
D49*
X11220000Y-25600000D03*
X7920000Y-25600000D03*
D16*
X9655000Y-23640000D03*
X11205000Y-23640000D03*
D50*
X21500000Y-16625000D03*
X21500000Y-15375000D03*
D32*
X3480000Y-21620000D03*
X4500000Y-21620000D03*
D33*
X49212500Y-12000000D03*
X50787500Y-12000000D03*
D32*
X53410000Y-27010000D03*
X54430000Y-27010000D03*
D51*
X59410000Y-57175000D03*
X59410000Y-55625000D03*
D22*
X29012499Y-61012499D03*
X29012499Y-62562499D03*
D52*
X8459999Y-13499999D03*
D53*
X11000000Y-16040000D03*
X13540000Y-13500000D03*
D22*
X25937500Y-61012500D03*
X25937500Y-62562500D03*
D27*
X10007500Y-40030000D03*
X8607500Y-40030000D03*
D54*
X21462500Y-61200000D03*
X22412500Y-61200000D03*
X23362500Y-61200000D03*
X23362500Y-58925000D03*
X21462500Y-58925000D03*
D30*
X24662500Y-60732500D03*
X24662500Y-61692500D03*
D47*
X7725000Y-46710000D03*
X7725000Y-45690000D03*
D22*
X27462499Y-61012499D03*
X27462499Y-62562499D03*
D33*
X49212500Y-36000000D03*
X50787500Y-36000000D03*
D18*
X65000000Y-5000000D03*
D19*
X65000000Y-5000000D03*
D51*
X27462500Y-58962500D03*
X27462500Y-57412500D03*
D32*
X37920000Y-60590000D03*
X38940000Y-60590000D03*
D55*
X56724999Y-10574999D03*
D56*
X59264999Y-10574999D03*
X56724999Y-13114999D03*
X59264999Y-13114999D03*
X56724999Y-15654999D03*
X59264999Y-15654999D03*
X56724999Y-18194999D03*
X59264999Y-18194999D03*
X56724999Y-20734999D03*
X59264999Y-20734999D03*
X56724999Y-23274999D03*
X59264999Y-23274999D03*
X56724999Y-25814999D03*
X59264999Y-25814999D03*
X56724999Y-28354999D03*
X59264999Y-28354999D03*
X56724999Y-30894999D03*
X59264999Y-30894999D03*
X56724999Y-33434999D03*
X59264999Y-33434999D03*
D16*
X9650000Y-22090000D03*
X11200000Y-22090000D03*
D35*
X33782000Y-45311000D03*
X33782000Y-44351000D03*
D37*
X57830000Y-39940000D03*
X57830000Y-40960000D03*
D25*
X51990000Y-16770000D03*
X52950000Y-16770000D03*
D33*
X50212500Y-22000000D03*
X51787500Y-22000000D03*
D57*
X7790000Y-32530000D03*
X11090000Y-32530000D03*
D32*
X13013986Y-42409099D03*
X14033986Y-42409099D03*
D58*
X10550000Y-41975000D03*
X9000000Y-41975000D03*
D32*
X8715000Y-46750000D03*
X9735000Y-46750000D03*
D33*
X18212500Y-22000000D03*
X19787500Y-22000000D03*
D59*
X54380000Y-40300000D03*
X54380000Y-42200000D03*
X56255000Y-41250000D03*
D18*
X65000000Y-65000000D03*
D19*
X65000000Y-65000000D03*
D51*
X10490000Y-29580000D03*
X10490000Y-28030000D03*
D26*
X52830000Y-42470000D03*
X51810000Y-42470000D03*
D35*
X24687500Y-59247500D03*
X24687500Y-58287500D03*
D59*
X11832500Y-62790000D03*
X11832500Y-64690000D03*
X13707500Y-63740000D03*
D32*
X63250000Y-29900000D03*
X64270000Y-29900000D03*
D35*
X30607000Y-45311000D03*
X30607000Y-44351000D03*
D46*
X47917500Y-66800000D03*
X47917500Y-64900000D03*
X46042500Y-65850000D03*
D22*
X30562499Y-61012499D03*
X30562499Y-62562499D03*
D43*
X11475000Y-45449999D03*
X11475000Y-44499999D03*
X11475000Y-43549999D03*
X9200000Y-43549999D03*
X9200000Y-44499999D03*
X9200000Y-45449999D03*
D60*
X19440000Y-31332500D03*
X19440000Y-29507500D03*
D34*
X23212500Y-52875001D03*
X20137500Y-52875001D03*
D61*
X51190000Y-5635000D03*
X58810000Y-4619000D03*
X58810000Y-6651000D03*
D62*
X52460000Y-6270000D03*
X53730000Y-6270000D03*
X55000000Y-6270000D03*
X56270000Y-6270000D03*
X57540000Y-6270000D03*
X57540000Y-5000000D03*
X56270000Y-5000000D03*
X55000000Y-5000000D03*
X53730000Y-5000000D03*
X52460000Y-5000000D03*
D30*
X7630000Y-28890000D03*
X7630000Y-29850000D03*
D58*
X14245000Y-23630000D03*
X12695000Y-23630000D03*
D63*
X53560000Y-48630000D03*
X54960000Y-48630000D03*
X52860000Y-47930000D03*
X54260000Y-47930000D03*
X55660000Y-47930000D03*
X53560000Y-47230000D03*
X54960000Y-47230000D03*
X52860000Y-46530000D03*
X54260000Y-46530000D03*
X55660000Y-46530000D03*
X53560000Y-45830000D03*
X54960000Y-45830000D03*
M02*
