%TF.GenerationSoftware,KiCad,Pcbnew,7.0.9*%
%TF.CreationDate,2024-01-10T01:47:21-08:00*%
%TF.ProjectId,ai-camera-rev3.1,61692d63-616d-4657-9261-2d726576332e,rev3.1*%
%TF.SameCoordinates,PX5a995c0PY2aea540*%
%TF.FileFunction,Copper,L4,Bot*%
%TF.FilePolarity,Positive*%
%FSLAX46Y46*%
G04 Gerber Fmt 4.6, Leading zero omitted, Abs format (unit mm)*
G04 Created by KiCad (PCBNEW 7.0.9) date 2024-01-10 01:47:21*
%MOMM*%
%LPD*%
G01*
G04 APERTURE LIST*
G04 Aperture macros list*
%AMRoundRect*
0 Rectangle with rounded corners*
0 $1 Rounding radius*
0 $2 $3 $4 $5 $6 $7 $8 $9 X,Y pos of 4 corners*
0 Add a 4 corners polygon primitive as box body*
4,1,4,$2,$3,$4,$5,$6,$7,$8,$9,$2,$3,0*
0 Add four circle primitives for the rounded corners*
1,1,$1+$1,$2,$3*
1,1,$1+$1,$4,$5*
1,1,$1+$1,$6,$7*
1,1,$1+$1,$8,$9*
0 Add four rect primitives between the rounded corners*
20,1,$1+$1,$2,$3,$4,$5,0*
20,1,$1+$1,$4,$5,$6,$7,0*
20,1,$1+$1,$6,$7,$8,$9,0*
20,1,$1+$1,$8,$9,$2,$3,0*%
%AMRotRect*
0 Rectangle, with rotation*
0 The origin of the aperture is its center*
0 $1 length*
0 $2 width*
0 $3 Rotation angle, in degrees counterclockwise*
0 Add horizontal line*
21,1,$1,$2,0,0,$3*%
G04 Aperture macros list end*
%TA.AperFunction,ComponentPad*%
%ADD10C,3.600000*%
%TD*%
%TA.AperFunction,ConnectorPad*%
%ADD11C,6.400000*%
%TD*%
%TA.AperFunction,WasherPad*%
%ADD12C,4.000000*%
%TD*%
%TA.AperFunction,WasherPad*%
%ADD13C,1.700000*%
%TD*%
%TA.AperFunction,ComponentPad*%
%ADD14C,1.700000*%
%TD*%
%TA.AperFunction,ComponentPad*%
%ADD15C,0.800000*%
%TD*%
%TA.AperFunction,ComponentPad*%
%ADD16RotRect,1.524000X1.524000X45.000000*%
%TD*%
%TA.AperFunction,ComponentPad*%
%ADD17C,1.524000*%
%TD*%
%TA.AperFunction,ComponentPad*%
%ADD18R,1.700000X1.700000*%
%TD*%
%TA.AperFunction,ComponentPad*%
%ADD19O,1.700000X1.700000*%
%TD*%
%TA.AperFunction,ComponentPad*%
%ADD20O,2.100000X1.000000*%
%TD*%
%TA.AperFunction,ComponentPad*%
%ADD21O,1.600000X1.000000*%
%TD*%
%TA.AperFunction,SMDPad,CuDef*%
%ADD22RoundRect,0.150000X-0.587500X-0.150000X0.587500X-0.150000X0.587500X0.150000X-0.587500X0.150000X0*%
%TD*%
%TA.AperFunction,SMDPad,CuDef*%
%ADD23RoundRect,0.250000X0.412500X0.925000X-0.412500X0.925000X-0.412500X-0.925000X0.412500X-0.925000X0*%
%TD*%
%TA.AperFunction,SMDPad,CuDef*%
%ADD24C,1.000000*%
%TD*%
%TA.AperFunction,SMDPad,CuDef*%
%ADD25RoundRect,0.135000X0.135000X0.185000X-0.135000X0.185000X-0.135000X-0.185000X0.135000X-0.185000X0*%
%TD*%
%TA.AperFunction,SMDPad,CuDef*%
%ADD26RoundRect,0.140000X0.170000X-0.140000X0.170000X0.140000X-0.170000X0.140000X-0.170000X-0.140000X0*%
%TD*%
%TA.AperFunction,SMDPad,CuDef*%
%ADD27R,0.900000X1.500000*%
%TD*%
%TA.AperFunction,SMDPad,CuDef*%
%ADD28R,1.500000X0.900000*%
%TD*%
%TA.AperFunction,SMDPad,CuDef*%
%ADD29R,3.900000X3.900000*%
%TD*%
%TA.AperFunction,SMDPad,CuDef*%
%ADD30RoundRect,0.135000X-0.185000X0.135000X-0.185000X-0.135000X0.185000X-0.135000X0.185000X0.135000X0*%
%TD*%
%TA.AperFunction,SMDPad,CuDef*%
%ADD31RoundRect,0.140000X-0.140000X-0.170000X0.140000X-0.170000X0.140000X0.170000X-0.140000X0.170000X0*%
%TD*%
%TA.AperFunction,SMDPad,CuDef*%
%ADD32RoundRect,0.150000X0.587500X0.150000X-0.587500X0.150000X-0.587500X-0.150000X0.587500X-0.150000X0*%
%TD*%
%TA.AperFunction,SMDPad,CuDef*%
%ADD33RoundRect,0.140000X-0.170000X0.140000X-0.170000X-0.140000X0.170000X-0.140000X0.170000X0.140000X0*%
%TD*%
%TA.AperFunction,SMDPad,CuDef*%
%ADD34RoundRect,0.140000X0.140000X0.170000X-0.140000X0.170000X-0.140000X-0.170000X0.140000X-0.170000X0*%
%TD*%
%TA.AperFunction,SMDPad,CuDef*%
%ADD35RoundRect,0.150000X-0.150000X0.587500X-0.150000X-0.587500X0.150000X-0.587500X0.150000X0.587500X0*%
%TD*%
%TA.AperFunction,SMDPad,CuDef*%
%ADD36RoundRect,0.135000X-0.135000X-0.185000X0.135000X-0.185000X0.135000X0.185000X-0.135000X0.185000X0*%
%TD*%
%TA.AperFunction,SMDPad,CuDef*%
%ADD37R,1.000000X1.500000*%
%TD*%
%TA.AperFunction,SMDPad,CuDef*%
%ADD38RoundRect,0.150000X0.512500X0.150000X-0.512500X0.150000X-0.512500X-0.150000X0.512500X-0.150000X0*%
%TD*%
%TA.AperFunction,SMDPad,CuDef*%
%ADD39RoundRect,0.135000X0.185000X-0.135000X0.185000X0.135000X-0.185000X0.135000X-0.185000X-0.135000X0*%
%TD*%
%TA.AperFunction,SMDPad,CuDef*%
%ADD40RoundRect,0.150000X-0.150000X0.512500X-0.150000X-0.512500X0.150000X-0.512500X0.150000X0.512500X0*%
%TD*%
%TA.AperFunction,SMDPad,CuDef*%
%ADD41RoundRect,0.250000X0.450000X-0.325000X0.450000X0.325000X-0.450000X0.325000X-0.450000X-0.325000X0*%
%TD*%
%TA.AperFunction,ViaPad*%
%ADD42C,0.600000*%
%TD*%
%TA.AperFunction,Conductor*%
%ADD43C,0.127000*%
%TD*%
%TA.AperFunction,Conductor*%
%ADD44C,0.500000*%
%TD*%
%TA.AperFunction,Conductor*%
%ADD45C,0.250000*%
%TD*%
%TA.AperFunction,Conductor*%
%ADD46C,0.203200*%
%TD*%
%TA.AperFunction,Conductor*%
%ADD47C,0.200000*%
%TD*%
G04 APERTURE END LIST*
%TA.AperFunction,EtchedComponent*%
G36*
X18000000Y-13050000D02*
G01*
X17500000Y-13050000D01*
X17500000Y-12650000D01*
X18000000Y-12650000D01*
X18000000Y-13050000D01*
G37*
%TD.AperFunction*%
%TA.AperFunction,EtchedComponent*%
G36*
X18000000Y-13850000D02*
G01*
X17500000Y-13850000D01*
X17500000Y-13450000D01*
X18000000Y-13450000D01*
X18000000Y-13850000D01*
G37*
%TD.AperFunction*%
D10*
X5000000Y-65000000D03*
D11*
X5000000Y-65000000D03*
D10*
X5000000Y-5000000D03*
D11*
X5000000Y-5000000D03*
D12*
X24000000Y-22000000D03*
X46000000Y-22000000D03*
D13*
X44600000Y-7000000D03*
X37400000Y-7000000D03*
D14*
X43250000Y-4500000D03*
X38750000Y-4500000D03*
D13*
X32600000Y-7000000D03*
X25400000Y-7000000D03*
D14*
X31250000Y-4500000D03*
X26750000Y-4500000D03*
D15*
X21500000Y-16625000D03*
X21500000Y-15375000D03*
D16*
X5960000Y-14500000D03*
D17*
X8500000Y-17040000D03*
X11040000Y-14500000D03*
D10*
X65000000Y-5000000D03*
D11*
X65000000Y-5000000D03*
D18*
X56725000Y-12075000D03*
D19*
X59265000Y-12075000D03*
X56725000Y-14615000D03*
X59265000Y-14615000D03*
X56725000Y-17155000D03*
X59265000Y-17155000D03*
X56725000Y-19695000D03*
X59265000Y-19695000D03*
X56725000Y-22235000D03*
X59265000Y-22235000D03*
X56725000Y-24775000D03*
X59265000Y-24775000D03*
X56725000Y-27315000D03*
X59265000Y-27315000D03*
X56725000Y-29855000D03*
X59265000Y-29855000D03*
X56725000Y-32395000D03*
X59265000Y-32395000D03*
X56725000Y-34935000D03*
X59265000Y-34935000D03*
D20*
X5630000Y-35180000D03*
D21*
X1450000Y-35180000D03*
D20*
X5630000Y-43820000D03*
D21*
X1450000Y-43820000D03*
D10*
X65000000Y-65000000D03*
D11*
X65000000Y-65000000D03*
D22*
X20562500Y-13810000D03*
X20562500Y-11910000D03*
X22437500Y-12860000D03*
D23*
X59375000Y-62637500D03*
X56300000Y-62637500D03*
D24*
X25750000Y-31750000D03*
D25*
X15430000Y-28870000D03*
X14410000Y-28870000D03*
D24*
X9500000Y-53000000D03*
D26*
X61250000Y-35390000D03*
X61250000Y-34430000D03*
D27*
X61980000Y-54480000D03*
X60710000Y-54480000D03*
X59440000Y-54480000D03*
X58170000Y-54480000D03*
X56900000Y-54480000D03*
X55630000Y-54480000D03*
X54360000Y-54480000D03*
X53090000Y-54480000D03*
X51820000Y-54480000D03*
X50550000Y-54480000D03*
X49280000Y-54480000D03*
X48010000Y-54480000D03*
X46740000Y-54480000D03*
X45470000Y-54480000D03*
D28*
X44220000Y-52715000D03*
X44220000Y-51445000D03*
X44220000Y-50175000D03*
X44220000Y-48905000D03*
X44220000Y-47635000D03*
X44220000Y-46365000D03*
X44220000Y-45095000D03*
X44220000Y-43825000D03*
X44220000Y-42555000D03*
X44220000Y-41285000D03*
X44220000Y-40015000D03*
X44220000Y-38745000D03*
D27*
X45470000Y-36980000D03*
X46740000Y-36980000D03*
X48010000Y-36980000D03*
X49280000Y-36980000D03*
X50550000Y-36980000D03*
X51820000Y-36980000D03*
X53090000Y-36980000D03*
X54360000Y-36980000D03*
X55630000Y-36980000D03*
X56900000Y-36980000D03*
X58170000Y-36980000D03*
X59440000Y-36980000D03*
X60710000Y-36980000D03*
X61980000Y-36980000D03*
D15*
X53560000Y-48630000D03*
X54960000Y-48630000D03*
X52860000Y-47930000D03*
X54260000Y-47930000D03*
X55660000Y-47930000D03*
X53560000Y-47230000D03*
D29*
X54260000Y-47230000D03*
D15*
X54960000Y-47230000D03*
X52860000Y-46530000D03*
X54260000Y-46530000D03*
X55660000Y-46530000D03*
X53560000Y-45830000D03*
X54960000Y-45830000D03*
D24*
X25750000Y-39250000D03*
D26*
X18000000Y-18480000D03*
X18000000Y-17520000D03*
X19500000Y-25230000D03*
X19500000Y-24270000D03*
X37236400Y-42418000D03*
X37236400Y-41458000D03*
D24*
X39000000Y-39250000D03*
D30*
X20000000Y-17490000D03*
X20000000Y-18510000D03*
D24*
X51250000Y-15750000D03*
D26*
X14750000Y-11980000D03*
X14750000Y-11020000D03*
X18000000Y-25230000D03*
X18000000Y-24270000D03*
D31*
X60895000Y-56975000D03*
X61855000Y-56975000D03*
D32*
X15837500Y-39210000D03*
X15837500Y-41110000D03*
X13962500Y-40160000D03*
D26*
X6000000Y-12480000D03*
X6000000Y-11520000D03*
D33*
X29413200Y-44941900D03*
X29413200Y-45901900D03*
D25*
X40510000Y-8750000D03*
X39490000Y-8750000D03*
D34*
X11500000Y-4500000D03*
X10540000Y-4500000D03*
D23*
X59387500Y-66050000D03*
X56312500Y-66050000D03*
D24*
X22000000Y-4500000D03*
D35*
X30990200Y-44934900D03*
X32890200Y-44934900D03*
X31940200Y-46809900D03*
D24*
X48250000Y-6750000D03*
X63750000Y-11500000D03*
D34*
X46300000Y-35440000D03*
X45340000Y-35440000D03*
D26*
X20726400Y-45878800D03*
X20726400Y-44918800D03*
D25*
X17510000Y-3250000D03*
X16490000Y-3250000D03*
D36*
X19740000Y-10570000D03*
X20760000Y-10570000D03*
D26*
X20750000Y-24730000D03*
X20750000Y-23770000D03*
D22*
X11062500Y-12450000D03*
X11062500Y-10550000D03*
X12937500Y-11500000D03*
D31*
X60895000Y-55975000D03*
X61855000Y-55975000D03*
D24*
X9500000Y-49750000D03*
D37*
X17100000Y-13250000D03*
X18400000Y-13250000D03*
D22*
X13062500Y-8950000D03*
X13062500Y-7050000D03*
X14937500Y-8000000D03*
D38*
X15137500Y-3550000D03*
X15137500Y-4500000D03*
X15137500Y-5450000D03*
X12862500Y-5450000D03*
X12862500Y-4500000D03*
X12862500Y-3550000D03*
D25*
X17510000Y-4250000D03*
X16490000Y-4250000D03*
D24*
X64750000Y-32500000D03*
D33*
X24282400Y-44918800D03*
X24282400Y-45878800D03*
D24*
X36250000Y-18750000D03*
X18000000Y-31750000D03*
D36*
X17310000Y-36460000D03*
X18330000Y-36460000D03*
D39*
X7000000Y-12510000D03*
X7000000Y-11490000D03*
D25*
X18330000Y-35450000D03*
X17310000Y-35450000D03*
D31*
X60920000Y-59000000D03*
X61880000Y-59000000D03*
X31206200Y-48666400D03*
X32166200Y-48666400D03*
D24*
X63750000Y-15250000D03*
D33*
X9250000Y-11020000D03*
X9250000Y-11980000D03*
X54102000Y-34346000D03*
X54102000Y-35306000D03*
D31*
X60895000Y-58000000D03*
X61855000Y-58000000D03*
X26952000Y-48260000D03*
X27912000Y-48260000D03*
D24*
X38750000Y-21500000D03*
X29000000Y-25250000D03*
D26*
X19000000Y-18480000D03*
X19000000Y-17520000D03*
D23*
X59362500Y-59250000D03*
X56287500Y-59250000D03*
D40*
X18250000Y-20062500D03*
X19200000Y-20062500D03*
X20150000Y-20062500D03*
X20150000Y-22337500D03*
X19200000Y-22337500D03*
X18250000Y-22337500D03*
D32*
X37937500Y-9050000D03*
X37937500Y-10950000D03*
X36062500Y-10000000D03*
D41*
X22504400Y-46795800D03*
X22504400Y-44745800D03*
D24*
X63750000Y-18750000D03*
X25750000Y-41750000D03*
X20750000Y-31750000D03*
D33*
X34512200Y-44932900D03*
X34512200Y-45892900D03*
D24*
X48250000Y-9750000D03*
D25*
X24740000Y-15150000D03*
X23720000Y-15150000D03*
D24*
X39000000Y-44750000D03*
D33*
X18000000Y-39480000D03*
X18000000Y-40440000D03*
X36068000Y-44935200D03*
X36068000Y-45895200D03*
D35*
X25923200Y-44934900D03*
X27823200Y-44934900D03*
X26873200Y-46809900D03*
D22*
X24562500Y-13800000D03*
X24562500Y-11900000D03*
X26437500Y-12850000D03*
D24*
X48250000Y-13000000D03*
X21000000Y-39250000D03*
X38750000Y-25250000D03*
D36*
X14410000Y-29880000D03*
X15430000Y-29880000D03*
D24*
X32000000Y-42500000D03*
D32*
X15837500Y-35700000D03*
X15837500Y-37600000D03*
X13962500Y-36650000D03*
D42*
X58740000Y-57010000D03*
X28500000Y-59000000D03*
X6000000Y-11000000D03*
X39850000Y-32870000D03*
X28469205Y-58050000D03*
X11750000Y-3500000D03*
X13500000Y-37500000D03*
X22000000Y-31750000D03*
X26000000Y-60000000D03*
X11800000Y-59400000D03*
X64250000Y-20500000D03*
X62500000Y-57000000D03*
X56500000Y-64000000D03*
X10350000Y-41025000D03*
X53000000Y-11500000D03*
X37000000Y-33000000D03*
X33000000Y-30500000D03*
X51000000Y-28500000D03*
X18250000Y-3750000D03*
X32896917Y-48779083D03*
X11000000Y-13000000D03*
X55500000Y-66925500D03*
X55500000Y-2500000D03*
X59584483Y-52218483D03*
X17250000Y-17500000D03*
X10000000Y-37250000D03*
X20500000Y-28250000D03*
X28000000Y-60000000D03*
X13249500Y-46990000D03*
X48650000Y-56550000D03*
X24638000Y-46440000D03*
X60000000Y-44000000D03*
X7300000Y-43575000D03*
X12725000Y-60775000D03*
X66000000Y-33750000D03*
X10621692Y-44835022D03*
X63000000Y-56500000D03*
X20250000Y-57767600D03*
X19500000Y-26250000D03*
X8000000Y-27000000D03*
X17025000Y-51500000D03*
X57658000Y-50546000D03*
X55118000Y-52070000D03*
X20088035Y-44911965D03*
X51054000Y-53086000D03*
X18500000Y-28250000D03*
X62500000Y-56000000D03*
X56500000Y-58000000D03*
X7234026Y-24150065D03*
X2625000Y-31650000D03*
X29750000Y-42500000D03*
X19500000Y-28250000D03*
X65975000Y-18125000D03*
X12610000Y-65980000D03*
X7475000Y-35500000D03*
X55000000Y-39000000D03*
X15900000Y-50600000D03*
X62353000Y-52983229D03*
X3240938Y-21030000D03*
X32000000Y-18500000D03*
X52324000Y-44704000D03*
X42000000Y-18000000D03*
X10000000Y-24750000D03*
X11800000Y-60325000D03*
X32000000Y-13000000D03*
X22750000Y-60000000D03*
X55500000Y-59000000D03*
X33000000Y-35500000D03*
X49250000Y-13500000D03*
X63000000Y-57500000D03*
X21000000Y-44000000D03*
X10750000Y-40000000D03*
X46999146Y-35422111D03*
X55500000Y-58000000D03*
X52578000Y-53086000D03*
X41500000Y-8750000D03*
X11250000Y-27000000D03*
X14800000Y-50600000D03*
X40000000Y-54000000D03*
X55906500Y-6750000D03*
X9700000Y-47450000D03*
X11800000Y-57750000D03*
X20250000Y-54500000D03*
X35306000Y-46882000D03*
X18100000Y-11625000D03*
X16200000Y-66700000D03*
X60250000Y-53000000D03*
X9750000Y-27000000D03*
X28000000Y-66000000D03*
X7700000Y-45200000D03*
X39750000Y-22250000D03*
X28000000Y-35000000D03*
X65950000Y-27525000D03*
X45000000Y-31000000D03*
X46750000Y-57650000D03*
X25300000Y-15160000D03*
X29000000Y-27000000D03*
X28448000Y-48260000D03*
X14900000Y-52300000D03*
X48250000Y-44629123D03*
X62500000Y-59000000D03*
X62500000Y-58000000D03*
X31500000Y-66000000D03*
X24384000Y-25908000D03*
X21250000Y-53000000D03*
X55500000Y-65000000D03*
X55500000Y-62000000D03*
X28000000Y-38000000D03*
X8250000Y-53000000D03*
X12500000Y-27000000D03*
X20102600Y-44000000D03*
X40443828Y-44750863D03*
X36250000Y-42250000D03*
X38110000Y-49070000D03*
X13800000Y-28860000D03*
X55500000Y-66000000D03*
X35020000Y-39870000D03*
X17200000Y-66750000D03*
X30000000Y-38000000D03*
X14500000Y-2750000D03*
X29413200Y-46440000D03*
X33000000Y-33000000D03*
X37500000Y-38000000D03*
X12750000Y-37500000D03*
X9600000Y-41075000D03*
X56750000Y-6750000D03*
X7475000Y-34625000D03*
X15110000Y-23580000D03*
X37000000Y-13000000D03*
X46750000Y-8000000D03*
X23000000Y-41000000D03*
X59500000Y-40000000D03*
X12306655Y-44180096D03*
X13225000Y-66575000D03*
X19250000Y-56250000D03*
X10000000Y-4500000D03*
X53990000Y-33650000D03*
X26390000Y-44890000D03*
X62000000Y-36000000D03*
X23750000Y-60000000D03*
X10750000Y-38000000D03*
X66025000Y-11550000D03*
X27000000Y-60000000D03*
X9250000Y-13000000D03*
X42000000Y-13000000D03*
X58166000Y-47244000D03*
X37290000Y-67200000D03*
X55500000Y-60000000D03*
X55500000Y-63000000D03*
X49500000Y-38500000D03*
X56500000Y-61500000D03*
X44525000Y-57650000D03*
X18173800Y-37155053D03*
X63750000Y-16250000D03*
X48000000Y-29000000D03*
X25250000Y-40000000D03*
X23876000Y-46440000D03*
X21250000Y-56250000D03*
X61750000Y-2750000D03*
X62500000Y-33750000D03*
X25000000Y-60000000D03*
X20250000Y-51500000D03*
X10000000Y-25750000D03*
X11825000Y-58550000D03*
X7229838Y-23485458D03*
X30930000Y-46790000D03*
X18000000Y-26250000D03*
X14750000Y-13126576D03*
X29993492Y-45755995D03*
X36000000Y-58000000D03*
X62000000Y-37000000D03*
X39000000Y-11000000D03*
X54000000Y-59500000D03*
X20750000Y-25250000D03*
X40700000Y-52050000D03*
X52000000Y-34000000D03*
X36068000Y-46440000D03*
X21844000Y-28448000D03*
X21750000Y-60000000D03*
X37250000Y-40825000D03*
X24260000Y-11050000D03*
X38500000Y-27000000D03*
X14250000Y-37500000D03*
X28500000Y-13000000D03*
X34280000Y-46530000D03*
X32000000Y-27000000D03*
X56388000Y-51308000D03*
X23539191Y-36987921D03*
X61000000Y-53000000D03*
X53848000Y-52578000D03*
X18300000Y-10500000D03*
X32000000Y-21000000D03*
X7300000Y-44450000D03*
X53350000Y-42199998D03*
X11350000Y-41925000D03*
X19200000Y-19200000D03*
X66125000Y-20650000D03*
X19250000Y-53000000D03*
X26162000Y-53806000D03*
X44610000Y-61620000D03*
X15900000Y-52300000D03*
X62000000Y-38000000D03*
X69000000Y-29000000D03*
X20000000Y-69000000D03*
X30000000Y-1000000D03*
X20000000Y-1000000D03*
X1000000Y-29000000D03*
X41000000Y-69000000D03*
X41000000Y-1000000D03*
X10000000Y-69000000D03*
X1000000Y-40000000D03*
X6000000Y-56000000D03*
X6000000Y-49000000D03*
X10000000Y-1000000D03*
X50000000Y-69000000D03*
X30000000Y-69000000D03*
X69000000Y-9000000D03*
X1000000Y-62000000D03*
X60000000Y-1000000D03*
X50000000Y-1000000D03*
X69000000Y-59000000D03*
X1000000Y-9000000D03*
X69000000Y-19000000D03*
X1000000Y-19000000D03*
X60000000Y-69000000D03*
X29000000Y-54000000D03*
X8685000Y-30745000D03*
X6815000Y-30715000D03*
X56500000Y-10000000D03*
X28200000Y-52450000D03*
X29000000Y-55000000D03*
X29000000Y-56000000D03*
X7795000Y-30725000D03*
X55750000Y-10000000D03*
X2730000Y-23438550D03*
X29000000Y-53000000D03*
X15750000Y-54500000D03*
X14850000Y-54450000D03*
X14000000Y-54500000D03*
X12680000Y-53500000D03*
X61000000Y-63500000D03*
X55750000Y-8500000D03*
X33000000Y-62500000D03*
X54000000Y-61500000D03*
X49470000Y-66530000D03*
X63000000Y-32250000D03*
X61000000Y-62500000D03*
X33020000Y-63458000D03*
X32004000Y-63458000D03*
X19000000Y-58000000D03*
X62250000Y-32250000D03*
X32000000Y-62500000D03*
X63000000Y-31500000D03*
X56500000Y-8500000D03*
X62250000Y-31500000D03*
X61000000Y-61625000D03*
X50249992Y-39647776D03*
X60750000Y-3000000D03*
X63000000Y-20500000D03*
X59410000Y-54770000D03*
X59385200Y-52933600D03*
X63250000Y-12250000D03*
X54250000Y-35840000D03*
X53500000Y-23000000D03*
X35353517Y-45046483D03*
X30030000Y-44710000D03*
X33680000Y-44600000D03*
X51308000Y-52324000D03*
X37250000Y-42500000D03*
X11000000Y-34750000D03*
X8100000Y-41300000D03*
X10000000Y-34728358D03*
X8050000Y-42750000D03*
X8075000Y-42025000D03*
X45261500Y-57650000D03*
X45988500Y-57650000D03*
X56250000Y-3000000D03*
X58369200Y-38455600D03*
X52750000Y-10250000D03*
X47500000Y-8000000D03*
X54750000Y-3000000D03*
X56794400Y-38455600D03*
X52140000Y-39050000D03*
X53860000Y-38500000D03*
X58216800Y-48310800D03*
X56946800Y-49987200D03*
X55575200Y-50647600D03*
X54356000Y-51358800D03*
X53035200Y-52070000D03*
X49784000Y-52832000D03*
X49276000Y-55829200D03*
X47720000Y-56050000D03*
X34750000Y-42500000D03*
X33223200Y-42250000D03*
X38130000Y-50110000D03*
X40993594Y-51056006D03*
X39776400Y-52019200D03*
X51206400Y-44704000D03*
X45590002Y-34036000D03*
X31500000Y-41000000D03*
X30500000Y-41000000D03*
X47500000Y-44000000D03*
X46320000Y-33150000D03*
X6025971Y-22366501D03*
X16750000Y-29250000D03*
X3346394Y-34305199D03*
X5358517Y-38311483D03*
X47500000Y-42500000D03*
X5290000Y-40860000D03*
X4070000Y-34370000D03*
X23114000Y-25908000D03*
X21844000Y-27432000D03*
X43850000Y-38630000D03*
X43850000Y-30690000D03*
X41780000Y-31510000D03*
X41200000Y-35110000D03*
X55570000Y-38490000D03*
X42090000Y-37010000D03*
X40480000Y-30970000D03*
X4720000Y-21250000D03*
X44480000Y-32220000D03*
X44490000Y-35160000D03*
X40880000Y-29460000D03*
X42160000Y-35780000D03*
X25600000Y-9500000D03*
X46820000Y-30080000D03*
X13250000Y-62790000D03*
X29750000Y-58190000D03*
X31500000Y-8900000D03*
X17580000Y-34570000D03*
D43*
X40510000Y-8750000D02*
X41500000Y-8750000D01*
X6000000Y-11520000D02*
X6000000Y-11000000D01*
D44*
X19500000Y-25500000D02*
X20270000Y-24730000D01*
D43*
X25290000Y-15150000D02*
X25300000Y-15160000D01*
X62000000Y-38000000D02*
X62000000Y-37000000D01*
X40074691Y-45120000D02*
X40443828Y-44750863D01*
X32461200Y-48836200D02*
X32518317Y-48779083D01*
X11062500Y-12450000D02*
X11062500Y-12937500D01*
X20750000Y-31750000D02*
X22000000Y-31750000D01*
X11800000Y-3550000D02*
X11750000Y-3500000D01*
X36068000Y-46190200D02*
X36068000Y-46440000D01*
X37236400Y-40838600D02*
X37250000Y-40825000D01*
X61250000Y-34430000D02*
X61930000Y-33750000D01*
X39370000Y-45120000D02*
X40074691Y-45120000D01*
X25968100Y-44890000D02*
X26390000Y-44890000D01*
D44*
X18000000Y-25525000D02*
X18000000Y-26250000D01*
D43*
X25750000Y-39500000D02*
X25250000Y-40000000D01*
X18330000Y-36998853D02*
X18173800Y-37155053D01*
X38750000Y-21500000D02*
X39500000Y-22250000D01*
D44*
X20000000Y-17490000D02*
X18030000Y-17490000D01*
D43*
X20302500Y-11910000D02*
X18385000Y-11910000D01*
D44*
X9500000Y-53000000D02*
X8250000Y-53000000D01*
D43*
X48750000Y-13000000D02*
X49250000Y-13500000D01*
X17510000Y-3250000D02*
X17750000Y-3250000D01*
X46981257Y-35440000D02*
X46999146Y-35422111D01*
D44*
X20270000Y-24730000D02*
X20750000Y-24730000D01*
D43*
X37937500Y-10950000D02*
X38950000Y-10950000D01*
X12862500Y-3550000D02*
X11800000Y-3550000D01*
X18370000Y-10570000D02*
X18300000Y-10500000D01*
X24260000Y-11887500D02*
X24260000Y-11050000D01*
X24740000Y-15150000D02*
X25290000Y-15150000D01*
D44*
X18000000Y-17520000D02*
X17270000Y-17520000D01*
X19200000Y-20062500D02*
X19200000Y-19200000D01*
D43*
X39500000Y-22250000D02*
X39750000Y-22250000D01*
D44*
X19500000Y-25525000D02*
X19500000Y-26250000D01*
D43*
X14410000Y-28870000D02*
X13810000Y-28870000D01*
X13810000Y-28870000D02*
X13800000Y-28860000D01*
D44*
X20750000Y-24730000D02*
X20750000Y-25250000D01*
D43*
X37236400Y-41458000D02*
X37236400Y-40838600D01*
D44*
X17270000Y-17520000D02*
X17250000Y-17500000D01*
D43*
X10540000Y-4500000D02*
X10000000Y-4500000D01*
X14750000Y-13126576D02*
X14750000Y-12275000D01*
X29413200Y-46440000D02*
X29413200Y-46196900D01*
D44*
X19500000Y-25525000D02*
X19500000Y-25500000D01*
D43*
X29859487Y-45890000D02*
X29720100Y-45890000D01*
X18330000Y-36460000D02*
X18330000Y-36998853D01*
X27912000Y-48260000D02*
X28448000Y-48260000D01*
X18385000Y-11910000D02*
X18100000Y-11625000D01*
X14284500Y-2965500D02*
X14500000Y-2750000D01*
X54102000Y-34346000D02*
X54102000Y-33762000D01*
X17750000Y-4250000D02*
X18250000Y-3750000D01*
X14943460Y-4500000D02*
X14284500Y-3841040D01*
X32518317Y-48779083D02*
X32896917Y-48779083D01*
X14284500Y-3841040D02*
X14284500Y-2965500D01*
X9250000Y-12275000D02*
X9250000Y-13000000D01*
X11062500Y-12937500D02*
X11000000Y-13000000D01*
X61930000Y-33750000D02*
X62500000Y-33750000D01*
X29993492Y-45755995D02*
X29859487Y-45890000D01*
X17510000Y-4250000D02*
X17750000Y-4250000D01*
X63750000Y-15250000D02*
X63750000Y-16250000D01*
X17750000Y-3250000D02*
X18250000Y-3750000D01*
D45*
X30169105Y-45755995D02*
X30990200Y-44934900D01*
D44*
X18000000Y-25525000D02*
X19500000Y-25525000D01*
D43*
X34512200Y-46440000D02*
X34512200Y-46187900D01*
D45*
X29993492Y-45755995D02*
X30169105Y-45755995D01*
D43*
X46300000Y-35440000D02*
X46981257Y-35440000D01*
X19740000Y-10570000D02*
X18370000Y-10570000D01*
X54102000Y-33762000D02*
X53990000Y-33650000D01*
D44*
X62000000Y-36000000D02*
X62000000Y-38000000D01*
D43*
X38950000Y-10950000D02*
X39000000Y-11000000D01*
D46*
X13750000Y-11500000D02*
X12937500Y-11500000D01*
X2730000Y-23438550D02*
X2730000Y-23020000D01*
X15453600Y-14546400D02*
X15453600Y-11428600D01*
X3750000Y-21268492D02*
X4250000Y-20768492D01*
D44*
X19230000Y-34480000D02*
X19230000Y-34730000D01*
X10665000Y-30745000D02*
X13880000Y-33960000D01*
X23450000Y-52450000D02*
X28200000Y-52450000D01*
X59265000Y-11015000D02*
X59265000Y-12075000D01*
X13880000Y-33960000D02*
X13947000Y-33893000D01*
D46*
X13880000Y-33960000D02*
X13880000Y-36567500D01*
X14750000Y-10725000D02*
X14525000Y-10725000D01*
X3750000Y-22000000D02*
X3750000Y-21268492D01*
D44*
X18643000Y-33893000D02*
X19230000Y-34480000D01*
D46*
X4250000Y-19750000D02*
X4750000Y-19250000D01*
X10750000Y-19250000D02*
X15453600Y-14546400D01*
D44*
X13947000Y-33893000D02*
X18643000Y-33893000D01*
D46*
X2730000Y-23020000D02*
X3750000Y-22000000D01*
D44*
X19230000Y-38250000D02*
X20000000Y-38250000D01*
X8685000Y-30745000D02*
X10665000Y-30745000D01*
X56500000Y-10000000D02*
X58250000Y-10000000D01*
X19230000Y-42270000D02*
X17430000Y-44070000D01*
X17430000Y-46430000D02*
X23450000Y-52450000D01*
X20000000Y-38250000D02*
X21000000Y-39250000D01*
X19230000Y-38250000D02*
X19230000Y-42270000D01*
X19230000Y-34730000D02*
X19230000Y-38250000D01*
X17430000Y-44070000D02*
X17430000Y-46430000D01*
X58250000Y-10000000D02*
X59265000Y-11015000D01*
D46*
X4250000Y-20768492D02*
X4250000Y-19750000D01*
X13880000Y-33960000D02*
X10635000Y-30715000D01*
X4750000Y-19250000D02*
X10750000Y-19250000D01*
X15453600Y-11428600D02*
X14750000Y-10725000D01*
D44*
X13962500Y-34042500D02*
X13880000Y-33960000D01*
D46*
X10635000Y-30715000D02*
X6815000Y-30715000D01*
X14525000Y-10725000D02*
X13750000Y-11500000D01*
D44*
X13962500Y-36650000D02*
X13962500Y-34042500D01*
X11771288Y-37968788D02*
X13962500Y-40160000D01*
X14410000Y-30410000D02*
X15750000Y-31750000D01*
X11771288Y-33521288D02*
X11771288Y-37968788D01*
X15750000Y-31750000D02*
X18000000Y-31750000D01*
X12573000Y-53393000D02*
X12573000Y-45427000D01*
X13962500Y-44037500D02*
X13962500Y-40160000D01*
X5625000Y-30125000D02*
X5625000Y-31995000D01*
X12573000Y-45427000D02*
X13962500Y-44037500D01*
X5625000Y-31995000D02*
X6320000Y-32690000D01*
X14410000Y-29880000D02*
X5870000Y-29880000D01*
X14410000Y-29880000D02*
X14410000Y-30410000D01*
X6320000Y-32690000D02*
X10940000Y-32690000D01*
X12680000Y-53500000D02*
X12573000Y-53393000D01*
X5870000Y-29880000D02*
X5625000Y-30125000D01*
X10940000Y-32690000D02*
X11771288Y-33521288D01*
D43*
X6000000Y-12480000D02*
X6970000Y-12480000D01*
X30209500Y-3459500D02*
X31250000Y-4500000D01*
X13990500Y-2259500D02*
X20259500Y-2259500D01*
X11500000Y-4500000D02*
X8504000Y-7496000D01*
X3750000Y-11750000D02*
X3750000Y-15250000D01*
X7000000Y-12510000D02*
X7490000Y-12510000D01*
X13750000Y-2500000D02*
X13990500Y-2259500D01*
X22000000Y-4500000D02*
X23040500Y-3459500D01*
X22000000Y-4000000D02*
X22000000Y-4500000D01*
X8004000Y-7496000D02*
X3750000Y-11750000D01*
X12862500Y-4500000D02*
X11500000Y-4500000D01*
X9425000Y-10550000D02*
X9250000Y-10725000D01*
X6492500Y-17992500D02*
X9257500Y-17992500D01*
X13056540Y-4500000D02*
X13750000Y-3806540D01*
X5960000Y-12520000D02*
X5960000Y-14500000D01*
X3750000Y-15250000D02*
X6492500Y-17992500D01*
X11062500Y-10550000D02*
X9425000Y-10550000D01*
X9750000Y-17500000D02*
X9750000Y-14770000D01*
X7490000Y-12510000D02*
X9250000Y-10750000D01*
X23040500Y-3459500D02*
X30209500Y-3459500D01*
X20259500Y-2259500D02*
X22000000Y-4000000D01*
X8504000Y-7496000D02*
X8004000Y-7496000D01*
X9750000Y-14770000D02*
X7490000Y-12510000D01*
X9257500Y-17992500D02*
X9750000Y-17500000D01*
X9250000Y-10750000D02*
X9250000Y-10725000D01*
X13750000Y-3806540D02*
X13750000Y-2500000D01*
D44*
X56725000Y-12075000D02*
X54825000Y-12075000D01*
D46*
X53630000Y-62720000D02*
X53630000Y-67502500D01*
X32000000Y-57250000D02*
X20500000Y-57250000D01*
D44*
X53730000Y-67602500D02*
X49602500Y-67602500D01*
D46*
X53630000Y-62720000D02*
X54000000Y-62350000D01*
D44*
X55750000Y-8500000D02*
X54750000Y-9500000D01*
X58997500Y-67602500D02*
X53730000Y-67602500D01*
X21270000Y-23770000D02*
X20750000Y-23770000D01*
X59387500Y-66050000D02*
X59387500Y-67212500D01*
X22045800Y-46795800D02*
X21423800Y-46173800D01*
X32000000Y-51250000D02*
X32000000Y-57250000D01*
X54750000Y-9500000D02*
X54750000Y-12000000D01*
D46*
X49470000Y-66530000D02*
X49470000Y-67470000D01*
D44*
X19000000Y-45670000D02*
X19000000Y-43500000D01*
X20750000Y-23770000D02*
X18205000Y-23770000D01*
X53000000Y-14500000D02*
X53000000Y-15750000D01*
X21423800Y-46173800D02*
X19503800Y-46173800D01*
X32000000Y-57250000D02*
X32000000Y-62500000D01*
D46*
X20500000Y-57250000D02*
X20489000Y-57239000D01*
D44*
X23000000Y-27250000D02*
X22000000Y-26250000D01*
D46*
X19761000Y-57239000D02*
X19000000Y-58000000D01*
D44*
X54825000Y-12075000D02*
X54750000Y-12000000D01*
X59387500Y-67212500D02*
X58997500Y-67602500D01*
X54750000Y-12750000D02*
X53000000Y-14500000D01*
X51250000Y-15750000D02*
X53000000Y-15750000D01*
X22000000Y-26250000D02*
X22000000Y-24500000D01*
X63000000Y-31500000D02*
X62000000Y-30500000D01*
X60895000Y-56975000D02*
X60895000Y-57220000D01*
X18205000Y-23770000D02*
X18000000Y-23975000D01*
X23000000Y-36579354D02*
X23000000Y-27250000D01*
X55718000Y-18468000D02*
X53000000Y-15750000D01*
D46*
X20489000Y-57239000D02*
X19761000Y-57239000D01*
D44*
X60895000Y-55975000D02*
X60895000Y-54665000D01*
X59968000Y-18468000D02*
X55718000Y-18468000D01*
X31500000Y-50750000D02*
X32000000Y-51250000D01*
D46*
X53630000Y-67502500D02*
X53730000Y-67602500D01*
D44*
X60895000Y-55975000D02*
X60895000Y-56975000D01*
X19503800Y-46173800D02*
X19000000Y-45670000D01*
X22448000Y-40052000D02*
X22448000Y-37131354D01*
X22504400Y-46795800D02*
X26458600Y-50750000D01*
X22448000Y-37131354D02*
X23000000Y-36579354D01*
D46*
X49470000Y-67470000D02*
X49602500Y-67602500D01*
X54000000Y-61500000D02*
X54000000Y-62350000D01*
D44*
X49602500Y-67602500D02*
X44500000Y-62500000D01*
X22504400Y-46795800D02*
X22045800Y-46795800D01*
X54750000Y-12000000D02*
X54750000Y-12750000D01*
X62000000Y-20500000D02*
X59968000Y-18468000D01*
X19000000Y-43500000D02*
X22448000Y-40052000D01*
X19200000Y-22337500D02*
X19200000Y-23675000D01*
X44500000Y-62500000D02*
X33000000Y-62500000D01*
X26458600Y-50750000D02*
X31500000Y-50750000D01*
X22000000Y-24500000D02*
X21270000Y-23770000D01*
X19200000Y-23675000D02*
X19500000Y-23975000D01*
X62000000Y-30500000D02*
X62000000Y-20500000D01*
D43*
X56725000Y-17155000D02*
X57880000Y-16000000D01*
X63750000Y-18750000D02*
X63000000Y-18750000D01*
X50141269Y-39756499D02*
X50249992Y-39647776D01*
X61609500Y-3859500D02*
X61609500Y-7359500D01*
X65000000Y-10750000D02*
X65000000Y-12750000D01*
X45470000Y-37280000D02*
X47946499Y-39756499D01*
X63000000Y-18750000D02*
X63000000Y-20500000D01*
X47946499Y-39756499D02*
X50141269Y-39756499D01*
X63000000Y-16000000D02*
X63000000Y-18750000D01*
X63000000Y-14750000D02*
X63000000Y-16000000D01*
X61609500Y-7359500D02*
X65000000Y-10750000D01*
X57880000Y-16000000D02*
X63000000Y-16000000D01*
X60750000Y-3000000D02*
X61609500Y-3859500D01*
X65000000Y-12750000D02*
X63000000Y-14750000D01*
X45470000Y-35570000D02*
X45470000Y-36980000D01*
X60884500Y-13115500D02*
X61750000Y-12250000D01*
X63750000Y-11750000D02*
X63250000Y-12250000D01*
X59385200Y-52933600D02*
X59440000Y-52988400D01*
X59440000Y-52988400D02*
X59440000Y-54480000D01*
X58224500Y-13115500D02*
X60884500Y-13115500D01*
X61750000Y-12250000D02*
X63250000Y-12250000D01*
X56725000Y-14615000D02*
X58224500Y-13115500D01*
X42610000Y-12110000D02*
X53500000Y-23000000D01*
X42610000Y-8360000D02*
X42610000Y-12110000D01*
X54102000Y-35642000D02*
X54102000Y-35306000D01*
X54360000Y-36980000D02*
X54360000Y-35900000D01*
X54250000Y-35840000D02*
X54250000Y-36870000D01*
X54360000Y-35900000D02*
X54102000Y-35642000D01*
X38750000Y-4500000D02*
X42610000Y-8360000D01*
D46*
X35464800Y-44935200D02*
X35353517Y-45046483D01*
D43*
X29471300Y-45000000D02*
X29740000Y-45000000D01*
X29866328Y-47160000D02*
X31146328Y-45880000D01*
X36715200Y-44935200D02*
X36068000Y-44935200D01*
X27250000Y-42750000D02*
X27250000Y-44361700D01*
X26250000Y-41750000D02*
X27250000Y-42750000D01*
X27823200Y-44934900D02*
X27823200Y-45973200D01*
X36990000Y-45210000D02*
X36715200Y-44935200D01*
D46*
X36068000Y-44935200D02*
X35464800Y-44935200D01*
D43*
X27250000Y-44361700D02*
X27750000Y-44861700D01*
X29740000Y-45000000D02*
X30030000Y-44710000D01*
X32650000Y-45880000D02*
X34560000Y-47790000D01*
X36990000Y-46660000D02*
X36990000Y-45210000D01*
X31146328Y-45880000D02*
X32650000Y-45880000D01*
X35860000Y-47790000D02*
X36990000Y-46660000D01*
X27823200Y-45973200D02*
X29010000Y-47160000D01*
X25750000Y-41750000D02*
X26250000Y-41750000D01*
X27823200Y-44934900D02*
X29125200Y-44934900D01*
X34560000Y-47790000D02*
X35860000Y-47790000D01*
X29010000Y-47160000D02*
X29866328Y-47160000D01*
X33560000Y-44637900D02*
X33187200Y-44637900D01*
X34512200Y-44637900D02*
X33560000Y-44637900D01*
X33187200Y-44637900D02*
X32890200Y-44934900D01*
X32750000Y-43000000D02*
X32000000Y-43000000D01*
X33560000Y-43810000D02*
X32750000Y-43000000D01*
X33560000Y-44637900D02*
X33560000Y-43810000D01*
X51820000Y-52836000D02*
X51308000Y-52324000D01*
X51820000Y-54480000D02*
X51820000Y-52836000D01*
D44*
X8750000Y-43450000D02*
X8750000Y-49000000D01*
X8050000Y-42750000D02*
X8750000Y-43450000D01*
X8100000Y-36628358D02*
X10000000Y-34728358D01*
X8750000Y-49000000D02*
X9500000Y-49750000D01*
X8100000Y-41300000D02*
X8100000Y-36628358D01*
D47*
X45492724Y-56213500D02*
X43617724Y-56213500D01*
X43617724Y-56213500D02*
X43013500Y-56817724D01*
X45461500Y-57850000D02*
X45261500Y-57650000D01*
X46268500Y-55437724D02*
X45492724Y-56213500D01*
X43013500Y-56817724D02*
X43013500Y-58257276D01*
X45461500Y-58482276D02*
X45461500Y-57850000D01*
X46268500Y-55251500D02*
X46268500Y-55437724D01*
X43967724Y-59211500D02*
X44732276Y-59211500D01*
X46740000Y-54780000D02*
X46268500Y-55251500D01*
X44732276Y-59211500D02*
X45461500Y-58482276D01*
X43013500Y-58257276D02*
X43967724Y-59211500D01*
X43482276Y-55886500D02*
X42686500Y-56682276D01*
X45788500Y-57850000D02*
X45988500Y-57650000D01*
X45941500Y-55251500D02*
X45941500Y-55302276D01*
X45470000Y-54780000D02*
X45941500Y-55251500D01*
X43832276Y-59538500D02*
X44867724Y-59538500D01*
X44867724Y-59538500D02*
X45788500Y-58617724D01*
X45357276Y-55886500D02*
X43482276Y-55886500D01*
X45788500Y-58617724D02*
X45788500Y-57850000D01*
X45941500Y-55302276D02*
X45357276Y-55886500D01*
X42686500Y-56682276D02*
X42686500Y-58392724D01*
X42686500Y-58392724D02*
X43832276Y-59538500D01*
D43*
X51189050Y-9439050D02*
X51189050Y-6750000D01*
X51189050Y-6750000D02*
X51900000Y-6039050D01*
X52750000Y-10250000D02*
X52000000Y-10250000D01*
X53210950Y-6039050D02*
X56250000Y-3000000D01*
X48250000Y-6750000D02*
X51189050Y-6750000D01*
X52000000Y-10250000D02*
X51189050Y-9439050D01*
X51900000Y-6039050D02*
X53210950Y-6039050D01*
X58170000Y-38256400D02*
X58170000Y-36980000D01*
X58369200Y-38455600D02*
X58170000Y-38256400D01*
X53666184Y-4083816D02*
X48916184Y-4083816D01*
X47500000Y-7500000D02*
X47500000Y-8000000D01*
X54750000Y-3000000D02*
X53666184Y-4083816D01*
X48916184Y-4083816D02*
X47500000Y-5500000D01*
X56900000Y-38350000D02*
X56900000Y-36980000D01*
X47500000Y-9250000D02*
X48000000Y-9750000D01*
X47500000Y-7500000D02*
X47500000Y-9250000D01*
X47500000Y-5500000D02*
X47500000Y-7500000D01*
X56794400Y-38455600D02*
X56900000Y-38350000D01*
X50550000Y-37460000D02*
X52140000Y-39050000D01*
X51820000Y-37280000D02*
X53040000Y-38500000D01*
X53040000Y-38500000D02*
X53860000Y-38500000D01*
X58216800Y-48310800D02*
X58170000Y-48357600D01*
X58170000Y-48357600D02*
X58170000Y-54480000D01*
X56946800Y-49987200D02*
X56900000Y-50034000D01*
X56900000Y-50034000D02*
X56900000Y-54480000D01*
X55575200Y-50647600D02*
X55630000Y-50702400D01*
X55630000Y-50702400D02*
X55630000Y-54480000D01*
X54360000Y-51362800D02*
X54360000Y-54480000D01*
X54356000Y-51358800D02*
X54360000Y-51362800D01*
X53035200Y-52070000D02*
X53090000Y-52124800D01*
X53090000Y-52124800D02*
X53090000Y-54480000D01*
X50546000Y-54476000D02*
X50546000Y-53594000D01*
X50546000Y-53594000D02*
X49784000Y-52832000D01*
X49276000Y-55829200D02*
X49280000Y-55825200D01*
X49280000Y-55825200D02*
X49280000Y-54480000D01*
X48010000Y-54480000D02*
X48010000Y-55760000D01*
X48010000Y-55760000D02*
X47720000Y-56050000D01*
X40577500Y-43022500D02*
X43920000Y-46365000D01*
X35272500Y-43022500D02*
X34750000Y-42500000D01*
X40577500Y-43022500D02*
X35272500Y-43022500D01*
X51030000Y-34620000D02*
X37980000Y-34620000D01*
X33223200Y-39376800D02*
X33223200Y-42250000D01*
X37980000Y-34620000D02*
X33223200Y-39376800D01*
X53090000Y-36680000D02*
X51030000Y-34620000D01*
X39010000Y-53060000D02*
X38130000Y-52180000D01*
X41500000Y-51640000D02*
X42965000Y-50175000D01*
X41190000Y-53060000D02*
X39010000Y-53060000D01*
X38130000Y-52180000D02*
X38130000Y-50110000D01*
X41500000Y-52750000D02*
X41190000Y-53060000D01*
X44220000Y-50175000D02*
X42965000Y-50175000D01*
X41500000Y-51640000D02*
X41500000Y-52750000D01*
X43144600Y-48905000D02*
X40993594Y-51056006D01*
X44220000Y-48905000D02*
X43144600Y-48905000D01*
X42738200Y-47635000D02*
X39776400Y-50596800D01*
X44220000Y-47635000D02*
X42738200Y-47635000D01*
X39776400Y-50596800D02*
X39776400Y-52019200D01*
X44220000Y-52715000D02*
X48275400Y-52715000D01*
X37750000Y-34250000D02*
X31500000Y-40500000D01*
X57765500Y-30285990D02*
X57765500Y-25815500D01*
X45590000Y-34036000D02*
X50975470Y-34036000D01*
X57765500Y-25815500D02*
X56725000Y-24775000D01*
X51206400Y-49784000D02*
X51206400Y-44704000D01*
X50975470Y-34036000D02*
X54011470Y-31000000D01*
X48275400Y-52715000D02*
X51206400Y-49784000D01*
X45590000Y-34036000D02*
X45376000Y-34250000D01*
X31500000Y-40500000D02*
X31500000Y-41000000D01*
X57051490Y-31000000D02*
X57765500Y-30285990D01*
X45590000Y-34036000D02*
X45590002Y-34036000D01*
X45376000Y-34250000D02*
X37750000Y-34250000D01*
X54011470Y-31000000D02*
X57051490Y-31000000D01*
X46320000Y-33150000D02*
X45352965Y-33150000D01*
X46405000Y-45095000D02*
X44220000Y-45095000D01*
X45352965Y-33150000D02*
X44692965Y-33810000D01*
X48850000Y-33150000D02*
X46320000Y-33150000D01*
X54685000Y-27315000D02*
X48850000Y-33150000D01*
X44692965Y-33810000D02*
X37640000Y-33810000D01*
X56725000Y-27315000D02*
X54685000Y-27315000D01*
X30500000Y-40950000D02*
X30500000Y-41000000D01*
X47500000Y-44000000D02*
X46405000Y-45095000D01*
X37640000Y-33810000D02*
X30500000Y-40950000D01*
D44*
X16750000Y-27476137D02*
X12316864Y-23043001D01*
X16750000Y-29250000D02*
X16750000Y-27476137D01*
X8338654Y-23043001D02*
X7662154Y-22366501D01*
X12316864Y-23043001D02*
X8338654Y-23043001D01*
X7662154Y-22366501D02*
X6025971Y-22366501D01*
D43*
X4352978Y-38311483D02*
X5358517Y-38311483D01*
X3346394Y-34305199D02*
X3076499Y-34575094D01*
X3076499Y-34575094D02*
X3076499Y-37035004D01*
X3076499Y-37035004D02*
X4352978Y-38311483D01*
X39000000Y-39250000D02*
X41750000Y-42000000D01*
X46175000Y-43825000D02*
X44220000Y-43825000D01*
X42325000Y-43825000D02*
X44220000Y-43825000D01*
X41750000Y-42000000D02*
X41750000Y-43250000D01*
X47500000Y-42500000D02*
X46175000Y-43825000D01*
X41750000Y-43250000D02*
X42325000Y-43825000D01*
X5980000Y-40170000D02*
X5290000Y-40860000D01*
X3400000Y-35870000D02*
X3400000Y-36770000D01*
X5510000Y-37770000D02*
X5980000Y-38240000D01*
X4070000Y-34370000D02*
X4070000Y-35200000D01*
X3400000Y-36770000D02*
X4400000Y-37770000D01*
X4400000Y-37770000D02*
X5510000Y-37770000D01*
X5980000Y-38240000D02*
X5980000Y-40170000D01*
X4070000Y-35200000D02*
X3400000Y-35870000D01*
X16300500Y-29740500D02*
X15460000Y-28900000D01*
X61860000Y-35390000D02*
X64750000Y-32500000D01*
X21844000Y-27432000D02*
X21844000Y-27599672D01*
X58019500Y-32769500D02*
X58019500Y-24598010D01*
X26440500Y-32036015D02*
X26036015Y-32440500D01*
X41401290Y-32710500D02*
X40726805Y-32036015D01*
X40726805Y-32036015D02*
X32036015Y-32036015D01*
X32000000Y-32000000D02*
X31963985Y-32036015D01*
X31963985Y-32036015D02*
X26440500Y-32036015D01*
X59295500Y-33435500D02*
X58685500Y-33435500D01*
X32036015Y-32036015D02*
X32000000Y-32000000D01*
X23876000Y-26670000D02*
X23114000Y-25908000D01*
X56294010Y-23734500D02*
X54374790Y-25653720D01*
X61250000Y-35460000D02*
X60710000Y-36000000D01*
X61250000Y-35390000D02*
X59295500Y-33435500D01*
X58019500Y-24598010D02*
X57155990Y-23734500D01*
X15430000Y-29880000D02*
X15430000Y-28870000D01*
X15460000Y-29850000D02*
X15460000Y-28900000D01*
X45376844Y-32016828D02*
X44683172Y-32710500D01*
X26036015Y-32440500D02*
X25328500Y-32440500D01*
X54374790Y-25653720D02*
X54374790Y-25875210D01*
X48233172Y-32016828D02*
X45376844Y-32016828D01*
X58685500Y-33435500D02*
X58019500Y-32769500D01*
X57155990Y-23734500D02*
X56294010Y-23734500D01*
X21844000Y-27599672D02*
X19703172Y-29740500D01*
X25328500Y-32440500D02*
X23876000Y-30988000D01*
X54374790Y-25875210D02*
X48233172Y-32016828D01*
X61250000Y-35390000D02*
X61860000Y-35390000D01*
X44683172Y-32710500D02*
X41401290Y-32710500D01*
X60710000Y-36000000D02*
X60710000Y-36980000D01*
X23876000Y-30988000D02*
X23876000Y-26670000D01*
X19703172Y-29740500D02*
X16300500Y-29740500D01*
X37000000Y-18750000D02*
X38050748Y-17699252D01*
X15700000Y-3550000D02*
X16000000Y-3250000D01*
X38050748Y-17699252D02*
X28801496Y-8450000D01*
X28801496Y-8450000D02*
X24200000Y-8450000D01*
X42680000Y-22328504D02*
X42680000Y-29520000D01*
X18489500Y-2739500D02*
X17000500Y-2739500D01*
X42680000Y-29520000D02*
X43850000Y-30690000D01*
X36250000Y-18750000D02*
X37000000Y-18750000D01*
X24200000Y-8450000D02*
X18489500Y-2739500D01*
X16000000Y-3250000D02*
X16490000Y-3250000D01*
X38050748Y-17699252D02*
X42680000Y-22328504D01*
X17000500Y-2739500D02*
X16490000Y-3250000D01*
X20740000Y-8500000D02*
X22750000Y-8500000D01*
X23250000Y-9000000D02*
X25930000Y-9000000D01*
X16490000Y-4250000D02*
X16490000Y-4760000D01*
X38750000Y-25250000D02*
X41640000Y-28140000D01*
X16490000Y-4250000D02*
X20740000Y-8500000D01*
X41640000Y-28140000D02*
X41640000Y-31370000D01*
X25930000Y-9000000D02*
X33500000Y-16570000D01*
X33500000Y-20000000D02*
X38750000Y-25250000D01*
X41640000Y-31370000D02*
X41780000Y-31510000D01*
X33500000Y-16570000D02*
X33500000Y-20000000D01*
X15800000Y-5450000D02*
X15137500Y-5450000D01*
X22750000Y-8500000D02*
X23250000Y-9000000D01*
X16490000Y-4760000D02*
X15800000Y-5450000D01*
X41200000Y-39835000D02*
X41200000Y-35110000D01*
X43920000Y-42555000D02*
X41200000Y-39835000D01*
X55630000Y-38430000D02*
X55570000Y-38490000D01*
X55630000Y-36980000D02*
X55630000Y-38430000D01*
X28095000Y-29655000D02*
X35586496Y-29655000D01*
X36901496Y-30970000D02*
X40480000Y-30970000D01*
X21212500Y-19000000D02*
X25000000Y-19000000D01*
X28095000Y-29655000D02*
X26000000Y-31750000D01*
X20150000Y-20062500D02*
X21212500Y-19000000D01*
X43909000Y-40015000D02*
X42090000Y-38196000D01*
X20150000Y-18660000D02*
X20150000Y-20062500D01*
X35586496Y-29655000D02*
X36901496Y-30970000D01*
X28095000Y-22095000D02*
X28095000Y-29655000D01*
X42090000Y-38196000D02*
X42090000Y-37010000D01*
X25000000Y-19000000D02*
X28095000Y-22095000D01*
X41170000Y-30900000D02*
X41170000Y-32120000D01*
X41170000Y-32120000D02*
X41270000Y-32220000D01*
X44490000Y-37490000D02*
X44490000Y-35160000D01*
X48990000Y-41990000D02*
X44490000Y-37490000D01*
X41270000Y-32220000D02*
X44480000Y-32220000D01*
X37310000Y-30330000D02*
X40600000Y-30330000D01*
X40600000Y-30330000D02*
X41170000Y-30900000D01*
X29000000Y-25250000D02*
X30750000Y-25250000D01*
X21764500Y-14784500D02*
X37310000Y-30330000D01*
X4720000Y-21250000D02*
X9750000Y-21250000D01*
X9750000Y-21250000D02*
X16215500Y-14784500D01*
X47785000Y-51445000D02*
X48990000Y-50240000D01*
X44220000Y-51445000D02*
X47785000Y-51445000D01*
X16215500Y-14784500D02*
X21764500Y-14784500D01*
X48990000Y-50240000D02*
X48990000Y-41990000D01*
X30750000Y-25250000D02*
X31500000Y-24500000D01*
D45*
X20777000Y-17277000D02*
X22123000Y-17277000D01*
X19093514Y-21000000D02*
X17250000Y-21000000D01*
X17000000Y-19750000D02*
X16250000Y-19000000D01*
X17000000Y-16500000D02*
X20000000Y-16500000D01*
X17250000Y-21000000D02*
X17000000Y-20750000D01*
X22400000Y-16275000D02*
X21500000Y-15375000D01*
X16250000Y-17250000D02*
X17000000Y-16500000D01*
X22400000Y-17000000D02*
X22400000Y-16275000D01*
X20150000Y-22056486D02*
X19093514Y-21000000D01*
X22123000Y-17277000D02*
X22400000Y-17000000D01*
X17000000Y-20750000D02*
X17000000Y-19750000D01*
X16250000Y-19000000D02*
X16250000Y-17250000D01*
X20000000Y-16500000D02*
X20777000Y-17277000D01*
D43*
X62750000Y-35480592D02*
X62750000Y-37943672D01*
X37937500Y-9050000D02*
X38700000Y-9050000D01*
X35550000Y-9050000D02*
X37937500Y-9050000D01*
X60250000Y-38750000D02*
X59440000Y-37940000D01*
X33750000Y-5540500D02*
X33790500Y-5540500D01*
X61943672Y-38750000D02*
X60250000Y-38750000D01*
X61750000Y-33000000D02*
X63000000Y-33000000D01*
X65730592Y-33269408D02*
X63690500Y-35309500D01*
X60305500Y-31555500D02*
X61750000Y-33000000D01*
X35250000Y-8750000D02*
X35550000Y-9050000D01*
X39000000Y-8750000D02*
X39490000Y-8750000D01*
X33790500Y-5540500D02*
X35250000Y-7000000D01*
X43000000Y-8750000D02*
X43000000Y-6500000D01*
X65250000Y-31500000D02*
X65730592Y-31980592D01*
X43000000Y-6500000D02*
X39750000Y-3250000D01*
X63690500Y-35309500D02*
X62921092Y-35309500D01*
X59236990Y-20735500D02*
X54985500Y-20735500D01*
X38700000Y-9050000D02*
X39000000Y-8750000D01*
X54985500Y-20735500D02*
X43000000Y-8750000D01*
X60305500Y-21804010D02*
X59236990Y-20735500D01*
X60305500Y-31555500D02*
X60305500Y-21804010D01*
X64500000Y-31500000D02*
X65250000Y-31500000D01*
X36040500Y-3250000D02*
X33750000Y-5540500D01*
X27790500Y-5540500D02*
X33750000Y-5540500D01*
X62921092Y-35309500D02*
X62750000Y-35480592D01*
X62750000Y-37943672D02*
X61943672Y-38750000D01*
X65730592Y-31980592D02*
X65730592Y-33269408D01*
X39750000Y-3250000D02*
X36040500Y-3250000D01*
X59440000Y-37940000D02*
X59440000Y-36980000D01*
X35250000Y-7000000D02*
X35250000Y-8750000D01*
X63000000Y-33000000D02*
X64500000Y-31500000D01*
X26750000Y-4500000D02*
X27790500Y-5540500D01*
D45*
X17500000Y-22500000D02*
X18087500Y-22500000D01*
X21500000Y-16625000D02*
X20998499Y-16123499D01*
X20998499Y-16123499D02*
X16844049Y-16123499D01*
X15873499Y-17094049D02*
X15873499Y-20873499D01*
X15873499Y-20873499D02*
X17500000Y-22500000D01*
X16844049Y-16123499D02*
X15873499Y-17094049D01*
D43*
X26147500Y-12850000D02*
X26147500Y-17157500D01*
X38450000Y-29460000D02*
X40880000Y-29460000D01*
X41580000Y-38945000D02*
X41580000Y-36360000D01*
X26147500Y-17157500D02*
X38450000Y-29460000D01*
X43920000Y-41285000D02*
X41580000Y-38945000D01*
X41580000Y-36360000D02*
X42160000Y-35780000D01*
X21500000Y-11310000D02*
X21500000Y-13070000D01*
X18800000Y-13810000D02*
X20302500Y-13810000D01*
X21500000Y-13070000D02*
X20760000Y-13810000D01*
X20760000Y-10570000D02*
X21500000Y-11310000D01*
X23720000Y-14847500D02*
X23472500Y-14600000D01*
X24272500Y-13800000D02*
X23472500Y-14600000D01*
X23403499Y-14530999D02*
X23472500Y-14600000D01*
X16500000Y-9562500D02*
X16500000Y-11500000D01*
X16500000Y-11500000D02*
X17100000Y-12100000D01*
X17100000Y-12100000D02*
X17100000Y-13250000D01*
X16860000Y-13529408D02*
X17861591Y-14530999D01*
X14937500Y-8000000D02*
X16500000Y-9562500D01*
X23720000Y-15150000D02*
X23720000Y-14847500D01*
X17861591Y-14530999D02*
X23403499Y-14530999D01*
X16840000Y-62790000D02*
X13250000Y-62790000D01*
X22070000Y-57560000D02*
X28930000Y-57560000D01*
X34425000Y-11825000D02*
X31500000Y-8900000D01*
X22840000Y-12197500D02*
X22177500Y-12860000D01*
X31500000Y-8900000D02*
X43480000Y-20880000D01*
X22840000Y-11080000D02*
X22840000Y-12197500D01*
X28930000Y-57560000D02*
X29560000Y-58190000D01*
X36062500Y-10187500D02*
X34425000Y-11825000D01*
X24420000Y-9500000D02*
X22840000Y-11080000D01*
X16840000Y-62790000D02*
X22070000Y-57560000D01*
X43480000Y-20880000D02*
X43480000Y-26740000D01*
X29750000Y-58190000D02*
X29560000Y-58190000D01*
X43480000Y-26740000D02*
X46820000Y-30080000D01*
X25600000Y-9500000D02*
X24420000Y-9500000D01*
X13990500Y-6578000D02*
X13990500Y-8259500D01*
X12862500Y-5450000D02*
X13990500Y-6578000D01*
X13990500Y-8259500D02*
X13300000Y-8950000D01*
X12050000Y-8950000D02*
X13062500Y-8950000D01*
X11250000Y-9750000D02*
X12050000Y-8950000D01*
X8000000Y-9750000D02*
X11250000Y-9750000D01*
X7000000Y-10750000D02*
X8000000Y-9750000D01*
X7000000Y-11490000D02*
X7000000Y-10750000D01*
X4250000Y-14750000D02*
X4250000Y-11750000D01*
X8500000Y-17040000D02*
X6540000Y-17040000D01*
X11700000Y-7050000D02*
X13062500Y-7050000D01*
X6540000Y-17040000D02*
X4250000Y-14750000D01*
X11000000Y-7750000D02*
X11700000Y-7050000D01*
X4250000Y-11750000D02*
X8250000Y-7750000D01*
X8250000Y-7750000D02*
X11000000Y-7750000D01*
D46*
X26952000Y-48260000D02*
X26952000Y-46888700D01*
X29303600Y-48666400D02*
X28900000Y-49070000D01*
X26173500Y-46809900D02*
X26873200Y-46809900D01*
X28900000Y-49070000D02*
X27340000Y-49070000D01*
X24109400Y-44745800D02*
X24282400Y-44918800D01*
X31206200Y-47543900D02*
X31206200Y-48666400D01*
X22504400Y-44745800D02*
X24109400Y-44745800D01*
X26952000Y-48682000D02*
X26952000Y-48260000D01*
X26952000Y-46888700D02*
X26873200Y-46809900D01*
X27340000Y-49070000D02*
X26952000Y-48682000D01*
X31940200Y-46809900D02*
X31206200Y-47543900D01*
X24282400Y-44918800D02*
X26173500Y-46809900D01*
X31206200Y-48666400D02*
X29303600Y-48666400D01*
D45*
X18400000Y-19912500D02*
X18400000Y-18480000D01*
X18400000Y-18480000D02*
X18000000Y-18480000D01*
X19000000Y-18480000D02*
X18400000Y-18480000D01*
D46*
X17580000Y-34570000D02*
X17580000Y-34700000D01*
X17580000Y-34700000D02*
X18330000Y-35450000D01*
D43*
X17310000Y-36460000D02*
X17310000Y-35700000D01*
X17310000Y-36460000D02*
X17310000Y-37737500D01*
X18000000Y-38427500D02*
X18000000Y-39185000D01*
X14909500Y-38282000D02*
X15837500Y-39210000D01*
X17060000Y-35700000D02*
X15837500Y-35700000D01*
X17310000Y-37737500D02*
X18000000Y-38427500D01*
X15837500Y-35700000D02*
X14909500Y-36628000D01*
X14909500Y-36628000D02*
X14909500Y-38282000D01*
X17310000Y-35700000D02*
X17060000Y-35700000D01*
X17310000Y-35450000D02*
X17060000Y-35700000D01*
D44*
X15837500Y-41110000D02*
X16342000Y-41110000D01*
D46*
X16952000Y-40500000D02*
X17187000Y-40735000D01*
X17187000Y-40735000D02*
X18000000Y-40735000D01*
D44*
X16342000Y-41110000D02*
X16952000Y-40500000D01*
X16952000Y-38714500D02*
X15837500Y-37600000D01*
X16952000Y-40500000D02*
X16952000Y-38714500D01*
%TA.AperFunction,Conductor*%
G36*
X65217318Y-9488D02*
G01*
X65415917Y-18159D01*
X65420889Y-18577D01*
X65636792Y-45489D01*
X65792060Y-65931D01*
X65837233Y-71879D01*
X65841936Y-72680D01*
X66054183Y-117183D01*
X66252516Y-161153D01*
X66256799Y-162263D01*
X66464544Y-224112D01*
X66658634Y-285309D01*
X66662565Y-286695D01*
X66723716Y-310555D01*
X66864457Y-365472D01*
X67052741Y-443463D01*
X67056288Y-445063D01*
X67153904Y-492784D01*
X67250992Y-540248D01*
X67340625Y-586908D01*
X67431977Y-634462D01*
X67435129Y-636219D01*
X67621382Y-747202D01*
X67793631Y-856937D01*
X67796390Y-858798D01*
X67972918Y-984837D01*
X68135085Y-1109272D01*
X68137450Y-1111179D01*
X68303055Y-1251439D01*
X68454895Y-1390574D01*
X68609425Y-1545104D01*
X68748555Y-1696938D01*
X68771372Y-1723878D01*
X68888819Y-1862548D01*
X68890726Y-1864913D01*
X69015162Y-2027081D01*
X69141200Y-2203608D01*
X69143061Y-2206367D01*
X69252797Y-2378617D01*
X69363779Y-2564870D01*
X69365540Y-2568029D01*
X69459751Y-2749007D01*
X69554929Y-2943696D01*
X69556535Y-2947257D01*
X69634536Y-3135566D01*
X69713303Y-3337433D01*
X69714697Y-3341390D01*
X69775899Y-3535496D01*
X69837729Y-3743179D01*
X69838855Y-3747521D01*
X69882818Y-3945826D01*
X69927317Y-4158058D01*
X69928119Y-4162764D01*
X69954524Y-4363319D01*
X69981417Y-4579067D01*
X69981841Y-4584114D01*
X69990513Y-4782728D01*
X69999500Y-5000000D01*
X69999500Y-33947307D01*
X69999499Y-33947310D01*
X69999499Y-33997938D01*
X69999364Y-34002060D01*
X69994016Y-34083648D01*
X69981018Y-34265372D01*
X69979967Y-34273175D01*
X69956846Y-34389418D01*
X69925481Y-34533596D01*
X69923576Y-34540461D01*
X69883194Y-34659423D01*
X69833860Y-34791690D01*
X69831334Y-34797541D01*
X69774420Y-34912951D01*
X69707843Y-35034877D01*
X69704930Y-35039687D01*
X69633485Y-35146612D01*
X69631537Y-35149366D01*
X69549768Y-35258597D01*
X69546698Y-35262384D01*
X69461537Y-35359490D01*
X69458718Y-35362500D01*
X69362502Y-35458716D01*
X69359498Y-35461530D01*
X69351298Y-35468722D01*
X69286898Y-35498606D01*
X69268210Y-35500000D01*
X68126000Y-35500000D01*
X68057879Y-35479998D01*
X68011386Y-35426342D01*
X68000000Y-35374000D01*
X68000000Y-8000000D01*
X67999999Y-7999999D01*
X67532563Y-7532563D01*
X67498540Y-7470253D01*
X67503604Y-7399438D01*
X67525628Y-7361899D01*
X67753745Y-7093340D01*
X67963932Y-6783337D01*
X67963934Y-6783333D01*
X68139370Y-6452424D01*
X68139374Y-6452416D01*
X68278001Y-6104484D01*
X68378203Y-5743593D01*
X68438795Y-5373992D01*
X68459073Y-5000000D01*
X68459073Y-4999996D01*
X68438795Y-4626007D01*
X68378203Y-4256406D01*
X68278001Y-3895515D01*
X68139374Y-3547583D01*
X68139370Y-3547575D01*
X67963934Y-3216666D01*
X67963932Y-3216662D01*
X67753745Y-2906660D01*
X67677764Y-2817207D01*
X66351588Y-4143382D01*
X66298430Y-4056635D01*
X66134870Y-3865130D01*
X65943365Y-3701570D01*
X65856614Y-3648409D01*
X67183703Y-2321321D01*
X67183703Y-2321320D01*
X66941192Y-2136966D01*
X66941189Y-2136964D01*
X66620264Y-1943870D01*
X66280332Y-1786601D01*
X65925406Y-1667011D01*
X65925401Y-1667010D01*
X65559632Y-1586498D01*
X65559604Y-1586493D01*
X65187277Y-1546000D01*
X64812722Y-1546000D01*
X64440395Y-1586493D01*
X64440367Y-1586498D01*
X64074598Y-1667010D01*
X64074593Y-1667011D01*
X63719667Y-1786601D01*
X63379735Y-1943870D01*
X63058815Y-2136961D01*
X62760645Y-2363625D01*
X62760629Y-2363638D01*
X62645786Y-2472423D01*
X62582575Y-2504748D01*
X62511923Y-2497767D01*
X62470043Y-2470043D01*
X62000000Y-2000000D01*
X59857369Y-2000000D01*
X59789248Y-1979998D01*
X59742755Y-1926342D01*
X59738196Y-1914912D01*
X59726350Y-1880405D01*
X59726349Y-1880404D01*
X59726349Y-1880403D01*
X59612929Y-1670821D01*
X59466560Y-1482765D01*
X59291234Y-1321367D01*
X59291231Y-1321365D01*
X59291230Y-1321364D01*
X59091733Y-1191026D01*
X59091734Y-1191026D01*
X58873505Y-1095302D01*
X58873498Y-1095299D01*
X58642497Y-1036802D01*
X58642492Y-1036801D01*
X58642490Y-1036801D01*
X58514846Y-1026224D01*
X58464474Y-1022050D01*
X58464472Y-1022050D01*
X58345528Y-1022050D01*
X58345526Y-1022050D01*
X58286851Y-1026912D01*
X58167510Y-1036801D01*
X58167508Y-1036801D01*
X58167502Y-1036802D01*
X57936501Y-1095299D01*
X57936494Y-1095302D01*
X57718266Y-1191026D01*
X57518769Y-1321364D01*
X57343442Y-1482762D01*
X57197071Y-1670820D01*
X57197070Y-1670821D01*
X57083651Y-1880403D01*
X57083649Y-1880405D01*
X57071804Y-1914912D01*
X57030767Y-1972847D01*
X56964922Y-1999399D01*
X56952631Y-2000000D01*
X55766936Y-2000000D01*
X55718718Y-1990409D01*
X55644752Y-1959771D01*
X55500000Y-1940715D01*
X55355246Y-1959771D01*
X55355245Y-1959772D01*
X55281282Y-1990409D01*
X55233064Y-2000000D01*
X54142369Y-2000000D01*
X54074248Y-1979998D01*
X54027755Y-1926342D01*
X54023196Y-1914912D01*
X54011350Y-1880405D01*
X54011349Y-1880404D01*
X54011349Y-1880403D01*
X53897929Y-1670821D01*
X53751560Y-1482765D01*
X53576234Y-1321367D01*
X53576231Y-1321365D01*
X53576230Y-1321364D01*
X53376733Y-1191026D01*
X53376734Y-1191026D01*
X53158505Y-1095302D01*
X53158498Y-1095299D01*
X52927497Y-1036802D01*
X52927492Y-1036801D01*
X52927490Y-1036801D01*
X52799846Y-1026224D01*
X52749474Y-1022050D01*
X52749472Y-1022050D01*
X52630528Y-1022050D01*
X52630526Y-1022050D01*
X52571851Y-1026912D01*
X52452510Y-1036801D01*
X52452508Y-1036801D01*
X52452502Y-1036802D01*
X52221501Y-1095299D01*
X52221494Y-1095302D01*
X52003266Y-1191026D01*
X51803769Y-1321364D01*
X51628442Y-1482762D01*
X51482071Y-1670820D01*
X51482070Y-1670821D01*
X51368651Y-1880403D01*
X51368649Y-1880405D01*
X51356804Y-1914912D01*
X51315767Y-1972847D01*
X51249922Y-1999399D01*
X51237631Y-2000000D01*
X20483040Y-2000000D01*
X20414919Y-1979998D01*
X20410775Y-1977217D01*
X20395969Y-1966850D01*
X20395968Y-1966849D01*
X20389529Y-1963847D01*
X20376624Y-1958501D01*
X20369937Y-1956067D01*
X20331102Y-1949219D01*
X20325735Y-1948029D01*
X20287644Y-1937823D01*
X20287643Y-1937823D01*
X20248350Y-1941260D01*
X20242858Y-1941500D01*
X14007142Y-1941500D01*
X14001650Y-1941260D01*
X13966630Y-1938196D01*
X13962357Y-1937823D01*
X13962356Y-1937823D01*
X13962355Y-1937823D01*
X13924256Y-1948031D01*
X13918892Y-1949220D01*
X13894530Y-1953516D01*
X13880060Y-1956068D01*
X13880058Y-1956068D01*
X13873407Y-1958489D01*
X13860471Y-1963847D01*
X13854030Y-1966850D01*
X13839226Y-1977216D01*
X13771952Y-1999901D01*
X13766960Y-2000000D01*
X8000000Y-2000000D01*
X7529956Y-2470043D01*
X7467644Y-2504068D01*
X7396828Y-2499003D01*
X7354211Y-2472422D01*
X7239370Y-2363638D01*
X7239354Y-2363625D01*
X6941184Y-2136961D01*
X6620264Y-1943870D01*
X6280332Y-1786601D01*
X5925406Y-1667011D01*
X5925401Y-1667010D01*
X5559632Y-1586498D01*
X5559604Y-1586493D01*
X5187277Y-1546000D01*
X4812722Y-1546000D01*
X4440395Y-1586493D01*
X4440367Y-1586498D01*
X4074598Y-1667010D01*
X4074593Y-1667011D01*
X3719667Y-1786601D01*
X3379735Y-1943870D01*
X3058810Y-2136964D01*
X3058807Y-2136966D01*
X2816295Y-2321320D01*
X2816295Y-2321321D01*
X4143384Y-3648410D01*
X4056635Y-3701570D01*
X3865130Y-3865130D01*
X3701570Y-4056635D01*
X3648410Y-4143383D01*
X2322234Y-2817207D01*
X2246253Y-2906660D01*
X2036067Y-3216662D01*
X2036065Y-3216666D01*
X1860629Y-3547575D01*
X1860625Y-3547583D01*
X1721998Y-3895515D01*
X1621796Y-4256406D01*
X1561204Y-4626007D01*
X1540927Y-4999996D01*
X1540927Y-5000000D01*
X1561204Y-5373992D01*
X1621796Y-5743593D01*
X1721998Y-6104484D01*
X1860625Y-6452416D01*
X1860629Y-6452424D01*
X2036065Y-6783333D01*
X2036067Y-6783337D01*
X2246255Y-7093340D01*
X2246254Y-7093340D01*
X2474370Y-7361898D01*
X2503226Y-7426766D01*
X2492431Y-7496937D01*
X2467434Y-7532564D01*
X2000000Y-7999999D01*
X2000000Y-34305011D01*
X1979998Y-34373132D01*
X1926342Y-34419625D01*
X1856068Y-34429729D01*
X1844944Y-34427615D01*
X1838129Y-34426000D01*
X1800000Y-34426000D01*
X1800000Y-34830000D01*
X2000000Y-34830000D01*
X2000000Y-35000000D01*
X2632499Y-35000000D01*
X2700620Y-35020002D01*
X2747113Y-35073658D01*
X2758499Y-35126000D01*
X2758499Y-37018361D01*
X2758259Y-37023853D01*
X2754822Y-37063147D01*
X2765028Y-37101239D01*
X2766218Y-37106606D01*
X2773066Y-37145441D01*
X2775500Y-37152128D01*
X2780846Y-37165033D01*
X2783848Y-37171472D01*
X2806469Y-37203779D01*
X2809417Y-37208405D01*
X2829139Y-37242564D01*
X2846917Y-37257482D01*
X2859349Y-37267913D01*
X2863392Y-37271617D01*
X4116357Y-38524582D01*
X4120061Y-38528625D01*
X4145416Y-38558841D01*
X4145418Y-38558843D01*
X4179572Y-38578562D01*
X4184197Y-38581508D01*
X4201960Y-38593946D01*
X4216514Y-38604137D01*
X4222966Y-38607145D01*
X4235828Y-38612472D01*
X4242536Y-38614914D01*
X4242538Y-38614915D01*
X4281390Y-38621765D01*
X4286726Y-38622948D01*
X4324835Y-38633160D01*
X4349896Y-38630967D01*
X4364128Y-38629723D01*
X4369620Y-38629483D01*
X4841459Y-38629483D01*
X4909580Y-38649485D01*
X4941422Y-38678780D01*
X4963043Y-38706957D01*
X5074721Y-38792652D01*
X5078874Y-38795838D01*
X5213763Y-38851711D01*
X5358517Y-38870768D01*
X5503271Y-38851711D01*
X5503278Y-38851707D01*
X5503375Y-38851682D01*
X5503473Y-38851684D01*
X5511459Y-38850633D01*
X5511622Y-38851877D01*
X5574352Y-38853364D01*
X5633152Y-38893151D01*
X5661107Y-38958413D01*
X5662000Y-38973385D01*
X5662000Y-39986088D01*
X5641998Y-40054209D01*
X5625095Y-40075184D01*
X5430754Y-40269524D01*
X5368442Y-40303549D01*
X5325215Y-40305350D01*
X5290003Y-40300715D01*
X5290000Y-40300715D01*
X5145247Y-40319771D01*
X5077802Y-40347708D01*
X5010358Y-40375645D01*
X5010357Y-40375646D01*
X5010356Y-40375646D01*
X4894526Y-40464526D01*
X4805646Y-40580356D01*
X4805645Y-40580358D01*
X4785632Y-40628674D01*
X4749771Y-40715247D01*
X4730715Y-40859999D01*
X4730715Y-40860000D01*
X4749771Y-41004752D01*
X4805644Y-41139641D01*
X4805649Y-41139649D01*
X4894525Y-41255474D01*
X5010254Y-41344276D01*
X5010357Y-41344355D01*
X5145246Y-41400228D01*
X5290000Y-41419285D01*
X5434754Y-41400228D01*
X5569643Y-41344355D01*
X5685474Y-41255474D01*
X5774355Y-41139643D01*
X5830228Y-41004754D01*
X5849285Y-40860000D01*
X5844648Y-40824783D01*
X5855586Y-40754638D01*
X5880472Y-40719246D01*
X6193109Y-40406609D01*
X6197141Y-40402916D01*
X6206010Y-40395474D01*
X6227360Y-40377560D01*
X6247088Y-40343388D01*
X6250014Y-40338794D01*
X6272651Y-40306466D01*
X6272652Y-40306463D01*
X6275683Y-40299963D01*
X6280985Y-40287162D01*
X6283432Y-40280440D01*
X6283573Y-40279643D01*
X6290282Y-40241587D01*
X6291470Y-40236231D01*
X6301677Y-40198143D01*
X6299574Y-40174110D01*
X6298240Y-40158850D01*
X6298000Y-40153358D01*
X6298000Y-38256641D01*
X6298240Y-38251149D01*
X6299499Y-38236745D01*
X6301677Y-38211857D01*
X6291467Y-38173757D01*
X6290283Y-38168416D01*
X6283432Y-38129560D01*
X6283431Y-38129558D01*
X6283431Y-38129557D01*
X6280996Y-38122866D01*
X6275674Y-38110017D01*
X6272653Y-38103537D01*
X6267922Y-38096780D01*
X6250022Y-38071216D01*
X6247078Y-38066593D01*
X6242859Y-38059285D01*
X6227360Y-38032440D01*
X6197142Y-38007083D01*
X6193099Y-38003379D01*
X5746613Y-37556893D01*
X5742909Y-37552850D01*
X5722182Y-37528149D01*
X5717560Y-37522640D01*
X5717559Y-37522639D01*
X5688301Y-37505747D01*
X5683401Y-37502918D01*
X5678775Y-37499970D01*
X5646468Y-37477349D01*
X5640029Y-37474347D01*
X5627124Y-37469001D01*
X5620437Y-37466567D01*
X5581602Y-37459719D01*
X5576235Y-37458529D01*
X5538144Y-37448323D01*
X5538143Y-37448323D01*
X5498850Y-37451760D01*
X5493358Y-37452000D01*
X4583910Y-37452000D01*
X4515789Y-37431998D01*
X4494815Y-37415095D01*
X3754905Y-36675185D01*
X3720879Y-36612873D01*
X3718000Y-36586090D01*
X3718000Y-36053910D01*
X3738002Y-35985789D01*
X3754900Y-35964819D01*
X4212225Y-35507493D01*
X4274536Y-35473470D01*
X4345351Y-35478534D01*
X4402187Y-35521081D01*
X4417014Y-35546682D01*
X4422570Y-35559563D01*
X4527830Y-35700952D01*
X4662849Y-35814245D01*
X4804051Y-35885160D01*
X4855949Y-35933608D01*
X4873416Y-36002422D01*
X4850906Y-36069756D01*
X4815986Y-36101840D01*
X4816319Y-36102274D01*
X4811439Y-36106018D01*
X4810507Y-36106875D01*
X4809763Y-36107304D01*
X4689548Y-36199548D01*
X4597306Y-36319760D01*
X4597301Y-36319768D01*
X4539312Y-36459765D01*
X4519534Y-36609999D01*
X4519534Y-36610000D01*
X4539312Y-36760234D01*
X4597301Y-36900231D01*
X4597306Y-36900239D01*
X4689548Y-37020451D01*
X4809760Y-37112693D01*
X4809767Y-37112698D01*
X4949764Y-37170687D01*
X5062280Y-37185500D01*
X5062287Y-37185500D01*
X5137713Y-37185500D01*
X5137720Y-37185500D01*
X5250236Y-37170687D01*
X5390233Y-37112698D01*
X5510451Y-37020451D01*
X5602698Y-36900233D01*
X5602699Y-36900230D01*
X5604018Y-36897947D01*
X5605637Y-36896402D01*
X5607726Y-36893681D01*
X5608150Y-36894006D01*
X5655400Y-36848953D01*
X5725113Y-36835515D01*
X5748636Y-36840049D01*
X5779074Y-36848987D01*
X5779077Y-36848987D01*
X5779081Y-36848989D01*
X5852190Y-36859500D01*
X5852193Y-36859500D01*
X6874000Y-36859500D01*
X6942121Y-36879502D01*
X6988614Y-36933158D01*
X7000000Y-36985500D01*
X7000000Y-42014500D01*
X6979998Y-42082621D01*
X6926342Y-42129114D01*
X6874000Y-42140500D01*
X5925993Y-42140500D01*
X5870837Y-42146430D01*
X5818510Y-42157813D01*
X5818499Y-42157816D01*
X5803949Y-42161808D01*
X5791711Y-42165165D01*
X5791706Y-42165167D01*
X5784790Y-42169106D01*
X5715695Y-42185430D01*
X5648744Y-42161808D01*
X5606036Y-42107827D01*
X5602698Y-42099767D01*
X5602693Y-42099760D01*
X5510451Y-41979548D01*
X5390239Y-41887306D01*
X5390231Y-41887301D01*
X5250234Y-41829312D01*
X5137722Y-41814500D01*
X5137720Y-41814500D01*
X5062280Y-41814500D01*
X5062277Y-41814500D01*
X4949765Y-41829312D01*
X4809768Y-41887301D01*
X4809760Y-41887306D01*
X4689548Y-41979548D01*
X4597306Y-42099760D01*
X4597301Y-42099768D01*
X4539312Y-42239765D01*
X4519534Y-42389999D01*
X4519534Y-42390000D01*
X4539312Y-42540234D01*
X4597301Y-42680231D01*
X4597306Y-42680239D01*
X4689548Y-42800451D01*
X4809762Y-42892695D01*
X4812946Y-42894533D01*
X4815094Y-42896786D01*
X4816319Y-42897726D01*
X4816172Y-42897916D01*
X4861939Y-42945915D01*
X4875377Y-43015628D01*
X4848991Y-43081540D01*
X4793043Y-43122054D01*
X4739302Y-43141614D01*
X4739299Y-43141615D01*
X4592037Y-43238471D01*
X4592036Y-43238472D01*
X4471083Y-43366675D01*
X4471080Y-43366679D01*
X4411428Y-43469999D01*
X4411429Y-43470000D01*
X5280000Y-43470000D01*
X5280000Y-43022548D01*
X5300002Y-42954427D01*
X5353658Y-42907934D01*
X5357747Y-42906153D01*
X5390233Y-42892698D01*
X5492391Y-42814308D01*
X5558608Y-42788709D01*
X5628157Y-42802973D01*
X5658188Y-42825176D01*
X5943096Y-43110084D01*
X5977120Y-43172395D01*
X5980000Y-43199178D01*
X5980000Y-43520000D01*
X5052198Y-43520000D01*
X4969750Y-43535412D01*
X4874390Y-43594457D01*
X4806799Y-43683962D01*
X4776105Y-43791840D01*
X4786454Y-43903521D01*
X4834495Y-44000000D01*
X2500000Y-44000000D01*
X2500000Y-44132915D01*
X2470342Y-44158614D01*
X2418000Y-44170000D01*
X1800000Y-44170000D01*
X1800000Y-44573287D01*
X1925068Y-44558669D01*
X2090693Y-44498387D01*
X2090700Y-44498384D01*
X2237962Y-44401528D01*
X2237962Y-44401527D01*
X2282351Y-44354479D01*
X2343647Y-44318656D01*
X2414580Y-44321658D01*
X2472629Y-44362534D01*
X2499364Y-44428304D01*
X2500000Y-44440945D01*
X2500000Y-44750000D01*
X2750000Y-44750000D01*
X2955962Y-44752466D01*
X2961357Y-44752764D01*
X3370927Y-44793103D01*
X3377013Y-44794006D01*
X3631766Y-44844680D01*
X3780260Y-44874218D01*
X3786261Y-44875721D01*
X4179706Y-44995070D01*
X4185524Y-44997152D01*
X4565376Y-45154491D01*
X4570958Y-45157131D01*
X4752258Y-45254039D01*
X4933553Y-45350944D01*
X4938859Y-45354124D01*
X5113200Y-45470614D01*
X5280453Y-45582369D01*
X5280708Y-45582539D01*
X5285676Y-45586223D01*
X5595175Y-45840223D01*
X5603498Y-45847053D01*
X5608070Y-45851197D01*
X5898801Y-46141928D01*
X5902943Y-46146498D01*
X6005149Y-46271036D01*
X6163775Y-46464322D01*
X6167460Y-46469291D01*
X6395875Y-46811140D01*
X6399055Y-46816446D01*
X6592865Y-47179036D01*
X6595510Y-47184628D01*
X6752845Y-47564469D01*
X6754929Y-47570293D01*
X6874278Y-47963738D01*
X6875781Y-47969739D01*
X6955991Y-48372976D01*
X6956899Y-48379095D01*
X6997234Y-48788624D01*
X6997533Y-48794048D01*
X7000000Y-49000000D01*
X7000000Y-56750000D01*
X6997533Y-56955951D01*
X6997234Y-56961375D01*
X6956899Y-57370904D01*
X6955991Y-57377023D01*
X6875781Y-57780260D01*
X6874278Y-57786261D01*
X6754929Y-58179706D01*
X6752845Y-58185530D01*
X6595510Y-58565371D01*
X6592865Y-58570963D01*
X6399055Y-58933553D01*
X6395875Y-58938859D01*
X6167460Y-59280708D01*
X6163775Y-59285677D01*
X5902946Y-59603498D01*
X5898792Y-59608081D01*
X5608081Y-59898792D01*
X5603498Y-59902946D01*
X5285677Y-60163775D01*
X5280708Y-60167460D01*
X4938859Y-60395875D01*
X4933553Y-60399055D01*
X4570963Y-60592865D01*
X4565371Y-60595510D01*
X4185530Y-60752845D01*
X4179706Y-60754929D01*
X3786261Y-60874278D01*
X3780260Y-60875781D01*
X3377023Y-60955991D01*
X3370907Y-60956898D01*
X3186174Y-60975093D01*
X2961375Y-60997234D01*
X2955951Y-60997533D01*
X2750000Y-61000000D01*
X2665726Y-61002043D01*
X2501405Y-61039548D01*
X2501398Y-61039551D01*
X2349549Y-61112677D01*
X2349541Y-61112682D01*
X2217768Y-61217768D01*
X2112682Y-61349541D01*
X2112677Y-61349549D01*
X2039551Y-61501398D01*
X2039548Y-61501405D01*
X2002043Y-61665726D01*
X2000000Y-61750000D01*
X2000000Y-63253357D01*
X1985323Y-63312376D01*
X1860629Y-63547575D01*
X1860625Y-63547583D01*
X1721998Y-63895515D01*
X1621796Y-64256406D01*
X1561204Y-64626007D01*
X1540927Y-64999996D01*
X1540927Y-65000000D01*
X1561204Y-65373992D01*
X1621796Y-65743593D01*
X1721998Y-66104484D01*
X1860625Y-66452416D01*
X1860629Y-66452424D01*
X2036065Y-66783333D01*
X2036067Y-66783337D01*
X2246254Y-67093339D01*
X2322234Y-67182791D01*
X3648409Y-65856615D01*
X3701570Y-65943365D01*
X3865130Y-66134870D01*
X4056635Y-66298430D01*
X4143382Y-66351589D01*
X2816295Y-67678677D01*
X2816295Y-67678678D01*
X3058807Y-67863033D01*
X3058810Y-67863035D01*
X3379735Y-68056129D01*
X3719667Y-68213398D01*
X4074593Y-68332988D01*
X4074598Y-68332989D01*
X4440367Y-68413501D01*
X4440395Y-68413506D01*
X4812722Y-68453999D01*
X4812738Y-68454000D01*
X5187262Y-68454000D01*
X5187277Y-68453999D01*
X5559604Y-68413506D01*
X5559632Y-68413501D01*
X5925401Y-68332989D01*
X5925406Y-68332988D01*
X6280332Y-68213398D01*
X6620264Y-68056129D01*
X6941184Y-67863038D01*
X7239354Y-67636374D01*
X7239360Y-67636369D01*
X7354210Y-67527576D01*
X7417420Y-67495251D01*
X7488073Y-67502231D01*
X7529954Y-67529954D01*
X8000000Y-68000000D01*
X49243851Y-68000000D01*
X49311972Y-68020002D01*
X49326366Y-68030778D01*
X49326942Y-68031277D01*
X49331261Y-68033249D01*
X49354425Y-68046992D01*
X49358233Y-68049843D01*
X49375087Y-68056129D01*
X49407203Y-68068108D01*
X49411360Y-68069830D01*
X49453097Y-68088890D01*
X49458904Y-68091542D01*
X49463601Y-68092217D01*
X49489709Y-68098880D01*
X49494158Y-68100540D01*
X49546315Y-68104270D01*
X49550738Y-68104745D01*
X49566417Y-68107000D01*
X49582232Y-68107000D01*
X49586728Y-68107161D01*
X49605428Y-68108497D01*
X49638860Y-68110889D01*
X49643503Y-68109878D01*
X49670284Y-68107000D01*
X53693917Y-68107000D01*
X58929716Y-68107000D01*
X58956496Y-68109878D01*
X58961140Y-68110889D01*
X58995603Y-68108424D01*
X59013272Y-68107161D01*
X59017768Y-68107000D01*
X59033582Y-68107000D01*
X59033583Y-68107000D01*
X59049241Y-68104748D01*
X59053704Y-68104269D01*
X59078861Y-68102469D01*
X59105842Y-68100540D01*
X59110286Y-68098882D01*
X59136398Y-68092217D01*
X59141096Y-68091542D01*
X59188649Y-68069824D01*
X59192784Y-68068112D01*
X59241767Y-68049843D01*
X59245562Y-68047002D01*
X59268738Y-68033249D01*
X59273058Y-68031277D01*
X59273634Y-68030778D01*
X59274325Y-68030461D01*
X59280644Y-68026402D01*
X59281227Y-68027309D01*
X59338214Y-68001283D01*
X59356149Y-68000000D01*
X61999999Y-68000000D01*
X62000000Y-68000000D01*
X62470044Y-67529955D01*
X62532355Y-67495932D01*
X62603170Y-67500996D01*
X62645788Y-67527577D01*
X62760629Y-67636361D01*
X62760645Y-67636374D01*
X63058815Y-67863038D01*
X63379735Y-68056129D01*
X63719667Y-68213398D01*
X64074593Y-68332988D01*
X64074598Y-68332989D01*
X64440367Y-68413501D01*
X64440395Y-68413506D01*
X64812722Y-68453999D01*
X64812738Y-68454000D01*
X65187262Y-68454000D01*
X65187277Y-68453999D01*
X65559604Y-68413506D01*
X65559632Y-68413501D01*
X65925401Y-68332989D01*
X65925406Y-68332988D01*
X66280332Y-68213398D01*
X66620264Y-68056129D01*
X66941189Y-67863035D01*
X66941192Y-67863033D01*
X67183704Y-67678678D01*
X67183704Y-67678677D01*
X65856616Y-66351589D01*
X65943365Y-66298430D01*
X66134870Y-66134870D01*
X66298430Y-65943365D01*
X66351589Y-65856615D01*
X67677765Y-67182791D01*
X67753745Y-67093339D01*
X67963932Y-66783337D01*
X67963934Y-66783333D01*
X68139370Y-66452424D01*
X68139374Y-66452416D01*
X68278001Y-66104484D01*
X68378203Y-65743593D01*
X68438795Y-65373992D01*
X68459073Y-65000000D01*
X68459073Y-64999996D01*
X68438795Y-64626007D01*
X68378203Y-64256406D01*
X68278001Y-63895515D01*
X68139374Y-63547583D01*
X68139370Y-63547575D01*
X67963934Y-63216666D01*
X67963932Y-63216662D01*
X67753744Y-62906659D01*
X67753745Y-62906659D01*
X67525628Y-62638100D01*
X67496772Y-62573232D01*
X67507567Y-62503061D01*
X67532560Y-62467439D01*
X68000000Y-62000000D01*
X68000000Y-55686572D01*
X68020002Y-55618451D01*
X68073658Y-55571958D01*
X68125028Y-55560576D01*
X69319450Y-55551388D01*
X69387716Y-55570864D01*
X69409508Y-55588288D01*
X69458737Y-55637517D01*
X69461542Y-55640512D01*
X69546699Y-55737614D01*
X69549769Y-55741401D01*
X69631529Y-55850621D01*
X69633478Y-55853374D01*
X69704935Y-55960317D01*
X69707848Y-55965127D01*
X69774421Y-56087047D01*
X69831335Y-56202456D01*
X69833861Y-56208307D01*
X69883192Y-56340568D01*
X69923577Y-56459536D01*
X69925482Y-56466401D01*
X69956847Y-56610580D01*
X69979968Y-56726821D01*
X69981019Y-56734625D01*
X69994017Y-56916350D01*
X69999365Y-56997938D01*
X69999500Y-57002060D01*
X69999500Y-65000000D01*
X69990513Y-65217271D01*
X69981841Y-65415884D01*
X69981417Y-65420931D01*
X69954524Y-65636680D01*
X69928119Y-65837234D01*
X69927317Y-65841940D01*
X69882818Y-66054173D01*
X69838855Y-66252477D01*
X69837729Y-66256819D01*
X69775899Y-66464503D01*
X69714697Y-66658608D01*
X69713303Y-66662565D01*
X69634536Y-66864433D01*
X69556535Y-67052741D01*
X69554929Y-67056302D01*
X69459751Y-67250992D01*
X69365540Y-67431969D01*
X69363779Y-67435128D01*
X69252797Y-67621382D01*
X69143061Y-67793631D01*
X69141200Y-67796389D01*
X69015162Y-67972918D01*
X68890726Y-68135085D01*
X68888819Y-68137450D01*
X68748557Y-68303058D01*
X68609425Y-68454895D01*
X68454895Y-68609425D01*
X68303058Y-68748557D01*
X68137450Y-68888819D01*
X68135085Y-68890726D01*
X67972918Y-69015162D01*
X67796389Y-69141200D01*
X67793631Y-69143061D01*
X67621382Y-69252797D01*
X67435128Y-69363779D01*
X67431969Y-69365540D01*
X67250992Y-69459751D01*
X67056302Y-69554929D01*
X67052741Y-69556535D01*
X66864433Y-69634536D01*
X66662565Y-69713303D01*
X66658608Y-69714697D01*
X66464503Y-69775899D01*
X66256819Y-69837729D01*
X66252477Y-69838855D01*
X66054173Y-69882818D01*
X65841940Y-69927317D01*
X65837234Y-69928119D01*
X65636680Y-69954524D01*
X65420931Y-69981417D01*
X65415884Y-69981841D01*
X65217271Y-69990513D01*
X65000000Y-69999500D01*
X5000000Y-69999500D01*
X4782728Y-69990513D01*
X4584114Y-69981841D01*
X4579067Y-69981417D01*
X4363319Y-69954524D01*
X4162764Y-69928119D01*
X4158058Y-69927317D01*
X3945826Y-69882818D01*
X3747521Y-69838855D01*
X3743179Y-69837729D01*
X3535496Y-69775899D01*
X3341390Y-69714697D01*
X3337433Y-69713303D01*
X3135566Y-69634536D01*
X2947257Y-69556535D01*
X2943696Y-69554929D01*
X2749007Y-69459751D01*
X2568029Y-69365540D01*
X2564870Y-69363779D01*
X2378617Y-69252797D01*
X2206367Y-69143061D01*
X2203608Y-69141200D01*
X2027081Y-69015162D01*
X1864913Y-68890726D01*
X1862548Y-68888819D01*
X1696940Y-68748557D01*
X1545104Y-68609425D01*
X1390574Y-68454895D01*
X1352648Y-68413506D01*
X1251439Y-68303055D01*
X1111179Y-68137450D01*
X1109272Y-68135085D01*
X984837Y-67972918D01*
X858798Y-67796390D01*
X858797Y-67796389D01*
X858794Y-67796384D01*
X856937Y-67793631D01*
X747202Y-67621382D01*
X636219Y-67435129D01*
X636218Y-67435128D01*
X636214Y-67435121D01*
X634458Y-67431969D01*
X540248Y-67250992D01*
X483193Y-67134285D01*
X445063Y-67056288D01*
X443463Y-67052741D01*
X365463Y-66864433D01*
X357784Y-66844754D01*
X309010Y-66719754D01*
X286695Y-66662565D01*
X285309Y-66658634D01*
X224100Y-66464503D01*
X162263Y-66256799D01*
X161153Y-66252516D01*
X117175Y-66054145D01*
X111495Y-66027057D01*
X72680Y-65841936D01*
X71879Y-65837233D01*
X59551Y-65743593D01*
X45489Y-65636791D01*
X18577Y-65420889D01*
X18159Y-65415917D01*
X9486Y-65217271D01*
X500Y-65000000D01*
X500Y-64999500D01*
X500Y-61751901D01*
X615Y-61748096D01*
X716Y-61746430D01*
X6485Y-61651040D01*
X20079Y-61443642D01*
X20970Y-61436462D01*
X45843Y-61300732D01*
X78931Y-61134389D01*
X80559Y-61127990D01*
X123922Y-60988834D01*
X134763Y-60956899D01*
X176147Y-60834985D01*
X178343Y-60829412D01*
X239520Y-60693481D01*
X310187Y-60550184D01*
X312766Y-60545475D01*
X390074Y-60417591D01*
X391556Y-60415262D01*
X478975Y-60284430D01*
X481738Y-60280614D01*
X574335Y-60162422D01*
X576498Y-60159814D01*
X679889Y-60041918D01*
X682646Y-60038975D01*
X788975Y-59932646D01*
X791918Y-59929889D01*
X909814Y-59826498D01*
X912422Y-59824335D01*
X1030614Y-59731738D01*
X1034430Y-59728975D01*
X1165262Y-59641556D01*
X1167591Y-59640074D01*
X1295475Y-59562766D01*
X1300184Y-59560187D01*
X1443481Y-59489520D01*
X1579412Y-59428342D01*
X1584985Y-59426147D01*
X1738812Y-59373929D01*
X1877990Y-59330559D01*
X1884389Y-59328931D01*
X2050732Y-59295843D01*
X2186462Y-59270970D01*
X2193642Y-59270079D01*
X2401027Y-59256486D01*
X2498100Y-59250614D01*
X2501902Y-59250500D01*
X2651248Y-59250500D01*
X2651252Y-59250500D01*
X2951551Y-59214037D01*
X3245266Y-59141643D01*
X3528113Y-59034373D01*
X3528121Y-59034368D01*
X3528125Y-59034367D01*
X3670253Y-58959772D01*
X3795967Y-58893792D01*
X4044924Y-58721950D01*
X4271352Y-58521352D01*
X4471950Y-58294924D01*
X4643792Y-58045967D01*
X4784373Y-57778113D01*
X4891643Y-57495266D01*
X4964037Y-57201551D01*
X5000500Y-56901252D01*
X5000500Y-56750000D01*
X5000500Y-56749500D01*
X5000500Y-49249901D01*
X5000500Y-49098748D01*
X4964037Y-48798449D01*
X4891643Y-48504734D01*
X4784373Y-48221887D01*
X4784371Y-48221883D01*
X4784367Y-48221874D01*
X4643793Y-47954035D01*
X4643789Y-47954028D01*
X4566871Y-47842593D01*
X4471950Y-47705076D01*
X4271352Y-47478648D01*
X4044924Y-47278050D01*
X3921638Y-47192952D01*
X3795971Y-47106210D01*
X3795964Y-47106206D01*
X3528125Y-46965632D01*
X3528109Y-46965625D01*
X3245265Y-46858356D01*
X2951553Y-46785963D01*
X2951547Y-46785962D01*
X2651255Y-46749500D01*
X2651252Y-46749500D01*
X2501904Y-46749500D01*
X2498099Y-46749385D01*
X2491756Y-46749001D01*
X2401100Y-46743517D01*
X2193674Y-46729922D01*
X2186432Y-46729024D01*
X2050790Y-46704167D01*
X1884416Y-46671073D01*
X1877959Y-46669430D01*
X1738842Y-46626079D01*
X1585020Y-46573864D01*
X1579412Y-46571656D01*
X1443507Y-46510491D01*
X1300195Y-46439816D01*
X1295465Y-46437226D01*
X1167629Y-46359947D01*
X1165220Y-46358415D01*
X1034449Y-46271036D01*
X1030596Y-46268246D01*
X912461Y-46175694D01*
X909775Y-46173467D01*
X791938Y-46070126D01*
X788943Y-46067321D01*
X682676Y-45961054D01*
X679872Y-45958060D01*
X576531Y-45840223D01*
X574304Y-45837537D01*
X481752Y-45719402D01*
X478962Y-45715549D01*
X391583Y-45584778D01*
X390051Y-45582369D01*
X312772Y-45454533D01*
X310182Y-45449803D01*
X239508Y-45306492D01*
X238705Y-45304708D01*
X178341Y-45170583D01*
X176142Y-45165000D01*
X123920Y-45011157D01*
X118907Y-44995070D01*
X80562Y-44872018D01*
X78930Y-44865601D01*
X45831Y-44699203D01*
X20970Y-44563541D01*
X20079Y-44556353D01*
X6479Y-44348851D01*
X6394Y-44347452D01*
X614Y-44251899D01*
X500Y-44248098D01*
X500Y-44170000D01*
X479818Y-44170000D01*
X492574Y-44199569D01*
X492574Y-44199571D01*
X597827Y-44340950D01*
X732851Y-44454246D01*
X732854Y-44454248D01*
X890354Y-44533349D01*
X890358Y-44533350D01*
X1061872Y-44574000D01*
X1100000Y-44574000D01*
X1100000Y-44170000D01*
X479818Y-44170000D01*
X500Y-44170000D01*
X500Y-43791840D01*
X846105Y-43791840D01*
X856454Y-43903521D01*
X906448Y-44003922D01*
X989334Y-44079484D01*
X1093920Y-44120000D01*
X1777802Y-44120000D01*
X1860250Y-44104588D01*
X1955610Y-44045543D01*
X2023201Y-43956038D01*
X2053895Y-43848160D01*
X2043546Y-43736479D01*
X1993552Y-43636078D01*
X1910666Y-43560516D01*
X1806080Y-43520000D01*
X1122198Y-43520000D01*
X1039750Y-43535412D01*
X944390Y-43594457D01*
X876799Y-43683962D01*
X846105Y-43791840D01*
X500Y-43791840D01*
X500Y-43469999D01*
X481428Y-43469999D01*
X481429Y-43470000D01*
X1100000Y-43470000D01*
X1100000Y-43066711D01*
X1099999Y-43066711D01*
X974932Y-43081329D01*
X974930Y-43081330D01*
X809306Y-43141612D01*
X809299Y-43141615D01*
X662037Y-43238471D01*
X662036Y-43238472D01*
X541083Y-43366675D01*
X541080Y-43366679D01*
X481428Y-43469999D01*
X500Y-43469999D01*
X500Y-43066000D01*
X1800000Y-43066000D01*
X1800000Y-43470000D01*
X2420181Y-43470000D01*
X2407425Y-43440430D01*
X2407425Y-43440428D01*
X2302172Y-43299049D01*
X2167148Y-43185753D01*
X2167145Y-43185751D01*
X2009645Y-43106650D01*
X2009641Y-43106649D01*
X1838128Y-43066000D01*
X1800000Y-43066000D01*
X500Y-43066000D01*
X500Y-35530000D01*
X479818Y-35530000D01*
X492574Y-35559569D01*
X492574Y-35559571D01*
X597827Y-35700950D01*
X732851Y-35814246D01*
X732854Y-35814248D01*
X890354Y-35893349D01*
X890358Y-35893350D01*
X1061872Y-35934000D01*
X1100000Y-35934000D01*
X1100000Y-35530000D01*
X1800000Y-35530000D01*
X1800000Y-35933287D01*
X1925068Y-35918669D01*
X2090693Y-35858387D01*
X2090700Y-35858384D01*
X2237962Y-35761528D01*
X2237963Y-35761527D01*
X2358916Y-35633324D01*
X2358919Y-35633320D01*
X2418571Y-35530000D01*
X1800000Y-35530000D01*
X1100000Y-35530000D01*
X479818Y-35530000D01*
X500Y-35530000D01*
X500Y-35151840D01*
X846105Y-35151840D01*
X856454Y-35263521D01*
X906448Y-35363922D01*
X989334Y-35439484D01*
X1093920Y-35480000D01*
X1777802Y-35480000D01*
X1860250Y-35464588D01*
X1955610Y-35405543D01*
X2023201Y-35316038D01*
X2053895Y-35208160D01*
X2043546Y-35096479D01*
X1993552Y-34996078D01*
X1910666Y-34920516D01*
X1806080Y-34880000D01*
X1122198Y-34880000D01*
X1039750Y-34895412D01*
X944390Y-34954457D01*
X876799Y-35043962D01*
X846105Y-35151840D01*
X500Y-35151840D01*
X500Y-34829999D01*
X481428Y-34829999D01*
X481429Y-34830000D01*
X1100000Y-34830000D01*
X1100000Y-34426711D01*
X1099999Y-34426711D01*
X974932Y-34441329D01*
X974930Y-34441330D01*
X809306Y-34501612D01*
X809299Y-34501615D01*
X662037Y-34598471D01*
X662036Y-34598472D01*
X541083Y-34726675D01*
X541080Y-34726679D01*
X481428Y-34829999D01*
X500Y-34829999D01*
X500Y-5000000D01*
X2379Y-4954576D01*
X9493Y-4782569D01*
X18159Y-4584078D01*
X18576Y-4579114D01*
X45485Y-4363241D01*
X71879Y-4162764D01*
X72678Y-4158071D01*
X117191Y-3945778D01*
X161156Y-3747470D01*
X162259Y-3743214D01*
X224112Y-3535457D01*
X285315Y-3341346D01*
X286695Y-3337433D01*
X296232Y-3312992D01*
X365469Y-3135551D01*
X443475Y-2947229D01*
X445051Y-2943735D01*
X540251Y-2749000D01*
X634492Y-2567965D01*
X636197Y-2564907D01*
X747211Y-2378601D01*
X856956Y-2206337D01*
X858769Y-2203650D01*
X984856Y-2027054D01*
X1109303Y-1864874D01*
X1111169Y-1862561D01*
X1251448Y-1696933D01*
X1390563Y-1545115D01*
X1545115Y-1390563D01*
X1696933Y-1251448D01*
X1862561Y-1111169D01*
X1864874Y-1109303D01*
X2027054Y-984856D01*
X2203650Y-858769D01*
X2206337Y-856956D01*
X2378601Y-747211D01*
X2564907Y-636197D01*
X2567965Y-634492D01*
X2748973Y-540264D01*
X2943735Y-445051D01*
X2947229Y-443475D01*
X3135551Y-365469D01*
X3337441Y-286691D01*
X3341346Y-285315D01*
X3535457Y-224112D01*
X3743214Y-162259D01*
X3747470Y-161156D01*
X3945778Y-117191D01*
X4158071Y-72678D01*
X4162765Y-71879D01*
X4363241Y-45485D01*
X4579114Y-18576D01*
X4584078Y-18159D01*
X4782569Y-9493D01*
X5000000Y-500D01*
X5000500Y-500D01*
X64999500Y-500D01*
X65000000Y-500D01*
X65217318Y-9488D01*
G37*
%TD.AperFunction*%
%TA.AperFunction,Conductor*%
G36*
X7942121Y-34220002D02*
G01*
X7988614Y-34273658D01*
X8000000Y-34326000D01*
X8000000Y-35947810D01*
X7979998Y-36015931D01*
X7963095Y-36036905D01*
X7436905Y-36563095D01*
X7374593Y-36597121D01*
X7347810Y-36600000D01*
X5852190Y-36600000D01*
X5784069Y-36579998D01*
X5763095Y-36563095D01*
X5679062Y-36479062D01*
X5651748Y-36438184D01*
X5650500Y-36435172D01*
X5629342Y-36384091D01*
X5609591Y-36336406D01*
X5600000Y-36288189D01*
X5600000Y-36060500D01*
X5620002Y-35992379D01*
X5673658Y-35945886D01*
X5726000Y-35934500D01*
X6223944Y-35934500D01*
X6322373Y-35922995D01*
X6355184Y-35919160D01*
X6520924Y-35858836D01*
X6668285Y-35761915D01*
X6789322Y-35633623D01*
X6812373Y-35593696D01*
X6832388Y-35567611D01*
X7000000Y-35400000D01*
X7000000Y-34326000D01*
X7020002Y-34257879D01*
X7073658Y-34211386D01*
X7126000Y-34200000D01*
X7874000Y-34200000D01*
X7942121Y-34220002D01*
G37*
%TD.AperFunction*%
%TA.AperFunction,Conductor*%
G36*
X29442121Y-52020002D02*
G01*
X29488614Y-52073658D01*
X29500000Y-52126000D01*
X29500000Y-56374000D01*
X29479998Y-56442121D01*
X29426342Y-56488614D01*
X29374000Y-56500000D01*
X27932190Y-56500000D01*
X27864069Y-56479998D01*
X27843095Y-56463095D01*
X27086905Y-55706905D01*
X27052879Y-55644593D01*
X27050000Y-55617810D01*
X27050000Y-52502190D01*
X27070002Y-52434069D01*
X27086905Y-52413095D01*
X27463095Y-52036905D01*
X27525407Y-52002879D01*
X27552190Y-52000000D01*
X29374000Y-52000000D01*
X29442121Y-52020002D01*
G37*
%TD.AperFunction*%
%TA.AperFunction,Conductor*%
G36*
X8715931Y-40870002D02*
G01*
X8736905Y-40886905D01*
X9034989Y-41184989D01*
X9062302Y-41225865D01*
X9115642Y-41354637D01*
X9115649Y-41354649D01*
X9204525Y-41470474D01*
X9255196Y-41509355D01*
X9320357Y-41559355D01*
X9455246Y-41615228D01*
X9600000Y-41634285D01*
X9657556Y-41626707D01*
X9727701Y-41637646D01*
X9780800Y-41684773D01*
X9800000Y-41751629D01*
X9800000Y-42925000D01*
X10138096Y-43263096D01*
X10172120Y-43325407D01*
X10175000Y-43352190D01*
X10175000Y-43899000D01*
X10154998Y-43967121D01*
X10101342Y-44013614D01*
X10049000Y-44025000D01*
X8385500Y-44025000D01*
X8317379Y-44004998D01*
X8270886Y-43951342D01*
X8259500Y-43899000D01*
X8259500Y-43845235D01*
X8258756Y-43831361D01*
X8258756Y-43831359D01*
X8255133Y-43797667D01*
X8255133Y-43797663D01*
X8224878Y-43701043D01*
X8190854Y-43638732D01*
X8146590Y-43579602D01*
X8146588Y-43579600D01*
X8146580Y-43579591D01*
X7896405Y-43329416D01*
X7862379Y-43267104D01*
X7859500Y-43240321D01*
X7859500Y-43111781D01*
X7858838Y-43095894D01*
X7841601Y-43013112D01*
X7815998Y-42946895D01*
X7813401Y-42942271D01*
X7803559Y-42924745D01*
X7800283Y-42918000D01*
X7768940Y-42842334D01*
X7760426Y-42810560D01*
X7754618Y-42766441D01*
X7754617Y-42733559D01*
X7760636Y-42687830D01*
X7766365Y-42663432D01*
X7770730Y-42650701D01*
X7770734Y-42650688D01*
X7770733Y-42650693D01*
X7781186Y-42612594D01*
X7782372Y-42608111D01*
X7782373Y-42608108D01*
X7787793Y-42507001D01*
X7777689Y-42436727D01*
X7767050Y-42391709D01*
X7767049Y-42391707D01*
X7767049Y-42391706D01*
X7716950Y-42303727D01*
X7716949Y-42303726D01*
X7716947Y-42303722D01*
X7709434Y-42295051D01*
X7705775Y-42290828D01*
X7676282Y-42226247D01*
X7675000Y-42208317D01*
X7675000Y-41127190D01*
X7695002Y-41059069D01*
X7711905Y-41038095D01*
X7863095Y-40886905D01*
X7925407Y-40852879D01*
X7952190Y-40850000D01*
X8647810Y-40850000D01*
X8715931Y-40870002D01*
G37*
%TD.AperFunction*%
%TA.AperFunction,Conductor*%
G36*
X17442121Y-50020002D02*
G01*
X17488614Y-50073658D01*
X17500000Y-50126000D01*
X17500000Y-52874000D01*
X17479998Y-52942121D01*
X17426342Y-52988614D01*
X17374000Y-53000000D01*
X14126000Y-53000000D01*
X14057879Y-52979998D01*
X14011386Y-52926342D01*
X14000000Y-52874000D01*
X14000000Y-50126000D01*
X14020002Y-50057879D01*
X14073658Y-50011386D01*
X14126000Y-50000000D01*
X17374000Y-50000000D01*
X17442121Y-50020002D01*
G37*
%TD.AperFunction*%
%TA.AperFunction,Conductor*%
G36*
X63693039Y-30769685D02*
G01*
X63738794Y-30822489D01*
X63750000Y-30874000D01*
X63750000Y-31748918D01*
X63730315Y-31815957D01*
X63713681Y-31836599D01*
X63086599Y-32463681D01*
X63025276Y-32497166D01*
X62998918Y-32500000D01*
X61751081Y-32500000D01*
X61684042Y-32480315D01*
X61663405Y-32463686D01*
X61536317Y-32336598D01*
X61502834Y-32275276D01*
X61500000Y-32248918D01*
X61500000Y-30874000D01*
X61519685Y-30806961D01*
X61572489Y-30761206D01*
X61624000Y-30750000D01*
X63626000Y-30750000D01*
X63693039Y-30769685D01*
G37*
%TD.AperFunction*%
%TA.AperFunction,Conductor*%
G36*
X13442121Y-52520002D02*
G01*
X13488614Y-52573658D01*
X13500000Y-52626000D01*
X13500000Y-53500000D01*
X17374000Y-53500000D01*
X17442121Y-53520002D01*
X17488614Y-53573658D01*
X17500000Y-53626000D01*
X17500000Y-54874000D01*
X17479998Y-54942121D01*
X17426342Y-54988614D01*
X17374000Y-55000000D01*
X12126000Y-55000000D01*
X12057879Y-54979998D01*
X12011386Y-54926342D01*
X12000000Y-54874000D01*
X12000000Y-52626000D01*
X12020002Y-52557879D01*
X12073658Y-52511386D01*
X12126000Y-52500000D01*
X13374000Y-52500000D01*
X13442121Y-52520002D01*
G37*
%TD.AperFunction*%
%TA.AperFunction,Conductor*%
G36*
X56943039Y-9519685D02*
G01*
X56988794Y-9572489D01*
X57000000Y-9624000D01*
X57000000Y-10376000D01*
X56980315Y-10443039D01*
X56927511Y-10488794D01*
X56876000Y-10500000D01*
X55378500Y-10500000D01*
X55311461Y-10480315D01*
X55265706Y-10427511D01*
X55254500Y-10376000D01*
X55254500Y-9760333D01*
X55274185Y-9693294D01*
X55290819Y-9672652D01*
X55427152Y-9536319D01*
X55488475Y-9502834D01*
X55514833Y-9500000D01*
X56876000Y-9500000D01*
X56943039Y-9519685D01*
G37*
%TD.AperFunction*%
%TA.AperFunction,Conductor*%
G36*
X7474337Y-42420002D02*
G01*
X7520830Y-42473658D01*
X7530934Y-42543932D01*
X7522624Y-42574220D01*
X7509772Y-42605245D01*
X7509771Y-42605246D01*
X7490715Y-42749999D01*
X7490715Y-42750000D01*
X7509771Y-42894752D01*
X7509772Y-42894754D01*
X7565645Y-43029643D01*
X7573960Y-43040480D01*
X7599563Y-43106697D01*
X7600000Y-43117185D01*
X7600000Y-43400000D01*
X7963096Y-43763096D01*
X7997120Y-43825407D01*
X8000000Y-43852190D01*
X8000000Y-45074000D01*
X7979998Y-45142121D01*
X7926342Y-45188614D01*
X7874000Y-45200000D01*
X7052190Y-45200000D01*
X6984069Y-45179998D01*
X6963095Y-45163095D01*
X6836905Y-45036905D01*
X6802879Y-44974593D01*
X6800000Y-44947810D01*
X6800000Y-44288889D01*
X6816881Y-44225889D01*
X6877507Y-44120881D01*
X6877506Y-44120881D01*
X6877510Y-44120876D01*
X6928095Y-43951909D01*
X6938351Y-43775831D01*
X6907723Y-43602134D01*
X6907721Y-43602129D01*
X6907721Y-43602128D01*
X6837865Y-43440184D01*
X6837863Y-43440180D01*
X6732539Y-43298706D01*
X6597428Y-43185333D01*
X6439811Y-43106176D01*
X6299432Y-43072905D01*
X6239397Y-43039397D01*
X5836905Y-42636905D01*
X5802879Y-42574593D01*
X5800000Y-42547810D01*
X5800000Y-42526000D01*
X5820002Y-42457879D01*
X5873658Y-42411386D01*
X5926000Y-42400000D01*
X7406216Y-42400000D01*
X7474337Y-42420002D01*
G37*
%TD.AperFunction*%
%TA.AperFunction,Conductor*%
G36*
X56943039Y-8019685D02*
G01*
X56988794Y-8072489D01*
X57000000Y-8124000D01*
X57000000Y-8876000D01*
X56980315Y-8943039D01*
X56927511Y-8988794D01*
X56876000Y-9000000D01*
X55374000Y-9000000D01*
X55306961Y-8980315D01*
X55261206Y-8927511D01*
X55250000Y-8876000D01*
X55250000Y-8124000D01*
X55269685Y-8056961D01*
X55322489Y-8011206D01*
X55374000Y-8000000D01*
X56876000Y-8000000D01*
X56943039Y-8019685D01*
G37*
%TD.AperFunction*%
%TA.AperFunction,Conductor*%
G36*
X14015931Y-57020002D02*
G01*
X14036905Y-57036905D01*
X14463095Y-57463095D01*
X14497121Y-57525407D01*
X14500000Y-57552190D01*
X14500000Y-60947810D01*
X14479998Y-61015931D01*
X14463095Y-61036905D01*
X14036905Y-61463095D01*
X13974593Y-61497121D01*
X13947810Y-61500000D01*
X11552190Y-61500000D01*
X11484069Y-61479998D01*
X11463095Y-61463095D01*
X11036905Y-61036905D01*
X11002879Y-60974593D01*
X11000000Y-60947810D01*
X11000000Y-57552190D01*
X11020002Y-57484069D01*
X11036905Y-57463095D01*
X11463095Y-57036905D01*
X11525407Y-57002879D01*
X11552190Y-57000000D01*
X13947810Y-57000000D01*
X14015931Y-57020002D01*
G37*
%TD.AperFunction*%
%TA.AperFunction,Conductor*%
G36*
X9192121Y-30404502D02*
G01*
X9238614Y-30458158D01*
X9250000Y-30510500D01*
X9250000Y-31374000D01*
X9229998Y-31442121D01*
X9176342Y-31488614D01*
X9124000Y-31500000D01*
X6376000Y-31500000D01*
X6307879Y-31479998D01*
X6261386Y-31426342D01*
X6250000Y-31374000D01*
X6250000Y-30510500D01*
X6270002Y-30442379D01*
X6323658Y-30395886D01*
X6376000Y-30384500D01*
X9124000Y-30384500D01*
X9192121Y-30404502D01*
G37*
%TD.AperFunction*%
%TA.AperFunction,Conductor*%
G36*
X11208909Y-33770002D02*
G01*
X11255402Y-33823658D01*
X11266788Y-33876000D01*
X11266788Y-34874000D01*
X11246786Y-34942121D01*
X11193130Y-34988614D01*
X11140788Y-35000000D01*
X9876000Y-35000000D01*
X9807879Y-34979998D01*
X9761386Y-34926342D01*
X9750000Y-34874000D01*
X9750000Y-33876000D01*
X9770002Y-33807879D01*
X9823658Y-33761386D01*
X9876000Y-33750000D01*
X11140788Y-33750000D01*
X11208909Y-33770002D01*
G37*
%TD.AperFunction*%
%TA.AperFunction,Conductor*%
G36*
X57442121Y-57520002D02*
G01*
X57488614Y-57573658D01*
X57500000Y-57626000D01*
X57500000Y-66972000D01*
X57479998Y-67040121D01*
X57426342Y-67086614D01*
X57374000Y-67098000D01*
X57355000Y-67098000D01*
X57286879Y-67077998D01*
X57240386Y-67024342D01*
X57229000Y-66972000D01*
X57229000Y-66300000D01*
X55396001Y-66300000D01*
X55396001Y-66972000D01*
X55375999Y-67040121D01*
X55322343Y-67086614D01*
X55270001Y-67098000D01*
X55126000Y-67098000D01*
X55057879Y-67077998D01*
X55011386Y-67024342D01*
X55000000Y-66972000D01*
X55000000Y-65800000D01*
X55396000Y-65800000D01*
X56062500Y-65800000D01*
X56062500Y-64621000D01*
X56562500Y-64621000D01*
X56562500Y-65800000D01*
X57228999Y-65800000D01*
X57228999Y-65076797D01*
X57228997Y-65076773D01*
X57222547Y-65016767D01*
X57222547Y-65016765D01*
X57171899Y-64880976D01*
X57085047Y-64764952D01*
X56969023Y-64678100D01*
X56969024Y-64678100D01*
X56833238Y-64627453D01*
X56833230Y-64627451D01*
X56773222Y-64621000D01*
X56562500Y-64621000D01*
X56062500Y-64621000D01*
X55851797Y-64621000D01*
X55851773Y-64621002D01*
X55791767Y-64627452D01*
X55791765Y-64627452D01*
X55655976Y-64678100D01*
X55539952Y-64764952D01*
X55453100Y-64880976D01*
X55402453Y-65016761D01*
X55402451Y-65016769D01*
X55396000Y-65076777D01*
X55396000Y-65800000D01*
X55000000Y-65800000D01*
X55000000Y-62887500D01*
X55383501Y-62887500D01*
X55383501Y-63610702D01*
X55383502Y-63610726D01*
X55389952Y-63670732D01*
X55389952Y-63670734D01*
X55440600Y-63806523D01*
X55527452Y-63922547D01*
X55643476Y-64009399D01*
X55643475Y-64009399D01*
X55779261Y-64060046D01*
X55779269Y-64060048D01*
X55839285Y-64066499D01*
X56050000Y-64066499D01*
X56050000Y-62887500D01*
X56550000Y-62887500D01*
X56550000Y-64066499D01*
X56760703Y-64066499D01*
X56760726Y-64066497D01*
X56820732Y-64060047D01*
X56820734Y-64060047D01*
X56956523Y-64009399D01*
X57072547Y-63922547D01*
X57159399Y-63806523D01*
X57210046Y-63670738D01*
X57210048Y-63670730D01*
X57216499Y-63610722D01*
X57216500Y-63610705D01*
X57216500Y-62887500D01*
X56550000Y-62887500D01*
X56050000Y-62887500D01*
X55383501Y-62887500D01*
X55000000Y-62887500D01*
X55000000Y-62387500D01*
X55383500Y-62387500D01*
X56050000Y-62387500D01*
X56050000Y-61208500D01*
X56550000Y-61208500D01*
X56550000Y-62387500D01*
X57216499Y-62387500D01*
X57216499Y-61664297D01*
X57216497Y-61664273D01*
X57210047Y-61604267D01*
X57210047Y-61604265D01*
X57159399Y-61468476D01*
X57072547Y-61352452D01*
X56956523Y-61265600D01*
X56956524Y-61265600D01*
X56820738Y-61214953D01*
X56820730Y-61214951D01*
X56760722Y-61208500D01*
X56550000Y-61208500D01*
X56050000Y-61208500D01*
X55839297Y-61208500D01*
X55839273Y-61208502D01*
X55779267Y-61214952D01*
X55779265Y-61214952D01*
X55643476Y-61265600D01*
X55527452Y-61352452D01*
X55440600Y-61468476D01*
X55389953Y-61604261D01*
X55389951Y-61604269D01*
X55383500Y-61664277D01*
X55383500Y-62387500D01*
X55000000Y-62387500D01*
X55000000Y-59500000D01*
X55371001Y-59500000D01*
X55371001Y-60223202D01*
X55371002Y-60223226D01*
X55377452Y-60283232D01*
X55377452Y-60283234D01*
X55428100Y-60419023D01*
X55514952Y-60535047D01*
X55630976Y-60621899D01*
X55630975Y-60621899D01*
X55766761Y-60672546D01*
X55766769Y-60672548D01*
X55826785Y-60678999D01*
X56037500Y-60678999D01*
X56037500Y-59500000D01*
X56537500Y-59500000D01*
X56537500Y-60678999D01*
X56748203Y-60678999D01*
X56748226Y-60678997D01*
X56808232Y-60672547D01*
X56808234Y-60672547D01*
X56944023Y-60621899D01*
X57060047Y-60535047D01*
X57146899Y-60419023D01*
X57197546Y-60283238D01*
X57197548Y-60283230D01*
X57203999Y-60223222D01*
X57204000Y-60223205D01*
X57204000Y-59500000D01*
X56537500Y-59500000D01*
X56037500Y-59500000D01*
X55371001Y-59500000D01*
X55000000Y-59500000D01*
X55000000Y-59000000D01*
X55371000Y-59000000D01*
X56037500Y-59000000D01*
X56037500Y-57821000D01*
X56537500Y-57821000D01*
X56537500Y-59000000D01*
X57203999Y-59000000D01*
X57203999Y-58276797D01*
X57203997Y-58276773D01*
X57197547Y-58216767D01*
X57197547Y-58216765D01*
X57146899Y-58080976D01*
X57060047Y-57964952D01*
X56944023Y-57878100D01*
X56944024Y-57878100D01*
X56808238Y-57827453D01*
X56808230Y-57827451D01*
X56748222Y-57821000D01*
X56537500Y-57821000D01*
X56037500Y-57821000D01*
X55826797Y-57821000D01*
X55826773Y-57821002D01*
X55766767Y-57827452D01*
X55766765Y-57827452D01*
X55630976Y-57878100D01*
X55514952Y-57964952D01*
X55428100Y-58080976D01*
X55377453Y-58216761D01*
X55377451Y-58216769D01*
X55371000Y-58276777D01*
X55371000Y-59000000D01*
X55000000Y-59000000D01*
X55000000Y-57626000D01*
X55020002Y-57557879D01*
X55073658Y-57511386D01*
X55126000Y-57500000D01*
X57374000Y-57500000D01*
X57442121Y-57520002D01*
G37*
%TD.AperFunction*%
%TA.AperFunction,Conductor*%
G36*
X33442121Y-62020002D02*
G01*
X33488614Y-62073658D01*
X33500000Y-62126000D01*
X33500000Y-63874000D01*
X33479998Y-63942121D01*
X33426342Y-63988614D01*
X33374000Y-64000000D01*
X29626000Y-64000000D01*
X29557879Y-63979998D01*
X29511386Y-63926342D01*
X29500000Y-63874000D01*
X29500000Y-62126000D01*
X29520002Y-62057879D01*
X29573658Y-62011386D01*
X29626000Y-62000000D01*
X33374000Y-62000000D01*
X33442121Y-62020002D01*
G37*
%TD.AperFunction*%
%TA.AperFunction,Conductor*%
G36*
X60919191Y-54248907D02*
G01*
X60955155Y-54298407D01*
X60960000Y-54329000D01*
X60960000Y-55424999D01*
X60960001Y-55425000D01*
X61046000Y-55425000D01*
X61104191Y-55443907D01*
X61140155Y-55493407D01*
X61145000Y-55524000D01*
X61145000Y-58453845D01*
X61168781Y-58500520D01*
X61170000Y-58516007D01*
X61170000Y-59473458D01*
X61166087Y-59501016D01*
X61145993Y-59570345D01*
X61135739Y-59643485D01*
X61135738Y-59643502D01*
X61140060Y-60875348D01*
X61140060Y-60875351D01*
X61146085Y-60930041D01*
X61157470Y-60981941D01*
X61164723Y-61008289D01*
X61164724Y-61008291D01*
X61214825Y-61096275D01*
X61214827Y-61096278D01*
X61261313Y-61149927D01*
X61261318Y-61149932D01*
X61261320Y-61149934D01*
X61294609Y-61182056D01*
X61346887Y-61209402D01*
X61389686Y-61253127D01*
X61400000Y-61297125D01*
X61400000Y-66517326D01*
X61381093Y-66575517D01*
X61366351Y-66591691D01*
X60833902Y-67059601D01*
X60365755Y-67471004D01*
X60360792Y-67475365D01*
X60304601Y-67499575D01*
X60295441Y-67500000D01*
X60147312Y-67500000D01*
X60089121Y-67481093D01*
X60053157Y-67431593D01*
X60053157Y-67370407D01*
X60088524Y-67321345D01*
X60121787Y-67296795D01*
X60121792Y-67296790D01*
X60202345Y-67187647D01*
X60247149Y-67059601D01*
X60249999Y-67029211D01*
X60250000Y-67029210D01*
X60250000Y-66300001D01*
X60249999Y-66300000D01*
X58525002Y-66300000D01*
X58525001Y-66300001D01*
X58525001Y-67029203D01*
X58527850Y-67059600D01*
X58527850Y-67059602D01*
X58572654Y-67187647D01*
X58653207Y-67296790D01*
X58653212Y-67296795D01*
X58686476Y-67321345D01*
X58722069Y-67371113D01*
X58721611Y-67432296D01*
X58685278Y-67481526D01*
X58627688Y-67500000D01*
X58291008Y-67500000D01*
X58232817Y-67481093D01*
X58221004Y-67471004D01*
X57788496Y-67038496D01*
X57760719Y-66983979D01*
X57759500Y-66968492D01*
X57759500Y-65799999D01*
X58525000Y-65799999D01*
X58525001Y-65800000D01*
X59137499Y-65800000D01*
X59137500Y-65799999D01*
X59637500Y-65799999D01*
X59637501Y-65800000D01*
X60249998Y-65800000D01*
X60249999Y-65799999D01*
X60249999Y-65070796D01*
X60247149Y-65040399D01*
X60247149Y-65040397D01*
X60202345Y-64912352D01*
X60121792Y-64803209D01*
X60121790Y-64803207D01*
X60012647Y-64722654D01*
X59884601Y-64677850D01*
X59854211Y-64675000D01*
X59637501Y-64675000D01*
X59637500Y-64675001D01*
X59637500Y-65799999D01*
X59137500Y-65799999D01*
X59137500Y-64675001D01*
X59137499Y-64675000D01*
X58920796Y-64675000D01*
X58890399Y-64677850D01*
X58890397Y-64677850D01*
X58762352Y-64722654D01*
X58653209Y-64803207D01*
X58653207Y-64803209D01*
X58572654Y-64912352D01*
X58527850Y-65040398D01*
X58525000Y-65070788D01*
X58525000Y-65799999D01*
X57759500Y-65799999D01*
X57759500Y-63616703D01*
X58512501Y-63616703D01*
X58515350Y-63647100D01*
X58515350Y-63647102D01*
X58560154Y-63775147D01*
X58640707Y-63884290D01*
X58640709Y-63884292D01*
X58749852Y-63964845D01*
X58877898Y-64009649D01*
X58908289Y-64012499D01*
X59124998Y-64012499D01*
X59125000Y-64012498D01*
X59625000Y-64012498D01*
X59625001Y-64012499D01*
X59841703Y-64012499D01*
X59872100Y-64009649D01*
X59872102Y-64009649D01*
X60000147Y-63964845D01*
X60109290Y-63884292D01*
X60109292Y-63884290D01*
X60189845Y-63775147D01*
X60234649Y-63647101D01*
X60237499Y-63616711D01*
X60237500Y-63616710D01*
X60237500Y-62887501D01*
X60237499Y-62887500D01*
X59625001Y-62887500D01*
X59625000Y-62887501D01*
X59625000Y-64012498D01*
X59125000Y-64012498D01*
X59125000Y-62887501D01*
X59124999Y-62887500D01*
X58512502Y-62887500D01*
X58512501Y-62887501D01*
X58512501Y-63616703D01*
X57759500Y-63616703D01*
X57759500Y-62387499D01*
X58512500Y-62387499D01*
X58512501Y-62387500D01*
X59124999Y-62387500D01*
X59125000Y-62387499D01*
X59625000Y-62387499D01*
X59625001Y-62387500D01*
X60237498Y-62387500D01*
X60237499Y-62387499D01*
X60237499Y-61658296D01*
X60234649Y-61627899D01*
X60234649Y-61627897D01*
X60189845Y-61499852D01*
X60109292Y-61390709D01*
X60109290Y-61390707D01*
X60000147Y-61310154D01*
X59872101Y-61265350D01*
X59841711Y-61262500D01*
X59625001Y-61262500D01*
X59625000Y-61262501D01*
X59625000Y-62387499D01*
X59125000Y-62387499D01*
X59125000Y-61262501D01*
X59124999Y-61262500D01*
X58908296Y-61262500D01*
X58877899Y-61265350D01*
X58877897Y-61265350D01*
X58749852Y-61310154D01*
X58640709Y-61390707D01*
X58640707Y-61390709D01*
X58560154Y-61499852D01*
X58515350Y-61627898D01*
X58512500Y-61658288D01*
X58512500Y-62387499D01*
X57759500Y-62387499D01*
X57759500Y-60229203D01*
X58500001Y-60229203D01*
X58502850Y-60259600D01*
X58502850Y-60259602D01*
X58547654Y-60387647D01*
X58628207Y-60496790D01*
X58628209Y-60496792D01*
X58737352Y-60577345D01*
X58865398Y-60622149D01*
X58895789Y-60624999D01*
X59112498Y-60624999D01*
X59112500Y-60624998D01*
X59612500Y-60624998D01*
X59612501Y-60624999D01*
X59829203Y-60624999D01*
X59859600Y-60622149D01*
X59859602Y-60622149D01*
X59987647Y-60577345D01*
X60096790Y-60496792D01*
X60096792Y-60496790D01*
X60177345Y-60387647D01*
X60222149Y-60259601D01*
X60224999Y-60229211D01*
X60225000Y-60229210D01*
X60225000Y-59500001D01*
X60224999Y-59500000D01*
X59612501Y-59500000D01*
X59612500Y-59500001D01*
X59612500Y-60624998D01*
X59112500Y-60624998D01*
X59112500Y-59500001D01*
X59112499Y-59500000D01*
X58500002Y-59500000D01*
X58500001Y-59500001D01*
X58500001Y-60229203D01*
X57759500Y-60229203D01*
X57759500Y-59250000D01*
X60445287Y-59250000D01*
X60446519Y-59259355D01*
X60446520Y-59259358D01*
X60497190Y-59368021D01*
X60581976Y-59452807D01*
X60670000Y-59493853D01*
X60670000Y-59250001D01*
X60669999Y-59250000D01*
X60445287Y-59250000D01*
X57759500Y-59250000D01*
X57759500Y-58999999D01*
X58500000Y-58999999D01*
X58500001Y-59000000D01*
X59112499Y-59000000D01*
X59112500Y-58999999D01*
X59612500Y-58999999D01*
X59612501Y-59000000D01*
X60224998Y-59000000D01*
X60224999Y-58999999D01*
X60224999Y-58277086D01*
X60230490Y-58260184D01*
X60227437Y-58252450D01*
X60418138Y-58252450D01*
X60419399Y-58252083D01*
X60421520Y-58259358D01*
X60472190Y-58368021D01*
X60546665Y-58442496D01*
X60574442Y-58497013D01*
X60564871Y-58557445D01*
X60546665Y-58582504D01*
X60497190Y-58631978D01*
X60446520Y-58740641D01*
X60446519Y-58740644D01*
X60445287Y-58750000D01*
X60669999Y-58750000D01*
X60670000Y-58749999D01*
X60670000Y-58546154D01*
X60646219Y-58499480D01*
X60645000Y-58483993D01*
X60645000Y-58250001D01*
X60644999Y-58250000D01*
X60420287Y-58250000D01*
X60418138Y-58252450D01*
X60227437Y-58252450D01*
X60224828Y-58245839D01*
X60224138Y-58246081D01*
X60177345Y-58112352D01*
X60096792Y-58003209D01*
X60096790Y-58003207D01*
X59987647Y-57922654D01*
X59859601Y-57877850D01*
X59829211Y-57875000D01*
X59612501Y-57875000D01*
X59612500Y-57875001D01*
X59612500Y-58999999D01*
X59112500Y-58999999D01*
X59112500Y-57875001D01*
X59112499Y-57875000D01*
X58895796Y-57875000D01*
X58865399Y-57877850D01*
X58865397Y-57877850D01*
X58737352Y-57922654D01*
X58628209Y-58003207D01*
X58628207Y-58003209D01*
X58547654Y-58112352D01*
X58502850Y-58240398D01*
X58500000Y-58270788D01*
X58500000Y-58999999D01*
X57759500Y-58999999D01*
X57759500Y-57626004D01*
X57759500Y-57626000D01*
X57753570Y-57570841D01*
X57742184Y-57518499D01*
X57742184Y-57518498D01*
X57742184Y-57518497D01*
X57734835Y-57491711D01*
X57689996Y-57412968D01*
X57677632Y-57353045D01*
X57702851Y-57297299D01*
X57706001Y-57293998D01*
X58065350Y-56934650D01*
X58119866Y-56906873D01*
X58180298Y-56916444D01*
X58223563Y-56959709D01*
X58234353Y-57004654D01*
X58234353Y-57010002D01*
X58254834Y-57152456D01*
X58302951Y-57257816D01*
X58314623Y-57283373D01*
X58374994Y-57353045D01*
X58408873Y-57392144D01*
X58426889Y-57403722D01*
X58529947Y-57469953D01*
X58604049Y-57491711D01*
X58668035Y-57510499D01*
X58668036Y-57510499D01*
X58668039Y-57510500D01*
X58668041Y-57510500D01*
X58811959Y-57510500D01*
X58811961Y-57510500D01*
X58950053Y-57469953D01*
X59071128Y-57392143D01*
X59165377Y-57283373D01*
X59192035Y-57225000D01*
X60420287Y-57225000D01*
X60421519Y-57234355D01*
X60421520Y-57234358D01*
X60472190Y-57343021D01*
X60546665Y-57417496D01*
X60574442Y-57472013D01*
X60564871Y-57532445D01*
X60546665Y-57557504D01*
X60472190Y-57631978D01*
X60421520Y-57740641D01*
X60421519Y-57740644D01*
X60420287Y-57750000D01*
X60644999Y-57750000D01*
X60645000Y-57749999D01*
X60645000Y-57225001D01*
X60644999Y-57225000D01*
X60420287Y-57225000D01*
X59192035Y-57225000D01*
X59225165Y-57152457D01*
X59231992Y-57104971D01*
X59245647Y-57010002D01*
X59245647Y-57009997D01*
X59225165Y-56867543D01*
X59212006Y-56838730D01*
X59165377Y-56736627D01*
X59102298Y-56663830D01*
X59078482Y-56607471D01*
X59092341Y-56547876D01*
X59138582Y-56507809D01*
X59177119Y-56500000D01*
X60366677Y-56500000D01*
X60424868Y-56518907D01*
X60460832Y-56568407D01*
X60460832Y-56629593D01*
X60456401Y-56640839D01*
X60421520Y-56715641D01*
X60421519Y-56715644D01*
X60420287Y-56725000D01*
X60644999Y-56725000D01*
X60645000Y-56724999D01*
X60645000Y-55481145D01*
X60644999Y-55481145D01*
X60616538Y-55494417D01*
X60555808Y-55501873D01*
X60504695Y-55474696D01*
X60500000Y-55470001D01*
X60500000Y-54255483D01*
X60528407Y-54234845D01*
X60559000Y-54230000D01*
X60861000Y-54230000D01*
X60919191Y-54248907D01*
G37*
%TD.AperFunction*%
%TA.AperFunction,Conductor*%
G36*
X62941621Y-52520002D02*
G01*
X62988114Y-52573658D01*
X62999500Y-52626000D01*
X62999500Y-53131117D01*
X62999865Y-53136683D01*
X63000000Y-53140807D01*
X63000000Y-56000001D01*
X63963095Y-56963095D01*
X63997120Y-57025407D01*
X64000000Y-57052190D01*
X64000000Y-60874000D01*
X63979998Y-60942121D01*
X63926342Y-60988614D01*
X63874000Y-61000000D01*
X61525558Y-61000000D01*
X61457437Y-60979998D01*
X61410944Y-60926342D01*
X61399559Y-60874442D01*
X61395237Y-59642581D01*
X61414999Y-59574395D01*
X61468491Y-59527714D01*
X61538729Y-59517363D01*
X61578438Y-59529876D01*
X61616730Y-59549387D01*
X61629999Y-59551488D01*
X61630000Y-59551488D01*
X61630000Y-59250000D01*
X62130000Y-59250000D01*
X62130000Y-59551488D01*
X62143269Y-59549387D01*
X62254473Y-59492726D01*
X62342726Y-59404473D01*
X62399387Y-59293268D01*
X62406240Y-59250000D01*
X62130000Y-59250000D01*
X61630000Y-59250000D01*
X61630000Y-58594102D01*
X61607879Y-58553592D01*
X61605000Y-58526809D01*
X61605000Y-58250000D01*
X62105000Y-58250000D01*
X62105000Y-58405897D01*
X62127121Y-58446408D01*
X62130000Y-58473191D01*
X62130000Y-58750000D01*
X62406240Y-58750000D01*
X62406240Y-58749999D01*
X62399387Y-58706731D01*
X62342726Y-58595526D01*
X62323793Y-58576593D01*
X62289769Y-58514280D01*
X62294835Y-58443464D01*
X62313842Y-58413905D01*
X62311899Y-58412493D01*
X62317726Y-58404473D01*
X62374387Y-58293268D01*
X62381240Y-58250000D01*
X62105000Y-58250000D01*
X61605000Y-58250000D01*
X61605000Y-57225000D01*
X62105000Y-57225000D01*
X62105000Y-57750000D01*
X62381240Y-57750000D01*
X62381240Y-57749999D01*
X62374387Y-57706731D01*
X62317726Y-57595526D01*
X62298795Y-57576595D01*
X62264769Y-57514283D01*
X62269834Y-57443468D01*
X62298795Y-57398405D01*
X62317724Y-57379475D01*
X62317726Y-57379473D01*
X62374387Y-57268268D01*
X62381240Y-57225000D01*
X62105000Y-57225000D01*
X61605000Y-57225000D01*
X61605000Y-56225000D01*
X62105000Y-56225000D01*
X62105000Y-56725000D01*
X62381240Y-56725000D01*
X62381240Y-56724999D01*
X62374387Y-56681731D01*
X62317726Y-56570526D01*
X62311295Y-56564095D01*
X62277269Y-56501783D01*
X62282334Y-56430968D01*
X62311295Y-56385905D01*
X62317724Y-56379475D01*
X62317726Y-56379473D01*
X62374387Y-56268268D01*
X62381240Y-56225000D01*
X62105000Y-56225000D01*
X61605000Y-56225000D01*
X61605000Y-55725000D01*
X62105000Y-55725000D01*
X62381240Y-55725000D01*
X62381240Y-55724999D01*
X62374387Y-55681731D01*
X62365896Y-55665066D01*
X62352792Y-55595289D01*
X62379492Y-55529505D01*
X62437519Y-55488598D01*
X62453584Y-55484284D01*
X62529105Y-55469263D01*
X62529107Y-55469262D01*
X62613124Y-55413124D01*
X62669262Y-55329106D01*
X62669263Y-55329105D01*
X62683999Y-55255022D01*
X62684000Y-55255015D01*
X62684000Y-54730000D01*
X62230000Y-54730000D01*
X62230000Y-55398000D01*
X62209998Y-55466121D01*
X62156342Y-55512614D01*
X62105276Y-55523722D01*
X62105000Y-55523999D01*
X62105000Y-55725000D01*
X61605000Y-55725000D01*
X61605000Y-55497000D01*
X61625002Y-55428879D01*
X61678658Y-55382386D01*
X61729723Y-55371277D01*
X61730000Y-55371001D01*
X61730000Y-53476000D01*
X62230000Y-53476000D01*
X62230000Y-54230000D01*
X62683999Y-54230000D01*
X62683999Y-53704986D01*
X62683998Y-53704977D01*
X62669262Y-53630894D01*
X62669262Y-53630892D01*
X62613124Y-53546875D01*
X62529106Y-53490737D01*
X62529105Y-53490736D01*
X62455022Y-53476000D01*
X62230000Y-53476000D01*
X61730000Y-53476000D01*
X61504986Y-53476000D01*
X61504976Y-53476001D01*
X61430894Y-53490737D01*
X61430891Y-53490738D01*
X61415449Y-53501056D01*
X61347696Y-53522269D01*
X61279229Y-53503484D01*
X61275449Y-53501055D01*
X61259302Y-53490266D01*
X61185067Y-53475500D01*
X60234936Y-53475500D01*
X60234924Y-53475502D01*
X60150579Y-53492278D01*
X60079865Y-53485949D01*
X60023799Y-53442394D01*
X60000180Y-53375441D01*
X60000000Y-53368699D01*
X60000000Y-52626000D01*
X60020002Y-52557879D01*
X60073658Y-52511386D01*
X60126000Y-52500000D01*
X62873500Y-52500000D01*
X62941621Y-52520002D01*
G37*
%TD.AperFunction*%
%TA.AperFunction,Conductor*%
G36*
X21630548Y-45352948D02*
G01*
X21652149Y-45375302D01*
X21693995Y-45431204D01*
X21732904Y-45460330D01*
X21810133Y-45518142D01*
X21946058Y-45568840D01*
X22006145Y-45575300D01*
X23002654Y-45575299D01*
X23062742Y-45568840D01*
X23198667Y-45518142D01*
X23299752Y-45442471D01*
X23365216Y-45418056D01*
X23433489Y-45432908D01*
X23482894Y-45482314D01*
X23497745Y-45550587D01*
X23493138Y-45576334D01*
X23477896Y-45628800D01*
X24408400Y-45628800D01*
X24475439Y-45648485D01*
X24521194Y-45701289D01*
X24532400Y-45752800D01*
X24532400Y-46657589D01*
X24553310Y-46655945D01*
X24708595Y-46610831D01*
X24847774Y-46528521D01*
X24847783Y-46528514D01*
X24962114Y-46414183D01*
X24962118Y-46414177D01*
X24996710Y-46355686D01*
X25047779Y-46308002D01*
X25116521Y-46295498D01*
X25181110Y-46322143D01*
X25191118Y-46331120D01*
X25540643Y-46680645D01*
X25886488Y-47026490D01*
X25902615Y-47046348D01*
X25907884Y-47054414D01*
X25907886Y-47054415D01*
X25921141Y-47064732D01*
X25934293Y-47074968D01*
X25940056Y-47080058D01*
X25942564Y-47082566D01*
X25960594Y-47095439D01*
X26001672Y-47127411D01*
X26001674Y-47127411D01*
X26008158Y-47130920D01*
X26008243Y-47130962D01*
X26008316Y-47131001D01*
X26014936Y-47134238D01*
X26014939Y-47134240D01*
X26064836Y-47149095D01*
X26114077Y-47166000D01*
X26114080Y-47166000D01*
X26121383Y-47167219D01*
X26121470Y-47167230D01*
X26121546Y-47167242D01*
X26128843Y-47168152D01*
X26128843Y-47168151D01*
X26128844Y-47168152D01*
X26180867Y-47166000D01*
X26194700Y-47166000D01*
X26261739Y-47185685D01*
X26307494Y-47238489D01*
X26318700Y-47290000D01*
X26318700Y-47429239D01*
X26333700Y-47523952D01*
X26333702Y-47523955D01*
X26391874Y-47638123D01*
X26391876Y-47638125D01*
X26391878Y-47638128D01*
X26465704Y-47711954D01*
X26499189Y-47773277D01*
X26494205Y-47842969D01*
X26488508Y-47855930D01*
X26432130Y-47966575D01*
X26432130Y-47966576D01*
X26417500Y-48058954D01*
X26417500Y-48461043D01*
X26425254Y-48510000D01*
X26432132Y-48553427D01*
X26488865Y-48664771D01*
X26577229Y-48753135D01*
X26577230Y-48753135D01*
X26583570Y-48759475D01*
X26603478Y-48791364D01*
X26605648Y-48790190D01*
X26635322Y-48845023D01*
X26658178Y-48891778D01*
X26662526Y-48897868D01*
X26667100Y-48903745D01*
X26705414Y-48939015D01*
X27052989Y-49286590D01*
X27069116Y-49306448D01*
X27074386Y-49314515D01*
X27074388Y-49314517D01*
X27100797Y-49335071D01*
X27106551Y-49340152D01*
X27109065Y-49342666D01*
X27109066Y-49342667D01*
X27127089Y-49355536D01*
X27167100Y-49386677D01*
X27168172Y-49387511D01*
X27168173Y-49387511D01*
X27174754Y-49391073D01*
X27174771Y-49391081D01*
X27174791Y-49391091D01*
X27181439Y-49394341D01*
X27231348Y-49409199D01*
X27280577Y-49426100D01*
X27280581Y-49426100D01*
X27287909Y-49427323D01*
X27287953Y-49427329D01*
X27288004Y-49427337D01*
X27295343Y-49428252D01*
X27295343Y-49428251D01*
X27295344Y-49428252D01*
X27347367Y-49426100D01*
X28850205Y-49426100D01*
X28875651Y-49428738D01*
X28885081Y-49430716D01*
X28903375Y-49428435D01*
X28918291Y-49426577D01*
X28925967Y-49426100D01*
X28929506Y-49426100D01*
X28929508Y-49426100D01*
X28929510Y-49426099D01*
X28929516Y-49426099D01*
X28951353Y-49422454D01*
X29003013Y-49416015D01*
X29003018Y-49416012D01*
X29010092Y-49413907D01*
X29010191Y-49413873D01*
X29010266Y-49413850D01*
X29017218Y-49411463D01*
X29017224Y-49411463D01*
X29063023Y-49386677D01*
X29109782Y-49363819D01*
X29109787Y-49363813D01*
X29115855Y-49359482D01*
X29121740Y-49354901D01*
X29121746Y-49354899D01*
X29157015Y-49316585D01*
X29414782Y-49058819D01*
X29476105Y-49025334D01*
X29502463Y-49022500D01*
X30644522Y-49022500D01*
X30711561Y-49042185D01*
X30735572Y-49064862D01*
X30736164Y-49064271D01*
X30831423Y-49159530D01*
X30831425Y-49159531D01*
X30831429Y-49159535D01*
X30942773Y-49216268D01*
X30942774Y-49216268D01*
X30942776Y-49216269D01*
X30978117Y-49221866D01*
X31035155Y-49230900D01*
X31377244Y-49230899D01*
X31377249Y-49230899D01*
X31377249Y-49230898D01*
X31395168Y-49228060D01*
X31434283Y-49221866D01*
X31503576Y-49230821D01*
X31541362Y-49256658D01*
X31630820Y-49346117D01*
X31630825Y-49346121D01*
X31770004Y-49428431D01*
X31916200Y-49470904D01*
X31916200Y-48916400D01*
X32416200Y-48916400D01*
X32416200Y-49470903D01*
X32562395Y-49428431D01*
X32701574Y-49346121D01*
X32701583Y-49346114D01*
X32815914Y-49231783D01*
X32815921Y-49231774D01*
X32898231Y-49092595D01*
X32898233Y-49092590D01*
X32943344Y-48937318D01*
X32943345Y-48937312D01*
X32944990Y-48916400D01*
X32416200Y-48916400D01*
X31916200Y-48916400D01*
X31916200Y-48540400D01*
X31935885Y-48473361D01*
X31988689Y-48427606D01*
X32040200Y-48416400D01*
X32944990Y-48416400D01*
X32943345Y-48395489D01*
X32898231Y-48240204D01*
X32815921Y-48101025D01*
X32815914Y-48101016D01*
X32701583Y-47986685D01*
X32701574Y-47986678D01*
X32562396Y-47904369D01*
X32448278Y-47871215D01*
X32389393Y-47833608D01*
X32360186Y-47770136D01*
X32369932Y-47700949D01*
X32395190Y-47664458D01*
X32421526Y-47638123D01*
X32479698Y-47523955D01*
X32479698Y-47523953D01*
X32479699Y-47523952D01*
X32494700Y-47429239D01*
X32494700Y-46473782D01*
X32514385Y-46406743D01*
X32567189Y-46360988D01*
X32636347Y-46351044D01*
X32699903Y-46380069D01*
X32706381Y-46386101D01*
X34323403Y-48003123D01*
X34327054Y-48007107D01*
X34352440Y-48037360D01*
X34352442Y-48037361D01*
X34352443Y-48037362D01*
X34386629Y-48057100D01*
X34391191Y-48060007D01*
X34423531Y-48082651D01*
X34429273Y-48085328D01*
X34443597Y-48091261D01*
X34449555Y-48093429D01*
X34449560Y-48093432D01*
X34488453Y-48100289D01*
X34493714Y-48101456D01*
X34531857Y-48111677D01*
X34571190Y-48108235D01*
X34576592Y-48108000D01*
X35843408Y-48108000D01*
X35848809Y-48108235D01*
X35888143Y-48111677D01*
X35926294Y-48101453D01*
X35931545Y-48100289D01*
X35970440Y-48093432D01*
X35970442Y-48093431D01*
X35976427Y-48091253D01*
X35990704Y-48085338D01*
X35996466Y-48082652D01*
X36028806Y-48060007D01*
X36028815Y-48060000D01*
X36033368Y-48057100D01*
X36067560Y-48037360D01*
X36092945Y-48007106D01*
X36096586Y-48003132D01*
X36872319Y-47227400D01*
X36933642Y-47193915D01*
X37003334Y-47198899D01*
X37059267Y-47240771D01*
X37083684Y-47306235D01*
X37084000Y-47315081D01*
X37084000Y-49436638D01*
X37064315Y-49503677D01*
X37047681Y-49524319D01*
X36866319Y-49705681D01*
X36804996Y-49739166D01*
X36778638Y-49742000D01*
X26215433Y-49742000D01*
X26148394Y-49722315D01*
X26127752Y-49705681D01*
X23495218Y-47073147D01*
X23461733Y-47011824D01*
X23458899Y-46985466D01*
X23458899Y-46569759D01*
X23478584Y-46502720D01*
X23531388Y-46456965D01*
X23600546Y-46447021D01*
X23664102Y-46476046D01*
X23670580Y-46482078D01*
X23717016Y-46528514D01*
X23717025Y-46528521D01*
X23856204Y-46610831D01*
X24011489Y-46655945D01*
X24032400Y-46657589D01*
X24032400Y-46128800D01*
X23459261Y-46128800D01*
X23445649Y-46138959D01*
X23375950Y-46143842D01*
X23322665Y-46114695D01*
X23321905Y-46115711D01*
X23251207Y-46062788D01*
X23198667Y-46023458D01*
X23062742Y-45972760D01*
X23062738Y-45972759D01*
X23002662Y-45966300D01*
X22006148Y-45966300D01*
X22006132Y-45966301D01*
X21996165Y-45967373D01*
X21927406Y-45954964D01*
X21895235Y-45931764D01*
X21828315Y-45864844D01*
X21811682Y-45844205D01*
X21808996Y-45840025D01*
X21808995Y-45840024D01*
X21808994Y-45840022D01*
X21808991Y-45840020D01*
X21769464Y-45805770D01*
X21766235Y-45802764D01*
X21755021Y-45791550D01*
X21742325Y-45782045D01*
X21738883Y-45779271D01*
X21699362Y-45745026D01*
X21699360Y-45745024D01*
X21699358Y-45745023D01*
X21694837Y-45742958D01*
X21672044Y-45729434D01*
X21668069Y-45726458D01*
X21668067Y-45726457D01*
X21619046Y-45708172D01*
X21614986Y-45706491D01*
X21599091Y-45699232D01*
X21567398Y-45684758D01*
X21567395Y-45684757D01*
X21562479Y-45684051D01*
X21536795Y-45677495D01*
X21532143Y-45675760D01*
X21479976Y-45672027D01*
X21475586Y-45671555D01*
X21470016Y-45670756D01*
X21406456Y-45641741D01*
X21368672Y-45582969D01*
X21368661Y-45513099D01*
X21399967Y-45460330D01*
X21406115Y-45454181D01*
X21406119Y-45454177D01*
X21446148Y-45386491D01*
X21497217Y-45338807D01*
X21565959Y-45326303D01*
X21630548Y-45352948D01*
G37*
%TD.AperFunction*%
%TA.AperFunction,Conductor*%
G36*
X27632903Y-46233069D02*
G01*
X27639381Y-46239101D01*
X28773403Y-47373123D01*
X28777054Y-47377107D01*
X28802440Y-47407360D01*
X28802442Y-47407361D01*
X28802443Y-47407362D01*
X28836629Y-47427100D01*
X28841191Y-47430007D01*
X28873531Y-47452651D01*
X28879273Y-47455328D01*
X28893597Y-47461261D01*
X28899555Y-47463429D01*
X28899560Y-47463432D01*
X28938453Y-47470289D01*
X28943709Y-47471454D01*
X28981857Y-47481677D01*
X28981859Y-47481676D01*
X28981860Y-47481677D01*
X29000871Y-47480013D01*
X29021195Y-47478235D01*
X29026595Y-47478000D01*
X29849736Y-47478000D01*
X29855137Y-47478235D01*
X29894471Y-47481677D01*
X29932622Y-47471453D01*
X29937873Y-47470289D01*
X29976768Y-47463432D01*
X29976770Y-47463431D01*
X29982755Y-47461253D01*
X29997032Y-47455338D01*
X30002794Y-47452652D01*
X30035134Y-47430007D01*
X30035143Y-47430000D01*
X30039696Y-47427100D01*
X30073888Y-47407360D01*
X30099273Y-47377106D01*
X30102914Y-47373132D01*
X31174021Y-46302026D01*
X31235342Y-46268543D01*
X31305034Y-46273527D01*
X31360967Y-46315399D01*
X31385384Y-46380863D01*
X31385700Y-46389709D01*
X31385700Y-46809436D01*
X31366015Y-46876475D01*
X31349381Y-46897117D01*
X30989607Y-47256890D01*
X30969754Y-47273013D01*
X30961685Y-47278284D01*
X30941132Y-47304690D01*
X30936055Y-47310441D01*
X30933546Y-47312951D01*
X30933529Y-47312971D01*
X30920663Y-47330990D01*
X30888687Y-47372073D01*
X30885128Y-47378648D01*
X30881857Y-47385341D01*
X30866999Y-47435249D01*
X30850098Y-47484480D01*
X30848870Y-47491841D01*
X30847947Y-47499245D01*
X30850100Y-47551267D01*
X30850100Y-48103231D01*
X30830415Y-48170270D01*
X30813781Y-48190912D01*
X30736164Y-48268529D01*
X30734665Y-48267030D01*
X30689512Y-48301851D01*
X30644522Y-48310300D01*
X29353394Y-48310300D01*
X29327948Y-48307661D01*
X29318520Y-48305684D01*
X29318519Y-48305684D01*
X29318517Y-48305684D01*
X29285310Y-48309823D01*
X29277634Y-48310300D01*
X29274092Y-48310300D01*
X29259527Y-48312730D01*
X29252244Y-48313945D01*
X29200587Y-48320384D01*
X29193431Y-48322514D01*
X29186378Y-48324936D01*
X29140576Y-48349722D01*
X29093817Y-48372580D01*
X29087721Y-48376932D01*
X29081858Y-48381497D01*
X29081854Y-48381500D01*
X29081854Y-48381501D01*
X29068977Y-48395489D01*
X29046583Y-48419815D01*
X28905771Y-48560626D01*
X28844448Y-48594111D01*
X28774756Y-48589127D01*
X28718823Y-48547255D01*
X28714490Y-48535639D01*
X28690790Y-48510000D01*
X27786000Y-48510000D01*
X27718961Y-48490315D01*
X27673206Y-48437511D01*
X27662000Y-48386000D01*
X27662000Y-48010000D01*
X28162000Y-48010000D01*
X28690790Y-48010000D01*
X28689145Y-47989089D01*
X28644031Y-47833804D01*
X28561721Y-47694625D01*
X28561714Y-47694616D01*
X28447383Y-47580285D01*
X28447374Y-47580278D01*
X28308193Y-47497967D01*
X28308190Y-47497965D01*
X28162001Y-47455493D01*
X28162000Y-47455494D01*
X28162000Y-48010000D01*
X27662000Y-48010000D01*
X27662000Y-47455494D01*
X27661999Y-47455494D01*
X27586295Y-47477488D01*
X27516425Y-47477288D01*
X27457755Y-47439346D01*
X27428912Y-47375707D01*
X27427700Y-47358411D01*
X27427700Y-46326782D01*
X27447385Y-46259743D01*
X27500189Y-46213988D01*
X27569347Y-46204044D01*
X27632903Y-46233069D01*
G37*
%TD.AperFunction*%
%TA.AperFunction,Conductor*%
G36*
X33680000Y-45159285D02*
G01*
X33722068Y-45153746D01*
X33791100Y-45164511D01*
X33843357Y-45210890D01*
X33862243Y-45278158D01*
X33841764Y-45344959D01*
X33836237Y-45352679D01*
X33832480Y-45357522D01*
X33750168Y-45496704D01*
X33707696Y-45642900D01*
X35308538Y-45642900D01*
X35316371Y-45645200D01*
X36194000Y-45645200D01*
X36261039Y-45664885D01*
X36306794Y-45717689D01*
X36318000Y-45769200D01*
X36318000Y-46673989D01*
X36331535Y-46686502D01*
X36367400Y-46746464D01*
X36365153Y-46816298D01*
X36335042Y-46865237D01*
X35764599Y-47435681D01*
X35703276Y-47469166D01*
X35676918Y-47472000D01*
X34743082Y-47472000D01*
X34676043Y-47452315D01*
X34655401Y-47435681D01*
X34087313Y-46867593D01*
X34053828Y-46806270D01*
X34058812Y-46736578D01*
X34100684Y-46680645D01*
X34166148Y-46656228D01*
X34209589Y-46660836D01*
X34241286Y-46670044D01*
X34262200Y-46671689D01*
X34262200Y-46142900D01*
X34762200Y-46142900D01*
X34762200Y-46671689D01*
X34783110Y-46670045D01*
X34938395Y-46624931D01*
X35077574Y-46542621D01*
X35077583Y-46542614D01*
X35197436Y-46422762D01*
X35198553Y-46423879D01*
X35247862Y-46388264D01*
X35317628Y-46384469D01*
X35378372Y-46418995D01*
X35387192Y-46429174D01*
X35388284Y-46430582D01*
X35502616Y-46544914D01*
X35502625Y-46544921D01*
X35641804Y-46627231D01*
X35797089Y-46672345D01*
X35818000Y-46673989D01*
X35818000Y-46145200D01*
X35271662Y-46145200D01*
X35263829Y-46142900D01*
X34762200Y-46142900D01*
X34262200Y-46142900D01*
X33707695Y-46142900D01*
X33714264Y-46165512D01*
X33714063Y-46235381D01*
X33676121Y-46294051D01*
X33612482Y-46322893D01*
X33543352Y-46312751D01*
X33507506Y-46287786D01*
X33263415Y-46043695D01*
X33229930Y-45982372D01*
X33234914Y-45912680D01*
X33276786Y-45856747D01*
X33278218Y-45855691D01*
X33280919Y-45853727D01*
X33280923Y-45853726D01*
X33371526Y-45763123D01*
X33429698Y-45648955D01*
X33429698Y-45648953D01*
X33429699Y-45648952D01*
X33444700Y-45554239D01*
X33444700Y-45269701D01*
X33464385Y-45202662D01*
X33517189Y-45156907D01*
X33584881Y-45146762D01*
X33680000Y-45159285D01*
G37*
%TD.AperFunction*%
%TA.AperFunction,Conductor*%
G36*
X28650321Y-45272585D02*
G01*
X28696076Y-45325389D01*
X28706020Y-45394547D01*
X28690014Y-45440022D01*
X28651168Y-45505705D01*
X28616694Y-45624369D01*
X28603516Y-45645002D01*
X28608695Y-45651900D01*
X29539200Y-45651900D01*
X29606239Y-45671585D01*
X29651994Y-45724389D01*
X29663200Y-45775900D01*
X29663200Y-46027900D01*
X29643515Y-46094939D01*
X29590711Y-46140694D01*
X29539200Y-46151900D01*
X28594230Y-46151900D01*
X28571137Y-46169135D01*
X28501438Y-46174018D01*
X28440291Y-46140571D01*
X28271365Y-45971645D01*
X28237880Y-45910322D01*
X28242864Y-45840630D01*
X28271365Y-45796283D01*
X28304526Y-45763123D01*
X28362698Y-45648955D01*
X28362698Y-45648953D01*
X28367128Y-45640260D01*
X28368360Y-45640887D01*
X28382530Y-45620163D01*
X28373618Y-45590129D01*
X28375144Y-45570375D01*
X28377700Y-45554238D01*
X28377700Y-45376900D01*
X28397385Y-45309861D01*
X28450189Y-45264106D01*
X28501700Y-45252900D01*
X28583282Y-45252900D01*
X28650321Y-45272585D01*
G37*
%TD.AperFunction*%
%TA.AperFunction,Conductor*%
G36*
X25323037Y-43665685D02*
G01*
X25368792Y-43718489D01*
X25378736Y-43787647D01*
X25349711Y-43851203D01*
X25343679Y-43857681D01*
X25255521Y-43945838D01*
X25255514Y-43945847D01*
X25171917Y-44087203D01*
X25171916Y-44087206D01*
X25126100Y-44244904D01*
X25126099Y-44244910D01*
X25123200Y-44281756D01*
X25123200Y-44684900D01*
X26723200Y-44684900D01*
X26723200Y-44555361D01*
X26742885Y-44488322D01*
X26795689Y-44442567D01*
X26864847Y-44432623D01*
X26928403Y-44461648D01*
X26949905Y-44490136D01*
X26951127Y-44489281D01*
X26957347Y-44498165D01*
X26957348Y-44498166D01*
X26980003Y-44530521D01*
X26982902Y-44535073D01*
X27002640Y-44569260D01*
X27024889Y-44587929D01*
X27032885Y-44594639D01*
X27036875Y-44598295D01*
X27232381Y-44793801D01*
X27265866Y-44855124D01*
X27268700Y-44881482D01*
X27268700Y-45554239D01*
X27283700Y-45648952D01*
X27283701Y-45648955D01*
X27286929Y-45655289D01*
X27299825Y-45723958D01*
X27273548Y-45788699D01*
X27216441Y-45828955D01*
X27157046Y-45834056D01*
X27055039Y-45817900D01*
X27055034Y-45817900D01*
X26829378Y-45817900D01*
X26762339Y-45798215D01*
X26716584Y-45745411D01*
X26706640Y-45676253D01*
X26710302Y-45659304D01*
X26720299Y-45624892D01*
X26720300Y-45624889D01*
X26723200Y-45588044D01*
X26723200Y-45184900D01*
X25103464Y-45184900D01*
X25036425Y-45165215D01*
X25015783Y-45148581D01*
X24883218Y-45016016D01*
X24849733Y-44954693D01*
X24846899Y-44928335D01*
X24846899Y-44747756D01*
X24840919Y-44710000D01*
X24832268Y-44655373D01*
X24775535Y-44544029D01*
X24775531Y-44544025D01*
X24775530Y-44544023D01*
X24687176Y-44455669D01*
X24687173Y-44455667D01*
X24687171Y-44455665D01*
X24575827Y-44398932D01*
X24575826Y-44398931D01*
X24575823Y-44398930D01*
X24483445Y-44384300D01*
X24081356Y-44384300D01*
X24059133Y-44387820D01*
X24056900Y-44388174D01*
X24037505Y-44389700D01*
X23567345Y-44389700D01*
X23500306Y-44370015D01*
X23454551Y-44317211D01*
X23451164Y-44309035D01*
X23428442Y-44248118D01*
X23401742Y-44176533D01*
X23346183Y-44102314D01*
X23314804Y-44060395D01*
X23229102Y-43996241D01*
X23198667Y-43973458D01*
X23062742Y-43922760D01*
X23062738Y-43922759D01*
X23002662Y-43916300D01*
X22006148Y-43916300D01*
X22006142Y-43916301D01*
X21946055Y-43922760D01*
X21810138Y-43973455D01*
X21810130Y-43973460D01*
X21693995Y-44060395D01*
X21612120Y-44169771D01*
X21607058Y-44176533D01*
X21563695Y-44292791D01*
X21521825Y-44348722D01*
X21456360Y-44373139D01*
X21388088Y-44358287D01*
X21359834Y-44337136D01*
X21291783Y-44269085D01*
X21291774Y-44269078D01*
X21152595Y-44186768D01*
X21152590Y-44186766D01*
X20997318Y-44141655D01*
X20997312Y-44141654D01*
X20976400Y-44140009D01*
X20976400Y-45044800D01*
X20956715Y-45111839D01*
X20903911Y-45157594D01*
X20852400Y-45168800D01*
X19921896Y-45168800D01*
X19964368Y-45314995D01*
X20046678Y-45454174D01*
X20046685Y-45454183D01*
X20050121Y-45457619D01*
X20083606Y-45518942D01*
X20078622Y-45588634D01*
X20036750Y-45644567D01*
X19971286Y-45668984D01*
X19962440Y-45669300D01*
X19764133Y-45669300D01*
X19697094Y-45649615D01*
X19676452Y-45632981D01*
X19594319Y-45550848D01*
X19560834Y-45489525D01*
X19558000Y-45463167D01*
X19558000Y-44668800D01*
X19921896Y-44668800D01*
X20476400Y-44668800D01*
X20476400Y-44140010D01*
X20476399Y-44140009D01*
X20455487Y-44141654D01*
X20455481Y-44141655D01*
X20300209Y-44186766D01*
X20300204Y-44186768D01*
X20161025Y-44269078D01*
X20161016Y-44269085D01*
X20046685Y-44383416D01*
X20046678Y-44383425D01*
X19964368Y-44522604D01*
X19921896Y-44668800D01*
X19558000Y-44668800D01*
X19558000Y-43951362D01*
X19577685Y-43884323D01*
X19594319Y-43863681D01*
X19775681Y-43682319D01*
X19837004Y-43648834D01*
X19863362Y-43646000D01*
X25255998Y-43646000D01*
X25323037Y-43665685D01*
G37*
%TD.AperFunction*%
%TA.AperFunction,Conductor*%
G36*
X32961957Y-43665685D02*
G01*
X32982599Y-43682319D01*
X33031499Y-43731219D01*
X33064984Y-43792542D01*
X33060000Y-43862234D01*
X33018128Y-43918167D01*
X32952664Y-43942584D01*
X32943818Y-43942900D01*
X32708361Y-43942900D01*
X32613647Y-43957900D01*
X32538401Y-43996241D01*
X32499477Y-44016074D01*
X32499476Y-44016075D01*
X32499471Y-44016078D01*
X32408878Y-44106671D01*
X32408875Y-44106676D01*
X32408874Y-44106677D01*
X32404307Y-44115640D01*
X32350700Y-44220847D01*
X32335700Y-44315560D01*
X32335700Y-45438000D01*
X32316015Y-45505039D01*
X32263211Y-45550794D01*
X32211700Y-45562000D01*
X31914200Y-45562000D01*
X31847161Y-45542315D01*
X31801406Y-45489511D01*
X31790200Y-45438000D01*
X31790200Y-45184900D01*
X30864200Y-45184900D01*
X30797161Y-45165215D01*
X30751406Y-45112411D01*
X30740200Y-45060900D01*
X30740200Y-44808900D01*
X30759885Y-44741861D01*
X30812689Y-44696106D01*
X30864200Y-44684900D01*
X31790200Y-44684900D01*
X31790200Y-44281756D01*
X31787300Y-44244910D01*
X31787299Y-44244904D01*
X31741483Y-44087206D01*
X31741482Y-44087203D01*
X31657885Y-43945847D01*
X31657878Y-43945838D01*
X31569721Y-43857681D01*
X31536236Y-43796358D01*
X31541220Y-43726666D01*
X31583092Y-43670733D01*
X31648556Y-43646316D01*
X31657402Y-43646000D01*
X32894918Y-43646000D01*
X32961957Y-43665685D01*
G37*
%TD.AperFunction*%
M02*
