%TF.GenerationSoftware,KiCad,Pcbnew,(7.0.0)*%
%TF.CreationDate,2023-03-19T15:39:49-07:00*%
%TF.ProjectId,ai-camera-rev2,61692d63-616d-4657-9261-2d726576322e,rev2*%
%TF.SameCoordinates,PX5a995c0PY2aea540*%
%TF.FileFunction,Soldermask,Top*%
%TF.FilePolarity,Negative*%
%FSLAX46Y46*%
G04 Gerber Fmt 4.6, Leading zero omitted, Abs format (unit mm)*
G04 Created by KiCad (PCBNEW (7.0.0)) date 2023-03-19 15:39:49*
%MOMM*%
%LPD*%
G01*
G04 APERTURE LIST*
G04 Aperture macros list*
%AMRoundRect*
0 Rectangle with rounded corners*
0 $1 Rounding radius*
0 $2 $3 $4 $5 $6 $7 $8 $9 X,Y pos of 4 corners*
0 Add a 4 corners polygon primitive as box body*
4,1,4,$2,$3,$4,$5,$6,$7,$8,$9,$2,$3,0*
0 Add four circle primitives for the rounded corners*
1,1,$1+$1,$2,$3*
1,1,$1+$1,$4,$5*
1,1,$1+$1,$6,$7*
1,1,$1+$1,$8,$9*
0 Add four rect primitives between the rounded corners*
20,1,$1+$1,$2,$3,$4,$5,0*
20,1,$1+$1,$4,$5,$6,$7,0*
20,1,$1+$1,$6,$7,$8,$9,0*
20,1,$1+$1,$8,$9,$2,$3,0*%
%AMRotRect*
0 Rectangle, with rotation*
0 The origin of the aperture is its center*
0 $1 length*
0 $2 width*
0 $3 Rotation angle, in degrees counterclockwise*
0 Add horizontal line*
21,1,$1,$2,0,0,$3*%
G04 Aperture macros list end*
%ADD10RoundRect,0.140000X-0.140000X-0.170000X0.140000X-0.170000X0.140000X0.170000X-0.140000X0.170000X0*%
%ADD11RoundRect,0.075000X0.250000X0.075000X-0.250000X0.075000X-0.250000X-0.075000X0.250000X-0.075000X0*%
%ADD12C,3.600000*%
%ADD13C,6.400000*%
%ADD14RoundRect,0.150000X-0.725000X-0.150000X0.725000X-0.150000X0.725000X0.150000X-0.725000X0.150000X0*%
%ADD15R,3.700000X1.100000*%
%ADD16RoundRect,0.140000X-0.170000X0.140000X-0.170000X-0.140000X0.170000X-0.140000X0.170000X0.140000X0*%
%ADD17RoundRect,0.200000X0.275000X-0.200000X0.275000X0.200000X-0.275000X0.200000X-0.275000X-0.200000X0*%
%ADD18C,4.000000*%
%ADD19RoundRect,0.135000X0.135000X0.185000X-0.135000X0.185000X-0.135000X-0.185000X0.135000X-0.185000X0*%
%ADD20RoundRect,0.150000X-0.150000X-0.200000X0.150000X-0.200000X0.150000X0.200000X-0.150000X0.200000X0*%
%ADD21R,1.000000X1.700000*%
%ADD22R,1.800000X1.000000*%
%ADD23RoundRect,0.250000X-0.325000X-0.450000X0.325000X-0.450000X0.325000X0.450000X-0.325000X0.450000X0*%
%ADD24RoundRect,0.218750X0.256250X-0.218750X0.256250X0.218750X-0.256250X0.218750X-0.256250X-0.218750X0*%
%ADD25RoundRect,0.135000X-0.135000X-0.185000X0.135000X-0.185000X0.135000X0.185000X-0.135000X0.185000X0*%
%ADD26RoundRect,0.218750X-0.218750X-0.256250X0.218750X-0.256250X0.218750X0.256250X-0.218750X0.256250X0*%
%ADD27RoundRect,0.250000X0.412500X0.925000X-0.412500X0.925000X-0.412500X-0.925000X0.412500X-0.925000X0*%
%ADD28RoundRect,0.140000X0.170000X-0.140000X0.170000X0.140000X-0.170000X0.140000X-0.170000X-0.140000X0*%
%ADD29RoundRect,0.135000X0.185000X-0.135000X0.185000X0.135000X-0.185000X0.135000X-0.185000X-0.135000X0*%
%ADD30C,1.700000*%
%ADD31RoundRect,0.135000X-0.185000X0.135000X-0.185000X-0.135000X0.185000X-0.135000X0.185000X0.135000X0*%
%ADD32RoundRect,0.250000X-1.500000X0.250000X-1.500000X-0.250000X1.500000X-0.250000X1.500000X0.250000X0*%
%ADD33RoundRect,0.250001X-1.449999X0.499999X-1.449999X-0.499999X1.449999X-0.499999X1.449999X0.499999X0*%
%ADD34RoundRect,0.250000X0.325000X0.450000X-0.325000X0.450000X-0.325000X-0.450000X0.325000X-0.450000X0*%
%ADD35R,1.000000X1.500000*%
%ADD36RoundRect,0.150000X0.512500X0.150000X-0.512500X0.150000X-0.512500X-0.150000X0.512500X-0.150000X0*%
%ADD37R,0.300000X1.300000*%
%ADD38R,1.600000X2.000000*%
%ADD39RoundRect,0.150000X0.587500X0.150000X-0.587500X0.150000X-0.587500X-0.150000X0.587500X-0.150000X0*%
%ADD40RoundRect,0.150000X-0.200000X0.150000X-0.200000X-0.150000X0.200000X-0.150000X0.200000X0.150000X0*%
%ADD41RoundRect,0.225000X0.225000X0.375000X-0.225000X0.375000X-0.225000X-0.375000X0.225000X-0.375000X0*%
%ADD42C,0.800000*%
%ADD43RotRect,1.524000X1.524000X45.000000*%
%ADD44C,1.524000*%
%ADD45RoundRect,0.150000X0.150000X-0.512500X0.150000X0.512500X-0.150000X0.512500X-0.150000X-0.512500X0*%
%ADD46R,1.700000X1.700000*%
%ADD47O,1.700000X1.700000*%
%ADD48RoundRect,0.225000X-0.225000X-0.375000X0.225000X-0.375000X0.225000X0.375000X-0.225000X0.375000X0*%
%ADD49RoundRect,0.140000X0.140000X0.170000X-0.140000X0.170000X-0.140000X-0.170000X0.140000X-0.170000X0*%
%ADD50RoundRect,0.150000X-0.587500X-0.150000X0.587500X-0.150000X0.587500X0.150000X-0.587500X0.150000X0*%
%ADD51C,0.650000*%
%ADD52R,1.450000X0.600000*%
%ADD53R,1.450000X0.300000*%
%ADD54O,2.100000X1.000000*%
%ADD55O,1.600000X1.000000*%
%ADD56RoundRect,0.250000X0.925000X-0.412500X0.925000X0.412500X-0.925000X0.412500X-0.925000X-0.412500X0*%
%ADD57RoundRect,0.250000X0.450000X-0.262500X0.450000X0.262500X-0.450000X0.262500X-0.450000X-0.262500X0*%
%ADD58C,2.374900*%
%ADD59C,0.990600*%
%ADD60C,0.787400*%
%ADD61C,0.600000*%
G04 APERTURE END LIST*
D10*
X11712000Y-47000000D03*
X12672000Y-47000000D03*
D11*
X52900000Y-61150000D03*
X52900000Y-60500000D03*
X52900000Y-59850000D03*
X51100000Y-59850000D03*
X51100000Y-60500000D03*
X51100000Y-61150000D03*
D12*
X5000000Y-65000000D03*
D13*
X5000000Y-65000000D03*
D14*
X38605000Y-62995000D03*
X38605000Y-64265000D03*
X38605000Y-65535000D03*
X38605000Y-66805000D03*
X43755000Y-66805000D03*
X43755000Y-65535000D03*
X43755000Y-64265000D03*
X43755000Y-62995000D03*
D12*
X5000000Y-5000000D03*
D13*
X5000000Y-5000000D03*
D15*
X21999999Y-63249999D03*
X21999999Y-66249999D03*
D16*
X25654000Y-58406000D03*
X25654000Y-59366000D03*
D17*
X5100000Y-33325000D03*
X5100000Y-31675000D03*
D18*
X24000000Y-22000000D03*
X46000000Y-22000000D03*
D10*
X43040000Y-61620000D03*
X44000000Y-61620000D03*
D19*
X14260000Y-66020000D03*
X13240000Y-66020000D03*
D17*
X3500000Y-33325000D03*
X3500000Y-31675000D03*
D19*
X16200000Y-62530000D03*
X15180000Y-62530000D03*
D20*
X10007500Y-37970000D03*
X8607500Y-37970000D03*
D21*
X66899999Y-20849999D03*
X66899999Y-27149999D03*
X63099999Y-20849999D03*
X63099999Y-27149999D03*
D22*
X36219999Y-65429999D03*
X36219999Y-62929999D03*
D23*
X8975000Y-35930000D03*
X11025000Y-35930000D03*
D16*
X12450000Y-24905000D03*
X12450000Y-25865000D03*
D24*
X60000000Y-42787500D03*
X60000000Y-41212500D03*
D25*
X63250000Y-28890000D03*
X64270000Y-28890000D03*
D26*
X13248987Y-45459099D03*
X14823987Y-45459099D03*
X19212500Y-36000000D03*
X20787500Y-36000000D03*
D25*
X14040000Y-46750000D03*
X15060000Y-46750000D03*
D27*
X16075000Y-59000000D03*
X13000000Y-59000000D03*
D25*
X37910000Y-61620000D03*
X38930000Y-61620000D03*
D28*
X34798000Y-45311000D03*
X34798000Y-44351000D03*
D29*
X49500000Y-62010000D03*
X49500000Y-60990000D03*
D30*
X44600000Y-7000000D03*
X37400000Y-7000000D03*
X43250000Y-4500000D03*
X38750000Y-4500000D03*
D27*
X23212500Y-56250000D03*
X20137500Y-56250000D03*
D15*
X4849999Y-29489999D03*
X4849999Y-26489999D03*
D26*
X19212500Y-12000000D03*
X20787500Y-12000000D03*
D10*
X26900000Y-53900000D03*
X27860000Y-53900000D03*
D31*
X13920000Y-34750000D03*
X13920000Y-35770000D03*
D32*
X14850000Y-51500000D03*
X14850000Y-53500000D03*
D33*
X9100000Y-49150000D03*
X9100000Y-55850000D03*
D34*
X28075000Y-55670000D03*
X26025000Y-55670000D03*
D26*
X49212500Y-34000000D03*
X50787500Y-34000000D03*
D10*
X19250000Y-58550000D03*
X20210000Y-58550000D03*
D35*
X16769999Y-32739999D03*
X15469999Y-32739999D03*
D26*
X19212500Y-34000000D03*
X20787500Y-34000000D03*
D31*
X18270000Y-57570000D03*
X18270000Y-58590000D03*
D16*
X8910000Y-28320000D03*
X8910000Y-29280000D03*
D26*
X13261486Y-43859099D03*
X14836486Y-43859099D03*
D31*
X18260000Y-59500000D03*
X18260000Y-60520000D03*
D16*
X17200000Y-67300000D03*
X17200000Y-68260000D03*
D36*
X6247500Y-24820000D03*
X6247500Y-23870000D03*
X6247500Y-22920000D03*
X3972500Y-22920000D03*
X3972500Y-23870000D03*
X3972500Y-24820000D03*
D37*
X40749999Y-42599999D03*
X40249999Y-42599999D03*
X39749999Y-42599999D03*
X39249999Y-42599999D03*
X38749999Y-42599999D03*
X38249999Y-42599999D03*
X37749999Y-42599999D03*
X37249999Y-42599999D03*
X36749999Y-42599999D03*
X36249999Y-42599999D03*
X35749999Y-42599999D03*
X35249999Y-42599999D03*
X34749999Y-42599999D03*
X34249999Y-42599999D03*
X33749999Y-42599999D03*
X33249999Y-42599999D03*
X32749999Y-42599999D03*
X32249999Y-42599999D03*
X31749999Y-42599999D03*
X31249999Y-42599999D03*
X30749999Y-42599999D03*
X30249999Y-42599999D03*
X29749999Y-42599999D03*
X29249999Y-42599999D03*
D38*
X42399999Y-40119999D03*
X27599999Y-40119999D03*
D26*
X49212500Y-10000000D03*
X50787500Y-10000000D03*
D39*
X47927500Y-63290000D03*
X47927500Y-61390000D03*
X46052500Y-62340000D03*
D29*
X16200000Y-68310000D03*
X16200000Y-67290000D03*
D40*
X12630000Y-36270000D03*
X12630000Y-34870000D03*
D26*
X19212500Y-10000000D03*
X20787500Y-10000000D03*
D30*
X32600000Y-7000000D03*
X25400000Y-7000000D03*
X31250000Y-4500000D03*
X26750000Y-4500000D03*
D21*
X66899999Y-11849999D03*
X66899999Y-18149999D03*
X63099999Y-11849999D03*
X63099999Y-18149999D03*
D41*
X11220000Y-25600000D03*
X7920000Y-25600000D03*
D10*
X10520000Y-23750000D03*
X11480000Y-23750000D03*
D42*
X21500000Y-16625000D03*
X21500000Y-15375000D03*
D25*
X3480000Y-21620000D03*
X4500000Y-21620000D03*
D26*
X49212500Y-12000000D03*
X50787500Y-12000000D03*
D29*
X49500000Y-65760000D03*
X49500000Y-64740000D03*
D28*
X59410000Y-56880000D03*
X59410000Y-55920000D03*
D16*
X27686000Y-60946000D03*
X27686000Y-61906000D03*
D43*
X5959999Y-14499999D03*
D44*
X8500000Y-17040000D03*
X11040000Y-14500000D03*
D16*
X25654000Y-60946000D03*
X25654000Y-61906000D03*
D20*
X10007500Y-40030000D03*
X8607500Y-40030000D03*
D45*
X21462500Y-61200000D03*
X22412500Y-61200000D03*
X23362500Y-61200000D03*
X23362500Y-58925000D03*
X21462500Y-58925000D03*
D16*
X24638000Y-60946000D03*
X24638000Y-61906000D03*
D29*
X7725000Y-46710000D03*
X7725000Y-45690000D03*
D16*
X26670000Y-60946000D03*
X26670000Y-61906000D03*
D26*
X49212500Y-36000000D03*
X50787500Y-36000000D03*
D12*
X65000000Y-5000000D03*
D13*
X65000000Y-5000000D03*
D28*
X26670000Y-59366000D03*
X26670000Y-58406000D03*
D25*
X37920000Y-60590000D03*
X38940000Y-60590000D03*
D46*
X56724999Y-12074999D03*
D47*
X59264999Y-12074999D03*
X56724999Y-14614999D03*
X59264999Y-14614999D03*
X56724999Y-17154999D03*
X59264999Y-17154999D03*
X56724999Y-19694999D03*
X59264999Y-19694999D03*
X56724999Y-22234999D03*
X59264999Y-22234999D03*
X56724999Y-24774999D03*
X59264999Y-24774999D03*
X56724999Y-27314999D03*
X59264999Y-27314999D03*
X56724999Y-29854999D03*
X59264999Y-29854999D03*
X56724999Y-32394999D03*
X59264999Y-32394999D03*
X56724999Y-34934999D03*
X59264999Y-34934999D03*
D10*
X10520000Y-22750000D03*
X11480000Y-22750000D03*
D28*
X33782000Y-45311000D03*
X33782000Y-44351000D03*
D31*
X57830000Y-39940000D03*
X57830000Y-40960000D03*
D28*
X54000000Y-60980000D03*
X54000000Y-60020000D03*
D26*
X50212500Y-22000000D03*
X51787500Y-22000000D03*
D48*
X7790000Y-32530000D03*
X11090000Y-32530000D03*
D25*
X13013986Y-42409099D03*
X14033986Y-42409099D03*
D49*
X10255000Y-41975000D03*
X9295000Y-41975000D03*
D25*
X8715000Y-46750000D03*
X9735000Y-46750000D03*
D26*
X18212500Y-22000000D03*
X19787500Y-22000000D03*
D50*
X54380000Y-40300000D03*
X54380000Y-42200000D03*
X56255000Y-41250000D03*
D51*
X5100000Y-36610000D03*
X5100000Y-42390000D03*
D52*
X6544999Y-36249999D03*
X6544999Y-37049999D03*
D53*
X6544999Y-38249999D03*
X6544999Y-39249999D03*
X6544999Y-39749999D03*
X6544999Y-40749999D03*
D52*
X6544999Y-41949999D03*
X6544999Y-42749999D03*
X6544999Y-42749999D03*
X6544999Y-41949999D03*
D53*
X6544999Y-41249999D03*
X6544999Y-40249999D03*
X6544999Y-38749999D03*
X6544999Y-37749999D03*
D52*
X6544999Y-37049999D03*
X6544999Y-36249999D03*
D54*
X5629999Y-35179999D03*
D55*
X1449999Y-35179999D03*
D54*
X5629999Y-43819999D03*
D55*
X1449999Y-43819999D03*
D12*
X65000000Y-65000000D03*
D13*
X65000000Y-65000000D03*
D28*
X10490000Y-29285000D03*
X10490000Y-28325000D03*
D19*
X52830000Y-42470000D03*
X51810000Y-42470000D03*
D28*
X24638000Y-59366000D03*
X24638000Y-58406000D03*
D50*
X11832500Y-62790000D03*
X11832500Y-64690000D03*
X13707500Y-63740000D03*
D25*
X63250000Y-29900000D03*
X64270000Y-29900000D03*
D28*
X30607000Y-45311000D03*
X30607000Y-44351000D03*
D39*
X47917500Y-66800000D03*
X47917500Y-64900000D03*
X46042500Y-65850000D03*
D56*
X29972000Y-63471500D03*
X29972000Y-60396500D03*
D36*
X11475000Y-45449999D03*
X11475000Y-44499999D03*
X11475000Y-43549999D03*
X9200000Y-43549999D03*
X9200000Y-44499999D03*
X9200000Y-45449999D03*
D57*
X19440000Y-31332500D03*
X19440000Y-29507500D03*
D27*
X23212500Y-52875001D03*
X20137500Y-52875001D03*
D58*
X52690000Y-2460000D03*
D59*
X52690000Y-5000000D03*
D58*
X52690000Y-7540000D03*
X58405000Y-2460000D03*
X58405000Y-7540000D03*
D59*
X60310000Y-3984000D03*
X60310000Y-6016000D03*
D60*
X53960000Y-5635000D03*
X55230000Y-5635000D03*
X56500000Y-5635000D03*
X57770000Y-5635000D03*
X59040000Y-5635000D03*
X59040000Y-4365000D03*
X57770000Y-4365000D03*
X56500000Y-4365000D03*
X55230000Y-4365000D03*
X53960000Y-4365000D03*
D16*
X7630000Y-28890000D03*
X7630000Y-29850000D03*
D49*
X13950000Y-23630000D03*
X12990000Y-23630000D03*
D61*
X53560000Y-48630000D03*
X54960000Y-48630000D03*
X52860000Y-47930000D03*
X54260000Y-47930000D03*
X55660000Y-47930000D03*
X53560000Y-47230000D03*
X54960000Y-47230000D03*
X52860000Y-46530000D03*
X54260000Y-46530000D03*
X55660000Y-46530000D03*
X53560000Y-45830000D03*
X54960000Y-45830000D03*
M02*
