%TF.GenerationSoftware,KiCad,Pcbnew,(7.0.0)*%
%TF.CreationDate,2023-03-19T15:39:49-07:00*%
%TF.ProjectId,ai-camera-rev2,61692d63-616d-4657-9261-2d726576322e,rev2*%
%TF.SameCoordinates,PX5a995c0PY2aea540*%
%TF.FileFunction,Soldermask,Bot*%
%TF.FilePolarity,Negative*%
%FSLAX46Y46*%
G04 Gerber Fmt 4.6, Leading zero omitted, Abs format (unit mm)*
G04 Created by KiCad (PCBNEW (7.0.0)) date 2023-03-19 15:39:49*
%MOMM*%
%LPD*%
G01*
G04 APERTURE LIST*
G04 Aperture macros list*
%AMRoundRect*
0 Rectangle with rounded corners*
0 $1 Rounding radius*
0 $2 $3 $4 $5 $6 $7 $8 $9 X,Y pos of 4 corners*
0 Add a 4 corners polygon primitive as box body*
4,1,4,$2,$3,$4,$5,$6,$7,$8,$9,$2,$3,0*
0 Add four circle primitives for the rounded corners*
1,1,$1+$1,$2,$3*
1,1,$1+$1,$4,$5*
1,1,$1+$1,$6,$7*
1,1,$1+$1,$8,$9*
0 Add four rect primitives between the rounded corners*
20,1,$1+$1,$2,$3,$4,$5,0*
20,1,$1+$1,$4,$5,$6,$7,0*
20,1,$1+$1,$6,$7,$8,$9,0*
20,1,$1+$1,$8,$9,$2,$3,0*%
%AMRotRect*
0 Rectangle, with rotation*
0 The origin of the aperture is its center*
0 $1 length*
0 $2 width*
0 $3 Rotation angle, in degrees counterclockwise*
0 Add horizontal line*
21,1,$1,$2,0,0,$3*%
G04 Aperture macros list end*
%ADD10C,3.600000*%
%ADD11C,6.400000*%
%ADD12C,4.000000*%
%ADD13C,1.700000*%
%ADD14C,0.800000*%
%ADD15RotRect,1.524000X1.524000X45.000000*%
%ADD16C,1.524000*%
%ADD17R,1.700000X1.700000*%
%ADD18O,1.700000X1.700000*%
%ADD19C,0.650000*%
%ADD20O,2.100000X1.000000*%
%ADD21O,1.600000X1.000000*%
%ADD22C,2.374900*%
%ADD23C,0.990600*%
%ADD24RoundRect,0.150000X-0.587500X-0.150000X0.587500X-0.150000X0.587500X0.150000X-0.587500X0.150000X0*%
%ADD25RoundRect,0.250000X0.412500X0.925000X-0.412500X0.925000X-0.412500X-0.925000X0.412500X-0.925000X0*%
%ADD26C,1.000000*%
%ADD27RoundRect,0.135000X0.135000X0.185000X-0.135000X0.185000X-0.135000X-0.185000X0.135000X-0.185000X0*%
%ADD28RoundRect,0.140000X0.170000X-0.140000X0.170000X0.140000X-0.170000X0.140000X-0.170000X-0.140000X0*%
%ADD29R,0.900000X1.500000*%
%ADD30R,1.500000X0.900000*%
%ADD31C,0.600000*%
%ADD32R,3.900000X3.900000*%
%ADD33RoundRect,0.135000X-0.185000X0.135000X-0.185000X-0.135000X0.185000X-0.135000X0.185000X0.135000X0*%
%ADD34RoundRect,0.140000X-0.140000X-0.170000X0.140000X-0.170000X0.140000X0.170000X-0.140000X0.170000X0*%
%ADD35RoundRect,0.150000X0.587500X0.150000X-0.587500X0.150000X-0.587500X-0.150000X0.587500X-0.150000X0*%
%ADD36RoundRect,0.140000X-0.170000X0.140000X-0.170000X-0.140000X0.170000X-0.140000X0.170000X0.140000X0*%
%ADD37RoundRect,0.140000X0.140000X0.170000X-0.140000X0.170000X-0.140000X-0.170000X0.140000X-0.170000X0*%
%ADD38RoundRect,0.150000X-0.150000X0.587500X-0.150000X-0.587500X0.150000X-0.587500X0.150000X0.587500X0*%
%ADD39RoundRect,0.135000X-0.135000X-0.185000X0.135000X-0.185000X0.135000X0.185000X-0.135000X0.185000X0*%
%ADD40R,1.000000X1.500000*%
%ADD41RoundRect,0.150000X0.512500X0.150000X-0.512500X0.150000X-0.512500X-0.150000X0.512500X-0.150000X0*%
%ADD42RoundRect,0.135000X0.185000X-0.135000X0.185000X0.135000X-0.185000X0.135000X-0.185000X-0.135000X0*%
%ADD43RoundRect,0.150000X-0.150000X0.512500X-0.150000X-0.512500X0.150000X-0.512500X0.150000X0.512500X0*%
%ADD44RoundRect,0.250000X0.450000X-0.325000X0.450000X0.325000X-0.450000X0.325000X-0.450000X-0.325000X0*%
G04 APERTURE END LIST*
D10*
X5000000Y-65000000D03*
D11*
X5000000Y-65000000D03*
D10*
X5000000Y-5000000D03*
D11*
X5000000Y-5000000D03*
D12*
X24000000Y-22000000D03*
X46000000Y-22000000D03*
D13*
X44600000Y-7000000D03*
X37400000Y-7000000D03*
X43250000Y-4500000D03*
X38750000Y-4500000D03*
X32600000Y-7000000D03*
X25400000Y-7000000D03*
X31250000Y-4500000D03*
X26750000Y-4500000D03*
D14*
X21500000Y-16625000D03*
X21500000Y-15375000D03*
D15*
X5959999Y-14499999D03*
D16*
X8500000Y-17040000D03*
X11040000Y-14500000D03*
D10*
X65000000Y-5000000D03*
D11*
X65000000Y-5000000D03*
D17*
X56724999Y-12074999D03*
D18*
X59264999Y-12074999D03*
X56724999Y-14614999D03*
X59264999Y-14614999D03*
X56724999Y-17154999D03*
X59264999Y-17154999D03*
X56724999Y-19694999D03*
X59264999Y-19694999D03*
X56724999Y-22234999D03*
X59264999Y-22234999D03*
X56724999Y-24774999D03*
X59264999Y-24774999D03*
X56724999Y-27314999D03*
X59264999Y-27314999D03*
X56724999Y-29854999D03*
X59264999Y-29854999D03*
X56724999Y-32394999D03*
X59264999Y-32394999D03*
X56724999Y-34934999D03*
X59264999Y-34934999D03*
D19*
X5100000Y-36610000D03*
X5100000Y-42390000D03*
D20*
X5629999Y-35179999D03*
D21*
X1449999Y-35179999D03*
D20*
X5629999Y-43819999D03*
D21*
X1449999Y-43819999D03*
D10*
X65000000Y-65000000D03*
D11*
X65000000Y-65000000D03*
D22*
X52690000Y-2460000D03*
D23*
X52690000Y-5000000D03*
D22*
X52690000Y-7540000D03*
X58405000Y-2460000D03*
X58405000Y-7540000D03*
D23*
X60310000Y-3984000D03*
X60310000Y-6016000D03*
D24*
X20562500Y-13810000D03*
X20562500Y-11910000D03*
X22437500Y-12860000D03*
D25*
X59375000Y-62637500D03*
X56300000Y-62637500D03*
D26*
X25750000Y-31750000D03*
D27*
X15430000Y-28870000D03*
X14410000Y-28870000D03*
D26*
X9500000Y-53000000D03*
D28*
X61250000Y-35390000D03*
X61250000Y-34430000D03*
D29*
X61979999Y-54479999D03*
X60709999Y-54479999D03*
X59439999Y-54479999D03*
X58169999Y-54479999D03*
X56899999Y-54479999D03*
X55629999Y-54479999D03*
X54359999Y-54479999D03*
X53089999Y-54479999D03*
X51819999Y-54479999D03*
X50549999Y-54479999D03*
X49279999Y-54479999D03*
X48009999Y-54479999D03*
X46739999Y-54479999D03*
X45469999Y-54479999D03*
D30*
X44219999Y-52714999D03*
X44219999Y-51444999D03*
X44219999Y-50174999D03*
X44219999Y-48904999D03*
X44219999Y-47634999D03*
X44219999Y-46364999D03*
X44219999Y-45094999D03*
X44219999Y-43824999D03*
X44219999Y-42554999D03*
X44219999Y-41284999D03*
X44219999Y-40014999D03*
X44219999Y-38744999D03*
D29*
X45469999Y-36979999D03*
X46739999Y-36979999D03*
X48009999Y-36979999D03*
X49279999Y-36979999D03*
X50549999Y-36979999D03*
X51819999Y-36979999D03*
X53089999Y-36979999D03*
X54359999Y-36979999D03*
X55629999Y-36979999D03*
X56899999Y-36979999D03*
X58169999Y-36979999D03*
X59439999Y-36979999D03*
X60709999Y-36979999D03*
X61979999Y-36979999D03*
D31*
X53560000Y-48630000D03*
X54960000Y-48630000D03*
X52860000Y-47930000D03*
X54260000Y-47930000D03*
X55660000Y-47930000D03*
X53560000Y-47230000D03*
D32*
X54259999Y-47229999D03*
D31*
X54960000Y-47230000D03*
X52860000Y-46530000D03*
X54260000Y-46530000D03*
X55660000Y-46530000D03*
X53560000Y-45830000D03*
X54960000Y-45830000D03*
D26*
X25750000Y-39250000D03*
D28*
X18000000Y-18480000D03*
X18000000Y-17520000D03*
X19500000Y-25230000D03*
X19500000Y-24270000D03*
X37236400Y-42418000D03*
X37236400Y-41458000D03*
D26*
X39000000Y-39250000D03*
D33*
X20000000Y-17490000D03*
X20000000Y-18510000D03*
D26*
X51250000Y-15750000D03*
D28*
X14750000Y-11980000D03*
X14750000Y-11020000D03*
X18000000Y-25230000D03*
X18000000Y-24270000D03*
D34*
X60895000Y-56975000D03*
X61855000Y-56975000D03*
D35*
X15837500Y-39210000D03*
X15837500Y-41110000D03*
X13962500Y-40160000D03*
D28*
X6000000Y-12480000D03*
X6000000Y-11520000D03*
D36*
X29413200Y-44941900D03*
X29413200Y-45901900D03*
D27*
X40510000Y-8750000D03*
X39490000Y-8750000D03*
D37*
X11500000Y-4500000D03*
X10540000Y-4500000D03*
D25*
X59387500Y-66050000D03*
X56312500Y-66050000D03*
D26*
X22000000Y-4500000D03*
D38*
X30990200Y-44934900D03*
X32890200Y-44934900D03*
X31940200Y-46809900D03*
D26*
X48250000Y-6750000D03*
X63750000Y-11500000D03*
D37*
X46300000Y-35440000D03*
X45340000Y-35440000D03*
D28*
X20726400Y-45878800D03*
X20726400Y-44918800D03*
D27*
X17510000Y-3250000D03*
X16490000Y-3250000D03*
D39*
X19740000Y-10570000D03*
X20760000Y-10570000D03*
D28*
X20750000Y-24730000D03*
X20750000Y-23770000D03*
D24*
X11062500Y-12450000D03*
X11062500Y-10550000D03*
X12937500Y-11500000D03*
D34*
X60895000Y-55975000D03*
X61855000Y-55975000D03*
D26*
X9500000Y-49750000D03*
D40*
X17099999Y-13249999D03*
X18399999Y-13249999D03*
D24*
X13062500Y-8950000D03*
X13062500Y-7050000D03*
X14937500Y-8000000D03*
D41*
X15137500Y-3550000D03*
X15137500Y-4500000D03*
X15137500Y-5450000D03*
X12862500Y-5450000D03*
X12862500Y-4500000D03*
X12862500Y-3550000D03*
D27*
X17510000Y-4250000D03*
X16490000Y-4250000D03*
D26*
X64750000Y-32500000D03*
D36*
X24282400Y-44918800D03*
X24282400Y-45878800D03*
D26*
X36250000Y-18750000D03*
X18000000Y-31750000D03*
D39*
X17310000Y-36460000D03*
X18330000Y-36460000D03*
D42*
X7000000Y-12510000D03*
X7000000Y-11490000D03*
D27*
X18330000Y-35450000D03*
X17310000Y-35450000D03*
D34*
X60920000Y-59000000D03*
X61880000Y-59000000D03*
X31206200Y-48666400D03*
X32166200Y-48666400D03*
D26*
X63750000Y-15250000D03*
D36*
X9250000Y-11020000D03*
X9250000Y-11980000D03*
X54102000Y-34346000D03*
X54102000Y-35306000D03*
D34*
X60895000Y-58000000D03*
X61855000Y-58000000D03*
X26952000Y-48260000D03*
X27912000Y-48260000D03*
D26*
X38750000Y-21500000D03*
X29000000Y-25250000D03*
D28*
X19000000Y-18480000D03*
X19000000Y-17520000D03*
D25*
X59362500Y-59250000D03*
X56287500Y-59250000D03*
D43*
X18250000Y-20062500D03*
X19200000Y-20062500D03*
X20150000Y-20062500D03*
X20150000Y-22337500D03*
X19200000Y-22337500D03*
X18250000Y-22337500D03*
D35*
X37937500Y-9050000D03*
X37937500Y-10950000D03*
X36062500Y-10000000D03*
D44*
X22504400Y-46795800D03*
X22504400Y-44745800D03*
D26*
X63750000Y-18750000D03*
X25750000Y-41750000D03*
X20750000Y-31750000D03*
D36*
X34512200Y-44932900D03*
X34512200Y-45892900D03*
D26*
X48250000Y-9750000D03*
D27*
X24740000Y-15150000D03*
X23720000Y-15150000D03*
D26*
X39000000Y-44750000D03*
D36*
X18000000Y-39480000D03*
X18000000Y-40440000D03*
X36068000Y-44935200D03*
X36068000Y-45895200D03*
D38*
X25923200Y-44934900D03*
X27823200Y-44934900D03*
X26873200Y-46809900D03*
D24*
X24562500Y-13800000D03*
X24562500Y-11900000D03*
X26437500Y-12850000D03*
D26*
X48250000Y-13000000D03*
X21000000Y-39250000D03*
X38750000Y-25250000D03*
D39*
X14410000Y-29880000D03*
X15430000Y-29880000D03*
D26*
X32000000Y-42500000D03*
D35*
X15837500Y-35700000D03*
X15837500Y-37600000D03*
X13962500Y-36650000D03*
M02*
