%TF.GenerationSoftware,KiCad,Pcbnew,(7.0.0)*%
%TF.CreationDate,2023-03-19T17:01:15-07:00*%
%TF.ProjectId,ai-camera-rev2,61692d63-616d-4657-9261-2d726576322e,rev2*%
%TF.SameCoordinates,PX5a995c0PY2aea540*%
%TF.FileFunction,Copper,L4,Bot*%
%TF.FilePolarity,Positive*%
%FSLAX46Y46*%
G04 Gerber Fmt 4.6, Leading zero omitted, Abs format (unit mm)*
G04 Created by KiCad (PCBNEW (7.0.0)) date 2023-03-19 17:01:15*
%MOMM*%
%LPD*%
G01*
G04 APERTURE LIST*
G04 Aperture macros list*
%AMRoundRect*
0 Rectangle with rounded corners*
0 $1 Rounding radius*
0 $2 $3 $4 $5 $6 $7 $8 $9 X,Y pos of 4 corners*
0 Add a 4 corners polygon primitive as box body*
4,1,4,$2,$3,$4,$5,$6,$7,$8,$9,$2,$3,0*
0 Add four circle primitives for the rounded corners*
1,1,$1+$1,$2,$3*
1,1,$1+$1,$4,$5*
1,1,$1+$1,$6,$7*
1,1,$1+$1,$8,$9*
0 Add four rect primitives between the rounded corners*
20,1,$1+$1,$2,$3,$4,$5,0*
20,1,$1+$1,$4,$5,$6,$7,0*
20,1,$1+$1,$6,$7,$8,$9,0*
20,1,$1+$1,$8,$9,$2,$3,0*%
%AMRotRect*
0 Rectangle, with rotation*
0 The origin of the aperture is its center*
0 $1 length*
0 $2 width*
0 $3 Rotation angle, in degrees counterclockwise*
0 Add horizontal line*
21,1,$1,$2,0,0,$3*%
G04 Aperture macros list end*
%TA.AperFunction,ComponentPad*%
%ADD10C,3.600000*%
%TD*%
%TA.AperFunction,ConnectorPad*%
%ADD11C,6.400000*%
%TD*%
%TA.AperFunction,WasherPad*%
%ADD12C,4.000000*%
%TD*%
%TA.AperFunction,WasherPad*%
%ADD13C,1.700000*%
%TD*%
%TA.AperFunction,ComponentPad*%
%ADD14C,1.700000*%
%TD*%
%TA.AperFunction,ComponentPad*%
%ADD15C,0.800000*%
%TD*%
%TA.AperFunction,ComponentPad*%
%ADD16RotRect,1.524000X1.524000X45.000000*%
%TD*%
%TA.AperFunction,ComponentPad*%
%ADD17C,1.524000*%
%TD*%
%TA.AperFunction,ComponentPad*%
%ADD18R,1.700000X1.700000*%
%TD*%
%TA.AperFunction,ComponentPad*%
%ADD19O,1.700000X1.700000*%
%TD*%
%TA.AperFunction,ComponentPad*%
%ADD20O,2.100000X1.000000*%
%TD*%
%TA.AperFunction,ComponentPad*%
%ADD21O,1.600000X1.000000*%
%TD*%
%TA.AperFunction,SMDPad,CuDef*%
%ADD22RoundRect,0.150000X-0.587500X-0.150000X0.587500X-0.150000X0.587500X0.150000X-0.587500X0.150000X0*%
%TD*%
%TA.AperFunction,SMDPad,CuDef*%
%ADD23RoundRect,0.250000X0.412500X0.925000X-0.412500X0.925000X-0.412500X-0.925000X0.412500X-0.925000X0*%
%TD*%
%TA.AperFunction,SMDPad,CuDef*%
%ADD24C,1.000000*%
%TD*%
%TA.AperFunction,SMDPad,CuDef*%
%ADD25RoundRect,0.135000X0.135000X0.185000X-0.135000X0.185000X-0.135000X-0.185000X0.135000X-0.185000X0*%
%TD*%
%TA.AperFunction,SMDPad,CuDef*%
%ADD26RoundRect,0.140000X0.170000X-0.140000X0.170000X0.140000X-0.170000X0.140000X-0.170000X-0.140000X0*%
%TD*%
%TA.AperFunction,SMDPad,CuDef*%
%ADD27R,0.900000X1.500000*%
%TD*%
%TA.AperFunction,SMDPad,CuDef*%
%ADD28R,1.500000X0.900000*%
%TD*%
%TA.AperFunction,ComponentPad*%
%ADD29C,0.600000*%
%TD*%
%TA.AperFunction,SMDPad,CuDef*%
%ADD30R,3.900000X3.900000*%
%TD*%
%TA.AperFunction,SMDPad,CuDef*%
%ADD31RoundRect,0.135000X-0.185000X0.135000X-0.185000X-0.135000X0.185000X-0.135000X0.185000X0.135000X0*%
%TD*%
%TA.AperFunction,SMDPad,CuDef*%
%ADD32RoundRect,0.140000X-0.140000X-0.170000X0.140000X-0.170000X0.140000X0.170000X-0.140000X0.170000X0*%
%TD*%
%TA.AperFunction,SMDPad,CuDef*%
%ADD33RoundRect,0.150000X0.587500X0.150000X-0.587500X0.150000X-0.587500X-0.150000X0.587500X-0.150000X0*%
%TD*%
%TA.AperFunction,SMDPad,CuDef*%
%ADD34RoundRect,0.140000X-0.170000X0.140000X-0.170000X-0.140000X0.170000X-0.140000X0.170000X0.140000X0*%
%TD*%
%TA.AperFunction,SMDPad,CuDef*%
%ADD35RoundRect,0.140000X0.140000X0.170000X-0.140000X0.170000X-0.140000X-0.170000X0.140000X-0.170000X0*%
%TD*%
%TA.AperFunction,SMDPad,CuDef*%
%ADD36RoundRect,0.150000X-0.150000X0.587500X-0.150000X-0.587500X0.150000X-0.587500X0.150000X0.587500X0*%
%TD*%
%TA.AperFunction,SMDPad,CuDef*%
%ADD37RoundRect,0.135000X-0.135000X-0.185000X0.135000X-0.185000X0.135000X0.185000X-0.135000X0.185000X0*%
%TD*%
%TA.AperFunction,SMDPad,CuDef*%
%ADD38R,1.000000X1.500000*%
%TD*%
%TA.AperFunction,SMDPad,CuDef*%
%ADD39RoundRect,0.150000X0.512500X0.150000X-0.512500X0.150000X-0.512500X-0.150000X0.512500X-0.150000X0*%
%TD*%
%TA.AperFunction,SMDPad,CuDef*%
%ADD40RoundRect,0.135000X0.185000X-0.135000X0.185000X0.135000X-0.185000X0.135000X-0.185000X-0.135000X0*%
%TD*%
%TA.AperFunction,SMDPad,CuDef*%
%ADD41RoundRect,0.150000X-0.150000X0.512500X-0.150000X-0.512500X0.150000X-0.512500X0.150000X0.512500X0*%
%TD*%
%TA.AperFunction,SMDPad,CuDef*%
%ADD42RoundRect,0.250000X0.450000X-0.325000X0.450000X0.325000X-0.450000X0.325000X-0.450000X-0.325000X0*%
%TD*%
%TA.AperFunction,ViaPad*%
%ADD43C,0.600000*%
%TD*%
%TA.AperFunction,Conductor*%
%ADD44C,0.127000*%
%TD*%
%TA.AperFunction,Conductor*%
%ADD45C,0.203200*%
%TD*%
%TA.AperFunction,Conductor*%
%ADD46C,0.500000*%
%TD*%
%TA.AperFunction,Conductor*%
%ADD47C,0.200000*%
%TD*%
%TA.AperFunction,Conductor*%
%ADD48C,0.250000*%
%TD*%
G04 APERTURE END LIST*
G36*
X18000000Y-13050000D02*
G01*
X17500000Y-13050000D01*
X17500000Y-12650000D01*
X18000000Y-12650000D01*
X18000000Y-13050000D01*
G37*
G36*
X18000000Y-13850000D02*
G01*
X17500000Y-13850000D01*
X17500000Y-13450000D01*
X18000000Y-13450000D01*
X18000000Y-13850000D01*
G37*
D10*
X5000000Y-65000000D03*
D11*
X5000000Y-65000000D03*
D10*
X5000000Y-5000000D03*
D11*
X5000000Y-5000000D03*
D12*
X24000000Y-22000000D03*
X46000000Y-22000000D03*
D13*
X44600000Y-7000000D03*
X37400000Y-7000000D03*
D14*
X43250000Y-4500000D03*
X38750000Y-4500000D03*
D13*
X32600000Y-7000000D03*
X25400000Y-7000000D03*
D14*
X31250000Y-4500000D03*
X26750000Y-4500000D03*
D15*
X21500000Y-16625000D03*
X21500000Y-15375000D03*
D16*
X5959999Y-14499999D03*
D17*
X8500000Y-17040000D03*
X11040000Y-14500000D03*
D10*
X65000000Y-5000000D03*
D11*
X65000000Y-5000000D03*
D18*
X56724999Y-12074999D03*
D19*
X59264999Y-12074999D03*
X56724999Y-14614999D03*
X59264999Y-14614999D03*
X56724999Y-17154999D03*
X59264999Y-17154999D03*
X56724999Y-19694999D03*
X59264999Y-19694999D03*
X56724999Y-22234999D03*
X59264999Y-22234999D03*
X56724999Y-24774999D03*
X59264999Y-24774999D03*
X56724999Y-27314999D03*
X59264999Y-27314999D03*
X56724999Y-29854999D03*
X59264999Y-29854999D03*
X56724999Y-32394999D03*
X59264999Y-32394999D03*
X56724999Y-34934999D03*
X59264999Y-34934999D03*
D20*
X5629999Y-35179999D03*
D21*
X1449999Y-35179999D03*
D20*
X5629999Y-43819999D03*
D21*
X1449999Y-43819999D03*
D10*
X65000000Y-65000000D03*
D11*
X65000000Y-65000000D03*
D22*
X20562500Y-13810000D03*
X20562500Y-11910000D03*
X22437500Y-12860000D03*
D23*
X59375000Y-62637500D03*
X56300000Y-62637500D03*
D24*
X25750000Y-31750000D03*
D25*
X15430000Y-28870000D03*
X14410000Y-28870000D03*
D24*
X9500000Y-53000000D03*
D26*
X61250000Y-35390000D03*
X61250000Y-34430000D03*
D27*
X61979999Y-54479999D03*
X60709999Y-54479999D03*
X59439999Y-54479999D03*
X58169999Y-54479999D03*
X56899999Y-54479999D03*
X55629999Y-54479999D03*
X54359999Y-54479999D03*
X53089999Y-54479999D03*
X51819999Y-54479999D03*
X50549999Y-54479999D03*
X49279999Y-54479999D03*
X48009999Y-54479999D03*
X46739999Y-54479999D03*
X45469999Y-54479999D03*
D28*
X44219999Y-52714999D03*
X44219999Y-51444999D03*
X44219999Y-50174999D03*
X44219999Y-48904999D03*
X44219999Y-47634999D03*
X44219999Y-46364999D03*
X44219999Y-45094999D03*
X44219999Y-43824999D03*
X44219999Y-42554999D03*
X44219999Y-41284999D03*
X44219999Y-40014999D03*
X44219999Y-38744999D03*
D27*
X45469999Y-36979999D03*
X46739999Y-36979999D03*
X48009999Y-36979999D03*
X49279999Y-36979999D03*
X50549999Y-36979999D03*
X51819999Y-36979999D03*
X53089999Y-36979999D03*
X54359999Y-36979999D03*
X55629999Y-36979999D03*
X56899999Y-36979999D03*
X58169999Y-36979999D03*
X59439999Y-36979999D03*
X60709999Y-36979999D03*
X61979999Y-36979999D03*
D29*
X53560000Y-48630000D03*
X54960000Y-48630000D03*
X52860000Y-47930000D03*
X54260000Y-47930000D03*
X55660000Y-47930000D03*
X53560000Y-47230000D03*
D30*
X54259999Y-47229999D03*
D29*
X54960000Y-47230000D03*
X52860000Y-46530000D03*
X54260000Y-46530000D03*
X55660000Y-46530000D03*
X53560000Y-45830000D03*
X54960000Y-45830000D03*
D24*
X25750000Y-39250000D03*
D26*
X18000000Y-18480000D03*
X18000000Y-17520000D03*
X19500000Y-25230000D03*
X19500000Y-24270000D03*
X37236400Y-42418000D03*
X37236400Y-41458000D03*
D24*
X39000000Y-39250000D03*
D31*
X20000000Y-17490000D03*
X20000000Y-18510000D03*
D24*
X51250000Y-15750000D03*
D26*
X14750000Y-11980000D03*
X14750000Y-11020000D03*
X18000000Y-25230000D03*
X18000000Y-24270000D03*
D32*
X60895000Y-56975000D03*
X61855000Y-56975000D03*
D33*
X15837500Y-39210000D03*
X15837500Y-41110000D03*
X13962500Y-40160000D03*
D26*
X6000000Y-12480000D03*
X6000000Y-11520000D03*
D34*
X29413200Y-44941900D03*
X29413200Y-45901900D03*
D25*
X40510000Y-8750000D03*
X39490000Y-8750000D03*
D35*
X11500000Y-4500000D03*
X10540000Y-4500000D03*
D23*
X59387500Y-66050000D03*
X56312500Y-66050000D03*
D24*
X22000000Y-4500000D03*
D36*
X31940200Y-46809900D03*
X32890200Y-44934900D03*
X30990200Y-44934900D03*
D24*
X48250000Y-6750000D03*
X63750000Y-11500000D03*
D35*
X46300000Y-35440000D03*
X45340000Y-35440000D03*
D26*
X20726400Y-45878800D03*
X20726400Y-44918800D03*
D25*
X17510000Y-3250000D03*
X16490000Y-3250000D03*
D37*
X19740000Y-10570000D03*
X20760000Y-10570000D03*
D26*
X20750000Y-24730000D03*
X20750000Y-23770000D03*
D22*
X11062500Y-12450000D03*
X11062500Y-10550000D03*
X12937500Y-11500000D03*
D32*
X60895000Y-55975000D03*
X61855000Y-55975000D03*
D24*
X9500000Y-49750000D03*
D38*
X17099999Y-13249999D03*
X18399999Y-13249999D03*
D22*
X13062500Y-8950000D03*
X13062500Y-7050000D03*
X14937500Y-8000000D03*
D39*
X15137500Y-3550000D03*
X15137500Y-4500000D03*
X15137500Y-5450000D03*
X12862500Y-5450000D03*
X12862500Y-4500000D03*
X12862500Y-3550000D03*
D25*
X17510000Y-4250000D03*
X16490000Y-4250000D03*
D24*
X64750000Y-32500000D03*
D34*
X24282400Y-44918800D03*
X24282400Y-45878800D03*
D24*
X36250000Y-18750000D03*
X18000000Y-31750000D03*
D37*
X17310000Y-36460000D03*
X18330000Y-36460000D03*
D40*
X7000000Y-12510000D03*
X7000000Y-11490000D03*
D25*
X18330000Y-35450000D03*
X17310000Y-35450000D03*
D32*
X60920000Y-59000000D03*
X61880000Y-59000000D03*
X31206200Y-48666400D03*
X32166200Y-48666400D03*
D24*
X63750000Y-15250000D03*
D34*
X9250000Y-11020000D03*
X9250000Y-11980000D03*
X54102000Y-34346000D03*
X54102000Y-35306000D03*
D32*
X60895000Y-58000000D03*
X61855000Y-58000000D03*
X26952000Y-48260000D03*
X27912000Y-48260000D03*
D24*
X38750000Y-21500000D03*
X29000000Y-25250000D03*
D26*
X19000000Y-18480000D03*
X19000000Y-17520000D03*
D23*
X59362500Y-59250000D03*
X56287500Y-59250000D03*
D41*
X18250000Y-20062500D03*
X19200000Y-20062500D03*
X20150000Y-20062500D03*
X20150000Y-22337500D03*
X19200000Y-22337500D03*
X18250000Y-22337500D03*
D33*
X37937500Y-9050000D03*
X37937500Y-10950000D03*
X36062500Y-10000000D03*
D42*
X22504400Y-46795800D03*
X22504400Y-44745800D03*
D24*
X63750000Y-18750000D03*
X25750000Y-41750000D03*
X20750000Y-31750000D03*
D34*
X34512200Y-44932900D03*
X34512200Y-45892900D03*
D24*
X48250000Y-9750000D03*
D25*
X24740000Y-15150000D03*
X23720000Y-15150000D03*
D24*
X39000000Y-44750000D03*
D34*
X18000000Y-39480000D03*
X18000000Y-40440000D03*
X36068000Y-44935200D03*
X36068000Y-45895200D03*
D36*
X25923200Y-44934900D03*
X27823200Y-44934900D03*
X26873200Y-46809900D03*
D22*
X24562500Y-13800000D03*
X24562500Y-11900000D03*
X26437500Y-12850000D03*
D24*
X48250000Y-13000000D03*
X21000000Y-39250000D03*
X38750000Y-25250000D03*
D37*
X14410000Y-29880000D03*
X15430000Y-29880000D03*
D24*
X32000000Y-42500000D03*
D33*
X15837500Y-35700000D03*
X15837500Y-37600000D03*
X13962500Y-36650000D03*
D43*
X10000000Y-69000000D03*
X50000000Y-69000000D03*
X20000000Y-69000000D03*
X30000000Y-69000000D03*
X41000000Y-69000000D03*
X60000000Y-69000000D03*
X6000000Y-56000000D03*
X6000000Y-49000000D03*
X1000000Y-62000000D03*
X69000000Y-9000000D03*
X69000000Y-19000000D03*
X69000000Y-29000000D03*
X69000000Y-59000000D03*
X1000000Y-9000000D03*
X1000000Y-19000000D03*
X1000000Y-29000000D03*
X1000000Y-40000000D03*
X60000000Y-1000000D03*
X50000000Y-1000000D03*
X41000000Y-1000000D03*
X30000000Y-1000000D03*
X20000000Y-1000000D03*
X10000000Y-1000000D03*
X58740000Y-57010000D03*
X28500000Y-59000000D03*
X6000000Y-11000000D03*
X39850000Y-32870000D03*
X28469205Y-58050000D03*
X11750000Y-3500000D03*
X13500000Y-37500000D03*
X22000000Y-31750000D03*
X26000000Y-60000000D03*
X11800000Y-59400000D03*
X64250000Y-20500000D03*
X62500000Y-57000000D03*
X56500000Y-64000000D03*
X10350000Y-41025000D03*
X53000000Y-11500000D03*
X37000000Y-33000000D03*
X33000000Y-30500000D03*
X51000000Y-28500000D03*
X18250000Y-3750000D03*
X32896917Y-48779083D03*
X11000000Y-13000000D03*
X55500000Y-66925500D03*
X55500000Y-2500000D03*
X59584483Y-52218483D03*
X17250000Y-17500000D03*
X10000000Y-37250000D03*
X20500000Y-28250000D03*
X28000000Y-60000000D03*
X13249500Y-46990000D03*
X48650000Y-56550000D03*
X24638000Y-46440000D03*
X60000000Y-44000000D03*
X7300000Y-43575000D03*
X12725000Y-60775000D03*
X66000000Y-33750000D03*
X10621692Y-44835022D03*
X63000000Y-56500000D03*
X20250000Y-57767600D03*
X19500000Y-26250000D03*
X8000000Y-27000000D03*
X17025000Y-51500000D03*
X57658000Y-50546000D03*
X55118000Y-52070000D03*
X20088035Y-44911965D03*
X51054000Y-53086000D03*
X18500000Y-28250000D03*
X62500000Y-56000000D03*
X56500000Y-58000000D03*
X7234026Y-24150065D03*
X2625000Y-31650000D03*
X29750000Y-42500000D03*
X19500000Y-28250000D03*
X65975000Y-18125000D03*
X12610000Y-65980000D03*
X7475000Y-35500000D03*
X55000000Y-39000000D03*
X15900000Y-50600000D03*
X62353000Y-52983229D03*
X3240938Y-21030000D03*
X32000000Y-18500000D03*
X52324000Y-44704000D03*
X42000000Y-18000000D03*
X10000000Y-24750000D03*
X11800000Y-60325000D03*
X32000000Y-13000000D03*
X22750000Y-60000000D03*
X55500000Y-59000000D03*
X33000000Y-35500000D03*
X49250000Y-13500000D03*
X63000000Y-57500000D03*
X21000000Y-44000000D03*
X10750000Y-40000000D03*
X46999146Y-35422111D03*
X55500000Y-58000000D03*
X52578000Y-53086000D03*
X41500000Y-8750000D03*
X11250000Y-27000000D03*
X14800000Y-50600000D03*
X40000000Y-54000000D03*
X55906500Y-6750000D03*
X9700000Y-47450000D03*
X11800000Y-57750000D03*
X20250000Y-54500000D03*
X35306000Y-46882000D03*
X18100000Y-11625000D03*
X16200000Y-66700000D03*
X60250000Y-53000000D03*
X9750000Y-27000000D03*
X28000000Y-66000000D03*
X7700000Y-45200000D03*
X39750000Y-22250000D03*
X28000000Y-35000000D03*
X65950000Y-27525000D03*
X45000000Y-31000000D03*
X46750000Y-57650000D03*
X25300000Y-15160000D03*
X29000000Y-27000000D03*
X28448000Y-48260000D03*
X14900000Y-52300000D03*
X48250000Y-44629123D03*
X62500000Y-59000000D03*
X62500000Y-58000000D03*
X31500000Y-66000000D03*
X24384000Y-25908000D03*
X21250000Y-53000000D03*
X55500000Y-65000000D03*
X55500000Y-62000000D03*
X28000000Y-38000000D03*
X8250000Y-53000000D03*
X12500000Y-27000000D03*
X20102600Y-44000000D03*
X40443828Y-44750863D03*
X36250000Y-42250000D03*
X38110000Y-49070000D03*
X13800000Y-28860000D03*
X55500000Y-66000000D03*
X35020000Y-39870000D03*
X17200000Y-66750000D03*
X30000000Y-38000000D03*
X14500000Y-2750000D03*
X29413200Y-46440000D03*
X33000000Y-33000000D03*
X37500000Y-38000000D03*
X12750000Y-37500000D03*
X9600000Y-41075000D03*
X56750000Y-6750000D03*
X7475000Y-34625000D03*
X15110000Y-23580000D03*
X37000000Y-13000000D03*
X46750000Y-8000000D03*
X23000000Y-41000000D03*
X59500000Y-40000000D03*
X12306655Y-44180096D03*
X13225000Y-66575000D03*
X19250000Y-56250000D03*
X10000000Y-4500000D03*
X53990000Y-33650000D03*
X26390000Y-44890000D03*
X62000000Y-36000000D03*
X23750000Y-60000000D03*
X10750000Y-38000000D03*
X66025000Y-11550000D03*
X27000000Y-60000000D03*
X9250000Y-13000000D03*
X42000000Y-13000000D03*
X58166000Y-47244000D03*
X37290000Y-67200000D03*
X55500000Y-60000000D03*
X55500000Y-63000000D03*
X49500000Y-38500000D03*
X56500000Y-61500000D03*
X44525000Y-57650000D03*
X18173800Y-37155053D03*
X63750000Y-16250000D03*
X48000000Y-29000000D03*
X25250000Y-40000000D03*
X23876000Y-46440000D03*
X21250000Y-56250000D03*
X61750000Y-2750000D03*
X62500000Y-33750000D03*
X25000000Y-60000000D03*
X20250000Y-51500000D03*
X10000000Y-25750000D03*
X11825000Y-58550000D03*
X7229838Y-23485458D03*
X30930000Y-46790000D03*
X18000000Y-26250000D03*
X14750000Y-13126576D03*
X30210000Y-45890000D03*
X36000000Y-58000000D03*
X62000000Y-37000000D03*
X39000000Y-11000000D03*
X54000000Y-59500000D03*
X20750000Y-25250000D03*
X40700000Y-52050000D03*
X52000000Y-34000000D03*
X36068000Y-46440000D03*
X21844000Y-28448000D03*
X21750000Y-60000000D03*
X37250000Y-40825000D03*
X24260000Y-11050000D03*
X38500000Y-27000000D03*
X14250000Y-37500000D03*
X28500000Y-13000000D03*
X34280000Y-46530000D03*
X32000000Y-27000000D03*
X56388000Y-51308000D03*
X23539191Y-36987921D03*
X61000000Y-53000000D03*
X53848000Y-52578000D03*
X18300000Y-10500000D03*
X32000000Y-21000000D03*
X7300000Y-44450000D03*
X53350000Y-42199998D03*
X11350000Y-41925000D03*
X19200000Y-19200000D03*
X66125000Y-20650000D03*
X19250000Y-53000000D03*
X26162000Y-53806000D03*
X44610000Y-61620000D03*
X15900000Y-52300000D03*
X62000000Y-38000000D03*
X29000000Y-54000000D03*
X8685000Y-30745000D03*
X6815000Y-30715000D03*
X56500000Y-10000000D03*
X28200000Y-52450000D03*
X29000000Y-55000000D03*
X29000000Y-56000000D03*
X7795000Y-30725000D03*
X55750000Y-10000000D03*
X2730000Y-23438550D03*
X29000000Y-53000000D03*
X15750000Y-54500000D03*
X14850000Y-54450000D03*
X14000000Y-54500000D03*
X12680000Y-53500000D03*
X61000000Y-63500000D03*
X55750000Y-8500000D03*
X33000000Y-62500000D03*
X54000000Y-61500000D03*
X49470000Y-66530000D03*
X63000000Y-32250000D03*
X61000000Y-62500000D03*
X33020000Y-63458000D03*
X32004000Y-63458000D03*
X19000000Y-58000000D03*
X62250000Y-32250000D03*
X32000000Y-62500000D03*
X63000000Y-31500000D03*
X56500000Y-8500000D03*
X62250000Y-31500000D03*
X61000000Y-61625000D03*
X50249992Y-39647776D03*
X60750000Y-3000000D03*
X63000000Y-20500000D03*
X59410000Y-54770000D03*
X59385200Y-52933600D03*
X63250000Y-12250000D03*
X54250000Y-35840000D03*
X53500000Y-23000000D03*
X30010000Y-45000000D03*
X33680000Y-44500000D03*
X51308000Y-52324000D03*
X37250000Y-42500000D03*
X11000000Y-34750000D03*
X8100000Y-41300000D03*
X10000000Y-34728358D03*
X8050000Y-42750000D03*
X8075000Y-42025000D03*
X45261500Y-57650000D03*
X45988500Y-57650000D03*
X56250000Y-3000000D03*
X58369200Y-38455600D03*
X52750000Y-10250000D03*
X47500000Y-8000000D03*
X54750000Y-3000000D03*
X56794400Y-38455600D03*
X52140000Y-39050000D03*
X53860000Y-38500000D03*
X58216800Y-48310800D03*
X56946800Y-49987200D03*
X55575200Y-50647600D03*
X54356000Y-51358800D03*
X53035200Y-52070000D03*
X49784000Y-52832000D03*
X49276000Y-55829200D03*
X47720000Y-56050000D03*
X34750000Y-42500000D03*
X33223200Y-42250000D03*
X38130000Y-50110000D03*
X40993594Y-51056006D03*
X39776400Y-52019200D03*
X51206400Y-44704000D03*
X45590002Y-34036000D03*
X31500000Y-41000000D03*
X30500000Y-41000000D03*
X47500000Y-44000000D03*
X46320000Y-33150000D03*
X6025971Y-22366501D03*
X16750000Y-29250000D03*
X3346394Y-34305199D03*
X5358517Y-38311483D03*
X47500000Y-42500000D03*
X5290000Y-40860000D03*
X4070000Y-34370000D03*
X23114000Y-25908000D03*
X21844000Y-27432000D03*
X43850000Y-38630000D03*
X43850000Y-30690000D03*
X41780000Y-31510000D03*
X41200000Y-35110000D03*
X55570000Y-38490000D03*
X42090000Y-37010000D03*
X40480000Y-30970000D03*
X4720000Y-21250000D03*
X44480000Y-32220000D03*
X44490000Y-35160000D03*
X40880000Y-29460000D03*
X42160000Y-35780000D03*
X25600000Y-9500000D03*
X46820000Y-30080000D03*
X13250000Y-62790000D03*
X29750000Y-58190000D03*
X31500000Y-8900000D03*
X35400000Y-45000000D03*
X17580000Y-34570000D03*
D44*
X53090000Y-36680000D02*
X51030000Y-34620000D01*
X37980000Y-34620000D02*
X33223200Y-39376800D01*
X51030000Y-34620000D02*
X37980000Y-34620000D01*
X33223200Y-39376800D02*
X33223200Y-42250000D01*
X45590000Y-34036000D02*
X45376000Y-34250000D01*
X45376000Y-34250000D02*
X37750000Y-34250000D01*
X37750000Y-34250000D02*
X31500000Y-40500000D01*
X31500000Y-40500000D02*
X31500000Y-41000000D01*
X46320000Y-33150000D02*
X45352965Y-33150000D01*
X45352965Y-33150000D02*
X44692965Y-33810000D01*
X44692965Y-33810000D02*
X37640000Y-33810000D01*
X37640000Y-33810000D02*
X30500000Y-40950000D01*
X30500000Y-40950000D02*
X30500000Y-41000000D01*
D45*
X36068000Y-44935200D02*
X35464800Y-44935200D01*
X35464800Y-44935200D02*
X35400000Y-45000000D01*
X31940200Y-46809900D02*
X32730300Y-47600000D01*
X32730300Y-47600000D02*
X36330000Y-47600000D01*
X36735200Y-44935200D02*
X36068000Y-44935200D01*
X36330000Y-47600000D02*
X37200000Y-46730000D01*
X37200000Y-46730000D02*
X37200000Y-45400000D01*
X37200000Y-45400000D02*
X36735200Y-44935200D01*
D44*
X40577500Y-43022500D02*
X43920000Y-46365000D01*
X40577500Y-43022500D02*
X35272500Y-43022500D01*
X35272500Y-43022500D02*
X34750000Y-42500000D01*
X45590000Y-34036000D02*
X45590002Y-34036000D01*
X25750000Y-41750000D02*
X26250000Y-41750000D01*
X26250000Y-41750000D02*
X27250000Y-42750000D01*
X27250000Y-42750000D02*
X27250000Y-44361700D01*
X27250000Y-44361700D02*
X27750000Y-44861700D01*
X40074691Y-45120000D02*
X40443828Y-44750863D01*
X39370000Y-45120000D02*
X40074691Y-45120000D01*
X44220000Y-48905000D02*
X43144600Y-48905000D01*
X43144600Y-48905000D02*
X40993594Y-51056006D01*
X31963985Y-32036015D02*
X26440500Y-32036015D01*
X32000000Y-32000000D02*
X31963985Y-32036015D01*
X32036015Y-32036015D02*
X32000000Y-32000000D01*
X33560000Y-44637900D02*
X33560000Y-43810000D01*
X33560000Y-43810000D02*
X32750000Y-43000000D01*
X32750000Y-43000000D02*
X32000000Y-43000000D01*
X30010000Y-45000000D02*
X29471300Y-45000000D01*
X40510000Y-8750000D02*
X41500000Y-8750000D01*
X6000000Y-11520000D02*
X6000000Y-11000000D01*
D46*
X19500000Y-25500000D02*
X20270000Y-24730000D01*
D44*
X25290000Y-15150000D02*
X25300000Y-15160000D01*
X62000000Y-38000000D02*
X62000000Y-37000000D01*
X32461200Y-48836200D02*
X32518317Y-48779083D01*
X11062500Y-12450000D02*
X11062500Y-12937500D01*
X20750000Y-31750000D02*
X22000000Y-31750000D01*
X30990200Y-45819800D02*
X30930000Y-45880000D01*
X11800000Y-3550000D02*
X11750000Y-3500000D01*
X36068000Y-46190200D02*
X36068000Y-46440000D01*
X37236400Y-40838600D02*
X37250000Y-40825000D01*
X61250000Y-34430000D02*
X61930000Y-33750000D01*
X25968100Y-44890000D02*
X26390000Y-44890000D01*
D46*
X18000000Y-25525000D02*
X18000000Y-26250000D01*
D44*
X25750000Y-39500000D02*
X25250000Y-40000000D01*
X18330000Y-36998853D02*
X18173800Y-37155053D01*
X38750000Y-21500000D02*
X39500000Y-22250000D01*
D46*
X20000000Y-17490000D02*
X18030000Y-17490000D01*
D44*
X30920000Y-45890000D02*
X30930000Y-45880000D01*
X20302500Y-11910000D02*
X18385000Y-11910000D01*
X30210000Y-45890000D02*
X29720100Y-45890000D01*
D46*
X9500000Y-53000000D02*
X8250000Y-53000000D01*
D44*
X48750000Y-13000000D02*
X49250000Y-13500000D01*
X17510000Y-3250000D02*
X17750000Y-3250000D01*
X46981257Y-35440000D02*
X46999146Y-35422111D01*
D46*
X20270000Y-24730000D02*
X20750000Y-24730000D01*
D44*
X30990200Y-44934900D02*
X30990200Y-45819800D01*
X37937500Y-10950000D02*
X38950000Y-10950000D01*
X12862500Y-3550000D02*
X11800000Y-3550000D01*
X18370000Y-10570000D02*
X18300000Y-10500000D01*
X24260000Y-11887500D02*
X24260000Y-11050000D01*
X24740000Y-15150000D02*
X25290000Y-15150000D01*
D46*
X18000000Y-17520000D02*
X17270000Y-17520000D01*
X19200000Y-20062500D02*
X19200000Y-19200000D01*
D44*
X39500000Y-22250000D02*
X39750000Y-22250000D01*
D46*
X19500000Y-25525000D02*
X19500000Y-26250000D01*
D44*
X14410000Y-28870000D02*
X13810000Y-28870000D01*
X13810000Y-28870000D02*
X13800000Y-28860000D01*
D46*
X20750000Y-24730000D02*
X20750000Y-25250000D01*
D44*
X37236400Y-41458000D02*
X37236400Y-40838600D01*
D46*
X17270000Y-17520000D02*
X17250000Y-17500000D01*
D44*
X10540000Y-4500000D02*
X10000000Y-4500000D01*
X14750000Y-13126576D02*
X14750000Y-12275000D01*
X29413200Y-46440000D02*
X29413200Y-46196900D01*
D46*
X19500000Y-25525000D02*
X19500000Y-25500000D01*
D44*
X18330000Y-36460000D02*
X18330000Y-36998853D01*
X27912000Y-48260000D02*
X28448000Y-48260000D01*
X18385000Y-11910000D02*
X18100000Y-11625000D01*
X14284500Y-2965500D02*
X14500000Y-2750000D01*
X54102000Y-34346000D02*
X54102000Y-33762000D01*
X17750000Y-4250000D02*
X18250000Y-3750000D01*
X14943460Y-4500000D02*
X14284500Y-3841040D01*
X32518317Y-48779083D02*
X32896917Y-48779083D01*
X14284500Y-3841040D02*
X14284500Y-2965500D01*
X9250000Y-12275000D02*
X9250000Y-13000000D01*
X11062500Y-12937500D02*
X11000000Y-13000000D01*
X61930000Y-33750000D02*
X62500000Y-33750000D01*
X17510000Y-4250000D02*
X17750000Y-4250000D01*
X63750000Y-15250000D02*
X63750000Y-16250000D01*
X17750000Y-3250000D02*
X18250000Y-3750000D01*
D46*
X18000000Y-25525000D02*
X19500000Y-25525000D01*
D44*
X34512200Y-46440000D02*
X34512200Y-46187900D01*
X46300000Y-35440000D02*
X46981257Y-35440000D01*
X19740000Y-10570000D02*
X18370000Y-10570000D01*
X54102000Y-33762000D02*
X53990000Y-33650000D01*
D46*
X62000000Y-36000000D02*
X62000000Y-38000000D01*
D44*
X38950000Y-10950000D02*
X39000000Y-11000000D01*
D45*
X13750000Y-11500000D02*
X12937500Y-11500000D01*
X2730000Y-23438550D02*
X2730000Y-23020000D01*
X15453600Y-14546400D02*
X15453600Y-11428600D01*
X3750000Y-21268492D02*
X4250000Y-20768492D01*
D46*
X19230000Y-34480000D02*
X19230000Y-34730000D01*
X10665000Y-30745000D02*
X13880000Y-33960000D01*
X23450000Y-52450000D02*
X28200000Y-52450000D01*
X59265000Y-11015000D02*
X59265000Y-12075000D01*
X13880000Y-33960000D02*
X13947000Y-33893000D01*
D45*
X13880000Y-33960000D02*
X13880000Y-36567500D01*
X14750000Y-10725000D02*
X14525000Y-10725000D01*
X3750000Y-22000000D02*
X3750000Y-21268492D01*
D46*
X18643000Y-33893000D02*
X19230000Y-34480000D01*
D45*
X4250000Y-19750000D02*
X4750000Y-19250000D01*
X10750000Y-19250000D02*
X15453600Y-14546400D01*
D46*
X13947000Y-33893000D02*
X18643000Y-33893000D01*
D45*
X2730000Y-23020000D02*
X3750000Y-22000000D01*
D46*
X19230000Y-38250000D02*
X20000000Y-38250000D01*
X8685000Y-30745000D02*
X10665000Y-30745000D01*
X56500000Y-10000000D02*
X58250000Y-10000000D01*
X19230000Y-42270000D02*
X17430000Y-44070000D01*
X17430000Y-46430000D02*
X23450000Y-52450000D01*
X20000000Y-38250000D02*
X21000000Y-39250000D01*
X19230000Y-38250000D02*
X19230000Y-42270000D01*
X19230000Y-34730000D02*
X19230000Y-38250000D01*
X17430000Y-44070000D02*
X17430000Y-46430000D01*
X58250000Y-10000000D02*
X59265000Y-11015000D01*
D45*
X4250000Y-20768492D02*
X4250000Y-19750000D01*
X13880000Y-33960000D02*
X10635000Y-30715000D01*
X4750000Y-19250000D02*
X10750000Y-19250000D01*
X15453600Y-11428600D02*
X14750000Y-10725000D01*
D46*
X13962500Y-34042500D02*
X13880000Y-33960000D01*
D45*
X10635000Y-30715000D02*
X6815000Y-30715000D01*
X14525000Y-10725000D02*
X13750000Y-11500000D01*
D46*
X13962500Y-36650000D02*
X13962500Y-34042500D01*
X11771288Y-37968788D02*
X13962500Y-40160000D01*
X14410000Y-30410000D02*
X15750000Y-31750000D01*
X11771288Y-33521288D02*
X11771288Y-37968788D01*
X15750000Y-31750000D02*
X18000000Y-31750000D01*
X12573000Y-53393000D02*
X12573000Y-45427000D01*
X13962500Y-44037500D02*
X13962500Y-40160000D01*
X5625000Y-30125000D02*
X5625000Y-31995000D01*
X12573000Y-45427000D02*
X13962500Y-44037500D01*
X5625000Y-31995000D02*
X6320000Y-32690000D01*
X14410000Y-29880000D02*
X5870000Y-29880000D01*
X14410000Y-29880000D02*
X14410000Y-30410000D01*
X6320000Y-32690000D02*
X10940000Y-32690000D01*
X12680000Y-53500000D02*
X12573000Y-53393000D01*
X5870000Y-29880000D02*
X5625000Y-30125000D01*
X10940000Y-32690000D02*
X11771288Y-33521288D01*
D44*
X6000000Y-12480000D02*
X6970000Y-12480000D01*
X30209500Y-3459500D02*
X31250000Y-4500000D01*
X13990500Y-2259500D02*
X20259500Y-2259500D01*
X11500000Y-4500000D02*
X8504000Y-7496000D01*
X3750000Y-11750000D02*
X3750000Y-15250000D01*
X7000000Y-12510000D02*
X7490000Y-12510000D01*
X13750000Y-2500000D02*
X13990500Y-2259500D01*
X22000000Y-4500000D02*
X23040500Y-3459500D01*
X22000000Y-4000000D02*
X22000000Y-4500000D01*
X8004000Y-7496000D02*
X3750000Y-11750000D01*
X12862500Y-4500000D02*
X11500000Y-4500000D01*
X9425000Y-10550000D02*
X9250000Y-10725000D01*
X6492500Y-17992500D02*
X9257500Y-17992500D01*
X13056540Y-4500000D02*
X13750000Y-3806540D01*
X5960000Y-12520000D02*
X5960000Y-14500000D01*
X3750000Y-15250000D02*
X6492500Y-17992500D01*
X11062500Y-10550000D02*
X9425000Y-10550000D01*
X9750000Y-17500000D02*
X9750000Y-14770000D01*
X7490000Y-12510000D02*
X9250000Y-10750000D01*
X23040500Y-3459500D02*
X30209500Y-3459500D01*
X20259500Y-2259500D02*
X22000000Y-4000000D01*
X8504000Y-7496000D02*
X8004000Y-7496000D01*
X9750000Y-14770000D02*
X7490000Y-12510000D01*
X9257500Y-17992500D02*
X9750000Y-17500000D01*
X9250000Y-10750000D02*
X9250000Y-10725000D01*
X13750000Y-3806540D02*
X13750000Y-2500000D01*
D46*
X56725000Y-12075000D02*
X54825000Y-12075000D01*
D45*
X53630000Y-62720000D02*
X53630000Y-67502500D01*
X32000000Y-57250000D02*
X20500000Y-57250000D01*
D46*
X53730000Y-67602500D02*
X49602500Y-67602500D01*
D45*
X53630000Y-62720000D02*
X54000000Y-62350000D01*
D46*
X55750000Y-8500000D02*
X54750000Y-9500000D01*
X58997500Y-67602500D02*
X53730000Y-67602500D01*
X21270000Y-23770000D02*
X20750000Y-23770000D01*
X59387500Y-66050000D02*
X59387500Y-67212500D01*
X22045800Y-46795800D02*
X21423800Y-46173800D01*
X32000000Y-51250000D02*
X32000000Y-57250000D01*
X54750000Y-9500000D02*
X54750000Y-12000000D01*
D45*
X49470000Y-66530000D02*
X49470000Y-67470000D01*
D46*
X19000000Y-45670000D02*
X19000000Y-43500000D01*
X20750000Y-23770000D02*
X18205000Y-23770000D01*
X53000000Y-14500000D02*
X53000000Y-15750000D01*
X21423800Y-46173800D02*
X19503800Y-46173800D01*
X32000000Y-57250000D02*
X32000000Y-62500000D01*
D45*
X20500000Y-57250000D02*
X20489000Y-57239000D01*
D46*
X23000000Y-27250000D02*
X22000000Y-26250000D01*
D45*
X19761000Y-57239000D02*
X19000000Y-58000000D01*
D46*
X54825000Y-12075000D02*
X54750000Y-12000000D01*
X59387500Y-67212500D02*
X58997500Y-67602500D01*
X54750000Y-12750000D02*
X53000000Y-14500000D01*
X51250000Y-15750000D02*
X53000000Y-15750000D01*
X22000000Y-26250000D02*
X22000000Y-24500000D01*
X63000000Y-31500000D02*
X62000000Y-30500000D01*
X60895000Y-56975000D02*
X60895000Y-57220000D01*
X18205000Y-23770000D02*
X18000000Y-23975000D01*
X23000000Y-36579354D02*
X23000000Y-27250000D01*
X55718000Y-18468000D02*
X53000000Y-15750000D01*
D45*
X20489000Y-57239000D02*
X19761000Y-57239000D01*
D46*
X60895000Y-55975000D02*
X60895000Y-54665000D01*
X59968000Y-18468000D02*
X55718000Y-18468000D01*
X31500000Y-50750000D02*
X32000000Y-51250000D01*
D45*
X53630000Y-67502500D02*
X53730000Y-67602500D01*
D46*
X60895000Y-55975000D02*
X60895000Y-56975000D01*
X19503800Y-46173800D02*
X19000000Y-45670000D01*
X22448000Y-40052000D02*
X22448000Y-37131354D01*
X22504400Y-46795800D02*
X26458600Y-50750000D01*
X22448000Y-37131354D02*
X23000000Y-36579354D01*
D45*
X49470000Y-67470000D02*
X49602500Y-67602500D01*
X54000000Y-61500000D02*
X54000000Y-62350000D01*
D46*
X49602500Y-67602500D02*
X44500000Y-62500000D01*
X22504400Y-46795800D02*
X22045800Y-46795800D01*
X54750000Y-12000000D02*
X54750000Y-12750000D01*
X62000000Y-20500000D02*
X59968000Y-18468000D01*
X19000000Y-43500000D02*
X22448000Y-40052000D01*
X19200000Y-22337500D02*
X19200000Y-23675000D01*
X44500000Y-62500000D02*
X33000000Y-62500000D01*
X26458600Y-50750000D02*
X31500000Y-50750000D01*
X22000000Y-24500000D02*
X21270000Y-23770000D01*
X19200000Y-23675000D02*
X19500000Y-23975000D01*
X62000000Y-30500000D02*
X62000000Y-20500000D01*
D44*
X56725000Y-17155000D02*
X57880000Y-16000000D01*
X63750000Y-18750000D02*
X63000000Y-18750000D01*
X50141269Y-39756499D02*
X50249992Y-39647776D01*
X61609500Y-3859500D02*
X61609500Y-7359500D01*
X65000000Y-10750000D02*
X65000000Y-12750000D01*
X45470000Y-37280000D02*
X47946499Y-39756499D01*
X63000000Y-18750000D02*
X63000000Y-20500000D01*
X47946499Y-39756499D02*
X50141269Y-39756499D01*
X63000000Y-16000000D02*
X63000000Y-18750000D01*
X63000000Y-14750000D02*
X63000000Y-16000000D01*
X61609500Y-7359500D02*
X65000000Y-10750000D01*
X57880000Y-16000000D02*
X63000000Y-16000000D01*
X60750000Y-3000000D02*
X61609500Y-3859500D01*
X65000000Y-12750000D02*
X63000000Y-14750000D01*
X45470000Y-35570000D02*
X45470000Y-36980000D01*
X60884500Y-13115500D02*
X61750000Y-12250000D01*
X63750000Y-11750000D02*
X63250000Y-12250000D01*
X59385200Y-52933600D02*
X59440000Y-52988400D01*
X59440000Y-52988400D02*
X59440000Y-54480000D01*
X58224500Y-13115500D02*
X60884500Y-13115500D01*
X61750000Y-12250000D02*
X63250000Y-12250000D01*
X56725000Y-14615000D02*
X58224500Y-13115500D01*
X42610000Y-12110000D02*
X53500000Y-23000000D01*
X42610000Y-8360000D02*
X42610000Y-12110000D01*
X54102000Y-35642000D02*
X54102000Y-35306000D01*
X54360000Y-36980000D02*
X54360000Y-35900000D01*
X54250000Y-35840000D02*
X54250000Y-36870000D01*
X54360000Y-35900000D02*
X54102000Y-35642000D01*
X38750000Y-4500000D02*
X42610000Y-8360000D01*
X27823200Y-44934900D02*
X29125200Y-44934900D01*
X33560000Y-44637900D02*
X33187200Y-44637900D01*
X34512200Y-44637900D02*
X33560000Y-44637900D01*
X33187200Y-44637900D02*
X32890200Y-44934900D01*
X51820000Y-52836000D02*
X51308000Y-52324000D01*
X51820000Y-54480000D02*
X51820000Y-52836000D01*
D46*
X8750000Y-43450000D02*
X8750000Y-49000000D01*
X8050000Y-42750000D02*
X8750000Y-43450000D01*
X8100000Y-36628358D02*
X10000000Y-34728358D01*
X8750000Y-49000000D02*
X9500000Y-49750000D01*
X8100000Y-41300000D02*
X8100000Y-36628358D01*
D47*
X45492724Y-56213500D02*
X43617724Y-56213500D01*
X43617724Y-56213500D02*
X43013500Y-56817724D01*
X45461500Y-57850000D02*
X45261500Y-57650000D01*
X46268500Y-55437724D02*
X45492724Y-56213500D01*
X43013500Y-56817724D02*
X43013500Y-58257276D01*
X45461500Y-58482276D02*
X45461500Y-57850000D01*
X46268500Y-55251500D02*
X46268500Y-55437724D01*
X43967724Y-59211500D02*
X44732276Y-59211500D01*
X46740000Y-54780000D02*
X46268500Y-55251500D01*
X44732276Y-59211500D02*
X45461500Y-58482276D01*
X43013500Y-58257276D02*
X43967724Y-59211500D01*
X43482276Y-55886500D02*
X42686500Y-56682276D01*
X45788500Y-57850000D02*
X45988500Y-57650000D01*
X45941500Y-55251500D02*
X45941500Y-55302276D01*
X45470000Y-54780000D02*
X45941500Y-55251500D01*
X43832276Y-59538500D02*
X44867724Y-59538500D01*
X44867724Y-59538500D02*
X45788500Y-58617724D01*
X45357276Y-55886500D02*
X43482276Y-55886500D01*
X45788500Y-58617724D02*
X45788500Y-57850000D01*
X45941500Y-55302276D02*
X45357276Y-55886500D01*
X42686500Y-56682276D02*
X42686500Y-58392724D01*
X42686500Y-58392724D02*
X43832276Y-59538500D01*
D44*
X51189050Y-9439050D02*
X51189050Y-6750000D01*
X51189050Y-6750000D02*
X51900000Y-6039050D01*
X52750000Y-10250000D02*
X52000000Y-10250000D01*
X53210950Y-6039050D02*
X56250000Y-3000000D01*
X48250000Y-6750000D02*
X51189050Y-6750000D01*
X52000000Y-10250000D02*
X51189050Y-9439050D01*
X51900000Y-6039050D02*
X53210950Y-6039050D01*
X58170000Y-38256400D02*
X58170000Y-36980000D01*
X58369200Y-38455600D02*
X58170000Y-38256400D01*
X53666184Y-4083816D02*
X48916184Y-4083816D01*
X47500000Y-7500000D02*
X47500000Y-8000000D01*
X54750000Y-3000000D02*
X53666184Y-4083816D01*
X48916184Y-4083816D02*
X47500000Y-5500000D01*
X56900000Y-38350000D02*
X56900000Y-36980000D01*
X47500000Y-9250000D02*
X48000000Y-9750000D01*
X47500000Y-7500000D02*
X47500000Y-9250000D01*
X47500000Y-5500000D02*
X47500000Y-7500000D01*
X56794400Y-38455600D02*
X56900000Y-38350000D01*
X50550000Y-37460000D02*
X52140000Y-39050000D01*
X51820000Y-37280000D02*
X53040000Y-38500000D01*
X53040000Y-38500000D02*
X53860000Y-38500000D01*
X58216800Y-48310800D02*
X58170000Y-48357600D01*
X58170000Y-48357600D02*
X58170000Y-54480000D01*
X56946800Y-49987200D02*
X56900000Y-50034000D01*
X56900000Y-50034000D02*
X56900000Y-54480000D01*
X55575200Y-50647600D02*
X55630000Y-50702400D01*
X55630000Y-50702400D02*
X55630000Y-54480000D01*
X54360000Y-51362800D02*
X54360000Y-54480000D01*
X54356000Y-51358800D02*
X54360000Y-51362800D01*
X53035200Y-52070000D02*
X53090000Y-52124800D01*
X53090000Y-52124800D02*
X53090000Y-54480000D01*
X50546000Y-54476000D02*
X50546000Y-53594000D01*
X50546000Y-53594000D02*
X49784000Y-52832000D01*
X49276000Y-55829200D02*
X49280000Y-55825200D01*
X49280000Y-55825200D02*
X49280000Y-54480000D01*
X48010000Y-54480000D02*
X48010000Y-55760000D01*
X48010000Y-55760000D02*
X47720000Y-56050000D01*
X39010000Y-53060000D02*
X38130000Y-52180000D01*
X41500000Y-51640000D02*
X42965000Y-50175000D01*
X41190000Y-53060000D02*
X39010000Y-53060000D01*
X38130000Y-52180000D02*
X38130000Y-50110000D01*
X41500000Y-52750000D02*
X41190000Y-53060000D01*
X44220000Y-50175000D02*
X42965000Y-50175000D01*
X41500000Y-51640000D02*
X41500000Y-52750000D01*
X42738200Y-47635000D02*
X39776400Y-50596800D01*
X44220000Y-47635000D02*
X42738200Y-47635000D01*
X39776400Y-50596800D02*
X39776400Y-52019200D01*
X44220000Y-52715000D02*
X48275400Y-52715000D01*
X57765500Y-30285990D02*
X57765500Y-25815500D01*
X45590000Y-34036000D02*
X50975470Y-34036000D01*
X57765500Y-25815500D02*
X56725000Y-24775000D01*
X51206400Y-49784000D02*
X51206400Y-44704000D01*
X50975470Y-34036000D02*
X54011470Y-31000000D01*
X48275400Y-52715000D02*
X51206400Y-49784000D01*
X57051490Y-31000000D02*
X57765500Y-30285990D01*
X54011470Y-31000000D02*
X57051490Y-31000000D01*
X46405000Y-45095000D02*
X44220000Y-45095000D01*
X48850000Y-33150000D02*
X46320000Y-33150000D01*
X54685000Y-27315000D02*
X48850000Y-33150000D01*
X56725000Y-27315000D02*
X54685000Y-27315000D01*
X47500000Y-44000000D02*
X46405000Y-45095000D01*
D46*
X16750000Y-27476137D02*
X12316864Y-23043001D01*
X16750000Y-29250000D02*
X16750000Y-27476137D01*
X8338654Y-23043001D02*
X7662154Y-22366501D01*
X12316864Y-23043001D02*
X8338654Y-23043001D01*
X7662154Y-22366501D02*
X6025971Y-22366501D01*
D44*
X4352978Y-38311483D02*
X5358517Y-38311483D01*
X3346394Y-34305199D02*
X3076499Y-34575094D01*
X3076499Y-34575094D02*
X3076499Y-37035004D01*
X3076499Y-37035004D02*
X4352978Y-38311483D01*
X39000000Y-39250000D02*
X41750000Y-42000000D01*
X46175000Y-43825000D02*
X44220000Y-43825000D01*
X42325000Y-43825000D02*
X44220000Y-43825000D01*
X41750000Y-42000000D02*
X41750000Y-43250000D01*
X47500000Y-42500000D02*
X46175000Y-43825000D01*
X41750000Y-43250000D02*
X42325000Y-43825000D01*
X5980000Y-40170000D02*
X5290000Y-40860000D01*
X3400000Y-35870000D02*
X3400000Y-36770000D01*
X5510000Y-37770000D02*
X5980000Y-38240000D01*
X4070000Y-34370000D02*
X4070000Y-35200000D01*
X3400000Y-36770000D02*
X4400000Y-37770000D01*
X4400000Y-37770000D02*
X5510000Y-37770000D01*
X5980000Y-38240000D02*
X5980000Y-40170000D01*
X4070000Y-35200000D02*
X3400000Y-35870000D01*
X16300500Y-29740500D02*
X15460000Y-28900000D01*
X61860000Y-35390000D02*
X64750000Y-32500000D01*
X21844000Y-27432000D02*
X21844000Y-27599672D01*
X58019500Y-32769500D02*
X58019500Y-24598010D01*
X26440500Y-32036015D02*
X26036015Y-32440500D01*
X41401290Y-32710500D02*
X40726805Y-32036015D01*
X40726805Y-32036015D02*
X32036015Y-32036015D01*
X59295500Y-33435500D02*
X58685500Y-33435500D01*
X23876000Y-26670000D02*
X23114000Y-25908000D01*
X56294010Y-23734500D02*
X54374790Y-25653720D01*
X61250000Y-35460000D02*
X60710000Y-36000000D01*
X61250000Y-35390000D02*
X59295500Y-33435500D01*
X58019500Y-24598010D02*
X57155990Y-23734500D01*
X15430000Y-29880000D02*
X15430000Y-28870000D01*
X15460000Y-29850000D02*
X15460000Y-28900000D01*
X45376844Y-32016828D02*
X44683172Y-32710500D01*
X26036015Y-32440500D02*
X25328500Y-32440500D01*
X54374790Y-25653720D02*
X54374790Y-25875210D01*
X48233172Y-32016828D02*
X45376844Y-32016828D01*
X58685500Y-33435500D02*
X58019500Y-32769500D01*
X57155990Y-23734500D02*
X56294010Y-23734500D01*
X21844000Y-27599672D02*
X19703172Y-29740500D01*
X25328500Y-32440500D02*
X23876000Y-30988000D01*
X54374790Y-25875210D02*
X48233172Y-32016828D01*
X61250000Y-35390000D02*
X61860000Y-35390000D01*
X44683172Y-32710500D02*
X41401290Y-32710500D01*
X60710000Y-36000000D02*
X60710000Y-36980000D01*
X23876000Y-30988000D02*
X23876000Y-26670000D01*
X19703172Y-29740500D02*
X16300500Y-29740500D01*
X37000000Y-18750000D02*
X38050748Y-17699252D01*
X15700000Y-3550000D02*
X16000000Y-3250000D01*
X38050748Y-17699252D02*
X28801496Y-8450000D01*
X28801496Y-8450000D02*
X24200000Y-8450000D01*
X42680000Y-22328504D02*
X42680000Y-29520000D01*
X18489500Y-2739500D02*
X17000500Y-2739500D01*
X42680000Y-29520000D02*
X43850000Y-30690000D01*
X36250000Y-18750000D02*
X37000000Y-18750000D01*
X24200000Y-8450000D02*
X18489500Y-2739500D01*
X16000000Y-3250000D02*
X16490000Y-3250000D01*
X38050748Y-17699252D02*
X42680000Y-22328504D01*
X17000500Y-2739500D02*
X16490000Y-3250000D01*
X20740000Y-8500000D02*
X22750000Y-8500000D01*
X23250000Y-9000000D02*
X25930000Y-9000000D01*
X16490000Y-4250000D02*
X16490000Y-4760000D01*
X38750000Y-25250000D02*
X41640000Y-28140000D01*
X16490000Y-4250000D02*
X20740000Y-8500000D01*
X41640000Y-28140000D02*
X41640000Y-31370000D01*
X25930000Y-9000000D02*
X33500000Y-16570000D01*
X33500000Y-20000000D02*
X38750000Y-25250000D01*
X41640000Y-31370000D02*
X41780000Y-31510000D01*
X33500000Y-16570000D02*
X33500000Y-20000000D01*
X15800000Y-5450000D02*
X15137500Y-5450000D01*
X22750000Y-8500000D02*
X23250000Y-9000000D01*
X16490000Y-4760000D02*
X15800000Y-5450000D01*
X41200000Y-39835000D02*
X41200000Y-35110000D01*
X43920000Y-42555000D02*
X41200000Y-39835000D01*
X55630000Y-38430000D02*
X55570000Y-38490000D01*
X55630000Y-36980000D02*
X55630000Y-38430000D01*
X28095000Y-29655000D02*
X35586496Y-29655000D01*
X36901496Y-30970000D02*
X40480000Y-30970000D01*
X21212500Y-19000000D02*
X25000000Y-19000000D01*
X28095000Y-29655000D02*
X26000000Y-31750000D01*
X20150000Y-20062500D02*
X21212500Y-19000000D01*
X43909000Y-40015000D02*
X42090000Y-38196000D01*
X20150000Y-18660000D02*
X20150000Y-20062500D01*
X35586496Y-29655000D02*
X36901496Y-30970000D01*
X28095000Y-22095000D02*
X28095000Y-29655000D01*
X42090000Y-38196000D02*
X42090000Y-37010000D01*
X25000000Y-19000000D02*
X28095000Y-22095000D01*
X41170000Y-30900000D02*
X41170000Y-32120000D01*
X41170000Y-32120000D02*
X41270000Y-32220000D01*
X44490000Y-37490000D02*
X44490000Y-35160000D01*
X48990000Y-41990000D02*
X44490000Y-37490000D01*
X41270000Y-32220000D02*
X44480000Y-32220000D01*
X37310000Y-30330000D02*
X40600000Y-30330000D01*
X40600000Y-30330000D02*
X41170000Y-30900000D01*
X29000000Y-25250000D02*
X30750000Y-25250000D01*
X21764500Y-14784500D02*
X37310000Y-30330000D01*
X4720000Y-21250000D02*
X9750000Y-21250000D01*
X9750000Y-21250000D02*
X16215500Y-14784500D01*
X47785000Y-51445000D02*
X48990000Y-50240000D01*
X44220000Y-51445000D02*
X47785000Y-51445000D01*
X16215500Y-14784500D02*
X21764500Y-14784500D01*
X48990000Y-50240000D02*
X48990000Y-41990000D01*
X30750000Y-25250000D02*
X31500000Y-24500000D01*
D48*
X20777000Y-17277000D02*
X22123000Y-17277000D01*
X19093514Y-21000000D02*
X17250000Y-21000000D01*
X17000000Y-19750000D02*
X16250000Y-19000000D01*
X17000000Y-16500000D02*
X20000000Y-16500000D01*
X17250000Y-21000000D02*
X17000000Y-20750000D01*
X22400000Y-16275000D02*
X21500000Y-15375000D01*
X16250000Y-17250000D02*
X17000000Y-16500000D01*
X22400000Y-17000000D02*
X22400000Y-16275000D01*
X20150000Y-22056486D02*
X19093514Y-21000000D01*
X22123000Y-17277000D02*
X22400000Y-17000000D01*
X17000000Y-20750000D02*
X17000000Y-19750000D01*
X16250000Y-19000000D02*
X16250000Y-17250000D01*
X20000000Y-16500000D02*
X20777000Y-17277000D01*
D44*
X62750000Y-35480592D02*
X62750000Y-37943672D01*
X37937500Y-9050000D02*
X38700000Y-9050000D01*
X35550000Y-9050000D02*
X37937500Y-9050000D01*
X60250000Y-38750000D02*
X59440000Y-37940000D01*
X33750000Y-5540500D02*
X33790500Y-5540500D01*
X61943672Y-38750000D02*
X60250000Y-38750000D01*
X61750000Y-33000000D02*
X63000000Y-33000000D01*
X65730592Y-33269408D02*
X63690500Y-35309500D01*
X60305500Y-31555500D02*
X61750000Y-33000000D01*
X35250000Y-8750000D02*
X35550000Y-9050000D01*
X39000000Y-8750000D02*
X39490000Y-8750000D01*
X33790500Y-5540500D02*
X35250000Y-7000000D01*
X43000000Y-8750000D02*
X43000000Y-6500000D01*
X65250000Y-31500000D02*
X65730592Y-31980592D01*
X43000000Y-6500000D02*
X39750000Y-3250000D01*
X63690500Y-35309500D02*
X62921092Y-35309500D01*
X59236990Y-20735500D02*
X54985500Y-20735500D01*
X38700000Y-9050000D02*
X39000000Y-8750000D01*
X54985500Y-20735500D02*
X43000000Y-8750000D01*
X60305500Y-21804010D02*
X59236990Y-20735500D01*
X60305500Y-31555500D02*
X60305500Y-21804010D01*
X64500000Y-31500000D02*
X65250000Y-31500000D01*
X36040500Y-3250000D02*
X33750000Y-5540500D01*
X27790500Y-5540500D02*
X33750000Y-5540500D01*
X62921092Y-35309500D02*
X62750000Y-35480592D01*
X62750000Y-37943672D02*
X61943672Y-38750000D01*
X65730592Y-31980592D02*
X65730592Y-33269408D01*
X39750000Y-3250000D02*
X36040500Y-3250000D01*
X59440000Y-37940000D02*
X59440000Y-36980000D01*
X35250000Y-7000000D02*
X35250000Y-8750000D01*
X63000000Y-33000000D02*
X64500000Y-31500000D01*
X26750000Y-4500000D02*
X27790500Y-5540500D01*
D48*
X17500000Y-22500000D02*
X18087500Y-22500000D01*
X21500000Y-16625000D02*
X20998499Y-16123499D01*
X20998499Y-16123499D02*
X16844049Y-16123499D01*
X15873499Y-17094049D02*
X15873499Y-20873499D01*
X15873499Y-20873499D02*
X17500000Y-22500000D01*
X16844049Y-16123499D02*
X15873499Y-17094049D01*
D44*
X26147500Y-12850000D02*
X26147500Y-17157500D01*
X38450000Y-29460000D02*
X40880000Y-29460000D01*
X41580000Y-38945000D02*
X41580000Y-36360000D01*
X26147500Y-17157500D02*
X38450000Y-29460000D01*
X43920000Y-41285000D02*
X41580000Y-38945000D01*
X41580000Y-36360000D02*
X42160000Y-35780000D01*
X21500000Y-11310000D02*
X21500000Y-13070000D01*
X18800000Y-13810000D02*
X20302500Y-13810000D01*
X21500000Y-13070000D02*
X20760000Y-13810000D01*
X20760000Y-10570000D02*
X21500000Y-11310000D01*
X23720000Y-14847500D02*
X23472500Y-14600000D01*
X24272500Y-13800000D02*
X23472500Y-14600000D01*
X23403499Y-14530999D02*
X23472500Y-14600000D01*
X16500000Y-9562500D02*
X16500000Y-11500000D01*
X16500000Y-11500000D02*
X17100000Y-12100000D01*
X17100000Y-12100000D02*
X17100000Y-13250000D01*
X16860000Y-13529408D02*
X17861591Y-14530999D01*
X14937500Y-8000000D02*
X16500000Y-9562500D01*
X23720000Y-15150000D02*
X23720000Y-14847500D01*
X17861591Y-14530999D02*
X23403499Y-14530999D01*
X16840000Y-62790000D02*
X13250000Y-62790000D01*
X22070000Y-57560000D02*
X28930000Y-57560000D01*
X34425000Y-11825000D02*
X31500000Y-8900000D01*
X22840000Y-12197500D02*
X22177500Y-12860000D01*
X31500000Y-8900000D02*
X43480000Y-20880000D01*
X22840000Y-11080000D02*
X22840000Y-12197500D01*
X28930000Y-57560000D02*
X29560000Y-58190000D01*
X36062500Y-10187500D02*
X34425000Y-11825000D01*
X24420000Y-9500000D02*
X22840000Y-11080000D01*
X16840000Y-62790000D02*
X22070000Y-57560000D01*
X43480000Y-20880000D02*
X43480000Y-26740000D01*
X29750000Y-58190000D02*
X29560000Y-58190000D01*
X43480000Y-26740000D02*
X46820000Y-30080000D01*
X25600000Y-9500000D02*
X24420000Y-9500000D01*
X13990500Y-6578000D02*
X13990500Y-8259500D01*
X12862500Y-5450000D02*
X13990500Y-6578000D01*
X13990500Y-8259500D02*
X13300000Y-8950000D01*
X12050000Y-8950000D02*
X13062500Y-8950000D01*
X11250000Y-9750000D02*
X12050000Y-8950000D01*
X8000000Y-9750000D02*
X11250000Y-9750000D01*
X7000000Y-10750000D02*
X8000000Y-9750000D01*
X7000000Y-11490000D02*
X7000000Y-10750000D01*
X4250000Y-14750000D02*
X4250000Y-11750000D01*
X8500000Y-17040000D02*
X6540000Y-17040000D01*
X11700000Y-7050000D02*
X13062500Y-7050000D01*
X6540000Y-17040000D02*
X4250000Y-14750000D01*
X11000000Y-7750000D02*
X11700000Y-7050000D01*
X4250000Y-11750000D02*
X8250000Y-7750000D01*
X8250000Y-7750000D02*
X11000000Y-7750000D01*
D45*
X26873200Y-46809900D02*
X28029900Y-46809900D01*
X31940200Y-46809900D02*
X31940200Y-47637400D01*
X29886400Y-48666400D02*
X30911200Y-48666400D01*
X22504400Y-44745800D02*
X24160400Y-44745800D01*
X31940200Y-47637400D02*
X30911200Y-48666400D01*
X25908000Y-48006000D02*
X25908000Y-46249400D01*
X26162000Y-48260000D02*
X25908000Y-48006000D01*
X26952000Y-48260000D02*
X26162000Y-48260000D01*
X28029900Y-46809900D02*
X29886400Y-48666400D01*
X26873200Y-46809900D02*
X26873200Y-48181200D01*
X24282400Y-44623800D02*
X25908000Y-46249400D01*
D48*
X18400000Y-19912500D02*
X18400000Y-18480000D01*
X18400000Y-18480000D02*
X18000000Y-18480000D01*
X19000000Y-18480000D02*
X18400000Y-18480000D01*
D45*
X17580000Y-34570000D02*
X17580000Y-34700000D01*
X17580000Y-34700000D02*
X18330000Y-35450000D01*
D44*
X17310000Y-36460000D02*
X17310000Y-35700000D01*
X17310000Y-36460000D02*
X17310000Y-37737500D01*
X18000000Y-38427500D02*
X18000000Y-39185000D01*
X14909500Y-38282000D02*
X15837500Y-39210000D01*
X17060000Y-35700000D02*
X15837500Y-35700000D01*
X17310000Y-37737500D02*
X18000000Y-38427500D01*
X15837500Y-35700000D02*
X14909500Y-36628000D01*
X14909500Y-36628000D02*
X14909500Y-38282000D01*
X17310000Y-35700000D02*
X17060000Y-35700000D01*
X17310000Y-35450000D02*
X17060000Y-35700000D01*
D46*
X15837500Y-41110000D02*
X16342000Y-41110000D01*
D45*
X16952000Y-40500000D02*
X17187000Y-40735000D01*
X17187000Y-40735000D02*
X18000000Y-40735000D01*
D46*
X16342000Y-41110000D02*
X16952000Y-40500000D01*
X16952000Y-38714500D02*
X15837500Y-37600000D01*
X16952000Y-40500000D02*
X16952000Y-38714500D01*
%TA.AperFunction,Conductor*%
G36*
X65002610Y-608D02*
G01*
X65008781Y-863D01*
X65217403Y-9491D01*
X65413375Y-18048D01*
X65423423Y-18893D01*
X65636807Y-45491D01*
X65834874Y-71568D01*
X65844273Y-73170D01*
X66053521Y-117044D01*
X66054833Y-117327D01*
X66250312Y-160664D01*
X66258953Y-162905D01*
X66463679Y-223855D01*
X66465355Y-224369D01*
X66656618Y-284674D01*
X66664509Y-287453D01*
X66863268Y-365008D01*
X66865621Y-365955D01*
X67050950Y-442721D01*
X67058044Y-445921D01*
X67249605Y-539569D01*
X67252354Y-540957D01*
X67430373Y-633627D01*
X67436681Y-637145D01*
X67619781Y-746248D01*
X67622957Y-748205D01*
X67792228Y-856043D01*
X67797745Y-859765D01*
X67971164Y-983585D01*
X67974619Y-986142D01*
X68133880Y-1108347D01*
X68138610Y-1112162D01*
X68301195Y-1249865D01*
X68304885Y-1253116D01*
X68452875Y-1388723D01*
X68456846Y-1392525D01*
X68607473Y-1543152D01*
X68611275Y-1547123D01*
X68746882Y-1695113D01*
X68750133Y-1698803D01*
X68887836Y-1861388D01*
X68891651Y-1866118D01*
X69013844Y-2025363D01*
X69016426Y-2028851D01*
X69140233Y-2202254D01*
X69143955Y-2207770D01*
X69251776Y-2377014D01*
X69253750Y-2380217D01*
X69362853Y-2563317D01*
X69366375Y-2569633D01*
X69459010Y-2747582D01*
X69460444Y-2750424D01*
X69554071Y-2941941D01*
X69557283Y-2949062D01*
X69634030Y-3134346D01*
X69635002Y-3136762D01*
X69712541Y-3335478D01*
X69715328Y-3343391D01*
X69775583Y-3534493D01*
X69776177Y-3536430D01*
X69837089Y-3741030D01*
X69839340Y-3749711D01*
X69882660Y-3945117D01*
X69882965Y-3946531D01*
X69926827Y-4155721D01*
X69928431Y-4165131D01*
X69954476Y-4362954D01*
X69954586Y-4363816D01*
X69981103Y-4576555D01*
X69981951Y-4586643D01*
X69990513Y-4782727D01*
X69990525Y-4783017D01*
X69999392Y-4997389D01*
X69999500Y-5002596D01*
X69999500Y-33995862D01*
X69999230Y-34004104D01*
X69994043Y-34083229D01*
X69993992Y-34083976D01*
X69981299Y-34261446D01*
X69979199Y-34277038D01*
X69957070Y-34388289D01*
X69956612Y-34390491D01*
X69926239Y-34530116D01*
X69922431Y-34543835D01*
X69883805Y-34657623D01*
X69882548Y-34661154D01*
X69834974Y-34788704D01*
X69829924Y-34800400D01*
X69775579Y-34910599D01*
X69773161Y-34915255D01*
X69709191Y-35032408D01*
X69703368Y-35042025D01*
X69634422Y-35145210D01*
X69630526Y-35150716D01*
X69551229Y-35256646D01*
X69545091Y-35264216D01*
X69462896Y-35357940D01*
X69457260Y-35363957D01*
X69363957Y-35457260D01*
X69357950Y-35462887D01*
X69351298Y-35468722D01*
X69312600Y-35491922D01*
X69268210Y-35500000D01*
X68126000Y-35500000D01*
X68063000Y-35483119D01*
X68016881Y-35437000D01*
X68000000Y-35374000D01*
X68000000Y-8012410D01*
X68000000Y-8000000D01*
X67532565Y-7532564D01*
X67500881Y-7479365D01*
X67498366Y-7417495D01*
X67525628Y-7361899D01*
X67751531Y-7095947D01*
X67755659Y-7090516D01*
X67962020Y-6786157D01*
X67965528Y-6780327D01*
X68137775Y-6455435D01*
X68140631Y-6449260D01*
X68276738Y-6107656D01*
X68278913Y-6101200D01*
X68377287Y-5746892D01*
X68378754Y-5740224D01*
X68438242Y-5377369D01*
X68438981Y-5370572D01*
X68458888Y-5003412D01*
X68458888Y-4996588D01*
X68438981Y-4629427D01*
X68438242Y-4622630D01*
X68378754Y-4259775D01*
X68377287Y-4253107D01*
X68278913Y-3898799D01*
X68276738Y-3892343D01*
X68140631Y-3550739D01*
X68137775Y-3544564D01*
X67965528Y-3219672D01*
X67962020Y-3213842D01*
X67755661Y-2909485D01*
X67751530Y-2904051D01*
X67689065Y-2830512D01*
X67677539Y-2822772D01*
X67665419Y-2829553D01*
X65247486Y-5247486D01*
X64752512Y-4752512D01*
X67170948Y-2334076D01*
X67177711Y-2321727D01*
X67169343Y-2310404D01*
X66943908Y-2139031D01*
X66938263Y-2135203D01*
X66623178Y-1945623D01*
X66617169Y-1942437D01*
X66283434Y-1788035D01*
X66277092Y-1785509D01*
X65928636Y-1668100D01*
X65922064Y-1666275D01*
X65562947Y-1587228D01*
X65556223Y-1586126D01*
X65190668Y-1546369D01*
X65183855Y-1546000D01*
X64816145Y-1546000D01*
X64809331Y-1546369D01*
X64443776Y-1586126D01*
X64437052Y-1587228D01*
X64077935Y-1666275D01*
X64071363Y-1668100D01*
X63722907Y-1785509D01*
X63716565Y-1788035D01*
X63382830Y-1942437D01*
X63376821Y-1945623D01*
X63061745Y-2135198D01*
X63056089Y-2139033D01*
X62763357Y-2361563D01*
X62758169Y-2365969D01*
X62645787Y-2472423D01*
X62589545Y-2503223D01*
X62525428Y-2502354D01*
X62470042Y-2470042D01*
X62008775Y-2008775D01*
X62008775Y-2008774D01*
X62000000Y-2000000D01*
X61987590Y-2000000D01*
X59857369Y-2000000D01*
X59806755Y-1989387D01*
X59764668Y-1959338D01*
X59738196Y-1914912D01*
X59728042Y-1885334D01*
X59728041Y-1885332D01*
X59726349Y-1880403D01*
X59612929Y-1670821D01*
X59466560Y-1482765D01*
X59291234Y-1321367D01*
X59286872Y-1318517D01*
X59286868Y-1318514D01*
X59096095Y-1193876D01*
X59096093Y-1193875D01*
X59091734Y-1191027D01*
X58911941Y-1112162D01*
X58878274Y-1097394D01*
X58878271Y-1097393D01*
X58873502Y-1095301D01*
X58868453Y-1094022D01*
X58868449Y-1094021D01*
X58705036Y-1052639D01*
X58642490Y-1036801D01*
X58637299Y-1036370D01*
X58637294Y-1036370D01*
X58467072Y-1022265D01*
X58467061Y-1022264D01*
X58464472Y-1022050D01*
X58345528Y-1022050D01*
X58342939Y-1022264D01*
X58342927Y-1022265D01*
X58172705Y-1036370D01*
X58172698Y-1036371D01*
X58167510Y-1036801D01*
X58162452Y-1038081D01*
X58162451Y-1038082D01*
X57941550Y-1094021D01*
X57941542Y-1094023D01*
X57936498Y-1095301D01*
X57931731Y-1097391D01*
X57931725Y-1097394D01*
X57723039Y-1188933D01*
X57723035Y-1188934D01*
X57718266Y-1191027D01*
X57713911Y-1193871D01*
X57713904Y-1193876D01*
X57523131Y-1318514D01*
X57523121Y-1318521D01*
X57518766Y-1321367D01*
X57514931Y-1324897D01*
X57514925Y-1324902D01*
X57347276Y-1479233D01*
X57347271Y-1479237D01*
X57343440Y-1482765D01*
X57340241Y-1486873D01*
X57340240Y-1486876D01*
X57200270Y-1666710D01*
X57200266Y-1666715D01*
X57197071Y-1670821D01*
X57194593Y-1675399D01*
X57194591Y-1675403D01*
X57086132Y-1875817D01*
X57086128Y-1875824D01*
X57083651Y-1880403D01*
X57081962Y-1885321D01*
X57081957Y-1885334D01*
X57071804Y-1914912D01*
X57045332Y-1959338D01*
X57003245Y-1989387D01*
X56952631Y-2000000D01*
X55766936Y-2000000D01*
X55718718Y-1990409D01*
X55652383Y-1962932D01*
X55652382Y-1962931D01*
X55644754Y-1959772D01*
X55636571Y-1958694D01*
X55636565Y-1958693D01*
X55508188Y-1941793D01*
X55500000Y-1940715D01*
X55491812Y-1941793D01*
X55363431Y-1958694D01*
X55363427Y-1958694D01*
X55355246Y-1959772D01*
X55347626Y-1962928D01*
X55347616Y-1962931D01*
X55281281Y-1990409D01*
X55233063Y-2000000D01*
X54142369Y-2000000D01*
X54091755Y-1989387D01*
X54049668Y-1959338D01*
X54023196Y-1914912D01*
X54013042Y-1885334D01*
X54013041Y-1885332D01*
X54011349Y-1880403D01*
X53897929Y-1670821D01*
X53751560Y-1482765D01*
X53576234Y-1321367D01*
X53571872Y-1318517D01*
X53571868Y-1318514D01*
X53381095Y-1193876D01*
X53381093Y-1193875D01*
X53376734Y-1191027D01*
X53196941Y-1112162D01*
X53163274Y-1097394D01*
X53163271Y-1097393D01*
X53158502Y-1095301D01*
X53153453Y-1094022D01*
X53153449Y-1094021D01*
X52990036Y-1052639D01*
X52927490Y-1036801D01*
X52922299Y-1036370D01*
X52922294Y-1036370D01*
X52752072Y-1022265D01*
X52752061Y-1022264D01*
X52749472Y-1022050D01*
X52630528Y-1022050D01*
X52627939Y-1022264D01*
X52627927Y-1022265D01*
X52457705Y-1036370D01*
X52457698Y-1036371D01*
X52452510Y-1036801D01*
X52447452Y-1038081D01*
X52447451Y-1038082D01*
X52226550Y-1094021D01*
X52226542Y-1094023D01*
X52221498Y-1095301D01*
X52216731Y-1097391D01*
X52216725Y-1097394D01*
X52008039Y-1188933D01*
X52008035Y-1188934D01*
X52003266Y-1191027D01*
X51998911Y-1193871D01*
X51998904Y-1193876D01*
X51808131Y-1318514D01*
X51808121Y-1318521D01*
X51803766Y-1321367D01*
X51799931Y-1324897D01*
X51799925Y-1324902D01*
X51632276Y-1479233D01*
X51632271Y-1479237D01*
X51628440Y-1482765D01*
X51625241Y-1486873D01*
X51625240Y-1486876D01*
X51485270Y-1666710D01*
X51485266Y-1666715D01*
X51482071Y-1670821D01*
X51479593Y-1675399D01*
X51479591Y-1675403D01*
X51371132Y-1875817D01*
X51371128Y-1875824D01*
X51368651Y-1880403D01*
X51366962Y-1885321D01*
X51366957Y-1885334D01*
X51356804Y-1914912D01*
X51330332Y-1959338D01*
X51288245Y-1989387D01*
X51237631Y-2000000D01*
X20483040Y-2000000D01*
X20445153Y-1994169D01*
X20410772Y-1977215D01*
X20395966Y-1966848D01*
X20385326Y-1963996D01*
X20382467Y-1962663D01*
X20379482Y-1961576D01*
X20369940Y-1956068D01*
X20359086Y-1954154D01*
X20333809Y-1949697D01*
X20323079Y-1947318D01*
X20298291Y-1940676D01*
X20298290Y-1940675D01*
X20287643Y-1937823D01*
X20276665Y-1938783D01*
X20276660Y-1938783D01*
X20251090Y-1941021D01*
X20240108Y-1941500D01*
X14009892Y-1941500D01*
X13998910Y-1941021D01*
X13973339Y-1938783D01*
X13973334Y-1938783D01*
X13962357Y-1937823D01*
X13951711Y-1940675D01*
X13951705Y-1940676D01*
X13926909Y-1947320D01*
X13916187Y-1949697D01*
X13890911Y-1954154D01*
X13890908Y-1954155D01*
X13880060Y-1956068D01*
X13870520Y-1961575D01*
X13867553Y-1962655D01*
X13864674Y-1963997D01*
X13854034Y-1966849D01*
X13845007Y-1973168D01*
X13845003Y-1973171D01*
X13839226Y-1977216D01*
X13804846Y-1994169D01*
X13766960Y-2000000D01*
X8012410Y-2000000D01*
X8000000Y-2000000D01*
X7991228Y-2008771D01*
X7991225Y-2008774D01*
X7529955Y-2470043D01*
X7474568Y-2502354D01*
X7410451Y-2503223D01*
X7354210Y-2472422D01*
X7241839Y-2365978D01*
X7236636Y-2361558D01*
X6943910Y-2139033D01*
X6938254Y-2135198D01*
X6623178Y-1945623D01*
X6617169Y-1942437D01*
X6283434Y-1788035D01*
X6277092Y-1785509D01*
X5928636Y-1668100D01*
X5922064Y-1666275D01*
X5562947Y-1587228D01*
X5556223Y-1586126D01*
X5190668Y-1546369D01*
X5183855Y-1546000D01*
X4816145Y-1546000D01*
X4809331Y-1546369D01*
X4443776Y-1586126D01*
X4437052Y-1587228D01*
X4077935Y-1666275D01*
X4071363Y-1668100D01*
X3722907Y-1785509D01*
X3716565Y-1788035D01*
X3382830Y-1942437D01*
X3376821Y-1945623D01*
X3061745Y-2135198D01*
X3056089Y-2139033D01*
X2830653Y-2310405D01*
X2822287Y-2321726D01*
X2829050Y-2334076D01*
X5247487Y-4752513D01*
X4752513Y-5247487D01*
X2334579Y-2829553D01*
X2322460Y-2822773D01*
X2310932Y-2830513D01*
X2248469Y-2904051D01*
X2244338Y-2909485D01*
X2037979Y-3213842D01*
X2034471Y-3219672D01*
X1862224Y-3544564D01*
X1859368Y-3550739D01*
X1723261Y-3892343D01*
X1721086Y-3898799D01*
X1622712Y-4253107D01*
X1621245Y-4259775D01*
X1561757Y-4622630D01*
X1561018Y-4629427D01*
X1541112Y-4996588D01*
X1541112Y-5003412D01*
X1561018Y-5370572D01*
X1561757Y-5377369D01*
X1621245Y-5740224D01*
X1622712Y-5746892D01*
X1721086Y-6101200D01*
X1723261Y-6107656D01*
X1859368Y-6449260D01*
X1862224Y-6455435D01*
X2034471Y-6780327D01*
X2037979Y-6786157D01*
X2244340Y-7090516D01*
X2248468Y-7095947D01*
X2474370Y-7361898D01*
X2501632Y-7417495D01*
X2499117Y-7479364D01*
X2467434Y-7532564D01*
X2008774Y-7991225D01*
X2008771Y-7991228D01*
X2000000Y-8000000D01*
X2000000Y-8012410D01*
X2000000Y-34305010D01*
X1987409Y-34359913D01*
X1952153Y-34403844D01*
X1901277Y-34428022D01*
X1852663Y-34427671D01*
X1852562Y-34428544D01*
X1830794Y-34426000D01*
X1816590Y-34426000D01*
X1803506Y-34429506D01*
X1800000Y-34442590D01*
X1800000Y-34813410D01*
X1803506Y-34826493D01*
X1816590Y-34830000D01*
X2000000Y-34830000D01*
X2000000Y-35000000D01*
X2632499Y-35000000D01*
X2695499Y-35016881D01*
X2741618Y-35063000D01*
X2758499Y-35126000D01*
X2758499Y-37015612D01*
X2758020Y-37026594D01*
X2755782Y-37052164D01*
X2755782Y-37052169D01*
X2754822Y-37063147D01*
X2757674Y-37073794D01*
X2757675Y-37073795D01*
X2764317Y-37098583D01*
X2766696Y-37109313D01*
X2773067Y-37145444D01*
X2778575Y-37154986D01*
X2779662Y-37157971D01*
X2780995Y-37160830D01*
X2783847Y-37171470D01*
X2804903Y-37201542D01*
X2810792Y-37210788D01*
X2829139Y-37242564D01*
X2837585Y-37249651D01*
X2857244Y-37266147D01*
X2865348Y-37273573D01*
X4114402Y-38522627D01*
X4121828Y-38530730D01*
X4138332Y-38550399D01*
X4138333Y-38550400D01*
X4145418Y-38558843D01*
X4175674Y-38576311D01*
X4177192Y-38577188D01*
X4186460Y-38583093D01*
X4216512Y-38604135D01*
X4227157Y-38606987D01*
X4230013Y-38608319D01*
X4232989Y-38609402D01*
X4242538Y-38614915D01*
X4278667Y-38621285D01*
X4289379Y-38623658D01*
X4324835Y-38633160D01*
X4361388Y-38629961D01*
X4372370Y-38629483D01*
X4841459Y-38629483D01*
X4897187Y-38642477D01*
X4941419Y-38678776D01*
X4963043Y-38706957D01*
X5078874Y-38795838D01*
X5213763Y-38851711D01*
X5358517Y-38870768D01*
X5503271Y-38851711D01*
X5506270Y-38850468D01*
X5560581Y-38848691D01*
X5612704Y-38872308D01*
X5649006Y-38916542D01*
X5662000Y-38972270D01*
X5662000Y-39986089D01*
X5652409Y-40034307D01*
X5625095Y-40075185D01*
X5430754Y-40269524D01*
X5382162Y-40299741D01*
X5325216Y-40305350D01*
X5298193Y-40301793D01*
X5298188Y-40301793D01*
X5290000Y-40300715D01*
X5281812Y-40301793D01*
X5153431Y-40318694D01*
X5153427Y-40318694D01*
X5145246Y-40319772D01*
X5137627Y-40322927D01*
X5137619Y-40322930D01*
X5017986Y-40372485D01*
X5017983Y-40372486D01*
X5010358Y-40375645D01*
X5003810Y-40380668D01*
X5003807Y-40380671D01*
X4901071Y-40459503D01*
X4901067Y-40459506D01*
X4894526Y-40464526D01*
X4889506Y-40471067D01*
X4889503Y-40471071D01*
X4810671Y-40573807D01*
X4810668Y-40573810D01*
X4805645Y-40580358D01*
X4802486Y-40587983D01*
X4802485Y-40587986D01*
X4752930Y-40707619D01*
X4752927Y-40707627D01*
X4749772Y-40715246D01*
X4748694Y-40723427D01*
X4748694Y-40723431D01*
X4743461Y-40763181D01*
X4730715Y-40860000D01*
X4731793Y-40868188D01*
X4748693Y-40996565D01*
X4748694Y-40996571D01*
X4749772Y-41004754D01*
X4752931Y-41012382D01*
X4752932Y-41012383D01*
X4802484Y-41132013D01*
X4802485Y-41132016D01*
X4805645Y-41139643D01*
X4810671Y-41146194D01*
X4810673Y-41146196D01*
X4884089Y-41241872D01*
X4894526Y-41255474D01*
X5010357Y-41344355D01*
X5145246Y-41400228D01*
X5290000Y-41419285D01*
X5434754Y-41400228D01*
X5569643Y-41344355D01*
X5685474Y-41255474D01*
X5774355Y-41139643D01*
X5830228Y-41004754D01*
X5849285Y-40860000D01*
X5844648Y-40824782D01*
X5850256Y-40767838D01*
X5880473Y-40719245D01*
X6191153Y-40408565D01*
X6199249Y-40401147D01*
X6218914Y-40384647D01*
X6218914Y-40384646D01*
X6227360Y-40377560D01*
X6245711Y-40345774D01*
X6251603Y-40336524D01*
X6272651Y-40306466D01*
X6275505Y-40295809D01*
X6276837Y-40292955D01*
X6277913Y-40289997D01*
X6283432Y-40280440D01*
X6289802Y-40244310D01*
X6292182Y-40233575D01*
X6298824Y-40208788D01*
X6301677Y-40198143D01*
X6298478Y-40161589D01*
X6298000Y-40150608D01*
X6298000Y-38259392D01*
X6298479Y-38248410D01*
X6301677Y-38211857D01*
X6292178Y-38176409D01*
X6289802Y-38165689D01*
X6285346Y-38140415D01*
X6285345Y-38140414D01*
X6283432Y-38129560D01*
X6277919Y-38120013D01*
X6276844Y-38117057D01*
X6275504Y-38114184D01*
X6272651Y-38103534D01*
X6251608Y-38073481D01*
X6245704Y-38064213D01*
X6242859Y-38059285D01*
X6227360Y-38032440D01*
X6199247Y-38008850D01*
X6191144Y-38001424D01*
X5748569Y-37558849D01*
X5741143Y-37550745D01*
X5724647Y-37531086D01*
X5717560Y-37522640D01*
X5685784Y-37504293D01*
X5676538Y-37498404D01*
X5646466Y-37477348D01*
X5635826Y-37474496D01*
X5632967Y-37473163D01*
X5629982Y-37472076D01*
X5620440Y-37466568D01*
X5609586Y-37464654D01*
X5584309Y-37460197D01*
X5573579Y-37457818D01*
X5548791Y-37451176D01*
X5548790Y-37451175D01*
X5538143Y-37448323D01*
X5527165Y-37449283D01*
X5527160Y-37449283D01*
X5501590Y-37451521D01*
X5490608Y-37452000D01*
X4583910Y-37452000D01*
X4535692Y-37442409D01*
X4494815Y-37415095D01*
X3754905Y-36675185D01*
X3727591Y-36634308D01*
X3718000Y-36586090D01*
X3718000Y-36053911D01*
X3727591Y-36005693D01*
X3754904Y-35964816D01*
X3865364Y-35854356D01*
X4212226Y-35507492D01*
X4264306Y-35476148D01*
X4325003Y-35472835D01*
X4380187Y-35498324D01*
X4417016Y-35546684D01*
X4419665Y-35552827D01*
X4426955Y-35565454D01*
X4523448Y-35695067D01*
X4533444Y-35705662D01*
X4657227Y-35809528D01*
X4669411Y-35817541D01*
X4805204Y-35885740D01*
X4854922Y-35930637D01*
X4874602Y-35994670D01*
X4858681Y-36059740D01*
X4813217Y-36105872D01*
X4809767Y-36107302D01*
X4803220Y-36112325D01*
X4803216Y-36112328D01*
X4696099Y-36194522D01*
X4696094Y-36194526D01*
X4689549Y-36199549D01*
X4684526Y-36206094D01*
X4684522Y-36206099D01*
X4602330Y-36313213D01*
X4602326Y-36313218D01*
X4597302Y-36319767D01*
X4594144Y-36327390D01*
X4594141Y-36327396D01*
X4544313Y-36447693D01*
X4539313Y-36459764D01*
X4538236Y-36467944D01*
X4538234Y-36467952D01*
X4522682Y-36586090D01*
X4519534Y-36610000D01*
X4520612Y-36618188D01*
X4538234Y-36752047D01*
X4538235Y-36752053D01*
X4539313Y-36760236D01*
X4542472Y-36767864D01*
X4542473Y-36767865D01*
X4594141Y-36892603D01*
X4594142Y-36892606D01*
X4597302Y-36900233D01*
X4602329Y-36906784D01*
X4602330Y-36906786D01*
X4681759Y-37010299D01*
X4689549Y-37020451D01*
X4809767Y-37112698D01*
X4949764Y-37170687D01*
X5062280Y-37185500D01*
X5133598Y-37185500D01*
X5137720Y-37185500D01*
X5250236Y-37170687D01*
X5390233Y-37112698D01*
X5510451Y-37020451D01*
X5602698Y-36900233D01*
X5603612Y-36898025D01*
X5639241Y-36859565D01*
X5691216Y-36839025D01*
X5746961Y-36842985D01*
X5753347Y-36844923D01*
X5801565Y-36854514D01*
X5852190Y-36859500D01*
X5855282Y-36859500D01*
X6874000Y-36859500D01*
X6937000Y-36876381D01*
X6983119Y-36922500D01*
X7000000Y-36985500D01*
X7000000Y-42014500D01*
X6983119Y-42077500D01*
X6937000Y-42123619D01*
X6874000Y-42140500D01*
X5926000Y-42140500D01*
X5921914Y-42141037D01*
X5921912Y-42141038D01*
X5862927Y-42148803D01*
X5862920Y-42148804D01*
X5858836Y-42149342D01*
X5854868Y-42150405D01*
X5854854Y-42150408D01*
X5799810Y-42165157D01*
X5799793Y-42165162D01*
X5795836Y-42166223D01*
X5792033Y-42167798D01*
X5792025Y-42167801D01*
X5770886Y-42176557D01*
X5706222Y-42185070D01*
X5645966Y-42160111D01*
X5610693Y-42114144D01*
X5609989Y-42114551D01*
X5606899Y-42109200D01*
X5606261Y-42108368D01*
X5605859Y-42107398D01*
X5605858Y-42107396D01*
X5602698Y-42099767D01*
X5510451Y-41979549D01*
X5498473Y-41970358D01*
X5396786Y-41892330D01*
X5396784Y-41892329D01*
X5390233Y-41887302D01*
X5382606Y-41884142D01*
X5382603Y-41884141D01*
X5257865Y-41832473D01*
X5257864Y-41832472D01*
X5250236Y-41829313D01*
X5242053Y-41828235D01*
X5242047Y-41828234D01*
X5141807Y-41815038D01*
X5141806Y-41815037D01*
X5137720Y-41814500D01*
X5062280Y-41814500D01*
X5058194Y-41815037D01*
X5058192Y-41815038D01*
X4957952Y-41828234D01*
X4957944Y-41828236D01*
X4949764Y-41829313D01*
X4942137Y-41832472D01*
X4942134Y-41832473D01*
X4817396Y-41884141D01*
X4817390Y-41884144D01*
X4809767Y-41887302D01*
X4803218Y-41892326D01*
X4803213Y-41892330D01*
X4696099Y-41974522D01*
X4696094Y-41974526D01*
X4689549Y-41979549D01*
X4684526Y-41986094D01*
X4684522Y-41986099D01*
X4602330Y-42093213D01*
X4602326Y-42093218D01*
X4597302Y-42099767D01*
X4594144Y-42107390D01*
X4594141Y-42107396D01*
X4547351Y-42220358D01*
X4539313Y-42239764D01*
X4538236Y-42247944D01*
X4538234Y-42247952D01*
X4525491Y-42344752D01*
X4519534Y-42390000D01*
X4520612Y-42398188D01*
X4538234Y-42532047D01*
X4538235Y-42532053D01*
X4539313Y-42540236D01*
X4542472Y-42547864D01*
X4542473Y-42547865D01*
X4594141Y-42672603D01*
X4594142Y-42672606D01*
X4597302Y-42680233D01*
X4602329Y-42686784D01*
X4602330Y-42686786D01*
X4684522Y-42793900D01*
X4689549Y-42800451D01*
X4809767Y-42892698D01*
X4815080Y-42894899D01*
X4863034Y-42944992D01*
X4876790Y-43014154D01*
X4851232Y-43079876D01*
X4794365Y-43121573D01*
X4746193Y-43139106D01*
X4733175Y-43145643D01*
X4598173Y-43234435D01*
X4586998Y-43243812D01*
X4476120Y-43361336D01*
X4467411Y-43373035D01*
X4419724Y-43455631D01*
X4416688Y-43466963D01*
X4428019Y-43470000D01*
X5263410Y-43470000D01*
X5276493Y-43466493D01*
X5280000Y-43453410D01*
X5280000Y-43082587D01*
X5273814Y-43059501D01*
X5272507Y-42999618D01*
X5298999Y-42945897D01*
X5347302Y-42910480D01*
X5390233Y-42892698D01*
X5492395Y-42814305D01*
X5547212Y-42790185D01*
X5606981Y-42794103D01*
X5658188Y-42825176D01*
X5943095Y-43110083D01*
X5970409Y-43150960D01*
X5980000Y-43199178D01*
X5980000Y-44000000D01*
X2500000Y-44000000D01*
X2500000Y-44134119D01*
X2481000Y-44153119D01*
X2418000Y-44170000D01*
X1816590Y-44170000D01*
X1803506Y-44173506D01*
X1800000Y-44186590D01*
X1800000Y-44555458D01*
X1803888Y-44568919D01*
X1817712Y-44571218D01*
X1917780Y-44559521D01*
X1931963Y-44556160D01*
X2083804Y-44500895D01*
X2096824Y-44494356D01*
X2231826Y-44405564D01*
X2243001Y-44396187D01*
X2282351Y-44354479D01*
X2332286Y-44322050D01*
X2391536Y-44316171D01*
X2446870Y-44338154D01*
X2485932Y-44383090D01*
X2500000Y-44440945D01*
X2500000Y-44750000D01*
X2749242Y-44750000D01*
X2750750Y-44750009D01*
X2754472Y-44750053D01*
X2953257Y-44752434D01*
X2964055Y-44753029D01*
X3367842Y-44792799D01*
X3380037Y-44794608D01*
X3777234Y-44873615D01*
X3789217Y-44876617D01*
X4176749Y-44994173D01*
X4188385Y-44998337D01*
X4562522Y-45153309D01*
X4573683Y-45158588D01*
X4752257Y-45254038D01*
X4930825Y-45349486D01*
X4941430Y-45355843D01*
X5278136Y-45580821D01*
X5288067Y-45588185D01*
X5511928Y-45771904D01*
X5601107Y-45845091D01*
X5610268Y-45853395D01*
X5896604Y-46139731D01*
X5904908Y-46148892D01*
X6161812Y-46461930D01*
X6169178Y-46471863D01*
X6394156Y-46808569D01*
X6400513Y-46819174D01*
X6591407Y-47176308D01*
X6596694Y-47187486D01*
X6751661Y-47561611D01*
X6755827Y-47573253D01*
X6873381Y-47960778D01*
X6876385Y-47972772D01*
X6955388Y-48369942D01*
X6957202Y-48382174D01*
X6996968Y-48785922D01*
X6997566Y-48796763D01*
X6999991Y-48999249D01*
X7000000Y-49000758D01*
X7000000Y-56749242D01*
X6999991Y-56750751D01*
X6997566Y-56953236D01*
X6996968Y-56964077D01*
X6957202Y-57367825D01*
X6955388Y-57380057D01*
X6876385Y-57777227D01*
X6873381Y-57789221D01*
X6755827Y-58176746D01*
X6751661Y-58188388D01*
X6596694Y-58562513D01*
X6591407Y-58573691D01*
X6400513Y-58930825D01*
X6394156Y-58941430D01*
X6169178Y-59278136D01*
X6161812Y-59288069D01*
X5904908Y-59601107D01*
X5896604Y-59610268D01*
X5610268Y-59896604D01*
X5601107Y-59904908D01*
X5288069Y-60161812D01*
X5278136Y-60169178D01*
X4941430Y-60394156D01*
X4930825Y-60400513D01*
X4573691Y-60591407D01*
X4562513Y-60596694D01*
X4188388Y-60751661D01*
X4176746Y-60755827D01*
X3789221Y-60873381D01*
X3777227Y-60876385D01*
X3380057Y-60955388D01*
X3367825Y-60957202D01*
X2964077Y-60996968D01*
X2953236Y-60997566D01*
X2750325Y-60999996D01*
X2750303Y-60999996D01*
X2750000Y-61000000D01*
X2749797Y-61000004D01*
X2749674Y-61000007D01*
X2672029Y-61001891D01*
X2672027Y-61001891D01*
X2665726Y-61002044D01*
X2659580Y-61003446D01*
X2659578Y-61003447D01*
X2508299Y-61037974D01*
X2508290Y-61037977D01*
X2501403Y-61039549D01*
X2495033Y-61042616D01*
X2495029Y-61042618D01*
X2355925Y-61109607D01*
X2355921Y-61109609D01*
X2349545Y-61112680D01*
X2344015Y-61117089D01*
X2344007Y-61117095D01*
X2223299Y-61213358D01*
X2223294Y-61213362D01*
X2217769Y-61217769D01*
X2213362Y-61223294D01*
X2213358Y-61223299D01*
X2117095Y-61344007D01*
X2117089Y-61344015D01*
X2112680Y-61349545D01*
X2109609Y-61355921D01*
X2109607Y-61355925D01*
X2042618Y-61495029D01*
X2042616Y-61495033D01*
X2039549Y-61501403D01*
X2037977Y-61508290D01*
X2037974Y-61508299D01*
X2005315Y-61651394D01*
X2002044Y-61665726D01*
X2001891Y-61672027D01*
X2001891Y-61672029D01*
X2000018Y-61749219D01*
X2000017Y-61749292D01*
X2000000Y-61750000D01*
X2000000Y-61750783D01*
X2000000Y-63253358D01*
X1985323Y-63312377D01*
X1862224Y-63544564D01*
X1859368Y-63550739D01*
X1723261Y-63892343D01*
X1721086Y-63898799D01*
X1622712Y-64253107D01*
X1621245Y-64259775D01*
X1561757Y-64622630D01*
X1561018Y-64629427D01*
X1541112Y-64996588D01*
X1541112Y-65003412D01*
X1561018Y-65370572D01*
X1561757Y-65377369D01*
X1621245Y-65740224D01*
X1622712Y-65746892D01*
X1721086Y-66101200D01*
X1723261Y-66107656D01*
X1859368Y-66449260D01*
X1862224Y-66455435D01*
X2034471Y-66780327D01*
X2037979Y-66786157D01*
X2244338Y-67090514D01*
X2248469Y-67095948D01*
X2310933Y-67169486D01*
X2322459Y-67177226D01*
X2334579Y-67170445D01*
X4505025Y-65000000D01*
X5000000Y-65000000D01*
X5247486Y-65247486D01*
X2829050Y-67665922D01*
X2822287Y-67678271D01*
X2830655Y-67689594D01*
X3056091Y-67860968D01*
X3061736Y-67864796D01*
X3376821Y-68054376D01*
X3382830Y-68057562D01*
X3716565Y-68211964D01*
X3722907Y-68214490D01*
X4071363Y-68331899D01*
X4077935Y-68333724D01*
X4437052Y-68412771D01*
X4443776Y-68413873D01*
X4809331Y-68453630D01*
X4816145Y-68454000D01*
X5183855Y-68454000D01*
X5190668Y-68453630D01*
X5556223Y-68413873D01*
X5562947Y-68412771D01*
X5922064Y-68333724D01*
X5928636Y-68331899D01*
X6277092Y-68214490D01*
X6283434Y-68211964D01*
X6617169Y-68057562D01*
X6623178Y-68054376D01*
X6938254Y-67864801D01*
X6943910Y-67860966D01*
X7236636Y-67638441D01*
X7241829Y-67634029D01*
X7354210Y-67527576D01*
X7410452Y-67496776D01*
X7474569Y-67497644D01*
X7529956Y-67529956D01*
X8000000Y-68000000D01*
X8012410Y-68000000D01*
X49243851Y-68000000D01*
X49287893Y-68007948D01*
X49311581Y-68022007D01*
X49312549Y-68020502D01*
X49320128Y-68025372D01*
X49326942Y-68031277D01*
X49335144Y-68035022D01*
X49342721Y-68039892D01*
X49342647Y-68040006D01*
X49343042Y-68040240D01*
X49343107Y-68040123D01*
X49351019Y-68044443D01*
X49358233Y-68049843D01*
X49366679Y-68052993D01*
X49405094Y-68067321D01*
X49413389Y-68070756D01*
X49458904Y-68091542D01*
X49467824Y-68092824D01*
X49476472Y-68095363D01*
X49476434Y-68095492D01*
X49476879Y-68095605D01*
X49476908Y-68095474D01*
X49485711Y-68097389D01*
X49494158Y-68100540D01*
X49544051Y-68104108D01*
X49552981Y-68105068D01*
X49566417Y-68107000D01*
X49579983Y-68107000D01*
X49588971Y-68107321D01*
X49638860Y-68110889D01*
X49647664Y-68108973D01*
X49656654Y-68108331D01*
X49656663Y-68108464D01*
X49670285Y-68107000D01*
X53693917Y-68107000D01*
X53766083Y-68107000D01*
X58929715Y-68107000D01*
X58943336Y-68108464D01*
X58943346Y-68108331D01*
X58952335Y-68108973D01*
X58961140Y-68110889D01*
X59011028Y-68107321D01*
X59020017Y-68107000D01*
X59029077Y-68107000D01*
X59033583Y-68107000D01*
X59047026Y-68105067D01*
X59055939Y-68104108D01*
X59105842Y-68100540D01*
X59114294Y-68097387D01*
X59123092Y-68095473D01*
X59123121Y-68095607D01*
X59123564Y-68095494D01*
X59123526Y-68095363D01*
X59132169Y-68092824D01*
X59141096Y-68091542D01*
X59186613Y-68070754D01*
X59194873Y-68067332D01*
X59241767Y-68049843D01*
X59248982Y-68044441D01*
X59256893Y-68040122D01*
X59256957Y-68040240D01*
X59257351Y-68040007D01*
X59257278Y-68039893D01*
X59264859Y-68035020D01*
X59273058Y-68031277D01*
X59279868Y-68025375D01*
X59287452Y-68020502D01*
X59288418Y-68022006D01*
X59312107Y-68007948D01*
X59356149Y-68000000D01*
X61987590Y-68000000D01*
X62000000Y-68000000D01*
X62470046Y-67529953D01*
X62525429Y-67497644D01*
X62589547Y-67496775D01*
X62645788Y-67527576D01*
X62758160Y-67634021D01*
X62763363Y-67638441D01*
X63056089Y-67860966D01*
X63061745Y-67864801D01*
X63376821Y-68054376D01*
X63382830Y-68057562D01*
X63716565Y-68211964D01*
X63722907Y-68214490D01*
X64071363Y-68331899D01*
X64077935Y-68333724D01*
X64437052Y-68412771D01*
X64443776Y-68413873D01*
X64809331Y-68453630D01*
X64816145Y-68454000D01*
X65183855Y-68454000D01*
X65190668Y-68453630D01*
X65556223Y-68413873D01*
X65562947Y-68412771D01*
X65922064Y-68333724D01*
X65928636Y-68331899D01*
X66277092Y-68214490D01*
X66283434Y-68211964D01*
X66617169Y-68057562D01*
X66623178Y-68054376D01*
X66938261Y-67864797D01*
X66943905Y-67860970D01*
X67169344Y-67689594D01*
X67177711Y-67678271D01*
X67170949Y-67665923D01*
X64752513Y-65247487D01*
X65247487Y-64752513D01*
X67665418Y-67170444D01*
X67677539Y-67177225D01*
X67689066Y-67169486D01*
X67751531Y-67095947D01*
X67755659Y-67090516D01*
X67962020Y-66786157D01*
X67965528Y-66780327D01*
X68137775Y-66455435D01*
X68140631Y-66449260D01*
X68276738Y-66107656D01*
X68278913Y-66101200D01*
X68377287Y-65746892D01*
X68378754Y-65740224D01*
X68438242Y-65377369D01*
X68438981Y-65370572D01*
X68458888Y-65003412D01*
X68458888Y-64996588D01*
X68438981Y-64629427D01*
X68438242Y-64622630D01*
X68378754Y-64259775D01*
X68377287Y-64253107D01*
X68278913Y-63898799D01*
X68276738Y-63892343D01*
X68140631Y-63550739D01*
X68137775Y-63544564D01*
X67965528Y-63219672D01*
X67962020Y-63213842D01*
X67755659Y-62909483D01*
X67751531Y-62904052D01*
X67525628Y-62638100D01*
X67498366Y-62582503D01*
X67500881Y-62520634D01*
X67532562Y-62467437D01*
X68000000Y-62000000D01*
X68000000Y-55686572D01*
X68016720Y-55623852D01*
X68062441Y-55577777D01*
X68125028Y-55560576D01*
X69319452Y-55551388D01*
X69368183Y-55560790D01*
X69409508Y-55588288D01*
X69457265Y-55636045D01*
X69462901Y-55642062D01*
X69545092Y-55735782D01*
X69551218Y-55743337D01*
X69605338Y-55815633D01*
X69630519Y-55849271D01*
X69634415Y-55854776D01*
X69703382Y-55957993D01*
X69709196Y-55967595D01*
X69773162Y-56084742D01*
X69775580Y-56089398D01*
X69829925Y-56199597D01*
X69834975Y-56211293D01*
X69882549Y-56338843D01*
X69883794Y-56342342D01*
X69922434Y-56456170D01*
X69926240Y-56469881D01*
X69956613Y-56609506D01*
X69957071Y-56611708D01*
X69979200Y-56722959D01*
X69981300Y-56738551D01*
X69993993Y-56916021D01*
X69994044Y-56916768D01*
X69999230Y-56995880D01*
X69999500Y-57004122D01*
X69999500Y-64997404D01*
X69999392Y-65002611D01*
X69990525Y-65216982D01*
X69990513Y-65217272D01*
X69981951Y-65413355D01*
X69981103Y-65423443D01*
X69954586Y-65636182D01*
X69954476Y-65637044D01*
X69928431Y-65834867D01*
X69926827Y-65844277D01*
X69882965Y-66053467D01*
X69882660Y-66054881D01*
X69839340Y-66250287D01*
X69837089Y-66258968D01*
X69776177Y-66463568D01*
X69775583Y-66465505D01*
X69715328Y-66656607D01*
X69712541Y-66664520D01*
X69635002Y-66863236D01*
X69634030Y-66865652D01*
X69557283Y-67050936D01*
X69554071Y-67058057D01*
X69460444Y-67249574D01*
X69459010Y-67252416D01*
X69366375Y-67430365D01*
X69362853Y-67436681D01*
X69253750Y-67619781D01*
X69251776Y-67622984D01*
X69143955Y-67792228D01*
X69140233Y-67797744D01*
X69016426Y-67971147D01*
X69013844Y-67974635D01*
X68891651Y-68133880D01*
X68887836Y-68138610D01*
X68750133Y-68301195D01*
X68746882Y-68304885D01*
X68611275Y-68452875D01*
X68607473Y-68456846D01*
X68456846Y-68607473D01*
X68452875Y-68611275D01*
X68304885Y-68746882D01*
X68301195Y-68750133D01*
X68138610Y-68887836D01*
X68133880Y-68891651D01*
X67974635Y-69013844D01*
X67971147Y-69016426D01*
X67797744Y-69140233D01*
X67792228Y-69143955D01*
X67622984Y-69251776D01*
X67619781Y-69253750D01*
X67436681Y-69362853D01*
X67430365Y-69366375D01*
X67252416Y-69459010D01*
X67249574Y-69460444D01*
X67058057Y-69554071D01*
X67050936Y-69557283D01*
X66865652Y-69634030D01*
X66863236Y-69635002D01*
X66664520Y-69712541D01*
X66656607Y-69715328D01*
X66465505Y-69775583D01*
X66463568Y-69776177D01*
X66258968Y-69837089D01*
X66250287Y-69839340D01*
X66054881Y-69882660D01*
X66053467Y-69882965D01*
X65844277Y-69926827D01*
X65834867Y-69928431D01*
X65637044Y-69954476D01*
X65636182Y-69954586D01*
X65423443Y-69981103D01*
X65413354Y-69981951D01*
X65217291Y-69990512D01*
X65217002Y-69990524D01*
X65002611Y-69999392D01*
X64997404Y-69999500D01*
X5002596Y-69999500D01*
X4997389Y-69999392D01*
X4782996Y-69990524D01*
X4782707Y-69990512D01*
X4586644Y-69981951D01*
X4576555Y-69981103D01*
X4363816Y-69954586D01*
X4362954Y-69954476D01*
X4165131Y-69928431D01*
X4155721Y-69926827D01*
X3946531Y-69882965D01*
X3945117Y-69882660D01*
X3749711Y-69839340D01*
X3741030Y-69837089D01*
X3536430Y-69776177D01*
X3534493Y-69775583D01*
X3343391Y-69715328D01*
X3335478Y-69712541D01*
X3136762Y-69635002D01*
X3134346Y-69634030D01*
X2949062Y-69557283D01*
X2941941Y-69554071D01*
X2750424Y-69460444D01*
X2747582Y-69459010D01*
X2569633Y-69366375D01*
X2563317Y-69362853D01*
X2380217Y-69253750D01*
X2377014Y-69251776D01*
X2207770Y-69143955D01*
X2202254Y-69140233D01*
X2028851Y-69016426D01*
X2025363Y-69013844D01*
X1866118Y-68891651D01*
X1861388Y-68887836D01*
X1698803Y-68750133D01*
X1695113Y-68746882D01*
X1547123Y-68611275D01*
X1543152Y-68607473D01*
X1392525Y-68456846D01*
X1388723Y-68452875D01*
X1253116Y-68304885D01*
X1249865Y-68301195D01*
X1112162Y-68138610D01*
X1108347Y-68133880D01*
X1087968Y-68107321D01*
X986142Y-67974619D01*
X983572Y-67971147D01*
X947684Y-67920883D01*
X859765Y-67797744D01*
X856043Y-67792228D01*
X783444Y-67678271D01*
X748205Y-67622957D01*
X746248Y-67619781D01*
X637145Y-67436681D01*
X633623Y-67430365D01*
X540957Y-67252354D01*
X539554Y-67249574D01*
X534985Y-67240228D01*
X445921Y-67058044D01*
X442721Y-67050950D01*
X365955Y-66865621D01*
X364996Y-66863236D01*
X361643Y-66854643D01*
X287453Y-66664509D01*
X284670Y-66656607D01*
X224369Y-66465355D01*
X223855Y-66463679D01*
X162905Y-66258953D01*
X160664Y-66250312D01*
X117327Y-66054833D01*
X117033Y-66053467D01*
X111495Y-66027057D01*
X73170Y-65844273D01*
X71567Y-65834867D01*
X45491Y-65636807D01*
X18893Y-65423423D01*
X18048Y-65413375D01*
X9484Y-65217218D01*
X608Y-65002611D01*
X500Y-64997404D01*
X500Y-61753804D01*
X730Y-61746197D01*
X5216Y-61672027D01*
X6493Y-61650908D01*
X19840Y-61447294D01*
X21629Y-61432866D01*
X45689Y-61301573D01*
X45986Y-61300020D01*
X78282Y-61137653D01*
X81551Y-61124808D01*
X123483Y-60990244D01*
X124400Y-60987428D01*
X175176Y-60837846D01*
X179570Y-60826685D01*
X238637Y-60695444D01*
X240454Y-60691590D01*
X309000Y-60552591D01*
X314153Y-60543179D01*
X389341Y-60418804D01*
X392346Y-60414079D01*
X477657Y-60286402D01*
X483201Y-60278747D01*
X573268Y-60163784D01*
X577637Y-60158514D01*
X678540Y-60043457D01*
X684119Y-60037502D01*
X787502Y-59934119D01*
X793457Y-59928540D01*
X908514Y-59827637D01*
X913784Y-59823268D01*
X1028747Y-59733201D01*
X1036402Y-59727657D01*
X1164079Y-59642346D01*
X1168804Y-59639341D01*
X1293179Y-59564153D01*
X1302591Y-59559000D01*
X1441590Y-59490454D01*
X1445444Y-59488637D01*
X1576685Y-59429570D01*
X1587846Y-59425176D01*
X1737428Y-59374400D01*
X1740244Y-59373483D01*
X1874808Y-59331551D01*
X1887653Y-59328282D01*
X2050020Y-59295986D01*
X2051573Y-59295689D01*
X2182866Y-59271629D01*
X2197294Y-59269840D01*
X2400908Y-59256493D01*
X2496198Y-59250729D01*
X2503804Y-59250500D01*
X2647443Y-59250500D01*
X2651252Y-59250500D01*
X2951551Y-59214037D01*
X3245266Y-59141643D01*
X3528113Y-59034373D01*
X3795967Y-58893792D01*
X4044924Y-58721950D01*
X4271352Y-58521352D01*
X4471950Y-58294924D01*
X4643792Y-58045967D01*
X4784373Y-57778113D01*
X4891643Y-57495266D01*
X4964037Y-57201551D01*
X5000500Y-56901252D01*
X5000500Y-56750000D01*
X5000500Y-56749500D01*
X5000500Y-49249901D01*
X5000500Y-49098748D01*
X4964037Y-48798449D01*
X4891643Y-48504734D01*
X4840523Y-48369942D01*
X4785724Y-48225449D01*
X4785723Y-48225447D01*
X4784373Y-48221887D01*
X4643792Y-47954033D01*
X4471950Y-47705076D01*
X4271352Y-47478648D01*
X4044924Y-47278050D01*
X4032744Y-47269643D01*
X3799102Y-47108372D01*
X3795967Y-47106208D01*
X3792597Y-47104439D01*
X3792590Y-47104435D01*
X3531489Y-46967399D01*
X3531490Y-46967399D01*
X3528113Y-46965627D01*
X3524560Y-46964279D01*
X3524550Y-46964275D01*
X3248830Y-46859708D01*
X3248820Y-46859705D01*
X3245266Y-46858357D01*
X3241576Y-46857447D01*
X3241568Y-46857445D01*
X2955243Y-46786873D01*
X2951551Y-46785963D01*
X2947784Y-46785505D01*
X2947770Y-46785503D01*
X2655035Y-46749959D01*
X2655029Y-46749958D01*
X2651252Y-46749500D01*
X2647443Y-46749500D01*
X2503807Y-46749500D01*
X2496198Y-46749270D01*
X2401368Y-46743533D01*
X2400736Y-46743493D01*
X2197314Y-46730160D01*
X2182843Y-46728366D01*
X2051733Y-46704339D01*
X2049864Y-46703982D01*
X1887683Y-46671723D01*
X1874778Y-46668439D01*
X1740331Y-46626543D01*
X1737315Y-46625561D01*
X1587873Y-46574832D01*
X1576663Y-46570419D01*
X1445525Y-46511399D01*
X1441508Y-46509505D01*
X1302613Y-46441009D01*
X1293158Y-46435832D01*
X1168851Y-46360686D01*
X1164033Y-46357622D01*
X1036427Y-46272358D01*
X1028723Y-46266779D01*
X913835Y-46176771D01*
X908473Y-46172325D01*
X793488Y-46071486D01*
X787471Y-46065849D01*
X684149Y-45962527D01*
X678512Y-45956510D01*
X577668Y-45841519D01*
X573240Y-45836178D01*
X491242Y-45731516D01*
X483219Y-45721275D01*
X477640Y-45713571D01*
X392376Y-45585965D01*
X389312Y-45581147D01*
X318107Y-45463360D01*
X314165Y-45456839D01*
X308989Y-45447385D01*
X240475Y-45308453D01*
X238617Y-45304511D01*
X179576Y-45173328D01*
X175171Y-45162138D01*
X124416Y-45012618D01*
X123468Y-45009708D01*
X81553Y-44875200D01*
X78280Y-44862337D01*
X45995Y-44700028D01*
X45681Y-44698381D01*
X21629Y-44567137D01*
X19840Y-44552701D01*
X6493Y-44349070D01*
X6464Y-44348604D01*
X6382Y-44347254D01*
X729Y-44253801D01*
X500Y-44246196D01*
X500Y-44172856D01*
X484160Y-44172856D01*
X486019Y-44184375D01*
X489669Y-44192836D01*
X496949Y-44205445D01*
X593448Y-44335067D01*
X603444Y-44345662D01*
X727227Y-44449528D01*
X739411Y-44457541D01*
X883802Y-44530058D01*
X897499Y-44535043D01*
X1054731Y-44572308D01*
X1069207Y-44574000D01*
X1083410Y-44574000D01*
X1096493Y-44570493D01*
X1100000Y-44557410D01*
X1100000Y-44186590D01*
X1096493Y-44173506D01*
X1083410Y-44170000D01*
X495475Y-44170000D01*
X484160Y-44172856D01*
X500Y-44172856D01*
X500Y-43466963D01*
X486688Y-43466963D01*
X498019Y-43470000D01*
X1083410Y-43470000D01*
X1096493Y-43466493D01*
X1100000Y-43453410D01*
X1800000Y-43453410D01*
X1803506Y-43466493D01*
X1816590Y-43470000D01*
X2404525Y-43470000D01*
X2415839Y-43467143D01*
X2413980Y-43455624D01*
X2410330Y-43447163D01*
X2403050Y-43434554D01*
X2306551Y-43304932D01*
X2296555Y-43294337D01*
X2172772Y-43190471D01*
X2160588Y-43182458D01*
X2016197Y-43109941D01*
X2002500Y-43104956D01*
X1845268Y-43067691D01*
X1830793Y-43066000D01*
X1816590Y-43066000D01*
X1803506Y-43069506D01*
X1800000Y-43082590D01*
X1800000Y-43453410D01*
X1100000Y-43453410D01*
X1100000Y-43084542D01*
X1096111Y-43071080D01*
X1082287Y-43068781D01*
X982219Y-43080478D01*
X968036Y-43083839D01*
X816195Y-43139104D01*
X803175Y-43145643D01*
X668173Y-43234435D01*
X656998Y-43243812D01*
X546120Y-43361336D01*
X537411Y-43373035D01*
X489724Y-43455631D01*
X486688Y-43466963D01*
X500Y-43466963D01*
X500Y-35532856D01*
X484160Y-35532856D01*
X486019Y-35544375D01*
X489669Y-35552836D01*
X496949Y-35565445D01*
X593448Y-35695067D01*
X603444Y-35705662D01*
X727227Y-35809528D01*
X739411Y-35817541D01*
X883802Y-35890058D01*
X897499Y-35895043D01*
X1054731Y-35932308D01*
X1069207Y-35934000D01*
X1083410Y-35934000D01*
X1096493Y-35930493D01*
X1100000Y-35917410D01*
X1100000Y-35915458D01*
X1800000Y-35915458D01*
X1803888Y-35928919D01*
X1817712Y-35931218D01*
X1917780Y-35919521D01*
X1931963Y-35916160D01*
X2083804Y-35860895D01*
X2096824Y-35854356D01*
X2231826Y-35765564D01*
X2243001Y-35756187D01*
X2353879Y-35638663D01*
X2362588Y-35626964D01*
X2410275Y-35544368D01*
X2413311Y-35533036D01*
X2401981Y-35530000D01*
X1816590Y-35530000D01*
X1803506Y-35533506D01*
X1800000Y-35546590D01*
X1800000Y-35915458D01*
X1100000Y-35915458D01*
X1100000Y-35546590D01*
X1096493Y-35533506D01*
X1083410Y-35530000D01*
X495475Y-35530000D01*
X484160Y-35532856D01*
X500Y-35532856D01*
X500Y-34826963D01*
X486688Y-34826963D01*
X498019Y-34830000D01*
X1083410Y-34830000D01*
X1096493Y-34826493D01*
X1100000Y-34813410D01*
X1100000Y-34444542D01*
X1096111Y-34431080D01*
X1082287Y-34428781D01*
X982219Y-34440478D01*
X968036Y-34443839D01*
X816195Y-34499104D01*
X803175Y-34505643D01*
X668173Y-34594435D01*
X656998Y-34603812D01*
X546120Y-34721336D01*
X537411Y-34733035D01*
X489724Y-34815631D01*
X486688Y-34826963D01*
X500Y-34826963D01*
X500Y-5002596D01*
X608Y-4997389D01*
X2379Y-4954576D01*
X9496Y-4782477D01*
X18049Y-4586620D01*
X18892Y-4576580D01*
X45486Y-4363234D01*
X71569Y-4165116D01*
X73168Y-4155735D01*
X117062Y-3946395D01*
X117311Y-3945238D01*
X160667Y-3749673D01*
X162901Y-3741059D01*
X223878Y-3536240D01*
X224346Y-3534715D01*
X284680Y-3343362D01*
X287446Y-3335508D01*
X365035Y-3136663D01*
X365927Y-3134446D01*
X442731Y-2949024D01*
X445909Y-2941979D01*
X539601Y-2750329D01*
X540924Y-2747708D01*
X633643Y-2569596D01*
X637145Y-2563317D01*
X746283Y-2380158D01*
X748167Y-2377102D01*
X856066Y-2207735D01*
X859741Y-2202289D01*
X983625Y-2028778D01*
X986100Y-2025435D01*
X1108385Y-1866069D01*
X1112141Y-1861412D01*
X1249870Y-1698796D01*
X1253084Y-1695149D01*
X1388767Y-1547076D01*
X1392479Y-1543199D01*
X1543199Y-1392479D01*
X1547076Y-1388767D01*
X1695149Y-1253084D01*
X1698803Y-1249865D01*
X1768273Y-1191027D01*
X1861412Y-1112141D01*
X1866069Y-1108385D01*
X2025435Y-986100D01*
X2028778Y-983625D01*
X2202289Y-859741D01*
X2207735Y-856066D01*
X2377102Y-748167D01*
X2380158Y-746283D01*
X2563323Y-637141D01*
X2569596Y-633643D01*
X2747708Y-540924D01*
X2750329Y-539601D01*
X2941979Y-445909D01*
X2949024Y-442731D01*
X3134446Y-365927D01*
X3136663Y-365035D01*
X3335508Y-287446D01*
X3343362Y-284680D01*
X3534715Y-224346D01*
X3536240Y-223878D01*
X3741059Y-162901D01*
X3749673Y-160667D01*
X3945238Y-117311D01*
X3946395Y-117062D01*
X4155735Y-73168D01*
X4165116Y-71569D01*
X4363234Y-45486D01*
X4576580Y-18892D01*
X4586620Y-18049D01*
X4782375Y-9501D01*
X4992831Y-796D01*
X4997390Y-608D01*
X5002596Y-500D01*
X64997404Y-500D01*
X65002610Y-608D01*
G37*
%TD.AperFunction*%
%TA.AperFunction,Conductor*%
G36*
X7937000Y-34216881D02*
G01*
X7983119Y-34263000D01*
X8000000Y-34326000D01*
X8000000Y-35947810D01*
X7990409Y-35996028D01*
X7963095Y-36036905D01*
X7436905Y-36563095D01*
X7396028Y-36590409D01*
X7347810Y-36600000D01*
X5852190Y-36600000D01*
X5803972Y-36590409D01*
X5763095Y-36563095D01*
X5679063Y-36479063D01*
X5651749Y-36438186D01*
X5609591Y-36336408D01*
X5600000Y-36288190D01*
X5600000Y-36060500D01*
X5616881Y-35997500D01*
X5663000Y-35951381D01*
X5726000Y-35934500D01*
X6220272Y-35934500D01*
X6223941Y-35934500D01*
X6355184Y-35919160D01*
X6520924Y-35858836D01*
X6668285Y-35761915D01*
X6789322Y-35633623D01*
X6812374Y-35593695D01*
X6832388Y-35567611D01*
X7000000Y-35400000D01*
X7000000Y-34326000D01*
X7016881Y-34263000D01*
X7063000Y-34216881D01*
X7126000Y-34200000D01*
X7874000Y-34200000D01*
X7937000Y-34216881D01*
G37*
%TD.AperFunction*%
%TA.AperFunction,Conductor*%
G36*
X29437000Y-52016881D02*
G01*
X29483119Y-52063000D01*
X29500000Y-52126000D01*
X29500000Y-56374000D01*
X29483119Y-56437000D01*
X29437000Y-56483119D01*
X29374000Y-56500000D01*
X27932190Y-56500000D01*
X27883972Y-56490409D01*
X27843095Y-56463095D01*
X27086905Y-55706905D01*
X27059591Y-55666028D01*
X27050000Y-55617810D01*
X27050000Y-52502190D01*
X27059591Y-52453972D01*
X27086905Y-52413095D01*
X27463095Y-52036905D01*
X27503972Y-52009591D01*
X27552190Y-52000000D01*
X29374000Y-52000000D01*
X29437000Y-52016881D01*
G37*
%TD.AperFunction*%
%TA.AperFunction,Conductor*%
G36*
X8696028Y-40859591D02*
G01*
X8736905Y-40886905D01*
X9034990Y-41184990D01*
X9062304Y-41225867D01*
X9112484Y-41347013D01*
X9112485Y-41347016D01*
X9115645Y-41354643D01*
X9204526Y-41470474D01*
X9320357Y-41559355D01*
X9455246Y-41615228D01*
X9600000Y-41634285D01*
X9608188Y-41633207D01*
X9657554Y-41626708D01*
X9727250Y-41637435D01*
X9780267Y-41683930D01*
X9800000Y-41751630D01*
X9800000Y-42925000D01*
X9808774Y-42933774D01*
X9808775Y-42933775D01*
X10138095Y-43263095D01*
X10165409Y-43303972D01*
X10175000Y-43352190D01*
X10175000Y-43899000D01*
X10158119Y-43962000D01*
X10112000Y-44008119D01*
X10049000Y-44025000D01*
X8385500Y-44025000D01*
X8322500Y-44008119D01*
X8276381Y-43962000D01*
X8259500Y-43899000D01*
X8259500Y-43855282D01*
X8259500Y-43852190D01*
X8254514Y-43801565D01*
X8244923Y-43753347D01*
X8230155Y-43704664D01*
X8206173Y-43659798D01*
X8178859Y-43618921D01*
X8146589Y-43579601D01*
X7896405Y-43329417D01*
X7869091Y-43288540D01*
X7859500Y-43240322D01*
X7859500Y-43119766D01*
X7859500Y-43117186D01*
X7856034Y-43074913D01*
X7849347Y-43034412D01*
X7822175Y-42954364D01*
X7802827Y-42918164D01*
X7801431Y-42915999D01*
X7800126Y-42913781D01*
X7800325Y-42913663D01*
X7791550Y-42896918D01*
X7768940Y-42842334D01*
X7760427Y-42810566D01*
X7754618Y-42766437D01*
X7754618Y-42733561D01*
X7761514Y-42681173D01*
X7765000Y-42664020D01*
X7779316Y-42612293D01*
X7788300Y-42551724D01*
X7789858Y-42488214D01*
X7775939Y-42426228D01*
X7755311Y-42368576D01*
X7726747Y-42311828D01*
X7705592Y-42287304D01*
X7682896Y-42248905D01*
X7675000Y-42205004D01*
X7675000Y-41127190D01*
X7684591Y-41078972D01*
X7711905Y-41038095D01*
X7863095Y-40886905D01*
X7903972Y-40859591D01*
X7952190Y-40850000D01*
X8647810Y-40850000D01*
X8696028Y-40859591D01*
G37*
%TD.AperFunction*%
%TA.AperFunction,Conductor*%
G36*
X17437000Y-50016881D02*
G01*
X17483119Y-50063000D01*
X17500000Y-50126000D01*
X17500000Y-52874000D01*
X17483119Y-52937000D01*
X17437000Y-52983119D01*
X17374000Y-53000000D01*
X14126000Y-53000000D01*
X14063000Y-52983119D01*
X14016881Y-52937000D01*
X14000000Y-52874000D01*
X14000000Y-50126000D01*
X14016881Y-50063000D01*
X14063000Y-50016881D01*
X14126000Y-50000000D01*
X17374000Y-50000000D01*
X17437000Y-50016881D01*
G37*
%TD.AperFunction*%
%TA.AperFunction,Conductor*%
G36*
X63688000Y-30766613D02*
G01*
X63733387Y-30812000D01*
X63750000Y-30874000D01*
X63750000Y-31748918D01*
X63740561Y-31796371D01*
X63713681Y-31836599D01*
X63086599Y-32463681D01*
X63046371Y-32490561D01*
X62998918Y-32500000D01*
X61751081Y-32500000D01*
X61703628Y-32490561D01*
X61663400Y-32463681D01*
X61536319Y-32336600D01*
X61509439Y-32296372D01*
X61500000Y-32248919D01*
X61500000Y-30874000D01*
X61516613Y-30812000D01*
X61562000Y-30766613D01*
X61624000Y-30750000D01*
X63626000Y-30750000D01*
X63688000Y-30766613D01*
G37*
%TD.AperFunction*%
%TA.AperFunction,Conductor*%
G36*
X13437000Y-52516881D02*
G01*
X13483119Y-52563000D01*
X13500000Y-52626000D01*
X13500000Y-53500000D01*
X17374000Y-53500000D01*
X17437000Y-53516881D01*
X17483119Y-53563000D01*
X17500000Y-53626000D01*
X17500000Y-54874000D01*
X17483119Y-54937000D01*
X17437000Y-54983119D01*
X17374000Y-55000000D01*
X12126000Y-55000000D01*
X12063000Y-54983119D01*
X12016881Y-54937000D01*
X12000000Y-54874000D01*
X12000000Y-52626000D01*
X12016881Y-52563000D01*
X12063000Y-52516881D01*
X12126000Y-52500000D01*
X13374000Y-52500000D01*
X13437000Y-52516881D01*
G37*
%TD.AperFunction*%
%TA.AperFunction,Conductor*%
G36*
X56938000Y-9516613D02*
G01*
X56983387Y-9562000D01*
X57000000Y-9624000D01*
X57000000Y-10376000D01*
X56983387Y-10438000D01*
X56938000Y-10483387D01*
X56876000Y-10500000D01*
X55378500Y-10500000D01*
X55316500Y-10483387D01*
X55271113Y-10438000D01*
X55254500Y-10376000D01*
X55254500Y-9760333D01*
X55263939Y-9712880D01*
X55290819Y-9672652D01*
X55427152Y-9536319D01*
X55467380Y-9509439D01*
X55514833Y-9500000D01*
X56876000Y-9500000D01*
X56938000Y-9516613D01*
G37*
%TD.AperFunction*%
%TA.AperFunction,Conductor*%
G36*
X7465611Y-42414878D02*
G01*
X7510980Y-42455998D01*
X7531608Y-42513650D01*
X7522624Y-42574219D01*
X7512930Y-42597620D01*
X7512928Y-42597625D01*
X7509772Y-42605246D01*
X7490715Y-42750000D01*
X7491793Y-42758188D01*
X7508693Y-42886565D01*
X7508694Y-42886571D01*
X7509772Y-42894754D01*
X7512931Y-42902382D01*
X7512932Y-42902383D01*
X7562484Y-43022013D01*
X7562485Y-43022016D01*
X7565645Y-43029643D01*
X7573965Y-43040485D01*
X7593313Y-43076685D01*
X7600000Y-43117186D01*
X7600000Y-43400000D01*
X7608775Y-43408775D01*
X7963095Y-43763095D01*
X7990409Y-43803972D01*
X8000000Y-43852190D01*
X8000000Y-45074000D01*
X7983119Y-45137000D01*
X7937000Y-45183119D01*
X7874000Y-45200000D01*
X7052190Y-45200000D01*
X7003972Y-45190409D01*
X6963095Y-45163095D01*
X6836905Y-45036905D01*
X6809591Y-44996028D01*
X6800000Y-44947810D01*
X6800000Y-44288889D01*
X6816881Y-44225889D01*
X6831933Y-44199818D01*
X6877510Y-44120876D01*
X6928095Y-43951909D01*
X6938351Y-43775831D01*
X6907723Y-43602134D01*
X6837864Y-43440182D01*
X6814482Y-43408775D01*
X6736918Y-43304588D01*
X6736917Y-43304587D01*
X6732539Y-43298706D01*
X6621737Y-43205732D01*
X6603050Y-43190051D01*
X6603048Y-43190049D01*
X6597427Y-43185333D01*
X6439811Y-43106176D01*
X6432674Y-43104484D01*
X6432662Y-43104480D01*
X6299433Y-43072904D01*
X6239396Y-43039396D01*
X5836905Y-42636905D01*
X5809591Y-42596028D01*
X5800000Y-42547810D01*
X5800000Y-42526000D01*
X5816881Y-42463000D01*
X5863000Y-42416881D01*
X5926000Y-42400000D01*
X7406215Y-42400000D01*
X7465611Y-42414878D01*
G37*
%TD.AperFunction*%
%TA.AperFunction,Conductor*%
G36*
X56938000Y-8016613D02*
G01*
X56983387Y-8062000D01*
X57000000Y-8124000D01*
X57000000Y-8876000D01*
X56983387Y-8938000D01*
X56938000Y-8983387D01*
X56876000Y-9000000D01*
X55374000Y-9000000D01*
X55312000Y-8983387D01*
X55266613Y-8938000D01*
X55250000Y-8876000D01*
X55250000Y-8124000D01*
X55266613Y-8062000D01*
X55312000Y-8016613D01*
X55374000Y-8000000D01*
X56876000Y-8000000D01*
X56938000Y-8016613D01*
G37*
%TD.AperFunction*%
%TA.AperFunction,Conductor*%
G36*
X13996028Y-57009591D02*
G01*
X14036905Y-57036905D01*
X14463095Y-57463095D01*
X14490409Y-57503972D01*
X14500000Y-57552190D01*
X14500000Y-60947810D01*
X14490409Y-60996028D01*
X14463095Y-61036905D01*
X14036905Y-61463095D01*
X13996028Y-61490409D01*
X13947810Y-61500000D01*
X11552190Y-61500000D01*
X11503972Y-61490409D01*
X11463095Y-61463095D01*
X11036905Y-61036905D01*
X11009591Y-60996028D01*
X11000000Y-60947810D01*
X11000000Y-57552190D01*
X11009591Y-57503972D01*
X11036905Y-57463095D01*
X11463095Y-57036905D01*
X11503972Y-57009591D01*
X11552190Y-57000000D01*
X13947810Y-57000000D01*
X13996028Y-57009591D01*
G37*
%TD.AperFunction*%
%TA.AperFunction,Conductor*%
G36*
X9187000Y-30401381D02*
G01*
X9233119Y-30447500D01*
X9250000Y-30510500D01*
X9250000Y-31374000D01*
X9233119Y-31437000D01*
X9187000Y-31483119D01*
X9124000Y-31500000D01*
X6376000Y-31500000D01*
X6313000Y-31483119D01*
X6266881Y-31437000D01*
X6250000Y-31374000D01*
X6250000Y-30510500D01*
X6266881Y-30447500D01*
X6313000Y-30401381D01*
X6376000Y-30384500D01*
X9124000Y-30384500D01*
X9187000Y-30401381D01*
G37*
%TD.AperFunction*%
%TA.AperFunction,Conductor*%
G36*
X11203788Y-33766881D02*
G01*
X11249907Y-33813000D01*
X11266788Y-33876000D01*
X11266788Y-34874000D01*
X11249907Y-34937000D01*
X11203788Y-34983119D01*
X11140788Y-35000000D01*
X9876000Y-35000000D01*
X9813000Y-34983119D01*
X9766881Y-34937000D01*
X9750000Y-34874000D01*
X9750000Y-33876000D01*
X9766881Y-33813000D01*
X9813000Y-33766881D01*
X9876000Y-33750000D01*
X11140788Y-33750000D01*
X11203788Y-33766881D01*
G37*
%TD.AperFunction*%
%TA.AperFunction,Conductor*%
G36*
X57437000Y-57516881D02*
G01*
X57483119Y-57563000D01*
X57500000Y-57626000D01*
X57500000Y-66972000D01*
X57483119Y-67035000D01*
X57437000Y-67081119D01*
X57374000Y-67098000D01*
X57355000Y-67098000D01*
X57292000Y-67081119D01*
X57245881Y-67035000D01*
X57229000Y-66972000D01*
X57229000Y-66316590D01*
X57225493Y-66303506D01*
X57212410Y-66300000D01*
X55412591Y-66300000D01*
X55399507Y-66303506D01*
X55396001Y-66316590D01*
X55396001Y-66972000D01*
X55379120Y-67035000D01*
X55333001Y-67081119D01*
X55270001Y-67098000D01*
X55126000Y-67098000D01*
X55063000Y-67081119D01*
X55016881Y-67035000D01*
X55000000Y-66972000D01*
X55000000Y-65783410D01*
X55396000Y-65783410D01*
X55399506Y-65796493D01*
X55412590Y-65800000D01*
X56045910Y-65800000D01*
X56058993Y-65796493D01*
X56062500Y-65783410D01*
X56562500Y-65783410D01*
X56566006Y-65796493D01*
X56579090Y-65800000D01*
X57212409Y-65800000D01*
X57225492Y-65796493D01*
X57228999Y-65783410D01*
X57228999Y-65080160D01*
X57228638Y-65073435D01*
X57223389Y-65024606D01*
X57219790Y-65009375D01*
X57175050Y-64889424D01*
X57166496Y-64873757D01*
X57090445Y-64772164D01*
X57077835Y-64759554D01*
X56976242Y-64683503D01*
X56960575Y-64674949D01*
X56840626Y-64630210D01*
X56825391Y-64626609D01*
X56776561Y-64621360D01*
X56769842Y-64621000D01*
X56579090Y-64621000D01*
X56566006Y-64624506D01*
X56562500Y-64637590D01*
X56562500Y-65783410D01*
X56062500Y-65783410D01*
X56062500Y-64637591D01*
X56058993Y-64624507D01*
X56045910Y-64621001D01*
X55855160Y-64621001D01*
X55848435Y-64621361D01*
X55799606Y-64626610D01*
X55784375Y-64630209D01*
X55664424Y-64674949D01*
X55648757Y-64683503D01*
X55547164Y-64759554D01*
X55534554Y-64772164D01*
X55458503Y-64873757D01*
X55449949Y-64889424D01*
X55405210Y-65009373D01*
X55401609Y-65024608D01*
X55396360Y-65073438D01*
X55396000Y-65080158D01*
X55396000Y-65783410D01*
X55000000Y-65783410D01*
X55000000Y-63607340D01*
X55383501Y-63607340D01*
X55383861Y-63614064D01*
X55389110Y-63662893D01*
X55392709Y-63678124D01*
X55437449Y-63798075D01*
X55446003Y-63813742D01*
X55522054Y-63915335D01*
X55534664Y-63927945D01*
X55636257Y-64003996D01*
X55651924Y-64012550D01*
X55771873Y-64057289D01*
X55787108Y-64060890D01*
X55835938Y-64066139D01*
X55842658Y-64066500D01*
X56033410Y-64066500D01*
X56046493Y-64062993D01*
X56050000Y-64049910D01*
X56050000Y-64049909D01*
X56550000Y-64049909D01*
X56553506Y-64062992D01*
X56566590Y-64066499D01*
X56757340Y-64066499D01*
X56764064Y-64066138D01*
X56812893Y-64060889D01*
X56828124Y-64057290D01*
X56948075Y-64012550D01*
X56963742Y-64003996D01*
X57065335Y-63927945D01*
X57077945Y-63915335D01*
X57153996Y-63813742D01*
X57162550Y-63798075D01*
X57207289Y-63678126D01*
X57210890Y-63662891D01*
X57216139Y-63614061D01*
X57216500Y-63607342D01*
X57216500Y-62904090D01*
X57212993Y-62891006D01*
X57199910Y-62887500D01*
X56566590Y-62887500D01*
X56553506Y-62891006D01*
X56550000Y-62904090D01*
X56550000Y-64049909D01*
X56050000Y-64049909D01*
X56050000Y-62904090D01*
X56046493Y-62891006D01*
X56033410Y-62887500D01*
X55400091Y-62887500D01*
X55387007Y-62891006D01*
X55383501Y-62904090D01*
X55383501Y-63607340D01*
X55000000Y-63607340D01*
X55000000Y-62370910D01*
X55383500Y-62370910D01*
X55387006Y-62383993D01*
X55400090Y-62387500D01*
X56033410Y-62387500D01*
X56046493Y-62383993D01*
X56050000Y-62370910D01*
X56550000Y-62370910D01*
X56553506Y-62383993D01*
X56566590Y-62387500D01*
X57199909Y-62387500D01*
X57212992Y-62383993D01*
X57216499Y-62370910D01*
X57216499Y-61667660D01*
X57216138Y-61660935D01*
X57210889Y-61612106D01*
X57207290Y-61596875D01*
X57162550Y-61476924D01*
X57153996Y-61461257D01*
X57077945Y-61359664D01*
X57065335Y-61347054D01*
X56963742Y-61271003D01*
X56948075Y-61262449D01*
X56828126Y-61217710D01*
X56812891Y-61214109D01*
X56764061Y-61208860D01*
X56757342Y-61208500D01*
X56566590Y-61208500D01*
X56553506Y-61212006D01*
X56550000Y-61225090D01*
X56550000Y-62370910D01*
X56050000Y-62370910D01*
X56050000Y-61225091D01*
X56046493Y-61212007D01*
X56033410Y-61208501D01*
X55842660Y-61208501D01*
X55835935Y-61208861D01*
X55787106Y-61214110D01*
X55771875Y-61217709D01*
X55651924Y-61262449D01*
X55636257Y-61271003D01*
X55534664Y-61347054D01*
X55522054Y-61359664D01*
X55446003Y-61461257D01*
X55437449Y-61476924D01*
X55392710Y-61596873D01*
X55389109Y-61612108D01*
X55383860Y-61660938D01*
X55383500Y-61667658D01*
X55383500Y-62370910D01*
X55000000Y-62370910D01*
X55000000Y-60219840D01*
X55371001Y-60219840D01*
X55371361Y-60226564D01*
X55376610Y-60275393D01*
X55380209Y-60290624D01*
X55424949Y-60410575D01*
X55433503Y-60426242D01*
X55509554Y-60527835D01*
X55522164Y-60540445D01*
X55623757Y-60616496D01*
X55639424Y-60625050D01*
X55759373Y-60669789D01*
X55774608Y-60673390D01*
X55823438Y-60678639D01*
X55830158Y-60679000D01*
X56020910Y-60679000D01*
X56033993Y-60675493D01*
X56037500Y-60662410D01*
X56037500Y-60662409D01*
X56537500Y-60662409D01*
X56541006Y-60675492D01*
X56554090Y-60678999D01*
X56744840Y-60678999D01*
X56751564Y-60678638D01*
X56800393Y-60673389D01*
X56815624Y-60669790D01*
X56935575Y-60625050D01*
X56951242Y-60616496D01*
X57052835Y-60540445D01*
X57065445Y-60527835D01*
X57141496Y-60426242D01*
X57150050Y-60410575D01*
X57194789Y-60290626D01*
X57198390Y-60275391D01*
X57203639Y-60226561D01*
X57204000Y-60219842D01*
X57204000Y-59516590D01*
X57200493Y-59503506D01*
X57187410Y-59500000D01*
X56554090Y-59500000D01*
X56541006Y-59503506D01*
X56537500Y-59516590D01*
X56537500Y-60662409D01*
X56037500Y-60662409D01*
X56037500Y-59516590D01*
X56033993Y-59503506D01*
X56020910Y-59500000D01*
X55387591Y-59500000D01*
X55374507Y-59503506D01*
X55371001Y-59516590D01*
X55371001Y-60219840D01*
X55000000Y-60219840D01*
X55000000Y-58983410D01*
X55371000Y-58983410D01*
X55374506Y-58996493D01*
X55387590Y-59000000D01*
X56020910Y-59000000D01*
X56033993Y-58996493D01*
X56037500Y-58983410D01*
X56537500Y-58983410D01*
X56541006Y-58996493D01*
X56554090Y-59000000D01*
X57187409Y-59000000D01*
X57200492Y-58996493D01*
X57203999Y-58983410D01*
X57203999Y-58280160D01*
X57203638Y-58273435D01*
X57198389Y-58224606D01*
X57194790Y-58209375D01*
X57150050Y-58089424D01*
X57141496Y-58073757D01*
X57065445Y-57972164D01*
X57052835Y-57959554D01*
X56951242Y-57883503D01*
X56935575Y-57874949D01*
X56815626Y-57830210D01*
X56800391Y-57826609D01*
X56751561Y-57821360D01*
X56744842Y-57821000D01*
X56554090Y-57821000D01*
X56541006Y-57824506D01*
X56537500Y-57837590D01*
X56537500Y-58983410D01*
X56037500Y-58983410D01*
X56037500Y-57837591D01*
X56033993Y-57824507D01*
X56020910Y-57821001D01*
X55830160Y-57821001D01*
X55823435Y-57821361D01*
X55774606Y-57826610D01*
X55759375Y-57830209D01*
X55639424Y-57874949D01*
X55623757Y-57883503D01*
X55522164Y-57959554D01*
X55509554Y-57972164D01*
X55433503Y-58073757D01*
X55424949Y-58089424D01*
X55380210Y-58209373D01*
X55376609Y-58224608D01*
X55371360Y-58273438D01*
X55371000Y-58280158D01*
X55371000Y-58983410D01*
X55000000Y-58983410D01*
X55000000Y-57626000D01*
X55016881Y-57563000D01*
X55063000Y-57516881D01*
X55126000Y-57500000D01*
X57374000Y-57500000D01*
X57437000Y-57516881D01*
G37*
%TD.AperFunction*%
%TA.AperFunction,Conductor*%
G36*
X33437000Y-62016881D02*
G01*
X33483119Y-62063000D01*
X33500000Y-62126000D01*
X33500000Y-63874000D01*
X33483119Y-63937000D01*
X33437000Y-63983119D01*
X33374000Y-64000000D01*
X29626000Y-64000000D01*
X29563000Y-63983119D01*
X29516881Y-63937000D01*
X29500000Y-63874000D01*
X29500000Y-62126000D01*
X29516881Y-62063000D01*
X29563000Y-62016881D01*
X29626000Y-62000000D01*
X33374000Y-62000000D01*
X33437000Y-62016881D01*
G37*
%TD.AperFunction*%
%TA.AperFunction,Conductor*%
G36*
X60910500Y-54243263D02*
G01*
X60946737Y-54279500D01*
X60960000Y-54329000D01*
X60960000Y-55411967D01*
X60962754Y-55422245D01*
X60973033Y-55425000D01*
X61046000Y-55425000D01*
X61095500Y-55438263D01*
X61131737Y-55474500D01*
X61145000Y-55524000D01*
X61145000Y-56468853D01*
X61143476Y-56468853D01*
X61143476Y-56481145D01*
X61145000Y-56481145D01*
X61145000Y-57456373D01*
X61146679Y-57462925D01*
X61146679Y-57512075D01*
X61145000Y-57518627D01*
X61145000Y-58436967D01*
X61149583Y-58454073D01*
X61162464Y-58473351D01*
X61170000Y-58511237D01*
X61170000Y-59471657D01*
X61162936Y-59508382D01*
X61161022Y-59513172D01*
X61161019Y-59513180D01*
X61159847Y-59516115D01*
X61159061Y-59519162D01*
X61159057Y-59519177D01*
X61144731Y-59574775D01*
X61144728Y-59574788D01*
X61143945Y-59577829D01*
X61143555Y-59580949D01*
X61143553Y-59580960D01*
X61136132Y-59640344D01*
X61135739Y-59643490D01*
X61135750Y-59646661D01*
X61135750Y-59646664D01*
X61140049Y-60872110D01*
X61140049Y-60872119D01*
X61140061Y-60875352D01*
X61140493Y-60878560D01*
X61140494Y-60878562D01*
X61148665Y-60939133D01*
X61148667Y-60939145D01*
X61149098Y-60942336D01*
X61149942Y-60945449D01*
X61165280Y-61002034D01*
X61165282Y-61002042D01*
X61166125Y-61005149D01*
X61167367Y-61008125D01*
X61167370Y-61008134D01*
X61189660Y-61061549D01*
X61192156Y-61067530D01*
X61196107Y-61072658D01*
X61196110Y-61072662D01*
X61231433Y-61118501D01*
X61231439Y-61118508D01*
X61233415Y-61121072D01*
X61279515Y-61167010D01*
X61333200Y-61208079D01*
X61339188Y-61210553D01*
X61344794Y-61213781D01*
X61344199Y-61214814D01*
X61383292Y-61246855D01*
X61400000Y-61301892D01*
X61400000Y-66517326D01*
X61391196Y-66558138D01*
X61366351Y-66591691D01*
X60570795Y-67290817D01*
X60365755Y-67471004D01*
X60360792Y-67475365D01*
X60330361Y-67493637D01*
X60295441Y-67500000D01*
X60147312Y-67500000D01*
X60089271Y-67481201D01*
X60053273Y-67431945D01*
X60052987Y-67370936D01*
X60088524Y-67321345D01*
X60115817Y-67301201D01*
X60126201Y-67290817D01*
X60197938Y-67193617D01*
X60204796Y-67180642D01*
X60245159Y-67065290D01*
X60247711Y-67053607D01*
X60249784Y-67031499D01*
X60250000Y-67026892D01*
X60250000Y-66313033D01*
X60247245Y-66302754D01*
X60236967Y-66300000D01*
X58538034Y-66300000D01*
X58527755Y-66302754D01*
X58525001Y-66313033D01*
X58525001Y-67026888D01*
X58525216Y-67031504D01*
X58527288Y-67053608D01*
X58529839Y-67065288D01*
X58570203Y-67180642D01*
X58577061Y-67193617D01*
X58648798Y-67290817D01*
X58659182Y-67301201D01*
X58686476Y-67321345D01*
X58722013Y-67370936D01*
X58721727Y-67431945D01*
X58685729Y-67481201D01*
X58627688Y-67500000D01*
X58291008Y-67500000D01*
X58253122Y-67492464D01*
X58221004Y-67471004D01*
X57788496Y-67038496D01*
X57767036Y-67006378D01*
X57759500Y-66968492D01*
X57759500Y-65786967D01*
X58525000Y-65786967D01*
X58527754Y-65797245D01*
X58538033Y-65800000D01*
X59124467Y-65800000D01*
X59134745Y-65797245D01*
X59137500Y-65786967D01*
X59637500Y-65786967D01*
X59640254Y-65797245D01*
X59650533Y-65800000D01*
X60236966Y-65800000D01*
X60247244Y-65797245D01*
X60249999Y-65786967D01*
X60249999Y-65073112D01*
X60249783Y-65068495D01*
X60247711Y-65046391D01*
X60245160Y-65034711D01*
X60204796Y-64919357D01*
X60197938Y-64906382D01*
X60126201Y-64809182D01*
X60115817Y-64798798D01*
X60018617Y-64727061D01*
X60005642Y-64720203D01*
X59890290Y-64679840D01*
X59878607Y-64677288D01*
X59856499Y-64675215D01*
X59851892Y-64675000D01*
X59650533Y-64675000D01*
X59640254Y-64677754D01*
X59637500Y-64688033D01*
X59637500Y-65786967D01*
X59137500Y-65786967D01*
X59137500Y-64688034D01*
X59134745Y-64677755D01*
X59124467Y-64675001D01*
X58923112Y-64675001D01*
X58918495Y-64675216D01*
X58896391Y-64677288D01*
X58884711Y-64679839D01*
X58769357Y-64720203D01*
X58756382Y-64727061D01*
X58659182Y-64798798D01*
X58648798Y-64809182D01*
X58577061Y-64906382D01*
X58570203Y-64919357D01*
X58529840Y-65034709D01*
X58527288Y-65046392D01*
X58525215Y-65068500D01*
X58525000Y-65073108D01*
X58525000Y-65786967D01*
X57759500Y-65786967D01*
X57759500Y-63614388D01*
X58512501Y-63614388D01*
X58512716Y-63619004D01*
X58514788Y-63641108D01*
X58517339Y-63652788D01*
X58557703Y-63768142D01*
X58564561Y-63781117D01*
X58636298Y-63878317D01*
X58646682Y-63888701D01*
X58743882Y-63960438D01*
X58756857Y-63967296D01*
X58872209Y-64007659D01*
X58883892Y-64010211D01*
X58906000Y-64012284D01*
X58910608Y-64012500D01*
X59111967Y-64012500D01*
X59122245Y-64009745D01*
X59125000Y-63999467D01*
X59125000Y-63999466D01*
X59625000Y-63999466D01*
X59627754Y-64009744D01*
X59638033Y-64012499D01*
X59839388Y-64012499D01*
X59844004Y-64012283D01*
X59866108Y-64010211D01*
X59877788Y-64007660D01*
X59993142Y-63967296D01*
X60006117Y-63960438D01*
X60103317Y-63888701D01*
X60113701Y-63878317D01*
X60185438Y-63781117D01*
X60192296Y-63768142D01*
X60232659Y-63652790D01*
X60235211Y-63641107D01*
X60237284Y-63618999D01*
X60237500Y-63614392D01*
X60237500Y-62900533D01*
X60234745Y-62890254D01*
X60224467Y-62887500D01*
X59638033Y-62887500D01*
X59627754Y-62890254D01*
X59625000Y-62900533D01*
X59625000Y-63999466D01*
X59125000Y-63999466D01*
X59125000Y-62900533D01*
X59122245Y-62890254D01*
X59111967Y-62887500D01*
X58525534Y-62887500D01*
X58515255Y-62890254D01*
X58512501Y-62900533D01*
X58512501Y-63614388D01*
X57759500Y-63614388D01*
X57759500Y-62374467D01*
X58512500Y-62374467D01*
X58515254Y-62384745D01*
X58525533Y-62387500D01*
X59111967Y-62387500D01*
X59122245Y-62384745D01*
X59125000Y-62374467D01*
X59625000Y-62374467D01*
X59627754Y-62384745D01*
X59638033Y-62387500D01*
X60224466Y-62387500D01*
X60234744Y-62384745D01*
X60237499Y-62374467D01*
X60237499Y-61660612D01*
X60237283Y-61655995D01*
X60235211Y-61633891D01*
X60232660Y-61622211D01*
X60192296Y-61506857D01*
X60185438Y-61493882D01*
X60113701Y-61396682D01*
X60103317Y-61386298D01*
X60006117Y-61314561D01*
X59993142Y-61307703D01*
X59877790Y-61267340D01*
X59866107Y-61264788D01*
X59843999Y-61262715D01*
X59839392Y-61262500D01*
X59638033Y-61262500D01*
X59627754Y-61265254D01*
X59625000Y-61275533D01*
X59625000Y-62374467D01*
X59125000Y-62374467D01*
X59125000Y-61275534D01*
X59122245Y-61265255D01*
X59111967Y-61262501D01*
X58910612Y-61262501D01*
X58905995Y-61262716D01*
X58883891Y-61264788D01*
X58872211Y-61267339D01*
X58756857Y-61307703D01*
X58743882Y-61314561D01*
X58646682Y-61386298D01*
X58636298Y-61396682D01*
X58564561Y-61493882D01*
X58557703Y-61506857D01*
X58517340Y-61622209D01*
X58514788Y-61633892D01*
X58512715Y-61656000D01*
X58512500Y-61660608D01*
X58512500Y-62374467D01*
X57759500Y-62374467D01*
X57759500Y-60226888D01*
X58500001Y-60226888D01*
X58500216Y-60231504D01*
X58502288Y-60253608D01*
X58504839Y-60265288D01*
X58545203Y-60380642D01*
X58552061Y-60393617D01*
X58623798Y-60490817D01*
X58634182Y-60501201D01*
X58731382Y-60572938D01*
X58744357Y-60579796D01*
X58859709Y-60620159D01*
X58871392Y-60622711D01*
X58893500Y-60624784D01*
X58898108Y-60625000D01*
X59099467Y-60625000D01*
X59109745Y-60622245D01*
X59112500Y-60611967D01*
X59112500Y-60611966D01*
X59612500Y-60611966D01*
X59615254Y-60622244D01*
X59625533Y-60624999D01*
X59826888Y-60624999D01*
X59831504Y-60624783D01*
X59853608Y-60622711D01*
X59865288Y-60620160D01*
X59980642Y-60579796D01*
X59993617Y-60572938D01*
X60090817Y-60501201D01*
X60101201Y-60490817D01*
X60172938Y-60393617D01*
X60179796Y-60380642D01*
X60220159Y-60265290D01*
X60222711Y-60253607D01*
X60224784Y-60231499D01*
X60225000Y-60226892D01*
X60225000Y-59513033D01*
X60222245Y-59502754D01*
X60211967Y-59500000D01*
X59625533Y-59500000D01*
X59615254Y-59502754D01*
X59612500Y-59513033D01*
X59612500Y-60611966D01*
X59112500Y-60611966D01*
X59112500Y-59513033D01*
X59109745Y-59502754D01*
X59099467Y-59500000D01*
X58513034Y-59500000D01*
X58502755Y-59502754D01*
X58500001Y-59513033D01*
X58500001Y-60226888D01*
X57759500Y-60226888D01*
X57759500Y-59259646D01*
X60447804Y-59259646D01*
X60449721Y-59266222D01*
X60493531Y-59360173D01*
X60503314Y-59374146D01*
X60575852Y-59446684D01*
X60589824Y-59456467D01*
X60658685Y-59488577D01*
X60667717Y-59490272D01*
X60670000Y-59481368D01*
X60670000Y-59263033D01*
X60667245Y-59252754D01*
X60656967Y-59250000D01*
X60459423Y-59250000D01*
X60448812Y-59253092D01*
X60447804Y-59259646D01*
X57759500Y-59259646D01*
X57759500Y-58986967D01*
X58500000Y-58986967D01*
X58502754Y-58997245D01*
X58513033Y-59000000D01*
X59099467Y-59000000D01*
X59109745Y-58997245D01*
X59112500Y-58986967D01*
X59612500Y-58986967D01*
X59615254Y-58997245D01*
X59625533Y-59000000D01*
X60211966Y-59000000D01*
X60222244Y-58997245D01*
X60224999Y-58986967D01*
X60224999Y-58274452D01*
X60226263Y-58270147D01*
X60224536Y-58265859D01*
X60223954Y-58259646D01*
X60422803Y-58259646D01*
X60424721Y-58266222D01*
X60468531Y-58360173D01*
X60478314Y-58374146D01*
X60546664Y-58442496D01*
X60572287Y-58486877D01*
X60572287Y-58538123D01*
X60546664Y-58582504D01*
X60503314Y-58625853D01*
X60493531Y-58639826D01*
X60449721Y-58733777D01*
X60447804Y-58740353D01*
X60448812Y-58746907D01*
X60459423Y-58750000D01*
X60656967Y-58750000D01*
X60667245Y-58747245D01*
X60670000Y-58736967D01*
X60670000Y-58563033D01*
X60665416Y-58545926D01*
X60652536Y-58526649D01*
X60645000Y-58488763D01*
X60645000Y-58263033D01*
X60642245Y-58252754D01*
X60631967Y-58250000D01*
X60434423Y-58250000D01*
X60423812Y-58253092D01*
X60422803Y-58259646D01*
X60223954Y-58259646D01*
X60222711Y-58246391D01*
X60220160Y-58234711D01*
X60179796Y-58119357D01*
X60172938Y-58106382D01*
X60101201Y-58009182D01*
X60090817Y-57998798D01*
X59993617Y-57927061D01*
X59980642Y-57920203D01*
X59865290Y-57879840D01*
X59853607Y-57877288D01*
X59831499Y-57875215D01*
X59826892Y-57875000D01*
X59625533Y-57875000D01*
X59615254Y-57877754D01*
X59612500Y-57888033D01*
X59612500Y-58986967D01*
X59112500Y-58986967D01*
X59112500Y-57888034D01*
X59109745Y-57877755D01*
X59099467Y-57875001D01*
X58898112Y-57875001D01*
X58893495Y-57875216D01*
X58871391Y-57877288D01*
X58859711Y-57879839D01*
X58744357Y-57920203D01*
X58731382Y-57927061D01*
X58634182Y-57998798D01*
X58623798Y-58009182D01*
X58552061Y-58106382D01*
X58545203Y-58119357D01*
X58504840Y-58234709D01*
X58502288Y-58246392D01*
X58500215Y-58268500D01*
X58500000Y-58273108D01*
X58500000Y-58986967D01*
X57759500Y-58986967D01*
X57759500Y-57740353D01*
X60422804Y-57740353D01*
X60423812Y-57746907D01*
X60434423Y-57750000D01*
X60631967Y-57750000D01*
X60642245Y-57747245D01*
X60645000Y-57736967D01*
X60645000Y-57518630D01*
X60643321Y-57512079D01*
X60643321Y-57462921D01*
X60645000Y-57456370D01*
X60645000Y-57238033D01*
X60642245Y-57227754D01*
X60631967Y-57225000D01*
X60434423Y-57225000D01*
X60423812Y-57228092D01*
X60422804Y-57234646D01*
X60424721Y-57241222D01*
X60468531Y-57335173D01*
X60478314Y-57349146D01*
X60546664Y-57417496D01*
X60572287Y-57461877D01*
X60572287Y-57513123D01*
X60546664Y-57557504D01*
X60478314Y-57625853D01*
X60468531Y-57639826D01*
X60424721Y-57733777D01*
X60422804Y-57740353D01*
X57759500Y-57740353D01*
X57759500Y-57629241D01*
X57759500Y-57626000D01*
X57750658Y-57558836D01*
X57733777Y-57495836D01*
X57707852Y-57433250D01*
X57703902Y-57428102D01*
X57703899Y-57428097D01*
X57699440Y-57422286D01*
X57680488Y-57379211D01*
X57683566Y-57332251D01*
X57707979Y-57292020D01*
X58066358Y-56933641D01*
X58117047Y-56906548D01*
X58174247Y-56912182D01*
X58218677Y-56948645D01*
X58235296Y-57003434D01*
X58234353Y-57010000D01*
X58235361Y-57017011D01*
X58253826Y-57145443D01*
X58253827Y-57145446D01*
X58254835Y-57152457D01*
X58257777Y-57158899D01*
X58257778Y-57158902D01*
X58311678Y-57276925D01*
X58314623Y-57283373D01*
X58319262Y-57288727D01*
X58319263Y-57288728D01*
X58333166Y-57304773D01*
X58408872Y-57392143D01*
X58414826Y-57395969D01*
X58414828Y-57395971D01*
X58472836Y-57433250D01*
X58529947Y-57469953D01*
X58668039Y-57510500D01*
X58804883Y-57510500D01*
X58811961Y-57510500D01*
X58950053Y-57469953D01*
X59071128Y-57392143D01*
X59165377Y-57283373D01*
X59225165Y-57152457D01*
X59245647Y-57010000D01*
X59225165Y-56867543D01*
X59165377Y-56736627D01*
X59102298Y-56663830D01*
X59079126Y-56613089D01*
X59087064Y-56557874D01*
X59123595Y-56515716D01*
X59177118Y-56500000D01*
X60366677Y-56500000D01*
X60414295Y-56512204D01*
X60450173Y-56545807D01*
X60465465Y-56592525D01*
X60456402Y-56640839D01*
X60424719Y-56708782D01*
X60422804Y-56715353D01*
X60423812Y-56721907D01*
X60434423Y-56725000D01*
X60631967Y-56725000D01*
X60642245Y-56722245D01*
X60645000Y-56711967D01*
X60645000Y-56481145D01*
X60646527Y-56481145D01*
X60646528Y-56468854D01*
X60645000Y-56468854D01*
X60645000Y-55493632D01*
X60642717Y-55484727D01*
X60633680Y-55486422D01*
X60613283Y-55495934D01*
X60554254Y-55503705D01*
X60501442Y-55476213D01*
X60500000Y-55474771D01*
X60500000Y-54252763D01*
X60509500Y-54243263D01*
X60559000Y-54230000D01*
X60861000Y-54230000D01*
X60910500Y-54243263D01*
G37*
%TD.AperFunction*%
%TA.AperFunction,Conductor*%
G36*
X62936500Y-52516881D02*
G01*
X62982619Y-52563000D01*
X62999500Y-52626000D01*
X62999500Y-52999500D01*
X62999500Y-53000000D01*
X62999500Y-53131120D01*
X62999832Y-53133649D01*
X63000000Y-53138748D01*
X63000000Y-56000000D01*
X63008775Y-56008774D01*
X63008775Y-56008775D01*
X63963095Y-56963095D01*
X63990409Y-57003972D01*
X64000000Y-57052190D01*
X64000000Y-60874000D01*
X63983119Y-60937000D01*
X63937000Y-60983119D01*
X63874000Y-61000000D01*
X61525558Y-61000000D01*
X61462686Y-60983193D01*
X61416586Y-60937255D01*
X61399559Y-60874442D01*
X61395237Y-59642580D01*
X61411139Y-59580866D01*
X61455212Y-59534826D01*
X61516178Y-59516245D01*
X61578438Y-59529876D01*
X61607898Y-59544887D01*
X61620850Y-59549095D01*
X61627615Y-59548696D01*
X61630000Y-59537827D01*
X62130000Y-59537827D01*
X62132384Y-59548696D01*
X62139149Y-59549095D01*
X62152102Y-59544886D01*
X62245641Y-59497226D01*
X62261485Y-59485714D01*
X62335714Y-59411485D01*
X62347226Y-59395641D01*
X62394885Y-59302103D01*
X62400937Y-59283477D01*
X62404103Y-59263489D01*
X62403448Y-59252384D01*
X62392582Y-59250000D01*
X62146590Y-59250000D01*
X62133506Y-59253506D01*
X62130000Y-59266590D01*
X62130000Y-59537827D01*
X61630000Y-59537827D01*
X61630000Y-58620590D01*
X61622649Y-58593159D01*
X61614591Y-58581099D01*
X61605000Y-58532881D01*
X61605000Y-58379410D01*
X62105000Y-58379410D01*
X62112350Y-58406840D01*
X62120409Y-58418901D01*
X62130000Y-58467119D01*
X62130000Y-58733410D01*
X62133506Y-58746493D01*
X62146590Y-58750000D01*
X62392582Y-58750000D01*
X62403448Y-58747615D01*
X62404103Y-58736510D01*
X62400937Y-58716522D01*
X62394885Y-58697896D01*
X62347226Y-58604358D01*
X62335714Y-58588514D01*
X62322833Y-58575633D01*
X62292094Y-58525472D01*
X62287480Y-58466822D01*
X62309997Y-58412471D01*
X62322227Y-58395639D01*
X62369885Y-58302103D01*
X62375937Y-58283477D01*
X62379103Y-58263489D01*
X62378448Y-58252384D01*
X62367582Y-58250000D01*
X62121590Y-58250000D01*
X62108506Y-58253506D01*
X62105000Y-58266590D01*
X62105000Y-58379410D01*
X61605000Y-58379410D01*
X61605000Y-57733410D01*
X62105000Y-57733410D01*
X62108506Y-57746493D01*
X62121590Y-57750000D01*
X62367582Y-57750000D01*
X62378448Y-57747615D01*
X62379103Y-57736510D01*
X62375937Y-57716522D01*
X62369885Y-57697896D01*
X62322226Y-57604358D01*
X62310714Y-57588514D01*
X62298795Y-57576595D01*
X62266183Y-57520111D01*
X62266183Y-57454889D01*
X62298795Y-57398405D01*
X62310714Y-57386485D01*
X62322226Y-57370641D01*
X62369885Y-57277103D01*
X62375937Y-57258477D01*
X62379103Y-57238489D01*
X62378448Y-57227384D01*
X62367582Y-57225000D01*
X62121590Y-57225000D01*
X62108506Y-57228506D01*
X62105000Y-57241590D01*
X62105000Y-57733410D01*
X61605000Y-57733410D01*
X61605000Y-56708410D01*
X62105000Y-56708410D01*
X62108506Y-56721493D01*
X62121590Y-56725000D01*
X62367582Y-56725000D01*
X62378448Y-56722615D01*
X62379103Y-56711510D01*
X62375937Y-56691522D01*
X62369885Y-56672896D01*
X62322226Y-56579358D01*
X62304887Y-56555494D01*
X62305902Y-56554755D01*
X62278683Y-56507611D01*
X62278683Y-56442389D01*
X62305902Y-56395244D01*
X62304887Y-56394506D01*
X62322226Y-56370641D01*
X62369885Y-56277103D01*
X62375937Y-56258477D01*
X62379103Y-56238489D01*
X62378448Y-56227384D01*
X62367582Y-56225000D01*
X62121590Y-56225000D01*
X62108506Y-56228506D01*
X62105000Y-56241590D01*
X62105000Y-56708410D01*
X61605000Y-56708410D01*
X61605000Y-55708410D01*
X62105000Y-55708410D01*
X62108506Y-55721493D01*
X62121590Y-55725000D01*
X62367582Y-55725000D01*
X62378448Y-55722615D01*
X62379103Y-55711510D01*
X62375937Y-55691522D01*
X62369885Y-55672896D01*
X62365826Y-55664928D01*
X62352107Y-55605850D01*
X62367578Y-55547207D01*
X62408655Y-55502585D01*
X62455416Y-55486011D01*
X62455016Y-55483999D01*
X62516930Y-55471684D01*
X62539426Y-55462366D01*
X62602808Y-55420016D01*
X62620016Y-55402808D01*
X62662367Y-55339425D01*
X62671684Y-55316933D01*
X62682792Y-55261085D01*
X62684000Y-55248830D01*
X62684000Y-54746590D01*
X62680493Y-54733506D01*
X62667410Y-54730000D01*
X62246590Y-54730000D01*
X62233506Y-54733506D01*
X62230000Y-54746590D01*
X62230000Y-55398268D01*
X62218195Y-55451518D01*
X62184991Y-55494789D01*
X62136611Y-55519975D01*
X62108506Y-55527505D01*
X62105000Y-55540590D01*
X62105000Y-55708410D01*
X61605000Y-55708410D01*
X61605000Y-55496732D01*
X61616805Y-55443482D01*
X61650009Y-55400211D01*
X61698389Y-55375025D01*
X61726493Y-55367494D01*
X61730000Y-55354410D01*
X61730000Y-54213410D01*
X62230000Y-54213410D01*
X62233506Y-54226493D01*
X62246590Y-54230000D01*
X62667409Y-54230000D01*
X62680492Y-54226493D01*
X62683999Y-54213410D01*
X62683999Y-53711172D01*
X62682791Y-53698912D01*
X62671684Y-53643069D01*
X62662366Y-53620573D01*
X62620016Y-53557191D01*
X62602808Y-53539983D01*
X62539425Y-53497632D01*
X62516933Y-53488315D01*
X62461085Y-53477207D01*
X62448830Y-53476000D01*
X62246590Y-53476000D01*
X62233506Y-53479506D01*
X62230000Y-53492590D01*
X62230000Y-54213410D01*
X61730000Y-54213410D01*
X61730000Y-53492591D01*
X61726493Y-53479507D01*
X61713410Y-53476001D01*
X61511172Y-53476001D01*
X61498912Y-53477208D01*
X61443069Y-53488315D01*
X61420571Y-53497633D01*
X61415448Y-53501057D01*
X61370027Y-53519870D01*
X61320864Y-53519868D01*
X61275445Y-53501053D01*
X61269621Y-53497161D01*
X61269618Y-53497159D01*
X61259301Y-53490266D01*
X61247131Y-53487845D01*
X61247128Y-53487844D01*
X61191135Y-53476707D01*
X61185067Y-53475500D01*
X61178880Y-53475500D01*
X60241122Y-53475500D01*
X60241111Y-53475500D01*
X60234934Y-53475501D01*
X60228868Y-53476707D01*
X60228862Y-53476708D01*
X60160699Y-53490266D01*
X60160510Y-53489320D01*
X60113651Y-53496272D01*
X60055999Y-53475645D01*
X60014878Y-53430275D01*
X60000000Y-53370879D01*
X60000000Y-52626000D01*
X60016881Y-52563000D01*
X60063000Y-52516881D01*
X60126000Y-52500000D01*
X62873500Y-52500000D01*
X62936500Y-52516881D01*
G37*
%TD.AperFunction*%
%TA.AperFunction,Conductor*%
G36*
X21605358Y-45337263D02*
G01*
X21652148Y-45375301D01*
X21693996Y-45431204D01*
X21810133Y-45518142D01*
X21946058Y-45568840D01*
X22006145Y-45575300D01*
X23002654Y-45575299D01*
X23062742Y-45568840D01*
X23198667Y-45518142D01*
X23299751Y-45442471D01*
X23356342Y-45419012D01*
X23417260Y-45425509D01*
X23467633Y-45460376D01*
X23495165Y-45515104D01*
X23493137Y-45576333D01*
X23481921Y-45614940D01*
X23481345Y-45626209D01*
X23492325Y-45628800D01*
X24408400Y-45628800D01*
X24470400Y-45645413D01*
X24515787Y-45690800D01*
X24532400Y-45752800D01*
X24532400Y-46640437D01*
X24536106Y-46653581D01*
X24548814Y-46656109D01*
X24559405Y-46654175D01*
X24701102Y-46613008D01*
X24715309Y-46606860D01*
X24841060Y-46532491D01*
X24853296Y-46523000D01*
X24956600Y-46419696D01*
X24966091Y-46407460D01*
X25040460Y-46281709D01*
X25046605Y-46267509D01*
X25072733Y-46177578D01*
X25105517Y-46123125D01*
X25160972Y-46092069D01*
X25224530Y-46092568D01*
X25279491Y-46124492D01*
X25515581Y-46360582D01*
X25542461Y-46400810D01*
X25551900Y-46448263D01*
X25551900Y-47956206D01*
X25549436Y-47979960D01*
X25549391Y-47981028D01*
X25547284Y-47991081D01*
X25548554Y-48001271D01*
X25548554Y-48001277D01*
X25551023Y-48021080D01*
X25551551Y-48026175D01*
X25551900Y-48030386D01*
X25551900Y-48035508D01*
X25552743Y-48040558D01*
X25555122Y-48054818D01*
X25555859Y-48059882D01*
X25560713Y-48098820D01*
X25560715Y-48098827D01*
X25561985Y-48109013D01*
X25565295Y-48115785D01*
X25566537Y-48123224D01*
X25571424Y-48132254D01*
X25571426Y-48132260D01*
X25590098Y-48166763D01*
X25592443Y-48171318D01*
X25609666Y-48206549D01*
X25609670Y-48206554D01*
X25614181Y-48215782D01*
X25619510Y-48221111D01*
X25623101Y-48227746D01*
X25630654Y-48234699D01*
X25630655Y-48234700D01*
X25659536Y-48261286D01*
X25663235Y-48264836D01*
X25874989Y-48476591D01*
X25890042Y-48495127D01*
X25890766Y-48495913D01*
X25896386Y-48504515D01*
X25907866Y-48513450D01*
X25920231Y-48523074D01*
X25924214Y-48526308D01*
X25927429Y-48529031D01*
X25931064Y-48532666D01*
X25947017Y-48544056D01*
X25951106Y-48547105D01*
X25990172Y-48577511D01*
X25997300Y-48579958D01*
X26003439Y-48584341D01*
X26050876Y-48598463D01*
X26055756Y-48600025D01*
X26102577Y-48616100D01*
X26110116Y-48616100D01*
X26117344Y-48618252D01*
X26166804Y-48616206D01*
X26171930Y-48616100D01*
X26392209Y-48616100D01*
X26448502Y-48629614D01*
X26488247Y-48663558D01*
X26488865Y-48664771D01*
X26577229Y-48753135D01*
X26631671Y-48780875D01*
X26679876Y-48805437D01*
X26679878Y-48805437D01*
X26688573Y-48809868D01*
X26780955Y-48824500D01*
X27123044Y-48824499D01*
X27159913Y-48818660D01*
X27180082Y-48815466D01*
X27237798Y-48820008D01*
X27287161Y-48850258D01*
X27371103Y-48934200D01*
X27383339Y-48943691D01*
X27509091Y-49018061D01*
X27523293Y-49024207D01*
X27648142Y-49060479D01*
X27659409Y-49061054D01*
X27662000Y-49050075D01*
X28162000Y-49050075D01*
X28164590Y-49061054D01*
X28175857Y-49060479D01*
X28300706Y-49024207D01*
X28314908Y-49018061D01*
X28440660Y-48943691D01*
X28452896Y-48934200D01*
X28556200Y-48830896D01*
X28565691Y-48818660D01*
X28640060Y-48692909D01*
X28646208Y-48678702D01*
X28687376Y-48537002D01*
X28689310Y-48526415D01*
X28686782Y-48513706D01*
X28673641Y-48510000D01*
X28178326Y-48510000D01*
X28165450Y-48513450D01*
X28162000Y-48526326D01*
X28162000Y-49050075D01*
X27662000Y-49050075D01*
X27662000Y-47469925D01*
X27659409Y-47458945D01*
X27648142Y-47459520D01*
X27586294Y-47477489D01*
X27529421Y-47480394D01*
X27477248Y-47457573D01*
X27440776Y-47413837D01*
X27427700Y-47358412D01*
X27427700Y-47290000D01*
X27444313Y-47228000D01*
X27489700Y-47182613D01*
X27551700Y-47166000D01*
X27831037Y-47166000D01*
X27878490Y-47175439D01*
X27918718Y-47202319D01*
X28125681Y-47409283D01*
X28152561Y-47449511D01*
X28162000Y-47496964D01*
X28162000Y-47993674D01*
X28165450Y-48006549D01*
X28178326Y-48010000D01*
X28675037Y-48010000D01*
X28722490Y-48019439D01*
X28762716Y-48046317D01*
X29181754Y-48465356D01*
X29599388Y-48882990D01*
X29614441Y-48901526D01*
X29615167Y-48902314D01*
X29620786Y-48910915D01*
X29632266Y-48919850D01*
X29644632Y-48929475D01*
X29648613Y-48932709D01*
X29651841Y-48935443D01*
X29655464Y-48939066D01*
X29659630Y-48942041D01*
X29659632Y-48942042D01*
X29671407Y-48950449D01*
X29675518Y-48953515D01*
X29706458Y-48977597D01*
X29706463Y-48977600D01*
X29714572Y-48983911D01*
X29721703Y-48986359D01*
X29727839Y-48990740D01*
X29737686Y-48993671D01*
X29737689Y-48993673D01*
X29775277Y-49004863D01*
X29780151Y-49006424D01*
X29826977Y-49022500D01*
X29834516Y-49022500D01*
X29841744Y-49024652D01*
X29891204Y-49022606D01*
X29896330Y-49022500D01*
X30646409Y-49022500D01*
X30702702Y-49036014D01*
X30742447Y-49069958D01*
X30743065Y-49071171D01*
X30831429Y-49159535D01*
X30885871Y-49187275D01*
X30934076Y-49211837D01*
X30934078Y-49211837D01*
X30942773Y-49216268D01*
X31035155Y-49230900D01*
X31377244Y-49230899D01*
X31414113Y-49225060D01*
X31434282Y-49221866D01*
X31491998Y-49226408D01*
X31541361Y-49256658D01*
X31625303Y-49340600D01*
X31637539Y-49350091D01*
X31763291Y-49424461D01*
X31777493Y-49430607D01*
X31902342Y-49466879D01*
X31913609Y-49467454D01*
X31916200Y-49456475D01*
X32416200Y-49456475D01*
X32418790Y-49467454D01*
X32430057Y-49466879D01*
X32554906Y-49430607D01*
X32569108Y-49424461D01*
X32694860Y-49350091D01*
X32707096Y-49340600D01*
X32810400Y-49237296D01*
X32819891Y-49225060D01*
X32894260Y-49099309D01*
X32900408Y-49085102D01*
X32941576Y-48943402D01*
X32943510Y-48932815D01*
X32940982Y-48920106D01*
X32927841Y-48916400D01*
X32432526Y-48916400D01*
X32419650Y-48919850D01*
X32416200Y-48932726D01*
X32416200Y-49456475D01*
X31916200Y-49456475D01*
X31916200Y-48540400D01*
X31932813Y-48478400D01*
X31978200Y-48433013D01*
X32040200Y-48416400D01*
X32927837Y-48416400D01*
X32940981Y-48412693D01*
X32943509Y-48399985D01*
X32941575Y-48389394D01*
X32900408Y-48247697D01*
X32894260Y-48233489D01*
X32840876Y-48143221D01*
X32823612Y-48081074D01*
X32839898Y-48018663D01*
X32885327Y-47972876D01*
X32947608Y-47956100D01*
X36280206Y-47956100D01*
X36303960Y-47958563D01*
X36305022Y-47958606D01*
X36315081Y-47960716D01*
X36325277Y-47959444D01*
X36325278Y-47959445D01*
X36345077Y-47956977D01*
X36350179Y-47956447D01*
X36354365Y-47956100D01*
X36359508Y-47956100D01*
X36378850Y-47952871D01*
X36383880Y-47952138D01*
X36433013Y-47946015D01*
X36439785Y-47942704D01*
X36447224Y-47941463D01*
X36490814Y-47917872D01*
X36495289Y-47915569D01*
X36539782Y-47893819D01*
X36545111Y-47888489D01*
X36551746Y-47884899D01*
X36585312Y-47848434D01*
X36588816Y-47844783D01*
X36872319Y-47561280D01*
X36921682Y-47531031D01*
X36979398Y-47526489D01*
X37032885Y-47548644D01*
X37070485Y-47592667D01*
X37084000Y-47648962D01*
X37084000Y-49436638D01*
X37074561Y-49484091D01*
X37047681Y-49524319D01*
X36866319Y-49705681D01*
X36826091Y-49732561D01*
X36778638Y-49742000D01*
X26215433Y-49742000D01*
X26167980Y-49732561D01*
X26127752Y-49705681D01*
X23495218Y-47073147D01*
X23468338Y-47032919D01*
X23458899Y-46985466D01*
X23458899Y-46569758D01*
X23472414Y-46513463D01*
X23510014Y-46469440D01*
X23563501Y-46447285D01*
X23621217Y-46451827D01*
X23670580Y-46482077D01*
X23711503Y-46523000D01*
X23723739Y-46532491D01*
X23849490Y-46606860D01*
X23863697Y-46613008D01*
X24005397Y-46654176D01*
X24015984Y-46656110D01*
X24028693Y-46653582D01*
X24032400Y-46640441D01*
X24032400Y-46145126D01*
X24028949Y-46132250D01*
X24016074Y-46128800D01*
X23492325Y-46128800D01*
X23467952Y-46134550D01*
X23432788Y-46151464D01*
X23372276Y-46148729D01*
X23320280Y-46117656D01*
X23320115Y-46117491D01*
X23314804Y-46110396D01*
X23198667Y-46023458D01*
X23153864Y-46006747D01*
X23070004Y-45975468D01*
X23069999Y-45975466D01*
X23062742Y-45972760D01*
X23055038Y-45971931D01*
X23055035Y-45971931D01*
X23005941Y-45966653D01*
X23005935Y-45966652D01*
X23002655Y-45966300D01*
X22999345Y-45966300D01*
X22009457Y-45966300D01*
X22009438Y-45966300D01*
X22006146Y-45966301D01*
X22002864Y-45966653D01*
X22002841Y-45966655D01*
X21996163Y-45967373D01*
X21941659Y-45961018D01*
X21895235Y-45931764D01*
X21828315Y-45864844D01*
X21819675Y-45854121D01*
X21819599Y-45854188D01*
X21813788Y-45847482D01*
X21808996Y-45840025D01*
X21771136Y-45807219D01*
X21764658Y-45801187D01*
X21758153Y-45794682D01*
X21755021Y-45791550D01*
X21744102Y-45783376D01*
X21737210Y-45777822D01*
X21726281Y-45768352D01*
X21699358Y-45745023D01*
X21691291Y-45741338D01*
X21683832Y-45736545D01*
X21683886Y-45736460D01*
X21682998Y-45735934D01*
X21682951Y-45736022D01*
X21675166Y-45731771D01*
X21668067Y-45726457D01*
X21621110Y-45708942D01*
X21612980Y-45705575D01*
X21582154Y-45691498D01*
X21575459Y-45688440D01*
X21575458Y-45688439D01*
X21567396Y-45684758D01*
X21558620Y-45683496D01*
X21550108Y-45680997D01*
X21550136Y-45680900D01*
X21549139Y-45680646D01*
X21549118Y-45680744D01*
X21540447Y-45678857D01*
X21532142Y-45675760D01*
X21523300Y-45675127D01*
X21523298Y-45675127D01*
X21482178Y-45672185D01*
X21473405Y-45671242D01*
X21470020Y-45670756D01*
X21408138Y-45643173D01*
X21369991Y-45587181D01*
X21366967Y-45519497D01*
X21396563Y-45466433D01*
X21395821Y-45465858D01*
X21399604Y-45460980D01*
X21399969Y-45460327D01*
X21400603Y-45459692D01*
X21410091Y-45447460D01*
X21446149Y-45386491D01*
X21488545Y-45343608D01*
X21546156Y-45325794D01*
X21605358Y-45337263D01*
G37*
%TD.AperFunction*%
%TA.AperFunction,Conductor*%
G36*
X32942371Y-43655439D02*
G01*
X32982599Y-43682319D01*
X33031499Y-43731219D01*
X33061749Y-43780582D01*
X33066291Y-43838298D01*
X33044136Y-43891785D01*
X33000113Y-43929385D01*
X32943818Y-43942900D01*
X32708366Y-43942900D01*
X32703553Y-43943662D01*
X32703543Y-43943663D01*
X32623287Y-43956374D01*
X32623281Y-43956375D01*
X32613645Y-43957902D01*
X32604950Y-43962332D01*
X32604948Y-43962333D01*
X32508172Y-44011643D01*
X32508169Y-44011645D01*
X32499477Y-44016074D01*
X32492578Y-44022972D01*
X32492575Y-44022975D01*
X32415775Y-44099775D01*
X32415772Y-44099778D01*
X32408874Y-44106677D01*
X32404445Y-44115369D01*
X32404443Y-44115372D01*
X32359594Y-44203393D01*
X32350702Y-44220845D01*
X32349175Y-44230481D01*
X32349174Y-44230487D01*
X32336463Y-44310743D01*
X32336462Y-44310753D01*
X32335700Y-44315566D01*
X32335700Y-45554234D01*
X32336462Y-45559047D01*
X32336463Y-45559056D01*
X32349174Y-45639312D01*
X32349175Y-45639316D01*
X32350702Y-45648955D01*
X32355132Y-45657650D01*
X32358149Y-45666934D01*
X32357192Y-45667244D01*
X32368185Y-45713046D01*
X32354668Y-45769338D01*
X32317068Y-45813359D01*
X32263582Y-45835512D01*
X32216923Y-45831840D01*
X32216755Y-45832902D01*
X32126856Y-45818663D01*
X32126847Y-45818662D01*
X32122034Y-45817900D01*
X31896378Y-45817900D01*
X31840953Y-45804824D01*
X31797217Y-45768352D01*
X31774396Y-45716178D01*
X31777301Y-45659306D01*
X31785532Y-45630973D01*
X31787797Y-45618573D01*
X31790008Y-45590476D01*
X31790200Y-45585597D01*
X31790200Y-45201226D01*
X31786749Y-45188350D01*
X31773874Y-45184900D01*
X31256526Y-45184900D01*
X31243650Y-45188350D01*
X31240200Y-45201226D01*
X31240200Y-46152543D01*
X31243906Y-46165686D01*
X31268347Y-46170548D01*
X31293246Y-46171503D01*
X31341116Y-46196191D01*
X31374002Y-46238847D01*
X31385700Y-46291423D01*
X31385700Y-47429234D01*
X31386462Y-47434047D01*
X31386463Y-47434056D01*
X31399174Y-47514312D01*
X31399175Y-47514316D01*
X31400702Y-47523955D01*
X31405131Y-47532648D01*
X31405133Y-47532653D01*
X31410209Y-47542614D01*
X31423555Y-47592419D01*
X31415489Y-47643347D01*
X31387406Y-47686591D01*
X30983211Y-48090786D01*
X30942399Y-48115798D01*
X30942773Y-48116532D01*
X30840124Y-48168834D01*
X30840121Y-48168836D01*
X30831429Y-48173265D01*
X30824530Y-48180163D01*
X30824527Y-48180166D01*
X30749963Y-48254730D01*
X30749960Y-48254733D01*
X30743065Y-48261629D01*
X30742447Y-48262841D01*
X30702702Y-48296786D01*
X30646409Y-48310300D01*
X30085264Y-48310300D01*
X30037811Y-48300861D01*
X29997583Y-48273981D01*
X28316911Y-46593310D01*
X28301858Y-46574773D01*
X28301132Y-46573984D01*
X28295514Y-46565385D01*
X28287410Y-46559077D01*
X28287407Y-46559074D01*
X28271652Y-46546812D01*
X28267673Y-46543581D01*
X28264464Y-46540863D01*
X28260835Y-46537234D01*
X28254192Y-46532491D01*
X28244899Y-46525855D01*
X28240796Y-46522796D01*
X28209833Y-46498697D01*
X28209831Y-46498696D01*
X28201728Y-46492389D01*
X28194599Y-46489941D01*
X28188461Y-46485559D01*
X28178618Y-46482628D01*
X28178615Y-46482627D01*
X28141000Y-46471429D01*
X28136119Y-46469865D01*
X28099044Y-46457137D01*
X28099042Y-46457136D01*
X28089323Y-46453800D01*
X28081784Y-46453800D01*
X28074556Y-46451648D01*
X28064290Y-46452072D01*
X28064285Y-46452072D01*
X28025095Y-46453694D01*
X28019970Y-46453800D01*
X27551700Y-46453800D01*
X27489700Y-46437187D01*
X27444313Y-46391800D01*
X27427700Y-46329800D01*
X27427700Y-46195446D01*
X27427700Y-46190566D01*
X27421986Y-46154490D01*
X28612145Y-46154490D01*
X28612720Y-46165757D01*
X28648992Y-46290606D01*
X28655138Y-46304808D01*
X28729508Y-46430560D01*
X28738999Y-46442796D01*
X28842303Y-46546100D01*
X28854539Y-46555591D01*
X28980290Y-46629960D01*
X28994497Y-46636108D01*
X29136197Y-46677276D01*
X29146784Y-46679210D01*
X29159493Y-46676682D01*
X29163200Y-46663541D01*
X29163200Y-46168226D01*
X29159749Y-46155350D01*
X29146874Y-46151900D01*
X28623125Y-46151900D01*
X28612145Y-46154490D01*
X27421986Y-46154490D01*
X27412698Y-46095845D01*
X27408266Y-46087148D01*
X27405251Y-46077866D01*
X27406207Y-46077555D01*
X27395214Y-46031756D01*
X27408731Y-45975461D01*
X27446333Y-45931438D01*
X27499823Y-45909286D01*
X27546476Y-45912960D01*
X27546645Y-45911898D01*
X27641366Y-45926900D01*
X28000154Y-45926900D01*
X28005034Y-45926900D01*
X28099755Y-45911898D01*
X28213923Y-45853726D01*
X28304526Y-45763123D01*
X28362698Y-45648955D01*
X28365413Y-45631809D01*
X28378173Y-45602453D01*
X28375142Y-45570380D01*
X28377700Y-45554234D01*
X28377700Y-45376900D01*
X28394313Y-45314900D01*
X28439700Y-45269513D01*
X28501700Y-45252900D01*
X28583282Y-45252900D01*
X28645563Y-45269676D01*
X28690993Y-45315463D01*
X28707278Y-45377875D01*
X28690014Y-45440022D01*
X28655136Y-45498995D01*
X28648990Y-45513198D01*
X28616691Y-45624372D01*
X28607958Y-45639136D01*
X28609040Y-45644421D01*
X28611067Y-45649055D01*
X28623125Y-45651900D01*
X29539200Y-45651900D01*
X29601200Y-45668513D01*
X29646587Y-45713900D01*
X29663200Y-45775900D01*
X29663200Y-46663537D01*
X29666906Y-46676681D01*
X29679614Y-46679209D01*
X29690205Y-46677275D01*
X29831902Y-46636108D01*
X29846109Y-46629960D01*
X29971860Y-46555591D01*
X29984096Y-46546100D01*
X30087400Y-46442796D01*
X30096891Y-46430560D01*
X30171260Y-46304809D01*
X30177408Y-46290602D01*
X30218576Y-46148902D01*
X30220842Y-46136495D01*
X30222663Y-46113356D01*
X30247412Y-46048243D01*
X30303361Y-46006747D01*
X30372855Y-46001963D01*
X30425991Y-46031039D01*
X30426964Y-46029785D01*
X30445361Y-46044055D01*
X30573287Y-46119710D01*
X30587494Y-46125858D01*
X30729423Y-46167092D01*
X30736493Y-46165686D01*
X30740200Y-46152543D01*
X30740200Y-44808900D01*
X30756813Y-44746900D01*
X30802200Y-44701513D01*
X30864200Y-44684900D01*
X31773874Y-44684900D01*
X31786749Y-44681449D01*
X31790200Y-44668574D01*
X31790200Y-44284203D01*
X31790008Y-44279323D01*
X31787797Y-44251226D01*
X31785531Y-44238820D01*
X31743658Y-44094694D01*
X31737510Y-44080487D01*
X31661855Y-43952561D01*
X31652364Y-43940325D01*
X31569720Y-43857681D01*
X31539470Y-43808318D01*
X31534928Y-43750602D01*
X31557083Y-43697115D01*
X31601106Y-43659515D01*
X31657401Y-43646000D01*
X32894918Y-43646000D01*
X32942371Y-43655439D01*
G37*
%TD.AperFunction*%
%TA.AperFunction,Conductor*%
G36*
X33878178Y-45049408D02*
G01*
X33928770Y-45087188D01*
X33954200Y-45144983D01*
X33956734Y-45160984D01*
X33952191Y-45218699D01*
X33921942Y-45268061D01*
X33837996Y-45352007D01*
X33828508Y-45364239D01*
X33754138Y-45489991D01*
X33747992Y-45504193D01*
X33711720Y-45629042D01*
X33711145Y-45640309D01*
X33722125Y-45642900D01*
X35353616Y-45642900D01*
X35371087Y-45645200D01*
X36194000Y-45645200D01*
X36256000Y-45661813D01*
X36301387Y-45707200D01*
X36318000Y-45769200D01*
X36318000Y-46656837D01*
X36321706Y-46669981D01*
X36334414Y-46672509D01*
X36345005Y-46670575D01*
X36460281Y-46637084D01*
X36524958Y-46635864D01*
X36581448Y-46667384D01*
X36614378Y-46723064D01*
X36614784Y-46787751D01*
X36582557Y-46843841D01*
X36218818Y-47207581D01*
X36178590Y-47234461D01*
X36131137Y-47243900D01*
X32929163Y-47243900D01*
X32881710Y-47234461D01*
X32841482Y-47207581D01*
X32531019Y-46897118D01*
X32504139Y-46856890D01*
X32494700Y-46809437D01*
X32494700Y-46195446D01*
X32494700Y-46190566D01*
X32487561Y-46145490D01*
X33711145Y-46145490D01*
X33711720Y-46156757D01*
X33747992Y-46281606D01*
X33754138Y-46295808D01*
X33828508Y-46421560D01*
X33837999Y-46433796D01*
X33941303Y-46537100D01*
X33953539Y-46546591D01*
X34079290Y-46620960D01*
X34093497Y-46627108D01*
X34235197Y-46668276D01*
X34245784Y-46670210D01*
X34258493Y-46667682D01*
X34262200Y-46654541D01*
X34262200Y-46654537D01*
X34762200Y-46654537D01*
X34765906Y-46667681D01*
X34778614Y-46670209D01*
X34789205Y-46668275D01*
X34930902Y-46627108D01*
X34945109Y-46620960D01*
X35070860Y-46546591D01*
X35083096Y-46537100D01*
X35186398Y-46433798D01*
X35191223Y-46427578D01*
X35234648Y-46392220D01*
X35289201Y-46379572D01*
X35343755Y-46392215D01*
X35387184Y-46427569D01*
X35393797Y-46436094D01*
X35497103Y-46539400D01*
X35509339Y-46548891D01*
X35635090Y-46623260D01*
X35649297Y-46629408D01*
X35790997Y-46670576D01*
X35801584Y-46672510D01*
X35814293Y-46669982D01*
X35818000Y-46656841D01*
X35818000Y-46161526D01*
X35814549Y-46148650D01*
X35801674Y-46145200D01*
X35226584Y-46145200D01*
X35209113Y-46142900D01*
X34778526Y-46142900D01*
X34765650Y-46146350D01*
X34762200Y-46159226D01*
X34762200Y-46654537D01*
X34262200Y-46654537D01*
X34262200Y-46159226D01*
X34258749Y-46146350D01*
X34245874Y-46142900D01*
X33722125Y-46142900D01*
X33711145Y-46145490D01*
X32487561Y-46145490D01*
X32479698Y-46095845D01*
X32475266Y-46087148D01*
X32472251Y-46077866D01*
X32473207Y-46077555D01*
X32462214Y-46031756D01*
X32475731Y-45975461D01*
X32513333Y-45931438D01*
X32566823Y-45909286D01*
X32613476Y-45912960D01*
X32613645Y-45911898D01*
X32708366Y-45926900D01*
X33067154Y-45926900D01*
X33072034Y-45926900D01*
X33166755Y-45911898D01*
X33280923Y-45853726D01*
X33371526Y-45763123D01*
X33429698Y-45648955D01*
X33444700Y-45554234D01*
X33444700Y-45169702D01*
X33464119Y-45103077D01*
X33516295Y-45057320D01*
X33584885Y-45046763D01*
X33680000Y-45059285D01*
X33815543Y-45041440D01*
X33878178Y-45049408D01*
G37*
%TD.AperFunction*%
%TA.AperFunction,Conductor*%
G36*
X26916539Y-44448105D02*
G01*
X26956457Y-44494842D01*
X26957348Y-44498166D01*
X26969586Y-44515645D01*
X26978446Y-44528298D01*
X26984256Y-44537419D01*
X26993092Y-44552724D01*
X27002640Y-44569260D01*
X27010949Y-44576232D01*
X27010950Y-44576233D01*
X27030813Y-44592900D01*
X27038788Y-44600208D01*
X27232381Y-44793801D01*
X27259261Y-44834029D01*
X27268700Y-44881482D01*
X27268700Y-45554234D01*
X27269462Y-45559047D01*
X27269463Y-45559056D01*
X27282174Y-45639312D01*
X27282175Y-45639316D01*
X27283702Y-45648955D01*
X27288132Y-45657650D01*
X27291149Y-45666934D01*
X27290192Y-45667244D01*
X27301185Y-45713046D01*
X27287668Y-45769338D01*
X27250068Y-45813359D01*
X27196582Y-45835512D01*
X27149923Y-45831840D01*
X27149755Y-45832902D01*
X27059856Y-45818663D01*
X27059847Y-45818662D01*
X27055034Y-45817900D01*
X26829378Y-45817900D01*
X26773953Y-45804824D01*
X26730217Y-45768352D01*
X26707396Y-45716178D01*
X26710301Y-45659306D01*
X26718532Y-45630973D01*
X26720797Y-45618573D01*
X26723008Y-45590476D01*
X26723200Y-45585597D01*
X26723200Y-45201226D01*
X26719749Y-45188350D01*
X26706874Y-45184900D01*
X25797200Y-45184900D01*
X25735200Y-45168287D01*
X25689813Y-45122900D01*
X25673200Y-45060900D01*
X25673200Y-44808900D01*
X25689813Y-44746900D01*
X25735200Y-44701513D01*
X25797200Y-44684900D01*
X26706874Y-44684900D01*
X26719749Y-44681449D01*
X26723200Y-44668574D01*
X26723200Y-44550906D01*
X26740911Y-44487042D01*
X26788985Y-44441421D01*
X26853689Y-44427076D01*
X26916539Y-44448105D01*
G37*
%TD.AperFunction*%
%TA.AperFunction,Conductor*%
G36*
X25312294Y-43659515D02*
G01*
X25356317Y-43697115D01*
X25378472Y-43750602D01*
X25373930Y-43808318D01*
X25343680Y-43857681D01*
X25261035Y-43940325D01*
X25251544Y-43952561D01*
X25175889Y-44080487D01*
X25169741Y-44094694D01*
X25127868Y-44238820D01*
X25125602Y-44251226D01*
X25123391Y-44279323D01*
X25123200Y-44284203D01*
X25123200Y-44661637D01*
X25109685Y-44717932D01*
X25072085Y-44761955D01*
X25018598Y-44784110D01*
X24960882Y-44779568D01*
X24911519Y-44749318D01*
X24858013Y-44695812D01*
X24833003Y-44654998D01*
X24832268Y-44655373D01*
X24775535Y-44544029D01*
X24687171Y-44455665D01*
X24659912Y-44441776D01*
X24575827Y-44398932D01*
X24576200Y-44398198D01*
X24535386Y-44373185D01*
X24516964Y-44354763D01*
X24513335Y-44351134D01*
X24502178Y-44343168D01*
X24449321Y-44305428D01*
X24449320Y-44305427D01*
X24440961Y-44299459D01*
X24431116Y-44296528D01*
X24431114Y-44296527D01*
X24343555Y-44270460D01*
X24327056Y-44265548D01*
X24316792Y-44265972D01*
X24316788Y-44265972D01*
X24218580Y-44270035D01*
X24218578Y-44270035D01*
X24208312Y-44270460D01*
X24198739Y-44274195D01*
X24198736Y-44274196D01*
X24107170Y-44309925D01*
X24107167Y-44309926D01*
X24097597Y-44313661D01*
X24089759Y-44320298D01*
X24089756Y-44320301D01*
X24057271Y-44347815D01*
X24049068Y-44354763D01*
X24042503Y-44360323D01*
X24005040Y-44382124D01*
X23962362Y-44389700D01*
X23567345Y-44389700D01*
X23518533Y-44379688D01*
X23477602Y-44351270D01*
X23451163Y-44309034D01*
X23419849Y-44225080D01*
X23401742Y-44176533D01*
X23314804Y-44060396D01*
X23198667Y-43973458D01*
X23190364Y-43970361D01*
X23070004Y-43925468D01*
X23069999Y-43925466D01*
X23062742Y-43922760D01*
X23055038Y-43921931D01*
X23055035Y-43921931D01*
X23005941Y-43916653D01*
X23005935Y-43916652D01*
X23002655Y-43916300D01*
X22999345Y-43916300D01*
X22009457Y-43916300D01*
X22009438Y-43916300D01*
X22006146Y-43916301D01*
X22002869Y-43916653D01*
X22002855Y-43916654D01*
X21953770Y-43921931D01*
X21946058Y-43922760D01*
X21938796Y-43925468D01*
X21938790Y-43925470D01*
X21818435Y-43970361D01*
X21818432Y-43970362D01*
X21810133Y-43973458D01*
X21803041Y-43978766D01*
X21803039Y-43978768D01*
X21701091Y-44055084D01*
X21701087Y-44055087D01*
X21693996Y-44060396D01*
X21688687Y-44067487D01*
X21688684Y-44067491D01*
X21612368Y-44169439D01*
X21607058Y-44176533D01*
X21603962Y-44184832D01*
X21603961Y-44184835D01*
X21563696Y-44292789D01*
X21528716Y-44343168D01*
X21473872Y-44370621D01*
X21412579Y-44368432D01*
X21359833Y-44337136D01*
X21297296Y-44274599D01*
X21285060Y-44265108D01*
X21159309Y-44190739D01*
X21145102Y-44184591D01*
X21003402Y-44143423D01*
X20992815Y-44141489D01*
X20980106Y-44144017D01*
X20976400Y-44157159D01*
X20976400Y-45044800D01*
X20959787Y-45106800D01*
X20914400Y-45152187D01*
X20852400Y-45168800D01*
X19936325Y-45168800D01*
X19925345Y-45171390D01*
X19925920Y-45182657D01*
X19962192Y-45307506D01*
X19968338Y-45321708D01*
X20042708Y-45447460D01*
X20056979Y-45465858D01*
X20055753Y-45466808D01*
X20080372Y-45506982D01*
X20084914Y-45564698D01*
X20062759Y-45618185D01*
X20018736Y-45655785D01*
X19962441Y-45669300D01*
X19764133Y-45669300D01*
X19716680Y-45659861D01*
X19676452Y-45632981D01*
X19594319Y-45550848D01*
X19567439Y-45510620D01*
X19558000Y-45463167D01*
X19558000Y-44666209D01*
X19925345Y-44666209D01*
X19936325Y-44668800D01*
X20460074Y-44668800D01*
X20472949Y-44665349D01*
X20476400Y-44652474D01*
X20476400Y-44157163D01*
X20472693Y-44144018D01*
X20459985Y-44141490D01*
X20449394Y-44143424D01*
X20307697Y-44184591D01*
X20293490Y-44190739D01*
X20167739Y-44265108D01*
X20155503Y-44274599D01*
X20052199Y-44377903D01*
X20042708Y-44390139D01*
X19968338Y-44515891D01*
X19962192Y-44530093D01*
X19925920Y-44654942D01*
X19925345Y-44666209D01*
X19558000Y-44666209D01*
X19558000Y-43951362D01*
X19567439Y-43903909D01*
X19594319Y-43863681D01*
X19775681Y-43682319D01*
X19815909Y-43655439D01*
X19863362Y-43646000D01*
X25255999Y-43646000D01*
X25312294Y-43659515D01*
G37*
%TD.AperFunction*%
M02*
