%TF.GenerationSoftware,KiCad,Pcbnew,7.0.1*%
%TF.CreationDate,2023-05-20T22:45:57-07:00*%
%TF.ProjectId,ai-camera-rev3,61692d63-616d-4657-9261-2d726576332e,rev3*%
%TF.SameCoordinates,PX5a995c0PY2aea540*%
%TF.FileFunction,Copper,L4,Bot*%
%TF.FilePolarity,Positive*%
%FSLAX46Y46*%
G04 Gerber Fmt 4.6, Leading zero omitted, Abs format (unit mm)*
G04 Created by KiCad (PCBNEW 7.0.1) date 2023-05-20 22:45:57*
%MOMM*%
%LPD*%
G01*
G04 APERTURE LIST*
G04 Aperture macros list*
%AMRoundRect*
0 Rectangle with rounded corners*
0 $1 Rounding radius*
0 $2 $3 $4 $5 $6 $7 $8 $9 X,Y pos of 4 corners*
0 Add a 4 corners polygon primitive as box body*
4,1,4,$2,$3,$4,$5,$6,$7,$8,$9,$2,$3,0*
0 Add four circle primitives for the rounded corners*
1,1,$1+$1,$2,$3*
1,1,$1+$1,$4,$5*
1,1,$1+$1,$6,$7*
1,1,$1+$1,$8,$9*
0 Add four rect primitives between the rounded corners*
20,1,$1+$1,$2,$3,$4,$5,0*
20,1,$1+$1,$4,$5,$6,$7,0*
20,1,$1+$1,$6,$7,$8,$9,0*
20,1,$1+$1,$8,$9,$2,$3,0*%
%AMRotRect*
0 Rectangle, with rotation*
0 The origin of the aperture is its center*
0 $1 length*
0 $2 width*
0 $3 Rotation angle, in degrees counterclockwise*
0 Add horizontal line*
21,1,$1,$2,0,0,$3*%
G04 Aperture macros list end*
%TA.AperFunction,ComponentPad*%
%ADD10C,3.600000*%
%TD*%
%TA.AperFunction,ConnectorPad*%
%ADD11C,6.400000*%
%TD*%
%TA.AperFunction,WasherPad*%
%ADD12C,4.000000*%
%TD*%
%TA.AperFunction,WasherPad*%
%ADD13C,1.700000*%
%TD*%
%TA.AperFunction,ComponentPad*%
%ADD14C,1.700000*%
%TD*%
%TA.AperFunction,ComponentPad*%
%ADD15C,0.800000*%
%TD*%
%TA.AperFunction,ComponentPad*%
%ADD16RotRect,1.524000X1.524000X45.000000*%
%TD*%
%TA.AperFunction,ComponentPad*%
%ADD17C,1.524000*%
%TD*%
%TA.AperFunction,ComponentPad*%
%ADD18R,1.700000X1.700000*%
%TD*%
%TA.AperFunction,ComponentPad*%
%ADD19O,1.700000X1.700000*%
%TD*%
%TA.AperFunction,ComponentPad*%
%ADD20O,2.100000X1.000000*%
%TD*%
%TA.AperFunction,ComponentPad*%
%ADD21O,1.600000X1.000000*%
%TD*%
%TA.AperFunction,SMDPad,CuDef*%
%ADD22RoundRect,0.150000X-0.587500X-0.150000X0.587500X-0.150000X0.587500X0.150000X-0.587500X0.150000X0*%
%TD*%
%TA.AperFunction,SMDPad,CuDef*%
%ADD23RoundRect,0.250000X0.412500X0.925000X-0.412500X0.925000X-0.412500X-0.925000X0.412500X-0.925000X0*%
%TD*%
%TA.AperFunction,SMDPad,CuDef*%
%ADD24C,1.000000*%
%TD*%
%TA.AperFunction,SMDPad,CuDef*%
%ADD25RoundRect,0.135000X0.135000X0.185000X-0.135000X0.185000X-0.135000X-0.185000X0.135000X-0.185000X0*%
%TD*%
%TA.AperFunction,SMDPad,CuDef*%
%ADD26RoundRect,0.140000X0.170000X-0.140000X0.170000X0.140000X-0.170000X0.140000X-0.170000X-0.140000X0*%
%TD*%
%TA.AperFunction,SMDPad,CuDef*%
%ADD27R,0.900000X1.500000*%
%TD*%
%TA.AperFunction,SMDPad,CuDef*%
%ADD28R,1.500000X0.900000*%
%TD*%
%TA.AperFunction,ComponentPad*%
%ADD29C,0.500000*%
%TD*%
%TA.AperFunction,SMDPad,CuDef*%
%ADD30R,3.900000X3.900000*%
%TD*%
%TA.AperFunction,SMDPad,CuDef*%
%ADD31RoundRect,0.135000X-0.185000X0.135000X-0.185000X-0.135000X0.185000X-0.135000X0.185000X0.135000X0*%
%TD*%
%TA.AperFunction,SMDPad,CuDef*%
%ADD32RoundRect,0.140000X-0.140000X-0.170000X0.140000X-0.170000X0.140000X0.170000X-0.140000X0.170000X0*%
%TD*%
%TA.AperFunction,SMDPad,CuDef*%
%ADD33RoundRect,0.150000X0.587500X0.150000X-0.587500X0.150000X-0.587500X-0.150000X0.587500X-0.150000X0*%
%TD*%
%TA.AperFunction,SMDPad,CuDef*%
%ADD34RoundRect,0.140000X-0.170000X0.140000X-0.170000X-0.140000X0.170000X-0.140000X0.170000X0.140000X0*%
%TD*%
%TA.AperFunction,SMDPad,CuDef*%
%ADD35RoundRect,0.140000X0.140000X0.170000X-0.140000X0.170000X-0.140000X-0.170000X0.140000X-0.170000X0*%
%TD*%
%TA.AperFunction,SMDPad,CuDef*%
%ADD36RoundRect,0.150000X-0.150000X0.587500X-0.150000X-0.587500X0.150000X-0.587500X0.150000X0.587500X0*%
%TD*%
%TA.AperFunction,SMDPad,CuDef*%
%ADD37RoundRect,0.135000X-0.135000X-0.185000X0.135000X-0.185000X0.135000X0.185000X-0.135000X0.185000X0*%
%TD*%
%TA.AperFunction,SMDPad,CuDef*%
%ADD38R,1.000000X1.500000*%
%TD*%
%TA.AperFunction,SMDPad,CuDef*%
%ADD39RoundRect,0.150000X0.512500X0.150000X-0.512500X0.150000X-0.512500X-0.150000X0.512500X-0.150000X0*%
%TD*%
%TA.AperFunction,SMDPad,CuDef*%
%ADD40RoundRect,0.135000X0.185000X-0.135000X0.185000X0.135000X-0.185000X0.135000X-0.185000X-0.135000X0*%
%TD*%
%TA.AperFunction,SMDPad,CuDef*%
%ADD41RoundRect,0.150000X-0.150000X0.512500X-0.150000X-0.512500X0.150000X-0.512500X0.150000X0.512500X0*%
%TD*%
%TA.AperFunction,SMDPad,CuDef*%
%ADD42RoundRect,0.250000X0.450000X-0.325000X0.450000X0.325000X-0.450000X0.325000X-0.450000X-0.325000X0*%
%TD*%
%TA.AperFunction,ViaPad*%
%ADD43C,0.600000*%
%TD*%
%TA.AperFunction,Conductor*%
%ADD44C,0.127000*%
%TD*%
%TA.AperFunction,Conductor*%
%ADD45C,0.500000*%
%TD*%
%TA.AperFunction,Conductor*%
%ADD46C,0.203200*%
%TD*%
%TA.AperFunction,Conductor*%
%ADD47C,0.200000*%
%TD*%
%TA.AperFunction,Conductor*%
%ADD48C,0.250000*%
%TD*%
G04 APERTURE END LIST*
%TA.AperFunction,EtchedComponent*%
G36*
X18000000Y-13050000D02*
G01*
X17500000Y-13050000D01*
X17500000Y-12650000D01*
X18000000Y-12650000D01*
X18000000Y-13050000D01*
G37*
%TD.AperFunction*%
%TA.AperFunction,EtchedComponent*%
G36*
X18000000Y-13850000D02*
G01*
X17500000Y-13850000D01*
X17500000Y-13450000D01*
X18000000Y-13450000D01*
X18000000Y-13850000D01*
G37*
%TD.AperFunction*%
D10*
X5000000Y-65000000D03*
D11*
X5000000Y-65000000D03*
D10*
X5000000Y-5000000D03*
D11*
X5000000Y-5000000D03*
D12*
X24000000Y-22000000D03*
X46000000Y-22000000D03*
D13*
X44600000Y-7000000D03*
X37400000Y-7000000D03*
D14*
X43250000Y-4500000D03*
X38750000Y-4500000D03*
D13*
X32600000Y-7000000D03*
X25400000Y-7000000D03*
D14*
X31250000Y-4500000D03*
X26750000Y-4500000D03*
D15*
X21500000Y-16625000D03*
X21500000Y-15375000D03*
D16*
X5960000Y-14500000D03*
D17*
X8500000Y-17040000D03*
X11040000Y-14500000D03*
D10*
X65000000Y-5000000D03*
D11*
X65000000Y-5000000D03*
D18*
X56725000Y-12075000D03*
D19*
X59265000Y-12075000D03*
X56725000Y-14615000D03*
X59265000Y-14615000D03*
X56725000Y-17155000D03*
X59265000Y-17155000D03*
X56725000Y-19695000D03*
X59265000Y-19695000D03*
X56725000Y-22235000D03*
X59265000Y-22235000D03*
X56725000Y-24775000D03*
X59265000Y-24775000D03*
X56725000Y-27315000D03*
X59265000Y-27315000D03*
X56725000Y-29855000D03*
X59265000Y-29855000D03*
X56725000Y-32395000D03*
X59265000Y-32395000D03*
X56725000Y-34935000D03*
X59265000Y-34935000D03*
D20*
X5630000Y-35180000D03*
D21*
X1450000Y-35180000D03*
D20*
X5630000Y-43820000D03*
D21*
X1450000Y-43820000D03*
D10*
X65000000Y-65000000D03*
D11*
X65000000Y-65000000D03*
D22*
X20562500Y-13810000D03*
X20562500Y-11910000D03*
X22437500Y-12860000D03*
D23*
X59375000Y-62637500D03*
X56300000Y-62637500D03*
D24*
X25750000Y-31750000D03*
D25*
X15430000Y-28870000D03*
X14410000Y-28870000D03*
D24*
X9500000Y-53000000D03*
D26*
X61250000Y-35390000D03*
X61250000Y-34430000D03*
D27*
X61980000Y-54480000D03*
X60710000Y-54480000D03*
X59440000Y-54480000D03*
X58170000Y-54480000D03*
X56900000Y-54480000D03*
X55630000Y-54480000D03*
X54360000Y-54480000D03*
X53090000Y-54480000D03*
X51820000Y-54480000D03*
X50550000Y-54480000D03*
X49280000Y-54480000D03*
X48010000Y-54480000D03*
X46740000Y-54480000D03*
X45470000Y-54480000D03*
D28*
X44220000Y-52715000D03*
X44220000Y-51445000D03*
X44220000Y-50175000D03*
X44220000Y-48905000D03*
X44220000Y-47635000D03*
X44220000Y-46365000D03*
X44220000Y-45095000D03*
X44220000Y-43825000D03*
X44220000Y-42555000D03*
X44220000Y-41285000D03*
X44220000Y-40015000D03*
X44220000Y-38745000D03*
D27*
X45470000Y-36980000D03*
X46740000Y-36980000D03*
X48010000Y-36980000D03*
X49280000Y-36980000D03*
X50550000Y-36980000D03*
X51820000Y-36980000D03*
X53090000Y-36980000D03*
X54360000Y-36980000D03*
X55630000Y-36980000D03*
X56900000Y-36980000D03*
X58170000Y-36980000D03*
X59440000Y-36980000D03*
X60710000Y-36980000D03*
X61980000Y-36980000D03*
D29*
X53560000Y-48630000D03*
X54960000Y-48630000D03*
X52860000Y-47930000D03*
X54260000Y-47930000D03*
X55660000Y-47930000D03*
X53560000Y-47230000D03*
D30*
X54260000Y-47230000D03*
D29*
X54960000Y-47230000D03*
X52860000Y-46530000D03*
X54260000Y-46530000D03*
X55660000Y-46530000D03*
X53560000Y-45830000D03*
X54960000Y-45830000D03*
D24*
X25750000Y-39250000D03*
D26*
X18000000Y-18480000D03*
X18000000Y-17520000D03*
X19500000Y-25230000D03*
X19500000Y-24270000D03*
X37236400Y-42418000D03*
X37236400Y-41458000D03*
D24*
X39000000Y-39250000D03*
D31*
X20000000Y-17490000D03*
X20000000Y-18510000D03*
D24*
X51250000Y-15750000D03*
D26*
X14750000Y-11980000D03*
X14750000Y-11020000D03*
X18000000Y-25230000D03*
X18000000Y-24270000D03*
D32*
X60895000Y-56975000D03*
X61855000Y-56975000D03*
D33*
X15837500Y-39210000D03*
X15837500Y-41110000D03*
X13962500Y-40160000D03*
D26*
X6000000Y-12480000D03*
X6000000Y-11520000D03*
D34*
X29413200Y-44941900D03*
X29413200Y-45901900D03*
D25*
X40510000Y-8750000D03*
X39490000Y-8750000D03*
D35*
X11500000Y-4500000D03*
X10540000Y-4500000D03*
D23*
X59387500Y-66050000D03*
X56312500Y-66050000D03*
D24*
X22000000Y-4500000D03*
D36*
X30990200Y-44934900D03*
X32890200Y-44934900D03*
X31940200Y-46809900D03*
D24*
X48250000Y-6750000D03*
X63750000Y-11500000D03*
D35*
X46300000Y-35440000D03*
X45340000Y-35440000D03*
D26*
X20726400Y-45878800D03*
X20726400Y-44918800D03*
D25*
X17510000Y-3250000D03*
X16490000Y-3250000D03*
D37*
X19740000Y-10570000D03*
X20760000Y-10570000D03*
D26*
X20750000Y-24730000D03*
X20750000Y-23770000D03*
D22*
X11062500Y-12450000D03*
X11062500Y-10550000D03*
X12937500Y-11500000D03*
D32*
X60895000Y-55975000D03*
X61855000Y-55975000D03*
D24*
X9500000Y-49750000D03*
D38*
X17100000Y-13250000D03*
X18400000Y-13250000D03*
D22*
X13062500Y-8950000D03*
X13062500Y-7050000D03*
X14937500Y-8000000D03*
D39*
X15137500Y-3550000D03*
X15137500Y-4500000D03*
X15137500Y-5450000D03*
X12862500Y-5450000D03*
X12862500Y-4500000D03*
X12862500Y-3550000D03*
D25*
X17510000Y-4250000D03*
X16490000Y-4250000D03*
D24*
X64750000Y-32500000D03*
D34*
X24282400Y-44918800D03*
X24282400Y-45878800D03*
D24*
X36250000Y-18750000D03*
X18000000Y-31750000D03*
D37*
X17310000Y-36460000D03*
X18330000Y-36460000D03*
D40*
X7000000Y-12510000D03*
X7000000Y-11490000D03*
D25*
X18330000Y-35450000D03*
X17310000Y-35450000D03*
D32*
X60920000Y-59000000D03*
X61880000Y-59000000D03*
X31206200Y-48666400D03*
X32166200Y-48666400D03*
D24*
X63750000Y-15250000D03*
D34*
X9250000Y-11020000D03*
X9250000Y-11980000D03*
X54102000Y-34346000D03*
X54102000Y-35306000D03*
D32*
X60895000Y-58000000D03*
X61855000Y-58000000D03*
X26952000Y-48260000D03*
X27912000Y-48260000D03*
D24*
X38750000Y-21500000D03*
X29000000Y-25250000D03*
D26*
X19000000Y-18480000D03*
X19000000Y-17520000D03*
D23*
X59362500Y-59250000D03*
X56287500Y-59250000D03*
D41*
X18250000Y-20062500D03*
X19200000Y-20062500D03*
X20150000Y-20062500D03*
X20150000Y-22337500D03*
X19200000Y-22337500D03*
X18250000Y-22337500D03*
D33*
X37937500Y-9050000D03*
X37937500Y-10950000D03*
X36062500Y-10000000D03*
D42*
X22504400Y-46795800D03*
X22504400Y-44745800D03*
D24*
X63750000Y-18750000D03*
X25750000Y-41750000D03*
X20750000Y-31750000D03*
D34*
X34512200Y-44932900D03*
X34512200Y-45892900D03*
D24*
X48250000Y-9750000D03*
D25*
X24740000Y-15150000D03*
X23720000Y-15150000D03*
D24*
X39000000Y-44750000D03*
D34*
X18000000Y-39480000D03*
X18000000Y-40440000D03*
X36068000Y-44935200D03*
X36068000Y-45895200D03*
D36*
X25923200Y-44934900D03*
X27823200Y-44934900D03*
X26873200Y-46809900D03*
D22*
X24562500Y-13800000D03*
X24562500Y-11900000D03*
X26437500Y-12850000D03*
D24*
X48250000Y-13000000D03*
X21000000Y-39250000D03*
X38750000Y-25250000D03*
D37*
X14410000Y-29880000D03*
X15430000Y-29880000D03*
D24*
X32000000Y-42500000D03*
D33*
X15837500Y-35700000D03*
X15837500Y-37600000D03*
X13962500Y-36650000D03*
D43*
X58740000Y-57010000D03*
X28500000Y-59000000D03*
X6000000Y-11000000D03*
X39850000Y-32870000D03*
X28469205Y-58050000D03*
X11750000Y-3500000D03*
X13500000Y-37500000D03*
X22000000Y-31750000D03*
X26000000Y-60000000D03*
X11800000Y-59400000D03*
X64250000Y-20500000D03*
X62500000Y-57000000D03*
X56500000Y-64000000D03*
X10350000Y-41025000D03*
X53000000Y-11500000D03*
X37000000Y-33000000D03*
X33000000Y-30500000D03*
X51000000Y-28500000D03*
X18250000Y-3750000D03*
X32896917Y-48779083D03*
X11000000Y-13000000D03*
X55500000Y-66925500D03*
X55500000Y-2500000D03*
X59584483Y-52218483D03*
X17250000Y-17500000D03*
X10000000Y-37250000D03*
X20500000Y-28250000D03*
X28000000Y-60000000D03*
X13249500Y-46990000D03*
X48650000Y-56550000D03*
X24638000Y-46440000D03*
X60000000Y-44000000D03*
X7300000Y-43575000D03*
X12725000Y-60775000D03*
X66000000Y-33750000D03*
X10621692Y-44835022D03*
X63000000Y-56500000D03*
X20250000Y-57767600D03*
X19500000Y-26250000D03*
X8000000Y-27000000D03*
X17025000Y-51500000D03*
X57658000Y-50546000D03*
X55118000Y-52070000D03*
X20088035Y-44911965D03*
X51054000Y-53086000D03*
X18500000Y-28250000D03*
X62500000Y-56000000D03*
X56500000Y-58000000D03*
X7234026Y-24150065D03*
X2625000Y-31650000D03*
X29750000Y-42500000D03*
X19500000Y-28250000D03*
X65975000Y-18125000D03*
X12610000Y-65980000D03*
X7475000Y-35500000D03*
X55000000Y-39000000D03*
X15900000Y-50600000D03*
X62353000Y-52983229D03*
X3240938Y-21030000D03*
X32000000Y-18500000D03*
X52324000Y-44704000D03*
X42000000Y-18000000D03*
X10000000Y-24750000D03*
X11800000Y-60325000D03*
X32000000Y-13000000D03*
X22750000Y-60000000D03*
X55500000Y-59000000D03*
X33000000Y-35500000D03*
X49250000Y-13500000D03*
X63000000Y-57500000D03*
X21000000Y-44000000D03*
X10750000Y-40000000D03*
X46999146Y-35422111D03*
X55500000Y-58000000D03*
X52578000Y-53086000D03*
X41500000Y-8750000D03*
X11250000Y-27000000D03*
X14800000Y-50600000D03*
X40000000Y-54000000D03*
X55906500Y-6750000D03*
X9700000Y-47450000D03*
X11800000Y-57750000D03*
X20250000Y-54500000D03*
X35306000Y-46882000D03*
X18100000Y-11625000D03*
X16200000Y-66700000D03*
X60250000Y-53000000D03*
X9750000Y-27000000D03*
X28000000Y-66000000D03*
X7700000Y-45200000D03*
X39750000Y-22250000D03*
X28000000Y-35000000D03*
X65950000Y-27525000D03*
X45000000Y-31000000D03*
X46750000Y-57650000D03*
X25300000Y-15160000D03*
X29000000Y-27000000D03*
X28448000Y-48260000D03*
X14900000Y-52300000D03*
X48250000Y-44629123D03*
X62500000Y-59000000D03*
X62500000Y-58000000D03*
X31500000Y-66000000D03*
X24384000Y-25908000D03*
X21250000Y-53000000D03*
X55500000Y-65000000D03*
X55500000Y-62000000D03*
X28000000Y-38000000D03*
X8250000Y-53000000D03*
X12500000Y-27000000D03*
X20102600Y-44000000D03*
X40443828Y-44750863D03*
X36250000Y-42250000D03*
X38110000Y-49070000D03*
X13800000Y-28860000D03*
X55500000Y-66000000D03*
X35020000Y-39870000D03*
X17200000Y-66750000D03*
X30000000Y-38000000D03*
X14500000Y-2750000D03*
X29413200Y-46440000D03*
X33000000Y-33000000D03*
X37500000Y-38000000D03*
X12750000Y-37500000D03*
X9600000Y-41075000D03*
X56750000Y-6750000D03*
X7475000Y-34625000D03*
X15110000Y-23580000D03*
X37000000Y-13000000D03*
X46750000Y-8000000D03*
X23000000Y-41000000D03*
X59500000Y-40000000D03*
X12306655Y-44180096D03*
X13225000Y-66575000D03*
X19250000Y-56250000D03*
X10000000Y-4500000D03*
X53990000Y-33650000D03*
X26390000Y-44890000D03*
X62000000Y-36000000D03*
X23750000Y-60000000D03*
X10750000Y-38000000D03*
X66025000Y-11550000D03*
X27000000Y-60000000D03*
X9250000Y-13000000D03*
X42000000Y-13000000D03*
X58166000Y-47244000D03*
X37290000Y-67200000D03*
X55500000Y-60000000D03*
X55500000Y-63000000D03*
X49500000Y-38500000D03*
X56500000Y-61500000D03*
X44525000Y-57650000D03*
X18173800Y-37155053D03*
X63750000Y-16250000D03*
X48000000Y-29000000D03*
X25250000Y-40000000D03*
X23876000Y-46440000D03*
X21250000Y-56250000D03*
X61750000Y-2750000D03*
X62500000Y-33750000D03*
X25000000Y-60000000D03*
X20250000Y-51500000D03*
X10000000Y-25750000D03*
X11825000Y-58550000D03*
X7229838Y-23485458D03*
X30930000Y-46790000D03*
X18000000Y-26250000D03*
X14750000Y-13126576D03*
X30000000Y-45800000D03*
X36000000Y-58000000D03*
X62000000Y-37000000D03*
X39000000Y-11000000D03*
X54000000Y-59500000D03*
X20750000Y-25250000D03*
X40700000Y-52050000D03*
X52000000Y-34000000D03*
X36068000Y-46440000D03*
X21844000Y-28448000D03*
X21750000Y-60000000D03*
X37250000Y-40825000D03*
X24260000Y-11050000D03*
X38500000Y-27000000D03*
X14250000Y-37500000D03*
X28500000Y-13000000D03*
X34280000Y-46530000D03*
X32000000Y-27000000D03*
X56388000Y-51308000D03*
X23539191Y-36987921D03*
X61000000Y-53000000D03*
X53848000Y-52578000D03*
X18300000Y-10500000D03*
X32000000Y-21000000D03*
X7300000Y-44450000D03*
X53350000Y-42199998D03*
X11350000Y-41925000D03*
X19200000Y-19200000D03*
X66125000Y-20650000D03*
X19250000Y-53000000D03*
X26162000Y-53806000D03*
X44610000Y-61620000D03*
X15900000Y-52300000D03*
X62000000Y-38000000D03*
X69000000Y-29000000D03*
X20000000Y-69000000D03*
X30000000Y-1000000D03*
X20000000Y-1000000D03*
X1000000Y-29000000D03*
X41000000Y-69000000D03*
X41000000Y-1000000D03*
X10000000Y-69000000D03*
X1000000Y-40000000D03*
X6000000Y-56000000D03*
X6000000Y-49000000D03*
X10000000Y-1000000D03*
X50000000Y-69000000D03*
X30000000Y-69000000D03*
X69000000Y-9000000D03*
X1000000Y-62000000D03*
X60000000Y-1000000D03*
X50000000Y-1000000D03*
X69000000Y-59000000D03*
X1000000Y-9000000D03*
X69000000Y-19000000D03*
X1000000Y-19000000D03*
X60000000Y-69000000D03*
X29000000Y-54000000D03*
X8685000Y-30745000D03*
X6815000Y-30715000D03*
X56500000Y-10000000D03*
X28200000Y-52450000D03*
X29000000Y-55000000D03*
X29000000Y-56000000D03*
X7795000Y-30725000D03*
X55750000Y-10000000D03*
X2730000Y-23438550D03*
X29000000Y-53000000D03*
X15750000Y-54500000D03*
X14850000Y-54450000D03*
X14000000Y-54500000D03*
X12680000Y-53500000D03*
X61000000Y-63500000D03*
X55750000Y-8500000D03*
X33000000Y-62500000D03*
X54000000Y-61500000D03*
X49470000Y-66530000D03*
X63000000Y-32250000D03*
X61000000Y-62500000D03*
X33020000Y-63458000D03*
X32004000Y-63458000D03*
X19000000Y-58000000D03*
X62250000Y-32250000D03*
X32000000Y-62500000D03*
X63000000Y-31500000D03*
X56500000Y-8500000D03*
X62250000Y-31500000D03*
X61000000Y-61625000D03*
X50249992Y-39647776D03*
X60750000Y-3000000D03*
X63000000Y-20500000D03*
X59410000Y-54770000D03*
X59385200Y-52933600D03*
X63250000Y-12250000D03*
X54250000Y-35840000D03*
X53500000Y-23000000D03*
X30010000Y-45000000D03*
X33680000Y-44600000D03*
X51308000Y-52324000D03*
X37250000Y-42500000D03*
X11000000Y-34750000D03*
X8100000Y-41300000D03*
X10000000Y-34728358D03*
X8050000Y-42750000D03*
X8075000Y-42025000D03*
X45261500Y-57650000D03*
X45988500Y-57650000D03*
X56250000Y-3000000D03*
X58369200Y-38455600D03*
X52750000Y-10250000D03*
X47500000Y-8000000D03*
X54750000Y-3000000D03*
X56794400Y-38455600D03*
X52140000Y-39050000D03*
X53860000Y-38500000D03*
X58216800Y-48310800D03*
X56946800Y-49987200D03*
X55575200Y-50647600D03*
X54356000Y-51358800D03*
X53035200Y-52070000D03*
X49784000Y-52832000D03*
X49276000Y-55829200D03*
X47720000Y-56050000D03*
X34750000Y-42500000D03*
X33223200Y-42250000D03*
X38130000Y-50110000D03*
X40993594Y-51056006D03*
X39776400Y-52019200D03*
X51206400Y-44704000D03*
X45590002Y-34036000D03*
X31500000Y-41000000D03*
X30500000Y-41000000D03*
X47500000Y-44000000D03*
X46320000Y-33150000D03*
X6025971Y-22366501D03*
X16750000Y-29250000D03*
X3346394Y-34305199D03*
X5358517Y-38311483D03*
X47500000Y-42500000D03*
X5290000Y-40860000D03*
X4070000Y-34370000D03*
X23114000Y-25908000D03*
X21844000Y-27432000D03*
X43850000Y-38630000D03*
X43850000Y-30690000D03*
X41780000Y-31510000D03*
X41200000Y-35110000D03*
X55570000Y-38490000D03*
X42090000Y-37010000D03*
X40480000Y-30970000D03*
X4720000Y-21250000D03*
X44480000Y-32220000D03*
X44490000Y-35160000D03*
X40880000Y-29460000D03*
X42160000Y-35780000D03*
X25600000Y-9500000D03*
X46820000Y-30080000D03*
X13250000Y-62790000D03*
X29750000Y-58190000D03*
X31500000Y-8900000D03*
X35353517Y-45046483D03*
X17580000Y-34570000D03*
D44*
X40510000Y-8750000D02*
X41500000Y-8750000D01*
X6000000Y-11520000D02*
X6000000Y-11000000D01*
D45*
X19500000Y-25500000D02*
X20270000Y-24730000D01*
D44*
X25290000Y-15150000D02*
X25300000Y-15160000D01*
X29720100Y-45890000D02*
X29910000Y-45890000D01*
X62000000Y-38000000D02*
X62000000Y-37000000D01*
X40074691Y-45120000D02*
X40443828Y-44750863D01*
X32461200Y-48836200D02*
X32518317Y-48779083D01*
X11062500Y-12450000D02*
X11062500Y-12937500D01*
X20750000Y-31750000D02*
X22000000Y-31750000D01*
X30990200Y-45819800D02*
X30930000Y-45880000D01*
X11800000Y-3550000D02*
X11750000Y-3500000D01*
X36068000Y-46190200D02*
X36068000Y-46440000D01*
X37236400Y-40838600D02*
X37250000Y-40825000D01*
X61250000Y-34430000D02*
X61930000Y-33750000D01*
X39370000Y-45120000D02*
X40074691Y-45120000D01*
X25968100Y-44890000D02*
X26390000Y-44890000D01*
D45*
X18000000Y-25525000D02*
X18000000Y-26250000D01*
D44*
X25750000Y-39500000D02*
X25250000Y-40000000D01*
X18330000Y-36998853D02*
X18173800Y-37155053D01*
X38750000Y-21500000D02*
X39500000Y-22250000D01*
D45*
X20000000Y-17490000D02*
X18030000Y-17490000D01*
D44*
X30920000Y-45890000D02*
X30930000Y-45880000D01*
X20302500Y-11910000D02*
X18385000Y-11910000D01*
D45*
X9500000Y-53000000D02*
X8250000Y-53000000D01*
D44*
X48750000Y-13000000D02*
X49250000Y-13500000D01*
X17510000Y-3250000D02*
X17750000Y-3250000D01*
X46981257Y-35440000D02*
X46999146Y-35422111D01*
D45*
X20270000Y-24730000D02*
X20750000Y-24730000D01*
D44*
X30990200Y-44934900D02*
X30990200Y-45819800D01*
X37937500Y-10950000D02*
X38950000Y-10950000D01*
X12862500Y-3550000D02*
X11800000Y-3550000D01*
X29910000Y-45890000D02*
X30000000Y-45800000D01*
X18370000Y-10570000D02*
X18300000Y-10500000D01*
X24260000Y-11887500D02*
X24260000Y-11050000D01*
X24740000Y-15150000D02*
X25290000Y-15150000D01*
D45*
X18000000Y-17520000D02*
X17270000Y-17520000D01*
X19200000Y-20062500D02*
X19200000Y-19200000D01*
D44*
X39500000Y-22250000D02*
X39750000Y-22250000D01*
D45*
X19500000Y-25525000D02*
X19500000Y-26250000D01*
D44*
X14410000Y-28870000D02*
X13810000Y-28870000D01*
X13810000Y-28870000D02*
X13800000Y-28860000D01*
D45*
X20750000Y-24730000D02*
X20750000Y-25250000D01*
D44*
X37236400Y-41458000D02*
X37236400Y-40838600D01*
D45*
X17270000Y-17520000D02*
X17250000Y-17500000D01*
D44*
X10540000Y-4500000D02*
X10000000Y-4500000D01*
X14750000Y-13126576D02*
X14750000Y-12275000D01*
X29413200Y-46440000D02*
X29413200Y-46196900D01*
D45*
X19500000Y-25525000D02*
X19500000Y-25500000D01*
D44*
X18330000Y-36460000D02*
X18330000Y-36998853D01*
X27912000Y-48260000D02*
X28448000Y-48260000D01*
X18385000Y-11910000D02*
X18100000Y-11625000D01*
X14284500Y-2965500D02*
X14500000Y-2750000D01*
X54102000Y-34346000D02*
X54102000Y-33762000D01*
X17750000Y-4250000D02*
X18250000Y-3750000D01*
X14943460Y-4500000D02*
X14284500Y-3841040D01*
X32518317Y-48779083D02*
X32896917Y-48779083D01*
X14284500Y-3841040D02*
X14284500Y-2965500D01*
X9250000Y-12275000D02*
X9250000Y-13000000D01*
X11062500Y-12937500D02*
X11000000Y-13000000D01*
X61930000Y-33750000D02*
X62500000Y-33750000D01*
X17510000Y-4250000D02*
X17750000Y-4250000D01*
X63750000Y-15250000D02*
X63750000Y-16250000D01*
X17750000Y-3250000D02*
X18250000Y-3750000D01*
D45*
X18000000Y-25525000D02*
X19500000Y-25525000D01*
D44*
X34512200Y-46440000D02*
X34512200Y-46187900D01*
X46300000Y-35440000D02*
X46981257Y-35440000D01*
X19740000Y-10570000D02*
X18370000Y-10570000D01*
X54102000Y-33762000D02*
X53990000Y-33650000D01*
D45*
X62000000Y-36000000D02*
X62000000Y-38000000D01*
D44*
X38950000Y-10950000D02*
X39000000Y-11000000D01*
D46*
X13750000Y-11500000D02*
X12937500Y-11500000D01*
X2730000Y-23438550D02*
X2730000Y-23020000D01*
X15453600Y-14546400D02*
X15453600Y-11428600D01*
X3750000Y-21268492D02*
X4250000Y-20768492D01*
D45*
X19230000Y-34480000D02*
X19230000Y-34730000D01*
X10665000Y-30745000D02*
X13880000Y-33960000D01*
X23450000Y-52450000D02*
X28200000Y-52450000D01*
X59265000Y-11015000D02*
X59265000Y-12075000D01*
X13880000Y-33960000D02*
X13947000Y-33893000D01*
D46*
X13880000Y-33960000D02*
X13880000Y-36567500D01*
X14750000Y-10725000D02*
X14525000Y-10725000D01*
X3750000Y-22000000D02*
X3750000Y-21268492D01*
D45*
X18643000Y-33893000D02*
X19230000Y-34480000D01*
D46*
X4250000Y-19750000D02*
X4750000Y-19250000D01*
X10750000Y-19250000D02*
X15453600Y-14546400D01*
D45*
X13947000Y-33893000D02*
X18643000Y-33893000D01*
D46*
X2730000Y-23020000D02*
X3750000Y-22000000D01*
D45*
X19230000Y-38250000D02*
X20000000Y-38250000D01*
X8685000Y-30745000D02*
X10665000Y-30745000D01*
X56500000Y-10000000D02*
X58250000Y-10000000D01*
X19230000Y-42270000D02*
X17430000Y-44070000D01*
X17430000Y-46430000D02*
X23450000Y-52450000D01*
X20000000Y-38250000D02*
X21000000Y-39250000D01*
X19230000Y-38250000D02*
X19230000Y-42270000D01*
X19230000Y-34730000D02*
X19230000Y-38250000D01*
X17430000Y-44070000D02*
X17430000Y-46430000D01*
X58250000Y-10000000D02*
X59265000Y-11015000D01*
D46*
X4250000Y-20768492D02*
X4250000Y-19750000D01*
X13880000Y-33960000D02*
X10635000Y-30715000D01*
X4750000Y-19250000D02*
X10750000Y-19250000D01*
X15453600Y-11428600D02*
X14750000Y-10725000D01*
D45*
X13962500Y-34042500D02*
X13880000Y-33960000D01*
D46*
X10635000Y-30715000D02*
X6815000Y-30715000D01*
X14525000Y-10725000D02*
X13750000Y-11500000D01*
D45*
X13962500Y-36650000D02*
X13962500Y-34042500D01*
X11771288Y-37968788D02*
X13962500Y-40160000D01*
X14410000Y-30410000D02*
X15750000Y-31750000D01*
X11771288Y-33521288D02*
X11771288Y-37968788D01*
X15750000Y-31750000D02*
X18000000Y-31750000D01*
X12573000Y-53393000D02*
X12573000Y-45427000D01*
X13962500Y-44037500D02*
X13962500Y-40160000D01*
X5625000Y-30125000D02*
X5625000Y-31995000D01*
X12573000Y-45427000D02*
X13962500Y-44037500D01*
X5625000Y-31995000D02*
X6320000Y-32690000D01*
X14410000Y-29880000D02*
X5870000Y-29880000D01*
X14410000Y-29880000D02*
X14410000Y-30410000D01*
X6320000Y-32690000D02*
X10940000Y-32690000D01*
X12680000Y-53500000D02*
X12573000Y-53393000D01*
X5870000Y-29880000D02*
X5625000Y-30125000D01*
X10940000Y-32690000D02*
X11771288Y-33521288D01*
D44*
X6000000Y-12480000D02*
X6970000Y-12480000D01*
X30209500Y-3459500D02*
X31250000Y-4500000D01*
X13990500Y-2259500D02*
X20259500Y-2259500D01*
X11500000Y-4500000D02*
X8504000Y-7496000D01*
X3750000Y-11750000D02*
X3750000Y-15250000D01*
X7000000Y-12510000D02*
X7490000Y-12510000D01*
X13750000Y-2500000D02*
X13990500Y-2259500D01*
X22000000Y-4500000D02*
X23040500Y-3459500D01*
X22000000Y-4000000D02*
X22000000Y-4500000D01*
X8004000Y-7496000D02*
X3750000Y-11750000D01*
X12862500Y-4500000D02*
X11500000Y-4500000D01*
X9425000Y-10550000D02*
X9250000Y-10725000D01*
X6492500Y-17992500D02*
X9257500Y-17992500D01*
X13056540Y-4500000D02*
X13750000Y-3806540D01*
X5960000Y-12520000D02*
X5960000Y-14500000D01*
X3750000Y-15250000D02*
X6492500Y-17992500D01*
X11062500Y-10550000D02*
X9425000Y-10550000D01*
X9750000Y-17500000D02*
X9750000Y-14770000D01*
X7490000Y-12510000D02*
X9250000Y-10750000D01*
X23040500Y-3459500D02*
X30209500Y-3459500D01*
X20259500Y-2259500D02*
X22000000Y-4000000D01*
X8504000Y-7496000D02*
X8004000Y-7496000D01*
X9750000Y-14770000D02*
X7490000Y-12510000D01*
X9257500Y-17992500D02*
X9750000Y-17500000D01*
X9250000Y-10750000D02*
X9250000Y-10725000D01*
X13750000Y-3806540D02*
X13750000Y-2500000D01*
D45*
X56725000Y-12075000D02*
X54825000Y-12075000D01*
D46*
X53630000Y-62720000D02*
X53630000Y-67502500D01*
X32000000Y-57250000D02*
X20500000Y-57250000D01*
D45*
X53730000Y-67602500D02*
X49602500Y-67602500D01*
D46*
X53630000Y-62720000D02*
X54000000Y-62350000D01*
D45*
X55750000Y-8500000D02*
X54750000Y-9500000D01*
X58997500Y-67602500D02*
X53730000Y-67602500D01*
X21270000Y-23770000D02*
X20750000Y-23770000D01*
X59387500Y-66050000D02*
X59387500Y-67212500D01*
X22045800Y-46795800D02*
X21423800Y-46173800D01*
X32000000Y-51250000D02*
X32000000Y-57250000D01*
X54750000Y-9500000D02*
X54750000Y-12000000D01*
D46*
X49470000Y-66530000D02*
X49470000Y-67470000D01*
D45*
X19000000Y-45670000D02*
X19000000Y-43500000D01*
X20750000Y-23770000D02*
X18205000Y-23770000D01*
X53000000Y-14500000D02*
X53000000Y-15750000D01*
X21423800Y-46173800D02*
X19503800Y-46173800D01*
X32000000Y-57250000D02*
X32000000Y-62500000D01*
D46*
X20500000Y-57250000D02*
X20489000Y-57239000D01*
D45*
X23000000Y-27250000D02*
X22000000Y-26250000D01*
D46*
X19761000Y-57239000D02*
X19000000Y-58000000D01*
D45*
X54825000Y-12075000D02*
X54750000Y-12000000D01*
X59387500Y-67212500D02*
X58997500Y-67602500D01*
X54750000Y-12750000D02*
X53000000Y-14500000D01*
X51250000Y-15750000D02*
X53000000Y-15750000D01*
X22000000Y-26250000D02*
X22000000Y-24500000D01*
X63000000Y-31500000D02*
X62000000Y-30500000D01*
X60895000Y-56975000D02*
X60895000Y-57220000D01*
X18205000Y-23770000D02*
X18000000Y-23975000D01*
X23000000Y-36579354D02*
X23000000Y-27250000D01*
X55718000Y-18468000D02*
X53000000Y-15750000D01*
D46*
X20489000Y-57239000D02*
X19761000Y-57239000D01*
D45*
X60895000Y-55975000D02*
X60895000Y-54665000D01*
X59968000Y-18468000D02*
X55718000Y-18468000D01*
X31500000Y-50750000D02*
X32000000Y-51250000D01*
D46*
X53630000Y-67502500D02*
X53730000Y-67602500D01*
D45*
X60895000Y-55975000D02*
X60895000Y-56975000D01*
X19503800Y-46173800D02*
X19000000Y-45670000D01*
X22448000Y-40052000D02*
X22448000Y-37131354D01*
X22504400Y-46795800D02*
X26458600Y-50750000D01*
X22448000Y-37131354D02*
X23000000Y-36579354D01*
D46*
X49470000Y-67470000D02*
X49602500Y-67602500D01*
X54000000Y-61500000D02*
X54000000Y-62350000D01*
D45*
X49602500Y-67602500D02*
X44500000Y-62500000D01*
X22504400Y-46795800D02*
X22045800Y-46795800D01*
X54750000Y-12000000D02*
X54750000Y-12750000D01*
X62000000Y-20500000D02*
X59968000Y-18468000D01*
X19000000Y-43500000D02*
X22448000Y-40052000D01*
X19200000Y-22337500D02*
X19200000Y-23675000D01*
X44500000Y-62500000D02*
X33000000Y-62500000D01*
X26458600Y-50750000D02*
X31500000Y-50750000D01*
X22000000Y-24500000D02*
X21270000Y-23770000D01*
X19200000Y-23675000D02*
X19500000Y-23975000D01*
X62000000Y-30500000D02*
X62000000Y-20500000D01*
D44*
X56725000Y-17155000D02*
X57880000Y-16000000D01*
X63750000Y-18750000D02*
X63000000Y-18750000D01*
X50141269Y-39756499D02*
X50249992Y-39647776D01*
X61609500Y-3859500D02*
X61609500Y-7359500D01*
X65000000Y-10750000D02*
X65000000Y-12750000D01*
X45470000Y-37280000D02*
X47946499Y-39756499D01*
X63000000Y-18750000D02*
X63000000Y-20500000D01*
X47946499Y-39756499D02*
X50141269Y-39756499D01*
X63000000Y-16000000D02*
X63000000Y-18750000D01*
X63000000Y-14750000D02*
X63000000Y-16000000D01*
X61609500Y-7359500D02*
X65000000Y-10750000D01*
X57880000Y-16000000D02*
X63000000Y-16000000D01*
X60750000Y-3000000D02*
X61609500Y-3859500D01*
X65000000Y-12750000D02*
X63000000Y-14750000D01*
X45470000Y-35570000D02*
X45470000Y-36980000D01*
X60884500Y-13115500D02*
X61750000Y-12250000D01*
X63750000Y-11750000D02*
X63250000Y-12250000D01*
X59385200Y-52933600D02*
X59440000Y-52988400D01*
X59440000Y-52988400D02*
X59440000Y-54480000D01*
X58224500Y-13115500D02*
X60884500Y-13115500D01*
X61750000Y-12250000D02*
X63250000Y-12250000D01*
X56725000Y-14615000D02*
X58224500Y-13115500D01*
X42610000Y-12110000D02*
X53500000Y-23000000D01*
X42610000Y-8360000D02*
X42610000Y-12110000D01*
X54102000Y-35642000D02*
X54102000Y-35306000D01*
X54360000Y-36980000D02*
X54360000Y-35900000D01*
X54250000Y-35840000D02*
X54250000Y-36870000D01*
X54360000Y-35900000D02*
X54102000Y-35642000D01*
X38750000Y-4500000D02*
X42610000Y-8360000D01*
X30010000Y-45000000D02*
X29471300Y-45000000D01*
X27250000Y-42750000D02*
X27250000Y-44361700D01*
X26250000Y-41750000D02*
X27250000Y-42750000D01*
X27250000Y-44361700D02*
X27750000Y-44861700D01*
X25750000Y-41750000D02*
X26250000Y-41750000D01*
X27823200Y-44934900D02*
X29125200Y-44934900D01*
X33560000Y-44637900D02*
X33187200Y-44637900D01*
X34512200Y-44637900D02*
X33560000Y-44637900D01*
X33187200Y-44637900D02*
X32890200Y-44934900D01*
X32750000Y-43000000D02*
X32000000Y-43000000D01*
X33560000Y-43810000D02*
X32750000Y-43000000D01*
X33560000Y-44637900D02*
X33560000Y-43810000D01*
X51820000Y-52836000D02*
X51308000Y-52324000D01*
X51820000Y-54480000D02*
X51820000Y-52836000D01*
D45*
X8750000Y-43450000D02*
X8750000Y-49000000D01*
X8050000Y-42750000D02*
X8750000Y-43450000D01*
X8100000Y-36628358D02*
X10000000Y-34728358D01*
X8750000Y-49000000D02*
X9500000Y-49750000D01*
X8100000Y-41300000D02*
X8100000Y-36628358D01*
D47*
X45492724Y-56213500D02*
X43617724Y-56213500D01*
X43617724Y-56213500D02*
X43013500Y-56817724D01*
X45461500Y-57850000D02*
X45261500Y-57650000D01*
X46268500Y-55437724D02*
X45492724Y-56213500D01*
X43013500Y-56817724D02*
X43013500Y-58257276D01*
X45461500Y-58482276D02*
X45461500Y-57850000D01*
X46268500Y-55251500D02*
X46268500Y-55437724D01*
X43967724Y-59211500D02*
X44732276Y-59211500D01*
X46740000Y-54780000D02*
X46268500Y-55251500D01*
X44732276Y-59211500D02*
X45461500Y-58482276D01*
X43013500Y-58257276D02*
X43967724Y-59211500D01*
X43482276Y-55886500D02*
X42686500Y-56682276D01*
X45788500Y-57850000D02*
X45988500Y-57650000D01*
X45941500Y-55251500D02*
X45941500Y-55302276D01*
X45470000Y-54780000D02*
X45941500Y-55251500D01*
X43832276Y-59538500D02*
X44867724Y-59538500D01*
X44867724Y-59538500D02*
X45788500Y-58617724D01*
X45357276Y-55886500D02*
X43482276Y-55886500D01*
X45788500Y-58617724D02*
X45788500Y-57850000D01*
X45941500Y-55302276D02*
X45357276Y-55886500D01*
X42686500Y-56682276D02*
X42686500Y-58392724D01*
X42686500Y-58392724D02*
X43832276Y-59538500D01*
D44*
X51189050Y-9439050D02*
X51189050Y-6750000D01*
X51189050Y-6750000D02*
X51900000Y-6039050D01*
X52750000Y-10250000D02*
X52000000Y-10250000D01*
X53210950Y-6039050D02*
X56250000Y-3000000D01*
X48250000Y-6750000D02*
X51189050Y-6750000D01*
X52000000Y-10250000D02*
X51189050Y-9439050D01*
X51900000Y-6039050D02*
X53210950Y-6039050D01*
X58170000Y-38256400D02*
X58170000Y-36980000D01*
X58369200Y-38455600D02*
X58170000Y-38256400D01*
X53666184Y-4083816D02*
X48916184Y-4083816D01*
X47500000Y-7500000D02*
X47500000Y-8000000D01*
X54750000Y-3000000D02*
X53666184Y-4083816D01*
X48916184Y-4083816D02*
X47500000Y-5500000D01*
X56900000Y-38350000D02*
X56900000Y-36980000D01*
X47500000Y-9250000D02*
X48000000Y-9750000D01*
X47500000Y-7500000D02*
X47500000Y-9250000D01*
X47500000Y-5500000D02*
X47500000Y-7500000D01*
X56794400Y-38455600D02*
X56900000Y-38350000D01*
X50550000Y-37460000D02*
X52140000Y-39050000D01*
X51820000Y-37280000D02*
X53040000Y-38500000D01*
X53040000Y-38500000D02*
X53860000Y-38500000D01*
X58216800Y-48310800D02*
X58170000Y-48357600D01*
X58170000Y-48357600D02*
X58170000Y-54480000D01*
X56946800Y-49987200D02*
X56900000Y-50034000D01*
X56900000Y-50034000D02*
X56900000Y-54480000D01*
X55575200Y-50647600D02*
X55630000Y-50702400D01*
X55630000Y-50702400D02*
X55630000Y-54480000D01*
X54360000Y-51362800D02*
X54360000Y-54480000D01*
X54356000Y-51358800D02*
X54360000Y-51362800D01*
X53035200Y-52070000D02*
X53090000Y-52124800D01*
X53090000Y-52124800D02*
X53090000Y-54480000D01*
X50546000Y-54476000D02*
X50546000Y-53594000D01*
X50546000Y-53594000D02*
X49784000Y-52832000D01*
X49276000Y-55829200D02*
X49280000Y-55825200D01*
X49280000Y-55825200D02*
X49280000Y-54480000D01*
X48010000Y-54480000D02*
X48010000Y-55760000D01*
X48010000Y-55760000D02*
X47720000Y-56050000D01*
X40577500Y-43022500D02*
X43920000Y-46365000D01*
X35272500Y-43022500D02*
X34750000Y-42500000D01*
X40577500Y-43022500D02*
X35272500Y-43022500D01*
X51030000Y-34620000D02*
X37980000Y-34620000D01*
X33223200Y-39376800D02*
X33223200Y-42250000D01*
X37980000Y-34620000D02*
X33223200Y-39376800D01*
X53090000Y-36680000D02*
X51030000Y-34620000D01*
X39010000Y-53060000D02*
X38130000Y-52180000D01*
X41500000Y-51640000D02*
X42965000Y-50175000D01*
X41190000Y-53060000D02*
X39010000Y-53060000D01*
X38130000Y-52180000D02*
X38130000Y-50110000D01*
X41500000Y-52750000D02*
X41190000Y-53060000D01*
X44220000Y-50175000D02*
X42965000Y-50175000D01*
X41500000Y-51640000D02*
X41500000Y-52750000D01*
X43144600Y-48905000D02*
X40993594Y-51056006D01*
X44220000Y-48905000D02*
X43144600Y-48905000D01*
X42738200Y-47635000D02*
X39776400Y-50596800D01*
X44220000Y-47635000D02*
X42738200Y-47635000D01*
X39776400Y-50596800D02*
X39776400Y-52019200D01*
X44220000Y-52715000D02*
X48275400Y-52715000D01*
X37750000Y-34250000D02*
X31500000Y-40500000D01*
X57765500Y-30285990D02*
X57765500Y-25815500D01*
X45590000Y-34036000D02*
X50975470Y-34036000D01*
X57765500Y-25815500D02*
X56725000Y-24775000D01*
X51206400Y-49784000D02*
X51206400Y-44704000D01*
X50975470Y-34036000D02*
X54011470Y-31000000D01*
X48275400Y-52715000D02*
X51206400Y-49784000D01*
X45590000Y-34036000D02*
X45376000Y-34250000D01*
X31500000Y-40500000D02*
X31500000Y-41000000D01*
X57051490Y-31000000D02*
X57765500Y-30285990D01*
X45590000Y-34036000D02*
X45590002Y-34036000D01*
X45376000Y-34250000D02*
X37750000Y-34250000D01*
X54011470Y-31000000D02*
X57051490Y-31000000D01*
X46320000Y-33150000D02*
X45352965Y-33150000D01*
X46405000Y-45095000D02*
X44220000Y-45095000D01*
X45352965Y-33150000D02*
X44692965Y-33810000D01*
X48850000Y-33150000D02*
X46320000Y-33150000D01*
X54685000Y-27315000D02*
X48850000Y-33150000D01*
X44692965Y-33810000D02*
X37640000Y-33810000D01*
X56725000Y-27315000D02*
X54685000Y-27315000D01*
X30500000Y-40950000D02*
X30500000Y-41000000D01*
X47500000Y-44000000D02*
X46405000Y-45095000D01*
X37640000Y-33810000D02*
X30500000Y-40950000D01*
D45*
X16750000Y-27476137D02*
X12316864Y-23043001D01*
X16750000Y-29250000D02*
X16750000Y-27476137D01*
X8338654Y-23043001D02*
X7662154Y-22366501D01*
X12316864Y-23043001D02*
X8338654Y-23043001D01*
X7662154Y-22366501D02*
X6025971Y-22366501D01*
D44*
X4352978Y-38311483D02*
X5358517Y-38311483D01*
X3346394Y-34305199D02*
X3076499Y-34575094D01*
X3076499Y-34575094D02*
X3076499Y-37035004D01*
X3076499Y-37035004D02*
X4352978Y-38311483D01*
X39000000Y-39250000D02*
X41750000Y-42000000D01*
X46175000Y-43825000D02*
X44220000Y-43825000D01*
X42325000Y-43825000D02*
X44220000Y-43825000D01*
X41750000Y-42000000D02*
X41750000Y-43250000D01*
X47500000Y-42500000D02*
X46175000Y-43825000D01*
X41750000Y-43250000D02*
X42325000Y-43825000D01*
X5980000Y-40170000D02*
X5290000Y-40860000D01*
X3400000Y-35870000D02*
X3400000Y-36770000D01*
X5510000Y-37770000D02*
X5980000Y-38240000D01*
X4070000Y-34370000D02*
X4070000Y-35200000D01*
X3400000Y-36770000D02*
X4400000Y-37770000D01*
X4400000Y-37770000D02*
X5510000Y-37770000D01*
X5980000Y-38240000D02*
X5980000Y-40170000D01*
X4070000Y-35200000D02*
X3400000Y-35870000D01*
X16300500Y-29740500D02*
X15460000Y-28900000D01*
X61860000Y-35390000D02*
X64750000Y-32500000D01*
X21844000Y-27432000D02*
X21844000Y-27599672D01*
X58019500Y-32769500D02*
X58019500Y-24598010D01*
X26440500Y-32036015D02*
X26036015Y-32440500D01*
X41401290Y-32710500D02*
X40726805Y-32036015D01*
X40726805Y-32036015D02*
X32036015Y-32036015D01*
X32000000Y-32000000D02*
X31963985Y-32036015D01*
X31963985Y-32036015D02*
X26440500Y-32036015D01*
X59295500Y-33435500D02*
X58685500Y-33435500D01*
X32036015Y-32036015D02*
X32000000Y-32000000D01*
X23876000Y-26670000D02*
X23114000Y-25908000D01*
X56294010Y-23734500D02*
X54374790Y-25653720D01*
X61250000Y-35460000D02*
X60710000Y-36000000D01*
X61250000Y-35390000D02*
X59295500Y-33435500D01*
X58019500Y-24598010D02*
X57155990Y-23734500D01*
X15430000Y-29880000D02*
X15430000Y-28870000D01*
X15460000Y-29850000D02*
X15460000Y-28900000D01*
X45376844Y-32016828D02*
X44683172Y-32710500D01*
X26036015Y-32440500D02*
X25328500Y-32440500D01*
X54374790Y-25653720D02*
X54374790Y-25875210D01*
X48233172Y-32016828D02*
X45376844Y-32016828D01*
X58685500Y-33435500D02*
X58019500Y-32769500D01*
X57155990Y-23734500D02*
X56294010Y-23734500D01*
X21844000Y-27599672D02*
X19703172Y-29740500D01*
X25328500Y-32440500D02*
X23876000Y-30988000D01*
X54374790Y-25875210D02*
X48233172Y-32016828D01*
X61250000Y-35390000D02*
X61860000Y-35390000D01*
X44683172Y-32710500D02*
X41401290Y-32710500D01*
X60710000Y-36000000D02*
X60710000Y-36980000D01*
X23876000Y-30988000D02*
X23876000Y-26670000D01*
X19703172Y-29740500D02*
X16300500Y-29740500D01*
X37000000Y-18750000D02*
X38050748Y-17699252D01*
X15700000Y-3550000D02*
X16000000Y-3250000D01*
X38050748Y-17699252D02*
X28801496Y-8450000D01*
X28801496Y-8450000D02*
X24200000Y-8450000D01*
X42680000Y-22328504D02*
X42680000Y-29520000D01*
X18489500Y-2739500D02*
X17000500Y-2739500D01*
X42680000Y-29520000D02*
X43850000Y-30690000D01*
X36250000Y-18750000D02*
X37000000Y-18750000D01*
X24200000Y-8450000D02*
X18489500Y-2739500D01*
X16000000Y-3250000D02*
X16490000Y-3250000D01*
X38050748Y-17699252D02*
X42680000Y-22328504D01*
X17000500Y-2739500D02*
X16490000Y-3250000D01*
X20740000Y-8500000D02*
X22750000Y-8500000D01*
X23250000Y-9000000D02*
X25930000Y-9000000D01*
X16490000Y-4250000D02*
X16490000Y-4760000D01*
X38750000Y-25250000D02*
X41640000Y-28140000D01*
X16490000Y-4250000D02*
X20740000Y-8500000D01*
X41640000Y-28140000D02*
X41640000Y-31370000D01*
X25930000Y-9000000D02*
X33500000Y-16570000D01*
X33500000Y-20000000D02*
X38750000Y-25250000D01*
X41640000Y-31370000D02*
X41780000Y-31510000D01*
X33500000Y-16570000D02*
X33500000Y-20000000D01*
X15800000Y-5450000D02*
X15137500Y-5450000D01*
X22750000Y-8500000D02*
X23250000Y-9000000D01*
X16490000Y-4760000D02*
X15800000Y-5450000D01*
X41200000Y-39835000D02*
X41200000Y-35110000D01*
X43920000Y-42555000D02*
X41200000Y-39835000D01*
X55630000Y-38430000D02*
X55570000Y-38490000D01*
X55630000Y-36980000D02*
X55630000Y-38430000D01*
X28095000Y-29655000D02*
X35586496Y-29655000D01*
X36901496Y-30970000D02*
X40480000Y-30970000D01*
X21212500Y-19000000D02*
X25000000Y-19000000D01*
X28095000Y-29655000D02*
X26000000Y-31750000D01*
X20150000Y-20062500D02*
X21212500Y-19000000D01*
X43909000Y-40015000D02*
X42090000Y-38196000D01*
X20150000Y-18660000D02*
X20150000Y-20062500D01*
X35586496Y-29655000D02*
X36901496Y-30970000D01*
X28095000Y-22095000D02*
X28095000Y-29655000D01*
X42090000Y-38196000D02*
X42090000Y-37010000D01*
X25000000Y-19000000D02*
X28095000Y-22095000D01*
X41170000Y-30900000D02*
X41170000Y-32120000D01*
X41170000Y-32120000D02*
X41270000Y-32220000D01*
X44490000Y-37490000D02*
X44490000Y-35160000D01*
X48990000Y-41990000D02*
X44490000Y-37490000D01*
X41270000Y-32220000D02*
X44480000Y-32220000D01*
X37310000Y-30330000D02*
X40600000Y-30330000D01*
X40600000Y-30330000D02*
X41170000Y-30900000D01*
X29000000Y-25250000D02*
X30750000Y-25250000D01*
X21764500Y-14784500D02*
X37310000Y-30330000D01*
X4720000Y-21250000D02*
X9750000Y-21250000D01*
X9750000Y-21250000D02*
X16215500Y-14784500D01*
X47785000Y-51445000D02*
X48990000Y-50240000D01*
X44220000Y-51445000D02*
X47785000Y-51445000D01*
X16215500Y-14784500D02*
X21764500Y-14784500D01*
X48990000Y-50240000D02*
X48990000Y-41990000D01*
X30750000Y-25250000D02*
X31500000Y-24500000D01*
D48*
X20777000Y-17277000D02*
X22123000Y-17277000D01*
X19093514Y-21000000D02*
X17250000Y-21000000D01*
X17000000Y-19750000D02*
X16250000Y-19000000D01*
X17000000Y-16500000D02*
X20000000Y-16500000D01*
X17250000Y-21000000D02*
X17000000Y-20750000D01*
X22400000Y-16275000D02*
X21500000Y-15375000D01*
X16250000Y-17250000D02*
X17000000Y-16500000D01*
X22400000Y-17000000D02*
X22400000Y-16275000D01*
X20150000Y-22056486D02*
X19093514Y-21000000D01*
X22123000Y-17277000D02*
X22400000Y-17000000D01*
X17000000Y-20750000D02*
X17000000Y-19750000D01*
X16250000Y-19000000D02*
X16250000Y-17250000D01*
X20000000Y-16500000D02*
X20777000Y-17277000D01*
D44*
X62750000Y-35480592D02*
X62750000Y-37943672D01*
X37937500Y-9050000D02*
X38700000Y-9050000D01*
X35550000Y-9050000D02*
X37937500Y-9050000D01*
X60250000Y-38750000D02*
X59440000Y-37940000D01*
X33750000Y-5540500D02*
X33790500Y-5540500D01*
X61943672Y-38750000D02*
X60250000Y-38750000D01*
X61750000Y-33000000D02*
X63000000Y-33000000D01*
X65730592Y-33269408D02*
X63690500Y-35309500D01*
X60305500Y-31555500D02*
X61750000Y-33000000D01*
X35250000Y-8750000D02*
X35550000Y-9050000D01*
X39000000Y-8750000D02*
X39490000Y-8750000D01*
X33790500Y-5540500D02*
X35250000Y-7000000D01*
X43000000Y-8750000D02*
X43000000Y-6500000D01*
X65250000Y-31500000D02*
X65730592Y-31980592D01*
X43000000Y-6500000D02*
X39750000Y-3250000D01*
X63690500Y-35309500D02*
X62921092Y-35309500D01*
X59236990Y-20735500D02*
X54985500Y-20735500D01*
X38700000Y-9050000D02*
X39000000Y-8750000D01*
X54985500Y-20735500D02*
X43000000Y-8750000D01*
X60305500Y-21804010D02*
X59236990Y-20735500D01*
X60305500Y-31555500D02*
X60305500Y-21804010D01*
X64500000Y-31500000D02*
X65250000Y-31500000D01*
X36040500Y-3250000D02*
X33750000Y-5540500D01*
X27790500Y-5540500D02*
X33750000Y-5540500D01*
X62921092Y-35309500D02*
X62750000Y-35480592D01*
X62750000Y-37943672D02*
X61943672Y-38750000D01*
X65730592Y-31980592D02*
X65730592Y-33269408D01*
X39750000Y-3250000D02*
X36040500Y-3250000D01*
X59440000Y-37940000D02*
X59440000Y-36980000D01*
X35250000Y-7000000D02*
X35250000Y-8750000D01*
X63000000Y-33000000D02*
X64500000Y-31500000D01*
X26750000Y-4500000D02*
X27790500Y-5540500D01*
D48*
X17500000Y-22500000D02*
X18087500Y-22500000D01*
X21500000Y-16625000D02*
X20998499Y-16123499D01*
X20998499Y-16123499D02*
X16844049Y-16123499D01*
X15873499Y-17094049D02*
X15873499Y-20873499D01*
X15873499Y-20873499D02*
X17500000Y-22500000D01*
X16844049Y-16123499D02*
X15873499Y-17094049D01*
D44*
X26147500Y-12850000D02*
X26147500Y-17157500D01*
X38450000Y-29460000D02*
X40880000Y-29460000D01*
X41580000Y-38945000D02*
X41580000Y-36360000D01*
X26147500Y-17157500D02*
X38450000Y-29460000D01*
X43920000Y-41285000D02*
X41580000Y-38945000D01*
X41580000Y-36360000D02*
X42160000Y-35780000D01*
X21500000Y-11310000D02*
X21500000Y-13070000D01*
X18800000Y-13810000D02*
X20302500Y-13810000D01*
X21500000Y-13070000D02*
X20760000Y-13810000D01*
X20760000Y-10570000D02*
X21500000Y-11310000D01*
X23720000Y-14847500D02*
X23472500Y-14600000D01*
X24272500Y-13800000D02*
X23472500Y-14600000D01*
X23403499Y-14530999D02*
X23472500Y-14600000D01*
X16500000Y-9562500D02*
X16500000Y-11500000D01*
X16500000Y-11500000D02*
X17100000Y-12100000D01*
X17100000Y-12100000D02*
X17100000Y-13250000D01*
X16860000Y-13529408D02*
X17861591Y-14530999D01*
X14937500Y-8000000D02*
X16500000Y-9562500D01*
X23720000Y-15150000D02*
X23720000Y-14847500D01*
X17861591Y-14530999D02*
X23403499Y-14530999D01*
X16840000Y-62790000D02*
X13250000Y-62790000D01*
X22070000Y-57560000D02*
X28930000Y-57560000D01*
X34425000Y-11825000D02*
X31500000Y-8900000D01*
X22840000Y-12197500D02*
X22177500Y-12860000D01*
X31500000Y-8900000D02*
X43480000Y-20880000D01*
X22840000Y-11080000D02*
X22840000Y-12197500D01*
X28930000Y-57560000D02*
X29560000Y-58190000D01*
X36062500Y-10187500D02*
X34425000Y-11825000D01*
X24420000Y-9500000D02*
X22840000Y-11080000D01*
X16840000Y-62790000D02*
X22070000Y-57560000D01*
X43480000Y-20880000D02*
X43480000Y-26740000D01*
X29750000Y-58190000D02*
X29560000Y-58190000D01*
X43480000Y-26740000D02*
X46820000Y-30080000D01*
X25600000Y-9500000D02*
X24420000Y-9500000D01*
X13990500Y-6578000D02*
X13990500Y-8259500D01*
X12862500Y-5450000D02*
X13990500Y-6578000D01*
X13990500Y-8259500D02*
X13300000Y-8950000D01*
X12050000Y-8950000D02*
X13062500Y-8950000D01*
X11250000Y-9750000D02*
X12050000Y-8950000D01*
X8000000Y-9750000D02*
X11250000Y-9750000D01*
X7000000Y-10750000D02*
X8000000Y-9750000D01*
X7000000Y-11490000D02*
X7000000Y-10750000D01*
X4250000Y-14750000D02*
X4250000Y-11750000D01*
X8500000Y-17040000D02*
X6540000Y-17040000D01*
X11700000Y-7050000D02*
X13062500Y-7050000D01*
X6540000Y-17040000D02*
X4250000Y-14750000D01*
X11000000Y-7750000D02*
X11700000Y-7050000D01*
X4250000Y-11750000D02*
X8250000Y-7750000D01*
X8250000Y-7750000D02*
X11000000Y-7750000D01*
D46*
X37200000Y-46730000D02*
X37200000Y-45400000D01*
X35464800Y-44935200D02*
X35353517Y-45046483D01*
X36735200Y-44935200D02*
X36068000Y-44935200D01*
X26873200Y-46809900D02*
X28029900Y-46809900D01*
X31940200Y-46809900D02*
X32730300Y-47600000D01*
X31940200Y-46809900D02*
X31940200Y-47637400D01*
X36068000Y-44935200D02*
X35464800Y-44935200D01*
X37200000Y-45400000D02*
X36735200Y-44935200D01*
X29886400Y-48666400D02*
X30911200Y-48666400D01*
X22504400Y-44745800D02*
X24160400Y-44745800D01*
X31940200Y-47637400D02*
X30911200Y-48666400D01*
X36330000Y-47600000D02*
X37200000Y-46730000D01*
X25908000Y-48006000D02*
X25908000Y-46249400D01*
X26162000Y-48260000D02*
X25908000Y-48006000D01*
X32730300Y-47600000D02*
X36330000Y-47600000D01*
X26952000Y-48260000D02*
X26162000Y-48260000D01*
X28029900Y-46809900D02*
X29886400Y-48666400D01*
X26873200Y-46809900D02*
X26873200Y-48181200D01*
X24282400Y-44623800D02*
X25908000Y-46249400D01*
D48*
X18400000Y-19912500D02*
X18400000Y-18480000D01*
X18400000Y-18480000D02*
X18000000Y-18480000D01*
X19000000Y-18480000D02*
X18400000Y-18480000D01*
D46*
X17580000Y-34570000D02*
X17580000Y-34700000D01*
X17580000Y-34700000D02*
X18330000Y-35450000D01*
D44*
X17310000Y-36460000D02*
X17310000Y-35700000D01*
X17310000Y-36460000D02*
X17310000Y-37737500D01*
X18000000Y-38427500D02*
X18000000Y-39185000D01*
X14909500Y-38282000D02*
X15837500Y-39210000D01*
X17060000Y-35700000D02*
X15837500Y-35700000D01*
X17310000Y-37737500D02*
X18000000Y-38427500D01*
X15837500Y-35700000D02*
X14909500Y-36628000D01*
X14909500Y-36628000D02*
X14909500Y-38282000D01*
X17310000Y-35700000D02*
X17060000Y-35700000D01*
X17310000Y-35450000D02*
X17060000Y-35700000D01*
D45*
X15837500Y-41110000D02*
X16342000Y-41110000D01*
D46*
X16952000Y-40500000D02*
X17187000Y-40735000D01*
X17187000Y-40735000D02*
X18000000Y-40735000D01*
D45*
X16342000Y-41110000D02*
X16952000Y-40500000D01*
X16952000Y-38714500D02*
X15837500Y-37600000D01*
X16952000Y-40500000D02*
X16952000Y-38714500D01*
%TA.AperFunction,Conductor*%
G36*
X65002610Y-608D02*
G01*
X65008781Y-863D01*
X65217403Y-9491D01*
X65413375Y-18048D01*
X65423423Y-18893D01*
X65636807Y-45491D01*
X65834874Y-71568D01*
X65844273Y-73170D01*
X66053521Y-117044D01*
X66054833Y-117327D01*
X66250312Y-160664D01*
X66258953Y-162905D01*
X66463679Y-223855D01*
X66465355Y-224369D01*
X66656618Y-284674D01*
X66664509Y-287453D01*
X66863268Y-365008D01*
X66865621Y-365955D01*
X67050950Y-442721D01*
X67058044Y-445921D01*
X67249605Y-539569D01*
X67252354Y-540957D01*
X67430373Y-633627D01*
X67436681Y-637145D01*
X67619781Y-746248D01*
X67622957Y-748205D01*
X67792228Y-856043D01*
X67797745Y-859765D01*
X67971164Y-983585D01*
X67974619Y-986142D01*
X68133880Y-1108347D01*
X68138610Y-1112162D01*
X68301195Y-1249865D01*
X68304885Y-1253116D01*
X68452875Y-1388723D01*
X68456846Y-1392525D01*
X68607473Y-1543152D01*
X68611275Y-1547123D01*
X68746882Y-1695113D01*
X68750133Y-1698803D01*
X68887836Y-1861388D01*
X68891651Y-1866118D01*
X69013844Y-2025363D01*
X69016426Y-2028851D01*
X69140233Y-2202254D01*
X69143955Y-2207770D01*
X69251776Y-2377014D01*
X69253750Y-2380217D01*
X69362853Y-2563317D01*
X69366375Y-2569633D01*
X69459010Y-2747582D01*
X69460444Y-2750424D01*
X69554071Y-2941941D01*
X69557283Y-2949062D01*
X69634030Y-3134346D01*
X69635002Y-3136762D01*
X69712541Y-3335478D01*
X69715328Y-3343391D01*
X69775583Y-3534493D01*
X69776177Y-3536430D01*
X69837089Y-3741030D01*
X69839340Y-3749711D01*
X69882660Y-3945117D01*
X69882965Y-3946531D01*
X69926827Y-4155721D01*
X69928431Y-4165131D01*
X69954476Y-4362954D01*
X69954586Y-4363816D01*
X69981103Y-4576555D01*
X69981951Y-4586643D01*
X69990513Y-4782727D01*
X69990525Y-4783017D01*
X69999392Y-4997389D01*
X69999500Y-5002596D01*
X69999500Y-33947307D01*
X69999499Y-33947312D01*
X69999499Y-33995877D01*
X69999229Y-34004119D01*
X69994043Y-34083229D01*
X69993992Y-34083976D01*
X69981299Y-34261446D01*
X69979199Y-34277038D01*
X69957070Y-34388289D01*
X69956612Y-34390491D01*
X69926239Y-34530116D01*
X69922431Y-34543835D01*
X69883805Y-34657623D01*
X69882548Y-34661154D01*
X69834974Y-34788704D01*
X69829924Y-34800400D01*
X69775579Y-34910599D01*
X69773161Y-34915255D01*
X69709191Y-35032408D01*
X69703368Y-35042025D01*
X69634422Y-35145210D01*
X69630526Y-35150716D01*
X69551229Y-35256646D01*
X69545091Y-35264216D01*
X69462896Y-35357940D01*
X69457260Y-35363957D01*
X69363957Y-35457260D01*
X69357950Y-35462887D01*
X69351298Y-35468722D01*
X69312600Y-35491922D01*
X69268210Y-35500000D01*
X68126000Y-35500000D01*
X68063000Y-35483119D01*
X68016881Y-35437000D01*
X68000000Y-35374000D01*
X68000000Y-8000000D01*
X67999999Y-7999999D01*
X67532563Y-7532563D01*
X67500881Y-7479365D01*
X67498366Y-7417495D01*
X67525628Y-7361899D01*
X67753741Y-7093345D01*
X67963935Y-6783332D01*
X68139370Y-6452427D01*
X68278001Y-6104487D01*
X68378202Y-5743597D01*
X68438795Y-5373992D01*
X68459073Y-4999999D01*
X68438795Y-4626007D01*
X68378202Y-4256402D01*
X68278001Y-3895512D01*
X68139370Y-3547572D01*
X67963935Y-3216667D01*
X67753741Y-2906655D01*
X67677764Y-2817207D01*
X65247486Y-5247486D01*
X64752512Y-4752512D01*
X67183703Y-2321321D01*
X66941187Y-2136963D01*
X66620261Y-1943868D01*
X66280328Y-1786599D01*
X65925400Y-1667009D01*
X65559614Y-1586494D01*
X65187274Y-1546000D01*
X64812726Y-1546000D01*
X64440385Y-1586494D01*
X64074599Y-1667009D01*
X63719671Y-1786599D01*
X63379738Y-1943868D01*
X63058807Y-2136966D01*
X62760645Y-2363625D01*
X62645786Y-2472423D01*
X62589545Y-2503223D01*
X62525428Y-2502354D01*
X62470043Y-2470043D01*
X62000000Y-2000000D01*
X59857369Y-2000000D01*
X59806755Y-1989387D01*
X59764668Y-1959337D01*
X59738196Y-1914912D01*
X59726349Y-1880403D01*
X59612930Y-1670822D01*
X59519661Y-1550990D01*
X59466560Y-1482765D01*
X59428640Y-1447857D01*
X59291235Y-1321367D01*
X59091734Y-1191027D01*
X58873500Y-1095300D01*
X58642494Y-1036802D01*
X58642493Y-1036801D01*
X58642490Y-1036801D01*
X58464472Y-1022050D01*
X58345528Y-1022050D01*
X58167510Y-1036801D01*
X58167506Y-1036801D01*
X58167505Y-1036802D01*
X57936499Y-1095300D01*
X57718265Y-1191027D01*
X57518764Y-1321367D01*
X57343443Y-1482761D01*
X57197069Y-1670822D01*
X57083650Y-1880403D01*
X57071804Y-1914912D01*
X57045332Y-1959337D01*
X57003245Y-1989387D01*
X56952631Y-2000000D01*
X55766936Y-2000000D01*
X55718718Y-1990409D01*
X55644753Y-1959771D01*
X55500000Y-1940715D01*
X55355246Y-1959771D01*
X55281282Y-1990409D01*
X55233064Y-2000000D01*
X54142369Y-2000000D01*
X54091755Y-1989387D01*
X54049668Y-1959337D01*
X54023196Y-1914912D01*
X54011349Y-1880403D01*
X53897930Y-1670822D01*
X53804661Y-1550990D01*
X53751560Y-1482765D01*
X53713640Y-1447857D01*
X53576235Y-1321367D01*
X53376734Y-1191027D01*
X53158500Y-1095300D01*
X52927494Y-1036802D01*
X52927493Y-1036801D01*
X52927490Y-1036801D01*
X52749472Y-1022050D01*
X52630528Y-1022050D01*
X52452510Y-1036801D01*
X52452506Y-1036801D01*
X52452505Y-1036802D01*
X52221499Y-1095300D01*
X52003265Y-1191027D01*
X51803764Y-1321367D01*
X51628443Y-1482761D01*
X51482069Y-1670822D01*
X51368650Y-1880403D01*
X51356804Y-1914912D01*
X51330332Y-1959337D01*
X51288245Y-1989387D01*
X51237631Y-2000000D01*
X20483040Y-2000000D01*
X20445152Y-1994169D01*
X20410771Y-1977214D01*
X20394794Y-1966027D01*
X20371349Y-1956315D01*
X20333809Y-1949696D01*
X20323079Y-1947318D01*
X20287643Y-1937823D01*
X20251089Y-1941021D01*
X20240108Y-1941500D01*
X14009892Y-1941500D01*
X13998911Y-1941021D01*
X13962354Y-1937822D01*
X13926912Y-1947319D01*
X13916185Y-1949697D01*
X13878652Y-1956315D01*
X13855206Y-1966027D01*
X13839226Y-1977216D01*
X13804846Y-1994169D01*
X13766960Y-2000000D01*
X8000000Y-2000000D01*
X7529956Y-2470043D01*
X7474569Y-2502354D01*
X7410452Y-2503223D01*
X7354211Y-2472422D01*
X7239361Y-2363630D01*
X6941186Y-2136962D01*
X6620261Y-1943868D01*
X6280328Y-1786599D01*
X5925400Y-1667009D01*
X5559614Y-1586494D01*
X5187274Y-1546000D01*
X4812726Y-1546000D01*
X4440385Y-1586494D01*
X4074599Y-1667009D01*
X3719671Y-1786599D01*
X3379738Y-1943868D01*
X3058807Y-2136966D01*
X2816295Y-2321320D01*
X2816295Y-2321321D01*
X5247487Y-4752513D01*
X4752513Y-5247486D01*
X2322234Y-2817207D01*
X2322233Y-2817208D01*
X2246262Y-2906650D01*
X2036064Y-3216667D01*
X1860629Y-3547572D01*
X1721998Y-3895512D01*
X1621797Y-4256402D01*
X1561204Y-4626007D01*
X1540926Y-5000000D01*
X1561204Y-5373992D01*
X1621797Y-5743597D01*
X1721998Y-6104487D01*
X1860629Y-6452427D01*
X2036064Y-6783332D01*
X2246258Y-7093344D01*
X2474370Y-7361900D01*
X2501631Y-7417496D01*
X2499116Y-7479365D01*
X2467433Y-7532565D01*
X2000000Y-7999999D01*
X2000000Y-34305011D01*
X1987408Y-34359916D01*
X1952150Y-34403847D01*
X1901271Y-34428024D01*
X1844942Y-34427615D01*
X1838128Y-34426000D01*
X1800000Y-34426000D01*
X1800000Y-34830000D01*
X2000000Y-34830000D01*
X2000000Y-35000000D01*
X2632499Y-35000000D01*
X2695499Y-35016881D01*
X2741618Y-35063000D01*
X2758499Y-35126000D01*
X2758499Y-37015612D01*
X2758020Y-37026593D01*
X2754822Y-37063147D01*
X2764317Y-37098583D01*
X2766695Y-37109313D01*
X2773314Y-37146853D01*
X2783026Y-37170298D01*
X2804893Y-37201528D01*
X2810789Y-37210781D01*
X2829139Y-37242564D01*
X2857257Y-37266158D01*
X2865348Y-37273573D01*
X4114402Y-38522627D01*
X4121829Y-38530731D01*
X4145418Y-38558844D01*
X4177191Y-38577188D01*
X4186452Y-38583087D01*
X4216512Y-38604135D01*
X4217688Y-38604958D01*
X4241123Y-38614665D01*
X4242536Y-38614914D01*
X4242538Y-38614915D01*
X4278672Y-38621285D01*
X4289379Y-38623658D01*
X4324835Y-38633160D01*
X4358320Y-38630230D01*
X4361389Y-38629962D01*
X4372370Y-38629483D01*
X4841459Y-38629483D01*
X4897187Y-38642477D01*
X4941421Y-38678779D01*
X4963043Y-38706957D01*
X5078874Y-38795838D01*
X5213763Y-38851711D01*
X5358517Y-38870768D01*
X5454817Y-38858089D01*
X5519554Y-38849568D01*
X5589250Y-38860295D01*
X5642267Y-38906790D01*
X5662000Y-38974490D01*
X5662000Y-39986089D01*
X5652409Y-40034307D01*
X5625095Y-40075185D01*
X5430754Y-40269524D01*
X5382161Y-40299741D01*
X5325215Y-40305350D01*
X5290002Y-40300714D01*
X5145246Y-40319771D01*
X5010356Y-40375645D01*
X4894525Y-40464525D01*
X4805645Y-40580356D01*
X4749771Y-40715246D01*
X4730715Y-40860000D01*
X4749771Y-41004753D01*
X4805644Y-41139642D01*
X4805645Y-41139643D01*
X4894526Y-41255474D01*
X5010357Y-41344355D01*
X5145246Y-41400228D01*
X5290000Y-41419285D01*
X5434754Y-41400228D01*
X5569643Y-41344355D01*
X5685474Y-41255474D01*
X5774355Y-41139643D01*
X5830228Y-41004754D01*
X5849285Y-40860000D01*
X5844648Y-40824782D01*
X5850257Y-40767837D01*
X5880473Y-40719245D01*
X6191153Y-40408565D01*
X6199233Y-40401160D01*
X6227360Y-40377560D01*
X6245714Y-40345767D01*
X6251592Y-40336540D01*
X6272651Y-40306466D01*
X6272652Y-40306461D01*
X6273479Y-40305281D01*
X6283182Y-40281855D01*
X6283573Y-40279643D01*
X6289802Y-40244310D01*
X6292179Y-40233585D01*
X6301677Y-40198143D01*
X6298478Y-40161589D01*
X6298000Y-40150609D01*
X6298000Y-38259392D01*
X6298479Y-38248411D01*
X6298995Y-38242515D01*
X6301677Y-38211857D01*
X6292179Y-38176414D01*
X6289802Y-38165690D01*
X6287253Y-38151232D01*
X6283432Y-38129560D01*
X6283430Y-38129557D01*
X6283182Y-38128147D01*
X6273477Y-38104715D01*
X6272651Y-38103536D01*
X6272651Y-38103534D01*
X6251597Y-38073465D01*
X6245708Y-38064220D01*
X6227360Y-38032440D01*
X6199247Y-38008850D01*
X6191144Y-38001424D01*
X5748569Y-37558849D01*
X5741154Y-37550758D01*
X5717560Y-37522640D01*
X5685777Y-37504290D01*
X5676524Y-37498394D01*
X5645294Y-37476527D01*
X5621849Y-37466815D01*
X5584309Y-37460196D01*
X5573579Y-37457818D01*
X5538143Y-37448323D01*
X5501589Y-37451521D01*
X5490608Y-37452000D01*
X4583910Y-37452000D01*
X4535692Y-37442409D01*
X4494815Y-37415095D01*
X3754905Y-36675185D01*
X3727591Y-36634308D01*
X3718000Y-36586090D01*
X3718000Y-36053911D01*
X3727591Y-36005693D01*
X3754904Y-35964816D01*
X3861335Y-35858385D01*
X4212225Y-35507493D01*
X4264304Y-35476150D01*
X4324999Y-35472835D01*
X4380183Y-35498323D01*
X4417013Y-35546680D01*
X4422571Y-35559564D01*
X4527827Y-35700949D01*
X4662848Y-35814245D01*
X4802908Y-35884586D01*
X4854718Y-35932884D01*
X4872285Y-36001502D01*
X4850059Y-36068754D01*
X4819888Y-36093241D01*
X4822928Y-36097203D01*
X4689549Y-36199549D01*
X4597301Y-36319767D01*
X4539312Y-36459764D01*
X4519534Y-36610000D01*
X4539312Y-36760235D01*
X4597301Y-36900232D01*
X4597302Y-36900233D01*
X4689549Y-37020451D01*
X4809767Y-37112698D01*
X4949764Y-37170687D01*
X5062280Y-37185500D01*
X5137720Y-37185500D01*
X5250236Y-37170687D01*
X5390233Y-37112698D01*
X5510451Y-37020451D01*
X5602698Y-36900233D01*
X5602698Y-36900232D01*
X5612483Y-36887481D01*
X5650638Y-36854386D01*
X5698726Y-36838934D01*
X5749018Y-36843610D01*
X5750148Y-36843952D01*
X5753347Y-36844923D01*
X5801565Y-36854514D01*
X5801570Y-36854514D01*
X5801573Y-36854515D01*
X5852185Y-36859500D01*
X6874000Y-36859500D01*
X6937000Y-36876381D01*
X6983119Y-36922500D01*
X7000000Y-36985500D01*
X7000000Y-42014500D01*
X6983119Y-42077500D01*
X6937000Y-42123619D01*
X6874000Y-42140500D01*
X5926000Y-42140500D01*
X5858838Y-42149341D01*
X5795830Y-42166224D01*
X5770886Y-42176557D01*
X5706222Y-42185070D01*
X5645965Y-42160110D01*
X5606260Y-42108366D01*
X5602698Y-42099767D01*
X5602697Y-42099766D01*
X5510451Y-41979549D01*
X5390233Y-41887302D01*
X5390232Y-41887301D01*
X5250235Y-41829312D01*
X5137720Y-41814500D01*
X5062280Y-41814500D01*
X4949764Y-41829312D01*
X4809767Y-41887301D01*
X4689549Y-41979549D01*
X4597301Y-42099767D01*
X4539312Y-42239764D01*
X4519534Y-42389999D01*
X4539312Y-42540235D01*
X4597301Y-42680232D01*
X4597302Y-42680233D01*
X4689549Y-42800451D01*
X4795460Y-42881720D01*
X4822928Y-42902797D01*
X4821200Y-42905048D01*
X4845626Y-42922953D01*
X4872125Y-42976673D01*
X4870823Y-43036559D01*
X4842014Y-43089077D01*
X4792210Y-43122357D01*
X4739301Y-43141614D01*
X4592037Y-43238470D01*
X4471083Y-43366674D01*
X4411429Y-43470000D01*
X5280000Y-43470000D01*
X5280000Y-43022549D01*
X5289591Y-42974331D01*
X5316904Y-42933454D01*
X5357782Y-42906140D01*
X5383531Y-42895474D01*
X5390233Y-42892698D01*
X5492391Y-42814308D01*
X5547212Y-42790186D01*
X5606981Y-42794103D01*
X5658188Y-42825176D01*
X5943097Y-43110085D01*
X5970409Y-43150960D01*
X5980000Y-43199178D01*
X5980000Y-44000000D01*
X2500000Y-44000000D01*
X2500000Y-44134119D01*
X2481000Y-44153119D01*
X2418000Y-44170000D01*
X1800000Y-44170000D01*
X1800000Y-44573288D01*
X1925068Y-44558669D01*
X2090698Y-44498385D01*
X2237959Y-44401531D01*
X2282350Y-44354480D01*
X2332286Y-44322052D01*
X2391535Y-44316172D01*
X2446870Y-44338155D01*
X2485932Y-44383091D01*
X2500000Y-44440946D01*
X2500000Y-44750000D01*
X2749242Y-44750000D01*
X2750750Y-44750009D01*
X2754472Y-44750053D01*
X2953257Y-44752434D01*
X2964055Y-44753029D01*
X3367842Y-44792799D01*
X3380037Y-44794608D01*
X3777234Y-44873615D01*
X3789217Y-44876617D01*
X4176749Y-44994173D01*
X4188385Y-44998337D01*
X4562522Y-45153309D01*
X4573683Y-45158588D01*
X4752257Y-45254038D01*
X4930825Y-45349486D01*
X4941430Y-45355843D01*
X5278136Y-45580821D01*
X5288067Y-45588185D01*
X5511928Y-45771904D01*
X5601107Y-45845091D01*
X5610268Y-45853395D01*
X5896604Y-46139731D01*
X5904908Y-46148892D01*
X6161812Y-46461930D01*
X6169178Y-46471863D01*
X6394156Y-46808569D01*
X6400513Y-46819174D01*
X6591407Y-47176308D01*
X6596694Y-47187486D01*
X6751661Y-47561611D01*
X6755827Y-47573253D01*
X6873381Y-47960778D01*
X6876385Y-47972772D01*
X6955388Y-48369942D01*
X6957202Y-48382174D01*
X6996968Y-48785922D01*
X6997566Y-48796763D01*
X6999991Y-48999249D01*
X7000000Y-49000758D01*
X7000000Y-56749242D01*
X6999991Y-56750751D01*
X6997566Y-56953236D01*
X6996968Y-56964077D01*
X6957202Y-57367825D01*
X6955388Y-57380057D01*
X6876385Y-57777227D01*
X6873381Y-57789221D01*
X6755827Y-58176746D01*
X6751661Y-58188388D01*
X6596694Y-58562513D01*
X6591407Y-58573691D01*
X6400513Y-58930825D01*
X6394156Y-58941430D01*
X6169178Y-59278136D01*
X6161812Y-59288069D01*
X5904908Y-59601107D01*
X5896604Y-59610268D01*
X5610268Y-59896604D01*
X5601107Y-59904908D01*
X5288069Y-60161812D01*
X5278136Y-60169178D01*
X4941430Y-60394156D01*
X4930825Y-60400513D01*
X4573691Y-60591407D01*
X4562513Y-60596694D01*
X4188388Y-60751661D01*
X4176746Y-60755827D01*
X3789221Y-60873381D01*
X3777227Y-60876385D01*
X3380057Y-60955388D01*
X3367825Y-60957202D01*
X2964077Y-60996968D01*
X2953236Y-60997566D01*
X2750002Y-60999999D01*
X2665725Y-61002044D01*
X2501402Y-61039549D01*
X2349543Y-61112680D01*
X2217768Y-61217768D01*
X2112680Y-61349543D01*
X2039549Y-61501402D01*
X2002044Y-61665725D01*
X2000000Y-61750002D01*
X2000000Y-63253358D01*
X1985322Y-63312378D01*
X1860629Y-63547572D01*
X1721998Y-63895512D01*
X1621797Y-64256402D01*
X1561204Y-64626007D01*
X1540926Y-64999999D01*
X1561204Y-65373992D01*
X1621797Y-65743597D01*
X1721998Y-66104487D01*
X1860629Y-66452427D01*
X2036064Y-66783332D01*
X2246255Y-67093339D01*
X2322235Y-67182790D01*
X4505025Y-65000000D01*
X5000000Y-65000000D01*
X5247486Y-65247486D01*
X2816295Y-67678677D01*
X3058812Y-67863036D01*
X3379738Y-68056131D01*
X3719671Y-68213400D01*
X4074599Y-68332990D01*
X4440385Y-68413505D01*
X4812726Y-68454000D01*
X5187274Y-68454000D01*
X5559614Y-68413505D01*
X5925400Y-68332990D01*
X6280328Y-68213400D01*
X6620261Y-68056131D01*
X6941186Y-67863037D01*
X7239355Y-67636374D01*
X7354210Y-67527576D01*
X7410452Y-67496776D01*
X7474569Y-67497644D01*
X7529954Y-67529954D01*
X8000000Y-68000000D01*
X49243851Y-68000000D01*
X49287883Y-68007944D01*
X49326363Y-68030775D01*
X49326942Y-68031277D01*
X49331258Y-68033248D01*
X49354424Y-68046992D01*
X49358233Y-68049843D01*
X49405105Y-68067325D01*
X49413389Y-68070756D01*
X49458904Y-68091542D01*
X49463599Y-68092216D01*
X49489707Y-68098879D01*
X49494158Y-68100540D01*
X49544054Y-68104108D01*
X49552984Y-68105069D01*
X49566414Y-68107000D01*
X49566417Y-68107000D01*
X49579984Y-68107000D01*
X49588970Y-68107320D01*
X49638860Y-68110889D01*
X49643503Y-68109878D01*
X49670284Y-68107000D01*
X53693917Y-68107000D01*
X53766083Y-68107000D01*
X58929716Y-68107000D01*
X58956496Y-68109878D01*
X58961140Y-68110889D01*
X59011029Y-68107320D01*
X59020016Y-68107000D01*
X59033580Y-68107000D01*
X59033583Y-68107000D01*
X59047023Y-68105067D01*
X59055939Y-68104108D01*
X59105842Y-68100540D01*
X59110292Y-68098879D01*
X59136400Y-68092216D01*
X59141096Y-68091542D01*
X59186599Y-68070760D01*
X59194873Y-68067332D01*
X59241767Y-68049843D01*
X59245572Y-68046994D01*
X59268739Y-68033248D01*
X59273058Y-68031277D01*
X59273636Y-68030775D01*
X59312116Y-68007944D01*
X59356149Y-68000000D01*
X61999999Y-68000000D01*
X62000000Y-68000000D01*
X62470044Y-67529955D01*
X62525429Y-67497645D01*
X62589547Y-67496776D01*
X62645788Y-67527577D01*
X62760639Y-67636369D01*
X63058813Y-67863037D01*
X63379738Y-68056131D01*
X63719671Y-68213400D01*
X64074599Y-68332990D01*
X64440385Y-68413505D01*
X64812726Y-68454000D01*
X65187274Y-68454000D01*
X65559614Y-68413505D01*
X65925400Y-68332990D01*
X66280328Y-68213400D01*
X66620261Y-68056131D01*
X66941187Y-67863036D01*
X67183704Y-67678677D01*
X64752513Y-65247486D01*
X65247487Y-64752513D01*
X67677765Y-67182791D01*
X67753741Y-67093345D01*
X67963935Y-66783332D01*
X68139370Y-66452427D01*
X68278001Y-66104487D01*
X68378202Y-65743597D01*
X68438795Y-65373992D01*
X68459073Y-64999999D01*
X68438795Y-64626007D01*
X68378202Y-64256402D01*
X68278001Y-63895512D01*
X68139370Y-63547572D01*
X67963935Y-63216667D01*
X67753741Y-62906655D01*
X67525628Y-62638098D01*
X67498367Y-62582502D01*
X67500882Y-62520633D01*
X67532563Y-62467436D01*
X68000000Y-62000000D01*
X68000000Y-55686572D01*
X68016720Y-55623852D01*
X68062441Y-55577777D01*
X68125028Y-55560576D01*
X69319452Y-55551388D01*
X69368183Y-55560790D01*
X69409508Y-55588288D01*
X69457265Y-55636045D01*
X69462901Y-55642062D01*
X69545092Y-55735782D01*
X69551218Y-55743337D01*
X69605338Y-55815633D01*
X69630519Y-55849271D01*
X69634415Y-55854776D01*
X69703382Y-55957993D01*
X69709196Y-55967595D01*
X69773162Y-56084742D01*
X69775580Y-56089398D01*
X69829925Y-56199597D01*
X69834975Y-56211293D01*
X69882549Y-56338843D01*
X69883794Y-56342342D01*
X69922434Y-56456170D01*
X69926240Y-56469881D01*
X69956613Y-56609506D01*
X69957071Y-56611708D01*
X69979200Y-56722959D01*
X69981300Y-56738551D01*
X69993993Y-56916021D01*
X69994044Y-56916768D01*
X69999230Y-56995880D01*
X69999500Y-57004122D01*
X69999500Y-64997404D01*
X69999392Y-65002611D01*
X69990525Y-65216982D01*
X69990513Y-65217272D01*
X69981951Y-65413355D01*
X69981103Y-65423443D01*
X69954586Y-65636182D01*
X69954476Y-65637044D01*
X69928431Y-65834867D01*
X69926827Y-65844277D01*
X69882965Y-66053467D01*
X69882660Y-66054881D01*
X69839340Y-66250287D01*
X69837089Y-66258968D01*
X69776177Y-66463568D01*
X69775583Y-66465505D01*
X69715328Y-66656607D01*
X69712541Y-66664520D01*
X69635002Y-66863236D01*
X69634030Y-66865652D01*
X69557283Y-67050936D01*
X69554071Y-67058057D01*
X69460444Y-67249574D01*
X69459010Y-67252416D01*
X69366375Y-67430365D01*
X69362853Y-67436681D01*
X69253750Y-67619781D01*
X69251776Y-67622984D01*
X69143955Y-67792228D01*
X69140233Y-67797744D01*
X69016426Y-67971147D01*
X69013844Y-67974635D01*
X68891651Y-68133880D01*
X68887836Y-68138610D01*
X68750133Y-68301195D01*
X68746882Y-68304885D01*
X68611275Y-68452875D01*
X68607473Y-68456846D01*
X68456846Y-68607473D01*
X68452875Y-68611275D01*
X68304885Y-68746882D01*
X68301195Y-68750133D01*
X68138610Y-68887836D01*
X68133880Y-68891651D01*
X67974635Y-69013844D01*
X67971147Y-69016426D01*
X67797744Y-69140233D01*
X67792228Y-69143955D01*
X67622984Y-69251776D01*
X67619781Y-69253750D01*
X67436681Y-69362853D01*
X67430365Y-69366375D01*
X67252416Y-69459010D01*
X67249574Y-69460444D01*
X67058057Y-69554071D01*
X67050936Y-69557283D01*
X66865652Y-69634030D01*
X66863236Y-69635002D01*
X66664520Y-69712541D01*
X66656607Y-69715328D01*
X66465505Y-69775583D01*
X66463568Y-69776177D01*
X66258968Y-69837089D01*
X66250287Y-69839340D01*
X66054881Y-69882660D01*
X66053467Y-69882965D01*
X65844277Y-69926827D01*
X65834867Y-69928431D01*
X65637044Y-69954476D01*
X65636182Y-69954586D01*
X65423443Y-69981103D01*
X65413354Y-69981951D01*
X65217291Y-69990512D01*
X65217002Y-69990524D01*
X65002611Y-69999392D01*
X64997404Y-69999500D01*
X5002596Y-69999500D01*
X4997389Y-69999392D01*
X4782996Y-69990524D01*
X4782707Y-69990512D01*
X4586644Y-69981951D01*
X4576555Y-69981103D01*
X4363816Y-69954586D01*
X4362954Y-69954476D01*
X4165131Y-69928431D01*
X4155721Y-69926827D01*
X3946531Y-69882965D01*
X3945117Y-69882660D01*
X3749711Y-69839340D01*
X3741030Y-69837089D01*
X3536430Y-69776177D01*
X3534493Y-69775583D01*
X3343391Y-69715328D01*
X3335478Y-69712541D01*
X3136762Y-69635002D01*
X3134346Y-69634030D01*
X2949062Y-69557283D01*
X2941941Y-69554071D01*
X2750424Y-69460444D01*
X2747582Y-69459010D01*
X2569633Y-69366375D01*
X2563317Y-69362853D01*
X2380217Y-69253750D01*
X2377014Y-69251776D01*
X2207770Y-69143955D01*
X2202254Y-69140233D01*
X2028851Y-69016426D01*
X2025363Y-69013844D01*
X1866118Y-68891651D01*
X1861388Y-68887836D01*
X1698803Y-68750133D01*
X1695113Y-68746882D01*
X1547123Y-68611275D01*
X1543152Y-68607473D01*
X1392525Y-68456846D01*
X1388723Y-68452875D01*
X1253116Y-68304885D01*
X1249865Y-68301195D01*
X1112162Y-68138610D01*
X1108347Y-68133880D01*
X1090705Y-68110888D01*
X986142Y-67974619D01*
X983572Y-67971147D01*
X947684Y-67920883D01*
X859765Y-67797744D01*
X856043Y-67792228D01*
X783703Y-67678677D01*
X748205Y-67622957D01*
X746248Y-67619781D01*
X637145Y-67436681D01*
X633623Y-67430365D01*
X540957Y-67252354D01*
X539554Y-67249574D01*
X534985Y-67240228D01*
X445921Y-67058044D01*
X442721Y-67050950D01*
X365955Y-66865621D01*
X364996Y-66863236D01*
X361643Y-66854643D01*
X287453Y-66664509D01*
X284670Y-66656607D01*
X224369Y-66465355D01*
X223855Y-66463679D01*
X162905Y-66258953D01*
X160664Y-66250312D01*
X117327Y-66054833D01*
X117033Y-66053467D01*
X111495Y-66027057D01*
X73170Y-65844273D01*
X71567Y-65834867D01*
X45491Y-65636807D01*
X18893Y-65423423D01*
X18048Y-65413375D01*
X9484Y-65217218D01*
X608Y-65002611D01*
X500Y-64997404D01*
X500Y-61753804D01*
X730Y-61746197D01*
X4803Y-61678859D01*
X6493Y-61650908D01*
X19840Y-61447294D01*
X21629Y-61432866D01*
X45689Y-61301573D01*
X45986Y-61300020D01*
X78282Y-61137653D01*
X81551Y-61124808D01*
X123483Y-60990244D01*
X124400Y-60987428D01*
X175176Y-60837846D01*
X179570Y-60826685D01*
X238637Y-60695444D01*
X240454Y-60691590D01*
X309000Y-60552591D01*
X314153Y-60543179D01*
X389341Y-60418804D01*
X392346Y-60414079D01*
X477657Y-60286402D01*
X483201Y-60278747D01*
X573268Y-60163784D01*
X577637Y-60158514D01*
X678540Y-60043457D01*
X684119Y-60037502D01*
X787502Y-59934119D01*
X793457Y-59928540D01*
X908514Y-59827637D01*
X913784Y-59823268D01*
X1028747Y-59733201D01*
X1036402Y-59727657D01*
X1164079Y-59642346D01*
X1168804Y-59639341D01*
X1293179Y-59564153D01*
X1302591Y-59559000D01*
X1441590Y-59490454D01*
X1445444Y-59488637D01*
X1576685Y-59429570D01*
X1587846Y-59425176D01*
X1737428Y-59374400D01*
X1740244Y-59373483D01*
X1874808Y-59331551D01*
X1887653Y-59328282D01*
X2050020Y-59295986D01*
X2051573Y-59295689D01*
X2182866Y-59271629D01*
X2197294Y-59269840D01*
X2400908Y-59256493D01*
X2496198Y-59250729D01*
X2503804Y-59250500D01*
X2651255Y-59250500D01*
X2951546Y-59214038D01*
X2951549Y-59214037D01*
X2951551Y-59214037D01*
X3245266Y-59141643D01*
X3528113Y-59034373D01*
X3795967Y-58893792D01*
X4044924Y-58721950D01*
X4271352Y-58521352D01*
X4471950Y-58294924D01*
X4643792Y-58045967D01*
X4784373Y-57778113D01*
X4891643Y-57495266D01*
X4964037Y-57201551D01*
X4964513Y-57197637D01*
X5000500Y-56901255D01*
X5000500Y-49098745D01*
X4964038Y-48798453D01*
X4941318Y-48706274D01*
X4891643Y-48504734D01*
X4784373Y-48221887D01*
X4643792Y-47954033D01*
X4643790Y-47954029D01*
X4471950Y-47705076D01*
X4422237Y-47648962D01*
X4271352Y-47478648D01*
X4044924Y-47278050D01*
X4044923Y-47278049D01*
X3795970Y-47106209D01*
X3663727Y-47036803D01*
X3528113Y-46965627D01*
X3245266Y-46858357D01*
X3205380Y-46848526D01*
X2951546Y-46785961D01*
X2651255Y-46749500D01*
X2651252Y-46749500D01*
X2503807Y-46749500D01*
X2496198Y-46749270D01*
X2401368Y-46743533D01*
X2400736Y-46743493D01*
X2197314Y-46730160D01*
X2182843Y-46728366D01*
X2051733Y-46704339D01*
X2049864Y-46703982D01*
X1887683Y-46671723D01*
X1874778Y-46668439D01*
X1740331Y-46626543D01*
X1737315Y-46625561D01*
X1587873Y-46574832D01*
X1576663Y-46570419D01*
X1445525Y-46511399D01*
X1441508Y-46509505D01*
X1302613Y-46441009D01*
X1293158Y-46435832D01*
X1168851Y-46360686D01*
X1164033Y-46357622D01*
X1036427Y-46272358D01*
X1028723Y-46266779D01*
X913835Y-46176771D01*
X908473Y-46172325D01*
X793488Y-46071486D01*
X787471Y-46065849D01*
X684149Y-45962527D01*
X678512Y-45956510D01*
X577668Y-45841519D01*
X573240Y-45836178D01*
X491242Y-45731516D01*
X483219Y-45721275D01*
X477640Y-45713571D01*
X392376Y-45585965D01*
X389312Y-45581147D01*
X318107Y-45463360D01*
X314165Y-45456839D01*
X308989Y-45447385D01*
X240475Y-45308453D01*
X238617Y-45304511D01*
X179576Y-45173328D01*
X175171Y-45162138D01*
X124416Y-45012618D01*
X123468Y-45009708D01*
X81553Y-44875200D01*
X78280Y-44862337D01*
X45995Y-44700028D01*
X45681Y-44698381D01*
X21629Y-44567137D01*
X19840Y-44552701D01*
X6493Y-44349070D01*
X6464Y-44348604D01*
X6382Y-44347255D01*
X729Y-44253801D01*
X500Y-44246196D01*
X500Y-44170000D01*
X479818Y-44170000D01*
X492572Y-44199565D01*
X597827Y-44340949D01*
X732848Y-44454245D01*
X890361Y-44533351D01*
X1061872Y-44574000D01*
X1100000Y-44574000D01*
X1100000Y-44170000D01*
X479818Y-44170000D01*
X500Y-44170000D01*
X500Y-43470000D01*
X481429Y-43470000D01*
X1100000Y-43470000D01*
X1100000Y-43066712D01*
X1099999Y-43066711D01*
X974931Y-43081330D01*
X809301Y-43141614D01*
X662037Y-43238470D01*
X541083Y-43366674D01*
X481429Y-43470000D01*
X500Y-43470000D01*
X500Y-43066000D01*
X1800000Y-43066000D01*
X1800000Y-43470000D01*
X2420181Y-43470000D01*
X2407427Y-43440434D01*
X2302172Y-43299050D01*
X2167151Y-43185754D01*
X2009638Y-43106648D01*
X1838128Y-43066000D01*
X1800000Y-43066000D01*
X500Y-43066000D01*
X500Y-35530000D01*
X479818Y-35530000D01*
X492572Y-35559565D01*
X597827Y-35700949D01*
X732848Y-35814245D01*
X890361Y-35893351D01*
X1061872Y-35934000D01*
X1100000Y-35934000D01*
X1100000Y-35530000D01*
X1800000Y-35530000D01*
X1800000Y-35933288D01*
X1925068Y-35918669D01*
X2090698Y-35858385D01*
X2237962Y-35761529D01*
X2358916Y-35633325D01*
X2418571Y-35530000D01*
X1800000Y-35530000D01*
X1100000Y-35530000D01*
X479818Y-35530000D01*
X500Y-35530000D01*
X500Y-34830000D01*
X481429Y-34830000D01*
X1100000Y-34830000D01*
X1100000Y-34426712D01*
X1099999Y-34426711D01*
X974931Y-34441330D01*
X809301Y-34501614D01*
X662037Y-34598470D01*
X541083Y-34726674D01*
X481429Y-34830000D01*
X500Y-34830000D01*
X500Y-5002596D01*
X608Y-4997389D01*
X2379Y-4954576D01*
X9496Y-4782477D01*
X18049Y-4586620D01*
X18892Y-4576580D01*
X45486Y-4363234D01*
X71569Y-4165116D01*
X73168Y-4155735D01*
X117062Y-3946395D01*
X117311Y-3945238D01*
X160667Y-3749673D01*
X162901Y-3741059D01*
X223878Y-3536240D01*
X224346Y-3534715D01*
X284680Y-3343362D01*
X287446Y-3335508D01*
X365035Y-3136663D01*
X365927Y-3134446D01*
X442731Y-2949024D01*
X445909Y-2941979D01*
X539601Y-2750329D01*
X540924Y-2747708D01*
X633643Y-2569596D01*
X637145Y-2563317D01*
X746283Y-2380158D01*
X748167Y-2377102D01*
X856066Y-2207735D01*
X859741Y-2202289D01*
X983625Y-2028778D01*
X986100Y-2025435D01*
X1108385Y-1866069D01*
X1112141Y-1861412D01*
X1249870Y-1698796D01*
X1253084Y-1695149D01*
X1388767Y-1547076D01*
X1392479Y-1543199D01*
X1543199Y-1392479D01*
X1547076Y-1388767D01*
X1695149Y-1253084D01*
X1698803Y-1249865D01*
X1768273Y-1191027D01*
X1861412Y-1112141D01*
X1866069Y-1108385D01*
X2025435Y-986100D01*
X2028778Y-983625D01*
X2202289Y-859741D01*
X2207735Y-856066D01*
X2377102Y-748167D01*
X2380158Y-746283D01*
X2563323Y-637141D01*
X2569596Y-633643D01*
X2747708Y-540924D01*
X2750329Y-539601D01*
X2941979Y-445909D01*
X2949024Y-442731D01*
X3134446Y-365927D01*
X3136663Y-365035D01*
X3335508Y-287446D01*
X3343362Y-284680D01*
X3534715Y-224346D01*
X3536240Y-223878D01*
X3741059Y-162901D01*
X3749673Y-160667D01*
X3945238Y-117311D01*
X3946395Y-117062D01*
X4155735Y-73168D01*
X4165116Y-71569D01*
X4363234Y-45486D01*
X4576580Y-18892D01*
X4586620Y-18049D01*
X4782375Y-9501D01*
X4992831Y-796D01*
X4997390Y-608D01*
X5002596Y-500D01*
X64997404Y-500D01*
X65002610Y-608D01*
G37*
%TD.AperFunction*%
%TA.AperFunction,Conductor*%
G36*
X7937000Y-34216881D02*
G01*
X7983119Y-34263000D01*
X8000000Y-34326000D01*
X8000000Y-35947810D01*
X7990409Y-35996028D01*
X7963095Y-36036905D01*
X7436905Y-36563095D01*
X7396028Y-36590409D01*
X7347810Y-36600000D01*
X5852190Y-36600000D01*
X5803972Y-36590409D01*
X5763095Y-36563095D01*
X5679062Y-36479062D01*
X5651749Y-36438187D01*
X5609590Y-36336407D01*
X5600000Y-36288191D01*
X5600000Y-36060500D01*
X5616881Y-35997500D01*
X5663000Y-35951381D01*
X5726000Y-35934500D01*
X6223941Y-35934500D01*
X6355184Y-35919160D01*
X6520924Y-35858836D01*
X6668285Y-35761915D01*
X6789322Y-35633623D01*
X6812374Y-35593695D01*
X6832388Y-35567611D01*
X7000000Y-35400000D01*
X7000000Y-34326000D01*
X7016881Y-34263000D01*
X7063000Y-34216881D01*
X7126000Y-34200000D01*
X7874000Y-34200000D01*
X7937000Y-34216881D01*
G37*
%TD.AperFunction*%
%TA.AperFunction,Conductor*%
G36*
X29437000Y-52016881D02*
G01*
X29483119Y-52063000D01*
X29500000Y-52126000D01*
X29500000Y-56374000D01*
X29483119Y-56437000D01*
X29437000Y-56483119D01*
X29374000Y-56500000D01*
X27932190Y-56500000D01*
X27883972Y-56490409D01*
X27843095Y-56463095D01*
X27086905Y-55706905D01*
X27059591Y-55666028D01*
X27050000Y-55617810D01*
X27050000Y-52502190D01*
X27059591Y-52453972D01*
X27086905Y-52413095D01*
X27463095Y-52036905D01*
X27503972Y-52009591D01*
X27552190Y-52000000D01*
X29374000Y-52000000D01*
X29437000Y-52016881D01*
G37*
%TD.AperFunction*%
%TA.AperFunction,Conductor*%
G36*
X8696028Y-40859591D02*
G01*
X8736905Y-40886905D01*
X9034990Y-41184990D01*
X9062304Y-41225867D01*
X9115644Y-41354642D01*
X9115645Y-41354643D01*
X9204526Y-41470474D01*
X9320357Y-41559355D01*
X9455246Y-41615228D01*
X9600000Y-41634285D01*
X9657554Y-41626708D01*
X9727250Y-41637435D01*
X9780267Y-41683930D01*
X9800000Y-41751630D01*
X9800000Y-42925000D01*
X10138097Y-43263097D01*
X10165409Y-43303972D01*
X10175000Y-43352190D01*
X10175000Y-43899000D01*
X10158119Y-43962000D01*
X10112000Y-44008119D01*
X10049000Y-44025000D01*
X8385500Y-44025000D01*
X8322500Y-44008119D01*
X8276381Y-43962000D01*
X8259500Y-43899000D01*
X8259500Y-43852185D01*
X8254515Y-43801573D01*
X8254514Y-43801570D01*
X8254514Y-43801565D01*
X8244923Y-43753347D01*
X8230156Y-43704666D01*
X8206175Y-43659801D01*
X8178863Y-43618926D01*
X8146591Y-43579603D01*
X7896402Y-43329414D01*
X7869091Y-43288540D01*
X7859500Y-43240322D01*
X7859500Y-43117193D01*
X7859500Y-43117187D01*
X7856034Y-43074915D01*
X7849347Y-43034413D01*
X7822170Y-42954354D01*
X7822170Y-42954353D01*
X7802817Y-42918149D01*
X7802063Y-42916979D01*
X7791547Y-42896914D01*
X7768938Y-42842331D01*
X7760425Y-42810557D01*
X7754618Y-42766443D01*
X7754618Y-42733554D01*
X7761513Y-42681176D01*
X7764995Y-42664037D01*
X7779316Y-42612293D01*
X7788300Y-42551725D01*
X7789858Y-42488214D01*
X7775939Y-42426228D01*
X7755311Y-42368576D01*
X7755310Y-42368574D01*
X7755309Y-42368571D01*
X7726747Y-42311828D01*
X7705592Y-42287304D01*
X7682895Y-42248905D01*
X7675000Y-42205004D01*
X7675000Y-41127190D01*
X7684591Y-41078972D01*
X7711905Y-41038095D01*
X7863095Y-40886905D01*
X7903972Y-40859591D01*
X7952190Y-40850000D01*
X8647810Y-40850000D01*
X8696028Y-40859591D01*
G37*
%TD.AperFunction*%
%TA.AperFunction,Conductor*%
G36*
X17437000Y-50016881D02*
G01*
X17483119Y-50063000D01*
X17500000Y-50126000D01*
X17500000Y-52874000D01*
X17483119Y-52937000D01*
X17437000Y-52983119D01*
X17374000Y-53000000D01*
X14126000Y-53000000D01*
X14063000Y-52983119D01*
X14016881Y-52937000D01*
X14000000Y-52874000D01*
X14000000Y-50126000D01*
X14016881Y-50063000D01*
X14063000Y-50016881D01*
X14126000Y-50000000D01*
X17374000Y-50000000D01*
X17437000Y-50016881D01*
G37*
%TD.AperFunction*%
%TA.AperFunction,Conductor*%
G36*
X63688000Y-30766613D02*
G01*
X63733387Y-30812000D01*
X63750000Y-30874000D01*
X63750000Y-31748918D01*
X63740561Y-31796371D01*
X63713681Y-31836599D01*
X63086599Y-32463681D01*
X63046371Y-32490561D01*
X62998918Y-32500000D01*
X61751081Y-32500000D01*
X61703628Y-32490561D01*
X61663400Y-32463681D01*
X61536319Y-32336600D01*
X61509439Y-32296372D01*
X61500000Y-32248919D01*
X61500000Y-30874000D01*
X61516613Y-30812000D01*
X61562000Y-30766613D01*
X61624000Y-30750000D01*
X63626000Y-30750000D01*
X63688000Y-30766613D01*
G37*
%TD.AperFunction*%
%TA.AperFunction,Conductor*%
G36*
X13437000Y-52516881D02*
G01*
X13483119Y-52563000D01*
X13500000Y-52626000D01*
X13500000Y-53500000D01*
X17374000Y-53500000D01*
X17437000Y-53516881D01*
X17483119Y-53563000D01*
X17500000Y-53626000D01*
X17500000Y-54874000D01*
X17483119Y-54937000D01*
X17437000Y-54983119D01*
X17374000Y-55000000D01*
X12126000Y-55000000D01*
X12063000Y-54983119D01*
X12016881Y-54937000D01*
X12000000Y-54874000D01*
X12000000Y-52626000D01*
X12016881Y-52563000D01*
X12063000Y-52516881D01*
X12126000Y-52500000D01*
X13374000Y-52500000D01*
X13437000Y-52516881D01*
G37*
%TD.AperFunction*%
%TA.AperFunction,Conductor*%
G36*
X56938000Y-9516613D02*
G01*
X56983387Y-9562000D01*
X57000000Y-9624000D01*
X57000000Y-10376000D01*
X56983387Y-10438000D01*
X56938000Y-10483387D01*
X56876000Y-10500000D01*
X55378500Y-10500000D01*
X55316500Y-10483387D01*
X55271113Y-10438000D01*
X55254500Y-10376000D01*
X55254500Y-9760333D01*
X55263939Y-9712880D01*
X55290819Y-9672652D01*
X55427152Y-9536319D01*
X55467380Y-9509439D01*
X55514833Y-9500000D01*
X56876000Y-9500000D01*
X56938000Y-9516613D01*
G37*
%TD.AperFunction*%
%TA.AperFunction,Conductor*%
G36*
X7465611Y-42414878D02*
G01*
X7510980Y-42455998D01*
X7531608Y-42513650D01*
X7522624Y-42574218D01*
X7509771Y-42605246D01*
X7490715Y-42749999D01*
X7509771Y-42894753D01*
X7565645Y-43029644D01*
X7573962Y-43040483D01*
X7593313Y-43076685D01*
X7600000Y-43117187D01*
X7600000Y-43400000D01*
X7963097Y-43763097D01*
X7990409Y-43803972D01*
X8000000Y-43852190D01*
X8000000Y-45074000D01*
X7983119Y-45137000D01*
X7937000Y-45183119D01*
X7874000Y-45200000D01*
X7052190Y-45200000D01*
X7003972Y-45190409D01*
X6963095Y-45163095D01*
X6836905Y-45036905D01*
X6809591Y-44996028D01*
X6800000Y-44947810D01*
X6800000Y-44288889D01*
X6816881Y-44225889D01*
X6877509Y-44120878D01*
X6902361Y-44037866D01*
X6928095Y-43951909D01*
X6938351Y-43775831D01*
X6907723Y-43602134D01*
X6837864Y-43440182D01*
X6782918Y-43366377D01*
X6732540Y-43298707D01*
X6732539Y-43298706D01*
X6597427Y-43185333D01*
X6439811Y-43106176D01*
X6299432Y-43072905D01*
X6239397Y-43039397D01*
X5836905Y-42636905D01*
X5809591Y-42596028D01*
X5800000Y-42547810D01*
X5800000Y-42526000D01*
X5816881Y-42463000D01*
X5863000Y-42416881D01*
X5926000Y-42400000D01*
X7406215Y-42400000D01*
X7465611Y-42414878D01*
G37*
%TD.AperFunction*%
%TA.AperFunction,Conductor*%
G36*
X56938000Y-8016613D02*
G01*
X56983387Y-8062000D01*
X57000000Y-8124000D01*
X57000000Y-8876000D01*
X56983387Y-8938000D01*
X56938000Y-8983387D01*
X56876000Y-9000000D01*
X55374000Y-9000000D01*
X55312000Y-8983387D01*
X55266613Y-8938000D01*
X55250000Y-8876000D01*
X55250000Y-8124000D01*
X55266613Y-8062000D01*
X55312000Y-8016613D01*
X55374000Y-8000000D01*
X56876000Y-8000000D01*
X56938000Y-8016613D01*
G37*
%TD.AperFunction*%
%TA.AperFunction,Conductor*%
G36*
X13996028Y-57009591D02*
G01*
X14036905Y-57036905D01*
X14463095Y-57463095D01*
X14490409Y-57503972D01*
X14500000Y-57552190D01*
X14500000Y-60947810D01*
X14490409Y-60996028D01*
X14463095Y-61036905D01*
X14036905Y-61463095D01*
X13996028Y-61490409D01*
X13947810Y-61500000D01*
X11552190Y-61500000D01*
X11503972Y-61490409D01*
X11463095Y-61463095D01*
X11036905Y-61036905D01*
X11009591Y-60996028D01*
X11000000Y-60947810D01*
X11000000Y-57552190D01*
X11009591Y-57503972D01*
X11036905Y-57463095D01*
X11463095Y-57036905D01*
X11503972Y-57009591D01*
X11552190Y-57000000D01*
X13947810Y-57000000D01*
X13996028Y-57009591D01*
G37*
%TD.AperFunction*%
%TA.AperFunction,Conductor*%
G36*
X9187000Y-30401381D02*
G01*
X9233119Y-30447500D01*
X9250000Y-30510500D01*
X9250000Y-31374000D01*
X9233119Y-31437000D01*
X9187000Y-31483119D01*
X9124000Y-31500000D01*
X6376000Y-31500000D01*
X6313000Y-31483119D01*
X6266881Y-31437000D01*
X6250000Y-31374000D01*
X6250000Y-30510500D01*
X6266881Y-30447500D01*
X6313000Y-30401381D01*
X6376000Y-30384500D01*
X9124000Y-30384500D01*
X9187000Y-30401381D01*
G37*
%TD.AperFunction*%
%TA.AperFunction,Conductor*%
G36*
X11203788Y-33766881D02*
G01*
X11249907Y-33813000D01*
X11266788Y-33876000D01*
X11266788Y-34874000D01*
X11249907Y-34937000D01*
X11203788Y-34983119D01*
X11140788Y-35000000D01*
X9876000Y-35000000D01*
X9813000Y-34983119D01*
X9766881Y-34937000D01*
X9750000Y-34874000D01*
X9750000Y-33876000D01*
X9766881Y-33813000D01*
X9813000Y-33766881D01*
X9876000Y-33750000D01*
X11140788Y-33750000D01*
X11203788Y-33766881D01*
G37*
%TD.AperFunction*%
%TA.AperFunction,Conductor*%
G36*
X57437000Y-57516881D02*
G01*
X57483119Y-57563000D01*
X57500000Y-57626000D01*
X57500000Y-66972000D01*
X57483119Y-67035000D01*
X57437000Y-67081119D01*
X57374000Y-67098000D01*
X57355000Y-67098000D01*
X57292000Y-67081119D01*
X57245881Y-67035000D01*
X57229000Y-66972000D01*
X57229000Y-66300000D01*
X55396001Y-66300000D01*
X55396001Y-66972000D01*
X55379120Y-67035000D01*
X55333001Y-67081119D01*
X55270001Y-67098000D01*
X55126000Y-67098000D01*
X55063000Y-67081119D01*
X55016881Y-67035000D01*
X55000000Y-66972000D01*
X55000000Y-65800000D01*
X55396000Y-65800000D01*
X56062500Y-65800000D01*
X56062500Y-64621001D01*
X55851787Y-64621001D01*
X55791764Y-64627452D01*
X55655976Y-64678099D01*
X55539952Y-64764952D01*
X55453101Y-64880973D01*
X55402453Y-65016767D01*
X55396000Y-65076789D01*
X55396000Y-65800000D01*
X55000000Y-65800000D01*
X55000000Y-64621000D01*
X56562500Y-64621000D01*
X56562500Y-65800000D01*
X57228999Y-65800000D01*
X57228999Y-65076787D01*
X57222547Y-65016764D01*
X57171900Y-64880976D01*
X57085047Y-64764952D01*
X56969026Y-64678101D01*
X56833232Y-64627453D01*
X56773211Y-64621000D01*
X56562500Y-64621000D01*
X55000000Y-64621000D01*
X55000000Y-62887500D01*
X55383501Y-62887500D01*
X55383501Y-63610713D01*
X55389952Y-63670735D01*
X55440599Y-63806523D01*
X55527452Y-63922547D01*
X55643473Y-64009398D01*
X55779267Y-64060046D01*
X55839289Y-64066500D01*
X56050000Y-64066500D01*
X56050000Y-62887500D01*
X56550000Y-62887500D01*
X56550000Y-64066499D01*
X56760713Y-64066499D01*
X56820735Y-64060047D01*
X56956523Y-64009400D01*
X57072547Y-63922547D01*
X57159398Y-63806526D01*
X57210046Y-63670732D01*
X57216500Y-63610711D01*
X57216500Y-62887500D01*
X56550000Y-62887500D01*
X56050000Y-62887500D01*
X55383501Y-62887500D01*
X55000000Y-62887500D01*
X55000000Y-62387500D01*
X55383500Y-62387500D01*
X56050000Y-62387500D01*
X56050000Y-61208501D01*
X55839287Y-61208501D01*
X55779264Y-61214952D01*
X55643476Y-61265599D01*
X55527452Y-61352452D01*
X55440601Y-61468473D01*
X55389953Y-61604267D01*
X55383500Y-61664289D01*
X55383500Y-62387500D01*
X55000000Y-62387500D01*
X55000000Y-61208500D01*
X56550000Y-61208500D01*
X56550000Y-62387500D01*
X57216499Y-62387500D01*
X57216499Y-61664287D01*
X57210047Y-61604264D01*
X57159400Y-61468476D01*
X57072547Y-61352452D01*
X56956526Y-61265601D01*
X56820732Y-61214953D01*
X56760711Y-61208500D01*
X56550000Y-61208500D01*
X55000000Y-61208500D01*
X55000000Y-59500000D01*
X55371001Y-59500000D01*
X55371001Y-60223213D01*
X55377452Y-60283235D01*
X55428099Y-60419023D01*
X55514952Y-60535047D01*
X55630973Y-60621898D01*
X55766767Y-60672546D01*
X55826789Y-60679000D01*
X56037500Y-60679000D01*
X56037500Y-59500000D01*
X56537500Y-59500000D01*
X56537500Y-60678999D01*
X56748213Y-60678999D01*
X56808235Y-60672547D01*
X56944023Y-60621900D01*
X57060047Y-60535047D01*
X57146898Y-60419026D01*
X57197546Y-60283232D01*
X57204000Y-60223211D01*
X57204000Y-59500000D01*
X56537500Y-59500000D01*
X56037500Y-59500000D01*
X55371001Y-59500000D01*
X55000000Y-59500000D01*
X55000000Y-59000000D01*
X55371000Y-59000000D01*
X56037500Y-59000000D01*
X56037500Y-57821001D01*
X55826787Y-57821001D01*
X55766764Y-57827452D01*
X55630976Y-57878099D01*
X55514952Y-57964952D01*
X55428101Y-58080973D01*
X55377453Y-58216767D01*
X55371000Y-58276789D01*
X55371000Y-59000000D01*
X55000000Y-59000000D01*
X55000000Y-57821000D01*
X56537500Y-57821000D01*
X56537500Y-59000000D01*
X57203999Y-59000000D01*
X57203999Y-58276787D01*
X57197547Y-58216764D01*
X57146900Y-58080976D01*
X57060047Y-57964952D01*
X56944026Y-57878101D01*
X56808232Y-57827453D01*
X56748211Y-57821000D01*
X56537500Y-57821000D01*
X55000000Y-57821000D01*
X55000000Y-57626000D01*
X55016881Y-57563000D01*
X55063000Y-57516881D01*
X55126000Y-57500000D01*
X57374000Y-57500000D01*
X57437000Y-57516881D01*
G37*
%TD.AperFunction*%
%TA.AperFunction,Conductor*%
G36*
X33437000Y-62016881D02*
G01*
X33483119Y-62063000D01*
X33500000Y-62126000D01*
X33500000Y-63874000D01*
X33483119Y-63937000D01*
X33437000Y-63983119D01*
X33374000Y-64000000D01*
X29626000Y-64000000D01*
X29563000Y-63983119D01*
X29516881Y-63937000D01*
X29500000Y-63874000D01*
X29500000Y-62126000D01*
X29516881Y-62063000D01*
X29563000Y-62016881D01*
X29626000Y-62000000D01*
X33374000Y-62000000D01*
X33437000Y-62016881D01*
G37*
%TD.AperFunction*%
%TA.AperFunction,Conductor*%
G36*
X60910500Y-54243263D02*
G01*
X60946737Y-54279500D01*
X60960000Y-54329000D01*
X60960000Y-55424999D01*
X60960001Y-55425000D01*
X61046000Y-55425000D01*
X61095500Y-55438263D01*
X61131737Y-55474500D01*
X61145000Y-55524000D01*
X61145000Y-58451984D01*
X61162464Y-58478121D01*
X61170000Y-58516007D01*
X61170000Y-59471657D01*
X61162936Y-59508383D01*
X61159845Y-59516119D01*
X61143945Y-59577823D01*
X61135738Y-59643494D01*
X61140060Y-60875350D01*
X61149097Y-60942338D01*
X61166123Y-61005145D01*
X61192156Y-61067530D01*
X61233413Y-61121070D01*
X61279517Y-61167012D01*
X61333200Y-61208080D01*
X61338805Y-61210396D01*
X61383291Y-61246855D01*
X61400000Y-61301893D01*
X61400000Y-66517326D01*
X61391196Y-66558138D01*
X61366351Y-66591691D01*
X60857918Y-67038496D01*
X60365755Y-67471004D01*
X60360792Y-67475365D01*
X60330361Y-67493637D01*
X60295441Y-67500000D01*
X60147312Y-67500000D01*
X60089271Y-67481201D01*
X60053273Y-67431945D01*
X60052987Y-67370936D01*
X60088523Y-67321345D01*
X60121791Y-67296791D01*
X60202345Y-67187645D01*
X60247149Y-67059601D01*
X60250000Y-67029208D01*
X60250000Y-66300001D01*
X60249999Y-66300000D01*
X58525002Y-66300000D01*
X58525001Y-66300001D01*
X58525001Y-67029200D01*
X58527851Y-67059604D01*
X58572654Y-67187645D01*
X58653208Y-67296791D01*
X58686477Y-67321345D01*
X58722013Y-67370936D01*
X58721727Y-67431945D01*
X58685729Y-67481201D01*
X58627688Y-67500000D01*
X58291008Y-67500000D01*
X58253122Y-67492464D01*
X58221004Y-67471004D01*
X57788496Y-67038496D01*
X57767036Y-67006378D01*
X57759500Y-66968492D01*
X57759500Y-65799999D01*
X58525000Y-65799999D01*
X58525001Y-65800000D01*
X59137499Y-65800000D01*
X59137500Y-65799999D01*
X59637500Y-65799999D01*
X59637501Y-65800000D01*
X60249998Y-65800000D01*
X60249999Y-65799999D01*
X60249999Y-65070800D01*
X60247148Y-65040395D01*
X60202345Y-64912354D01*
X60121791Y-64803208D01*
X60012645Y-64722654D01*
X59884601Y-64677850D01*
X59854208Y-64675000D01*
X59637501Y-64675000D01*
X59637500Y-64675001D01*
X59637500Y-65799999D01*
X59137500Y-65799999D01*
X59137500Y-64675002D01*
X59137499Y-64675001D01*
X58920800Y-64675001D01*
X58890395Y-64677851D01*
X58762354Y-64722654D01*
X58653208Y-64803208D01*
X58572654Y-64912354D01*
X58527850Y-65040398D01*
X58525000Y-65070792D01*
X58525000Y-65799999D01*
X57759500Y-65799999D01*
X57759500Y-63616700D01*
X58512501Y-63616700D01*
X58515351Y-63647104D01*
X58560154Y-63775145D01*
X58640708Y-63884291D01*
X58749854Y-63964845D01*
X58877898Y-64009649D01*
X58908292Y-64012500D01*
X59124999Y-64012500D01*
X59125000Y-64012499D01*
X59125000Y-64012498D01*
X59625000Y-64012498D01*
X59625001Y-64012499D01*
X59841700Y-64012499D01*
X59872104Y-64009648D01*
X60000145Y-63964845D01*
X60109291Y-63884291D01*
X60189845Y-63775145D01*
X60234649Y-63647101D01*
X60237500Y-63616708D01*
X60237500Y-62887501D01*
X60237499Y-62887500D01*
X59625001Y-62887500D01*
X59625000Y-62887501D01*
X59625000Y-64012498D01*
X59125000Y-64012498D01*
X59125000Y-62887501D01*
X59124999Y-62887500D01*
X58512502Y-62887500D01*
X58512501Y-62887501D01*
X58512501Y-63616700D01*
X57759500Y-63616700D01*
X57759500Y-62387499D01*
X58512500Y-62387499D01*
X58512501Y-62387500D01*
X59124999Y-62387500D01*
X59125000Y-62387499D01*
X59625000Y-62387499D01*
X59625001Y-62387500D01*
X60237498Y-62387500D01*
X60237499Y-62387499D01*
X60237499Y-61658300D01*
X60234648Y-61627895D01*
X60189845Y-61499854D01*
X60109291Y-61390708D01*
X60000145Y-61310154D01*
X59872101Y-61265350D01*
X59841708Y-61262500D01*
X59625001Y-61262500D01*
X59625000Y-61262501D01*
X59625000Y-62387499D01*
X59125000Y-62387499D01*
X59125000Y-61262502D01*
X59124999Y-61262501D01*
X58908300Y-61262501D01*
X58877895Y-61265351D01*
X58749854Y-61310154D01*
X58640708Y-61390708D01*
X58560154Y-61499854D01*
X58515350Y-61627898D01*
X58512500Y-61658292D01*
X58512500Y-62387499D01*
X57759500Y-62387499D01*
X57759500Y-60229200D01*
X58500001Y-60229200D01*
X58502851Y-60259604D01*
X58547654Y-60387645D01*
X58628208Y-60496791D01*
X58737354Y-60577345D01*
X58865398Y-60622149D01*
X58895792Y-60625000D01*
X59112499Y-60625000D01*
X59112500Y-60624999D01*
X59112500Y-60624998D01*
X59612500Y-60624998D01*
X59612501Y-60624999D01*
X59829200Y-60624999D01*
X59859604Y-60622148D01*
X59987645Y-60577345D01*
X60096791Y-60496791D01*
X60177345Y-60387645D01*
X60222149Y-60259601D01*
X60225000Y-60229208D01*
X60225000Y-59500001D01*
X60224999Y-59500000D01*
X59612501Y-59500000D01*
X59612500Y-59500001D01*
X59612500Y-60624998D01*
X59112500Y-60624998D01*
X59112500Y-59500001D01*
X59112499Y-59500000D01*
X58500002Y-59500000D01*
X58500001Y-59500001D01*
X58500001Y-60229200D01*
X57759500Y-60229200D01*
X57759500Y-59250000D01*
X60445287Y-59250000D01*
X60446518Y-59259357D01*
X60497190Y-59368021D01*
X60581976Y-59452807D01*
X60670000Y-59493853D01*
X60670000Y-59250001D01*
X60669999Y-59250000D01*
X60445287Y-59250000D01*
X57759500Y-59250000D01*
X57759500Y-58999999D01*
X58500000Y-58999999D01*
X58500001Y-59000000D01*
X59112499Y-59000000D01*
X59112500Y-58999999D01*
X59612500Y-58999999D01*
X59612501Y-59000000D01*
X60224998Y-59000000D01*
X60224999Y-58999999D01*
X60224999Y-58277089D01*
X60231074Y-58257522D01*
X60227543Y-58252330D01*
X60418242Y-58252330D01*
X60472190Y-58368021D01*
X60546665Y-58442496D01*
X60572288Y-58486877D01*
X60572288Y-58538123D01*
X60546665Y-58582504D01*
X60497190Y-58631978D01*
X60446518Y-58740642D01*
X60445286Y-58749999D01*
X60445287Y-58750000D01*
X60669999Y-58750000D01*
X60670000Y-58749999D01*
X60670000Y-58548016D01*
X60652536Y-58521879D01*
X60645000Y-58483993D01*
X60645000Y-58250001D01*
X60644999Y-58250000D01*
X60420286Y-58250000D01*
X60418242Y-58252330D01*
X60227543Y-58252330D01*
X60225033Y-58248639D01*
X60177345Y-58112354D01*
X60096791Y-58003208D01*
X59987645Y-57922654D01*
X59859601Y-57877850D01*
X59829208Y-57875000D01*
X59612501Y-57875000D01*
X59612500Y-57875001D01*
X59612500Y-58999999D01*
X59112500Y-58999999D01*
X59112500Y-57875002D01*
X59112499Y-57875001D01*
X58895800Y-57875001D01*
X58865395Y-57877851D01*
X58737354Y-57922654D01*
X58628208Y-58003208D01*
X58547654Y-58112354D01*
X58502850Y-58240398D01*
X58500000Y-58270792D01*
X58500000Y-58999999D01*
X57759500Y-58999999D01*
X57759500Y-57749999D01*
X60420286Y-57749999D01*
X60420287Y-57750000D01*
X60644999Y-57750000D01*
X60645000Y-57749999D01*
X60645000Y-57225001D01*
X60644999Y-57225000D01*
X60420287Y-57225000D01*
X60421518Y-57234357D01*
X60472190Y-57343021D01*
X60546665Y-57417496D01*
X60572288Y-57461877D01*
X60572288Y-57513123D01*
X60546665Y-57557504D01*
X60472190Y-57631978D01*
X60421518Y-57740642D01*
X60420286Y-57749999D01*
X57759500Y-57749999D01*
X57759500Y-57625999D01*
X57750658Y-57558838D01*
X57750658Y-57558836D01*
X57733777Y-57495836D01*
X57707852Y-57433250D01*
X57707850Y-57433247D01*
X57699442Y-57422289D01*
X57680488Y-57379213D01*
X57683566Y-57332252D01*
X57707976Y-57292023D01*
X58065061Y-56934938D01*
X58119221Y-56907220D01*
X58179368Y-56916413D01*
X58222779Y-56959048D01*
X58229173Y-56996364D01*
X58232327Y-56995911D01*
X58254834Y-57152455D01*
X58254835Y-57152457D01*
X58314623Y-57283373D01*
X58397922Y-57379506D01*
X58408874Y-57392145D01*
X58517380Y-57461877D01*
X58529947Y-57469953D01*
X58668039Y-57510500D01*
X58811961Y-57510500D01*
X58950053Y-57469953D01*
X59071128Y-57392143D01*
X59165377Y-57283373D01*
X59225165Y-57152457D01*
X59245647Y-57010000D01*
X59225165Y-56867543D01*
X59165377Y-56736627D01*
X59102298Y-56663830D01*
X59079127Y-56613089D01*
X59087066Y-56557874D01*
X59123596Y-56515716D01*
X59177119Y-56500000D01*
X60366677Y-56500000D01*
X60414295Y-56512204D01*
X60450173Y-56545808D01*
X60465465Y-56592526D01*
X60456401Y-56640840D01*
X60421518Y-56715642D01*
X60420286Y-56724999D01*
X60420287Y-56725000D01*
X60644999Y-56725000D01*
X60645000Y-56724999D01*
X60645000Y-55481146D01*
X60616539Y-55494418D01*
X60557509Y-55502189D01*
X60504696Y-55474697D01*
X60500000Y-55470001D01*
X60500000Y-54252763D01*
X60509500Y-54243263D01*
X60559000Y-54230000D01*
X60861000Y-54230000D01*
X60910500Y-54243263D01*
G37*
%TD.AperFunction*%
%TA.AperFunction,Conductor*%
G36*
X62936500Y-52516881D02*
G01*
X62982619Y-52563000D01*
X62999500Y-52626000D01*
X62999500Y-53135548D01*
X63000000Y-53143176D01*
X63000000Y-56000001D01*
X63963095Y-56963095D01*
X63990409Y-57003972D01*
X64000000Y-57052190D01*
X64000000Y-60874000D01*
X63983119Y-60937000D01*
X63937000Y-60983119D01*
X63874000Y-61000000D01*
X61525558Y-61000000D01*
X61462686Y-60983193D01*
X61416586Y-60937255D01*
X61399559Y-60874442D01*
X61395237Y-59642580D01*
X61411139Y-59580867D01*
X61455211Y-59534826D01*
X61516177Y-59516245D01*
X61578437Y-59529876D01*
X61616730Y-59549387D01*
X61629999Y-59551488D01*
X61630000Y-59551488D01*
X61630000Y-59250000D01*
X62130000Y-59250000D01*
X62130000Y-59551488D01*
X62143269Y-59549387D01*
X62254475Y-59492725D01*
X62342725Y-59404475D01*
X62399386Y-59293271D01*
X62406240Y-59250000D01*
X62130000Y-59250000D01*
X61630000Y-59250000D01*
X61630000Y-58598087D01*
X61614591Y-58575027D01*
X61605000Y-58526809D01*
X61605000Y-58250000D01*
X62105000Y-58250000D01*
X62105000Y-58401913D01*
X62120409Y-58424973D01*
X62130000Y-58473191D01*
X62130000Y-58750000D01*
X62406239Y-58750000D01*
X62399386Y-58706728D01*
X62342725Y-58595524D01*
X62323796Y-58576595D01*
X62291184Y-58520111D01*
X62291184Y-58454889D01*
X62309716Y-58422791D01*
X62308666Y-58422256D01*
X62374386Y-58293271D01*
X62381240Y-58250000D01*
X62105000Y-58250000D01*
X61605000Y-58250000D01*
X61605000Y-57225000D01*
X62105000Y-57225000D01*
X62105000Y-57750000D01*
X62381239Y-57750000D01*
X62374386Y-57706728D01*
X62317725Y-57595524D01*
X62298796Y-57576595D01*
X62266184Y-57520111D01*
X62266184Y-57454889D01*
X62298796Y-57398405D01*
X62317725Y-57379475D01*
X62374386Y-57268271D01*
X62381240Y-57225000D01*
X62105000Y-57225000D01*
X61605000Y-57225000D01*
X61605000Y-56225000D01*
X62105000Y-56225000D01*
X62105000Y-56725000D01*
X62381239Y-56725000D01*
X62374386Y-56681728D01*
X62317725Y-56570524D01*
X62311296Y-56564095D01*
X62278684Y-56507611D01*
X62278684Y-56442389D01*
X62311296Y-56385905D01*
X62317725Y-56379475D01*
X62374386Y-56268271D01*
X62381240Y-56225000D01*
X62105000Y-56225000D01*
X61605000Y-56225000D01*
X61605000Y-55725000D01*
X62105000Y-55725000D01*
X62381239Y-55725000D01*
X62374386Y-55681730D01*
X62365896Y-55665066D01*
X62352169Y-55609099D01*
X62364795Y-55552874D01*
X62401134Y-55508151D01*
X62453584Y-55484284D01*
X62529105Y-55469263D01*
X62613124Y-55413123D01*
X62669263Y-55329106D01*
X62684000Y-55255019D01*
X62684000Y-54730000D01*
X62230000Y-54730000D01*
X62230000Y-55398000D01*
X62213119Y-55461000D01*
X62167000Y-55507119D01*
X62105364Y-55523634D01*
X62105000Y-55523999D01*
X62105000Y-55725000D01*
X61605000Y-55725000D01*
X61605000Y-55497000D01*
X61621881Y-55434000D01*
X61668000Y-55387881D01*
X61729635Y-55371365D01*
X61730000Y-55371001D01*
X61730000Y-53476001D01*
X61504982Y-53476001D01*
X61430894Y-53490736D01*
X61415450Y-53501056D01*
X61370029Y-53519869D01*
X61320867Y-53519869D01*
X61275450Y-53501056D01*
X61259301Y-53490266D01*
X61187580Y-53476000D01*
X62230000Y-53476000D01*
X62230000Y-54230000D01*
X62683999Y-54230000D01*
X62683999Y-53704982D01*
X62669263Y-53630894D01*
X62613123Y-53546875D01*
X62529106Y-53490736D01*
X62455019Y-53476000D01*
X62230000Y-53476000D01*
X61187580Y-53476000D01*
X61185066Y-53475500D01*
X60234931Y-53475500D01*
X60150579Y-53492278D01*
X60095383Y-53490922D01*
X60046065Y-53466098D01*
X60012097Y-53422570D01*
X60000000Y-53368699D01*
X60000000Y-52626000D01*
X60016881Y-52563000D01*
X60063000Y-52516881D01*
X60126000Y-52500000D01*
X62873500Y-52500000D01*
X62936500Y-52516881D01*
G37*
%TD.AperFunction*%
%TA.AperFunction,Conductor*%
G36*
X21605357Y-45337263D02*
G01*
X21652148Y-45375302D01*
X21693993Y-45431201D01*
X21693994Y-45431202D01*
X21693996Y-45431204D01*
X21810133Y-45518142D01*
X21810136Y-45518143D01*
X21946054Y-45568839D01*
X21946055Y-45568839D01*
X21946058Y-45568840D01*
X22006145Y-45575300D01*
X23002654Y-45575299D01*
X23062742Y-45568840D01*
X23198667Y-45518142D01*
X23299752Y-45442471D01*
X23356344Y-45419011D01*
X23417262Y-45425508D01*
X23467634Y-45460375D01*
X23495166Y-45515103D01*
X23493138Y-45576333D01*
X23477895Y-45628800D01*
X24408400Y-45628800D01*
X24470400Y-45645413D01*
X24515787Y-45690800D01*
X24532400Y-45752800D01*
X24532400Y-46657590D01*
X24553315Y-46655945D01*
X24708594Y-46610832D01*
X24847779Y-46528518D01*
X24962118Y-46414179D01*
X25044431Y-46274996D01*
X25072733Y-46177579D01*
X25105516Y-46123126D01*
X25160972Y-46092069D01*
X25224530Y-46092568D01*
X25279491Y-46124492D01*
X25515581Y-46360582D01*
X25542461Y-46400810D01*
X25551900Y-46448263D01*
X25551900Y-47956206D01*
X25549261Y-47981652D01*
X25547284Y-47991080D01*
X25550948Y-48020475D01*
X25551870Y-48035333D01*
X25555121Y-48054817D01*
X25555859Y-48059883D01*
X25562922Y-48116544D01*
X25590099Y-48166763D01*
X25592443Y-48171318D01*
X25617516Y-48222605D01*
X25659536Y-48261287D01*
X25663235Y-48264836D01*
X25874989Y-48476591D01*
X25891114Y-48496447D01*
X25896384Y-48504514D01*
X25919756Y-48522705D01*
X25930911Y-48532556D01*
X25931061Y-48532663D01*
X25931064Y-48532666D01*
X25947034Y-48544068D01*
X25951094Y-48547096D01*
X25990172Y-48577511D01*
X25990173Y-48577511D01*
X25996165Y-48582175D01*
X26003437Y-48584340D01*
X26003439Y-48584341D01*
X26050909Y-48598473D01*
X26055756Y-48600025D01*
X26102577Y-48616100D01*
X26102578Y-48616100D01*
X26109758Y-48618565D01*
X26117341Y-48618251D01*
X26117344Y-48618252D01*
X26166805Y-48616205D01*
X26171929Y-48616100D01*
X26388831Y-48616100D01*
X26436283Y-48625539D01*
X26476512Y-48652418D01*
X26488864Y-48664770D01*
X26488865Y-48664771D01*
X26577229Y-48753135D01*
X26577231Y-48753136D01*
X26688572Y-48809868D01*
X26709987Y-48813259D01*
X26780955Y-48824500D01*
X27123044Y-48824499D01*
X27123047Y-48824499D01*
X27180082Y-48815466D01*
X27237797Y-48820008D01*
X27287160Y-48850258D01*
X27376620Y-48939718D01*
X27515803Y-49022031D01*
X27662000Y-49064504D01*
X27662000Y-48510000D01*
X28162000Y-48510000D01*
X28162000Y-49064504D01*
X28308196Y-49022031D01*
X28447379Y-48939718D01*
X28561718Y-48825379D01*
X28644032Y-48686194D01*
X28689144Y-48530917D01*
X28690790Y-48510000D01*
X28162000Y-48510000D01*
X27662000Y-48510000D01*
X27662000Y-47455496D01*
X27586294Y-47477490D01*
X27529422Y-47480395D01*
X27477248Y-47457574D01*
X27440776Y-47413838D01*
X27427700Y-47358413D01*
X27427700Y-47290000D01*
X27444313Y-47228000D01*
X27489700Y-47182613D01*
X27551700Y-47166000D01*
X27831037Y-47166000D01*
X27878490Y-47175439D01*
X27918718Y-47202319D01*
X28125681Y-47409283D01*
X28152561Y-47449511D01*
X28162000Y-47496964D01*
X28162000Y-48010000D01*
X28675037Y-48010000D01*
X28722490Y-48019439D01*
X28762716Y-48046317D01*
X29181754Y-48465356D01*
X29599389Y-48882991D01*
X29615515Y-48902848D01*
X29620784Y-48910913D01*
X29620785Y-48910914D01*
X29620786Y-48910915D01*
X29644158Y-48929106D01*
X29655314Y-48938958D01*
X29655460Y-48939062D01*
X29655464Y-48939066D01*
X29668334Y-48948255D01*
X29671411Y-48950452D01*
X29675516Y-48953514D01*
X29720561Y-48988573D01*
X29727838Y-48990739D01*
X29727839Y-48990740D01*
X29762100Y-49000940D01*
X29775277Y-49004863D01*
X29780151Y-49006424D01*
X29826977Y-49022500D01*
X29826978Y-49022500D01*
X29834158Y-49024965D01*
X29841741Y-49024651D01*
X29841744Y-49024652D01*
X29891205Y-49022605D01*
X29896329Y-49022500D01*
X30643031Y-49022500D01*
X30690483Y-49031939D01*
X30730712Y-49058818D01*
X30743064Y-49071170D01*
X30743065Y-49071171D01*
X30831429Y-49159535D01*
X30831431Y-49159536D01*
X30942772Y-49216268D01*
X30964187Y-49219659D01*
X31035155Y-49230900D01*
X31377244Y-49230899D01*
X31377247Y-49230899D01*
X31434282Y-49221866D01*
X31491997Y-49226408D01*
X31541360Y-49256658D01*
X31630820Y-49346118D01*
X31770003Y-49428431D01*
X31916200Y-49470904D01*
X31916200Y-48916400D01*
X32416200Y-48916400D01*
X32416200Y-49470904D01*
X32562396Y-49428431D01*
X32701579Y-49346118D01*
X32815918Y-49231779D01*
X32898232Y-49092594D01*
X32943344Y-48937317D01*
X32944990Y-48916400D01*
X32416200Y-48916400D01*
X31916200Y-48916400D01*
X31916200Y-48540400D01*
X31932813Y-48478400D01*
X31978200Y-48433013D01*
X32040200Y-48416400D01*
X32944990Y-48416400D01*
X32943345Y-48395484D01*
X32898232Y-48240205D01*
X32840876Y-48143221D01*
X32823612Y-48081074D01*
X32839898Y-48018663D01*
X32885327Y-47972876D01*
X32947608Y-47956100D01*
X36280206Y-47956100D01*
X36305652Y-47958739D01*
X36315081Y-47960716D01*
X36341446Y-47957429D01*
X36344475Y-47957052D01*
X36359326Y-47956130D01*
X36359506Y-47956100D01*
X36359508Y-47956100D01*
X36378836Y-47952874D01*
X36383880Y-47952138D01*
X36433013Y-47946015D01*
X36433014Y-47946014D01*
X36440549Y-47945075D01*
X36447222Y-47941463D01*
X36447224Y-47941463D01*
X36490795Y-47917882D01*
X36495271Y-47915578D01*
X36539782Y-47893819D01*
X36539785Y-47893815D01*
X36546607Y-47890481D01*
X36551744Y-47884899D01*
X36551746Y-47884899D01*
X36585289Y-47848459D01*
X36588816Y-47844783D01*
X36872319Y-47561280D01*
X36921682Y-47531031D01*
X36979398Y-47526489D01*
X37032885Y-47548644D01*
X37070485Y-47592667D01*
X37084000Y-47648962D01*
X37084000Y-49436638D01*
X37074561Y-49484091D01*
X37047681Y-49524319D01*
X36866319Y-49705681D01*
X36826091Y-49732561D01*
X36778638Y-49742000D01*
X26215433Y-49742000D01*
X26167980Y-49732561D01*
X26127752Y-49705681D01*
X23495218Y-47073147D01*
X23468338Y-47032919D01*
X23458899Y-46985466D01*
X23458899Y-46569759D01*
X23472414Y-46513464D01*
X23510014Y-46469441D01*
X23563501Y-46447286D01*
X23621217Y-46451828D01*
X23670580Y-46482078D01*
X23717020Y-46528518D01*
X23856205Y-46610832D01*
X24011482Y-46655944D01*
X24032399Y-46657590D01*
X24032400Y-46657590D01*
X24032400Y-46128800D01*
X23460793Y-46128800D01*
X23451946Y-46135740D01*
X23388463Y-46144821D01*
X23328933Y-46120973D01*
X23295368Y-46095847D01*
X23198667Y-46023458D01*
X23198666Y-46023457D01*
X23198664Y-46023456D01*
X23062745Y-45972760D01*
X23036990Y-45969991D01*
X23002655Y-45966300D01*
X23002651Y-45966300D01*
X22006140Y-45966300D01*
X21996163Y-45967373D01*
X21941659Y-45961018D01*
X21895235Y-45931764D01*
X21828315Y-45864844D01*
X21811681Y-45844202D01*
X21808997Y-45840027D01*
X21808996Y-45840025D01*
X21771135Y-45807218D01*
X21764658Y-45801187D01*
X21755020Y-45791549D01*
X21744101Y-45783375D01*
X21737212Y-45777823D01*
X21699358Y-45745023D01*
X21694835Y-45742957D01*
X21672046Y-45729435D01*
X21668068Y-45726457D01*
X21634401Y-45713900D01*
X21621134Y-45708951D01*
X21612970Y-45705570D01*
X21597264Y-45698397D01*
X21567395Y-45684757D01*
X21562481Y-45684051D01*
X21536796Y-45677495D01*
X21532143Y-45675759D01*
X21482178Y-45672185D01*
X21473394Y-45671241D01*
X21470011Y-45670755D01*
X21408135Y-45643169D01*
X21369991Y-45587179D01*
X21366967Y-45519499D01*
X21399965Y-45460331D01*
X21406120Y-45454175D01*
X21446149Y-45386491D01*
X21488545Y-45343608D01*
X21546156Y-45325795D01*
X21605357Y-45337263D01*
G37*
%TD.AperFunction*%
%TA.AperFunction,Conductor*%
G36*
X32942371Y-43655439D02*
G01*
X32982599Y-43682319D01*
X33031499Y-43731219D01*
X33061749Y-43780582D01*
X33066291Y-43838298D01*
X33044136Y-43891785D01*
X33000113Y-43929385D01*
X32943818Y-43942900D01*
X32708364Y-43942900D01*
X32613643Y-43957901D01*
X32499477Y-44016073D01*
X32408873Y-44106677D01*
X32350701Y-44220843D01*
X32335700Y-44315564D01*
X32335700Y-45554236D01*
X32350701Y-45648953D01*
X32353929Y-45655288D01*
X32367062Y-45721312D01*
X32343762Y-45784468D01*
X32290897Y-45826144D01*
X32224047Y-45834056D01*
X32122038Y-45817900D01*
X32122034Y-45817900D01*
X31896378Y-45817900D01*
X31840953Y-45804824D01*
X31797217Y-45768352D01*
X31774396Y-45716178D01*
X31777302Y-45659305D01*
X31787299Y-45624893D01*
X31790200Y-45588039D01*
X31790200Y-45184900D01*
X31240200Y-45184900D01*
X31240200Y-46169695D01*
X31251973Y-46168769D01*
X31317996Y-46181903D01*
X31367428Y-46227598D01*
X31385700Y-46292387D01*
X31385700Y-47429236D01*
X31400701Y-47523953D01*
X31400701Y-47523954D01*
X31400702Y-47523955D01*
X31404307Y-47531031D01*
X31410210Y-47542615D01*
X31423555Y-47592420D01*
X31415489Y-47643348D01*
X31387406Y-47686591D01*
X30986617Y-48087380D01*
X30955232Y-48110183D01*
X30831430Y-48173264D01*
X30730712Y-48273982D01*
X30690483Y-48300861D01*
X30643031Y-48310300D01*
X30085264Y-48310300D01*
X30037811Y-48300861D01*
X29997583Y-48273981D01*
X28316911Y-46593310D01*
X28300782Y-46573448D01*
X28295513Y-46565383D01*
X28272136Y-46547188D01*
X28260987Y-46537342D01*
X28244902Y-46525858D01*
X28240795Y-46522796D01*
X28228805Y-46513464D01*
X28221239Y-46507575D01*
X28195734Y-46487723D01*
X28141000Y-46471429D01*
X28136119Y-46469865D01*
X28082141Y-46451334D01*
X28029926Y-46453494D01*
X28025094Y-46453694D01*
X28019971Y-46453800D01*
X27551700Y-46453800D01*
X27489700Y-46437187D01*
X27444313Y-46391800D01*
X27427700Y-46329800D01*
X27427700Y-46190564D01*
X27421576Y-46151900D01*
X28608696Y-46151900D01*
X28651168Y-46298096D01*
X28733481Y-46437279D01*
X28847820Y-46551618D01*
X28987005Y-46633932D01*
X29142282Y-46679044D01*
X29163199Y-46680690D01*
X29163200Y-46680690D01*
X29163200Y-46151900D01*
X28608696Y-46151900D01*
X27421576Y-46151900D01*
X27417235Y-46124492D01*
X27412698Y-46095845D01*
X27409470Y-46089510D01*
X27396337Y-46023489D01*
X27419636Y-45960331D01*
X27472502Y-45918655D01*
X27539353Y-45910743D01*
X27641364Y-45926900D01*
X27641366Y-45926900D01*
X28005034Y-45926900D01*
X28005036Y-45926900D01*
X28099756Y-45911898D01*
X28156839Y-45882811D01*
X28213923Y-45853726D01*
X28304526Y-45763123D01*
X28362698Y-45648955D01*
X28362698Y-45648951D01*
X28370988Y-45632683D01*
X28380063Y-45622430D01*
X28375143Y-45570380D01*
X28377700Y-45554236D01*
X28377700Y-45376900D01*
X28394313Y-45314900D01*
X28439700Y-45269513D01*
X28501700Y-45252900D01*
X28583281Y-45252900D01*
X28645562Y-45269675D01*
X28690991Y-45315463D01*
X28707277Y-45377874D01*
X28690013Y-45440021D01*
X28651168Y-45505703D01*
X28616693Y-45624372D01*
X28604062Y-45645729D01*
X28608695Y-45651900D01*
X29539200Y-45651900D01*
X29601200Y-45668513D01*
X29646587Y-45713900D01*
X29663200Y-45775900D01*
X29663200Y-46680690D01*
X29684115Y-46679045D01*
X29839394Y-46633932D01*
X29978579Y-46551618D01*
X30092918Y-46437279D01*
X30175232Y-46298094D01*
X30220344Y-46142816D01*
X30222663Y-46113355D01*
X30247413Y-46048243D01*
X30303362Y-46006747D01*
X30372855Y-46001964D01*
X30433962Y-46035402D01*
X30438642Y-46040082D01*
X30579999Y-46123680D01*
X30737711Y-46169499D01*
X30740199Y-46169695D01*
X30740200Y-46169695D01*
X30740200Y-44808900D01*
X30756813Y-44746900D01*
X30802200Y-44701513D01*
X30864200Y-44684900D01*
X31790200Y-44684900D01*
X31790200Y-44281761D01*
X31787299Y-44244906D01*
X31741482Y-44087202D01*
X31657882Y-43945842D01*
X31569721Y-43857681D01*
X31539471Y-43808318D01*
X31534929Y-43750602D01*
X31557084Y-43697115D01*
X31601107Y-43659515D01*
X31657402Y-43646000D01*
X32894918Y-43646000D01*
X32942371Y-43655439D01*
G37*
%TD.AperFunction*%
%TA.AperFunction,Conductor*%
G36*
X33679999Y-45159285D02*
G01*
X33679999Y-45159284D01*
X33680000Y-45159285D01*
X33721723Y-45153792D01*
X33782342Y-45160966D01*
X33832194Y-45196195D01*
X33859196Y-45250941D01*
X33856805Y-45311937D01*
X33838425Y-45342837D01*
X33840455Y-45344038D01*
X33750168Y-45496703D01*
X33707696Y-45642900D01*
X35308538Y-45642900D01*
X35320101Y-45645200D01*
X36194000Y-45645200D01*
X36256000Y-45661813D01*
X36301387Y-45707200D01*
X36318000Y-45769200D01*
X36318000Y-46673990D01*
X36338915Y-46672345D01*
X36460280Y-46637085D01*
X36524957Y-46635865D01*
X36581447Y-46667385D01*
X36614377Y-46723065D01*
X36614783Y-46787752D01*
X36582556Y-46843842D01*
X36218818Y-47207581D01*
X36178590Y-47234461D01*
X36131137Y-47243900D01*
X32929163Y-47243900D01*
X32881710Y-47234461D01*
X32841482Y-47207581D01*
X32531019Y-46897118D01*
X32504139Y-46856890D01*
X32494700Y-46809437D01*
X32494700Y-46190564D01*
X32487151Y-46142900D01*
X33707696Y-46142900D01*
X33750168Y-46289096D01*
X33832481Y-46428279D01*
X33946820Y-46542618D01*
X34086005Y-46624932D01*
X34241282Y-46670044D01*
X34262199Y-46671690D01*
X34262200Y-46671690D01*
X34262200Y-46142900D01*
X34762200Y-46142900D01*
X34762200Y-46671690D01*
X34783115Y-46670045D01*
X34938394Y-46624932D01*
X35077576Y-46542620D01*
X35201415Y-46418781D01*
X35248943Y-46389143D01*
X35304663Y-46383443D01*
X35357208Y-46402843D01*
X35375096Y-46421609D01*
X35377204Y-46419502D01*
X35502620Y-46544918D01*
X35641805Y-46627232D01*
X35797082Y-46672344D01*
X35817999Y-46673990D01*
X35818000Y-46673990D01*
X35818000Y-46145200D01*
X35271662Y-46145200D01*
X35260099Y-46142900D01*
X34762200Y-46142900D01*
X34262200Y-46142900D01*
X33707696Y-46142900D01*
X32487151Y-46142900D01*
X32484235Y-46124492D01*
X32479698Y-46095845D01*
X32476470Y-46089510D01*
X32463337Y-46023489D01*
X32486636Y-45960331D01*
X32539502Y-45918655D01*
X32606353Y-45910743D01*
X32708364Y-45926900D01*
X32708366Y-45926900D01*
X33072034Y-45926900D01*
X33072036Y-45926900D01*
X33166756Y-45911898D01*
X33223839Y-45882811D01*
X33280923Y-45853726D01*
X33371526Y-45763123D01*
X33418343Y-45671241D01*
X33429698Y-45648956D01*
X33444700Y-45554236D01*
X33444700Y-45269702D01*
X33464119Y-45203077D01*
X33516295Y-45157320D01*
X33584885Y-45146763D01*
X33679999Y-45159285D01*
G37*
%TD.AperFunction*%
%TA.AperFunction,Conductor*%
G36*
X26901561Y-44445595D02*
G01*
X26948777Y-44485924D01*
X26957347Y-44498165D01*
X26957348Y-44498166D01*
X26963012Y-44506255D01*
X26978447Y-44528300D01*
X26984246Y-44537402D01*
X27001410Y-44567129D01*
X27002641Y-44569261D01*
X27030812Y-44592899D01*
X27038788Y-44600208D01*
X27232381Y-44793801D01*
X27259261Y-44834029D01*
X27268700Y-44881482D01*
X27268700Y-45554236D01*
X27283701Y-45648953D01*
X27286929Y-45655288D01*
X27300062Y-45721312D01*
X27276762Y-45784468D01*
X27223897Y-45826144D01*
X27157047Y-45834056D01*
X27055038Y-45817900D01*
X27055034Y-45817900D01*
X26829378Y-45817900D01*
X26773953Y-45804824D01*
X26730217Y-45768352D01*
X26707396Y-45716178D01*
X26710302Y-45659305D01*
X26720299Y-45624893D01*
X26723200Y-45588039D01*
X26723200Y-45184900D01*
X25797200Y-45184900D01*
X25735200Y-45168287D01*
X25689813Y-45122900D01*
X25673200Y-45060900D01*
X25673200Y-44808900D01*
X25689813Y-44746900D01*
X25735200Y-44701513D01*
X25797200Y-44684900D01*
X26723200Y-44684900D01*
X26723200Y-44557044D01*
X26738748Y-44496927D01*
X26781491Y-44451885D01*
X26840713Y-44433214D01*
X26901561Y-44445595D01*
G37*
%TD.AperFunction*%
%TA.AperFunction,Conductor*%
G36*
X25312293Y-43659515D02*
G01*
X25356316Y-43697115D01*
X25378471Y-43750602D01*
X25373929Y-43808318D01*
X25343679Y-43857681D01*
X25255517Y-43945842D01*
X25171917Y-44087202D01*
X25126100Y-44244906D01*
X25123200Y-44281761D01*
X25123200Y-44661637D01*
X25109685Y-44717932D01*
X25072085Y-44761955D01*
X25018598Y-44784110D01*
X24960882Y-44779568D01*
X24911519Y-44749318D01*
X24861419Y-44699218D01*
X24838615Y-44667832D01*
X24832268Y-44655376D01*
X24832268Y-44655373D01*
X24775535Y-44544029D01*
X24687171Y-44455665D01*
X24687170Y-44455664D01*
X24563366Y-44392582D01*
X24531980Y-44369779D01*
X24513335Y-44351134D01*
X24440960Y-44299458D01*
X24327056Y-44265548D01*
X24208310Y-44270459D01*
X24097598Y-44313659D01*
X24042503Y-44360323D01*
X24005040Y-44382124D01*
X23962362Y-44389700D01*
X23567345Y-44389700D01*
X23518533Y-44379688D01*
X23477602Y-44351270D01*
X23451164Y-44309035D01*
X23419849Y-44225079D01*
X23401742Y-44176533D01*
X23314804Y-44060396D01*
X23198667Y-43973458D01*
X23198664Y-43973457D01*
X23198663Y-43973456D01*
X23062745Y-43922760D01*
X23036990Y-43919991D01*
X23002655Y-43916300D01*
X23002651Y-43916300D01*
X22006148Y-43916300D01*
X21946057Y-43922760D01*
X21946058Y-43922760D01*
X21810133Y-43973458D01*
X21693996Y-44060396D01*
X21620042Y-44159189D01*
X21607057Y-44176535D01*
X21563695Y-44292789D01*
X21528716Y-44343168D01*
X21473871Y-44370620D01*
X21412579Y-44368431D01*
X21359833Y-44337135D01*
X21291779Y-44269081D01*
X21152594Y-44186767D01*
X20997317Y-44141655D01*
X20976400Y-44140009D01*
X20976400Y-45044800D01*
X20959787Y-45106800D01*
X20914400Y-45152187D01*
X20852400Y-45168800D01*
X19921896Y-45168800D01*
X19964368Y-45314996D01*
X20046681Y-45454179D01*
X20050121Y-45457619D01*
X20080371Y-45506982D01*
X20084913Y-45564698D01*
X20062758Y-45618185D01*
X20018735Y-45655785D01*
X19962440Y-45669300D01*
X19764133Y-45669300D01*
X19716680Y-45659861D01*
X19676452Y-45632981D01*
X19594319Y-45550848D01*
X19567439Y-45510620D01*
X19558000Y-45463167D01*
X19558000Y-44668800D01*
X19921896Y-44668800D01*
X20476400Y-44668800D01*
X20476400Y-44140009D01*
X20455484Y-44141654D01*
X20300205Y-44186767D01*
X20161020Y-44269081D01*
X20046681Y-44383420D01*
X19964368Y-44522603D01*
X19921896Y-44668800D01*
X19558000Y-44668800D01*
X19558000Y-43951362D01*
X19567439Y-43903909D01*
X19594319Y-43863681D01*
X19775681Y-43682319D01*
X19815909Y-43655439D01*
X19863362Y-43646000D01*
X25255998Y-43646000D01*
X25312293Y-43659515D01*
G37*
%TD.AperFunction*%
M02*
