%TF.GenerationSoftware,KiCad,Pcbnew,7.0.1*%
%TF.CreationDate,2023-05-20T22:45:57-07:00*%
%TF.ProjectId,ai-camera-rev3,61692d63-616d-4657-9261-2d726576332e,rev3*%
%TF.SameCoordinates,PX5a995c0PY2aea540*%
%TF.FileFunction,Copper,L1,Top*%
%TF.FilePolarity,Positive*%
%FSLAX46Y46*%
G04 Gerber Fmt 4.6, Leading zero omitted, Abs format (unit mm)*
G04 Created by KiCad (PCBNEW 7.0.1) date 2023-05-20 22:45:57*
%MOMM*%
%LPD*%
G01*
G04 APERTURE LIST*
G04 Aperture macros list*
%AMRoundRect*
0 Rectangle with rounded corners*
0 $1 Rounding radius*
0 $2 $3 $4 $5 $6 $7 $8 $9 X,Y pos of 4 corners*
0 Add a 4 corners polygon primitive as box body*
4,1,4,$2,$3,$4,$5,$6,$7,$8,$9,$2,$3,0*
0 Add four circle primitives for the rounded corners*
1,1,$1+$1,$2,$3*
1,1,$1+$1,$4,$5*
1,1,$1+$1,$6,$7*
1,1,$1+$1,$8,$9*
0 Add four rect primitives between the rounded corners*
20,1,$1+$1,$2,$3,$4,$5,0*
20,1,$1+$1,$4,$5,$6,$7,0*
20,1,$1+$1,$6,$7,$8,$9,0*
20,1,$1+$1,$8,$9,$2,$3,0*%
%AMRotRect*
0 Rectangle, with rotation*
0 The origin of the aperture is its center*
0 $1 length*
0 $2 width*
0 $3 Rotation angle, in degrees counterclockwise*
0 Add horizontal line*
21,1,$1,$2,0,0,$3*%
G04 Aperture macros list end*
%TA.AperFunction,SMDPad,CuDef*%
%ADD10RoundRect,0.140000X-0.140000X-0.170000X0.140000X-0.170000X0.140000X0.170000X-0.140000X0.170000X0*%
%TD*%
%TA.AperFunction,SMDPad,CuDef*%
%ADD11RoundRect,0.075000X0.250000X0.075000X-0.250000X0.075000X-0.250000X-0.075000X0.250000X-0.075000X0*%
%TD*%
%TA.AperFunction,ComponentPad*%
%ADD12C,3.600000*%
%TD*%
%TA.AperFunction,ConnectorPad*%
%ADD13C,6.400000*%
%TD*%
%TA.AperFunction,SMDPad,CuDef*%
%ADD14RoundRect,0.150000X-0.725000X-0.150000X0.725000X-0.150000X0.725000X0.150000X-0.725000X0.150000X0*%
%TD*%
%TA.AperFunction,SMDPad,CuDef*%
%ADD15R,3.700000X1.100000*%
%TD*%
%TA.AperFunction,SMDPad,CuDef*%
%ADD16RoundRect,0.140000X-0.170000X0.140000X-0.170000X-0.140000X0.170000X-0.140000X0.170000X0.140000X0*%
%TD*%
%TA.AperFunction,SMDPad,CuDef*%
%ADD17RoundRect,0.200000X0.275000X-0.200000X0.275000X0.200000X-0.275000X0.200000X-0.275000X-0.200000X0*%
%TD*%
%TA.AperFunction,WasherPad*%
%ADD18C,4.000000*%
%TD*%
%TA.AperFunction,SMDPad,CuDef*%
%ADD19RoundRect,0.135000X0.135000X0.185000X-0.135000X0.185000X-0.135000X-0.185000X0.135000X-0.185000X0*%
%TD*%
%TA.AperFunction,SMDPad,CuDef*%
%ADD20RoundRect,0.150000X-0.150000X-0.200000X0.150000X-0.200000X0.150000X0.200000X-0.150000X0.200000X0*%
%TD*%
%TA.AperFunction,SMDPad,CuDef*%
%ADD21R,1.000000X1.700000*%
%TD*%
%TA.AperFunction,SMDPad,CuDef*%
%ADD22R,1.800000X1.000000*%
%TD*%
%TA.AperFunction,SMDPad,CuDef*%
%ADD23RoundRect,0.250000X-0.325000X-0.450000X0.325000X-0.450000X0.325000X0.450000X-0.325000X0.450000X0*%
%TD*%
%TA.AperFunction,SMDPad,CuDef*%
%ADD24RoundRect,0.218750X0.256250X-0.218750X0.256250X0.218750X-0.256250X0.218750X-0.256250X-0.218750X0*%
%TD*%
%TA.AperFunction,SMDPad,CuDef*%
%ADD25RoundRect,0.135000X-0.135000X-0.185000X0.135000X-0.185000X0.135000X0.185000X-0.135000X0.185000X0*%
%TD*%
%TA.AperFunction,SMDPad,CuDef*%
%ADD26RoundRect,0.218750X-0.218750X-0.256250X0.218750X-0.256250X0.218750X0.256250X-0.218750X0.256250X0*%
%TD*%
%TA.AperFunction,SMDPad,CuDef*%
%ADD27RoundRect,0.250000X0.412500X0.925000X-0.412500X0.925000X-0.412500X-0.925000X0.412500X-0.925000X0*%
%TD*%
%TA.AperFunction,SMDPad,CuDef*%
%ADD28RoundRect,0.140000X0.170000X-0.140000X0.170000X0.140000X-0.170000X0.140000X-0.170000X-0.140000X0*%
%TD*%
%TA.AperFunction,SMDPad,CuDef*%
%ADD29RoundRect,0.135000X0.185000X-0.135000X0.185000X0.135000X-0.185000X0.135000X-0.185000X-0.135000X0*%
%TD*%
%TA.AperFunction,WasherPad*%
%ADD30C,1.700000*%
%TD*%
%TA.AperFunction,ComponentPad*%
%ADD31C,1.700000*%
%TD*%
%TA.AperFunction,SMDPad,CuDef*%
%ADD32RoundRect,0.135000X-0.185000X0.135000X-0.185000X-0.135000X0.185000X-0.135000X0.185000X0.135000X0*%
%TD*%
%TA.AperFunction,SMDPad,CuDef*%
%ADD33RoundRect,0.250000X-1.500000X0.250000X-1.500000X-0.250000X1.500000X-0.250000X1.500000X0.250000X0*%
%TD*%
%TA.AperFunction,SMDPad,CuDef*%
%ADD34RoundRect,0.250001X-1.449999X0.499999X-1.449999X-0.499999X1.449999X-0.499999X1.449999X0.499999X0*%
%TD*%
%TA.AperFunction,SMDPad,CuDef*%
%ADD35RoundRect,0.250000X0.325000X0.450000X-0.325000X0.450000X-0.325000X-0.450000X0.325000X-0.450000X0*%
%TD*%
%TA.AperFunction,SMDPad,CuDef*%
%ADD36R,1.000000X1.500000*%
%TD*%
%TA.AperFunction,SMDPad,CuDef*%
%ADD37RoundRect,0.150000X0.512500X0.150000X-0.512500X0.150000X-0.512500X-0.150000X0.512500X-0.150000X0*%
%TD*%
%TA.AperFunction,SMDPad,CuDef*%
%ADD38R,0.300000X1.300000*%
%TD*%
%TA.AperFunction,SMDPad,CuDef*%
%ADD39R,1.600000X2.000000*%
%TD*%
%TA.AperFunction,SMDPad,CuDef*%
%ADD40RoundRect,0.150000X0.587500X0.150000X-0.587500X0.150000X-0.587500X-0.150000X0.587500X-0.150000X0*%
%TD*%
%TA.AperFunction,SMDPad,CuDef*%
%ADD41RoundRect,0.150000X-0.200000X0.150000X-0.200000X-0.150000X0.200000X-0.150000X0.200000X0.150000X0*%
%TD*%
%TA.AperFunction,SMDPad,CuDef*%
%ADD42RoundRect,0.225000X0.225000X0.375000X-0.225000X0.375000X-0.225000X-0.375000X0.225000X-0.375000X0*%
%TD*%
%TA.AperFunction,ComponentPad*%
%ADD43C,0.800000*%
%TD*%
%TA.AperFunction,ComponentPad*%
%ADD44RotRect,1.524000X1.524000X45.000000*%
%TD*%
%TA.AperFunction,ComponentPad*%
%ADD45C,1.524000*%
%TD*%
%TA.AperFunction,SMDPad,CuDef*%
%ADD46RoundRect,0.150000X0.150000X-0.512500X0.150000X0.512500X-0.150000X0.512500X-0.150000X-0.512500X0*%
%TD*%
%TA.AperFunction,ComponentPad*%
%ADD47R,1.700000X1.700000*%
%TD*%
%TA.AperFunction,ComponentPad*%
%ADD48O,1.700000X1.700000*%
%TD*%
%TA.AperFunction,SMDPad,CuDef*%
%ADD49RoundRect,0.225000X-0.225000X-0.375000X0.225000X-0.375000X0.225000X0.375000X-0.225000X0.375000X0*%
%TD*%
%TA.AperFunction,SMDPad,CuDef*%
%ADD50RoundRect,0.140000X0.140000X0.170000X-0.140000X0.170000X-0.140000X-0.170000X0.140000X-0.170000X0*%
%TD*%
%TA.AperFunction,SMDPad,CuDef*%
%ADD51RoundRect,0.150000X-0.587500X-0.150000X0.587500X-0.150000X0.587500X0.150000X-0.587500X0.150000X0*%
%TD*%
%TA.AperFunction,SMDPad,CuDef*%
%ADD52R,1.450000X0.600000*%
%TD*%
%TA.AperFunction,SMDPad,CuDef*%
%ADD53R,1.450000X0.300000*%
%TD*%
%TA.AperFunction,ComponentPad*%
%ADD54O,2.100000X1.000000*%
%TD*%
%TA.AperFunction,ComponentPad*%
%ADD55O,1.600000X1.000000*%
%TD*%
%TA.AperFunction,SMDPad,CuDef*%
%ADD56RoundRect,0.250000X0.925000X-0.412500X0.925000X0.412500X-0.925000X0.412500X-0.925000X-0.412500X0*%
%TD*%
%TA.AperFunction,SMDPad,CuDef*%
%ADD57RoundRect,0.250000X0.450000X-0.262500X0.450000X0.262500X-0.450000X0.262500X-0.450000X-0.262500X0*%
%TD*%
%TA.AperFunction,ConnectorPad*%
%ADD58C,0.787400*%
%TD*%
%TA.AperFunction,ComponentPad*%
%ADD59C,0.500000*%
%TD*%
%TA.AperFunction,ViaPad*%
%ADD60C,0.600000*%
%TD*%
%TA.AperFunction,Conductor*%
%ADD61C,0.127000*%
%TD*%
%TA.AperFunction,Conductor*%
%ADD62C,0.250000*%
%TD*%
%TA.AperFunction,Conductor*%
%ADD63C,0.500000*%
%TD*%
%TA.AperFunction,Conductor*%
%ADD64C,0.203200*%
%TD*%
%TA.AperFunction,Conductor*%
%ADD65C,0.200000*%
%TD*%
G04 APERTURE END LIST*
%TA.AperFunction,EtchedComponent*%
G36*
X16370000Y-33340000D02*
G01*
X15870000Y-33340000D01*
X15870000Y-32940000D01*
X16370000Y-32940000D01*
X16370000Y-33340000D01*
G37*
%TD.AperFunction*%
%TA.AperFunction,EtchedComponent*%
G36*
X16370000Y-32540000D02*
G01*
X15870000Y-32540000D01*
X15870000Y-32140000D01*
X16370000Y-32140000D01*
X16370000Y-32540000D01*
G37*
%TD.AperFunction*%
D10*
X11712000Y-47000000D03*
X12672000Y-47000000D03*
D11*
X52900000Y-61150000D03*
X52900000Y-60500000D03*
X52900000Y-59850000D03*
X51100000Y-59850000D03*
X51100000Y-60500000D03*
X51100000Y-61150000D03*
D12*
X5000000Y-65000000D03*
D13*
X5000000Y-65000000D03*
D14*
X38605000Y-62995000D03*
X38605000Y-64265000D03*
X38605000Y-65535000D03*
X38605000Y-66805000D03*
X43755000Y-66805000D03*
X43755000Y-65535000D03*
X43755000Y-64265000D03*
X43755000Y-62995000D03*
D12*
X5000000Y-5000000D03*
D13*
X5000000Y-5000000D03*
D15*
X22000000Y-63250000D03*
X22000000Y-66250000D03*
D16*
X25654000Y-58406000D03*
X25654000Y-59366000D03*
D17*
X5100000Y-33325000D03*
X5100000Y-31675000D03*
D18*
X24000000Y-22000000D03*
X46000000Y-22000000D03*
D10*
X43040000Y-61620000D03*
X44000000Y-61620000D03*
D19*
X14260000Y-66020000D03*
X13240000Y-66020000D03*
D17*
X3500000Y-33325000D03*
X3500000Y-31675000D03*
D19*
X16200000Y-62530000D03*
X15180000Y-62530000D03*
D20*
X10007500Y-37970000D03*
X8607500Y-37970000D03*
D21*
X66900000Y-20850000D03*
X66900000Y-27150000D03*
X63100000Y-20850000D03*
X63100000Y-27150000D03*
D22*
X36220000Y-65430000D03*
X36220000Y-62930000D03*
D23*
X8975000Y-35930000D03*
X11025000Y-35930000D03*
D16*
X12450000Y-24905000D03*
X12450000Y-25865000D03*
D24*
X60000000Y-42787500D03*
X60000000Y-41212500D03*
D25*
X63250000Y-28890000D03*
X64270000Y-28890000D03*
D26*
X13248987Y-45459099D03*
X14823987Y-45459099D03*
X19212500Y-36000000D03*
X20787500Y-36000000D03*
D25*
X14040000Y-46750000D03*
X15060000Y-46750000D03*
D27*
X16075000Y-59000000D03*
X13000000Y-59000000D03*
D25*
X37910000Y-61620000D03*
X38930000Y-61620000D03*
D28*
X34798000Y-46261000D03*
X34798000Y-45301000D03*
D29*
X49500000Y-62010000D03*
X49500000Y-60990000D03*
D30*
X44600000Y-7000000D03*
X37400000Y-7000000D03*
D31*
X43250000Y-4500000D03*
X38750000Y-4500000D03*
D27*
X23212500Y-56250000D03*
X20137500Y-56250000D03*
D15*
X4850000Y-29490000D03*
X4850000Y-26490000D03*
D26*
X19212500Y-12000000D03*
X20787500Y-12000000D03*
D10*
X26900000Y-53900000D03*
X27860000Y-53900000D03*
D32*
X13920000Y-34750000D03*
X13920000Y-35770000D03*
D33*
X14850000Y-51500000D03*
X14850000Y-53500000D03*
D34*
X9100000Y-49150000D03*
X9100000Y-55850000D03*
D35*
X28075000Y-55670000D03*
X26025000Y-55670000D03*
D26*
X49212500Y-34000000D03*
X50787500Y-34000000D03*
D10*
X19250000Y-58550000D03*
X20210000Y-58550000D03*
D36*
X16770000Y-32740000D03*
X15470000Y-32740000D03*
D26*
X19212500Y-34000000D03*
X20787500Y-34000000D03*
D32*
X18270000Y-57570000D03*
X18270000Y-58590000D03*
D16*
X8910000Y-28320000D03*
X8910000Y-29280000D03*
D26*
X13261486Y-43859099D03*
X14836486Y-43859099D03*
D32*
X18260000Y-59500000D03*
X18260000Y-60520000D03*
D16*
X17200000Y-67300000D03*
X17200000Y-68260000D03*
D37*
X6247500Y-24820000D03*
X6247500Y-23870000D03*
X6247500Y-22920000D03*
X3972500Y-22920000D03*
X3972500Y-23870000D03*
X3972500Y-24820000D03*
D38*
X40750000Y-43600000D03*
X40250000Y-43600000D03*
X39750000Y-43600000D03*
X39250000Y-43600000D03*
X38750000Y-43600000D03*
X38250000Y-43600000D03*
X37750000Y-43600000D03*
X37250000Y-43600000D03*
X36750000Y-43600000D03*
X36250000Y-43600000D03*
X35750000Y-43600000D03*
X35250000Y-43600000D03*
X34750000Y-43600000D03*
X34250000Y-43600000D03*
X33750000Y-43600000D03*
X33250000Y-43600000D03*
X32750000Y-43600000D03*
X32250000Y-43600000D03*
X31750000Y-43600000D03*
X31250000Y-43600000D03*
X30750000Y-43600000D03*
X30250000Y-43600000D03*
X29750000Y-43600000D03*
X29250000Y-43600000D03*
D39*
X42400000Y-41120000D03*
X27600000Y-41120000D03*
D26*
X49212500Y-10000000D03*
X50787500Y-10000000D03*
D40*
X47927500Y-63290000D03*
X47927500Y-61390000D03*
X46052500Y-62340000D03*
D29*
X16200000Y-68310000D03*
X16200000Y-67290000D03*
D41*
X12630000Y-36270000D03*
X12630000Y-34870000D03*
D26*
X19212500Y-10000000D03*
X20787500Y-10000000D03*
D30*
X32600000Y-7000000D03*
X25400000Y-7000000D03*
D31*
X31250000Y-4500000D03*
X26750000Y-4500000D03*
D21*
X66900000Y-11850000D03*
X66900000Y-18150000D03*
X63100000Y-11850000D03*
X63100000Y-18150000D03*
D42*
X11220000Y-25600000D03*
X7920000Y-25600000D03*
D10*
X10520000Y-23750000D03*
X11480000Y-23750000D03*
D43*
X21500000Y-16625000D03*
X21500000Y-15375000D03*
D25*
X3480000Y-21620000D03*
X4500000Y-21620000D03*
D26*
X49212500Y-12000000D03*
X50787500Y-12000000D03*
D29*
X49500000Y-65760000D03*
X49500000Y-64740000D03*
D28*
X59410000Y-56880000D03*
X59410000Y-55920000D03*
D16*
X27686000Y-60946000D03*
X27686000Y-61906000D03*
D44*
X5960000Y-14500000D03*
D45*
X8500000Y-17040000D03*
X11040000Y-14500000D03*
D16*
X25654000Y-60946000D03*
X25654000Y-61906000D03*
D20*
X10007500Y-40030000D03*
X8607500Y-40030000D03*
D46*
X21462500Y-61200000D03*
X22412500Y-61200000D03*
X23362500Y-61200000D03*
X23362500Y-58925000D03*
X21462500Y-58925000D03*
D16*
X24638000Y-60946000D03*
X24638000Y-61906000D03*
D29*
X7725000Y-46710000D03*
X7725000Y-45690000D03*
D16*
X26670000Y-60946000D03*
X26670000Y-61906000D03*
D26*
X49212500Y-36000000D03*
X50787500Y-36000000D03*
D12*
X65000000Y-5000000D03*
D13*
X65000000Y-5000000D03*
D28*
X26670000Y-59366000D03*
X26670000Y-58406000D03*
D25*
X37920000Y-60590000D03*
X38940000Y-60590000D03*
D47*
X56725000Y-12075000D03*
D48*
X59265000Y-12075000D03*
X56725000Y-14615000D03*
X59265000Y-14615000D03*
X56725000Y-17155000D03*
X59265000Y-17155000D03*
X56725000Y-19695000D03*
X59265000Y-19695000D03*
X56725000Y-22235000D03*
X59265000Y-22235000D03*
X56725000Y-24775000D03*
X59265000Y-24775000D03*
X56725000Y-27315000D03*
X59265000Y-27315000D03*
X56725000Y-29855000D03*
X59265000Y-29855000D03*
X56725000Y-32395000D03*
X59265000Y-32395000D03*
X56725000Y-34935000D03*
X59265000Y-34935000D03*
D10*
X10520000Y-22750000D03*
X11480000Y-22750000D03*
D28*
X33782000Y-46261000D03*
X33782000Y-45301000D03*
D32*
X57830000Y-39940000D03*
X57830000Y-40960000D03*
D28*
X54000000Y-60980000D03*
X54000000Y-60020000D03*
D26*
X50212500Y-22000000D03*
X51787500Y-22000000D03*
D49*
X7790000Y-32530000D03*
X11090000Y-32530000D03*
D25*
X13013986Y-42409099D03*
X14033986Y-42409099D03*
D50*
X10255000Y-41975000D03*
X9295000Y-41975000D03*
D25*
X8715000Y-46750000D03*
X9735000Y-46750000D03*
D26*
X18212500Y-22000000D03*
X19787500Y-22000000D03*
D51*
X54380000Y-40300000D03*
X54380000Y-42200000D03*
X56255000Y-41250000D03*
D52*
X6545000Y-36250000D03*
X6545000Y-37050000D03*
D53*
X6545000Y-38250000D03*
X6545000Y-39250000D03*
X6545000Y-39750000D03*
X6545000Y-40750000D03*
D52*
X6545000Y-41950000D03*
X6545000Y-42750000D03*
X6545000Y-42750000D03*
X6545000Y-41950000D03*
D53*
X6545000Y-41250000D03*
X6545000Y-40250000D03*
X6545000Y-38750000D03*
X6545000Y-37750000D03*
D52*
X6545000Y-37050000D03*
X6545000Y-36250000D03*
D54*
X5630000Y-35180000D03*
D55*
X1450000Y-35180000D03*
D54*
X5630000Y-43820000D03*
D55*
X1450000Y-43820000D03*
D12*
X65000000Y-65000000D03*
D13*
X65000000Y-65000000D03*
D28*
X10490000Y-29285000D03*
X10490000Y-28325000D03*
D19*
X52830000Y-42470000D03*
X51810000Y-42470000D03*
D28*
X24638000Y-59366000D03*
X24638000Y-58406000D03*
D51*
X11832500Y-62790000D03*
X11832500Y-64690000D03*
X13707500Y-63740000D03*
D25*
X63250000Y-29900000D03*
X64270000Y-29900000D03*
D28*
X30607000Y-46221000D03*
X30607000Y-45261000D03*
D40*
X47917500Y-66800000D03*
X47917500Y-64900000D03*
X46042500Y-65850000D03*
D56*
X29972000Y-63471500D03*
X29972000Y-60396500D03*
D37*
X11475000Y-45449999D03*
X11475000Y-44499999D03*
X11475000Y-43549999D03*
X9200000Y-43549999D03*
X9200000Y-44499999D03*
X9200000Y-45449999D03*
D57*
X19440000Y-31332500D03*
X19440000Y-29507500D03*
D27*
X23212500Y-52875001D03*
X20137500Y-52875001D03*
D58*
X53960000Y-5635000D03*
X55230000Y-5635000D03*
X56500000Y-5635000D03*
X57770000Y-5635000D03*
X59040000Y-5635000D03*
X59040000Y-4365000D03*
X57770000Y-4365000D03*
X56500000Y-4365000D03*
X55230000Y-4365000D03*
X53960000Y-4365000D03*
D16*
X7630000Y-28890000D03*
X7630000Y-29850000D03*
D50*
X13950000Y-23630000D03*
X12990000Y-23630000D03*
D59*
X53560000Y-48630000D03*
X54960000Y-48630000D03*
X52860000Y-47930000D03*
X54260000Y-47930000D03*
X55660000Y-47930000D03*
X53560000Y-47230000D03*
X54960000Y-47230000D03*
X52860000Y-46530000D03*
X54260000Y-46530000D03*
X55660000Y-46530000D03*
X53560000Y-45830000D03*
X54960000Y-45830000D03*
D60*
X58740000Y-57010000D03*
X28500000Y-59000000D03*
X6000000Y-11000000D03*
X39850000Y-32870000D03*
X28469205Y-58050000D03*
X11750000Y-3500000D03*
X13500000Y-37500000D03*
X22000000Y-31750000D03*
X26000000Y-60000000D03*
X11800000Y-59400000D03*
X64250000Y-20500000D03*
X62500000Y-57000000D03*
X56500000Y-64000000D03*
X10350000Y-41025000D03*
X53000000Y-11500000D03*
X37000000Y-33000000D03*
X33000000Y-30500000D03*
X51000000Y-28500000D03*
X18250000Y-3750000D03*
X32896917Y-48779083D03*
X11000000Y-13000000D03*
X55500000Y-66925500D03*
X55500000Y-2500000D03*
X59584483Y-52218483D03*
X17250000Y-17500000D03*
X10000000Y-37250000D03*
X20500000Y-28250000D03*
X28000000Y-60000000D03*
X13249500Y-46990000D03*
X48650000Y-56550000D03*
X24638000Y-46440000D03*
X60000000Y-44000000D03*
X7300000Y-43575000D03*
X12725000Y-60775000D03*
X66000000Y-33750000D03*
X10621692Y-44835022D03*
X63000000Y-56500000D03*
X20250000Y-57767600D03*
X19500000Y-26250000D03*
X8000000Y-27000000D03*
X17025000Y-51500000D03*
X57658000Y-50546000D03*
X55118000Y-52070000D03*
X20088035Y-44911965D03*
X51054000Y-53086000D03*
X18500000Y-28250000D03*
X62500000Y-56000000D03*
X56500000Y-58000000D03*
X7234026Y-24150065D03*
X2625000Y-31650000D03*
X29750000Y-42500000D03*
X19500000Y-28250000D03*
X65975000Y-18125000D03*
X12610000Y-65980000D03*
X7475000Y-35500000D03*
X55000000Y-39000000D03*
X15900000Y-50600000D03*
X62353000Y-52983229D03*
X3240938Y-21030000D03*
X32000000Y-18500000D03*
X52324000Y-44704000D03*
X42000000Y-18000000D03*
X10000000Y-24750000D03*
X11800000Y-60325000D03*
X32000000Y-13000000D03*
X22750000Y-60000000D03*
X55500000Y-59000000D03*
X33000000Y-35500000D03*
X49250000Y-13500000D03*
X63000000Y-57500000D03*
X21000000Y-44000000D03*
X10750000Y-40000000D03*
X46999146Y-35422111D03*
X55500000Y-58000000D03*
X52578000Y-53086000D03*
X41500000Y-8750000D03*
X11250000Y-27000000D03*
X14800000Y-50600000D03*
X40000000Y-54000000D03*
X55906500Y-6750000D03*
X9700000Y-47450000D03*
X11800000Y-57750000D03*
X20250000Y-54500000D03*
X35306000Y-46882000D03*
X18100000Y-11625000D03*
X16200000Y-66700000D03*
X60250000Y-53000000D03*
X9750000Y-27000000D03*
X28000000Y-66000000D03*
X7700000Y-45200000D03*
X39750000Y-22250000D03*
X28000000Y-35000000D03*
X65950000Y-27525000D03*
X45000000Y-31000000D03*
X46750000Y-57650000D03*
X25300000Y-15160000D03*
X29000000Y-27000000D03*
X28448000Y-48260000D03*
X14900000Y-52300000D03*
X48250000Y-44629123D03*
X62500000Y-59000000D03*
X62500000Y-58000000D03*
X31500000Y-66000000D03*
X24384000Y-25908000D03*
X21250000Y-53000000D03*
X55500000Y-65000000D03*
X55500000Y-62000000D03*
X28000000Y-38000000D03*
X8250000Y-53000000D03*
X12500000Y-27000000D03*
X20102600Y-44000000D03*
X40443828Y-44750863D03*
X36250000Y-42250000D03*
X38110000Y-49070000D03*
X13800000Y-28860000D03*
X55500000Y-66000000D03*
X35020000Y-39870000D03*
X17200000Y-66750000D03*
X30000000Y-38000000D03*
X14500000Y-2750000D03*
X29413200Y-46440000D03*
X33000000Y-33000000D03*
X37500000Y-38000000D03*
X12750000Y-37500000D03*
X9600000Y-41075000D03*
X56750000Y-6750000D03*
X7475000Y-34625000D03*
X15110000Y-23580000D03*
X37000000Y-13000000D03*
X46750000Y-8000000D03*
X23000000Y-41000000D03*
X59500000Y-40000000D03*
X12306655Y-44180096D03*
X13225000Y-66575000D03*
X19250000Y-56250000D03*
X10000000Y-4500000D03*
X53990000Y-33650000D03*
X26390000Y-44890000D03*
X62000000Y-36000000D03*
X23750000Y-60000000D03*
X10750000Y-38000000D03*
X66025000Y-11550000D03*
X27000000Y-60000000D03*
X9250000Y-13000000D03*
X42000000Y-13000000D03*
X58166000Y-47244000D03*
X37290000Y-67200000D03*
X55500000Y-60000000D03*
X55500000Y-63000000D03*
X49500000Y-38500000D03*
X56500000Y-61500000D03*
X44525000Y-57650000D03*
X18173800Y-37155053D03*
X63750000Y-16250000D03*
X48000000Y-29000000D03*
X25250000Y-40000000D03*
X23876000Y-46440000D03*
X21250000Y-56250000D03*
X61750000Y-2750000D03*
X62500000Y-33750000D03*
X25000000Y-60000000D03*
X20250000Y-51500000D03*
X10000000Y-25750000D03*
X11825000Y-58550000D03*
X7229838Y-23485458D03*
X30930000Y-46790000D03*
X18000000Y-26250000D03*
X14750000Y-13126576D03*
X30000000Y-45800000D03*
X36000000Y-58000000D03*
X62000000Y-37000000D03*
X39000000Y-11000000D03*
X54000000Y-59500000D03*
X20750000Y-25250000D03*
X40700000Y-52050000D03*
X52000000Y-34000000D03*
X36068000Y-46440000D03*
X21844000Y-28448000D03*
X21750000Y-60000000D03*
X37250000Y-40825000D03*
X24260000Y-11050000D03*
X38500000Y-27000000D03*
X14250000Y-37500000D03*
X28500000Y-13000000D03*
X34280000Y-46530000D03*
X32000000Y-27000000D03*
X56388000Y-51308000D03*
X23539191Y-36987921D03*
X61000000Y-53000000D03*
X53848000Y-52578000D03*
X18300000Y-10500000D03*
X32000000Y-21000000D03*
X7300000Y-44450000D03*
X53350000Y-42199998D03*
X11350000Y-41925000D03*
X19200000Y-19200000D03*
X66125000Y-20650000D03*
X19250000Y-53000000D03*
X26162000Y-53806000D03*
X44610000Y-61620000D03*
X15900000Y-52300000D03*
X62000000Y-38000000D03*
X69000000Y-29000000D03*
X20000000Y-69000000D03*
X30000000Y-1000000D03*
X20000000Y-1000000D03*
X1000000Y-29000000D03*
X41000000Y-69000000D03*
X41000000Y-1000000D03*
X10000000Y-69000000D03*
X1000000Y-40000000D03*
X6000000Y-56000000D03*
X6000000Y-49000000D03*
X10000000Y-1000000D03*
X50000000Y-69000000D03*
X30000000Y-69000000D03*
X69000000Y-9000000D03*
X1000000Y-62000000D03*
X60000000Y-1000000D03*
X50000000Y-1000000D03*
X69000000Y-59000000D03*
X1000000Y-9000000D03*
X69000000Y-19000000D03*
X1000000Y-19000000D03*
X60000000Y-69000000D03*
X29000000Y-54000000D03*
X8685000Y-30745000D03*
X6815000Y-30715000D03*
X56500000Y-10000000D03*
X28200000Y-52450000D03*
X29000000Y-55000000D03*
X29000000Y-56000000D03*
X7795000Y-30725000D03*
X55750000Y-10000000D03*
X2730000Y-23438550D03*
X29000000Y-53000000D03*
X15750000Y-54500000D03*
X14850000Y-54450000D03*
X14000000Y-54500000D03*
X12680000Y-53500000D03*
X61000000Y-63500000D03*
X55750000Y-8500000D03*
X33000000Y-62500000D03*
X54000000Y-61500000D03*
X49470000Y-66530000D03*
X63000000Y-32250000D03*
X61000000Y-62500000D03*
X33020000Y-63458000D03*
X32004000Y-63458000D03*
X19000000Y-58000000D03*
X62250000Y-32250000D03*
X32000000Y-62500000D03*
X63000000Y-31500000D03*
X56500000Y-8500000D03*
X62250000Y-31500000D03*
X61000000Y-61625000D03*
X50249992Y-39647776D03*
X60750000Y-3000000D03*
X63000000Y-20500000D03*
X59410000Y-54770000D03*
X59385200Y-52933600D03*
X63250000Y-12250000D03*
X54250000Y-35840000D03*
X53500000Y-23000000D03*
X30010000Y-45000000D03*
X33680000Y-44600000D03*
X51308000Y-52324000D03*
X37250000Y-42500000D03*
X11000000Y-34750000D03*
X8100000Y-41300000D03*
X10000000Y-34728358D03*
X8050000Y-42750000D03*
X8075000Y-42025000D03*
X45261500Y-57650000D03*
X45988500Y-57650000D03*
X56250000Y-3000000D03*
X58369200Y-38455600D03*
X52750000Y-10250000D03*
X47500000Y-8000000D03*
X54750000Y-3000000D03*
X56794400Y-38455600D03*
X52140000Y-39050000D03*
X53860000Y-38500000D03*
X58216800Y-48310800D03*
X56946800Y-49987200D03*
X55575200Y-50647600D03*
X54356000Y-51358800D03*
X53035200Y-52070000D03*
X49784000Y-52832000D03*
X49276000Y-55829200D03*
X47720000Y-56050000D03*
X34750000Y-42500000D03*
X33223200Y-42250000D03*
X38130000Y-50110000D03*
X40993594Y-51056006D03*
X39776400Y-52019200D03*
X51206400Y-44704000D03*
X45590002Y-34036000D03*
X31500000Y-41000000D03*
X30500000Y-41000000D03*
X47500000Y-44000000D03*
X46320000Y-33150000D03*
X6025971Y-22366501D03*
X16750000Y-29250000D03*
X3346394Y-34305199D03*
X5358517Y-38311483D03*
X47500000Y-42500000D03*
X5290000Y-40860000D03*
X4070000Y-34370000D03*
X23114000Y-25908000D03*
X21844000Y-27432000D03*
X43850000Y-38630000D03*
X43850000Y-30690000D03*
X41780000Y-31510000D03*
X41200000Y-35110000D03*
X55570000Y-38490000D03*
X42090000Y-37010000D03*
X40480000Y-30970000D03*
X4720000Y-21250000D03*
X44480000Y-32220000D03*
X44490000Y-35160000D03*
X40880000Y-29460000D03*
X42160000Y-35780000D03*
X25600000Y-9500000D03*
X46820000Y-30080000D03*
X13250000Y-62790000D03*
X29750000Y-58190000D03*
X31500000Y-8900000D03*
X35353517Y-45046483D03*
X17580000Y-34570000D03*
D61*
X66325000Y-27150000D02*
X65950000Y-27525000D01*
X17200000Y-67300000D02*
X17200000Y-66750000D01*
X10000000Y-37250000D02*
X10000000Y-37962500D01*
X66325000Y-11850000D02*
X66025000Y-11550000D01*
X52900000Y-59850000D02*
X53830000Y-59850000D01*
X66900000Y-20850000D02*
X66325000Y-20850000D01*
X53350000Y-42200000D02*
X53100000Y-42200000D01*
X18260000Y-60520000D02*
X18780000Y-60000000D01*
D62*
X15060000Y-23630000D02*
X15110000Y-23580000D01*
D61*
X34310000Y-46261000D02*
X34310000Y-46500000D01*
D63*
X8110000Y-28890000D02*
X7630000Y-28890000D01*
D61*
X10007500Y-40030000D02*
X10007500Y-40682500D01*
X34310000Y-46261000D02*
X33782000Y-46261000D01*
X7725000Y-45225000D02*
X7700000Y-45200000D01*
D63*
X8910000Y-28090000D02*
X8110000Y-28890000D01*
D61*
X7228237Y-23485458D02*
X7229838Y-23485458D01*
D62*
X29750000Y-43600000D02*
X29750000Y-42500000D01*
D61*
X59410000Y-57175000D02*
X58905000Y-57175000D01*
D62*
X36250000Y-43600000D02*
X36250000Y-42250000D01*
D61*
X10007500Y-40682500D02*
X10350000Y-41025000D01*
X3480000Y-21269062D02*
X3240938Y-21030000D01*
X34798000Y-46261000D02*
X34310000Y-46261000D01*
X3480000Y-21620000D02*
X3480000Y-21269062D01*
X38605000Y-66805000D02*
X37685000Y-66805000D01*
X9735000Y-46750000D02*
X9735000Y-47415000D01*
X54000000Y-60020000D02*
X54000000Y-59500000D01*
D63*
X6750000Y-42750000D02*
X7300000Y-43300000D01*
X56500000Y-6156500D02*
X56500000Y-5635000D01*
X11475000Y-44499999D02*
X10956715Y-44499999D01*
D61*
X66900000Y-18150000D02*
X66000000Y-18150000D01*
X13240000Y-66020000D02*
X13240000Y-66560000D01*
D63*
X10956715Y-44499999D02*
X10621692Y-44835022D01*
D61*
X16200000Y-67290000D02*
X16200000Y-66700000D01*
X58905000Y-57175000D02*
X58740000Y-57010000D01*
D63*
X11475000Y-44499999D02*
X11986752Y-44499999D01*
D61*
X66900000Y-11850000D02*
X66325000Y-11850000D01*
X3500000Y-31675000D02*
X2650000Y-31675000D01*
X54380000Y-42200000D02*
X53350000Y-42200000D01*
X10007500Y-40030000D02*
X10007500Y-40667500D01*
X2650000Y-31675000D02*
X2625000Y-31650000D01*
X7300000Y-43575000D02*
X7300000Y-43500000D01*
X53100000Y-42200000D02*
X52830000Y-42470000D01*
X7234026Y-24150065D02*
X6953961Y-23870000D01*
X66900000Y-27150000D02*
X66325000Y-27150000D01*
D62*
X14245000Y-23630000D02*
X15060000Y-23630000D01*
D61*
X3500000Y-31675000D02*
X5100000Y-31675000D01*
X37685000Y-66805000D02*
X37290000Y-67200000D01*
D63*
X26900000Y-53900000D02*
X26256000Y-53900000D01*
D61*
X60000000Y-42787500D02*
X60000000Y-44000000D01*
X66325000Y-20850000D02*
X66125000Y-20650000D01*
X44000000Y-61620000D02*
X44610000Y-61620000D01*
X18780000Y-60000000D02*
X21750000Y-60000000D01*
X7725000Y-45690000D02*
X7725000Y-45225000D01*
X30607000Y-46467000D02*
X30930000Y-46790000D01*
D63*
X6725000Y-36250000D02*
X7475000Y-35500000D01*
D61*
X6545000Y-42750000D02*
X6266500Y-43028500D01*
X9735000Y-47415000D02*
X9700000Y-47450000D01*
X12650000Y-66020000D02*
X12610000Y-65980000D01*
X6843695Y-23870000D02*
X7228237Y-23485458D01*
X66000000Y-18150000D02*
X65975000Y-18125000D01*
D63*
X57770000Y-5730000D02*
X56750000Y-6750000D01*
D61*
X6545000Y-36250000D02*
X6266500Y-35971500D01*
X7300000Y-43500000D02*
X6550000Y-42750000D01*
X10007500Y-40667500D02*
X9600000Y-41075000D01*
X11300000Y-41975000D02*
X11350000Y-41925000D01*
D63*
X11986752Y-44499999D02*
X12306655Y-44180096D01*
D61*
X12710000Y-46990000D02*
X13249500Y-46990000D01*
X6953961Y-23870000D02*
X6247500Y-23870000D01*
D63*
X7300000Y-43300000D02*
X7300000Y-43575000D01*
D61*
X10325000Y-41050000D02*
X10350000Y-41025000D01*
D63*
X26256000Y-53900000D02*
X26162000Y-53806000D01*
X55906500Y-6750000D02*
X56500000Y-6156500D01*
D61*
X13240000Y-66020000D02*
X12650000Y-66020000D01*
X10550000Y-41975000D02*
X10550000Y-41225000D01*
X10550000Y-41225000D02*
X10350000Y-41025000D01*
X53350000Y-42200000D02*
X53350000Y-42199998D01*
X13240000Y-66560000D02*
X13225000Y-66575000D01*
X10550000Y-41975000D02*
X11300000Y-41975000D01*
D63*
X22500000Y-2750000D02*
X16250000Y-9000000D01*
X4850000Y-29490000D02*
X6820000Y-29490000D01*
D64*
X42880000Y-61780000D02*
X42880000Y-62460000D01*
X29000000Y-55000000D02*
X28745000Y-55000000D01*
X7795000Y-30725000D02*
X7795000Y-32525000D01*
X2300000Y-23400000D02*
X2300000Y-25775000D01*
X37910000Y-61620000D02*
X37910000Y-60600000D01*
D63*
X7630000Y-29850000D02*
X7180000Y-29850000D01*
X54500000Y-9250000D02*
X52013585Y-9250000D01*
D64*
X2550000Y-23400000D02*
X2300000Y-23400000D01*
D63*
X2510000Y-29490000D02*
X2300000Y-29280000D01*
X12250000Y-18750000D02*
X4250000Y-18750000D01*
X7630000Y-29850000D02*
X8635000Y-29850000D01*
D64*
X2300000Y-25775000D02*
X2300000Y-29280000D01*
X28745000Y-55000000D02*
X28075000Y-55670000D01*
D63*
X3972500Y-24820000D02*
X2330000Y-24820000D01*
D64*
X2730000Y-23438550D02*
X2611450Y-23438550D01*
D63*
X16250000Y-9000000D02*
X16250000Y-14750000D01*
X7790000Y-30730000D02*
X7795000Y-30725000D01*
D64*
X40141400Y-60041400D02*
X41720000Y-61620000D01*
X2600000Y-23450000D02*
X2550000Y-23400000D01*
D63*
X7180000Y-29850000D02*
X6820000Y-29490000D01*
D64*
X7705000Y-30815000D02*
X7795000Y-30725000D01*
X7775000Y-30745000D02*
X8685000Y-30745000D01*
X30896000Y-56000000D02*
X35486000Y-60590000D01*
D63*
X2300000Y-20700000D02*
X2300000Y-29280000D01*
X22500000Y-2750000D02*
X45513585Y-2750000D01*
X8635000Y-29850000D02*
X8910000Y-29575000D01*
D64*
X41720000Y-61620000D02*
X43040000Y-61620000D01*
X42880000Y-62460000D02*
X43415000Y-62995000D01*
D63*
X16250000Y-14750000D02*
X12250000Y-18750000D01*
D64*
X6840000Y-30690000D02*
X6815000Y-30715000D01*
X29000000Y-56000000D02*
X30896000Y-56000000D01*
X2300000Y-24850000D02*
X2300000Y-25775000D01*
D63*
X4850000Y-29490000D02*
X2510000Y-29490000D01*
X4250000Y-18750000D02*
X2300000Y-20700000D01*
D64*
X2611450Y-23438550D02*
X2600000Y-23450000D01*
D63*
X10490000Y-29580000D02*
X8915000Y-29580000D01*
X54500000Y-9500000D02*
X55000000Y-10000000D01*
D64*
X2330000Y-24820000D02*
X2300000Y-24850000D01*
X6820000Y-29490000D02*
X7340000Y-30010000D01*
D63*
X53960000Y-5635000D02*
X54500000Y-6175000D01*
X7790000Y-32530000D02*
X7790000Y-30730000D01*
D64*
X37920000Y-60590000D02*
X38468600Y-60041400D01*
D63*
X28155000Y-53900000D02*
X28155000Y-55590000D01*
D64*
X38468600Y-60041400D02*
X40141400Y-60041400D01*
D63*
X55000000Y-10000000D02*
X55750000Y-10000000D01*
X54500000Y-6175000D02*
X54500000Y-9250000D01*
X52013585Y-9250000D02*
X45513585Y-2750000D01*
X54500000Y-9250000D02*
X54500000Y-9500000D01*
D64*
X35486000Y-60590000D02*
X37920000Y-60590000D01*
X28200000Y-52450000D02*
X28200000Y-53855000D01*
X11159868Y-43549999D02*
X10093592Y-44616275D01*
X14850000Y-53500000D02*
X12680000Y-53500000D01*
X10093592Y-44616275D02*
X10093592Y-46143592D01*
D63*
X14850000Y-55425000D02*
X16075000Y-56650000D01*
D64*
X10950000Y-47000000D02*
X11712000Y-47000000D01*
D63*
X11712000Y-47000000D02*
X11712000Y-52532000D01*
D64*
X10093592Y-46143592D02*
X10950000Y-47000000D01*
D63*
X11712000Y-52532000D02*
X12680000Y-53500000D01*
X16075000Y-56650000D02*
X16075000Y-59000000D01*
D64*
X14850000Y-53500000D02*
X14850000Y-54450000D01*
D63*
X14850000Y-54450000D02*
X14850000Y-55425000D01*
D64*
X49200000Y-66800000D02*
X49470000Y-66530000D01*
X54000000Y-60980000D02*
X54000000Y-61500000D01*
D63*
X61250000Y-44823500D02*
X61250000Y-33250000D01*
D64*
X18570000Y-57570000D02*
X19000000Y-58000000D01*
X47927500Y-63290000D02*
X46950000Y-64267500D01*
X49500000Y-65760000D02*
X49500000Y-66500000D01*
X19000000Y-58300000D02*
X19250000Y-58550000D01*
X64270000Y-28890000D02*
X64270000Y-29560000D01*
D63*
X61250000Y-33250000D02*
X63000000Y-31500000D01*
D64*
X49000000Y-63250000D02*
X47967500Y-63250000D01*
X53830000Y-61150000D02*
X52900000Y-61150000D01*
X63000000Y-31500000D02*
X63000000Y-31170000D01*
D63*
X55230000Y-7230000D02*
X56500000Y-8500000D01*
D64*
X46950000Y-64267500D02*
X46950000Y-65205421D01*
X49500000Y-62750000D02*
X49000000Y-63250000D01*
X49500000Y-66500000D02*
X49470000Y-66530000D01*
X47917500Y-66800000D02*
X47917500Y-66172922D01*
D63*
X55230000Y-5635000D02*
X55230000Y-7230000D01*
D64*
X49500000Y-62010000D02*
X49500000Y-62750000D01*
D63*
X61676500Y-61048500D02*
X61676500Y-45250000D01*
D64*
X47917500Y-66800000D02*
X49200000Y-66800000D01*
X63000000Y-31170000D02*
X64270000Y-29900000D01*
D63*
X61100000Y-61625000D02*
X61676500Y-61048500D01*
D64*
X46950000Y-65205421D02*
X47917500Y-66172922D01*
X18270000Y-57570000D02*
X18570000Y-57570000D01*
D63*
X61676500Y-45250000D02*
X61250000Y-44823500D01*
D64*
X19000000Y-58000000D02*
X19000000Y-58300000D01*
D61*
X63250000Y-28390000D02*
X63250000Y-28890000D01*
X53250000Y-18500000D02*
X53250000Y-18250000D01*
X50249992Y-39647776D02*
X53000000Y-36897768D01*
X59040000Y-4110184D02*
X60150184Y-3000000D01*
X63100000Y-27150000D02*
X63100000Y-28240000D01*
X60150184Y-3000000D02*
X60750000Y-3000000D01*
X56725000Y-17155000D02*
X54345000Y-17155000D01*
X63100000Y-28240000D02*
X63250000Y-28390000D01*
X63100000Y-27150000D02*
X63100000Y-20850000D01*
X53250000Y-18250000D02*
X54345000Y-17155000D01*
X53000000Y-18750000D02*
X53250000Y-18500000D01*
X53000000Y-36897768D02*
X53000000Y-18750000D01*
X63100000Y-9600000D02*
X63100000Y-11850000D01*
X60909200Y-29810000D02*
X60809999Y-29909201D01*
X60909200Y-18420000D02*
X60909200Y-29810000D01*
X59562331Y-52933600D02*
X59385200Y-52933600D01*
X59410000Y-55625000D02*
X59410000Y-54770000D01*
X63250000Y-29900000D02*
X60999200Y-29900000D01*
X60809999Y-29909201D02*
X60809999Y-51685932D01*
X60400184Y-7250000D02*
X59040000Y-5889816D01*
X60750000Y-7250000D02*
X63100000Y-9600000D01*
X60809999Y-51685932D02*
X59562331Y-52933600D01*
X61179200Y-18150000D02*
X60909200Y-18420000D01*
X63100000Y-18150000D02*
X61179200Y-18150000D01*
X60750000Y-7250000D02*
X60400184Y-7250000D01*
X60999200Y-29900000D02*
X60909200Y-29810000D01*
X63100000Y-11850000D02*
X63100000Y-18150000D01*
X54480000Y-23980000D02*
X53500000Y-23000000D01*
X54480000Y-35610000D02*
X54480000Y-23980000D01*
X54250000Y-35840000D02*
X54480000Y-35610000D01*
X30750000Y-45118000D02*
X30750000Y-43600000D01*
X30271000Y-45261000D02*
X30010000Y-45000000D01*
D62*
X33750000Y-43600000D02*
X33750000Y-44530000D01*
X33680000Y-45199000D02*
X33680000Y-44600000D01*
X33750000Y-44530000D02*
X33680000Y-44600000D01*
D61*
X44824000Y-52324000D02*
X37250000Y-44750000D01*
X37250000Y-44750000D02*
X37250000Y-42600000D01*
X51308000Y-52324000D02*
X44824000Y-52324000D01*
D64*
X13013986Y-42409099D02*
X13698085Y-41725000D01*
X16150000Y-46494208D02*
X15345608Y-47298600D01*
D63*
X13920000Y-34290000D02*
X15470000Y-32740000D01*
D64*
X14773600Y-47298600D02*
X14225000Y-46750000D01*
D63*
X11025000Y-35725000D02*
X11750000Y-35000000D01*
X11750000Y-35000000D02*
X12500000Y-35000000D01*
D64*
X12690185Y-42732900D02*
X13013986Y-42409099D01*
X8067100Y-42732900D02*
X12690185Y-42732900D01*
X8775000Y-41975000D02*
X8100000Y-41300000D01*
D63*
X12630000Y-34870000D02*
X13800000Y-34870000D01*
D64*
X13920000Y-34750000D02*
X13920000Y-34470000D01*
D63*
X13920000Y-34750000D02*
X13920000Y-34290000D01*
X13800000Y-34870000D02*
X13920000Y-34750000D01*
D64*
X16150000Y-43200000D02*
X16150000Y-46494208D01*
D63*
X11000000Y-35728358D02*
X10000000Y-34728358D01*
D64*
X13698085Y-41725000D02*
X14675000Y-41725000D01*
X14225000Y-46750000D02*
X14040000Y-46750000D01*
X8050000Y-42750000D02*
X8067100Y-42732900D01*
X14675000Y-41725000D02*
X16150000Y-43200000D01*
D63*
X12500000Y-35000000D02*
X12630000Y-34870000D01*
D64*
X15345608Y-47298600D02*
X14773600Y-47298600D01*
D65*
X8607500Y-38829000D02*
X8600000Y-38836500D01*
X15867724Y-38836500D02*
X18138500Y-41107276D01*
X5590000Y-39720000D02*
X5620000Y-39750000D01*
X20221224Y-49040000D02*
X29396224Y-49040000D01*
X6545000Y-38750000D02*
X5664584Y-38750000D01*
X45220277Y-58723499D02*
X45461500Y-58482276D01*
X45461500Y-58482276D02*
X45461500Y-57850000D01*
X18138500Y-46957276D02*
X20221224Y-49040000D01*
X35317724Y-54961500D02*
X38142724Y-54961500D01*
X7719001Y-38836500D02*
X8600000Y-38836500D01*
X5590000Y-38824584D02*
X5590000Y-39720000D01*
X7632501Y-38750000D02*
X7719001Y-38836500D01*
X45461500Y-57850000D02*
X45261500Y-57650000D01*
X5664584Y-38750000D02*
X5590000Y-38824584D01*
X6545000Y-38750000D02*
X7632501Y-38750000D01*
X18138500Y-41107276D02*
X18138500Y-46957276D01*
X5620000Y-39750000D02*
X6545000Y-39750000D01*
X41904723Y-58723499D02*
X45220277Y-58723499D01*
X8600000Y-38836500D02*
X15867724Y-38836500D01*
X8607500Y-37970000D02*
X8607500Y-38829000D01*
X38142724Y-54961500D02*
X41904723Y-58723499D01*
X29396224Y-49040000D02*
X35317724Y-54961500D01*
X7632501Y-40087499D02*
X7632501Y-39250000D01*
X45356224Y-59050000D02*
X45788500Y-58617724D01*
X45788500Y-58617724D02*
X45788500Y-57850000D01*
X6545000Y-40250000D02*
X7470000Y-40250000D01*
X8607500Y-40030000D02*
X8607500Y-39221000D01*
X20085983Y-49366501D02*
X29260277Y-49366501D01*
X8550000Y-39163500D02*
X15732276Y-39163500D01*
X38007276Y-55288500D02*
X41768776Y-59050000D01*
X17811500Y-47092018D02*
X20085983Y-49366501D01*
X7470000Y-40250000D02*
X7632501Y-40087499D01*
X45788500Y-57850000D02*
X45988500Y-57650000D01*
X17811500Y-41242724D02*
X17811500Y-47092018D01*
X35182276Y-55288500D02*
X38007276Y-55288500D01*
X7719001Y-39163500D02*
X8550000Y-39163500D01*
X8607500Y-39221000D02*
X8550000Y-39163500D01*
X29260277Y-49366501D02*
X35182276Y-55288500D01*
X41768776Y-59050000D02*
X45356224Y-59050000D01*
X6545000Y-39250000D02*
X7632501Y-39250000D01*
X15732276Y-39163500D02*
X17811500Y-41242724D01*
X7632501Y-39250000D02*
X7719001Y-39163500D01*
D61*
X58019001Y-14269001D02*
X58019001Y-19750000D01*
X57770000Y-4365000D02*
X56405000Y-3000000D01*
X58019500Y-21500000D02*
X58019500Y-38105900D01*
X58019001Y-21499501D02*
X58019500Y-21500000D01*
X56405000Y-3000000D02*
X56250000Y-3000000D01*
X58019001Y-19750000D02*
X58019001Y-21499501D01*
X57964001Y-19695000D02*
X58019001Y-19750000D01*
X58019500Y-38105900D02*
X58369200Y-38455600D01*
X56725000Y-19695000D02*
X57964001Y-19695000D01*
X55615500Y-13115500D02*
X52750000Y-10250000D01*
X58019001Y-14269001D02*
X56865500Y-13115500D01*
X56865500Y-13115500D02*
X55615500Y-13115500D01*
X56905500Y-15655500D02*
X56294010Y-15655500D01*
X51415500Y-10776990D02*
X51415500Y-9574233D01*
X56294010Y-15655500D02*
X51415500Y-10776990D01*
X55684500Y-19065500D02*
X56554500Y-18195500D01*
X49841267Y-8000000D02*
X47500000Y-8000000D01*
X51415500Y-9574233D02*
X49841267Y-8000000D01*
X57765500Y-37484500D02*
X56794400Y-38455600D01*
X55990500Y-3490500D02*
X55240500Y-3490500D01*
X55684500Y-21194500D02*
X55684500Y-19065500D01*
X56725000Y-22235000D02*
X57765500Y-23275500D01*
X57765500Y-16515500D02*
X56905500Y-15655500D01*
X56500000Y-4000000D02*
X55990500Y-3490500D01*
X56725000Y-22235000D02*
X55684500Y-21194500D01*
X57765500Y-17585990D02*
X57765500Y-16515500D01*
X56500000Y-4365000D02*
X56500000Y-4000000D01*
X57155990Y-18195500D02*
X57765500Y-17585990D01*
X56554500Y-18195500D02*
X57155990Y-18195500D01*
X57765500Y-23275500D02*
X57765500Y-37484500D01*
X55240500Y-3490500D02*
X54750000Y-3000000D01*
X56725000Y-29855000D02*
X54930000Y-31650000D01*
X54930000Y-31650000D02*
X54930000Y-36260000D01*
X54930000Y-36260000D02*
X52140000Y-39050000D01*
X56725000Y-32395000D02*
X55183501Y-33936499D01*
X55183501Y-37176499D02*
X53860000Y-38500000D01*
X55183501Y-33936499D02*
X55183501Y-37176499D01*
X14836486Y-43761486D02*
X14250000Y-43175000D01*
X14250000Y-43175000D02*
X14250000Y-42625113D01*
X14250000Y-42625113D02*
X14033986Y-42409099D01*
X11729717Y-45449999D02*
X13261486Y-43918230D01*
X57030400Y-49497200D02*
X44497200Y-49497200D01*
X44497200Y-49497200D02*
X39750000Y-44750000D01*
X58216800Y-48310800D02*
X57030400Y-49497200D01*
X39750000Y-44750000D02*
X39750000Y-43600000D01*
X44487200Y-49987200D02*
X56946800Y-49987200D01*
X39250000Y-43600000D02*
X39250000Y-44750000D01*
X39250000Y-44750000D02*
X44487200Y-49987200D01*
X55575200Y-50647600D02*
X44647600Y-50647600D01*
X44647600Y-50647600D02*
X38750000Y-44750000D01*
X38750000Y-44750000D02*
X38750000Y-43600000D01*
X38250000Y-44750000D02*
X38250000Y-43600000D01*
X54356000Y-51358800D02*
X44858800Y-51358800D01*
X44858800Y-51358800D02*
X38250000Y-44750000D01*
X44834000Y-51834000D02*
X37750000Y-44750000D01*
X37750000Y-44750000D02*
X37750000Y-43186306D01*
X52799200Y-51834000D02*
X44834000Y-51834000D01*
X53035200Y-52070000D02*
X52799200Y-51834000D01*
X44832000Y-52832000D02*
X49784000Y-52832000D01*
X36750000Y-44750000D02*
X44832000Y-52832000D01*
X36750000Y-43600000D02*
X36750000Y-44750000D01*
X35750000Y-44250000D02*
X35750000Y-43600000D01*
X47586800Y-54140000D02*
X45640000Y-54140000D01*
X45640000Y-54140000D02*
X35750000Y-44250000D01*
X49276000Y-55829200D02*
X47586800Y-54140000D01*
X35250000Y-44281000D02*
X35409500Y-44440500D01*
X45534790Y-54394000D02*
X45594000Y-54394000D01*
X35581290Y-44440500D02*
X45534790Y-54394000D01*
X45594000Y-54394000D02*
X47250000Y-56050000D01*
X47250000Y-56050000D02*
X47720000Y-56050000D01*
X35250000Y-43600000D02*
X35250000Y-44281000D01*
X35409500Y-44440500D02*
X35581290Y-44440500D01*
X34750000Y-43600000D02*
X34750000Y-42500000D01*
X33250000Y-42276800D02*
X33250000Y-43600000D01*
X33223200Y-42250000D02*
X33250000Y-42276800D01*
X38130000Y-50110000D02*
X36538528Y-50110000D01*
X36538528Y-50110000D02*
X32750000Y-46321472D01*
X32750000Y-46321472D02*
X32750000Y-43600000D01*
X36995495Y-51054000D02*
X40991588Y-51054000D01*
X32250000Y-46308505D02*
X32250000Y-43600000D01*
X36995495Y-51054000D02*
X32250000Y-46308505D01*
X40991588Y-51054000D02*
X40993594Y-51056006D01*
X37519200Y-52019200D02*
X31750000Y-46250000D01*
X31750000Y-46250000D02*
X31750000Y-43600000D01*
X39776400Y-52019200D02*
X37519200Y-52019200D01*
X47140000Y-45500000D02*
X45590002Y-43950002D01*
X51206400Y-44704000D02*
X50410400Y-45500000D01*
X57613501Y-44613501D02*
X53034997Y-44613501D01*
X49500000Y-60500000D02*
X49500000Y-60990000D01*
X50150000Y-59850000D02*
X49500000Y-60500000D01*
X55890000Y-52550000D02*
X56560000Y-52550000D01*
X50410400Y-45500000D02*
X47140000Y-45500000D01*
X31250000Y-43600000D02*
X31250000Y-41250000D01*
X47927500Y-61390000D02*
X49100000Y-61390000D01*
X58936499Y-50173501D02*
X58936499Y-45936499D01*
X52635096Y-44213600D02*
X51696800Y-44213600D01*
X51100000Y-57340000D02*
X55890000Y-52550000D01*
X50900000Y-59850000D02*
X50150000Y-59850000D01*
X49100000Y-61390000D02*
X49500000Y-60990000D01*
X45590002Y-43950002D02*
X45590002Y-34036000D01*
X53034997Y-44613501D02*
X52635096Y-44213600D01*
X51696800Y-44213600D02*
X51206400Y-44704000D01*
X31250000Y-41250000D02*
X31500000Y-41000000D01*
X56560000Y-52550000D02*
X58936499Y-50173501D01*
X58936499Y-45936499D02*
X57613501Y-44613501D01*
X51100000Y-59850000D02*
X51100000Y-57340000D01*
X30500000Y-41000000D02*
X30600000Y-41100000D01*
X59470000Y-50930000D02*
X54360000Y-56040000D01*
X47490500Y-43990500D02*
X47500000Y-44000000D01*
X57290500Y-43490500D02*
X59470000Y-45670000D01*
X47490500Y-43490500D02*
X57290500Y-43490500D01*
X54360000Y-56040000D02*
X54360000Y-56390790D01*
X54746000Y-62004000D02*
X53557500Y-63192500D01*
X30600000Y-42569000D02*
X30250000Y-42919000D01*
X47490500Y-43490500D02*
X47490500Y-43990500D01*
X46320000Y-42320000D02*
X46320000Y-33150000D01*
X30250000Y-42919000D02*
X30250000Y-43600000D01*
X49645000Y-64740000D02*
X51192500Y-63192500D01*
X49500000Y-64740000D02*
X48077500Y-64740000D01*
X54360000Y-56390790D02*
X54746000Y-56776790D01*
X59470000Y-45670000D02*
X59470000Y-50930000D01*
X51500000Y-62885000D02*
X51192500Y-63192500D01*
X53557500Y-63192500D02*
X51192500Y-63192500D01*
X51500000Y-61550000D02*
X51500000Y-62885000D01*
X51100000Y-61150000D02*
X51500000Y-61550000D01*
X46320000Y-42320000D02*
X47490500Y-43490500D01*
X30600000Y-41100000D02*
X30600000Y-42569000D01*
X54746000Y-56776790D02*
X54746000Y-62004000D01*
X14823987Y-45459099D02*
X14823987Y-46513987D01*
X14823987Y-46513987D02*
X15060000Y-46750000D01*
X9394040Y-44499999D02*
X10622000Y-43272039D01*
X13481154Y-43025000D02*
X13925000Y-43468846D01*
X13925000Y-43468846D02*
X13925000Y-43550000D01*
X10622000Y-43078000D02*
X10675000Y-43025000D01*
X10622000Y-43272039D02*
X10622000Y-43078000D01*
X13950000Y-44758086D02*
X13248987Y-45459099D01*
X13925000Y-43550000D02*
X13950000Y-43575000D01*
X10675000Y-43025000D02*
X13481154Y-43025000D01*
X13950000Y-43575000D02*
X13950000Y-44758086D01*
X57830000Y-40960000D02*
X59747500Y-40960000D01*
D63*
X19212500Y-36000000D02*
X19212500Y-35575000D01*
X19212500Y-35575000D02*
X20787500Y-34000000D01*
X19212500Y-12000000D02*
X19212500Y-11575000D01*
X19212500Y-11575000D02*
X20787500Y-10000000D01*
X6247500Y-22920000D02*
X6247500Y-22588030D01*
X6247500Y-22588030D02*
X6025971Y-22366501D01*
X17832500Y-31332500D02*
X19440000Y-31332500D01*
X16750000Y-30250000D02*
X17832500Y-31332500D01*
X19212500Y-34000000D02*
X19212500Y-31560000D01*
X16750000Y-29250000D02*
X16750000Y-30250000D01*
X20599501Y-12187999D02*
X20787500Y-12000000D01*
X18212500Y-22000000D02*
X18212500Y-17594216D01*
X18212500Y-17594216D02*
X20599501Y-15207215D01*
X20599501Y-15207215D02*
X20599501Y-12187999D01*
D64*
X5616800Y-41950000D02*
X4761900Y-41095100D01*
X7425000Y-37050000D02*
X6545000Y-37050000D01*
X4761900Y-41095100D02*
X4761900Y-40641253D01*
X4761900Y-40641253D02*
X4781900Y-40621253D01*
X6545000Y-41950000D02*
X5616800Y-41950000D01*
X4781900Y-40621253D02*
X4781900Y-37884900D01*
X4781900Y-37884900D02*
X5616800Y-37050000D01*
X5616800Y-37050000D02*
X6545000Y-37050000D01*
X8545000Y-35930000D02*
X7425000Y-37050000D01*
D61*
X6545000Y-38250000D02*
X5420000Y-38250000D01*
X3346394Y-33478606D02*
X3346394Y-34305199D01*
X5420000Y-38250000D02*
X5358517Y-38311483D01*
X47500000Y-42500000D02*
X47520000Y-42480000D01*
X51810000Y-42470000D02*
X51810000Y-41790000D01*
X51810000Y-41790000D02*
X53300000Y-40300000D01*
X53300000Y-40300000D02*
X54380000Y-40300000D01*
X47520000Y-42480000D02*
X51800000Y-42480000D01*
X5290000Y-40860000D02*
X5680000Y-41250000D01*
X5680000Y-41250000D02*
X6545000Y-41250000D01*
X5100000Y-33340000D02*
X4070000Y-34370000D01*
X23114000Y-25908000D02*
X21844000Y-27178000D01*
X21844000Y-27178000D02*
X21844000Y-27432000D01*
X43850000Y-38630000D02*
X43750000Y-38530000D01*
X43750000Y-30790000D02*
X43850000Y-30690000D01*
X43750000Y-38530000D02*
X43750000Y-30790000D01*
X41780000Y-31510000D02*
X41780000Y-34530000D01*
X41780000Y-34530000D02*
X41200000Y-35110000D01*
X56930000Y-39410000D02*
X57690000Y-39410000D01*
X56010000Y-38490000D02*
X56930000Y-39410000D01*
X55570000Y-38490000D02*
X56010000Y-38490000D01*
X57690000Y-39410000D02*
X57690000Y-39800000D01*
X40480000Y-30970000D02*
X40480000Y-36180000D01*
X41310000Y-37010000D02*
X42090000Y-37010000D01*
X40480000Y-36180000D02*
X41310000Y-37010000D01*
X44490000Y-35160000D02*
X44490000Y-32230000D01*
X44490000Y-32230000D02*
X44480000Y-32220000D01*
X4500000Y-21620000D02*
X4500000Y-21880000D01*
X4500000Y-21880000D02*
X4200000Y-22180000D01*
X4500000Y-21470000D02*
X4720000Y-21250000D01*
X4200000Y-22180000D02*
X4200000Y-22692500D01*
X42750000Y-35190000D02*
X42160000Y-35780000D01*
X42750000Y-31330000D02*
X42750000Y-35190000D01*
X40880000Y-29460000D02*
X42750000Y-31330000D01*
X40480000Y-65050000D02*
X42235000Y-66805000D01*
X38930000Y-61620000D02*
X40480000Y-63170000D01*
X45305000Y-66805000D02*
X46042500Y-66067500D01*
X40480000Y-63170000D02*
X40480000Y-65050000D01*
X43755000Y-66805000D02*
X45305000Y-66805000D01*
X42235000Y-66805000D02*
X43755000Y-66805000D01*
X31100000Y-58190000D02*
X29750000Y-58190000D01*
X39835000Y-65535000D02*
X41730000Y-67430000D01*
X55000000Y-63620000D02*
X55000000Y-56110000D01*
X51190000Y-67430000D02*
X55000000Y-63620000D01*
X52410000Y-40180000D02*
X49220000Y-40180000D01*
X31500000Y-8900000D02*
X26200000Y-8900000D01*
X13510000Y-62530000D02*
X13250000Y-62790000D01*
X25600000Y-9500000D02*
X26200000Y-8900000D01*
X38605000Y-65535000D02*
X38019500Y-66120500D01*
X56255000Y-40165000D02*
X55800000Y-39710000D01*
X60000000Y-51110000D02*
X60000000Y-44995000D01*
X47510000Y-30770000D02*
X46820000Y-30080000D01*
X34410000Y-65780000D02*
X34410000Y-61500000D01*
X38605000Y-65535000D02*
X39835000Y-65535000D01*
X56255000Y-41250000D02*
X56255000Y-40165000D01*
X55800000Y-39710000D02*
X52880000Y-39710000D01*
X52880000Y-39710000D02*
X52410000Y-40180000D01*
X55000000Y-56110000D02*
X60000000Y-51110000D01*
X49220000Y-40180000D02*
X47510000Y-38470000D01*
X47510000Y-38470000D02*
X47510000Y-30770000D01*
X15180000Y-62530000D02*
X13510000Y-62530000D01*
X34750500Y-66120500D02*
X34410000Y-65780000D01*
X13250000Y-62790000D02*
X11832500Y-62790000D01*
X41730000Y-67430000D02*
X51190000Y-67430000D01*
X34410000Y-61500000D02*
X31100000Y-58190000D01*
X60000000Y-44995000D02*
X56255000Y-41250000D01*
X38019500Y-66120500D02*
X34750500Y-66120500D01*
X17000000Y-63850000D02*
X19650000Y-61200000D01*
X14260000Y-64292500D02*
X13707500Y-63740000D01*
X13817500Y-63850000D02*
X17000000Y-63850000D01*
X19650000Y-61200000D02*
X21462500Y-61200000D01*
X14260000Y-66020000D02*
X14260000Y-64292500D01*
D64*
X34250000Y-43600000D02*
X34250000Y-44250000D01*
X34798000Y-45301000D02*
X35099000Y-45301000D01*
X34750000Y-44750000D02*
X34750000Y-45253000D01*
X35099000Y-45301000D02*
X35353517Y-45046483D01*
X34250000Y-44250000D02*
X34750000Y-44750000D01*
D61*
X20210000Y-58550000D02*
X21087500Y-58550000D01*
X18850000Y-59050500D02*
X18709500Y-59050500D01*
X19709500Y-59050500D02*
X18850000Y-59050500D01*
X18730500Y-59050500D02*
X18270000Y-58590000D01*
X20210000Y-58550000D02*
X19709500Y-59050500D01*
X18850000Y-59050500D02*
X18730500Y-59050500D01*
X18709500Y-59050500D02*
X18260000Y-59500000D01*
X21087500Y-58550000D02*
X21462500Y-58925000D01*
D63*
X11480000Y-23750000D02*
X12380000Y-23750000D01*
X10689501Y-21689501D02*
X11480000Y-22480000D01*
X17194982Y-22300000D02*
X17897482Y-23002500D01*
X12450000Y-24905000D02*
X12450000Y-23680000D01*
X5012000Y-22238000D02*
X5560499Y-21689501D01*
X12745000Y-23630000D02*
X14075000Y-22300000D01*
X4430291Y-23870000D02*
X5012000Y-23288291D01*
X12450000Y-23680000D02*
X12500000Y-23630000D01*
X11480000Y-22750000D02*
X11480000Y-23750000D01*
X12500000Y-23630000D02*
X12990000Y-23630000D01*
X18785000Y-23002500D02*
X19787500Y-22000000D01*
X5560499Y-21689501D02*
X10689501Y-21689501D01*
X11220000Y-25600000D02*
X11220000Y-24530000D01*
X11500000Y-24250000D02*
X11480000Y-24230000D01*
X5012000Y-23288291D02*
X5012000Y-22238000D01*
X12380000Y-23750000D02*
X12450000Y-23680000D01*
X14075000Y-22300000D02*
X17194982Y-22300000D01*
X17897482Y-23002500D02*
X18785000Y-23002500D01*
X3972500Y-23870000D02*
X4430291Y-23870000D01*
X11220000Y-24530000D02*
X11500000Y-24250000D01*
X11480000Y-24230000D02*
X11480000Y-23750000D01*
X11480000Y-22480000D02*
X11480000Y-22750000D01*
X16770000Y-32036000D02*
X16347000Y-31613000D01*
D64*
X11858600Y-31761400D02*
X11090000Y-32530000D01*
D63*
X16347000Y-31613000D02*
X12007000Y-31613000D01*
D64*
X16770000Y-32740000D02*
X16770000Y-33760000D01*
X11858600Y-31761400D02*
X16064690Y-31761400D01*
D63*
X12007000Y-31613000D02*
X11090000Y-32530000D01*
X16770000Y-32740000D02*
X16770000Y-32036000D01*
D64*
X16770000Y-33760000D02*
X17580000Y-34570000D01*
D63*
X6247500Y-24820000D02*
X7140000Y-24820000D01*
X7140000Y-24820000D02*
X7920000Y-25600000D01*
X46210000Y-28450000D02*
X31800000Y-28450000D01*
X47980001Y-35087745D02*
X47980001Y-30220001D01*
X31800000Y-28450000D02*
X24250000Y-36000000D01*
X49212500Y-36000000D02*
X48892256Y-36000000D01*
X24250000Y-36000000D02*
X20787500Y-36000000D01*
X46210000Y-28450000D02*
X47900001Y-30140001D01*
X47980001Y-30220001D02*
X47900001Y-30140001D01*
X48892256Y-36000000D02*
X47980001Y-35087745D01*
X49898000Y-9148000D02*
X50750000Y-10000000D01*
X19212500Y-10000000D02*
X20492500Y-8720000D01*
X48746982Y-9148000D02*
X49898000Y-9148000D01*
X23862577Y-8720000D02*
X25319577Y-10177000D01*
X25319577Y-10177000D02*
X47717982Y-10177000D01*
X20492500Y-8720000D02*
X23862577Y-8720000D01*
X47717982Y-10177000D02*
X48746982Y-9148000D01*
X49212500Y-34000000D02*
X49212500Y-34425000D01*
X49212500Y-34425000D02*
X50787500Y-36000000D01*
X49212500Y-10000000D02*
X50250000Y-11037500D01*
X50250000Y-11462500D02*
X50787500Y-12000000D01*
X50250000Y-11037500D02*
X50250000Y-11462500D01*
X50212500Y-22000000D02*
X49580000Y-22632500D01*
X49580000Y-22632500D02*
X49580000Y-32792500D01*
X49580000Y-32792500D02*
X50787500Y-34000000D01*
X51787500Y-22000000D02*
X47400000Y-17612500D01*
X47400000Y-13812500D02*
X49212500Y-12000000D01*
X47400000Y-17612500D02*
X47400000Y-13812500D01*
X23362500Y-62537500D02*
X22650000Y-63250000D01*
X23362500Y-61200000D02*
X23362500Y-62537500D01*
D61*
X39350000Y-60590000D02*
X38940000Y-60590000D01*
X43755000Y-65535000D02*
X42145000Y-65535000D01*
X42145000Y-65535000D02*
X41050000Y-64440000D01*
X41050000Y-64440000D02*
X41050000Y-62290000D01*
X46052500Y-62340000D02*
X46052500Y-64227500D01*
X44745000Y-65535000D02*
X43755000Y-65535000D01*
X41050000Y-62290000D02*
X39350000Y-60590000D01*
X46052500Y-64227500D02*
X44745000Y-65535000D01*
X9200000Y-45725000D02*
X8715000Y-46210000D01*
X9200000Y-45449999D02*
X9200000Y-45725000D01*
X8715000Y-46750000D02*
X7765000Y-46750000D01*
X8715000Y-46210000D02*
X8715000Y-46750000D01*
X36220000Y-62930000D02*
X38540000Y-62930000D01*
X38325000Y-64265000D02*
X37160000Y-65430000D01*
X37160000Y-65430000D02*
X36220000Y-65430000D01*
D64*
X17100000Y-59989343D02*
X17100000Y-56510000D01*
X15669343Y-61420000D02*
X17100000Y-59989343D01*
D61*
X16200000Y-61950657D02*
X15669343Y-61420000D01*
D64*
X23212500Y-52875001D02*
X23212500Y-56250000D01*
D63*
X26670000Y-58406000D02*
X24687500Y-58406000D01*
D64*
X18910000Y-50440000D02*
X21410000Y-50440000D01*
D63*
X23881500Y-58406000D02*
X23362500Y-58925000D01*
D64*
X11832500Y-64690000D02*
X10866400Y-63723900D01*
X18110000Y-51240000D02*
X18910000Y-50440000D01*
X24687500Y-58287500D02*
X25062499Y-58287500D01*
X10866400Y-62363600D02*
X11810000Y-61420000D01*
X23212500Y-56250000D02*
X23212500Y-58775000D01*
X17100000Y-56510000D02*
X18110000Y-55500000D01*
X18110000Y-55500000D02*
X18110000Y-51240000D01*
X10866400Y-63723900D02*
X10866400Y-62363600D01*
D61*
X16200000Y-62530000D02*
X16200000Y-61950657D01*
D63*
X24638000Y-58406000D02*
X23881500Y-58406000D01*
D64*
X11810000Y-61420000D02*
X15669343Y-61420000D01*
X22260000Y-51922501D02*
X23212500Y-52875001D01*
X22260000Y-51290000D02*
X22260000Y-51922501D01*
X21410000Y-50440000D02*
X22260000Y-51290000D01*
%TA.AperFunction,Conductor*%
G36*
X23612500Y-62101648D02*
G01*
X23637646Y-62097665D01*
X23750546Y-62040140D01*
X23788319Y-62002368D01*
X23837682Y-61972118D01*
X23895398Y-61967576D01*
X23948885Y-61989731D01*
X23986485Y-62033754D01*
X24000000Y-62090049D01*
X24000000Y-62326000D01*
X23983387Y-62388000D01*
X23938000Y-62433387D01*
X23876000Y-62450000D01*
X22250000Y-62450000D01*
X22250000Y-64050000D01*
X23876000Y-64050000D01*
X23938000Y-64066613D01*
X23983387Y-64112000D01*
X24000000Y-64174000D01*
X24000000Y-64376000D01*
X23983387Y-64438000D01*
X23938000Y-64483387D01*
X23876000Y-64500000D01*
X19624000Y-64500000D01*
X19562000Y-64483387D01*
X19516613Y-64438000D01*
X19500000Y-64376000D01*
X19500000Y-63500000D01*
X19900000Y-63500000D01*
X19900000Y-63824625D01*
X19914504Y-63897543D01*
X19969760Y-63980239D01*
X20052456Y-64035495D01*
X20125375Y-64050000D01*
X21750000Y-64050000D01*
X21750000Y-63500000D01*
X19900000Y-63500000D01*
X19500000Y-63500000D01*
X19500000Y-63000000D01*
X19900000Y-63000000D01*
X21750000Y-63000000D01*
X21750000Y-62450000D01*
X20125375Y-62450000D01*
X20052456Y-62464504D01*
X19969760Y-62519760D01*
X19914504Y-62602456D01*
X19900000Y-62675375D01*
X19900000Y-63000000D01*
X19500000Y-63000000D01*
X19500000Y-62124000D01*
X19516613Y-62062000D01*
X19562000Y-62016613D01*
X19624000Y-62000000D01*
X20976589Y-62000000D01*
X21024042Y-62009439D01*
X21064270Y-62036319D01*
X21071777Y-62043826D01*
X21185943Y-62101998D01*
X21280664Y-62117000D01*
X21280666Y-62117000D01*
X21644334Y-62117000D01*
X21644336Y-62117000D01*
X21739056Y-62101998D01*
X21870722Y-62034910D01*
X21870820Y-62035104D01*
X21905406Y-62015136D01*
X21969594Y-62015136D01*
X22004179Y-62035104D01*
X22004278Y-62034910D01*
X22135943Y-62101998D01*
X22230664Y-62117000D01*
X22230666Y-62117000D01*
X22594334Y-62117000D01*
X22594336Y-62117000D01*
X22689056Y-62101998D01*
X22804611Y-62043119D01*
X22858587Y-62011954D01*
X22922777Y-62011955D01*
X22956773Y-62031583D01*
X22956956Y-62031225D01*
X23087353Y-62097665D01*
X23112500Y-62101648D01*
X23112500Y-61500000D01*
X23612500Y-61500000D01*
X23612500Y-62101648D01*
G37*
%TD.AperFunction*%
%TA.AperFunction,Conductor*%
G36*
X40382986Y-28973199D02*
G01*
X40428717Y-29023657D01*
X40440908Y-29090655D01*
X40415880Y-29153987D01*
X40395645Y-29180357D01*
X40339772Y-29315246D01*
X40320714Y-29459999D01*
X40339772Y-29604754D01*
X40395643Y-29739640D01*
X40395644Y-29739642D01*
X40395645Y-29739643D01*
X40484526Y-29855474D01*
X40600357Y-29944355D01*
X40735246Y-30000228D01*
X40880000Y-30019285D01*
X40916191Y-30014520D01*
X40972235Y-30020039D01*
X41020058Y-30049778D01*
X41726792Y-30756512D01*
X41759872Y-30816035D01*
X41756531Y-30884051D01*
X41717777Y-30940046D01*
X41655298Y-30967132D01*
X41635246Y-30969772D01*
X41500357Y-31025645D01*
X41384525Y-31114525D01*
X41295645Y-31230357D01*
X41239772Y-31365246D01*
X41220714Y-31509999D01*
X41239772Y-31654754D01*
X41295643Y-31789640D01*
X41295644Y-31789642D01*
X41295645Y-31789643D01*
X41321376Y-31823176D01*
X41384527Y-31905475D01*
X41413486Y-31927696D01*
X41449212Y-31971228D01*
X41462000Y-32026072D01*
X41462000Y-33376000D01*
X41445387Y-33438000D01*
X41400000Y-33483387D01*
X41338000Y-33500000D01*
X40922000Y-33500000D01*
X40860000Y-33483387D01*
X40814613Y-33438000D01*
X40798000Y-33376000D01*
X40798000Y-31486072D01*
X40810788Y-31431228D01*
X40846514Y-31387696D01*
X40853491Y-31382342D01*
X40875474Y-31365474D01*
X40964355Y-31249643D01*
X41020228Y-31114754D01*
X41039285Y-30970000D01*
X41038907Y-30967132D01*
X41036746Y-30950715D01*
X41020228Y-30825246D01*
X40964355Y-30690358D01*
X40875474Y-30574526D01*
X40759643Y-30485645D01*
X40759642Y-30485644D01*
X40759640Y-30485643D01*
X40624754Y-30429772D01*
X40479999Y-30410714D01*
X40335246Y-30429772D01*
X40200357Y-30485645D01*
X40084525Y-30574525D01*
X39995645Y-30690357D01*
X39939772Y-30825246D01*
X39920714Y-30969999D01*
X39939772Y-31114754D01*
X39995643Y-31249640D01*
X39995644Y-31249642D01*
X39995645Y-31249643D01*
X40067960Y-31343885D01*
X40084527Y-31365475D01*
X40113486Y-31387696D01*
X40149212Y-31431228D01*
X40162000Y-31486072D01*
X40162000Y-33376000D01*
X40145387Y-33438000D01*
X40100000Y-33483387D01*
X40038000Y-33500000D01*
X39000000Y-33500000D01*
X39000000Y-37000000D01*
X40798918Y-37000000D01*
X40846371Y-37009439D01*
X40886599Y-37036319D01*
X41071490Y-37221210D01*
X41078798Y-37229185D01*
X41102440Y-37257360D01*
X41134287Y-37275747D01*
X41143407Y-37281557D01*
X41173534Y-37302652D01*
X41173535Y-37302652D01*
X41174579Y-37303383D01*
X41198306Y-37313211D01*
X41235778Y-37319818D01*
X41246330Y-37322157D01*
X41281857Y-37331677D01*
X41281857Y-37331676D01*
X41281858Y-37331677D01*
X41299690Y-37330116D01*
X41318491Y-37328471D01*
X41329297Y-37328000D01*
X41573928Y-37328000D01*
X41628772Y-37340788D01*
X41672304Y-37376514D01*
X41694526Y-37405474D01*
X41810357Y-37494355D01*
X41945246Y-37550228D01*
X42090000Y-37569285D01*
X42234754Y-37550228D01*
X42369643Y-37494355D01*
X42485474Y-37405474D01*
X42574355Y-37289643D01*
X42630228Y-37154754D01*
X42636407Y-37107814D01*
X42657771Y-37052877D01*
X42702089Y-37014011D01*
X42759346Y-37000000D01*
X43308000Y-37000000D01*
X43370000Y-37016613D01*
X43415387Y-37062000D01*
X43432000Y-37124000D01*
X43432000Y-38221790D01*
X43425419Y-38261649D01*
X43406377Y-38297273D01*
X43375363Y-38337692D01*
X43365644Y-38350359D01*
X43309772Y-38485246D01*
X43290714Y-38629999D01*
X43309772Y-38774754D01*
X43365643Y-38909640D01*
X43365644Y-38909642D01*
X43365645Y-38909643D01*
X43454526Y-39025474D01*
X43570357Y-39114355D01*
X43705246Y-39170228D01*
X43850000Y-39189285D01*
X43994754Y-39170228D01*
X44129643Y-39114355D01*
X44245474Y-39025474D01*
X44277625Y-38983573D01*
X44325565Y-38945782D01*
X44385729Y-38935444D01*
X44443535Y-38955067D01*
X44484973Y-38999894D01*
X44500000Y-39059062D01*
X44500000Y-44376000D01*
X44483387Y-44438000D01*
X44438000Y-44483387D01*
X44376000Y-44500000D01*
X41260852Y-44500000D01*
X41207835Y-44488095D01*
X41164998Y-44454665D01*
X41140568Y-44406129D01*
X41139235Y-44351808D01*
X41139734Y-44349301D01*
X41154500Y-44275067D01*
X41154499Y-42924934D01*
X41139734Y-42850699D01*
X41098918Y-42789614D01*
X41083484Y-42766515D01*
X40999300Y-42710265D01*
X40925069Y-42695500D01*
X40574933Y-42695500D01*
X40524189Y-42705593D01*
X40475812Y-42705593D01*
X40425067Y-42695500D01*
X40074933Y-42695500D01*
X40024189Y-42705593D01*
X39975812Y-42705593D01*
X39925067Y-42695500D01*
X39574933Y-42695500D01*
X39524189Y-42705593D01*
X39475812Y-42705593D01*
X39425067Y-42695500D01*
X39074933Y-42695500D01*
X39024189Y-42705593D01*
X38975812Y-42705593D01*
X38925067Y-42695500D01*
X38574933Y-42695500D01*
X38524189Y-42705593D01*
X38475812Y-42705593D01*
X38425067Y-42695500D01*
X38074933Y-42695500D01*
X38024189Y-42705593D01*
X37975812Y-42705593D01*
X37925067Y-42695500D01*
X37924942Y-42695500D01*
X37924673Y-42695421D01*
X37913091Y-42693118D01*
X37913292Y-42692104D01*
X37858317Y-42676081D01*
X37812560Y-42623905D01*
X37802003Y-42555315D01*
X37809285Y-42500000D01*
X37808104Y-42491027D01*
X37790228Y-42355246D01*
X37734355Y-42220358D01*
X37676581Y-42145065D01*
X41345500Y-42145065D01*
X41360266Y-42219301D01*
X41416515Y-42303484D01*
X41492891Y-42354517D01*
X41500699Y-42359734D01*
X41574933Y-42374500D01*
X43225066Y-42374499D01*
X43299301Y-42359734D01*
X43383484Y-42303484D01*
X43439734Y-42219301D01*
X43454500Y-42145067D01*
X43454499Y-40094934D01*
X43439734Y-40020699D01*
X43421068Y-39992764D01*
X43383484Y-39936515D01*
X43299300Y-39880265D01*
X43225069Y-39865500D01*
X41574934Y-39865500D01*
X41500698Y-39880266D01*
X41416515Y-39936515D01*
X41360265Y-40020699D01*
X41345500Y-40094930D01*
X41345500Y-42145065D01*
X37676581Y-42145065D01*
X37645475Y-42104527D01*
X37645474Y-42104526D01*
X37529643Y-42015645D01*
X37529642Y-42015644D01*
X37529640Y-42015643D01*
X37394754Y-41959772D01*
X37249999Y-41940714D01*
X37105246Y-41959772D01*
X36970357Y-42015645D01*
X36854525Y-42104525D01*
X36765645Y-42220357D01*
X36709772Y-42355246D01*
X36707935Y-42369197D01*
X36688708Y-42420978D01*
X36648902Y-42459272D01*
X36596415Y-42476481D01*
X36541663Y-42469190D01*
X36507377Y-42456402D01*
X36447824Y-42450000D01*
X36400000Y-42450000D01*
X36400000Y-42753618D01*
X36394660Y-42789614D01*
X36379102Y-42822510D01*
X36353102Y-42861421D01*
X36308453Y-42901887D01*
X36250000Y-42916529D01*
X36191547Y-42901887D01*
X36146898Y-42861421D01*
X36120898Y-42822510D01*
X36105340Y-42789614D01*
X36100000Y-42753618D01*
X36100000Y-42450000D01*
X36052176Y-42450000D01*
X35992624Y-42456402D01*
X35857910Y-42506647D01*
X35742809Y-42592811D01*
X35703133Y-42645812D01*
X35659372Y-42682384D01*
X35603870Y-42695500D01*
X35574933Y-42695500D01*
X35524189Y-42705593D01*
X35475812Y-42705593D01*
X35425067Y-42695500D01*
X35424942Y-42695500D01*
X35424673Y-42695421D01*
X35413091Y-42693118D01*
X35413292Y-42692104D01*
X35358317Y-42676081D01*
X35312560Y-42623905D01*
X35302003Y-42555315D01*
X35309285Y-42500000D01*
X35308104Y-42491027D01*
X35290228Y-42355246D01*
X35234355Y-42220358D01*
X35176581Y-42145065D01*
X35145475Y-42104527D01*
X35145474Y-42104526D01*
X35029643Y-42015645D01*
X35029642Y-42015644D01*
X35029640Y-42015643D01*
X34894754Y-41959772D01*
X34749999Y-41940714D01*
X34605246Y-41959772D01*
X34470357Y-42015645D01*
X34354525Y-42104525D01*
X34265645Y-42220357D01*
X34209772Y-42355246D01*
X34190714Y-42500000D01*
X34197997Y-42555315D01*
X34187442Y-42623902D01*
X34141689Y-42676077D01*
X34086708Y-42692106D01*
X34086910Y-42693119D01*
X34075347Y-42695418D01*
X34075068Y-42695500D01*
X34074937Y-42695500D01*
X34024189Y-42705593D01*
X33975812Y-42705593D01*
X33925067Y-42695500D01*
X33824433Y-42695500D01*
X33765980Y-42680858D01*
X33721331Y-42640391D01*
X33701030Y-42583654D01*
X33709871Y-42524050D01*
X33763428Y-42394754D01*
X33782485Y-42250000D01*
X33763428Y-42105246D01*
X33707555Y-41970358D01*
X33618674Y-41854526D01*
X33502843Y-41765645D01*
X33502842Y-41765644D01*
X33502840Y-41765643D01*
X33367954Y-41709772D01*
X33223199Y-41690714D01*
X33078446Y-41709772D01*
X32943557Y-41765645D01*
X32827725Y-41854525D01*
X32738845Y-41970357D01*
X32682972Y-42105246D01*
X32663914Y-42249999D01*
X32682972Y-42394754D01*
X32736527Y-42524048D01*
X32745369Y-42583654D01*
X32725069Y-42640390D01*
X32680420Y-42680858D01*
X32621968Y-42695500D01*
X32574934Y-42695500D01*
X32524189Y-42705593D01*
X32475812Y-42705593D01*
X32425067Y-42695500D01*
X32074933Y-42695500D01*
X32024189Y-42705593D01*
X31975812Y-42705593D01*
X31925067Y-42695500D01*
X31691999Y-42695500D01*
X31630000Y-42678888D01*
X31584613Y-42633501D01*
X31568000Y-42571501D01*
X31568000Y-41654875D01*
X31577439Y-41607422D01*
X31604319Y-41567194D01*
X31644547Y-41540314D01*
X31676587Y-41527042D01*
X31779643Y-41484355D01*
X31895474Y-41395474D01*
X31984355Y-41279643D01*
X32040228Y-41144754D01*
X32059285Y-41000000D01*
X32040228Y-40855246D01*
X31984355Y-40720358D01*
X31895474Y-40604526D01*
X31779643Y-40515645D01*
X31779642Y-40515644D01*
X31779640Y-40515643D01*
X31644754Y-40459772D01*
X31499999Y-40440714D01*
X31355246Y-40459772D01*
X31220357Y-40515645D01*
X31104524Y-40604526D01*
X31098375Y-40612541D01*
X31054843Y-40648266D01*
X31000000Y-40661054D01*
X30945157Y-40648266D01*
X30901625Y-40612541D01*
X30895476Y-40604528D01*
X30895474Y-40604527D01*
X30895474Y-40604526D01*
X30779643Y-40515645D01*
X30779642Y-40515644D01*
X30779640Y-40515643D01*
X30644754Y-40459772D01*
X30499999Y-40440714D01*
X30355246Y-40459772D01*
X30220357Y-40515645D01*
X30104525Y-40604525D01*
X30015645Y-40720357D01*
X29959772Y-40855246D01*
X29940714Y-40999999D01*
X29959772Y-41144754D01*
X30015643Y-41279640D01*
X30015644Y-41279642D01*
X30015645Y-41279643D01*
X30104526Y-41395474D01*
X30220357Y-41484355D01*
X30220358Y-41484355D01*
X30233309Y-41494293D01*
X30232038Y-41495949D01*
X30245757Y-41505137D01*
X30272582Y-41545340D01*
X30282000Y-41592743D01*
X30282000Y-42380237D01*
X30267876Y-42437712D01*
X30228720Y-42482093D01*
X30173454Y-42503270D01*
X30114667Y-42496419D01*
X30007377Y-42456402D01*
X29947824Y-42450000D01*
X29900000Y-42450000D01*
X29900000Y-42753618D01*
X29894660Y-42789614D01*
X29879102Y-42822510D01*
X29853102Y-42861421D01*
X29808453Y-42901887D01*
X29750000Y-42916529D01*
X29691547Y-42901887D01*
X29646898Y-42861421D01*
X29620898Y-42822510D01*
X29605340Y-42789614D01*
X29600000Y-42753618D01*
X29600000Y-42450000D01*
X29552176Y-42450000D01*
X29492624Y-42456402D01*
X29357910Y-42506647D01*
X29242809Y-42592811D01*
X29203133Y-42645812D01*
X29159372Y-42682384D01*
X29103870Y-42695500D01*
X29074935Y-42695500D01*
X29000698Y-42710266D01*
X28916515Y-42766515D01*
X28860265Y-42850699D01*
X28845500Y-42924930D01*
X28845500Y-44275065D01*
X28860765Y-44351811D01*
X28859430Y-44406131D01*
X28834999Y-44454666D01*
X28792163Y-44488095D01*
X28739147Y-44500000D01*
X26624000Y-44500000D01*
X26562000Y-44483387D01*
X26516613Y-44438000D01*
X26500000Y-44376000D01*
X26500000Y-42457619D01*
X26517642Y-42393870D01*
X26565547Y-42348261D01*
X26630084Y-42333768D01*
X26692890Y-42354517D01*
X26700697Y-42359733D01*
X26700699Y-42359734D01*
X26774933Y-42374500D01*
X28425066Y-42374499D01*
X28499301Y-42359734D01*
X28583484Y-42303484D01*
X28639734Y-42219301D01*
X28654500Y-42145067D01*
X28654499Y-40094934D01*
X28639734Y-40020699D01*
X28621068Y-39992764D01*
X28583484Y-39936515D01*
X28499300Y-39880265D01*
X28425069Y-39865500D01*
X26774934Y-39865500D01*
X26700698Y-39880266D01*
X26692891Y-39885483D01*
X26630085Y-39906232D01*
X26565547Y-39891739D01*
X26517642Y-39846130D01*
X26500000Y-39782381D01*
X26500000Y-37124000D01*
X26516613Y-37062000D01*
X26562000Y-37016613D01*
X26624000Y-37000000D01*
X31000000Y-37000000D01*
X31000000Y-33500000D01*
X27762832Y-33500000D01*
X27706537Y-33486485D01*
X27662514Y-33448885D01*
X27640359Y-33395398D01*
X27644901Y-33337682D01*
X27675151Y-33288319D01*
X28333448Y-32630023D01*
X31972651Y-28990819D01*
X32012880Y-28963939D01*
X32060333Y-28954500D01*
X40317505Y-28954500D01*
X40382986Y-28973199D01*
G37*
%TD.AperFunction*%
%TA.AperFunction,Conductor*%
G36*
X45997120Y-28963939D02*
G01*
X46037348Y-28990819D01*
X46463681Y-29417152D01*
X46490561Y-29457380D01*
X46500000Y-29504833D01*
X46500000Y-29565463D01*
X46487212Y-29620307D01*
X46451486Y-29663839D01*
X46424525Y-29684526D01*
X46335645Y-29800357D01*
X46279772Y-29935246D01*
X46260714Y-30079999D01*
X46279772Y-30224754D01*
X46335643Y-30359640D01*
X46335644Y-30359642D01*
X46335645Y-30359643D01*
X46389457Y-30429772D01*
X46424528Y-30475476D01*
X46451487Y-30496163D01*
X46487212Y-30539695D01*
X46500000Y-30594538D01*
X46500000Y-32473018D01*
X46480580Y-32539643D01*
X46428404Y-32585400D01*
X46359815Y-32595956D01*
X46344474Y-32593937D01*
X46319999Y-32590714D01*
X46175246Y-32609772D01*
X46040357Y-32665645D01*
X45924525Y-32754525D01*
X45835645Y-32870357D01*
X45779772Y-33005246D01*
X45760714Y-33149999D01*
X45779771Y-33294752D01*
X45779772Y-33294754D01*
X45788245Y-33315210D01*
X45796623Y-33378846D01*
X45772060Y-33438147D01*
X45721138Y-33477222D01*
X45657500Y-33485600D01*
X45590003Y-33476714D01*
X45429062Y-33497903D01*
X45428854Y-33496324D01*
X45410376Y-33500000D01*
X44932000Y-33500000D01*
X44870000Y-33483387D01*
X44824613Y-33438000D01*
X44808000Y-33376000D01*
X44808000Y-32728399D01*
X44820788Y-32673555D01*
X44856512Y-32630024D01*
X44875474Y-32615474D01*
X44964355Y-32499643D01*
X45020228Y-32364754D01*
X45039285Y-32220000D01*
X45020228Y-32075246D01*
X44964355Y-31940358D01*
X44875474Y-31824526D01*
X44759643Y-31735645D01*
X44759642Y-31735644D01*
X44759640Y-31735643D01*
X44624754Y-31679772D01*
X44479999Y-31660714D01*
X44335246Y-31679772D01*
X44239453Y-31719451D01*
X44179846Y-31728293D01*
X44123109Y-31707992D01*
X44082642Y-31663343D01*
X44068000Y-31604890D01*
X44068000Y-31282743D01*
X44077418Y-31235340D01*
X44104243Y-31195137D01*
X44117961Y-31185949D01*
X44116691Y-31184293D01*
X44129641Y-31174355D01*
X44129643Y-31174355D01*
X44245474Y-31085474D01*
X44334355Y-30969643D01*
X44390228Y-30834754D01*
X44409285Y-30690000D01*
X44390228Y-30545246D01*
X44334355Y-30410358D01*
X44245474Y-30294526D01*
X44129643Y-30205645D01*
X44129642Y-30205644D01*
X44129640Y-30205643D01*
X43994754Y-30149772D01*
X43849999Y-30130714D01*
X43705246Y-30149772D01*
X43570357Y-30205645D01*
X43454525Y-30294525D01*
X43365645Y-30410357D01*
X43309772Y-30545246D01*
X43290714Y-30689999D01*
X43309772Y-30834754D01*
X43365643Y-30969640D01*
X43365644Y-30969642D01*
X43365645Y-30969643D01*
X43406376Y-31022724D01*
X43425419Y-31058352D01*
X43432000Y-31098211D01*
X43432000Y-33376000D01*
X43415387Y-33438000D01*
X43370000Y-33483387D01*
X43308000Y-33500000D01*
X43192000Y-33500000D01*
X43130000Y-33483387D01*
X43084613Y-33438000D01*
X43068000Y-33376000D01*
X43068000Y-31349297D01*
X43068472Y-31338489D01*
X43071677Y-31301857D01*
X43062159Y-31266340D01*
X43059819Y-31255789D01*
X43053432Y-31219560D01*
X43053430Y-31219557D01*
X43053209Y-31218301D01*
X43043386Y-31194585D01*
X43042651Y-31193536D01*
X43042651Y-31193534D01*
X43021554Y-31163404D01*
X43015752Y-31154296D01*
X42997360Y-31122440D01*
X42988200Y-31114754D01*
X42969185Y-31098798D01*
X42961210Y-31091490D01*
X41469778Y-29600058D01*
X41440039Y-29552235D01*
X41434520Y-29496190D01*
X41439285Y-29460000D01*
X41420228Y-29315246D01*
X41364355Y-29180358D01*
X41344120Y-29153987D01*
X41319092Y-29090655D01*
X41331283Y-29023657D01*
X41377014Y-28973199D01*
X41442495Y-28954500D01*
X45949667Y-28954500D01*
X45997120Y-28963939D01*
G37*
%TD.AperFunction*%
%TA.AperFunction,Conductor*%
G36*
X46438000Y-11016613D02*
G01*
X46483387Y-11062000D01*
X46500000Y-11124000D01*
X46500000Y-19649694D01*
X46488095Y-19702711D01*
X46454665Y-19745547D01*
X46406129Y-19769978D01*
X46351809Y-19771311D01*
X46294909Y-19759992D01*
X46000000Y-19740663D01*
X45705090Y-19759992D01*
X45415240Y-19817647D01*
X45135391Y-19912643D01*
X44870332Y-20043356D01*
X44624603Y-20207546D01*
X44402407Y-20402407D01*
X44207546Y-20624603D01*
X44043356Y-20870332D01*
X43912643Y-21135391D01*
X43817647Y-21415240D01*
X43759992Y-21705090D01*
X43740663Y-22000000D01*
X43759992Y-22294909D01*
X43817647Y-22584759D01*
X43912643Y-22864609D01*
X44043356Y-23129668D01*
X44043357Y-23129669D01*
X44207547Y-23375397D01*
X44402407Y-23597593D01*
X44624602Y-23792452D01*
X44624603Y-23792453D01*
X44870331Y-23956643D01*
X45135390Y-24087356D01*
X45415240Y-24182352D01*
X45705090Y-24240007D01*
X45705092Y-24240007D01*
X45705097Y-24240008D01*
X46000000Y-24259337D01*
X46294903Y-24240008D01*
X46294907Y-24240007D01*
X46294909Y-24240007D01*
X46351809Y-24228689D01*
X46406129Y-24230022D01*
X46454665Y-24254453D01*
X46488095Y-24297289D01*
X46500000Y-24350306D01*
X46500000Y-27838904D01*
X46488794Y-27890417D01*
X46457201Y-27932618D01*
X46410931Y-27957882D01*
X46358348Y-27961641D01*
X46348676Y-27960250D01*
X46322996Y-27953695D01*
X46318343Y-27951959D01*
X46268378Y-27948385D01*
X46259591Y-27947440D01*
X46246089Y-27945500D01*
X46246083Y-27945500D01*
X46232445Y-27945500D01*
X46223599Y-27945184D01*
X46173640Y-27941610D01*
X46169590Y-27942491D01*
X46168789Y-27942666D01*
X46142432Y-27945500D01*
X31867568Y-27945500D01*
X31841210Y-27942666D01*
X31840231Y-27942453D01*
X31836359Y-27941610D01*
X31786401Y-27945184D01*
X31777555Y-27945500D01*
X31763917Y-27945500D01*
X31750408Y-27947441D01*
X31741622Y-27948385D01*
X31691655Y-27951959D01*
X31687001Y-27953696D01*
X31661319Y-27960251D01*
X31656402Y-27960957D01*
X31610822Y-27981773D01*
X31602647Y-27985159D01*
X31555730Y-28002658D01*
X31551751Y-28005637D01*
X31528966Y-28019156D01*
X31524443Y-28021221D01*
X31486577Y-28054031D01*
X31479697Y-28059575D01*
X31468779Y-28067749D01*
X31459126Y-28077401D01*
X31452658Y-28083422D01*
X31414803Y-28116225D01*
X31412116Y-28120406D01*
X31395486Y-28141041D01*
X26072848Y-33463681D01*
X26032620Y-33490561D01*
X25985167Y-33500000D01*
X23624000Y-33500000D01*
X23562000Y-33483387D01*
X23516613Y-33438000D01*
X23500000Y-33376000D01*
X23500000Y-26357914D01*
X23506581Y-26318055D01*
X23525624Y-26282427D01*
X23598355Y-26187643D01*
X23654228Y-26052754D01*
X23673285Y-25908000D01*
X23654228Y-25763246D01*
X23598355Y-25628358D01*
X23582575Y-25607793D01*
X23525624Y-25533572D01*
X23506581Y-25497944D01*
X23500000Y-25458086D01*
X23500000Y-24350306D01*
X23511905Y-24297289D01*
X23545335Y-24254453D01*
X23593871Y-24230022D01*
X23648191Y-24228689D01*
X23705090Y-24240007D01*
X23705092Y-24240007D01*
X23705097Y-24240008D01*
X24000000Y-24259337D01*
X24294903Y-24240008D01*
X24294907Y-24240007D01*
X24294909Y-24240007D01*
X24584759Y-24182352D01*
X24864609Y-24087356D01*
X24871778Y-24083820D01*
X25129669Y-23956643D01*
X25375397Y-23792453D01*
X25597593Y-23597593D01*
X25792453Y-23375397D01*
X25956643Y-23129669D01*
X26087355Y-22864611D01*
X26182352Y-22584759D01*
X26240008Y-22294903D01*
X26259337Y-22000000D01*
X26240008Y-21705097D01*
X26182352Y-21415241D01*
X26087355Y-21135389D01*
X25956643Y-20870332D01*
X25792453Y-20624603D01*
X25597593Y-20402407D01*
X25375397Y-20207547D01*
X25129669Y-20043357D01*
X25129670Y-20043357D01*
X25129668Y-20043356D01*
X24864609Y-19912643D01*
X24584759Y-19817647D01*
X24294909Y-19759992D01*
X24000000Y-19740663D01*
X23705090Y-19759992D01*
X23648191Y-19771311D01*
X23593871Y-19769978D01*
X23545335Y-19745547D01*
X23511905Y-19702711D01*
X23500000Y-19649694D01*
X23500000Y-11124000D01*
X23516613Y-11062000D01*
X23562000Y-11016613D01*
X23624000Y-11000000D01*
X46376000Y-11000000D01*
X46438000Y-11016613D01*
G37*
%TD.AperFunction*%
%TA.AperFunction,Conductor*%
G36*
X28937000Y-57516881D02*
G01*
X28983119Y-57563000D01*
X29000000Y-57626000D01*
X29000000Y-59434291D01*
X28989487Y-59484678D01*
X28959701Y-59526656D01*
X28915614Y-59553221D01*
X28834353Y-59581654D01*
X28725207Y-59662207D01*
X28644653Y-59771355D01*
X28599851Y-59899391D01*
X28597000Y-59929800D01*
X28597000Y-60146500D01*
X30096000Y-60146500D01*
X30159000Y-60163381D01*
X30205119Y-60209500D01*
X30222000Y-60272500D01*
X30222000Y-60520500D01*
X30205119Y-60583500D01*
X30159000Y-60629619D01*
X30096000Y-60646500D01*
X28597001Y-60646500D01*
X28597001Y-60863201D01*
X28599851Y-60893603D01*
X28644655Y-61021647D01*
X28725207Y-61130792D01*
X28834355Y-61211346D01*
X28959312Y-61255071D01*
X29016208Y-61295440D01*
X29042905Y-61359892D01*
X29031219Y-61428669D01*
X28984733Y-61480687D01*
X28917697Y-61500000D01*
X28227023Y-61500000D01*
X28169820Y-61486267D01*
X28125087Y-61448061D01*
X28102574Y-61393711D01*
X28107190Y-61335064D01*
X28137928Y-61284905D01*
X28138807Y-61284025D01*
X28179854Y-61196000D01*
X24144146Y-61196000D01*
X24185192Y-61284025D01*
X24186072Y-61284905D01*
X24216810Y-61335064D01*
X24221426Y-61393711D01*
X24198913Y-61448061D01*
X24154180Y-61486267D01*
X24096977Y-61500000D01*
X23989000Y-61500000D01*
X23926000Y-61483119D01*
X23879881Y-61437000D01*
X23863000Y-61374000D01*
X23863000Y-60696000D01*
X24144146Y-60696000D01*
X24388000Y-60696000D01*
X24888000Y-60696000D01*
X25404000Y-60696000D01*
X25904000Y-60696000D01*
X26420000Y-60696000D01*
X26920000Y-60696000D01*
X27436000Y-60696000D01*
X27436000Y-60471287D01*
X27936000Y-60471287D01*
X27936000Y-60696000D01*
X28179854Y-60696000D01*
X28138807Y-60607974D01*
X28054026Y-60523193D01*
X27945356Y-60472519D01*
X27936000Y-60471287D01*
X27436000Y-60471287D01*
X27426643Y-60472519D01*
X27317973Y-60523193D01*
X27267095Y-60574072D01*
X27210611Y-60606684D01*
X27145389Y-60606684D01*
X27088905Y-60574072D01*
X27038026Y-60523193D01*
X26929356Y-60472519D01*
X26920000Y-60471287D01*
X26920000Y-60696000D01*
X26420000Y-60696000D01*
X26420000Y-60471287D01*
X26410643Y-60472519D01*
X26301973Y-60523193D01*
X26251095Y-60574072D01*
X26194611Y-60606684D01*
X26129389Y-60606684D01*
X26072905Y-60574072D01*
X26022026Y-60523193D01*
X25913356Y-60472519D01*
X25904000Y-60471287D01*
X25904000Y-60696000D01*
X25404000Y-60696000D01*
X25404000Y-60471287D01*
X25394643Y-60472519D01*
X25285973Y-60523193D01*
X25235095Y-60574072D01*
X25178611Y-60606684D01*
X25113389Y-60606684D01*
X25056905Y-60574072D01*
X25006026Y-60523193D01*
X24897356Y-60472519D01*
X24888000Y-60471287D01*
X24888000Y-60696000D01*
X24388000Y-60696000D01*
X24388000Y-60471287D01*
X24378643Y-60472519D01*
X24269973Y-60523193D01*
X24185192Y-60607974D01*
X24144146Y-60696000D01*
X23863000Y-60696000D01*
X23863000Y-60654243D01*
X23861872Y-60646500D01*
X23853073Y-60586107D01*
X23801698Y-60481017D01*
X23801697Y-60481016D01*
X23801697Y-60481015D01*
X23718984Y-60398302D01*
X23613894Y-60346927D01*
X23596859Y-60344445D01*
X23545760Y-60337000D01*
X23179240Y-60337000D01*
X23138360Y-60342956D01*
X23111105Y-60346927D01*
X23006015Y-60398302D01*
X22976242Y-60428076D01*
X22919758Y-60460688D01*
X22854536Y-60460688D01*
X22798052Y-60428076D01*
X22768689Y-60398713D01*
X22663750Y-60347412D01*
X22662500Y-60347230D01*
X22662500Y-61324000D01*
X22645619Y-61387000D01*
X22599500Y-61433119D01*
X22536500Y-61450000D01*
X22288500Y-61450000D01*
X22225500Y-61433119D01*
X22179381Y-61387000D01*
X22162500Y-61324000D01*
X22162500Y-60347230D01*
X22161249Y-60347412D01*
X22056310Y-60398713D01*
X22026948Y-60428076D01*
X21970464Y-60460688D01*
X21905242Y-60460688D01*
X21848758Y-60428076D01*
X21818984Y-60398302D01*
X21713894Y-60346927D01*
X21696859Y-60344445D01*
X21645760Y-60337000D01*
X21279240Y-60337000D01*
X21238360Y-60342956D01*
X21211105Y-60346927D01*
X21106015Y-60398302D01*
X21023302Y-60481015D01*
X20971927Y-60586105D01*
X20971926Y-60586107D01*
X20971927Y-60586107D01*
X20965174Y-60632459D01*
X20962000Y-60654243D01*
X20962000Y-60810000D01*
X20945119Y-60873000D01*
X20899000Y-60919119D01*
X20836000Y-60936000D01*
X19688411Y-60936000D01*
X19663831Y-60933579D01*
X19649999Y-60930827D01*
X19623997Y-60936000D01*
X19623998Y-60936000D01*
X19546991Y-60951317D01*
X19459667Y-61009666D01*
X19451829Y-61021396D01*
X19436161Y-61040485D01*
X19013550Y-61463096D01*
X18972675Y-61490409D01*
X18924457Y-61500000D01*
X17626000Y-61500000D01*
X17563000Y-61483119D01*
X17516881Y-61437000D01*
X17500000Y-61374000D01*
X17500000Y-60782935D01*
X17517997Y-60718040D01*
X17566846Y-60671684D01*
X17632594Y-60657108D01*
X17696458Y-60678476D01*
X17740195Y-60729685D01*
X17796352Y-60850114D01*
X17879885Y-60933647D01*
X17986958Y-60983576D01*
X18010000Y-60986610D01*
X18010000Y-60770000D01*
X18510000Y-60770000D01*
X18510000Y-60986610D01*
X18533040Y-60983577D01*
X18640114Y-60933647D01*
X18723647Y-60850114D01*
X18761006Y-60770000D01*
X18510000Y-60770000D01*
X18010000Y-60770000D01*
X18010000Y-60396000D01*
X18026881Y-60333000D01*
X18073000Y-60286881D01*
X18136000Y-60270000D01*
X18761006Y-60270000D01*
X18723647Y-60189885D01*
X18633211Y-60099449D01*
X18600599Y-60042965D01*
X18600599Y-59977743D01*
X18633211Y-59921259D01*
X18724064Y-59830405D01*
X18724065Y-59830404D01*
X18774068Y-59723173D01*
X18780500Y-59674316D01*
X18780500Y-59626000D01*
X18797381Y-59563000D01*
X18843500Y-59516881D01*
X18906500Y-59500000D01*
X20874260Y-59500000D01*
X20940981Y-59519115D01*
X20987457Y-59570661D01*
X21023302Y-59643984D01*
X21106015Y-59726697D01*
X21106016Y-59726697D01*
X21106017Y-59726698D01*
X21211107Y-59778073D01*
X21279240Y-59788000D01*
X21645757Y-59788000D01*
X21645760Y-59788000D01*
X21713893Y-59778073D01*
X21818983Y-59726698D01*
X21901698Y-59643983D01*
X21933621Y-59578684D01*
X21937543Y-59570661D01*
X21984019Y-59519115D01*
X22050740Y-59500000D01*
X22774260Y-59500000D01*
X22840981Y-59519115D01*
X22887457Y-59570661D01*
X22923302Y-59643984D01*
X23006015Y-59726697D01*
X23006016Y-59726697D01*
X23006017Y-59726698D01*
X23111107Y-59778073D01*
X23179240Y-59788000D01*
X23545757Y-59788000D01*
X23545760Y-59788000D01*
X23613893Y-59778073D01*
X23718983Y-59726698D01*
X23801698Y-59643983D01*
X23833621Y-59578684D01*
X23837543Y-59570661D01*
X23884019Y-59519115D01*
X23950740Y-59500000D01*
X24011466Y-59500000D01*
X24069648Y-59514237D01*
X24114681Y-59553732D01*
X24124383Y-59578684D01*
X24126323Y-59577780D01*
X24185193Y-59704026D01*
X24269973Y-59788806D01*
X24378643Y-59839480D01*
X24388000Y-59840712D01*
X24388000Y-59616000D01*
X24888000Y-59616000D01*
X24888000Y-59840712D01*
X24897356Y-59839480D01*
X25006026Y-59788806D01*
X25056905Y-59737928D01*
X25113389Y-59705316D01*
X25178611Y-59705316D01*
X25235095Y-59737928D01*
X25285973Y-59788806D01*
X25394643Y-59839480D01*
X25404000Y-59840712D01*
X25404000Y-59616000D01*
X25904000Y-59616000D01*
X25904000Y-59840712D01*
X25913356Y-59839480D01*
X26022026Y-59788806D01*
X26072905Y-59737928D01*
X26129389Y-59705316D01*
X26194611Y-59705316D01*
X26251095Y-59737928D01*
X26301973Y-59788806D01*
X26410643Y-59839480D01*
X26420000Y-59840712D01*
X26420000Y-59616000D01*
X26920000Y-59616000D01*
X26920000Y-59840712D01*
X26929356Y-59839480D01*
X27038026Y-59788806D01*
X27122807Y-59704025D01*
X27163854Y-59616000D01*
X26920000Y-59616000D01*
X26420000Y-59616000D01*
X25904000Y-59616000D01*
X25404000Y-59616000D01*
X24888000Y-59616000D01*
X24388000Y-59616000D01*
X24388000Y-59500000D01*
X24500000Y-59500000D01*
X24884000Y-59116000D01*
X27163854Y-59116000D01*
X27122807Y-59027974D01*
X27070282Y-58975449D01*
X27037670Y-58918965D01*
X27037670Y-58853743D01*
X27070282Y-58797259D01*
X27138934Y-58728607D01*
X27141390Y-58731063D01*
X27162284Y-58707235D01*
X27229988Y-58687500D01*
X28000000Y-58687500D01*
X28000000Y-57626000D01*
X28016881Y-57563000D01*
X28063000Y-57516881D01*
X28126000Y-57500000D01*
X28874000Y-57500000D01*
X28937000Y-57516881D01*
G37*
%TD.AperFunction*%
%TA.AperFunction,Conductor*%
G36*
X28166445Y-61752330D02*
G01*
X28227023Y-61759500D01*
X28917696Y-61759500D01*
X28917697Y-61759500D01*
X28946329Y-61755457D01*
X28998301Y-61748121D01*
X28998411Y-61748904D01*
X29018982Y-61746000D01*
X30925016Y-61746000D01*
X30945586Y-61748904D01*
X30945697Y-61748121D01*
X30997668Y-61755457D01*
X31026301Y-61759500D01*
X31374000Y-61759500D01*
X31441164Y-61750658D01*
X31442526Y-61750292D01*
X31475136Y-61746000D01*
X33374000Y-61746000D01*
X33437000Y-61762881D01*
X33483119Y-61809000D01*
X33500000Y-61872000D01*
X33500000Y-64640000D01*
X33483119Y-64703000D01*
X33437000Y-64749119D01*
X33374000Y-64766000D01*
X25508000Y-64766000D01*
X25508000Y-66439810D01*
X25498409Y-66488028D01*
X25471095Y-66528905D01*
X24286905Y-67713095D01*
X24246028Y-67740409D01*
X24197810Y-67750000D01*
X19626000Y-67750000D01*
X19563000Y-67733119D01*
X19516881Y-67687000D01*
X19500000Y-67624000D01*
X19500000Y-66500000D01*
X19950000Y-66500000D01*
X19950000Y-66819697D01*
X19961604Y-66878036D01*
X20005807Y-66944192D01*
X20071963Y-66988395D01*
X20130303Y-67000000D01*
X21750000Y-67000000D01*
X21750000Y-66500000D01*
X22250000Y-66500000D01*
X22250000Y-67000000D01*
X23869697Y-67000000D01*
X23928036Y-66988395D01*
X23994192Y-66944192D01*
X24038395Y-66878036D01*
X24050000Y-66819697D01*
X24050000Y-66500000D01*
X22250000Y-66500000D01*
X21750000Y-66500000D01*
X19950000Y-66500000D01*
X19500000Y-66500000D01*
X19500000Y-66000000D01*
X19950000Y-66000000D01*
X21750000Y-66000000D01*
X21750000Y-65500000D01*
X22250000Y-65500000D01*
X22250000Y-66000000D01*
X24050000Y-66000000D01*
X24050000Y-65680303D01*
X24038395Y-65621963D01*
X23994192Y-65555807D01*
X23928036Y-65511604D01*
X23869697Y-65500000D01*
X22250000Y-65500000D01*
X21750000Y-65500000D01*
X20130303Y-65500000D01*
X20071963Y-65511604D01*
X20005807Y-65555807D01*
X19961604Y-65621963D01*
X19950000Y-65680303D01*
X19950000Y-66000000D01*
X19500000Y-66000000D01*
X19500000Y-64885500D01*
X19516881Y-64822500D01*
X19563000Y-64776381D01*
X19626000Y-64759500D01*
X23876000Y-64759500D01*
X23939975Y-64751077D01*
X23956418Y-64750000D01*
X24250000Y-64750000D01*
X24250000Y-64456418D01*
X24251078Y-64439972D01*
X24259500Y-64376000D01*
X24259500Y-64174000D01*
X24251078Y-64110028D01*
X24250000Y-64093582D01*
X24250000Y-63721500D01*
X28597001Y-63721500D01*
X28597001Y-63938201D01*
X28599851Y-63968603D01*
X28644655Y-64096647D01*
X28725207Y-64205792D01*
X28834355Y-64286346D01*
X28962391Y-64331148D01*
X28992800Y-64334000D01*
X29722000Y-64334000D01*
X29722000Y-63721500D01*
X30222000Y-63721500D01*
X30222000Y-64333999D01*
X30951201Y-64333999D01*
X30981603Y-64331148D01*
X31109647Y-64286344D01*
X31218792Y-64205792D01*
X31299346Y-64096644D01*
X31344148Y-63968608D01*
X31347000Y-63938200D01*
X31347000Y-63721500D01*
X30222000Y-63721500D01*
X29722000Y-63721500D01*
X28597001Y-63721500D01*
X24250000Y-63721500D01*
X24250000Y-63221500D01*
X28597000Y-63221500D01*
X29722000Y-63221500D01*
X29722000Y-62609001D01*
X28992799Y-62609001D01*
X28962396Y-62611851D01*
X28834352Y-62656655D01*
X28725207Y-62737207D01*
X28644653Y-62846355D01*
X28599851Y-62974391D01*
X28597000Y-63004800D01*
X28597000Y-63221500D01*
X24250000Y-63221500D01*
X24250000Y-62609000D01*
X30222000Y-62609000D01*
X30222000Y-63221500D01*
X31346999Y-63221500D01*
X31346999Y-63004799D01*
X31344148Y-62974396D01*
X31299344Y-62846352D01*
X31218792Y-62737207D01*
X31109644Y-62656653D01*
X30981608Y-62611851D01*
X30951200Y-62609000D01*
X30222000Y-62609000D01*
X24250000Y-62609000D01*
X24250000Y-62506221D01*
X24269733Y-62438521D01*
X24322751Y-62392026D01*
X24386243Y-62382253D01*
X24388000Y-62380713D01*
X24388000Y-62156000D01*
X24888000Y-62156000D01*
X24888000Y-62380712D01*
X24897356Y-62379480D01*
X25006026Y-62328806D01*
X25056905Y-62277928D01*
X25113389Y-62245316D01*
X25178611Y-62245316D01*
X25235095Y-62277928D01*
X25285973Y-62328806D01*
X25394643Y-62379480D01*
X25404000Y-62380712D01*
X25404000Y-62156000D01*
X25904000Y-62156000D01*
X25904000Y-62380712D01*
X25913356Y-62379480D01*
X26022026Y-62328806D01*
X26072905Y-62277928D01*
X26129389Y-62245316D01*
X26194611Y-62245316D01*
X26251095Y-62277928D01*
X26301973Y-62328806D01*
X26410643Y-62379480D01*
X26420000Y-62380713D01*
X26420000Y-62156000D01*
X26920000Y-62156000D01*
X26920000Y-62380712D01*
X26929356Y-62379480D01*
X27038026Y-62328806D01*
X27088905Y-62277928D01*
X27145389Y-62245316D01*
X27210611Y-62245316D01*
X27267095Y-62277928D01*
X27317973Y-62328806D01*
X27426643Y-62379480D01*
X27436000Y-62380713D01*
X27436000Y-62156000D01*
X27936000Y-62156000D01*
X27936000Y-62380713D01*
X27945356Y-62379480D01*
X28054026Y-62328806D01*
X28138807Y-62244025D01*
X28179854Y-62156000D01*
X27936000Y-62156000D01*
X27436000Y-62156000D01*
X26920000Y-62156000D01*
X26420000Y-62156000D01*
X25904000Y-62156000D01*
X25404000Y-62156000D01*
X24888000Y-62156000D01*
X24388000Y-62156000D01*
X24388000Y-61782000D01*
X24397646Y-61746000D01*
X28140078Y-61746000D01*
X28166445Y-61752330D01*
G37*
%TD.AperFunction*%
%TA.AperFunction,Conductor*%
G36*
X9961900Y-22266066D02*
G01*
X10007767Y-22310165D01*
X10026237Y-22371053D01*
X10012601Y-22433203D01*
X10000613Y-22456730D01*
X9993760Y-22500000D01*
X10644000Y-22500000D01*
X10707000Y-22516881D01*
X10753119Y-22563000D01*
X10770000Y-22626000D01*
X10770000Y-24270123D01*
X10762054Y-24314160D01*
X10755172Y-24332609D01*
X10751733Y-24340912D01*
X10730957Y-24386405D01*
X10730281Y-24391110D01*
X10723624Y-24417194D01*
X10721960Y-24421654D01*
X10718391Y-24471548D01*
X10717431Y-24480477D01*
X10715500Y-24493915D01*
X10715500Y-24507484D01*
X10715179Y-24516472D01*
X10711611Y-24566360D01*
X10712621Y-24571003D01*
X10715500Y-24597784D01*
X10715500Y-24772191D01*
X10702172Y-24828591D01*
X10665009Y-24873059D01*
X10652455Y-24882456D01*
X10569825Y-24992836D01*
X10521640Y-25122027D01*
X10515500Y-25179137D01*
X10515500Y-26020863D01*
X10521640Y-26077972D01*
X10569825Y-26207163D01*
X10652455Y-26317544D01*
X10721131Y-26368954D01*
X10762837Y-26400175D01*
X10892027Y-26448360D01*
X10910951Y-26450394D01*
X10951860Y-26462011D01*
X10986576Y-26486577D01*
X10999999Y-26500000D01*
X11000000Y-26500000D01*
X11930000Y-26500000D01*
X11930000Y-26474476D01*
X11946065Y-26412910D01*
X11990165Y-26367044D01*
X12051053Y-26348573D01*
X12113202Y-26362209D01*
X12156728Y-26384386D01*
X12200000Y-26391239D01*
X12200000Y-25741000D01*
X12216881Y-25678000D01*
X12263000Y-25631881D01*
X12326000Y-25615000D01*
X12574000Y-25615000D01*
X12637000Y-25631881D01*
X12683119Y-25678000D01*
X12700000Y-25741000D01*
X12700000Y-26391239D01*
X12743270Y-26384386D01*
X12746799Y-26382589D01*
X12808948Y-26368954D01*
X12869836Y-26387425D01*
X12913935Y-26433291D01*
X12930000Y-26494857D01*
X12930000Y-28119000D01*
X12913119Y-28182000D01*
X12867000Y-28228119D01*
X12804000Y-28245000D01*
X11500000Y-28245000D01*
X11500000Y-29114500D01*
X11483119Y-29177500D01*
X11437000Y-29223619D01*
X11374000Y-29240500D01*
X11180499Y-29240500D01*
X11117499Y-29223619D01*
X11071380Y-29177500D01*
X11056939Y-29123609D01*
X11056050Y-29123750D01*
X11054709Y-29115285D01*
X11054499Y-29114500D01*
X11054499Y-29113957D01*
X11051801Y-29096923D01*
X11039868Y-29021573D01*
X10983135Y-28910229D01*
X10983134Y-28910228D01*
X10983133Y-28910226D01*
X10966649Y-28893742D01*
X10934037Y-28837258D01*
X10934037Y-28772036D01*
X10966649Y-28715552D01*
X10982725Y-28699475D01*
X11039387Y-28588269D01*
X11041488Y-28575000D01*
X9938511Y-28575000D01*
X9940612Y-28588269D01*
X9997274Y-28699475D01*
X10013351Y-28715552D01*
X10045963Y-28772036D01*
X10045963Y-28837258D01*
X10013351Y-28893742D01*
X9996866Y-28910226D01*
X9976855Y-28949500D01*
X9951303Y-28999650D01*
X9947709Y-29006703D01*
X9901277Y-29056933D01*
X9835442Y-29075500D01*
X9567106Y-29075500D01*
X9501271Y-29056933D01*
X9454839Y-29006703D01*
X9423914Y-28946010D01*
X9403135Y-28905229D01*
X9403134Y-28905228D01*
X9403133Y-28905226D01*
X9386649Y-28888742D01*
X9354037Y-28832258D01*
X9354037Y-28767036D01*
X9386649Y-28710552D01*
X9402725Y-28694475D01*
X9459387Y-28583269D01*
X9461488Y-28570000D01*
X8358509Y-28570000D01*
X8350680Y-28579167D01*
X8325347Y-28597194D01*
X8357175Y-28609293D01*
X8397396Y-28655461D01*
X8417274Y-28694475D01*
X8433351Y-28710552D01*
X8465963Y-28767036D01*
X8465963Y-28832258D01*
X8433351Y-28888742D01*
X8416866Y-28905226D01*
X8360132Y-29016572D01*
X8357418Y-29033710D01*
X8334906Y-29088060D01*
X8290172Y-29126267D01*
X8232969Y-29140000D01*
X7506000Y-29140000D01*
X7443000Y-29123119D01*
X7396881Y-29077000D01*
X7380000Y-29014000D01*
X7380000Y-28363760D01*
X7880000Y-28363760D01*
X7880000Y-28640000D01*
X8181489Y-28640000D01*
X8189317Y-28630834D01*
X8214651Y-28612804D01*
X8182823Y-28600706D01*
X8142602Y-28554537D01*
X8122724Y-28515523D01*
X8034475Y-28427274D01*
X7923271Y-28370613D01*
X7880000Y-28363760D01*
X7380000Y-28363760D01*
X7373108Y-28357874D01*
X7351299Y-28356588D01*
X7303670Y-28331130D01*
X7271074Y-28288070D01*
X7259500Y-28235319D01*
X7259500Y-28133500D01*
X7257591Y-28119000D01*
X7251798Y-28074999D01*
X9938511Y-28074999D01*
X9938512Y-28075000D01*
X10240000Y-28075000D01*
X10240000Y-27798760D01*
X10740000Y-27798760D01*
X10740000Y-28075000D01*
X11041488Y-28075000D01*
X11041488Y-28074999D01*
X11039387Y-28061730D01*
X10982725Y-27950524D01*
X10894475Y-27862274D01*
X10783271Y-27805613D01*
X10740000Y-27798760D01*
X10240000Y-27798760D01*
X10196728Y-27805613D01*
X10085524Y-27862274D01*
X9997274Y-27950524D01*
X9940612Y-28061730D01*
X9938511Y-28074999D01*
X7251798Y-28074999D01*
X7251140Y-28069999D01*
X8358511Y-28069999D01*
X8358512Y-28070000D01*
X8660000Y-28070000D01*
X8660000Y-27793760D01*
X9160000Y-27793760D01*
X9160000Y-28070000D01*
X9461488Y-28070000D01*
X9461488Y-28069999D01*
X9459387Y-28056730D01*
X9402725Y-27945524D01*
X9314475Y-27857274D01*
X9203271Y-27800613D01*
X9160000Y-27793760D01*
X8660000Y-27793760D01*
X8616728Y-27800613D01*
X8505524Y-27857274D01*
X8417274Y-27945524D01*
X8360612Y-28056730D01*
X8358511Y-28069999D01*
X7251140Y-28069999D01*
X7250658Y-28066336D01*
X7234045Y-28004336D01*
X7208120Y-27941750D01*
X7208117Y-27941746D01*
X7202411Y-27927971D01*
X7192819Y-27879750D01*
X7202411Y-27831529D01*
X7208117Y-27817753D01*
X7208120Y-27817750D01*
X7234045Y-27755164D01*
X7250658Y-27693164D01*
X7259500Y-27626000D01*
X7259500Y-27372206D01*
X7250100Y-27302993D01*
X7232458Y-27239244D01*
X7204938Y-27175046D01*
X7186171Y-27151598D01*
X7161293Y-27120513D01*
X7113388Y-27074905D01*
X7052190Y-27030671D01*
X7013804Y-26985894D01*
X7000000Y-26928553D01*
X7000000Y-26634726D01*
X7014439Y-26576158D01*
X7054448Y-26531014D01*
X7110855Y-26509639D01*
X7112003Y-26509500D01*
X7112011Y-26509500D01*
X7173938Y-26502002D01*
X7173943Y-26502000D01*
X7181482Y-26501088D01*
X7181581Y-26501908D01*
X7197339Y-26500000D01*
X8500000Y-26500000D01*
X8500000Y-26342842D01*
X8506448Y-26303051D01*
X8525132Y-26267333D01*
X8530799Y-26259762D01*
X8570175Y-26207163D01*
X8618360Y-26077973D01*
X8624500Y-26020864D01*
X8624500Y-25359486D01*
X8635272Y-25308511D01*
X8665745Y-25266252D01*
X8710710Y-25239934D01*
X8716794Y-25237909D01*
X8774987Y-25218541D01*
X8833335Y-25190626D01*
X8882966Y-25149148D01*
X8924759Y-25104259D01*
X8962590Y-25051796D01*
X8986271Y-24991608D01*
X9001439Y-24932181D01*
X9009500Y-24868004D01*
X9009500Y-24624000D01*
X9000658Y-24556836D01*
X8984045Y-24494836D01*
X8958120Y-24432250D01*
X8916881Y-24378506D01*
X8916878Y-24378502D01*
X8871497Y-24333121D01*
X8817750Y-24291880D01*
X8755165Y-24265955D01*
X8693161Y-24249341D01*
X8626000Y-24240500D01*
X7725594Y-24240500D01*
X7666681Y-24247275D01*
X7611859Y-24260054D01*
X7556018Y-24280028D01*
X7546986Y-24285850D01*
X7506177Y-24312154D01*
X7473409Y-24339036D01*
X7414191Y-24365909D01*
X7349461Y-24359675D01*
X7337399Y-24355175D01*
X7329095Y-24351736D01*
X7283595Y-24330957D01*
X7278895Y-24330282D01*
X7252795Y-24323621D01*
X7231370Y-24315630D01*
X7231754Y-24314597D01*
X7197374Y-24303289D01*
X7155025Y-24258763D01*
X7138771Y-24199502D01*
X7146394Y-24166189D01*
X7145894Y-24166110D01*
X7153197Y-24120000D01*
X6123500Y-24120000D01*
X6060500Y-24103119D01*
X6014381Y-24057000D01*
X6000000Y-24003330D01*
X6000000Y-24000000D01*
X9993760Y-24000000D01*
X10000613Y-24043271D01*
X10057274Y-24154475D01*
X10145524Y-24242725D01*
X10256730Y-24299387D01*
X10269999Y-24301488D01*
X10270000Y-24301488D01*
X10270000Y-24000000D01*
X9993760Y-24000000D01*
X6000000Y-24000000D01*
X6000000Y-23736670D01*
X6014381Y-23683000D01*
X6060500Y-23636881D01*
X6123500Y-23620000D01*
X7153196Y-23620000D01*
X7149015Y-23593601D01*
X7081857Y-23461794D01*
X7082517Y-23461457D01*
X7063179Y-23427962D01*
X7063180Y-23362738D01*
X7082792Y-23328772D01*
X7082266Y-23328504D01*
X7138882Y-23217389D01*
X7149498Y-23196555D01*
X7164500Y-23101834D01*
X7164500Y-23000000D01*
X9993760Y-23000000D01*
X10000613Y-23043271D01*
X10057274Y-23154475D01*
X10063704Y-23160905D01*
X10096316Y-23217389D01*
X10096316Y-23282611D01*
X10063704Y-23339095D01*
X10057274Y-23345524D01*
X10000613Y-23456728D01*
X9993760Y-23500000D01*
X10270000Y-23500000D01*
X10270000Y-23000000D01*
X9993760Y-23000000D01*
X7164500Y-23000000D01*
X7164500Y-22738166D01*
X7149498Y-22643445D01*
X7091326Y-22529277D01*
X7091325Y-22529276D01*
X7091324Y-22529274D01*
X7027145Y-22465095D01*
X6996407Y-22414936D01*
X6991791Y-22356289D01*
X7014304Y-22301939D01*
X7059037Y-22263733D01*
X7116240Y-22250000D01*
X9900334Y-22250000D01*
X9961900Y-22266066D01*
G37*
%TD.AperFunction*%
%TA.AperFunction,Conductor*%
G36*
X2864392Y-28001061D02*
G01*
X2928497Y-28009500D01*
X6876000Y-28009500D01*
X6938000Y-28026113D01*
X6983387Y-28071500D01*
X7000000Y-28133500D01*
X7000000Y-28607794D01*
X6982358Y-28671543D01*
X6934453Y-28717152D01*
X6869916Y-28731645D01*
X6807110Y-28710896D01*
X6797545Y-28704505D01*
X6724625Y-28690000D01*
X5100000Y-28690000D01*
X5100000Y-30290000D01*
X6724625Y-30290000D01*
X6797543Y-30275495D01*
X6880240Y-30220239D01*
X6909853Y-30175919D01*
X6957747Y-30133777D01*
X7020254Y-30121023D01*
X7080830Y-30141033D01*
X7123440Y-30188512D01*
X7140550Y-30222092D01*
X7227906Y-30309448D01*
X7337981Y-30365535D01*
X7380000Y-30372190D01*
X7380000Y-30100000D01*
X7880000Y-30100000D01*
X7880000Y-30372190D01*
X7922018Y-30365535D01*
X8032093Y-30309448D01*
X8119448Y-30222093D01*
X8175534Y-30112020D01*
X8177438Y-30100000D01*
X7880000Y-30100000D01*
X7380000Y-30100000D01*
X7380000Y-29724000D01*
X7396613Y-29662000D01*
X7442000Y-29616613D01*
X7504000Y-29600000D01*
X8177438Y-29600000D01*
X8192563Y-29582292D01*
X8241658Y-29547355D01*
X8301426Y-29539686D01*
X8357753Y-29561096D01*
X8397335Y-29606530D01*
X8420551Y-29652093D01*
X8507906Y-29739448D01*
X8617981Y-29795535D01*
X8660000Y-29802190D01*
X8660000Y-29500000D01*
X9160000Y-29500000D01*
X9160000Y-29802190D01*
X9202018Y-29795535D01*
X9312093Y-29739448D01*
X9399448Y-29652093D01*
X9442448Y-29567704D01*
X9488143Y-29518272D01*
X9552932Y-29500000D01*
X9844521Y-29500000D01*
X9909311Y-29518273D01*
X9955006Y-29567705D01*
X10000552Y-29657094D01*
X10087906Y-29744448D01*
X10197981Y-29800535D01*
X10240000Y-29807190D01*
X10240000Y-29500000D01*
X10740000Y-29500000D01*
X10740000Y-29807190D01*
X10782018Y-29800535D01*
X10892093Y-29744448D01*
X10979447Y-29657094D01*
X11024994Y-29567705D01*
X11070689Y-29518273D01*
X11135479Y-29500000D01*
X11376000Y-29500000D01*
X11438000Y-29516613D01*
X11483387Y-29562000D01*
X11500000Y-29624000D01*
X11500000Y-31126000D01*
X11483387Y-31188000D01*
X11438000Y-31233387D01*
X11376000Y-31250000D01*
X5836419Y-31250000D01*
X5780538Y-31236694D01*
X5736649Y-31199633D01*
X5700011Y-31149990D01*
X5589773Y-31068631D01*
X5460448Y-31023378D01*
X5429752Y-31020500D01*
X4770253Y-31020500D01*
X4739550Y-31023378D01*
X4610225Y-31068631D01*
X4499988Y-31149990D01*
X4463351Y-31199633D01*
X4419462Y-31236694D01*
X4363581Y-31250000D01*
X4236419Y-31250000D01*
X4180538Y-31236694D01*
X4136649Y-31199633D01*
X4100011Y-31149990D01*
X3989773Y-31068631D01*
X3860448Y-31023378D01*
X3829752Y-31020500D01*
X3170253Y-31020500D01*
X3139550Y-31023378D01*
X3010225Y-31068631D01*
X2944441Y-31117183D01*
X2885842Y-31140498D01*
X2823355Y-31131974D01*
X2769754Y-31109772D01*
X2608815Y-31088584D01*
X2609421Y-31083978D01*
X2571621Y-31078171D01*
X2519427Y-31032414D01*
X2500000Y-30965777D01*
X2500000Y-29740000D01*
X2750000Y-29740000D01*
X2750000Y-30064625D01*
X2764504Y-30137543D01*
X2819760Y-30220239D01*
X2902456Y-30275495D01*
X2975375Y-30290000D01*
X4600000Y-30290000D01*
X4600000Y-29740000D01*
X2750000Y-29740000D01*
X2500000Y-29740000D01*
X2500000Y-29240000D01*
X2750000Y-29240000D01*
X4600000Y-29240000D01*
X4600000Y-28690000D01*
X2975375Y-28690000D01*
X2902456Y-28704504D01*
X2819760Y-28759760D01*
X2764504Y-28842456D01*
X2750000Y-28915375D01*
X2750000Y-29240000D01*
X2500000Y-29240000D01*
X2500000Y-28124000D01*
X2516613Y-28062000D01*
X2562000Y-28016613D01*
X2624000Y-28000000D01*
X2848208Y-28000000D01*
X2864392Y-28001061D01*
G37*
%TD.AperFunction*%
%TA.AperFunction,Conductor*%
G36*
X24437000Y-51016881D02*
G01*
X24483119Y-51063000D01*
X24500000Y-51126000D01*
X24500000Y-54000000D01*
X25557980Y-54000000D01*
X25606197Y-54009591D01*
X25647074Y-54036903D01*
X25674386Y-54077777D01*
X25677645Y-54085643D01*
X25766526Y-54201474D01*
X25825725Y-54246899D01*
X25882358Y-54290356D01*
X25986946Y-54333677D01*
X26009446Y-54346489D01*
X26011730Y-54347341D01*
X26011733Y-54347343D01*
X26058615Y-54364828D01*
X26066906Y-54368264D01*
X26112401Y-54389041D01*
X26112402Y-54389041D01*
X26112404Y-54389042D01*
X26117099Y-54389716D01*
X26143207Y-54396379D01*
X26147658Y-54398040D01*
X26197554Y-54401608D01*
X26206484Y-54402569D01*
X26219914Y-54404500D01*
X26219917Y-54404500D01*
X26233484Y-54404500D01*
X26242470Y-54404820D01*
X26292360Y-54408389D01*
X26297003Y-54407378D01*
X26323784Y-54404500D01*
X26517283Y-54404500D01*
X26574486Y-54418233D01*
X26636573Y-54449868D01*
X26684211Y-54457413D01*
X26738561Y-54479926D01*
X26776767Y-54524659D01*
X26790500Y-54581862D01*
X26790500Y-54668464D01*
X26771697Y-54734681D01*
X26720901Y-54781136D01*
X26653272Y-54793963D01*
X26611541Y-54777973D01*
X26610998Y-54779432D01*
X26458232Y-54722453D01*
X26398211Y-54716000D01*
X26275000Y-54716000D01*
X26275000Y-56623999D01*
X26398213Y-56623999D01*
X26458235Y-56617547D01*
X26594023Y-56566900D01*
X26710047Y-56480047D01*
X26773131Y-56395776D01*
X26821657Y-56356671D01*
X26882988Y-56345605D01*
X26942120Y-56365286D01*
X26984587Y-56410898D01*
X27000000Y-56471284D01*
X27000000Y-56500000D01*
X27373838Y-56500000D01*
X27413801Y-56506505D01*
X27449634Y-56525347D01*
X27449765Y-56525445D01*
X27449799Y-56525471D01*
X27486753Y-56569884D01*
X27500000Y-56626122D01*
X27500000Y-58061500D01*
X27483119Y-58124501D01*
X27436999Y-58170620D01*
X27373998Y-58187499D01*
X27370572Y-58187499D01*
X27319408Y-58187499D01*
X27253574Y-58168931D01*
X27207143Y-58118701D01*
X27162725Y-58031524D01*
X27074475Y-57943274D01*
X26963271Y-57886613D01*
X26920000Y-57879760D01*
X26920000Y-58187500D01*
X25437500Y-58187499D01*
X25124999Y-58500000D01*
X24500000Y-58500000D01*
X24405940Y-58594059D01*
X24404881Y-58593000D01*
X24388000Y-58530000D01*
X24388000Y-58156000D01*
X24888000Y-58156000D01*
X25404000Y-58156000D01*
X25904000Y-58156000D01*
X26420000Y-58156000D01*
X26420000Y-57879760D01*
X26376728Y-57886613D01*
X26265524Y-57943274D01*
X26251095Y-57957704D01*
X26194611Y-57990316D01*
X26129389Y-57990316D01*
X26072905Y-57957704D01*
X26058475Y-57943274D01*
X25947271Y-57886613D01*
X25904000Y-57879760D01*
X25904000Y-58156000D01*
X25404000Y-58156000D01*
X25404000Y-57879760D01*
X25360728Y-57886613D01*
X25249524Y-57943274D01*
X25235095Y-57957704D01*
X25178611Y-57990316D01*
X25113389Y-57990316D01*
X25056905Y-57957704D01*
X25042475Y-57943274D01*
X24931271Y-57886613D01*
X24888000Y-57879760D01*
X24888000Y-58156000D01*
X24388000Y-58156000D01*
X24388000Y-57879760D01*
X24344728Y-57886613D01*
X24233524Y-57943274D01*
X24145274Y-58031524D01*
X24088611Y-58142731D01*
X24087585Y-58149214D01*
X24062695Y-58206729D01*
X24013175Y-58245138D01*
X23951278Y-58254941D01*
X23892313Y-58233711D01*
X23850870Y-58186702D01*
X23843416Y-58172073D01*
X23752927Y-58081584D01*
X23638898Y-58023484D01*
X23612500Y-58019303D01*
X23612500Y-59000000D01*
X22143000Y-59000000D01*
X22080000Y-58983119D01*
X22033881Y-58937000D01*
X22017000Y-58874000D01*
X22017000Y-58675000D01*
X22808500Y-58675000D01*
X23112500Y-58675000D01*
X23112500Y-58019303D01*
X23086101Y-58023484D01*
X22972072Y-58081584D01*
X22881584Y-58172072D01*
X22823484Y-58286100D01*
X22808500Y-58380706D01*
X22808500Y-58675000D01*
X22017000Y-58675000D01*
X22017000Y-58380667D01*
X22001551Y-58283122D01*
X22000000Y-58263412D01*
X22000000Y-56500000D01*
X22296001Y-56500000D01*
X22296001Y-57223213D01*
X22302452Y-57283235D01*
X22353099Y-57419023D01*
X22439952Y-57535047D01*
X22555973Y-57621898D01*
X22691767Y-57672546D01*
X22751789Y-57679000D01*
X22962500Y-57679000D01*
X22962500Y-56500000D01*
X23462500Y-56500000D01*
X23462500Y-57678999D01*
X23673213Y-57678999D01*
X23733235Y-57672547D01*
X23869023Y-57621900D01*
X23985047Y-57535047D01*
X24071898Y-57419026D01*
X24122546Y-57283232D01*
X24129000Y-57223211D01*
X24129000Y-56500000D01*
X23462500Y-56500000D01*
X22962500Y-56500000D01*
X22296001Y-56500000D01*
X22000000Y-56500000D01*
X22000000Y-56000000D01*
X22296000Y-56000000D01*
X22962500Y-56000000D01*
X22962500Y-54821001D01*
X22751787Y-54821001D01*
X22691764Y-54827452D01*
X22555976Y-54878099D01*
X22439952Y-54964952D01*
X22353101Y-55080973D01*
X22302453Y-55216767D01*
X22296000Y-55276789D01*
X22296000Y-56000000D01*
X22000000Y-56000000D01*
X22000000Y-54821000D01*
X23462500Y-54821000D01*
X23462500Y-56000000D01*
X24128999Y-56000000D01*
X24128999Y-55920000D01*
X25196001Y-55920000D01*
X25196001Y-56168213D01*
X25202452Y-56228235D01*
X25253099Y-56364023D01*
X25339952Y-56480047D01*
X25455973Y-56566898D01*
X25591767Y-56617546D01*
X25651789Y-56624000D01*
X25775000Y-56624000D01*
X25775000Y-55920000D01*
X25196001Y-55920000D01*
X24128999Y-55920000D01*
X24128999Y-55420000D01*
X25196000Y-55420000D01*
X25775000Y-55420000D01*
X25775000Y-54716001D01*
X25651787Y-54716001D01*
X25591764Y-54722452D01*
X25455976Y-54773099D01*
X25339952Y-54859952D01*
X25253101Y-54975973D01*
X25202453Y-55111767D01*
X25196000Y-55171789D01*
X25196000Y-55420000D01*
X24128999Y-55420000D01*
X24128999Y-55276787D01*
X24122547Y-55216764D01*
X24071900Y-55080976D01*
X23985047Y-54964952D01*
X23869026Y-54878101D01*
X23733232Y-54827453D01*
X23673211Y-54821000D01*
X23462500Y-54821000D01*
X22000000Y-54821000D01*
X22000000Y-53125001D01*
X22296001Y-53125001D01*
X22296001Y-53848214D01*
X22302452Y-53908236D01*
X22353099Y-54044024D01*
X22439952Y-54160048D01*
X22555973Y-54246899D01*
X22691767Y-54297547D01*
X22751789Y-54304001D01*
X22962500Y-54304001D01*
X22962500Y-53125001D01*
X23462500Y-53125001D01*
X23462500Y-54304000D01*
X23673213Y-54304000D01*
X23733235Y-54297548D01*
X23869023Y-54246901D01*
X23985047Y-54160048D01*
X24071898Y-54044027D01*
X24122546Y-53908233D01*
X24129000Y-53848212D01*
X24129000Y-53125001D01*
X23462500Y-53125001D01*
X22962500Y-53125001D01*
X22296001Y-53125001D01*
X22000000Y-53125001D01*
X22000000Y-52625001D01*
X22296000Y-52625001D01*
X22962500Y-52625001D01*
X22962500Y-51446002D01*
X22751787Y-51446002D01*
X22691764Y-51452453D01*
X22555976Y-51503100D01*
X22439952Y-51589953D01*
X22353101Y-51705974D01*
X22302453Y-51841768D01*
X22296000Y-51901790D01*
X22296000Y-52625001D01*
X22000000Y-52625001D01*
X22000000Y-51446001D01*
X23462500Y-51446001D01*
X23462500Y-52625001D01*
X24128999Y-52625001D01*
X24128999Y-51901788D01*
X24122547Y-51841765D01*
X24071900Y-51705977D01*
X23985047Y-51589953D01*
X23869026Y-51503102D01*
X23733232Y-51452454D01*
X23673211Y-51446001D01*
X23462500Y-51446001D01*
X22000000Y-51446001D01*
X22000000Y-51126000D01*
X22016881Y-51063000D01*
X22063000Y-51016881D01*
X22126000Y-51000000D01*
X24374000Y-51000000D01*
X24437000Y-51016881D01*
G37*
%TD.AperFunction*%
%TA.AperFunction,Conductor*%
G36*
X8688000Y-24516613D02*
G01*
X8733387Y-24562000D01*
X8750000Y-24624000D01*
X8750000Y-24868004D01*
X8734832Y-24927431D01*
X8693039Y-24972320D01*
X8634846Y-24991688D01*
X8574488Y-24980798D01*
X8526732Y-24942314D01*
X8484327Y-24885667D01*
X8374986Y-24803816D01*
X8247007Y-24756082D01*
X8190433Y-24750000D01*
X8170000Y-24750000D01*
X8170000Y-25726000D01*
X8153387Y-25788000D01*
X8108000Y-25833387D01*
X8046000Y-25850000D01*
X7220001Y-25850000D01*
X7220001Y-26020433D01*
X7226082Y-26077006D01*
X7228193Y-26082666D01*
X7235044Y-26141453D01*
X7213867Y-26196720D01*
X7169486Y-26235876D01*
X7112011Y-26250000D01*
X7074000Y-26250000D01*
X7012000Y-26233387D01*
X6966613Y-26188000D01*
X6950000Y-26126000D01*
X6950000Y-25915375D01*
X6935495Y-25842456D01*
X6880239Y-25759760D01*
X6797543Y-25704504D01*
X6724625Y-25690000D01*
X5100000Y-25690000D01*
X5100000Y-27290000D01*
X6724625Y-27290000D01*
X6797545Y-27275494D01*
X6807110Y-27269104D01*
X6869916Y-27248355D01*
X6934453Y-27262848D01*
X6982358Y-27308457D01*
X7000000Y-27372206D01*
X7000000Y-27626000D01*
X6983387Y-27688000D01*
X6938000Y-27733387D01*
X6876000Y-27750000D01*
X2928500Y-27750000D01*
X2866500Y-27733387D01*
X2821113Y-27688000D01*
X2804500Y-27626000D01*
X2804500Y-27407105D01*
X2816405Y-27354088D01*
X2849835Y-27311252D01*
X2898371Y-27286821D01*
X2952692Y-27285488D01*
X2975375Y-27290000D01*
X4600000Y-27290000D01*
X4600000Y-25690000D01*
X2975375Y-25690000D01*
X2952692Y-25694512D01*
X2898371Y-25693179D01*
X2849835Y-25668748D01*
X2816405Y-25625912D01*
X2804500Y-25572895D01*
X2804500Y-25448500D01*
X2821113Y-25386500D01*
X2866500Y-25341113D01*
X2928500Y-25324500D01*
X3234988Y-25324500D01*
X3291282Y-25338014D01*
X3333445Y-25359498D01*
X3365018Y-25364498D01*
X3428164Y-25374500D01*
X3428166Y-25374500D01*
X4516834Y-25374500D01*
X4516836Y-25374500D01*
X4611556Y-25359498D01*
X4691519Y-25318754D01*
X4725723Y-25301326D01*
X4740730Y-25286319D01*
X4780958Y-25259439D01*
X4828411Y-25250000D01*
X5000000Y-25250000D01*
X5000000Y-25070000D01*
X5345852Y-25070000D01*
X5349834Y-25095146D01*
X5407359Y-25208046D01*
X5496953Y-25297640D01*
X5609853Y-25355165D01*
X5703516Y-25370000D01*
X5997500Y-25370000D01*
X5997500Y-25070000D01*
X5345852Y-25070000D01*
X5000000Y-25070000D01*
X5000000Y-24801362D01*
X5009439Y-24753909D01*
X5036315Y-24713684D01*
X5174602Y-24575397D01*
X5233333Y-24542507D01*
X5300598Y-24545150D01*
X5337789Y-24570000D01*
X6373500Y-24570000D01*
X6435500Y-24586613D01*
X6480887Y-24632000D01*
X6497500Y-24694000D01*
X6497500Y-25369999D01*
X6791478Y-25369999D01*
X6885149Y-25355163D01*
X6998045Y-25297641D01*
X7008319Y-25287368D01*
X7057682Y-25257118D01*
X7115398Y-25252576D01*
X7168885Y-25274731D01*
X7206485Y-25318754D01*
X7212086Y-25342086D01*
X7220000Y-25350000D01*
X7670000Y-25350000D01*
X7670000Y-24750001D01*
X7635206Y-24715207D01*
X7604623Y-24664804D01*
X7600774Y-24605973D01*
X7624530Y-24552015D01*
X7627237Y-24548489D01*
X7670764Y-24512781D01*
X7725594Y-24500000D01*
X8626000Y-24500000D01*
X8688000Y-24516613D01*
G37*
%TD.AperFunction*%
%TA.AperFunction,Conductor*%
G36*
X11187000Y-39534881D02*
G01*
X11233119Y-39581000D01*
X11250000Y-39644000D01*
X11250000Y-41000000D01*
X11713097Y-41463097D01*
X11740409Y-41503972D01*
X11750000Y-41552190D01*
X11750000Y-42124000D01*
X11733119Y-42187000D01*
X11687000Y-42233119D01*
X11624000Y-42250000D01*
X10860678Y-42250000D01*
X10807927Y-42238426D01*
X10790191Y-42225000D01*
X10131000Y-42225000D01*
X10088653Y-42213653D01*
X10016346Y-42141346D01*
X10005000Y-42099000D01*
X10005000Y-41423512D01*
X10004999Y-41423511D01*
X10505000Y-41423511D01*
X10505000Y-41725000D01*
X10781239Y-41725000D01*
X10774386Y-41681728D01*
X10717725Y-41570524D01*
X10629475Y-41482274D01*
X10518269Y-41425612D01*
X10505000Y-41423511D01*
X10004999Y-41423511D01*
X9991730Y-41425612D01*
X9880524Y-41482274D01*
X9864448Y-41498351D01*
X9807964Y-41530963D01*
X9742742Y-41530963D01*
X9686258Y-41498351D01*
X9669773Y-41481866D01*
X9558427Y-41425132D01*
X9548192Y-41423511D01*
X9466045Y-41410500D01*
X9466044Y-41410500D01*
X9456251Y-41408949D01*
X9456659Y-41406368D01*
X9409926Y-41393998D01*
X9363916Y-41348814D01*
X9350559Y-41301815D01*
X9347564Y-41302250D01*
X9346438Y-41294485D01*
X9337537Y-41233096D01*
X9320469Y-41171026D01*
X9302051Y-41126561D01*
X9278068Y-41081693D01*
X9271233Y-41071464D01*
X9255426Y-41038043D01*
X9250000Y-41001466D01*
X9250000Y-40452428D01*
X9267547Y-40388289D01*
X9315299Y-40342013D01*
X9379958Y-40326490D01*
X9443514Y-40346043D01*
X9488267Y-40395225D01*
X9526584Y-40470427D01*
X9617072Y-40560915D01*
X9731101Y-40619015D01*
X9757500Y-40623196D01*
X9757500Y-40280000D01*
X10257500Y-40280000D01*
X10257500Y-40623196D01*
X10283898Y-40619015D01*
X10397927Y-40560915D01*
X10488415Y-40470427D01*
X10546515Y-40356399D01*
X10558617Y-40280000D01*
X10257500Y-40280000D01*
X9757500Y-40280000D01*
X9757500Y-39906000D01*
X9774381Y-39843000D01*
X9820500Y-39796881D01*
X9883500Y-39780000D01*
X10558615Y-39780000D01*
X10546515Y-39703599D01*
X10545294Y-39701202D01*
X10531658Y-39639052D01*
X10550129Y-39578165D01*
X10595995Y-39534065D01*
X10657561Y-39518000D01*
X11124000Y-39518000D01*
X11187000Y-39534881D01*
G37*
%TD.AperFunction*%
%TA.AperFunction,Conductor*%
G36*
X14107000Y-35536881D02*
G01*
X14153119Y-35583000D01*
X14170000Y-35646000D01*
X14170000Y-36288553D01*
X14226707Y-36279572D01*
X14336500Y-36223630D01*
X14423630Y-36136500D01*
X14479572Y-36026706D01*
X14494000Y-35935615D01*
X14494000Y-35885500D01*
X14510881Y-35822500D01*
X14557000Y-35776381D01*
X14620000Y-35759500D01*
X14707310Y-35759500D01*
X14755528Y-35769091D01*
X14796405Y-35796405D01*
X15213095Y-36213095D01*
X15240409Y-36253972D01*
X15250000Y-36302190D01*
X15250000Y-37874000D01*
X15233119Y-37937000D01*
X15187000Y-37983119D01*
X15124000Y-38000000D01*
X11250000Y-38000000D01*
X11250000Y-38356000D01*
X11233119Y-38419000D01*
X11187000Y-38465119D01*
X11124000Y-38482000D01*
X10657561Y-38482000D01*
X10595994Y-38465934D01*
X10550128Y-38421834D01*
X10531658Y-38360946D01*
X10545295Y-38298796D01*
X10546515Y-38296400D01*
X10558617Y-38220000D01*
X9883500Y-38220000D01*
X9820500Y-38203119D01*
X9774381Y-38157000D01*
X9757500Y-38094000D01*
X9757500Y-37376803D01*
X10257500Y-37376803D01*
X10257500Y-37720000D01*
X10558615Y-37720000D01*
X10546515Y-37643601D01*
X10488415Y-37529572D01*
X10397927Y-37439084D01*
X10283898Y-37380984D01*
X10257500Y-37376803D01*
X9757500Y-37376803D01*
X9731101Y-37380984D01*
X9617072Y-37439084D01*
X9526584Y-37529572D01*
X9488267Y-37604775D01*
X9443514Y-37653957D01*
X9379958Y-37673510D01*
X9315299Y-37657987D01*
X9267547Y-37611711D01*
X9250000Y-37547572D01*
X9250000Y-37126000D01*
X9266881Y-37063000D01*
X9313000Y-37016881D01*
X9376000Y-37000000D01*
X11298230Y-37000000D01*
X11365402Y-37019398D01*
X11411890Y-37071619D01*
X11417057Y-37082418D01*
X11458537Y-37132050D01*
X11504150Y-37174516D01*
X11556610Y-37212345D01*
X11616796Y-37236026D01*
X11677181Y-37251439D01*
X11741360Y-37259500D01*
X11874000Y-37259500D01*
X11941164Y-37250658D01*
X12004164Y-37233777D01*
X12066750Y-37207852D01*
X12120494Y-37166613D01*
X12166613Y-37120494D01*
X12207852Y-37066750D01*
X12233777Y-37004164D01*
X12250658Y-36941164D01*
X12251898Y-36931740D01*
X12277528Y-36870614D01*
X12330640Y-36830952D01*
X12374051Y-36826197D01*
X12380000Y-36821118D01*
X12380000Y-36520000D01*
X12880000Y-36520000D01*
X12880000Y-36821115D01*
X12956398Y-36809015D01*
X13070427Y-36750915D01*
X13160915Y-36660427D01*
X13219015Y-36546398D01*
X13223197Y-36520000D01*
X12880000Y-36520000D01*
X12380000Y-36520000D01*
X12380000Y-36146000D01*
X12396881Y-36083000D01*
X12443000Y-36036881D01*
X12506000Y-36020000D01*
X13279797Y-36020000D01*
X13345632Y-36038567D01*
X13392064Y-36088798D01*
X13416369Y-36136500D01*
X13503499Y-36223630D01*
X13613292Y-36279572D01*
X13670000Y-36288553D01*
X13670000Y-35646000D01*
X13686881Y-35583000D01*
X13733000Y-35536881D01*
X13796000Y-35520000D01*
X14044000Y-35520000D01*
X14107000Y-35536881D01*
G37*
%TD.AperFunction*%
%TA.AperFunction,Conductor*%
G36*
X21462427Y-51009591D02*
G01*
X21503304Y-51036905D01*
X21703595Y-51237196D01*
X21730909Y-51278073D01*
X21740500Y-51326291D01*
X21740500Y-57874000D01*
X21723619Y-57937000D01*
X21677500Y-57983119D01*
X21614500Y-58000000D01*
X20482512Y-58000000D01*
X20462802Y-57998449D01*
X20436465Y-57994277D01*
X20381045Y-57985500D01*
X20381043Y-57985500D01*
X20038955Y-57985500D01*
X19957199Y-57998449D01*
X19937490Y-58000000D01*
X19669784Y-58000000D01*
X19611603Y-57985763D01*
X19566570Y-57946270D01*
X19544862Y-57890445D01*
X19540228Y-57855244D01*
X19538725Y-57851616D01*
X19530115Y-57787693D01*
X19554266Y-57727886D01*
X19604849Y-57687866D01*
X19668608Y-57678120D01*
X19676789Y-57679000D01*
X19887500Y-57679000D01*
X19887500Y-56500000D01*
X20387500Y-56500000D01*
X20387500Y-57678999D01*
X20598213Y-57678999D01*
X20658235Y-57672547D01*
X20794023Y-57621900D01*
X20910047Y-57535047D01*
X20996898Y-57419026D01*
X21047546Y-57283232D01*
X21054000Y-57223211D01*
X21054000Y-56500000D01*
X20387500Y-56500000D01*
X19887500Y-56500000D01*
X19221001Y-56500000D01*
X19221001Y-57223213D01*
X19227452Y-57283233D01*
X19227752Y-57284037D01*
X19234133Y-57347854D01*
X19208274Y-57406545D01*
X19156874Y-57444903D01*
X19093251Y-57452991D01*
X18983555Y-57438550D01*
X18983854Y-57436272D01*
X18955434Y-57433468D01*
X18906856Y-57403255D01*
X18857998Y-57354397D01*
X18834826Y-57322504D01*
X18764980Y-57185422D01*
X18766059Y-57184871D01*
X18759591Y-57175191D01*
X18750000Y-57126973D01*
X18750000Y-56000000D01*
X19221000Y-56000000D01*
X19887500Y-56000000D01*
X19887500Y-54821001D01*
X19676787Y-54821001D01*
X19616764Y-54827452D01*
X19480976Y-54878099D01*
X19364952Y-54964952D01*
X19278101Y-55080973D01*
X19227453Y-55216767D01*
X19221000Y-55276789D01*
X19221000Y-56000000D01*
X18750000Y-56000000D01*
X18750000Y-54821000D01*
X20387500Y-54821000D01*
X20387500Y-56000000D01*
X21053999Y-56000000D01*
X21053999Y-55276787D01*
X21047547Y-55216764D01*
X20996900Y-55080976D01*
X20910047Y-54964952D01*
X20794026Y-54878101D01*
X20658232Y-54827453D01*
X20598211Y-54821000D01*
X20387500Y-54821000D01*
X18750000Y-54821000D01*
X18750000Y-53125001D01*
X19221001Y-53125001D01*
X19221001Y-53848214D01*
X19227452Y-53908236D01*
X19278099Y-54044024D01*
X19364952Y-54160048D01*
X19480973Y-54246899D01*
X19616767Y-54297547D01*
X19676789Y-54304001D01*
X19887500Y-54304001D01*
X19887500Y-53125001D01*
X20387500Y-53125001D01*
X20387500Y-54304000D01*
X20598213Y-54304000D01*
X20658235Y-54297548D01*
X20794023Y-54246901D01*
X20910047Y-54160048D01*
X20996898Y-54044027D01*
X21047546Y-53908233D01*
X21054000Y-53848212D01*
X21054000Y-53125001D01*
X20387500Y-53125001D01*
X19887500Y-53125001D01*
X19221001Y-53125001D01*
X18750000Y-53125001D01*
X18750000Y-52625001D01*
X19221000Y-52625001D01*
X19887500Y-52625001D01*
X19887500Y-51446002D01*
X19676787Y-51446002D01*
X19616764Y-51452453D01*
X19480976Y-51503100D01*
X19364952Y-51589953D01*
X19278101Y-51705974D01*
X19227453Y-51841768D01*
X19221000Y-51901790D01*
X19221000Y-52625001D01*
X18750000Y-52625001D01*
X18750000Y-51446001D01*
X20387500Y-51446001D01*
X20387500Y-52625001D01*
X21053999Y-52625001D01*
X21053999Y-51901788D01*
X21047547Y-51841765D01*
X20996900Y-51705977D01*
X20910047Y-51589953D01*
X20794026Y-51503102D01*
X20658232Y-51452454D01*
X20598211Y-51446001D01*
X20387500Y-51446001D01*
X18750000Y-51446001D01*
X18750000Y-51155791D01*
X18759591Y-51107573D01*
X18786905Y-51066696D01*
X18816696Y-51036905D01*
X18857573Y-51009591D01*
X18905791Y-51000000D01*
X21414209Y-51000000D01*
X21462427Y-51009591D01*
G37*
%TD.AperFunction*%
%TA.AperFunction,Conductor*%
G36*
X61438000Y-61016613D02*
G01*
X61483387Y-61062000D01*
X61500000Y-61124000D01*
X61500000Y-63876000D01*
X61483387Y-63938000D01*
X61438000Y-63983387D01*
X61376000Y-64000000D01*
X60624000Y-64000000D01*
X60562000Y-63983387D01*
X60516613Y-63938000D01*
X60500000Y-63876000D01*
X60500000Y-61124000D01*
X60516613Y-61062000D01*
X60562000Y-61016613D01*
X60624000Y-61000000D01*
X61376000Y-61000000D01*
X61438000Y-61016613D01*
G37*
%TD.AperFunction*%
%TA.AperFunction,Conductor*%
G36*
X14653000Y-32134381D02*
G01*
X14699119Y-32180500D01*
X14716000Y-32243500D01*
X14716000Y-32490000D01*
X15594000Y-32490000D01*
X15657000Y-32506881D01*
X15703119Y-32553000D01*
X15720000Y-32616000D01*
X15720000Y-33743999D01*
X15874000Y-33743999D01*
X15937000Y-33760880D01*
X15983119Y-33806999D01*
X16000000Y-33869999D01*
X16000000Y-35374000D01*
X15983119Y-35437000D01*
X15937000Y-35483119D01*
X15874000Y-35500000D01*
X14550573Y-35500000D01*
X14484738Y-35481433D01*
X14438306Y-35431203D01*
X14424038Y-35403201D01*
X14369579Y-35348742D01*
X14336967Y-35292258D01*
X14336967Y-35227036D01*
X14369579Y-35170552D01*
X14423630Y-35116500D01*
X14479572Y-35006706D01*
X14480635Y-35000000D01*
X13796000Y-35000000D01*
X13733000Y-34983119D01*
X13686881Y-34937000D01*
X13670000Y-34874000D01*
X13670000Y-34231446D01*
X14170000Y-34231446D01*
X14170000Y-34500000D01*
X14480634Y-34500000D01*
X14479572Y-34493293D01*
X14423630Y-34383499D01*
X14336500Y-34296369D01*
X14226707Y-34240427D01*
X14170000Y-34231446D01*
X13670000Y-34231446D01*
X13613292Y-34240427D01*
X13503499Y-34296369D01*
X13416370Y-34383498D01*
X13376434Y-34461878D01*
X13330052Y-34512077D01*
X13264286Y-34530675D01*
X13198484Y-34512201D01*
X13178288Y-34490426D01*
X13175029Y-34493686D01*
X13070427Y-34389084D01*
X12956399Y-34330984D01*
X12880000Y-34318883D01*
X12880000Y-34994000D01*
X12863119Y-35057000D01*
X12817000Y-35103119D01*
X12754000Y-35120000D01*
X12036803Y-35120000D01*
X12040984Y-35146398D01*
X12099084Y-35260427D01*
X12123562Y-35284905D01*
X12154300Y-35335064D01*
X12158916Y-35393711D01*
X12136403Y-35448061D01*
X12091670Y-35486267D01*
X12034467Y-35500000D01*
X11974513Y-35500000D01*
X11915447Y-35485298D01*
X11870165Y-35444622D01*
X11849235Y-35387465D01*
X11847547Y-35371764D01*
X11796900Y-35235976D01*
X11710047Y-35119952D01*
X11594026Y-35033101D01*
X11458232Y-34982453D01*
X11398211Y-34976000D01*
X11275000Y-34976000D01*
X11275000Y-36054000D01*
X11258119Y-36117000D01*
X11212000Y-36163119D01*
X11149000Y-36180000D01*
X10196001Y-36180000D01*
X10196001Y-36428213D01*
X10202452Y-36488235D01*
X10219111Y-36532898D01*
X10225493Y-36596715D01*
X10199634Y-36655406D01*
X10148234Y-36693765D01*
X10084611Y-36701853D01*
X10000000Y-36690714D01*
X9915948Y-36701780D01*
X9852325Y-36693692D01*
X9800925Y-36655333D01*
X9775066Y-36596642D01*
X9781447Y-36532827D01*
X9798040Y-36488342D01*
X9804500Y-36428255D01*
X9804499Y-35680000D01*
X10196000Y-35680000D01*
X10775000Y-35680000D01*
X10775000Y-34976001D01*
X10651787Y-34976001D01*
X10591764Y-34982452D01*
X10455976Y-35033099D01*
X10339952Y-35119952D01*
X10253101Y-35235973D01*
X10202453Y-35371767D01*
X10196000Y-35431789D01*
X10196000Y-35680000D01*
X9804499Y-35680000D01*
X9804499Y-35431746D01*
X9798040Y-35371658D01*
X9757943Y-35264157D01*
X9750000Y-35220125D01*
X9750000Y-34620000D01*
X12036803Y-34620000D01*
X12380000Y-34620000D01*
X12380000Y-34318884D01*
X12303601Y-34330984D01*
X12189572Y-34389084D01*
X12099084Y-34479572D01*
X12040984Y-34593601D01*
X12036803Y-34620000D01*
X9750000Y-34620000D01*
X9750000Y-33876000D01*
X9766881Y-33813000D01*
X9813000Y-33766881D01*
X9876000Y-33750000D01*
X13000000Y-33750000D01*
X13000000Y-32990000D01*
X14716001Y-32990000D01*
X14716001Y-33515018D01*
X14730736Y-33589105D01*
X14786876Y-33673124D01*
X14870893Y-33729263D01*
X14944981Y-33744000D01*
X15220000Y-33744000D01*
X15220000Y-32990000D01*
X14716001Y-32990000D01*
X13000000Y-32990000D01*
X13000000Y-32243500D01*
X13016881Y-32180500D01*
X13063000Y-32134381D01*
X13126000Y-32117500D01*
X14590000Y-32117500D01*
X14653000Y-32134381D01*
G37*
%TD.AperFunction*%
%TA.AperFunction,Conductor*%
G36*
X13368193Y-35087745D02*
G01*
X13418352Y-35118483D01*
X13470421Y-35170552D01*
X13503033Y-35227036D01*
X13503033Y-35292258D01*
X13470421Y-35348742D01*
X13415961Y-35403201D01*
X13401694Y-35431203D01*
X13355262Y-35481433D01*
X13289427Y-35500000D01*
X13225533Y-35500000D01*
X13168330Y-35486267D01*
X13123597Y-35448061D01*
X13101084Y-35393711D01*
X13105700Y-35335064D01*
X13136438Y-35284905D01*
X13160915Y-35260427D01*
X13216990Y-35150375D01*
X13255196Y-35105642D01*
X13309546Y-35083129D01*
X13368193Y-35087745D01*
G37*
%TD.AperFunction*%
%TA.AperFunction,Conductor*%
G36*
X20937000Y-27766881D02*
G01*
X20983119Y-27813000D01*
X21000000Y-27876000D01*
X21000000Y-30374000D01*
X20983119Y-30437000D01*
X20937000Y-30483119D01*
X20874000Y-30500000D01*
X20073375Y-30500000D01*
X20006775Y-30480960D01*
X19960303Y-30429594D01*
X19948004Y-30361426D01*
X19973595Y-30297059D01*
X20029342Y-30255945D01*
X20134023Y-30216900D01*
X20250047Y-30130047D01*
X20336900Y-30014023D01*
X20387547Y-29878236D01*
X20389776Y-29857501D01*
X20389776Y-29857500D01*
X18490224Y-29857500D01*
X18490223Y-29857501D01*
X18492452Y-29878236D01*
X18543099Y-30014023D01*
X18629952Y-30130047D01*
X18745973Y-30216898D01*
X18850659Y-30255944D01*
X18906406Y-30297059D01*
X18931997Y-30361426D01*
X18919698Y-30429594D01*
X18873226Y-30480960D01*
X18806626Y-30500000D01*
X18126000Y-30500000D01*
X18063000Y-30483119D01*
X18016881Y-30437000D01*
X18000000Y-30374000D01*
X18000000Y-29157498D01*
X18490223Y-29157498D01*
X18490224Y-29157500D01*
X19090000Y-29157500D01*
X19090000Y-28741001D01*
X18941787Y-28741001D01*
X18881764Y-28747452D01*
X18745976Y-28798099D01*
X18629952Y-28884952D01*
X18543099Y-29000976D01*
X18492452Y-29136763D01*
X18490223Y-29157498D01*
X18000000Y-29157498D01*
X18000000Y-28741000D01*
X19790000Y-28741000D01*
X19790000Y-29157500D01*
X20389776Y-29157500D01*
X20389776Y-29157498D01*
X20387547Y-29136763D01*
X20336900Y-29000976D01*
X20250047Y-28884952D01*
X20134026Y-28798101D01*
X19998232Y-28747453D01*
X19938211Y-28741000D01*
X19790000Y-28741000D01*
X18000000Y-28741000D01*
X18000000Y-27876000D01*
X18016881Y-27813000D01*
X18063000Y-27766881D01*
X18126000Y-27750000D01*
X20874000Y-27750000D01*
X20937000Y-27766881D01*
G37*
%TD.AperFunction*%
%TA.AperFunction,Conductor*%
G36*
X65002610Y-608D02*
G01*
X65008781Y-863D01*
X65217403Y-9491D01*
X65413375Y-18048D01*
X65423423Y-18893D01*
X65636807Y-45491D01*
X65834874Y-71568D01*
X65844273Y-73170D01*
X66053521Y-117044D01*
X66054833Y-117327D01*
X66250312Y-160664D01*
X66258953Y-162905D01*
X66463679Y-223855D01*
X66465355Y-224369D01*
X66656618Y-284674D01*
X66664509Y-287453D01*
X66863268Y-365008D01*
X66865621Y-365955D01*
X67050950Y-442721D01*
X67058044Y-445921D01*
X67249605Y-539569D01*
X67252354Y-540957D01*
X67430373Y-633627D01*
X67436681Y-637145D01*
X67619781Y-746248D01*
X67622957Y-748205D01*
X67792228Y-856043D01*
X67797745Y-859765D01*
X67971164Y-983585D01*
X67974619Y-986142D01*
X68133880Y-1108347D01*
X68138610Y-1112162D01*
X68301195Y-1249865D01*
X68304885Y-1253116D01*
X68452875Y-1388723D01*
X68456846Y-1392525D01*
X68607473Y-1543152D01*
X68611275Y-1547123D01*
X68746882Y-1695113D01*
X68750133Y-1698803D01*
X68887836Y-1861388D01*
X68891651Y-1866118D01*
X69013844Y-2025363D01*
X69016426Y-2028851D01*
X69140233Y-2202254D01*
X69143955Y-2207770D01*
X69251776Y-2377014D01*
X69253750Y-2380217D01*
X69362853Y-2563317D01*
X69366375Y-2569633D01*
X69459010Y-2747582D01*
X69460444Y-2750424D01*
X69554071Y-2941941D01*
X69557283Y-2949062D01*
X69634030Y-3134346D01*
X69635002Y-3136762D01*
X69712541Y-3335478D01*
X69715328Y-3343391D01*
X69775583Y-3534493D01*
X69776177Y-3536430D01*
X69837089Y-3741030D01*
X69839340Y-3749711D01*
X69882660Y-3945117D01*
X69882965Y-3946531D01*
X69926827Y-4155721D01*
X69928431Y-4165131D01*
X69954476Y-4362954D01*
X69954586Y-4363816D01*
X69981103Y-4576555D01*
X69981951Y-4586643D01*
X69990513Y-4782727D01*
X69990525Y-4783017D01*
X69999392Y-4997389D01*
X69999500Y-5002596D01*
X69999500Y-33947307D01*
X69999499Y-33947312D01*
X69999499Y-33995877D01*
X69999229Y-34004119D01*
X69994043Y-34083229D01*
X69993992Y-34083976D01*
X69981299Y-34261446D01*
X69979199Y-34277038D01*
X69957070Y-34388289D01*
X69956612Y-34390491D01*
X69926239Y-34530116D01*
X69922431Y-34543835D01*
X69883805Y-34657623D01*
X69882548Y-34661154D01*
X69834974Y-34788704D01*
X69829924Y-34800400D01*
X69775579Y-34910599D01*
X69773161Y-34915255D01*
X69709191Y-35032408D01*
X69703368Y-35042025D01*
X69634422Y-35145210D01*
X69630525Y-35150717D01*
X69551222Y-35256654D01*
X69545086Y-35264222D01*
X69462915Y-35357921D01*
X69457278Y-35363940D01*
X69363949Y-35457268D01*
X69357943Y-35462894D01*
X69351299Y-35468722D01*
X69312600Y-35491922D01*
X69268210Y-35500000D01*
X68126000Y-35500000D01*
X68063000Y-35483119D01*
X68016881Y-35437000D01*
X68000000Y-35374000D01*
X68000000Y-8000000D01*
X67999999Y-7999999D01*
X67532563Y-7532563D01*
X67500881Y-7479365D01*
X67498366Y-7417495D01*
X67525628Y-7361899D01*
X67753741Y-7093345D01*
X67963935Y-6783332D01*
X68139370Y-6452427D01*
X68278001Y-6104487D01*
X68378202Y-5743597D01*
X68438795Y-5373992D01*
X68459073Y-4999999D01*
X68438795Y-4626007D01*
X68378202Y-4256402D01*
X68278001Y-3895512D01*
X68139370Y-3547572D01*
X67963935Y-3216667D01*
X67753741Y-2906655D01*
X67677764Y-2817207D01*
X65247486Y-5247486D01*
X64752512Y-4752512D01*
X67183703Y-2321321D01*
X66941187Y-2136963D01*
X66620261Y-1943868D01*
X66280328Y-1786599D01*
X65925400Y-1667009D01*
X65559614Y-1586494D01*
X65187274Y-1546000D01*
X64812726Y-1546000D01*
X64440385Y-1586494D01*
X64074599Y-1667009D01*
X63719671Y-1786599D01*
X63379738Y-1943868D01*
X63058807Y-2136966D01*
X62760645Y-2363625D01*
X62645786Y-2472423D01*
X62589545Y-2503223D01*
X62525428Y-2502354D01*
X62470043Y-2470043D01*
X62000000Y-2000000D01*
X59857369Y-2000000D01*
X59806755Y-1989387D01*
X59764668Y-1959337D01*
X59738196Y-1914912D01*
X59726349Y-1880403D01*
X59612930Y-1670822D01*
X59519661Y-1550990D01*
X59466560Y-1482765D01*
X59428640Y-1447857D01*
X59291235Y-1321367D01*
X59091734Y-1191027D01*
X58873500Y-1095300D01*
X58642494Y-1036802D01*
X58642493Y-1036801D01*
X58642490Y-1036801D01*
X58464472Y-1022050D01*
X58345528Y-1022050D01*
X58167510Y-1036801D01*
X58167506Y-1036801D01*
X58167505Y-1036802D01*
X57936499Y-1095300D01*
X57718265Y-1191027D01*
X57518764Y-1321367D01*
X57343443Y-1482761D01*
X57197069Y-1670822D01*
X57083650Y-1880403D01*
X57071804Y-1914912D01*
X57045332Y-1959337D01*
X57003245Y-1989387D01*
X56952631Y-2000000D01*
X55766936Y-2000000D01*
X55718718Y-1990409D01*
X55644753Y-1959771D01*
X55500000Y-1940715D01*
X55355246Y-1959771D01*
X55281282Y-1990409D01*
X55233064Y-2000000D01*
X54142369Y-2000000D01*
X54091755Y-1989387D01*
X54049668Y-1959337D01*
X54023196Y-1914912D01*
X54011349Y-1880403D01*
X53897930Y-1670822D01*
X53804661Y-1550990D01*
X53751560Y-1482765D01*
X53713640Y-1447857D01*
X53576235Y-1321367D01*
X53376734Y-1191027D01*
X53158500Y-1095300D01*
X52927494Y-1036802D01*
X52927493Y-1036801D01*
X52927490Y-1036801D01*
X52749472Y-1022050D01*
X52630528Y-1022050D01*
X52452510Y-1036801D01*
X52452506Y-1036801D01*
X52452505Y-1036802D01*
X52221499Y-1095300D01*
X52003265Y-1191027D01*
X51803764Y-1321367D01*
X51628443Y-1482761D01*
X51482069Y-1670822D01*
X51368650Y-1880403D01*
X51356804Y-1914912D01*
X51330332Y-1959337D01*
X51288245Y-1989387D01*
X51237631Y-2000000D01*
X8000000Y-2000000D01*
X7529956Y-2470043D01*
X7474569Y-2502354D01*
X7410452Y-2503223D01*
X7354211Y-2472422D01*
X7239361Y-2363630D01*
X6941186Y-2136962D01*
X6620261Y-1943868D01*
X6280328Y-1786599D01*
X5925400Y-1667009D01*
X5559614Y-1586494D01*
X5187274Y-1546000D01*
X4812726Y-1546000D01*
X4440385Y-1586494D01*
X4074599Y-1667009D01*
X3719671Y-1786599D01*
X3379738Y-1943868D01*
X3058807Y-2136966D01*
X2816295Y-2321320D01*
X2816295Y-2321321D01*
X5247487Y-4752513D01*
X4752513Y-5247486D01*
X2322234Y-2817207D01*
X2322233Y-2817208D01*
X2246262Y-2906650D01*
X2036064Y-3216667D01*
X1860629Y-3547572D01*
X1721998Y-3895512D01*
X1621797Y-4256402D01*
X1561204Y-4626007D01*
X1540926Y-5000000D01*
X1561204Y-5373992D01*
X1621797Y-5743597D01*
X1721998Y-6104487D01*
X1860629Y-6452427D01*
X2036064Y-6783332D01*
X2246258Y-7093344D01*
X2474370Y-7361900D01*
X2501631Y-7417496D01*
X2499116Y-7479365D01*
X2467433Y-7532565D01*
X2000000Y-7999999D01*
X2000000Y-20228830D01*
X1992055Y-20272863D01*
X1969223Y-20311344D01*
X1933469Y-20352605D01*
X1927347Y-20359181D01*
X1917748Y-20368780D01*
X1909612Y-20379648D01*
X1903976Y-20386642D01*
X1871222Y-20424442D01*
X1869246Y-20428770D01*
X1855511Y-20451918D01*
X1852657Y-20455730D01*
X1835172Y-20502607D01*
X1831733Y-20510911D01*
X1810957Y-20556405D01*
X1810281Y-20561110D01*
X1803624Y-20587194D01*
X1801960Y-20591654D01*
X1798391Y-20641548D01*
X1797431Y-20650477D01*
X1795500Y-20663915D01*
X1795500Y-20677484D01*
X1795179Y-20686470D01*
X1793513Y-20709772D01*
X1791611Y-20736360D01*
X1792621Y-20741003D01*
X1795500Y-20767784D01*
X1795500Y-29212216D01*
X1792621Y-29238997D01*
X1791611Y-29243639D01*
X1795179Y-29293528D01*
X1795500Y-29302516D01*
X1795500Y-29316087D01*
X1797429Y-29329508D01*
X1798390Y-29338441D01*
X1801960Y-29388342D01*
X1803621Y-29392795D01*
X1810282Y-29418895D01*
X1810957Y-29423595D01*
X1831736Y-29469095D01*
X1835170Y-29477385D01*
X1841680Y-29494836D01*
X1852657Y-29524268D01*
X1855503Y-29528069D01*
X1869244Y-29551227D01*
X1871220Y-29555555D01*
X1871223Y-29555558D01*
X1903976Y-29593357D01*
X1909608Y-29600346D01*
X1917749Y-29611220D01*
X1927335Y-29620806D01*
X1933463Y-29627387D01*
X1966225Y-29665196D01*
X1966226Y-29665196D01*
X1969223Y-29668655D01*
X1992055Y-29707136D01*
X2000000Y-29751169D01*
X2000000Y-34305011D01*
X1987408Y-34359916D01*
X1952150Y-34403847D01*
X1901271Y-34428024D01*
X1844942Y-34427615D01*
X1838128Y-34426000D01*
X1800000Y-34426000D01*
X1800000Y-34830000D01*
X2000000Y-34830000D01*
X2000000Y-35000000D01*
X5980000Y-35000000D01*
X5980000Y-35404000D01*
X5963119Y-35467000D01*
X5917000Y-35513119D01*
X5854000Y-35530000D01*
X4409818Y-35530000D01*
X4422572Y-35559565D01*
X4527827Y-35700949D01*
X4662848Y-35814245D01*
X4802908Y-35884586D01*
X4854718Y-35932884D01*
X4872285Y-36001502D01*
X4850059Y-36068754D01*
X4819888Y-36093241D01*
X4822928Y-36097203D01*
X4689549Y-36199549D01*
X4597301Y-36319767D01*
X4539312Y-36459764D01*
X4519534Y-36610000D01*
X4539312Y-36760235D01*
X4597301Y-36900232D01*
X4597302Y-36900233D01*
X4689549Y-37020451D01*
X4752552Y-37068795D01*
X4822928Y-37122797D01*
X4822453Y-37123415D01*
X4854950Y-37147514D01*
X4881133Y-37202867D01*
X4878130Y-37264026D01*
X4846650Y-37316547D01*
X4565455Y-37597742D01*
X4545280Y-37614127D01*
X4537384Y-37619285D01*
X4519264Y-37642566D01*
X4509378Y-37653761D01*
X4497871Y-37669877D01*
X4494763Y-37674045D01*
X4459725Y-37719062D01*
X4443437Y-37773769D01*
X4441850Y-37778723D01*
X4423334Y-37832660D01*
X4425692Y-37889656D01*
X4425800Y-37894864D01*
X4425800Y-40502546D01*
X4418973Y-40543458D01*
X4403334Y-40589012D01*
X4405692Y-40646009D01*
X4405800Y-40651217D01*
X4405800Y-41045100D01*
X4403118Y-41070957D01*
X4401183Y-41080181D01*
X4404832Y-41109446D01*
X4405758Y-41124364D01*
X4409017Y-41143897D01*
X4409767Y-41149042D01*
X4416823Y-41205645D01*
X4443985Y-41255837D01*
X4446367Y-41260466D01*
X4471416Y-41311705D01*
X4513412Y-41350364D01*
X4517170Y-41353971D01*
X4846650Y-41683451D01*
X4878129Y-41735968D01*
X4881135Y-41797122D01*
X4854959Y-41852473D01*
X4822453Y-41876584D01*
X4822928Y-41877203D01*
X4689549Y-41979549D01*
X4597301Y-42099767D01*
X4539312Y-42239764D01*
X4519534Y-42389999D01*
X4539312Y-42540235D01*
X4597301Y-42680232D01*
X4606133Y-42691742D01*
X4689549Y-42800451D01*
X4802075Y-42886796D01*
X4822928Y-42902797D01*
X4821200Y-42905048D01*
X4845626Y-42922953D01*
X4872125Y-42976673D01*
X4870823Y-43036559D01*
X4842014Y-43089077D01*
X4792210Y-43122357D01*
X4739301Y-43141614D01*
X4592037Y-43238470D01*
X4471083Y-43366674D01*
X4411429Y-43470000D01*
X5854000Y-43470000D01*
X5917000Y-43486881D01*
X5963119Y-43533000D01*
X5980000Y-43596000D01*
X5980000Y-44000000D01*
X2500000Y-44000000D01*
X2500000Y-44134119D01*
X2481000Y-44153119D01*
X2418000Y-44170000D01*
X1800000Y-44170000D01*
X1800000Y-44573288D01*
X1925068Y-44558669D01*
X2090698Y-44498385D01*
X2237959Y-44401531D01*
X2282350Y-44354480D01*
X2332286Y-44322052D01*
X2391535Y-44316172D01*
X2446870Y-44338155D01*
X2485932Y-44383091D01*
X2500000Y-44440946D01*
X2500000Y-44750000D01*
X2749242Y-44750000D01*
X2750750Y-44750009D01*
X2754472Y-44750053D01*
X2953257Y-44752434D01*
X2964055Y-44753029D01*
X3367842Y-44792799D01*
X3380037Y-44794608D01*
X3777234Y-44873615D01*
X3789217Y-44876617D01*
X4176749Y-44994173D01*
X4188385Y-44998337D01*
X4562522Y-45153309D01*
X4573683Y-45158588D01*
X4752257Y-45254038D01*
X4930825Y-45349486D01*
X4941430Y-45355843D01*
X5278136Y-45580821D01*
X5288067Y-45588185D01*
X5511928Y-45771904D01*
X5601107Y-45845091D01*
X5610268Y-45853395D01*
X5896604Y-46139731D01*
X5904908Y-46148892D01*
X6161812Y-46461930D01*
X6169178Y-46471863D01*
X6394156Y-46808569D01*
X6400513Y-46819174D01*
X6591407Y-47176308D01*
X6596694Y-47187486D01*
X6751661Y-47561611D01*
X6755827Y-47573253D01*
X6873381Y-47960778D01*
X6876385Y-47972772D01*
X6955388Y-48369942D01*
X6957202Y-48382174D01*
X6996968Y-48785922D01*
X6997566Y-48796763D01*
X6999991Y-48999249D01*
X7000000Y-49000758D01*
X7000000Y-56749242D01*
X6999991Y-56750751D01*
X6997566Y-56953236D01*
X6996968Y-56964077D01*
X6957202Y-57367825D01*
X6955388Y-57380057D01*
X6876385Y-57777227D01*
X6873381Y-57789221D01*
X6755827Y-58176746D01*
X6751661Y-58188388D01*
X6596694Y-58562513D01*
X6591407Y-58573691D01*
X6400513Y-58930825D01*
X6394156Y-58941430D01*
X6169178Y-59278136D01*
X6161812Y-59288069D01*
X5904908Y-59601107D01*
X5896604Y-59610268D01*
X5610268Y-59896604D01*
X5601107Y-59904908D01*
X5288069Y-60161812D01*
X5278136Y-60169178D01*
X4941430Y-60394156D01*
X4930825Y-60400513D01*
X4573691Y-60591407D01*
X4562513Y-60596694D01*
X4188388Y-60751661D01*
X4176746Y-60755827D01*
X3789221Y-60873381D01*
X3777227Y-60876385D01*
X3380057Y-60955388D01*
X3367825Y-60957202D01*
X2964077Y-60996968D01*
X2953236Y-60997566D01*
X2750002Y-60999999D01*
X2665725Y-61002044D01*
X2501402Y-61039549D01*
X2349543Y-61112680D01*
X2217768Y-61217768D01*
X2112680Y-61349543D01*
X2039549Y-61501402D01*
X2002044Y-61665725D01*
X2000000Y-61750002D01*
X2000000Y-63253358D01*
X1985322Y-63312378D01*
X1860629Y-63547572D01*
X1721998Y-63895512D01*
X1621797Y-64256402D01*
X1561204Y-64626007D01*
X1540926Y-64999999D01*
X1561204Y-65373992D01*
X1621797Y-65743597D01*
X1721998Y-66104487D01*
X1860629Y-66452427D01*
X2036064Y-66783332D01*
X2246255Y-67093339D01*
X2322235Y-67182790D01*
X4505025Y-65000000D01*
X5000000Y-65000000D01*
X5247486Y-65247486D01*
X2816295Y-67678677D01*
X3058812Y-67863036D01*
X3379738Y-68056131D01*
X3719671Y-68213400D01*
X4074599Y-68332990D01*
X4440385Y-68413505D01*
X4812726Y-68454000D01*
X5187274Y-68454000D01*
X5559614Y-68413505D01*
X5925400Y-68332990D01*
X6280328Y-68213400D01*
X6620261Y-68056131D01*
X6941186Y-67863037D01*
X7239355Y-67636374D01*
X7354210Y-67527576D01*
X7410452Y-67496776D01*
X7474569Y-67497644D01*
X7529954Y-67529954D01*
X8000000Y-68000000D01*
X15552125Y-68000000D01*
X15613691Y-68016066D01*
X15638585Y-68040000D01*
X16596001Y-68040000D01*
X16619096Y-68016905D01*
X16644395Y-68000000D01*
X17795605Y-68000000D01*
X19545582Y-68000000D01*
X19562024Y-68001077D01*
X19626000Y-68009500D01*
X24197810Y-68009500D01*
X24197815Y-68009500D01*
X24248426Y-68004515D01*
X24248427Y-68004514D01*
X24248435Y-68004514D01*
X24258958Y-68002420D01*
X24283539Y-68000000D01*
X61999999Y-68000000D01*
X62000000Y-68000000D01*
X62470044Y-67529955D01*
X62525429Y-67497645D01*
X62589547Y-67496776D01*
X62645788Y-67527577D01*
X62760639Y-67636369D01*
X63058813Y-67863037D01*
X63379738Y-68056131D01*
X63719671Y-68213400D01*
X64074599Y-68332990D01*
X64440385Y-68413505D01*
X64812726Y-68454000D01*
X65187274Y-68454000D01*
X65559614Y-68413505D01*
X65925400Y-68332990D01*
X66280328Y-68213400D01*
X66620261Y-68056131D01*
X66941187Y-67863036D01*
X67183704Y-67678677D01*
X64752513Y-65247486D01*
X65247487Y-64752513D01*
X67677765Y-67182791D01*
X67753741Y-67093345D01*
X67963935Y-66783332D01*
X68139370Y-66452427D01*
X68278001Y-66104487D01*
X68378202Y-65743597D01*
X68438795Y-65373992D01*
X68459073Y-64999999D01*
X68438795Y-64626007D01*
X68378202Y-64256402D01*
X68278001Y-63895512D01*
X68139370Y-63547572D01*
X67963935Y-63216667D01*
X67753741Y-62906655D01*
X67525628Y-62638098D01*
X67498367Y-62582502D01*
X67500882Y-62520633D01*
X67532563Y-62467436D01*
X68000000Y-62000000D01*
X68000000Y-55686572D01*
X68016720Y-55623852D01*
X68062441Y-55577777D01*
X68125028Y-55560576D01*
X69319452Y-55551388D01*
X69368183Y-55560790D01*
X69409508Y-55588288D01*
X69457265Y-55636045D01*
X69462901Y-55642062D01*
X69545092Y-55735782D01*
X69551218Y-55743337D01*
X69605338Y-55815633D01*
X69630519Y-55849271D01*
X69634415Y-55854776D01*
X69703382Y-55957993D01*
X69709196Y-55967595D01*
X69773162Y-56084742D01*
X69775580Y-56089398D01*
X69829925Y-56199597D01*
X69834975Y-56211293D01*
X69882549Y-56338843D01*
X69883794Y-56342342D01*
X69922434Y-56456170D01*
X69926240Y-56469881D01*
X69956613Y-56609506D01*
X69957071Y-56611708D01*
X69979200Y-56722959D01*
X69981300Y-56738551D01*
X69993993Y-56916021D01*
X69994044Y-56916768D01*
X69999230Y-56995880D01*
X69999500Y-57004122D01*
X69999500Y-64997404D01*
X69999391Y-65002611D01*
X69991475Y-65194040D01*
X69990537Y-65216711D01*
X69990525Y-65217001D01*
X69981951Y-65413355D01*
X69981103Y-65423443D01*
X69954586Y-65636182D01*
X69954476Y-65637044D01*
X69928431Y-65834867D01*
X69926827Y-65844277D01*
X69882965Y-66053467D01*
X69882660Y-66054881D01*
X69839340Y-66250287D01*
X69837089Y-66258968D01*
X69776177Y-66463568D01*
X69775583Y-66465505D01*
X69715328Y-66656607D01*
X69712541Y-66664520D01*
X69635002Y-66863236D01*
X69634030Y-66865652D01*
X69557283Y-67050936D01*
X69554071Y-67058057D01*
X69460444Y-67249574D01*
X69459010Y-67252416D01*
X69366375Y-67430365D01*
X69362853Y-67436681D01*
X69253750Y-67619781D01*
X69251776Y-67622984D01*
X69143955Y-67792228D01*
X69140233Y-67797744D01*
X69016426Y-67971147D01*
X69013844Y-67974635D01*
X68891651Y-68133880D01*
X68887836Y-68138610D01*
X68750133Y-68301195D01*
X68746882Y-68304885D01*
X68611275Y-68452875D01*
X68607473Y-68456846D01*
X68456846Y-68607473D01*
X68452875Y-68611275D01*
X68304885Y-68746882D01*
X68301195Y-68750133D01*
X68138610Y-68887836D01*
X68133880Y-68891651D01*
X67974635Y-69013844D01*
X67971147Y-69016426D01*
X67797744Y-69140233D01*
X67792228Y-69143955D01*
X67622984Y-69251776D01*
X67619781Y-69253750D01*
X67436681Y-69362853D01*
X67430365Y-69366375D01*
X67252416Y-69459010D01*
X67249574Y-69460444D01*
X67058057Y-69554071D01*
X67050936Y-69557283D01*
X66865652Y-69634030D01*
X66863236Y-69635002D01*
X66664520Y-69712541D01*
X66656607Y-69715328D01*
X66465505Y-69775583D01*
X66463568Y-69776177D01*
X66258968Y-69837089D01*
X66250287Y-69839340D01*
X66054881Y-69882660D01*
X66053467Y-69882965D01*
X65844277Y-69926827D01*
X65834867Y-69928431D01*
X65637044Y-69954476D01*
X65636182Y-69954586D01*
X65423443Y-69981103D01*
X65413354Y-69981951D01*
X65217291Y-69990512D01*
X65217002Y-69990524D01*
X65002611Y-69999392D01*
X64997404Y-69999500D01*
X5002596Y-69999500D01*
X4997389Y-69999392D01*
X4782996Y-69990524D01*
X4782707Y-69990512D01*
X4586644Y-69981951D01*
X4576555Y-69981103D01*
X4363816Y-69954586D01*
X4362954Y-69954476D01*
X4165131Y-69928431D01*
X4155721Y-69926827D01*
X3946531Y-69882965D01*
X3945117Y-69882660D01*
X3749711Y-69839340D01*
X3741030Y-69837089D01*
X3536430Y-69776177D01*
X3534493Y-69775583D01*
X3343391Y-69715328D01*
X3335478Y-69712541D01*
X3136762Y-69635002D01*
X3134346Y-69634030D01*
X2949062Y-69557283D01*
X2941941Y-69554071D01*
X2750424Y-69460444D01*
X2747582Y-69459010D01*
X2569633Y-69366375D01*
X2563317Y-69362853D01*
X2380217Y-69253750D01*
X2377014Y-69251776D01*
X2207770Y-69143955D01*
X2202254Y-69140233D01*
X2028851Y-69016426D01*
X2025363Y-69013844D01*
X1866118Y-68891651D01*
X1861388Y-68887836D01*
X1698803Y-68750133D01*
X1695113Y-68746882D01*
X1547123Y-68611275D01*
X1543152Y-68607473D01*
X1515679Y-68580000D01*
X15647201Y-68580000D01*
X15696369Y-68676500D01*
X15783498Y-68763629D01*
X15893293Y-68819572D01*
X15930000Y-68825387D01*
X16470000Y-68825387D01*
X16506706Y-68819572D01*
X16616498Y-68763631D01*
X16639292Y-68740837D01*
X16683233Y-68712300D01*
X16734982Y-68704104D01*
X16785591Y-68717664D01*
X16906730Y-68779387D01*
X16919999Y-68781488D01*
X16920000Y-68781488D01*
X16920000Y-68540000D01*
X17480000Y-68540000D01*
X17480000Y-68781488D01*
X17493269Y-68779387D01*
X17604475Y-68722725D01*
X17692724Y-68634476D01*
X17740863Y-68540000D01*
X17480000Y-68540000D01*
X16920000Y-68540000D01*
X16813999Y-68540000D01*
X16810904Y-68543095D01*
X16770027Y-68570409D01*
X16721809Y-68580000D01*
X16470000Y-68580000D01*
X16470000Y-68825387D01*
X15930000Y-68825387D01*
X15930000Y-68580000D01*
X15647201Y-68580000D01*
X1515679Y-68580000D01*
X1392525Y-68456846D01*
X1388723Y-68452875D01*
X1253116Y-68304885D01*
X1249865Y-68301195D01*
X1112162Y-68138610D01*
X1108347Y-68133880D01*
X1048688Y-68056131D01*
X986142Y-67974619D01*
X983572Y-67971147D01*
X911707Y-67870494D01*
X859765Y-67797744D01*
X856043Y-67792228D01*
X783703Y-67678677D01*
X748205Y-67622957D01*
X746248Y-67619781D01*
X637145Y-67436681D01*
X633623Y-67430365D01*
X540957Y-67252354D01*
X539554Y-67249574D01*
X514380Y-67198080D01*
X445921Y-67058044D01*
X442721Y-67050950D01*
X365955Y-66865621D01*
X364996Y-66863236D01*
X361643Y-66854643D01*
X287453Y-66664509D01*
X284670Y-66656607D01*
X224369Y-66465355D01*
X223855Y-66463679D01*
X162905Y-66258953D01*
X160664Y-66250312D01*
X117327Y-66054833D01*
X117033Y-66053467D01*
X111495Y-66027057D01*
X73170Y-65844273D01*
X71567Y-65834867D01*
X45491Y-65636807D01*
X18893Y-65423423D01*
X18048Y-65413373D01*
X9475Y-65216999D01*
X9463Y-65216711D01*
X8525Y-65194040D01*
X608Y-65002611D01*
X500Y-64997404D01*
X500Y-61753804D01*
X730Y-61746197D01*
X6493Y-61650908D01*
X19840Y-61447294D01*
X21629Y-61432866D01*
X45689Y-61301573D01*
X45986Y-61300020D01*
X78282Y-61137653D01*
X81551Y-61124808D01*
X123483Y-60990244D01*
X124400Y-60987428D01*
X175176Y-60837846D01*
X179570Y-60826685D01*
X238637Y-60695444D01*
X240454Y-60691590D01*
X309000Y-60552591D01*
X314153Y-60543179D01*
X389341Y-60418804D01*
X392346Y-60414079D01*
X477657Y-60286402D01*
X483201Y-60278747D01*
X573268Y-60163784D01*
X577637Y-60158514D01*
X678540Y-60043457D01*
X684119Y-60037502D01*
X787502Y-59934119D01*
X793457Y-59928540D01*
X908514Y-59827637D01*
X913784Y-59823268D01*
X1028747Y-59733201D01*
X1036402Y-59727657D01*
X1164079Y-59642346D01*
X1168804Y-59639341D01*
X1293179Y-59564153D01*
X1302591Y-59559000D01*
X1441590Y-59490454D01*
X1445444Y-59488637D01*
X1576685Y-59429570D01*
X1587846Y-59425176D01*
X1737428Y-59374400D01*
X1740244Y-59373483D01*
X1874808Y-59331551D01*
X1887653Y-59328282D01*
X2050020Y-59295986D01*
X2051573Y-59295689D01*
X2182866Y-59271629D01*
X2197294Y-59269840D01*
X2400908Y-59256493D01*
X2496198Y-59250729D01*
X2503804Y-59250500D01*
X2651255Y-59250500D01*
X2951546Y-59214038D01*
X2951549Y-59214037D01*
X2951551Y-59214037D01*
X3245266Y-59141643D01*
X3528113Y-59034373D01*
X3795967Y-58893792D01*
X4044924Y-58721950D01*
X4271352Y-58521352D01*
X4471950Y-58294924D01*
X4643792Y-58045967D01*
X4784373Y-57778113D01*
X4891643Y-57495266D01*
X4964037Y-57201551D01*
X4969720Y-57154754D01*
X5000500Y-56901255D01*
X5000500Y-49098745D01*
X4964038Y-48798453D01*
X4957911Y-48773596D01*
X4891643Y-48504734D01*
X4784373Y-48221887D01*
X4643792Y-47954033D01*
X4643790Y-47954029D01*
X4471950Y-47705076D01*
X4428288Y-47655792D01*
X4271352Y-47478648D01*
X4044924Y-47278050D01*
X4037124Y-47272666D01*
X3795970Y-47106209D01*
X3644580Y-47026754D01*
X3528113Y-46965627D01*
X3245266Y-46858357D01*
X3197485Y-46846580D01*
X2951546Y-46785961D01*
X2651255Y-46749500D01*
X2651252Y-46749500D01*
X2503807Y-46749500D01*
X2496198Y-46749270D01*
X2401368Y-46743533D01*
X2400736Y-46743493D01*
X2197314Y-46730160D01*
X2182843Y-46728366D01*
X2051733Y-46704339D01*
X2049864Y-46703982D01*
X1887683Y-46671723D01*
X1874778Y-46668439D01*
X1740331Y-46626543D01*
X1737315Y-46625561D01*
X1587873Y-46574832D01*
X1576663Y-46570419D01*
X1445525Y-46511399D01*
X1441508Y-46509505D01*
X1302613Y-46441009D01*
X1293158Y-46435832D01*
X1168851Y-46360686D01*
X1164033Y-46357622D01*
X1036427Y-46272358D01*
X1028723Y-46266779D01*
X930404Y-46189752D01*
X913828Y-46176765D01*
X908473Y-46172325D01*
X793488Y-46071486D01*
X787471Y-46065849D01*
X684149Y-45962527D01*
X678512Y-45956510D01*
X577668Y-45841519D01*
X573240Y-45836178D01*
X483219Y-45721275D01*
X477640Y-45713571D01*
X392376Y-45585965D01*
X389312Y-45581147D01*
X379204Y-45564427D01*
X314165Y-45456839D01*
X308989Y-45447385D01*
X240475Y-45308453D01*
X238617Y-45304511D01*
X179576Y-45173328D01*
X175171Y-45162138D01*
X124416Y-45012618D01*
X123468Y-45009708D01*
X81553Y-44875200D01*
X78280Y-44862337D01*
X45995Y-44700028D01*
X45681Y-44698381D01*
X21629Y-44567137D01*
X19840Y-44552701D01*
X6493Y-44349070D01*
X6464Y-44348604D01*
X5103Y-44326109D01*
X729Y-44253801D01*
X500Y-44246196D01*
X500Y-44170000D01*
X479818Y-44170000D01*
X492572Y-44199565D01*
X597827Y-44340949D01*
X732848Y-44454245D01*
X890361Y-44533351D01*
X1061872Y-44574000D01*
X1100000Y-44574000D01*
X1100000Y-44170000D01*
X479818Y-44170000D01*
X500Y-44170000D01*
X500Y-43470000D01*
X481429Y-43470000D01*
X1100000Y-43470000D01*
X1100000Y-43066712D01*
X1099999Y-43066711D01*
X974931Y-43081330D01*
X809301Y-43141614D01*
X662037Y-43238470D01*
X541083Y-43366674D01*
X481429Y-43470000D01*
X500Y-43470000D01*
X500Y-43066000D01*
X1800000Y-43066000D01*
X1800000Y-43470000D01*
X2420181Y-43470000D01*
X2407427Y-43440434D01*
X2302172Y-43299050D01*
X2167151Y-43185754D01*
X2009638Y-43106648D01*
X1838128Y-43066000D01*
X1800000Y-43066000D01*
X500Y-43066000D01*
X500Y-35530000D01*
X479818Y-35530000D01*
X492572Y-35559565D01*
X597827Y-35700949D01*
X732848Y-35814245D01*
X890361Y-35893351D01*
X1061872Y-35934000D01*
X1100000Y-35934000D01*
X1100000Y-35530000D01*
X1800000Y-35530000D01*
X1800000Y-35933288D01*
X1925068Y-35918669D01*
X2090698Y-35858385D01*
X2237962Y-35761529D01*
X2358916Y-35633325D01*
X2418571Y-35530000D01*
X1800000Y-35530000D01*
X1100000Y-35530000D01*
X479818Y-35530000D01*
X500Y-35530000D01*
X500Y-34830000D01*
X481429Y-34830000D01*
X1100000Y-34830000D01*
X1100000Y-34426712D01*
X1099999Y-34426711D01*
X974931Y-34441330D01*
X809301Y-34501614D01*
X662037Y-34598470D01*
X541083Y-34726674D01*
X481429Y-34830000D01*
X500Y-34830000D01*
X500Y-5002596D01*
X608Y-4997389D01*
X9407Y-4784646D01*
X9496Y-4782477D01*
X18049Y-4586620D01*
X18892Y-4576580D01*
X45486Y-4363234D01*
X71569Y-4165116D01*
X73168Y-4155735D01*
X117062Y-3946395D01*
X117311Y-3945238D01*
X160667Y-3749673D01*
X162901Y-3741059D01*
X223878Y-3536240D01*
X224346Y-3534715D01*
X284680Y-3343362D01*
X287446Y-3335508D01*
X365035Y-3136663D01*
X365927Y-3134446D01*
X442731Y-2949024D01*
X445909Y-2941979D01*
X539601Y-2750329D01*
X540924Y-2747708D01*
X633643Y-2569596D01*
X637145Y-2563317D01*
X746283Y-2380158D01*
X748167Y-2377102D01*
X856066Y-2207735D01*
X859741Y-2202289D01*
X983625Y-2028778D01*
X986100Y-2025435D01*
X1108385Y-1866069D01*
X1112141Y-1861412D01*
X1249870Y-1698796D01*
X1253084Y-1695149D01*
X1388767Y-1547076D01*
X1392479Y-1543199D01*
X1543199Y-1392479D01*
X1547076Y-1388767D01*
X1695149Y-1253084D01*
X1698803Y-1249865D01*
X1768273Y-1191027D01*
X1861412Y-1112141D01*
X1866069Y-1108385D01*
X2025435Y-986100D01*
X2028778Y-983625D01*
X2202289Y-859741D01*
X2207735Y-856066D01*
X2377102Y-748167D01*
X2380158Y-746283D01*
X2563323Y-637141D01*
X2569596Y-633643D01*
X2747708Y-540924D01*
X2750329Y-539601D01*
X2941979Y-445909D01*
X2949024Y-442731D01*
X3134446Y-365927D01*
X3136663Y-365035D01*
X3335508Y-287446D01*
X3343362Y-284680D01*
X3534715Y-224346D01*
X3536240Y-223878D01*
X3741059Y-162901D01*
X3749673Y-160667D01*
X3945238Y-117311D01*
X3946395Y-117062D01*
X4155735Y-73168D01*
X4165116Y-71569D01*
X4363234Y-45486D01*
X4576580Y-18892D01*
X4586620Y-18049D01*
X4782375Y-9501D01*
X4992831Y-796D01*
X4997390Y-608D01*
X5002596Y-500D01*
X64997404Y-500D01*
X65002610Y-608D01*
G37*
%TD.AperFunction*%
%TA.AperFunction,Conductor*%
G36*
X6728800Y-35801350D02*
G01*
X6777191Y-35847675D01*
X6795000Y-35912255D01*
X6795000Y-36369500D01*
X6778119Y-36432500D01*
X6732000Y-36478619D01*
X6669000Y-36495500D01*
X5794933Y-36495500D01*
X5785999Y-36497278D01*
X5728807Y-36495405D01*
X5678341Y-36468430D01*
X5645010Y-36421917D01*
X5602698Y-36319767D01*
X5600000Y-36316251D01*
X5600000Y-36013934D01*
X5652000Y-36000000D01*
X6295001Y-36000000D01*
X6302621Y-35992379D01*
X6305305Y-35979385D01*
X6334534Y-35937642D01*
X6377906Y-35910890D01*
X6387657Y-35907340D01*
X6520924Y-35858836D01*
X6588080Y-35814667D01*
X6599762Y-35806984D01*
X6663504Y-35786375D01*
X6728800Y-35801350D01*
G37*
%TD.AperFunction*%
%TA.AperFunction,Conductor*%
G36*
X7937000Y-34216881D02*
G01*
X7983119Y-34263000D01*
X8000000Y-34326000D01*
X8000000Y-35919208D01*
X7990409Y-35967426D01*
X7963095Y-36008302D01*
X7841738Y-36129660D01*
X7739094Y-36232304D01*
X7688935Y-36263041D01*
X7630288Y-36267657D01*
X7575938Y-36245144D01*
X7537732Y-36200411D01*
X7523999Y-36143208D01*
X7523999Y-35924982D01*
X7509263Y-35850894D01*
X7453123Y-35766875D01*
X7369106Y-35710736D01*
X7295019Y-35696000D01*
X7008190Y-35696000D01*
X6950987Y-35682267D01*
X6906254Y-35644061D01*
X6883741Y-35589710D01*
X6888357Y-35531063D01*
X6919093Y-35480906D01*
X7000000Y-35400000D01*
X7000000Y-34326000D01*
X7016881Y-34263000D01*
X7063000Y-34216881D01*
X7126000Y-34200000D01*
X7874000Y-34200000D01*
X7937000Y-34216881D01*
G37*
%TD.AperFunction*%
%TA.AperFunction,Conductor*%
G36*
X29437000Y-52016881D02*
G01*
X29483119Y-52063000D01*
X29500000Y-52126000D01*
X29500000Y-56374000D01*
X29483119Y-56437000D01*
X29437000Y-56483119D01*
X29374000Y-56500000D01*
X28977658Y-56500000D01*
X28919256Y-56485648D01*
X28874159Y-56445861D01*
X28852640Y-56389703D01*
X28859602Y-56329968D01*
X28897546Y-56228234D01*
X28904000Y-56168211D01*
X28904000Y-55920000D01*
X27951000Y-55920000D01*
X27888000Y-55903119D01*
X27841881Y-55857000D01*
X27825000Y-55794000D01*
X27825000Y-54716001D01*
X27701787Y-54716001D01*
X27641764Y-54722452D01*
X27505976Y-54773099D01*
X27389952Y-54859952D01*
X27303099Y-54975976D01*
X27294055Y-55000226D01*
X27252941Y-55055973D01*
X27188574Y-55081564D01*
X27120406Y-55069265D01*
X27069040Y-55022793D01*
X27050000Y-54956193D01*
X27050000Y-54716000D01*
X28325000Y-54716000D01*
X28325000Y-55420000D01*
X28903999Y-55420000D01*
X28903999Y-55171787D01*
X28897547Y-55111764D01*
X28846900Y-54975976D01*
X28760047Y-54859952D01*
X28644026Y-54773101D01*
X28508232Y-54722453D01*
X28448211Y-54716000D01*
X28325000Y-54716000D01*
X27050000Y-54716000D01*
X27050000Y-54575447D01*
X27063733Y-54518244D01*
X27101940Y-54473510D01*
X27156290Y-54450998D01*
X27163427Y-54449868D01*
X27274771Y-54393135D01*
X27278864Y-54389042D01*
X27291258Y-54376649D01*
X27347742Y-54344037D01*
X27412964Y-54344037D01*
X27469448Y-54376649D01*
X27485524Y-54392725D01*
X27596730Y-54449387D01*
X27609999Y-54451488D01*
X27610000Y-54451488D01*
X27610000Y-54150000D01*
X28110000Y-54150000D01*
X28110000Y-54451488D01*
X28123269Y-54449387D01*
X28234475Y-54392725D01*
X28322725Y-54304475D01*
X28379386Y-54193271D01*
X28386240Y-54150000D01*
X28110000Y-54150000D01*
X27610000Y-54150000D01*
X27610000Y-53348512D01*
X27609999Y-53348511D01*
X28110000Y-53348511D01*
X28110000Y-53650000D01*
X28386239Y-53650000D01*
X28379386Y-53606728D01*
X28322725Y-53495524D01*
X28234475Y-53407274D01*
X28123269Y-53350612D01*
X28110000Y-53348511D01*
X27609999Y-53348511D01*
X27596730Y-53350612D01*
X27485524Y-53407274D01*
X27469448Y-53423351D01*
X27412964Y-53455963D01*
X27347742Y-53455963D01*
X27291258Y-53423351D01*
X27274773Y-53406866D01*
X27163427Y-53350132D01*
X27156290Y-53349001D01*
X27101940Y-53326490D01*
X27063733Y-53281756D01*
X27050000Y-53224553D01*
X27050000Y-52502190D01*
X27059591Y-52453972D01*
X27086905Y-52413095D01*
X27463095Y-52036905D01*
X27503972Y-52009591D01*
X27552190Y-52000000D01*
X29374000Y-52000000D01*
X29437000Y-52016881D01*
G37*
%TD.AperFunction*%
%TA.AperFunction,Conductor*%
G36*
X8696028Y-40859591D02*
G01*
X8736905Y-40886905D01*
X9034990Y-41184990D01*
X9062304Y-41225867D01*
X9080722Y-41270332D01*
X9089623Y-41331721D01*
X9068153Y-41389917D01*
X9021516Y-41430817D01*
X8920523Y-41482275D01*
X8832274Y-41570524D01*
X8775613Y-41681728D01*
X8768760Y-41725000D01*
X9419000Y-41725000D01*
X9482000Y-41741881D01*
X9528119Y-41788000D01*
X9545000Y-41851000D01*
X9545000Y-42526488D01*
X9558269Y-42524387D01*
X9616798Y-42494566D01*
X9678948Y-42480930D01*
X9739835Y-42499401D01*
X9783935Y-42545267D01*
X9800000Y-42606833D01*
X9800000Y-42869999D01*
X9783119Y-42932999D01*
X9737000Y-42979118D01*
X9674000Y-42995999D01*
X9450000Y-42995999D01*
X9450000Y-43673999D01*
X9433119Y-43736999D01*
X9387000Y-43783118D01*
X9324000Y-43799999D01*
X9076000Y-43799999D01*
X9013000Y-43783118D01*
X8966881Y-43736999D01*
X8950000Y-43673999D01*
X8950000Y-42996000D01*
X8655707Y-42996000D01*
X8561101Y-43010983D01*
X8447072Y-43069083D01*
X8356584Y-43159571D01*
X8298484Y-43273599D01*
X8283500Y-43368206D01*
X8283500Y-43412321D01*
X8269767Y-43469524D01*
X8231561Y-43514257D01*
X8177211Y-43536770D01*
X8118564Y-43532154D01*
X8068405Y-43501417D01*
X7979309Y-43412321D01*
X7866544Y-43299556D01*
X7834205Y-43244067D01*
X7832174Y-43236726D01*
X7804655Y-43172527D01*
X7795198Y-43160711D01*
X7778958Y-43134324D01*
X7768256Y-43110891D01*
X7764822Y-43102599D01*
X7758940Y-43086828D01*
X7747342Y-43055732D01*
X7747341Y-43055730D01*
X7744496Y-43051929D01*
X7730748Y-43028758D01*
X7728777Y-43024442D01*
X7728776Y-43024441D01*
X7705775Y-42997896D01*
X7682944Y-42959418D01*
X7675000Y-42915385D01*
X7675000Y-42225000D01*
X8768760Y-42225000D01*
X8775613Y-42268271D01*
X8832274Y-42379475D01*
X8920524Y-42467725D01*
X9031730Y-42524387D01*
X9044999Y-42526488D01*
X9045000Y-42526488D01*
X9045000Y-42225000D01*
X8768760Y-42225000D01*
X7675000Y-42225000D01*
X7675000Y-41127190D01*
X7684591Y-41078972D01*
X7711905Y-41038095D01*
X7863095Y-40886905D01*
X7903972Y-40859591D01*
X7952190Y-40850000D01*
X8647810Y-40850000D01*
X8696028Y-40859591D01*
G37*
%TD.AperFunction*%
%TA.AperFunction,Conductor*%
G36*
X17437000Y-50016881D02*
G01*
X17483119Y-50063000D01*
X17500000Y-50126000D01*
X17500000Y-52874000D01*
X17483119Y-52937000D01*
X17437000Y-52983119D01*
X17374000Y-53000000D01*
X16856122Y-53000000D01*
X16799722Y-52986672D01*
X16755253Y-52949508D01*
X16710404Y-52889595D01*
X16594268Y-52802658D01*
X16458339Y-52751959D01*
X16398255Y-52745500D01*
X14125999Y-52745500D01*
X14063000Y-52728620D01*
X14016881Y-52682501D01*
X14000000Y-52619501D01*
X14000000Y-52380000D01*
X14016881Y-52317000D01*
X14063000Y-52270881D01*
X14126000Y-52254000D01*
X14723000Y-52254000D01*
X14723000Y-51627000D01*
X14977000Y-51627000D01*
X14977000Y-52254000D01*
X16398213Y-52253999D01*
X16458235Y-52247547D01*
X16594023Y-52196900D01*
X16710047Y-52110047D01*
X16796898Y-51994026D01*
X16847546Y-51858232D01*
X16854000Y-51798211D01*
X16854000Y-51627000D01*
X14977000Y-51627000D01*
X14723000Y-51627000D01*
X14723000Y-51373000D01*
X14977000Y-51373000D01*
X16853999Y-51373000D01*
X16853999Y-51201787D01*
X16847547Y-51141764D01*
X16796900Y-51005976D01*
X16710047Y-50889952D01*
X16594026Y-50803101D01*
X16458232Y-50752453D01*
X16398210Y-50746000D01*
X14977000Y-50746001D01*
X14977000Y-51373000D01*
X14723000Y-51373000D01*
X14723000Y-50746001D01*
X14126000Y-50746001D01*
X14063000Y-50729120D01*
X14016881Y-50683001D01*
X14000000Y-50620001D01*
X14000000Y-50126000D01*
X14016881Y-50063000D01*
X14063000Y-50016881D01*
X14126000Y-50000000D01*
X17374000Y-50000000D01*
X17437000Y-50016881D01*
G37*
%TD.AperFunction*%
%TA.AperFunction,Conductor*%
G36*
X63688000Y-30766613D02*
G01*
X63733387Y-30812000D01*
X63750000Y-30874000D01*
X63750000Y-32376000D01*
X63733387Y-32438000D01*
X63688000Y-32483387D01*
X63626000Y-32500000D01*
X61624000Y-32500000D01*
X61562000Y-32483387D01*
X61516613Y-32438000D01*
X61500000Y-32376000D01*
X61500000Y-30874000D01*
X61516613Y-30812000D01*
X61562000Y-30766613D01*
X61624000Y-30750000D01*
X63626000Y-30750000D01*
X63688000Y-30766613D01*
G37*
%TD.AperFunction*%
%TA.AperFunction,Conductor*%
G36*
X13300269Y-52515774D02*
G01*
X13346028Y-52559146D01*
X13365045Y-52619258D01*
X13352561Y-52681057D01*
X13311699Y-52729071D01*
X13252692Y-52751278D01*
X13241764Y-52752452D01*
X13105976Y-52803099D01*
X12989952Y-52889952D01*
X12903101Y-53005973D01*
X12852453Y-53141767D01*
X12846000Y-53201789D01*
X12846000Y-53250000D01*
X13500000Y-53250000D01*
X13500000Y-53500000D01*
X15100000Y-53500000D01*
X15100000Y-54253999D01*
X16398213Y-54253999D01*
X16458235Y-54247547D01*
X16594023Y-54196900D01*
X16710047Y-54110047D01*
X16796898Y-53994026D01*
X16847546Y-53858232D01*
X16853999Y-53798210D01*
X16853999Y-53626001D01*
X16870880Y-53563000D01*
X16916999Y-53516881D01*
X16979999Y-53500000D01*
X17374000Y-53500000D01*
X17437000Y-53516881D01*
X17483119Y-53563000D01*
X17500000Y-53626000D01*
X17500000Y-54874000D01*
X17483119Y-54937000D01*
X17437000Y-54983119D01*
X17374000Y-55000000D01*
X12126000Y-55000000D01*
X12063000Y-54983119D01*
X12016881Y-54937000D01*
X12000000Y-54874000D01*
X12000000Y-53750000D01*
X12846001Y-53750000D01*
X12846001Y-53798213D01*
X12852452Y-53858235D01*
X12903099Y-53994023D01*
X12989952Y-54110047D01*
X13105973Y-54196898D01*
X13241767Y-54247546D01*
X13301789Y-54254000D01*
X14600000Y-54254000D01*
X14600000Y-53750000D01*
X12846001Y-53750000D01*
X12000000Y-53750000D01*
X12000000Y-52626000D01*
X12016881Y-52563000D01*
X12063000Y-52516881D01*
X12126000Y-52500000D01*
X13239226Y-52500000D01*
X13300269Y-52515774D01*
G37*
%TD.AperFunction*%
%TA.AperFunction,Conductor*%
G36*
X56938000Y-9516613D02*
G01*
X56983387Y-9562000D01*
X57000000Y-9624000D01*
X57000000Y-10376000D01*
X56983387Y-10438000D01*
X56938000Y-10483387D01*
X56876000Y-10500000D01*
X55374000Y-10500000D01*
X55312000Y-10483387D01*
X55266613Y-10438000D01*
X55250000Y-10376000D01*
X55250000Y-9624000D01*
X55266613Y-9562000D01*
X55312000Y-9516613D01*
X55374000Y-9500000D01*
X56876000Y-9500000D01*
X56938000Y-9516613D01*
G37*
%TD.AperFunction*%
%TA.AperFunction,Conductor*%
G36*
X7533396Y-43259592D02*
G01*
X7582074Y-43305937D01*
X7600000Y-43370714D01*
X7600000Y-43400000D01*
X7963097Y-43763097D01*
X7990409Y-43803972D01*
X8000000Y-43852190D01*
X8000000Y-45092008D01*
X7988426Y-45144759D01*
X7975000Y-45162495D01*
X7975000Y-45200000D01*
X7475000Y-45200000D01*
X7475000Y-45171446D01*
X7418294Y-45180427D01*
X7406833Y-45186267D01*
X7349630Y-45200000D01*
X7052190Y-45200000D01*
X7003972Y-45190409D01*
X6963095Y-45163095D01*
X6836905Y-45036905D01*
X6809591Y-44996028D01*
X6800000Y-44947810D01*
X6800000Y-44288889D01*
X6816881Y-44225889D01*
X6877509Y-44120878D01*
X6902361Y-44037866D01*
X6928095Y-43951909D01*
X6938351Y-43775831D01*
X6907723Y-43602134D01*
X6854999Y-43479905D01*
X6845174Y-43419017D01*
X6865423Y-43360761D01*
X6910894Y-43319094D01*
X6970694Y-43303999D01*
X7295018Y-43303999D01*
X7369105Y-43289263D01*
X7403998Y-43265949D01*
X7467817Y-43244866D01*
X7533396Y-43259592D01*
G37*
%TD.AperFunction*%
%TA.AperFunction,Conductor*%
G36*
X6732000Y-42521380D02*
G01*
X6778119Y-42567499D01*
X6795000Y-42630499D01*
X6795000Y-42874000D01*
X6778119Y-42937000D01*
X6732000Y-42983119D01*
X6669000Y-43000000D01*
X6200000Y-43000000D01*
X5800000Y-42600000D01*
X5800000Y-42504500D01*
X6669001Y-42504499D01*
X6732000Y-42521380D01*
G37*
%TD.AperFunction*%
%TA.AperFunction,Conductor*%
G36*
X56938000Y-8016613D02*
G01*
X56983387Y-8062000D01*
X57000000Y-8124000D01*
X57000000Y-8876000D01*
X56983387Y-8938000D01*
X56938000Y-8983387D01*
X56876000Y-9000000D01*
X55374000Y-9000000D01*
X55312000Y-8983387D01*
X55266613Y-8938000D01*
X55250000Y-8876000D01*
X55250000Y-8124000D01*
X55266613Y-8062000D01*
X55312000Y-8016613D01*
X55374000Y-8000000D01*
X56876000Y-8000000D01*
X56938000Y-8016613D01*
G37*
%TD.AperFunction*%
%TA.AperFunction,Conductor*%
G36*
X13996028Y-57009591D02*
G01*
X14036905Y-57036905D01*
X14463095Y-57463095D01*
X14490409Y-57503972D01*
X14500000Y-57552190D01*
X14500000Y-60937900D01*
X14483119Y-61000900D01*
X14437000Y-61047019D01*
X14374000Y-61063900D01*
X11860000Y-61063900D01*
X11834143Y-61061218D01*
X11824918Y-61059283D01*
X11795654Y-61062932D01*
X11780738Y-61063858D01*
X11761206Y-61067117D01*
X11756060Y-61067867D01*
X11699449Y-61074924D01*
X11649279Y-61102075D01*
X11644652Y-61104457D01*
X11593394Y-61129516D01*
X11554733Y-61171513D01*
X11551128Y-61175269D01*
X11452292Y-61274105D01*
X11395811Y-61306716D01*
X11330588Y-61306716D01*
X11274104Y-61274104D01*
X11036905Y-61036905D01*
X11009591Y-60996028D01*
X11000000Y-60947810D01*
X11000000Y-59250000D01*
X12083501Y-59250000D01*
X12083501Y-59973213D01*
X12089952Y-60033235D01*
X12140599Y-60169023D01*
X12227452Y-60285047D01*
X12343473Y-60371898D01*
X12479267Y-60422546D01*
X12539289Y-60429000D01*
X12750000Y-60429000D01*
X12750000Y-59250000D01*
X13250000Y-59250000D01*
X13250000Y-60428999D01*
X13460713Y-60428999D01*
X13520735Y-60422547D01*
X13656523Y-60371900D01*
X13772547Y-60285047D01*
X13859398Y-60169026D01*
X13910046Y-60033232D01*
X13916500Y-59973211D01*
X13916500Y-59250000D01*
X13250000Y-59250000D01*
X12750000Y-59250000D01*
X12083501Y-59250000D01*
X11000000Y-59250000D01*
X11000000Y-58750000D01*
X12083500Y-58750000D01*
X12750000Y-58750000D01*
X12750000Y-57571001D01*
X12539287Y-57571001D01*
X12479264Y-57577452D01*
X12343476Y-57628099D01*
X12227452Y-57714952D01*
X12140601Y-57830973D01*
X12089953Y-57966767D01*
X12083500Y-58026789D01*
X12083500Y-58750000D01*
X11000000Y-58750000D01*
X11000000Y-57571000D01*
X13250000Y-57571000D01*
X13250000Y-58750000D01*
X13916499Y-58750000D01*
X13916499Y-58026787D01*
X13910047Y-57966764D01*
X13859400Y-57830976D01*
X13772547Y-57714952D01*
X13656526Y-57628101D01*
X13520732Y-57577453D01*
X13460711Y-57571000D01*
X13250000Y-57571000D01*
X11000000Y-57571000D01*
X11000000Y-57552190D01*
X11009591Y-57503972D01*
X11036905Y-57463095D01*
X11463095Y-57036905D01*
X11503972Y-57009591D01*
X11552190Y-57000000D01*
X13947810Y-57000000D01*
X13996028Y-57009591D01*
G37*
%TD.AperFunction*%
M02*
