%TF.GenerationSoftware,KiCad,Pcbnew,7.0.1*%
%TF.CreationDate,2023-05-20T22:45:57-07:00*%
%TF.ProjectId,ai-camera-rev3,61692d63-616d-4657-9261-2d726576332e,rev3*%
%TF.SameCoordinates,PX5a995c0PY2aea540*%
%TF.FileFunction,AssemblyDrawing,Top*%
%FSLAX46Y46*%
G04 Gerber Fmt 4.6, Leading zero omitted, Abs format (unit mm)*
G04 Created by KiCad (PCBNEW 7.0.1) date 2023-05-20 22:45:57*
%MOMM*%
%LPD*%
G01*
G04 APERTURE LIST*
%ADD10C,0.040000*%
%ADD11C,0.080000*%
%ADD12C,0.150000*%
%ADD13C,0.075000*%
%ADD14C,0.060000*%
%ADD15C,0.130000*%
%ADD16C,0.050000*%
%ADD17C,0.100000*%
G04 APERTURE END LIST*
D10*
X12150333Y-47091845D02*
X12138429Y-47103750D01*
X12138429Y-47103750D02*
X12102714Y-47115654D01*
X12102714Y-47115654D02*
X12078905Y-47115654D01*
X12078905Y-47115654D02*
X12043191Y-47103750D01*
X12043191Y-47103750D02*
X12019381Y-47079940D01*
X12019381Y-47079940D02*
X12007476Y-47056130D01*
X12007476Y-47056130D02*
X11995572Y-47008511D01*
X11995572Y-47008511D02*
X11995572Y-46972797D01*
X11995572Y-46972797D02*
X12007476Y-46925178D01*
X12007476Y-46925178D02*
X12019381Y-46901369D01*
X12019381Y-46901369D02*
X12043191Y-46877559D01*
X12043191Y-46877559D02*
X12078905Y-46865654D01*
X12078905Y-46865654D02*
X12102714Y-46865654D01*
X12102714Y-46865654D02*
X12138429Y-46877559D01*
X12138429Y-46877559D02*
X12150333Y-46889464D01*
X12376524Y-46865654D02*
X12257476Y-46865654D01*
X12257476Y-46865654D02*
X12245572Y-46984702D01*
X12245572Y-46984702D02*
X12257476Y-46972797D01*
X12257476Y-46972797D02*
X12281286Y-46960892D01*
X12281286Y-46960892D02*
X12340810Y-46960892D01*
X12340810Y-46960892D02*
X12364619Y-46972797D01*
X12364619Y-46972797D02*
X12376524Y-46984702D01*
X12376524Y-46984702D02*
X12388429Y-47008511D01*
X12388429Y-47008511D02*
X12388429Y-47068035D01*
X12388429Y-47068035D02*
X12376524Y-47091845D01*
X12376524Y-47091845D02*
X12364619Y-47103750D01*
X12364619Y-47103750D02*
X12340810Y-47115654D01*
X12340810Y-47115654D02*
X12281286Y-47115654D01*
X12281286Y-47115654D02*
X12257476Y-47103750D01*
X12257476Y-47103750D02*
X12245572Y-47091845D01*
D11*
X51380952Y-60231309D02*
X51380952Y-60636071D01*
X51380952Y-60636071D02*
X51404762Y-60683690D01*
X51404762Y-60683690D02*
X51428571Y-60707500D01*
X51428571Y-60707500D02*
X51476190Y-60731309D01*
X51476190Y-60731309D02*
X51571428Y-60731309D01*
X51571428Y-60731309D02*
X51619047Y-60707500D01*
X51619047Y-60707500D02*
X51642857Y-60683690D01*
X51642857Y-60683690D02*
X51666666Y-60636071D01*
X51666666Y-60636071D02*
X51666666Y-60231309D01*
X52166667Y-60731309D02*
X51880953Y-60731309D01*
X52023810Y-60731309D02*
X52023810Y-60231309D01*
X52023810Y-60231309D02*
X51976191Y-60302738D01*
X51976191Y-60302738D02*
X51928572Y-60350357D01*
X51928572Y-60350357D02*
X51880953Y-60374166D01*
X52357143Y-60278928D02*
X52380952Y-60255119D01*
X52380952Y-60255119D02*
X52428571Y-60231309D01*
X52428571Y-60231309D02*
X52547619Y-60231309D01*
X52547619Y-60231309D02*
X52595238Y-60255119D01*
X52595238Y-60255119D02*
X52619047Y-60278928D01*
X52619047Y-60278928D02*
X52642857Y-60326547D01*
X52642857Y-60326547D02*
X52642857Y-60374166D01*
X52642857Y-60374166D02*
X52619047Y-60445595D01*
X52619047Y-60445595D02*
X52333333Y-60731309D01*
X52333333Y-60731309D02*
X52642857Y-60731309D01*
D12*
X4238095Y-65462619D02*
X4238095Y-64462619D01*
X4238095Y-64938809D02*
X4809523Y-64938809D01*
X4809523Y-65462619D02*
X4809523Y-64462619D01*
X5714285Y-64795952D02*
X5714285Y-65462619D01*
X5476190Y-64415000D02*
X5238095Y-65129285D01*
X5238095Y-65129285D02*
X5857142Y-65129285D01*
X40433333Y-64373366D02*
X40433333Y-65166700D01*
X40433333Y-65166700D02*
X40480000Y-65260033D01*
X40480000Y-65260033D02*
X40526666Y-65306700D01*
X40526666Y-65306700D02*
X40620000Y-65353366D01*
X40620000Y-65353366D02*
X40806666Y-65353366D01*
X40806666Y-65353366D02*
X40900000Y-65306700D01*
X40900000Y-65306700D02*
X40946666Y-65260033D01*
X40946666Y-65260033D02*
X40993333Y-65166700D01*
X40993333Y-65166700D02*
X40993333Y-64373366D01*
X41366667Y-64373366D02*
X41973333Y-64373366D01*
X41973333Y-64373366D02*
X41646667Y-64746700D01*
X41646667Y-64746700D02*
X41786667Y-64746700D01*
X41786667Y-64746700D02*
X41880000Y-64793366D01*
X41880000Y-64793366D02*
X41926667Y-64840033D01*
X41926667Y-64840033D02*
X41973333Y-64933366D01*
X41973333Y-64933366D02*
X41973333Y-65166700D01*
X41973333Y-65166700D02*
X41926667Y-65260033D01*
X41926667Y-65260033D02*
X41880000Y-65306700D01*
X41880000Y-65306700D02*
X41786667Y-65353366D01*
X41786667Y-65353366D02*
X41506667Y-65353366D01*
X41506667Y-65353366D02*
X41413333Y-65306700D01*
X41413333Y-65306700D02*
X41366667Y-65260033D01*
X4238095Y-5462619D02*
X4238095Y-4462619D01*
X4238095Y-4938809D02*
X4809523Y-4938809D01*
X4809523Y-5462619D02*
X4809523Y-4462619D01*
X5809523Y-5462619D02*
X5238095Y-5462619D01*
X5523809Y-5462619D02*
X5523809Y-4462619D01*
X5523809Y-4462619D02*
X5428571Y-4605476D01*
X5428571Y-4605476D02*
X5333333Y-4700714D01*
X5333333Y-4700714D02*
X5238095Y-4748333D01*
D13*
X22231309Y-64833333D02*
X22231309Y-65071428D01*
X22231309Y-65071428D02*
X21731309Y-65071428D01*
X21731309Y-64714285D02*
X21731309Y-64404761D01*
X21731309Y-64404761D02*
X21921785Y-64571428D01*
X21921785Y-64571428D02*
X21921785Y-64499999D01*
X21921785Y-64499999D02*
X21945595Y-64452380D01*
X21945595Y-64452380D02*
X21969404Y-64428571D01*
X21969404Y-64428571D02*
X22017023Y-64404761D01*
X22017023Y-64404761D02*
X22136071Y-64404761D01*
X22136071Y-64404761D02*
X22183690Y-64428571D01*
X22183690Y-64428571D02*
X22207500Y-64452380D01*
X22207500Y-64452380D02*
X22231309Y-64499999D01*
X22231309Y-64499999D02*
X22231309Y-64642856D01*
X22231309Y-64642856D02*
X22207500Y-64690475D01*
X22207500Y-64690475D02*
X22183690Y-64714285D01*
D10*
X25745845Y-59046714D02*
X25757750Y-59058618D01*
X25757750Y-59058618D02*
X25769654Y-59094333D01*
X25769654Y-59094333D02*
X25769654Y-59118142D01*
X25769654Y-59118142D02*
X25757750Y-59153856D01*
X25757750Y-59153856D02*
X25733940Y-59177666D01*
X25733940Y-59177666D02*
X25710130Y-59189571D01*
X25710130Y-59189571D02*
X25662511Y-59201475D01*
X25662511Y-59201475D02*
X25626797Y-59201475D01*
X25626797Y-59201475D02*
X25579178Y-59189571D01*
X25579178Y-59189571D02*
X25555369Y-59177666D01*
X25555369Y-59177666D02*
X25531559Y-59153856D01*
X25531559Y-59153856D02*
X25519654Y-59118142D01*
X25519654Y-59118142D02*
X25519654Y-59094333D01*
X25519654Y-59094333D02*
X25531559Y-59058618D01*
X25531559Y-59058618D02*
X25543464Y-59046714D01*
X25769654Y-58808618D02*
X25769654Y-58951475D01*
X25769654Y-58880047D02*
X25519654Y-58880047D01*
X25519654Y-58880047D02*
X25555369Y-58903856D01*
X25555369Y-58903856D02*
X25579178Y-58927666D01*
X25579178Y-58927666D02*
X25591083Y-58951475D01*
X25602988Y-58594333D02*
X25769654Y-58594333D01*
X25507750Y-58653857D02*
X25686321Y-58713380D01*
X25686321Y-58713380D02*
X25686321Y-58558619D01*
D14*
X5285047Y-32566666D02*
X5094571Y-32699999D01*
X5285047Y-32795237D02*
X4885047Y-32795237D01*
X4885047Y-32795237D02*
X4885047Y-32642856D01*
X4885047Y-32642856D02*
X4904095Y-32604761D01*
X4904095Y-32604761D02*
X4923142Y-32585714D01*
X4923142Y-32585714D02*
X4961238Y-32566666D01*
X4961238Y-32566666D02*
X5018380Y-32566666D01*
X5018380Y-32566666D02*
X5056476Y-32585714D01*
X5056476Y-32585714D02*
X5075523Y-32604761D01*
X5075523Y-32604761D02*
X5094571Y-32642856D01*
X5094571Y-32642856D02*
X5094571Y-32795237D01*
X5285047Y-32376190D02*
X5285047Y-32299999D01*
X5285047Y-32299999D02*
X5266000Y-32261904D01*
X5266000Y-32261904D02*
X5246952Y-32242856D01*
X5246952Y-32242856D02*
X5189809Y-32204761D01*
X5189809Y-32204761D02*
X5113619Y-32185714D01*
X5113619Y-32185714D02*
X4961238Y-32185714D01*
X4961238Y-32185714D02*
X4923142Y-32204761D01*
X4923142Y-32204761D02*
X4904095Y-32223809D01*
X4904095Y-32223809D02*
X4885047Y-32261904D01*
X4885047Y-32261904D02*
X4885047Y-32338095D01*
X4885047Y-32338095D02*
X4904095Y-32376190D01*
X4904095Y-32376190D02*
X4923142Y-32395237D01*
X4923142Y-32395237D02*
X4961238Y-32414285D01*
X4961238Y-32414285D02*
X5056476Y-32414285D01*
X5056476Y-32414285D02*
X5094571Y-32395237D01*
X5094571Y-32395237D02*
X5113619Y-32376190D01*
X5113619Y-32376190D02*
X5132666Y-32338095D01*
X5132666Y-32338095D02*
X5132666Y-32261904D01*
X5132666Y-32261904D02*
X5113619Y-32223809D01*
X5113619Y-32223809D02*
X5094571Y-32204761D01*
X5094571Y-32204761D02*
X5056476Y-32185714D01*
D10*
X43478333Y-61711845D02*
X43466429Y-61723750D01*
X43466429Y-61723750D02*
X43430714Y-61735654D01*
X43430714Y-61735654D02*
X43406905Y-61735654D01*
X43406905Y-61735654D02*
X43371191Y-61723750D01*
X43371191Y-61723750D02*
X43347381Y-61699940D01*
X43347381Y-61699940D02*
X43335476Y-61676130D01*
X43335476Y-61676130D02*
X43323572Y-61628511D01*
X43323572Y-61628511D02*
X43323572Y-61592797D01*
X43323572Y-61592797D02*
X43335476Y-61545178D01*
X43335476Y-61545178D02*
X43347381Y-61521369D01*
X43347381Y-61521369D02*
X43371191Y-61497559D01*
X43371191Y-61497559D02*
X43406905Y-61485654D01*
X43406905Y-61485654D02*
X43430714Y-61485654D01*
X43430714Y-61485654D02*
X43466429Y-61497559D01*
X43466429Y-61497559D02*
X43478333Y-61509464D01*
X43692619Y-61485654D02*
X43645000Y-61485654D01*
X43645000Y-61485654D02*
X43621191Y-61497559D01*
X43621191Y-61497559D02*
X43609286Y-61509464D01*
X43609286Y-61509464D02*
X43585476Y-61545178D01*
X43585476Y-61545178D02*
X43573572Y-61592797D01*
X43573572Y-61592797D02*
X43573572Y-61688035D01*
X43573572Y-61688035D02*
X43585476Y-61711845D01*
X43585476Y-61711845D02*
X43597381Y-61723750D01*
X43597381Y-61723750D02*
X43621191Y-61735654D01*
X43621191Y-61735654D02*
X43668810Y-61735654D01*
X43668810Y-61735654D02*
X43692619Y-61723750D01*
X43692619Y-61723750D02*
X43704524Y-61711845D01*
X43704524Y-61711845D02*
X43716429Y-61688035D01*
X43716429Y-61688035D02*
X43716429Y-61628511D01*
X43716429Y-61628511D02*
X43704524Y-61604702D01*
X43704524Y-61604702D02*
X43692619Y-61592797D01*
X43692619Y-61592797D02*
X43668810Y-61580892D01*
X43668810Y-61580892D02*
X43621191Y-61580892D01*
X43621191Y-61580892D02*
X43597381Y-61592797D01*
X43597381Y-61592797D02*
X43585476Y-61604702D01*
X43585476Y-61604702D02*
X43573572Y-61628511D01*
X13582857Y-66140280D02*
X13496190Y-66016471D01*
X13434285Y-66140280D02*
X13434285Y-65880280D01*
X13434285Y-65880280D02*
X13533333Y-65880280D01*
X13533333Y-65880280D02*
X13558095Y-65892661D01*
X13558095Y-65892661D02*
X13570476Y-65905042D01*
X13570476Y-65905042D02*
X13582857Y-65929804D01*
X13582857Y-65929804D02*
X13582857Y-65966947D01*
X13582857Y-65966947D02*
X13570476Y-65991709D01*
X13570476Y-65991709D02*
X13558095Y-66004090D01*
X13558095Y-66004090D02*
X13533333Y-66016471D01*
X13533333Y-66016471D02*
X13434285Y-66016471D01*
X13681904Y-65905042D02*
X13694285Y-65892661D01*
X13694285Y-65892661D02*
X13719047Y-65880280D01*
X13719047Y-65880280D02*
X13780952Y-65880280D01*
X13780952Y-65880280D02*
X13805714Y-65892661D01*
X13805714Y-65892661D02*
X13818095Y-65905042D01*
X13818095Y-65905042D02*
X13830476Y-65929804D01*
X13830476Y-65929804D02*
X13830476Y-65954566D01*
X13830476Y-65954566D02*
X13818095Y-65991709D01*
X13818095Y-65991709D02*
X13669523Y-66140280D01*
X13669523Y-66140280D02*
X13830476Y-66140280D01*
X14078095Y-66140280D02*
X13929523Y-66140280D01*
X14003809Y-66140280D02*
X14003809Y-65880280D01*
X14003809Y-65880280D02*
X13979047Y-65917423D01*
X13979047Y-65917423D02*
X13954285Y-65942185D01*
X13954285Y-65942185D02*
X13929523Y-65954566D01*
D14*
X3685047Y-32566666D02*
X3494571Y-32699999D01*
X3685047Y-32795237D02*
X3285047Y-32795237D01*
X3285047Y-32795237D02*
X3285047Y-32642856D01*
X3285047Y-32642856D02*
X3304095Y-32604761D01*
X3304095Y-32604761D02*
X3323142Y-32585714D01*
X3323142Y-32585714D02*
X3361238Y-32566666D01*
X3361238Y-32566666D02*
X3418380Y-32566666D01*
X3418380Y-32566666D02*
X3456476Y-32585714D01*
X3456476Y-32585714D02*
X3475523Y-32604761D01*
X3475523Y-32604761D02*
X3494571Y-32642856D01*
X3494571Y-32642856D02*
X3494571Y-32795237D01*
X3456476Y-32338095D02*
X3437428Y-32376190D01*
X3437428Y-32376190D02*
X3418380Y-32395237D01*
X3418380Y-32395237D02*
X3380285Y-32414285D01*
X3380285Y-32414285D02*
X3361238Y-32414285D01*
X3361238Y-32414285D02*
X3323142Y-32395237D01*
X3323142Y-32395237D02*
X3304095Y-32376190D01*
X3304095Y-32376190D02*
X3285047Y-32338095D01*
X3285047Y-32338095D02*
X3285047Y-32261904D01*
X3285047Y-32261904D02*
X3304095Y-32223809D01*
X3304095Y-32223809D02*
X3323142Y-32204761D01*
X3323142Y-32204761D02*
X3361238Y-32185714D01*
X3361238Y-32185714D02*
X3380285Y-32185714D01*
X3380285Y-32185714D02*
X3418380Y-32204761D01*
X3418380Y-32204761D02*
X3437428Y-32223809D01*
X3437428Y-32223809D02*
X3456476Y-32261904D01*
X3456476Y-32261904D02*
X3456476Y-32338095D01*
X3456476Y-32338095D02*
X3475523Y-32376190D01*
X3475523Y-32376190D02*
X3494571Y-32395237D01*
X3494571Y-32395237D02*
X3532666Y-32414285D01*
X3532666Y-32414285D02*
X3608857Y-32414285D01*
X3608857Y-32414285D02*
X3646952Y-32395237D01*
X3646952Y-32395237D02*
X3666000Y-32376190D01*
X3666000Y-32376190D02*
X3685047Y-32338095D01*
X3685047Y-32338095D02*
X3685047Y-32261904D01*
X3685047Y-32261904D02*
X3666000Y-32223809D01*
X3666000Y-32223809D02*
X3646952Y-32204761D01*
X3646952Y-32204761D02*
X3608857Y-32185714D01*
X3608857Y-32185714D02*
X3532666Y-32185714D01*
X3532666Y-32185714D02*
X3494571Y-32204761D01*
X3494571Y-32204761D02*
X3475523Y-32223809D01*
X3475523Y-32223809D02*
X3456476Y-32261904D01*
D10*
X15522857Y-62650280D02*
X15436190Y-62526471D01*
X15374285Y-62650280D02*
X15374285Y-62390280D01*
X15374285Y-62390280D02*
X15473333Y-62390280D01*
X15473333Y-62390280D02*
X15498095Y-62402661D01*
X15498095Y-62402661D02*
X15510476Y-62415042D01*
X15510476Y-62415042D02*
X15522857Y-62439804D01*
X15522857Y-62439804D02*
X15522857Y-62476947D01*
X15522857Y-62476947D02*
X15510476Y-62501709D01*
X15510476Y-62501709D02*
X15498095Y-62514090D01*
X15498095Y-62514090D02*
X15473333Y-62526471D01*
X15473333Y-62526471D02*
X15374285Y-62526471D01*
X15770476Y-62650280D02*
X15621904Y-62650280D01*
X15696190Y-62650280D02*
X15696190Y-62390280D01*
X15696190Y-62390280D02*
X15671428Y-62427423D01*
X15671428Y-62427423D02*
X15646666Y-62452185D01*
X15646666Y-62452185D02*
X15621904Y-62464566D01*
X15919047Y-62501709D02*
X15894285Y-62489328D01*
X15894285Y-62489328D02*
X15881904Y-62476947D01*
X15881904Y-62476947D02*
X15869523Y-62452185D01*
X15869523Y-62452185D02*
X15869523Y-62439804D01*
X15869523Y-62439804D02*
X15881904Y-62415042D01*
X15881904Y-62415042D02*
X15894285Y-62402661D01*
X15894285Y-62402661D02*
X15919047Y-62390280D01*
X15919047Y-62390280D02*
X15968571Y-62390280D01*
X15968571Y-62390280D02*
X15993333Y-62402661D01*
X15993333Y-62402661D02*
X16005714Y-62415042D01*
X16005714Y-62415042D02*
X16018095Y-62439804D01*
X16018095Y-62439804D02*
X16018095Y-62452185D01*
X16018095Y-62452185D02*
X16005714Y-62476947D01*
X16005714Y-62476947D02*
X15993333Y-62489328D01*
X15993333Y-62489328D02*
X15968571Y-62501709D01*
X15968571Y-62501709D02*
X15919047Y-62501709D01*
X15919047Y-62501709D02*
X15894285Y-62514090D01*
X15894285Y-62514090D02*
X15881904Y-62526471D01*
X15881904Y-62526471D02*
X15869523Y-62551233D01*
X15869523Y-62551233D02*
X15869523Y-62600757D01*
X15869523Y-62600757D02*
X15881904Y-62625519D01*
X15881904Y-62625519D02*
X15894285Y-62637900D01*
X15894285Y-62637900D02*
X15919047Y-62650280D01*
X15919047Y-62650280D02*
X15968571Y-62650280D01*
X15968571Y-62650280D02*
X15993333Y-62637900D01*
X15993333Y-62637900D02*
X16005714Y-62625519D01*
X16005714Y-62625519D02*
X16018095Y-62600757D01*
X16018095Y-62600757D02*
X16018095Y-62551233D01*
X16018095Y-62551233D02*
X16005714Y-62526471D01*
X16005714Y-62526471D02*
X15993333Y-62514090D01*
X15993333Y-62514090D02*
X15968571Y-62501709D01*
D12*
X10161905Y-38612619D02*
X10161905Y-37612619D01*
X10161905Y-37612619D02*
X10400000Y-37612619D01*
X10400000Y-37612619D02*
X10542857Y-37660238D01*
X10542857Y-37660238D02*
X10638095Y-37755476D01*
X10638095Y-37755476D02*
X10685714Y-37850714D01*
X10685714Y-37850714D02*
X10733333Y-38041190D01*
X10733333Y-38041190D02*
X10733333Y-38184047D01*
X10733333Y-38184047D02*
X10685714Y-38374523D01*
X10685714Y-38374523D02*
X10638095Y-38469761D01*
X10638095Y-38469761D02*
X10542857Y-38565000D01*
X10542857Y-38565000D02*
X10400000Y-38612619D01*
X10400000Y-38612619D02*
X10161905Y-38612619D01*
X11066667Y-37612619D02*
X11685714Y-37612619D01*
X11685714Y-37612619D02*
X11352381Y-37993571D01*
X11352381Y-37993571D02*
X11495238Y-37993571D01*
X11495238Y-37993571D02*
X11590476Y-38041190D01*
X11590476Y-38041190D02*
X11638095Y-38088809D01*
X11638095Y-38088809D02*
X11685714Y-38184047D01*
X11685714Y-38184047D02*
X11685714Y-38422142D01*
X11685714Y-38422142D02*
X11638095Y-38517380D01*
X11638095Y-38517380D02*
X11590476Y-38565000D01*
X11590476Y-38565000D02*
X11495238Y-38612619D01*
X11495238Y-38612619D02*
X11209524Y-38612619D01*
X11209524Y-38612619D02*
X11114286Y-38565000D01*
X11114286Y-38565000D02*
X11066667Y-38517380D01*
X69165000Y-25333332D02*
X69212619Y-25190475D01*
X69212619Y-25190475D02*
X69212619Y-24952380D01*
X69212619Y-24952380D02*
X69165000Y-24857142D01*
X69165000Y-24857142D02*
X69117380Y-24809523D01*
X69117380Y-24809523D02*
X69022142Y-24761904D01*
X69022142Y-24761904D02*
X68926904Y-24761904D01*
X68926904Y-24761904D02*
X68831666Y-24809523D01*
X68831666Y-24809523D02*
X68784047Y-24857142D01*
X68784047Y-24857142D02*
X68736428Y-24952380D01*
X68736428Y-24952380D02*
X68688809Y-25142856D01*
X68688809Y-25142856D02*
X68641190Y-25238094D01*
X68641190Y-25238094D02*
X68593571Y-25285713D01*
X68593571Y-25285713D02*
X68498333Y-25333332D01*
X68498333Y-25333332D02*
X68403095Y-25333332D01*
X68403095Y-25333332D02*
X68307857Y-25285713D01*
X68307857Y-25285713D02*
X68260238Y-25238094D01*
X68260238Y-25238094D02*
X68212619Y-25142856D01*
X68212619Y-25142856D02*
X68212619Y-24904761D01*
X68212619Y-24904761D02*
X68260238Y-24761904D01*
X68212619Y-24428570D02*
X69212619Y-24190475D01*
X69212619Y-24190475D02*
X68498333Y-23999999D01*
X68498333Y-23999999D02*
X69212619Y-23809523D01*
X69212619Y-23809523D02*
X68212619Y-23571428D01*
X68307857Y-23238094D02*
X68260238Y-23190475D01*
X68260238Y-23190475D02*
X68212619Y-23095237D01*
X68212619Y-23095237D02*
X68212619Y-22857142D01*
X68212619Y-22857142D02*
X68260238Y-22761904D01*
X68260238Y-22761904D02*
X68307857Y-22714285D01*
X68307857Y-22714285D02*
X68403095Y-22666666D01*
X68403095Y-22666666D02*
X68498333Y-22666666D01*
X68498333Y-22666666D02*
X68641190Y-22714285D01*
X68641190Y-22714285D02*
X69212619Y-23285713D01*
X69212619Y-23285713D02*
X69212619Y-22666666D01*
X36286428Y-64601190D02*
X36762619Y-64601190D01*
X35762619Y-64934523D02*
X36286428Y-64601190D01*
X36286428Y-64601190D02*
X35762619Y-64267857D01*
X36762619Y-63410714D02*
X36762619Y-63982142D01*
X36762619Y-63696428D02*
X35762619Y-63696428D01*
X35762619Y-63696428D02*
X35905476Y-63791666D01*
X35905476Y-63791666D02*
X36000714Y-63886904D01*
X36000714Y-63886904D02*
X36048333Y-63982142D01*
D11*
X9916666Y-36161309D02*
X9678571Y-36161309D01*
X9678571Y-36161309D02*
X9678571Y-35661309D01*
X10345238Y-36161309D02*
X10059524Y-36161309D01*
X10202381Y-36161309D02*
X10202381Y-35661309D01*
X10202381Y-35661309D02*
X10154762Y-35732738D01*
X10154762Y-35732738D02*
X10107143Y-35780357D01*
X10107143Y-35780357D02*
X10059524Y-35804166D01*
D10*
X12541845Y-25545714D02*
X12553750Y-25557618D01*
X12553750Y-25557618D02*
X12565654Y-25593333D01*
X12565654Y-25593333D02*
X12565654Y-25617142D01*
X12565654Y-25617142D02*
X12553750Y-25652856D01*
X12553750Y-25652856D02*
X12529940Y-25676666D01*
X12529940Y-25676666D02*
X12506130Y-25688571D01*
X12506130Y-25688571D02*
X12458511Y-25700475D01*
X12458511Y-25700475D02*
X12422797Y-25700475D01*
X12422797Y-25700475D02*
X12375178Y-25688571D01*
X12375178Y-25688571D02*
X12351369Y-25676666D01*
X12351369Y-25676666D02*
X12327559Y-25652856D01*
X12327559Y-25652856D02*
X12315654Y-25617142D01*
X12315654Y-25617142D02*
X12315654Y-25593333D01*
X12315654Y-25593333D02*
X12327559Y-25557618D01*
X12327559Y-25557618D02*
X12339464Y-25545714D01*
X12398988Y-25331428D02*
X12565654Y-25331428D01*
X12303750Y-25390952D02*
X12482321Y-25450475D01*
X12482321Y-25450475D02*
X12482321Y-25295714D01*
X12565654Y-25188571D02*
X12565654Y-25140952D01*
X12565654Y-25140952D02*
X12553750Y-25117142D01*
X12553750Y-25117142D02*
X12541845Y-25105238D01*
X12541845Y-25105238D02*
X12506130Y-25081428D01*
X12506130Y-25081428D02*
X12458511Y-25069523D01*
X12458511Y-25069523D02*
X12363273Y-25069523D01*
X12363273Y-25069523D02*
X12339464Y-25081428D01*
X12339464Y-25081428D02*
X12327559Y-25093333D01*
X12327559Y-25093333D02*
X12315654Y-25117142D01*
X12315654Y-25117142D02*
X12315654Y-25164761D01*
X12315654Y-25164761D02*
X12327559Y-25188571D01*
X12327559Y-25188571D02*
X12339464Y-25200476D01*
X12339464Y-25200476D02*
X12363273Y-25212380D01*
X12363273Y-25212380D02*
X12422797Y-25212380D01*
X12422797Y-25212380D02*
X12446607Y-25200476D01*
X12446607Y-25200476D02*
X12458511Y-25188571D01*
X12458511Y-25188571D02*
X12470416Y-25164761D01*
X12470416Y-25164761D02*
X12470416Y-25117142D01*
X12470416Y-25117142D02*
X12458511Y-25093333D01*
X12458511Y-25093333D02*
X12446607Y-25081428D01*
X12446607Y-25081428D02*
X12422797Y-25069523D01*
D14*
X60185047Y-42295237D02*
X59785047Y-42295237D01*
X59785047Y-42295237D02*
X59785047Y-42199999D01*
X59785047Y-42199999D02*
X59804095Y-42142856D01*
X59804095Y-42142856D02*
X59842190Y-42104761D01*
X59842190Y-42104761D02*
X59880285Y-42085714D01*
X59880285Y-42085714D02*
X59956476Y-42066666D01*
X59956476Y-42066666D02*
X60013619Y-42066666D01*
X60013619Y-42066666D02*
X60089809Y-42085714D01*
X60089809Y-42085714D02*
X60127904Y-42104761D01*
X60127904Y-42104761D02*
X60166000Y-42142856D01*
X60166000Y-42142856D02*
X60185047Y-42199999D01*
X60185047Y-42199999D02*
X60185047Y-42295237D01*
X59785047Y-41933333D02*
X59785047Y-41666666D01*
X59785047Y-41666666D02*
X60185047Y-41838095D01*
D10*
X63592857Y-29010280D02*
X63506190Y-28886471D01*
X63444285Y-29010280D02*
X63444285Y-28750280D01*
X63444285Y-28750280D02*
X63543333Y-28750280D01*
X63543333Y-28750280D02*
X63568095Y-28762661D01*
X63568095Y-28762661D02*
X63580476Y-28775042D01*
X63580476Y-28775042D02*
X63592857Y-28799804D01*
X63592857Y-28799804D02*
X63592857Y-28836947D01*
X63592857Y-28836947D02*
X63580476Y-28861709D01*
X63580476Y-28861709D02*
X63568095Y-28874090D01*
X63568095Y-28874090D02*
X63543333Y-28886471D01*
X63543333Y-28886471D02*
X63444285Y-28886471D01*
X63691904Y-28775042D02*
X63704285Y-28762661D01*
X63704285Y-28762661D02*
X63729047Y-28750280D01*
X63729047Y-28750280D02*
X63790952Y-28750280D01*
X63790952Y-28750280D02*
X63815714Y-28762661D01*
X63815714Y-28762661D02*
X63828095Y-28775042D01*
X63828095Y-28775042D02*
X63840476Y-28799804D01*
X63840476Y-28799804D02*
X63840476Y-28824566D01*
X63840476Y-28824566D02*
X63828095Y-28861709D01*
X63828095Y-28861709D02*
X63679523Y-29010280D01*
X63679523Y-29010280D02*
X63840476Y-29010280D01*
X64063333Y-28750280D02*
X64013809Y-28750280D01*
X64013809Y-28750280D02*
X63989047Y-28762661D01*
X63989047Y-28762661D02*
X63976666Y-28775042D01*
X63976666Y-28775042D02*
X63951904Y-28812185D01*
X63951904Y-28812185D02*
X63939523Y-28861709D01*
X63939523Y-28861709D02*
X63939523Y-28960757D01*
X63939523Y-28960757D02*
X63951904Y-28985519D01*
X63951904Y-28985519D02*
X63964285Y-28997900D01*
X63964285Y-28997900D02*
X63989047Y-29010280D01*
X63989047Y-29010280D02*
X64038571Y-29010280D01*
X64038571Y-29010280D02*
X64063333Y-28997900D01*
X64063333Y-28997900D02*
X64075714Y-28985519D01*
X64075714Y-28985519D02*
X64088095Y-28960757D01*
X64088095Y-28960757D02*
X64088095Y-28898852D01*
X64088095Y-28898852D02*
X64075714Y-28874090D01*
X64075714Y-28874090D02*
X64063333Y-28861709D01*
X64063333Y-28861709D02*
X64038571Y-28849328D01*
X64038571Y-28849328D02*
X63989047Y-28849328D01*
X63989047Y-28849328D02*
X63964285Y-28861709D01*
X63964285Y-28861709D02*
X63951904Y-28874090D01*
X63951904Y-28874090D02*
X63939523Y-28898852D01*
D14*
X13741249Y-45644146D02*
X13741249Y-45244146D01*
X13741249Y-45244146D02*
X13836487Y-45244146D01*
X13836487Y-45244146D02*
X13893630Y-45263194D01*
X13893630Y-45263194D02*
X13931725Y-45301289D01*
X13931725Y-45301289D02*
X13950772Y-45339384D01*
X13950772Y-45339384D02*
X13969820Y-45415575D01*
X13969820Y-45415575D02*
X13969820Y-45472718D01*
X13969820Y-45472718D02*
X13950772Y-45548908D01*
X13950772Y-45548908D02*
X13931725Y-45587003D01*
X13931725Y-45587003D02*
X13893630Y-45625099D01*
X13893630Y-45625099D02*
X13836487Y-45644146D01*
X13836487Y-45644146D02*
X13741249Y-45644146D01*
X14122201Y-45282241D02*
X14141249Y-45263194D01*
X14141249Y-45263194D02*
X14179344Y-45244146D01*
X14179344Y-45244146D02*
X14274582Y-45244146D01*
X14274582Y-45244146D02*
X14312677Y-45263194D01*
X14312677Y-45263194D02*
X14331725Y-45282241D01*
X14331725Y-45282241D02*
X14350772Y-45320337D01*
X14350772Y-45320337D02*
X14350772Y-45358432D01*
X14350772Y-45358432D02*
X14331725Y-45415575D01*
X14331725Y-45415575D02*
X14103153Y-45644146D01*
X14103153Y-45644146D02*
X14350772Y-45644146D01*
X19514286Y-36185047D02*
X19514286Y-35785047D01*
X19514286Y-35785047D02*
X19609524Y-35785047D01*
X19609524Y-35785047D02*
X19666667Y-35804095D01*
X19666667Y-35804095D02*
X19704762Y-35842190D01*
X19704762Y-35842190D02*
X19723809Y-35880285D01*
X19723809Y-35880285D02*
X19742857Y-35956476D01*
X19742857Y-35956476D02*
X19742857Y-36013619D01*
X19742857Y-36013619D02*
X19723809Y-36089809D01*
X19723809Y-36089809D02*
X19704762Y-36127904D01*
X19704762Y-36127904D02*
X19666667Y-36166000D01*
X19666667Y-36166000D02*
X19609524Y-36185047D01*
X19609524Y-36185047D02*
X19514286Y-36185047D01*
X20123809Y-36185047D02*
X19895238Y-36185047D01*
X20009524Y-36185047D02*
X20009524Y-35785047D01*
X20009524Y-35785047D02*
X19971428Y-35842190D01*
X19971428Y-35842190D02*
X19933333Y-35880285D01*
X19933333Y-35880285D02*
X19895238Y-35899333D01*
X20276190Y-35823142D02*
X20295238Y-35804095D01*
X20295238Y-35804095D02*
X20333333Y-35785047D01*
X20333333Y-35785047D02*
X20428571Y-35785047D01*
X20428571Y-35785047D02*
X20466666Y-35804095D01*
X20466666Y-35804095D02*
X20485714Y-35823142D01*
X20485714Y-35823142D02*
X20504761Y-35861238D01*
X20504761Y-35861238D02*
X20504761Y-35899333D01*
X20504761Y-35899333D02*
X20485714Y-35956476D01*
X20485714Y-35956476D02*
X20257142Y-36185047D01*
X20257142Y-36185047D02*
X20504761Y-36185047D01*
D10*
X14506667Y-46870280D02*
X14420000Y-46746471D01*
X14358095Y-46870280D02*
X14358095Y-46610280D01*
X14358095Y-46610280D02*
X14457143Y-46610280D01*
X14457143Y-46610280D02*
X14481905Y-46622661D01*
X14481905Y-46622661D02*
X14494286Y-46635042D01*
X14494286Y-46635042D02*
X14506667Y-46659804D01*
X14506667Y-46659804D02*
X14506667Y-46696947D01*
X14506667Y-46696947D02*
X14494286Y-46721709D01*
X14494286Y-46721709D02*
X14481905Y-46734090D01*
X14481905Y-46734090D02*
X14457143Y-46746471D01*
X14457143Y-46746471D02*
X14358095Y-46746471D01*
X14741905Y-46610280D02*
X14618095Y-46610280D01*
X14618095Y-46610280D02*
X14605714Y-46734090D01*
X14605714Y-46734090D02*
X14618095Y-46721709D01*
X14618095Y-46721709D02*
X14642857Y-46709328D01*
X14642857Y-46709328D02*
X14704762Y-46709328D01*
X14704762Y-46709328D02*
X14729524Y-46721709D01*
X14729524Y-46721709D02*
X14741905Y-46734090D01*
X14741905Y-46734090D02*
X14754286Y-46758852D01*
X14754286Y-46758852D02*
X14754286Y-46820757D01*
X14754286Y-46820757D02*
X14741905Y-46845519D01*
X14741905Y-46845519D02*
X14729524Y-46857900D01*
X14729524Y-46857900D02*
X14704762Y-46870280D01*
X14704762Y-46870280D02*
X14642857Y-46870280D01*
X14642857Y-46870280D02*
X14618095Y-46857900D01*
X14618095Y-46857900D02*
X14605714Y-46845519D01*
D12*
X15994048Y-60431666D02*
X16755953Y-60431666D01*
X16375000Y-60812619D02*
X16375000Y-60050714D01*
D15*
X14390833Y-59323296D02*
X14348929Y-59365201D01*
X14348929Y-59365201D02*
X14223214Y-59407105D01*
X14223214Y-59407105D02*
X14139405Y-59407105D01*
X14139405Y-59407105D02*
X14013691Y-59365201D01*
X14013691Y-59365201D02*
X13929881Y-59281391D01*
X13929881Y-59281391D02*
X13887976Y-59197581D01*
X13887976Y-59197581D02*
X13846072Y-59029962D01*
X13846072Y-59029962D02*
X13846072Y-58904248D01*
X13846072Y-58904248D02*
X13887976Y-58736629D01*
X13887976Y-58736629D02*
X13929881Y-58652820D01*
X13929881Y-58652820D02*
X14013691Y-58569010D01*
X14013691Y-58569010D02*
X14139405Y-58527105D01*
X14139405Y-58527105D02*
X14223214Y-58527105D01*
X14223214Y-58527105D02*
X14348929Y-58569010D01*
X14348929Y-58569010D02*
X14390833Y-58610915D01*
X15228929Y-59407105D02*
X14726072Y-59407105D01*
X14977500Y-59407105D02*
X14977500Y-58527105D01*
X14977500Y-58527105D02*
X14893691Y-58652820D01*
X14893691Y-58652820D02*
X14809881Y-58736629D01*
X14809881Y-58736629D02*
X14726072Y-58778534D01*
D10*
X38376667Y-61740280D02*
X38290000Y-61616471D01*
X38228095Y-61740280D02*
X38228095Y-61480280D01*
X38228095Y-61480280D02*
X38327143Y-61480280D01*
X38327143Y-61480280D02*
X38351905Y-61492661D01*
X38351905Y-61492661D02*
X38364286Y-61505042D01*
X38364286Y-61505042D02*
X38376667Y-61529804D01*
X38376667Y-61529804D02*
X38376667Y-61566947D01*
X38376667Y-61566947D02*
X38364286Y-61591709D01*
X38364286Y-61591709D02*
X38351905Y-61604090D01*
X38351905Y-61604090D02*
X38327143Y-61616471D01*
X38327143Y-61616471D02*
X38228095Y-61616471D01*
X38463333Y-61480280D02*
X38636667Y-61480280D01*
X38636667Y-61480280D02*
X38525238Y-61740280D01*
X34889845Y-45941714D02*
X34901750Y-45953618D01*
X34901750Y-45953618D02*
X34913654Y-45989333D01*
X34913654Y-45989333D02*
X34913654Y-46013142D01*
X34913654Y-46013142D02*
X34901750Y-46048856D01*
X34901750Y-46048856D02*
X34877940Y-46072666D01*
X34877940Y-46072666D02*
X34854130Y-46084571D01*
X34854130Y-46084571D02*
X34806511Y-46096475D01*
X34806511Y-46096475D02*
X34770797Y-46096475D01*
X34770797Y-46096475D02*
X34723178Y-46084571D01*
X34723178Y-46084571D02*
X34699369Y-46072666D01*
X34699369Y-46072666D02*
X34675559Y-46048856D01*
X34675559Y-46048856D02*
X34663654Y-46013142D01*
X34663654Y-46013142D02*
X34663654Y-45989333D01*
X34663654Y-45989333D02*
X34675559Y-45953618D01*
X34675559Y-45953618D02*
X34687464Y-45941714D01*
X34663654Y-45715523D02*
X34663654Y-45834571D01*
X34663654Y-45834571D02*
X34782702Y-45846475D01*
X34782702Y-45846475D02*
X34770797Y-45834571D01*
X34770797Y-45834571D02*
X34758892Y-45810761D01*
X34758892Y-45810761D02*
X34758892Y-45751237D01*
X34758892Y-45751237D02*
X34770797Y-45727428D01*
X34770797Y-45727428D02*
X34782702Y-45715523D01*
X34782702Y-45715523D02*
X34806511Y-45703618D01*
X34806511Y-45703618D02*
X34866035Y-45703618D01*
X34866035Y-45703618D02*
X34889845Y-45715523D01*
X34889845Y-45715523D02*
X34901750Y-45727428D01*
X34901750Y-45727428D02*
X34913654Y-45751237D01*
X34913654Y-45751237D02*
X34913654Y-45810761D01*
X34913654Y-45810761D02*
X34901750Y-45834571D01*
X34901750Y-45834571D02*
X34889845Y-45846475D01*
X34663654Y-45489333D02*
X34663654Y-45536952D01*
X34663654Y-45536952D02*
X34675559Y-45560761D01*
X34675559Y-45560761D02*
X34687464Y-45572666D01*
X34687464Y-45572666D02*
X34723178Y-45596476D01*
X34723178Y-45596476D02*
X34770797Y-45608380D01*
X34770797Y-45608380D02*
X34866035Y-45608380D01*
X34866035Y-45608380D02*
X34889845Y-45596476D01*
X34889845Y-45596476D02*
X34901750Y-45584571D01*
X34901750Y-45584571D02*
X34913654Y-45560761D01*
X34913654Y-45560761D02*
X34913654Y-45513142D01*
X34913654Y-45513142D02*
X34901750Y-45489333D01*
X34901750Y-45489333D02*
X34889845Y-45477428D01*
X34889845Y-45477428D02*
X34866035Y-45465523D01*
X34866035Y-45465523D02*
X34806511Y-45465523D01*
X34806511Y-45465523D02*
X34782702Y-45477428D01*
X34782702Y-45477428D02*
X34770797Y-45489333D01*
X34770797Y-45489333D02*
X34758892Y-45513142D01*
X34758892Y-45513142D02*
X34758892Y-45560761D01*
X34758892Y-45560761D02*
X34770797Y-45584571D01*
X34770797Y-45584571D02*
X34782702Y-45596476D01*
X34782702Y-45596476D02*
X34806511Y-45608380D01*
X49620280Y-61667142D02*
X49496471Y-61753809D01*
X49620280Y-61815714D02*
X49360280Y-61815714D01*
X49360280Y-61815714D02*
X49360280Y-61716666D01*
X49360280Y-61716666D02*
X49372661Y-61691904D01*
X49372661Y-61691904D02*
X49385042Y-61679523D01*
X49385042Y-61679523D02*
X49409804Y-61667142D01*
X49409804Y-61667142D02*
X49446947Y-61667142D01*
X49446947Y-61667142D02*
X49471709Y-61679523D01*
X49471709Y-61679523D02*
X49484090Y-61691904D01*
X49484090Y-61691904D02*
X49496471Y-61716666D01*
X49496471Y-61716666D02*
X49496471Y-61815714D01*
X49385042Y-61568095D02*
X49372661Y-61555714D01*
X49372661Y-61555714D02*
X49360280Y-61530952D01*
X49360280Y-61530952D02*
X49360280Y-61469047D01*
X49360280Y-61469047D02*
X49372661Y-61444285D01*
X49372661Y-61444285D02*
X49385042Y-61431904D01*
X49385042Y-61431904D02*
X49409804Y-61419523D01*
X49409804Y-61419523D02*
X49434566Y-61419523D01*
X49434566Y-61419523D02*
X49471709Y-61431904D01*
X49471709Y-61431904D02*
X49620280Y-61580476D01*
X49620280Y-61580476D02*
X49620280Y-61419523D01*
X49620280Y-61295714D02*
X49620280Y-61246190D01*
X49620280Y-61246190D02*
X49607900Y-61221428D01*
X49607900Y-61221428D02*
X49595519Y-61209047D01*
X49595519Y-61209047D02*
X49558376Y-61184285D01*
X49558376Y-61184285D02*
X49508852Y-61171904D01*
X49508852Y-61171904D02*
X49409804Y-61171904D01*
X49409804Y-61171904D02*
X49385042Y-61184285D01*
X49385042Y-61184285D02*
X49372661Y-61196666D01*
X49372661Y-61196666D02*
X49360280Y-61221428D01*
X49360280Y-61221428D02*
X49360280Y-61270952D01*
X49360280Y-61270952D02*
X49372661Y-61295714D01*
X49372661Y-61295714D02*
X49385042Y-61308095D01*
X49385042Y-61308095D02*
X49409804Y-61320476D01*
X49409804Y-61320476D02*
X49471709Y-61320476D01*
X49471709Y-61320476D02*
X49496471Y-61308095D01*
X49496471Y-61308095D02*
X49508852Y-61295714D01*
X49508852Y-61295714D02*
X49521233Y-61270952D01*
X49521233Y-61270952D02*
X49521233Y-61221428D01*
X49521233Y-61221428D02*
X49508852Y-61196666D01*
X49508852Y-61196666D02*
X49496471Y-61184285D01*
X49496471Y-61184285D02*
X49471709Y-61171904D01*
D12*
X45083332Y-1335000D02*
X44940475Y-1287380D01*
X44940475Y-1287380D02*
X44702380Y-1287380D01*
X44702380Y-1287380D02*
X44607142Y-1335000D01*
X44607142Y-1335000D02*
X44559523Y-1382619D01*
X44559523Y-1382619D02*
X44511904Y-1477857D01*
X44511904Y-1477857D02*
X44511904Y-1573095D01*
X44511904Y-1573095D02*
X44559523Y-1668333D01*
X44559523Y-1668333D02*
X44607142Y-1715952D01*
X44607142Y-1715952D02*
X44702380Y-1763571D01*
X44702380Y-1763571D02*
X44892856Y-1811190D01*
X44892856Y-1811190D02*
X44988094Y-1858809D01*
X44988094Y-1858809D02*
X45035713Y-1906428D01*
X45035713Y-1906428D02*
X45083332Y-2001666D01*
X45083332Y-2001666D02*
X45083332Y-2096904D01*
X45083332Y-2096904D02*
X45035713Y-2192142D01*
X45035713Y-2192142D02*
X44988094Y-2239761D01*
X44988094Y-2239761D02*
X44892856Y-2287380D01*
X44892856Y-2287380D02*
X44654761Y-2287380D01*
X44654761Y-2287380D02*
X44511904Y-2239761D01*
X44178570Y-2287380D02*
X43940475Y-1287380D01*
X43940475Y-1287380D02*
X43749999Y-2001666D01*
X43749999Y-2001666D02*
X43559523Y-1287380D01*
X43559523Y-1287380D02*
X43321428Y-2287380D01*
X42511904Y-1954047D02*
X42511904Y-1287380D01*
X42749999Y-2335000D02*
X42988094Y-1620714D01*
X42988094Y-1620714D02*
X42369047Y-1620714D01*
D15*
X21109285Y-56573296D02*
X21067381Y-56615201D01*
X21067381Y-56615201D02*
X20941666Y-56657105D01*
X20941666Y-56657105D02*
X20857857Y-56657105D01*
X20857857Y-56657105D02*
X20732143Y-56615201D01*
X20732143Y-56615201D02*
X20648333Y-56531391D01*
X20648333Y-56531391D02*
X20606428Y-56447581D01*
X20606428Y-56447581D02*
X20564524Y-56279962D01*
X20564524Y-56279962D02*
X20564524Y-56154248D01*
X20564524Y-56154248D02*
X20606428Y-55986629D01*
X20606428Y-55986629D02*
X20648333Y-55902820D01*
X20648333Y-55902820D02*
X20732143Y-55819010D01*
X20732143Y-55819010D02*
X20857857Y-55777105D01*
X20857857Y-55777105D02*
X20941666Y-55777105D01*
X20941666Y-55777105D02*
X21067381Y-55819010D01*
X21067381Y-55819010D02*
X21109285Y-55860915D01*
X21947381Y-56657105D02*
X21444524Y-56657105D01*
X21695952Y-56657105D02*
X21695952Y-55777105D01*
X21695952Y-55777105D02*
X21612143Y-55902820D01*
X21612143Y-55902820D02*
X21528333Y-55986629D01*
X21528333Y-55986629D02*
X21444524Y-56028534D01*
X22785476Y-56657105D02*
X22282619Y-56657105D01*
X22534047Y-56657105D02*
X22534047Y-55777105D01*
X22534047Y-55777105D02*
X22450238Y-55902820D01*
X22450238Y-55902820D02*
X22366428Y-55986629D01*
X22366428Y-55986629D02*
X22282619Y-56028534D01*
D12*
X23344048Y-57506666D02*
X24105953Y-57506666D01*
X23725000Y-57887619D02*
X23725000Y-57125714D01*
D13*
X5081309Y-28073333D02*
X5081309Y-28311428D01*
X5081309Y-28311428D02*
X4581309Y-28311428D01*
X4581309Y-27668571D02*
X4581309Y-27906666D01*
X4581309Y-27906666D02*
X4819404Y-27930475D01*
X4819404Y-27930475D02*
X4795595Y-27906666D01*
X4795595Y-27906666D02*
X4771785Y-27859047D01*
X4771785Y-27859047D02*
X4771785Y-27739999D01*
X4771785Y-27739999D02*
X4795595Y-27692380D01*
X4795595Y-27692380D02*
X4819404Y-27668571D01*
X4819404Y-27668571D02*
X4867023Y-27644761D01*
X4867023Y-27644761D02*
X4986071Y-27644761D01*
X4986071Y-27644761D02*
X5033690Y-27668571D01*
X5033690Y-27668571D02*
X5057500Y-27692380D01*
X5057500Y-27692380D02*
X5081309Y-27739999D01*
X5081309Y-27739999D02*
X5081309Y-27859047D01*
X5081309Y-27859047D02*
X5057500Y-27906666D01*
X5057500Y-27906666D02*
X5033690Y-27930475D01*
D14*
X19514286Y-12185047D02*
X19514286Y-11785047D01*
X19514286Y-11785047D02*
X19609524Y-11785047D01*
X19609524Y-11785047D02*
X19666667Y-11804095D01*
X19666667Y-11804095D02*
X19704762Y-11842190D01*
X19704762Y-11842190D02*
X19723809Y-11880285D01*
X19723809Y-11880285D02*
X19742857Y-11956476D01*
X19742857Y-11956476D02*
X19742857Y-12013619D01*
X19742857Y-12013619D02*
X19723809Y-12089809D01*
X19723809Y-12089809D02*
X19704762Y-12127904D01*
X19704762Y-12127904D02*
X19666667Y-12166000D01*
X19666667Y-12166000D02*
X19609524Y-12185047D01*
X19609524Y-12185047D02*
X19514286Y-12185047D01*
X20123809Y-12185047D02*
X19895238Y-12185047D01*
X20009524Y-12185047D02*
X20009524Y-11785047D01*
X20009524Y-11785047D02*
X19971428Y-11842190D01*
X19971428Y-11842190D02*
X19933333Y-11880285D01*
X19933333Y-11880285D02*
X19895238Y-11899333D01*
X20504761Y-12185047D02*
X20276190Y-12185047D01*
X20390476Y-12185047D02*
X20390476Y-11785047D01*
X20390476Y-11785047D02*
X20352380Y-11842190D01*
X20352380Y-11842190D02*
X20314285Y-11880285D01*
X20314285Y-11880285D02*
X20276190Y-11899333D01*
D10*
X27338333Y-53991845D02*
X27326429Y-54003750D01*
X27326429Y-54003750D02*
X27290714Y-54015654D01*
X27290714Y-54015654D02*
X27266905Y-54015654D01*
X27266905Y-54015654D02*
X27231191Y-54003750D01*
X27231191Y-54003750D02*
X27207381Y-53979940D01*
X27207381Y-53979940D02*
X27195476Y-53956130D01*
X27195476Y-53956130D02*
X27183572Y-53908511D01*
X27183572Y-53908511D02*
X27183572Y-53872797D01*
X27183572Y-53872797D02*
X27195476Y-53825178D01*
X27195476Y-53825178D02*
X27207381Y-53801369D01*
X27207381Y-53801369D02*
X27231191Y-53777559D01*
X27231191Y-53777559D02*
X27266905Y-53765654D01*
X27266905Y-53765654D02*
X27290714Y-53765654D01*
X27290714Y-53765654D02*
X27326429Y-53777559D01*
X27326429Y-53777559D02*
X27338333Y-53789464D01*
X27457381Y-54015654D02*
X27505000Y-54015654D01*
X27505000Y-54015654D02*
X27528810Y-54003750D01*
X27528810Y-54003750D02*
X27540714Y-53991845D01*
X27540714Y-53991845D02*
X27564524Y-53956130D01*
X27564524Y-53956130D02*
X27576429Y-53908511D01*
X27576429Y-53908511D02*
X27576429Y-53813273D01*
X27576429Y-53813273D02*
X27564524Y-53789464D01*
X27564524Y-53789464D02*
X27552619Y-53777559D01*
X27552619Y-53777559D02*
X27528810Y-53765654D01*
X27528810Y-53765654D02*
X27481191Y-53765654D01*
X27481191Y-53765654D02*
X27457381Y-53777559D01*
X27457381Y-53777559D02*
X27445476Y-53789464D01*
X27445476Y-53789464D02*
X27433572Y-53813273D01*
X27433572Y-53813273D02*
X27433572Y-53872797D01*
X27433572Y-53872797D02*
X27445476Y-53896607D01*
X27445476Y-53896607D02*
X27457381Y-53908511D01*
X27457381Y-53908511D02*
X27481191Y-53920416D01*
X27481191Y-53920416D02*
X27528810Y-53920416D01*
X27528810Y-53920416D02*
X27552619Y-53908511D01*
X27552619Y-53908511D02*
X27564524Y-53896607D01*
X27564524Y-53896607D02*
X27576429Y-53872797D01*
X14040280Y-35427142D02*
X13916471Y-35513809D01*
X14040280Y-35575714D02*
X13780280Y-35575714D01*
X13780280Y-35575714D02*
X13780280Y-35476666D01*
X13780280Y-35476666D02*
X13792661Y-35451904D01*
X13792661Y-35451904D02*
X13805042Y-35439523D01*
X13805042Y-35439523D02*
X13829804Y-35427142D01*
X13829804Y-35427142D02*
X13866947Y-35427142D01*
X13866947Y-35427142D02*
X13891709Y-35439523D01*
X13891709Y-35439523D02*
X13904090Y-35451904D01*
X13904090Y-35451904D02*
X13916471Y-35476666D01*
X13916471Y-35476666D02*
X13916471Y-35575714D01*
X14040280Y-35179523D02*
X14040280Y-35328095D01*
X14040280Y-35253809D02*
X13780280Y-35253809D01*
X13780280Y-35253809D02*
X13817423Y-35278571D01*
X13817423Y-35278571D02*
X13842185Y-35303333D01*
X13842185Y-35303333D02*
X13854566Y-35328095D01*
X13780280Y-35018571D02*
X13780280Y-34993809D01*
X13780280Y-34993809D02*
X13792661Y-34969047D01*
X13792661Y-34969047D02*
X13805042Y-34956666D01*
X13805042Y-34956666D02*
X13829804Y-34944285D01*
X13829804Y-34944285D02*
X13879328Y-34931904D01*
X13879328Y-34931904D02*
X13941233Y-34931904D01*
X13941233Y-34931904D02*
X13990757Y-34944285D01*
X13990757Y-34944285D02*
X14015519Y-34956666D01*
X14015519Y-34956666D02*
X14027900Y-34969047D01*
X14027900Y-34969047D02*
X14040280Y-34993809D01*
X14040280Y-34993809D02*
X14040280Y-35018571D01*
X14040280Y-35018571D02*
X14027900Y-35043333D01*
X14027900Y-35043333D02*
X14015519Y-35055714D01*
X14015519Y-35055714D02*
X13990757Y-35068095D01*
X13990757Y-35068095D02*
X13941233Y-35080476D01*
X13941233Y-35080476D02*
X13879328Y-35080476D01*
X13879328Y-35080476D02*
X13829804Y-35068095D01*
X13829804Y-35068095D02*
X13805042Y-35055714D01*
X13805042Y-35055714D02*
X13792661Y-35043333D01*
X13792661Y-35043333D02*
X13780280Y-35018571D01*
D12*
X9962619Y-52833333D02*
X10676904Y-52833333D01*
X10676904Y-52833333D02*
X10819761Y-52880952D01*
X10819761Y-52880952D02*
X10915000Y-52976190D01*
X10915000Y-52976190D02*
X10962619Y-53119047D01*
X10962619Y-53119047D02*
X10962619Y-53214285D01*
X10962619Y-51833333D02*
X10962619Y-52404761D01*
X10962619Y-52119047D02*
X9962619Y-52119047D01*
X9962619Y-52119047D02*
X10105476Y-52214285D01*
X10105476Y-52214285D02*
X10200714Y-52309523D01*
X10200714Y-52309523D02*
X10248333Y-52404761D01*
D11*
X26966666Y-55901309D02*
X26728571Y-55901309D01*
X26728571Y-55901309D02*
X26728571Y-55401309D01*
X27109524Y-55448928D02*
X27133333Y-55425119D01*
X27133333Y-55425119D02*
X27180952Y-55401309D01*
X27180952Y-55401309D02*
X27300000Y-55401309D01*
X27300000Y-55401309D02*
X27347619Y-55425119D01*
X27347619Y-55425119D02*
X27371428Y-55448928D01*
X27371428Y-55448928D02*
X27395238Y-55496547D01*
X27395238Y-55496547D02*
X27395238Y-55544166D01*
X27395238Y-55544166D02*
X27371428Y-55615595D01*
X27371428Y-55615595D02*
X27085714Y-55901309D01*
X27085714Y-55901309D02*
X27395238Y-55901309D01*
D14*
X49514286Y-34185047D02*
X49514286Y-33785047D01*
X49514286Y-33785047D02*
X49609524Y-33785047D01*
X49609524Y-33785047D02*
X49666667Y-33804095D01*
X49666667Y-33804095D02*
X49704762Y-33842190D01*
X49704762Y-33842190D02*
X49723809Y-33880285D01*
X49723809Y-33880285D02*
X49742857Y-33956476D01*
X49742857Y-33956476D02*
X49742857Y-34013619D01*
X49742857Y-34013619D02*
X49723809Y-34089809D01*
X49723809Y-34089809D02*
X49704762Y-34127904D01*
X49704762Y-34127904D02*
X49666667Y-34166000D01*
X49666667Y-34166000D02*
X49609524Y-34185047D01*
X49609524Y-34185047D02*
X49514286Y-34185047D01*
X50123809Y-34185047D02*
X49895238Y-34185047D01*
X50009524Y-34185047D02*
X50009524Y-33785047D01*
X50009524Y-33785047D02*
X49971428Y-33842190D01*
X49971428Y-33842190D02*
X49933333Y-33880285D01*
X49933333Y-33880285D02*
X49895238Y-33899333D01*
X50466666Y-33785047D02*
X50390476Y-33785047D01*
X50390476Y-33785047D02*
X50352380Y-33804095D01*
X50352380Y-33804095D02*
X50333333Y-33823142D01*
X50333333Y-33823142D02*
X50295238Y-33880285D01*
X50295238Y-33880285D02*
X50276190Y-33956476D01*
X50276190Y-33956476D02*
X50276190Y-34108857D01*
X50276190Y-34108857D02*
X50295238Y-34146952D01*
X50295238Y-34146952D02*
X50314285Y-34166000D01*
X50314285Y-34166000D02*
X50352380Y-34185047D01*
X50352380Y-34185047D02*
X50428571Y-34185047D01*
X50428571Y-34185047D02*
X50466666Y-34166000D01*
X50466666Y-34166000D02*
X50485714Y-34146952D01*
X50485714Y-34146952D02*
X50504761Y-34108857D01*
X50504761Y-34108857D02*
X50504761Y-34013619D01*
X50504761Y-34013619D02*
X50485714Y-33975523D01*
X50485714Y-33975523D02*
X50466666Y-33956476D01*
X50466666Y-33956476D02*
X50428571Y-33937428D01*
X50428571Y-33937428D02*
X50352380Y-33937428D01*
X50352380Y-33937428D02*
X50314285Y-33956476D01*
X50314285Y-33956476D02*
X50295238Y-33975523D01*
X50295238Y-33975523D02*
X50276190Y-34013619D01*
D10*
X19569285Y-58641845D02*
X19557381Y-58653750D01*
X19557381Y-58653750D02*
X19521666Y-58665654D01*
X19521666Y-58665654D02*
X19497857Y-58665654D01*
X19497857Y-58665654D02*
X19462143Y-58653750D01*
X19462143Y-58653750D02*
X19438333Y-58629940D01*
X19438333Y-58629940D02*
X19426428Y-58606130D01*
X19426428Y-58606130D02*
X19414524Y-58558511D01*
X19414524Y-58558511D02*
X19414524Y-58522797D01*
X19414524Y-58522797D02*
X19426428Y-58475178D01*
X19426428Y-58475178D02*
X19438333Y-58451369D01*
X19438333Y-58451369D02*
X19462143Y-58427559D01*
X19462143Y-58427559D02*
X19497857Y-58415654D01*
X19497857Y-58415654D02*
X19521666Y-58415654D01*
X19521666Y-58415654D02*
X19557381Y-58427559D01*
X19557381Y-58427559D02*
X19569285Y-58439464D01*
X19807381Y-58665654D02*
X19664524Y-58665654D01*
X19735952Y-58665654D02*
X19735952Y-58415654D01*
X19735952Y-58415654D02*
X19712143Y-58451369D01*
X19712143Y-58451369D02*
X19688333Y-58475178D01*
X19688333Y-58475178D02*
X19664524Y-58487083D01*
X19890714Y-58415654D02*
X20057380Y-58415654D01*
X20057380Y-58415654D02*
X19950238Y-58665654D01*
D14*
X19514286Y-34185047D02*
X19514286Y-33785047D01*
X19514286Y-33785047D02*
X19609524Y-33785047D01*
X19609524Y-33785047D02*
X19666667Y-33804095D01*
X19666667Y-33804095D02*
X19704762Y-33842190D01*
X19704762Y-33842190D02*
X19723809Y-33880285D01*
X19723809Y-33880285D02*
X19742857Y-33956476D01*
X19742857Y-33956476D02*
X19742857Y-34013619D01*
X19742857Y-34013619D02*
X19723809Y-34089809D01*
X19723809Y-34089809D02*
X19704762Y-34127904D01*
X19704762Y-34127904D02*
X19666667Y-34166000D01*
X19666667Y-34166000D02*
X19609524Y-34185047D01*
X19609524Y-34185047D02*
X19514286Y-34185047D01*
X20123809Y-34185047D02*
X19895238Y-34185047D01*
X20009524Y-34185047D02*
X20009524Y-33785047D01*
X20009524Y-33785047D02*
X19971428Y-33842190D01*
X19971428Y-33842190D02*
X19933333Y-33880285D01*
X19933333Y-33880285D02*
X19895238Y-33899333D01*
X20371428Y-33785047D02*
X20409523Y-33785047D01*
X20409523Y-33785047D02*
X20447619Y-33804095D01*
X20447619Y-33804095D02*
X20466666Y-33823142D01*
X20466666Y-33823142D02*
X20485714Y-33861238D01*
X20485714Y-33861238D02*
X20504761Y-33937428D01*
X20504761Y-33937428D02*
X20504761Y-34032666D01*
X20504761Y-34032666D02*
X20485714Y-34108857D01*
X20485714Y-34108857D02*
X20466666Y-34146952D01*
X20466666Y-34146952D02*
X20447619Y-34166000D01*
X20447619Y-34166000D02*
X20409523Y-34185047D01*
X20409523Y-34185047D02*
X20371428Y-34185047D01*
X20371428Y-34185047D02*
X20333333Y-34166000D01*
X20333333Y-34166000D02*
X20314285Y-34146952D01*
X20314285Y-34146952D02*
X20295238Y-34108857D01*
X20295238Y-34108857D02*
X20276190Y-34032666D01*
X20276190Y-34032666D02*
X20276190Y-33937428D01*
X20276190Y-33937428D02*
X20295238Y-33861238D01*
X20295238Y-33861238D02*
X20314285Y-33823142D01*
X20314285Y-33823142D02*
X20333333Y-33804095D01*
X20333333Y-33804095D02*
X20371428Y-33785047D01*
D10*
X18390280Y-58247142D02*
X18266471Y-58333809D01*
X18390280Y-58395714D02*
X18130280Y-58395714D01*
X18130280Y-58395714D02*
X18130280Y-58296666D01*
X18130280Y-58296666D02*
X18142661Y-58271904D01*
X18142661Y-58271904D02*
X18155042Y-58259523D01*
X18155042Y-58259523D02*
X18179804Y-58247142D01*
X18179804Y-58247142D02*
X18216947Y-58247142D01*
X18216947Y-58247142D02*
X18241709Y-58259523D01*
X18241709Y-58259523D02*
X18254090Y-58271904D01*
X18254090Y-58271904D02*
X18266471Y-58296666D01*
X18266471Y-58296666D02*
X18266471Y-58395714D01*
X18155042Y-58148095D02*
X18142661Y-58135714D01*
X18142661Y-58135714D02*
X18130280Y-58110952D01*
X18130280Y-58110952D02*
X18130280Y-58049047D01*
X18130280Y-58049047D02*
X18142661Y-58024285D01*
X18142661Y-58024285D02*
X18155042Y-58011904D01*
X18155042Y-58011904D02*
X18179804Y-57999523D01*
X18179804Y-57999523D02*
X18204566Y-57999523D01*
X18204566Y-57999523D02*
X18241709Y-58011904D01*
X18241709Y-58011904D02*
X18390280Y-58160476D01*
X18390280Y-58160476D02*
X18390280Y-57999523D01*
X18130280Y-57912857D02*
X18130280Y-57751904D01*
X18130280Y-57751904D02*
X18229328Y-57838571D01*
X18229328Y-57838571D02*
X18229328Y-57801428D01*
X18229328Y-57801428D02*
X18241709Y-57776666D01*
X18241709Y-57776666D02*
X18254090Y-57764285D01*
X18254090Y-57764285D02*
X18278852Y-57751904D01*
X18278852Y-57751904D02*
X18340757Y-57751904D01*
X18340757Y-57751904D02*
X18365519Y-57764285D01*
X18365519Y-57764285D02*
X18377900Y-57776666D01*
X18377900Y-57776666D02*
X18390280Y-57801428D01*
X18390280Y-57801428D02*
X18390280Y-57875714D01*
X18390280Y-57875714D02*
X18377900Y-57900476D01*
X18377900Y-57900476D02*
X18365519Y-57912857D01*
X9001845Y-28960714D02*
X9013750Y-28972618D01*
X9013750Y-28972618D02*
X9025654Y-29008333D01*
X9025654Y-29008333D02*
X9025654Y-29032142D01*
X9025654Y-29032142D02*
X9013750Y-29067856D01*
X9013750Y-29067856D02*
X8989940Y-29091666D01*
X8989940Y-29091666D02*
X8966130Y-29103571D01*
X8966130Y-29103571D02*
X8918511Y-29115475D01*
X8918511Y-29115475D02*
X8882797Y-29115475D01*
X8882797Y-29115475D02*
X8835178Y-29103571D01*
X8835178Y-29103571D02*
X8811369Y-29091666D01*
X8811369Y-29091666D02*
X8787559Y-29067856D01*
X8787559Y-29067856D02*
X8775654Y-29032142D01*
X8775654Y-29032142D02*
X8775654Y-29008333D01*
X8775654Y-29008333D02*
X8787559Y-28972618D01*
X8787559Y-28972618D02*
X8799464Y-28960714D01*
X8858988Y-28746428D02*
X9025654Y-28746428D01*
X8763750Y-28805952D02*
X8942321Y-28865475D01*
X8942321Y-28865475D02*
X8942321Y-28710714D01*
X9025654Y-28484523D02*
X9025654Y-28627380D01*
X9025654Y-28555952D02*
X8775654Y-28555952D01*
X8775654Y-28555952D02*
X8811369Y-28579761D01*
X8811369Y-28579761D02*
X8835178Y-28603571D01*
X8835178Y-28603571D02*
X8847083Y-28627380D01*
D14*
X13753748Y-44044146D02*
X13753748Y-43644146D01*
X13753748Y-43644146D02*
X13848986Y-43644146D01*
X13848986Y-43644146D02*
X13906129Y-43663194D01*
X13906129Y-43663194D02*
X13944224Y-43701289D01*
X13944224Y-43701289D02*
X13963271Y-43739384D01*
X13963271Y-43739384D02*
X13982319Y-43815575D01*
X13982319Y-43815575D02*
X13982319Y-43872718D01*
X13982319Y-43872718D02*
X13963271Y-43948908D01*
X13963271Y-43948908D02*
X13944224Y-43987003D01*
X13944224Y-43987003D02*
X13906129Y-44025099D01*
X13906129Y-44025099D02*
X13848986Y-44044146D01*
X13848986Y-44044146D02*
X13753748Y-44044146D01*
X14363271Y-44044146D02*
X14134700Y-44044146D01*
X14248986Y-44044146D02*
X14248986Y-43644146D01*
X14248986Y-43644146D02*
X14210890Y-43701289D01*
X14210890Y-43701289D02*
X14172795Y-43739384D01*
X14172795Y-43739384D02*
X14134700Y-43758432D01*
D10*
X18380280Y-60177142D02*
X18256471Y-60263809D01*
X18380280Y-60325714D02*
X18120280Y-60325714D01*
X18120280Y-60325714D02*
X18120280Y-60226666D01*
X18120280Y-60226666D02*
X18132661Y-60201904D01*
X18132661Y-60201904D02*
X18145042Y-60189523D01*
X18145042Y-60189523D02*
X18169804Y-60177142D01*
X18169804Y-60177142D02*
X18206947Y-60177142D01*
X18206947Y-60177142D02*
X18231709Y-60189523D01*
X18231709Y-60189523D02*
X18244090Y-60201904D01*
X18244090Y-60201904D02*
X18256471Y-60226666D01*
X18256471Y-60226666D02*
X18256471Y-60325714D01*
X18145042Y-60078095D02*
X18132661Y-60065714D01*
X18132661Y-60065714D02*
X18120280Y-60040952D01*
X18120280Y-60040952D02*
X18120280Y-59979047D01*
X18120280Y-59979047D02*
X18132661Y-59954285D01*
X18132661Y-59954285D02*
X18145042Y-59941904D01*
X18145042Y-59941904D02*
X18169804Y-59929523D01*
X18169804Y-59929523D02*
X18194566Y-59929523D01*
X18194566Y-59929523D02*
X18231709Y-59941904D01*
X18231709Y-59941904D02*
X18380280Y-60090476D01*
X18380280Y-60090476D02*
X18380280Y-59929523D01*
X18206947Y-59706666D02*
X18380280Y-59706666D01*
X18107900Y-59768571D02*
X18293614Y-59830476D01*
X18293614Y-59830476D02*
X18293614Y-59669523D01*
X17291845Y-67821666D02*
X17303750Y-67833570D01*
X17303750Y-67833570D02*
X17315654Y-67869285D01*
X17315654Y-67869285D02*
X17315654Y-67893094D01*
X17315654Y-67893094D02*
X17303750Y-67928808D01*
X17303750Y-67928808D02*
X17279940Y-67952618D01*
X17279940Y-67952618D02*
X17256130Y-67964523D01*
X17256130Y-67964523D02*
X17208511Y-67976427D01*
X17208511Y-67976427D02*
X17172797Y-67976427D01*
X17172797Y-67976427D02*
X17125178Y-67964523D01*
X17125178Y-67964523D02*
X17101369Y-67952618D01*
X17101369Y-67952618D02*
X17077559Y-67928808D01*
X17077559Y-67928808D02*
X17065654Y-67893094D01*
X17065654Y-67893094D02*
X17065654Y-67869285D01*
X17065654Y-67869285D02*
X17077559Y-67833570D01*
X17077559Y-67833570D02*
X17089464Y-67821666D01*
X17089464Y-67726427D02*
X17077559Y-67714523D01*
X17077559Y-67714523D02*
X17065654Y-67690713D01*
X17065654Y-67690713D02*
X17065654Y-67631189D01*
X17065654Y-67631189D02*
X17077559Y-67607380D01*
X17077559Y-67607380D02*
X17089464Y-67595475D01*
X17089464Y-67595475D02*
X17113273Y-67583570D01*
X17113273Y-67583570D02*
X17137083Y-67583570D01*
X17137083Y-67583570D02*
X17172797Y-67595475D01*
X17172797Y-67595475D02*
X17315654Y-67738332D01*
X17315654Y-67738332D02*
X17315654Y-67583570D01*
D14*
X4614762Y-23655047D02*
X4614762Y-23978857D01*
X4614762Y-23978857D02*
X4633809Y-24016952D01*
X4633809Y-24016952D02*
X4652857Y-24036000D01*
X4652857Y-24036000D02*
X4690952Y-24055047D01*
X4690952Y-24055047D02*
X4767143Y-24055047D01*
X4767143Y-24055047D02*
X4805238Y-24036000D01*
X4805238Y-24036000D02*
X4824285Y-24016952D01*
X4824285Y-24016952D02*
X4843333Y-23978857D01*
X4843333Y-23978857D02*
X4843333Y-23655047D01*
X5243333Y-24055047D02*
X5014762Y-24055047D01*
X5129048Y-24055047D02*
X5129048Y-23655047D01*
X5129048Y-23655047D02*
X5090952Y-23712190D01*
X5090952Y-23712190D02*
X5052857Y-23750285D01*
X5052857Y-23750285D02*
X5014762Y-23769333D01*
X5624285Y-24055047D02*
X5395714Y-24055047D01*
X5510000Y-24055047D02*
X5510000Y-23655047D01*
X5510000Y-23655047D02*
X5471904Y-23712190D01*
X5471904Y-23712190D02*
X5433809Y-23750285D01*
X5433809Y-23750285D02*
X5395714Y-23769333D01*
D12*
X35333333Y-41137380D02*
X35333333Y-40423095D01*
X35333333Y-40423095D02*
X35380952Y-40280238D01*
X35380952Y-40280238D02*
X35476190Y-40185000D01*
X35476190Y-40185000D02*
X35619047Y-40137380D01*
X35619047Y-40137380D02*
X35714285Y-40137380D01*
X34428571Y-41137380D02*
X34619047Y-41137380D01*
X34619047Y-41137380D02*
X34714285Y-41089761D01*
X34714285Y-41089761D02*
X34761904Y-41042142D01*
X34761904Y-41042142D02*
X34857142Y-40899285D01*
X34857142Y-40899285D02*
X34904761Y-40708809D01*
X34904761Y-40708809D02*
X34904761Y-40327857D01*
X34904761Y-40327857D02*
X34857142Y-40232619D01*
X34857142Y-40232619D02*
X34809523Y-40185000D01*
X34809523Y-40185000D02*
X34714285Y-40137380D01*
X34714285Y-40137380D02*
X34523809Y-40137380D01*
X34523809Y-40137380D02*
X34428571Y-40185000D01*
X34428571Y-40185000D02*
X34380952Y-40232619D01*
X34380952Y-40232619D02*
X34333333Y-40327857D01*
X34333333Y-40327857D02*
X34333333Y-40565952D01*
X34333333Y-40565952D02*
X34380952Y-40661190D01*
X34380952Y-40661190D02*
X34428571Y-40708809D01*
X34428571Y-40708809D02*
X34523809Y-40756428D01*
X34523809Y-40756428D02*
X34714285Y-40756428D01*
X34714285Y-40756428D02*
X34809523Y-40708809D01*
X34809523Y-40708809D02*
X34857142Y-40661190D01*
X34857142Y-40661190D02*
X34904761Y-40565952D01*
D14*
X49514286Y-10185047D02*
X49514286Y-9785047D01*
X49514286Y-9785047D02*
X49609524Y-9785047D01*
X49609524Y-9785047D02*
X49666667Y-9804095D01*
X49666667Y-9804095D02*
X49704762Y-9842190D01*
X49704762Y-9842190D02*
X49723809Y-9880285D01*
X49723809Y-9880285D02*
X49742857Y-9956476D01*
X49742857Y-9956476D02*
X49742857Y-10013619D01*
X49742857Y-10013619D02*
X49723809Y-10089809D01*
X49723809Y-10089809D02*
X49704762Y-10127904D01*
X49704762Y-10127904D02*
X49666667Y-10166000D01*
X49666667Y-10166000D02*
X49609524Y-10185047D01*
X49609524Y-10185047D02*
X49514286Y-10185047D01*
X50123809Y-10185047D02*
X49895238Y-10185047D01*
X50009524Y-10185047D02*
X50009524Y-9785047D01*
X50009524Y-9785047D02*
X49971428Y-9842190D01*
X49971428Y-9842190D02*
X49933333Y-9880285D01*
X49933333Y-9880285D02*
X49895238Y-9899333D01*
X50485714Y-9785047D02*
X50295238Y-9785047D01*
X50295238Y-9785047D02*
X50276190Y-9975523D01*
X50276190Y-9975523D02*
X50295238Y-9956476D01*
X50295238Y-9956476D02*
X50333333Y-9937428D01*
X50333333Y-9937428D02*
X50428571Y-9937428D01*
X50428571Y-9937428D02*
X50466666Y-9956476D01*
X50466666Y-9956476D02*
X50485714Y-9975523D01*
X50485714Y-9975523D02*
X50504761Y-10013619D01*
X50504761Y-10013619D02*
X50504761Y-10108857D01*
X50504761Y-10108857D02*
X50485714Y-10146952D01*
X50485714Y-10146952D02*
X50466666Y-10166000D01*
X50466666Y-10166000D02*
X50428571Y-10185047D01*
X50428571Y-10185047D02*
X50333333Y-10185047D01*
X50333333Y-10185047D02*
X50295238Y-10166000D01*
X50295238Y-10166000D02*
X50276190Y-10146952D01*
D16*
X46959523Y-62518514D02*
X46929047Y-62503276D01*
X46929047Y-62503276D02*
X46898571Y-62472800D01*
X46898571Y-62472800D02*
X46852857Y-62427085D01*
X46852857Y-62427085D02*
X46822380Y-62411847D01*
X46822380Y-62411847D02*
X46791904Y-62411847D01*
X46807142Y-62488038D02*
X46776666Y-62472800D01*
X46776666Y-62472800D02*
X46746190Y-62442323D01*
X46746190Y-62442323D02*
X46730952Y-62381371D01*
X46730952Y-62381371D02*
X46730952Y-62274704D01*
X46730952Y-62274704D02*
X46746190Y-62213752D01*
X46746190Y-62213752D02*
X46776666Y-62183276D01*
X46776666Y-62183276D02*
X46807142Y-62168038D01*
X46807142Y-62168038D02*
X46868095Y-62168038D01*
X46868095Y-62168038D02*
X46898571Y-62183276D01*
X46898571Y-62183276D02*
X46929047Y-62213752D01*
X46929047Y-62213752D02*
X46944285Y-62274704D01*
X46944285Y-62274704D02*
X46944285Y-62381371D01*
X46944285Y-62381371D02*
X46929047Y-62442323D01*
X46929047Y-62442323D02*
X46898571Y-62472800D01*
X46898571Y-62472800D02*
X46868095Y-62488038D01*
X46868095Y-62488038D02*
X46807142Y-62488038D01*
X47249047Y-62488038D02*
X47066190Y-62488038D01*
X47157618Y-62488038D02*
X47157618Y-62168038D01*
X47157618Y-62168038D02*
X47127142Y-62213752D01*
X47127142Y-62213752D02*
X47096666Y-62244228D01*
X47096666Y-62244228D02*
X47066190Y-62259466D01*
D10*
X16320280Y-67843332D02*
X16196471Y-67929999D01*
X16320280Y-67991904D02*
X16060280Y-67991904D01*
X16060280Y-67991904D02*
X16060280Y-67892856D01*
X16060280Y-67892856D02*
X16072661Y-67868094D01*
X16072661Y-67868094D02*
X16085042Y-67855713D01*
X16085042Y-67855713D02*
X16109804Y-67843332D01*
X16109804Y-67843332D02*
X16146947Y-67843332D01*
X16146947Y-67843332D02*
X16171709Y-67855713D01*
X16171709Y-67855713D02*
X16184090Y-67868094D01*
X16184090Y-67868094D02*
X16196471Y-67892856D01*
X16196471Y-67892856D02*
X16196471Y-67991904D01*
X16060280Y-67756666D02*
X16060280Y-67595713D01*
X16060280Y-67595713D02*
X16159328Y-67682380D01*
X16159328Y-67682380D02*
X16159328Y-67645237D01*
X16159328Y-67645237D02*
X16171709Y-67620475D01*
X16171709Y-67620475D02*
X16184090Y-67608094D01*
X16184090Y-67608094D02*
X16208852Y-67595713D01*
X16208852Y-67595713D02*
X16270757Y-67595713D01*
X16270757Y-67595713D02*
X16295519Y-67608094D01*
X16295519Y-67608094D02*
X16307900Y-67620475D01*
X16307900Y-67620475D02*
X16320280Y-67645237D01*
X16320280Y-67645237D02*
X16320280Y-67719523D01*
X16320280Y-67719523D02*
X16307900Y-67744285D01*
X16307900Y-67744285D02*
X16295519Y-67756666D01*
D12*
X13212619Y-34738094D02*
X12212619Y-34738094D01*
X12212619Y-34738094D02*
X12212619Y-34499999D01*
X12212619Y-34499999D02*
X12260238Y-34357142D01*
X12260238Y-34357142D02*
X12355476Y-34261904D01*
X12355476Y-34261904D02*
X12450714Y-34214285D01*
X12450714Y-34214285D02*
X12641190Y-34166666D01*
X12641190Y-34166666D02*
X12784047Y-34166666D01*
X12784047Y-34166666D02*
X12974523Y-34214285D01*
X12974523Y-34214285D02*
X13069761Y-34261904D01*
X13069761Y-34261904D02*
X13165000Y-34357142D01*
X13165000Y-34357142D02*
X13212619Y-34499999D01*
X13212619Y-34499999D02*
X13212619Y-34738094D01*
X12212619Y-33261904D02*
X12212619Y-33738094D01*
X12212619Y-33738094D02*
X12688809Y-33785713D01*
X12688809Y-33785713D02*
X12641190Y-33738094D01*
X12641190Y-33738094D02*
X12593571Y-33642856D01*
X12593571Y-33642856D02*
X12593571Y-33404761D01*
X12593571Y-33404761D02*
X12641190Y-33309523D01*
X12641190Y-33309523D02*
X12688809Y-33261904D01*
X12688809Y-33261904D02*
X12784047Y-33214285D01*
X12784047Y-33214285D02*
X13022142Y-33214285D01*
X13022142Y-33214285D02*
X13117380Y-33261904D01*
X13117380Y-33261904D02*
X13165000Y-33309523D01*
X13165000Y-33309523D02*
X13212619Y-33404761D01*
X13212619Y-33404761D02*
X13212619Y-33642856D01*
X13212619Y-33642856D02*
X13165000Y-33738094D01*
X13165000Y-33738094D02*
X13117380Y-33785713D01*
D14*
X19514286Y-10185047D02*
X19514286Y-9785047D01*
X19514286Y-9785047D02*
X19609524Y-9785047D01*
X19609524Y-9785047D02*
X19666667Y-9804095D01*
X19666667Y-9804095D02*
X19704762Y-9842190D01*
X19704762Y-9842190D02*
X19723809Y-9880285D01*
X19723809Y-9880285D02*
X19742857Y-9956476D01*
X19742857Y-9956476D02*
X19742857Y-10013619D01*
X19742857Y-10013619D02*
X19723809Y-10089809D01*
X19723809Y-10089809D02*
X19704762Y-10127904D01*
X19704762Y-10127904D02*
X19666667Y-10166000D01*
X19666667Y-10166000D02*
X19609524Y-10185047D01*
X19609524Y-10185047D02*
X19514286Y-10185047D01*
X20123809Y-10185047D02*
X19895238Y-10185047D01*
X20009524Y-10185047D02*
X20009524Y-9785047D01*
X20009524Y-9785047D02*
X19971428Y-9842190D01*
X19971428Y-9842190D02*
X19933333Y-9880285D01*
X19933333Y-9880285D02*
X19895238Y-9899333D01*
X20257142Y-9785047D02*
X20504761Y-9785047D01*
X20504761Y-9785047D02*
X20371428Y-9937428D01*
X20371428Y-9937428D02*
X20428571Y-9937428D01*
X20428571Y-9937428D02*
X20466666Y-9956476D01*
X20466666Y-9956476D02*
X20485714Y-9975523D01*
X20485714Y-9975523D02*
X20504761Y-10013619D01*
X20504761Y-10013619D02*
X20504761Y-10108857D01*
X20504761Y-10108857D02*
X20485714Y-10146952D01*
X20485714Y-10146952D02*
X20466666Y-10166000D01*
X20466666Y-10166000D02*
X20428571Y-10185047D01*
X20428571Y-10185047D02*
X20314285Y-10185047D01*
X20314285Y-10185047D02*
X20276190Y-10166000D01*
X20276190Y-10166000D02*
X20257142Y-10146952D01*
D12*
X33083332Y-1335000D02*
X32940475Y-1287380D01*
X32940475Y-1287380D02*
X32702380Y-1287380D01*
X32702380Y-1287380D02*
X32607142Y-1335000D01*
X32607142Y-1335000D02*
X32559523Y-1382619D01*
X32559523Y-1382619D02*
X32511904Y-1477857D01*
X32511904Y-1477857D02*
X32511904Y-1573095D01*
X32511904Y-1573095D02*
X32559523Y-1668333D01*
X32559523Y-1668333D02*
X32607142Y-1715952D01*
X32607142Y-1715952D02*
X32702380Y-1763571D01*
X32702380Y-1763571D02*
X32892856Y-1811190D01*
X32892856Y-1811190D02*
X32988094Y-1858809D01*
X32988094Y-1858809D02*
X33035713Y-1906428D01*
X33035713Y-1906428D02*
X33083332Y-2001666D01*
X33083332Y-2001666D02*
X33083332Y-2096904D01*
X33083332Y-2096904D02*
X33035713Y-2192142D01*
X33035713Y-2192142D02*
X32988094Y-2239761D01*
X32988094Y-2239761D02*
X32892856Y-2287380D01*
X32892856Y-2287380D02*
X32654761Y-2287380D01*
X32654761Y-2287380D02*
X32511904Y-2239761D01*
X32178570Y-2287380D02*
X31940475Y-1287380D01*
X31940475Y-1287380D02*
X31749999Y-2001666D01*
X31749999Y-2001666D02*
X31559523Y-1287380D01*
X31559523Y-1287380D02*
X31321428Y-2287380D01*
X30416666Y-1287380D02*
X30988094Y-1287380D01*
X30702380Y-1287380D02*
X30702380Y-2287380D01*
X30702380Y-2287380D02*
X30797618Y-2144523D01*
X30797618Y-2144523D02*
X30892856Y-2049285D01*
X30892856Y-2049285D02*
X30988094Y-2001666D01*
X69165000Y-16333332D02*
X69212619Y-16190475D01*
X69212619Y-16190475D02*
X69212619Y-15952380D01*
X69212619Y-15952380D02*
X69165000Y-15857142D01*
X69165000Y-15857142D02*
X69117380Y-15809523D01*
X69117380Y-15809523D02*
X69022142Y-15761904D01*
X69022142Y-15761904D02*
X68926904Y-15761904D01*
X68926904Y-15761904D02*
X68831666Y-15809523D01*
X68831666Y-15809523D02*
X68784047Y-15857142D01*
X68784047Y-15857142D02*
X68736428Y-15952380D01*
X68736428Y-15952380D02*
X68688809Y-16142856D01*
X68688809Y-16142856D02*
X68641190Y-16238094D01*
X68641190Y-16238094D02*
X68593571Y-16285713D01*
X68593571Y-16285713D02*
X68498333Y-16333332D01*
X68498333Y-16333332D02*
X68403095Y-16333332D01*
X68403095Y-16333332D02*
X68307857Y-16285713D01*
X68307857Y-16285713D02*
X68260238Y-16238094D01*
X68260238Y-16238094D02*
X68212619Y-16142856D01*
X68212619Y-16142856D02*
X68212619Y-15904761D01*
X68212619Y-15904761D02*
X68260238Y-15761904D01*
X68212619Y-15428570D02*
X69212619Y-15190475D01*
X69212619Y-15190475D02*
X68498333Y-14999999D01*
X68498333Y-14999999D02*
X69212619Y-14809523D01*
X69212619Y-14809523D02*
X68212619Y-14571428D01*
X68212619Y-14285713D02*
X68212619Y-13666666D01*
X68212619Y-13666666D02*
X68593571Y-13999999D01*
X68593571Y-13999999D02*
X68593571Y-13857142D01*
X68593571Y-13857142D02*
X68641190Y-13761904D01*
X68641190Y-13761904D02*
X68688809Y-13714285D01*
X68688809Y-13714285D02*
X68784047Y-13666666D01*
X68784047Y-13666666D02*
X69022142Y-13666666D01*
X69022142Y-13666666D02*
X69117380Y-13714285D01*
X69117380Y-13714285D02*
X69165000Y-13761904D01*
X69165000Y-13761904D02*
X69212619Y-13857142D01*
X69212619Y-13857142D02*
X69212619Y-14142856D01*
X69212619Y-14142856D02*
X69165000Y-14238094D01*
X69165000Y-14238094D02*
X69117380Y-14285713D01*
X8861905Y-27437619D02*
X8861905Y-26437619D01*
X8861905Y-26437619D02*
X9100000Y-26437619D01*
X9100000Y-26437619D02*
X9242857Y-26485238D01*
X9242857Y-26485238D02*
X9338095Y-26580476D01*
X9338095Y-26580476D02*
X9385714Y-26675714D01*
X9385714Y-26675714D02*
X9433333Y-26866190D01*
X9433333Y-26866190D02*
X9433333Y-27009047D01*
X9433333Y-27009047D02*
X9385714Y-27199523D01*
X9385714Y-27199523D02*
X9338095Y-27294761D01*
X9338095Y-27294761D02*
X9242857Y-27390000D01*
X9242857Y-27390000D02*
X9100000Y-27437619D01*
X9100000Y-27437619D02*
X8861905Y-27437619D01*
X10004762Y-26866190D02*
X9909524Y-26818571D01*
X9909524Y-26818571D02*
X9861905Y-26770952D01*
X9861905Y-26770952D02*
X9814286Y-26675714D01*
X9814286Y-26675714D02*
X9814286Y-26628095D01*
X9814286Y-26628095D02*
X9861905Y-26532857D01*
X9861905Y-26532857D02*
X9909524Y-26485238D01*
X9909524Y-26485238D02*
X10004762Y-26437619D01*
X10004762Y-26437619D02*
X10195238Y-26437619D01*
X10195238Y-26437619D02*
X10290476Y-26485238D01*
X10290476Y-26485238D02*
X10338095Y-26532857D01*
X10338095Y-26532857D02*
X10385714Y-26628095D01*
X10385714Y-26628095D02*
X10385714Y-26675714D01*
X10385714Y-26675714D02*
X10338095Y-26770952D01*
X10338095Y-26770952D02*
X10290476Y-26818571D01*
X10290476Y-26818571D02*
X10195238Y-26866190D01*
X10195238Y-26866190D02*
X10004762Y-26866190D01*
X10004762Y-26866190D02*
X9909524Y-26913809D01*
X9909524Y-26913809D02*
X9861905Y-26961428D01*
X9861905Y-26961428D02*
X9814286Y-27056666D01*
X9814286Y-27056666D02*
X9814286Y-27247142D01*
X9814286Y-27247142D02*
X9861905Y-27342380D01*
X9861905Y-27342380D02*
X9909524Y-27390000D01*
X9909524Y-27390000D02*
X10004762Y-27437619D01*
X10004762Y-27437619D02*
X10195238Y-27437619D01*
X10195238Y-27437619D02*
X10290476Y-27390000D01*
X10290476Y-27390000D02*
X10338095Y-27342380D01*
X10338095Y-27342380D02*
X10385714Y-27247142D01*
X10385714Y-27247142D02*
X10385714Y-27056666D01*
X10385714Y-27056666D02*
X10338095Y-26961428D01*
X10338095Y-26961428D02*
X10290476Y-26913809D01*
X10290476Y-26913809D02*
X10195238Y-26866190D01*
D10*
X10839285Y-23841845D02*
X10827381Y-23853750D01*
X10827381Y-23853750D02*
X10791666Y-23865654D01*
X10791666Y-23865654D02*
X10767857Y-23865654D01*
X10767857Y-23865654D02*
X10732143Y-23853750D01*
X10732143Y-23853750D02*
X10708333Y-23829940D01*
X10708333Y-23829940D02*
X10696428Y-23806130D01*
X10696428Y-23806130D02*
X10684524Y-23758511D01*
X10684524Y-23758511D02*
X10684524Y-23722797D01*
X10684524Y-23722797D02*
X10696428Y-23675178D01*
X10696428Y-23675178D02*
X10708333Y-23651369D01*
X10708333Y-23651369D02*
X10732143Y-23627559D01*
X10732143Y-23627559D02*
X10767857Y-23615654D01*
X10767857Y-23615654D02*
X10791666Y-23615654D01*
X10791666Y-23615654D02*
X10827381Y-23627559D01*
X10827381Y-23627559D02*
X10839285Y-23639464D01*
X11065476Y-23615654D02*
X10946428Y-23615654D01*
X10946428Y-23615654D02*
X10934524Y-23734702D01*
X10934524Y-23734702D02*
X10946428Y-23722797D01*
X10946428Y-23722797D02*
X10970238Y-23710892D01*
X10970238Y-23710892D02*
X11029762Y-23710892D01*
X11029762Y-23710892D02*
X11053571Y-23722797D01*
X11053571Y-23722797D02*
X11065476Y-23734702D01*
X11065476Y-23734702D02*
X11077381Y-23758511D01*
X11077381Y-23758511D02*
X11077381Y-23818035D01*
X11077381Y-23818035D02*
X11065476Y-23841845D01*
X11065476Y-23841845D02*
X11053571Y-23853750D01*
X11053571Y-23853750D02*
X11029762Y-23865654D01*
X11029762Y-23865654D02*
X10970238Y-23865654D01*
X10970238Y-23865654D02*
X10946428Y-23853750D01*
X10946428Y-23853750D02*
X10934524Y-23841845D01*
X11232142Y-23615654D02*
X11255952Y-23615654D01*
X11255952Y-23615654D02*
X11279761Y-23627559D01*
X11279761Y-23627559D02*
X11291666Y-23639464D01*
X11291666Y-23639464D02*
X11303571Y-23663273D01*
X11303571Y-23663273D02*
X11315476Y-23710892D01*
X11315476Y-23710892D02*
X11315476Y-23770416D01*
X11315476Y-23770416D02*
X11303571Y-23818035D01*
X11303571Y-23818035D02*
X11291666Y-23841845D01*
X11291666Y-23841845D02*
X11279761Y-23853750D01*
X11279761Y-23853750D02*
X11255952Y-23865654D01*
X11255952Y-23865654D02*
X11232142Y-23865654D01*
X11232142Y-23865654D02*
X11208333Y-23853750D01*
X11208333Y-23853750D02*
X11196428Y-23841845D01*
X11196428Y-23841845D02*
X11184523Y-23818035D01*
X11184523Y-23818035D02*
X11172619Y-23770416D01*
X11172619Y-23770416D02*
X11172619Y-23710892D01*
X11172619Y-23710892D02*
X11184523Y-23663273D01*
X11184523Y-23663273D02*
X11196428Y-23639464D01*
X11196428Y-23639464D02*
X11208333Y-23627559D01*
X11208333Y-23627559D02*
X11232142Y-23615654D01*
D12*
X20412619Y-16533333D02*
X21126904Y-16533333D01*
X21126904Y-16533333D02*
X21269761Y-16580952D01*
X21269761Y-16580952D02*
X21365000Y-16676190D01*
X21365000Y-16676190D02*
X21412619Y-16819047D01*
X21412619Y-16819047D02*
X21412619Y-16914285D01*
X20412619Y-15580952D02*
X20412619Y-16057142D01*
X20412619Y-16057142D02*
X20888809Y-16104761D01*
X20888809Y-16104761D02*
X20841190Y-16057142D01*
X20841190Y-16057142D02*
X20793571Y-15961904D01*
X20793571Y-15961904D02*
X20793571Y-15723809D01*
X20793571Y-15723809D02*
X20841190Y-15628571D01*
X20841190Y-15628571D02*
X20888809Y-15580952D01*
X20888809Y-15580952D02*
X20984047Y-15533333D01*
X20984047Y-15533333D02*
X21222142Y-15533333D01*
X21222142Y-15533333D02*
X21317380Y-15580952D01*
X21317380Y-15580952D02*
X21365000Y-15628571D01*
X21365000Y-15628571D02*
X21412619Y-15723809D01*
X21412619Y-15723809D02*
X21412619Y-15961904D01*
X21412619Y-15961904D02*
X21365000Y-16057142D01*
X21365000Y-16057142D02*
X21317380Y-16104761D01*
D10*
X3822857Y-21740280D02*
X3736190Y-21616471D01*
X3674285Y-21740280D02*
X3674285Y-21480280D01*
X3674285Y-21480280D02*
X3773333Y-21480280D01*
X3773333Y-21480280D02*
X3798095Y-21492661D01*
X3798095Y-21492661D02*
X3810476Y-21505042D01*
X3810476Y-21505042D02*
X3822857Y-21529804D01*
X3822857Y-21529804D02*
X3822857Y-21566947D01*
X3822857Y-21566947D02*
X3810476Y-21591709D01*
X3810476Y-21591709D02*
X3798095Y-21604090D01*
X3798095Y-21604090D02*
X3773333Y-21616471D01*
X3773333Y-21616471D02*
X3674285Y-21616471D01*
X3909523Y-21480280D02*
X4070476Y-21480280D01*
X4070476Y-21480280D02*
X3983809Y-21579328D01*
X3983809Y-21579328D02*
X4020952Y-21579328D01*
X4020952Y-21579328D02*
X4045714Y-21591709D01*
X4045714Y-21591709D02*
X4058095Y-21604090D01*
X4058095Y-21604090D02*
X4070476Y-21628852D01*
X4070476Y-21628852D02*
X4070476Y-21690757D01*
X4070476Y-21690757D02*
X4058095Y-21715519D01*
X4058095Y-21715519D02*
X4045714Y-21727900D01*
X4045714Y-21727900D02*
X4020952Y-21740280D01*
X4020952Y-21740280D02*
X3946666Y-21740280D01*
X3946666Y-21740280D02*
X3921904Y-21727900D01*
X3921904Y-21727900D02*
X3909523Y-21715519D01*
X4169523Y-21505042D02*
X4181904Y-21492661D01*
X4181904Y-21492661D02*
X4206666Y-21480280D01*
X4206666Y-21480280D02*
X4268571Y-21480280D01*
X4268571Y-21480280D02*
X4293333Y-21492661D01*
X4293333Y-21492661D02*
X4305714Y-21505042D01*
X4305714Y-21505042D02*
X4318095Y-21529804D01*
X4318095Y-21529804D02*
X4318095Y-21554566D01*
X4318095Y-21554566D02*
X4305714Y-21591709D01*
X4305714Y-21591709D02*
X4157142Y-21740280D01*
X4157142Y-21740280D02*
X4318095Y-21740280D01*
D14*
X49514286Y-12185047D02*
X49514286Y-11785047D01*
X49514286Y-11785047D02*
X49609524Y-11785047D01*
X49609524Y-11785047D02*
X49666667Y-11804095D01*
X49666667Y-11804095D02*
X49704762Y-11842190D01*
X49704762Y-11842190D02*
X49723809Y-11880285D01*
X49723809Y-11880285D02*
X49742857Y-11956476D01*
X49742857Y-11956476D02*
X49742857Y-12013619D01*
X49742857Y-12013619D02*
X49723809Y-12089809D01*
X49723809Y-12089809D02*
X49704762Y-12127904D01*
X49704762Y-12127904D02*
X49666667Y-12166000D01*
X49666667Y-12166000D02*
X49609524Y-12185047D01*
X49609524Y-12185047D02*
X49514286Y-12185047D01*
X50123809Y-12185047D02*
X49895238Y-12185047D01*
X50009524Y-12185047D02*
X50009524Y-11785047D01*
X50009524Y-11785047D02*
X49971428Y-11842190D01*
X49971428Y-11842190D02*
X49933333Y-11880285D01*
X49933333Y-11880285D02*
X49895238Y-11899333D01*
X50257142Y-11785047D02*
X50523809Y-11785047D01*
X50523809Y-11785047D02*
X50352380Y-12185047D01*
D10*
X49620280Y-65417142D02*
X49496471Y-65503809D01*
X49620280Y-65565714D02*
X49360280Y-65565714D01*
X49360280Y-65565714D02*
X49360280Y-65466666D01*
X49360280Y-65466666D02*
X49372661Y-65441904D01*
X49372661Y-65441904D02*
X49385042Y-65429523D01*
X49385042Y-65429523D02*
X49409804Y-65417142D01*
X49409804Y-65417142D02*
X49446947Y-65417142D01*
X49446947Y-65417142D02*
X49471709Y-65429523D01*
X49471709Y-65429523D02*
X49484090Y-65441904D01*
X49484090Y-65441904D02*
X49496471Y-65466666D01*
X49496471Y-65466666D02*
X49496471Y-65565714D01*
X49360280Y-65330476D02*
X49360280Y-65169523D01*
X49360280Y-65169523D02*
X49459328Y-65256190D01*
X49459328Y-65256190D02*
X49459328Y-65219047D01*
X49459328Y-65219047D02*
X49471709Y-65194285D01*
X49471709Y-65194285D02*
X49484090Y-65181904D01*
X49484090Y-65181904D02*
X49508852Y-65169523D01*
X49508852Y-65169523D02*
X49570757Y-65169523D01*
X49570757Y-65169523D02*
X49595519Y-65181904D01*
X49595519Y-65181904D02*
X49607900Y-65194285D01*
X49607900Y-65194285D02*
X49620280Y-65219047D01*
X49620280Y-65219047D02*
X49620280Y-65293333D01*
X49620280Y-65293333D02*
X49607900Y-65318095D01*
X49607900Y-65318095D02*
X49595519Y-65330476D01*
X49360280Y-65008571D02*
X49360280Y-64983809D01*
X49360280Y-64983809D02*
X49372661Y-64959047D01*
X49372661Y-64959047D02*
X49385042Y-64946666D01*
X49385042Y-64946666D02*
X49409804Y-64934285D01*
X49409804Y-64934285D02*
X49459328Y-64921904D01*
X49459328Y-64921904D02*
X49521233Y-64921904D01*
X49521233Y-64921904D02*
X49570757Y-64934285D01*
X49570757Y-64934285D02*
X49595519Y-64946666D01*
X49595519Y-64946666D02*
X49607900Y-64959047D01*
X49607900Y-64959047D02*
X49620280Y-64983809D01*
X49620280Y-64983809D02*
X49620280Y-65008571D01*
X49620280Y-65008571D02*
X49607900Y-65033333D01*
X49607900Y-65033333D02*
X49595519Y-65045714D01*
X49595519Y-65045714D02*
X49570757Y-65058095D01*
X49570757Y-65058095D02*
X49521233Y-65070476D01*
X49521233Y-65070476D02*
X49459328Y-65070476D01*
X49459328Y-65070476D02*
X49409804Y-65058095D01*
X49409804Y-65058095D02*
X49385042Y-65045714D01*
X49385042Y-65045714D02*
X49372661Y-65033333D01*
X49372661Y-65033333D02*
X49360280Y-65008571D01*
X59501845Y-56560714D02*
X59513750Y-56572618D01*
X59513750Y-56572618D02*
X59525654Y-56608333D01*
X59525654Y-56608333D02*
X59525654Y-56632142D01*
X59525654Y-56632142D02*
X59513750Y-56667856D01*
X59513750Y-56667856D02*
X59489940Y-56691666D01*
X59489940Y-56691666D02*
X59466130Y-56703571D01*
X59466130Y-56703571D02*
X59418511Y-56715475D01*
X59418511Y-56715475D02*
X59382797Y-56715475D01*
X59382797Y-56715475D02*
X59335178Y-56703571D01*
X59335178Y-56703571D02*
X59311369Y-56691666D01*
X59311369Y-56691666D02*
X59287559Y-56667856D01*
X59287559Y-56667856D02*
X59275654Y-56632142D01*
X59275654Y-56632142D02*
X59275654Y-56608333D01*
X59275654Y-56608333D02*
X59287559Y-56572618D01*
X59287559Y-56572618D02*
X59299464Y-56560714D01*
X59299464Y-56465475D02*
X59287559Y-56453571D01*
X59287559Y-56453571D02*
X59275654Y-56429761D01*
X59275654Y-56429761D02*
X59275654Y-56370237D01*
X59275654Y-56370237D02*
X59287559Y-56346428D01*
X59287559Y-56346428D02*
X59299464Y-56334523D01*
X59299464Y-56334523D02*
X59323273Y-56322618D01*
X59323273Y-56322618D02*
X59347083Y-56322618D01*
X59347083Y-56322618D02*
X59382797Y-56334523D01*
X59382797Y-56334523D02*
X59525654Y-56477380D01*
X59525654Y-56477380D02*
X59525654Y-56322618D01*
X59299464Y-56227380D02*
X59287559Y-56215476D01*
X59287559Y-56215476D02*
X59275654Y-56191666D01*
X59275654Y-56191666D02*
X59275654Y-56132142D01*
X59275654Y-56132142D02*
X59287559Y-56108333D01*
X59287559Y-56108333D02*
X59299464Y-56096428D01*
X59299464Y-56096428D02*
X59323273Y-56084523D01*
X59323273Y-56084523D02*
X59347083Y-56084523D01*
X59347083Y-56084523D02*
X59382797Y-56096428D01*
X59382797Y-56096428D02*
X59525654Y-56239285D01*
X59525654Y-56239285D02*
X59525654Y-56084523D01*
X27777845Y-61586714D02*
X27789750Y-61598618D01*
X27789750Y-61598618D02*
X27801654Y-61634333D01*
X27801654Y-61634333D02*
X27801654Y-61658142D01*
X27801654Y-61658142D02*
X27789750Y-61693856D01*
X27789750Y-61693856D02*
X27765940Y-61717666D01*
X27765940Y-61717666D02*
X27742130Y-61729571D01*
X27742130Y-61729571D02*
X27694511Y-61741475D01*
X27694511Y-61741475D02*
X27658797Y-61741475D01*
X27658797Y-61741475D02*
X27611178Y-61729571D01*
X27611178Y-61729571D02*
X27587369Y-61717666D01*
X27587369Y-61717666D02*
X27563559Y-61693856D01*
X27563559Y-61693856D02*
X27551654Y-61658142D01*
X27551654Y-61658142D02*
X27551654Y-61634333D01*
X27551654Y-61634333D02*
X27563559Y-61598618D01*
X27563559Y-61598618D02*
X27575464Y-61586714D01*
X27575464Y-61491475D02*
X27563559Y-61479571D01*
X27563559Y-61479571D02*
X27551654Y-61455761D01*
X27551654Y-61455761D02*
X27551654Y-61396237D01*
X27551654Y-61396237D02*
X27563559Y-61372428D01*
X27563559Y-61372428D02*
X27575464Y-61360523D01*
X27575464Y-61360523D02*
X27599273Y-61348618D01*
X27599273Y-61348618D02*
X27623083Y-61348618D01*
X27623083Y-61348618D02*
X27658797Y-61360523D01*
X27658797Y-61360523D02*
X27801654Y-61503380D01*
X27801654Y-61503380D02*
X27801654Y-61348618D01*
X27634988Y-61134333D02*
X27801654Y-61134333D01*
X27539750Y-61193857D02*
X27718321Y-61253380D01*
X27718321Y-61253380D02*
X27718321Y-61098619D01*
D12*
X7738095Y-15462619D02*
X7738095Y-16272142D01*
X7738095Y-16272142D02*
X7785714Y-16367380D01*
X7785714Y-16367380D02*
X7833333Y-16415000D01*
X7833333Y-16415000D02*
X7928571Y-16462619D01*
X7928571Y-16462619D02*
X8119047Y-16462619D01*
X8119047Y-16462619D02*
X8214285Y-16415000D01*
X8214285Y-16415000D02*
X8261904Y-16367380D01*
X8261904Y-16367380D02*
X8309523Y-16272142D01*
X8309523Y-16272142D02*
X8309523Y-15462619D01*
X9214285Y-15462619D02*
X9023809Y-15462619D01*
X9023809Y-15462619D02*
X8928571Y-15510238D01*
X8928571Y-15510238D02*
X8880952Y-15557857D01*
X8880952Y-15557857D02*
X8785714Y-15700714D01*
X8785714Y-15700714D02*
X8738095Y-15891190D01*
X8738095Y-15891190D02*
X8738095Y-16272142D01*
X8738095Y-16272142D02*
X8785714Y-16367380D01*
X8785714Y-16367380D02*
X8833333Y-16415000D01*
X8833333Y-16415000D02*
X8928571Y-16462619D01*
X8928571Y-16462619D02*
X9119047Y-16462619D01*
X9119047Y-16462619D02*
X9214285Y-16415000D01*
X9214285Y-16415000D02*
X9261904Y-16367380D01*
X9261904Y-16367380D02*
X9309523Y-16272142D01*
X9309523Y-16272142D02*
X9309523Y-16034047D01*
X9309523Y-16034047D02*
X9261904Y-15938809D01*
X9261904Y-15938809D02*
X9214285Y-15891190D01*
X9214285Y-15891190D02*
X9119047Y-15843571D01*
X9119047Y-15843571D02*
X8928571Y-15843571D01*
X8928571Y-15843571D02*
X8833333Y-15891190D01*
X8833333Y-15891190D02*
X8785714Y-15938809D01*
X8785714Y-15938809D02*
X8738095Y-16034047D01*
D10*
X25745845Y-61586714D02*
X25757750Y-61598618D01*
X25757750Y-61598618D02*
X25769654Y-61634333D01*
X25769654Y-61634333D02*
X25769654Y-61658142D01*
X25769654Y-61658142D02*
X25757750Y-61693856D01*
X25757750Y-61693856D02*
X25733940Y-61717666D01*
X25733940Y-61717666D02*
X25710130Y-61729571D01*
X25710130Y-61729571D02*
X25662511Y-61741475D01*
X25662511Y-61741475D02*
X25626797Y-61741475D01*
X25626797Y-61741475D02*
X25579178Y-61729571D01*
X25579178Y-61729571D02*
X25555369Y-61717666D01*
X25555369Y-61717666D02*
X25531559Y-61693856D01*
X25531559Y-61693856D02*
X25519654Y-61658142D01*
X25519654Y-61658142D02*
X25519654Y-61634333D01*
X25519654Y-61634333D02*
X25531559Y-61598618D01*
X25531559Y-61598618D02*
X25543464Y-61586714D01*
X25769654Y-61348618D02*
X25769654Y-61491475D01*
X25769654Y-61420047D02*
X25519654Y-61420047D01*
X25519654Y-61420047D02*
X25555369Y-61443856D01*
X25555369Y-61443856D02*
X25579178Y-61467666D01*
X25579178Y-61467666D02*
X25591083Y-61491475D01*
X25769654Y-61229571D02*
X25769654Y-61181952D01*
X25769654Y-61181952D02*
X25757750Y-61158142D01*
X25757750Y-61158142D02*
X25745845Y-61146238D01*
X25745845Y-61146238D02*
X25710130Y-61122428D01*
X25710130Y-61122428D02*
X25662511Y-61110523D01*
X25662511Y-61110523D02*
X25567273Y-61110523D01*
X25567273Y-61110523D02*
X25543464Y-61122428D01*
X25543464Y-61122428D02*
X25531559Y-61134333D01*
X25531559Y-61134333D02*
X25519654Y-61158142D01*
X25519654Y-61158142D02*
X25519654Y-61205761D01*
X25519654Y-61205761D02*
X25531559Y-61229571D01*
X25531559Y-61229571D02*
X25543464Y-61241476D01*
X25543464Y-61241476D02*
X25567273Y-61253380D01*
X25567273Y-61253380D02*
X25626797Y-61253380D01*
X25626797Y-61253380D02*
X25650607Y-61241476D01*
X25650607Y-61241476D02*
X25662511Y-61229571D01*
X25662511Y-61229571D02*
X25674416Y-61205761D01*
X25674416Y-61205761D02*
X25674416Y-61158142D01*
X25674416Y-61158142D02*
X25662511Y-61134333D01*
X25662511Y-61134333D02*
X25650607Y-61122428D01*
X25650607Y-61122428D02*
X25626797Y-61110523D01*
D12*
X10211905Y-40612619D02*
X10211905Y-39612619D01*
X10211905Y-39612619D02*
X10450000Y-39612619D01*
X10450000Y-39612619D02*
X10592857Y-39660238D01*
X10592857Y-39660238D02*
X10688095Y-39755476D01*
X10688095Y-39755476D02*
X10735714Y-39850714D01*
X10735714Y-39850714D02*
X10783333Y-40041190D01*
X10783333Y-40041190D02*
X10783333Y-40184047D01*
X10783333Y-40184047D02*
X10735714Y-40374523D01*
X10735714Y-40374523D02*
X10688095Y-40469761D01*
X10688095Y-40469761D02*
X10592857Y-40565000D01*
X10592857Y-40565000D02*
X10450000Y-40612619D01*
X10450000Y-40612619D02*
X10211905Y-40612619D01*
X11640476Y-39945952D02*
X11640476Y-40612619D01*
X11402381Y-39565000D02*
X11164286Y-40279285D01*
X11164286Y-40279285D02*
X11783333Y-40279285D01*
D14*
X22197547Y-60367261D02*
X22521357Y-60367261D01*
X22521357Y-60367261D02*
X22559452Y-60348214D01*
X22559452Y-60348214D02*
X22578500Y-60329166D01*
X22578500Y-60329166D02*
X22597547Y-60291071D01*
X22597547Y-60291071D02*
X22597547Y-60214880D01*
X22597547Y-60214880D02*
X22578500Y-60176785D01*
X22578500Y-60176785D02*
X22559452Y-60157738D01*
X22559452Y-60157738D02*
X22521357Y-60138690D01*
X22521357Y-60138690D02*
X22197547Y-60138690D01*
X22197547Y-59757737D02*
X22197547Y-59948213D01*
X22197547Y-59948213D02*
X22388023Y-59967261D01*
X22388023Y-59967261D02*
X22368976Y-59948213D01*
X22368976Y-59948213D02*
X22349928Y-59910118D01*
X22349928Y-59910118D02*
X22349928Y-59814880D01*
X22349928Y-59814880D02*
X22368976Y-59776785D01*
X22368976Y-59776785D02*
X22388023Y-59757737D01*
X22388023Y-59757737D02*
X22426119Y-59738690D01*
X22426119Y-59738690D02*
X22521357Y-59738690D01*
X22521357Y-59738690D02*
X22559452Y-59757737D01*
X22559452Y-59757737D02*
X22578500Y-59776785D01*
X22578500Y-59776785D02*
X22597547Y-59814880D01*
X22597547Y-59814880D02*
X22597547Y-59910118D01*
X22597547Y-59910118D02*
X22578500Y-59948213D01*
X22578500Y-59948213D02*
X22559452Y-59967261D01*
D10*
X24729845Y-61586714D02*
X24741750Y-61598618D01*
X24741750Y-61598618D02*
X24753654Y-61634333D01*
X24753654Y-61634333D02*
X24753654Y-61658142D01*
X24753654Y-61658142D02*
X24741750Y-61693856D01*
X24741750Y-61693856D02*
X24717940Y-61717666D01*
X24717940Y-61717666D02*
X24694130Y-61729571D01*
X24694130Y-61729571D02*
X24646511Y-61741475D01*
X24646511Y-61741475D02*
X24610797Y-61741475D01*
X24610797Y-61741475D02*
X24563178Y-61729571D01*
X24563178Y-61729571D02*
X24539369Y-61717666D01*
X24539369Y-61717666D02*
X24515559Y-61693856D01*
X24515559Y-61693856D02*
X24503654Y-61658142D01*
X24503654Y-61658142D02*
X24503654Y-61634333D01*
X24503654Y-61634333D02*
X24515559Y-61598618D01*
X24515559Y-61598618D02*
X24527464Y-61586714D01*
X24753654Y-61348618D02*
X24753654Y-61491475D01*
X24753654Y-61420047D02*
X24503654Y-61420047D01*
X24503654Y-61420047D02*
X24539369Y-61443856D01*
X24539369Y-61443856D02*
X24563178Y-61467666D01*
X24563178Y-61467666D02*
X24575083Y-61491475D01*
X24610797Y-61205761D02*
X24598892Y-61229571D01*
X24598892Y-61229571D02*
X24586988Y-61241476D01*
X24586988Y-61241476D02*
X24563178Y-61253380D01*
X24563178Y-61253380D02*
X24551273Y-61253380D01*
X24551273Y-61253380D02*
X24527464Y-61241476D01*
X24527464Y-61241476D02*
X24515559Y-61229571D01*
X24515559Y-61229571D02*
X24503654Y-61205761D01*
X24503654Y-61205761D02*
X24503654Y-61158142D01*
X24503654Y-61158142D02*
X24515559Y-61134333D01*
X24515559Y-61134333D02*
X24527464Y-61122428D01*
X24527464Y-61122428D02*
X24551273Y-61110523D01*
X24551273Y-61110523D02*
X24563178Y-61110523D01*
X24563178Y-61110523D02*
X24586988Y-61122428D01*
X24586988Y-61122428D02*
X24598892Y-61134333D01*
X24598892Y-61134333D02*
X24610797Y-61158142D01*
X24610797Y-61158142D02*
X24610797Y-61205761D01*
X24610797Y-61205761D02*
X24622702Y-61229571D01*
X24622702Y-61229571D02*
X24634607Y-61241476D01*
X24634607Y-61241476D02*
X24658416Y-61253380D01*
X24658416Y-61253380D02*
X24706035Y-61253380D01*
X24706035Y-61253380D02*
X24729845Y-61241476D01*
X24729845Y-61241476D02*
X24741750Y-61229571D01*
X24741750Y-61229571D02*
X24753654Y-61205761D01*
X24753654Y-61205761D02*
X24753654Y-61158142D01*
X24753654Y-61158142D02*
X24741750Y-61134333D01*
X24741750Y-61134333D02*
X24729845Y-61122428D01*
X24729845Y-61122428D02*
X24706035Y-61110523D01*
X24706035Y-61110523D02*
X24658416Y-61110523D01*
X24658416Y-61110523D02*
X24634607Y-61122428D01*
X24634607Y-61122428D02*
X24622702Y-61134333D01*
X24622702Y-61134333D02*
X24610797Y-61158142D01*
X7845280Y-46367142D02*
X7721471Y-46453809D01*
X7845280Y-46515714D02*
X7585280Y-46515714D01*
X7585280Y-46515714D02*
X7585280Y-46416666D01*
X7585280Y-46416666D02*
X7597661Y-46391904D01*
X7597661Y-46391904D02*
X7610042Y-46379523D01*
X7610042Y-46379523D02*
X7634804Y-46367142D01*
X7634804Y-46367142D02*
X7671947Y-46367142D01*
X7671947Y-46367142D02*
X7696709Y-46379523D01*
X7696709Y-46379523D02*
X7709090Y-46391904D01*
X7709090Y-46391904D02*
X7721471Y-46416666D01*
X7721471Y-46416666D02*
X7721471Y-46515714D01*
X7845280Y-46119523D02*
X7845280Y-46268095D01*
X7845280Y-46193809D02*
X7585280Y-46193809D01*
X7585280Y-46193809D02*
X7622423Y-46218571D01*
X7622423Y-46218571D02*
X7647185Y-46243333D01*
X7647185Y-46243333D02*
X7659566Y-46268095D01*
X7845280Y-45871904D02*
X7845280Y-46020476D01*
X7845280Y-45946190D02*
X7585280Y-45946190D01*
X7585280Y-45946190D02*
X7622423Y-45970952D01*
X7622423Y-45970952D02*
X7647185Y-45995714D01*
X7647185Y-45995714D02*
X7659566Y-46020476D01*
X26761845Y-61586714D02*
X26773750Y-61598618D01*
X26773750Y-61598618D02*
X26785654Y-61634333D01*
X26785654Y-61634333D02*
X26785654Y-61658142D01*
X26785654Y-61658142D02*
X26773750Y-61693856D01*
X26773750Y-61693856D02*
X26749940Y-61717666D01*
X26749940Y-61717666D02*
X26726130Y-61729571D01*
X26726130Y-61729571D02*
X26678511Y-61741475D01*
X26678511Y-61741475D02*
X26642797Y-61741475D01*
X26642797Y-61741475D02*
X26595178Y-61729571D01*
X26595178Y-61729571D02*
X26571369Y-61717666D01*
X26571369Y-61717666D02*
X26547559Y-61693856D01*
X26547559Y-61693856D02*
X26535654Y-61658142D01*
X26535654Y-61658142D02*
X26535654Y-61634333D01*
X26535654Y-61634333D02*
X26547559Y-61598618D01*
X26547559Y-61598618D02*
X26559464Y-61586714D01*
X26559464Y-61491475D02*
X26547559Y-61479571D01*
X26547559Y-61479571D02*
X26535654Y-61455761D01*
X26535654Y-61455761D02*
X26535654Y-61396237D01*
X26535654Y-61396237D02*
X26547559Y-61372428D01*
X26547559Y-61372428D02*
X26559464Y-61360523D01*
X26559464Y-61360523D02*
X26583273Y-61348618D01*
X26583273Y-61348618D02*
X26607083Y-61348618D01*
X26607083Y-61348618D02*
X26642797Y-61360523D01*
X26642797Y-61360523D02*
X26785654Y-61503380D01*
X26785654Y-61503380D02*
X26785654Y-61348618D01*
X26535654Y-61193857D02*
X26535654Y-61170047D01*
X26535654Y-61170047D02*
X26547559Y-61146238D01*
X26547559Y-61146238D02*
X26559464Y-61134333D01*
X26559464Y-61134333D02*
X26583273Y-61122428D01*
X26583273Y-61122428D02*
X26630892Y-61110523D01*
X26630892Y-61110523D02*
X26690416Y-61110523D01*
X26690416Y-61110523D02*
X26738035Y-61122428D01*
X26738035Y-61122428D02*
X26761845Y-61134333D01*
X26761845Y-61134333D02*
X26773750Y-61146238D01*
X26773750Y-61146238D02*
X26785654Y-61170047D01*
X26785654Y-61170047D02*
X26785654Y-61193857D01*
X26785654Y-61193857D02*
X26773750Y-61217666D01*
X26773750Y-61217666D02*
X26761845Y-61229571D01*
X26761845Y-61229571D02*
X26738035Y-61241476D01*
X26738035Y-61241476D02*
X26690416Y-61253380D01*
X26690416Y-61253380D02*
X26630892Y-61253380D01*
X26630892Y-61253380D02*
X26583273Y-61241476D01*
X26583273Y-61241476D02*
X26559464Y-61229571D01*
X26559464Y-61229571D02*
X26547559Y-61217666D01*
X26547559Y-61217666D02*
X26535654Y-61193857D01*
D14*
X49514286Y-36185047D02*
X49514286Y-35785047D01*
X49514286Y-35785047D02*
X49609524Y-35785047D01*
X49609524Y-35785047D02*
X49666667Y-35804095D01*
X49666667Y-35804095D02*
X49704762Y-35842190D01*
X49704762Y-35842190D02*
X49723809Y-35880285D01*
X49723809Y-35880285D02*
X49742857Y-35956476D01*
X49742857Y-35956476D02*
X49742857Y-36013619D01*
X49742857Y-36013619D02*
X49723809Y-36089809D01*
X49723809Y-36089809D02*
X49704762Y-36127904D01*
X49704762Y-36127904D02*
X49666667Y-36166000D01*
X49666667Y-36166000D02*
X49609524Y-36185047D01*
X49609524Y-36185047D02*
X49514286Y-36185047D01*
X50123809Y-36185047D02*
X49895238Y-36185047D01*
X50009524Y-36185047D02*
X50009524Y-35785047D01*
X50009524Y-35785047D02*
X49971428Y-35842190D01*
X49971428Y-35842190D02*
X49933333Y-35880285D01*
X49933333Y-35880285D02*
X49895238Y-35899333D01*
X50466666Y-35918380D02*
X50466666Y-36185047D01*
X50371428Y-35766000D02*
X50276190Y-36051714D01*
X50276190Y-36051714D02*
X50523809Y-36051714D01*
D12*
X64238095Y-5462619D02*
X64238095Y-4462619D01*
X64238095Y-4938809D02*
X64809523Y-4938809D01*
X64809523Y-5462619D02*
X64809523Y-4462619D01*
X65238095Y-4557857D02*
X65285714Y-4510238D01*
X65285714Y-4510238D02*
X65380952Y-4462619D01*
X65380952Y-4462619D02*
X65619047Y-4462619D01*
X65619047Y-4462619D02*
X65714285Y-4510238D01*
X65714285Y-4510238D02*
X65761904Y-4557857D01*
X65761904Y-4557857D02*
X65809523Y-4653095D01*
X65809523Y-4653095D02*
X65809523Y-4748333D01*
X65809523Y-4748333D02*
X65761904Y-4891190D01*
X65761904Y-4891190D02*
X65190476Y-5462619D01*
X65190476Y-5462619D02*
X65809523Y-5462619D01*
D10*
X26761845Y-59046714D02*
X26773750Y-59058618D01*
X26773750Y-59058618D02*
X26785654Y-59094333D01*
X26785654Y-59094333D02*
X26785654Y-59118142D01*
X26785654Y-59118142D02*
X26773750Y-59153856D01*
X26773750Y-59153856D02*
X26749940Y-59177666D01*
X26749940Y-59177666D02*
X26726130Y-59189571D01*
X26726130Y-59189571D02*
X26678511Y-59201475D01*
X26678511Y-59201475D02*
X26642797Y-59201475D01*
X26642797Y-59201475D02*
X26595178Y-59189571D01*
X26595178Y-59189571D02*
X26571369Y-59177666D01*
X26571369Y-59177666D02*
X26547559Y-59153856D01*
X26547559Y-59153856D02*
X26535654Y-59118142D01*
X26535654Y-59118142D02*
X26535654Y-59094333D01*
X26535654Y-59094333D02*
X26547559Y-59058618D01*
X26547559Y-59058618D02*
X26559464Y-59046714D01*
X26785654Y-58808618D02*
X26785654Y-58951475D01*
X26785654Y-58880047D02*
X26535654Y-58880047D01*
X26535654Y-58880047D02*
X26571369Y-58903856D01*
X26571369Y-58903856D02*
X26595178Y-58927666D01*
X26595178Y-58927666D02*
X26607083Y-58951475D01*
X26535654Y-58725285D02*
X26535654Y-58570523D01*
X26535654Y-58570523D02*
X26630892Y-58653857D01*
X26630892Y-58653857D02*
X26630892Y-58618142D01*
X26630892Y-58618142D02*
X26642797Y-58594333D01*
X26642797Y-58594333D02*
X26654702Y-58582428D01*
X26654702Y-58582428D02*
X26678511Y-58570523D01*
X26678511Y-58570523D02*
X26738035Y-58570523D01*
X26738035Y-58570523D02*
X26761845Y-58582428D01*
X26761845Y-58582428D02*
X26773750Y-58594333D01*
X26773750Y-58594333D02*
X26785654Y-58618142D01*
X26785654Y-58618142D02*
X26785654Y-58689571D01*
X26785654Y-58689571D02*
X26773750Y-58713380D01*
X26773750Y-58713380D02*
X26761845Y-58725285D01*
X38386667Y-60710280D02*
X38300000Y-60586471D01*
X38238095Y-60710280D02*
X38238095Y-60450280D01*
X38238095Y-60450280D02*
X38337143Y-60450280D01*
X38337143Y-60450280D02*
X38361905Y-60462661D01*
X38361905Y-60462661D02*
X38374286Y-60475042D01*
X38374286Y-60475042D02*
X38386667Y-60499804D01*
X38386667Y-60499804D02*
X38386667Y-60536947D01*
X38386667Y-60536947D02*
X38374286Y-60561709D01*
X38374286Y-60561709D02*
X38361905Y-60574090D01*
X38361905Y-60574090D02*
X38337143Y-60586471D01*
X38337143Y-60586471D02*
X38238095Y-60586471D01*
X38609524Y-60450280D02*
X38560000Y-60450280D01*
X38560000Y-60450280D02*
X38535238Y-60462661D01*
X38535238Y-60462661D02*
X38522857Y-60475042D01*
X38522857Y-60475042D02*
X38498095Y-60512185D01*
X38498095Y-60512185D02*
X38485714Y-60561709D01*
X38485714Y-60561709D02*
X38485714Y-60660757D01*
X38485714Y-60660757D02*
X38498095Y-60685519D01*
X38498095Y-60685519D02*
X38510476Y-60697900D01*
X38510476Y-60697900D02*
X38535238Y-60710280D01*
X38535238Y-60710280D02*
X38584762Y-60710280D01*
X38584762Y-60710280D02*
X38609524Y-60697900D01*
X38609524Y-60697900D02*
X38621905Y-60685519D01*
X38621905Y-60685519D02*
X38634286Y-60660757D01*
X38634286Y-60660757D02*
X38634286Y-60598852D01*
X38634286Y-60598852D02*
X38621905Y-60574090D01*
X38621905Y-60574090D02*
X38609524Y-60561709D01*
X38609524Y-60561709D02*
X38584762Y-60549328D01*
X38584762Y-60549328D02*
X38535238Y-60549328D01*
X38535238Y-60549328D02*
X38510476Y-60561709D01*
X38510476Y-60561709D02*
X38498095Y-60574090D01*
X38498095Y-60574090D02*
X38485714Y-60598852D01*
D12*
X57457619Y-23838333D02*
X58171904Y-23838333D01*
X58171904Y-23838333D02*
X58314761Y-23885952D01*
X58314761Y-23885952D02*
X58410000Y-23981190D01*
X58410000Y-23981190D02*
X58457619Y-24124047D01*
X58457619Y-24124047D02*
X58457619Y-24219285D01*
X57790952Y-22933571D02*
X58457619Y-22933571D01*
X57410000Y-23171666D02*
X58124285Y-23409761D01*
X58124285Y-23409761D02*
X58124285Y-22790714D01*
D10*
X10839285Y-22841845D02*
X10827381Y-22853750D01*
X10827381Y-22853750D02*
X10791666Y-22865654D01*
X10791666Y-22865654D02*
X10767857Y-22865654D01*
X10767857Y-22865654D02*
X10732143Y-22853750D01*
X10732143Y-22853750D02*
X10708333Y-22829940D01*
X10708333Y-22829940D02*
X10696428Y-22806130D01*
X10696428Y-22806130D02*
X10684524Y-22758511D01*
X10684524Y-22758511D02*
X10684524Y-22722797D01*
X10684524Y-22722797D02*
X10696428Y-22675178D01*
X10696428Y-22675178D02*
X10708333Y-22651369D01*
X10708333Y-22651369D02*
X10732143Y-22627559D01*
X10732143Y-22627559D02*
X10767857Y-22615654D01*
X10767857Y-22615654D02*
X10791666Y-22615654D01*
X10791666Y-22615654D02*
X10827381Y-22627559D01*
X10827381Y-22627559D02*
X10839285Y-22639464D01*
X11065476Y-22615654D02*
X10946428Y-22615654D01*
X10946428Y-22615654D02*
X10934524Y-22734702D01*
X10934524Y-22734702D02*
X10946428Y-22722797D01*
X10946428Y-22722797D02*
X10970238Y-22710892D01*
X10970238Y-22710892D02*
X11029762Y-22710892D01*
X11029762Y-22710892D02*
X11053571Y-22722797D01*
X11053571Y-22722797D02*
X11065476Y-22734702D01*
X11065476Y-22734702D02*
X11077381Y-22758511D01*
X11077381Y-22758511D02*
X11077381Y-22818035D01*
X11077381Y-22818035D02*
X11065476Y-22841845D01*
X11065476Y-22841845D02*
X11053571Y-22853750D01*
X11053571Y-22853750D02*
X11029762Y-22865654D01*
X11029762Y-22865654D02*
X10970238Y-22865654D01*
X10970238Y-22865654D02*
X10946428Y-22853750D01*
X10946428Y-22853750D02*
X10934524Y-22841845D01*
X11315476Y-22865654D02*
X11172619Y-22865654D01*
X11244047Y-22865654D02*
X11244047Y-22615654D01*
X11244047Y-22615654D02*
X11220238Y-22651369D01*
X11220238Y-22651369D02*
X11196428Y-22675178D01*
X11196428Y-22675178D02*
X11172619Y-22687083D01*
X33873845Y-45941714D02*
X33885750Y-45953618D01*
X33885750Y-45953618D02*
X33897654Y-45989333D01*
X33897654Y-45989333D02*
X33897654Y-46013142D01*
X33897654Y-46013142D02*
X33885750Y-46048856D01*
X33885750Y-46048856D02*
X33861940Y-46072666D01*
X33861940Y-46072666D02*
X33838130Y-46084571D01*
X33838130Y-46084571D02*
X33790511Y-46096475D01*
X33790511Y-46096475D02*
X33754797Y-46096475D01*
X33754797Y-46096475D02*
X33707178Y-46084571D01*
X33707178Y-46084571D02*
X33683369Y-46072666D01*
X33683369Y-46072666D02*
X33659559Y-46048856D01*
X33659559Y-46048856D02*
X33647654Y-46013142D01*
X33647654Y-46013142D02*
X33647654Y-45989333D01*
X33647654Y-45989333D02*
X33659559Y-45953618D01*
X33659559Y-45953618D02*
X33671464Y-45941714D01*
X33647654Y-45715523D02*
X33647654Y-45834571D01*
X33647654Y-45834571D02*
X33766702Y-45846475D01*
X33766702Y-45846475D02*
X33754797Y-45834571D01*
X33754797Y-45834571D02*
X33742892Y-45810761D01*
X33742892Y-45810761D02*
X33742892Y-45751237D01*
X33742892Y-45751237D02*
X33754797Y-45727428D01*
X33754797Y-45727428D02*
X33766702Y-45715523D01*
X33766702Y-45715523D02*
X33790511Y-45703618D01*
X33790511Y-45703618D02*
X33850035Y-45703618D01*
X33850035Y-45703618D02*
X33873845Y-45715523D01*
X33873845Y-45715523D02*
X33885750Y-45727428D01*
X33885750Y-45727428D02*
X33897654Y-45751237D01*
X33897654Y-45751237D02*
X33897654Y-45810761D01*
X33897654Y-45810761D02*
X33885750Y-45834571D01*
X33885750Y-45834571D02*
X33873845Y-45846475D01*
X33730988Y-45489333D02*
X33897654Y-45489333D01*
X33635750Y-45548857D02*
X33814321Y-45608380D01*
X33814321Y-45608380D02*
X33814321Y-45453619D01*
X57950280Y-40617142D02*
X57826471Y-40703809D01*
X57950280Y-40765714D02*
X57690280Y-40765714D01*
X57690280Y-40765714D02*
X57690280Y-40666666D01*
X57690280Y-40666666D02*
X57702661Y-40641904D01*
X57702661Y-40641904D02*
X57715042Y-40629523D01*
X57715042Y-40629523D02*
X57739804Y-40617142D01*
X57739804Y-40617142D02*
X57776947Y-40617142D01*
X57776947Y-40617142D02*
X57801709Y-40629523D01*
X57801709Y-40629523D02*
X57814090Y-40641904D01*
X57814090Y-40641904D02*
X57826471Y-40666666D01*
X57826471Y-40666666D02*
X57826471Y-40765714D01*
X57715042Y-40518095D02*
X57702661Y-40505714D01*
X57702661Y-40505714D02*
X57690280Y-40480952D01*
X57690280Y-40480952D02*
X57690280Y-40419047D01*
X57690280Y-40419047D02*
X57702661Y-40394285D01*
X57702661Y-40394285D02*
X57715042Y-40381904D01*
X57715042Y-40381904D02*
X57739804Y-40369523D01*
X57739804Y-40369523D02*
X57764566Y-40369523D01*
X57764566Y-40369523D02*
X57801709Y-40381904D01*
X57801709Y-40381904D02*
X57950280Y-40530476D01*
X57950280Y-40530476D02*
X57950280Y-40369523D01*
X57801709Y-40220952D02*
X57789328Y-40245714D01*
X57789328Y-40245714D02*
X57776947Y-40258095D01*
X57776947Y-40258095D02*
X57752185Y-40270476D01*
X57752185Y-40270476D02*
X57739804Y-40270476D01*
X57739804Y-40270476D02*
X57715042Y-40258095D01*
X57715042Y-40258095D02*
X57702661Y-40245714D01*
X57702661Y-40245714D02*
X57690280Y-40220952D01*
X57690280Y-40220952D02*
X57690280Y-40171428D01*
X57690280Y-40171428D02*
X57702661Y-40146666D01*
X57702661Y-40146666D02*
X57715042Y-40134285D01*
X57715042Y-40134285D02*
X57739804Y-40121904D01*
X57739804Y-40121904D02*
X57752185Y-40121904D01*
X57752185Y-40121904D02*
X57776947Y-40134285D01*
X57776947Y-40134285D02*
X57789328Y-40146666D01*
X57789328Y-40146666D02*
X57801709Y-40171428D01*
X57801709Y-40171428D02*
X57801709Y-40220952D01*
X57801709Y-40220952D02*
X57814090Y-40245714D01*
X57814090Y-40245714D02*
X57826471Y-40258095D01*
X57826471Y-40258095D02*
X57851233Y-40270476D01*
X57851233Y-40270476D02*
X57900757Y-40270476D01*
X57900757Y-40270476D02*
X57925519Y-40258095D01*
X57925519Y-40258095D02*
X57937900Y-40245714D01*
X57937900Y-40245714D02*
X57950280Y-40220952D01*
X57950280Y-40220952D02*
X57950280Y-40171428D01*
X57950280Y-40171428D02*
X57937900Y-40146666D01*
X57937900Y-40146666D02*
X57925519Y-40134285D01*
X57925519Y-40134285D02*
X57900757Y-40121904D01*
X57900757Y-40121904D02*
X57851233Y-40121904D01*
X57851233Y-40121904D02*
X57826471Y-40134285D01*
X57826471Y-40134285D02*
X57814090Y-40146666D01*
X57814090Y-40146666D02*
X57801709Y-40171428D01*
X54091845Y-60660714D02*
X54103750Y-60672618D01*
X54103750Y-60672618D02*
X54115654Y-60708333D01*
X54115654Y-60708333D02*
X54115654Y-60732142D01*
X54115654Y-60732142D02*
X54103750Y-60767856D01*
X54103750Y-60767856D02*
X54079940Y-60791666D01*
X54079940Y-60791666D02*
X54056130Y-60803571D01*
X54056130Y-60803571D02*
X54008511Y-60815475D01*
X54008511Y-60815475D02*
X53972797Y-60815475D01*
X53972797Y-60815475D02*
X53925178Y-60803571D01*
X53925178Y-60803571D02*
X53901369Y-60791666D01*
X53901369Y-60791666D02*
X53877559Y-60767856D01*
X53877559Y-60767856D02*
X53865654Y-60732142D01*
X53865654Y-60732142D02*
X53865654Y-60708333D01*
X53865654Y-60708333D02*
X53877559Y-60672618D01*
X53877559Y-60672618D02*
X53889464Y-60660714D01*
X53865654Y-60434523D02*
X53865654Y-60553571D01*
X53865654Y-60553571D02*
X53984702Y-60565475D01*
X53984702Y-60565475D02*
X53972797Y-60553571D01*
X53972797Y-60553571D02*
X53960892Y-60529761D01*
X53960892Y-60529761D02*
X53960892Y-60470237D01*
X53960892Y-60470237D02*
X53972797Y-60446428D01*
X53972797Y-60446428D02*
X53984702Y-60434523D01*
X53984702Y-60434523D02*
X54008511Y-60422618D01*
X54008511Y-60422618D02*
X54068035Y-60422618D01*
X54068035Y-60422618D02*
X54091845Y-60434523D01*
X54091845Y-60434523D02*
X54103750Y-60446428D01*
X54103750Y-60446428D02*
X54115654Y-60470237D01*
X54115654Y-60470237D02*
X54115654Y-60529761D01*
X54115654Y-60529761D02*
X54103750Y-60553571D01*
X54103750Y-60553571D02*
X54091845Y-60565475D01*
X53865654Y-60196428D02*
X53865654Y-60315476D01*
X53865654Y-60315476D02*
X53984702Y-60327380D01*
X53984702Y-60327380D02*
X53972797Y-60315476D01*
X53972797Y-60315476D02*
X53960892Y-60291666D01*
X53960892Y-60291666D02*
X53960892Y-60232142D01*
X53960892Y-60232142D02*
X53972797Y-60208333D01*
X53972797Y-60208333D02*
X53984702Y-60196428D01*
X53984702Y-60196428D02*
X54008511Y-60184523D01*
X54008511Y-60184523D02*
X54068035Y-60184523D01*
X54068035Y-60184523D02*
X54091845Y-60196428D01*
X54091845Y-60196428D02*
X54103750Y-60208333D01*
X54103750Y-60208333D02*
X54115654Y-60232142D01*
X54115654Y-60232142D02*
X54115654Y-60291666D01*
X54115654Y-60291666D02*
X54103750Y-60315476D01*
X54103750Y-60315476D02*
X54091845Y-60327380D01*
D14*
X50514286Y-22185047D02*
X50514286Y-21785047D01*
X50514286Y-21785047D02*
X50609524Y-21785047D01*
X50609524Y-21785047D02*
X50666667Y-21804095D01*
X50666667Y-21804095D02*
X50704762Y-21842190D01*
X50704762Y-21842190D02*
X50723809Y-21880285D01*
X50723809Y-21880285D02*
X50742857Y-21956476D01*
X50742857Y-21956476D02*
X50742857Y-22013619D01*
X50742857Y-22013619D02*
X50723809Y-22089809D01*
X50723809Y-22089809D02*
X50704762Y-22127904D01*
X50704762Y-22127904D02*
X50666667Y-22166000D01*
X50666667Y-22166000D02*
X50609524Y-22185047D01*
X50609524Y-22185047D02*
X50514286Y-22185047D01*
X51123809Y-22185047D02*
X50895238Y-22185047D01*
X51009524Y-22185047D02*
X51009524Y-21785047D01*
X51009524Y-21785047D02*
X50971428Y-21842190D01*
X50971428Y-21842190D02*
X50933333Y-21880285D01*
X50933333Y-21880285D02*
X50895238Y-21899333D01*
X51352380Y-21956476D02*
X51314285Y-21937428D01*
X51314285Y-21937428D02*
X51295238Y-21918380D01*
X51295238Y-21918380D02*
X51276190Y-21880285D01*
X51276190Y-21880285D02*
X51276190Y-21861238D01*
X51276190Y-21861238D02*
X51295238Y-21823142D01*
X51295238Y-21823142D02*
X51314285Y-21804095D01*
X51314285Y-21804095D02*
X51352380Y-21785047D01*
X51352380Y-21785047D02*
X51428571Y-21785047D01*
X51428571Y-21785047D02*
X51466666Y-21804095D01*
X51466666Y-21804095D02*
X51485714Y-21823142D01*
X51485714Y-21823142D02*
X51504761Y-21861238D01*
X51504761Y-21861238D02*
X51504761Y-21880285D01*
X51504761Y-21880285D02*
X51485714Y-21918380D01*
X51485714Y-21918380D02*
X51466666Y-21937428D01*
X51466666Y-21937428D02*
X51428571Y-21956476D01*
X51428571Y-21956476D02*
X51352380Y-21956476D01*
X51352380Y-21956476D02*
X51314285Y-21975523D01*
X51314285Y-21975523D02*
X51295238Y-21994571D01*
X51295238Y-21994571D02*
X51276190Y-22032666D01*
X51276190Y-22032666D02*
X51276190Y-22108857D01*
X51276190Y-22108857D02*
X51295238Y-22146952D01*
X51295238Y-22146952D02*
X51314285Y-22166000D01*
X51314285Y-22166000D02*
X51352380Y-22185047D01*
X51352380Y-22185047D02*
X51428571Y-22185047D01*
X51428571Y-22185047D02*
X51466666Y-22166000D01*
X51466666Y-22166000D02*
X51485714Y-22146952D01*
X51485714Y-22146952D02*
X51504761Y-22108857D01*
X51504761Y-22108857D02*
X51504761Y-22032666D01*
X51504761Y-22032666D02*
X51485714Y-21994571D01*
X51485714Y-21994571D02*
X51466666Y-21975523D01*
X51466666Y-21975523D02*
X51428571Y-21956476D01*
D12*
X8771905Y-34622619D02*
X8771905Y-33622619D01*
X8771905Y-33622619D02*
X9010000Y-33622619D01*
X9010000Y-33622619D02*
X9152857Y-33670238D01*
X9152857Y-33670238D02*
X9248095Y-33765476D01*
X9248095Y-33765476D02*
X9295714Y-33860714D01*
X9295714Y-33860714D02*
X9343333Y-34051190D01*
X9343333Y-34051190D02*
X9343333Y-34194047D01*
X9343333Y-34194047D02*
X9295714Y-34384523D01*
X9295714Y-34384523D02*
X9248095Y-34479761D01*
X9248095Y-34479761D02*
X9152857Y-34575000D01*
X9152857Y-34575000D02*
X9010000Y-34622619D01*
X9010000Y-34622619D02*
X8771905Y-34622619D01*
X10200476Y-33622619D02*
X10010000Y-33622619D01*
X10010000Y-33622619D02*
X9914762Y-33670238D01*
X9914762Y-33670238D02*
X9867143Y-33717857D01*
X9867143Y-33717857D02*
X9771905Y-33860714D01*
X9771905Y-33860714D02*
X9724286Y-34051190D01*
X9724286Y-34051190D02*
X9724286Y-34432142D01*
X9724286Y-34432142D02*
X9771905Y-34527380D01*
X9771905Y-34527380D02*
X9819524Y-34575000D01*
X9819524Y-34575000D02*
X9914762Y-34622619D01*
X9914762Y-34622619D02*
X10105238Y-34622619D01*
X10105238Y-34622619D02*
X10200476Y-34575000D01*
X10200476Y-34575000D02*
X10248095Y-34527380D01*
X10248095Y-34527380D02*
X10295714Y-34432142D01*
X10295714Y-34432142D02*
X10295714Y-34194047D01*
X10295714Y-34194047D02*
X10248095Y-34098809D01*
X10248095Y-34098809D02*
X10200476Y-34051190D01*
X10200476Y-34051190D02*
X10105238Y-34003571D01*
X10105238Y-34003571D02*
X9914762Y-34003571D01*
X9914762Y-34003571D02*
X9819524Y-34051190D01*
X9819524Y-34051190D02*
X9771905Y-34098809D01*
X9771905Y-34098809D02*
X9724286Y-34194047D01*
D10*
X13480653Y-42529379D02*
X13393986Y-42405570D01*
X13332081Y-42529379D02*
X13332081Y-42269379D01*
X13332081Y-42269379D02*
X13431129Y-42269379D01*
X13431129Y-42269379D02*
X13455891Y-42281760D01*
X13455891Y-42281760D02*
X13468272Y-42294141D01*
X13468272Y-42294141D02*
X13480653Y-42318903D01*
X13480653Y-42318903D02*
X13480653Y-42356046D01*
X13480653Y-42356046D02*
X13468272Y-42380808D01*
X13468272Y-42380808D02*
X13455891Y-42393189D01*
X13455891Y-42393189D02*
X13431129Y-42405570D01*
X13431129Y-42405570D02*
X13332081Y-42405570D01*
X13703510Y-42356046D02*
X13703510Y-42529379D01*
X13641605Y-42256999D02*
X13579700Y-42442713D01*
X13579700Y-42442713D02*
X13740653Y-42442713D01*
X9733333Y-42066845D02*
X9721429Y-42078750D01*
X9721429Y-42078750D02*
X9685714Y-42090654D01*
X9685714Y-42090654D02*
X9661905Y-42090654D01*
X9661905Y-42090654D02*
X9626191Y-42078750D01*
X9626191Y-42078750D02*
X9602381Y-42054940D01*
X9602381Y-42054940D02*
X9590476Y-42031130D01*
X9590476Y-42031130D02*
X9578572Y-41983511D01*
X9578572Y-41983511D02*
X9578572Y-41947797D01*
X9578572Y-41947797D02*
X9590476Y-41900178D01*
X9590476Y-41900178D02*
X9602381Y-41876369D01*
X9602381Y-41876369D02*
X9626191Y-41852559D01*
X9626191Y-41852559D02*
X9661905Y-41840654D01*
X9661905Y-41840654D02*
X9685714Y-41840654D01*
X9685714Y-41840654D02*
X9721429Y-41852559D01*
X9721429Y-41852559D02*
X9733333Y-41864464D01*
X9816667Y-41840654D02*
X9971429Y-41840654D01*
X9971429Y-41840654D02*
X9888095Y-41935892D01*
X9888095Y-41935892D02*
X9923810Y-41935892D01*
X9923810Y-41935892D02*
X9947619Y-41947797D01*
X9947619Y-41947797D02*
X9959524Y-41959702D01*
X9959524Y-41959702D02*
X9971429Y-41983511D01*
X9971429Y-41983511D02*
X9971429Y-42043035D01*
X9971429Y-42043035D02*
X9959524Y-42066845D01*
X9959524Y-42066845D02*
X9947619Y-42078750D01*
X9947619Y-42078750D02*
X9923810Y-42090654D01*
X9923810Y-42090654D02*
X9852381Y-42090654D01*
X9852381Y-42090654D02*
X9828572Y-42078750D01*
X9828572Y-42078750D02*
X9816667Y-42066845D01*
X9057857Y-46870280D02*
X8971190Y-46746471D01*
X8909285Y-46870280D02*
X8909285Y-46610280D01*
X8909285Y-46610280D02*
X9008333Y-46610280D01*
X9008333Y-46610280D02*
X9033095Y-46622661D01*
X9033095Y-46622661D02*
X9045476Y-46635042D01*
X9045476Y-46635042D02*
X9057857Y-46659804D01*
X9057857Y-46659804D02*
X9057857Y-46696947D01*
X9057857Y-46696947D02*
X9045476Y-46721709D01*
X9045476Y-46721709D02*
X9033095Y-46734090D01*
X9033095Y-46734090D02*
X9008333Y-46746471D01*
X9008333Y-46746471D02*
X8909285Y-46746471D01*
X9305476Y-46870280D02*
X9156904Y-46870280D01*
X9231190Y-46870280D02*
X9231190Y-46610280D01*
X9231190Y-46610280D02*
X9206428Y-46647423D01*
X9206428Y-46647423D02*
X9181666Y-46672185D01*
X9181666Y-46672185D02*
X9156904Y-46684566D01*
X9404523Y-46635042D02*
X9416904Y-46622661D01*
X9416904Y-46622661D02*
X9441666Y-46610280D01*
X9441666Y-46610280D02*
X9503571Y-46610280D01*
X9503571Y-46610280D02*
X9528333Y-46622661D01*
X9528333Y-46622661D02*
X9540714Y-46635042D01*
X9540714Y-46635042D02*
X9553095Y-46659804D01*
X9553095Y-46659804D02*
X9553095Y-46684566D01*
X9553095Y-46684566D02*
X9540714Y-46721709D01*
X9540714Y-46721709D02*
X9392142Y-46870280D01*
X9392142Y-46870280D02*
X9553095Y-46870280D01*
D14*
X18704762Y-22185047D02*
X18704762Y-21785047D01*
X18704762Y-21785047D02*
X18800000Y-21785047D01*
X18800000Y-21785047D02*
X18857143Y-21804095D01*
X18857143Y-21804095D02*
X18895238Y-21842190D01*
X18895238Y-21842190D02*
X18914285Y-21880285D01*
X18914285Y-21880285D02*
X18933333Y-21956476D01*
X18933333Y-21956476D02*
X18933333Y-22013619D01*
X18933333Y-22013619D02*
X18914285Y-22089809D01*
X18914285Y-22089809D02*
X18895238Y-22127904D01*
X18895238Y-22127904D02*
X18857143Y-22166000D01*
X18857143Y-22166000D02*
X18800000Y-22185047D01*
X18800000Y-22185047D02*
X18704762Y-22185047D01*
X19123809Y-22185047D02*
X19200000Y-22185047D01*
X19200000Y-22185047D02*
X19238095Y-22166000D01*
X19238095Y-22166000D02*
X19257143Y-22146952D01*
X19257143Y-22146952D02*
X19295238Y-22089809D01*
X19295238Y-22089809D02*
X19314285Y-22013619D01*
X19314285Y-22013619D02*
X19314285Y-21861238D01*
X19314285Y-21861238D02*
X19295238Y-21823142D01*
X19295238Y-21823142D02*
X19276190Y-21804095D01*
X19276190Y-21804095D02*
X19238095Y-21785047D01*
X19238095Y-21785047D02*
X19161904Y-21785047D01*
X19161904Y-21785047D02*
X19123809Y-21804095D01*
X19123809Y-21804095D02*
X19104762Y-21823142D01*
X19104762Y-21823142D02*
X19085714Y-21861238D01*
X19085714Y-21861238D02*
X19085714Y-21956476D01*
X19085714Y-21956476D02*
X19104762Y-21994571D01*
X19104762Y-21994571D02*
X19123809Y-22013619D01*
X19123809Y-22013619D02*
X19161904Y-22032666D01*
X19161904Y-22032666D02*
X19238095Y-22032666D01*
X19238095Y-22032666D02*
X19276190Y-22013619D01*
X19276190Y-22013619D02*
X19295238Y-21994571D01*
X19295238Y-21994571D02*
X19314285Y-21956476D01*
D16*
X55287023Y-41428514D02*
X55256547Y-41413276D01*
X55256547Y-41413276D02*
X55226071Y-41382800D01*
X55226071Y-41382800D02*
X55180357Y-41337085D01*
X55180357Y-41337085D02*
X55149880Y-41321847D01*
X55149880Y-41321847D02*
X55119404Y-41321847D01*
X55134642Y-41398038D02*
X55104166Y-41382800D01*
X55104166Y-41382800D02*
X55073690Y-41352323D01*
X55073690Y-41352323D02*
X55058452Y-41291371D01*
X55058452Y-41291371D02*
X55058452Y-41184704D01*
X55058452Y-41184704D02*
X55073690Y-41123752D01*
X55073690Y-41123752D02*
X55104166Y-41093276D01*
X55104166Y-41093276D02*
X55134642Y-41078038D01*
X55134642Y-41078038D02*
X55195595Y-41078038D01*
X55195595Y-41078038D02*
X55226071Y-41093276D01*
X55226071Y-41093276D02*
X55256547Y-41123752D01*
X55256547Y-41123752D02*
X55271785Y-41184704D01*
X55271785Y-41184704D02*
X55271785Y-41291371D01*
X55271785Y-41291371D02*
X55256547Y-41352323D01*
X55256547Y-41352323D02*
X55226071Y-41382800D01*
X55226071Y-41382800D02*
X55195595Y-41398038D01*
X55195595Y-41398038D02*
X55134642Y-41398038D01*
X55378452Y-41078038D02*
X55591785Y-41078038D01*
X55591785Y-41078038D02*
X55454642Y-41398038D01*
D12*
X1962619Y-39833333D02*
X2676904Y-39833333D01*
X2676904Y-39833333D02*
X2819761Y-39880952D01*
X2819761Y-39880952D02*
X2915000Y-39976190D01*
X2915000Y-39976190D02*
X2962619Y-40119047D01*
X2962619Y-40119047D02*
X2962619Y-40214285D01*
X2057857Y-39404761D02*
X2010238Y-39357142D01*
X2010238Y-39357142D02*
X1962619Y-39261904D01*
X1962619Y-39261904D02*
X1962619Y-39023809D01*
X1962619Y-39023809D02*
X2010238Y-38928571D01*
X2010238Y-38928571D02*
X2057857Y-38880952D01*
X2057857Y-38880952D02*
X2153095Y-38833333D01*
X2153095Y-38833333D02*
X2248333Y-38833333D01*
X2248333Y-38833333D02*
X2391190Y-38880952D01*
X2391190Y-38880952D02*
X2962619Y-39452380D01*
X2962619Y-39452380D02*
X2962619Y-38833333D01*
X64238095Y-65462619D02*
X64238095Y-64462619D01*
X64238095Y-64938809D02*
X64809523Y-64938809D01*
X64809523Y-65462619D02*
X64809523Y-64462619D01*
X65190476Y-64462619D02*
X65809523Y-64462619D01*
X65809523Y-64462619D02*
X65476190Y-64843571D01*
X65476190Y-64843571D02*
X65619047Y-64843571D01*
X65619047Y-64843571D02*
X65714285Y-64891190D01*
X65714285Y-64891190D02*
X65761904Y-64938809D01*
X65761904Y-64938809D02*
X65809523Y-65034047D01*
X65809523Y-65034047D02*
X65809523Y-65272142D01*
X65809523Y-65272142D02*
X65761904Y-65367380D01*
X65761904Y-65367380D02*
X65714285Y-65415000D01*
X65714285Y-65415000D02*
X65619047Y-65462619D01*
X65619047Y-65462619D02*
X65333333Y-65462619D01*
X65333333Y-65462619D02*
X65238095Y-65415000D01*
X65238095Y-65415000D02*
X65190476Y-65367380D01*
D10*
X10581845Y-28965714D02*
X10593750Y-28977618D01*
X10593750Y-28977618D02*
X10605654Y-29013333D01*
X10605654Y-29013333D02*
X10605654Y-29037142D01*
X10605654Y-29037142D02*
X10593750Y-29072856D01*
X10593750Y-29072856D02*
X10569940Y-29096666D01*
X10569940Y-29096666D02*
X10546130Y-29108571D01*
X10546130Y-29108571D02*
X10498511Y-29120475D01*
X10498511Y-29120475D02*
X10462797Y-29120475D01*
X10462797Y-29120475D02*
X10415178Y-29108571D01*
X10415178Y-29108571D02*
X10391369Y-29096666D01*
X10391369Y-29096666D02*
X10367559Y-29072856D01*
X10367559Y-29072856D02*
X10355654Y-29037142D01*
X10355654Y-29037142D02*
X10355654Y-29013333D01*
X10355654Y-29013333D02*
X10367559Y-28977618D01*
X10367559Y-28977618D02*
X10379464Y-28965714D01*
X10438988Y-28751428D02*
X10605654Y-28751428D01*
X10343750Y-28810952D02*
X10522321Y-28870475D01*
X10522321Y-28870475D02*
X10522321Y-28715714D01*
X10355654Y-28644285D02*
X10355654Y-28489523D01*
X10355654Y-28489523D02*
X10450892Y-28572857D01*
X10450892Y-28572857D02*
X10450892Y-28537142D01*
X10450892Y-28537142D02*
X10462797Y-28513333D01*
X10462797Y-28513333D02*
X10474702Y-28501428D01*
X10474702Y-28501428D02*
X10498511Y-28489523D01*
X10498511Y-28489523D02*
X10558035Y-28489523D01*
X10558035Y-28489523D02*
X10581845Y-28501428D01*
X10581845Y-28501428D02*
X10593750Y-28513333D01*
X10593750Y-28513333D02*
X10605654Y-28537142D01*
X10605654Y-28537142D02*
X10605654Y-28608571D01*
X10605654Y-28608571D02*
X10593750Y-28632380D01*
X10593750Y-28632380D02*
X10581845Y-28644285D01*
X52152857Y-42590280D02*
X52066190Y-42466471D01*
X52004285Y-42590280D02*
X52004285Y-42330280D01*
X52004285Y-42330280D02*
X52103333Y-42330280D01*
X52103333Y-42330280D02*
X52128095Y-42342661D01*
X52128095Y-42342661D02*
X52140476Y-42355042D01*
X52140476Y-42355042D02*
X52152857Y-42379804D01*
X52152857Y-42379804D02*
X52152857Y-42416947D01*
X52152857Y-42416947D02*
X52140476Y-42441709D01*
X52140476Y-42441709D02*
X52128095Y-42454090D01*
X52128095Y-42454090D02*
X52103333Y-42466471D01*
X52103333Y-42466471D02*
X52004285Y-42466471D01*
X52400476Y-42590280D02*
X52251904Y-42590280D01*
X52326190Y-42590280D02*
X52326190Y-42330280D01*
X52326190Y-42330280D02*
X52301428Y-42367423D01*
X52301428Y-42367423D02*
X52276666Y-42392185D01*
X52276666Y-42392185D02*
X52251904Y-42404566D01*
X52524285Y-42590280D02*
X52573809Y-42590280D01*
X52573809Y-42590280D02*
X52598571Y-42577900D01*
X52598571Y-42577900D02*
X52610952Y-42565519D01*
X52610952Y-42565519D02*
X52635714Y-42528376D01*
X52635714Y-42528376D02*
X52648095Y-42478852D01*
X52648095Y-42478852D02*
X52648095Y-42379804D01*
X52648095Y-42379804D02*
X52635714Y-42355042D01*
X52635714Y-42355042D02*
X52623333Y-42342661D01*
X52623333Y-42342661D02*
X52598571Y-42330280D01*
X52598571Y-42330280D02*
X52549047Y-42330280D01*
X52549047Y-42330280D02*
X52524285Y-42342661D01*
X52524285Y-42342661D02*
X52511904Y-42355042D01*
X52511904Y-42355042D02*
X52499523Y-42379804D01*
X52499523Y-42379804D02*
X52499523Y-42441709D01*
X52499523Y-42441709D02*
X52511904Y-42466471D01*
X52511904Y-42466471D02*
X52524285Y-42478852D01*
X52524285Y-42478852D02*
X52549047Y-42491233D01*
X52549047Y-42491233D02*
X52598571Y-42491233D01*
X52598571Y-42491233D02*
X52623333Y-42478852D01*
X52623333Y-42478852D02*
X52635714Y-42466471D01*
X52635714Y-42466471D02*
X52648095Y-42441709D01*
X24729845Y-59046714D02*
X24741750Y-59058618D01*
X24741750Y-59058618D02*
X24753654Y-59094333D01*
X24753654Y-59094333D02*
X24753654Y-59118142D01*
X24753654Y-59118142D02*
X24741750Y-59153856D01*
X24741750Y-59153856D02*
X24717940Y-59177666D01*
X24717940Y-59177666D02*
X24694130Y-59189571D01*
X24694130Y-59189571D02*
X24646511Y-59201475D01*
X24646511Y-59201475D02*
X24610797Y-59201475D01*
X24610797Y-59201475D02*
X24563178Y-59189571D01*
X24563178Y-59189571D02*
X24539369Y-59177666D01*
X24539369Y-59177666D02*
X24515559Y-59153856D01*
X24515559Y-59153856D02*
X24503654Y-59118142D01*
X24503654Y-59118142D02*
X24503654Y-59094333D01*
X24503654Y-59094333D02*
X24515559Y-59058618D01*
X24515559Y-59058618D02*
X24527464Y-59046714D01*
X24753654Y-58808618D02*
X24753654Y-58951475D01*
X24753654Y-58880047D02*
X24503654Y-58880047D01*
X24503654Y-58880047D02*
X24539369Y-58903856D01*
X24539369Y-58903856D02*
X24563178Y-58927666D01*
X24563178Y-58927666D02*
X24575083Y-58951475D01*
X24503654Y-58582428D02*
X24503654Y-58701476D01*
X24503654Y-58701476D02*
X24622702Y-58713380D01*
X24622702Y-58713380D02*
X24610797Y-58701476D01*
X24610797Y-58701476D02*
X24598892Y-58677666D01*
X24598892Y-58677666D02*
X24598892Y-58618142D01*
X24598892Y-58618142D02*
X24610797Y-58594333D01*
X24610797Y-58594333D02*
X24622702Y-58582428D01*
X24622702Y-58582428D02*
X24646511Y-58570523D01*
X24646511Y-58570523D02*
X24706035Y-58570523D01*
X24706035Y-58570523D02*
X24729845Y-58582428D01*
X24729845Y-58582428D02*
X24741750Y-58594333D01*
X24741750Y-58594333D02*
X24753654Y-58618142D01*
X24753654Y-58618142D02*
X24753654Y-58677666D01*
X24753654Y-58677666D02*
X24741750Y-58701476D01*
X24741750Y-58701476D02*
X24729845Y-58713380D01*
D16*
X12739523Y-63918514D02*
X12709047Y-63903276D01*
X12709047Y-63903276D02*
X12678571Y-63872800D01*
X12678571Y-63872800D02*
X12632857Y-63827085D01*
X12632857Y-63827085D02*
X12602380Y-63811847D01*
X12602380Y-63811847D02*
X12571904Y-63811847D01*
X12587142Y-63888038D02*
X12556666Y-63872800D01*
X12556666Y-63872800D02*
X12526190Y-63842323D01*
X12526190Y-63842323D02*
X12510952Y-63781371D01*
X12510952Y-63781371D02*
X12510952Y-63674704D01*
X12510952Y-63674704D02*
X12526190Y-63613752D01*
X12526190Y-63613752D02*
X12556666Y-63583276D01*
X12556666Y-63583276D02*
X12587142Y-63568038D01*
X12587142Y-63568038D02*
X12648095Y-63568038D01*
X12648095Y-63568038D02*
X12678571Y-63583276D01*
X12678571Y-63583276D02*
X12709047Y-63613752D01*
X12709047Y-63613752D02*
X12724285Y-63674704D01*
X12724285Y-63674704D02*
X12724285Y-63781371D01*
X12724285Y-63781371D02*
X12709047Y-63842323D01*
X12709047Y-63842323D02*
X12678571Y-63872800D01*
X12678571Y-63872800D02*
X12648095Y-63888038D01*
X12648095Y-63888038D02*
X12587142Y-63888038D01*
X12998571Y-63568038D02*
X12937618Y-63568038D01*
X12937618Y-63568038D02*
X12907142Y-63583276D01*
X12907142Y-63583276D02*
X12891904Y-63598514D01*
X12891904Y-63598514D02*
X12861428Y-63644228D01*
X12861428Y-63644228D02*
X12846190Y-63705180D01*
X12846190Y-63705180D02*
X12846190Y-63827085D01*
X12846190Y-63827085D02*
X12861428Y-63857561D01*
X12861428Y-63857561D02*
X12876666Y-63872800D01*
X12876666Y-63872800D02*
X12907142Y-63888038D01*
X12907142Y-63888038D02*
X12968095Y-63888038D01*
X12968095Y-63888038D02*
X12998571Y-63872800D01*
X12998571Y-63872800D02*
X13013809Y-63857561D01*
X13013809Y-63857561D02*
X13029047Y-63827085D01*
X13029047Y-63827085D02*
X13029047Y-63750895D01*
X13029047Y-63750895D02*
X13013809Y-63720419D01*
X13013809Y-63720419D02*
X12998571Y-63705180D01*
X12998571Y-63705180D02*
X12968095Y-63689942D01*
X12968095Y-63689942D02*
X12907142Y-63689942D01*
X12907142Y-63689942D02*
X12876666Y-63705180D01*
X12876666Y-63705180D02*
X12861428Y-63720419D01*
X12861428Y-63720419D02*
X12846190Y-63750895D01*
D10*
X63592857Y-30020280D02*
X63506190Y-29896471D01*
X63444285Y-30020280D02*
X63444285Y-29760280D01*
X63444285Y-29760280D02*
X63543333Y-29760280D01*
X63543333Y-29760280D02*
X63568095Y-29772661D01*
X63568095Y-29772661D02*
X63580476Y-29785042D01*
X63580476Y-29785042D02*
X63592857Y-29809804D01*
X63592857Y-29809804D02*
X63592857Y-29846947D01*
X63592857Y-29846947D02*
X63580476Y-29871709D01*
X63580476Y-29871709D02*
X63568095Y-29884090D01*
X63568095Y-29884090D02*
X63543333Y-29896471D01*
X63543333Y-29896471D02*
X63444285Y-29896471D01*
X63691904Y-29785042D02*
X63704285Y-29772661D01*
X63704285Y-29772661D02*
X63729047Y-29760280D01*
X63729047Y-29760280D02*
X63790952Y-29760280D01*
X63790952Y-29760280D02*
X63815714Y-29772661D01*
X63815714Y-29772661D02*
X63828095Y-29785042D01*
X63828095Y-29785042D02*
X63840476Y-29809804D01*
X63840476Y-29809804D02*
X63840476Y-29834566D01*
X63840476Y-29834566D02*
X63828095Y-29871709D01*
X63828095Y-29871709D02*
X63679523Y-30020280D01*
X63679523Y-30020280D02*
X63840476Y-30020280D01*
X63927142Y-29760280D02*
X64100476Y-29760280D01*
X64100476Y-29760280D02*
X63989047Y-30020280D01*
X30698845Y-45901714D02*
X30710750Y-45913618D01*
X30710750Y-45913618D02*
X30722654Y-45949333D01*
X30722654Y-45949333D02*
X30722654Y-45973142D01*
X30722654Y-45973142D02*
X30710750Y-46008856D01*
X30710750Y-46008856D02*
X30686940Y-46032666D01*
X30686940Y-46032666D02*
X30663130Y-46044571D01*
X30663130Y-46044571D02*
X30615511Y-46056475D01*
X30615511Y-46056475D02*
X30579797Y-46056475D01*
X30579797Y-46056475D02*
X30532178Y-46044571D01*
X30532178Y-46044571D02*
X30508369Y-46032666D01*
X30508369Y-46032666D02*
X30484559Y-46008856D01*
X30484559Y-46008856D02*
X30472654Y-45973142D01*
X30472654Y-45973142D02*
X30472654Y-45949333D01*
X30472654Y-45949333D02*
X30484559Y-45913618D01*
X30484559Y-45913618D02*
X30496464Y-45901714D01*
X30472654Y-45675523D02*
X30472654Y-45794571D01*
X30472654Y-45794571D02*
X30591702Y-45806475D01*
X30591702Y-45806475D02*
X30579797Y-45794571D01*
X30579797Y-45794571D02*
X30567892Y-45770761D01*
X30567892Y-45770761D02*
X30567892Y-45711237D01*
X30567892Y-45711237D02*
X30579797Y-45687428D01*
X30579797Y-45687428D02*
X30591702Y-45675523D01*
X30591702Y-45675523D02*
X30615511Y-45663618D01*
X30615511Y-45663618D02*
X30675035Y-45663618D01*
X30675035Y-45663618D02*
X30698845Y-45675523D01*
X30698845Y-45675523D02*
X30710750Y-45687428D01*
X30710750Y-45687428D02*
X30722654Y-45711237D01*
X30722654Y-45711237D02*
X30722654Y-45770761D01*
X30722654Y-45770761D02*
X30710750Y-45794571D01*
X30710750Y-45794571D02*
X30698845Y-45806475D01*
X30472654Y-45580285D02*
X30472654Y-45413619D01*
X30472654Y-45413619D02*
X30722654Y-45520761D01*
D16*
X46949523Y-66028514D02*
X46919047Y-66013276D01*
X46919047Y-66013276D02*
X46888571Y-65982800D01*
X46888571Y-65982800D02*
X46842857Y-65937085D01*
X46842857Y-65937085D02*
X46812380Y-65921847D01*
X46812380Y-65921847D02*
X46781904Y-65921847D01*
X46797142Y-65998038D02*
X46766666Y-65982800D01*
X46766666Y-65982800D02*
X46736190Y-65952323D01*
X46736190Y-65952323D02*
X46720952Y-65891371D01*
X46720952Y-65891371D02*
X46720952Y-65784704D01*
X46720952Y-65784704D02*
X46736190Y-65723752D01*
X46736190Y-65723752D02*
X46766666Y-65693276D01*
X46766666Y-65693276D02*
X46797142Y-65678038D01*
X46797142Y-65678038D02*
X46858095Y-65678038D01*
X46858095Y-65678038D02*
X46888571Y-65693276D01*
X46888571Y-65693276D02*
X46919047Y-65723752D01*
X46919047Y-65723752D02*
X46934285Y-65784704D01*
X46934285Y-65784704D02*
X46934285Y-65891371D01*
X46934285Y-65891371D02*
X46919047Y-65952323D01*
X46919047Y-65952323D02*
X46888571Y-65982800D01*
X46888571Y-65982800D02*
X46858095Y-65998038D01*
X46858095Y-65998038D02*
X46797142Y-65998038D01*
X47056190Y-65708514D02*
X47071428Y-65693276D01*
X47071428Y-65693276D02*
X47101904Y-65678038D01*
X47101904Y-65678038D02*
X47178095Y-65678038D01*
X47178095Y-65678038D02*
X47208571Y-65693276D01*
X47208571Y-65693276D02*
X47223809Y-65708514D01*
X47223809Y-65708514D02*
X47239047Y-65738990D01*
X47239047Y-65738990D02*
X47239047Y-65769466D01*
X47239047Y-65769466D02*
X47223809Y-65815180D01*
X47223809Y-65815180D02*
X47040952Y-65998038D01*
X47040952Y-65998038D02*
X47239047Y-65998038D01*
D15*
X30295296Y-62499714D02*
X30337201Y-62541618D01*
X30337201Y-62541618D02*
X30379105Y-62667333D01*
X30379105Y-62667333D02*
X30379105Y-62751142D01*
X30379105Y-62751142D02*
X30337201Y-62876856D01*
X30337201Y-62876856D02*
X30253391Y-62960666D01*
X30253391Y-62960666D02*
X30169581Y-63002571D01*
X30169581Y-63002571D02*
X30001962Y-63044475D01*
X30001962Y-63044475D02*
X29876248Y-63044475D01*
X29876248Y-63044475D02*
X29708629Y-63002571D01*
X29708629Y-63002571D02*
X29624820Y-62960666D01*
X29624820Y-62960666D02*
X29541010Y-62876856D01*
X29541010Y-62876856D02*
X29499105Y-62751142D01*
X29499105Y-62751142D02*
X29499105Y-62667333D01*
X29499105Y-62667333D02*
X29541010Y-62541618D01*
X29541010Y-62541618D02*
X29582915Y-62499714D01*
X29582915Y-62164475D02*
X29541010Y-62122571D01*
X29541010Y-62122571D02*
X29499105Y-62038761D01*
X29499105Y-62038761D02*
X29499105Y-61829237D01*
X29499105Y-61829237D02*
X29541010Y-61745428D01*
X29541010Y-61745428D02*
X29582915Y-61703523D01*
X29582915Y-61703523D02*
X29666724Y-61661618D01*
X29666724Y-61661618D02*
X29750534Y-61661618D01*
X29750534Y-61661618D02*
X29876248Y-61703523D01*
X29876248Y-61703523D02*
X30379105Y-62206380D01*
X30379105Y-62206380D02*
X30379105Y-61661618D01*
X29499105Y-60865428D02*
X29499105Y-61284476D01*
X29499105Y-61284476D02*
X29918153Y-61326380D01*
X29918153Y-61326380D02*
X29876248Y-61284476D01*
X29876248Y-61284476D02*
X29834343Y-61200666D01*
X29834343Y-61200666D02*
X29834343Y-60991142D01*
X29834343Y-60991142D02*
X29876248Y-60907333D01*
X29876248Y-60907333D02*
X29918153Y-60865428D01*
X29918153Y-60865428D02*
X30001962Y-60823523D01*
X30001962Y-60823523D02*
X30211486Y-60823523D01*
X30211486Y-60823523D02*
X30295296Y-60865428D01*
X30295296Y-60865428D02*
X30337201Y-60907333D01*
X30337201Y-60907333D02*
X30379105Y-60991142D01*
X30379105Y-60991142D02*
X30379105Y-61200666D01*
X30379105Y-61200666D02*
X30337201Y-61284476D01*
X30337201Y-61284476D02*
X30295296Y-61326380D01*
D12*
X27767666Y-65108951D02*
X27767666Y-64347047D01*
X28148619Y-64727999D02*
X27386714Y-64727999D01*
D14*
X10032738Y-44285046D02*
X10032738Y-44608856D01*
X10032738Y-44608856D02*
X10051785Y-44646951D01*
X10051785Y-44646951D02*
X10070833Y-44665999D01*
X10070833Y-44665999D02*
X10108928Y-44685046D01*
X10108928Y-44685046D02*
X10185119Y-44685046D01*
X10185119Y-44685046D02*
X10223214Y-44665999D01*
X10223214Y-44665999D02*
X10242261Y-44646951D01*
X10242261Y-44646951D02*
X10261309Y-44608856D01*
X10261309Y-44608856D02*
X10261309Y-44285046D01*
X10661309Y-44685046D02*
X10432738Y-44685046D01*
X10547024Y-44685046D02*
X10547024Y-44285046D01*
X10547024Y-44285046D02*
X10508928Y-44342189D01*
X10508928Y-44342189D02*
X10470833Y-44380284D01*
X10470833Y-44380284D02*
X10432738Y-44399332D01*
D11*
X19671309Y-30741428D02*
X19433214Y-30908094D01*
X19671309Y-31027142D02*
X19171309Y-31027142D01*
X19171309Y-31027142D02*
X19171309Y-30836666D01*
X19171309Y-30836666D02*
X19195119Y-30789047D01*
X19195119Y-30789047D02*
X19218928Y-30765237D01*
X19218928Y-30765237D02*
X19266547Y-30741428D01*
X19266547Y-30741428D02*
X19337976Y-30741428D01*
X19337976Y-30741428D02*
X19385595Y-30765237D01*
X19385595Y-30765237D02*
X19409404Y-30789047D01*
X19409404Y-30789047D02*
X19433214Y-30836666D01*
X19433214Y-30836666D02*
X19433214Y-31027142D01*
X19171309Y-30574761D02*
X19171309Y-30265237D01*
X19171309Y-30265237D02*
X19361785Y-30431904D01*
X19361785Y-30431904D02*
X19361785Y-30360475D01*
X19361785Y-30360475D02*
X19385595Y-30312856D01*
X19385595Y-30312856D02*
X19409404Y-30289047D01*
X19409404Y-30289047D02*
X19457023Y-30265237D01*
X19457023Y-30265237D02*
X19576071Y-30265237D01*
X19576071Y-30265237D02*
X19623690Y-30289047D01*
X19623690Y-30289047D02*
X19647500Y-30312856D01*
X19647500Y-30312856D02*
X19671309Y-30360475D01*
X19671309Y-30360475D02*
X19671309Y-30503332D01*
X19671309Y-30503332D02*
X19647500Y-30550951D01*
X19647500Y-30550951D02*
X19623690Y-30574761D01*
X19171309Y-30098571D02*
X19171309Y-29789047D01*
X19171309Y-29789047D02*
X19361785Y-29955714D01*
X19361785Y-29955714D02*
X19361785Y-29884285D01*
X19361785Y-29884285D02*
X19385595Y-29836666D01*
X19385595Y-29836666D02*
X19409404Y-29812857D01*
X19409404Y-29812857D02*
X19457023Y-29789047D01*
X19457023Y-29789047D02*
X19576071Y-29789047D01*
X19576071Y-29789047D02*
X19623690Y-29812857D01*
X19623690Y-29812857D02*
X19647500Y-29836666D01*
X19647500Y-29836666D02*
X19671309Y-29884285D01*
X19671309Y-29884285D02*
X19671309Y-30027142D01*
X19671309Y-30027142D02*
X19647500Y-30074761D01*
X19647500Y-30074761D02*
X19623690Y-30098571D01*
D15*
X21109285Y-53198297D02*
X21067381Y-53240202D01*
X21067381Y-53240202D02*
X20941666Y-53282106D01*
X20941666Y-53282106D02*
X20857857Y-53282106D01*
X20857857Y-53282106D02*
X20732143Y-53240202D01*
X20732143Y-53240202D02*
X20648333Y-53156392D01*
X20648333Y-53156392D02*
X20606428Y-53072582D01*
X20606428Y-53072582D02*
X20564524Y-52904963D01*
X20564524Y-52904963D02*
X20564524Y-52779249D01*
X20564524Y-52779249D02*
X20606428Y-52611630D01*
X20606428Y-52611630D02*
X20648333Y-52527821D01*
X20648333Y-52527821D02*
X20732143Y-52444011D01*
X20732143Y-52444011D02*
X20857857Y-52402106D01*
X20857857Y-52402106D02*
X20941666Y-52402106D01*
X20941666Y-52402106D02*
X21067381Y-52444011D01*
X21067381Y-52444011D02*
X21109285Y-52485916D01*
X21947381Y-53282106D02*
X21444524Y-53282106D01*
X21695952Y-53282106D02*
X21695952Y-52402106D01*
X21695952Y-52402106D02*
X21612143Y-52527821D01*
X21612143Y-52527821D02*
X21528333Y-52611630D01*
X21528333Y-52611630D02*
X21444524Y-52653535D01*
X22282619Y-52485916D02*
X22324523Y-52444011D01*
X22324523Y-52444011D02*
X22408333Y-52402106D01*
X22408333Y-52402106D02*
X22617857Y-52402106D01*
X22617857Y-52402106D02*
X22701666Y-52444011D01*
X22701666Y-52444011D02*
X22743571Y-52485916D01*
X22743571Y-52485916D02*
X22785476Y-52569725D01*
X22785476Y-52569725D02*
X22785476Y-52653535D01*
X22785476Y-52653535D02*
X22743571Y-52779249D01*
X22743571Y-52779249D02*
X22240714Y-53282106D01*
X22240714Y-53282106D02*
X22785476Y-53282106D01*
D12*
X23319048Y-54156666D02*
X24080953Y-54156666D01*
X23700000Y-54537619D02*
X23700000Y-53775714D01*
X56166666Y-4462619D02*
X56166666Y-5176904D01*
X56166666Y-5176904D02*
X56119047Y-5319761D01*
X56119047Y-5319761D02*
X56023809Y-5415000D01*
X56023809Y-5415000D02*
X55880952Y-5462619D01*
X55880952Y-5462619D02*
X55785714Y-5462619D01*
X56547619Y-4462619D02*
X57166666Y-4462619D01*
X57166666Y-4462619D02*
X56833333Y-4843571D01*
X56833333Y-4843571D02*
X56976190Y-4843571D01*
X56976190Y-4843571D02*
X57071428Y-4891190D01*
X57071428Y-4891190D02*
X57119047Y-4938809D01*
X57119047Y-4938809D02*
X57166666Y-5034047D01*
X57166666Y-5034047D02*
X57166666Y-5272142D01*
X57166666Y-5272142D02*
X57119047Y-5367380D01*
X57119047Y-5367380D02*
X57071428Y-5415000D01*
X57071428Y-5415000D02*
X56976190Y-5462619D01*
X56976190Y-5462619D02*
X56690476Y-5462619D01*
X56690476Y-5462619D02*
X56595238Y-5415000D01*
X56595238Y-5415000D02*
X56547619Y-5367380D01*
D10*
X7721845Y-29530714D02*
X7733750Y-29542618D01*
X7733750Y-29542618D02*
X7745654Y-29578333D01*
X7745654Y-29578333D02*
X7745654Y-29602142D01*
X7745654Y-29602142D02*
X7733750Y-29637856D01*
X7733750Y-29637856D02*
X7709940Y-29661666D01*
X7709940Y-29661666D02*
X7686130Y-29673571D01*
X7686130Y-29673571D02*
X7638511Y-29685475D01*
X7638511Y-29685475D02*
X7602797Y-29685475D01*
X7602797Y-29685475D02*
X7555178Y-29673571D01*
X7555178Y-29673571D02*
X7531369Y-29661666D01*
X7531369Y-29661666D02*
X7507559Y-29637856D01*
X7507559Y-29637856D02*
X7495654Y-29602142D01*
X7495654Y-29602142D02*
X7495654Y-29578333D01*
X7495654Y-29578333D02*
X7507559Y-29542618D01*
X7507559Y-29542618D02*
X7519464Y-29530714D01*
X7578988Y-29316428D02*
X7745654Y-29316428D01*
X7483750Y-29375952D02*
X7662321Y-29435475D01*
X7662321Y-29435475D02*
X7662321Y-29280714D01*
X7495654Y-29066428D02*
X7495654Y-29185476D01*
X7495654Y-29185476D02*
X7614702Y-29197380D01*
X7614702Y-29197380D02*
X7602797Y-29185476D01*
X7602797Y-29185476D02*
X7590892Y-29161666D01*
X7590892Y-29161666D02*
X7590892Y-29102142D01*
X7590892Y-29102142D02*
X7602797Y-29078333D01*
X7602797Y-29078333D02*
X7614702Y-29066428D01*
X7614702Y-29066428D02*
X7638511Y-29054523D01*
X7638511Y-29054523D02*
X7698035Y-29054523D01*
X7698035Y-29054523D02*
X7721845Y-29066428D01*
X7721845Y-29066428D02*
X7733750Y-29078333D01*
X7733750Y-29078333D02*
X7745654Y-29102142D01*
X7745654Y-29102142D02*
X7745654Y-29161666D01*
X7745654Y-29161666D02*
X7733750Y-29185476D01*
X7733750Y-29185476D02*
X7721845Y-29197380D01*
X13309285Y-23721845D02*
X13297381Y-23733750D01*
X13297381Y-23733750D02*
X13261666Y-23745654D01*
X13261666Y-23745654D02*
X13237857Y-23745654D01*
X13237857Y-23745654D02*
X13202143Y-23733750D01*
X13202143Y-23733750D02*
X13178333Y-23709940D01*
X13178333Y-23709940D02*
X13166428Y-23686130D01*
X13166428Y-23686130D02*
X13154524Y-23638511D01*
X13154524Y-23638511D02*
X13154524Y-23602797D01*
X13154524Y-23602797D02*
X13166428Y-23555178D01*
X13166428Y-23555178D02*
X13178333Y-23531369D01*
X13178333Y-23531369D02*
X13202143Y-23507559D01*
X13202143Y-23507559D02*
X13237857Y-23495654D01*
X13237857Y-23495654D02*
X13261666Y-23495654D01*
X13261666Y-23495654D02*
X13297381Y-23507559D01*
X13297381Y-23507559D02*
X13309285Y-23519464D01*
X13535476Y-23495654D02*
X13416428Y-23495654D01*
X13416428Y-23495654D02*
X13404524Y-23614702D01*
X13404524Y-23614702D02*
X13416428Y-23602797D01*
X13416428Y-23602797D02*
X13440238Y-23590892D01*
X13440238Y-23590892D02*
X13499762Y-23590892D01*
X13499762Y-23590892D02*
X13523571Y-23602797D01*
X13523571Y-23602797D02*
X13535476Y-23614702D01*
X13535476Y-23614702D02*
X13547381Y-23638511D01*
X13547381Y-23638511D02*
X13547381Y-23698035D01*
X13547381Y-23698035D02*
X13535476Y-23721845D01*
X13535476Y-23721845D02*
X13523571Y-23733750D01*
X13523571Y-23733750D02*
X13499762Y-23745654D01*
X13499762Y-23745654D02*
X13440238Y-23745654D01*
X13440238Y-23745654D02*
X13416428Y-23733750D01*
X13416428Y-23733750D02*
X13404524Y-23721845D01*
X13642619Y-23519464D02*
X13654523Y-23507559D01*
X13654523Y-23507559D02*
X13678333Y-23495654D01*
X13678333Y-23495654D02*
X13737857Y-23495654D01*
X13737857Y-23495654D02*
X13761666Y-23507559D01*
X13761666Y-23507559D02*
X13773571Y-23519464D01*
X13773571Y-23519464D02*
X13785476Y-23543273D01*
X13785476Y-23543273D02*
X13785476Y-23567083D01*
X13785476Y-23567083D02*
X13773571Y-23602797D01*
X13773571Y-23602797D02*
X13630714Y-23745654D01*
X13630714Y-23745654D02*
X13785476Y-23745654D01*
D17*
X11692000Y-46750000D02*
X12692000Y-46750000D01*
X11692000Y-47250000D02*
X11692000Y-46750000D01*
X12692000Y-46750000D02*
X12692000Y-47250000D01*
X12692000Y-47250000D02*
X11692000Y-47250000D01*
X53000000Y-61000000D02*
X52500000Y-61500000D01*
X53000000Y-59500000D02*
X53000000Y-61000000D01*
X52500000Y-61500000D02*
X51000000Y-61500000D01*
X51000000Y-61500000D02*
X51000000Y-59500000D01*
X51000000Y-59500000D02*
X53000000Y-59500000D01*
X39230000Y-63425000D02*
X40205000Y-62450000D01*
X39230000Y-67350000D02*
X39230000Y-63425000D01*
X40205000Y-62450000D02*
X43130000Y-62450000D01*
X43130000Y-62450000D02*
X43130000Y-67350000D01*
X43130000Y-67350000D02*
X39230000Y-67350000D01*
X24000000Y-62750000D02*
X20000000Y-62750000D01*
X20000000Y-62750000D02*
X20000000Y-66750000D01*
X24000000Y-66750000D02*
X24000000Y-62750000D01*
X20000000Y-66750000D02*
X24000000Y-66750000D01*
X25904000Y-58386000D02*
X25904000Y-59386000D01*
X25404000Y-58386000D02*
X25904000Y-58386000D01*
X25904000Y-59386000D02*
X25404000Y-59386000D01*
X25404000Y-59386000D02*
X25404000Y-58386000D01*
X4687500Y-33300000D02*
X4687500Y-31700000D01*
X5512500Y-33300000D02*
X4687500Y-33300000D01*
X4687500Y-31700000D02*
X5512500Y-31700000D01*
X5512500Y-31700000D02*
X5512500Y-33300000D01*
X43020000Y-61370000D02*
X44020000Y-61370000D01*
X43020000Y-61870000D02*
X43020000Y-61370000D01*
X44020000Y-61370000D02*
X44020000Y-61870000D01*
X44020000Y-61870000D02*
X43020000Y-61870000D01*
X14275000Y-66290000D02*
X13225000Y-66290000D01*
X14275000Y-65750000D02*
X14275000Y-66290000D01*
X13225000Y-66290000D02*
X13225000Y-65750000D01*
X13225000Y-65750000D02*
X14275000Y-65750000D01*
X3087500Y-33300000D02*
X3087500Y-31700000D01*
X3912500Y-33300000D02*
X3087500Y-33300000D01*
X3087500Y-31700000D02*
X3912500Y-31700000D01*
X3912500Y-31700000D02*
X3912500Y-33300000D01*
X16215000Y-62800000D02*
X15165000Y-62800000D01*
X16215000Y-62260000D02*
X16215000Y-62800000D01*
X15165000Y-62800000D02*
X15165000Y-62260000D01*
X15165000Y-62260000D02*
X16215000Y-62260000D01*
X9957500Y-38420000D02*
X8657500Y-38420000D01*
X9957500Y-37520000D02*
X9957500Y-38420000D01*
X9507500Y-37970000D02*
X9657500Y-37970000D01*
X9507500Y-37970000D02*
X9207500Y-37770000D01*
X9507500Y-37770000D02*
X9507500Y-38170000D01*
X9207500Y-38170000D02*
X9507500Y-37970000D01*
X9207500Y-37970000D02*
X9057500Y-37970000D01*
X9207500Y-37770000D02*
X9207500Y-38170000D01*
X8657500Y-38420000D02*
X8657500Y-37520000D01*
X8657500Y-37520000D02*
X9957500Y-37520000D01*
X67100000Y-20800000D02*
X66600000Y-20800000D01*
X66600000Y-20800000D02*
X66600000Y-21800000D01*
X63400000Y-20800000D02*
X63400000Y-21800000D01*
X62900000Y-20800000D02*
X63400000Y-20800000D01*
X67100000Y-21300000D02*
X66600000Y-21300000D01*
X62900000Y-21300000D02*
X63400000Y-21300000D01*
X66200000Y-21400000D02*
X63800000Y-21400000D01*
X63800000Y-21400000D02*
X62400000Y-22800000D01*
X66000000Y-22000000D02*
X67000000Y-23000000D01*
X64000000Y-22000000D02*
X66000000Y-22000000D01*
X67100000Y-22300000D02*
X67100000Y-20800000D01*
X62900000Y-22300000D02*
X62900000Y-20800000D01*
X67600000Y-22800000D02*
X66200000Y-21400000D01*
X62400000Y-22800000D02*
X62400000Y-25200000D01*
X67000000Y-23000000D02*
X67000000Y-25000000D01*
X63000000Y-23000000D02*
X64000000Y-22000000D01*
X67000000Y-25000000D02*
X66000000Y-26000000D01*
X63000000Y-25000000D02*
X63000000Y-23000000D01*
X67600000Y-25200000D02*
X67600000Y-22800000D01*
X62400000Y-25200000D02*
X63800000Y-26600000D01*
X67100000Y-25700000D02*
X67100000Y-27200000D01*
X62900000Y-25700000D02*
X62900000Y-27200000D01*
X66000000Y-26000000D02*
X64000000Y-26000000D01*
X64000000Y-26000000D02*
X63000000Y-25000000D01*
X66200000Y-26600000D02*
X67600000Y-25200000D01*
X63800000Y-26600000D02*
X66200000Y-26600000D01*
X67100000Y-26700000D02*
X66600000Y-26700000D01*
X62900000Y-26700000D02*
X63400000Y-26700000D01*
X67100000Y-27200000D02*
X66600000Y-27200000D01*
X66600000Y-27200000D02*
X66600000Y-26200000D01*
X63400000Y-27200000D02*
X63400000Y-26200000D01*
X62900000Y-27200000D02*
X63400000Y-27200000D01*
X66000000Y-24000000D02*
G75*
G03*
X66000000Y-24000000I-1000000J0D01*
G01*
X36970000Y-62580000D02*
X35470000Y-62580000D01*
X36970000Y-62580000D02*
X36970000Y-65780000D01*
X35470000Y-62580000D02*
X35470000Y-65780000D01*
X36970000Y-65780000D02*
X35470000Y-65780000D01*
X9000000Y-35330000D02*
X11000000Y-35330000D01*
X9000000Y-36530000D02*
X9000000Y-35330000D01*
X11000000Y-35330000D02*
X11000000Y-36530000D01*
X11000000Y-36530000D02*
X9000000Y-36530000D01*
X12700000Y-24885000D02*
X12700000Y-25885000D01*
X12200000Y-24885000D02*
X12700000Y-24885000D01*
X12700000Y-25885000D02*
X12200000Y-25885000D01*
X12200000Y-25885000D02*
X12200000Y-24885000D01*
X59900000Y-42800000D02*
X60400000Y-42800000D01*
X60400000Y-42800000D02*
X60400000Y-41200000D01*
X59600000Y-42500000D02*
X59900000Y-42800000D01*
X59600000Y-41200000D02*
X59600000Y-42500000D01*
X60400000Y-41200000D02*
X59600000Y-41200000D01*
X63235000Y-28620000D02*
X64285000Y-28620000D01*
X63235000Y-29160000D02*
X63235000Y-28620000D01*
X64285000Y-28620000D02*
X64285000Y-29160000D01*
X64285000Y-29160000D02*
X63235000Y-29160000D01*
X13236487Y-45359099D02*
X13236487Y-45859099D01*
X13236487Y-45859099D02*
X14836487Y-45859099D01*
X13536487Y-45059099D02*
X13236487Y-45359099D01*
X14836487Y-45059099D02*
X13536487Y-45059099D01*
X14836487Y-45859099D02*
X14836487Y-45059099D01*
X19200000Y-35900000D02*
X19200000Y-36400000D01*
X19200000Y-36400000D02*
X20800000Y-36400000D01*
X19500000Y-35600000D02*
X19200000Y-35900000D01*
X20800000Y-35600000D02*
X19500000Y-35600000D01*
X20800000Y-36400000D02*
X20800000Y-35600000D01*
X14025000Y-46480000D02*
X15075000Y-46480000D01*
X14025000Y-47020000D02*
X14025000Y-46480000D01*
X15075000Y-46480000D02*
X15075000Y-47020000D01*
X15075000Y-47020000D02*
X14025000Y-47020000D01*
X16287500Y-59700000D02*
X16287500Y-57600000D01*
X16287500Y-57600000D02*
X12787500Y-57600000D01*
X15587500Y-60400000D02*
X16287500Y-59700000D01*
X12787500Y-60400000D02*
X15587500Y-60400000D01*
X12787500Y-57600000D02*
X12787500Y-60400000D01*
X37895000Y-61350000D02*
X38945000Y-61350000D01*
X37895000Y-61890000D02*
X37895000Y-61350000D01*
X38945000Y-61350000D02*
X38945000Y-61890000D01*
X38945000Y-61890000D02*
X37895000Y-61890000D01*
X34548000Y-46281000D02*
X34548000Y-45281000D01*
X35048000Y-46281000D02*
X34548000Y-46281000D01*
X34548000Y-45281000D02*
X35048000Y-45281000D01*
X35048000Y-45281000D02*
X35048000Y-46281000D01*
X49230000Y-62025000D02*
X49230000Y-60975000D01*
X49770000Y-62025000D02*
X49230000Y-62025000D01*
X49230000Y-60975000D02*
X49770000Y-60975000D01*
X49770000Y-60975000D02*
X49770000Y-62025000D01*
X44000000Y-5750000D02*
X42000000Y-5750000D01*
X42000000Y-6750000D02*
X40000000Y-6750000D01*
X41000000Y-7750000D02*
X41000000Y-6750000D01*
X40000000Y-5750000D02*
X38000000Y-5750000D01*
X43000000Y-500000D02*
X39000000Y-500000D01*
X39000000Y-500000D02*
X39000000Y4200000D01*
X39000000Y4200000D02*
X43000000Y4200000D01*
X43000000Y4200000D02*
X43000000Y-500000D01*
X36000000Y-9500000D02*
X46000000Y-9500000D01*
X46000000Y-9500000D02*
X46000000Y-500000D01*
X46000000Y-500000D02*
X36000000Y-500000D01*
X36000000Y-500000D02*
X36000000Y-9500000D01*
X23425000Y-56950000D02*
X23425000Y-54850000D01*
X23425000Y-54850000D02*
X19925000Y-54850000D01*
X22725000Y-57650000D02*
X23425000Y-56950000D01*
X19925000Y-57650000D02*
X22725000Y-57650000D01*
X19925000Y-54850000D02*
X19925000Y-57650000D01*
X2850000Y-29990000D02*
X6850000Y-29990000D01*
X6850000Y-29990000D02*
X6850000Y-25990000D01*
X2850000Y-25990000D02*
X2850000Y-29990000D01*
X6850000Y-25990000D02*
X2850000Y-25990000D01*
X19200000Y-11900000D02*
X19200000Y-12400000D01*
X19200000Y-12400000D02*
X20800000Y-12400000D01*
X19500000Y-11600000D02*
X19200000Y-11900000D01*
X20800000Y-11600000D02*
X19500000Y-11600000D01*
X20800000Y-12400000D02*
X20800000Y-11600000D01*
X26880000Y-53650000D02*
X27880000Y-53650000D01*
X26880000Y-54150000D02*
X26880000Y-53650000D01*
X27880000Y-53650000D02*
X27880000Y-54150000D01*
X27880000Y-54150000D02*
X26880000Y-54150000D01*
X14190000Y-34735000D02*
X14190000Y-35785000D01*
X13650000Y-34735000D02*
X14190000Y-34735000D01*
X14190000Y-35785000D02*
X13650000Y-35785000D01*
X13650000Y-35785000D02*
X13650000Y-34735000D01*
X15200000Y-48550000D02*
X7600000Y-48550000D01*
X15200000Y-48550000D02*
X15200000Y-49350000D01*
X7600000Y-48550000D02*
X7600000Y-56450000D01*
X15200000Y-49350000D02*
X13600000Y-49350000D01*
X13600000Y-49350000D02*
X13600000Y-55650000D01*
X13600000Y-51000000D02*
X12892893Y-51500000D01*
X12892893Y-51500000D02*
X13600000Y-52000000D01*
X15200000Y-55650000D02*
X15200000Y-56450000D01*
X13600000Y-55650000D02*
X15200000Y-55650000D01*
X15200000Y-56450000D02*
X7600000Y-56450000D01*
X28050000Y-56270000D02*
X26050000Y-56270000D01*
X28050000Y-55070000D02*
X28050000Y-56270000D01*
X26050000Y-56270000D02*
X26050000Y-55070000D01*
X26050000Y-55070000D02*
X28050000Y-55070000D01*
X49200000Y-33900000D02*
X49200000Y-34400000D01*
X49200000Y-34400000D02*
X50800000Y-34400000D01*
X49500000Y-33600000D02*
X49200000Y-33900000D01*
X50800000Y-33600000D02*
X49500000Y-33600000D01*
X50800000Y-34400000D02*
X50800000Y-33600000D01*
X19230000Y-58300000D02*
X20230000Y-58300000D01*
X19230000Y-58800000D02*
X19230000Y-58300000D01*
X20230000Y-58300000D02*
X20230000Y-58800000D01*
X20230000Y-58800000D02*
X19230000Y-58800000D01*
X19200000Y-33900000D02*
X19200000Y-34400000D01*
X19200000Y-34400000D02*
X20800000Y-34400000D01*
X19500000Y-33600000D02*
X19200000Y-33900000D01*
X20800000Y-33600000D02*
X19500000Y-33600000D01*
X20800000Y-34400000D02*
X20800000Y-33600000D01*
X18540000Y-57555000D02*
X18540000Y-58605000D01*
X18000000Y-57555000D02*
X18540000Y-57555000D01*
X18540000Y-58605000D02*
X18000000Y-58605000D01*
X18000000Y-58605000D02*
X18000000Y-57555000D01*
X9160000Y-28300000D02*
X9160000Y-29300000D01*
X8660000Y-28300000D02*
X9160000Y-28300000D01*
X9160000Y-29300000D02*
X8660000Y-29300000D01*
X8660000Y-29300000D02*
X8660000Y-28300000D01*
X13248986Y-43759099D02*
X13248986Y-44259099D01*
X13248986Y-44259099D02*
X14848986Y-44259099D01*
X13548986Y-43459099D02*
X13248986Y-43759099D01*
X14848986Y-43459099D02*
X13548986Y-43459099D01*
X14848986Y-44259099D02*
X14848986Y-43459099D01*
X18530000Y-59485000D02*
X18530000Y-60535000D01*
X17990000Y-59485000D02*
X18530000Y-59485000D01*
X18530000Y-60535000D02*
X17990000Y-60535000D01*
X17990000Y-60535000D02*
X17990000Y-59485000D01*
X17450000Y-67280000D02*
X17450000Y-68280000D01*
X16950000Y-67280000D02*
X17450000Y-67280000D01*
X17450000Y-68280000D02*
X16950000Y-68280000D01*
X16950000Y-68280000D02*
X16950000Y-67280000D01*
X5910000Y-24920000D02*
X5510000Y-25320000D01*
X5910000Y-22420000D02*
X5910000Y-24920000D01*
X5510000Y-25320000D02*
X4310000Y-25320000D01*
X4310000Y-25320000D02*
X4310000Y-22420000D01*
X4310000Y-22420000D02*
X5910000Y-22420000D01*
X43800000Y-38750000D02*
X43800000Y-38350000D01*
X43800000Y-38350000D02*
X26200000Y-38350000D01*
X43250000Y-42750000D02*
X26750000Y-42750000D01*
X43250000Y-38750000D02*
X43800000Y-38750000D01*
X43250000Y-38750000D02*
X43250000Y-42750000D01*
X41000000Y-42750000D02*
X40750000Y-42250000D01*
X40750000Y-42250000D02*
X40500000Y-42750000D01*
X26750000Y-38750000D02*
X43250000Y-38750000D01*
X26750000Y-38750000D02*
X26750000Y-42750000D01*
X26200000Y-38750000D02*
X26750000Y-38750000D01*
X26200000Y-38350000D02*
X26200000Y-38750000D01*
X49200000Y-9900000D02*
X49200000Y-10400000D01*
X49200000Y-10400000D02*
X50800000Y-10400000D01*
X49500000Y-9600000D02*
X49200000Y-9900000D01*
X50800000Y-9600000D02*
X49500000Y-9600000D01*
X50800000Y-10400000D02*
X50800000Y-9600000D01*
X47640000Y-63465000D02*
X47315000Y-63790000D01*
X47640000Y-60890000D02*
X47640000Y-63465000D01*
X47315000Y-63790000D02*
X46340000Y-63790000D01*
X46340000Y-63790000D02*
X46340000Y-60890000D01*
X46340000Y-60890000D02*
X47640000Y-60890000D01*
X15930000Y-68325000D02*
X15930000Y-67275000D01*
X16470000Y-68325000D02*
X15930000Y-68325000D01*
X15930000Y-67275000D02*
X16470000Y-67275000D01*
X16470000Y-67275000D02*
X16470000Y-68325000D01*
X12180000Y-36220000D02*
X12180000Y-34920000D01*
X13080000Y-36220000D02*
X12180000Y-36220000D01*
X12630000Y-35770000D02*
X12630000Y-35920000D01*
X12630000Y-35770000D02*
X12830000Y-35470000D01*
X12830000Y-35770000D02*
X12430000Y-35770000D01*
X12430000Y-35470000D02*
X12630000Y-35770000D01*
X12630000Y-35470000D02*
X12630000Y-35320000D01*
X12830000Y-35470000D02*
X12430000Y-35470000D01*
X12180000Y-34920000D02*
X13080000Y-34920000D01*
X13080000Y-34920000D02*
X13080000Y-36220000D01*
X19200000Y-9900000D02*
X19200000Y-10400000D01*
X19200000Y-10400000D02*
X20800000Y-10400000D01*
X19500000Y-9600000D02*
X19200000Y-9900000D01*
X20800000Y-9600000D02*
X19500000Y-9600000D01*
X20800000Y-10400000D02*
X20800000Y-9600000D01*
X32000000Y-5750000D02*
X30000000Y-5750000D01*
X30000000Y-6750000D02*
X28000000Y-6750000D01*
X29000000Y-7750000D02*
X29000000Y-6750000D01*
X28000000Y-5750000D02*
X26000000Y-5750000D01*
X31000000Y-500000D02*
X27000000Y-500000D01*
X27000000Y-500000D02*
X27000000Y4200000D01*
X27000000Y4200000D02*
X31000000Y4200000D01*
X31000000Y4200000D02*
X31000000Y-500000D01*
X24000000Y-9500000D02*
X34000000Y-9500000D01*
X34000000Y-9500000D02*
X34000000Y-500000D01*
X34000000Y-500000D02*
X24000000Y-500000D01*
X24000000Y-500000D02*
X24000000Y-9500000D01*
X67100000Y-11800000D02*
X66600000Y-11800000D01*
X66600000Y-11800000D02*
X66600000Y-12800000D01*
X63400000Y-11800000D02*
X63400000Y-12800000D01*
X62900000Y-11800000D02*
X63400000Y-11800000D01*
X67100000Y-12300000D02*
X66600000Y-12300000D01*
X62900000Y-12300000D02*
X63400000Y-12300000D01*
X66200000Y-12400000D02*
X63800000Y-12400000D01*
X63800000Y-12400000D02*
X62400000Y-13800000D01*
X66000000Y-13000000D02*
X67000000Y-14000000D01*
X64000000Y-13000000D02*
X66000000Y-13000000D01*
X67100000Y-13300000D02*
X67100000Y-11800000D01*
X62900000Y-13300000D02*
X62900000Y-11800000D01*
X67600000Y-13800000D02*
X66200000Y-12400000D01*
X62400000Y-13800000D02*
X62400000Y-16200000D01*
X67000000Y-14000000D02*
X67000000Y-16000000D01*
X63000000Y-14000000D02*
X64000000Y-13000000D01*
X67000000Y-16000000D02*
X66000000Y-17000000D01*
X63000000Y-16000000D02*
X63000000Y-14000000D01*
X67600000Y-16200000D02*
X67600000Y-13800000D01*
X62400000Y-16200000D02*
X63800000Y-17600000D01*
X67100000Y-16700000D02*
X67100000Y-18200000D01*
X62900000Y-16700000D02*
X62900000Y-18200000D01*
X66000000Y-17000000D02*
X64000000Y-17000000D01*
X64000000Y-17000000D02*
X63000000Y-16000000D01*
X66200000Y-17600000D02*
X67600000Y-16200000D01*
X63800000Y-17600000D02*
X66200000Y-17600000D01*
X67100000Y-17700000D02*
X66600000Y-17700000D01*
X62900000Y-17700000D02*
X63400000Y-17700000D01*
X67100000Y-18200000D02*
X66600000Y-18200000D01*
X66600000Y-18200000D02*
X66600000Y-17200000D01*
X63400000Y-18200000D02*
X63400000Y-17200000D01*
X62900000Y-18200000D02*
X63400000Y-18200000D01*
X66000000Y-15000000D02*
G75*
G03*
X66000000Y-15000000I-1000000J0D01*
G01*
X10970000Y-26500000D02*
X8170000Y-26500000D01*
X10970000Y-24700000D02*
X10970000Y-26500000D01*
X10320000Y-25600000D02*
X9920000Y-25600000D01*
X9920000Y-25600000D02*
X9920000Y-26150000D01*
X9920000Y-25600000D02*
X9920000Y-25050000D01*
X9920000Y-25600000D02*
X9320000Y-26000000D01*
X9320000Y-26000000D02*
X9320000Y-25200000D01*
X9320000Y-25600000D02*
X8820000Y-25600000D01*
X9320000Y-25200000D02*
X9920000Y-25600000D01*
X8170000Y-26500000D02*
X8170000Y-24700000D01*
X8170000Y-24700000D02*
X10970000Y-24700000D01*
X10500000Y-23500000D02*
X11500000Y-23500000D01*
X10500000Y-24000000D02*
X10500000Y-23500000D01*
X11500000Y-23500000D02*
X11500000Y-24000000D01*
X11500000Y-24000000D02*
X10500000Y-24000000D01*
X3465000Y-21350000D02*
X4515000Y-21350000D01*
X3465000Y-21890000D02*
X3465000Y-21350000D01*
X4515000Y-21350000D02*
X4515000Y-21890000D01*
X4515000Y-21890000D02*
X3465000Y-21890000D01*
X49200000Y-11900000D02*
X49200000Y-12400000D01*
X49200000Y-12400000D02*
X50800000Y-12400000D01*
X49500000Y-11600000D02*
X49200000Y-11900000D01*
X50800000Y-11600000D02*
X49500000Y-11600000D01*
X50800000Y-12400000D02*
X50800000Y-11600000D01*
X49230000Y-65775000D02*
X49230000Y-64725000D01*
X49770000Y-65775000D02*
X49230000Y-65775000D01*
X49230000Y-64725000D02*
X49770000Y-64725000D01*
X49770000Y-64725000D02*
X49770000Y-65775000D01*
X59160000Y-56900000D02*
X59160000Y-55900000D01*
X59660000Y-56900000D02*
X59160000Y-56900000D01*
X59160000Y-55900000D02*
X59660000Y-55900000D01*
X59660000Y-55900000D02*
X59660000Y-56900000D01*
X27936000Y-60926000D02*
X27936000Y-61926000D01*
X27436000Y-60926000D02*
X27936000Y-60926000D01*
X27936000Y-61926000D02*
X27436000Y-61926000D01*
X27436000Y-61926000D02*
X27436000Y-60926000D01*
X14000000Y-14500000D02*
G75*
G03*
X14000000Y-14500000I-5500000J0D01*
G01*
X25904000Y-60926000D02*
X25904000Y-61926000D01*
X25404000Y-60926000D02*
X25904000Y-60926000D01*
X25904000Y-61926000D02*
X25404000Y-61926000D01*
X25404000Y-61926000D02*
X25404000Y-60926000D01*
X9957500Y-40480000D02*
X8657500Y-40480000D01*
X9957500Y-39580000D02*
X9957500Y-40480000D01*
X9507500Y-40030000D02*
X9657500Y-40030000D01*
X9507500Y-40030000D02*
X9207500Y-39830000D01*
X9507500Y-39830000D02*
X9507500Y-40230000D01*
X9207500Y-40230000D02*
X9507500Y-40030000D01*
X9207500Y-40030000D02*
X9057500Y-40030000D01*
X9207500Y-39830000D02*
X9207500Y-40230000D01*
X8657500Y-40480000D02*
X8657500Y-39580000D01*
X8657500Y-39580000D02*
X9957500Y-39580000D01*
X21362500Y-60862500D02*
X20962500Y-60462500D01*
X23862500Y-60862500D02*
X21362500Y-60862500D01*
X20962500Y-60462500D02*
X20962500Y-59262500D01*
X20962500Y-59262500D02*
X23862500Y-59262500D01*
X23862500Y-59262500D02*
X23862500Y-60862500D01*
X24888000Y-60926000D02*
X24888000Y-61926000D01*
X24388000Y-60926000D02*
X24888000Y-60926000D01*
X24888000Y-61926000D02*
X24388000Y-61926000D01*
X24388000Y-61926000D02*
X24388000Y-60926000D01*
X7455000Y-46725000D02*
X7455000Y-45675000D01*
X7995000Y-46725000D02*
X7455000Y-46725000D01*
X7455000Y-45675000D02*
X7995000Y-45675000D01*
X7995000Y-45675000D02*
X7995000Y-46725000D01*
X26920000Y-60926000D02*
X26920000Y-61926000D01*
X26420000Y-60926000D02*
X26920000Y-60926000D01*
X26920000Y-61926000D02*
X26420000Y-61926000D01*
X26420000Y-61926000D02*
X26420000Y-60926000D01*
X49200000Y-35900000D02*
X49200000Y-36400000D01*
X49200000Y-36400000D02*
X50800000Y-36400000D01*
X49500000Y-35600000D02*
X49200000Y-35900000D01*
X50800000Y-35600000D02*
X49500000Y-35600000D01*
X50800000Y-36400000D02*
X50800000Y-35600000D01*
X26420000Y-59386000D02*
X26420000Y-58386000D01*
X26920000Y-59386000D02*
X26420000Y-59386000D01*
X26420000Y-58386000D02*
X26920000Y-58386000D01*
X26920000Y-58386000D02*
X26920000Y-59386000D01*
X37905000Y-60320000D02*
X38955000Y-60320000D01*
X37905000Y-60860000D02*
X37905000Y-60320000D01*
X38955000Y-60320000D02*
X38955000Y-60860000D01*
X38955000Y-60860000D02*
X37905000Y-60860000D01*
X55455000Y-12075000D02*
X56725000Y-10805000D01*
X55455000Y-36205000D02*
X55455000Y-12075000D01*
X56725000Y-10805000D02*
X60535000Y-10805000D01*
X60535000Y-10805000D02*
X60535000Y-36205000D01*
X60535000Y-36205000D02*
X55455000Y-36205000D01*
X10500000Y-22500000D02*
X11500000Y-22500000D01*
X10500000Y-23000000D02*
X10500000Y-22500000D01*
X11500000Y-22500000D02*
X11500000Y-23000000D01*
X11500000Y-23000000D02*
X10500000Y-23000000D01*
X33532000Y-46281000D02*
X33532000Y-45281000D01*
X34032000Y-46281000D02*
X33532000Y-46281000D01*
X33532000Y-45281000D02*
X34032000Y-45281000D01*
X34032000Y-45281000D02*
X34032000Y-46281000D01*
X58100000Y-39925000D02*
X58100000Y-40975000D01*
X57560000Y-39925000D02*
X58100000Y-39925000D01*
X58100000Y-40975000D02*
X57560000Y-40975000D01*
X57560000Y-40975000D02*
X57560000Y-39925000D01*
X53750000Y-61000000D02*
X53750000Y-60000000D01*
X54250000Y-61000000D02*
X53750000Y-61000000D01*
X53750000Y-60000000D02*
X54250000Y-60000000D01*
X54250000Y-60000000D02*
X54250000Y-61000000D01*
X50200000Y-21900000D02*
X50200000Y-22400000D01*
X50200000Y-22400000D02*
X51800000Y-22400000D01*
X50500000Y-21600000D02*
X50200000Y-21900000D01*
X51800000Y-21600000D02*
X50500000Y-21600000D01*
X51800000Y-22400000D02*
X51800000Y-21600000D01*
X8040000Y-31630000D02*
X10840000Y-31630000D01*
X8040000Y-33430000D02*
X8040000Y-31630000D01*
X8690000Y-32530000D02*
X9090000Y-32530000D01*
X9090000Y-32530000D02*
X9090000Y-31980000D01*
X9090000Y-32530000D02*
X9090000Y-33080000D01*
X9090000Y-32530000D02*
X9690000Y-32130000D01*
X9690000Y-32130000D02*
X9690000Y-32930000D01*
X9690000Y-32530000D02*
X10190000Y-32530000D01*
X9690000Y-32930000D02*
X9090000Y-32530000D01*
X10840000Y-31630000D02*
X10840000Y-33430000D01*
X10840000Y-33430000D02*
X8040000Y-33430000D01*
X12998986Y-42139099D02*
X14048986Y-42139099D01*
X12998986Y-42679099D02*
X12998986Y-42139099D01*
X14048986Y-42139099D02*
X14048986Y-42679099D01*
X14048986Y-42679099D02*
X12998986Y-42679099D01*
X10275000Y-42225000D02*
X9275000Y-42225000D01*
X10275000Y-41725000D02*
X10275000Y-42225000D01*
X9275000Y-42225000D02*
X9275000Y-41725000D01*
X9275000Y-41725000D02*
X10275000Y-41725000D01*
X8700000Y-46480000D02*
X9750000Y-46480000D01*
X8700000Y-47020000D02*
X8700000Y-46480000D01*
X9750000Y-46480000D02*
X9750000Y-47020000D01*
X9750000Y-47020000D02*
X8700000Y-47020000D01*
X18200000Y-21900000D02*
X18200000Y-22400000D01*
X18200000Y-22400000D02*
X19800000Y-22400000D01*
X18500000Y-21600000D02*
X18200000Y-21900000D01*
X19800000Y-21600000D02*
X18500000Y-21600000D01*
X19800000Y-22400000D02*
X19800000Y-21600000D01*
X54667500Y-40125000D02*
X54992500Y-39800000D01*
X54667500Y-42700000D02*
X54667500Y-40125000D01*
X54992500Y-39800000D02*
X55967500Y-39800000D01*
X55967500Y-39800000D02*
X55967500Y-42700000D01*
X55967500Y-42700000D02*
X54667500Y-42700000D01*
X6150000Y-35030000D02*
X-1150000Y-35030000D01*
X6150000Y-35030000D02*
X6150000Y-43970000D01*
X-1150000Y-35030000D02*
X-1150000Y-43970000D01*
X6150000Y-43970000D02*
X-1150000Y-43970000D01*
X10240000Y-29305000D02*
X10240000Y-28305000D01*
X10740000Y-29305000D02*
X10240000Y-29305000D01*
X10240000Y-28305000D02*
X10740000Y-28305000D01*
X10740000Y-28305000D02*
X10740000Y-29305000D01*
X52845000Y-42740000D02*
X51795000Y-42740000D01*
X52845000Y-42200000D02*
X52845000Y-42740000D01*
X51795000Y-42740000D02*
X51795000Y-42200000D01*
X51795000Y-42200000D02*
X52845000Y-42200000D01*
X24388000Y-59386000D02*
X24388000Y-58386000D01*
X24888000Y-59386000D02*
X24388000Y-59386000D01*
X24388000Y-58386000D02*
X24888000Y-58386000D01*
X24888000Y-58386000D02*
X24888000Y-59386000D01*
X12120000Y-62615000D02*
X12445000Y-62290000D01*
X12120000Y-65190000D02*
X12120000Y-62615000D01*
X12445000Y-62290000D02*
X13420000Y-62290000D01*
X13420000Y-62290000D02*
X13420000Y-65190000D01*
X13420000Y-65190000D02*
X12120000Y-65190000D01*
X63235000Y-29630000D02*
X64285000Y-29630000D01*
X63235000Y-30170000D02*
X63235000Y-29630000D01*
X64285000Y-29630000D02*
X64285000Y-30170000D01*
X64285000Y-30170000D02*
X63235000Y-30170000D01*
X30357000Y-46241000D02*
X30357000Y-45241000D01*
X30857000Y-46241000D02*
X30357000Y-46241000D01*
X30357000Y-45241000D02*
X30857000Y-45241000D01*
X30857000Y-45241000D02*
X30857000Y-46241000D01*
X47630000Y-66975000D02*
X47305000Y-67300000D01*
X47630000Y-64400000D02*
X47630000Y-66975000D01*
X47305000Y-67300000D02*
X46330000Y-67300000D01*
X46330000Y-67300000D02*
X46330000Y-64400000D01*
X46330000Y-64400000D02*
X47630000Y-64400000D01*
X29272000Y-63684000D02*
X31372000Y-63684000D01*
X31372000Y-63684000D02*
X31372000Y-60184000D01*
X28572000Y-62984000D02*
X29272000Y-63684000D01*
X28572000Y-60184000D02*
X28572000Y-62984000D01*
X31372000Y-60184000D02*
X28572000Y-60184000D01*
X11137500Y-45549999D02*
X10737500Y-45949999D01*
X11137500Y-43049999D02*
X11137500Y-45549999D01*
X10737500Y-45949999D02*
X9537500Y-45949999D01*
X9537500Y-45949999D02*
X9537500Y-43049999D01*
X9537500Y-43049999D02*
X11137500Y-43049999D01*
X18815000Y-31420000D02*
X18815000Y-29420000D01*
X20065000Y-31420000D02*
X18815000Y-31420000D01*
X18815000Y-29420000D02*
X20065000Y-29420000D01*
X20065000Y-29420000D02*
X20065000Y-31420000D01*
X23425000Y-53575001D02*
X23425000Y-51475001D01*
X23425000Y-51475001D02*
X19925000Y-51475001D01*
X22725000Y-54275001D02*
X23425000Y-53575001D01*
X19925000Y-54275001D02*
X22725000Y-54275001D01*
X19925000Y-51475001D02*
X19925000Y-54275001D01*
X7880000Y-28870000D02*
X7880000Y-29870000D01*
X7380000Y-28870000D02*
X7880000Y-28870000D01*
X7880000Y-29870000D02*
X7380000Y-29870000D01*
X7380000Y-29870000D02*
X7380000Y-28870000D01*
X13970000Y-23880000D02*
X12970000Y-23880000D01*
X13970000Y-23380000D02*
X13970000Y-23880000D01*
X12970000Y-23880000D02*
X12970000Y-23380000D01*
X12970000Y-23380000D02*
X13970000Y-23380000D01*
M02*
