%TF.GenerationSoftware,KiCad,Pcbnew,7.0.1*%
%TF.CreationDate,2023-05-20T22:45:57-07:00*%
%TF.ProjectId,ai-camera-rev3,61692d63-616d-4657-9261-2d726576332e,rev3*%
%TF.SameCoordinates,PX5a995c0PY2aea540*%
%TF.FileFunction,Legend,Bot*%
%TF.FilePolarity,Positive*%
%FSLAX46Y46*%
G04 Gerber Fmt 4.6, Leading zero omitted, Abs format (unit mm)*
G04 Created by KiCad (PCBNEW 7.0.1) date 2023-05-20 22:45:57*
%MOMM*%
%LPD*%
G01*
G04 APERTURE LIST*
G04 Aperture macros list*
%AMRoundRect*
0 Rectangle with rounded corners*
0 $1 Rounding radius*
0 $2 $3 $4 $5 $6 $7 $8 $9 X,Y pos of 4 corners*
0 Add a 4 corners polygon primitive as box body*
4,1,4,$2,$3,$4,$5,$6,$7,$8,$9,$2,$3,0*
0 Add four circle primitives for the rounded corners*
1,1,$1+$1,$2,$3*
1,1,$1+$1,$4,$5*
1,1,$1+$1,$6,$7*
1,1,$1+$1,$8,$9*
0 Add four rect primitives between the rounded corners*
20,1,$1+$1,$2,$3,$4,$5,0*
20,1,$1+$1,$4,$5,$6,$7,0*
20,1,$1+$1,$6,$7,$8,$9,0*
20,1,$1+$1,$8,$9,$2,$3,0*%
%AMRotRect*
0 Rectangle, with rotation*
0 The origin of the aperture is its center*
0 $1 length*
0 $2 width*
0 $3 Rotation angle, in degrees counterclockwise*
0 Add horizontal line*
21,1,$1,$2,0,0,$3*%
G04 Aperture macros list end*
%ADD10C,0.150000*%
%ADD11C,0.120000*%
%ADD12C,3.600000*%
%ADD13C,6.400000*%
%ADD14C,4.000000*%
%ADD15C,1.700000*%
%ADD16C,0.800000*%
%ADD17RotRect,1.524000X1.524000X45.000000*%
%ADD18C,1.524000*%
%ADD19R,1.700000X1.700000*%
%ADD20O,1.700000X1.700000*%
%ADD21C,0.650000*%
%ADD22O,2.100000X1.000000*%
%ADD23O,1.600000X1.000000*%
%ADD24C,2.374900*%
%ADD25C,0.990600*%
%ADD26RoundRect,0.150000X-0.587500X-0.150000X0.587500X-0.150000X0.587500X0.150000X-0.587500X0.150000X0*%
%ADD27RoundRect,0.250000X0.412500X0.925000X-0.412500X0.925000X-0.412500X-0.925000X0.412500X-0.925000X0*%
%ADD28C,1.000000*%
%ADD29RoundRect,0.135000X0.135000X0.185000X-0.135000X0.185000X-0.135000X-0.185000X0.135000X-0.185000X0*%
%ADD30RoundRect,0.140000X0.170000X-0.140000X0.170000X0.140000X-0.170000X0.140000X-0.170000X-0.140000X0*%
%ADD31R,0.900000X1.500000*%
%ADD32R,1.500000X0.900000*%
%ADD33C,0.500000*%
%ADD34R,3.900000X3.900000*%
%ADD35RoundRect,0.135000X-0.185000X0.135000X-0.185000X-0.135000X0.185000X-0.135000X0.185000X0.135000X0*%
%ADD36RoundRect,0.140000X-0.140000X-0.170000X0.140000X-0.170000X0.140000X0.170000X-0.140000X0.170000X0*%
%ADD37RoundRect,0.150000X0.587500X0.150000X-0.587500X0.150000X-0.587500X-0.150000X0.587500X-0.150000X0*%
%ADD38RoundRect,0.140000X-0.170000X0.140000X-0.170000X-0.140000X0.170000X-0.140000X0.170000X0.140000X0*%
%ADD39RoundRect,0.140000X0.140000X0.170000X-0.140000X0.170000X-0.140000X-0.170000X0.140000X-0.170000X0*%
%ADD40RoundRect,0.150000X-0.150000X0.587500X-0.150000X-0.587500X0.150000X-0.587500X0.150000X0.587500X0*%
%ADD41RoundRect,0.135000X-0.135000X-0.185000X0.135000X-0.185000X0.135000X0.185000X-0.135000X0.185000X0*%
%ADD42R,1.000000X1.500000*%
%ADD43RoundRect,0.150000X0.512500X0.150000X-0.512500X0.150000X-0.512500X-0.150000X0.512500X-0.150000X0*%
%ADD44RoundRect,0.135000X0.185000X-0.135000X0.185000X0.135000X-0.185000X0.135000X-0.185000X-0.135000X0*%
%ADD45RoundRect,0.150000X-0.150000X0.512500X-0.150000X-0.512500X0.150000X-0.512500X0.150000X0.512500X0*%
%ADD46RoundRect,0.250000X0.450000X-0.325000X0.450000X0.325000X-0.450000X0.325000X-0.450000X-0.325000X0*%
G04 APERTURE END LIST*
D10*
X45827142Y-14232619D02*
X45827142Y-13232619D01*
X45827142Y-13232619D02*
X45484285Y-14232619D01*
X45484285Y-14232619D02*
X45484285Y-13232619D01*
X45084286Y-13232619D02*
X44970000Y-13232619D01*
X44970000Y-13232619D02*
X44912857Y-13280238D01*
X44912857Y-13280238D02*
X44855714Y-13375476D01*
X44855714Y-13375476D02*
X44827143Y-13565952D01*
X44827143Y-13565952D02*
X44827143Y-13899285D01*
X44827143Y-13899285D02*
X44855714Y-14089761D01*
X44855714Y-14089761D02*
X44912857Y-14185000D01*
X44912857Y-14185000D02*
X44970000Y-14232619D01*
X44970000Y-14232619D02*
X45084286Y-14232619D01*
X45084286Y-14232619D02*
X45141429Y-14185000D01*
X45141429Y-14185000D02*
X45198571Y-14089761D01*
X45198571Y-14089761D02*
X45227143Y-13899285D01*
X45227143Y-13899285D02*
X45227143Y-13565952D01*
X45227143Y-13565952D02*
X45198571Y-13375476D01*
X45198571Y-13375476D02*
X45141429Y-13280238D01*
X45141429Y-13280238D02*
X45084286Y-13232619D01*
X44655715Y-13232619D02*
X44312858Y-13232619D01*
X44484286Y-14232619D02*
X44484286Y-13232619D01*
X44112857Y-13708809D02*
X43912857Y-13708809D01*
X43827143Y-14232619D02*
X44112857Y-14232619D01*
X44112857Y-14232619D02*
X44112857Y-13232619D01*
X44112857Y-13232619D02*
X43827143Y-13232619D01*
X43598572Y-14185000D02*
X43512858Y-14232619D01*
X43512858Y-14232619D02*
X43370000Y-14232619D01*
X43370000Y-14232619D02*
X43312858Y-14185000D01*
X43312858Y-14185000D02*
X43284286Y-14137380D01*
X43284286Y-14137380D02*
X43255715Y-14042142D01*
X43255715Y-14042142D02*
X43255715Y-13946904D01*
X43255715Y-13946904D02*
X43284286Y-13851666D01*
X43284286Y-13851666D02*
X43312858Y-13804047D01*
X43312858Y-13804047D02*
X43370000Y-13756428D01*
X43370000Y-13756428D02*
X43484286Y-13708809D01*
X43484286Y-13708809D02*
X43541429Y-13661190D01*
X43541429Y-13661190D02*
X43570000Y-13613571D01*
X43570000Y-13613571D02*
X43598572Y-13518333D01*
X43598572Y-13518333D02*
X43598572Y-13423095D01*
X43598572Y-13423095D02*
X43570000Y-13327857D01*
X43570000Y-13327857D02*
X43541429Y-13280238D01*
X43541429Y-13280238D02*
X43484286Y-13232619D01*
X43484286Y-13232619D02*
X43341429Y-13232619D01*
X43341429Y-13232619D02*
X43255715Y-13280238D01*
X42998571Y-14137380D02*
X42970000Y-14185000D01*
X42970000Y-14185000D02*
X42998571Y-14232619D01*
X42998571Y-14232619D02*
X43027143Y-14185000D01*
X43027143Y-14185000D02*
X42998571Y-14137380D01*
X42998571Y-14137380D02*
X42998571Y-14232619D01*
X42998571Y-13613571D02*
X42970000Y-13661190D01*
X42970000Y-13661190D02*
X42998571Y-13708809D01*
X42998571Y-13708809D02*
X43027143Y-13661190D01*
X43027143Y-13661190D02*
X42998571Y-13613571D01*
X42998571Y-13613571D02*
X42998571Y-13708809D01*
X45627142Y-15328809D02*
X45541428Y-15376428D01*
X45541428Y-15376428D02*
X45512857Y-15424047D01*
X45512857Y-15424047D02*
X45484285Y-15519285D01*
X45484285Y-15519285D02*
X45484285Y-15662142D01*
X45484285Y-15662142D02*
X45512857Y-15757380D01*
X45512857Y-15757380D02*
X45541428Y-15805000D01*
X45541428Y-15805000D02*
X45598571Y-15852619D01*
X45598571Y-15852619D02*
X45827142Y-15852619D01*
X45827142Y-15852619D02*
X45827142Y-14852619D01*
X45827142Y-14852619D02*
X45627142Y-14852619D01*
X45627142Y-14852619D02*
X45570000Y-14900238D01*
X45570000Y-14900238D02*
X45541428Y-14947857D01*
X45541428Y-14947857D02*
X45512857Y-15043095D01*
X45512857Y-15043095D02*
X45512857Y-15138333D01*
X45512857Y-15138333D02*
X45541428Y-15233571D01*
X45541428Y-15233571D02*
X45570000Y-15281190D01*
X45570000Y-15281190D02*
X45627142Y-15328809D01*
X45627142Y-15328809D02*
X45827142Y-15328809D01*
X44970000Y-15852619D02*
X44970000Y-15328809D01*
X44970000Y-15328809D02*
X44998571Y-15233571D01*
X44998571Y-15233571D02*
X45055714Y-15185952D01*
X45055714Y-15185952D02*
X45170000Y-15185952D01*
X45170000Y-15185952D02*
X45227142Y-15233571D01*
X44970000Y-15805000D02*
X45027142Y-15852619D01*
X45027142Y-15852619D02*
X45170000Y-15852619D01*
X45170000Y-15852619D02*
X45227142Y-15805000D01*
X45227142Y-15805000D02*
X45255714Y-15709761D01*
X45255714Y-15709761D02*
X45255714Y-15614523D01*
X45255714Y-15614523D02*
X45227142Y-15519285D01*
X45227142Y-15519285D02*
X45170000Y-15471666D01*
X45170000Y-15471666D02*
X45027142Y-15471666D01*
X45027142Y-15471666D02*
X44970000Y-15424047D01*
X44770000Y-15185952D02*
X44541428Y-15185952D01*
X44684285Y-14852619D02*
X44684285Y-15709761D01*
X44684285Y-15709761D02*
X44655714Y-15805000D01*
X44655714Y-15805000D02*
X44598571Y-15852619D01*
X44598571Y-15852619D02*
X44541428Y-15852619D01*
X44427143Y-15185952D02*
X44198571Y-15185952D01*
X44341428Y-14852619D02*
X44341428Y-15709761D01*
X44341428Y-15709761D02*
X44312857Y-15805000D01*
X44312857Y-15805000D02*
X44255714Y-15852619D01*
X44255714Y-15852619D02*
X44198571Y-15852619D01*
X43770000Y-15805000D02*
X43827143Y-15852619D01*
X43827143Y-15852619D02*
X43941429Y-15852619D01*
X43941429Y-15852619D02*
X43998571Y-15805000D01*
X43998571Y-15805000D02*
X44027143Y-15709761D01*
X44027143Y-15709761D02*
X44027143Y-15328809D01*
X44027143Y-15328809D02*
X43998571Y-15233571D01*
X43998571Y-15233571D02*
X43941429Y-15185952D01*
X43941429Y-15185952D02*
X43827143Y-15185952D01*
X43827143Y-15185952D02*
X43770000Y-15233571D01*
X43770000Y-15233571D02*
X43741429Y-15328809D01*
X43741429Y-15328809D02*
X43741429Y-15424047D01*
X43741429Y-15424047D02*
X44027143Y-15519285D01*
X43484285Y-15852619D02*
X43484285Y-15185952D01*
X43484285Y-15376428D02*
X43455714Y-15281190D01*
X43455714Y-15281190D02*
X43427143Y-15233571D01*
X43427143Y-15233571D02*
X43370000Y-15185952D01*
X43370000Y-15185952D02*
X43312857Y-15185952D01*
X43169999Y-15185952D02*
X43027142Y-15852619D01*
X42884285Y-15185952D02*
X43027142Y-15852619D01*
X43027142Y-15852619D02*
X43084285Y-16090714D01*
X43084285Y-16090714D02*
X43112856Y-16138333D01*
X43112856Y-16138333D02*
X43169999Y-16185952D01*
X41941428Y-15805000D02*
X41998570Y-15852619D01*
X41998570Y-15852619D02*
X42112856Y-15852619D01*
X42112856Y-15852619D02*
X42169999Y-15805000D01*
X42169999Y-15805000D02*
X42198570Y-15757380D01*
X42198570Y-15757380D02*
X42227142Y-15662142D01*
X42227142Y-15662142D02*
X42227142Y-15376428D01*
X42227142Y-15376428D02*
X42198570Y-15281190D01*
X42198570Y-15281190D02*
X42169999Y-15233571D01*
X42169999Y-15233571D02*
X42112856Y-15185952D01*
X42112856Y-15185952D02*
X41998570Y-15185952D01*
X41998570Y-15185952D02*
X41941428Y-15233571D01*
X41598570Y-15852619D02*
X41655713Y-15805000D01*
X41655713Y-15805000D02*
X41684284Y-15757380D01*
X41684284Y-15757380D02*
X41712856Y-15662142D01*
X41712856Y-15662142D02*
X41712856Y-15376428D01*
X41712856Y-15376428D02*
X41684284Y-15281190D01*
X41684284Y-15281190D02*
X41655713Y-15233571D01*
X41655713Y-15233571D02*
X41598570Y-15185952D01*
X41598570Y-15185952D02*
X41512856Y-15185952D01*
X41512856Y-15185952D02*
X41455713Y-15233571D01*
X41455713Y-15233571D02*
X41427142Y-15281190D01*
X41427142Y-15281190D02*
X41398570Y-15376428D01*
X41398570Y-15376428D02*
X41398570Y-15662142D01*
X41398570Y-15662142D02*
X41427142Y-15757380D01*
X41427142Y-15757380D02*
X41455713Y-15805000D01*
X41455713Y-15805000D02*
X41512856Y-15852619D01*
X41512856Y-15852619D02*
X41598570Y-15852619D01*
X41141427Y-15185952D02*
X41141427Y-15852619D01*
X41141427Y-15281190D02*
X41112856Y-15233571D01*
X41112856Y-15233571D02*
X41055713Y-15185952D01*
X41055713Y-15185952D02*
X40969999Y-15185952D01*
X40969999Y-15185952D02*
X40912856Y-15233571D01*
X40912856Y-15233571D02*
X40884285Y-15328809D01*
X40884285Y-15328809D02*
X40884285Y-15852619D01*
X40598570Y-15185952D02*
X40598570Y-15852619D01*
X40598570Y-15281190D02*
X40569999Y-15233571D01*
X40569999Y-15233571D02*
X40512856Y-15185952D01*
X40512856Y-15185952D02*
X40427142Y-15185952D01*
X40427142Y-15185952D02*
X40369999Y-15233571D01*
X40369999Y-15233571D02*
X40341428Y-15328809D01*
X40341428Y-15328809D02*
X40341428Y-15852619D01*
X39827142Y-15805000D02*
X39884285Y-15852619D01*
X39884285Y-15852619D02*
X39998571Y-15852619D01*
X39998571Y-15852619D02*
X40055713Y-15805000D01*
X40055713Y-15805000D02*
X40084285Y-15709761D01*
X40084285Y-15709761D02*
X40084285Y-15328809D01*
X40084285Y-15328809D02*
X40055713Y-15233571D01*
X40055713Y-15233571D02*
X39998571Y-15185952D01*
X39998571Y-15185952D02*
X39884285Y-15185952D01*
X39884285Y-15185952D02*
X39827142Y-15233571D01*
X39827142Y-15233571D02*
X39798571Y-15328809D01*
X39798571Y-15328809D02*
X39798571Y-15424047D01*
X39798571Y-15424047D02*
X40084285Y-15519285D01*
X39284285Y-15805000D02*
X39341427Y-15852619D01*
X39341427Y-15852619D02*
X39455713Y-15852619D01*
X39455713Y-15852619D02*
X39512856Y-15805000D01*
X39512856Y-15805000D02*
X39541427Y-15757380D01*
X39541427Y-15757380D02*
X39569999Y-15662142D01*
X39569999Y-15662142D02*
X39569999Y-15376428D01*
X39569999Y-15376428D02*
X39541427Y-15281190D01*
X39541427Y-15281190D02*
X39512856Y-15233571D01*
X39512856Y-15233571D02*
X39455713Y-15185952D01*
X39455713Y-15185952D02*
X39341427Y-15185952D01*
X39341427Y-15185952D02*
X39284285Y-15233571D01*
X39112856Y-15185952D02*
X38884284Y-15185952D01*
X39027141Y-14852619D02*
X39027141Y-15709761D01*
X39027141Y-15709761D02*
X38998570Y-15805000D01*
X38998570Y-15805000D02*
X38941427Y-15852619D01*
X38941427Y-15852619D02*
X38884284Y-15852619D01*
X38598570Y-15852619D02*
X38655713Y-15805000D01*
X38655713Y-15805000D02*
X38684284Y-15757380D01*
X38684284Y-15757380D02*
X38712856Y-15662142D01*
X38712856Y-15662142D02*
X38712856Y-15376428D01*
X38712856Y-15376428D02*
X38684284Y-15281190D01*
X38684284Y-15281190D02*
X38655713Y-15233571D01*
X38655713Y-15233571D02*
X38598570Y-15185952D01*
X38598570Y-15185952D02*
X38512856Y-15185952D01*
X38512856Y-15185952D02*
X38455713Y-15233571D01*
X38455713Y-15233571D02*
X38427142Y-15281190D01*
X38427142Y-15281190D02*
X38398570Y-15376428D01*
X38398570Y-15376428D02*
X38398570Y-15662142D01*
X38398570Y-15662142D02*
X38427142Y-15757380D01*
X38427142Y-15757380D02*
X38455713Y-15805000D01*
X38455713Y-15805000D02*
X38512856Y-15852619D01*
X38512856Y-15852619D02*
X38598570Y-15852619D01*
X38141427Y-15852619D02*
X38141427Y-15185952D01*
X38141427Y-15376428D02*
X38112856Y-15281190D01*
X38112856Y-15281190D02*
X38084285Y-15233571D01*
X38084285Y-15233571D02*
X38027142Y-15185952D01*
X38027142Y-15185952D02*
X37969999Y-15185952D01*
X37769998Y-15757380D02*
X37741427Y-15805000D01*
X37741427Y-15805000D02*
X37769998Y-15852619D01*
X37769998Y-15852619D02*
X37798570Y-15805000D01*
X37798570Y-15805000D02*
X37769998Y-15757380D01*
X37769998Y-15757380D02*
X37769998Y-15852619D01*
X37769998Y-15233571D02*
X37741427Y-15281190D01*
X37741427Y-15281190D02*
X37769998Y-15328809D01*
X37769998Y-15328809D02*
X37798570Y-15281190D01*
X37798570Y-15281190D02*
X37769998Y-15233571D01*
X37769998Y-15233571D02*
X37769998Y-15328809D01*
X36855713Y-14852619D02*
X36855713Y-15566904D01*
X36855713Y-15566904D02*
X36884284Y-15709761D01*
X36884284Y-15709761D02*
X36941427Y-15805000D01*
X36941427Y-15805000D02*
X37027141Y-15852619D01*
X37027141Y-15852619D02*
X37084284Y-15852619D01*
X36598570Y-15805000D02*
X36512856Y-15852619D01*
X36512856Y-15852619D02*
X36369998Y-15852619D01*
X36369998Y-15852619D02*
X36312856Y-15805000D01*
X36312856Y-15805000D02*
X36284284Y-15757380D01*
X36284284Y-15757380D02*
X36255713Y-15662142D01*
X36255713Y-15662142D02*
X36255713Y-15566904D01*
X36255713Y-15566904D02*
X36284284Y-15471666D01*
X36284284Y-15471666D02*
X36312856Y-15424047D01*
X36312856Y-15424047D02*
X36369998Y-15376428D01*
X36369998Y-15376428D02*
X36484284Y-15328809D01*
X36484284Y-15328809D02*
X36541427Y-15281190D01*
X36541427Y-15281190D02*
X36569998Y-15233571D01*
X36569998Y-15233571D02*
X36598570Y-15138333D01*
X36598570Y-15138333D02*
X36598570Y-15043095D01*
X36598570Y-15043095D02*
X36569998Y-14947857D01*
X36569998Y-14947857D02*
X36541427Y-14900238D01*
X36541427Y-14900238D02*
X36484284Y-14852619D01*
X36484284Y-14852619D02*
X36341427Y-14852619D01*
X36341427Y-14852619D02*
X36255713Y-14900238D01*
X36084284Y-14852619D02*
X35741427Y-14852619D01*
X35912855Y-15852619D02*
X35912855Y-14852619D01*
X35541426Y-15471666D02*
X35084284Y-15471666D01*
X34798569Y-15852619D02*
X34798569Y-14852619D01*
X34798569Y-14852619D02*
X34569998Y-14852619D01*
X34569998Y-14852619D02*
X34512855Y-14900238D01*
X34512855Y-14900238D02*
X34484284Y-14947857D01*
X34484284Y-14947857D02*
X34455712Y-15043095D01*
X34455712Y-15043095D02*
X34455712Y-15185952D01*
X34455712Y-15185952D02*
X34484284Y-15281190D01*
X34484284Y-15281190D02*
X34512855Y-15328809D01*
X34512855Y-15328809D02*
X34569998Y-15376428D01*
X34569998Y-15376428D02*
X34798569Y-15376428D01*
X34198569Y-15852619D02*
X34198569Y-14852619D01*
X34198569Y-15328809D02*
X33855712Y-15328809D01*
X33855712Y-15852619D02*
X33855712Y-14852619D01*
X33141427Y-14947857D02*
X33112855Y-14900238D01*
X33112855Y-14900238D02*
X33055713Y-14852619D01*
X33055713Y-14852619D02*
X32912855Y-14852619D01*
X32912855Y-14852619D02*
X32855713Y-14900238D01*
X32855713Y-14900238D02*
X32827141Y-14947857D01*
X32827141Y-14947857D02*
X32798570Y-15043095D01*
X32798570Y-15043095D02*
X32798570Y-15138333D01*
X32798570Y-15138333D02*
X32827141Y-15281190D01*
X32827141Y-15281190D02*
X33169998Y-15852619D01*
X33169998Y-15852619D02*
X32798570Y-15852619D01*
X32541426Y-15852619D02*
X32541426Y-15185952D01*
X32541426Y-15281190D02*
X32512855Y-15233571D01*
X32512855Y-15233571D02*
X32455712Y-15185952D01*
X32455712Y-15185952D02*
X32369998Y-15185952D01*
X32369998Y-15185952D02*
X32312855Y-15233571D01*
X32312855Y-15233571D02*
X32284284Y-15328809D01*
X32284284Y-15328809D02*
X32284284Y-15852619D01*
X32284284Y-15328809D02*
X32255712Y-15233571D01*
X32255712Y-15233571D02*
X32198569Y-15185952D01*
X32198569Y-15185952D02*
X32112855Y-15185952D01*
X32112855Y-15185952D02*
X32055712Y-15233571D01*
X32055712Y-15233571D02*
X32027141Y-15328809D01*
X32027141Y-15328809D02*
X32027141Y-15852619D01*
X31741426Y-15852619D02*
X31741426Y-15185952D01*
X31741426Y-15281190D02*
X31712855Y-15233571D01*
X31712855Y-15233571D02*
X31655712Y-15185952D01*
X31655712Y-15185952D02*
X31569998Y-15185952D01*
X31569998Y-15185952D02*
X31512855Y-15233571D01*
X31512855Y-15233571D02*
X31484284Y-15328809D01*
X31484284Y-15328809D02*
X31484284Y-15852619D01*
X31484284Y-15328809D02*
X31455712Y-15233571D01*
X31455712Y-15233571D02*
X31398569Y-15185952D01*
X31398569Y-15185952D02*
X31312855Y-15185952D01*
X31312855Y-15185952D02*
X31255712Y-15233571D01*
X31255712Y-15233571D02*
X31227141Y-15328809D01*
X31227141Y-15328809D02*
X31227141Y-15852619D01*
X30484283Y-15185952D02*
X30484283Y-16185952D01*
X30484283Y-15233571D02*
X30427141Y-15185952D01*
X30427141Y-15185952D02*
X30312855Y-15185952D01*
X30312855Y-15185952D02*
X30255712Y-15233571D01*
X30255712Y-15233571D02*
X30227141Y-15281190D01*
X30227141Y-15281190D02*
X30198569Y-15376428D01*
X30198569Y-15376428D02*
X30198569Y-15662142D01*
X30198569Y-15662142D02*
X30227141Y-15757380D01*
X30227141Y-15757380D02*
X30255712Y-15805000D01*
X30255712Y-15805000D02*
X30312855Y-15852619D01*
X30312855Y-15852619D02*
X30427141Y-15852619D01*
X30427141Y-15852619D02*
X30484283Y-15805000D01*
X29941426Y-15852619D02*
X29941426Y-15185952D01*
X29941426Y-14852619D02*
X29969998Y-14900238D01*
X29969998Y-14900238D02*
X29941426Y-14947857D01*
X29941426Y-14947857D02*
X29912855Y-14900238D01*
X29912855Y-14900238D02*
X29941426Y-14852619D01*
X29941426Y-14852619D02*
X29941426Y-14947857D01*
X29741427Y-15185952D02*
X29512855Y-15185952D01*
X29655712Y-14852619D02*
X29655712Y-15709761D01*
X29655712Y-15709761D02*
X29627141Y-15805000D01*
X29627141Y-15805000D02*
X29569998Y-15852619D01*
X29569998Y-15852619D02*
X29512855Y-15852619D01*
X29055713Y-15805000D02*
X29112855Y-15852619D01*
X29112855Y-15852619D02*
X29227141Y-15852619D01*
X29227141Y-15852619D02*
X29284284Y-15805000D01*
X29284284Y-15805000D02*
X29312855Y-15757380D01*
X29312855Y-15757380D02*
X29341427Y-15662142D01*
X29341427Y-15662142D02*
X29341427Y-15376428D01*
X29341427Y-15376428D02*
X29312855Y-15281190D01*
X29312855Y-15281190D02*
X29284284Y-15233571D01*
X29284284Y-15233571D02*
X29227141Y-15185952D01*
X29227141Y-15185952D02*
X29112855Y-15185952D01*
X29112855Y-15185952D02*
X29055713Y-15233571D01*
X28798569Y-15852619D02*
X28798569Y-14852619D01*
X28541427Y-15852619D02*
X28541427Y-15328809D01*
X28541427Y-15328809D02*
X28569998Y-15233571D01*
X28569998Y-15233571D02*
X28627141Y-15185952D01*
X28627141Y-15185952D02*
X28712855Y-15185952D01*
X28712855Y-15185952D02*
X28769998Y-15233571D01*
X28769998Y-15233571D02*
X28798569Y-15281190D01*
X45827142Y-17472619D02*
X45827142Y-16472619D01*
X45198571Y-17472619D02*
X45398571Y-16996428D01*
X45541428Y-17472619D02*
X45541428Y-16472619D01*
X45541428Y-16472619D02*
X45312857Y-16472619D01*
X45312857Y-16472619D02*
X45255714Y-16520238D01*
X45255714Y-16520238D02*
X45227143Y-16567857D01*
X45227143Y-16567857D02*
X45198571Y-16663095D01*
X45198571Y-16663095D02*
X45198571Y-16805952D01*
X45198571Y-16805952D02*
X45227143Y-16901190D01*
X45227143Y-16901190D02*
X45255714Y-16948809D01*
X45255714Y-16948809D02*
X45312857Y-16996428D01*
X45312857Y-16996428D02*
X45541428Y-16996428D01*
X44598571Y-17377380D02*
X44627143Y-17425000D01*
X44627143Y-17425000D02*
X44712857Y-17472619D01*
X44712857Y-17472619D02*
X44770000Y-17472619D01*
X44770000Y-17472619D02*
X44855714Y-17425000D01*
X44855714Y-17425000D02*
X44912857Y-17329761D01*
X44912857Y-17329761D02*
X44941428Y-17234523D01*
X44941428Y-17234523D02*
X44970000Y-17044047D01*
X44970000Y-17044047D02*
X44970000Y-16901190D01*
X44970000Y-16901190D02*
X44941428Y-16710714D01*
X44941428Y-16710714D02*
X44912857Y-16615476D01*
X44912857Y-16615476D02*
X44855714Y-16520238D01*
X44855714Y-16520238D02*
X44770000Y-16472619D01*
X44770000Y-16472619D02*
X44712857Y-16472619D01*
X44712857Y-16472619D02*
X44627143Y-16520238D01*
X44627143Y-16520238D02*
X44598571Y-16567857D01*
X44341428Y-16472619D02*
X44341428Y-17282142D01*
X44341428Y-17282142D02*
X44312857Y-17377380D01*
X44312857Y-17377380D02*
X44284286Y-17425000D01*
X44284286Y-17425000D02*
X44227143Y-17472619D01*
X44227143Y-17472619D02*
X44112857Y-17472619D01*
X44112857Y-17472619D02*
X44055714Y-17425000D01*
X44055714Y-17425000D02*
X44027143Y-17377380D01*
X44027143Y-17377380D02*
X43998571Y-17282142D01*
X43998571Y-17282142D02*
X43998571Y-16472619D01*
X43798572Y-16472619D02*
X43455715Y-16472619D01*
X43627143Y-17472619D02*
X43627143Y-16472619D01*
X42541429Y-17425000D02*
X42598571Y-17472619D01*
X42598571Y-17472619D02*
X42712857Y-17472619D01*
X42712857Y-17472619D02*
X42770000Y-17425000D01*
X42770000Y-17425000D02*
X42798571Y-17377380D01*
X42798571Y-17377380D02*
X42827143Y-17282142D01*
X42827143Y-17282142D02*
X42827143Y-16996428D01*
X42827143Y-16996428D02*
X42798571Y-16901190D01*
X42798571Y-16901190D02*
X42770000Y-16853571D01*
X42770000Y-16853571D02*
X42712857Y-16805952D01*
X42712857Y-16805952D02*
X42598571Y-16805952D01*
X42598571Y-16805952D02*
X42541429Y-16853571D01*
X42198571Y-17472619D02*
X42255714Y-17425000D01*
X42255714Y-17425000D02*
X42284285Y-17377380D01*
X42284285Y-17377380D02*
X42312857Y-17282142D01*
X42312857Y-17282142D02*
X42312857Y-16996428D01*
X42312857Y-16996428D02*
X42284285Y-16901190D01*
X42284285Y-16901190D02*
X42255714Y-16853571D01*
X42255714Y-16853571D02*
X42198571Y-16805952D01*
X42198571Y-16805952D02*
X42112857Y-16805952D01*
X42112857Y-16805952D02*
X42055714Y-16853571D01*
X42055714Y-16853571D02*
X42027143Y-16901190D01*
X42027143Y-16901190D02*
X41998571Y-16996428D01*
X41998571Y-16996428D02*
X41998571Y-17282142D01*
X41998571Y-17282142D02*
X42027143Y-17377380D01*
X42027143Y-17377380D02*
X42055714Y-17425000D01*
X42055714Y-17425000D02*
X42112857Y-17472619D01*
X42112857Y-17472619D02*
X42198571Y-17472619D01*
X41741428Y-16805952D02*
X41741428Y-17472619D01*
X41741428Y-16901190D02*
X41712857Y-16853571D01*
X41712857Y-16853571D02*
X41655714Y-16805952D01*
X41655714Y-16805952D02*
X41570000Y-16805952D01*
X41570000Y-16805952D02*
X41512857Y-16853571D01*
X41512857Y-16853571D02*
X41484286Y-16948809D01*
X41484286Y-16948809D02*
X41484286Y-17472619D01*
X41198571Y-16805952D02*
X41198571Y-17472619D01*
X41198571Y-16901190D02*
X41170000Y-16853571D01*
X41170000Y-16853571D02*
X41112857Y-16805952D01*
X41112857Y-16805952D02*
X41027143Y-16805952D01*
X41027143Y-16805952D02*
X40970000Y-16853571D01*
X40970000Y-16853571D02*
X40941429Y-16948809D01*
X40941429Y-16948809D02*
X40941429Y-17472619D01*
X40427143Y-17425000D02*
X40484286Y-17472619D01*
X40484286Y-17472619D02*
X40598572Y-17472619D01*
X40598572Y-17472619D02*
X40655714Y-17425000D01*
X40655714Y-17425000D02*
X40684286Y-17329761D01*
X40684286Y-17329761D02*
X40684286Y-16948809D01*
X40684286Y-16948809D02*
X40655714Y-16853571D01*
X40655714Y-16853571D02*
X40598572Y-16805952D01*
X40598572Y-16805952D02*
X40484286Y-16805952D01*
X40484286Y-16805952D02*
X40427143Y-16853571D01*
X40427143Y-16853571D02*
X40398572Y-16948809D01*
X40398572Y-16948809D02*
X40398572Y-17044047D01*
X40398572Y-17044047D02*
X40684286Y-17139285D01*
X39884286Y-17425000D02*
X39941428Y-17472619D01*
X39941428Y-17472619D02*
X40055714Y-17472619D01*
X40055714Y-17472619D02*
X40112857Y-17425000D01*
X40112857Y-17425000D02*
X40141428Y-17377380D01*
X40141428Y-17377380D02*
X40170000Y-17282142D01*
X40170000Y-17282142D02*
X40170000Y-16996428D01*
X40170000Y-16996428D02*
X40141428Y-16901190D01*
X40141428Y-16901190D02*
X40112857Y-16853571D01*
X40112857Y-16853571D02*
X40055714Y-16805952D01*
X40055714Y-16805952D02*
X39941428Y-16805952D01*
X39941428Y-16805952D02*
X39884286Y-16853571D01*
X39712857Y-16805952D02*
X39484285Y-16805952D01*
X39627142Y-16472619D02*
X39627142Y-17329761D01*
X39627142Y-17329761D02*
X39598571Y-17425000D01*
X39598571Y-17425000D02*
X39541428Y-17472619D01*
X39541428Y-17472619D02*
X39484285Y-17472619D01*
X39198571Y-17472619D02*
X39255714Y-17425000D01*
X39255714Y-17425000D02*
X39284285Y-17377380D01*
X39284285Y-17377380D02*
X39312857Y-17282142D01*
X39312857Y-17282142D02*
X39312857Y-16996428D01*
X39312857Y-16996428D02*
X39284285Y-16901190D01*
X39284285Y-16901190D02*
X39255714Y-16853571D01*
X39255714Y-16853571D02*
X39198571Y-16805952D01*
X39198571Y-16805952D02*
X39112857Y-16805952D01*
X39112857Y-16805952D02*
X39055714Y-16853571D01*
X39055714Y-16853571D02*
X39027143Y-16901190D01*
X39027143Y-16901190D02*
X38998571Y-16996428D01*
X38998571Y-16996428D02*
X38998571Y-17282142D01*
X38998571Y-17282142D02*
X39027143Y-17377380D01*
X39027143Y-17377380D02*
X39055714Y-17425000D01*
X39055714Y-17425000D02*
X39112857Y-17472619D01*
X39112857Y-17472619D02*
X39198571Y-17472619D01*
X38741428Y-17472619D02*
X38741428Y-16805952D01*
X38741428Y-16996428D02*
X38712857Y-16901190D01*
X38712857Y-16901190D02*
X38684286Y-16853571D01*
X38684286Y-16853571D02*
X38627143Y-16805952D01*
X38627143Y-16805952D02*
X38570000Y-16805952D01*
X38369999Y-17377380D02*
X38341428Y-17425000D01*
X38341428Y-17425000D02*
X38369999Y-17472619D01*
X38369999Y-17472619D02*
X38398571Y-17425000D01*
X38398571Y-17425000D02*
X38369999Y-17377380D01*
X38369999Y-17377380D02*
X38369999Y-17472619D01*
X38369999Y-16853571D02*
X38341428Y-16901190D01*
X38341428Y-16901190D02*
X38369999Y-16948809D01*
X38369999Y-16948809D02*
X38398571Y-16901190D01*
X38398571Y-16901190D02*
X38369999Y-16853571D01*
X38369999Y-16853571D02*
X38369999Y-16948809D01*
X37627142Y-17472619D02*
X37627142Y-16472619D01*
X37627142Y-16472619D02*
X37427142Y-17186904D01*
X37427142Y-17186904D02*
X37227142Y-16472619D01*
X37227142Y-16472619D02*
X37227142Y-17472619D01*
X36855714Y-17472619D02*
X36912857Y-17425000D01*
X36912857Y-17425000D02*
X36941428Y-17377380D01*
X36941428Y-17377380D02*
X36970000Y-17282142D01*
X36970000Y-17282142D02*
X36970000Y-16996428D01*
X36970000Y-16996428D02*
X36941428Y-16901190D01*
X36941428Y-16901190D02*
X36912857Y-16853571D01*
X36912857Y-16853571D02*
X36855714Y-16805952D01*
X36855714Y-16805952D02*
X36770000Y-16805952D01*
X36770000Y-16805952D02*
X36712857Y-16853571D01*
X36712857Y-16853571D02*
X36684286Y-16901190D01*
X36684286Y-16901190D02*
X36655714Y-16996428D01*
X36655714Y-16996428D02*
X36655714Y-17282142D01*
X36655714Y-17282142D02*
X36684286Y-17377380D01*
X36684286Y-17377380D02*
X36712857Y-17425000D01*
X36712857Y-17425000D02*
X36770000Y-17472619D01*
X36770000Y-17472619D02*
X36855714Y-17472619D01*
X36312857Y-17472619D02*
X36370000Y-17425000D01*
X36370000Y-17425000D02*
X36398571Y-17329761D01*
X36398571Y-17329761D02*
X36398571Y-16472619D01*
X35855714Y-17425000D02*
X35912857Y-17472619D01*
X35912857Y-17472619D02*
X36027143Y-17472619D01*
X36027143Y-17472619D02*
X36084285Y-17425000D01*
X36084285Y-17425000D02*
X36112857Y-17329761D01*
X36112857Y-17329761D02*
X36112857Y-16948809D01*
X36112857Y-16948809D02*
X36084285Y-16853571D01*
X36084285Y-16853571D02*
X36027143Y-16805952D01*
X36027143Y-16805952D02*
X35912857Y-16805952D01*
X35912857Y-16805952D02*
X35855714Y-16853571D01*
X35855714Y-16853571D02*
X35827143Y-16948809D01*
X35827143Y-16948809D02*
X35827143Y-17044047D01*
X35827143Y-17044047D02*
X36112857Y-17139285D01*
X35627142Y-17472619D02*
X35312857Y-16805952D01*
X35627142Y-16805952D02*
X35312857Y-17472619D01*
X35084285Y-17472619D02*
X35084285Y-16472619D01*
X35084285Y-16472619D02*
X34855714Y-16472619D01*
X34855714Y-16472619D02*
X34798571Y-16520238D01*
X34798571Y-16520238D02*
X34770000Y-16567857D01*
X34770000Y-16567857D02*
X34741428Y-16663095D01*
X34741428Y-16663095D02*
X34741428Y-16805952D01*
X34741428Y-16805952D02*
X34770000Y-16901190D01*
X34770000Y-16901190D02*
X34798571Y-16948809D01*
X34798571Y-16948809D02*
X34855714Y-16996428D01*
X34855714Y-16996428D02*
X35084285Y-16996428D01*
X34484285Y-17472619D02*
X34484285Y-16805952D01*
X34484285Y-16472619D02*
X34512857Y-16520238D01*
X34512857Y-16520238D02*
X34484285Y-16567857D01*
X34484285Y-16567857D02*
X34455714Y-16520238D01*
X34455714Y-16520238D02*
X34484285Y-16472619D01*
X34484285Y-16472619D02*
X34484285Y-16567857D01*
X33941429Y-17425000D02*
X33998571Y-17472619D01*
X33998571Y-17472619D02*
X34112857Y-17472619D01*
X34112857Y-17472619D02*
X34170000Y-17425000D01*
X34170000Y-17425000D02*
X34198571Y-17377380D01*
X34198571Y-17377380D02*
X34227143Y-17282142D01*
X34227143Y-17282142D02*
X34227143Y-16996428D01*
X34227143Y-16996428D02*
X34198571Y-16901190D01*
X34198571Y-16901190D02*
X34170000Y-16853571D01*
X34170000Y-16853571D02*
X34112857Y-16805952D01*
X34112857Y-16805952D02*
X33998571Y-16805952D01*
X33998571Y-16805952D02*
X33941429Y-16853571D01*
X33598571Y-17472619D02*
X33655714Y-17425000D01*
X33655714Y-17425000D02*
X33684285Y-17377380D01*
X33684285Y-17377380D02*
X33712857Y-17282142D01*
X33712857Y-17282142D02*
X33712857Y-16996428D01*
X33712857Y-16996428D02*
X33684285Y-16901190D01*
X33684285Y-16901190D02*
X33655714Y-16853571D01*
X33655714Y-16853571D02*
X33598571Y-16805952D01*
X33598571Y-16805952D02*
X33512857Y-16805952D01*
X33512857Y-16805952D02*
X33455714Y-16853571D01*
X33455714Y-16853571D02*
X33427143Y-16901190D01*
X33427143Y-16901190D02*
X33398571Y-16996428D01*
X33398571Y-16996428D02*
X33398571Y-17282142D01*
X33398571Y-17282142D02*
X33427143Y-17377380D01*
X33427143Y-17377380D02*
X33455714Y-17425000D01*
X33455714Y-17425000D02*
X33512857Y-17472619D01*
X33512857Y-17472619D02*
X33598571Y-17472619D01*
X33141428Y-17472619D02*
X33141428Y-16472619D01*
X33141428Y-16853571D02*
X33084286Y-16805952D01*
X33084286Y-16805952D02*
X32970000Y-16805952D01*
X32970000Y-16805952D02*
X32912857Y-16853571D01*
X32912857Y-16853571D02*
X32884286Y-16901190D01*
X32884286Y-16901190D02*
X32855714Y-16996428D01*
X32855714Y-16996428D02*
X32855714Y-17282142D01*
X32855714Y-17282142D02*
X32884286Y-17377380D01*
X32884286Y-17377380D02*
X32912857Y-17425000D01*
X32912857Y-17425000D02*
X32970000Y-17472619D01*
X32970000Y-17472619D02*
X33084286Y-17472619D01*
X33084286Y-17472619D02*
X33141428Y-17425000D01*
X32512857Y-17472619D02*
X32570000Y-17425000D01*
X32570000Y-17425000D02*
X32598571Y-17329761D01*
X32598571Y-17329761D02*
X32598571Y-16472619D01*
X32027143Y-17472619D02*
X32027143Y-16948809D01*
X32027143Y-16948809D02*
X32055714Y-16853571D01*
X32055714Y-16853571D02*
X32112857Y-16805952D01*
X32112857Y-16805952D02*
X32227143Y-16805952D01*
X32227143Y-16805952D02*
X32284285Y-16853571D01*
X32027143Y-17425000D02*
X32084285Y-17472619D01*
X32084285Y-17472619D02*
X32227143Y-17472619D01*
X32227143Y-17472619D02*
X32284285Y-17425000D01*
X32284285Y-17425000D02*
X32312857Y-17329761D01*
X32312857Y-17329761D02*
X32312857Y-17234523D01*
X32312857Y-17234523D02*
X32284285Y-17139285D01*
X32284285Y-17139285D02*
X32227143Y-17091666D01*
X32227143Y-17091666D02*
X32084285Y-17091666D01*
X32084285Y-17091666D02*
X32027143Y-17044047D01*
X31484286Y-17472619D02*
X31484286Y-16472619D01*
X31484286Y-17425000D02*
X31541428Y-17472619D01*
X31541428Y-17472619D02*
X31655714Y-17472619D01*
X31655714Y-17472619D02*
X31712857Y-17425000D01*
X31712857Y-17425000D02*
X31741428Y-17377380D01*
X31741428Y-17377380D02*
X31770000Y-17282142D01*
X31770000Y-17282142D02*
X31770000Y-16996428D01*
X31770000Y-16996428D02*
X31741428Y-16901190D01*
X31741428Y-16901190D02*
X31712857Y-16853571D01*
X31712857Y-16853571D02*
X31655714Y-16805952D01*
X31655714Y-16805952D02*
X31541428Y-16805952D01*
X31541428Y-16805952D02*
X31484286Y-16853571D01*
X30970000Y-17425000D02*
X31027143Y-17472619D01*
X31027143Y-17472619D02*
X31141429Y-17472619D01*
X31141429Y-17472619D02*
X31198571Y-17425000D01*
X31198571Y-17425000D02*
X31227143Y-17329761D01*
X31227143Y-17329761D02*
X31227143Y-16948809D01*
X31227143Y-16948809D02*
X31198571Y-16853571D01*
X31198571Y-16853571D02*
X31141429Y-16805952D01*
X31141429Y-16805952D02*
X31027143Y-16805952D01*
X31027143Y-16805952D02*
X30970000Y-16853571D01*
X30970000Y-16853571D02*
X30941429Y-16948809D01*
X30941429Y-16948809D02*
X30941429Y-17044047D01*
X30941429Y-17044047D02*
X31227143Y-17139285D01*
X29912857Y-17472619D02*
X30255714Y-17472619D01*
X30084285Y-17472619D02*
X30084285Y-16472619D01*
X30084285Y-16472619D02*
X30141428Y-16615476D01*
X30141428Y-16615476D02*
X30198571Y-16710714D01*
X30198571Y-16710714D02*
X30255714Y-16758333D01*
X29655713Y-17377380D02*
X29627142Y-17425000D01*
X29627142Y-17425000D02*
X29655713Y-17472619D01*
X29655713Y-17472619D02*
X29684285Y-17425000D01*
X29684285Y-17425000D02*
X29655713Y-17377380D01*
X29655713Y-17377380D02*
X29655713Y-17472619D01*
X29398571Y-16567857D02*
X29369999Y-16520238D01*
X29369999Y-16520238D02*
X29312857Y-16472619D01*
X29312857Y-16472619D02*
X29169999Y-16472619D01*
X29169999Y-16472619D02*
X29112857Y-16520238D01*
X29112857Y-16520238D02*
X29084285Y-16567857D01*
X29084285Y-16567857D02*
X29055714Y-16663095D01*
X29055714Y-16663095D02*
X29055714Y-16758333D01*
X29055714Y-16758333D02*
X29084285Y-16901190D01*
X29084285Y-16901190D02*
X29427142Y-17472619D01*
X29427142Y-17472619D02*
X29055714Y-17472619D01*
X28512856Y-16472619D02*
X28798570Y-16472619D01*
X28798570Y-16472619D02*
X28827142Y-16948809D01*
X28827142Y-16948809D02*
X28798570Y-16901190D01*
X28798570Y-16901190D02*
X28741428Y-16853571D01*
X28741428Y-16853571D02*
X28598570Y-16853571D01*
X28598570Y-16853571D02*
X28541428Y-16901190D01*
X28541428Y-16901190D02*
X28512856Y-16948809D01*
X28512856Y-16948809D02*
X28484285Y-17044047D01*
X28484285Y-17044047D02*
X28484285Y-17282142D01*
X28484285Y-17282142D02*
X28512856Y-17377380D01*
X28512856Y-17377380D02*
X28541428Y-17425000D01*
X28541428Y-17425000D02*
X28598570Y-17472619D01*
X28598570Y-17472619D02*
X28741428Y-17472619D01*
X28741428Y-17472619D02*
X28798570Y-17425000D01*
X28798570Y-17425000D02*
X28827142Y-17377380D01*
X28227141Y-17472619D02*
X28227141Y-16805952D01*
X28227141Y-16901190D02*
X28198570Y-16853571D01*
X28198570Y-16853571D02*
X28141427Y-16805952D01*
X28141427Y-16805952D02*
X28055713Y-16805952D01*
X28055713Y-16805952D02*
X27998570Y-16853571D01*
X27998570Y-16853571D02*
X27969999Y-16948809D01*
X27969999Y-16948809D02*
X27969999Y-17472619D01*
X27969999Y-16948809D02*
X27941427Y-16853571D01*
X27941427Y-16853571D02*
X27884284Y-16805952D01*
X27884284Y-16805952D02*
X27798570Y-16805952D01*
X27798570Y-16805952D02*
X27741427Y-16853571D01*
X27741427Y-16853571D02*
X27712856Y-16948809D01*
X27712856Y-16948809D02*
X27712856Y-17472619D01*
X27427141Y-17472619D02*
X27427141Y-16805952D01*
X27427141Y-16901190D02*
X27398570Y-16853571D01*
X27398570Y-16853571D02*
X27341427Y-16805952D01*
X27341427Y-16805952D02*
X27255713Y-16805952D01*
X27255713Y-16805952D02*
X27198570Y-16853571D01*
X27198570Y-16853571D02*
X27169999Y-16948809D01*
X27169999Y-16948809D02*
X27169999Y-17472619D01*
X27169999Y-16948809D02*
X27141427Y-16853571D01*
X27141427Y-16853571D02*
X27084284Y-16805952D01*
X27084284Y-16805952D02*
X26998570Y-16805952D01*
X26998570Y-16805952D02*
X26941427Y-16853571D01*
X26941427Y-16853571D02*
X26912856Y-16948809D01*
X26912856Y-16948809D02*
X26912856Y-17472619D01*
X26169998Y-16805952D02*
X26169998Y-17805952D01*
X26169998Y-16853571D02*
X26112856Y-16805952D01*
X26112856Y-16805952D02*
X25998570Y-16805952D01*
X25998570Y-16805952D02*
X25941427Y-16853571D01*
X25941427Y-16853571D02*
X25912856Y-16901190D01*
X25912856Y-16901190D02*
X25884284Y-16996428D01*
X25884284Y-16996428D02*
X25884284Y-17282142D01*
X25884284Y-17282142D02*
X25912856Y-17377380D01*
X25912856Y-17377380D02*
X25941427Y-17425000D01*
X25941427Y-17425000D02*
X25998570Y-17472619D01*
X25998570Y-17472619D02*
X26112856Y-17472619D01*
X26112856Y-17472619D02*
X26169998Y-17425000D01*
X25627141Y-17472619D02*
X25627141Y-16805952D01*
X25627141Y-16472619D02*
X25655713Y-16520238D01*
X25655713Y-16520238D02*
X25627141Y-16567857D01*
X25627141Y-16567857D02*
X25598570Y-16520238D01*
X25598570Y-16520238D02*
X25627141Y-16472619D01*
X25627141Y-16472619D02*
X25627141Y-16567857D01*
X25427142Y-16805952D02*
X25198570Y-16805952D01*
X25341427Y-16472619D02*
X25341427Y-17329761D01*
X25341427Y-17329761D02*
X25312856Y-17425000D01*
X25312856Y-17425000D02*
X25255713Y-17472619D01*
X25255713Y-17472619D02*
X25198570Y-17472619D01*
X24741428Y-17425000D02*
X24798570Y-17472619D01*
X24798570Y-17472619D02*
X24912856Y-17472619D01*
X24912856Y-17472619D02*
X24969999Y-17425000D01*
X24969999Y-17425000D02*
X24998570Y-17377380D01*
X24998570Y-17377380D02*
X25027142Y-17282142D01*
X25027142Y-17282142D02*
X25027142Y-16996428D01*
X25027142Y-16996428D02*
X24998570Y-16901190D01*
X24998570Y-16901190D02*
X24969999Y-16853571D01*
X24969999Y-16853571D02*
X24912856Y-16805952D01*
X24912856Y-16805952D02*
X24798570Y-16805952D01*
X24798570Y-16805952D02*
X24741428Y-16853571D01*
X24484284Y-17472619D02*
X24484284Y-16472619D01*
X24227142Y-17472619D02*
X24227142Y-16948809D01*
X24227142Y-16948809D02*
X24255713Y-16853571D01*
X24255713Y-16853571D02*
X24312856Y-16805952D01*
X24312856Y-16805952D02*
X24398570Y-16805952D01*
X24398570Y-16805952D02*
X24455713Y-16853571D01*
X24455713Y-16853571D02*
X24484284Y-16901190D01*
X22787142Y-11027857D02*
X22844285Y-10980238D01*
X22844285Y-10980238D02*
X22901428Y-10885000D01*
X22901428Y-10885000D02*
X22987142Y-10742142D01*
X22987142Y-10742142D02*
X23044285Y-10694523D01*
X23044285Y-10694523D02*
X23101428Y-10694523D01*
X23072857Y-10932619D02*
X23130000Y-10885000D01*
X23130000Y-10885000D02*
X23187142Y-10789761D01*
X23187142Y-10789761D02*
X23215714Y-10599285D01*
X23215714Y-10599285D02*
X23215714Y-10265952D01*
X23215714Y-10265952D02*
X23187142Y-10075476D01*
X23187142Y-10075476D02*
X23130000Y-9980238D01*
X23130000Y-9980238D02*
X23072857Y-9932619D01*
X23072857Y-9932619D02*
X22958571Y-9932619D01*
X22958571Y-9932619D02*
X22901428Y-9980238D01*
X22901428Y-9980238D02*
X22844285Y-10075476D01*
X22844285Y-10075476D02*
X22815714Y-10265952D01*
X22815714Y-10265952D02*
X22815714Y-10599285D01*
X22815714Y-10599285D02*
X22844285Y-10789761D01*
X22844285Y-10789761D02*
X22901428Y-10885000D01*
X22901428Y-10885000D02*
X22958571Y-10932619D01*
X22958571Y-10932619D02*
X23072857Y-10932619D01*
X22272857Y-9932619D02*
X22558571Y-9932619D01*
X22558571Y-9932619D02*
X22587143Y-10408809D01*
X22587143Y-10408809D02*
X22558571Y-10361190D01*
X22558571Y-10361190D02*
X22501429Y-10313571D01*
X22501429Y-10313571D02*
X22358571Y-10313571D01*
X22358571Y-10313571D02*
X22301429Y-10361190D01*
X22301429Y-10361190D02*
X22272857Y-10408809D01*
X22272857Y-10408809D02*
X22244286Y-10504047D01*
X22244286Y-10504047D02*
X22244286Y-10742142D01*
X22244286Y-10742142D02*
X22272857Y-10837380D01*
X22272857Y-10837380D02*
X22301429Y-10885000D01*
X22301429Y-10885000D02*
X22358571Y-10932619D01*
X22358571Y-10932619D02*
X22501429Y-10932619D01*
X22501429Y-10932619D02*
X22558571Y-10885000D01*
X22558571Y-10885000D02*
X22587143Y-10837380D01*
X54393214Y-63404880D02*
X54421786Y-63452500D01*
X54421786Y-63452500D02*
X54507500Y-63500119D01*
X54507500Y-63500119D02*
X54564643Y-63500119D01*
X54564643Y-63500119D02*
X54650357Y-63452500D01*
X54650357Y-63452500D02*
X54707500Y-63357261D01*
X54707500Y-63357261D02*
X54736071Y-63262023D01*
X54736071Y-63262023D02*
X54764643Y-63071547D01*
X54764643Y-63071547D02*
X54764643Y-62928690D01*
X54764643Y-62928690D02*
X54736071Y-62738214D01*
X54736071Y-62738214D02*
X54707500Y-62642976D01*
X54707500Y-62642976D02*
X54650357Y-62547738D01*
X54650357Y-62547738D02*
X54564643Y-62500119D01*
X54564643Y-62500119D02*
X54507500Y-62500119D01*
X54507500Y-62500119D02*
X54421786Y-62547738D01*
X54421786Y-62547738D02*
X54393214Y-62595357D01*
X54193214Y-62500119D02*
X53821786Y-62500119D01*
X53821786Y-62500119D02*
X54021786Y-62881071D01*
X54021786Y-62881071D02*
X53936071Y-62881071D01*
X53936071Y-62881071D02*
X53878929Y-62928690D01*
X53878929Y-62928690D02*
X53850357Y-62976309D01*
X53850357Y-62976309D02*
X53821786Y-63071547D01*
X53821786Y-63071547D02*
X53821786Y-63309642D01*
X53821786Y-63309642D02*
X53850357Y-63404880D01*
X53850357Y-63404880D02*
X53878929Y-63452500D01*
X53878929Y-63452500D02*
X53936071Y-63500119D01*
X53936071Y-63500119D02*
X54107500Y-63500119D01*
X54107500Y-63500119D02*
X54164643Y-63452500D01*
X54164643Y-63452500D02*
X54193214Y-63404880D01*
X53536071Y-63500119D02*
X53421785Y-63500119D01*
X53421785Y-63500119D02*
X53364642Y-63452500D01*
X53364642Y-63452500D02*
X53336071Y-63404880D01*
X53336071Y-63404880D02*
X53278928Y-63262023D01*
X53278928Y-63262023D02*
X53250357Y-63071547D01*
X53250357Y-63071547D02*
X53250357Y-62690595D01*
X53250357Y-62690595D02*
X53278928Y-62595357D01*
X53278928Y-62595357D02*
X53307500Y-62547738D01*
X53307500Y-62547738D02*
X53364642Y-62500119D01*
X53364642Y-62500119D02*
X53478928Y-62500119D01*
X53478928Y-62500119D02*
X53536071Y-62547738D01*
X53536071Y-62547738D02*
X53564642Y-62595357D01*
X53564642Y-62595357D02*
X53593214Y-62690595D01*
X53593214Y-62690595D02*
X53593214Y-62928690D01*
X53593214Y-62928690D02*
X53564642Y-63023928D01*
X53564642Y-63023928D02*
X53536071Y-63071547D01*
X53536071Y-63071547D02*
X53478928Y-63119166D01*
X53478928Y-63119166D02*
X53364642Y-63119166D01*
X53364642Y-63119166D02*
X53307500Y-63071547D01*
X53307500Y-63071547D02*
X53278928Y-63023928D01*
X53278928Y-63023928D02*
X53250357Y-62928690D01*
X61230951Y-63761666D02*
X60469047Y-63761666D01*
X60849999Y-64142619D02*
X60849999Y-63380714D01*
X15009999Y-28082619D02*
X15209999Y-27606428D01*
X15352856Y-28082619D02*
X15352856Y-27082619D01*
X15352856Y-27082619D02*
X15124285Y-27082619D01*
X15124285Y-27082619D02*
X15067142Y-27130238D01*
X15067142Y-27130238D02*
X15038571Y-27177857D01*
X15038571Y-27177857D02*
X15009999Y-27273095D01*
X15009999Y-27273095D02*
X15009999Y-27415952D01*
X15009999Y-27415952D02*
X15038571Y-27511190D01*
X15038571Y-27511190D02*
X15067142Y-27558809D01*
X15067142Y-27558809D02*
X15124285Y-27606428D01*
X15124285Y-27606428D02*
X15352856Y-27606428D01*
X14781428Y-27177857D02*
X14752856Y-27130238D01*
X14752856Y-27130238D02*
X14695714Y-27082619D01*
X14695714Y-27082619D02*
X14552856Y-27082619D01*
X14552856Y-27082619D02*
X14495714Y-27130238D01*
X14495714Y-27130238D02*
X14467142Y-27177857D01*
X14467142Y-27177857D02*
X14438571Y-27273095D01*
X14438571Y-27273095D02*
X14438571Y-27368333D01*
X14438571Y-27368333D02*
X14467142Y-27511190D01*
X14467142Y-27511190D02*
X14809999Y-28082619D01*
X14809999Y-28082619D02*
X14438571Y-28082619D01*
X62907380Y-34524285D02*
X62955000Y-34495713D01*
X62955000Y-34495713D02*
X63002619Y-34409999D01*
X63002619Y-34409999D02*
X63002619Y-34352856D01*
X63002619Y-34352856D02*
X62955000Y-34267142D01*
X62955000Y-34267142D02*
X62859761Y-34209999D01*
X62859761Y-34209999D02*
X62764523Y-34181428D01*
X62764523Y-34181428D02*
X62574047Y-34152856D01*
X62574047Y-34152856D02*
X62431190Y-34152856D01*
X62431190Y-34152856D02*
X62240714Y-34181428D01*
X62240714Y-34181428D02*
X62145476Y-34209999D01*
X62145476Y-34209999D02*
X62050238Y-34267142D01*
X62050238Y-34267142D02*
X62002619Y-34352856D01*
X62002619Y-34352856D02*
X62002619Y-34409999D01*
X62002619Y-34409999D02*
X62050238Y-34495713D01*
X62050238Y-34495713D02*
X62097857Y-34524285D01*
X62002619Y-34724285D02*
X62002619Y-35095713D01*
X62002619Y-35095713D02*
X62383571Y-34895713D01*
X62383571Y-34895713D02*
X62383571Y-34981428D01*
X62383571Y-34981428D02*
X62431190Y-35038571D01*
X62431190Y-35038571D02*
X62478809Y-35067142D01*
X62478809Y-35067142D02*
X62574047Y-35095713D01*
X62574047Y-35095713D02*
X62812142Y-35095713D01*
X62812142Y-35095713D02*
X62907380Y-35067142D01*
X62907380Y-35067142D02*
X62955000Y-35038571D01*
X62955000Y-35038571D02*
X63002619Y-34981428D01*
X63002619Y-34981428D02*
X63002619Y-34809999D01*
X63002619Y-34809999D02*
X62955000Y-34752856D01*
X62955000Y-34752856D02*
X62907380Y-34724285D01*
X62097857Y-35324285D02*
X62050238Y-35352857D01*
X62050238Y-35352857D02*
X62002619Y-35410000D01*
X62002619Y-35410000D02*
X62002619Y-35552857D01*
X62002619Y-35552857D02*
X62050238Y-35610000D01*
X62050238Y-35610000D02*
X62097857Y-35638571D01*
X62097857Y-35638571D02*
X62193095Y-35667142D01*
X62193095Y-35667142D02*
X62288333Y-35667142D01*
X62288333Y-35667142D02*
X62431190Y-35638571D01*
X62431190Y-35638571D02*
X63002619Y-35295714D01*
X63002619Y-35295714D02*
X63002619Y-35667142D01*
X46062856Y-55692619D02*
X46062856Y-56502142D01*
X46062856Y-56502142D02*
X46034285Y-56597380D01*
X46034285Y-56597380D02*
X46005714Y-56645000D01*
X46005714Y-56645000D02*
X45948571Y-56692619D01*
X45948571Y-56692619D02*
X45834285Y-56692619D01*
X45834285Y-56692619D02*
X45777142Y-56645000D01*
X45777142Y-56645000D02*
X45748571Y-56597380D01*
X45748571Y-56597380D02*
X45719999Y-56502142D01*
X45719999Y-56502142D02*
X45719999Y-55692619D01*
X45120000Y-56692619D02*
X45462857Y-56692619D01*
X45291428Y-56692619D02*
X45291428Y-55692619D01*
X45291428Y-55692619D02*
X45348571Y-55835476D01*
X45348571Y-55835476D02*
X45405714Y-55930714D01*
X45405714Y-55930714D02*
X45462857Y-55978333D01*
X44748571Y-55692619D02*
X44691428Y-55692619D01*
X44691428Y-55692619D02*
X44634285Y-55740238D01*
X44634285Y-55740238D02*
X44605714Y-55787857D01*
X44605714Y-55787857D02*
X44577142Y-55883095D01*
X44577142Y-55883095D02*
X44548571Y-56073571D01*
X44548571Y-56073571D02*
X44548571Y-56311666D01*
X44548571Y-56311666D02*
X44577142Y-56502142D01*
X44577142Y-56502142D02*
X44605714Y-56597380D01*
X44605714Y-56597380D02*
X44634285Y-56645000D01*
X44634285Y-56645000D02*
X44691428Y-56692619D01*
X44691428Y-56692619D02*
X44748571Y-56692619D01*
X44748571Y-56692619D02*
X44805714Y-56645000D01*
X44805714Y-56645000D02*
X44834285Y-56597380D01*
X44834285Y-56597380D02*
X44862856Y-56502142D01*
X44862856Y-56502142D02*
X44891428Y-56311666D01*
X44891428Y-56311666D02*
X44891428Y-56073571D01*
X44891428Y-56073571D02*
X44862856Y-55883095D01*
X44862856Y-55883095D02*
X44834285Y-55787857D01*
X44834285Y-55787857D02*
X44805714Y-55740238D01*
X44805714Y-55740238D02*
X44748571Y-55692619D01*
X17082380Y-17619285D02*
X17130000Y-17590713D01*
X17130000Y-17590713D02*
X17177619Y-17504999D01*
X17177619Y-17504999D02*
X17177619Y-17447856D01*
X17177619Y-17447856D02*
X17130000Y-17362142D01*
X17130000Y-17362142D02*
X17034761Y-17304999D01*
X17034761Y-17304999D02*
X16939523Y-17276428D01*
X16939523Y-17276428D02*
X16749047Y-17247856D01*
X16749047Y-17247856D02*
X16606190Y-17247856D01*
X16606190Y-17247856D02*
X16415714Y-17276428D01*
X16415714Y-17276428D02*
X16320476Y-17304999D01*
X16320476Y-17304999D02*
X16225238Y-17362142D01*
X16225238Y-17362142D02*
X16177619Y-17447856D01*
X16177619Y-17447856D02*
X16177619Y-17504999D01*
X16177619Y-17504999D02*
X16225238Y-17590713D01*
X16225238Y-17590713D02*
X16272857Y-17619285D01*
X16272857Y-17847856D02*
X16225238Y-17876428D01*
X16225238Y-17876428D02*
X16177619Y-17933571D01*
X16177619Y-17933571D02*
X16177619Y-18076428D01*
X16177619Y-18076428D02*
X16225238Y-18133571D01*
X16225238Y-18133571D02*
X16272857Y-18162142D01*
X16272857Y-18162142D02*
X16368095Y-18190713D01*
X16368095Y-18190713D02*
X16463333Y-18190713D01*
X16463333Y-18190713D02*
X16606190Y-18162142D01*
X16606190Y-18162142D02*
X17177619Y-17819285D01*
X17177619Y-17819285D02*
X17177619Y-18190713D01*
X17177619Y-18476428D02*
X17177619Y-18590714D01*
X17177619Y-18590714D02*
X17130000Y-18647857D01*
X17130000Y-18647857D02*
X17082380Y-18676428D01*
X17082380Y-18676428D02*
X16939523Y-18733571D01*
X16939523Y-18733571D02*
X16749047Y-18762142D01*
X16749047Y-18762142D02*
X16368095Y-18762142D01*
X16368095Y-18762142D02*
X16272857Y-18733571D01*
X16272857Y-18733571D02*
X16225238Y-18705000D01*
X16225238Y-18705000D02*
X16177619Y-18647857D01*
X16177619Y-18647857D02*
X16177619Y-18533571D01*
X16177619Y-18533571D02*
X16225238Y-18476428D01*
X16225238Y-18476428D02*
X16272857Y-18447857D01*
X16272857Y-18447857D02*
X16368095Y-18419285D01*
X16368095Y-18419285D02*
X16606190Y-18419285D01*
X16606190Y-18419285D02*
X16701428Y-18447857D01*
X16701428Y-18447857D02*
X16749047Y-18476428D01*
X16749047Y-18476428D02*
X16796666Y-18533571D01*
X16796666Y-18533571D02*
X16796666Y-18647857D01*
X16796666Y-18647857D02*
X16749047Y-18705000D01*
X16749047Y-18705000D02*
X16701428Y-18733571D01*
X16701428Y-18733571D02*
X16606190Y-18762142D01*
X22367380Y-24364285D02*
X22415000Y-24335713D01*
X22415000Y-24335713D02*
X22462619Y-24249999D01*
X22462619Y-24249999D02*
X22462619Y-24192856D01*
X22462619Y-24192856D02*
X22415000Y-24107142D01*
X22415000Y-24107142D02*
X22319761Y-24049999D01*
X22319761Y-24049999D02*
X22224523Y-24021428D01*
X22224523Y-24021428D02*
X22034047Y-23992856D01*
X22034047Y-23992856D02*
X21891190Y-23992856D01*
X21891190Y-23992856D02*
X21700714Y-24021428D01*
X21700714Y-24021428D02*
X21605476Y-24049999D01*
X21605476Y-24049999D02*
X21510238Y-24107142D01*
X21510238Y-24107142D02*
X21462619Y-24192856D01*
X21462619Y-24192856D02*
X21462619Y-24249999D01*
X21462619Y-24249999D02*
X21510238Y-24335713D01*
X21510238Y-24335713D02*
X21557857Y-24364285D01*
X21462619Y-24564285D02*
X21462619Y-24935713D01*
X21462619Y-24935713D02*
X21843571Y-24735713D01*
X21843571Y-24735713D02*
X21843571Y-24821428D01*
X21843571Y-24821428D02*
X21891190Y-24878571D01*
X21891190Y-24878571D02*
X21938809Y-24907142D01*
X21938809Y-24907142D02*
X22034047Y-24935713D01*
X22034047Y-24935713D02*
X22272142Y-24935713D01*
X22272142Y-24935713D02*
X22367380Y-24907142D01*
X22367380Y-24907142D02*
X22415000Y-24878571D01*
X22415000Y-24878571D02*
X22462619Y-24821428D01*
X22462619Y-24821428D02*
X22462619Y-24649999D01*
X22462619Y-24649999D02*
X22415000Y-24592856D01*
X22415000Y-24592856D02*
X22367380Y-24564285D01*
X21795952Y-25450000D02*
X22462619Y-25450000D01*
X21415000Y-25307142D02*
X22129285Y-25164285D01*
X22129285Y-25164285D02*
X22129285Y-25535714D01*
X36577380Y-39904285D02*
X36625000Y-39875713D01*
X36625000Y-39875713D02*
X36672619Y-39789999D01*
X36672619Y-39789999D02*
X36672619Y-39732856D01*
X36672619Y-39732856D02*
X36625000Y-39647142D01*
X36625000Y-39647142D02*
X36529761Y-39589999D01*
X36529761Y-39589999D02*
X36434523Y-39561428D01*
X36434523Y-39561428D02*
X36244047Y-39532856D01*
X36244047Y-39532856D02*
X36101190Y-39532856D01*
X36101190Y-39532856D02*
X35910714Y-39561428D01*
X35910714Y-39561428D02*
X35815476Y-39589999D01*
X35815476Y-39589999D02*
X35720238Y-39647142D01*
X35720238Y-39647142D02*
X35672619Y-39732856D01*
X35672619Y-39732856D02*
X35672619Y-39789999D01*
X35672619Y-39789999D02*
X35720238Y-39875713D01*
X35720238Y-39875713D02*
X35767857Y-39904285D01*
X36005952Y-40418571D02*
X36672619Y-40418571D01*
X35625000Y-40275713D02*
X36339285Y-40132856D01*
X36339285Y-40132856D02*
X36339285Y-40504285D01*
X36101190Y-40818571D02*
X36053571Y-40761428D01*
X36053571Y-40761428D02*
X36005952Y-40732857D01*
X36005952Y-40732857D02*
X35910714Y-40704285D01*
X35910714Y-40704285D02*
X35863095Y-40704285D01*
X35863095Y-40704285D02*
X35767857Y-40732857D01*
X35767857Y-40732857D02*
X35720238Y-40761428D01*
X35720238Y-40761428D02*
X35672619Y-40818571D01*
X35672619Y-40818571D02*
X35672619Y-40932857D01*
X35672619Y-40932857D02*
X35720238Y-40990000D01*
X35720238Y-40990000D02*
X35767857Y-41018571D01*
X35767857Y-41018571D02*
X35863095Y-41047142D01*
X35863095Y-41047142D02*
X35910714Y-41047142D01*
X35910714Y-41047142D02*
X36005952Y-41018571D01*
X36005952Y-41018571D02*
X36053571Y-40990000D01*
X36053571Y-40990000D02*
X36101190Y-40932857D01*
X36101190Y-40932857D02*
X36101190Y-40818571D01*
X36101190Y-40818571D02*
X36148809Y-40761428D01*
X36148809Y-40761428D02*
X36196428Y-40732857D01*
X36196428Y-40732857D02*
X36291666Y-40704285D01*
X36291666Y-40704285D02*
X36482142Y-40704285D01*
X36482142Y-40704285D02*
X36577380Y-40732857D01*
X36577380Y-40732857D02*
X36625000Y-40761428D01*
X36625000Y-40761428D02*
X36672619Y-40818571D01*
X36672619Y-40818571D02*
X36672619Y-40932857D01*
X36672619Y-40932857D02*
X36625000Y-40990000D01*
X36625000Y-40990000D02*
X36577380Y-41018571D01*
X36577380Y-41018571D02*
X36482142Y-41047142D01*
X36482142Y-41047142D02*
X36291666Y-41047142D01*
X36291666Y-41047142D02*
X36196428Y-41018571D01*
X36196428Y-41018571D02*
X36148809Y-40990000D01*
X36148809Y-40990000D02*
X36101190Y-40932857D01*
X21962619Y-17864285D02*
X21486428Y-17664285D01*
X21962619Y-17521428D02*
X20962619Y-17521428D01*
X20962619Y-17521428D02*
X20962619Y-17749999D01*
X20962619Y-17749999D02*
X21010238Y-17807142D01*
X21010238Y-17807142D02*
X21057857Y-17835713D01*
X21057857Y-17835713D02*
X21153095Y-17864285D01*
X21153095Y-17864285D02*
X21295952Y-17864285D01*
X21295952Y-17864285D02*
X21391190Y-17835713D01*
X21391190Y-17835713D02*
X21438809Y-17807142D01*
X21438809Y-17807142D02*
X21486428Y-17749999D01*
X21486428Y-17749999D02*
X21486428Y-17521428D01*
X20962619Y-18064285D02*
X20962619Y-18435713D01*
X20962619Y-18435713D02*
X21343571Y-18235713D01*
X21343571Y-18235713D02*
X21343571Y-18321428D01*
X21343571Y-18321428D02*
X21391190Y-18378571D01*
X21391190Y-18378571D02*
X21438809Y-18407142D01*
X21438809Y-18407142D02*
X21534047Y-18435713D01*
X21534047Y-18435713D02*
X21772142Y-18435713D01*
X21772142Y-18435713D02*
X21867380Y-18407142D01*
X21867380Y-18407142D02*
X21915000Y-18378571D01*
X21915000Y-18378571D02*
X21962619Y-18321428D01*
X21962619Y-18321428D02*
X21962619Y-18149999D01*
X21962619Y-18149999D02*
X21915000Y-18092856D01*
X21915000Y-18092856D02*
X21867380Y-18064285D01*
X21962619Y-19007142D02*
X21962619Y-18664285D01*
X21962619Y-18835714D02*
X20962619Y-18835714D01*
X20962619Y-18835714D02*
X21105476Y-18778571D01*
X21105476Y-18778571D02*
X21200714Y-18721428D01*
X21200714Y-18721428D02*
X21248333Y-18664285D01*
X16277380Y-11400000D02*
X16325000Y-11371428D01*
X16325000Y-11371428D02*
X16372619Y-11285714D01*
X16372619Y-11285714D02*
X16372619Y-11228571D01*
X16372619Y-11228571D02*
X16325000Y-11142857D01*
X16325000Y-11142857D02*
X16229761Y-11085714D01*
X16229761Y-11085714D02*
X16134523Y-11057143D01*
X16134523Y-11057143D02*
X15944047Y-11028571D01*
X15944047Y-11028571D02*
X15801190Y-11028571D01*
X15801190Y-11028571D02*
X15610714Y-11057143D01*
X15610714Y-11057143D02*
X15515476Y-11085714D01*
X15515476Y-11085714D02*
X15420238Y-11142857D01*
X15420238Y-11142857D02*
X15372619Y-11228571D01*
X15372619Y-11228571D02*
X15372619Y-11285714D01*
X15372619Y-11285714D02*
X15420238Y-11371428D01*
X15420238Y-11371428D02*
X15467857Y-11400000D01*
X15705952Y-11914286D02*
X16372619Y-11914286D01*
X15325000Y-11771428D02*
X16039285Y-11628571D01*
X16039285Y-11628571D02*
X16039285Y-12000000D01*
X17367380Y-24364285D02*
X17415000Y-24335713D01*
X17415000Y-24335713D02*
X17462619Y-24249999D01*
X17462619Y-24249999D02*
X17462619Y-24192856D01*
X17462619Y-24192856D02*
X17415000Y-24107142D01*
X17415000Y-24107142D02*
X17319761Y-24049999D01*
X17319761Y-24049999D02*
X17224523Y-24021428D01*
X17224523Y-24021428D02*
X17034047Y-23992856D01*
X17034047Y-23992856D02*
X16891190Y-23992856D01*
X16891190Y-23992856D02*
X16700714Y-24021428D01*
X16700714Y-24021428D02*
X16605476Y-24049999D01*
X16605476Y-24049999D02*
X16510238Y-24107142D01*
X16510238Y-24107142D02*
X16462619Y-24192856D01*
X16462619Y-24192856D02*
X16462619Y-24249999D01*
X16462619Y-24249999D02*
X16510238Y-24335713D01*
X16510238Y-24335713D02*
X16557857Y-24364285D01*
X16462619Y-24564285D02*
X16462619Y-24935713D01*
X16462619Y-24935713D02*
X16843571Y-24735713D01*
X16843571Y-24735713D02*
X16843571Y-24821428D01*
X16843571Y-24821428D02*
X16891190Y-24878571D01*
X16891190Y-24878571D02*
X16938809Y-24907142D01*
X16938809Y-24907142D02*
X17034047Y-24935713D01*
X17034047Y-24935713D02*
X17272142Y-24935713D01*
X17272142Y-24935713D02*
X17367380Y-24907142D01*
X17367380Y-24907142D02*
X17415000Y-24878571D01*
X17415000Y-24878571D02*
X17462619Y-24821428D01*
X17462619Y-24821428D02*
X17462619Y-24649999D01*
X17462619Y-24649999D02*
X17415000Y-24592856D01*
X17415000Y-24592856D02*
X17367380Y-24564285D01*
X16462619Y-25135714D02*
X16462619Y-25535714D01*
X16462619Y-25535714D02*
X17462619Y-25278571D01*
X64785714Y-57967380D02*
X64814286Y-58015000D01*
X64814286Y-58015000D02*
X64900000Y-58062619D01*
X64900000Y-58062619D02*
X64957143Y-58062619D01*
X64957143Y-58062619D02*
X65042857Y-58015000D01*
X65042857Y-58015000D02*
X65100000Y-57919761D01*
X65100000Y-57919761D02*
X65128571Y-57824523D01*
X65128571Y-57824523D02*
X65157143Y-57634047D01*
X65157143Y-57634047D02*
X65157143Y-57491190D01*
X65157143Y-57491190D02*
X65128571Y-57300714D01*
X65128571Y-57300714D02*
X65100000Y-57205476D01*
X65100000Y-57205476D02*
X65042857Y-57110238D01*
X65042857Y-57110238D02*
X64957143Y-57062619D01*
X64957143Y-57062619D02*
X64900000Y-57062619D01*
X64900000Y-57062619D02*
X64814286Y-57110238D01*
X64814286Y-57110238D02*
X64785714Y-57157857D01*
X64271429Y-57395952D02*
X64271429Y-58062619D01*
X64414286Y-57015000D02*
X64557143Y-57729285D01*
X64557143Y-57729285D02*
X64185714Y-57729285D01*
X63700000Y-57062619D02*
X63814285Y-57062619D01*
X63814285Y-57062619D02*
X63871428Y-57110238D01*
X63871428Y-57110238D02*
X63900000Y-57157857D01*
X63900000Y-57157857D02*
X63957142Y-57300714D01*
X63957142Y-57300714D02*
X63985714Y-57491190D01*
X63985714Y-57491190D02*
X63985714Y-57872142D01*
X63985714Y-57872142D02*
X63957142Y-57967380D01*
X63957142Y-57967380D02*
X63928571Y-58015000D01*
X63928571Y-58015000D02*
X63871428Y-58062619D01*
X63871428Y-58062619D02*
X63757142Y-58062619D01*
X63757142Y-58062619D02*
X63700000Y-58015000D01*
X63700000Y-58015000D02*
X63671428Y-57967380D01*
X63671428Y-57967380D02*
X63642857Y-57872142D01*
X63642857Y-57872142D02*
X63642857Y-57634047D01*
X63642857Y-57634047D02*
X63671428Y-57538809D01*
X63671428Y-57538809D02*
X63700000Y-57491190D01*
X63700000Y-57491190D02*
X63757142Y-57443571D01*
X63757142Y-57443571D02*
X63871428Y-57443571D01*
X63871428Y-57443571D02*
X63928571Y-57491190D01*
X63928571Y-57491190D02*
X63957142Y-57538809D01*
X63957142Y-57538809D02*
X63985714Y-57634047D01*
X14987142Y-43307857D02*
X15044285Y-43260238D01*
X15044285Y-43260238D02*
X15101428Y-43165000D01*
X15101428Y-43165000D02*
X15187142Y-43022142D01*
X15187142Y-43022142D02*
X15244285Y-42974523D01*
X15244285Y-42974523D02*
X15301428Y-42974523D01*
X15272857Y-43212619D02*
X15330000Y-43165000D01*
X15330000Y-43165000D02*
X15387142Y-43069761D01*
X15387142Y-43069761D02*
X15415714Y-42879285D01*
X15415714Y-42879285D02*
X15415714Y-42545952D01*
X15415714Y-42545952D02*
X15387142Y-42355476D01*
X15387142Y-42355476D02*
X15330000Y-42260238D01*
X15330000Y-42260238D02*
X15272857Y-42212619D01*
X15272857Y-42212619D02*
X15158571Y-42212619D01*
X15158571Y-42212619D02*
X15101428Y-42260238D01*
X15101428Y-42260238D02*
X15044285Y-42355476D01*
X15044285Y-42355476D02*
X15015714Y-42545952D01*
X15015714Y-42545952D02*
X15015714Y-42879285D01*
X15015714Y-42879285D02*
X15044285Y-43069761D01*
X15044285Y-43069761D02*
X15101428Y-43165000D01*
X15101428Y-43165000D02*
X15158571Y-43212619D01*
X15158571Y-43212619D02*
X15272857Y-43212619D01*
X14815714Y-42212619D02*
X14444286Y-42212619D01*
X14444286Y-42212619D02*
X14644286Y-42593571D01*
X14644286Y-42593571D02*
X14558571Y-42593571D01*
X14558571Y-42593571D02*
X14501429Y-42641190D01*
X14501429Y-42641190D02*
X14472857Y-42688809D01*
X14472857Y-42688809D02*
X14444286Y-42784047D01*
X14444286Y-42784047D02*
X14444286Y-43022142D01*
X14444286Y-43022142D02*
X14472857Y-43117380D01*
X14472857Y-43117380D02*
X14501429Y-43165000D01*
X14501429Y-43165000D02*
X14558571Y-43212619D01*
X14558571Y-43212619D02*
X14730000Y-43212619D01*
X14730000Y-43212619D02*
X14787143Y-43165000D01*
X14787143Y-43165000D02*
X14815714Y-43117380D01*
X6367380Y-9114285D02*
X6415000Y-9085713D01*
X6415000Y-9085713D02*
X6462619Y-8999999D01*
X6462619Y-8999999D02*
X6462619Y-8942856D01*
X6462619Y-8942856D02*
X6415000Y-8857142D01*
X6415000Y-8857142D02*
X6319761Y-8799999D01*
X6319761Y-8799999D02*
X6224523Y-8771428D01*
X6224523Y-8771428D02*
X6034047Y-8742856D01*
X6034047Y-8742856D02*
X5891190Y-8742856D01*
X5891190Y-8742856D02*
X5700714Y-8771428D01*
X5700714Y-8771428D02*
X5605476Y-8799999D01*
X5605476Y-8799999D02*
X5510238Y-8857142D01*
X5510238Y-8857142D02*
X5462619Y-8942856D01*
X5462619Y-8942856D02*
X5462619Y-8999999D01*
X5462619Y-8999999D02*
X5510238Y-9085713D01*
X5510238Y-9085713D02*
X5557857Y-9114285D01*
X6462619Y-9685713D02*
X6462619Y-9342856D01*
X6462619Y-9514285D02*
X5462619Y-9514285D01*
X5462619Y-9514285D02*
X5605476Y-9457142D01*
X5605476Y-9457142D02*
X5700714Y-9399999D01*
X5700714Y-9399999D02*
X5748333Y-9342856D01*
X5462619Y-10200000D02*
X5462619Y-10085714D01*
X5462619Y-10085714D02*
X5510238Y-10028571D01*
X5510238Y-10028571D02*
X5557857Y-10000000D01*
X5557857Y-10000000D02*
X5700714Y-9942857D01*
X5700714Y-9942857D02*
X5891190Y-9914285D01*
X5891190Y-9914285D02*
X6272142Y-9914285D01*
X6272142Y-9914285D02*
X6367380Y-9942857D01*
X6367380Y-9942857D02*
X6415000Y-9971428D01*
X6415000Y-9971428D02*
X6462619Y-10028571D01*
X6462619Y-10028571D02*
X6462619Y-10142857D01*
X6462619Y-10142857D02*
X6415000Y-10200000D01*
X6415000Y-10200000D02*
X6367380Y-10228571D01*
X6367380Y-10228571D02*
X6272142Y-10257142D01*
X6272142Y-10257142D02*
X6034047Y-10257142D01*
X6034047Y-10257142D02*
X5938809Y-10228571D01*
X5938809Y-10228571D02*
X5891190Y-10200000D01*
X5891190Y-10200000D02*
X5843571Y-10142857D01*
X5843571Y-10142857D02*
X5843571Y-10028571D01*
X5843571Y-10028571D02*
X5891190Y-9971428D01*
X5891190Y-9971428D02*
X5938809Y-9942857D01*
X5938809Y-9942857D02*
X6034047Y-9914285D01*
X29867380Y-47114285D02*
X29915000Y-47085713D01*
X29915000Y-47085713D02*
X29962619Y-46999999D01*
X29962619Y-46999999D02*
X29962619Y-46942856D01*
X29962619Y-46942856D02*
X29915000Y-46857142D01*
X29915000Y-46857142D02*
X29819761Y-46799999D01*
X29819761Y-46799999D02*
X29724523Y-46771428D01*
X29724523Y-46771428D02*
X29534047Y-46742856D01*
X29534047Y-46742856D02*
X29391190Y-46742856D01*
X29391190Y-46742856D02*
X29200714Y-46771428D01*
X29200714Y-46771428D02*
X29105476Y-46799999D01*
X29105476Y-46799999D02*
X29010238Y-46857142D01*
X29010238Y-46857142D02*
X28962619Y-46942856D01*
X28962619Y-46942856D02*
X28962619Y-46999999D01*
X28962619Y-46999999D02*
X29010238Y-47085713D01*
X29010238Y-47085713D02*
X29057857Y-47114285D01*
X28962619Y-47314285D02*
X28962619Y-47685713D01*
X28962619Y-47685713D02*
X29343571Y-47485713D01*
X29343571Y-47485713D02*
X29343571Y-47571428D01*
X29343571Y-47571428D02*
X29391190Y-47628571D01*
X29391190Y-47628571D02*
X29438809Y-47657142D01*
X29438809Y-47657142D02*
X29534047Y-47685713D01*
X29534047Y-47685713D02*
X29772142Y-47685713D01*
X29772142Y-47685713D02*
X29867380Y-47657142D01*
X29867380Y-47657142D02*
X29915000Y-47628571D01*
X29915000Y-47628571D02*
X29962619Y-47571428D01*
X29962619Y-47571428D02*
X29962619Y-47399999D01*
X29962619Y-47399999D02*
X29915000Y-47342856D01*
X29915000Y-47342856D02*
X29867380Y-47314285D01*
X28962619Y-48228571D02*
X28962619Y-47942857D01*
X28962619Y-47942857D02*
X29438809Y-47914285D01*
X29438809Y-47914285D02*
X29391190Y-47942857D01*
X29391190Y-47942857D02*
X29343571Y-48000000D01*
X29343571Y-48000000D02*
X29343571Y-48142857D01*
X29343571Y-48142857D02*
X29391190Y-48200000D01*
X29391190Y-48200000D02*
X29438809Y-48228571D01*
X29438809Y-48228571D02*
X29534047Y-48257142D01*
X29534047Y-48257142D02*
X29772142Y-48257142D01*
X29772142Y-48257142D02*
X29867380Y-48228571D01*
X29867380Y-48228571D02*
X29915000Y-48200000D01*
X29915000Y-48200000D02*
X29962619Y-48142857D01*
X29962619Y-48142857D02*
X29962619Y-48000000D01*
X29962619Y-48000000D02*
X29915000Y-47942857D01*
X29915000Y-47942857D02*
X29867380Y-47914285D01*
X40385714Y-8042619D02*
X40585714Y-7566428D01*
X40728571Y-8042619D02*
X40728571Y-7042619D01*
X40728571Y-7042619D02*
X40500000Y-7042619D01*
X40500000Y-7042619D02*
X40442857Y-7090238D01*
X40442857Y-7090238D02*
X40414286Y-7137857D01*
X40414286Y-7137857D02*
X40385714Y-7233095D01*
X40385714Y-7233095D02*
X40385714Y-7375952D01*
X40385714Y-7375952D02*
X40414286Y-7471190D01*
X40414286Y-7471190D02*
X40442857Y-7518809D01*
X40442857Y-7518809D02*
X40500000Y-7566428D01*
X40500000Y-7566428D02*
X40728571Y-7566428D01*
X40157143Y-7137857D02*
X40128571Y-7090238D01*
X40128571Y-7090238D02*
X40071429Y-7042619D01*
X40071429Y-7042619D02*
X39928571Y-7042619D01*
X39928571Y-7042619D02*
X39871429Y-7090238D01*
X39871429Y-7090238D02*
X39842857Y-7137857D01*
X39842857Y-7137857D02*
X39814286Y-7233095D01*
X39814286Y-7233095D02*
X39814286Y-7328333D01*
X39814286Y-7328333D02*
X39842857Y-7471190D01*
X39842857Y-7471190D02*
X40185714Y-8042619D01*
X40185714Y-8042619D02*
X39814286Y-8042619D01*
X39585714Y-7137857D02*
X39557142Y-7090238D01*
X39557142Y-7090238D02*
X39500000Y-7042619D01*
X39500000Y-7042619D02*
X39357142Y-7042619D01*
X39357142Y-7042619D02*
X39300000Y-7090238D01*
X39300000Y-7090238D02*
X39271428Y-7137857D01*
X39271428Y-7137857D02*
X39242857Y-7233095D01*
X39242857Y-7233095D02*
X39242857Y-7328333D01*
X39242857Y-7328333D02*
X39271428Y-7471190D01*
X39271428Y-7471190D02*
X39614285Y-8042619D01*
X39614285Y-8042619D02*
X39242857Y-8042619D01*
X11875714Y-3767380D02*
X11904286Y-3815000D01*
X11904286Y-3815000D02*
X11990000Y-3862619D01*
X11990000Y-3862619D02*
X12047143Y-3862619D01*
X12047143Y-3862619D02*
X12132857Y-3815000D01*
X12132857Y-3815000D02*
X12190000Y-3719761D01*
X12190000Y-3719761D02*
X12218571Y-3624523D01*
X12218571Y-3624523D02*
X12247143Y-3434047D01*
X12247143Y-3434047D02*
X12247143Y-3291190D01*
X12247143Y-3291190D02*
X12218571Y-3100714D01*
X12218571Y-3100714D02*
X12190000Y-3005476D01*
X12190000Y-3005476D02*
X12132857Y-2910238D01*
X12132857Y-2910238D02*
X12047143Y-2862619D01*
X12047143Y-2862619D02*
X11990000Y-2862619D01*
X11990000Y-2862619D02*
X11904286Y-2910238D01*
X11904286Y-2910238D02*
X11875714Y-2957857D01*
X11304286Y-3862619D02*
X11647143Y-3862619D01*
X11475714Y-3862619D02*
X11475714Y-2862619D01*
X11475714Y-2862619D02*
X11532857Y-3005476D01*
X11532857Y-3005476D02*
X11590000Y-3100714D01*
X11590000Y-3100714D02*
X11647143Y-3148333D01*
X10932857Y-2862619D02*
X10875714Y-2862619D01*
X10875714Y-2862619D02*
X10818571Y-2910238D01*
X10818571Y-2910238D02*
X10790000Y-2957857D01*
X10790000Y-2957857D02*
X10761428Y-3053095D01*
X10761428Y-3053095D02*
X10732857Y-3243571D01*
X10732857Y-3243571D02*
X10732857Y-3481666D01*
X10732857Y-3481666D02*
X10761428Y-3672142D01*
X10761428Y-3672142D02*
X10790000Y-3767380D01*
X10790000Y-3767380D02*
X10818571Y-3815000D01*
X10818571Y-3815000D02*
X10875714Y-3862619D01*
X10875714Y-3862619D02*
X10932857Y-3862619D01*
X10932857Y-3862619D02*
X10990000Y-3815000D01*
X10990000Y-3815000D02*
X11018571Y-3767380D01*
X11018571Y-3767380D02*
X11047142Y-3672142D01*
X11047142Y-3672142D02*
X11075714Y-3481666D01*
X11075714Y-3481666D02*
X11075714Y-3243571D01*
X11075714Y-3243571D02*
X11047142Y-3053095D01*
X11047142Y-3053095D02*
X11018571Y-2957857D01*
X11018571Y-2957857D02*
X10990000Y-2910238D01*
X10990000Y-2910238D02*
X10932857Y-2862619D01*
X54405714Y-66817380D02*
X54434286Y-66865000D01*
X54434286Y-66865000D02*
X54520000Y-66912619D01*
X54520000Y-66912619D02*
X54577143Y-66912619D01*
X54577143Y-66912619D02*
X54662857Y-66865000D01*
X54662857Y-66865000D02*
X54720000Y-66769761D01*
X54720000Y-66769761D02*
X54748571Y-66674523D01*
X54748571Y-66674523D02*
X54777143Y-66484047D01*
X54777143Y-66484047D02*
X54777143Y-66341190D01*
X54777143Y-66341190D02*
X54748571Y-66150714D01*
X54748571Y-66150714D02*
X54720000Y-66055476D01*
X54720000Y-66055476D02*
X54662857Y-65960238D01*
X54662857Y-65960238D02*
X54577143Y-65912619D01*
X54577143Y-65912619D02*
X54520000Y-65912619D01*
X54520000Y-65912619D02*
X54434286Y-65960238D01*
X54434286Y-65960238D02*
X54405714Y-66007857D01*
X53891429Y-66245952D02*
X53891429Y-66912619D01*
X54034286Y-65865000D02*
X54177143Y-66579285D01*
X54177143Y-66579285D02*
X53805714Y-66579285D01*
X53462857Y-65912619D02*
X53405714Y-65912619D01*
X53405714Y-65912619D02*
X53348571Y-65960238D01*
X53348571Y-65960238D02*
X53320000Y-66007857D01*
X53320000Y-66007857D02*
X53291428Y-66103095D01*
X53291428Y-66103095D02*
X53262857Y-66293571D01*
X53262857Y-66293571D02*
X53262857Y-66531666D01*
X53262857Y-66531666D02*
X53291428Y-66722142D01*
X53291428Y-66722142D02*
X53320000Y-66817380D01*
X53320000Y-66817380D02*
X53348571Y-66865000D01*
X53348571Y-66865000D02*
X53405714Y-66912619D01*
X53405714Y-66912619D02*
X53462857Y-66912619D01*
X53462857Y-66912619D02*
X53520000Y-66865000D01*
X53520000Y-66865000D02*
X53548571Y-66817380D01*
X53548571Y-66817380D02*
X53577142Y-66722142D01*
X53577142Y-66722142D02*
X53605714Y-66531666D01*
X53605714Y-66531666D02*
X53605714Y-66293571D01*
X53605714Y-66293571D02*
X53577142Y-66103095D01*
X53577142Y-66103095D02*
X53548571Y-66007857D01*
X53548571Y-66007857D02*
X53520000Y-65960238D01*
X53520000Y-65960238D02*
X53462857Y-65912619D01*
X61230951Y-67211666D02*
X60469047Y-67211666D01*
X60849999Y-67592619D02*
X60849999Y-66830714D01*
X33707142Y-48212619D02*
X33707142Y-49022142D01*
X33707142Y-49022142D02*
X33678571Y-49117380D01*
X33678571Y-49117380D02*
X33650000Y-49165000D01*
X33650000Y-49165000D02*
X33592857Y-49212619D01*
X33592857Y-49212619D02*
X33478571Y-49212619D01*
X33478571Y-49212619D02*
X33421428Y-49165000D01*
X33421428Y-49165000D02*
X33392857Y-49117380D01*
X33392857Y-49117380D02*
X33364285Y-49022142D01*
X33364285Y-49022142D02*
X33364285Y-48212619D01*
X32992857Y-48641190D02*
X33050000Y-48593571D01*
X33050000Y-48593571D02*
X33078571Y-48545952D01*
X33078571Y-48545952D02*
X33107143Y-48450714D01*
X33107143Y-48450714D02*
X33107143Y-48403095D01*
X33107143Y-48403095D02*
X33078571Y-48307857D01*
X33078571Y-48307857D02*
X33050000Y-48260238D01*
X33050000Y-48260238D02*
X32992857Y-48212619D01*
X32992857Y-48212619D02*
X32878571Y-48212619D01*
X32878571Y-48212619D02*
X32821429Y-48260238D01*
X32821429Y-48260238D02*
X32792857Y-48307857D01*
X32792857Y-48307857D02*
X32764286Y-48403095D01*
X32764286Y-48403095D02*
X32764286Y-48450714D01*
X32764286Y-48450714D02*
X32792857Y-48545952D01*
X32792857Y-48545952D02*
X32821429Y-48593571D01*
X32821429Y-48593571D02*
X32878571Y-48641190D01*
X32878571Y-48641190D02*
X32992857Y-48641190D01*
X32992857Y-48641190D02*
X33050000Y-48688809D01*
X33050000Y-48688809D02*
X33078571Y-48736428D01*
X33078571Y-48736428D02*
X33107143Y-48831666D01*
X33107143Y-48831666D02*
X33107143Y-49022142D01*
X33107143Y-49022142D02*
X33078571Y-49117380D01*
X33078571Y-49117380D02*
X33050000Y-49165000D01*
X33050000Y-49165000D02*
X32992857Y-49212619D01*
X32992857Y-49212619D02*
X32878571Y-49212619D01*
X32878571Y-49212619D02*
X32821429Y-49165000D01*
X32821429Y-49165000D02*
X32792857Y-49117380D01*
X32792857Y-49117380D02*
X32764286Y-49022142D01*
X32764286Y-49022142D02*
X32764286Y-48831666D01*
X32764286Y-48831666D02*
X32792857Y-48736428D01*
X32792857Y-48736428D02*
X32821429Y-48688809D01*
X32821429Y-48688809D02*
X32878571Y-48641190D01*
X47025714Y-34737380D02*
X47054286Y-34785000D01*
X47054286Y-34785000D02*
X47140000Y-34832619D01*
X47140000Y-34832619D02*
X47197143Y-34832619D01*
X47197143Y-34832619D02*
X47282857Y-34785000D01*
X47282857Y-34785000D02*
X47340000Y-34689761D01*
X47340000Y-34689761D02*
X47368571Y-34594523D01*
X47368571Y-34594523D02*
X47397143Y-34404047D01*
X47397143Y-34404047D02*
X47397143Y-34261190D01*
X47397143Y-34261190D02*
X47368571Y-34070714D01*
X47368571Y-34070714D02*
X47340000Y-33975476D01*
X47340000Y-33975476D02*
X47282857Y-33880238D01*
X47282857Y-33880238D02*
X47197143Y-33832619D01*
X47197143Y-33832619D02*
X47140000Y-33832619D01*
X47140000Y-33832619D02*
X47054286Y-33880238D01*
X47054286Y-33880238D02*
X47025714Y-33927857D01*
X46797143Y-33927857D02*
X46768571Y-33880238D01*
X46768571Y-33880238D02*
X46711429Y-33832619D01*
X46711429Y-33832619D02*
X46568571Y-33832619D01*
X46568571Y-33832619D02*
X46511429Y-33880238D01*
X46511429Y-33880238D02*
X46482857Y-33927857D01*
X46482857Y-33927857D02*
X46454286Y-34023095D01*
X46454286Y-34023095D02*
X46454286Y-34118333D01*
X46454286Y-34118333D02*
X46482857Y-34261190D01*
X46482857Y-34261190D02*
X46825714Y-34832619D01*
X46825714Y-34832619D02*
X46454286Y-34832619D01*
X45882857Y-34832619D02*
X46225714Y-34832619D01*
X46054285Y-34832619D02*
X46054285Y-33832619D01*
X46054285Y-33832619D02*
X46111428Y-33975476D01*
X46111428Y-33975476D02*
X46168571Y-34070714D01*
X46168571Y-34070714D02*
X46225714Y-34118333D01*
X21117380Y-46614285D02*
X21165000Y-46585713D01*
X21165000Y-46585713D02*
X21212619Y-46499999D01*
X21212619Y-46499999D02*
X21212619Y-46442856D01*
X21212619Y-46442856D02*
X21165000Y-46357142D01*
X21165000Y-46357142D02*
X21069761Y-46299999D01*
X21069761Y-46299999D02*
X20974523Y-46271428D01*
X20974523Y-46271428D02*
X20784047Y-46242856D01*
X20784047Y-46242856D02*
X20641190Y-46242856D01*
X20641190Y-46242856D02*
X20450714Y-46271428D01*
X20450714Y-46271428D02*
X20355476Y-46299999D01*
X20355476Y-46299999D02*
X20260238Y-46357142D01*
X20260238Y-46357142D02*
X20212619Y-46442856D01*
X20212619Y-46442856D02*
X20212619Y-46499999D01*
X20212619Y-46499999D02*
X20260238Y-46585713D01*
X20260238Y-46585713D02*
X20307857Y-46614285D01*
X20307857Y-46842856D02*
X20260238Y-46871428D01*
X20260238Y-46871428D02*
X20212619Y-46928571D01*
X20212619Y-46928571D02*
X20212619Y-47071428D01*
X20212619Y-47071428D02*
X20260238Y-47128571D01*
X20260238Y-47128571D02*
X20307857Y-47157142D01*
X20307857Y-47157142D02*
X20403095Y-47185713D01*
X20403095Y-47185713D02*
X20498333Y-47185713D01*
X20498333Y-47185713D02*
X20641190Y-47157142D01*
X20641190Y-47157142D02*
X21212619Y-46814285D01*
X21212619Y-46814285D02*
X21212619Y-47185713D01*
X20212619Y-47700000D02*
X20212619Y-47585714D01*
X20212619Y-47585714D02*
X20260238Y-47528571D01*
X20260238Y-47528571D02*
X20307857Y-47500000D01*
X20307857Y-47500000D02*
X20450714Y-47442857D01*
X20450714Y-47442857D02*
X20641190Y-47414285D01*
X20641190Y-47414285D02*
X21022142Y-47414285D01*
X21022142Y-47414285D02*
X21117380Y-47442857D01*
X21117380Y-47442857D02*
X21165000Y-47471428D01*
X21165000Y-47471428D02*
X21212619Y-47528571D01*
X21212619Y-47528571D02*
X21212619Y-47642857D01*
X21212619Y-47642857D02*
X21165000Y-47700000D01*
X21165000Y-47700000D02*
X21117380Y-47728571D01*
X21117380Y-47728571D02*
X21022142Y-47757142D01*
X21022142Y-47757142D02*
X20784047Y-47757142D01*
X20784047Y-47757142D02*
X20688809Y-47728571D01*
X20688809Y-47728571D02*
X20641190Y-47700000D01*
X20641190Y-47700000D02*
X20593571Y-47642857D01*
X20593571Y-47642857D02*
X20593571Y-47528571D01*
X20593571Y-47528571D02*
X20641190Y-47471428D01*
X20641190Y-47471428D02*
X20688809Y-47442857D01*
X20688809Y-47442857D02*
X20784047Y-47414285D01*
X19635714Y-3712619D02*
X19835714Y-3236428D01*
X19978571Y-3712619D02*
X19978571Y-2712619D01*
X19978571Y-2712619D02*
X19750000Y-2712619D01*
X19750000Y-2712619D02*
X19692857Y-2760238D01*
X19692857Y-2760238D02*
X19664286Y-2807857D01*
X19664286Y-2807857D02*
X19635714Y-2903095D01*
X19635714Y-2903095D02*
X19635714Y-3045952D01*
X19635714Y-3045952D02*
X19664286Y-3141190D01*
X19664286Y-3141190D02*
X19692857Y-3188809D01*
X19692857Y-3188809D02*
X19750000Y-3236428D01*
X19750000Y-3236428D02*
X19978571Y-3236428D01*
X19064286Y-3712619D02*
X19407143Y-3712619D01*
X19235714Y-3712619D02*
X19235714Y-2712619D01*
X19235714Y-2712619D02*
X19292857Y-2855476D01*
X19292857Y-2855476D02*
X19350000Y-2950714D01*
X19350000Y-2950714D02*
X19407143Y-2998333D01*
X18550000Y-2712619D02*
X18664285Y-2712619D01*
X18664285Y-2712619D02*
X18721428Y-2760238D01*
X18721428Y-2760238D02*
X18750000Y-2807857D01*
X18750000Y-2807857D02*
X18807142Y-2950714D01*
X18807142Y-2950714D02*
X18835714Y-3141190D01*
X18835714Y-3141190D02*
X18835714Y-3522142D01*
X18835714Y-3522142D02*
X18807142Y-3617380D01*
X18807142Y-3617380D02*
X18778571Y-3665000D01*
X18778571Y-3665000D02*
X18721428Y-3712619D01*
X18721428Y-3712619D02*
X18607142Y-3712619D01*
X18607142Y-3712619D02*
X18550000Y-3665000D01*
X18550000Y-3665000D02*
X18521428Y-3617380D01*
X18521428Y-3617380D02*
X18492857Y-3522142D01*
X18492857Y-3522142D02*
X18492857Y-3284047D01*
X18492857Y-3284047D02*
X18521428Y-3188809D01*
X18521428Y-3188809D02*
X18550000Y-3141190D01*
X18550000Y-3141190D02*
X18607142Y-3093571D01*
X18607142Y-3093571D02*
X18721428Y-3093571D01*
X18721428Y-3093571D02*
X18778571Y-3141190D01*
X18778571Y-3141190D02*
X18807142Y-3188809D01*
X18807142Y-3188809D02*
X18835714Y-3284047D01*
X20565714Y-9847619D02*
X20765714Y-9371428D01*
X20908571Y-9847619D02*
X20908571Y-8847619D01*
X20908571Y-8847619D02*
X20680000Y-8847619D01*
X20680000Y-8847619D02*
X20622857Y-8895238D01*
X20622857Y-8895238D02*
X20594286Y-8942857D01*
X20594286Y-8942857D02*
X20565714Y-9038095D01*
X20565714Y-9038095D02*
X20565714Y-9180952D01*
X20565714Y-9180952D02*
X20594286Y-9276190D01*
X20594286Y-9276190D02*
X20622857Y-9323809D01*
X20622857Y-9323809D02*
X20680000Y-9371428D01*
X20680000Y-9371428D02*
X20908571Y-9371428D01*
X19994286Y-9847619D02*
X20337143Y-9847619D01*
X20165714Y-9847619D02*
X20165714Y-8847619D01*
X20165714Y-8847619D02*
X20222857Y-8990476D01*
X20222857Y-8990476D02*
X20280000Y-9085714D01*
X20280000Y-9085714D02*
X20337143Y-9133333D01*
X19794285Y-8847619D02*
X19394285Y-8847619D01*
X19394285Y-8847619D02*
X19651428Y-9847619D01*
X21012380Y-26139285D02*
X21060000Y-26110713D01*
X21060000Y-26110713D02*
X21107619Y-26024999D01*
X21107619Y-26024999D02*
X21107619Y-25967856D01*
X21107619Y-25967856D02*
X21060000Y-25882142D01*
X21060000Y-25882142D02*
X20964761Y-25824999D01*
X20964761Y-25824999D02*
X20869523Y-25796428D01*
X20869523Y-25796428D02*
X20679047Y-25767856D01*
X20679047Y-25767856D02*
X20536190Y-25767856D01*
X20536190Y-25767856D02*
X20345714Y-25796428D01*
X20345714Y-25796428D02*
X20250476Y-25824999D01*
X20250476Y-25824999D02*
X20155238Y-25882142D01*
X20155238Y-25882142D02*
X20107619Y-25967856D01*
X20107619Y-25967856D02*
X20107619Y-26024999D01*
X20107619Y-26024999D02*
X20155238Y-26110713D01*
X20155238Y-26110713D02*
X20202857Y-26139285D01*
X20107619Y-26339285D02*
X20107619Y-26710713D01*
X20107619Y-26710713D02*
X20488571Y-26510713D01*
X20488571Y-26510713D02*
X20488571Y-26596428D01*
X20488571Y-26596428D02*
X20536190Y-26653571D01*
X20536190Y-26653571D02*
X20583809Y-26682142D01*
X20583809Y-26682142D02*
X20679047Y-26710713D01*
X20679047Y-26710713D02*
X20917142Y-26710713D01*
X20917142Y-26710713D02*
X21012380Y-26682142D01*
X21012380Y-26682142D02*
X21060000Y-26653571D01*
X21060000Y-26653571D02*
X21107619Y-26596428D01*
X21107619Y-26596428D02*
X21107619Y-26424999D01*
X21107619Y-26424999D02*
X21060000Y-26367856D01*
X21060000Y-26367856D02*
X21012380Y-26339285D01*
X20107619Y-26910714D02*
X20107619Y-27282142D01*
X20107619Y-27282142D02*
X20488571Y-27082142D01*
X20488571Y-27082142D02*
X20488571Y-27167857D01*
X20488571Y-27167857D02*
X20536190Y-27225000D01*
X20536190Y-27225000D02*
X20583809Y-27253571D01*
X20583809Y-27253571D02*
X20679047Y-27282142D01*
X20679047Y-27282142D02*
X20917142Y-27282142D01*
X20917142Y-27282142D02*
X21012380Y-27253571D01*
X21012380Y-27253571D02*
X21060000Y-27225000D01*
X21060000Y-27225000D02*
X21107619Y-27167857D01*
X21107619Y-27167857D02*
X21107619Y-26996428D01*
X21107619Y-26996428D02*
X21060000Y-26939285D01*
X21060000Y-26939285D02*
X21012380Y-26910714D01*
X11207142Y-8712619D02*
X11207142Y-9522142D01*
X11207142Y-9522142D02*
X11178571Y-9617380D01*
X11178571Y-9617380D02*
X11150000Y-9665000D01*
X11150000Y-9665000D02*
X11092857Y-9712619D01*
X11092857Y-9712619D02*
X10978571Y-9712619D01*
X10978571Y-9712619D02*
X10921428Y-9665000D01*
X10921428Y-9665000D02*
X10892857Y-9617380D01*
X10892857Y-9617380D02*
X10864285Y-9522142D01*
X10864285Y-9522142D02*
X10864285Y-8712619D01*
X10607143Y-8807857D02*
X10578571Y-8760238D01*
X10578571Y-8760238D02*
X10521429Y-8712619D01*
X10521429Y-8712619D02*
X10378571Y-8712619D01*
X10378571Y-8712619D02*
X10321429Y-8760238D01*
X10321429Y-8760238D02*
X10292857Y-8807857D01*
X10292857Y-8807857D02*
X10264286Y-8903095D01*
X10264286Y-8903095D02*
X10264286Y-8998333D01*
X10264286Y-8998333D02*
X10292857Y-9141190D01*
X10292857Y-9141190D02*
X10635714Y-9712619D01*
X10635714Y-9712619D02*
X10264286Y-9712619D01*
X64785714Y-56667380D02*
X64814286Y-56715000D01*
X64814286Y-56715000D02*
X64900000Y-56762619D01*
X64900000Y-56762619D02*
X64957143Y-56762619D01*
X64957143Y-56762619D02*
X65042857Y-56715000D01*
X65042857Y-56715000D02*
X65100000Y-56619761D01*
X65100000Y-56619761D02*
X65128571Y-56524523D01*
X65128571Y-56524523D02*
X65157143Y-56334047D01*
X65157143Y-56334047D02*
X65157143Y-56191190D01*
X65157143Y-56191190D02*
X65128571Y-56000714D01*
X65128571Y-56000714D02*
X65100000Y-55905476D01*
X65100000Y-55905476D02*
X65042857Y-55810238D01*
X65042857Y-55810238D02*
X64957143Y-55762619D01*
X64957143Y-55762619D02*
X64900000Y-55762619D01*
X64900000Y-55762619D02*
X64814286Y-55810238D01*
X64814286Y-55810238D02*
X64785714Y-55857857D01*
X64271429Y-56095952D02*
X64271429Y-56762619D01*
X64414286Y-55715000D02*
X64557143Y-56429285D01*
X64557143Y-56429285D02*
X64185714Y-56429285D01*
X64014285Y-55762619D02*
X63614285Y-55762619D01*
X63614285Y-55762619D02*
X63871428Y-56762619D01*
X18250000Y-14512619D02*
X18250000Y-15226904D01*
X18250000Y-15226904D02*
X18278571Y-15369761D01*
X18278571Y-15369761D02*
X18335714Y-15465000D01*
X18335714Y-15465000D02*
X18421428Y-15512619D01*
X18421428Y-15512619D02*
X18478571Y-15512619D01*
X17964285Y-15512619D02*
X17964285Y-14512619D01*
X17964285Y-14512619D02*
X17735714Y-14512619D01*
X17735714Y-14512619D02*
X17678571Y-14560238D01*
X17678571Y-14560238D02*
X17650000Y-14607857D01*
X17650000Y-14607857D02*
X17621428Y-14703095D01*
X17621428Y-14703095D02*
X17621428Y-14845952D01*
X17621428Y-14845952D02*
X17650000Y-14941190D01*
X17650000Y-14941190D02*
X17678571Y-14988809D01*
X17678571Y-14988809D02*
X17735714Y-15036428D01*
X17735714Y-15036428D02*
X17964285Y-15036428D01*
X17392857Y-14607857D02*
X17364285Y-14560238D01*
X17364285Y-14560238D02*
X17307143Y-14512619D01*
X17307143Y-14512619D02*
X17164285Y-14512619D01*
X17164285Y-14512619D02*
X17107143Y-14560238D01*
X17107143Y-14560238D02*
X17078571Y-14607857D01*
X17078571Y-14607857D02*
X17050000Y-14703095D01*
X17050000Y-14703095D02*
X17050000Y-14798333D01*
X17050000Y-14798333D02*
X17078571Y-14941190D01*
X17078571Y-14941190D02*
X17421428Y-15512619D01*
X17421428Y-15512619D02*
X17050000Y-15512619D01*
X16837142Y-8697857D02*
X16894285Y-8650238D01*
X16894285Y-8650238D02*
X16951428Y-8555000D01*
X16951428Y-8555000D02*
X17037142Y-8412142D01*
X17037142Y-8412142D02*
X17094285Y-8364523D01*
X17094285Y-8364523D02*
X17151428Y-8364523D01*
X17122857Y-8602619D02*
X17180000Y-8555000D01*
X17180000Y-8555000D02*
X17237142Y-8459761D01*
X17237142Y-8459761D02*
X17265714Y-8269285D01*
X17265714Y-8269285D02*
X17265714Y-7935952D01*
X17265714Y-7935952D02*
X17237142Y-7745476D01*
X17237142Y-7745476D02*
X17180000Y-7650238D01*
X17180000Y-7650238D02*
X17122857Y-7602619D01*
X17122857Y-7602619D02*
X17008571Y-7602619D01*
X17008571Y-7602619D02*
X16951428Y-7650238D01*
X16951428Y-7650238D02*
X16894285Y-7745476D01*
X16894285Y-7745476D02*
X16865714Y-7935952D01*
X16865714Y-7935952D02*
X16865714Y-8269285D01*
X16865714Y-8269285D02*
X16894285Y-8459761D01*
X16894285Y-8459761D02*
X16951428Y-8555000D01*
X16951428Y-8555000D02*
X17008571Y-8602619D01*
X17008571Y-8602619D02*
X17122857Y-8602619D01*
X16522857Y-8031190D02*
X16580000Y-7983571D01*
X16580000Y-7983571D02*
X16608571Y-7935952D01*
X16608571Y-7935952D02*
X16637143Y-7840714D01*
X16637143Y-7840714D02*
X16637143Y-7793095D01*
X16637143Y-7793095D02*
X16608571Y-7697857D01*
X16608571Y-7697857D02*
X16580000Y-7650238D01*
X16580000Y-7650238D02*
X16522857Y-7602619D01*
X16522857Y-7602619D02*
X16408571Y-7602619D01*
X16408571Y-7602619D02*
X16351429Y-7650238D01*
X16351429Y-7650238D02*
X16322857Y-7697857D01*
X16322857Y-7697857D02*
X16294286Y-7793095D01*
X16294286Y-7793095D02*
X16294286Y-7840714D01*
X16294286Y-7840714D02*
X16322857Y-7935952D01*
X16322857Y-7935952D02*
X16351429Y-7983571D01*
X16351429Y-7983571D02*
X16408571Y-8031190D01*
X16408571Y-8031190D02*
X16522857Y-8031190D01*
X16522857Y-8031190D02*
X16580000Y-8078809D01*
X16580000Y-8078809D02*
X16608571Y-8126428D01*
X16608571Y-8126428D02*
X16637143Y-8221666D01*
X16637143Y-8221666D02*
X16637143Y-8412142D01*
X16637143Y-8412142D02*
X16608571Y-8507380D01*
X16608571Y-8507380D02*
X16580000Y-8555000D01*
X16580000Y-8555000D02*
X16522857Y-8602619D01*
X16522857Y-8602619D02*
X16408571Y-8602619D01*
X16408571Y-8602619D02*
X16351429Y-8555000D01*
X16351429Y-8555000D02*
X16322857Y-8507380D01*
X16322857Y-8507380D02*
X16294286Y-8412142D01*
X16294286Y-8412142D02*
X16294286Y-8221666D01*
X16294286Y-8221666D02*
X16322857Y-8126428D01*
X16322857Y-8126428D02*
X16351429Y-8078809D01*
X16351429Y-8078809D02*
X16408571Y-8031190D01*
X11707142Y-5212619D02*
X11707142Y-6022142D01*
X11707142Y-6022142D02*
X11678571Y-6117380D01*
X11678571Y-6117380D02*
X11650000Y-6165000D01*
X11650000Y-6165000D02*
X11592857Y-6212619D01*
X11592857Y-6212619D02*
X11478571Y-6212619D01*
X11478571Y-6212619D02*
X11421428Y-6165000D01*
X11421428Y-6165000D02*
X11392857Y-6117380D01*
X11392857Y-6117380D02*
X11364285Y-6022142D01*
X11364285Y-6022142D02*
X11364285Y-5212619D01*
X10821429Y-5545952D02*
X10821429Y-6212619D01*
X10964286Y-5165000D02*
X11107143Y-5879285D01*
X11107143Y-5879285D02*
X10735714Y-5879285D01*
X19635714Y-4962619D02*
X19835714Y-4486428D01*
X19978571Y-4962619D02*
X19978571Y-3962619D01*
X19978571Y-3962619D02*
X19750000Y-3962619D01*
X19750000Y-3962619D02*
X19692857Y-4010238D01*
X19692857Y-4010238D02*
X19664286Y-4057857D01*
X19664286Y-4057857D02*
X19635714Y-4153095D01*
X19635714Y-4153095D02*
X19635714Y-4295952D01*
X19635714Y-4295952D02*
X19664286Y-4391190D01*
X19664286Y-4391190D02*
X19692857Y-4438809D01*
X19692857Y-4438809D02*
X19750000Y-4486428D01*
X19750000Y-4486428D02*
X19978571Y-4486428D01*
X19064286Y-4962619D02*
X19407143Y-4962619D01*
X19235714Y-4962619D02*
X19235714Y-3962619D01*
X19235714Y-3962619D02*
X19292857Y-4105476D01*
X19292857Y-4105476D02*
X19350000Y-4200714D01*
X19350000Y-4200714D02*
X19407143Y-4248333D01*
X18521428Y-3962619D02*
X18807142Y-3962619D01*
X18807142Y-3962619D02*
X18835714Y-4438809D01*
X18835714Y-4438809D02*
X18807142Y-4391190D01*
X18807142Y-4391190D02*
X18750000Y-4343571D01*
X18750000Y-4343571D02*
X18607142Y-4343571D01*
X18607142Y-4343571D02*
X18550000Y-4391190D01*
X18550000Y-4391190D02*
X18521428Y-4438809D01*
X18521428Y-4438809D02*
X18492857Y-4534047D01*
X18492857Y-4534047D02*
X18492857Y-4772142D01*
X18492857Y-4772142D02*
X18521428Y-4867380D01*
X18521428Y-4867380D02*
X18550000Y-4915000D01*
X18550000Y-4915000D02*
X18607142Y-4962619D01*
X18607142Y-4962619D02*
X18750000Y-4962619D01*
X18750000Y-4962619D02*
X18807142Y-4915000D01*
X18807142Y-4915000D02*
X18835714Y-4867380D01*
X24867380Y-43114285D02*
X24915000Y-43085713D01*
X24915000Y-43085713D02*
X24962619Y-42999999D01*
X24962619Y-42999999D02*
X24962619Y-42942856D01*
X24962619Y-42942856D02*
X24915000Y-42857142D01*
X24915000Y-42857142D02*
X24819761Y-42799999D01*
X24819761Y-42799999D02*
X24724523Y-42771428D01*
X24724523Y-42771428D02*
X24534047Y-42742856D01*
X24534047Y-42742856D02*
X24391190Y-42742856D01*
X24391190Y-42742856D02*
X24200714Y-42771428D01*
X24200714Y-42771428D02*
X24105476Y-42799999D01*
X24105476Y-42799999D02*
X24010238Y-42857142D01*
X24010238Y-42857142D02*
X23962619Y-42942856D01*
X23962619Y-42942856D02*
X23962619Y-42999999D01*
X23962619Y-42999999D02*
X24010238Y-43085713D01*
X24010238Y-43085713D02*
X24057857Y-43114285D01*
X24057857Y-43342856D02*
X24010238Y-43371428D01*
X24010238Y-43371428D02*
X23962619Y-43428571D01*
X23962619Y-43428571D02*
X23962619Y-43571428D01*
X23962619Y-43571428D02*
X24010238Y-43628571D01*
X24010238Y-43628571D02*
X24057857Y-43657142D01*
X24057857Y-43657142D02*
X24153095Y-43685713D01*
X24153095Y-43685713D02*
X24248333Y-43685713D01*
X24248333Y-43685713D02*
X24391190Y-43657142D01*
X24391190Y-43657142D02*
X24962619Y-43314285D01*
X24962619Y-43314285D02*
X24962619Y-43685713D01*
X23962619Y-43885714D02*
X23962619Y-44285714D01*
X23962619Y-44285714D02*
X24962619Y-44028571D01*
X20095714Y-37162619D02*
X20295714Y-36686428D01*
X20438571Y-37162619D02*
X20438571Y-36162619D01*
X20438571Y-36162619D02*
X20210000Y-36162619D01*
X20210000Y-36162619D02*
X20152857Y-36210238D01*
X20152857Y-36210238D02*
X20124286Y-36257857D01*
X20124286Y-36257857D02*
X20095714Y-36353095D01*
X20095714Y-36353095D02*
X20095714Y-36495952D01*
X20095714Y-36495952D02*
X20124286Y-36591190D01*
X20124286Y-36591190D02*
X20152857Y-36638809D01*
X20152857Y-36638809D02*
X20210000Y-36686428D01*
X20210000Y-36686428D02*
X20438571Y-36686428D01*
X19524286Y-37162619D02*
X19867143Y-37162619D01*
X19695714Y-37162619D02*
X19695714Y-36162619D01*
X19695714Y-36162619D02*
X19752857Y-36305476D01*
X19752857Y-36305476D02*
X19810000Y-36400714D01*
X19810000Y-36400714D02*
X19867143Y-36448333D01*
X19324285Y-36162619D02*
X18952857Y-36162619D01*
X18952857Y-36162619D02*
X19152857Y-36543571D01*
X19152857Y-36543571D02*
X19067142Y-36543571D01*
X19067142Y-36543571D02*
X19010000Y-36591190D01*
X19010000Y-36591190D02*
X18981428Y-36638809D01*
X18981428Y-36638809D02*
X18952857Y-36734047D01*
X18952857Y-36734047D02*
X18952857Y-36972142D01*
X18952857Y-36972142D02*
X18981428Y-37067380D01*
X18981428Y-37067380D02*
X19010000Y-37115000D01*
X19010000Y-37115000D02*
X19067142Y-37162619D01*
X19067142Y-37162619D02*
X19238571Y-37162619D01*
X19238571Y-37162619D02*
X19295714Y-37115000D01*
X19295714Y-37115000D02*
X19324285Y-37067380D01*
X7712619Y-9114285D02*
X7236428Y-8914285D01*
X7712619Y-8771428D02*
X6712619Y-8771428D01*
X6712619Y-8771428D02*
X6712619Y-8999999D01*
X6712619Y-8999999D02*
X6760238Y-9057142D01*
X6760238Y-9057142D02*
X6807857Y-9085713D01*
X6807857Y-9085713D02*
X6903095Y-9114285D01*
X6903095Y-9114285D02*
X7045952Y-9114285D01*
X7045952Y-9114285D02*
X7141190Y-9085713D01*
X7141190Y-9085713D02*
X7188809Y-9057142D01*
X7188809Y-9057142D02*
X7236428Y-8999999D01*
X7236428Y-8999999D02*
X7236428Y-8771428D01*
X6807857Y-9342856D02*
X6760238Y-9371428D01*
X6760238Y-9371428D02*
X6712619Y-9428571D01*
X6712619Y-9428571D02*
X6712619Y-9571428D01*
X6712619Y-9571428D02*
X6760238Y-9628571D01*
X6760238Y-9628571D02*
X6807857Y-9657142D01*
X6807857Y-9657142D02*
X6903095Y-9685713D01*
X6903095Y-9685713D02*
X6998333Y-9685713D01*
X6998333Y-9685713D02*
X7141190Y-9657142D01*
X7141190Y-9657142D02*
X7712619Y-9314285D01*
X7712619Y-9314285D02*
X7712619Y-9685713D01*
X6712619Y-10057142D02*
X6712619Y-10114285D01*
X6712619Y-10114285D02*
X6760238Y-10171428D01*
X6760238Y-10171428D02*
X6807857Y-10200000D01*
X6807857Y-10200000D02*
X6903095Y-10228571D01*
X6903095Y-10228571D02*
X7093571Y-10257142D01*
X7093571Y-10257142D02*
X7331666Y-10257142D01*
X7331666Y-10257142D02*
X7522142Y-10228571D01*
X7522142Y-10228571D02*
X7617380Y-10200000D01*
X7617380Y-10200000D02*
X7665000Y-10171428D01*
X7665000Y-10171428D02*
X7712619Y-10114285D01*
X7712619Y-10114285D02*
X7712619Y-10057142D01*
X7712619Y-10057142D02*
X7665000Y-10000000D01*
X7665000Y-10000000D02*
X7617380Y-9971428D01*
X7617380Y-9971428D02*
X7522142Y-9942857D01*
X7522142Y-9942857D02*
X7331666Y-9914285D01*
X7331666Y-9914285D02*
X7093571Y-9914285D01*
X7093571Y-9914285D02*
X6903095Y-9942857D01*
X6903095Y-9942857D02*
X6807857Y-9971428D01*
X6807857Y-9971428D02*
X6760238Y-10000000D01*
X6760238Y-10000000D02*
X6712619Y-10057142D01*
X20105714Y-35482619D02*
X20305714Y-35006428D01*
X20448571Y-35482619D02*
X20448571Y-34482619D01*
X20448571Y-34482619D02*
X20220000Y-34482619D01*
X20220000Y-34482619D02*
X20162857Y-34530238D01*
X20162857Y-34530238D02*
X20134286Y-34577857D01*
X20134286Y-34577857D02*
X20105714Y-34673095D01*
X20105714Y-34673095D02*
X20105714Y-34815952D01*
X20105714Y-34815952D02*
X20134286Y-34911190D01*
X20134286Y-34911190D02*
X20162857Y-34958809D01*
X20162857Y-34958809D02*
X20220000Y-35006428D01*
X20220000Y-35006428D02*
X20448571Y-35006428D01*
X19534286Y-35482619D02*
X19877143Y-35482619D01*
X19705714Y-35482619D02*
X19705714Y-34482619D01*
X19705714Y-34482619D02*
X19762857Y-34625476D01*
X19762857Y-34625476D02*
X19820000Y-34720714D01*
X19820000Y-34720714D02*
X19877143Y-34768333D01*
X19020000Y-34815952D02*
X19020000Y-35482619D01*
X19162857Y-34435000D02*
X19305714Y-35149285D01*
X19305714Y-35149285D02*
X18934285Y-35149285D01*
X64785714Y-60567380D02*
X64814286Y-60615000D01*
X64814286Y-60615000D02*
X64900000Y-60662619D01*
X64900000Y-60662619D02*
X64957143Y-60662619D01*
X64957143Y-60662619D02*
X65042857Y-60615000D01*
X65042857Y-60615000D02*
X65100000Y-60519761D01*
X65100000Y-60519761D02*
X65128571Y-60424523D01*
X65128571Y-60424523D02*
X65157143Y-60234047D01*
X65157143Y-60234047D02*
X65157143Y-60091190D01*
X65157143Y-60091190D02*
X65128571Y-59900714D01*
X65128571Y-59900714D02*
X65100000Y-59805476D01*
X65100000Y-59805476D02*
X65042857Y-59710238D01*
X65042857Y-59710238D02*
X64957143Y-59662619D01*
X64957143Y-59662619D02*
X64900000Y-59662619D01*
X64900000Y-59662619D02*
X64814286Y-59710238D01*
X64814286Y-59710238D02*
X64785714Y-59757857D01*
X64271429Y-59995952D02*
X64271429Y-60662619D01*
X64414286Y-59615000D02*
X64557143Y-60329285D01*
X64557143Y-60329285D02*
X64185714Y-60329285D01*
X63985714Y-59757857D02*
X63957142Y-59710238D01*
X63957142Y-59710238D02*
X63900000Y-59662619D01*
X63900000Y-59662619D02*
X63757142Y-59662619D01*
X63757142Y-59662619D02*
X63700000Y-59710238D01*
X63700000Y-59710238D02*
X63671428Y-59757857D01*
X63671428Y-59757857D02*
X63642857Y-59853095D01*
X63642857Y-59853095D02*
X63642857Y-59948333D01*
X63642857Y-59948333D02*
X63671428Y-60091190D01*
X63671428Y-60091190D02*
X64014285Y-60662619D01*
X64014285Y-60662619D02*
X63642857Y-60662619D01*
X32071914Y-50193780D02*
X32100486Y-50241400D01*
X32100486Y-50241400D02*
X32186200Y-50289019D01*
X32186200Y-50289019D02*
X32243343Y-50289019D01*
X32243343Y-50289019D02*
X32329057Y-50241400D01*
X32329057Y-50241400D02*
X32386200Y-50146161D01*
X32386200Y-50146161D02*
X32414771Y-50050923D01*
X32414771Y-50050923D02*
X32443343Y-49860447D01*
X32443343Y-49860447D02*
X32443343Y-49717590D01*
X32443343Y-49717590D02*
X32414771Y-49527114D01*
X32414771Y-49527114D02*
X32386200Y-49431876D01*
X32386200Y-49431876D02*
X32329057Y-49336638D01*
X32329057Y-49336638D02*
X32243343Y-49289019D01*
X32243343Y-49289019D02*
X32186200Y-49289019D01*
X32186200Y-49289019D02*
X32100486Y-49336638D01*
X32100486Y-49336638D02*
X32071914Y-49384257D01*
X31871914Y-49289019D02*
X31500486Y-49289019D01*
X31500486Y-49289019D02*
X31700486Y-49669971D01*
X31700486Y-49669971D02*
X31614771Y-49669971D01*
X31614771Y-49669971D02*
X31557629Y-49717590D01*
X31557629Y-49717590D02*
X31529057Y-49765209D01*
X31529057Y-49765209D02*
X31500486Y-49860447D01*
X31500486Y-49860447D02*
X31500486Y-50098542D01*
X31500486Y-50098542D02*
X31529057Y-50193780D01*
X31529057Y-50193780D02*
X31557629Y-50241400D01*
X31557629Y-50241400D02*
X31614771Y-50289019D01*
X31614771Y-50289019D02*
X31786200Y-50289019D01*
X31786200Y-50289019D02*
X31843343Y-50241400D01*
X31843343Y-50241400D02*
X31871914Y-50193780D01*
X30929057Y-50289019D02*
X31271914Y-50289019D01*
X31100485Y-50289019D02*
X31100485Y-49289019D01*
X31100485Y-49289019D02*
X31157628Y-49431876D01*
X31157628Y-49431876D02*
X31214771Y-49527114D01*
X31214771Y-49527114D02*
X31271914Y-49574733D01*
X9617380Y-9650000D02*
X9665000Y-9621428D01*
X9665000Y-9621428D02*
X9712619Y-9535714D01*
X9712619Y-9535714D02*
X9712619Y-9478571D01*
X9712619Y-9478571D02*
X9665000Y-9392857D01*
X9665000Y-9392857D02*
X9569761Y-9335714D01*
X9569761Y-9335714D02*
X9474523Y-9307143D01*
X9474523Y-9307143D02*
X9284047Y-9278571D01*
X9284047Y-9278571D02*
X9141190Y-9278571D01*
X9141190Y-9278571D02*
X8950714Y-9307143D01*
X8950714Y-9307143D02*
X8855476Y-9335714D01*
X8855476Y-9335714D02*
X8760238Y-9392857D01*
X8760238Y-9392857D02*
X8712619Y-9478571D01*
X8712619Y-9478571D02*
X8712619Y-9535714D01*
X8712619Y-9535714D02*
X8760238Y-9621428D01*
X8760238Y-9621428D02*
X8807857Y-9650000D01*
X8712619Y-9850000D02*
X8712619Y-10250000D01*
X8712619Y-10250000D02*
X9712619Y-9992857D01*
X53487380Y-34424285D02*
X53535000Y-34395713D01*
X53535000Y-34395713D02*
X53582619Y-34309999D01*
X53582619Y-34309999D02*
X53582619Y-34252856D01*
X53582619Y-34252856D02*
X53535000Y-34167142D01*
X53535000Y-34167142D02*
X53439761Y-34109999D01*
X53439761Y-34109999D02*
X53344523Y-34081428D01*
X53344523Y-34081428D02*
X53154047Y-34052856D01*
X53154047Y-34052856D02*
X53011190Y-34052856D01*
X53011190Y-34052856D02*
X52820714Y-34081428D01*
X52820714Y-34081428D02*
X52725476Y-34109999D01*
X52725476Y-34109999D02*
X52630238Y-34167142D01*
X52630238Y-34167142D02*
X52582619Y-34252856D01*
X52582619Y-34252856D02*
X52582619Y-34309999D01*
X52582619Y-34309999D02*
X52630238Y-34395713D01*
X52630238Y-34395713D02*
X52677857Y-34424285D01*
X52677857Y-34652856D02*
X52630238Y-34681428D01*
X52630238Y-34681428D02*
X52582619Y-34738571D01*
X52582619Y-34738571D02*
X52582619Y-34881428D01*
X52582619Y-34881428D02*
X52630238Y-34938571D01*
X52630238Y-34938571D02*
X52677857Y-34967142D01*
X52677857Y-34967142D02*
X52773095Y-34995713D01*
X52773095Y-34995713D02*
X52868333Y-34995713D01*
X52868333Y-34995713D02*
X53011190Y-34967142D01*
X53011190Y-34967142D02*
X53582619Y-34624285D01*
X53582619Y-34624285D02*
X53582619Y-34995713D01*
X52582619Y-35195714D02*
X52582619Y-35567142D01*
X52582619Y-35567142D02*
X52963571Y-35367142D01*
X52963571Y-35367142D02*
X52963571Y-35452857D01*
X52963571Y-35452857D02*
X53011190Y-35510000D01*
X53011190Y-35510000D02*
X53058809Y-35538571D01*
X53058809Y-35538571D02*
X53154047Y-35567142D01*
X53154047Y-35567142D02*
X53392142Y-35567142D01*
X53392142Y-35567142D02*
X53487380Y-35538571D01*
X53487380Y-35538571D02*
X53535000Y-35510000D01*
X53535000Y-35510000D02*
X53582619Y-35452857D01*
X53582619Y-35452857D02*
X53582619Y-35281428D01*
X53582619Y-35281428D02*
X53535000Y-35224285D01*
X53535000Y-35224285D02*
X53487380Y-35195714D01*
X64785714Y-59267380D02*
X64814286Y-59315000D01*
X64814286Y-59315000D02*
X64900000Y-59362619D01*
X64900000Y-59362619D02*
X64957143Y-59362619D01*
X64957143Y-59362619D02*
X65042857Y-59315000D01*
X65042857Y-59315000D02*
X65100000Y-59219761D01*
X65100000Y-59219761D02*
X65128571Y-59124523D01*
X65128571Y-59124523D02*
X65157143Y-58934047D01*
X65157143Y-58934047D02*
X65157143Y-58791190D01*
X65157143Y-58791190D02*
X65128571Y-58600714D01*
X65128571Y-58600714D02*
X65100000Y-58505476D01*
X65100000Y-58505476D02*
X65042857Y-58410238D01*
X65042857Y-58410238D02*
X64957143Y-58362619D01*
X64957143Y-58362619D02*
X64900000Y-58362619D01*
X64900000Y-58362619D02*
X64814286Y-58410238D01*
X64814286Y-58410238D02*
X64785714Y-58457857D01*
X64271429Y-58695952D02*
X64271429Y-59362619D01*
X64414286Y-58315000D02*
X64557143Y-59029285D01*
X64557143Y-59029285D02*
X64185714Y-59029285D01*
X63700000Y-58695952D02*
X63700000Y-59362619D01*
X63842857Y-58315000D02*
X63985714Y-59029285D01*
X63985714Y-59029285D02*
X63614285Y-59029285D01*
X27817714Y-49787380D02*
X27846286Y-49835000D01*
X27846286Y-49835000D02*
X27932000Y-49882619D01*
X27932000Y-49882619D02*
X27989143Y-49882619D01*
X27989143Y-49882619D02*
X28074857Y-49835000D01*
X28074857Y-49835000D02*
X28132000Y-49739761D01*
X28132000Y-49739761D02*
X28160571Y-49644523D01*
X28160571Y-49644523D02*
X28189143Y-49454047D01*
X28189143Y-49454047D02*
X28189143Y-49311190D01*
X28189143Y-49311190D02*
X28160571Y-49120714D01*
X28160571Y-49120714D02*
X28132000Y-49025476D01*
X28132000Y-49025476D02*
X28074857Y-48930238D01*
X28074857Y-48930238D02*
X27989143Y-48882619D01*
X27989143Y-48882619D02*
X27932000Y-48882619D01*
X27932000Y-48882619D02*
X27846286Y-48930238D01*
X27846286Y-48930238D02*
X27817714Y-48977857D01*
X27617714Y-48882619D02*
X27246286Y-48882619D01*
X27246286Y-48882619D02*
X27446286Y-49263571D01*
X27446286Y-49263571D02*
X27360571Y-49263571D01*
X27360571Y-49263571D02*
X27303429Y-49311190D01*
X27303429Y-49311190D02*
X27274857Y-49358809D01*
X27274857Y-49358809D02*
X27246286Y-49454047D01*
X27246286Y-49454047D02*
X27246286Y-49692142D01*
X27246286Y-49692142D02*
X27274857Y-49787380D01*
X27274857Y-49787380D02*
X27303429Y-49835000D01*
X27303429Y-49835000D02*
X27360571Y-49882619D01*
X27360571Y-49882619D02*
X27532000Y-49882619D01*
X27532000Y-49882619D02*
X27589143Y-49835000D01*
X27589143Y-49835000D02*
X27617714Y-49787380D01*
X26874857Y-48882619D02*
X26817714Y-48882619D01*
X26817714Y-48882619D02*
X26760571Y-48930238D01*
X26760571Y-48930238D02*
X26732000Y-48977857D01*
X26732000Y-48977857D02*
X26703428Y-49073095D01*
X26703428Y-49073095D02*
X26674857Y-49263571D01*
X26674857Y-49263571D02*
X26674857Y-49501666D01*
X26674857Y-49501666D02*
X26703428Y-49692142D01*
X26703428Y-49692142D02*
X26732000Y-49787380D01*
X26732000Y-49787380D02*
X26760571Y-49835000D01*
X26760571Y-49835000D02*
X26817714Y-49882619D01*
X26817714Y-49882619D02*
X26874857Y-49882619D01*
X26874857Y-49882619D02*
X26932000Y-49835000D01*
X26932000Y-49835000D02*
X26960571Y-49787380D01*
X26960571Y-49787380D02*
X26989142Y-49692142D01*
X26989142Y-49692142D02*
X27017714Y-49501666D01*
X27017714Y-49501666D02*
X27017714Y-49263571D01*
X27017714Y-49263571D02*
X26989142Y-49073095D01*
X26989142Y-49073095D02*
X26960571Y-48977857D01*
X26960571Y-48977857D02*
X26932000Y-48930238D01*
X26932000Y-48930238D02*
X26874857Y-48882619D01*
X18885714Y-16867380D02*
X18914286Y-16915000D01*
X18914286Y-16915000D02*
X19000000Y-16962619D01*
X19000000Y-16962619D02*
X19057143Y-16962619D01*
X19057143Y-16962619D02*
X19142857Y-16915000D01*
X19142857Y-16915000D02*
X19200000Y-16819761D01*
X19200000Y-16819761D02*
X19228571Y-16724523D01*
X19228571Y-16724523D02*
X19257143Y-16534047D01*
X19257143Y-16534047D02*
X19257143Y-16391190D01*
X19257143Y-16391190D02*
X19228571Y-16200714D01*
X19228571Y-16200714D02*
X19200000Y-16105476D01*
X19200000Y-16105476D02*
X19142857Y-16010238D01*
X19142857Y-16010238D02*
X19057143Y-15962619D01*
X19057143Y-15962619D02*
X19000000Y-15962619D01*
X19000000Y-15962619D02*
X18914286Y-16010238D01*
X18914286Y-16010238D02*
X18885714Y-16057857D01*
X18657143Y-16057857D02*
X18628571Y-16010238D01*
X18628571Y-16010238D02*
X18571429Y-15962619D01*
X18571429Y-15962619D02*
X18428571Y-15962619D01*
X18428571Y-15962619D02*
X18371429Y-16010238D01*
X18371429Y-16010238D02*
X18342857Y-16057857D01*
X18342857Y-16057857D02*
X18314286Y-16153095D01*
X18314286Y-16153095D02*
X18314286Y-16248333D01*
X18314286Y-16248333D02*
X18342857Y-16391190D01*
X18342857Y-16391190D02*
X18685714Y-16962619D01*
X18685714Y-16962619D02*
X18314286Y-16962619D01*
X17971428Y-16391190D02*
X18028571Y-16343571D01*
X18028571Y-16343571D02*
X18057142Y-16295952D01*
X18057142Y-16295952D02*
X18085714Y-16200714D01*
X18085714Y-16200714D02*
X18085714Y-16153095D01*
X18085714Y-16153095D02*
X18057142Y-16057857D01*
X18057142Y-16057857D02*
X18028571Y-16010238D01*
X18028571Y-16010238D02*
X17971428Y-15962619D01*
X17971428Y-15962619D02*
X17857142Y-15962619D01*
X17857142Y-15962619D02*
X17800000Y-16010238D01*
X17800000Y-16010238D02*
X17771428Y-16057857D01*
X17771428Y-16057857D02*
X17742857Y-16153095D01*
X17742857Y-16153095D02*
X17742857Y-16200714D01*
X17742857Y-16200714D02*
X17771428Y-16295952D01*
X17771428Y-16295952D02*
X17800000Y-16343571D01*
X17800000Y-16343571D02*
X17857142Y-16391190D01*
X17857142Y-16391190D02*
X17971428Y-16391190D01*
X17971428Y-16391190D02*
X18028571Y-16438809D01*
X18028571Y-16438809D02*
X18057142Y-16486428D01*
X18057142Y-16486428D02*
X18085714Y-16581666D01*
X18085714Y-16581666D02*
X18085714Y-16772142D01*
X18085714Y-16772142D02*
X18057142Y-16867380D01*
X18057142Y-16867380D02*
X18028571Y-16915000D01*
X18028571Y-16915000D02*
X17971428Y-16962619D01*
X17971428Y-16962619D02*
X17857142Y-16962619D01*
X17857142Y-16962619D02*
X17800000Y-16915000D01*
X17800000Y-16915000D02*
X17771428Y-16867380D01*
X17771428Y-16867380D02*
X17742857Y-16772142D01*
X17742857Y-16772142D02*
X17742857Y-16581666D01*
X17742857Y-16581666D02*
X17771428Y-16486428D01*
X17771428Y-16486428D02*
X17800000Y-16438809D01*
X17800000Y-16438809D02*
X17857142Y-16391190D01*
X54435714Y-59747380D02*
X54464286Y-59795000D01*
X54464286Y-59795000D02*
X54550000Y-59842619D01*
X54550000Y-59842619D02*
X54607143Y-59842619D01*
X54607143Y-59842619D02*
X54692857Y-59795000D01*
X54692857Y-59795000D02*
X54750000Y-59699761D01*
X54750000Y-59699761D02*
X54778571Y-59604523D01*
X54778571Y-59604523D02*
X54807143Y-59414047D01*
X54807143Y-59414047D02*
X54807143Y-59271190D01*
X54807143Y-59271190D02*
X54778571Y-59080714D01*
X54778571Y-59080714D02*
X54750000Y-58985476D01*
X54750000Y-58985476D02*
X54692857Y-58890238D01*
X54692857Y-58890238D02*
X54607143Y-58842619D01*
X54607143Y-58842619D02*
X54550000Y-58842619D01*
X54550000Y-58842619D02*
X54464286Y-58890238D01*
X54464286Y-58890238D02*
X54435714Y-58937857D01*
X54235714Y-58842619D02*
X53864286Y-58842619D01*
X53864286Y-58842619D02*
X54064286Y-59223571D01*
X54064286Y-59223571D02*
X53978571Y-59223571D01*
X53978571Y-59223571D02*
X53921429Y-59271190D01*
X53921429Y-59271190D02*
X53892857Y-59318809D01*
X53892857Y-59318809D02*
X53864286Y-59414047D01*
X53864286Y-59414047D02*
X53864286Y-59652142D01*
X53864286Y-59652142D02*
X53892857Y-59747380D01*
X53892857Y-59747380D02*
X53921429Y-59795000D01*
X53921429Y-59795000D02*
X53978571Y-59842619D01*
X53978571Y-59842619D02*
X54150000Y-59842619D01*
X54150000Y-59842619D02*
X54207143Y-59795000D01*
X54207143Y-59795000D02*
X54235714Y-59747380D01*
X53521428Y-59271190D02*
X53578571Y-59223571D01*
X53578571Y-59223571D02*
X53607142Y-59175952D01*
X53607142Y-59175952D02*
X53635714Y-59080714D01*
X53635714Y-59080714D02*
X53635714Y-59033095D01*
X53635714Y-59033095D02*
X53607142Y-58937857D01*
X53607142Y-58937857D02*
X53578571Y-58890238D01*
X53578571Y-58890238D02*
X53521428Y-58842619D01*
X53521428Y-58842619D02*
X53407142Y-58842619D01*
X53407142Y-58842619D02*
X53350000Y-58890238D01*
X53350000Y-58890238D02*
X53321428Y-58937857D01*
X53321428Y-58937857D02*
X53292857Y-59033095D01*
X53292857Y-59033095D02*
X53292857Y-59080714D01*
X53292857Y-59080714D02*
X53321428Y-59175952D01*
X53321428Y-59175952D02*
X53350000Y-59223571D01*
X53350000Y-59223571D02*
X53407142Y-59271190D01*
X53407142Y-59271190D02*
X53521428Y-59271190D01*
X53521428Y-59271190D02*
X53578571Y-59318809D01*
X53578571Y-59318809D02*
X53607142Y-59366428D01*
X53607142Y-59366428D02*
X53635714Y-59461666D01*
X53635714Y-59461666D02*
X53635714Y-59652142D01*
X53635714Y-59652142D02*
X53607142Y-59747380D01*
X53607142Y-59747380D02*
X53578571Y-59795000D01*
X53578571Y-59795000D02*
X53521428Y-59842619D01*
X53521428Y-59842619D02*
X53407142Y-59842619D01*
X53407142Y-59842619D02*
X53350000Y-59795000D01*
X53350000Y-59795000D02*
X53321428Y-59747380D01*
X53321428Y-59747380D02*
X53292857Y-59652142D01*
X53292857Y-59652142D02*
X53292857Y-59461666D01*
X53292857Y-59461666D02*
X53321428Y-59366428D01*
X53321428Y-59366428D02*
X53350000Y-59318809D01*
X53350000Y-59318809D02*
X53407142Y-59271190D01*
X60355951Y-57156666D02*
X59594047Y-57156666D01*
X59974999Y-57537619D02*
X59974999Y-56775714D01*
X21032619Y-21962857D02*
X21842142Y-21962857D01*
X21842142Y-21962857D02*
X21937380Y-21991428D01*
X21937380Y-21991428D02*
X21985000Y-22020000D01*
X21985000Y-22020000D02*
X22032619Y-22077142D01*
X22032619Y-22077142D02*
X22032619Y-22191428D01*
X22032619Y-22191428D02*
X21985000Y-22248571D01*
X21985000Y-22248571D02*
X21937380Y-22277142D01*
X21937380Y-22277142D02*
X21842142Y-22305714D01*
X21842142Y-22305714D02*
X21032619Y-22305714D01*
X22032619Y-22619999D02*
X22032619Y-22734285D01*
X22032619Y-22734285D02*
X21985000Y-22791428D01*
X21985000Y-22791428D02*
X21937380Y-22819999D01*
X21937380Y-22819999D02*
X21794523Y-22877142D01*
X21794523Y-22877142D02*
X21604047Y-22905713D01*
X21604047Y-22905713D02*
X21223095Y-22905713D01*
X21223095Y-22905713D02*
X21127857Y-22877142D01*
X21127857Y-22877142D02*
X21080238Y-22848571D01*
X21080238Y-22848571D02*
X21032619Y-22791428D01*
X21032619Y-22791428D02*
X21032619Y-22677142D01*
X21032619Y-22677142D02*
X21080238Y-22619999D01*
X21080238Y-22619999D02*
X21127857Y-22591428D01*
X21127857Y-22591428D02*
X21223095Y-22562856D01*
X21223095Y-22562856D02*
X21461190Y-22562856D01*
X21461190Y-22562856D02*
X21556428Y-22591428D01*
X21556428Y-22591428D02*
X21604047Y-22619999D01*
X21604047Y-22619999D02*
X21651666Y-22677142D01*
X21651666Y-22677142D02*
X21651666Y-22791428D01*
X21651666Y-22791428D02*
X21604047Y-22848571D01*
X21604047Y-22848571D02*
X21556428Y-22877142D01*
X21556428Y-22877142D02*
X21461190Y-22905713D01*
X39807142Y-10807857D02*
X39864285Y-10760238D01*
X39864285Y-10760238D02*
X39921428Y-10665000D01*
X39921428Y-10665000D02*
X40007142Y-10522142D01*
X40007142Y-10522142D02*
X40064285Y-10474523D01*
X40064285Y-10474523D02*
X40121428Y-10474523D01*
X40092857Y-10712619D02*
X40150000Y-10665000D01*
X40150000Y-10665000D02*
X40207142Y-10569761D01*
X40207142Y-10569761D02*
X40235714Y-10379285D01*
X40235714Y-10379285D02*
X40235714Y-10045952D01*
X40235714Y-10045952D02*
X40207142Y-9855476D01*
X40207142Y-9855476D02*
X40150000Y-9760238D01*
X40150000Y-9760238D02*
X40092857Y-9712619D01*
X40092857Y-9712619D02*
X39978571Y-9712619D01*
X39978571Y-9712619D02*
X39921428Y-9760238D01*
X39921428Y-9760238D02*
X39864285Y-9855476D01*
X39864285Y-9855476D02*
X39835714Y-10045952D01*
X39835714Y-10045952D02*
X39835714Y-10379285D01*
X39835714Y-10379285D02*
X39864285Y-10569761D01*
X39864285Y-10569761D02*
X39921428Y-10665000D01*
X39921428Y-10665000D02*
X39978571Y-10712619D01*
X39978571Y-10712619D02*
X40092857Y-10712619D01*
X39550000Y-10712619D02*
X39435714Y-10712619D01*
X39435714Y-10712619D02*
X39378571Y-10665000D01*
X39378571Y-10665000D02*
X39350000Y-10617380D01*
X39350000Y-10617380D02*
X39292857Y-10474523D01*
X39292857Y-10474523D02*
X39264286Y-10284047D01*
X39264286Y-10284047D02*
X39264286Y-9903095D01*
X39264286Y-9903095D02*
X39292857Y-9807857D01*
X39292857Y-9807857D02*
X39321429Y-9760238D01*
X39321429Y-9760238D02*
X39378571Y-9712619D01*
X39378571Y-9712619D02*
X39492857Y-9712619D01*
X39492857Y-9712619D02*
X39550000Y-9760238D01*
X39550000Y-9760238D02*
X39578571Y-9807857D01*
X39578571Y-9807857D02*
X39607143Y-9903095D01*
X39607143Y-9903095D02*
X39607143Y-10141190D01*
X39607143Y-10141190D02*
X39578571Y-10236428D01*
X39578571Y-10236428D02*
X39550000Y-10284047D01*
X39550000Y-10284047D02*
X39492857Y-10331666D01*
X39492857Y-10331666D02*
X39378571Y-10331666D01*
X39378571Y-10331666D02*
X39321429Y-10284047D01*
X39321429Y-10284047D02*
X39292857Y-10236428D01*
X39292857Y-10236428D02*
X39264286Y-10141190D01*
X22842619Y-42960000D02*
X22842619Y-42674286D01*
X22842619Y-42674286D02*
X21842619Y-42674286D01*
X22175952Y-43417143D02*
X22842619Y-43417143D01*
X21795000Y-43274285D02*
X22509285Y-43131428D01*
X22509285Y-43131428D02*
X22509285Y-43502857D01*
X35367380Y-47364285D02*
X35415000Y-47335713D01*
X35415000Y-47335713D02*
X35462619Y-47249999D01*
X35462619Y-47249999D02*
X35462619Y-47192856D01*
X35462619Y-47192856D02*
X35415000Y-47107142D01*
X35415000Y-47107142D02*
X35319761Y-47049999D01*
X35319761Y-47049999D02*
X35224523Y-47021428D01*
X35224523Y-47021428D02*
X35034047Y-46992856D01*
X35034047Y-46992856D02*
X34891190Y-46992856D01*
X34891190Y-46992856D02*
X34700714Y-47021428D01*
X34700714Y-47021428D02*
X34605476Y-47049999D01*
X34605476Y-47049999D02*
X34510238Y-47107142D01*
X34510238Y-47107142D02*
X34462619Y-47192856D01*
X34462619Y-47192856D02*
X34462619Y-47249999D01*
X34462619Y-47249999D02*
X34510238Y-47335713D01*
X34510238Y-47335713D02*
X34557857Y-47364285D01*
X34462619Y-47564285D02*
X34462619Y-47935713D01*
X34462619Y-47935713D02*
X34843571Y-47735713D01*
X34843571Y-47735713D02*
X34843571Y-47821428D01*
X34843571Y-47821428D02*
X34891190Y-47878571D01*
X34891190Y-47878571D02*
X34938809Y-47907142D01*
X34938809Y-47907142D02*
X35034047Y-47935713D01*
X35034047Y-47935713D02*
X35272142Y-47935713D01*
X35272142Y-47935713D02*
X35367380Y-47907142D01*
X35367380Y-47907142D02*
X35415000Y-47878571D01*
X35415000Y-47878571D02*
X35462619Y-47821428D01*
X35462619Y-47821428D02*
X35462619Y-47649999D01*
X35462619Y-47649999D02*
X35415000Y-47592856D01*
X35415000Y-47592856D02*
X35367380Y-47564285D01*
X34462619Y-48450000D02*
X34462619Y-48335714D01*
X34462619Y-48335714D02*
X34510238Y-48278571D01*
X34510238Y-48278571D02*
X34557857Y-48250000D01*
X34557857Y-48250000D02*
X34700714Y-48192857D01*
X34700714Y-48192857D02*
X34891190Y-48164285D01*
X34891190Y-48164285D02*
X35272142Y-48164285D01*
X35272142Y-48164285D02*
X35367380Y-48192857D01*
X35367380Y-48192857D02*
X35415000Y-48221428D01*
X35415000Y-48221428D02*
X35462619Y-48278571D01*
X35462619Y-48278571D02*
X35462619Y-48392857D01*
X35462619Y-48392857D02*
X35415000Y-48450000D01*
X35415000Y-48450000D02*
X35367380Y-48478571D01*
X35367380Y-48478571D02*
X35272142Y-48507142D01*
X35272142Y-48507142D02*
X35034047Y-48507142D01*
X35034047Y-48507142D02*
X34938809Y-48478571D01*
X34938809Y-48478571D02*
X34891190Y-48450000D01*
X34891190Y-48450000D02*
X34843571Y-48392857D01*
X34843571Y-48392857D02*
X34843571Y-48278571D01*
X34843571Y-48278571D02*
X34891190Y-48221428D01*
X34891190Y-48221428D02*
X34938809Y-48192857D01*
X34938809Y-48192857D02*
X35034047Y-48164285D01*
X23665714Y-16892619D02*
X23865714Y-16416428D01*
X24008571Y-16892619D02*
X24008571Y-15892619D01*
X24008571Y-15892619D02*
X23780000Y-15892619D01*
X23780000Y-15892619D02*
X23722857Y-15940238D01*
X23722857Y-15940238D02*
X23694286Y-15987857D01*
X23694286Y-15987857D02*
X23665714Y-16083095D01*
X23665714Y-16083095D02*
X23665714Y-16225952D01*
X23665714Y-16225952D02*
X23694286Y-16321190D01*
X23694286Y-16321190D02*
X23722857Y-16368809D01*
X23722857Y-16368809D02*
X23780000Y-16416428D01*
X23780000Y-16416428D02*
X24008571Y-16416428D01*
X23437143Y-15987857D02*
X23408571Y-15940238D01*
X23408571Y-15940238D02*
X23351429Y-15892619D01*
X23351429Y-15892619D02*
X23208571Y-15892619D01*
X23208571Y-15892619D02*
X23151429Y-15940238D01*
X23151429Y-15940238D02*
X23122857Y-15987857D01*
X23122857Y-15987857D02*
X23094286Y-16083095D01*
X23094286Y-16083095D02*
X23094286Y-16178333D01*
X23094286Y-16178333D02*
X23122857Y-16321190D01*
X23122857Y-16321190D02*
X23465714Y-16892619D01*
X23465714Y-16892619D02*
X23094286Y-16892619D01*
X22551428Y-15892619D02*
X22837142Y-15892619D01*
X22837142Y-15892619D02*
X22865714Y-16368809D01*
X22865714Y-16368809D02*
X22837142Y-16321190D01*
X22837142Y-16321190D02*
X22780000Y-16273571D01*
X22780000Y-16273571D02*
X22637142Y-16273571D01*
X22637142Y-16273571D02*
X22580000Y-16321190D01*
X22580000Y-16321190D02*
X22551428Y-16368809D01*
X22551428Y-16368809D02*
X22522857Y-16464047D01*
X22522857Y-16464047D02*
X22522857Y-16702142D01*
X22522857Y-16702142D02*
X22551428Y-16797380D01*
X22551428Y-16797380D02*
X22580000Y-16845000D01*
X22580000Y-16845000D02*
X22637142Y-16892619D01*
X22637142Y-16892619D02*
X22780000Y-16892619D01*
X22780000Y-16892619D02*
X22837142Y-16845000D01*
X22837142Y-16845000D02*
X22865714Y-16797380D01*
X17207380Y-39860000D02*
X17255000Y-39831428D01*
X17255000Y-39831428D02*
X17302619Y-39745714D01*
X17302619Y-39745714D02*
X17302619Y-39688571D01*
X17302619Y-39688571D02*
X17255000Y-39602857D01*
X17255000Y-39602857D02*
X17159761Y-39545714D01*
X17159761Y-39545714D02*
X17064523Y-39517143D01*
X17064523Y-39517143D02*
X16874047Y-39488571D01*
X16874047Y-39488571D02*
X16731190Y-39488571D01*
X16731190Y-39488571D02*
X16540714Y-39517143D01*
X16540714Y-39517143D02*
X16445476Y-39545714D01*
X16445476Y-39545714D02*
X16350238Y-39602857D01*
X16350238Y-39602857D02*
X16302619Y-39688571D01*
X16302619Y-39688571D02*
X16302619Y-39745714D01*
X16302619Y-39745714D02*
X16350238Y-39831428D01*
X16350238Y-39831428D02*
X16397857Y-39860000D01*
X16731190Y-40202857D02*
X16683571Y-40145714D01*
X16683571Y-40145714D02*
X16635952Y-40117143D01*
X16635952Y-40117143D02*
X16540714Y-40088571D01*
X16540714Y-40088571D02*
X16493095Y-40088571D01*
X16493095Y-40088571D02*
X16397857Y-40117143D01*
X16397857Y-40117143D02*
X16350238Y-40145714D01*
X16350238Y-40145714D02*
X16302619Y-40202857D01*
X16302619Y-40202857D02*
X16302619Y-40317143D01*
X16302619Y-40317143D02*
X16350238Y-40374286D01*
X16350238Y-40374286D02*
X16397857Y-40402857D01*
X16397857Y-40402857D02*
X16493095Y-40431428D01*
X16493095Y-40431428D02*
X16540714Y-40431428D01*
X16540714Y-40431428D02*
X16635952Y-40402857D01*
X16635952Y-40402857D02*
X16683571Y-40374286D01*
X16683571Y-40374286D02*
X16731190Y-40317143D01*
X16731190Y-40317143D02*
X16731190Y-40202857D01*
X16731190Y-40202857D02*
X16778809Y-40145714D01*
X16778809Y-40145714D02*
X16826428Y-40117143D01*
X16826428Y-40117143D02*
X16921666Y-40088571D01*
X16921666Y-40088571D02*
X17112142Y-40088571D01*
X17112142Y-40088571D02*
X17207380Y-40117143D01*
X17207380Y-40117143D02*
X17255000Y-40145714D01*
X17255000Y-40145714D02*
X17302619Y-40202857D01*
X17302619Y-40202857D02*
X17302619Y-40317143D01*
X17302619Y-40317143D02*
X17255000Y-40374286D01*
X17255000Y-40374286D02*
X17207380Y-40402857D01*
X17207380Y-40402857D02*
X17112142Y-40431428D01*
X17112142Y-40431428D02*
X16921666Y-40431428D01*
X16921666Y-40431428D02*
X16826428Y-40402857D01*
X16826428Y-40402857D02*
X16778809Y-40374286D01*
X16778809Y-40374286D02*
X16731190Y-40317143D01*
X36617380Y-47364285D02*
X36665000Y-47335713D01*
X36665000Y-47335713D02*
X36712619Y-47249999D01*
X36712619Y-47249999D02*
X36712619Y-47192856D01*
X36712619Y-47192856D02*
X36665000Y-47107142D01*
X36665000Y-47107142D02*
X36569761Y-47049999D01*
X36569761Y-47049999D02*
X36474523Y-47021428D01*
X36474523Y-47021428D02*
X36284047Y-46992856D01*
X36284047Y-46992856D02*
X36141190Y-46992856D01*
X36141190Y-46992856D02*
X35950714Y-47021428D01*
X35950714Y-47021428D02*
X35855476Y-47049999D01*
X35855476Y-47049999D02*
X35760238Y-47107142D01*
X35760238Y-47107142D02*
X35712619Y-47192856D01*
X35712619Y-47192856D02*
X35712619Y-47249999D01*
X35712619Y-47249999D02*
X35760238Y-47335713D01*
X35760238Y-47335713D02*
X35807857Y-47364285D01*
X35712619Y-47907142D02*
X35712619Y-47621428D01*
X35712619Y-47621428D02*
X36188809Y-47592856D01*
X36188809Y-47592856D02*
X36141190Y-47621428D01*
X36141190Y-47621428D02*
X36093571Y-47678571D01*
X36093571Y-47678571D02*
X36093571Y-47821428D01*
X36093571Y-47821428D02*
X36141190Y-47878571D01*
X36141190Y-47878571D02*
X36188809Y-47907142D01*
X36188809Y-47907142D02*
X36284047Y-47935713D01*
X36284047Y-47935713D02*
X36522142Y-47935713D01*
X36522142Y-47935713D02*
X36617380Y-47907142D01*
X36617380Y-47907142D02*
X36665000Y-47878571D01*
X36665000Y-47878571D02*
X36712619Y-47821428D01*
X36712619Y-47821428D02*
X36712619Y-47678571D01*
X36712619Y-47678571D02*
X36665000Y-47621428D01*
X36665000Y-47621428D02*
X36617380Y-47592856D01*
X35712619Y-48135714D02*
X35712619Y-48507142D01*
X35712619Y-48507142D02*
X36093571Y-48307142D01*
X36093571Y-48307142D02*
X36093571Y-48392857D01*
X36093571Y-48392857D02*
X36141190Y-48450000D01*
X36141190Y-48450000D02*
X36188809Y-48478571D01*
X36188809Y-48478571D02*
X36284047Y-48507142D01*
X36284047Y-48507142D02*
X36522142Y-48507142D01*
X36522142Y-48507142D02*
X36617380Y-48478571D01*
X36617380Y-48478571D02*
X36665000Y-48450000D01*
X36665000Y-48450000D02*
X36712619Y-48392857D01*
X36712619Y-48392857D02*
X36712619Y-48221428D01*
X36712619Y-48221428D02*
X36665000Y-48164285D01*
X36665000Y-48164285D02*
X36617380Y-48135714D01*
X25037142Y-47612619D02*
X25037142Y-48422142D01*
X25037142Y-48422142D02*
X25008571Y-48517380D01*
X25008571Y-48517380D02*
X24980000Y-48565000D01*
X24980000Y-48565000D02*
X24922857Y-48612619D01*
X24922857Y-48612619D02*
X24808571Y-48612619D01*
X24808571Y-48612619D02*
X24751428Y-48565000D01*
X24751428Y-48565000D02*
X24722857Y-48517380D01*
X24722857Y-48517380D02*
X24694285Y-48422142D01*
X24694285Y-48422142D02*
X24694285Y-47612619D01*
X24465714Y-47612619D02*
X24065714Y-47612619D01*
X24065714Y-47612619D02*
X24322857Y-48612619D01*
X27842856Y-11057857D02*
X27899999Y-11010238D01*
X27899999Y-11010238D02*
X27957142Y-10915000D01*
X27957142Y-10915000D02*
X28042856Y-10772142D01*
X28042856Y-10772142D02*
X28099999Y-10724523D01*
X28099999Y-10724523D02*
X28157142Y-10724523D01*
X28128571Y-10962619D02*
X28185714Y-10915000D01*
X28185714Y-10915000D02*
X28242856Y-10819761D01*
X28242856Y-10819761D02*
X28271428Y-10629285D01*
X28271428Y-10629285D02*
X28271428Y-10295952D01*
X28271428Y-10295952D02*
X28242856Y-10105476D01*
X28242856Y-10105476D02*
X28185714Y-10010238D01*
X28185714Y-10010238D02*
X28128571Y-9962619D01*
X28128571Y-9962619D02*
X28014285Y-9962619D01*
X28014285Y-9962619D02*
X27957142Y-10010238D01*
X27957142Y-10010238D02*
X27899999Y-10105476D01*
X27899999Y-10105476D02*
X27871428Y-10295952D01*
X27871428Y-10295952D02*
X27871428Y-10629285D01*
X27871428Y-10629285D02*
X27899999Y-10819761D01*
X27899999Y-10819761D02*
X27957142Y-10915000D01*
X27957142Y-10915000D02*
X28014285Y-10962619D01*
X28014285Y-10962619D02*
X28128571Y-10962619D01*
X27300000Y-10962619D02*
X27642857Y-10962619D01*
X27471428Y-10962619D02*
X27471428Y-9962619D01*
X27471428Y-9962619D02*
X27528571Y-10105476D01*
X27528571Y-10105476D02*
X27585714Y-10200714D01*
X27585714Y-10200714D02*
X27642857Y-10248333D01*
X26928571Y-9962619D02*
X26871428Y-9962619D01*
X26871428Y-9962619D02*
X26814285Y-10010238D01*
X26814285Y-10010238D02*
X26785714Y-10057857D01*
X26785714Y-10057857D02*
X26757142Y-10153095D01*
X26757142Y-10153095D02*
X26728571Y-10343571D01*
X26728571Y-10343571D02*
X26728571Y-10581666D01*
X26728571Y-10581666D02*
X26757142Y-10772142D01*
X26757142Y-10772142D02*
X26785714Y-10867380D01*
X26785714Y-10867380D02*
X26814285Y-10915000D01*
X26814285Y-10915000D02*
X26871428Y-10962619D01*
X26871428Y-10962619D02*
X26928571Y-10962619D01*
X26928571Y-10962619D02*
X26985714Y-10915000D01*
X26985714Y-10915000D02*
X27014285Y-10867380D01*
X27014285Y-10867380D02*
X27042856Y-10772142D01*
X27042856Y-10772142D02*
X27071428Y-10581666D01*
X27071428Y-10581666D02*
X27071428Y-10343571D01*
X27071428Y-10343571D02*
X27042856Y-10153095D01*
X27042856Y-10153095D02*
X27014285Y-10057857D01*
X27014285Y-10057857D02*
X26985714Y-10010238D01*
X26985714Y-10010238D02*
X26928571Y-9962619D01*
X15049999Y-31732619D02*
X15249999Y-31256428D01*
X15392856Y-31732619D02*
X15392856Y-30732619D01*
X15392856Y-30732619D02*
X15164285Y-30732619D01*
X15164285Y-30732619D02*
X15107142Y-30780238D01*
X15107142Y-30780238D02*
X15078571Y-30827857D01*
X15078571Y-30827857D02*
X15049999Y-30923095D01*
X15049999Y-30923095D02*
X15049999Y-31065952D01*
X15049999Y-31065952D02*
X15078571Y-31161190D01*
X15078571Y-31161190D02*
X15107142Y-31208809D01*
X15107142Y-31208809D02*
X15164285Y-31256428D01*
X15164285Y-31256428D02*
X15392856Y-31256428D01*
X14478571Y-31732619D02*
X14821428Y-31732619D01*
X14649999Y-31732619D02*
X14649999Y-30732619D01*
X14649999Y-30732619D02*
X14707142Y-30875476D01*
X14707142Y-30875476D02*
X14764285Y-30970714D01*
X14764285Y-30970714D02*
X14821428Y-31018333D01*
X12327142Y-38457857D02*
X12384285Y-38410238D01*
X12384285Y-38410238D02*
X12441428Y-38315000D01*
X12441428Y-38315000D02*
X12527142Y-38172142D01*
X12527142Y-38172142D02*
X12584285Y-38124523D01*
X12584285Y-38124523D02*
X12641428Y-38124523D01*
X12612857Y-38362619D02*
X12670000Y-38315000D01*
X12670000Y-38315000D02*
X12727142Y-38219761D01*
X12727142Y-38219761D02*
X12755714Y-38029285D01*
X12755714Y-38029285D02*
X12755714Y-37695952D01*
X12755714Y-37695952D02*
X12727142Y-37505476D01*
X12727142Y-37505476D02*
X12670000Y-37410238D01*
X12670000Y-37410238D02*
X12612857Y-37362619D01*
X12612857Y-37362619D02*
X12498571Y-37362619D01*
X12498571Y-37362619D02*
X12441428Y-37410238D01*
X12441428Y-37410238D02*
X12384285Y-37505476D01*
X12384285Y-37505476D02*
X12355714Y-37695952D01*
X12355714Y-37695952D02*
X12355714Y-38029285D01*
X12355714Y-38029285D02*
X12384285Y-38219761D01*
X12384285Y-38219761D02*
X12441428Y-38315000D01*
X12441428Y-38315000D02*
X12498571Y-38362619D01*
X12498571Y-38362619D02*
X12612857Y-38362619D01*
X11841429Y-37695952D02*
X11841429Y-38362619D01*
X11984286Y-37315000D02*
X12127143Y-38029285D01*
X12127143Y-38029285D02*
X11755714Y-38029285D01*
D11*
X21500000Y-11300000D02*
X20850000Y-11300000D01*
X21500000Y-11300000D02*
X22150000Y-11300000D01*
X21500000Y-14420000D02*
X19825000Y-14420000D01*
X21500000Y-14420000D02*
X22150000Y-14420000D01*
X60297500Y-64147500D02*
X56087500Y-64147500D01*
X60297500Y-61127500D02*
X60297500Y-64147500D01*
X56087500Y-61127500D02*
X60297500Y-61127500D01*
X26450000Y-31750000D02*
G75*
G03*
X26450000Y-31750000I-700000J0D01*
G01*
X15073641Y-29250000D02*
X14766359Y-29250000D01*
X15073641Y-28490000D02*
X14766359Y-28490000D01*
X10200000Y-53000000D02*
G75*
G03*
X10200000Y-53000000I-700000J0D01*
G01*
X60890000Y-35017836D02*
X60890000Y-34802164D01*
X61610000Y-35017836D02*
X61610000Y-34802164D01*
X43770000Y-54930000D02*
X43770000Y-53430000D01*
X44770000Y-54930000D02*
X43770000Y-54930000D01*
X62820000Y-54930000D02*
X62820000Y-55330000D01*
X62820000Y-54930000D02*
X69620000Y-54930000D01*
X69620000Y-54930000D02*
X69620000Y-36530000D01*
X43770000Y-36530000D02*
X43770000Y-38030000D01*
X43770000Y-36530000D02*
X44770000Y-36530000D01*
X69620000Y-36530000D02*
X63420000Y-36530000D01*
X26450000Y-39250000D02*
G75*
G03*
X26450000Y-39250000I-700000J0D01*
G01*
X17640000Y-18107836D02*
X17640000Y-17892164D01*
X18360000Y-18107836D02*
X18360000Y-17892164D01*
X19140000Y-24857836D02*
X19140000Y-24642164D01*
X19860000Y-24857836D02*
X19860000Y-24642164D01*
X36876400Y-42045836D02*
X36876400Y-41830164D01*
X37596400Y-42045836D02*
X37596400Y-41830164D01*
X39700000Y-39250000D02*
G75*
G03*
X39700000Y-39250000I-700000J0D01*
G01*
X20380000Y-17846359D02*
X20380000Y-18153641D01*
X19620000Y-17846359D02*
X19620000Y-18153641D01*
X51950000Y-15750000D02*
G75*
G03*
X51950000Y-15750000I-700000J0D01*
G01*
X14390000Y-11607836D02*
X14390000Y-11392164D01*
X15110000Y-11607836D02*
X15110000Y-11392164D01*
X17640000Y-24857836D02*
X17640000Y-24642164D01*
X18360000Y-24857836D02*
X18360000Y-24642164D01*
X61267164Y-56615000D02*
X61482836Y-56615000D01*
X61267164Y-57335000D02*
X61482836Y-57335000D01*
X14900000Y-41720000D02*
X15550000Y-41720000D01*
X14900000Y-41720000D02*
X14250000Y-41720000D01*
X14900000Y-38600000D02*
X16575000Y-38600000D01*
X14900000Y-38600000D02*
X14250000Y-38600000D01*
X5640000Y-12107836D02*
X5640000Y-11892164D01*
X6360000Y-12107836D02*
X6360000Y-11892164D01*
X29773200Y-45314064D02*
X29773200Y-45529736D01*
X29053200Y-45314064D02*
X29053200Y-45529736D01*
X40153641Y-9130000D02*
X39846359Y-9130000D01*
X40153641Y-8370000D02*
X39846359Y-8370000D01*
X11127836Y-4860000D02*
X10912164Y-4860000D01*
X11127836Y-4140000D02*
X10912164Y-4140000D01*
X60310000Y-67560000D02*
X56100000Y-67560000D01*
X60310000Y-64540000D02*
X60310000Y-67560000D01*
X56100000Y-64540000D02*
X60310000Y-64540000D01*
X22700000Y-4500000D02*
G75*
G03*
X22700000Y-4500000I-700000J0D01*
G01*
X33500200Y-45872400D02*
X33500200Y-45222400D01*
X33500200Y-45872400D02*
X33500200Y-46522400D01*
X30380200Y-45872400D02*
X30380200Y-44197400D01*
X30380200Y-45872400D02*
X30380200Y-46522400D01*
X48950000Y-6750000D02*
G75*
G03*
X48950000Y-6750000I-700000J0D01*
G01*
X64450000Y-11500000D02*
G75*
G03*
X64450000Y-11500000I-700000J0D01*
G01*
X45927836Y-35800000D02*
X45712164Y-35800000D01*
X45927836Y-35080000D02*
X45712164Y-35080000D01*
X20366400Y-45506636D02*
X20366400Y-45290964D01*
X21086400Y-45506636D02*
X21086400Y-45290964D01*
X17153641Y-3630000D02*
X16846359Y-3630000D01*
X17153641Y-2870000D02*
X16846359Y-2870000D01*
X20096359Y-10190000D02*
X20403641Y-10190000D01*
X20096359Y-10950000D02*
X20403641Y-10950000D01*
X20390000Y-24357836D02*
X20390000Y-24142164D01*
X21110000Y-24357836D02*
X21110000Y-24142164D01*
X12000000Y-9940000D02*
X11350000Y-9940000D01*
X12000000Y-9940000D02*
X12650000Y-9940000D01*
X12000000Y-13060000D02*
X10325000Y-13060000D01*
X12000000Y-13060000D02*
X12650000Y-13060000D01*
X61267164Y-55615000D02*
X61482836Y-55615000D01*
X61267164Y-56335000D02*
X61482836Y-56335000D01*
X10200000Y-49750000D02*
G75*
G03*
X10200000Y-49750000I-700000J0D01*
G01*
X16350000Y-12250000D02*
X16350000Y-14250000D01*
X16350000Y-14250000D02*
X19150000Y-14250000D01*
X19150000Y-12250000D02*
X16350000Y-12250000D01*
X19150000Y-14250000D02*
X19150000Y-12250000D01*
X14000000Y-6440000D02*
X13350000Y-6440000D01*
X14000000Y-6440000D02*
X14650000Y-6440000D01*
X14000000Y-9560000D02*
X12325000Y-9560000D01*
X14000000Y-9560000D02*
X14650000Y-9560000D01*
X14000000Y-6060000D02*
X14800000Y-6060000D01*
X14000000Y-6060000D02*
X13200000Y-6060000D01*
X14000000Y-2940000D02*
X15800000Y-2940000D01*
X14000000Y-2940000D02*
X13200000Y-2940000D01*
X17153641Y-4630000D02*
X16846359Y-4630000D01*
X17153641Y-3870000D02*
X16846359Y-3870000D01*
X65450000Y-32500000D02*
G75*
G03*
X65450000Y-32500000I-700000J0D01*
G01*
X24642400Y-45290964D02*
X24642400Y-45506636D01*
X23922400Y-45290964D02*
X23922400Y-45506636D01*
X36950000Y-18750000D02*
G75*
G03*
X36950000Y-18750000I-700000J0D01*
G01*
X18700000Y-31750000D02*
G75*
G03*
X18700000Y-31750000I-700000J0D01*
G01*
X17666359Y-36080000D02*
X17973641Y-36080000D01*
X17666359Y-36840000D02*
X17973641Y-36840000D01*
X6620000Y-12153641D02*
X6620000Y-11846359D01*
X7380000Y-12153641D02*
X7380000Y-11846359D01*
X17973641Y-35830000D02*
X17666359Y-35830000D01*
X17973641Y-35070000D02*
X17666359Y-35070000D01*
X61292164Y-58640000D02*
X61507836Y-58640000D01*
X61292164Y-59360000D02*
X61507836Y-59360000D01*
X31578364Y-48306400D02*
X31794036Y-48306400D01*
X31578364Y-49026400D02*
X31794036Y-49026400D01*
X64450000Y-15250000D02*
G75*
G03*
X64450000Y-15250000I-700000J0D01*
G01*
X9610000Y-11392164D02*
X9610000Y-11607836D01*
X8890000Y-11392164D02*
X8890000Y-11607836D01*
X54462000Y-34718164D02*
X54462000Y-34933836D01*
X53742000Y-34718164D02*
X53742000Y-34933836D01*
X61267164Y-57640000D02*
X61482836Y-57640000D01*
X61267164Y-58360000D02*
X61482836Y-58360000D01*
X27324164Y-47900000D02*
X27539836Y-47900000D01*
X27324164Y-48620000D02*
X27539836Y-48620000D01*
X39450000Y-21500000D02*
G75*
G03*
X39450000Y-21500000I-700000J0D01*
G01*
X29700000Y-25250000D02*
G75*
G03*
X29700000Y-25250000I-700000J0D01*
G01*
X18640000Y-18107836D02*
X18640000Y-17892164D01*
X19360000Y-18107836D02*
X19360000Y-17892164D01*
X60285000Y-60760000D02*
X56075000Y-60760000D01*
X60285000Y-57740000D02*
X60285000Y-60760000D01*
X56075000Y-57740000D02*
X60285000Y-57740000D01*
X20760000Y-21200000D02*
X20760000Y-20400000D01*
X20760000Y-21200000D02*
X20760000Y-22000000D01*
X17640000Y-21200000D02*
X17640000Y-19400000D01*
X17640000Y-21200000D02*
X17640000Y-22000000D01*
X37000000Y-11560000D02*
X37650000Y-11560000D01*
X37000000Y-11560000D02*
X36350000Y-11560000D01*
X37000000Y-8440000D02*
X38675000Y-8440000D01*
X37000000Y-8440000D02*
X36350000Y-8440000D01*
X21794400Y-46032052D02*
X21794400Y-45509548D01*
X23214400Y-46032052D02*
X23214400Y-45509548D01*
X64450000Y-18750000D02*
G75*
G03*
X64450000Y-18750000I-700000J0D01*
G01*
X26450000Y-41750000D02*
G75*
G03*
X26450000Y-41750000I-700000J0D01*
G01*
X21450000Y-31750000D02*
G75*
G03*
X21450000Y-31750000I-700000J0D01*
G01*
X34872200Y-45305064D02*
X34872200Y-45520736D01*
X34152200Y-45305064D02*
X34152200Y-45520736D01*
X48950000Y-9750000D02*
G75*
G03*
X48950000Y-9750000I-700000J0D01*
G01*
X24383641Y-15530000D02*
X24076359Y-15530000D01*
X24383641Y-14770000D02*
X24076359Y-14770000D01*
X39700000Y-44750000D02*
G75*
G03*
X39700000Y-44750000I-700000J0D01*
G01*
X18360000Y-39852164D02*
X18360000Y-40067836D01*
X17640000Y-39852164D02*
X17640000Y-40067836D01*
X36428000Y-45307364D02*
X36428000Y-45523036D01*
X35708000Y-45307364D02*
X35708000Y-45523036D01*
X28433200Y-45872400D02*
X28433200Y-45222400D01*
X28433200Y-45872400D02*
X28433200Y-46522400D01*
X25313200Y-45872400D02*
X25313200Y-44197400D01*
X25313200Y-45872400D02*
X25313200Y-46522400D01*
X25500000Y-11290000D02*
X24850000Y-11290000D01*
X25500000Y-11290000D02*
X26150000Y-11290000D01*
X25500000Y-14410000D02*
X23825000Y-14410000D01*
X25500000Y-14410000D02*
X26150000Y-14410000D01*
X48950000Y-13000000D02*
G75*
G03*
X48950000Y-13000000I-700000J0D01*
G01*
X21700000Y-39250000D02*
G75*
G03*
X21700000Y-39250000I-700000J0D01*
G01*
X39450000Y-25250000D02*
G75*
G03*
X39450000Y-25250000I-700000J0D01*
G01*
X14766359Y-29500000D02*
X15073641Y-29500000D01*
X14766359Y-30260000D02*
X15073641Y-30260000D01*
X32700000Y-42500000D02*
G75*
G03*
X32700000Y-42500000I-700000J0D01*
G01*
X14900000Y-38210000D02*
X15550000Y-38210000D01*
X14900000Y-38210000D02*
X14250000Y-38210000D01*
X14900000Y-35090000D02*
X16575000Y-35090000D01*
X14900000Y-35090000D02*
X14250000Y-35090000D01*
%LPC*%
D12*
X5000000Y-65000000D03*
D13*
X5000000Y-65000000D03*
D12*
X5000000Y-5000000D03*
D13*
X5000000Y-5000000D03*
D14*
X24000000Y-22000000D03*
X46000000Y-22000000D03*
D15*
X44600000Y-7000000D03*
X37400000Y-7000000D03*
X43250000Y-4500000D03*
X38750000Y-4500000D03*
X32600000Y-7000000D03*
X25400000Y-7000000D03*
X31250000Y-4500000D03*
X26750000Y-4500000D03*
D16*
X21500000Y-16625000D03*
X21500000Y-15375000D03*
D17*
X5960000Y-14500000D03*
D18*
X8500000Y-17040000D03*
X11040000Y-14500000D03*
D12*
X65000000Y-5000000D03*
D13*
X65000000Y-5000000D03*
D19*
X56725000Y-12075000D03*
D20*
X59265000Y-12075000D03*
X56725000Y-14615000D03*
X59265000Y-14615000D03*
X56725000Y-17155000D03*
X59265000Y-17155000D03*
X56725000Y-19695000D03*
X59265000Y-19695000D03*
X56725000Y-22235000D03*
X59265000Y-22235000D03*
X56725000Y-24775000D03*
X59265000Y-24775000D03*
X56725000Y-27315000D03*
X59265000Y-27315000D03*
X56725000Y-29855000D03*
X59265000Y-29855000D03*
X56725000Y-32395000D03*
X59265000Y-32395000D03*
X56725000Y-34935000D03*
X59265000Y-34935000D03*
D21*
X5100000Y-36610000D03*
X5100000Y-42390000D03*
D22*
X5630000Y-35180000D03*
D23*
X1450000Y-35180000D03*
D22*
X5630000Y-43820000D03*
D23*
X1450000Y-43820000D03*
D12*
X65000000Y-65000000D03*
D13*
X65000000Y-65000000D03*
D24*
X52690000Y-2460000D03*
D25*
X52690000Y-5000000D03*
D24*
X52690000Y-7540000D03*
X58405000Y-2460000D03*
X58405000Y-7540000D03*
D25*
X60310000Y-3984000D03*
X60310000Y-6016000D03*
D26*
X20562500Y-13810000D03*
X20562500Y-11910000D03*
X22437500Y-12860000D03*
D27*
X59375000Y-62637500D03*
X56300000Y-62637500D03*
D28*
X25750000Y-31750000D03*
D29*
X15430000Y-28870000D03*
X14410000Y-28870000D03*
D28*
X9500000Y-53000000D03*
D30*
X61250000Y-35390000D03*
X61250000Y-34430000D03*
D31*
X61980000Y-54480000D03*
X60710000Y-54480000D03*
X59440000Y-54480000D03*
X58170000Y-54480000D03*
X56900000Y-54480000D03*
X55630000Y-54480000D03*
X54360000Y-54480000D03*
X53090000Y-54480000D03*
X51820000Y-54480000D03*
X50550000Y-54480000D03*
X49280000Y-54480000D03*
X48010000Y-54480000D03*
X46740000Y-54480000D03*
X45470000Y-54480000D03*
D32*
X44220000Y-52715000D03*
X44220000Y-51445000D03*
X44220000Y-50175000D03*
X44220000Y-48905000D03*
X44220000Y-47635000D03*
X44220000Y-46365000D03*
X44220000Y-45095000D03*
X44220000Y-43825000D03*
X44220000Y-42555000D03*
X44220000Y-41285000D03*
X44220000Y-40015000D03*
X44220000Y-38745000D03*
D31*
X45470000Y-36980000D03*
X46740000Y-36980000D03*
X48010000Y-36980000D03*
X49280000Y-36980000D03*
X50550000Y-36980000D03*
X51820000Y-36980000D03*
X53090000Y-36980000D03*
X54360000Y-36980000D03*
X55630000Y-36980000D03*
X56900000Y-36980000D03*
X58170000Y-36980000D03*
X59440000Y-36980000D03*
X60710000Y-36980000D03*
X61980000Y-36980000D03*
D33*
X53560000Y-48630000D03*
X54960000Y-48630000D03*
X52860000Y-47930000D03*
X54260000Y-47930000D03*
X55660000Y-47930000D03*
X53560000Y-47230000D03*
D34*
X54260000Y-47230000D03*
D33*
X54960000Y-47230000D03*
X52860000Y-46530000D03*
X54260000Y-46530000D03*
X55660000Y-46530000D03*
X53560000Y-45830000D03*
X54960000Y-45830000D03*
D28*
X25750000Y-39250000D03*
D30*
X18000000Y-18480000D03*
X18000000Y-17520000D03*
X19500000Y-25230000D03*
X19500000Y-24270000D03*
X37236400Y-42418000D03*
X37236400Y-41458000D03*
D28*
X39000000Y-39250000D03*
D35*
X20000000Y-17490000D03*
X20000000Y-18510000D03*
D28*
X51250000Y-15750000D03*
D30*
X14750000Y-11980000D03*
X14750000Y-11020000D03*
X18000000Y-25230000D03*
X18000000Y-24270000D03*
D36*
X60895000Y-56975000D03*
X61855000Y-56975000D03*
D37*
X15837500Y-39210000D03*
X15837500Y-41110000D03*
X13962500Y-40160000D03*
D30*
X6000000Y-12480000D03*
X6000000Y-11520000D03*
D38*
X29413200Y-44941900D03*
X29413200Y-45901900D03*
D29*
X40510000Y-8750000D03*
X39490000Y-8750000D03*
D39*
X11500000Y-4500000D03*
X10540000Y-4500000D03*
D27*
X59387500Y-66050000D03*
X56312500Y-66050000D03*
D28*
X22000000Y-4500000D03*
D40*
X30990200Y-44934900D03*
X32890200Y-44934900D03*
X31940200Y-46809900D03*
D28*
X48250000Y-6750000D03*
X63750000Y-11500000D03*
D39*
X46300000Y-35440000D03*
X45340000Y-35440000D03*
D30*
X20726400Y-45878800D03*
X20726400Y-44918800D03*
D29*
X17510000Y-3250000D03*
X16490000Y-3250000D03*
D41*
X19740000Y-10570000D03*
X20760000Y-10570000D03*
D30*
X20750000Y-24730000D03*
X20750000Y-23770000D03*
D26*
X11062500Y-12450000D03*
X11062500Y-10550000D03*
X12937500Y-11500000D03*
D36*
X60895000Y-55975000D03*
X61855000Y-55975000D03*
D28*
X9500000Y-49750000D03*
D42*
X17100000Y-13250000D03*
X18400000Y-13250000D03*
D26*
X13062500Y-8950000D03*
X13062500Y-7050000D03*
X14937500Y-8000000D03*
D43*
X15137500Y-3550000D03*
X15137500Y-4500000D03*
X15137500Y-5450000D03*
X12862500Y-5450000D03*
X12862500Y-4500000D03*
X12862500Y-3550000D03*
D29*
X17510000Y-4250000D03*
X16490000Y-4250000D03*
D28*
X64750000Y-32500000D03*
D38*
X24282400Y-44918800D03*
X24282400Y-45878800D03*
D28*
X36250000Y-18750000D03*
X18000000Y-31750000D03*
D41*
X17310000Y-36460000D03*
X18330000Y-36460000D03*
D44*
X7000000Y-12510000D03*
X7000000Y-11490000D03*
D29*
X18330000Y-35450000D03*
X17310000Y-35450000D03*
D36*
X60920000Y-59000000D03*
X61880000Y-59000000D03*
X31206200Y-48666400D03*
X32166200Y-48666400D03*
D28*
X63750000Y-15250000D03*
D38*
X9250000Y-11020000D03*
X9250000Y-11980000D03*
X54102000Y-34346000D03*
X54102000Y-35306000D03*
D36*
X60895000Y-58000000D03*
X61855000Y-58000000D03*
X26952000Y-48260000D03*
X27912000Y-48260000D03*
D28*
X38750000Y-21500000D03*
X29000000Y-25250000D03*
D30*
X19000000Y-18480000D03*
X19000000Y-17520000D03*
D27*
X59362500Y-59250000D03*
X56287500Y-59250000D03*
D45*
X18250000Y-20062500D03*
X19200000Y-20062500D03*
X20150000Y-20062500D03*
X20150000Y-22337500D03*
X19200000Y-22337500D03*
X18250000Y-22337500D03*
D37*
X37937500Y-9050000D03*
X37937500Y-10950000D03*
X36062500Y-10000000D03*
D46*
X22504400Y-46795800D03*
X22504400Y-44745800D03*
D28*
X63750000Y-18750000D03*
X25750000Y-41750000D03*
X20750000Y-31750000D03*
D38*
X34512200Y-44932900D03*
X34512200Y-45892900D03*
D28*
X48250000Y-9750000D03*
D29*
X24740000Y-15150000D03*
X23720000Y-15150000D03*
D28*
X39000000Y-44750000D03*
D38*
X18000000Y-39480000D03*
X18000000Y-40440000D03*
X36068000Y-44935200D03*
X36068000Y-45895200D03*
D40*
X25923200Y-44934900D03*
X27823200Y-44934900D03*
X26873200Y-46809900D03*
D26*
X24562500Y-13800000D03*
X24562500Y-11900000D03*
X26437500Y-12850000D03*
D28*
X48250000Y-13000000D03*
X21000000Y-39250000D03*
X38750000Y-25250000D03*
D41*
X14410000Y-29880000D03*
X15430000Y-29880000D03*
D28*
X32000000Y-42500000D03*
D37*
X15837500Y-35700000D03*
X15837500Y-37600000D03*
X13962500Y-36650000D03*
M02*
