%TF.GenerationSoftware,KiCad,Pcbnew,8.0.0*%
%TF.CreationDate,2024-03-17T03:11:13-07:00*%
%TF.ProjectId,ai-camera-rev3.2,61692d63-616d-4657-9261-2d726576332e,rev3.2*%
%TF.SameCoordinates,PX5a995c0PY2aea540*%
%TF.FileFunction,Profile,NP*%
%FSLAX46Y46*%
G04 Gerber Fmt 4.6, Leading zero omitted, Abs format (unit mm)*
G04 Created by KiCad (PCBNEW 8.0.0) date 2024-03-17 03:11:13*
%MOMM*%
%LPD*%
G01*
G04 APERTURE LIST*
%TA.AperFunction,Profile*%
%ADD10C,0.100000*%
%TD*%
G04 APERTURE END LIST*
D10*
X65000000Y0D02*
G75*
G02*
X70000000Y-5000000I0J-5000000D01*
G01*
X2500000Y-46750000D02*
G75*
G02*
X0Y-44250000I0J2500000D01*
G01*
X70000000Y-57000000D02*
X70000000Y-65000000D01*
X5000000Y0D02*
X65000000Y0D01*
X65000000Y-55000000D02*
G75*
G02*
X63000000Y-53000000I0J2000000D01*
G01*
X0Y-61750000D02*
G75*
G02*
X2500000Y-59250000I2500000J0D01*
G01*
X67999999Y-35999999D02*
X65000000Y-35999999D01*
X0Y-5000000D02*
G75*
G02*
X5000000Y0I5000000J0D01*
G01*
X68000000Y-55000000D02*
G75*
G02*
X70000000Y-57000000I0J-2000000D01*
G01*
X0Y-44250000D02*
X0Y-5000000D01*
X2500000Y-46750000D02*
G75*
G02*
X5000000Y-49250000I0J-2500000D01*
G01*
X63000000Y-38000000D02*
G75*
G02*
X65000000Y-36000000I2000000J0D01*
G01*
X65000000Y-55000000D02*
X68000000Y-55000000D01*
X70000000Y-65000000D02*
G75*
G02*
X65000000Y-70000000I-5000000J0D01*
G01*
X5000000Y-56750000D02*
X5000000Y-49250000D01*
X0Y-61750000D02*
X0Y-65000000D01*
X70000000Y-5000000D02*
X70000000Y-33999999D01*
X5000000Y-70000000D02*
G75*
G02*
X0Y-65000000I0J5000000D01*
G01*
X65000000Y-70000000D02*
X5000000Y-70000000D01*
X5000000Y-56750000D02*
G75*
G02*
X2500000Y-59250000I-2500000J0D01*
G01*
X69999999Y-33999999D02*
G75*
G02*
X67999999Y-35999999I-1999999J-1D01*
G01*
X63000000Y-38000000D02*
X63000000Y-53000000D01*
X1666666Y0D02*
G75*
G02*
X-1666666Y0I-1666666J0D01*
G01*
X-1666666Y0D02*
G75*
G02*
X1666666Y0I1666666J0D01*
G01*
X-2500000Y0D02*
X2500000Y0D01*
X0Y2500000D02*
X0Y-2500000D01*
M02*
