%TF.GenerationSoftware,KiCad,Pcbnew,8.0.0*%
%TF.CreationDate,2024-03-17T03:09:45-07:00*%
%TF.ProjectId,ai-camera-rev3.2,61692d63-616d-4657-9261-2d726576332e,rev3.2*%
%TF.SameCoordinates,PX5a995c0PY2aea540*%
%TF.FileFunction,Drillmap*%
%TF.FilePolarity,Positive*%
%FSLAX45Y45*%
G04 Gerber Fmt 4.5, Leading zero omitted, Abs format (unit mm)*
G04 Created by KiCad (PCBNEW 8.0.0) date 2024-03-17 03:09:45*
%MOMM*%
%LPD*%
G01*
G04 APERTURE LIST*
%ADD10C,0.100000*%
%ADD11C,0.200000*%
%ADD12C,0.110000*%
%ADD13C,0.320000*%
G04 APERTURE END LIST*
D10*
X6500000Y0D02*
G75*
G02*
X7000000Y-500000I0J-500000D01*
G01*
X250000Y-4675000D02*
G75*
G02*
X0Y-4425000I0J250000D01*
G01*
X7000000Y-5700000D02*
X7000000Y-6500000D01*
X500000Y0D02*
X6500000Y0D01*
X6500000Y-5500000D02*
G75*
G02*
X6300000Y-5300000I0J200000D01*
G01*
X0Y-6175000D02*
G75*
G02*
X250000Y-5925000I250000J0D01*
G01*
X6800000Y-3600000D02*
X6500000Y-3600000D01*
X0Y-500000D02*
G75*
G02*
X500000Y0I500000J0D01*
G01*
X6800000Y-5500000D02*
G75*
G02*
X7000000Y-5700000I0J-200000D01*
G01*
X0Y-4425000D02*
X0Y-500000D01*
X250000Y-4675000D02*
G75*
G02*
X500000Y-4925000I0J-250000D01*
G01*
X6300000Y-3800000D02*
G75*
G02*
X6500000Y-3600000I200000J0D01*
G01*
X6500000Y-5500000D02*
X6800000Y-5500000D01*
X7000000Y-6500000D02*
G75*
G02*
X6500000Y-7000000I-500000J0D01*
G01*
X500000Y-5675000D02*
X500000Y-4925000D01*
X0Y-6175000D02*
X0Y-6500000D01*
X7000000Y-500000D02*
X7000000Y-3400000D01*
X500000Y-7000000D02*
G75*
G02*
X0Y-6500000I0J500000D01*
G01*
X6500000Y-7000000D02*
X500000Y-7000000D01*
X500000Y-5675000D02*
G75*
G02*
X250000Y-5925000I-250000J0D01*
G01*
X7000000Y-3400000D02*
G75*
G02*
X6800000Y-3600000I-200000J0D01*
G01*
X6300000Y-3800000D02*
X6300000Y-5300000D01*
D11*
D10*
X5276000Y-4643000D02*
X5296000Y-4663000D01*
X5296000Y-4643000D02*
X5276000Y-4663000D01*
X5276000Y-4783000D02*
X5296000Y-4803000D01*
X5296000Y-4783000D02*
X5276000Y-4803000D01*
X5346000Y-4573000D02*
X5366000Y-4593000D01*
X5366000Y-4573000D02*
X5346000Y-4593000D01*
X5346000Y-4713000D02*
X5366000Y-4733000D01*
X5366000Y-4713000D02*
X5346000Y-4733000D01*
X5346000Y-4853000D02*
X5366000Y-4873000D01*
X5366000Y-4853000D02*
X5346000Y-4873000D01*
X5416000Y-4643000D02*
X5436000Y-4663000D01*
X5436000Y-4643000D02*
X5416000Y-4663000D01*
X5416000Y-4783000D02*
X5436000Y-4803000D01*
X5436000Y-4783000D02*
X5416000Y-4803000D01*
X5486000Y-4573000D02*
X5506000Y-4593000D01*
X5506000Y-4573000D02*
X5486000Y-4593000D01*
X5486000Y-4713000D02*
X5506000Y-4733000D01*
X5506000Y-4713000D02*
X5486000Y-4733000D01*
X5486000Y-4853000D02*
X5506000Y-4873000D01*
X5506000Y-4853000D02*
X5486000Y-4873000D01*
X5556000Y-4643000D02*
X5576000Y-4663000D01*
X5576000Y-4643000D02*
X5556000Y-4663000D01*
X5556000Y-4783000D02*
X5576000Y-4803000D01*
X5576000Y-4783000D02*
X5556000Y-4803000D01*
X115000Y-900000D02*
G75*
G02*
X85000Y-900000I-15000J0D01*
G01*
X85000Y-900000D02*
G75*
G02*
X115000Y-900000I15000J0D01*
G01*
X115000Y-1900000D02*
G75*
G02*
X85000Y-1900000I-15000J0D01*
G01*
X85000Y-1900000D02*
G75*
G02*
X115000Y-1900000I15000J0D01*
G01*
X115000Y-2900000D02*
G75*
G02*
X85000Y-2900000I-15000J0D01*
G01*
X85000Y-2900000D02*
G75*
G02*
X115000Y-2900000I15000J0D01*
G01*
X115000Y-4000000D02*
G75*
G02*
X85000Y-4000000I-15000J0D01*
G01*
X85000Y-4000000D02*
G75*
G02*
X115000Y-4000000I15000J0D01*
G01*
X115000Y-6200000D02*
G75*
G02*
X85000Y-6200000I-15000J0D01*
G01*
X85000Y-6200000D02*
G75*
G02*
X115000Y-6200000I15000J0D01*
G01*
X277500Y-3165000D02*
G75*
G02*
X247500Y-3165000I-15000J0D01*
G01*
X247500Y-3165000D02*
G75*
G02*
X277500Y-3165000I15000J0D01*
G01*
X288000Y-2343855D02*
G75*
G02*
X258000Y-2343855I-15000J0D01*
G01*
X258000Y-2343855D02*
G75*
G02*
X288000Y-2343855I15000J0D01*
G01*
X349639Y-3430520D02*
G75*
G02*
X319639Y-3430520I-15000J0D01*
G01*
X319639Y-3430520D02*
G75*
G02*
X349639Y-3430520I15000J0D01*
G01*
X355000Y-2103000D02*
G75*
G02*
X325000Y-2103000I-15000J0D01*
G01*
X325000Y-2103000D02*
G75*
G02*
X355000Y-2103000I15000J0D01*
G01*
X422000Y-3437000D02*
G75*
G02*
X392000Y-3437000I-15000J0D01*
G01*
X392000Y-3437000D02*
G75*
G02*
X422000Y-3437000I15000J0D01*
G01*
X487000Y-2125000D02*
G75*
G02*
X457000Y-2125000I-15000J0D01*
G01*
X457000Y-2125000D02*
G75*
G02*
X487000Y-2125000I15000J0D01*
G01*
X544000Y-4086000D02*
G75*
G02*
X514000Y-4086000I-15000J0D01*
G01*
X514000Y-4086000D02*
G75*
G02*
X544000Y-4086000I15000J0D01*
G01*
X550852Y-3831148D02*
G75*
G02*
X520852Y-3831148I-15000J0D01*
G01*
X520852Y-3831148D02*
G75*
G02*
X550852Y-3831148I15000J0D01*
G01*
X615000Y-1100000D02*
G75*
G02*
X585000Y-1100000I-15000J0D01*
G01*
X585000Y-1100000D02*
G75*
G02*
X615000Y-1100000I15000J0D01*
G01*
X615000Y-4900000D02*
G75*
G02*
X585000Y-4900000I-15000J0D01*
G01*
X585000Y-4900000D02*
G75*
G02*
X615000Y-4900000I15000J0D01*
G01*
X615000Y-5600000D02*
G75*
G02*
X585000Y-5600000I-15000J0D01*
G01*
X585000Y-5600000D02*
G75*
G02*
X615000Y-5600000I15000J0D01*
G01*
X617597Y-2236650D02*
G75*
G02*
X587597Y-2236650I-15000J0D01*
G01*
X587597Y-2236650D02*
G75*
G02*
X617597Y-2236650I15000J0D01*
G01*
X696500Y-3071500D02*
G75*
G02*
X666500Y-3071500I-15000J0D01*
G01*
X666500Y-3071500D02*
G75*
G02*
X696500Y-3071500I15000J0D01*
G01*
X737984Y-2348546D02*
G75*
G02*
X707984Y-2348546I-15000J0D01*
G01*
X707984Y-2348546D02*
G75*
G02*
X737984Y-2348546I15000J0D01*
G01*
X738403Y-2415007D02*
G75*
G02*
X708403Y-2415007I-15000J0D01*
G01*
X708403Y-2415007D02*
G75*
G02*
X738403Y-2415007I15000J0D01*
G01*
X745000Y-4357500D02*
G75*
G02*
X715000Y-4357500I-15000J0D01*
G01*
X715000Y-4357500D02*
G75*
G02*
X745000Y-4357500I15000J0D01*
G01*
X745000Y-4445000D02*
G75*
G02*
X715000Y-4445000I-15000J0D01*
G01*
X715000Y-4445000D02*
G75*
G02*
X745000Y-4445000I15000J0D01*
G01*
X762500Y-3462500D02*
G75*
G02*
X732500Y-3462500I-15000J0D01*
G01*
X732500Y-3462500D02*
G75*
G02*
X762500Y-3462500I15000J0D01*
G01*
X762500Y-3550000D02*
G75*
G02*
X732500Y-3550000I-15000J0D01*
G01*
X732500Y-3550000D02*
G75*
G02*
X762500Y-3550000I15000J0D01*
G01*
X785000Y-4520000D02*
G75*
G02*
X755000Y-4520000I-15000J0D01*
G01*
X755000Y-4520000D02*
G75*
G02*
X785000Y-4520000I15000J0D01*
G01*
X794500Y-3072500D02*
G75*
G02*
X764500Y-3072500I-15000J0D01*
G01*
X764500Y-3072500D02*
G75*
G02*
X794500Y-3072500I15000J0D01*
G01*
X815000Y-2700000D02*
G75*
G02*
X785000Y-2700000I-15000J0D01*
G01*
X785000Y-2700000D02*
G75*
G02*
X815000Y-2700000I15000J0D01*
G01*
X820000Y-4275000D02*
G75*
G02*
X790000Y-4275000I-15000J0D01*
G01*
X790000Y-4275000D02*
G75*
G02*
X820000Y-4275000I15000J0D01*
G01*
X822500Y-4202500D02*
G75*
G02*
X792500Y-4202500I-15000J0D01*
G01*
X792500Y-4202500D02*
G75*
G02*
X822500Y-4202500I15000J0D01*
G01*
X825000Y-4130000D02*
G75*
G02*
X795000Y-4130000I-15000J0D01*
G01*
X795000Y-4130000D02*
G75*
G02*
X825000Y-4130000I15000J0D01*
G01*
X840000Y-5300000D02*
G75*
G02*
X810000Y-5300000I-15000J0D01*
G01*
X810000Y-5300000D02*
G75*
G02*
X840000Y-5300000I15000J0D01*
G01*
X883500Y-3074500D02*
G75*
G02*
X853500Y-3074500I-15000J0D01*
G01*
X853500Y-3074500D02*
G75*
G02*
X883500Y-3074500I15000J0D01*
G01*
X940000Y-1300000D02*
G75*
G02*
X910000Y-1300000I-15000J0D01*
G01*
X910000Y-1300000D02*
G75*
G02*
X940000Y-1300000I15000J0D01*
G01*
X975000Y-4107500D02*
G75*
G02*
X945000Y-4107500I-15000J0D01*
G01*
X945000Y-4107500D02*
G75*
G02*
X975000Y-4107500I15000J0D01*
G01*
X985000Y-4745000D02*
G75*
G02*
X955000Y-4745000I-15000J0D01*
G01*
X955000Y-4745000D02*
G75*
G02*
X985000Y-4745000I15000J0D01*
G01*
X990000Y-2700000D02*
G75*
G02*
X960000Y-2700000I-15000J0D01*
G01*
X960000Y-2700000D02*
G75*
G02*
X990000Y-2700000I15000J0D01*
G01*
X1015000Y-100000D02*
G75*
G02*
X985000Y-100000I-15000J0D01*
G01*
X985000Y-100000D02*
G75*
G02*
X1015000Y-100000I15000J0D01*
G01*
X1015000Y-450000D02*
G75*
G02*
X985000Y-450000I-15000J0D01*
G01*
X985000Y-450000D02*
G75*
G02*
X1015000Y-450000I15000J0D01*
G01*
X1015000Y-2475000D02*
G75*
G02*
X985000Y-2475000I-15000J0D01*
G01*
X985000Y-2475000D02*
G75*
G02*
X1015000Y-2475000I15000J0D01*
G01*
X1015000Y-2575000D02*
G75*
G02*
X985000Y-2575000I-15000J0D01*
G01*
X985000Y-2575000D02*
G75*
G02*
X1015000Y-2575000I15000J0D01*
G01*
X1015000Y-3472836D02*
G75*
G02*
X985000Y-3472836I-15000J0D01*
G01*
X985000Y-3472836D02*
G75*
G02*
X1015000Y-3472836I15000J0D01*
G01*
X1015000Y-3725000D02*
G75*
G02*
X985000Y-3725000I-15000J0D01*
G01*
X985000Y-3725000D02*
G75*
G02*
X1015000Y-3725000I15000J0D01*
G01*
X1015000Y-6900000D02*
G75*
G02*
X985000Y-6900000I-15000J0D01*
G01*
X985000Y-6900000D02*
G75*
G02*
X1015000Y-6900000I15000J0D01*
G01*
X1050000Y-4102500D02*
G75*
G02*
X1020000Y-4102500I-15000J0D01*
G01*
X1020000Y-4102500D02*
G75*
G02*
X1050000Y-4102500I15000J0D01*
G01*
X1077169Y-4483502D02*
G75*
G02*
X1047169Y-4483502I-15000J0D01*
G01*
X1047169Y-4483502D02*
G75*
G02*
X1077169Y-4483502I15000J0D01*
G01*
X1090000Y-3800000D02*
G75*
G02*
X1060000Y-3800000I-15000J0D01*
G01*
X1060000Y-3800000D02*
G75*
G02*
X1090000Y-3800000I15000J0D01*
G01*
X1090000Y-4000000D02*
G75*
G02*
X1060000Y-4000000I-15000J0D01*
G01*
X1060000Y-4000000D02*
G75*
G02*
X1090000Y-4000000I15000J0D01*
G01*
X1115000Y-1300000D02*
G75*
G02*
X1085000Y-1300000I-15000J0D01*
G01*
X1085000Y-1300000D02*
G75*
G02*
X1115000Y-1300000I15000J0D01*
G01*
X1115000Y-3475000D02*
G75*
G02*
X1085000Y-3475000I-15000J0D01*
G01*
X1085000Y-3475000D02*
G75*
G02*
X1115000Y-3475000I15000J0D01*
G01*
X1140000Y-2700000D02*
G75*
G02*
X1110000Y-2700000I-15000J0D01*
G01*
X1110000Y-2700000D02*
G75*
G02*
X1140000Y-2700000I15000J0D01*
G01*
X1150000Y-4192500D02*
G75*
G02*
X1120000Y-4192500I-15000J0D01*
G01*
X1120000Y-4192500D02*
G75*
G02*
X1150000Y-4192500I15000J0D01*
G01*
X1190000Y-350000D02*
G75*
G02*
X1160000Y-350000I-15000J0D01*
G01*
X1160000Y-350000D02*
G75*
G02*
X1190000Y-350000I15000J0D01*
G01*
X1195000Y-5775000D02*
G75*
G02*
X1165000Y-5775000I-15000J0D01*
G01*
X1165000Y-5775000D02*
G75*
G02*
X1195000Y-5775000I15000J0D01*
G01*
X1195000Y-5940000D02*
G75*
G02*
X1165000Y-5940000I-15000J0D01*
G01*
X1165000Y-5940000D02*
G75*
G02*
X1195000Y-5940000I15000J0D01*
G01*
X1195000Y-6032500D02*
G75*
G02*
X1165000Y-6032500I-15000J0D01*
G01*
X1165000Y-6032500D02*
G75*
G02*
X1195000Y-6032500I15000J0D01*
G01*
X1197500Y-5855000D02*
G75*
G02*
X1167500Y-5855000I-15000J0D01*
G01*
X1167500Y-5855000D02*
G75*
G02*
X1197500Y-5855000I15000J0D01*
G01*
X1245666Y-4418010D02*
G75*
G02*
X1215666Y-4418010I-15000J0D01*
G01*
X1215666Y-4418010D02*
G75*
G02*
X1245666Y-4418010I15000J0D01*
G01*
X1265000Y-2700000D02*
G75*
G02*
X1235000Y-2700000I-15000J0D01*
G01*
X1235000Y-2700000D02*
G75*
G02*
X1265000Y-2700000I15000J0D01*
G01*
X1276000Y-6598000D02*
G75*
G02*
X1246000Y-6598000I-15000J0D01*
G01*
X1246000Y-6598000D02*
G75*
G02*
X1276000Y-6598000I15000J0D01*
G01*
X1283000Y-5350000D02*
G75*
G02*
X1253000Y-5350000I-15000J0D01*
G01*
X1253000Y-5350000D02*
G75*
G02*
X1283000Y-5350000I15000J0D01*
G01*
X1287500Y-6077500D02*
G75*
G02*
X1257500Y-6077500I-15000J0D01*
G01*
X1257500Y-6077500D02*
G75*
G02*
X1287500Y-6077500I15000J0D01*
G01*
X1290000Y-3750000D02*
G75*
G02*
X1260000Y-3750000I-15000J0D01*
G01*
X1260000Y-3750000D02*
G75*
G02*
X1290000Y-3750000I15000J0D01*
G01*
X1337500Y-6657500D02*
G75*
G02*
X1307500Y-6657500I-15000J0D01*
G01*
X1307500Y-6657500D02*
G75*
G02*
X1337500Y-6657500I15000J0D01*
G01*
X1339950Y-4699000D02*
G75*
G02*
X1309950Y-4699000I-15000J0D01*
G01*
X1309950Y-4699000D02*
G75*
G02*
X1339950Y-4699000I15000J0D01*
G01*
X1340000Y-6279000D02*
G75*
G02*
X1310000Y-6279000I-15000J0D01*
G01*
X1310000Y-6279000D02*
G75*
G02*
X1340000Y-6279000I15000J0D01*
G01*
X1365000Y-3750000D02*
G75*
G02*
X1335000Y-3750000I-15000J0D01*
G01*
X1335000Y-3750000D02*
G75*
G02*
X1365000Y-3750000I15000J0D01*
G01*
X1395000Y-2886000D02*
G75*
G02*
X1365000Y-2886000I-15000J0D01*
G01*
X1365000Y-2886000D02*
G75*
G02*
X1395000Y-2886000I15000J0D01*
G01*
X1415000Y-5450000D02*
G75*
G02*
X1385000Y-5450000I-15000J0D01*
G01*
X1385000Y-5450000D02*
G75*
G02*
X1415000Y-5450000I15000J0D01*
G01*
X1440000Y-3750000D02*
G75*
G02*
X1410000Y-3750000I-15000J0D01*
G01*
X1410000Y-3750000D02*
G75*
G02*
X1440000Y-3750000I15000J0D01*
G01*
X1465000Y-275000D02*
G75*
G02*
X1435000Y-275000I-15000J0D01*
G01*
X1435000Y-275000D02*
G75*
G02*
X1465000Y-275000I15000J0D01*
G01*
X1490000Y-1312658D02*
G75*
G02*
X1460000Y-1312658I-15000J0D01*
G01*
X1460000Y-1312658D02*
G75*
G02*
X1490000Y-1312658I15000J0D01*
G01*
X1495000Y-5060000D02*
G75*
G02*
X1465000Y-5060000I-15000J0D01*
G01*
X1465000Y-5060000D02*
G75*
G02*
X1495000Y-5060000I15000J0D01*
G01*
X1500000Y-5445000D02*
G75*
G02*
X1470000Y-5445000I-15000J0D01*
G01*
X1470000Y-5445000D02*
G75*
G02*
X1500000Y-5445000I15000J0D01*
G01*
X1505000Y-5230000D02*
G75*
G02*
X1475000Y-5230000I-15000J0D01*
G01*
X1475000Y-5230000D02*
G75*
G02*
X1505000Y-5230000I15000J0D01*
G01*
X1526000Y-2358000D02*
G75*
G02*
X1496000Y-2358000I-15000J0D01*
G01*
X1496000Y-2358000D02*
G75*
G02*
X1526000Y-2358000I15000J0D01*
G01*
X1590000Y-5450000D02*
G75*
G02*
X1560000Y-5450000I-15000J0D01*
G01*
X1560000Y-5450000D02*
G75*
G02*
X1590000Y-5450000I15000J0D01*
G01*
X1605000Y-5060000D02*
G75*
G02*
X1575000Y-5060000I-15000J0D01*
G01*
X1575000Y-5060000D02*
G75*
G02*
X1605000Y-5060000I15000J0D01*
G01*
X1605000Y-5230000D02*
G75*
G02*
X1575000Y-5230000I-15000J0D01*
G01*
X1575000Y-5230000D02*
G75*
G02*
X1605000Y-5230000I15000J0D01*
G01*
X1635000Y-6670000D02*
G75*
G02*
X1605000Y-6670000I-15000J0D01*
G01*
X1605000Y-6670000D02*
G75*
G02*
X1635000Y-6670000I15000J0D01*
G01*
X1690000Y-2925000D02*
G75*
G02*
X1660000Y-2925000I-15000J0D01*
G01*
X1660000Y-2925000D02*
G75*
G02*
X1690000Y-2925000I15000J0D01*
G01*
X1717500Y-5150000D02*
G75*
G02*
X1687500Y-5150000I-15000J0D01*
G01*
X1687500Y-5150000D02*
G75*
G02*
X1717500Y-5150000I15000J0D01*
G01*
X1735000Y-6675000D02*
G75*
G02*
X1705000Y-6675000I-15000J0D01*
G01*
X1705000Y-6675000D02*
G75*
G02*
X1735000Y-6675000I15000J0D01*
G01*
X1740000Y-1750000D02*
G75*
G02*
X1710000Y-1750000I-15000J0D01*
G01*
X1710000Y-1750000D02*
G75*
G02*
X1740000Y-1750000I15000J0D01*
G01*
X1773000Y-3457000D02*
G75*
G02*
X1743000Y-3457000I-15000J0D01*
G01*
X1743000Y-3457000D02*
G75*
G02*
X1773000Y-3457000I15000J0D01*
G01*
X1815000Y-2625000D02*
G75*
G02*
X1785000Y-2625000I-15000J0D01*
G01*
X1785000Y-2625000D02*
G75*
G02*
X1815000Y-2625000I15000J0D01*
G01*
X1825000Y-1162500D02*
G75*
G02*
X1795000Y-1162500I-15000J0D01*
G01*
X1795000Y-1162500D02*
G75*
G02*
X1825000Y-1162500I15000J0D01*
G01*
X1832380Y-3715505D02*
G75*
G02*
X1802380Y-3715505I-15000J0D01*
G01*
X1802380Y-3715505D02*
G75*
G02*
X1832380Y-3715505I15000J0D01*
G01*
X1840000Y-375000D02*
G75*
G02*
X1810000Y-375000I-15000J0D01*
G01*
X1810000Y-375000D02*
G75*
G02*
X1840000Y-375000I15000J0D01*
G01*
X1845000Y-1050000D02*
G75*
G02*
X1815000Y-1050000I-15000J0D01*
G01*
X1815000Y-1050000D02*
G75*
G02*
X1845000Y-1050000I15000J0D01*
G01*
X1865000Y-2825000D02*
G75*
G02*
X1835000Y-2825000I-15000J0D01*
G01*
X1835000Y-2825000D02*
G75*
G02*
X1865000Y-2825000I15000J0D01*
G01*
X1915000Y-5800000D02*
G75*
G02*
X1885000Y-5800000I-15000J0D01*
G01*
X1885000Y-5800000D02*
G75*
G02*
X1915000Y-5800000I15000J0D01*
G01*
X1935000Y-1920000D02*
G75*
G02*
X1905000Y-1920000I-15000J0D01*
G01*
X1905000Y-1920000D02*
G75*
G02*
X1935000Y-1920000I15000J0D01*
G01*
X1940000Y-5300000D02*
G75*
G02*
X1910000Y-5300000I-15000J0D01*
G01*
X1910000Y-5300000D02*
G75*
G02*
X1940000Y-5300000I15000J0D01*
G01*
X1940000Y-5625000D02*
G75*
G02*
X1910000Y-5625000I-15000J0D01*
G01*
X1910000Y-5625000D02*
G75*
G02*
X1940000Y-5625000I15000J0D01*
G01*
X1965000Y-2625000D02*
G75*
G02*
X1935000Y-2625000I-15000J0D01*
G01*
X1935000Y-2625000D02*
G75*
G02*
X1965000Y-2625000I15000J0D01*
G01*
X1965000Y-2825000D02*
G75*
G02*
X1935000Y-2825000I-15000J0D01*
G01*
X1935000Y-2825000D02*
G75*
G02*
X1965000Y-2825000I15000J0D01*
G01*
X2015000Y-100000D02*
G75*
G02*
X1985000Y-100000I-15000J0D01*
G01*
X1985000Y-100000D02*
G75*
G02*
X2015000Y-100000I15000J0D01*
G01*
X2015000Y-6900000D02*
G75*
G02*
X1985000Y-6900000I-15000J0D01*
G01*
X1985000Y-6900000D02*
G75*
G02*
X2015000Y-6900000I15000J0D01*
G01*
X2023803Y-4491197D02*
G75*
G02*
X1993803Y-4491197I-15000J0D01*
G01*
X1993803Y-4491197D02*
G75*
G02*
X2023803Y-4491197I15000J0D01*
G01*
X2025260Y-4400000D02*
G75*
G02*
X1995260Y-4400000I-15000J0D01*
G01*
X1995260Y-4400000D02*
G75*
G02*
X2025260Y-4400000I15000J0D01*
G01*
X2040000Y-5150000D02*
G75*
G02*
X2010000Y-5150000I-15000J0D01*
G01*
X2010000Y-5150000D02*
G75*
G02*
X2040000Y-5150000I15000J0D01*
G01*
X2040000Y-5450000D02*
G75*
G02*
X2010000Y-5450000I-15000J0D01*
G01*
X2010000Y-5450000D02*
G75*
G02*
X2040000Y-5450000I15000J0D01*
G01*
X2040000Y-5776760D02*
G75*
G02*
X2010000Y-5776760I-15000J0D01*
G01*
X2010000Y-5776760D02*
G75*
G02*
X2040000Y-5776760I15000J0D01*
G01*
X2065000Y-2825000D02*
G75*
G02*
X2035000Y-2825000I-15000J0D01*
G01*
X2035000Y-2825000D02*
G75*
G02*
X2065000Y-2825000I15000J0D01*
G01*
X2090000Y-2525000D02*
G75*
G02*
X2060000Y-2525000I-15000J0D01*
G01*
X2060000Y-2525000D02*
G75*
G02*
X2090000Y-2525000I15000J0D01*
G01*
X2115000Y-4400000D02*
G75*
G02*
X2085000Y-4400000I-15000J0D01*
G01*
X2085000Y-4400000D02*
G75*
G02*
X2115000Y-4400000I15000J0D01*
G01*
X2140000Y-5300000D02*
G75*
G02*
X2110000Y-5300000I-15000J0D01*
G01*
X2110000Y-5300000D02*
G75*
G02*
X2140000Y-5300000I15000J0D01*
G01*
X2140000Y-5625000D02*
G75*
G02*
X2110000Y-5625000I-15000J0D01*
G01*
X2110000Y-5625000D02*
G75*
G02*
X2140000Y-5625000I15000J0D01*
G01*
X2190000Y-6000000D02*
G75*
G02*
X2160000Y-6000000I-15000J0D01*
G01*
X2160000Y-6000000D02*
G75*
G02*
X2190000Y-6000000I15000J0D01*
G01*
X2199400Y-2743200D02*
G75*
G02*
X2169400Y-2743200I-15000J0D01*
G01*
X2169400Y-2743200D02*
G75*
G02*
X2199400Y-2743200I15000J0D01*
G01*
X2199400Y-2844800D02*
G75*
G02*
X2169400Y-2844800I-15000J0D01*
G01*
X2169400Y-2844800D02*
G75*
G02*
X2199400Y-2844800I15000J0D01*
G01*
X2215000Y-3175000D02*
G75*
G02*
X2185000Y-3175000I-15000J0D01*
G01*
X2185000Y-3175000D02*
G75*
G02*
X2215000Y-3175000I15000J0D01*
G01*
X2290000Y-6000000D02*
G75*
G02*
X2260000Y-6000000I-15000J0D01*
G01*
X2260000Y-6000000D02*
G75*
G02*
X2290000Y-6000000I15000J0D01*
G01*
X2315000Y-4100000D02*
G75*
G02*
X2285000Y-4100000I-15000J0D01*
G01*
X2285000Y-4100000D02*
G75*
G02*
X2315000Y-4100000I15000J0D01*
G01*
X2326400Y-2590800D02*
G75*
G02*
X2296400Y-2590800I-15000J0D01*
G01*
X2296400Y-2590800D02*
G75*
G02*
X2326400Y-2590800I15000J0D01*
G01*
X2368919Y-3698792D02*
G75*
G02*
X2338919Y-3698792I-15000J0D01*
G01*
X2338919Y-3698792D02*
G75*
G02*
X2368919Y-3698792I15000J0D01*
G01*
X2390000Y-6000000D02*
G75*
G02*
X2360000Y-6000000I-15000J0D01*
G01*
X2360000Y-6000000D02*
G75*
G02*
X2390000Y-6000000I15000J0D01*
G01*
X2402600Y-4644000D02*
G75*
G02*
X2372600Y-4644000I-15000J0D01*
G01*
X2372600Y-4644000D02*
G75*
G02*
X2402600Y-4644000I15000J0D01*
G01*
X2441000Y-1105000D02*
G75*
G02*
X2411000Y-1105000I-15000J0D01*
G01*
X2411000Y-1105000D02*
G75*
G02*
X2441000Y-1105000I15000J0D01*
G01*
X2453400Y-2590800D02*
G75*
G02*
X2423400Y-2590800I-15000J0D01*
G01*
X2423400Y-2590800D02*
G75*
G02*
X2453400Y-2590800I15000J0D01*
G01*
X2478800Y-4644000D02*
G75*
G02*
X2448800Y-4644000I-15000J0D01*
G01*
X2448800Y-4644000D02*
G75*
G02*
X2478800Y-4644000I15000J0D01*
G01*
X2515000Y-6000000D02*
G75*
G02*
X2485000Y-6000000I-15000J0D01*
G01*
X2485000Y-6000000D02*
G75*
G02*
X2515000Y-6000000I15000J0D01*
G01*
X2540000Y-4000000D02*
G75*
G02*
X2510000Y-4000000I-15000J0D01*
G01*
X2510000Y-4000000D02*
G75*
G02*
X2540000Y-4000000I15000J0D01*
G01*
X2545000Y-1516000D02*
G75*
G02*
X2515000Y-1516000I-15000J0D01*
G01*
X2515000Y-1516000D02*
G75*
G02*
X2545000Y-1516000I15000J0D01*
G01*
X2575000Y-950000D02*
G75*
G02*
X2545000Y-950000I-15000J0D01*
G01*
X2545000Y-950000D02*
G75*
G02*
X2575000Y-950000I15000J0D01*
G01*
X2615000Y-6000000D02*
G75*
G02*
X2585000Y-6000000I-15000J0D01*
G01*
X2585000Y-6000000D02*
G75*
G02*
X2615000Y-6000000I15000J0D01*
G01*
X2631200Y-5380600D02*
G75*
G02*
X2601200Y-5380600I-15000J0D01*
G01*
X2601200Y-5380600D02*
G75*
G02*
X2631200Y-5380600I15000J0D01*
G01*
X2654000Y-4489000D02*
G75*
G02*
X2624000Y-4489000I-15000J0D01*
G01*
X2624000Y-4489000D02*
G75*
G02*
X2654000Y-4489000I15000J0D01*
G01*
X2715000Y-6000000D02*
G75*
G02*
X2685000Y-6000000I-15000J0D01*
G01*
X2685000Y-6000000D02*
G75*
G02*
X2715000Y-6000000I15000J0D01*
G01*
X2815000Y-3500000D02*
G75*
G02*
X2785000Y-3500000I-15000J0D01*
G01*
X2785000Y-3500000D02*
G75*
G02*
X2815000Y-3500000I15000J0D01*
G01*
X2815000Y-3800000D02*
G75*
G02*
X2785000Y-3800000I-15000J0D01*
G01*
X2785000Y-3800000D02*
G75*
G02*
X2815000Y-3800000I15000J0D01*
G01*
X2815000Y-6000000D02*
G75*
G02*
X2785000Y-6000000I-15000J0D01*
G01*
X2785000Y-6000000D02*
G75*
G02*
X2815000Y-6000000I15000J0D01*
G01*
X2815000Y-6600000D02*
G75*
G02*
X2785000Y-6600000I-15000J0D01*
G01*
X2785000Y-6600000D02*
G75*
G02*
X2815000Y-6600000I15000J0D01*
G01*
X2835000Y-5245000D02*
G75*
G02*
X2805000Y-5245000I-15000J0D01*
G01*
X2805000Y-5245000D02*
G75*
G02*
X2835000Y-5245000I15000J0D01*
G01*
X2859800Y-4826000D02*
G75*
G02*
X2829800Y-4826000I-15000J0D01*
G01*
X2829800Y-4826000D02*
G75*
G02*
X2859800Y-4826000I15000J0D01*
G01*
X2861920Y-5805000D02*
G75*
G02*
X2831920Y-5805000I-15000J0D01*
G01*
X2831920Y-5805000D02*
G75*
G02*
X2861920Y-5805000I15000J0D01*
G01*
X2865000Y-1300000D02*
G75*
G02*
X2835000Y-1300000I-15000J0D01*
G01*
X2835000Y-1300000D02*
G75*
G02*
X2865000Y-1300000I15000J0D01*
G01*
X2865000Y-5900000D02*
G75*
G02*
X2835000Y-5900000I-15000J0D01*
G01*
X2835000Y-5900000D02*
G75*
G02*
X2865000Y-5900000I15000J0D01*
G01*
X2915000Y-2700000D02*
G75*
G02*
X2885000Y-2700000I-15000J0D01*
G01*
X2885000Y-2700000D02*
G75*
G02*
X2915000Y-2700000I15000J0D01*
G01*
X2915000Y-5300000D02*
G75*
G02*
X2885000Y-5300000I-15000J0D01*
G01*
X2885000Y-5300000D02*
G75*
G02*
X2915000Y-5300000I15000J0D01*
G01*
X2915000Y-5400000D02*
G75*
G02*
X2885000Y-5400000I-15000J0D01*
G01*
X2885000Y-5400000D02*
G75*
G02*
X2915000Y-5400000I15000J0D01*
G01*
X2915000Y-5500000D02*
G75*
G02*
X2885000Y-5500000I-15000J0D01*
G01*
X2885000Y-5500000D02*
G75*
G02*
X2915000Y-5500000I15000J0D01*
G01*
X2915000Y-5600000D02*
G75*
G02*
X2885000Y-5600000I-15000J0D01*
G01*
X2885000Y-5600000D02*
G75*
G02*
X2915000Y-5600000I15000J0D01*
G01*
X2956320Y-4644000D02*
G75*
G02*
X2926320Y-4644000I-15000J0D01*
G01*
X2926320Y-4644000D02*
G75*
G02*
X2956320Y-4644000I15000J0D01*
G01*
X2990000Y-4250000D02*
G75*
G02*
X2960000Y-4250000I-15000J0D01*
G01*
X2960000Y-4250000D02*
G75*
G02*
X2990000Y-4250000I15000J0D01*
G01*
X2990000Y-5819000D02*
G75*
G02*
X2960000Y-5819000I-15000J0D01*
G01*
X2960000Y-5819000D02*
G75*
G02*
X2990000Y-5819000I15000J0D01*
G01*
X3014349Y-4575600D02*
G75*
G02*
X2984349Y-4575600I-15000J0D01*
G01*
X2984349Y-4575600D02*
G75*
G02*
X3014349Y-4575600I15000J0D01*
G01*
X3015000Y-100000D02*
G75*
G02*
X2985000Y-100000I-15000J0D01*
G01*
X2985000Y-100000D02*
G75*
G02*
X3015000Y-100000I15000J0D01*
G01*
X3015000Y-3800000D02*
G75*
G02*
X2985000Y-3800000I-15000J0D01*
G01*
X2985000Y-3800000D02*
G75*
G02*
X3015000Y-3800000I15000J0D01*
G01*
X3015000Y-6900000D02*
G75*
G02*
X2985000Y-6900000I-15000J0D01*
G01*
X2985000Y-6900000D02*
G75*
G02*
X3015000Y-6900000I15000J0D01*
G01*
X3018000Y-4471000D02*
G75*
G02*
X2988000Y-4471000I-15000J0D01*
G01*
X2988000Y-4471000D02*
G75*
G02*
X3018000Y-4471000I15000J0D01*
G01*
X3065000Y-4100000D02*
G75*
G02*
X3035000Y-4100000I-15000J0D01*
G01*
X3035000Y-4100000D02*
G75*
G02*
X3065000Y-4100000I15000J0D01*
G01*
X3108000Y-4679000D02*
G75*
G02*
X3078000Y-4679000I-15000J0D01*
G01*
X3078000Y-4679000D02*
G75*
G02*
X3108000Y-4679000I15000J0D01*
G01*
X3165000Y-890000D02*
G75*
G02*
X3135000Y-890000I-15000J0D01*
G01*
X3135000Y-890000D02*
G75*
G02*
X3165000Y-890000I15000J0D01*
G01*
X3165000Y-4100000D02*
G75*
G02*
X3135000Y-4100000I-15000J0D01*
G01*
X3135000Y-4100000D02*
G75*
G02*
X3165000Y-4100000I15000J0D01*
G01*
X3165000Y-6600000D02*
G75*
G02*
X3135000Y-6600000I-15000J0D01*
G01*
X3135000Y-6600000D02*
G75*
G02*
X3165000Y-6600000I15000J0D01*
G01*
X3215000Y-1300000D02*
G75*
G02*
X3185000Y-1300000I-15000J0D01*
G01*
X3185000Y-1300000D02*
G75*
G02*
X3215000Y-1300000I15000J0D01*
G01*
X3215000Y-1850000D02*
G75*
G02*
X3185000Y-1850000I-15000J0D01*
G01*
X3185000Y-1850000D02*
G75*
G02*
X3215000Y-1850000I15000J0D01*
G01*
X3215000Y-2100000D02*
G75*
G02*
X3185000Y-2100000I-15000J0D01*
G01*
X3185000Y-2100000D02*
G75*
G02*
X3215000Y-2100000I15000J0D01*
G01*
X3215000Y-2700000D02*
G75*
G02*
X3185000Y-2700000I-15000J0D01*
G01*
X3185000Y-2700000D02*
G75*
G02*
X3215000Y-2700000I15000J0D01*
G01*
X3215000Y-6250000D02*
G75*
G02*
X3185000Y-6250000I-15000J0D01*
G01*
X3185000Y-6250000D02*
G75*
G02*
X3215000Y-6250000I15000J0D01*
G01*
X3215400Y-6345800D02*
G75*
G02*
X3185400Y-6345800I-15000J0D01*
G01*
X3185400Y-6345800D02*
G75*
G02*
X3215400Y-6345800I15000J0D01*
G01*
X3304692Y-4877908D02*
G75*
G02*
X3274692Y-4877908I-15000J0D01*
G01*
X3274692Y-4877908D02*
G75*
G02*
X3304692Y-4877908I15000J0D01*
G01*
X3315000Y-3050000D02*
G75*
G02*
X3285000Y-3050000I-15000J0D01*
G01*
X3285000Y-3050000D02*
G75*
G02*
X3315000Y-3050000I15000J0D01*
G01*
X3315000Y-3300000D02*
G75*
G02*
X3285000Y-3300000I-15000J0D01*
G01*
X3285000Y-3300000D02*
G75*
G02*
X3315000Y-3300000I15000J0D01*
G01*
X3315000Y-3550000D02*
G75*
G02*
X3285000Y-3550000I-15000J0D01*
G01*
X3285000Y-3550000D02*
G75*
G02*
X3315000Y-3550000I15000J0D01*
G01*
X3315000Y-6250000D02*
G75*
G02*
X3285000Y-6250000I-15000J0D01*
G01*
X3285000Y-6250000D02*
G75*
G02*
X3315000Y-6250000I15000J0D01*
G01*
X3317000Y-6345800D02*
G75*
G02*
X3287000Y-6345800I-15000J0D01*
G01*
X3287000Y-6345800D02*
G75*
G02*
X3317000Y-6345800I15000J0D01*
G01*
X3337320Y-4225000D02*
G75*
G02*
X3307320Y-4225000I-15000J0D01*
G01*
X3307320Y-4225000D02*
G75*
G02*
X3337320Y-4225000I15000J0D01*
G01*
X3383000Y-4460000D02*
G75*
G02*
X3353000Y-4460000I-15000J0D01*
G01*
X3353000Y-4460000D02*
G75*
G02*
X3383000Y-4460000I15000J0D01*
G01*
X3443000Y-4653000D02*
G75*
G02*
X3413000Y-4653000I-15000J0D01*
G01*
X3413000Y-4653000D02*
G75*
G02*
X3443000Y-4653000I15000J0D01*
G01*
X3490000Y-4250000D02*
G75*
G02*
X3460000Y-4250000I-15000J0D01*
G01*
X3460000Y-4250000D02*
G75*
G02*
X3490000Y-4250000I15000J0D01*
G01*
X3517000Y-3987000D02*
G75*
G02*
X3487000Y-3987000I-15000J0D01*
G01*
X3487000Y-3987000D02*
G75*
G02*
X3517000Y-3987000I15000J0D01*
G01*
X3545600Y-4688200D02*
G75*
G02*
X3515600Y-4688200I-15000J0D01*
G01*
X3515600Y-4688200D02*
G75*
G02*
X3545600Y-4688200I15000J0D01*
G01*
X3550352Y-4504648D02*
G75*
G02*
X3520352Y-4504648I-15000J0D01*
G01*
X3520352Y-4504648D02*
G75*
G02*
X3550352Y-4504648I15000J0D01*
G01*
X3615000Y-5800000D02*
G75*
G02*
X3585000Y-5800000I-15000J0D01*
G01*
X3585000Y-5800000D02*
G75*
G02*
X3615000Y-5800000I15000J0D01*
G01*
X3621800Y-4644000D02*
G75*
G02*
X3591800Y-4644000I-15000J0D01*
G01*
X3591800Y-4644000D02*
G75*
G02*
X3621800Y-4644000I15000J0D01*
G01*
X3640000Y-4225000D02*
G75*
G02*
X3610000Y-4225000I-15000J0D01*
G01*
X3610000Y-4225000D02*
G75*
G02*
X3640000Y-4225000I15000J0D01*
G01*
X3715000Y-1300000D02*
G75*
G02*
X3685000Y-1300000I-15000J0D01*
G01*
X3685000Y-1300000D02*
G75*
G02*
X3715000Y-1300000I15000J0D01*
G01*
X3715000Y-3300000D02*
G75*
G02*
X3685000Y-3300000I-15000J0D01*
G01*
X3685000Y-3300000D02*
G75*
G02*
X3715000Y-3300000I15000J0D01*
G01*
X3740000Y-4082500D02*
G75*
G02*
X3710000Y-4082500I-15000J0D01*
G01*
X3710000Y-4082500D02*
G75*
G02*
X3740000Y-4082500I15000J0D01*
G01*
X3740000Y-4250000D02*
G75*
G02*
X3710000Y-4250000I-15000J0D01*
G01*
X3710000Y-4250000D02*
G75*
G02*
X3740000Y-4250000I15000J0D01*
G01*
X3744000Y-6720000D02*
G75*
G02*
X3714000Y-6720000I-15000J0D01*
G01*
X3714000Y-6720000D02*
G75*
G02*
X3744000Y-6720000I15000J0D01*
G01*
X3765000Y-3800000D02*
G75*
G02*
X3735000Y-3800000I-15000J0D01*
G01*
X3735000Y-3800000D02*
G75*
G02*
X3765000Y-3800000I15000J0D01*
G01*
X3826000Y-4907000D02*
G75*
G02*
X3796000Y-4907000I-15000J0D01*
G01*
X3796000Y-4907000D02*
G75*
G02*
X3826000Y-4907000I15000J0D01*
G01*
X3828000Y-5011000D02*
G75*
G02*
X3798000Y-5011000I-15000J0D01*
G01*
X3798000Y-5011000D02*
G75*
G02*
X3828000Y-5011000I15000J0D01*
G01*
X3865000Y-2700000D02*
G75*
G02*
X3835000Y-2700000I-15000J0D01*
G01*
X3835000Y-2700000D02*
G75*
G02*
X3865000Y-2700000I15000J0D01*
G01*
X3915000Y-1100000D02*
G75*
G02*
X3885000Y-1100000I-15000J0D01*
G01*
X3885000Y-1100000D02*
G75*
G02*
X3915000Y-1100000I15000J0D01*
G01*
X3990000Y-2225000D02*
G75*
G02*
X3960000Y-2225000I-15000J0D01*
G01*
X3960000Y-2225000D02*
G75*
G02*
X3990000Y-2225000I15000J0D01*
G01*
X3992640Y-5201920D02*
G75*
G02*
X3962640Y-5201920I-15000J0D01*
G01*
X3962640Y-5201920D02*
G75*
G02*
X3992640Y-5201920I15000J0D01*
G01*
X4000000Y-3287000D02*
G75*
G02*
X3970000Y-3287000I-15000J0D01*
G01*
X3970000Y-3287000D02*
G75*
G02*
X4000000Y-3287000I15000J0D01*
G01*
X4015000Y-5400000D02*
G75*
G02*
X3985000Y-5400000I-15000J0D01*
G01*
X3985000Y-5400000D02*
G75*
G02*
X4015000Y-5400000I15000J0D01*
G01*
X4059383Y-4475086D02*
G75*
G02*
X4029383Y-4475086I-15000J0D01*
G01*
X4029383Y-4475086D02*
G75*
G02*
X4059383Y-4475086I15000J0D01*
G01*
X4063000Y-3097000D02*
G75*
G02*
X4033000Y-3097000I-15000J0D01*
G01*
X4033000Y-3097000D02*
G75*
G02*
X4063000Y-3097000I15000J0D01*
G01*
X4085000Y-5205000D02*
G75*
G02*
X4055000Y-5205000I-15000J0D01*
G01*
X4055000Y-5205000D02*
G75*
G02*
X4085000Y-5205000I15000J0D01*
G01*
X4103000Y-2946000D02*
G75*
G02*
X4073000Y-2946000I-15000J0D01*
G01*
X4073000Y-2946000D02*
G75*
G02*
X4103000Y-2946000I15000J0D01*
G01*
X4114359Y-5105601D02*
G75*
G02*
X4084359Y-5105601I-15000J0D01*
G01*
X4084359Y-5105601D02*
G75*
G02*
X4114359Y-5105601I15000J0D01*
G01*
X4115000Y-100000D02*
G75*
G02*
X4085000Y-100000I-15000J0D01*
G01*
X4085000Y-100000D02*
G75*
G02*
X4115000Y-100000I15000J0D01*
G01*
X4115000Y-6900000D02*
G75*
G02*
X4085000Y-6900000I-15000J0D01*
G01*
X4085000Y-6900000D02*
G75*
G02*
X4115000Y-6900000I15000J0D01*
G01*
X4135000Y-3511000D02*
G75*
G02*
X4105000Y-3511000I-15000J0D01*
G01*
X4105000Y-3511000D02*
G75*
G02*
X4135000Y-3511000I15000J0D01*
G01*
X4165000Y-875000D02*
G75*
G02*
X4135000Y-875000I-15000J0D01*
G01*
X4135000Y-875000D02*
G75*
G02*
X4165000Y-875000I15000J0D01*
G01*
X4193000Y-3151000D02*
G75*
G02*
X4163000Y-3151000I-15000J0D01*
G01*
X4163000Y-3151000D02*
G75*
G02*
X4193000Y-3151000I15000J0D01*
G01*
X4215000Y-1300000D02*
G75*
G02*
X4185000Y-1300000I-15000J0D01*
G01*
X4185000Y-1300000D02*
G75*
G02*
X4215000Y-1300000I15000J0D01*
G01*
X4215000Y-1800000D02*
G75*
G02*
X4185000Y-1800000I-15000J0D01*
G01*
X4185000Y-1800000D02*
G75*
G02*
X4215000Y-1800000I15000J0D01*
G01*
X4224000Y-3701000D02*
G75*
G02*
X4194000Y-3701000I-15000J0D01*
G01*
X4194000Y-3701000D02*
G75*
G02*
X4224000Y-3701000I15000J0D01*
G01*
X4231000Y-3578000D02*
G75*
G02*
X4201000Y-3578000I-15000J0D01*
G01*
X4201000Y-3578000D02*
G75*
G02*
X4231000Y-3578000I15000J0D01*
G01*
X4400000Y-3069000D02*
G75*
G02*
X4370000Y-3069000I-15000J0D01*
G01*
X4370000Y-3069000D02*
G75*
G02*
X4400000Y-3069000I15000J0D01*
G01*
X4400000Y-3863000D02*
G75*
G02*
X4370000Y-3863000I-15000J0D01*
G01*
X4370000Y-3863000D02*
G75*
G02*
X4400000Y-3863000I15000J0D01*
G01*
X4463000Y-3222000D02*
G75*
G02*
X4433000Y-3222000I-15000J0D01*
G01*
X4433000Y-3222000D02*
G75*
G02*
X4463000Y-3222000I15000J0D01*
G01*
X4464000Y-3516000D02*
G75*
G02*
X4434000Y-3516000I-15000J0D01*
G01*
X4434000Y-3516000D02*
G75*
G02*
X4464000Y-3516000I15000J0D01*
G01*
X4467500Y-5765000D02*
G75*
G02*
X4437500Y-5765000I-15000J0D01*
G01*
X4437500Y-5765000D02*
G75*
G02*
X4467500Y-5765000I15000J0D01*
G01*
X4476000Y-6162000D02*
G75*
G02*
X4446000Y-6162000I-15000J0D01*
G01*
X4446000Y-6162000D02*
G75*
G02*
X4476000Y-6162000I15000J0D01*
G01*
X4515000Y-3100000D02*
G75*
G02*
X4485000Y-3100000I-15000J0D01*
G01*
X4485000Y-3100000D02*
G75*
G02*
X4515000Y-3100000I15000J0D01*
G01*
X4541150Y-5765000D02*
G75*
G02*
X4511150Y-5765000I-15000J0D01*
G01*
X4511150Y-5765000D02*
G75*
G02*
X4541150Y-5765000I15000J0D01*
G01*
X4574000Y-3403600D02*
G75*
G02*
X4544000Y-3403600I-15000J0D01*
G01*
X4544000Y-3403600D02*
G75*
G02*
X4574000Y-3403600I15000J0D01*
G01*
X4613850Y-5765000D02*
G75*
G02*
X4583850Y-5765000I-15000J0D01*
G01*
X4583850Y-5765000D02*
G75*
G02*
X4613850Y-5765000I15000J0D01*
G01*
X4647000Y-3315000D02*
G75*
G02*
X4617000Y-3315000I-15000J0D01*
G01*
X4617000Y-3315000D02*
G75*
G02*
X4647000Y-3315000I15000J0D01*
G01*
X4690000Y-800000D02*
G75*
G02*
X4660000Y-800000I-15000J0D01*
G01*
X4660000Y-800000D02*
G75*
G02*
X4690000Y-800000I15000J0D01*
G01*
X4690000Y-5765000D02*
G75*
G02*
X4660000Y-5765000I-15000J0D01*
G01*
X4660000Y-5765000D02*
G75*
G02*
X4690000Y-5765000I15000J0D01*
G01*
X4697000Y-3008000D02*
G75*
G02*
X4667000Y-3008000I-15000J0D01*
G01*
X4667000Y-3008000D02*
G75*
G02*
X4697000Y-3008000I15000J0D01*
G01*
X4714915Y-3542211D02*
G75*
G02*
X4684915Y-3542211I-15000J0D01*
G01*
X4684915Y-3542211D02*
G75*
G02*
X4714915Y-3542211I15000J0D01*
G01*
X4765000Y-800000D02*
G75*
G02*
X4735000Y-800000I-15000J0D01*
G01*
X4735000Y-800000D02*
G75*
G02*
X4765000Y-800000I15000J0D01*
G01*
X4765000Y-4250000D02*
G75*
G02*
X4735000Y-4250000I-15000J0D01*
G01*
X4735000Y-4250000D02*
G75*
G02*
X4765000Y-4250000I15000J0D01*
G01*
X4765000Y-4400000D02*
G75*
G02*
X4735000Y-4400000I-15000J0D01*
G01*
X4735000Y-4400000D02*
G75*
G02*
X4765000Y-4400000I15000J0D01*
G01*
X4787000Y-5605000D02*
G75*
G02*
X4757000Y-5605000I-15000J0D01*
G01*
X4757000Y-5605000D02*
G75*
G02*
X4787000Y-5605000I15000J0D01*
G01*
X4815000Y-2900000D02*
G75*
G02*
X4785000Y-2900000I-15000J0D01*
G01*
X4785000Y-2900000D02*
G75*
G02*
X4815000Y-2900000I15000J0D01*
G01*
X4840000Y-4462912D02*
G75*
G02*
X4810000Y-4462912I-15000J0D01*
G01*
X4810000Y-4462912D02*
G75*
G02*
X4840000Y-4462912I15000J0D01*
G01*
X4880000Y-5655000D02*
G75*
G02*
X4850000Y-5655000I-15000J0D01*
G01*
X4850000Y-5655000D02*
G75*
G02*
X4880000Y-5655000I15000J0D01*
G01*
X4917181Y-477500D02*
G75*
G02*
X4887181Y-477500I-15000J0D01*
G01*
X4887181Y-477500D02*
G75*
G02*
X4917181Y-477500I15000J0D01*
G01*
X4940000Y-1350000D02*
G75*
G02*
X4910000Y-1350000I-15000J0D01*
G01*
X4910000Y-1350000D02*
G75*
G02*
X4940000Y-1350000I15000J0D01*
G01*
X4942600Y-5582920D02*
G75*
G02*
X4912600Y-5582920I-15000J0D01*
G01*
X4912600Y-5582920D02*
G75*
G02*
X4942600Y-5582920I15000J0D01*
G01*
X4962000Y-6653000D02*
G75*
G02*
X4932000Y-6653000I-15000J0D01*
G01*
X4932000Y-6653000D02*
G75*
G02*
X4962000Y-6653000I15000J0D01*
G01*
X4965000Y-3850000D02*
G75*
G02*
X4935000Y-3850000I-15000J0D01*
G01*
X4935000Y-3850000D02*
G75*
G02*
X4965000Y-3850000I15000J0D01*
G01*
X4993400Y-5283200D02*
G75*
G02*
X4963400Y-5283200I-15000J0D01*
G01*
X4963400Y-5283200D02*
G75*
G02*
X4993400Y-5283200I15000J0D01*
G01*
X5015000Y-100000D02*
G75*
G02*
X4985000Y-100000I-15000J0D01*
G01*
X4985000Y-100000D02*
G75*
G02*
X5015000Y-100000I15000J0D01*
G01*
X5015000Y-6900000D02*
G75*
G02*
X4985000Y-6900000I-15000J0D01*
G01*
X4985000Y-6900000D02*
G75*
G02*
X5015000Y-6900000I15000J0D01*
G01*
X5021152Y-319010D02*
G75*
G02*
X4991152Y-319010I-15000J0D01*
G01*
X4991152Y-319010D02*
G75*
G02*
X5021152Y-319010I15000J0D01*
G01*
X5039999Y-3964778D02*
G75*
G02*
X5009999Y-3964778I-15000J0D01*
G01*
X5009999Y-3964778D02*
G75*
G02*
X5039999Y-3964778I15000J0D01*
G01*
X5115000Y-2850000D02*
G75*
G02*
X5085000Y-2850000I-15000J0D01*
G01*
X5085000Y-2850000D02*
G75*
G02*
X5115000Y-2850000I15000J0D01*
G01*
X5120400Y-5308600D02*
G75*
G02*
X5090400Y-5308600I-15000J0D01*
G01*
X5090400Y-5308600D02*
G75*
G02*
X5120400Y-5308600I15000J0D01*
G01*
X5135640Y-4470400D02*
G75*
G02*
X5105640Y-4470400I-15000J0D01*
G01*
X5105640Y-4470400D02*
G75*
G02*
X5135640Y-4470400I15000J0D01*
G01*
X5145800Y-5232400D02*
G75*
G02*
X5115800Y-5232400I-15000J0D01*
G01*
X5115800Y-5232400D02*
G75*
G02*
X5145800Y-5232400I15000J0D01*
G01*
X5215000Y-3400000D02*
G75*
G02*
X5185000Y-3400000I-15000J0D01*
G01*
X5185000Y-3400000D02*
G75*
G02*
X5215000Y-3400000I15000J0D01*
G01*
X5229000Y-3905000D02*
G75*
G02*
X5199000Y-3905000I-15000J0D01*
G01*
X5199000Y-3905000D02*
G75*
G02*
X5229000Y-3905000I15000J0D01*
G01*
X5247400Y-4470400D02*
G75*
G02*
X5217400Y-4470400I-15000J0D01*
G01*
X5217400Y-4470400D02*
G75*
G02*
X5247400Y-4470400I15000J0D01*
G01*
X5272800Y-5308600D02*
G75*
G02*
X5242800Y-5308600I-15000J0D01*
G01*
X5242800Y-5308600D02*
G75*
G02*
X5272800Y-5308600I15000J0D01*
G01*
X5290000Y-1025000D02*
G75*
G02*
X5260000Y-1025000I-15000J0D01*
G01*
X5260000Y-1025000D02*
G75*
G02*
X5290000Y-1025000I15000J0D01*
G01*
X5315000Y-1150000D02*
G75*
G02*
X5285000Y-1150000I-15000J0D01*
G01*
X5285000Y-1150000D02*
G75*
G02*
X5315000Y-1150000I15000J0D01*
G01*
X5318520Y-5207000D02*
G75*
G02*
X5288520Y-5207000I-15000J0D01*
G01*
X5288520Y-5207000D02*
G75*
G02*
X5318520Y-5207000I15000J0D01*
G01*
X5350000Y-4220000D02*
G75*
G02*
X5320000Y-4220000I-15000J0D01*
G01*
X5320000Y-4220000D02*
G75*
G02*
X5350000Y-4220000I15000J0D01*
G01*
X5365000Y-2300000D02*
G75*
G02*
X5335000Y-2300000I-15000J0D01*
G01*
X5335000Y-2300000D02*
G75*
G02*
X5365000Y-2300000I15000J0D01*
G01*
X5399800Y-5257800D02*
G75*
G02*
X5369800Y-5257800I-15000J0D01*
G01*
X5369800Y-5257800D02*
G75*
G02*
X5399800Y-5257800I15000J0D01*
G01*
X5401000Y-3850000D02*
G75*
G02*
X5371000Y-3850000I-15000J0D01*
G01*
X5371000Y-3850000D02*
G75*
G02*
X5401000Y-3850000I15000J0D01*
G01*
X5414000Y-3365000D02*
G75*
G02*
X5384000Y-3365000I-15000J0D01*
G01*
X5384000Y-3365000D02*
G75*
G02*
X5414000Y-3365000I15000J0D01*
G01*
X5415000Y-5950000D02*
G75*
G02*
X5385000Y-5950000I-15000J0D01*
G01*
X5385000Y-5950000D02*
G75*
G02*
X5415000Y-5950000I15000J0D01*
G01*
X5415000Y-6150000D02*
G75*
G02*
X5385000Y-6150000I-15000J0D01*
G01*
X5385000Y-6150000D02*
G75*
G02*
X5415000Y-6150000I15000J0D01*
G01*
X5440000Y-3584000D02*
G75*
G02*
X5410000Y-3584000I-15000J0D01*
G01*
X5410000Y-3584000D02*
G75*
G02*
X5440000Y-3584000I15000J0D01*
G01*
X5450600Y-5135880D02*
G75*
G02*
X5420600Y-5135880I-15000J0D01*
G01*
X5420600Y-5135880D02*
G75*
G02*
X5450600Y-5135880I15000J0D01*
G01*
X5475000Y-755000D02*
G75*
G02*
X5445000Y-755000I-15000J0D01*
G01*
X5445000Y-755000D02*
G75*
G02*
X5475000Y-755000I15000J0D01*
G01*
X5475000Y-825000D02*
G75*
G02*
X5445000Y-825000I-15000J0D01*
G01*
X5445000Y-825000D02*
G75*
G02*
X5475000Y-825000I15000J0D01*
G01*
X5477500Y-685000D02*
G75*
G02*
X5447500Y-685000I-15000J0D01*
G01*
X5447500Y-685000D02*
G75*
G02*
X5477500Y-685000I15000J0D01*
G01*
X5515000Y-3900000D02*
G75*
G02*
X5485000Y-3900000I-15000J0D01*
G01*
X5485000Y-3900000D02*
G75*
G02*
X5515000Y-3900000I15000J0D01*
G01*
X5526800Y-5207000D02*
G75*
G02*
X5496800Y-5207000I-15000J0D01*
G01*
X5496800Y-5207000D02*
G75*
G02*
X5526800Y-5207000I15000J0D01*
G01*
X5565000Y-5800000D02*
G75*
G02*
X5535000Y-5800000I-15000J0D01*
G01*
X5535000Y-5800000D02*
G75*
G02*
X5565000Y-5800000I15000J0D01*
G01*
X5565000Y-5900000D02*
G75*
G02*
X5535000Y-5900000I-15000J0D01*
G01*
X5535000Y-5900000D02*
G75*
G02*
X5565000Y-5900000I15000J0D01*
G01*
X5565000Y-6000000D02*
G75*
G02*
X5535000Y-6000000I-15000J0D01*
G01*
X5535000Y-6000000D02*
G75*
G02*
X5565000Y-6000000I15000J0D01*
G01*
X5565000Y-6200000D02*
G75*
G02*
X5535000Y-6200000I-15000J0D01*
G01*
X5535000Y-6200000D02*
G75*
G02*
X5565000Y-6200000I15000J0D01*
G01*
X5565000Y-6300000D02*
G75*
G02*
X5535000Y-6300000I-15000J0D01*
G01*
X5535000Y-6300000D02*
G75*
G02*
X5565000Y-6300000I15000J0D01*
G01*
X5565000Y-6500000D02*
G75*
G02*
X5535000Y-6500000I-15000J0D01*
G01*
X5535000Y-6500000D02*
G75*
G02*
X5565000Y-6500000I15000J0D01*
G01*
X5565000Y-6600000D02*
G75*
G02*
X5535000Y-6600000I-15000J0D01*
G01*
X5535000Y-6600000D02*
G75*
G02*
X5565000Y-6600000I15000J0D01*
G01*
X5565000Y-6692550D02*
G75*
G02*
X5535000Y-6692550I-15000J0D01*
G01*
X5535000Y-6692550D02*
G75*
G02*
X5565000Y-6692550I15000J0D01*
G01*
X5572000Y-3849000D02*
G75*
G02*
X5542000Y-3849000I-15000J0D01*
G01*
X5542000Y-3849000D02*
G75*
G02*
X5572000Y-3849000I15000J0D01*
G01*
X5572520Y-5064760D02*
G75*
G02*
X5542520Y-5064760I-15000J0D01*
G01*
X5542520Y-5064760D02*
G75*
G02*
X5572520Y-5064760I15000J0D01*
G01*
X5637500Y-352500D02*
G75*
G02*
X5607500Y-352500I-15000J0D01*
G01*
X5607500Y-352500D02*
G75*
G02*
X5637500Y-352500I15000J0D01*
G01*
X5637500Y-687500D02*
G75*
G02*
X5607500Y-687500I-15000J0D01*
G01*
X5607500Y-687500D02*
G75*
G02*
X5637500Y-687500I15000J0D01*
G01*
X5640000Y-927500D02*
G75*
G02*
X5610000Y-927500I-15000J0D01*
G01*
X5610000Y-927500D02*
G75*
G02*
X5640000Y-927500I15000J0D01*
G01*
X5653800Y-5130800D02*
G75*
G02*
X5623800Y-5130800I-15000J0D01*
G01*
X5623800Y-5130800D02*
G75*
G02*
X5653800Y-5130800I15000J0D01*
G01*
X5665000Y-5800000D02*
G75*
G02*
X5635000Y-5800000I-15000J0D01*
G01*
X5635000Y-5800000D02*
G75*
G02*
X5665000Y-5800000I15000J0D01*
G01*
X5665000Y-6150000D02*
G75*
G02*
X5635000Y-6150000I-15000J0D01*
G01*
X5635000Y-6150000D02*
G75*
G02*
X5665000Y-6150000I15000J0D01*
G01*
X5665000Y-6400000D02*
G75*
G02*
X5635000Y-6400000I-15000J0D01*
G01*
X5635000Y-6400000D02*
G75*
G02*
X5665000Y-6400000I15000J0D01*
G01*
X5694440Y-3845560D02*
G75*
G02*
X5664440Y-3845560I-15000J0D01*
G01*
X5664440Y-3845560D02*
G75*
G02*
X5694440Y-3845560I15000J0D01*
G01*
X5702500Y-990000D02*
G75*
G02*
X5672500Y-990000I-15000J0D01*
G01*
X5672500Y-990000D02*
G75*
G02*
X5702500Y-990000I15000J0D01*
G01*
X5709680Y-4998720D02*
G75*
G02*
X5679680Y-4998720I-15000J0D01*
G01*
X5679680Y-4998720D02*
G75*
G02*
X5709680Y-4998720I15000J0D01*
G01*
X5780800Y-5054600D02*
G75*
G02*
X5750800Y-5054600I-15000J0D01*
G01*
X5750800Y-5054600D02*
G75*
G02*
X5780800Y-5054600I15000J0D01*
G01*
X5831600Y-4724400D02*
G75*
G02*
X5801600Y-4724400I-15000J0D01*
G01*
X5801600Y-4724400D02*
G75*
G02*
X5831600Y-4724400I15000J0D01*
G01*
X5836680Y-4831080D02*
G75*
G02*
X5806680Y-4831080I-15000J0D01*
G01*
X5806680Y-4831080D02*
G75*
G02*
X5836680Y-4831080I15000J0D01*
G01*
X5851920Y-3845560D02*
G75*
G02*
X5821920Y-3845560I-15000J0D01*
G01*
X5821920Y-3845560D02*
G75*
G02*
X5851920Y-3845560I15000J0D01*
G01*
X5889000Y-5701000D02*
G75*
G02*
X5859000Y-5701000I-15000J0D01*
G01*
X5859000Y-5701000D02*
G75*
G02*
X5889000Y-5701000I15000J0D01*
G01*
X5953520Y-5293360D02*
G75*
G02*
X5923520Y-5293360I-15000J0D01*
G01*
X5923520Y-5293360D02*
G75*
G02*
X5953520Y-5293360I15000J0D01*
G01*
X5956000Y-5477000D02*
G75*
G02*
X5926000Y-5477000I-15000J0D01*
G01*
X5926000Y-5477000D02*
G75*
G02*
X5956000Y-5477000I15000J0D01*
G01*
X5965000Y-4000000D02*
G75*
G02*
X5935000Y-4000000I-15000J0D01*
G01*
X5935000Y-4000000D02*
G75*
G02*
X5965000Y-4000000I15000J0D01*
G01*
X5973448Y-5221848D02*
G75*
G02*
X5943448Y-5221848I-15000J0D01*
G01*
X5943448Y-5221848D02*
G75*
G02*
X5973448Y-5221848I15000J0D01*
G01*
X6015000Y-100000D02*
G75*
G02*
X5985000Y-100000I-15000J0D01*
G01*
X5985000Y-100000D02*
G75*
G02*
X6015000Y-100000I15000J0D01*
G01*
X6015000Y-4400000D02*
G75*
G02*
X5985000Y-4400000I-15000J0D01*
G01*
X5985000Y-4400000D02*
G75*
G02*
X6015000Y-4400000I15000J0D01*
G01*
X6015000Y-6900000D02*
G75*
G02*
X5985000Y-6900000I-15000J0D01*
G01*
X5985000Y-6900000D02*
G75*
G02*
X6015000Y-6900000I15000J0D01*
G01*
X6040000Y-5300000D02*
G75*
G02*
X6010000Y-5300000I-15000J0D01*
G01*
X6010000Y-5300000D02*
G75*
G02*
X6040000Y-5300000I15000J0D01*
G01*
X6052500Y-467500D02*
G75*
G02*
X6022500Y-467500I-15000J0D01*
G01*
X6022500Y-467500D02*
G75*
G02*
X6052500Y-467500I15000J0D01*
G01*
X6115000Y-5300000D02*
G75*
G02*
X6085000Y-5300000I-15000J0D01*
G01*
X6085000Y-5300000D02*
G75*
G02*
X6115000Y-5300000I15000J0D01*
G01*
X6115000Y-6162500D02*
G75*
G02*
X6085000Y-6162500I-15000J0D01*
G01*
X6085000Y-6162500D02*
G75*
G02*
X6115000Y-6162500I15000J0D01*
G01*
X6115000Y-6250000D02*
G75*
G02*
X6085000Y-6250000I-15000J0D01*
G01*
X6085000Y-6250000D02*
G75*
G02*
X6115000Y-6250000I15000J0D01*
G01*
X6115000Y-6350000D02*
G75*
G02*
X6085000Y-6350000I-15000J0D01*
G01*
X6085000Y-6350000D02*
G75*
G02*
X6115000Y-6350000I15000J0D01*
G01*
X6190000Y-275000D02*
G75*
G02*
X6160000Y-275000I-15000J0D01*
G01*
X6160000Y-275000D02*
G75*
G02*
X6190000Y-275000I15000J0D01*
G01*
X6215000Y-3600000D02*
G75*
G02*
X6185000Y-3600000I-15000J0D01*
G01*
X6185000Y-3600000D02*
G75*
G02*
X6215000Y-3600000I15000J0D01*
G01*
X6215000Y-3700000D02*
G75*
G02*
X6185000Y-3700000I-15000J0D01*
G01*
X6185000Y-3700000D02*
G75*
G02*
X6215000Y-3700000I15000J0D01*
G01*
X6215000Y-3800000D02*
G75*
G02*
X6185000Y-3800000I-15000J0D01*
G01*
X6185000Y-3800000D02*
G75*
G02*
X6215000Y-3800000I15000J0D01*
G01*
X6240000Y-3150000D02*
G75*
G02*
X6210000Y-3150000I-15000J0D01*
G01*
X6210000Y-3150000D02*
G75*
G02*
X6240000Y-3150000I15000J0D01*
G01*
X6240000Y-3225000D02*
G75*
G02*
X6210000Y-3225000I-15000J0D01*
G01*
X6210000Y-3225000D02*
G75*
G02*
X6240000Y-3225000I15000J0D01*
G01*
X6250300Y-5298323D02*
G75*
G02*
X6220300Y-5298323I-15000J0D01*
G01*
X6220300Y-5298323D02*
G75*
G02*
X6250300Y-5298323I15000J0D01*
G01*
X6265000Y-3375000D02*
G75*
G02*
X6235000Y-3375000I-15000J0D01*
G01*
X6235000Y-3375000D02*
G75*
G02*
X6265000Y-3375000I15000J0D01*
G01*
X6265000Y-5600000D02*
G75*
G02*
X6235000Y-5600000I-15000J0D01*
G01*
X6235000Y-5600000D02*
G75*
G02*
X6265000Y-5600000I15000J0D01*
G01*
X6265000Y-5700000D02*
G75*
G02*
X6235000Y-5700000I-15000J0D01*
G01*
X6235000Y-5700000D02*
G75*
G02*
X6265000Y-5700000I15000J0D01*
G01*
X6265000Y-5800000D02*
G75*
G02*
X6235000Y-5800000I-15000J0D01*
G01*
X6235000Y-5800000D02*
G75*
G02*
X6265000Y-5800000I15000J0D01*
G01*
X6265000Y-5900000D02*
G75*
G02*
X6235000Y-5900000I-15000J0D01*
G01*
X6235000Y-5900000D02*
G75*
G02*
X6265000Y-5900000I15000J0D01*
G01*
X6315000Y-2050000D02*
G75*
G02*
X6285000Y-2050000I-15000J0D01*
G01*
X6285000Y-2050000D02*
G75*
G02*
X6315000Y-2050000I15000J0D01*
G01*
X6315000Y-3150000D02*
G75*
G02*
X6285000Y-3150000I-15000J0D01*
G01*
X6285000Y-3150000D02*
G75*
G02*
X6315000Y-3150000I15000J0D01*
G01*
X6315000Y-3225000D02*
G75*
G02*
X6285000Y-3225000I-15000J0D01*
G01*
X6285000Y-3225000D02*
G75*
G02*
X6315000Y-3225000I15000J0D01*
G01*
X6315000Y-5650000D02*
G75*
G02*
X6285000Y-5650000I-15000J0D01*
G01*
X6285000Y-5650000D02*
G75*
G02*
X6315000Y-5650000I15000J0D01*
G01*
X6315000Y-5750000D02*
G75*
G02*
X6285000Y-5750000I-15000J0D01*
G01*
X6285000Y-5750000D02*
G75*
G02*
X6315000Y-5750000I15000J0D01*
G01*
X6340000Y-1225000D02*
G75*
G02*
X6310000Y-1225000I-15000J0D01*
G01*
X6310000Y-1225000D02*
G75*
G02*
X6340000Y-1225000I15000J0D01*
G01*
X6390000Y-1625000D02*
G75*
G02*
X6360000Y-1625000I-15000J0D01*
G01*
X6360000Y-1625000D02*
G75*
G02*
X6390000Y-1625000I15000J0D01*
G01*
X6440000Y-2050000D02*
G75*
G02*
X6410000Y-2050000I-15000J0D01*
G01*
X6410000Y-2050000D02*
G75*
G02*
X6440000Y-2050000I15000J0D01*
G01*
X6610000Y-2752500D02*
G75*
G02*
X6580000Y-2752500I-15000J0D01*
G01*
X6580000Y-2752500D02*
G75*
G02*
X6610000Y-2752500I15000J0D01*
G01*
X6612500Y-1812500D02*
G75*
G02*
X6582500Y-1812500I-15000J0D01*
G01*
X6582500Y-1812500D02*
G75*
G02*
X6612500Y-1812500I15000J0D01*
G01*
X6615000Y-3375000D02*
G75*
G02*
X6585000Y-3375000I-15000J0D01*
G01*
X6585000Y-3375000D02*
G75*
G02*
X6615000Y-3375000I15000J0D01*
G01*
X6617500Y-1155000D02*
G75*
G02*
X6587500Y-1155000I-15000J0D01*
G01*
X6587500Y-1155000D02*
G75*
G02*
X6617500Y-1155000I15000J0D01*
G01*
X6627500Y-2065000D02*
G75*
G02*
X6597500Y-2065000I-15000J0D01*
G01*
X6597500Y-2065000D02*
G75*
G02*
X6627500Y-2065000I15000J0D01*
G01*
X6915000Y-900000D02*
G75*
G02*
X6885000Y-900000I-15000J0D01*
G01*
X6885000Y-900000D02*
G75*
G02*
X6915000Y-900000I15000J0D01*
G01*
X6915000Y-1900000D02*
G75*
G02*
X6885000Y-1900000I-15000J0D01*
G01*
X6885000Y-1900000D02*
G75*
G02*
X6915000Y-1900000I15000J0D01*
G01*
X6915000Y-2900000D02*
G75*
G02*
X6885000Y-2900000I-15000J0D01*
G01*
X6885000Y-2900000D02*
G75*
G02*
X6915000Y-2900000I15000J0D01*
G01*
X6915000Y-5900000D02*
G75*
G02*
X6885000Y-5900000I-15000J0D01*
G01*
X6885000Y-5900000D02*
G75*
G02*
X6915000Y-5900000I15000J0D01*
G01*
X2150000Y-1512500D02*
X2150000Y-1562500D01*
X2125000Y-1537500D02*
X2175000Y-1537500D01*
X2150000Y-1637500D02*
X2150000Y-1687500D01*
X2125000Y-1662500D02*
X2175000Y-1662500D01*
X166213Y-3539213D02*
X166213Y-3496787D01*
X123787Y-3496787D01*
X123787Y-3539213D01*
X166213Y-3539213D01*
X175000Y-3488000D02*
X115000Y-3488000D01*
X115000Y-3548000D02*
G75*
G02*
X115000Y-3488000I0J30000D01*
G01*
X115000Y-3548000D02*
X175000Y-3548000D01*
X175000Y-3548000D02*
G75*
G03*
X175000Y-3488000I0J30000D01*
G01*
X166213Y-4403213D02*
X166213Y-4360787D01*
X123787Y-4360787D01*
X123787Y-4403213D01*
X166213Y-4403213D01*
X175000Y-4352000D02*
X115000Y-4352000D01*
X115000Y-4412000D02*
G75*
G02*
X115000Y-4352000I0J30000D01*
G01*
X115000Y-4412000D02*
X175000Y-4412000D01*
X175000Y-4412000D02*
G75*
G03*
X175000Y-4352000I0J30000D01*
G01*
X584213Y-3539213D02*
X584213Y-3496787D01*
X541787Y-3496787D01*
X541787Y-3539213D01*
X584213Y-3539213D01*
X618000Y-3488000D02*
X508000Y-3488000D01*
X508000Y-3548000D02*
G75*
G02*
X508000Y-3488000I0J30000D01*
G01*
X508000Y-3548000D02*
X618000Y-3548000D01*
X618000Y-3548000D02*
G75*
G03*
X618000Y-3488000I0J30000D01*
G01*
X584213Y-4403213D02*
X584213Y-4360787D01*
X541787Y-4360787D01*
X541787Y-4403213D01*
X584213Y-4403213D01*
X618000Y-4352000D02*
X508000Y-4352000D01*
X508000Y-4412000D02*
G75*
G02*
X508000Y-4352000I0J30000D01*
G01*
X508000Y-4412000D02*
X618000Y-4412000D01*
X618000Y-4412000D02*
G75*
G03*
X618000Y-4352000I0J30000D01*
G01*
X596000Y-1488100D02*
X634100Y-1450000D01*
X596000Y-1411900D01*
X557900Y-1450000D01*
X596000Y-1488100D01*
X850000Y-1742100D02*
X888100Y-1704000D01*
X850000Y-1665900D01*
X811900Y-1704000D01*
X850000Y-1742100D01*
X1104000Y-1488100D02*
X1142100Y-1450000D01*
X1104000Y-1411900D01*
X1065900Y-1450000D01*
X1104000Y-1488100D01*
X5622500Y-1157500D02*
X5722500Y-1257500D01*
X5722500Y-1157500D02*
X5622500Y-1257500D01*
X5722500Y-1207500D02*
G75*
G02*
X5622500Y-1207500I-50000J0D01*
G01*
X5622500Y-1207500D02*
G75*
G02*
X5722500Y-1207500I50000J0D01*
G01*
X5622500Y-1411500D02*
X5722500Y-1511500D01*
X5722500Y-1411500D02*
X5622500Y-1511500D01*
X5722500Y-1461500D02*
G75*
G02*
X5622500Y-1461500I-50000J0D01*
G01*
X5622500Y-1461500D02*
G75*
G02*
X5722500Y-1461500I50000J0D01*
G01*
X5622500Y-1665500D02*
X5722500Y-1765500D01*
X5722500Y-1665500D02*
X5622500Y-1765500D01*
X5722500Y-1715500D02*
G75*
G02*
X5622500Y-1715500I-50000J0D01*
G01*
X5622500Y-1715500D02*
G75*
G02*
X5722500Y-1715500I50000J0D01*
G01*
X5622500Y-1919500D02*
X5722500Y-2019500D01*
X5722500Y-1919500D02*
X5622500Y-2019500D01*
X5722500Y-1969500D02*
G75*
G02*
X5622500Y-1969500I-50000J0D01*
G01*
X5622500Y-1969500D02*
G75*
G02*
X5722500Y-1969500I50000J0D01*
G01*
X5622500Y-2173500D02*
X5722500Y-2273500D01*
X5722500Y-2173500D02*
X5622500Y-2273500D01*
X5722500Y-2223500D02*
G75*
G02*
X5622500Y-2223500I-50000J0D01*
G01*
X5622500Y-2223500D02*
G75*
G02*
X5722500Y-2223500I50000J0D01*
G01*
X5622500Y-2427500D02*
X5722500Y-2527500D01*
X5722500Y-2427500D02*
X5622500Y-2527500D01*
X5722500Y-2477500D02*
G75*
G02*
X5622500Y-2477500I-50000J0D01*
G01*
X5622500Y-2477500D02*
G75*
G02*
X5722500Y-2477500I50000J0D01*
G01*
X5622500Y-2681500D02*
X5722500Y-2781500D01*
X5722500Y-2681500D02*
X5622500Y-2781500D01*
X5722500Y-2731500D02*
G75*
G02*
X5622500Y-2731500I-50000J0D01*
G01*
X5622500Y-2731500D02*
G75*
G02*
X5722500Y-2731500I50000J0D01*
G01*
X5622500Y-2935500D02*
X5722500Y-3035500D01*
X5722500Y-2935500D02*
X5622500Y-3035500D01*
X5722500Y-2985500D02*
G75*
G02*
X5622500Y-2985500I-50000J0D01*
G01*
X5622500Y-2985500D02*
G75*
G02*
X5722500Y-2985500I50000J0D01*
G01*
X5622500Y-3189500D02*
X5722500Y-3289500D01*
X5722500Y-3189500D02*
X5622500Y-3289500D01*
X5722500Y-3239500D02*
G75*
G02*
X5622500Y-3239500I-50000J0D01*
G01*
X5622500Y-3239500D02*
G75*
G02*
X5722500Y-3239500I50000J0D01*
G01*
X5622500Y-3443500D02*
X5722500Y-3543500D01*
X5722500Y-3443500D02*
X5622500Y-3543500D01*
X5722500Y-3493500D02*
G75*
G02*
X5622500Y-3493500I-50000J0D01*
G01*
X5622500Y-3493500D02*
G75*
G02*
X5722500Y-3493500I50000J0D01*
G01*
X5876500Y-1157500D02*
X5976500Y-1257500D01*
X5976500Y-1157500D02*
X5876500Y-1257500D01*
X5976500Y-1207500D02*
G75*
G02*
X5876500Y-1207500I-50000J0D01*
G01*
X5876500Y-1207500D02*
G75*
G02*
X5976500Y-1207500I50000J0D01*
G01*
X5876500Y-1411500D02*
X5976500Y-1511500D01*
X5976500Y-1411500D02*
X5876500Y-1511500D01*
X5976500Y-1461500D02*
G75*
G02*
X5876500Y-1461500I-50000J0D01*
G01*
X5876500Y-1461500D02*
G75*
G02*
X5976500Y-1461500I50000J0D01*
G01*
X5876500Y-1665500D02*
X5976500Y-1765500D01*
X5976500Y-1665500D02*
X5876500Y-1765500D01*
X5976500Y-1715500D02*
G75*
G02*
X5876500Y-1715500I-50000J0D01*
G01*
X5876500Y-1715500D02*
G75*
G02*
X5976500Y-1715500I50000J0D01*
G01*
X5876500Y-1919500D02*
X5976500Y-2019500D01*
X5976500Y-1919500D02*
X5876500Y-2019500D01*
X5976500Y-1969500D02*
G75*
G02*
X5876500Y-1969500I-50000J0D01*
G01*
X5876500Y-1969500D02*
G75*
G02*
X5976500Y-1969500I50000J0D01*
G01*
X5876500Y-2173500D02*
X5976500Y-2273500D01*
X5976500Y-2173500D02*
X5876500Y-2273500D01*
X5976500Y-2223500D02*
G75*
G02*
X5876500Y-2223500I-50000J0D01*
G01*
X5876500Y-2223500D02*
G75*
G02*
X5976500Y-2223500I50000J0D01*
G01*
X5876500Y-2427500D02*
X5976500Y-2527500D01*
X5976500Y-2427500D02*
X5876500Y-2527500D01*
X5976500Y-2477500D02*
G75*
G02*
X5876500Y-2477500I-50000J0D01*
G01*
X5876500Y-2477500D02*
G75*
G02*
X5976500Y-2477500I50000J0D01*
G01*
X5876500Y-2681500D02*
X5976500Y-2781500D01*
X5976500Y-2681500D02*
X5876500Y-2781500D01*
X5976500Y-2731500D02*
G75*
G02*
X5876500Y-2731500I-50000J0D01*
G01*
X5876500Y-2731500D02*
G75*
G02*
X5976500Y-2731500I50000J0D01*
G01*
X5876500Y-2935500D02*
X5976500Y-3035500D01*
X5976500Y-2935500D02*
X5876500Y-3035500D01*
X5976500Y-2985500D02*
G75*
G02*
X5876500Y-2985500I-50000J0D01*
G01*
X5876500Y-2985500D02*
G75*
G02*
X5976500Y-2985500I50000J0D01*
G01*
X5876500Y-3189500D02*
X5976500Y-3289500D01*
X5976500Y-3189500D02*
X5876500Y-3289500D01*
X5976500Y-3239500D02*
G75*
G02*
X5876500Y-3239500I-50000J0D01*
G01*
X5876500Y-3239500D02*
G75*
G02*
X5976500Y-3239500I50000J0D01*
G01*
X5876500Y-3443500D02*
X5976500Y-3543500D01*
X5976500Y-3443500D02*
X5876500Y-3543500D01*
X5976500Y-3493500D02*
G75*
G02*
X5876500Y-3493500I-50000J0D01*
G01*
X5876500Y-3493500D02*
G75*
G02*
X5976500Y-3493500I50000J0D01*
G01*
D12*
X2620000Y-395000D02*
X2730000Y-505000D01*
X2730000Y-395000D02*
X2620000Y-505000D01*
X2675000Y-395000D02*
X2675000Y-505000D01*
X2620000Y-450000D02*
X2730000Y-450000D01*
X3070000Y-395000D02*
X3180000Y-505000D01*
X3180000Y-395000D02*
X3070000Y-505000D01*
X3125000Y-395000D02*
X3125000Y-505000D01*
X3070000Y-450000D02*
X3180000Y-450000D01*
X3820000Y-395000D02*
X3930000Y-505000D01*
X3930000Y-395000D02*
X3820000Y-505000D01*
X3875000Y-395000D02*
X3875000Y-505000D01*
X3820000Y-450000D02*
X3930000Y-450000D01*
X4270000Y-395000D02*
X4380000Y-505000D01*
X4380000Y-395000D02*
X4270000Y-505000D01*
X4325000Y-395000D02*
X4325000Y-505000D01*
X4270000Y-450000D02*
X4380000Y-450000D01*
D13*
X340000Y-340000D02*
X660000Y-660000D01*
X660000Y-340000D02*
X340000Y-660000D01*
X613138Y-613138D02*
X613138Y-386862D01*
X386862Y-386862D01*
X386862Y-613138D01*
X613138Y-613138D01*
X340000Y-6340000D02*
X660000Y-6660000D01*
X660000Y-6340000D02*
X340000Y-6660000D01*
X613138Y-6613138D02*
X613138Y-6386862D01*
X386862Y-6386862D01*
X386862Y-6613138D01*
X613138Y-6613138D01*
X6340000Y-340000D02*
X6660000Y-660000D01*
X6660000Y-340000D02*
X6340000Y-660000D01*
X6613138Y-613138D02*
X6613138Y-386862D01*
X6386862Y-386862D01*
X6386862Y-613138D01*
X6613138Y-613138D01*
X6340000Y-6340000D02*
X6660000Y-6660000D01*
X6660000Y-6340000D02*
X6340000Y-6660000D01*
X6613138Y-6613138D02*
X6613138Y-6386862D01*
X6386862Y-6386862D01*
X6386862Y-6613138D01*
X6613138Y-6613138D01*
D11*
X255777Y-7316484D02*
X255777Y-7116484D01*
X255777Y-7116484D02*
X303396Y-7116484D01*
X303396Y-7116484D02*
X331967Y-7126008D01*
X331967Y-7126008D02*
X351015Y-7145055D01*
X351015Y-7145055D02*
X360539Y-7164103D01*
X360539Y-7164103D02*
X370062Y-7202198D01*
X370062Y-7202198D02*
X370062Y-7230769D01*
X370062Y-7230769D02*
X360539Y-7268865D01*
X360539Y-7268865D02*
X351015Y-7287912D01*
X351015Y-7287912D02*
X331967Y-7306960D01*
X331967Y-7306960D02*
X303396Y-7316484D01*
X303396Y-7316484D02*
X255777Y-7316484D01*
X455777Y-7316484D02*
X455777Y-7183150D01*
X455777Y-7221246D02*
X465301Y-7202198D01*
X465301Y-7202198D02*
X474824Y-7192674D01*
X474824Y-7192674D02*
X493872Y-7183150D01*
X493872Y-7183150D02*
X512920Y-7183150D01*
X579586Y-7316484D02*
X579586Y-7183150D01*
X579586Y-7116484D02*
X570063Y-7126008D01*
X570063Y-7126008D02*
X579586Y-7135531D01*
X579586Y-7135531D02*
X589110Y-7126008D01*
X589110Y-7126008D02*
X579586Y-7116484D01*
X579586Y-7116484D02*
X579586Y-7135531D01*
X703396Y-7316484D02*
X684348Y-7306960D01*
X684348Y-7306960D02*
X674824Y-7287912D01*
X674824Y-7287912D02*
X674824Y-7116484D01*
X808158Y-7316484D02*
X789110Y-7306960D01*
X789110Y-7306960D02*
X779586Y-7287912D01*
X779586Y-7287912D02*
X779586Y-7116484D01*
X1036729Y-7316484D02*
X1036729Y-7116484D01*
X1036729Y-7116484D02*
X1103396Y-7259341D01*
X1103396Y-7259341D02*
X1170063Y-7116484D01*
X1170063Y-7116484D02*
X1170063Y-7316484D01*
X1351015Y-7316484D02*
X1351015Y-7211722D01*
X1351015Y-7211722D02*
X1341491Y-7192674D01*
X1341491Y-7192674D02*
X1322444Y-7183150D01*
X1322444Y-7183150D02*
X1284348Y-7183150D01*
X1284348Y-7183150D02*
X1265301Y-7192674D01*
X1351015Y-7306960D02*
X1331967Y-7316484D01*
X1331967Y-7316484D02*
X1284348Y-7316484D01*
X1284348Y-7316484D02*
X1265301Y-7306960D01*
X1265301Y-7306960D02*
X1255777Y-7287912D01*
X1255777Y-7287912D02*
X1255777Y-7268865D01*
X1255777Y-7268865D02*
X1265301Y-7249817D01*
X1265301Y-7249817D02*
X1284348Y-7240293D01*
X1284348Y-7240293D02*
X1331967Y-7240293D01*
X1331967Y-7240293D02*
X1351015Y-7230769D01*
X1446253Y-7183150D02*
X1446253Y-7383150D01*
X1446253Y-7192674D02*
X1465301Y-7183150D01*
X1465301Y-7183150D02*
X1503396Y-7183150D01*
X1503396Y-7183150D02*
X1522443Y-7192674D01*
X1522443Y-7192674D02*
X1531967Y-7202198D01*
X1531967Y-7202198D02*
X1541491Y-7221246D01*
X1541491Y-7221246D02*
X1541491Y-7278388D01*
X1541491Y-7278388D02*
X1531967Y-7297436D01*
X1531967Y-7297436D02*
X1522443Y-7306960D01*
X1522443Y-7306960D02*
X1503396Y-7316484D01*
X1503396Y-7316484D02*
X1465301Y-7316484D01*
X1465301Y-7316484D02*
X1446253Y-7306960D01*
X1627205Y-7297436D02*
X1636729Y-7306960D01*
X1636729Y-7306960D02*
X1627205Y-7316484D01*
X1627205Y-7316484D02*
X1617682Y-7306960D01*
X1617682Y-7306960D02*
X1627205Y-7297436D01*
X1627205Y-7297436D02*
X1627205Y-7316484D01*
X1627205Y-7192674D02*
X1636729Y-7202198D01*
X1636729Y-7202198D02*
X1627205Y-7211722D01*
X1627205Y-7211722D02*
X1617682Y-7202198D01*
X1617682Y-7202198D02*
X1627205Y-7192674D01*
X1627205Y-7192674D02*
X1627205Y-7211722D01*
D10*
X-25000Y-7635000D02*
X-5000Y-7655000D01*
X-5000Y-7635000D02*
X-25000Y-7655000D01*
D11*
X293872Y-7536484D02*
X312920Y-7536484D01*
X312920Y-7536484D02*
X331967Y-7546008D01*
X331967Y-7546008D02*
X341491Y-7555531D01*
X341491Y-7555531D02*
X351015Y-7574579D01*
X351015Y-7574579D02*
X360539Y-7612674D01*
X360539Y-7612674D02*
X360539Y-7660293D01*
X360539Y-7660293D02*
X351015Y-7698388D01*
X351015Y-7698388D02*
X341491Y-7717436D01*
X341491Y-7717436D02*
X331967Y-7726960D01*
X331967Y-7726960D02*
X312920Y-7736484D01*
X312920Y-7736484D02*
X293872Y-7736484D01*
X293872Y-7736484D02*
X274824Y-7726960D01*
X274824Y-7726960D02*
X265301Y-7717436D01*
X265301Y-7717436D02*
X255777Y-7698388D01*
X255777Y-7698388D02*
X246253Y-7660293D01*
X246253Y-7660293D02*
X246253Y-7612674D01*
X246253Y-7612674D02*
X255777Y-7574579D01*
X255777Y-7574579D02*
X265301Y-7555531D01*
X265301Y-7555531D02*
X274824Y-7546008D01*
X274824Y-7546008D02*
X293872Y-7536484D01*
X446253Y-7717436D02*
X455777Y-7726960D01*
X455777Y-7726960D02*
X446253Y-7736484D01*
X446253Y-7736484D02*
X436729Y-7726960D01*
X436729Y-7726960D02*
X446253Y-7717436D01*
X446253Y-7717436D02*
X446253Y-7736484D01*
X531967Y-7555531D02*
X541491Y-7546008D01*
X541491Y-7546008D02*
X560539Y-7536484D01*
X560539Y-7536484D02*
X608158Y-7536484D01*
X608158Y-7536484D02*
X627205Y-7546008D01*
X627205Y-7546008D02*
X636729Y-7555531D01*
X636729Y-7555531D02*
X646253Y-7574579D01*
X646253Y-7574579D02*
X646253Y-7593627D01*
X646253Y-7593627D02*
X636729Y-7622198D01*
X636729Y-7622198D02*
X522443Y-7736484D01*
X522443Y-7736484D02*
X646253Y-7736484D01*
X770062Y-7536484D02*
X789110Y-7536484D01*
X789110Y-7536484D02*
X808158Y-7546008D01*
X808158Y-7546008D02*
X817682Y-7555531D01*
X817682Y-7555531D02*
X827205Y-7574579D01*
X827205Y-7574579D02*
X836729Y-7612674D01*
X836729Y-7612674D02*
X836729Y-7660293D01*
X836729Y-7660293D02*
X827205Y-7698388D01*
X827205Y-7698388D02*
X817682Y-7717436D01*
X817682Y-7717436D02*
X808158Y-7726960D01*
X808158Y-7726960D02*
X789110Y-7736484D01*
X789110Y-7736484D02*
X770062Y-7736484D01*
X770062Y-7736484D02*
X751015Y-7726960D01*
X751015Y-7726960D02*
X741491Y-7717436D01*
X741491Y-7717436D02*
X731967Y-7698388D01*
X731967Y-7698388D02*
X722443Y-7660293D01*
X722443Y-7660293D02*
X722443Y-7612674D01*
X722443Y-7612674D02*
X731967Y-7574579D01*
X731967Y-7574579D02*
X741491Y-7555531D01*
X741491Y-7555531D02*
X751015Y-7546008D01*
X751015Y-7546008D02*
X770062Y-7536484D01*
X960539Y-7536484D02*
X979586Y-7536484D01*
X979586Y-7536484D02*
X998634Y-7546008D01*
X998634Y-7546008D02*
X1008158Y-7555531D01*
X1008158Y-7555531D02*
X1017682Y-7574579D01*
X1017682Y-7574579D02*
X1027205Y-7612674D01*
X1027205Y-7612674D02*
X1027205Y-7660293D01*
X1027205Y-7660293D02*
X1017682Y-7698388D01*
X1017682Y-7698388D02*
X1008158Y-7717436D01*
X1008158Y-7717436D02*
X998634Y-7726960D01*
X998634Y-7726960D02*
X979586Y-7736484D01*
X979586Y-7736484D02*
X960539Y-7736484D01*
X960539Y-7736484D02*
X941491Y-7726960D01*
X941491Y-7726960D02*
X931967Y-7717436D01*
X931967Y-7717436D02*
X922443Y-7698388D01*
X922443Y-7698388D02*
X912920Y-7660293D01*
X912920Y-7660293D02*
X912920Y-7612674D01*
X912920Y-7612674D02*
X922443Y-7574579D01*
X922443Y-7574579D02*
X931967Y-7555531D01*
X931967Y-7555531D02*
X941491Y-7546008D01*
X941491Y-7546008D02*
X960539Y-7536484D01*
X1112920Y-7736484D02*
X1112920Y-7603150D01*
X1112920Y-7622198D02*
X1122444Y-7612674D01*
X1122444Y-7612674D02*
X1141491Y-7603150D01*
X1141491Y-7603150D02*
X1170063Y-7603150D01*
X1170063Y-7603150D02*
X1189110Y-7612674D01*
X1189110Y-7612674D02*
X1198634Y-7631722D01*
X1198634Y-7631722D02*
X1198634Y-7736484D01*
X1198634Y-7631722D02*
X1208158Y-7612674D01*
X1208158Y-7612674D02*
X1227205Y-7603150D01*
X1227205Y-7603150D02*
X1255777Y-7603150D01*
X1255777Y-7603150D02*
X1274825Y-7612674D01*
X1274825Y-7612674D02*
X1284348Y-7631722D01*
X1284348Y-7631722D02*
X1284348Y-7736484D01*
X1379586Y-7736484D02*
X1379586Y-7603150D01*
X1379586Y-7622198D02*
X1389110Y-7612674D01*
X1389110Y-7612674D02*
X1408158Y-7603150D01*
X1408158Y-7603150D02*
X1436729Y-7603150D01*
X1436729Y-7603150D02*
X1455777Y-7612674D01*
X1455777Y-7612674D02*
X1465301Y-7631722D01*
X1465301Y-7631722D02*
X1465301Y-7736484D01*
X1465301Y-7631722D02*
X1474824Y-7612674D01*
X1474824Y-7612674D02*
X1493872Y-7603150D01*
X1493872Y-7603150D02*
X1522443Y-7603150D01*
X1522443Y-7603150D02*
X1541491Y-7612674D01*
X1541491Y-7612674D02*
X1551015Y-7631722D01*
X1551015Y-7631722D02*
X1551015Y-7736484D01*
X1941491Y-7526960D02*
X1770063Y-7784103D01*
X2198634Y-7536484D02*
X2217682Y-7536484D01*
X2217682Y-7536484D02*
X2236729Y-7546008D01*
X2236729Y-7546008D02*
X2246253Y-7555531D01*
X2246253Y-7555531D02*
X2255777Y-7574579D01*
X2255777Y-7574579D02*
X2265301Y-7612674D01*
X2265301Y-7612674D02*
X2265301Y-7660293D01*
X2265301Y-7660293D02*
X2255777Y-7698388D01*
X2255777Y-7698388D02*
X2246253Y-7717436D01*
X2246253Y-7717436D02*
X2236729Y-7726960D01*
X2236729Y-7726960D02*
X2217682Y-7736484D01*
X2217682Y-7736484D02*
X2198634Y-7736484D01*
X2198634Y-7736484D02*
X2179587Y-7726960D01*
X2179587Y-7726960D02*
X2170063Y-7717436D01*
X2170063Y-7717436D02*
X2160539Y-7698388D01*
X2160539Y-7698388D02*
X2151015Y-7660293D01*
X2151015Y-7660293D02*
X2151015Y-7612674D01*
X2151015Y-7612674D02*
X2160539Y-7574579D01*
X2160539Y-7574579D02*
X2170063Y-7555531D01*
X2170063Y-7555531D02*
X2179587Y-7546008D01*
X2179587Y-7546008D02*
X2198634Y-7536484D01*
X2351015Y-7717436D02*
X2360539Y-7726960D01*
X2360539Y-7726960D02*
X2351015Y-7736484D01*
X2351015Y-7736484D02*
X2341491Y-7726960D01*
X2341491Y-7726960D02*
X2351015Y-7717436D01*
X2351015Y-7717436D02*
X2351015Y-7736484D01*
X2484348Y-7536484D02*
X2503396Y-7536484D01*
X2503396Y-7536484D02*
X2522444Y-7546008D01*
X2522444Y-7546008D02*
X2531968Y-7555531D01*
X2531968Y-7555531D02*
X2541491Y-7574579D01*
X2541491Y-7574579D02*
X2551015Y-7612674D01*
X2551015Y-7612674D02*
X2551015Y-7660293D01*
X2551015Y-7660293D02*
X2541491Y-7698388D01*
X2541491Y-7698388D02*
X2531968Y-7717436D01*
X2531968Y-7717436D02*
X2522444Y-7726960D01*
X2522444Y-7726960D02*
X2503396Y-7736484D01*
X2503396Y-7736484D02*
X2484348Y-7736484D01*
X2484348Y-7736484D02*
X2465301Y-7726960D01*
X2465301Y-7726960D02*
X2455777Y-7717436D01*
X2455777Y-7717436D02*
X2446253Y-7698388D01*
X2446253Y-7698388D02*
X2436729Y-7660293D01*
X2436729Y-7660293D02*
X2436729Y-7612674D01*
X2436729Y-7612674D02*
X2446253Y-7574579D01*
X2446253Y-7574579D02*
X2455777Y-7555531D01*
X2455777Y-7555531D02*
X2465301Y-7546008D01*
X2465301Y-7546008D02*
X2484348Y-7536484D01*
X2674825Y-7536484D02*
X2693872Y-7536484D01*
X2693872Y-7536484D02*
X2712920Y-7546008D01*
X2712920Y-7546008D02*
X2722444Y-7555531D01*
X2722444Y-7555531D02*
X2731968Y-7574579D01*
X2731968Y-7574579D02*
X2741491Y-7612674D01*
X2741491Y-7612674D02*
X2741491Y-7660293D01*
X2741491Y-7660293D02*
X2731968Y-7698388D01*
X2731968Y-7698388D02*
X2722444Y-7717436D01*
X2722444Y-7717436D02*
X2712920Y-7726960D01*
X2712920Y-7726960D02*
X2693872Y-7736484D01*
X2693872Y-7736484D02*
X2674825Y-7736484D01*
X2674825Y-7736484D02*
X2655777Y-7726960D01*
X2655777Y-7726960D02*
X2646253Y-7717436D01*
X2646253Y-7717436D02*
X2636729Y-7698388D01*
X2636729Y-7698388D02*
X2627206Y-7660293D01*
X2627206Y-7660293D02*
X2627206Y-7612674D01*
X2627206Y-7612674D02*
X2636729Y-7574579D01*
X2636729Y-7574579D02*
X2646253Y-7555531D01*
X2646253Y-7555531D02*
X2655777Y-7546008D01*
X2655777Y-7546008D02*
X2674825Y-7536484D01*
X2808158Y-7536484D02*
X2941491Y-7536484D01*
X2941491Y-7536484D02*
X2855777Y-7736484D01*
X3027206Y-7736484D02*
X3065301Y-7736484D01*
X3065301Y-7736484D02*
X3084348Y-7726960D01*
X3084348Y-7726960D02*
X3093872Y-7717436D01*
X3093872Y-7717436D02*
X3112920Y-7688865D01*
X3112920Y-7688865D02*
X3122444Y-7650769D01*
X3122444Y-7650769D02*
X3122444Y-7574579D01*
X3122444Y-7574579D02*
X3112920Y-7555531D01*
X3112920Y-7555531D02*
X3103396Y-7546008D01*
X3103396Y-7546008D02*
X3084348Y-7536484D01*
X3084348Y-7536484D02*
X3046253Y-7536484D01*
X3046253Y-7536484D02*
X3027206Y-7546008D01*
X3027206Y-7546008D02*
X3017682Y-7555531D01*
X3017682Y-7555531D02*
X3008158Y-7574579D01*
X3008158Y-7574579D02*
X3008158Y-7622198D01*
X3008158Y-7622198D02*
X3017682Y-7641246D01*
X3017682Y-7641246D02*
X3027206Y-7650769D01*
X3027206Y-7650769D02*
X3046253Y-7660293D01*
X3046253Y-7660293D02*
X3084348Y-7660293D01*
X3084348Y-7660293D02*
X3103396Y-7650769D01*
X3103396Y-7650769D02*
X3112920Y-7641246D01*
X3112920Y-7641246D02*
X3122444Y-7622198D01*
X3198634Y-7536484D02*
X3198634Y-7574579D01*
X3274825Y-7536484D02*
X3274825Y-7574579D01*
X3570063Y-7812674D02*
X3560539Y-7803150D01*
X3560539Y-7803150D02*
X3541491Y-7774579D01*
X3541491Y-7774579D02*
X3531968Y-7755531D01*
X3531968Y-7755531D02*
X3522444Y-7726960D01*
X3522444Y-7726960D02*
X3512920Y-7679341D01*
X3512920Y-7679341D02*
X3512920Y-7641246D01*
X3512920Y-7641246D02*
X3522444Y-7593627D01*
X3522444Y-7593627D02*
X3531968Y-7565055D01*
X3531968Y-7565055D02*
X3541491Y-7546008D01*
X3541491Y-7546008D02*
X3560539Y-7517436D01*
X3560539Y-7517436D02*
X3570063Y-7507912D01*
X3751015Y-7736484D02*
X3636729Y-7736484D01*
X3693872Y-7736484D02*
X3693872Y-7536484D01*
X3693872Y-7536484D02*
X3674825Y-7565055D01*
X3674825Y-7565055D02*
X3655777Y-7584103D01*
X3655777Y-7584103D02*
X3636729Y-7593627D01*
X3827206Y-7555531D02*
X3836729Y-7546008D01*
X3836729Y-7546008D02*
X3855777Y-7536484D01*
X3855777Y-7536484D02*
X3903396Y-7536484D01*
X3903396Y-7536484D02*
X3922444Y-7546008D01*
X3922444Y-7546008D02*
X3931968Y-7555531D01*
X3931968Y-7555531D02*
X3941491Y-7574579D01*
X3941491Y-7574579D02*
X3941491Y-7593627D01*
X3941491Y-7593627D02*
X3931968Y-7622198D01*
X3931968Y-7622198D02*
X3817682Y-7736484D01*
X3817682Y-7736484D02*
X3941491Y-7736484D01*
X4179587Y-7736484D02*
X4179587Y-7536484D01*
X4265301Y-7736484D02*
X4265301Y-7631722D01*
X4265301Y-7631722D02*
X4255777Y-7612674D01*
X4255777Y-7612674D02*
X4236730Y-7603150D01*
X4236730Y-7603150D02*
X4208158Y-7603150D01*
X4208158Y-7603150D02*
X4189110Y-7612674D01*
X4189110Y-7612674D02*
X4179587Y-7622198D01*
X4389111Y-7736484D02*
X4370063Y-7726960D01*
X4370063Y-7726960D02*
X4360539Y-7717436D01*
X4360539Y-7717436D02*
X4351015Y-7698388D01*
X4351015Y-7698388D02*
X4351015Y-7641246D01*
X4351015Y-7641246D02*
X4360539Y-7622198D01*
X4360539Y-7622198D02*
X4370063Y-7612674D01*
X4370063Y-7612674D02*
X4389111Y-7603150D01*
X4389111Y-7603150D02*
X4417682Y-7603150D01*
X4417682Y-7603150D02*
X4436730Y-7612674D01*
X4436730Y-7612674D02*
X4446253Y-7622198D01*
X4446253Y-7622198D02*
X4455777Y-7641246D01*
X4455777Y-7641246D02*
X4455777Y-7698388D01*
X4455777Y-7698388D02*
X4446253Y-7717436D01*
X4446253Y-7717436D02*
X4436730Y-7726960D01*
X4436730Y-7726960D02*
X4417682Y-7736484D01*
X4417682Y-7736484D02*
X4389111Y-7736484D01*
X4570063Y-7736484D02*
X4551015Y-7726960D01*
X4551015Y-7726960D02*
X4541492Y-7707912D01*
X4541492Y-7707912D02*
X4541492Y-7536484D01*
X4722444Y-7726960D02*
X4703396Y-7736484D01*
X4703396Y-7736484D02*
X4665301Y-7736484D01*
X4665301Y-7736484D02*
X4646253Y-7726960D01*
X4646253Y-7726960D02*
X4636730Y-7707912D01*
X4636730Y-7707912D02*
X4636730Y-7631722D01*
X4636730Y-7631722D02*
X4646253Y-7612674D01*
X4646253Y-7612674D02*
X4665301Y-7603150D01*
X4665301Y-7603150D02*
X4703396Y-7603150D01*
X4703396Y-7603150D02*
X4722444Y-7612674D01*
X4722444Y-7612674D02*
X4731968Y-7631722D01*
X4731968Y-7631722D02*
X4731968Y-7650769D01*
X4731968Y-7650769D02*
X4636730Y-7669817D01*
X4808158Y-7726960D02*
X4827206Y-7736484D01*
X4827206Y-7736484D02*
X4865301Y-7736484D01*
X4865301Y-7736484D02*
X4884349Y-7726960D01*
X4884349Y-7726960D02*
X4893873Y-7707912D01*
X4893873Y-7707912D02*
X4893873Y-7698388D01*
X4893873Y-7698388D02*
X4884349Y-7679341D01*
X4884349Y-7679341D02*
X4865301Y-7669817D01*
X4865301Y-7669817D02*
X4836730Y-7669817D01*
X4836730Y-7669817D02*
X4817682Y-7660293D01*
X4817682Y-7660293D02*
X4808158Y-7641246D01*
X4808158Y-7641246D02*
X4808158Y-7631722D01*
X4808158Y-7631722D02*
X4817682Y-7612674D01*
X4817682Y-7612674D02*
X4836730Y-7603150D01*
X4836730Y-7603150D02*
X4865301Y-7603150D01*
X4865301Y-7603150D02*
X4884349Y-7612674D01*
X4960539Y-7812674D02*
X4970063Y-7803150D01*
X4970063Y-7803150D02*
X4989111Y-7774579D01*
X4989111Y-7774579D02*
X4998634Y-7755531D01*
X4998634Y-7755531D02*
X5008158Y-7726960D01*
X5008158Y-7726960D02*
X5017682Y-7679341D01*
X5017682Y-7679341D02*
X5017682Y-7641246D01*
X5017682Y-7641246D02*
X5008158Y-7593627D01*
X5008158Y-7593627D02*
X4998634Y-7565055D01*
X4998634Y-7565055D02*
X4989111Y-7546008D01*
X4989111Y-7546008D02*
X4970063Y-7517436D01*
X4970063Y-7517436D02*
X4960539Y-7507912D01*
D10*
X-5000Y-7909000D02*
G75*
G02*
X-35000Y-7909000I-15000J0D01*
G01*
X-35000Y-7909000D02*
G75*
G02*
X-5000Y-7909000I15000J0D01*
G01*
D11*
X293872Y-7800484D02*
X312920Y-7800484D01*
X312920Y-7800484D02*
X331967Y-7810008D01*
X331967Y-7810008D02*
X341491Y-7819531D01*
X341491Y-7819531D02*
X351015Y-7838579D01*
X351015Y-7838579D02*
X360539Y-7876674D01*
X360539Y-7876674D02*
X360539Y-7924293D01*
X360539Y-7924293D02*
X351015Y-7962388D01*
X351015Y-7962388D02*
X341491Y-7981436D01*
X341491Y-7981436D02*
X331967Y-7990960D01*
X331967Y-7990960D02*
X312920Y-8000484D01*
X312920Y-8000484D02*
X293872Y-8000484D01*
X293872Y-8000484D02*
X274824Y-7990960D01*
X274824Y-7990960D02*
X265301Y-7981436D01*
X265301Y-7981436D02*
X255777Y-7962388D01*
X255777Y-7962388D02*
X246253Y-7924293D01*
X246253Y-7924293D02*
X246253Y-7876674D01*
X246253Y-7876674D02*
X255777Y-7838579D01*
X255777Y-7838579D02*
X265301Y-7819531D01*
X265301Y-7819531D02*
X274824Y-7810008D01*
X274824Y-7810008D02*
X293872Y-7800484D01*
X446253Y-7981436D02*
X455777Y-7990960D01*
X455777Y-7990960D02*
X446253Y-8000484D01*
X446253Y-8000484D02*
X436729Y-7990960D01*
X436729Y-7990960D02*
X446253Y-7981436D01*
X446253Y-7981436D02*
X446253Y-8000484D01*
X522443Y-7800484D02*
X646253Y-7800484D01*
X646253Y-7800484D02*
X579586Y-7876674D01*
X579586Y-7876674D02*
X608158Y-7876674D01*
X608158Y-7876674D02*
X627205Y-7886198D01*
X627205Y-7886198D02*
X636729Y-7895722D01*
X636729Y-7895722D02*
X646253Y-7914769D01*
X646253Y-7914769D02*
X646253Y-7962388D01*
X646253Y-7962388D02*
X636729Y-7981436D01*
X636729Y-7981436D02*
X627205Y-7990960D01*
X627205Y-7990960D02*
X608158Y-8000484D01*
X608158Y-8000484D02*
X551015Y-8000484D01*
X551015Y-8000484D02*
X531967Y-7990960D01*
X531967Y-7990960D02*
X522443Y-7981436D01*
X770062Y-7800484D02*
X789110Y-7800484D01*
X789110Y-7800484D02*
X808158Y-7810008D01*
X808158Y-7810008D02*
X817682Y-7819531D01*
X817682Y-7819531D02*
X827205Y-7838579D01*
X827205Y-7838579D02*
X836729Y-7876674D01*
X836729Y-7876674D02*
X836729Y-7924293D01*
X836729Y-7924293D02*
X827205Y-7962388D01*
X827205Y-7962388D02*
X817682Y-7981436D01*
X817682Y-7981436D02*
X808158Y-7990960D01*
X808158Y-7990960D02*
X789110Y-8000484D01*
X789110Y-8000484D02*
X770062Y-8000484D01*
X770062Y-8000484D02*
X751015Y-7990960D01*
X751015Y-7990960D02*
X741491Y-7981436D01*
X741491Y-7981436D02*
X731967Y-7962388D01*
X731967Y-7962388D02*
X722443Y-7924293D01*
X722443Y-7924293D02*
X722443Y-7876674D01*
X722443Y-7876674D02*
X731967Y-7838579D01*
X731967Y-7838579D02*
X741491Y-7819531D01*
X741491Y-7819531D02*
X751015Y-7810008D01*
X751015Y-7810008D02*
X770062Y-7800484D01*
X960539Y-7800484D02*
X979586Y-7800484D01*
X979586Y-7800484D02*
X998634Y-7810008D01*
X998634Y-7810008D02*
X1008158Y-7819531D01*
X1008158Y-7819531D02*
X1017682Y-7838579D01*
X1017682Y-7838579D02*
X1027205Y-7876674D01*
X1027205Y-7876674D02*
X1027205Y-7924293D01*
X1027205Y-7924293D02*
X1017682Y-7962388D01*
X1017682Y-7962388D02*
X1008158Y-7981436D01*
X1008158Y-7981436D02*
X998634Y-7990960D01*
X998634Y-7990960D02*
X979586Y-8000484D01*
X979586Y-8000484D02*
X960539Y-8000484D01*
X960539Y-8000484D02*
X941491Y-7990960D01*
X941491Y-7990960D02*
X931967Y-7981436D01*
X931967Y-7981436D02*
X922443Y-7962388D01*
X922443Y-7962388D02*
X912920Y-7924293D01*
X912920Y-7924293D02*
X912920Y-7876674D01*
X912920Y-7876674D02*
X922443Y-7838579D01*
X922443Y-7838579D02*
X931967Y-7819531D01*
X931967Y-7819531D02*
X941491Y-7810008D01*
X941491Y-7810008D02*
X960539Y-7800484D01*
X1112920Y-8000484D02*
X1112920Y-7867150D01*
X1112920Y-7886198D02*
X1122444Y-7876674D01*
X1122444Y-7876674D02*
X1141491Y-7867150D01*
X1141491Y-7867150D02*
X1170063Y-7867150D01*
X1170063Y-7867150D02*
X1189110Y-7876674D01*
X1189110Y-7876674D02*
X1198634Y-7895722D01*
X1198634Y-7895722D02*
X1198634Y-8000484D01*
X1198634Y-7895722D02*
X1208158Y-7876674D01*
X1208158Y-7876674D02*
X1227205Y-7867150D01*
X1227205Y-7867150D02*
X1255777Y-7867150D01*
X1255777Y-7867150D02*
X1274825Y-7876674D01*
X1274825Y-7876674D02*
X1284348Y-7895722D01*
X1284348Y-7895722D02*
X1284348Y-8000484D01*
X1379586Y-8000484D02*
X1379586Y-7867150D01*
X1379586Y-7886198D02*
X1389110Y-7876674D01*
X1389110Y-7876674D02*
X1408158Y-7867150D01*
X1408158Y-7867150D02*
X1436729Y-7867150D01*
X1436729Y-7867150D02*
X1455777Y-7876674D01*
X1455777Y-7876674D02*
X1465301Y-7895722D01*
X1465301Y-7895722D02*
X1465301Y-8000484D01*
X1465301Y-7895722D02*
X1474824Y-7876674D01*
X1474824Y-7876674D02*
X1493872Y-7867150D01*
X1493872Y-7867150D02*
X1522443Y-7867150D01*
X1522443Y-7867150D02*
X1541491Y-7876674D01*
X1541491Y-7876674D02*
X1551015Y-7895722D01*
X1551015Y-7895722D02*
X1551015Y-8000484D01*
X1941491Y-7790960D02*
X1770063Y-8048103D01*
X2198634Y-7800484D02*
X2217682Y-7800484D01*
X2217682Y-7800484D02*
X2236729Y-7810008D01*
X2236729Y-7810008D02*
X2246253Y-7819531D01*
X2246253Y-7819531D02*
X2255777Y-7838579D01*
X2255777Y-7838579D02*
X2265301Y-7876674D01*
X2265301Y-7876674D02*
X2265301Y-7924293D01*
X2265301Y-7924293D02*
X2255777Y-7962388D01*
X2255777Y-7962388D02*
X2246253Y-7981436D01*
X2246253Y-7981436D02*
X2236729Y-7990960D01*
X2236729Y-7990960D02*
X2217682Y-8000484D01*
X2217682Y-8000484D02*
X2198634Y-8000484D01*
X2198634Y-8000484D02*
X2179587Y-7990960D01*
X2179587Y-7990960D02*
X2170063Y-7981436D01*
X2170063Y-7981436D02*
X2160539Y-7962388D01*
X2160539Y-7962388D02*
X2151015Y-7924293D01*
X2151015Y-7924293D02*
X2151015Y-7876674D01*
X2151015Y-7876674D02*
X2160539Y-7838579D01*
X2160539Y-7838579D02*
X2170063Y-7819531D01*
X2170063Y-7819531D02*
X2179587Y-7810008D01*
X2179587Y-7810008D02*
X2198634Y-7800484D01*
X2351015Y-7981436D02*
X2360539Y-7990960D01*
X2360539Y-7990960D02*
X2351015Y-8000484D01*
X2351015Y-8000484D02*
X2341491Y-7990960D01*
X2341491Y-7990960D02*
X2351015Y-7981436D01*
X2351015Y-7981436D02*
X2351015Y-8000484D01*
X2484348Y-7800484D02*
X2503396Y-7800484D01*
X2503396Y-7800484D02*
X2522444Y-7810008D01*
X2522444Y-7810008D02*
X2531968Y-7819531D01*
X2531968Y-7819531D02*
X2541491Y-7838579D01*
X2541491Y-7838579D02*
X2551015Y-7876674D01*
X2551015Y-7876674D02*
X2551015Y-7924293D01*
X2551015Y-7924293D02*
X2541491Y-7962388D01*
X2541491Y-7962388D02*
X2531968Y-7981436D01*
X2531968Y-7981436D02*
X2522444Y-7990960D01*
X2522444Y-7990960D02*
X2503396Y-8000484D01*
X2503396Y-8000484D02*
X2484348Y-8000484D01*
X2484348Y-8000484D02*
X2465301Y-7990960D01*
X2465301Y-7990960D02*
X2455777Y-7981436D01*
X2455777Y-7981436D02*
X2446253Y-7962388D01*
X2446253Y-7962388D02*
X2436729Y-7924293D01*
X2436729Y-7924293D02*
X2436729Y-7876674D01*
X2436729Y-7876674D02*
X2446253Y-7838579D01*
X2446253Y-7838579D02*
X2455777Y-7819531D01*
X2455777Y-7819531D02*
X2465301Y-7810008D01*
X2465301Y-7810008D02*
X2484348Y-7800484D01*
X2741491Y-8000484D02*
X2627206Y-8000484D01*
X2684348Y-8000484D02*
X2684348Y-7800484D01*
X2684348Y-7800484D02*
X2665301Y-7829055D01*
X2665301Y-7829055D02*
X2646253Y-7848103D01*
X2646253Y-7848103D02*
X2627206Y-7857627D01*
X2931967Y-8000484D02*
X2817682Y-8000484D01*
X2874825Y-8000484D02*
X2874825Y-7800484D01*
X2874825Y-7800484D02*
X2855777Y-7829055D01*
X2855777Y-7829055D02*
X2836729Y-7848103D01*
X2836729Y-7848103D02*
X2817682Y-7857627D01*
X3046253Y-7886198D02*
X3027206Y-7876674D01*
X3027206Y-7876674D02*
X3017682Y-7867150D01*
X3017682Y-7867150D02*
X3008158Y-7848103D01*
X3008158Y-7848103D02*
X3008158Y-7838579D01*
X3008158Y-7838579D02*
X3017682Y-7819531D01*
X3017682Y-7819531D02*
X3027206Y-7810008D01*
X3027206Y-7810008D02*
X3046253Y-7800484D01*
X3046253Y-7800484D02*
X3084348Y-7800484D01*
X3084348Y-7800484D02*
X3103396Y-7810008D01*
X3103396Y-7810008D02*
X3112920Y-7819531D01*
X3112920Y-7819531D02*
X3122444Y-7838579D01*
X3122444Y-7838579D02*
X3122444Y-7848103D01*
X3122444Y-7848103D02*
X3112920Y-7867150D01*
X3112920Y-7867150D02*
X3103396Y-7876674D01*
X3103396Y-7876674D02*
X3084348Y-7886198D01*
X3084348Y-7886198D02*
X3046253Y-7886198D01*
X3046253Y-7886198D02*
X3027206Y-7895722D01*
X3027206Y-7895722D02*
X3017682Y-7905246D01*
X3017682Y-7905246D02*
X3008158Y-7924293D01*
X3008158Y-7924293D02*
X3008158Y-7962388D01*
X3008158Y-7962388D02*
X3017682Y-7981436D01*
X3017682Y-7981436D02*
X3027206Y-7990960D01*
X3027206Y-7990960D02*
X3046253Y-8000484D01*
X3046253Y-8000484D02*
X3084348Y-8000484D01*
X3084348Y-8000484D02*
X3103396Y-7990960D01*
X3103396Y-7990960D02*
X3112920Y-7981436D01*
X3112920Y-7981436D02*
X3122444Y-7962388D01*
X3122444Y-7962388D02*
X3122444Y-7924293D01*
X3122444Y-7924293D02*
X3112920Y-7905246D01*
X3112920Y-7905246D02*
X3103396Y-7895722D01*
X3103396Y-7895722D02*
X3084348Y-7886198D01*
X3198634Y-7800484D02*
X3198634Y-7838579D01*
X3274825Y-7800484D02*
X3274825Y-7838579D01*
X3570063Y-8076674D02*
X3560539Y-8067150D01*
X3560539Y-8067150D02*
X3541491Y-8038579D01*
X3541491Y-8038579D02*
X3531968Y-8019531D01*
X3531968Y-8019531D02*
X3522444Y-7990960D01*
X3522444Y-7990960D02*
X3512920Y-7943341D01*
X3512920Y-7943341D02*
X3512920Y-7905246D01*
X3512920Y-7905246D02*
X3522444Y-7857627D01*
X3522444Y-7857627D02*
X3531968Y-7829055D01*
X3531968Y-7829055D02*
X3541491Y-7810008D01*
X3541491Y-7810008D02*
X3560539Y-7781436D01*
X3560539Y-7781436D02*
X3570063Y-7771912D01*
X3627206Y-7800484D02*
X3751015Y-7800484D01*
X3751015Y-7800484D02*
X3684348Y-7876674D01*
X3684348Y-7876674D02*
X3712920Y-7876674D01*
X3712920Y-7876674D02*
X3731968Y-7886198D01*
X3731968Y-7886198D02*
X3741491Y-7895722D01*
X3741491Y-7895722D02*
X3751015Y-7914769D01*
X3751015Y-7914769D02*
X3751015Y-7962388D01*
X3751015Y-7962388D02*
X3741491Y-7981436D01*
X3741491Y-7981436D02*
X3731968Y-7990960D01*
X3731968Y-7990960D02*
X3712920Y-8000484D01*
X3712920Y-8000484D02*
X3655777Y-8000484D01*
X3655777Y-8000484D02*
X3636729Y-7990960D01*
X3636729Y-7990960D02*
X3627206Y-7981436D01*
X3817682Y-7800484D02*
X3941491Y-7800484D01*
X3941491Y-7800484D02*
X3874825Y-7876674D01*
X3874825Y-7876674D02*
X3903396Y-7876674D01*
X3903396Y-7876674D02*
X3922444Y-7886198D01*
X3922444Y-7886198D02*
X3931968Y-7895722D01*
X3931968Y-7895722D02*
X3941491Y-7914769D01*
X3941491Y-7914769D02*
X3941491Y-7962388D01*
X3941491Y-7962388D02*
X3931968Y-7981436D01*
X3931968Y-7981436D02*
X3922444Y-7990960D01*
X3922444Y-7990960D02*
X3903396Y-8000484D01*
X3903396Y-8000484D02*
X3846253Y-8000484D01*
X3846253Y-8000484D02*
X3827206Y-7990960D01*
X3827206Y-7990960D02*
X3817682Y-7981436D01*
X4065301Y-7800484D02*
X4084349Y-7800484D01*
X4084349Y-7800484D02*
X4103396Y-7810008D01*
X4103396Y-7810008D02*
X4112920Y-7819531D01*
X4112920Y-7819531D02*
X4122444Y-7838579D01*
X4122444Y-7838579D02*
X4131968Y-7876674D01*
X4131968Y-7876674D02*
X4131968Y-7924293D01*
X4131968Y-7924293D02*
X4122444Y-7962388D01*
X4122444Y-7962388D02*
X4112920Y-7981436D01*
X4112920Y-7981436D02*
X4103396Y-7990960D01*
X4103396Y-7990960D02*
X4084349Y-8000484D01*
X4084349Y-8000484D02*
X4065301Y-8000484D01*
X4065301Y-8000484D02*
X4046253Y-7990960D01*
X4046253Y-7990960D02*
X4036729Y-7981436D01*
X4036729Y-7981436D02*
X4027206Y-7962388D01*
X4027206Y-7962388D02*
X4017682Y-7924293D01*
X4017682Y-7924293D02*
X4017682Y-7876674D01*
X4017682Y-7876674D02*
X4027206Y-7838579D01*
X4027206Y-7838579D02*
X4036729Y-7819531D01*
X4036729Y-7819531D02*
X4046253Y-7810008D01*
X4046253Y-7810008D02*
X4065301Y-7800484D01*
X4370063Y-8000484D02*
X4370063Y-7800484D01*
X4455777Y-8000484D02*
X4455777Y-7895722D01*
X4455777Y-7895722D02*
X4446253Y-7876674D01*
X4446253Y-7876674D02*
X4427206Y-7867150D01*
X4427206Y-7867150D02*
X4398634Y-7867150D01*
X4398634Y-7867150D02*
X4379587Y-7876674D01*
X4379587Y-7876674D02*
X4370063Y-7886198D01*
X4579587Y-8000484D02*
X4560539Y-7990960D01*
X4560539Y-7990960D02*
X4551015Y-7981436D01*
X4551015Y-7981436D02*
X4541492Y-7962388D01*
X4541492Y-7962388D02*
X4541492Y-7905246D01*
X4541492Y-7905246D02*
X4551015Y-7886198D01*
X4551015Y-7886198D02*
X4560539Y-7876674D01*
X4560539Y-7876674D02*
X4579587Y-7867150D01*
X4579587Y-7867150D02*
X4608158Y-7867150D01*
X4608158Y-7867150D02*
X4627206Y-7876674D01*
X4627206Y-7876674D02*
X4636730Y-7886198D01*
X4636730Y-7886198D02*
X4646253Y-7905246D01*
X4646253Y-7905246D02*
X4646253Y-7962388D01*
X4646253Y-7962388D02*
X4636730Y-7981436D01*
X4636730Y-7981436D02*
X4627206Y-7990960D01*
X4627206Y-7990960D02*
X4608158Y-8000484D01*
X4608158Y-8000484D02*
X4579587Y-8000484D01*
X4760539Y-8000484D02*
X4741492Y-7990960D01*
X4741492Y-7990960D02*
X4731968Y-7971912D01*
X4731968Y-7971912D02*
X4731968Y-7800484D01*
X4912920Y-7990960D02*
X4893873Y-8000484D01*
X4893873Y-8000484D02*
X4855777Y-8000484D01*
X4855777Y-8000484D02*
X4836730Y-7990960D01*
X4836730Y-7990960D02*
X4827206Y-7971912D01*
X4827206Y-7971912D02*
X4827206Y-7895722D01*
X4827206Y-7895722D02*
X4836730Y-7876674D01*
X4836730Y-7876674D02*
X4855777Y-7867150D01*
X4855777Y-7867150D02*
X4893873Y-7867150D01*
X4893873Y-7867150D02*
X4912920Y-7876674D01*
X4912920Y-7876674D02*
X4922444Y-7895722D01*
X4922444Y-7895722D02*
X4922444Y-7914769D01*
X4922444Y-7914769D02*
X4827206Y-7933817D01*
X4998634Y-7990960D02*
X5017682Y-8000484D01*
X5017682Y-8000484D02*
X5055777Y-8000484D01*
X5055777Y-8000484D02*
X5074825Y-7990960D01*
X5074825Y-7990960D02*
X5084349Y-7971912D01*
X5084349Y-7971912D02*
X5084349Y-7962388D01*
X5084349Y-7962388D02*
X5074825Y-7943341D01*
X5074825Y-7943341D02*
X5055777Y-7933817D01*
X5055777Y-7933817D02*
X5027206Y-7933817D01*
X5027206Y-7933817D02*
X5008158Y-7924293D01*
X5008158Y-7924293D02*
X4998634Y-7905246D01*
X4998634Y-7905246D02*
X4998634Y-7895722D01*
X4998634Y-7895722D02*
X5008158Y-7876674D01*
X5008158Y-7876674D02*
X5027206Y-7867150D01*
X5027206Y-7867150D02*
X5055777Y-7867150D01*
X5055777Y-7867150D02*
X5074825Y-7876674D01*
X5151015Y-8076674D02*
X5160539Y-8067150D01*
X5160539Y-8067150D02*
X5179587Y-8038579D01*
X5179587Y-8038579D02*
X5189111Y-8019531D01*
X5189111Y-8019531D02*
X5198634Y-7990960D01*
X5198634Y-7990960D02*
X5208158Y-7943341D01*
X5208158Y-7943341D02*
X5208158Y-7905246D01*
X5208158Y-7905246D02*
X5198634Y-7857627D01*
X5198634Y-7857627D02*
X5189111Y-7829055D01*
X5189111Y-7829055D02*
X5179587Y-7810008D01*
X5179587Y-7810008D02*
X5160539Y-7781436D01*
X5160539Y-7781436D02*
X5151015Y-7771912D01*
D10*
X-30000Y-8148000D02*
X-30000Y-8198000D01*
X-55000Y-8173000D02*
X-5000Y-8173000D01*
D11*
X293872Y-8064484D02*
X312920Y-8064484D01*
X312920Y-8064484D02*
X331967Y-8074008D01*
X331967Y-8074008D02*
X341491Y-8083531D01*
X341491Y-8083531D02*
X351015Y-8102579D01*
X351015Y-8102579D02*
X360539Y-8140674D01*
X360539Y-8140674D02*
X360539Y-8188293D01*
X360539Y-8188293D02*
X351015Y-8226388D01*
X351015Y-8226388D02*
X341491Y-8245436D01*
X341491Y-8245436D02*
X331967Y-8254960D01*
X331967Y-8254960D02*
X312920Y-8264484D01*
X312920Y-8264484D02*
X293872Y-8264484D01*
X293872Y-8264484D02*
X274824Y-8254960D01*
X274824Y-8254960D02*
X265301Y-8245436D01*
X265301Y-8245436D02*
X255777Y-8226388D01*
X255777Y-8226388D02*
X246253Y-8188293D01*
X246253Y-8188293D02*
X246253Y-8140674D01*
X246253Y-8140674D02*
X255777Y-8102579D01*
X255777Y-8102579D02*
X265301Y-8083531D01*
X265301Y-8083531D02*
X274824Y-8074008D01*
X274824Y-8074008D02*
X293872Y-8064484D01*
X446253Y-8245436D02*
X455777Y-8254960D01*
X455777Y-8254960D02*
X446253Y-8264484D01*
X446253Y-8264484D02*
X436729Y-8254960D01*
X436729Y-8254960D02*
X446253Y-8245436D01*
X446253Y-8245436D02*
X446253Y-8264484D01*
X636729Y-8064484D02*
X541491Y-8064484D01*
X541491Y-8064484D02*
X531967Y-8159722D01*
X531967Y-8159722D02*
X541491Y-8150198D01*
X541491Y-8150198D02*
X560539Y-8140674D01*
X560539Y-8140674D02*
X608158Y-8140674D01*
X608158Y-8140674D02*
X627205Y-8150198D01*
X627205Y-8150198D02*
X636729Y-8159722D01*
X636729Y-8159722D02*
X646253Y-8178769D01*
X646253Y-8178769D02*
X646253Y-8226388D01*
X646253Y-8226388D02*
X636729Y-8245436D01*
X636729Y-8245436D02*
X627205Y-8254960D01*
X627205Y-8254960D02*
X608158Y-8264484D01*
X608158Y-8264484D02*
X560539Y-8264484D01*
X560539Y-8264484D02*
X541491Y-8254960D01*
X541491Y-8254960D02*
X531967Y-8245436D01*
X770062Y-8064484D02*
X789110Y-8064484D01*
X789110Y-8064484D02*
X808158Y-8074008D01*
X808158Y-8074008D02*
X817682Y-8083531D01*
X817682Y-8083531D02*
X827205Y-8102579D01*
X827205Y-8102579D02*
X836729Y-8140674D01*
X836729Y-8140674D02*
X836729Y-8188293D01*
X836729Y-8188293D02*
X827205Y-8226388D01*
X827205Y-8226388D02*
X817682Y-8245436D01*
X817682Y-8245436D02*
X808158Y-8254960D01*
X808158Y-8254960D02*
X789110Y-8264484D01*
X789110Y-8264484D02*
X770062Y-8264484D01*
X770062Y-8264484D02*
X751015Y-8254960D01*
X751015Y-8254960D02*
X741491Y-8245436D01*
X741491Y-8245436D02*
X731967Y-8226388D01*
X731967Y-8226388D02*
X722443Y-8188293D01*
X722443Y-8188293D02*
X722443Y-8140674D01*
X722443Y-8140674D02*
X731967Y-8102579D01*
X731967Y-8102579D02*
X741491Y-8083531D01*
X741491Y-8083531D02*
X751015Y-8074008D01*
X751015Y-8074008D02*
X770062Y-8064484D01*
X960539Y-8064484D02*
X979586Y-8064484D01*
X979586Y-8064484D02*
X998634Y-8074008D01*
X998634Y-8074008D02*
X1008158Y-8083531D01*
X1008158Y-8083531D02*
X1017682Y-8102579D01*
X1017682Y-8102579D02*
X1027205Y-8140674D01*
X1027205Y-8140674D02*
X1027205Y-8188293D01*
X1027205Y-8188293D02*
X1017682Y-8226388D01*
X1017682Y-8226388D02*
X1008158Y-8245436D01*
X1008158Y-8245436D02*
X998634Y-8254960D01*
X998634Y-8254960D02*
X979586Y-8264484D01*
X979586Y-8264484D02*
X960539Y-8264484D01*
X960539Y-8264484D02*
X941491Y-8254960D01*
X941491Y-8254960D02*
X931967Y-8245436D01*
X931967Y-8245436D02*
X922443Y-8226388D01*
X922443Y-8226388D02*
X912920Y-8188293D01*
X912920Y-8188293D02*
X912920Y-8140674D01*
X912920Y-8140674D02*
X922443Y-8102579D01*
X922443Y-8102579D02*
X931967Y-8083531D01*
X931967Y-8083531D02*
X941491Y-8074008D01*
X941491Y-8074008D02*
X960539Y-8064484D01*
X1112920Y-8264484D02*
X1112920Y-8131150D01*
X1112920Y-8150198D02*
X1122444Y-8140674D01*
X1122444Y-8140674D02*
X1141491Y-8131150D01*
X1141491Y-8131150D02*
X1170063Y-8131150D01*
X1170063Y-8131150D02*
X1189110Y-8140674D01*
X1189110Y-8140674D02*
X1198634Y-8159722D01*
X1198634Y-8159722D02*
X1198634Y-8264484D01*
X1198634Y-8159722D02*
X1208158Y-8140674D01*
X1208158Y-8140674D02*
X1227205Y-8131150D01*
X1227205Y-8131150D02*
X1255777Y-8131150D01*
X1255777Y-8131150D02*
X1274825Y-8140674D01*
X1274825Y-8140674D02*
X1284348Y-8159722D01*
X1284348Y-8159722D02*
X1284348Y-8264484D01*
X1379586Y-8264484D02*
X1379586Y-8131150D01*
X1379586Y-8150198D02*
X1389110Y-8140674D01*
X1389110Y-8140674D02*
X1408158Y-8131150D01*
X1408158Y-8131150D02*
X1436729Y-8131150D01*
X1436729Y-8131150D02*
X1455777Y-8140674D01*
X1455777Y-8140674D02*
X1465301Y-8159722D01*
X1465301Y-8159722D02*
X1465301Y-8264484D01*
X1465301Y-8159722D02*
X1474824Y-8140674D01*
X1474824Y-8140674D02*
X1493872Y-8131150D01*
X1493872Y-8131150D02*
X1522443Y-8131150D01*
X1522443Y-8131150D02*
X1541491Y-8140674D01*
X1541491Y-8140674D02*
X1551015Y-8159722D01*
X1551015Y-8159722D02*
X1551015Y-8264484D01*
X1941491Y-8054960D02*
X1770063Y-8312103D01*
X2198634Y-8064484D02*
X2217682Y-8064484D01*
X2217682Y-8064484D02*
X2236729Y-8074008D01*
X2236729Y-8074008D02*
X2246253Y-8083531D01*
X2246253Y-8083531D02*
X2255777Y-8102579D01*
X2255777Y-8102579D02*
X2265301Y-8140674D01*
X2265301Y-8140674D02*
X2265301Y-8188293D01*
X2265301Y-8188293D02*
X2255777Y-8226388D01*
X2255777Y-8226388D02*
X2246253Y-8245436D01*
X2246253Y-8245436D02*
X2236729Y-8254960D01*
X2236729Y-8254960D02*
X2217682Y-8264484D01*
X2217682Y-8264484D02*
X2198634Y-8264484D01*
X2198634Y-8264484D02*
X2179587Y-8254960D01*
X2179587Y-8254960D02*
X2170063Y-8245436D01*
X2170063Y-8245436D02*
X2160539Y-8226388D01*
X2160539Y-8226388D02*
X2151015Y-8188293D01*
X2151015Y-8188293D02*
X2151015Y-8140674D01*
X2151015Y-8140674D02*
X2160539Y-8102579D01*
X2160539Y-8102579D02*
X2170063Y-8083531D01*
X2170063Y-8083531D02*
X2179587Y-8074008D01*
X2179587Y-8074008D02*
X2198634Y-8064484D01*
X2351015Y-8245436D02*
X2360539Y-8254960D01*
X2360539Y-8254960D02*
X2351015Y-8264484D01*
X2351015Y-8264484D02*
X2341491Y-8254960D01*
X2341491Y-8254960D02*
X2351015Y-8245436D01*
X2351015Y-8245436D02*
X2351015Y-8264484D01*
X2484348Y-8064484D02*
X2503396Y-8064484D01*
X2503396Y-8064484D02*
X2522444Y-8074008D01*
X2522444Y-8074008D02*
X2531968Y-8083531D01*
X2531968Y-8083531D02*
X2541491Y-8102579D01*
X2541491Y-8102579D02*
X2551015Y-8140674D01*
X2551015Y-8140674D02*
X2551015Y-8188293D01*
X2551015Y-8188293D02*
X2541491Y-8226388D01*
X2541491Y-8226388D02*
X2531968Y-8245436D01*
X2531968Y-8245436D02*
X2522444Y-8254960D01*
X2522444Y-8254960D02*
X2503396Y-8264484D01*
X2503396Y-8264484D02*
X2484348Y-8264484D01*
X2484348Y-8264484D02*
X2465301Y-8254960D01*
X2465301Y-8254960D02*
X2455777Y-8245436D01*
X2455777Y-8245436D02*
X2446253Y-8226388D01*
X2446253Y-8226388D02*
X2436729Y-8188293D01*
X2436729Y-8188293D02*
X2436729Y-8140674D01*
X2436729Y-8140674D02*
X2446253Y-8102579D01*
X2446253Y-8102579D02*
X2455777Y-8083531D01*
X2455777Y-8083531D02*
X2465301Y-8074008D01*
X2465301Y-8074008D02*
X2484348Y-8064484D01*
X2741491Y-8264484D02*
X2627206Y-8264484D01*
X2684348Y-8264484D02*
X2684348Y-8064484D01*
X2684348Y-8064484D02*
X2665301Y-8093055D01*
X2665301Y-8093055D02*
X2646253Y-8112103D01*
X2646253Y-8112103D02*
X2627206Y-8121627D01*
X2836729Y-8264484D02*
X2874825Y-8264484D01*
X2874825Y-8264484D02*
X2893872Y-8254960D01*
X2893872Y-8254960D02*
X2903396Y-8245436D01*
X2903396Y-8245436D02*
X2922444Y-8216865D01*
X2922444Y-8216865D02*
X2931967Y-8178769D01*
X2931967Y-8178769D02*
X2931967Y-8102579D01*
X2931967Y-8102579D02*
X2922444Y-8083531D01*
X2922444Y-8083531D02*
X2912920Y-8074008D01*
X2912920Y-8074008D02*
X2893872Y-8064484D01*
X2893872Y-8064484D02*
X2855777Y-8064484D01*
X2855777Y-8064484D02*
X2836729Y-8074008D01*
X2836729Y-8074008D02*
X2827206Y-8083531D01*
X2827206Y-8083531D02*
X2817682Y-8102579D01*
X2817682Y-8102579D02*
X2817682Y-8150198D01*
X2817682Y-8150198D02*
X2827206Y-8169246D01*
X2827206Y-8169246D02*
X2836729Y-8178769D01*
X2836729Y-8178769D02*
X2855777Y-8188293D01*
X2855777Y-8188293D02*
X2893872Y-8188293D01*
X2893872Y-8188293D02*
X2912920Y-8178769D01*
X2912920Y-8178769D02*
X2922444Y-8169246D01*
X2922444Y-8169246D02*
X2931967Y-8150198D01*
X2998634Y-8064484D02*
X3131967Y-8064484D01*
X3131967Y-8064484D02*
X3046253Y-8264484D01*
X3198634Y-8064484D02*
X3198634Y-8102579D01*
X3274825Y-8064484D02*
X3274825Y-8102579D01*
X3570063Y-8340674D02*
X3560539Y-8331150D01*
X3560539Y-8331150D02*
X3541491Y-8302579D01*
X3541491Y-8302579D02*
X3531968Y-8283531D01*
X3531968Y-8283531D02*
X3522444Y-8254960D01*
X3522444Y-8254960D02*
X3512920Y-8207341D01*
X3512920Y-8207341D02*
X3512920Y-8169246D01*
X3512920Y-8169246D02*
X3522444Y-8121627D01*
X3522444Y-8121627D02*
X3531968Y-8093055D01*
X3531968Y-8093055D02*
X3541491Y-8074008D01*
X3541491Y-8074008D02*
X3560539Y-8045436D01*
X3560539Y-8045436D02*
X3570063Y-8035912D01*
X3636729Y-8083531D02*
X3646253Y-8074008D01*
X3646253Y-8074008D02*
X3665301Y-8064484D01*
X3665301Y-8064484D02*
X3712920Y-8064484D01*
X3712920Y-8064484D02*
X3731968Y-8074008D01*
X3731968Y-8074008D02*
X3741491Y-8083531D01*
X3741491Y-8083531D02*
X3751015Y-8102579D01*
X3751015Y-8102579D02*
X3751015Y-8121627D01*
X3751015Y-8121627D02*
X3741491Y-8150198D01*
X3741491Y-8150198D02*
X3627206Y-8264484D01*
X3627206Y-8264484D02*
X3751015Y-8264484D01*
X3989110Y-8264484D02*
X3989110Y-8064484D01*
X4074825Y-8264484D02*
X4074825Y-8159722D01*
X4074825Y-8159722D02*
X4065301Y-8140674D01*
X4065301Y-8140674D02*
X4046253Y-8131150D01*
X4046253Y-8131150D02*
X4017682Y-8131150D01*
X4017682Y-8131150D02*
X3998634Y-8140674D01*
X3998634Y-8140674D02*
X3989110Y-8150198D01*
X4198634Y-8264484D02*
X4179587Y-8254960D01*
X4179587Y-8254960D02*
X4170063Y-8245436D01*
X4170063Y-8245436D02*
X4160539Y-8226388D01*
X4160539Y-8226388D02*
X4160539Y-8169246D01*
X4160539Y-8169246D02*
X4170063Y-8150198D01*
X4170063Y-8150198D02*
X4179587Y-8140674D01*
X4179587Y-8140674D02*
X4198634Y-8131150D01*
X4198634Y-8131150D02*
X4227206Y-8131150D01*
X4227206Y-8131150D02*
X4246253Y-8140674D01*
X4246253Y-8140674D02*
X4255777Y-8150198D01*
X4255777Y-8150198D02*
X4265301Y-8169246D01*
X4265301Y-8169246D02*
X4265301Y-8226388D01*
X4265301Y-8226388D02*
X4255777Y-8245436D01*
X4255777Y-8245436D02*
X4246253Y-8254960D01*
X4246253Y-8254960D02*
X4227206Y-8264484D01*
X4227206Y-8264484D02*
X4198634Y-8264484D01*
X4379587Y-8264484D02*
X4360539Y-8254960D01*
X4360539Y-8254960D02*
X4351015Y-8235912D01*
X4351015Y-8235912D02*
X4351015Y-8064484D01*
X4531968Y-8254960D02*
X4512920Y-8264484D01*
X4512920Y-8264484D02*
X4474825Y-8264484D01*
X4474825Y-8264484D02*
X4455777Y-8254960D01*
X4455777Y-8254960D02*
X4446253Y-8235912D01*
X4446253Y-8235912D02*
X4446253Y-8159722D01*
X4446253Y-8159722D02*
X4455777Y-8140674D01*
X4455777Y-8140674D02*
X4474825Y-8131150D01*
X4474825Y-8131150D02*
X4512920Y-8131150D01*
X4512920Y-8131150D02*
X4531968Y-8140674D01*
X4531968Y-8140674D02*
X4541492Y-8159722D01*
X4541492Y-8159722D02*
X4541492Y-8178769D01*
X4541492Y-8178769D02*
X4446253Y-8197817D01*
X4617682Y-8254960D02*
X4636730Y-8264484D01*
X4636730Y-8264484D02*
X4674825Y-8264484D01*
X4674825Y-8264484D02*
X4693873Y-8254960D01*
X4693873Y-8254960D02*
X4703396Y-8235912D01*
X4703396Y-8235912D02*
X4703396Y-8226388D01*
X4703396Y-8226388D02*
X4693873Y-8207341D01*
X4693873Y-8207341D02*
X4674825Y-8197817D01*
X4674825Y-8197817D02*
X4646253Y-8197817D01*
X4646253Y-8197817D02*
X4627206Y-8188293D01*
X4627206Y-8188293D02*
X4617682Y-8169246D01*
X4617682Y-8169246D02*
X4617682Y-8159722D01*
X4617682Y-8159722D02*
X4627206Y-8140674D01*
X4627206Y-8140674D02*
X4646253Y-8131150D01*
X4646253Y-8131150D02*
X4674825Y-8131150D01*
X4674825Y-8131150D02*
X4693873Y-8140674D01*
X4770063Y-8340674D02*
X4779587Y-8331150D01*
X4779587Y-8331150D02*
X4798634Y-8302579D01*
X4798634Y-8302579D02*
X4808158Y-8283531D01*
X4808158Y-8283531D02*
X4817682Y-8254960D01*
X4817682Y-8254960D02*
X4827206Y-8207341D01*
X4827206Y-8207341D02*
X4827206Y-8169246D01*
X4827206Y-8169246D02*
X4817682Y-8121627D01*
X4817682Y-8121627D02*
X4808158Y-8093055D01*
X4808158Y-8093055D02*
X4798634Y-8074008D01*
X4798634Y-8074008D02*
X4779587Y-8045436D01*
X4779587Y-8045436D02*
X4770063Y-8035912D01*
D10*
X-13787Y-8458213D02*
X-13787Y-8415787D01*
X-56213Y-8415787D01*
X-56213Y-8458213D01*
X-13787Y-8458213D01*
D11*
X293872Y-8328484D02*
X312920Y-8328484D01*
X312920Y-8328484D02*
X331967Y-8338008D01*
X331967Y-8338008D02*
X341491Y-8347531D01*
X341491Y-8347531D02*
X351015Y-8366579D01*
X351015Y-8366579D02*
X360539Y-8404674D01*
X360539Y-8404674D02*
X360539Y-8452293D01*
X360539Y-8452293D02*
X351015Y-8490389D01*
X351015Y-8490389D02*
X341491Y-8509436D01*
X341491Y-8509436D02*
X331967Y-8518960D01*
X331967Y-8518960D02*
X312920Y-8528484D01*
X312920Y-8528484D02*
X293872Y-8528484D01*
X293872Y-8528484D02*
X274824Y-8518960D01*
X274824Y-8518960D02*
X265301Y-8509436D01*
X265301Y-8509436D02*
X255777Y-8490389D01*
X255777Y-8490389D02*
X246253Y-8452293D01*
X246253Y-8452293D02*
X246253Y-8404674D01*
X246253Y-8404674D02*
X255777Y-8366579D01*
X255777Y-8366579D02*
X265301Y-8347531D01*
X265301Y-8347531D02*
X274824Y-8338008D01*
X274824Y-8338008D02*
X293872Y-8328484D01*
X446253Y-8509436D02*
X455777Y-8518960D01*
X455777Y-8518960D02*
X446253Y-8528484D01*
X446253Y-8528484D02*
X436729Y-8518960D01*
X436729Y-8518960D02*
X446253Y-8509436D01*
X446253Y-8509436D02*
X446253Y-8528484D01*
X627205Y-8328484D02*
X589110Y-8328484D01*
X589110Y-8328484D02*
X570063Y-8338008D01*
X570063Y-8338008D02*
X560539Y-8347531D01*
X560539Y-8347531D02*
X541491Y-8376103D01*
X541491Y-8376103D02*
X531967Y-8414198D01*
X531967Y-8414198D02*
X531967Y-8490389D01*
X531967Y-8490389D02*
X541491Y-8509436D01*
X541491Y-8509436D02*
X551015Y-8518960D01*
X551015Y-8518960D02*
X570063Y-8528484D01*
X570063Y-8528484D02*
X608158Y-8528484D01*
X608158Y-8528484D02*
X627205Y-8518960D01*
X627205Y-8518960D02*
X636729Y-8509436D01*
X636729Y-8509436D02*
X646253Y-8490389D01*
X646253Y-8490389D02*
X646253Y-8442770D01*
X646253Y-8442770D02*
X636729Y-8423722D01*
X636729Y-8423722D02*
X627205Y-8414198D01*
X627205Y-8414198D02*
X608158Y-8404674D01*
X608158Y-8404674D02*
X570063Y-8404674D01*
X570063Y-8404674D02*
X551015Y-8414198D01*
X551015Y-8414198D02*
X541491Y-8423722D01*
X541491Y-8423722D02*
X531967Y-8442770D01*
X770062Y-8328484D02*
X789110Y-8328484D01*
X789110Y-8328484D02*
X808158Y-8338008D01*
X808158Y-8338008D02*
X817682Y-8347531D01*
X817682Y-8347531D02*
X827205Y-8366579D01*
X827205Y-8366579D02*
X836729Y-8404674D01*
X836729Y-8404674D02*
X836729Y-8452293D01*
X836729Y-8452293D02*
X827205Y-8490389D01*
X827205Y-8490389D02*
X817682Y-8509436D01*
X817682Y-8509436D02*
X808158Y-8518960D01*
X808158Y-8518960D02*
X789110Y-8528484D01*
X789110Y-8528484D02*
X770062Y-8528484D01*
X770062Y-8528484D02*
X751015Y-8518960D01*
X751015Y-8518960D02*
X741491Y-8509436D01*
X741491Y-8509436D02*
X731967Y-8490389D01*
X731967Y-8490389D02*
X722443Y-8452293D01*
X722443Y-8452293D02*
X722443Y-8404674D01*
X722443Y-8404674D02*
X731967Y-8366579D01*
X731967Y-8366579D02*
X741491Y-8347531D01*
X741491Y-8347531D02*
X751015Y-8338008D01*
X751015Y-8338008D02*
X770062Y-8328484D01*
X960539Y-8328484D02*
X979586Y-8328484D01*
X979586Y-8328484D02*
X998634Y-8338008D01*
X998634Y-8338008D02*
X1008158Y-8347531D01*
X1008158Y-8347531D02*
X1017682Y-8366579D01*
X1017682Y-8366579D02*
X1027205Y-8404674D01*
X1027205Y-8404674D02*
X1027205Y-8452293D01*
X1027205Y-8452293D02*
X1017682Y-8490389D01*
X1017682Y-8490389D02*
X1008158Y-8509436D01*
X1008158Y-8509436D02*
X998634Y-8518960D01*
X998634Y-8518960D02*
X979586Y-8528484D01*
X979586Y-8528484D02*
X960539Y-8528484D01*
X960539Y-8528484D02*
X941491Y-8518960D01*
X941491Y-8518960D02*
X931967Y-8509436D01*
X931967Y-8509436D02*
X922443Y-8490389D01*
X922443Y-8490389D02*
X912920Y-8452293D01*
X912920Y-8452293D02*
X912920Y-8404674D01*
X912920Y-8404674D02*
X922443Y-8366579D01*
X922443Y-8366579D02*
X931967Y-8347531D01*
X931967Y-8347531D02*
X941491Y-8338008D01*
X941491Y-8338008D02*
X960539Y-8328484D01*
X1112920Y-8528484D02*
X1112920Y-8395150D01*
X1112920Y-8414198D02*
X1122444Y-8404674D01*
X1122444Y-8404674D02*
X1141491Y-8395150D01*
X1141491Y-8395150D02*
X1170063Y-8395150D01*
X1170063Y-8395150D02*
X1189110Y-8404674D01*
X1189110Y-8404674D02*
X1198634Y-8423722D01*
X1198634Y-8423722D02*
X1198634Y-8528484D01*
X1198634Y-8423722D02*
X1208158Y-8404674D01*
X1208158Y-8404674D02*
X1227205Y-8395150D01*
X1227205Y-8395150D02*
X1255777Y-8395150D01*
X1255777Y-8395150D02*
X1274825Y-8404674D01*
X1274825Y-8404674D02*
X1284348Y-8423722D01*
X1284348Y-8423722D02*
X1284348Y-8528484D01*
X1379586Y-8528484D02*
X1379586Y-8395150D01*
X1379586Y-8414198D02*
X1389110Y-8404674D01*
X1389110Y-8404674D02*
X1408158Y-8395150D01*
X1408158Y-8395150D02*
X1436729Y-8395150D01*
X1436729Y-8395150D02*
X1455777Y-8404674D01*
X1455777Y-8404674D02*
X1465301Y-8423722D01*
X1465301Y-8423722D02*
X1465301Y-8528484D01*
X1465301Y-8423722D02*
X1474824Y-8404674D01*
X1474824Y-8404674D02*
X1493872Y-8395150D01*
X1493872Y-8395150D02*
X1522443Y-8395150D01*
X1522443Y-8395150D02*
X1541491Y-8404674D01*
X1541491Y-8404674D02*
X1551015Y-8423722D01*
X1551015Y-8423722D02*
X1551015Y-8528484D01*
X1941491Y-8318960D02*
X1770063Y-8576103D01*
X2198634Y-8328484D02*
X2217682Y-8328484D01*
X2217682Y-8328484D02*
X2236729Y-8338008D01*
X2236729Y-8338008D02*
X2246253Y-8347531D01*
X2246253Y-8347531D02*
X2255777Y-8366579D01*
X2255777Y-8366579D02*
X2265301Y-8404674D01*
X2265301Y-8404674D02*
X2265301Y-8452293D01*
X2265301Y-8452293D02*
X2255777Y-8490389D01*
X2255777Y-8490389D02*
X2246253Y-8509436D01*
X2246253Y-8509436D02*
X2236729Y-8518960D01*
X2236729Y-8518960D02*
X2217682Y-8528484D01*
X2217682Y-8528484D02*
X2198634Y-8528484D01*
X2198634Y-8528484D02*
X2179587Y-8518960D01*
X2179587Y-8518960D02*
X2170063Y-8509436D01*
X2170063Y-8509436D02*
X2160539Y-8490389D01*
X2160539Y-8490389D02*
X2151015Y-8452293D01*
X2151015Y-8452293D02*
X2151015Y-8404674D01*
X2151015Y-8404674D02*
X2160539Y-8366579D01*
X2160539Y-8366579D02*
X2170063Y-8347531D01*
X2170063Y-8347531D02*
X2179587Y-8338008D01*
X2179587Y-8338008D02*
X2198634Y-8328484D01*
X2351015Y-8509436D02*
X2360539Y-8518960D01*
X2360539Y-8518960D02*
X2351015Y-8528484D01*
X2351015Y-8528484D02*
X2341491Y-8518960D01*
X2341491Y-8518960D02*
X2351015Y-8509436D01*
X2351015Y-8509436D02*
X2351015Y-8528484D01*
X2484348Y-8328484D02*
X2503396Y-8328484D01*
X2503396Y-8328484D02*
X2522444Y-8338008D01*
X2522444Y-8338008D02*
X2531968Y-8347531D01*
X2531968Y-8347531D02*
X2541491Y-8366579D01*
X2541491Y-8366579D02*
X2551015Y-8404674D01*
X2551015Y-8404674D02*
X2551015Y-8452293D01*
X2551015Y-8452293D02*
X2541491Y-8490389D01*
X2541491Y-8490389D02*
X2531968Y-8509436D01*
X2531968Y-8509436D02*
X2522444Y-8518960D01*
X2522444Y-8518960D02*
X2503396Y-8528484D01*
X2503396Y-8528484D02*
X2484348Y-8528484D01*
X2484348Y-8528484D02*
X2465301Y-8518960D01*
X2465301Y-8518960D02*
X2455777Y-8509436D01*
X2455777Y-8509436D02*
X2446253Y-8490389D01*
X2446253Y-8490389D02*
X2436729Y-8452293D01*
X2436729Y-8452293D02*
X2436729Y-8404674D01*
X2436729Y-8404674D02*
X2446253Y-8366579D01*
X2446253Y-8366579D02*
X2455777Y-8347531D01*
X2455777Y-8347531D02*
X2465301Y-8338008D01*
X2465301Y-8338008D02*
X2484348Y-8328484D01*
X2627206Y-8347531D02*
X2636729Y-8338008D01*
X2636729Y-8338008D02*
X2655777Y-8328484D01*
X2655777Y-8328484D02*
X2703396Y-8328484D01*
X2703396Y-8328484D02*
X2722444Y-8338008D01*
X2722444Y-8338008D02*
X2731968Y-8347531D01*
X2731968Y-8347531D02*
X2741491Y-8366579D01*
X2741491Y-8366579D02*
X2741491Y-8385627D01*
X2741491Y-8385627D02*
X2731968Y-8414198D01*
X2731968Y-8414198D02*
X2617682Y-8528484D01*
X2617682Y-8528484D02*
X2741491Y-8528484D01*
X2808158Y-8328484D02*
X2931967Y-8328484D01*
X2931967Y-8328484D02*
X2865301Y-8404674D01*
X2865301Y-8404674D02*
X2893872Y-8404674D01*
X2893872Y-8404674D02*
X2912920Y-8414198D01*
X2912920Y-8414198D02*
X2922444Y-8423722D01*
X2922444Y-8423722D02*
X2931967Y-8442770D01*
X2931967Y-8442770D02*
X2931967Y-8490389D01*
X2931967Y-8490389D02*
X2922444Y-8509436D01*
X2922444Y-8509436D02*
X2912920Y-8518960D01*
X2912920Y-8518960D02*
X2893872Y-8528484D01*
X2893872Y-8528484D02*
X2836729Y-8528484D01*
X2836729Y-8528484D02*
X2817682Y-8518960D01*
X2817682Y-8518960D02*
X2808158Y-8509436D01*
X3103396Y-8328484D02*
X3065301Y-8328484D01*
X3065301Y-8328484D02*
X3046253Y-8338008D01*
X3046253Y-8338008D02*
X3036729Y-8347531D01*
X3036729Y-8347531D02*
X3017682Y-8376103D01*
X3017682Y-8376103D02*
X3008158Y-8414198D01*
X3008158Y-8414198D02*
X3008158Y-8490389D01*
X3008158Y-8490389D02*
X3017682Y-8509436D01*
X3017682Y-8509436D02*
X3027206Y-8518960D01*
X3027206Y-8518960D02*
X3046253Y-8528484D01*
X3046253Y-8528484D02*
X3084348Y-8528484D01*
X3084348Y-8528484D02*
X3103396Y-8518960D01*
X3103396Y-8518960D02*
X3112920Y-8509436D01*
X3112920Y-8509436D02*
X3122444Y-8490389D01*
X3122444Y-8490389D02*
X3122444Y-8442770D01*
X3122444Y-8442770D02*
X3112920Y-8423722D01*
X3112920Y-8423722D02*
X3103396Y-8414198D01*
X3103396Y-8414198D02*
X3084348Y-8404674D01*
X3084348Y-8404674D02*
X3046253Y-8404674D01*
X3046253Y-8404674D02*
X3027206Y-8414198D01*
X3027206Y-8414198D02*
X3017682Y-8423722D01*
X3017682Y-8423722D02*
X3008158Y-8442770D01*
X3198634Y-8328484D02*
X3198634Y-8366579D01*
X3274825Y-8328484D02*
X3274825Y-8366579D01*
X3570063Y-8604674D02*
X3560539Y-8595150D01*
X3560539Y-8595150D02*
X3541491Y-8566579D01*
X3541491Y-8566579D02*
X3531968Y-8547531D01*
X3531968Y-8547531D02*
X3522444Y-8518960D01*
X3522444Y-8518960D02*
X3512920Y-8471341D01*
X3512920Y-8471341D02*
X3512920Y-8433246D01*
X3512920Y-8433246D02*
X3522444Y-8385627D01*
X3522444Y-8385627D02*
X3531968Y-8357055D01*
X3531968Y-8357055D02*
X3541491Y-8338008D01*
X3541491Y-8338008D02*
X3560539Y-8309436D01*
X3560539Y-8309436D02*
X3570063Y-8299912D01*
X3684348Y-8328484D02*
X3703396Y-8328484D01*
X3703396Y-8328484D02*
X3722444Y-8338008D01*
X3722444Y-8338008D02*
X3731968Y-8347531D01*
X3731968Y-8347531D02*
X3741491Y-8366579D01*
X3741491Y-8366579D02*
X3751015Y-8404674D01*
X3751015Y-8404674D02*
X3751015Y-8452293D01*
X3751015Y-8452293D02*
X3741491Y-8490389D01*
X3741491Y-8490389D02*
X3731968Y-8509436D01*
X3731968Y-8509436D02*
X3722444Y-8518960D01*
X3722444Y-8518960D02*
X3703396Y-8528484D01*
X3703396Y-8528484D02*
X3684348Y-8528484D01*
X3684348Y-8528484D02*
X3665301Y-8518960D01*
X3665301Y-8518960D02*
X3655777Y-8509436D01*
X3655777Y-8509436D02*
X3646253Y-8490389D01*
X3646253Y-8490389D02*
X3636729Y-8452293D01*
X3636729Y-8452293D02*
X3636729Y-8404674D01*
X3636729Y-8404674D02*
X3646253Y-8366579D01*
X3646253Y-8366579D02*
X3655777Y-8347531D01*
X3655777Y-8347531D02*
X3665301Y-8338008D01*
X3665301Y-8338008D02*
X3684348Y-8328484D01*
X3989110Y-8528484D02*
X3989110Y-8328484D01*
X4074825Y-8528484D02*
X4074825Y-8423722D01*
X4074825Y-8423722D02*
X4065301Y-8404674D01*
X4065301Y-8404674D02*
X4046253Y-8395150D01*
X4046253Y-8395150D02*
X4017682Y-8395150D01*
X4017682Y-8395150D02*
X3998634Y-8404674D01*
X3998634Y-8404674D02*
X3989110Y-8414198D01*
X4198634Y-8528484D02*
X4179587Y-8518960D01*
X4179587Y-8518960D02*
X4170063Y-8509436D01*
X4170063Y-8509436D02*
X4160539Y-8490389D01*
X4160539Y-8490389D02*
X4160539Y-8433246D01*
X4160539Y-8433246D02*
X4170063Y-8414198D01*
X4170063Y-8414198D02*
X4179587Y-8404674D01*
X4179587Y-8404674D02*
X4198634Y-8395150D01*
X4198634Y-8395150D02*
X4227206Y-8395150D01*
X4227206Y-8395150D02*
X4246253Y-8404674D01*
X4246253Y-8404674D02*
X4255777Y-8414198D01*
X4255777Y-8414198D02*
X4265301Y-8433246D01*
X4265301Y-8433246D02*
X4265301Y-8490389D01*
X4265301Y-8490389D02*
X4255777Y-8509436D01*
X4255777Y-8509436D02*
X4246253Y-8518960D01*
X4246253Y-8518960D02*
X4227206Y-8528484D01*
X4227206Y-8528484D02*
X4198634Y-8528484D01*
X4379587Y-8528484D02*
X4360539Y-8518960D01*
X4360539Y-8518960D02*
X4351015Y-8499912D01*
X4351015Y-8499912D02*
X4351015Y-8328484D01*
X4531968Y-8518960D02*
X4512920Y-8528484D01*
X4512920Y-8528484D02*
X4474825Y-8528484D01*
X4474825Y-8528484D02*
X4455777Y-8518960D01*
X4455777Y-8518960D02*
X4446253Y-8499912D01*
X4446253Y-8499912D02*
X4446253Y-8423722D01*
X4446253Y-8423722D02*
X4455777Y-8404674D01*
X4455777Y-8404674D02*
X4474825Y-8395150D01*
X4474825Y-8395150D02*
X4512920Y-8395150D01*
X4512920Y-8395150D02*
X4531968Y-8404674D01*
X4531968Y-8404674D02*
X4541492Y-8423722D01*
X4541492Y-8423722D02*
X4541492Y-8442770D01*
X4541492Y-8442770D02*
X4446253Y-8461817D01*
X4617682Y-8518960D02*
X4636730Y-8528484D01*
X4636730Y-8528484D02*
X4674825Y-8528484D01*
X4674825Y-8528484D02*
X4693873Y-8518960D01*
X4693873Y-8518960D02*
X4703396Y-8499912D01*
X4703396Y-8499912D02*
X4703396Y-8490389D01*
X4703396Y-8490389D02*
X4693873Y-8471341D01*
X4693873Y-8471341D02*
X4674825Y-8461817D01*
X4674825Y-8461817D02*
X4646253Y-8461817D01*
X4646253Y-8461817D02*
X4627206Y-8452293D01*
X4627206Y-8452293D02*
X4617682Y-8433246D01*
X4617682Y-8433246D02*
X4617682Y-8423722D01*
X4617682Y-8423722D02*
X4627206Y-8404674D01*
X4627206Y-8404674D02*
X4646253Y-8395150D01*
X4646253Y-8395150D02*
X4674825Y-8395150D01*
X4674825Y-8395150D02*
X4693873Y-8404674D01*
X4941492Y-8452293D02*
X5093873Y-8452293D01*
X5017682Y-8528484D02*
X5017682Y-8376103D01*
X5427206Y-8395150D02*
X5427206Y-8528484D01*
X5379587Y-8318960D02*
X5331968Y-8461817D01*
X5331968Y-8461817D02*
X5455777Y-8461817D01*
X5674825Y-8518960D02*
X5693873Y-8528484D01*
X5693873Y-8528484D02*
X5731968Y-8528484D01*
X5731968Y-8528484D02*
X5751015Y-8518960D01*
X5751015Y-8518960D02*
X5760539Y-8499912D01*
X5760539Y-8499912D02*
X5760539Y-8490389D01*
X5760539Y-8490389D02*
X5751015Y-8471341D01*
X5751015Y-8471341D02*
X5731968Y-8461817D01*
X5731968Y-8461817D02*
X5703396Y-8461817D01*
X5703396Y-8461817D02*
X5684349Y-8452293D01*
X5684349Y-8452293D02*
X5674825Y-8433246D01*
X5674825Y-8433246D02*
X5674825Y-8423722D01*
X5674825Y-8423722D02*
X5684349Y-8404674D01*
X5684349Y-8404674D02*
X5703396Y-8395150D01*
X5703396Y-8395150D02*
X5731968Y-8395150D01*
X5731968Y-8395150D02*
X5751015Y-8404674D01*
X5874825Y-8528484D02*
X5855777Y-8518960D01*
X5855777Y-8518960D02*
X5846254Y-8499912D01*
X5846254Y-8499912D02*
X5846254Y-8328484D01*
X5979587Y-8528484D02*
X5960539Y-8518960D01*
X5960539Y-8518960D02*
X5951015Y-8509436D01*
X5951015Y-8509436D02*
X5941492Y-8490389D01*
X5941492Y-8490389D02*
X5941492Y-8433246D01*
X5941492Y-8433246D02*
X5951015Y-8414198D01*
X5951015Y-8414198D02*
X5960539Y-8404674D01*
X5960539Y-8404674D02*
X5979587Y-8395150D01*
X5979587Y-8395150D02*
X6008158Y-8395150D01*
X6008158Y-8395150D02*
X6027206Y-8404674D01*
X6027206Y-8404674D02*
X6036730Y-8414198D01*
X6036730Y-8414198D02*
X6046254Y-8433246D01*
X6046254Y-8433246D02*
X6046254Y-8490389D01*
X6046254Y-8490389D02*
X6036730Y-8509436D01*
X6036730Y-8509436D02*
X6027206Y-8518960D01*
X6027206Y-8518960D02*
X6008158Y-8528484D01*
X6008158Y-8528484D02*
X5979587Y-8528484D01*
X6103396Y-8395150D02*
X6179587Y-8395150D01*
X6131968Y-8328484D02*
X6131968Y-8499912D01*
X6131968Y-8499912D02*
X6141492Y-8518960D01*
X6141492Y-8518960D02*
X6160539Y-8528484D01*
X6160539Y-8528484D02*
X6179587Y-8528484D01*
X6236730Y-8518960D02*
X6255777Y-8528484D01*
X6255777Y-8528484D02*
X6293873Y-8528484D01*
X6293873Y-8528484D02*
X6312920Y-8518960D01*
X6312920Y-8518960D02*
X6322444Y-8499912D01*
X6322444Y-8499912D02*
X6322444Y-8490389D01*
X6322444Y-8490389D02*
X6312920Y-8471341D01*
X6312920Y-8471341D02*
X6293873Y-8461817D01*
X6293873Y-8461817D02*
X6265301Y-8461817D01*
X6265301Y-8461817D02*
X6246254Y-8452293D01*
X6246254Y-8452293D02*
X6236730Y-8433246D01*
X6236730Y-8433246D02*
X6236730Y-8423722D01*
X6236730Y-8423722D02*
X6246254Y-8404674D01*
X6246254Y-8404674D02*
X6265301Y-8395150D01*
X6265301Y-8395150D02*
X6293873Y-8395150D01*
X6293873Y-8395150D02*
X6312920Y-8404674D01*
X6389111Y-8604674D02*
X6398635Y-8595150D01*
X6398635Y-8595150D02*
X6417682Y-8566579D01*
X6417682Y-8566579D02*
X6427206Y-8547531D01*
X6427206Y-8547531D02*
X6436730Y-8518960D01*
X6436730Y-8518960D02*
X6446254Y-8471341D01*
X6446254Y-8471341D02*
X6446254Y-8433246D01*
X6446254Y-8433246D02*
X6436730Y-8385627D01*
X6436730Y-8385627D02*
X6427206Y-8357055D01*
X6427206Y-8357055D02*
X6417682Y-8338008D01*
X6417682Y-8338008D02*
X6398635Y-8309436D01*
X6398635Y-8309436D02*
X6389111Y-8299912D01*
D10*
X-43100Y-8739100D02*
X-5000Y-8701000D01*
X-43100Y-8662900D01*
X-81200Y-8701000D01*
X-43100Y-8739100D01*
D11*
X293872Y-8592484D02*
X312920Y-8592484D01*
X312920Y-8592484D02*
X331967Y-8602008D01*
X331967Y-8602008D02*
X341491Y-8611531D01*
X341491Y-8611531D02*
X351015Y-8630579D01*
X351015Y-8630579D02*
X360539Y-8668674D01*
X360539Y-8668674D02*
X360539Y-8716293D01*
X360539Y-8716293D02*
X351015Y-8754389D01*
X351015Y-8754389D02*
X341491Y-8773436D01*
X341491Y-8773436D02*
X331967Y-8782960D01*
X331967Y-8782960D02*
X312920Y-8792484D01*
X312920Y-8792484D02*
X293872Y-8792484D01*
X293872Y-8792484D02*
X274824Y-8782960D01*
X274824Y-8782960D02*
X265301Y-8773436D01*
X265301Y-8773436D02*
X255777Y-8754389D01*
X255777Y-8754389D02*
X246253Y-8716293D01*
X246253Y-8716293D02*
X246253Y-8668674D01*
X246253Y-8668674D02*
X255777Y-8630579D01*
X255777Y-8630579D02*
X265301Y-8611531D01*
X265301Y-8611531D02*
X274824Y-8602008D01*
X274824Y-8602008D02*
X293872Y-8592484D01*
X446253Y-8773436D02*
X455777Y-8782960D01*
X455777Y-8782960D02*
X446253Y-8792484D01*
X446253Y-8792484D02*
X436729Y-8782960D01*
X436729Y-8782960D02*
X446253Y-8773436D01*
X446253Y-8773436D02*
X446253Y-8792484D01*
X522443Y-8592484D02*
X655777Y-8592484D01*
X655777Y-8592484D02*
X570063Y-8792484D01*
X817682Y-8592484D02*
X779586Y-8592484D01*
X779586Y-8592484D02*
X760539Y-8602008D01*
X760539Y-8602008D02*
X751015Y-8611531D01*
X751015Y-8611531D02*
X731967Y-8640103D01*
X731967Y-8640103D02*
X722443Y-8678198D01*
X722443Y-8678198D02*
X722443Y-8754389D01*
X722443Y-8754389D02*
X731967Y-8773436D01*
X731967Y-8773436D02*
X741491Y-8782960D01*
X741491Y-8782960D02*
X760539Y-8792484D01*
X760539Y-8792484D02*
X798634Y-8792484D01*
X798634Y-8792484D02*
X817682Y-8782960D01*
X817682Y-8782960D02*
X827205Y-8773436D01*
X827205Y-8773436D02*
X836729Y-8754389D01*
X836729Y-8754389D02*
X836729Y-8706770D01*
X836729Y-8706770D02*
X827205Y-8687722D01*
X827205Y-8687722D02*
X817682Y-8678198D01*
X817682Y-8678198D02*
X798634Y-8668674D01*
X798634Y-8668674D02*
X760539Y-8668674D01*
X760539Y-8668674D02*
X741491Y-8678198D01*
X741491Y-8678198D02*
X731967Y-8687722D01*
X731967Y-8687722D02*
X722443Y-8706770D01*
X912920Y-8611531D02*
X922443Y-8602008D01*
X922443Y-8602008D02*
X941491Y-8592484D01*
X941491Y-8592484D02*
X989110Y-8592484D01*
X989110Y-8592484D02*
X1008158Y-8602008D01*
X1008158Y-8602008D02*
X1017682Y-8611531D01*
X1017682Y-8611531D02*
X1027205Y-8630579D01*
X1027205Y-8630579D02*
X1027205Y-8649627D01*
X1027205Y-8649627D02*
X1017682Y-8678198D01*
X1017682Y-8678198D02*
X903396Y-8792484D01*
X903396Y-8792484D02*
X1027205Y-8792484D01*
X1112920Y-8792484D02*
X1112920Y-8659150D01*
X1112920Y-8678198D02*
X1122444Y-8668674D01*
X1122444Y-8668674D02*
X1141491Y-8659150D01*
X1141491Y-8659150D02*
X1170063Y-8659150D01*
X1170063Y-8659150D02*
X1189110Y-8668674D01*
X1189110Y-8668674D02*
X1198634Y-8687722D01*
X1198634Y-8687722D02*
X1198634Y-8792484D01*
X1198634Y-8687722D02*
X1208158Y-8668674D01*
X1208158Y-8668674D02*
X1227205Y-8659150D01*
X1227205Y-8659150D02*
X1255777Y-8659150D01*
X1255777Y-8659150D02*
X1274825Y-8668674D01*
X1274825Y-8668674D02*
X1284348Y-8687722D01*
X1284348Y-8687722D02*
X1284348Y-8792484D01*
X1379586Y-8792484D02*
X1379586Y-8659150D01*
X1379586Y-8678198D02*
X1389110Y-8668674D01*
X1389110Y-8668674D02*
X1408158Y-8659150D01*
X1408158Y-8659150D02*
X1436729Y-8659150D01*
X1436729Y-8659150D02*
X1455777Y-8668674D01*
X1455777Y-8668674D02*
X1465301Y-8687722D01*
X1465301Y-8687722D02*
X1465301Y-8792484D01*
X1465301Y-8687722D02*
X1474824Y-8668674D01*
X1474824Y-8668674D02*
X1493872Y-8659150D01*
X1493872Y-8659150D02*
X1522443Y-8659150D01*
X1522443Y-8659150D02*
X1541491Y-8668674D01*
X1541491Y-8668674D02*
X1551015Y-8687722D01*
X1551015Y-8687722D02*
X1551015Y-8792484D01*
X1941491Y-8582960D02*
X1770063Y-8840103D01*
X2198634Y-8592484D02*
X2217682Y-8592484D01*
X2217682Y-8592484D02*
X2236729Y-8602008D01*
X2236729Y-8602008D02*
X2246253Y-8611531D01*
X2246253Y-8611531D02*
X2255777Y-8630579D01*
X2255777Y-8630579D02*
X2265301Y-8668674D01*
X2265301Y-8668674D02*
X2265301Y-8716293D01*
X2265301Y-8716293D02*
X2255777Y-8754389D01*
X2255777Y-8754389D02*
X2246253Y-8773436D01*
X2246253Y-8773436D02*
X2236729Y-8782960D01*
X2236729Y-8782960D02*
X2217682Y-8792484D01*
X2217682Y-8792484D02*
X2198634Y-8792484D01*
X2198634Y-8792484D02*
X2179587Y-8782960D01*
X2179587Y-8782960D02*
X2170063Y-8773436D01*
X2170063Y-8773436D02*
X2160539Y-8754389D01*
X2160539Y-8754389D02*
X2151015Y-8716293D01*
X2151015Y-8716293D02*
X2151015Y-8668674D01*
X2151015Y-8668674D02*
X2160539Y-8630579D01*
X2160539Y-8630579D02*
X2170063Y-8611531D01*
X2170063Y-8611531D02*
X2179587Y-8602008D01*
X2179587Y-8602008D02*
X2198634Y-8592484D01*
X2351015Y-8773436D02*
X2360539Y-8782960D01*
X2360539Y-8782960D02*
X2351015Y-8792484D01*
X2351015Y-8792484D02*
X2341491Y-8782960D01*
X2341491Y-8782960D02*
X2351015Y-8773436D01*
X2351015Y-8773436D02*
X2351015Y-8792484D01*
X2484348Y-8592484D02*
X2503396Y-8592484D01*
X2503396Y-8592484D02*
X2522444Y-8602008D01*
X2522444Y-8602008D02*
X2531968Y-8611531D01*
X2531968Y-8611531D02*
X2541491Y-8630579D01*
X2541491Y-8630579D02*
X2551015Y-8668674D01*
X2551015Y-8668674D02*
X2551015Y-8716293D01*
X2551015Y-8716293D02*
X2541491Y-8754389D01*
X2541491Y-8754389D02*
X2531968Y-8773436D01*
X2531968Y-8773436D02*
X2522444Y-8782960D01*
X2522444Y-8782960D02*
X2503396Y-8792484D01*
X2503396Y-8792484D02*
X2484348Y-8792484D01*
X2484348Y-8792484D02*
X2465301Y-8782960D01*
X2465301Y-8782960D02*
X2455777Y-8773436D01*
X2455777Y-8773436D02*
X2446253Y-8754389D01*
X2446253Y-8754389D02*
X2436729Y-8716293D01*
X2436729Y-8716293D02*
X2436729Y-8668674D01*
X2436729Y-8668674D02*
X2446253Y-8630579D01*
X2446253Y-8630579D02*
X2455777Y-8611531D01*
X2455777Y-8611531D02*
X2465301Y-8602008D01*
X2465301Y-8602008D02*
X2484348Y-8592484D01*
X2617682Y-8592484D02*
X2741491Y-8592484D01*
X2741491Y-8592484D02*
X2674825Y-8668674D01*
X2674825Y-8668674D02*
X2703396Y-8668674D01*
X2703396Y-8668674D02*
X2722444Y-8678198D01*
X2722444Y-8678198D02*
X2731968Y-8687722D01*
X2731968Y-8687722D02*
X2741491Y-8706770D01*
X2741491Y-8706770D02*
X2741491Y-8754389D01*
X2741491Y-8754389D02*
X2731968Y-8773436D01*
X2731968Y-8773436D02*
X2722444Y-8782960D01*
X2722444Y-8782960D02*
X2703396Y-8792484D01*
X2703396Y-8792484D02*
X2646253Y-8792484D01*
X2646253Y-8792484D02*
X2627206Y-8782960D01*
X2627206Y-8782960D02*
X2617682Y-8773436D01*
X2865301Y-8592484D02*
X2884348Y-8592484D01*
X2884348Y-8592484D02*
X2903396Y-8602008D01*
X2903396Y-8602008D02*
X2912920Y-8611531D01*
X2912920Y-8611531D02*
X2922444Y-8630579D01*
X2922444Y-8630579D02*
X2931967Y-8668674D01*
X2931967Y-8668674D02*
X2931967Y-8716293D01*
X2931967Y-8716293D02*
X2922444Y-8754389D01*
X2922444Y-8754389D02*
X2912920Y-8773436D01*
X2912920Y-8773436D02*
X2903396Y-8782960D01*
X2903396Y-8782960D02*
X2884348Y-8792484D01*
X2884348Y-8792484D02*
X2865301Y-8792484D01*
X2865301Y-8792484D02*
X2846253Y-8782960D01*
X2846253Y-8782960D02*
X2836729Y-8773436D01*
X2836729Y-8773436D02*
X2827206Y-8754389D01*
X2827206Y-8754389D02*
X2817682Y-8716293D01*
X2817682Y-8716293D02*
X2817682Y-8668674D01*
X2817682Y-8668674D02*
X2827206Y-8630579D01*
X2827206Y-8630579D02*
X2836729Y-8611531D01*
X2836729Y-8611531D02*
X2846253Y-8602008D01*
X2846253Y-8602008D02*
X2865301Y-8592484D01*
X3055777Y-8592484D02*
X3074825Y-8592484D01*
X3074825Y-8592484D02*
X3093872Y-8602008D01*
X3093872Y-8602008D02*
X3103396Y-8611531D01*
X3103396Y-8611531D02*
X3112920Y-8630579D01*
X3112920Y-8630579D02*
X3122444Y-8668674D01*
X3122444Y-8668674D02*
X3122444Y-8716293D01*
X3122444Y-8716293D02*
X3112920Y-8754389D01*
X3112920Y-8754389D02*
X3103396Y-8773436D01*
X3103396Y-8773436D02*
X3093872Y-8782960D01*
X3093872Y-8782960D02*
X3074825Y-8792484D01*
X3074825Y-8792484D02*
X3055777Y-8792484D01*
X3055777Y-8792484D02*
X3036729Y-8782960D01*
X3036729Y-8782960D02*
X3027206Y-8773436D01*
X3027206Y-8773436D02*
X3017682Y-8754389D01*
X3017682Y-8754389D02*
X3008158Y-8716293D01*
X3008158Y-8716293D02*
X3008158Y-8668674D01*
X3008158Y-8668674D02*
X3017682Y-8630579D01*
X3017682Y-8630579D02*
X3027206Y-8611531D01*
X3027206Y-8611531D02*
X3036729Y-8602008D01*
X3036729Y-8602008D02*
X3055777Y-8592484D01*
X3198634Y-8592484D02*
X3198634Y-8630579D01*
X3274825Y-8592484D02*
X3274825Y-8630579D01*
X3570063Y-8868674D02*
X3560539Y-8859150D01*
X3560539Y-8859150D02*
X3541491Y-8830579D01*
X3541491Y-8830579D02*
X3531968Y-8811531D01*
X3531968Y-8811531D02*
X3522444Y-8782960D01*
X3522444Y-8782960D02*
X3512920Y-8735341D01*
X3512920Y-8735341D02*
X3512920Y-8697246D01*
X3512920Y-8697246D02*
X3522444Y-8649627D01*
X3522444Y-8649627D02*
X3531968Y-8621055D01*
X3531968Y-8621055D02*
X3541491Y-8602008D01*
X3541491Y-8602008D02*
X3560539Y-8573436D01*
X3560539Y-8573436D02*
X3570063Y-8563912D01*
X3627206Y-8592484D02*
X3751015Y-8592484D01*
X3751015Y-8592484D02*
X3684348Y-8668674D01*
X3684348Y-8668674D02*
X3712920Y-8668674D01*
X3712920Y-8668674D02*
X3731968Y-8678198D01*
X3731968Y-8678198D02*
X3741491Y-8687722D01*
X3741491Y-8687722D02*
X3751015Y-8706770D01*
X3751015Y-8706770D02*
X3751015Y-8754389D01*
X3751015Y-8754389D02*
X3741491Y-8773436D01*
X3741491Y-8773436D02*
X3731968Y-8782960D01*
X3731968Y-8782960D02*
X3712920Y-8792484D01*
X3712920Y-8792484D02*
X3655777Y-8792484D01*
X3655777Y-8792484D02*
X3636729Y-8782960D01*
X3636729Y-8782960D02*
X3627206Y-8773436D01*
X3989110Y-8792484D02*
X3989110Y-8592484D01*
X4074825Y-8792484D02*
X4074825Y-8687722D01*
X4074825Y-8687722D02*
X4065301Y-8668674D01*
X4065301Y-8668674D02*
X4046253Y-8659150D01*
X4046253Y-8659150D02*
X4017682Y-8659150D01*
X4017682Y-8659150D02*
X3998634Y-8668674D01*
X3998634Y-8668674D02*
X3989110Y-8678198D01*
X4198634Y-8792484D02*
X4179587Y-8782960D01*
X4179587Y-8782960D02*
X4170063Y-8773436D01*
X4170063Y-8773436D02*
X4160539Y-8754389D01*
X4160539Y-8754389D02*
X4160539Y-8697246D01*
X4160539Y-8697246D02*
X4170063Y-8678198D01*
X4170063Y-8678198D02*
X4179587Y-8668674D01*
X4179587Y-8668674D02*
X4198634Y-8659150D01*
X4198634Y-8659150D02*
X4227206Y-8659150D01*
X4227206Y-8659150D02*
X4246253Y-8668674D01*
X4246253Y-8668674D02*
X4255777Y-8678198D01*
X4255777Y-8678198D02*
X4265301Y-8697246D01*
X4265301Y-8697246D02*
X4265301Y-8754389D01*
X4265301Y-8754389D02*
X4255777Y-8773436D01*
X4255777Y-8773436D02*
X4246253Y-8782960D01*
X4246253Y-8782960D02*
X4227206Y-8792484D01*
X4227206Y-8792484D02*
X4198634Y-8792484D01*
X4379587Y-8792484D02*
X4360539Y-8782960D01*
X4360539Y-8782960D02*
X4351015Y-8763912D01*
X4351015Y-8763912D02*
X4351015Y-8592484D01*
X4531968Y-8782960D02*
X4512920Y-8792484D01*
X4512920Y-8792484D02*
X4474825Y-8792484D01*
X4474825Y-8792484D02*
X4455777Y-8782960D01*
X4455777Y-8782960D02*
X4446253Y-8763912D01*
X4446253Y-8763912D02*
X4446253Y-8687722D01*
X4446253Y-8687722D02*
X4455777Y-8668674D01*
X4455777Y-8668674D02*
X4474825Y-8659150D01*
X4474825Y-8659150D02*
X4512920Y-8659150D01*
X4512920Y-8659150D02*
X4531968Y-8668674D01*
X4531968Y-8668674D02*
X4541492Y-8687722D01*
X4541492Y-8687722D02*
X4541492Y-8706770D01*
X4541492Y-8706770D02*
X4446253Y-8725817D01*
X4617682Y-8782960D02*
X4636730Y-8792484D01*
X4636730Y-8792484D02*
X4674825Y-8792484D01*
X4674825Y-8792484D02*
X4693873Y-8782960D01*
X4693873Y-8782960D02*
X4703396Y-8763912D01*
X4703396Y-8763912D02*
X4703396Y-8754389D01*
X4703396Y-8754389D02*
X4693873Y-8735341D01*
X4693873Y-8735341D02*
X4674825Y-8725817D01*
X4674825Y-8725817D02*
X4646253Y-8725817D01*
X4646253Y-8725817D02*
X4627206Y-8716293D01*
X4627206Y-8716293D02*
X4617682Y-8697246D01*
X4617682Y-8697246D02*
X4617682Y-8687722D01*
X4617682Y-8687722D02*
X4627206Y-8668674D01*
X4627206Y-8668674D02*
X4646253Y-8659150D01*
X4646253Y-8659150D02*
X4674825Y-8659150D01*
X4674825Y-8659150D02*
X4693873Y-8668674D01*
X4770063Y-8868674D02*
X4779587Y-8859150D01*
X4779587Y-8859150D02*
X4798634Y-8830579D01*
X4798634Y-8830579D02*
X4808158Y-8811531D01*
X4808158Y-8811531D02*
X4817682Y-8782960D01*
X4817682Y-8782960D02*
X4827206Y-8735341D01*
X4827206Y-8735341D02*
X4827206Y-8697246D01*
X4827206Y-8697246D02*
X4817682Y-8649627D01*
X4817682Y-8649627D02*
X4808158Y-8621055D01*
X4808158Y-8621055D02*
X4798634Y-8602008D01*
X4798634Y-8602008D02*
X4779587Y-8573436D01*
X4779587Y-8573436D02*
X4770063Y-8563912D01*
D10*
X-105000Y-8915000D02*
X-5000Y-9015000D01*
X-5000Y-8915000D02*
X-105000Y-9015000D01*
X-5000Y-8965000D02*
G75*
G02*
X-105000Y-8965000I-50000J0D01*
G01*
X-105000Y-8965000D02*
G75*
G02*
X-5000Y-8965000I50000J0D01*
G01*
D11*
X360539Y-9056484D02*
X246253Y-9056484D01*
X303396Y-9056484D02*
X303396Y-8856484D01*
X303396Y-8856484D02*
X284348Y-8885055D01*
X284348Y-8885055D02*
X265301Y-8904103D01*
X265301Y-8904103D02*
X246253Y-8913627D01*
X446253Y-9037436D02*
X455777Y-9046960D01*
X455777Y-9046960D02*
X446253Y-9056484D01*
X446253Y-9056484D02*
X436729Y-9046960D01*
X436729Y-9046960D02*
X446253Y-9037436D01*
X446253Y-9037436D02*
X446253Y-9056484D01*
X579586Y-8856484D02*
X598634Y-8856484D01*
X598634Y-8856484D02*
X617682Y-8866008D01*
X617682Y-8866008D02*
X627205Y-8875531D01*
X627205Y-8875531D02*
X636729Y-8894579D01*
X636729Y-8894579D02*
X646253Y-8932674D01*
X646253Y-8932674D02*
X646253Y-8980293D01*
X646253Y-8980293D02*
X636729Y-9018389D01*
X636729Y-9018389D02*
X627205Y-9037436D01*
X627205Y-9037436D02*
X617682Y-9046960D01*
X617682Y-9046960D02*
X598634Y-9056484D01*
X598634Y-9056484D02*
X579586Y-9056484D01*
X579586Y-9056484D02*
X560539Y-9046960D01*
X560539Y-9046960D02*
X551015Y-9037436D01*
X551015Y-9037436D02*
X541491Y-9018389D01*
X541491Y-9018389D02*
X531967Y-8980293D01*
X531967Y-8980293D02*
X531967Y-8932674D01*
X531967Y-8932674D02*
X541491Y-8894579D01*
X541491Y-8894579D02*
X551015Y-8875531D01*
X551015Y-8875531D02*
X560539Y-8866008D01*
X560539Y-8866008D02*
X579586Y-8856484D01*
X770062Y-8856484D02*
X789110Y-8856484D01*
X789110Y-8856484D02*
X808158Y-8866008D01*
X808158Y-8866008D02*
X817682Y-8875531D01*
X817682Y-8875531D02*
X827205Y-8894579D01*
X827205Y-8894579D02*
X836729Y-8932674D01*
X836729Y-8932674D02*
X836729Y-8980293D01*
X836729Y-8980293D02*
X827205Y-9018389D01*
X827205Y-9018389D02*
X817682Y-9037436D01*
X817682Y-9037436D02*
X808158Y-9046960D01*
X808158Y-9046960D02*
X789110Y-9056484D01*
X789110Y-9056484D02*
X770062Y-9056484D01*
X770062Y-9056484D02*
X751015Y-9046960D01*
X751015Y-9046960D02*
X741491Y-9037436D01*
X741491Y-9037436D02*
X731967Y-9018389D01*
X731967Y-9018389D02*
X722443Y-8980293D01*
X722443Y-8980293D02*
X722443Y-8932674D01*
X722443Y-8932674D02*
X731967Y-8894579D01*
X731967Y-8894579D02*
X741491Y-8875531D01*
X741491Y-8875531D02*
X751015Y-8866008D01*
X751015Y-8866008D02*
X770062Y-8856484D01*
X960539Y-8856484D02*
X979586Y-8856484D01*
X979586Y-8856484D02*
X998634Y-8866008D01*
X998634Y-8866008D02*
X1008158Y-8875531D01*
X1008158Y-8875531D02*
X1017682Y-8894579D01*
X1017682Y-8894579D02*
X1027205Y-8932674D01*
X1027205Y-8932674D02*
X1027205Y-8980293D01*
X1027205Y-8980293D02*
X1017682Y-9018389D01*
X1017682Y-9018389D02*
X1008158Y-9037436D01*
X1008158Y-9037436D02*
X998634Y-9046960D01*
X998634Y-9046960D02*
X979586Y-9056484D01*
X979586Y-9056484D02*
X960539Y-9056484D01*
X960539Y-9056484D02*
X941491Y-9046960D01*
X941491Y-9046960D02*
X931967Y-9037436D01*
X931967Y-9037436D02*
X922443Y-9018389D01*
X922443Y-9018389D02*
X912920Y-8980293D01*
X912920Y-8980293D02*
X912920Y-8932674D01*
X912920Y-8932674D02*
X922443Y-8894579D01*
X922443Y-8894579D02*
X931967Y-8875531D01*
X931967Y-8875531D02*
X941491Y-8866008D01*
X941491Y-8866008D02*
X960539Y-8856484D01*
X1112920Y-9056484D02*
X1112920Y-8923150D01*
X1112920Y-8942198D02*
X1122444Y-8932674D01*
X1122444Y-8932674D02*
X1141491Y-8923150D01*
X1141491Y-8923150D02*
X1170063Y-8923150D01*
X1170063Y-8923150D02*
X1189110Y-8932674D01*
X1189110Y-8932674D02*
X1198634Y-8951722D01*
X1198634Y-8951722D02*
X1198634Y-9056484D01*
X1198634Y-8951722D02*
X1208158Y-8932674D01*
X1208158Y-8932674D02*
X1227205Y-8923150D01*
X1227205Y-8923150D02*
X1255777Y-8923150D01*
X1255777Y-8923150D02*
X1274825Y-8932674D01*
X1274825Y-8932674D02*
X1284348Y-8951722D01*
X1284348Y-8951722D02*
X1284348Y-9056484D01*
X1379586Y-9056484D02*
X1379586Y-8923150D01*
X1379586Y-8942198D02*
X1389110Y-8932674D01*
X1389110Y-8932674D02*
X1408158Y-8923150D01*
X1408158Y-8923150D02*
X1436729Y-8923150D01*
X1436729Y-8923150D02*
X1455777Y-8932674D01*
X1455777Y-8932674D02*
X1465301Y-8951722D01*
X1465301Y-8951722D02*
X1465301Y-9056484D01*
X1465301Y-8951722D02*
X1474824Y-8932674D01*
X1474824Y-8932674D02*
X1493872Y-8923150D01*
X1493872Y-8923150D02*
X1522443Y-8923150D01*
X1522443Y-8923150D02*
X1541491Y-8932674D01*
X1541491Y-8932674D02*
X1551015Y-8951722D01*
X1551015Y-8951722D02*
X1551015Y-9056484D01*
X1941491Y-8846960D02*
X1770063Y-9104103D01*
X2198634Y-8856484D02*
X2217682Y-8856484D01*
X2217682Y-8856484D02*
X2236729Y-8866008D01*
X2236729Y-8866008D02*
X2246253Y-8875531D01*
X2246253Y-8875531D02*
X2255777Y-8894579D01*
X2255777Y-8894579D02*
X2265301Y-8932674D01*
X2265301Y-8932674D02*
X2265301Y-8980293D01*
X2265301Y-8980293D02*
X2255777Y-9018389D01*
X2255777Y-9018389D02*
X2246253Y-9037436D01*
X2246253Y-9037436D02*
X2236729Y-9046960D01*
X2236729Y-9046960D02*
X2217682Y-9056484D01*
X2217682Y-9056484D02*
X2198634Y-9056484D01*
X2198634Y-9056484D02*
X2179587Y-9046960D01*
X2179587Y-9046960D02*
X2170063Y-9037436D01*
X2170063Y-9037436D02*
X2160539Y-9018389D01*
X2160539Y-9018389D02*
X2151015Y-8980293D01*
X2151015Y-8980293D02*
X2151015Y-8932674D01*
X2151015Y-8932674D02*
X2160539Y-8894579D01*
X2160539Y-8894579D02*
X2170063Y-8875531D01*
X2170063Y-8875531D02*
X2179587Y-8866008D01*
X2179587Y-8866008D02*
X2198634Y-8856484D01*
X2351015Y-9037436D02*
X2360539Y-9046960D01*
X2360539Y-9046960D02*
X2351015Y-9056484D01*
X2351015Y-9056484D02*
X2341491Y-9046960D01*
X2341491Y-9046960D02*
X2351015Y-9037436D01*
X2351015Y-9037436D02*
X2351015Y-9056484D01*
X2484348Y-8856484D02*
X2503396Y-8856484D01*
X2503396Y-8856484D02*
X2522444Y-8866008D01*
X2522444Y-8866008D02*
X2531968Y-8875531D01*
X2531968Y-8875531D02*
X2541491Y-8894579D01*
X2541491Y-8894579D02*
X2551015Y-8932674D01*
X2551015Y-8932674D02*
X2551015Y-8980293D01*
X2551015Y-8980293D02*
X2541491Y-9018389D01*
X2541491Y-9018389D02*
X2531968Y-9037436D01*
X2531968Y-9037436D02*
X2522444Y-9046960D01*
X2522444Y-9046960D02*
X2503396Y-9056484D01*
X2503396Y-9056484D02*
X2484348Y-9056484D01*
X2484348Y-9056484D02*
X2465301Y-9046960D01*
X2465301Y-9046960D02*
X2455777Y-9037436D01*
X2455777Y-9037436D02*
X2446253Y-9018389D01*
X2446253Y-9018389D02*
X2436729Y-8980293D01*
X2436729Y-8980293D02*
X2436729Y-8932674D01*
X2436729Y-8932674D02*
X2446253Y-8894579D01*
X2446253Y-8894579D02*
X2455777Y-8875531D01*
X2455777Y-8875531D02*
X2465301Y-8866008D01*
X2465301Y-8866008D02*
X2484348Y-8856484D01*
X2617682Y-8856484D02*
X2741491Y-8856484D01*
X2741491Y-8856484D02*
X2674825Y-8932674D01*
X2674825Y-8932674D02*
X2703396Y-8932674D01*
X2703396Y-8932674D02*
X2722444Y-8942198D01*
X2722444Y-8942198D02*
X2731968Y-8951722D01*
X2731968Y-8951722D02*
X2741491Y-8970770D01*
X2741491Y-8970770D02*
X2741491Y-9018389D01*
X2741491Y-9018389D02*
X2731968Y-9037436D01*
X2731968Y-9037436D02*
X2722444Y-9046960D01*
X2722444Y-9046960D02*
X2703396Y-9056484D01*
X2703396Y-9056484D02*
X2646253Y-9056484D01*
X2646253Y-9056484D02*
X2627206Y-9046960D01*
X2627206Y-9046960D02*
X2617682Y-9037436D01*
X2836729Y-9056484D02*
X2874825Y-9056484D01*
X2874825Y-9056484D02*
X2893872Y-9046960D01*
X2893872Y-9046960D02*
X2903396Y-9037436D01*
X2903396Y-9037436D02*
X2922444Y-9008865D01*
X2922444Y-9008865D02*
X2931967Y-8970770D01*
X2931967Y-8970770D02*
X2931967Y-8894579D01*
X2931967Y-8894579D02*
X2922444Y-8875531D01*
X2922444Y-8875531D02*
X2912920Y-8866008D01*
X2912920Y-8866008D02*
X2893872Y-8856484D01*
X2893872Y-8856484D02*
X2855777Y-8856484D01*
X2855777Y-8856484D02*
X2836729Y-8866008D01*
X2836729Y-8866008D02*
X2827206Y-8875531D01*
X2827206Y-8875531D02*
X2817682Y-8894579D01*
X2817682Y-8894579D02*
X2817682Y-8942198D01*
X2817682Y-8942198D02*
X2827206Y-8961246D01*
X2827206Y-8961246D02*
X2836729Y-8970770D01*
X2836729Y-8970770D02*
X2855777Y-8980293D01*
X2855777Y-8980293D02*
X2893872Y-8980293D01*
X2893872Y-8980293D02*
X2912920Y-8970770D01*
X2912920Y-8970770D02*
X2922444Y-8961246D01*
X2922444Y-8961246D02*
X2931967Y-8942198D01*
X3103396Y-8923150D02*
X3103396Y-9056484D01*
X3055777Y-8846960D02*
X3008158Y-8989817D01*
X3008158Y-8989817D02*
X3131967Y-8989817D01*
X3198634Y-8856484D02*
X3198634Y-8894579D01*
X3274825Y-8856484D02*
X3274825Y-8894579D01*
X3570063Y-9132674D02*
X3560539Y-9123150D01*
X3560539Y-9123150D02*
X3541491Y-9094579D01*
X3541491Y-9094579D02*
X3531968Y-9075531D01*
X3531968Y-9075531D02*
X3522444Y-9046960D01*
X3522444Y-9046960D02*
X3512920Y-8999341D01*
X3512920Y-8999341D02*
X3512920Y-8961246D01*
X3512920Y-8961246D02*
X3522444Y-8913627D01*
X3522444Y-8913627D02*
X3531968Y-8885055D01*
X3531968Y-8885055D02*
X3541491Y-8866008D01*
X3541491Y-8866008D02*
X3560539Y-8837436D01*
X3560539Y-8837436D02*
X3570063Y-8827912D01*
X3636729Y-8875531D02*
X3646253Y-8866008D01*
X3646253Y-8866008D02*
X3665301Y-8856484D01*
X3665301Y-8856484D02*
X3712920Y-8856484D01*
X3712920Y-8856484D02*
X3731968Y-8866008D01*
X3731968Y-8866008D02*
X3741491Y-8875531D01*
X3741491Y-8875531D02*
X3751015Y-8894579D01*
X3751015Y-8894579D02*
X3751015Y-8913627D01*
X3751015Y-8913627D02*
X3741491Y-8942198D01*
X3741491Y-8942198D02*
X3627206Y-9056484D01*
X3627206Y-9056484D02*
X3751015Y-9056484D01*
X3874825Y-8856484D02*
X3893872Y-8856484D01*
X3893872Y-8856484D02*
X3912920Y-8866008D01*
X3912920Y-8866008D02*
X3922444Y-8875531D01*
X3922444Y-8875531D02*
X3931968Y-8894579D01*
X3931968Y-8894579D02*
X3941491Y-8932674D01*
X3941491Y-8932674D02*
X3941491Y-8980293D01*
X3941491Y-8980293D02*
X3931968Y-9018389D01*
X3931968Y-9018389D02*
X3922444Y-9037436D01*
X3922444Y-9037436D02*
X3912920Y-9046960D01*
X3912920Y-9046960D02*
X3893872Y-9056484D01*
X3893872Y-9056484D02*
X3874825Y-9056484D01*
X3874825Y-9056484D02*
X3855777Y-9046960D01*
X3855777Y-9046960D02*
X3846253Y-9037436D01*
X3846253Y-9037436D02*
X3836729Y-9018389D01*
X3836729Y-9018389D02*
X3827206Y-8980293D01*
X3827206Y-8980293D02*
X3827206Y-8932674D01*
X3827206Y-8932674D02*
X3836729Y-8894579D01*
X3836729Y-8894579D02*
X3846253Y-8875531D01*
X3846253Y-8875531D02*
X3855777Y-8866008D01*
X3855777Y-8866008D02*
X3874825Y-8856484D01*
X4179587Y-9056484D02*
X4179587Y-8856484D01*
X4265301Y-9056484D02*
X4265301Y-8951722D01*
X4265301Y-8951722D02*
X4255777Y-8932674D01*
X4255777Y-8932674D02*
X4236730Y-8923150D01*
X4236730Y-8923150D02*
X4208158Y-8923150D01*
X4208158Y-8923150D02*
X4189110Y-8932674D01*
X4189110Y-8932674D02*
X4179587Y-8942198D01*
X4389111Y-9056484D02*
X4370063Y-9046960D01*
X4370063Y-9046960D02*
X4360539Y-9037436D01*
X4360539Y-9037436D02*
X4351015Y-9018389D01*
X4351015Y-9018389D02*
X4351015Y-8961246D01*
X4351015Y-8961246D02*
X4360539Y-8942198D01*
X4360539Y-8942198D02*
X4370063Y-8932674D01*
X4370063Y-8932674D02*
X4389111Y-8923150D01*
X4389111Y-8923150D02*
X4417682Y-8923150D01*
X4417682Y-8923150D02*
X4436730Y-8932674D01*
X4436730Y-8932674D02*
X4446253Y-8942198D01*
X4446253Y-8942198D02*
X4455777Y-8961246D01*
X4455777Y-8961246D02*
X4455777Y-9018389D01*
X4455777Y-9018389D02*
X4446253Y-9037436D01*
X4446253Y-9037436D02*
X4436730Y-9046960D01*
X4436730Y-9046960D02*
X4417682Y-9056484D01*
X4417682Y-9056484D02*
X4389111Y-9056484D01*
X4570063Y-9056484D02*
X4551015Y-9046960D01*
X4551015Y-9046960D02*
X4541492Y-9027912D01*
X4541492Y-9027912D02*
X4541492Y-8856484D01*
X4722444Y-9046960D02*
X4703396Y-9056484D01*
X4703396Y-9056484D02*
X4665301Y-9056484D01*
X4665301Y-9056484D02*
X4646253Y-9046960D01*
X4646253Y-9046960D02*
X4636730Y-9027912D01*
X4636730Y-9027912D02*
X4636730Y-8951722D01*
X4636730Y-8951722D02*
X4646253Y-8932674D01*
X4646253Y-8932674D02*
X4665301Y-8923150D01*
X4665301Y-8923150D02*
X4703396Y-8923150D01*
X4703396Y-8923150D02*
X4722444Y-8932674D01*
X4722444Y-8932674D02*
X4731968Y-8951722D01*
X4731968Y-8951722D02*
X4731968Y-8970770D01*
X4731968Y-8970770D02*
X4636730Y-8989817D01*
X4808158Y-9046960D02*
X4827206Y-9056484D01*
X4827206Y-9056484D02*
X4865301Y-9056484D01*
X4865301Y-9056484D02*
X4884349Y-9046960D01*
X4884349Y-9046960D02*
X4893873Y-9027912D01*
X4893873Y-9027912D02*
X4893873Y-9018389D01*
X4893873Y-9018389D02*
X4884349Y-8999341D01*
X4884349Y-8999341D02*
X4865301Y-8989817D01*
X4865301Y-8989817D02*
X4836730Y-8989817D01*
X4836730Y-8989817D02*
X4817682Y-8980293D01*
X4817682Y-8980293D02*
X4808158Y-8961246D01*
X4808158Y-8961246D02*
X4808158Y-8951722D01*
X4808158Y-8951722D02*
X4817682Y-8932674D01*
X4817682Y-8932674D02*
X4836730Y-8923150D01*
X4836730Y-8923150D02*
X4865301Y-8923150D01*
X4865301Y-8923150D02*
X4884349Y-8932674D01*
X4960539Y-9132674D02*
X4970063Y-9123150D01*
X4970063Y-9123150D02*
X4989111Y-9094579D01*
X4989111Y-9094579D02*
X4998634Y-9075531D01*
X4998634Y-9075531D02*
X5008158Y-9046960D01*
X5008158Y-9046960D02*
X5017682Y-8999341D01*
X5017682Y-8999341D02*
X5017682Y-8961246D01*
X5017682Y-8961246D02*
X5008158Y-8913627D01*
X5008158Y-8913627D02*
X4998634Y-8885055D01*
X4998634Y-8885055D02*
X4989111Y-8866008D01*
X4989111Y-8866008D02*
X4970063Y-8837436D01*
X4970063Y-8837436D02*
X4960539Y-8827912D01*
D12*
X-115000Y-9174000D02*
X-5000Y-9284000D01*
X-5000Y-9174000D02*
X-115000Y-9284000D01*
X-60000Y-9174000D02*
X-60000Y-9284000D01*
X-115000Y-9229000D02*
X-5000Y-9229000D01*
D11*
X360539Y-9320484D02*
X246253Y-9320484D01*
X303396Y-9320484D02*
X303396Y-9120484D01*
X303396Y-9120484D02*
X284348Y-9149055D01*
X284348Y-9149055D02*
X265301Y-9168103D01*
X265301Y-9168103D02*
X246253Y-9177627D01*
X446253Y-9301436D02*
X455777Y-9310960D01*
X455777Y-9310960D02*
X446253Y-9320484D01*
X446253Y-9320484D02*
X436729Y-9310960D01*
X436729Y-9310960D02*
X446253Y-9301436D01*
X446253Y-9301436D02*
X446253Y-9320484D01*
X646253Y-9320484D02*
X531967Y-9320484D01*
X589110Y-9320484D02*
X589110Y-9120484D01*
X589110Y-9120484D02*
X570063Y-9149055D01*
X570063Y-9149055D02*
X551015Y-9168103D01*
X551015Y-9168103D02*
X531967Y-9177627D01*
X770062Y-9120484D02*
X789110Y-9120484D01*
X789110Y-9120484D02*
X808158Y-9130008D01*
X808158Y-9130008D02*
X817682Y-9139531D01*
X817682Y-9139531D02*
X827205Y-9158579D01*
X827205Y-9158579D02*
X836729Y-9196674D01*
X836729Y-9196674D02*
X836729Y-9244293D01*
X836729Y-9244293D02*
X827205Y-9282389D01*
X827205Y-9282389D02*
X817682Y-9301436D01*
X817682Y-9301436D02*
X808158Y-9310960D01*
X808158Y-9310960D02*
X789110Y-9320484D01*
X789110Y-9320484D02*
X770062Y-9320484D01*
X770062Y-9320484D02*
X751015Y-9310960D01*
X751015Y-9310960D02*
X741491Y-9301436D01*
X741491Y-9301436D02*
X731967Y-9282389D01*
X731967Y-9282389D02*
X722443Y-9244293D01*
X722443Y-9244293D02*
X722443Y-9196674D01*
X722443Y-9196674D02*
X731967Y-9158579D01*
X731967Y-9158579D02*
X741491Y-9139531D01*
X741491Y-9139531D02*
X751015Y-9130008D01*
X751015Y-9130008D02*
X770062Y-9120484D01*
X960539Y-9120484D02*
X979586Y-9120484D01*
X979586Y-9120484D02*
X998634Y-9130008D01*
X998634Y-9130008D02*
X1008158Y-9139531D01*
X1008158Y-9139531D02*
X1017682Y-9158579D01*
X1017682Y-9158579D02*
X1027205Y-9196674D01*
X1027205Y-9196674D02*
X1027205Y-9244293D01*
X1027205Y-9244293D02*
X1017682Y-9282389D01*
X1017682Y-9282389D02*
X1008158Y-9301436D01*
X1008158Y-9301436D02*
X998634Y-9310960D01*
X998634Y-9310960D02*
X979586Y-9320484D01*
X979586Y-9320484D02*
X960539Y-9320484D01*
X960539Y-9320484D02*
X941491Y-9310960D01*
X941491Y-9310960D02*
X931967Y-9301436D01*
X931967Y-9301436D02*
X922443Y-9282389D01*
X922443Y-9282389D02*
X912920Y-9244293D01*
X912920Y-9244293D02*
X912920Y-9196674D01*
X912920Y-9196674D02*
X922443Y-9158579D01*
X922443Y-9158579D02*
X931967Y-9139531D01*
X931967Y-9139531D02*
X941491Y-9130008D01*
X941491Y-9130008D02*
X960539Y-9120484D01*
X1112920Y-9320484D02*
X1112920Y-9187150D01*
X1112920Y-9206198D02*
X1122444Y-9196674D01*
X1122444Y-9196674D02*
X1141491Y-9187150D01*
X1141491Y-9187150D02*
X1170063Y-9187150D01*
X1170063Y-9187150D02*
X1189110Y-9196674D01*
X1189110Y-9196674D02*
X1198634Y-9215722D01*
X1198634Y-9215722D02*
X1198634Y-9320484D01*
X1198634Y-9215722D02*
X1208158Y-9196674D01*
X1208158Y-9196674D02*
X1227205Y-9187150D01*
X1227205Y-9187150D02*
X1255777Y-9187150D01*
X1255777Y-9187150D02*
X1274825Y-9196674D01*
X1274825Y-9196674D02*
X1284348Y-9215722D01*
X1284348Y-9215722D02*
X1284348Y-9320484D01*
X1379586Y-9320484D02*
X1379586Y-9187150D01*
X1379586Y-9206198D02*
X1389110Y-9196674D01*
X1389110Y-9196674D02*
X1408158Y-9187150D01*
X1408158Y-9187150D02*
X1436729Y-9187150D01*
X1436729Y-9187150D02*
X1455777Y-9196674D01*
X1455777Y-9196674D02*
X1465301Y-9215722D01*
X1465301Y-9215722D02*
X1465301Y-9320484D01*
X1465301Y-9215722D02*
X1474824Y-9196674D01*
X1474824Y-9196674D02*
X1493872Y-9187150D01*
X1493872Y-9187150D02*
X1522443Y-9187150D01*
X1522443Y-9187150D02*
X1541491Y-9196674D01*
X1541491Y-9196674D02*
X1551015Y-9215722D01*
X1551015Y-9215722D02*
X1551015Y-9320484D01*
X1941491Y-9110960D02*
X1770063Y-9368103D01*
X2198634Y-9120484D02*
X2217682Y-9120484D01*
X2217682Y-9120484D02*
X2236729Y-9130008D01*
X2236729Y-9130008D02*
X2246253Y-9139531D01*
X2246253Y-9139531D02*
X2255777Y-9158579D01*
X2255777Y-9158579D02*
X2265301Y-9196674D01*
X2265301Y-9196674D02*
X2265301Y-9244293D01*
X2265301Y-9244293D02*
X2255777Y-9282389D01*
X2255777Y-9282389D02*
X2246253Y-9301436D01*
X2246253Y-9301436D02*
X2236729Y-9310960D01*
X2236729Y-9310960D02*
X2217682Y-9320484D01*
X2217682Y-9320484D02*
X2198634Y-9320484D01*
X2198634Y-9320484D02*
X2179587Y-9310960D01*
X2179587Y-9310960D02*
X2170063Y-9301436D01*
X2170063Y-9301436D02*
X2160539Y-9282389D01*
X2160539Y-9282389D02*
X2151015Y-9244293D01*
X2151015Y-9244293D02*
X2151015Y-9196674D01*
X2151015Y-9196674D02*
X2160539Y-9158579D01*
X2160539Y-9158579D02*
X2170063Y-9139531D01*
X2170063Y-9139531D02*
X2179587Y-9130008D01*
X2179587Y-9130008D02*
X2198634Y-9120484D01*
X2351015Y-9301436D02*
X2360539Y-9310960D01*
X2360539Y-9310960D02*
X2351015Y-9320484D01*
X2351015Y-9320484D02*
X2341491Y-9310960D01*
X2341491Y-9310960D02*
X2351015Y-9301436D01*
X2351015Y-9301436D02*
X2351015Y-9320484D01*
X2484348Y-9120484D02*
X2503396Y-9120484D01*
X2503396Y-9120484D02*
X2522444Y-9130008D01*
X2522444Y-9130008D02*
X2531968Y-9139531D01*
X2531968Y-9139531D02*
X2541491Y-9158579D01*
X2541491Y-9158579D02*
X2551015Y-9196674D01*
X2551015Y-9196674D02*
X2551015Y-9244293D01*
X2551015Y-9244293D02*
X2541491Y-9282389D01*
X2541491Y-9282389D02*
X2531968Y-9301436D01*
X2531968Y-9301436D02*
X2522444Y-9310960D01*
X2522444Y-9310960D02*
X2503396Y-9320484D01*
X2503396Y-9320484D02*
X2484348Y-9320484D01*
X2484348Y-9320484D02*
X2465301Y-9310960D01*
X2465301Y-9310960D02*
X2455777Y-9301436D01*
X2455777Y-9301436D02*
X2446253Y-9282389D01*
X2446253Y-9282389D02*
X2436729Y-9244293D01*
X2436729Y-9244293D02*
X2436729Y-9196674D01*
X2436729Y-9196674D02*
X2446253Y-9158579D01*
X2446253Y-9158579D02*
X2455777Y-9139531D01*
X2455777Y-9139531D02*
X2465301Y-9130008D01*
X2465301Y-9130008D02*
X2484348Y-9120484D01*
X2722444Y-9187150D02*
X2722444Y-9320484D01*
X2674825Y-9110960D02*
X2627206Y-9253817D01*
X2627206Y-9253817D02*
X2751015Y-9253817D01*
X2808158Y-9120484D02*
X2931967Y-9120484D01*
X2931967Y-9120484D02*
X2865301Y-9196674D01*
X2865301Y-9196674D02*
X2893872Y-9196674D01*
X2893872Y-9196674D02*
X2912920Y-9206198D01*
X2912920Y-9206198D02*
X2922444Y-9215722D01*
X2922444Y-9215722D02*
X2931967Y-9234770D01*
X2931967Y-9234770D02*
X2931967Y-9282389D01*
X2931967Y-9282389D02*
X2922444Y-9301436D01*
X2922444Y-9301436D02*
X2912920Y-9310960D01*
X2912920Y-9310960D02*
X2893872Y-9320484D01*
X2893872Y-9320484D02*
X2836729Y-9320484D01*
X2836729Y-9320484D02*
X2817682Y-9310960D01*
X2817682Y-9310960D02*
X2808158Y-9301436D01*
X2998634Y-9120484D02*
X3122444Y-9120484D01*
X3122444Y-9120484D02*
X3055777Y-9196674D01*
X3055777Y-9196674D02*
X3084348Y-9196674D01*
X3084348Y-9196674D02*
X3103396Y-9206198D01*
X3103396Y-9206198D02*
X3112920Y-9215722D01*
X3112920Y-9215722D02*
X3122444Y-9234770D01*
X3122444Y-9234770D02*
X3122444Y-9282389D01*
X3122444Y-9282389D02*
X3112920Y-9301436D01*
X3112920Y-9301436D02*
X3103396Y-9310960D01*
X3103396Y-9310960D02*
X3084348Y-9320484D01*
X3084348Y-9320484D02*
X3027206Y-9320484D01*
X3027206Y-9320484D02*
X3008158Y-9310960D01*
X3008158Y-9310960D02*
X2998634Y-9301436D01*
X3198634Y-9120484D02*
X3198634Y-9158579D01*
X3274825Y-9120484D02*
X3274825Y-9158579D01*
X3570063Y-9396674D02*
X3560539Y-9387150D01*
X3560539Y-9387150D02*
X3541491Y-9358579D01*
X3541491Y-9358579D02*
X3531968Y-9339531D01*
X3531968Y-9339531D02*
X3522444Y-9310960D01*
X3522444Y-9310960D02*
X3512920Y-9263341D01*
X3512920Y-9263341D02*
X3512920Y-9225246D01*
X3512920Y-9225246D02*
X3522444Y-9177627D01*
X3522444Y-9177627D02*
X3531968Y-9149055D01*
X3531968Y-9149055D02*
X3541491Y-9130008D01*
X3541491Y-9130008D02*
X3560539Y-9101436D01*
X3560539Y-9101436D02*
X3570063Y-9091912D01*
X3731968Y-9187150D02*
X3731968Y-9320484D01*
X3684348Y-9110960D02*
X3636729Y-9253817D01*
X3636729Y-9253817D02*
X3760539Y-9253817D01*
X3989110Y-9320484D02*
X3989110Y-9120484D01*
X4074825Y-9320484D02*
X4074825Y-9215722D01*
X4074825Y-9215722D02*
X4065301Y-9196674D01*
X4065301Y-9196674D02*
X4046253Y-9187150D01*
X4046253Y-9187150D02*
X4017682Y-9187150D01*
X4017682Y-9187150D02*
X3998634Y-9196674D01*
X3998634Y-9196674D02*
X3989110Y-9206198D01*
X4198634Y-9320484D02*
X4179587Y-9310960D01*
X4179587Y-9310960D02*
X4170063Y-9301436D01*
X4170063Y-9301436D02*
X4160539Y-9282389D01*
X4160539Y-9282389D02*
X4160539Y-9225246D01*
X4160539Y-9225246D02*
X4170063Y-9206198D01*
X4170063Y-9206198D02*
X4179587Y-9196674D01*
X4179587Y-9196674D02*
X4198634Y-9187150D01*
X4198634Y-9187150D02*
X4227206Y-9187150D01*
X4227206Y-9187150D02*
X4246253Y-9196674D01*
X4246253Y-9196674D02*
X4255777Y-9206198D01*
X4255777Y-9206198D02*
X4265301Y-9225246D01*
X4265301Y-9225246D02*
X4265301Y-9282389D01*
X4265301Y-9282389D02*
X4255777Y-9301436D01*
X4255777Y-9301436D02*
X4246253Y-9310960D01*
X4246253Y-9310960D02*
X4227206Y-9320484D01*
X4227206Y-9320484D02*
X4198634Y-9320484D01*
X4379587Y-9320484D02*
X4360539Y-9310960D01*
X4360539Y-9310960D02*
X4351015Y-9291912D01*
X4351015Y-9291912D02*
X4351015Y-9120484D01*
X4531968Y-9310960D02*
X4512920Y-9320484D01*
X4512920Y-9320484D02*
X4474825Y-9320484D01*
X4474825Y-9320484D02*
X4455777Y-9310960D01*
X4455777Y-9310960D02*
X4446253Y-9291912D01*
X4446253Y-9291912D02*
X4446253Y-9215722D01*
X4446253Y-9215722D02*
X4455777Y-9196674D01*
X4455777Y-9196674D02*
X4474825Y-9187150D01*
X4474825Y-9187150D02*
X4512920Y-9187150D01*
X4512920Y-9187150D02*
X4531968Y-9196674D01*
X4531968Y-9196674D02*
X4541492Y-9215722D01*
X4541492Y-9215722D02*
X4541492Y-9234770D01*
X4541492Y-9234770D02*
X4446253Y-9253817D01*
X4617682Y-9310960D02*
X4636730Y-9320484D01*
X4636730Y-9320484D02*
X4674825Y-9320484D01*
X4674825Y-9320484D02*
X4693873Y-9310960D01*
X4693873Y-9310960D02*
X4703396Y-9291912D01*
X4703396Y-9291912D02*
X4703396Y-9282389D01*
X4703396Y-9282389D02*
X4693873Y-9263341D01*
X4693873Y-9263341D02*
X4674825Y-9253817D01*
X4674825Y-9253817D02*
X4646253Y-9253817D01*
X4646253Y-9253817D02*
X4627206Y-9244293D01*
X4627206Y-9244293D02*
X4617682Y-9225246D01*
X4617682Y-9225246D02*
X4617682Y-9215722D01*
X4617682Y-9215722D02*
X4627206Y-9196674D01*
X4627206Y-9196674D02*
X4646253Y-9187150D01*
X4646253Y-9187150D02*
X4674825Y-9187150D01*
X4674825Y-9187150D02*
X4693873Y-9196674D01*
X4770063Y-9396674D02*
X4779587Y-9387150D01*
X4779587Y-9387150D02*
X4798634Y-9358579D01*
X4798634Y-9358579D02*
X4808158Y-9339531D01*
X4808158Y-9339531D02*
X4817682Y-9310960D01*
X4817682Y-9310960D02*
X4827206Y-9263341D01*
X4827206Y-9263341D02*
X4827206Y-9225246D01*
X4827206Y-9225246D02*
X4817682Y-9177627D01*
X4817682Y-9177627D02*
X4808158Y-9149055D01*
X4808158Y-9149055D02*
X4798634Y-9130008D01*
X4798634Y-9130008D02*
X4779587Y-9101436D01*
X4779587Y-9101436D02*
X4770063Y-9091912D01*
X-205000Y-9393000D02*
X-5000Y-9593000D01*
X-5000Y-9393000D02*
X-205000Y-9593000D01*
X-34289Y-9563711D02*
X-34289Y-9422289D01*
X-175711Y-9422289D01*
X-175711Y-9563711D01*
X-34289Y-9563711D01*
X236729Y-9384484D02*
X360539Y-9384484D01*
X360539Y-9384484D02*
X293872Y-9460674D01*
X293872Y-9460674D02*
X322444Y-9460674D01*
X322444Y-9460674D02*
X341491Y-9470198D01*
X341491Y-9470198D02*
X351015Y-9479722D01*
X351015Y-9479722D02*
X360539Y-9498770D01*
X360539Y-9498770D02*
X360539Y-9546389D01*
X360539Y-9546389D02*
X351015Y-9565436D01*
X351015Y-9565436D02*
X341491Y-9574960D01*
X341491Y-9574960D02*
X322444Y-9584484D01*
X322444Y-9584484D02*
X265301Y-9584484D01*
X265301Y-9584484D02*
X246253Y-9574960D01*
X246253Y-9574960D02*
X236729Y-9565436D01*
X446253Y-9565436D02*
X455777Y-9574960D01*
X455777Y-9574960D02*
X446253Y-9584484D01*
X446253Y-9584484D02*
X436729Y-9574960D01*
X436729Y-9574960D02*
X446253Y-9565436D01*
X446253Y-9565436D02*
X446253Y-9584484D01*
X531967Y-9403531D02*
X541491Y-9394008D01*
X541491Y-9394008D02*
X560539Y-9384484D01*
X560539Y-9384484D02*
X608158Y-9384484D01*
X608158Y-9384484D02*
X627205Y-9394008D01*
X627205Y-9394008D02*
X636729Y-9403531D01*
X636729Y-9403531D02*
X646253Y-9422579D01*
X646253Y-9422579D02*
X646253Y-9441627D01*
X646253Y-9441627D02*
X636729Y-9470198D01*
X636729Y-9470198D02*
X522443Y-9584484D01*
X522443Y-9584484D02*
X646253Y-9584484D01*
X770062Y-9384484D02*
X789110Y-9384484D01*
X789110Y-9384484D02*
X808158Y-9394008D01*
X808158Y-9394008D02*
X817682Y-9403531D01*
X817682Y-9403531D02*
X827205Y-9422579D01*
X827205Y-9422579D02*
X836729Y-9460674D01*
X836729Y-9460674D02*
X836729Y-9508293D01*
X836729Y-9508293D02*
X827205Y-9546389D01*
X827205Y-9546389D02*
X817682Y-9565436D01*
X817682Y-9565436D02*
X808158Y-9574960D01*
X808158Y-9574960D02*
X789110Y-9584484D01*
X789110Y-9584484D02*
X770062Y-9584484D01*
X770062Y-9584484D02*
X751015Y-9574960D01*
X751015Y-9574960D02*
X741491Y-9565436D01*
X741491Y-9565436D02*
X731967Y-9546389D01*
X731967Y-9546389D02*
X722443Y-9508293D01*
X722443Y-9508293D02*
X722443Y-9460674D01*
X722443Y-9460674D02*
X731967Y-9422579D01*
X731967Y-9422579D02*
X741491Y-9403531D01*
X741491Y-9403531D02*
X751015Y-9394008D01*
X751015Y-9394008D02*
X770062Y-9384484D01*
X960539Y-9384484D02*
X979586Y-9384484D01*
X979586Y-9384484D02*
X998634Y-9394008D01*
X998634Y-9394008D02*
X1008158Y-9403531D01*
X1008158Y-9403531D02*
X1017682Y-9422579D01*
X1017682Y-9422579D02*
X1027205Y-9460674D01*
X1027205Y-9460674D02*
X1027205Y-9508293D01*
X1027205Y-9508293D02*
X1017682Y-9546389D01*
X1017682Y-9546389D02*
X1008158Y-9565436D01*
X1008158Y-9565436D02*
X998634Y-9574960D01*
X998634Y-9574960D02*
X979586Y-9584484D01*
X979586Y-9584484D02*
X960539Y-9584484D01*
X960539Y-9584484D02*
X941491Y-9574960D01*
X941491Y-9574960D02*
X931967Y-9565436D01*
X931967Y-9565436D02*
X922443Y-9546389D01*
X922443Y-9546389D02*
X912920Y-9508293D01*
X912920Y-9508293D02*
X912920Y-9460674D01*
X912920Y-9460674D02*
X922443Y-9422579D01*
X922443Y-9422579D02*
X931967Y-9403531D01*
X931967Y-9403531D02*
X941491Y-9394008D01*
X941491Y-9394008D02*
X960539Y-9384484D01*
X1112920Y-9584484D02*
X1112920Y-9451150D01*
X1112920Y-9470198D02*
X1122444Y-9460674D01*
X1122444Y-9460674D02*
X1141491Y-9451150D01*
X1141491Y-9451150D02*
X1170063Y-9451150D01*
X1170063Y-9451150D02*
X1189110Y-9460674D01*
X1189110Y-9460674D02*
X1198634Y-9479722D01*
X1198634Y-9479722D02*
X1198634Y-9584484D01*
X1198634Y-9479722D02*
X1208158Y-9460674D01*
X1208158Y-9460674D02*
X1227205Y-9451150D01*
X1227205Y-9451150D02*
X1255777Y-9451150D01*
X1255777Y-9451150D02*
X1274825Y-9460674D01*
X1274825Y-9460674D02*
X1284348Y-9479722D01*
X1284348Y-9479722D02*
X1284348Y-9584484D01*
X1379586Y-9584484D02*
X1379586Y-9451150D01*
X1379586Y-9470198D02*
X1389110Y-9460674D01*
X1389110Y-9460674D02*
X1408158Y-9451150D01*
X1408158Y-9451150D02*
X1436729Y-9451150D01*
X1436729Y-9451150D02*
X1455777Y-9460674D01*
X1455777Y-9460674D02*
X1465301Y-9479722D01*
X1465301Y-9479722D02*
X1465301Y-9584484D01*
X1465301Y-9479722D02*
X1474824Y-9460674D01*
X1474824Y-9460674D02*
X1493872Y-9451150D01*
X1493872Y-9451150D02*
X1522443Y-9451150D01*
X1522443Y-9451150D02*
X1541491Y-9460674D01*
X1541491Y-9460674D02*
X1551015Y-9479722D01*
X1551015Y-9479722D02*
X1551015Y-9584484D01*
X1941491Y-9374960D02*
X1770063Y-9632103D01*
X2198634Y-9384484D02*
X2217682Y-9384484D01*
X2217682Y-9384484D02*
X2236729Y-9394008D01*
X2236729Y-9394008D02*
X2246253Y-9403531D01*
X2246253Y-9403531D02*
X2255777Y-9422579D01*
X2255777Y-9422579D02*
X2265301Y-9460674D01*
X2265301Y-9460674D02*
X2265301Y-9508293D01*
X2265301Y-9508293D02*
X2255777Y-9546389D01*
X2255777Y-9546389D02*
X2246253Y-9565436D01*
X2246253Y-9565436D02*
X2236729Y-9574960D01*
X2236729Y-9574960D02*
X2217682Y-9584484D01*
X2217682Y-9584484D02*
X2198634Y-9584484D01*
X2198634Y-9584484D02*
X2179587Y-9574960D01*
X2179587Y-9574960D02*
X2170063Y-9565436D01*
X2170063Y-9565436D02*
X2160539Y-9546389D01*
X2160539Y-9546389D02*
X2151015Y-9508293D01*
X2151015Y-9508293D02*
X2151015Y-9460674D01*
X2151015Y-9460674D02*
X2160539Y-9422579D01*
X2160539Y-9422579D02*
X2170063Y-9403531D01*
X2170063Y-9403531D02*
X2179587Y-9394008D01*
X2179587Y-9394008D02*
X2198634Y-9384484D01*
X2351015Y-9565436D02*
X2360539Y-9574960D01*
X2360539Y-9574960D02*
X2351015Y-9584484D01*
X2351015Y-9584484D02*
X2341491Y-9574960D01*
X2341491Y-9574960D02*
X2351015Y-9565436D01*
X2351015Y-9565436D02*
X2351015Y-9584484D01*
X2551015Y-9584484D02*
X2436729Y-9584484D01*
X2493872Y-9584484D02*
X2493872Y-9384484D01*
X2493872Y-9384484D02*
X2474825Y-9413055D01*
X2474825Y-9413055D02*
X2455777Y-9432103D01*
X2455777Y-9432103D02*
X2436729Y-9441627D01*
X2627206Y-9403531D02*
X2636729Y-9394008D01*
X2636729Y-9394008D02*
X2655777Y-9384484D01*
X2655777Y-9384484D02*
X2703396Y-9384484D01*
X2703396Y-9384484D02*
X2722444Y-9394008D01*
X2722444Y-9394008D02*
X2731968Y-9403531D01*
X2731968Y-9403531D02*
X2741491Y-9422579D01*
X2741491Y-9422579D02*
X2741491Y-9441627D01*
X2741491Y-9441627D02*
X2731968Y-9470198D01*
X2731968Y-9470198D02*
X2617682Y-9584484D01*
X2617682Y-9584484D02*
X2741491Y-9584484D01*
X2912920Y-9384484D02*
X2874825Y-9384484D01*
X2874825Y-9384484D02*
X2855777Y-9394008D01*
X2855777Y-9394008D02*
X2846253Y-9403531D01*
X2846253Y-9403531D02*
X2827206Y-9432103D01*
X2827206Y-9432103D02*
X2817682Y-9470198D01*
X2817682Y-9470198D02*
X2817682Y-9546389D01*
X2817682Y-9546389D02*
X2827206Y-9565436D01*
X2827206Y-9565436D02*
X2836729Y-9574960D01*
X2836729Y-9574960D02*
X2855777Y-9584484D01*
X2855777Y-9584484D02*
X2893872Y-9584484D01*
X2893872Y-9584484D02*
X2912920Y-9574960D01*
X2912920Y-9574960D02*
X2922444Y-9565436D01*
X2922444Y-9565436D02*
X2931967Y-9546389D01*
X2931967Y-9546389D02*
X2931967Y-9498770D01*
X2931967Y-9498770D02*
X2922444Y-9479722D01*
X2922444Y-9479722D02*
X2912920Y-9470198D01*
X2912920Y-9470198D02*
X2893872Y-9460674D01*
X2893872Y-9460674D02*
X2855777Y-9460674D01*
X2855777Y-9460674D02*
X2836729Y-9470198D01*
X2836729Y-9470198D02*
X2827206Y-9479722D01*
X2827206Y-9479722D02*
X2817682Y-9498770D01*
X3055777Y-9384484D02*
X3074825Y-9384484D01*
X3074825Y-9384484D02*
X3093872Y-9394008D01*
X3093872Y-9394008D02*
X3103396Y-9403531D01*
X3103396Y-9403531D02*
X3112920Y-9422579D01*
X3112920Y-9422579D02*
X3122444Y-9460674D01*
X3122444Y-9460674D02*
X3122444Y-9508293D01*
X3122444Y-9508293D02*
X3112920Y-9546389D01*
X3112920Y-9546389D02*
X3103396Y-9565436D01*
X3103396Y-9565436D02*
X3093872Y-9574960D01*
X3093872Y-9574960D02*
X3074825Y-9584484D01*
X3074825Y-9584484D02*
X3055777Y-9584484D01*
X3055777Y-9584484D02*
X3036729Y-9574960D01*
X3036729Y-9574960D02*
X3027206Y-9565436D01*
X3027206Y-9565436D02*
X3017682Y-9546389D01*
X3017682Y-9546389D02*
X3008158Y-9508293D01*
X3008158Y-9508293D02*
X3008158Y-9460674D01*
X3008158Y-9460674D02*
X3017682Y-9422579D01*
X3017682Y-9422579D02*
X3027206Y-9403531D01*
X3027206Y-9403531D02*
X3036729Y-9394008D01*
X3036729Y-9394008D02*
X3055777Y-9384484D01*
X3198634Y-9384484D02*
X3198634Y-9422579D01*
X3274825Y-9384484D02*
X3274825Y-9422579D01*
X3570063Y-9660674D02*
X3560539Y-9651150D01*
X3560539Y-9651150D02*
X3541491Y-9622579D01*
X3541491Y-9622579D02*
X3531968Y-9603531D01*
X3531968Y-9603531D02*
X3522444Y-9574960D01*
X3522444Y-9574960D02*
X3512920Y-9527341D01*
X3512920Y-9527341D02*
X3512920Y-9489246D01*
X3512920Y-9489246D02*
X3522444Y-9441627D01*
X3522444Y-9441627D02*
X3531968Y-9413055D01*
X3531968Y-9413055D02*
X3541491Y-9394008D01*
X3541491Y-9394008D02*
X3560539Y-9365436D01*
X3560539Y-9365436D02*
X3570063Y-9355912D01*
X3731968Y-9451150D02*
X3731968Y-9584484D01*
X3684348Y-9374960D02*
X3636729Y-9517817D01*
X3636729Y-9517817D02*
X3760539Y-9517817D01*
X3989110Y-9584484D02*
X3989110Y-9384484D01*
X4074825Y-9584484D02*
X4074825Y-9479722D01*
X4074825Y-9479722D02*
X4065301Y-9460674D01*
X4065301Y-9460674D02*
X4046253Y-9451150D01*
X4046253Y-9451150D02*
X4017682Y-9451150D01*
X4017682Y-9451150D02*
X3998634Y-9460674D01*
X3998634Y-9460674D02*
X3989110Y-9470198D01*
X4198634Y-9584484D02*
X4179587Y-9574960D01*
X4179587Y-9574960D02*
X4170063Y-9565436D01*
X4170063Y-9565436D02*
X4160539Y-9546389D01*
X4160539Y-9546389D02*
X4160539Y-9489246D01*
X4160539Y-9489246D02*
X4170063Y-9470198D01*
X4170063Y-9470198D02*
X4179587Y-9460674D01*
X4179587Y-9460674D02*
X4198634Y-9451150D01*
X4198634Y-9451150D02*
X4227206Y-9451150D01*
X4227206Y-9451150D02*
X4246253Y-9460674D01*
X4246253Y-9460674D02*
X4255777Y-9470198D01*
X4255777Y-9470198D02*
X4265301Y-9489246D01*
X4265301Y-9489246D02*
X4265301Y-9546389D01*
X4265301Y-9546389D02*
X4255777Y-9565436D01*
X4255777Y-9565436D02*
X4246253Y-9574960D01*
X4246253Y-9574960D02*
X4227206Y-9584484D01*
X4227206Y-9584484D02*
X4198634Y-9584484D01*
X4379587Y-9584484D02*
X4360539Y-9574960D01*
X4360539Y-9574960D02*
X4351015Y-9555912D01*
X4351015Y-9555912D02*
X4351015Y-9384484D01*
X4531968Y-9574960D02*
X4512920Y-9584484D01*
X4512920Y-9584484D02*
X4474825Y-9584484D01*
X4474825Y-9584484D02*
X4455777Y-9574960D01*
X4455777Y-9574960D02*
X4446253Y-9555912D01*
X4446253Y-9555912D02*
X4446253Y-9479722D01*
X4446253Y-9479722D02*
X4455777Y-9460674D01*
X4455777Y-9460674D02*
X4474825Y-9451150D01*
X4474825Y-9451150D02*
X4512920Y-9451150D01*
X4512920Y-9451150D02*
X4531968Y-9460674D01*
X4531968Y-9460674D02*
X4541492Y-9479722D01*
X4541492Y-9479722D02*
X4541492Y-9498770D01*
X4541492Y-9498770D02*
X4446253Y-9517817D01*
X4617682Y-9574960D02*
X4636730Y-9584484D01*
X4636730Y-9584484D02*
X4674825Y-9584484D01*
X4674825Y-9584484D02*
X4693873Y-9574960D01*
X4693873Y-9574960D02*
X4703396Y-9555912D01*
X4703396Y-9555912D02*
X4703396Y-9546389D01*
X4703396Y-9546389D02*
X4693873Y-9527341D01*
X4693873Y-9527341D02*
X4674825Y-9517817D01*
X4674825Y-9517817D02*
X4646253Y-9517817D01*
X4646253Y-9517817D02*
X4627206Y-9508293D01*
X4627206Y-9508293D02*
X4617682Y-9489246D01*
X4617682Y-9489246D02*
X4617682Y-9479722D01*
X4617682Y-9479722D02*
X4627206Y-9460674D01*
X4627206Y-9460674D02*
X4646253Y-9451150D01*
X4646253Y-9451150D02*
X4674825Y-9451150D01*
X4674825Y-9451150D02*
X4693873Y-9460674D01*
X4770063Y-9660674D02*
X4779587Y-9651150D01*
X4779587Y-9651150D02*
X4798634Y-9622579D01*
X4798634Y-9622579D02*
X4808158Y-9603531D01*
X4808158Y-9603531D02*
X4817682Y-9574960D01*
X4817682Y-9574960D02*
X4827206Y-9527341D01*
X4827206Y-9527341D02*
X4827206Y-9489246D01*
X4827206Y-9489246D02*
X4817682Y-9441627D01*
X4817682Y-9441627D02*
X4808158Y-9413055D01*
X4808158Y-9413055D02*
X4798634Y-9394008D01*
X4798634Y-9394008D02*
X4779587Y-9365436D01*
X4779587Y-9365436D02*
X4770063Y-9355912D01*
M02*
