%TF.GenerationSoftware,KiCad,Pcbnew,(6.0.10)*%
%TF.CreationDate,2023-01-09T17:37:14-08:00*%
%TF.ProjectId,ai-camera,61692d63-616d-4657-9261-2e6b69636164,rev?*%
%TF.SameCoordinates,PX5a995c0PY2aea540*%
%TF.FileFunction,Copper,L4,Bot*%
%TF.FilePolarity,Positive*%
%FSLAX46Y46*%
G04 Gerber Fmt 4.6, Leading zero omitted, Abs format (unit mm)*
G04 Created by KiCad (PCBNEW (6.0.10)) date 2023-01-09 17:37:14*
%MOMM*%
%LPD*%
G01*
G04 APERTURE LIST*
G04 Aperture macros list*
%AMRoundRect*
0 Rectangle with rounded corners*
0 $1 Rounding radius*
0 $2 $3 $4 $5 $6 $7 $8 $9 X,Y pos of 4 corners*
0 Add a 4 corners polygon primitive as box body*
4,1,4,$2,$3,$4,$5,$6,$7,$8,$9,$2,$3,0*
0 Add four circle primitives for the rounded corners*
1,1,$1+$1,$2,$3*
1,1,$1+$1,$4,$5*
1,1,$1+$1,$6,$7*
1,1,$1+$1,$8,$9*
0 Add four rect primitives between the rounded corners*
20,1,$1+$1,$2,$3,$4,$5,0*
20,1,$1+$1,$4,$5,$6,$7,0*
20,1,$1+$1,$6,$7,$8,$9,0*
20,1,$1+$1,$8,$9,$2,$3,0*%
%AMFreePoly0*
4,1,22,0.500000,-0.750000,0.000000,-0.750000,0.000000,-0.745033,-0.079941,-0.743568,-0.215256,-0.701293,-0.333266,-0.622738,-0.424486,-0.514219,-0.481581,-0.384460,-0.499164,-0.250000,-0.500000,-0.250000,-0.500000,0.250000,-0.499164,0.250000,-0.499963,0.256109,-0.478152,0.396186,-0.417904,0.524511,-0.324060,0.630769,-0.204165,0.706417,-0.067858,0.745374,0.000000,0.744959,0.000000,0.750000,
0.500000,0.750000,0.500000,-0.750000,0.500000,-0.750000,$1*%
%AMFreePoly1*
4,1,20,0.000000,0.744959,0.073905,0.744508,0.209726,0.703889,0.328688,0.626782,0.421226,0.519385,0.479903,0.390333,0.500000,0.250000,0.500000,-0.250000,0.499851,-0.262216,0.476331,-0.402017,0.414519,-0.529596,0.319384,-0.634700,0.198574,-0.708877,0.061801,-0.746166,0.000000,-0.745033,0.000000,-0.750000,-0.500000,-0.750000,-0.500000,0.750000,0.000000,0.750000,0.000000,0.744959,
0.000000,0.744959,$1*%
G04 Aperture macros list end*
%TA.AperFunction,ConnectorPad*%
%ADD10C,5.600000*%
%TD*%
%TA.AperFunction,ComponentPad*%
%ADD11C,3.600000*%
%TD*%
%TA.AperFunction,WasherPad*%
%ADD12C,4.000000*%
%TD*%
%TA.AperFunction,WasherPad*%
%ADD13C,1.700000*%
%TD*%
%TA.AperFunction,ComponentPad*%
%ADD14C,1.700000*%
%TD*%
%TA.AperFunction,ComponentPad*%
%ADD15C,1.440000*%
%TD*%
%TA.AperFunction,ComponentPad*%
%ADD16C,0.800000*%
%TD*%
%TA.AperFunction,ComponentPad*%
%ADD17O,1.550000X0.890000*%
%TD*%
%TA.AperFunction,ComponentPad*%
%ADD18O,0.950000X1.250000*%
%TD*%
%TA.AperFunction,ComponentPad*%
%ADD19R,1.700000X1.700000*%
%TD*%
%TA.AperFunction,ComponentPad*%
%ADD20O,1.700000X1.700000*%
%TD*%
%TA.AperFunction,ComponentPad*%
%ADD21R,1.524000X1.524000*%
%TD*%
%TA.AperFunction,ComponentPad*%
%ADD22C,1.524000*%
%TD*%
%TA.AperFunction,SMDPad,CuDef*%
%ADD23RoundRect,0.150000X-0.587500X-0.150000X0.587500X-0.150000X0.587500X0.150000X-0.587500X0.150000X0*%
%TD*%
%TA.AperFunction,SMDPad,CuDef*%
%ADD24RoundRect,0.250000X0.475000X-0.250000X0.475000X0.250000X-0.475000X0.250000X-0.475000X-0.250000X0*%
%TD*%
%TA.AperFunction,SMDPad,CuDef*%
%ADD25R,1.100000X3.700000*%
%TD*%
%TA.AperFunction,SMDPad,CuDef*%
%ADD26RoundRect,0.225000X0.250000X-0.225000X0.250000X0.225000X-0.250000X0.225000X-0.250000X-0.225000X0*%
%TD*%
%TA.AperFunction,SMDPad,CuDef*%
%ADD27RoundRect,0.140000X0.170000X-0.140000X0.170000X0.140000X-0.170000X0.140000X-0.170000X-0.140000X0*%
%TD*%
%TA.AperFunction,SMDPad,CuDef*%
%ADD28RoundRect,0.135000X0.185000X-0.135000X0.185000X0.135000X-0.185000X0.135000X-0.185000X-0.135000X0*%
%TD*%
%TA.AperFunction,SMDPad,CuDef*%
%ADD29RoundRect,0.135000X0.135000X0.185000X-0.135000X0.185000X-0.135000X-0.185000X0.135000X-0.185000X0*%
%TD*%
%TA.AperFunction,SMDPad,CuDef*%
%ADD30R,0.900000X1.500000*%
%TD*%
%TA.AperFunction,SMDPad,CuDef*%
%ADD31R,1.500000X0.900000*%
%TD*%
%TA.AperFunction,ComponentPad*%
%ADD32C,0.600000*%
%TD*%
%TA.AperFunction,SMDPad,CuDef*%
%ADD33R,3.900000X3.900000*%
%TD*%
%TA.AperFunction,SMDPad,CuDef*%
%ADD34RoundRect,0.140000X0.140000X0.170000X-0.140000X0.170000X-0.140000X-0.170000X0.140000X-0.170000X0*%
%TD*%
%TA.AperFunction,SMDPad,CuDef*%
%ADD35R,1.800000X1.000000*%
%TD*%
%TA.AperFunction,SMDPad,CuDef*%
%ADD36RoundRect,0.225000X0.225000X0.250000X-0.225000X0.250000X-0.225000X-0.250000X0.225000X-0.250000X0*%
%TD*%
%TA.AperFunction,SMDPad,CuDef*%
%ADD37RoundRect,0.140000X-0.170000X0.140000X-0.170000X-0.140000X0.170000X-0.140000X0.170000X0.140000X0*%
%TD*%
%TA.AperFunction,SMDPad,CuDef*%
%ADD38R,0.900000X1.200000*%
%TD*%
%TA.AperFunction,SMDPad,CuDef*%
%ADD39RoundRect,0.135000X-0.135000X-0.185000X0.135000X-0.185000X0.135000X0.185000X-0.135000X0.185000X0*%
%TD*%
%TA.AperFunction,SMDPad,CuDef*%
%ADD40RoundRect,0.250000X0.250000X0.475000X-0.250000X0.475000X-0.250000X-0.475000X0.250000X-0.475000X0*%
%TD*%
%TA.AperFunction,SMDPad,CuDef*%
%ADD41RoundRect,0.135000X-0.185000X0.135000X-0.185000X-0.135000X0.185000X-0.135000X0.185000X0.135000X0*%
%TD*%
%TA.AperFunction,SMDPad,CuDef*%
%ADD42R,3.700000X1.100000*%
%TD*%
%TA.AperFunction,SMDPad,CuDef*%
%ADD43RoundRect,0.150000X-0.150000X0.587500X-0.150000X-0.587500X0.150000X-0.587500X0.150000X0.587500X0*%
%TD*%
%TA.AperFunction,SMDPad,CuDef*%
%ADD44RoundRect,0.140000X-0.140000X-0.170000X0.140000X-0.170000X0.140000X0.170000X-0.140000X0.170000X0*%
%TD*%
%TA.AperFunction,SMDPad,CuDef*%
%ADD45FreePoly0,270.000000*%
%TD*%
%TA.AperFunction,SMDPad,CuDef*%
%ADD46FreePoly1,270.000000*%
%TD*%
%TA.AperFunction,SMDPad,CuDef*%
%ADD47RoundRect,0.150000X0.150000X-0.587500X0.150000X0.587500X-0.150000X0.587500X-0.150000X-0.587500X0*%
%TD*%
%TA.AperFunction,SMDPad,CuDef*%
%ADD48FreePoly0,180.000000*%
%TD*%
%TA.AperFunction,SMDPad,CuDef*%
%ADD49FreePoly1,180.000000*%
%TD*%
%TA.AperFunction,SMDPad,CuDef*%
%ADD50RoundRect,0.150000X0.825000X0.150000X-0.825000X0.150000X-0.825000X-0.150000X0.825000X-0.150000X0*%
%TD*%
%TA.AperFunction,SMDPad,CuDef*%
%ADD51RoundRect,0.150000X-0.150000X0.512500X-0.150000X-0.512500X0.150000X-0.512500X0.150000X0.512500X0*%
%TD*%
%TA.AperFunction,SMDPad,CuDef*%
%ADD52RoundRect,0.225000X-0.250000X0.225000X-0.250000X-0.225000X0.250000X-0.225000X0.250000X0.225000X0*%
%TD*%
%TA.AperFunction,SMDPad,CuDef*%
%ADD53R,1.200000X0.900000*%
%TD*%
%TA.AperFunction,SMDPad,CuDef*%
%ADD54RoundRect,0.225000X-0.225000X-0.250000X0.225000X-0.250000X0.225000X0.250000X-0.225000X0.250000X0*%
%TD*%
%TA.AperFunction,SMDPad,CuDef*%
%ADD55RoundRect,0.150000X0.512500X0.150000X-0.512500X0.150000X-0.512500X-0.150000X0.512500X-0.150000X0*%
%TD*%
%TA.AperFunction,SMDPad,CuDef*%
%ADD56RoundRect,0.250000X-0.250000X-0.475000X0.250000X-0.475000X0.250000X0.475000X-0.250000X0.475000X0*%
%TD*%
%TA.AperFunction,SMDPad,CuDef*%
%ADD57RoundRect,0.150000X-0.512500X-0.150000X0.512500X-0.150000X0.512500X0.150000X-0.512500X0.150000X0*%
%TD*%
%TA.AperFunction,SMDPad,CuDef*%
%ADD58RoundRect,0.250000X0.262500X0.450000X-0.262500X0.450000X-0.262500X-0.450000X0.262500X-0.450000X0*%
%TD*%
%TA.AperFunction,SMDPad,CuDef*%
%ADD59RoundRect,0.150000X0.150000X-0.512500X0.150000X0.512500X-0.150000X0.512500X-0.150000X-0.512500X0*%
%TD*%
%TA.AperFunction,ViaPad*%
%ADD60C,0.600000*%
%TD*%
%TA.AperFunction,Conductor*%
%ADD61C,0.500000*%
%TD*%
%TA.AperFunction,Conductor*%
%ADD62C,0.203200*%
%TD*%
%TA.AperFunction,Conductor*%
%ADD63C,0.127000*%
%TD*%
%TA.AperFunction,Conductor*%
%ADD64C,0.250000*%
%TD*%
%TA.AperFunction,Conductor*%
%ADD65C,0.200000*%
%TD*%
G04 APERTURE END LIST*
G36*
X11750000Y-43475000D02*
G01*
X11150000Y-43475000D01*
X11150000Y-42975000D01*
X11750000Y-42975000D01*
X11750000Y-43475000D01*
G37*
G36*
X18670000Y-23150000D02*
G01*
X18170000Y-23150000D01*
X18170000Y-22550000D01*
X18670000Y-22550000D01*
X18670000Y-23150000D01*
G37*
D10*
X5000000Y-65000000D03*
D11*
X5000000Y-65000000D03*
X5000000Y-5000000D03*
D10*
X5000000Y-5000000D03*
D12*
X24000000Y-22000000D03*
X46000000Y-22000000D03*
D13*
X26400000Y-7500000D03*
X33600000Y-7500000D03*
D14*
X32250000Y-5000000D03*
X27750000Y-5000000D03*
D15*
X14940000Y-22460000D03*
X12400000Y-25000000D03*
X14940000Y-27540000D03*
D13*
X44600000Y-7500000D03*
X37400000Y-7500000D03*
D14*
X43250000Y-5000000D03*
X38750000Y-5000000D03*
D16*
X15375000Y-34500000D03*
X16625000Y-34500000D03*
D17*
X1450000Y-36250000D03*
D18*
X4150000Y-42250000D03*
X4150000Y-37250000D03*
D17*
X1450000Y-43250000D03*
D15*
X6940000Y-22460000D03*
X4400000Y-25000000D03*
X6940000Y-27540000D03*
D11*
X65000000Y-5000000D03*
D10*
X65000000Y-5000000D03*
D19*
X56725000Y-10575000D03*
D20*
X59265000Y-10575000D03*
X56725000Y-13115000D03*
X59265000Y-13115000D03*
X56725000Y-15655000D03*
X59265000Y-15655000D03*
X56725000Y-18195000D03*
X59265000Y-18195000D03*
X56725000Y-20735000D03*
X59265000Y-20735000D03*
X56725000Y-23275000D03*
X59265000Y-23275000D03*
X56725000Y-25815000D03*
X59265000Y-25815000D03*
X56725000Y-28355000D03*
X59265000Y-28355000D03*
X56725000Y-30895000D03*
X59265000Y-30895000D03*
X56725000Y-33435000D03*
X59265000Y-33435000D03*
D11*
X65000000Y-65000000D03*
D10*
X65000000Y-65000000D03*
D21*
X11123152Y-16691848D03*
D22*
X12700000Y-15115000D03*
X12700000Y-12885000D03*
X8876848Y-11308152D03*
X7300000Y-12885000D03*
X7300000Y-15115000D03*
D23*
X18772500Y-20540000D03*
X18772500Y-18640000D03*
X20647500Y-19590000D03*
D24*
X8450000Y-54850000D03*
X8450000Y-52950000D03*
D25*
X25230000Y-45360000D03*
X28230000Y-45360000D03*
D26*
X41790000Y-36185000D03*
X41790000Y-34635000D03*
D27*
X50750000Y-60730000D03*
X50750000Y-59770000D03*
D28*
X23275000Y-43635000D03*
X23275000Y-42615000D03*
D29*
X17790000Y-54970000D03*
X16770000Y-54970000D03*
D30*
X61980000Y-54480000D03*
X60710000Y-54480000D03*
X59440000Y-54480000D03*
X58170000Y-54480000D03*
X56900000Y-54480000D03*
X55630000Y-54480000D03*
X54360000Y-54480000D03*
X53090000Y-54480000D03*
X51820000Y-54480000D03*
X50550000Y-54480000D03*
X49280000Y-54480000D03*
X48010000Y-54480000D03*
X46740000Y-54480000D03*
X45470000Y-54480000D03*
D31*
X44220000Y-52715000D03*
X44220000Y-51445000D03*
X44220000Y-50175000D03*
X44220000Y-48905000D03*
X44220000Y-47635000D03*
X44220000Y-46365000D03*
X44220000Y-45095000D03*
X44220000Y-43825000D03*
X44220000Y-42555000D03*
X44220000Y-41285000D03*
X44220000Y-40015000D03*
X44220000Y-38745000D03*
D30*
X45470000Y-36980000D03*
X46740000Y-36980000D03*
X48010000Y-36980000D03*
X49280000Y-36980000D03*
X50550000Y-36980000D03*
X51820000Y-36980000D03*
X53090000Y-36980000D03*
X54360000Y-36980000D03*
X55630000Y-36980000D03*
X56900000Y-36980000D03*
X58170000Y-36980000D03*
X59440000Y-36980000D03*
X60710000Y-36980000D03*
X61980000Y-36980000D03*
D32*
X54960000Y-47230000D03*
D33*
X54260000Y-47230000D03*
D32*
X54960000Y-48630000D03*
X54260000Y-47930000D03*
X54960000Y-45830000D03*
X52860000Y-47930000D03*
X55660000Y-47930000D03*
X52860000Y-46530000D03*
X54260000Y-46530000D03*
X53560000Y-45830000D03*
X53560000Y-47230000D03*
X55660000Y-46530000D03*
X53560000Y-48630000D03*
D34*
X10155000Y-30875000D03*
X9195000Y-30875000D03*
D35*
X59925000Y-62275000D03*
X59925000Y-59775000D03*
D36*
X18250000Y-30100000D03*
X16700000Y-30100000D03*
D37*
X46580000Y-25130000D03*
X46580000Y-26090000D03*
D38*
X9425000Y-45125000D03*
X6125000Y-45125000D03*
D39*
X9190000Y-29825000D03*
X10210000Y-29825000D03*
D36*
X13645000Y-2955000D03*
X12095000Y-2955000D03*
D40*
X17600000Y-31900000D03*
X15700000Y-31900000D03*
D37*
X61620000Y-56030000D03*
X61620000Y-56990000D03*
D26*
X29750000Y-66150000D03*
X29750000Y-64600000D03*
D23*
X13775000Y-39175000D03*
X13775000Y-37275000D03*
X15650000Y-38225000D03*
D27*
X10720000Y-10060000D03*
X10720000Y-9100000D03*
D28*
X12550000Y-50985000D03*
X12550000Y-49965000D03*
X50750000Y-64635000D03*
X50750000Y-63615000D03*
D37*
X34260000Y-61130000D03*
X34260000Y-62090000D03*
D26*
X29440000Y-61845000D03*
X29440000Y-60295000D03*
D41*
X45800000Y-60110000D03*
X45800000Y-61130000D03*
D34*
X16500000Y-8392500D03*
X15540000Y-8392500D03*
D42*
X41240000Y-33070000D03*
X41240000Y-30070000D03*
D41*
X13350000Y-21690000D03*
X13350000Y-22710000D03*
D43*
X31325000Y-63987500D03*
X33225000Y-63987500D03*
X32275000Y-65862500D03*
D41*
X8525000Y-21615000D03*
X8525000Y-22635000D03*
D29*
X16005000Y-3167500D03*
X14985000Y-3167500D03*
D44*
X18120000Y-45010000D03*
X19080000Y-45010000D03*
D45*
X11450000Y-42575000D03*
D46*
X11450000Y-43875000D03*
D39*
X18090000Y-43970000D03*
X19110000Y-43970000D03*
D24*
X39970000Y-36590000D03*
X39970000Y-34690000D03*
D28*
X17235000Y-20850000D03*
X17235000Y-19830000D03*
D37*
X15425000Y-29445000D03*
X15425000Y-30405000D03*
D47*
X14020000Y-6617500D03*
X12120000Y-6617500D03*
X13070000Y-4742500D03*
D37*
X62630000Y-56020000D03*
X62630000Y-56980000D03*
D29*
X19100000Y-42930000D03*
X18080000Y-42930000D03*
D48*
X19070000Y-22850000D03*
D49*
X17770000Y-22850000D03*
D50*
X57475000Y-59795000D03*
X57475000Y-61065000D03*
X57475000Y-62335000D03*
X57475000Y-63605000D03*
X52525000Y-63605000D03*
X52525000Y-62335000D03*
X52525000Y-61065000D03*
X52525000Y-59795000D03*
D51*
X44395000Y-30692500D03*
X45345000Y-30692500D03*
X46295000Y-30692500D03*
X46295000Y-32967500D03*
X45345000Y-32967500D03*
X44395000Y-32967500D03*
D52*
X46850000Y-27365000D03*
X46850000Y-28915000D03*
D51*
X15620000Y-4655000D03*
X16570000Y-4655000D03*
X17520000Y-4655000D03*
X17520000Y-6930000D03*
X16570000Y-6930000D03*
X15620000Y-6930000D03*
D39*
X16935000Y-3167500D03*
X17955000Y-3167500D03*
D38*
X9425000Y-42725000D03*
X6125000Y-42725000D03*
D23*
X47337500Y-62325000D03*
X47337500Y-60425000D03*
X49212500Y-61375000D03*
D41*
X12237500Y-40015000D03*
X12237500Y-41035000D03*
D28*
X11212500Y-41035000D03*
X11212500Y-40015000D03*
D53*
X44810000Y-25640000D03*
X44810000Y-28940000D03*
D54*
X61865000Y-58230000D03*
X63415000Y-58230000D03*
D28*
X46560000Y-35380000D03*
X46560000Y-34360000D03*
D41*
X45800000Y-63630000D03*
X45800000Y-64650000D03*
D26*
X60350000Y-57865000D03*
X60350000Y-56315000D03*
D54*
X12095000Y-8430000D03*
X13645000Y-8430000D03*
D37*
X54230000Y-34360000D03*
X54230000Y-35320000D03*
D55*
X22835000Y-44910000D03*
X22835000Y-45860000D03*
X22835000Y-46810000D03*
X20560000Y-46810000D03*
X20560000Y-44910000D03*
D52*
X48400000Y-27355000D03*
X48400000Y-28905000D03*
D39*
X13940000Y-50240000D03*
X14960000Y-50240000D03*
D40*
X24690000Y-48630000D03*
X22790000Y-48630000D03*
D56*
X18700000Y-48620000D03*
X20600000Y-48620000D03*
D26*
X24695000Y-66125000D03*
X24695000Y-64575000D03*
D34*
X10155000Y-31925000D03*
X9195000Y-31925000D03*
D57*
X11637500Y-31650000D03*
X11637500Y-30700000D03*
X11637500Y-29750000D03*
X13912500Y-29750000D03*
X13912500Y-30700000D03*
X13912500Y-31650000D03*
D41*
X50750000Y-61665000D03*
X50750000Y-62685000D03*
D37*
X33270000Y-61140000D03*
X33270000Y-62100000D03*
D38*
X16850000Y-44650000D03*
X13550000Y-44650000D03*
D56*
X61910000Y-60030000D03*
X63810000Y-60030000D03*
D28*
X11600000Y-51010000D03*
X11600000Y-49990000D03*
D39*
X13940000Y-49190000D03*
X14960000Y-49190000D03*
D52*
X10275000Y-49150000D03*
X10275000Y-50700000D03*
D26*
X31990000Y-61845000D03*
X31990000Y-60295000D03*
D41*
X17260000Y-16355000D03*
X17260000Y-17375000D03*
D26*
X11987500Y-38800000D03*
X11987500Y-37250000D03*
D40*
X24680000Y-50690000D03*
X22780000Y-50690000D03*
D52*
X34760000Y-63735000D03*
X34760000Y-65285000D03*
D58*
X20237500Y-40650000D03*
X18412500Y-40650000D03*
D43*
X26245000Y-63987500D03*
X28145000Y-63987500D03*
X27195000Y-65862500D03*
D37*
X30710000Y-61120000D03*
X30710000Y-62080000D03*
D23*
X47337500Y-65850000D03*
X47337500Y-63950000D03*
X49212500Y-64900000D03*
D59*
X12175000Y-54712500D03*
X11225000Y-54712500D03*
X10275000Y-54712500D03*
X10275000Y-52437500D03*
X11225000Y-52437500D03*
X12175000Y-52437500D03*
D23*
X18797500Y-17040000D03*
X18797500Y-15140000D03*
X20672500Y-16090000D03*
D27*
X44100000Y-35330000D03*
X44100000Y-34370000D03*
D39*
X16760000Y-53950000D03*
X17780000Y-53950000D03*
D23*
X13775000Y-42650000D03*
X13775000Y-40750000D03*
X15650000Y-41700000D03*
D60*
X16880000Y-49920000D03*
X11133195Y-51630663D03*
X14850000Y-52940000D03*
X13420000Y-54350000D03*
X9960000Y-47430000D03*
X13110000Y-49800000D03*
X13640000Y-46070000D03*
X11070000Y-56526500D03*
X27350000Y-26750000D03*
X34500000Y-59500000D03*
X15910000Y-55100000D03*
X16407500Y-3167500D03*
X61450000Y-35650000D03*
X46820000Y-44990000D03*
X9875000Y-6300000D03*
X64170000Y-58270000D03*
X22290000Y-43340000D03*
X49968517Y-48351483D03*
X20750000Y-51250000D03*
X29404162Y-64228100D03*
X44740000Y-35360000D03*
X48343931Y-44185097D03*
X20000000Y-51250000D03*
X36750000Y-59250000D03*
X8710000Y-30540000D03*
X46700000Y-51840000D03*
X33670000Y-65706998D03*
X63140000Y-10970000D03*
X17950000Y-67300000D03*
X23500000Y-14975000D03*
X52400000Y-7010000D03*
X21500000Y-43500000D03*
X7110000Y-41600000D03*
X31000000Y-41500000D03*
X41553500Y-37100000D03*
X41000000Y-63200000D03*
X27200000Y-53000000D03*
X61980000Y-52620000D03*
X29491767Y-62926137D03*
X58873501Y-40184986D03*
X8690000Y-31350000D03*
X38180000Y-12380000D03*
X34230000Y-60310000D03*
X18640000Y-14460000D03*
X47167739Y-46980000D03*
X31990001Y-59430001D03*
X30900000Y-28270000D03*
X65500000Y-12000000D03*
X13690000Y-9100000D03*
X30740000Y-60384672D03*
X52460000Y-35450000D03*
X29250000Y-39000000D03*
X31000000Y-47500000D03*
X26440000Y-51330000D03*
X52775000Y-64350000D03*
X49300000Y-50590000D03*
X50610000Y-11110000D03*
X20547039Y-43332961D03*
X15170397Y-29448819D03*
X48223500Y-26660000D03*
X18520000Y-32270000D03*
X31000000Y-44500000D03*
X60610000Y-35650000D03*
X39000000Y-41500000D03*
X61710000Y-34890000D03*
X63080000Y-57450000D03*
X59350000Y-63790735D03*
X51350000Y-44325000D03*
X45950000Y-35360000D03*
X31000000Y-50500000D03*
X61220000Y-57330000D03*
X25530000Y-49720000D03*
X47140000Y-25130000D03*
X13500000Y-65500000D03*
X49465000Y-52470000D03*
X31000000Y-53500000D03*
X55310000Y-5340000D03*
X56860000Y-40260000D03*
X23000000Y-38000000D03*
X14850000Y-6190000D03*
X45330000Y-29816502D03*
X52500000Y-66485000D03*
X39000000Y-53500000D03*
X31000000Y-38500000D03*
X35860000Y-63210000D03*
X9890000Y-9120000D03*
X42956500Y-37178949D03*
X39000000Y-44500000D03*
X17200000Y-66650000D03*
X19790000Y-18620000D03*
X8730000Y-29820000D03*
X8680000Y-29090000D03*
X39000000Y-47500000D03*
X64630000Y-33200000D03*
X50525000Y-50250000D03*
X21250000Y-41190000D03*
X24223500Y-5125000D03*
X38997694Y-38502130D03*
X17190000Y-21270000D03*
X15450000Y-67300000D03*
X29440000Y-59380000D03*
X55575000Y-62825000D03*
X15710000Y-8980000D03*
X20000000Y-50500000D03*
X41500000Y-62000000D03*
X62450000Y-53230000D03*
X12000000Y-61500000D03*
X55050000Y-7370000D03*
X13500000Y-61500000D03*
X12850000Y-35000000D03*
X65500000Y-19500000D03*
X20750000Y-50500000D03*
X39000000Y-50500000D03*
X19090000Y-30100000D03*
X36290000Y-29600000D03*
X44480000Y-26640000D03*
X32840000Y-58460000D03*
X24500000Y-42500000D03*
X10792309Y-28853500D03*
X60370000Y-58420000D03*
X64040000Y-25250000D03*
X39140000Y-63200000D03*
X5300000Y-41120000D03*
X13850000Y-3550000D03*
X30898688Y-64178100D03*
X20400000Y-35025000D03*
X53853500Y-33463759D03*
X38250000Y-59273497D03*
X8780000Y-51840000D03*
X57930000Y-66680000D03*
X11000000Y-64500000D03*
X31000000Y-35500000D03*
X22225000Y-33350000D03*
X17250000Y-15890000D03*
X39730000Y-13090000D03*
X20825000Y-32200000D03*
X15625000Y-48850000D03*
X10920000Y-30720000D03*
X49970000Y-59360000D03*
X61530000Y-53240000D03*
X24690000Y-63700000D03*
X16200000Y-66650000D03*
X64487498Y-60007498D03*
X15650000Y-50425000D03*
X57585000Y-38500000D03*
X40508609Y-59508609D03*
X22090935Y-4165781D03*
X50301500Y-22100000D03*
X39838983Y-37121017D03*
X63100000Y-17400000D03*
X20500000Y-66000000D03*
X26160000Y-62900000D03*
X50096500Y-13540000D03*
X12500000Y-41600000D03*
X29250000Y-41500000D03*
X59598237Y-40846180D03*
X68000000Y-67000000D03*
X69000000Y-65000000D03*
X42000000Y-69000000D03*
X69000000Y-56000000D03*
X1000000Y-11000000D03*
X44000000Y-1000000D03*
X59000000Y-1000000D03*
X6000000Y-50000000D03*
X6000000Y-56000000D03*
X69000000Y-5000000D03*
X48000000Y-69000000D03*
X62000000Y-1000000D03*
X56000000Y-1000000D03*
X1000000Y-62000000D03*
X51000000Y-69000000D03*
X6000000Y-69000000D03*
X69000000Y-29000000D03*
X69000000Y-20000000D03*
X8000000Y-1000000D03*
X2500000Y-68000000D03*
X26000000Y-1000000D03*
X12000000Y-69000000D03*
X36000000Y-69000000D03*
X2000000Y-45000000D03*
X53000000Y-1000000D03*
X60000000Y-69000000D03*
X27000000Y-69000000D03*
X32000000Y-1000000D03*
X65000000Y-1000000D03*
X69000000Y-32000000D03*
X14000000Y-1000000D03*
X1000000Y-26000000D03*
X69000000Y-59000000D03*
X69000000Y-17000000D03*
X9000000Y-69000000D03*
X69000000Y-23000000D03*
X3000000Y-60000000D03*
X41000000Y-1000000D03*
X1000000Y-29000000D03*
X69000000Y-26000000D03*
X2500000Y-2500000D03*
X15000000Y-69000000D03*
X66000000Y-69000000D03*
X67500000Y-2500000D03*
X45000000Y-69000000D03*
X5000000Y-47000000D03*
X69000000Y-11000000D03*
X69000000Y-14000000D03*
X57000000Y-69000000D03*
X1000000Y-17000000D03*
X6000000Y-53000000D03*
X1000000Y-23000000D03*
X1000000Y-32000000D03*
X38000000Y-1000000D03*
X21000000Y-69000000D03*
X33000000Y-69000000D03*
X39000000Y-69000000D03*
X18000000Y-69000000D03*
X69000000Y-8000000D03*
X20000000Y-1000000D03*
X24000000Y-69000000D03*
X69000000Y-62000000D03*
X1000000Y-5000000D03*
X47000000Y-1000000D03*
X1000000Y-8000000D03*
X54000000Y-69000000D03*
X69000000Y-35000000D03*
X11000000Y-1000000D03*
X29000000Y-1000000D03*
X17000000Y-1000000D03*
X5000000Y-1000000D03*
X30000000Y-69000000D03*
X1000000Y-14000000D03*
X23000000Y-1000000D03*
X1000000Y-20000000D03*
X1000000Y-65000000D03*
X63000000Y-69000000D03*
X35000000Y-1000000D03*
X50000000Y-1000000D03*
X39720000Y-12360000D03*
X38950000Y-12450000D03*
X18500000Y-47000000D03*
X7980000Y-25520000D03*
X10664854Y-6589854D03*
X10152354Y-7102354D03*
X10350000Y-35950000D03*
X16500000Y-10300000D03*
X18000000Y-45500000D03*
X21350000Y-33875000D03*
X28000000Y-51000000D03*
X22175000Y-35075000D03*
X61048292Y-55617256D03*
X23040000Y-6530000D03*
X54200000Y-3590000D03*
X26000000Y-50500000D03*
X54860000Y-3600000D03*
X23050000Y-7260000D03*
X19575000Y-32200000D03*
X56270000Y-7370000D03*
X28000000Y-50000000D03*
X20125000Y-32725000D03*
X34260000Y-62990000D03*
X62100000Y-61150000D03*
X60500000Y-52000000D03*
X45500000Y-37000000D03*
X25500000Y-42500000D03*
X65500000Y-18500000D03*
X23000000Y-38771900D03*
X14500000Y-62000000D03*
X59480000Y-54410000D03*
X20403517Y-66903517D03*
X51500000Y-66485000D03*
X65500000Y-11000000D03*
X50301500Y-21230000D03*
X53240000Y-34760000D03*
X30749999Y-62743728D03*
X28120000Y-62840000D03*
X32150000Y-64090000D03*
X33340000Y-60433500D03*
X38250000Y-58500000D03*
X7500000Y-33500000D03*
X7500000Y-34500000D03*
X6500000Y-33500000D03*
X6940000Y-44430000D03*
X29180000Y-39865000D03*
X29180000Y-40715000D03*
X13500000Y-58500000D03*
X13500000Y-64500000D03*
X58446490Y-39395027D03*
X56858497Y-38500000D03*
X12000000Y-58500000D03*
X11000000Y-63500000D03*
X41500000Y-61250000D03*
X40250000Y-63200000D03*
X41250000Y-59500000D03*
X38260000Y-63200000D03*
X38250000Y-60500000D03*
X36750000Y-60500000D03*
X35750000Y-58750000D03*
X35250000Y-60500000D03*
X46230303Y-47112662D03*
X49070000Y-44160000D03*
X48348630Y-51743812D03*
X48450000Y-49930000D03*
X49830000Y-49330000D03*
X42920000Y-52070000D03*
X46760000Y-52640000D03*
X46990000Y-59360000D03*
X31280000Y-58390000D03*
X61500000Y-38690000D03*
X40550000Y-55080000D03*
X47411483Y-65081483D03*
X39430000Y-54330000D03*
X29580000Y-58150000D03*
X46190000Y-38763500D03*
X42430000Y-45170000D03*
X54540000Y-5170000D03*
X53530000Y-7270000D03*
X45433517Y-26986483D03*
X45350000Y-34090000D03*
X36280000Y-30570000D03*
X20260000Y-39120000D03*
X49325000Y-63825000D03*
X51850000Y-62325000D03*
X52075000Y-64650000D03*
X49175000Y-65525000D03*
X22140000Y-19772599D03*
X30200000Y-49000000D03*
X55600000Y-61800000D03*
X39600000Y-49400000D03*
X39800000Y-52400000D03*
X42040000Y-43860000D03*
X26400000Y-52400000D03*
X57000000Y-66620000D03*
X18020000Y-55640000D03*
X59775000Y-39450000D03*
X40280000Y-38280000D03*
X45580000Y-41800000D03*
X50750000Y-43450000D03*
X45550000Y-40090000D03*
X27360000Y-25840000D03*
X30090000Y-28340000D03*
X46540000Y-32640000D03*
X24175000Y-44950000D03*
D61*
X10275000Y-54712500D02*
X10275000Y-54254709D01*
X10856709Y-53673000D02*
X14117000Y-53673000D01*
X10275000Y-54254709D02*
X10856709Y-53673000D01*
X14117000Y-53673000D02*
X14850000Y-52940000D01*
D62*
X6220000Y-45150000D02*
X6940000Y-44430000D01*
D63*
X11600000Y-48110000D02*
X13640000Y-46070000D01*
X11600000Y-49990000D02*
X11600000Y-48110000D01*
X11133195Y-51630663D02*
X11133195Y-52345695D01*
X13420000Y-54350000D02*
X12537500Y-54350000D01*
X12537500Y-54350000D02*
X12175000Y-54712500D01*
D61*
X10275000Y-49150000D02*
X10275000Y-47745000D01*
X10275000Y-47745000D02*
X9960000Y-47430000D01*
D63*
X13110000Y-49800000D02*
X12715000Y-49800000D01*
D61*
X11225000Y-55625000D02*
X11225000Y-56371500D01*
X11225000Y-56371500D02*
X11070000Y-56526500D01*
X11225000Y-54712500D02*
X11225000Y-55170291D01*
X11225000Y-55170291D02*
X11806709Y-55752000D01*
X11806709Y-55752000D02*
X15258000Y-55752000D01*
X15258000Y-55752000D02*
X15910000Y-55100000D01*
D64*
X18797500Y-15140000D02*
X18797500Y-14617500D01*
D61*
X19829077Y-42615000D02*
X19447077Y-42233000D01*
X64464996Y-60030000D02*
X64487498Y-60007498D01*
X60350000Y-57865000D02*
X60350000Y-58400000D01*
X61980000Y-36980000D02*
X61980000Y-35160000D01*
D63*
X15465000Y-50240000D02*
X15650000Y-50425000D01*
D61*
X18250000Y-30100000D02*
X19090000Y-30100000D01*
X63810000Y-60030000D02*
X64464996Y-60030000D01*
X21795500Y-44581423D02*
X21795500Y-47635500D01*
D64*
X16407500Y-3167500D02*
X16935000Y-3167500D01*
D61*
X61980000Y-35730000D02*
X61900000Y-35650000D01*
X23275000Y-42615000D02*
X19829077Y-42615000D01*
D64*
X50750000Y-59770000D02*
X50380000Y-59770000D01*
D63*
X12237500Y-41337500D02*
X12500000Y-41600000D01*
D64*
X15174216Y-29445000D02*
X15170397Y-29448819D01*
X30710000Y-60414672D02*
X30740000Y-60384672D01*
X13690000Y-8475000D02*
X13690000Y-9100000D01*
X13645000Y-3345000D02*
X13850000Y-3550000D01*
X17260000Y-15900000D02*
X17250000Y-15890000D01*
X11637500Y-30700000D02*
X10940000Y-30700000D01*
X62630000Y-57000000D02*
X63080000Y-57450000D01*
D61*
X21795500Y-46441709D02*
X22377209Y-45860000D01*
X39970000Y-36990000D02*
X39838983Y-37121017D01*
D64*
X31325000Y-63987500D02*
X31089288Y-63987500D01*
X17235000Y-20850000D02*
X17235000Y-21225000D01*
X9195000Y-30875000D02*
X9195000Y-31925000D01*
D63*
X12237500Y-41035000D02*
X12237500Y-41337500D01*
X45970000Y-35380000D02*
X45950000Y-35360000D01*
D64*
X14020000Y-6617500D02*
X14422500Y-6617500D01*
X17260000Y-16355000D02*
X17260000Y-15900000D01*
X16570000Y-4655000D02*
X16570000Y-3330000D01*
X17235000Y-21225000D02*
X17190000Y-21270000D01*
D61*
X8450000Y-52950000D02*
X8450000Y-52170000D01*
D64*
X9190000Y-29600000D02*
X8680000Y-29090000D01*
D61*
X61980000Y-36180000D02*
X61450000Y-35650000D01*
X60350000Y-58400000D02*
X60370000Y-58420000D01*
X41790000Y-36185000D02*
X41790000Y-36863500D01*
X22377209Y-45860000D02*
X22835000Y-45860000D01*
D64*
X9195000Y-31855000D02*
X8690000Y-31350000D01*
D61*
X61980000Y-54480000D02*
X61980000Y-53690000D01*
X61980000Y-53700000D02*
X62450000Y-53230000D01*
D64*
X58274265Y-63605000D02*
X58460000Y-63790735D01*
D61*
X21795500Y-47635500D02*
X21795500Y-46441709D01*
D64*
X9045000Y-30875000D02*
X8710000Y-30540000D01*
D63*
X45345000Y-30692500D02*
X45345000Y-29831502D01*
D64*
X24695000Y-63705000D02*
X24690000Y-63700000D01*
X58460000Y-63790735D02*
X59350000Y-63790735D01*
X31990000Y-60295000D02*
X31990001Y-59430001D01*
D61*
X61980000Y-36980000D02*
X61980000Y-36180000D01*
X61980000Y-36980000D02*
X61980000Y-35730000D01*
X39970000Y-36590000D02*
X39970000Y-36990000D01*
X64130000Y-58230000D02*
X64170000Y-58270000D01*
D64*
X10940000Y-30700000D02*
X10920000Y-30720000D01*
D61*
X18752923Y-42233000D02*
X19447077Y-42233000D01*
D64*
X18797500Y-14617500D02*
X18640000Y-14460000D01*
D61*
X41790000Y-36863500D02*
X41553500Y-37100000D01*
D64*
X14422500Y-6617500D02*
X14850000Y-6190000D01*
D61*
X20237500Y-40650000D02*
X20710000Y-40650000D01*
X20710000Y-40650000D02*
X21250000Y-41190000D01*
D64*
X34260000Y-61130000D02*
X33280000Y-61130000D01*
X50380000Y-59770000D02*
X49970000Y-59360000D01*
D61*
X61980000Y-54480000D02*
X61980000Y-52620000D01*
D64*
X34260000Y-60340000D02*
X34230000Y-60310000D01*
D63*
X44710000Y-35330000D02*
X44740000Y-35360000D01*
D61*
X61980000Y-54480000D02*
X61980000Y-53700000D01*
D64*
X34760000Y-65285000D02*
X34338002Y-65706998D01*
X26245000Y-62985000D02*
X26160000Y-62900000D01*
X18772500Y-18640000D02*
X19770000Y-18640000D01*
D63*
X54230000Y-33840259D02*
X53853500Y-33463759D01*
D64*
X29440000Y-60295000D02*
X29440000Y-59380000D01*
D61*
X16770000Y-54970000D02*
X16040000Y-54970000D01*
D63*
X48400000Y-27355000D02*
X48400000Y-26836500D01*
D64*
X9910000Y-9100000D02*
X9890000Y-9120000D01*
X34338002Y-65706998D02*
X33670000Y-65706998D01*
D63*
X44100000Y-35330000D02*
X44710000Y-35330000D01*
D61*
X61980000Y-53690000D02*
X61530000Y-53240000D01*
D64*
X16005000Y-3167500D02*
X16407500Y-3167500D01*
X15425000Y-29445000D02*
X15174216Y-29445000D01*
D63*
X45345000Y-29831502D02*
X45330000Y-29816502D01*
D64*
X61560000Y-56990000D02*
X61220000Y-57330000D01*
D63*
X48400000Y-26836500D02*
X48223500Y-26660000D01*
D61*
X16040000Y-54970000D02*
X15910000Y-55100000D01*
X17600000Y-31900000D02*
X18150000Y-31900000D01*
D64*
X30710000Y-61120000D02*
X30710000Y-60414672D01*
D61*
X19447077Y-42233000D02*
X21795500Y-44581423D01*
D64*
X15540000Y-8392500D02*
X15540000Y-8810000D01*
X31089288Y-63987500D02*
X30898688Y-64178100D01*
X8735000Y-29825000D02*
X8730000Y-29820000D01*
D63*
X46580000Y-25130000D02*
X47140000Y-25130000D01*
D64*
X13645000Y-2955000D02*
X13645000Y-3345000D01*
X9190000Y-29825000D02*
X9190000Y-29600000D01*
D63*
X46560000Y-35380000D02*
X45970000Y-35380000D01*
D61*
X61900000Y-35650000D02*
X60610000Y-35650000D01*
D64*
X29750000Y-64573938D02*
X29404162Y-64228100D01*
D61*
X18150000Y-31900000D02*
X18520000Y-32270000D01*
X18080000Y-42905923D02*
X18752923Y-42233000D01*
D64*
X9190000Y-29825000D02*
X9190000Y-30870000D01*
D63*
X14960000Y-49190000D02*
X15285000Y-49190000D01*
D61*
X61980000Y-35160000D02*
X61710000Y-34890000D01*
D64*
X15590000Y-6930000D02*
X14850000Y-6190000D01*
X9190000Y-29825000D02*
X8735000Y-29825000D01*
D63*
X14960000Y-50240000D02*
X15465000Y-50240000D01*
D64*
X19770000Y-18640000D02*
X19790000Y-18620000D01*
X16570000Y-3330000D02*
X16407500Y-3167500D01*
D61*
X11225000Y-54712500D02*
X11225000Y-55625000D01*
D63*
X15285000Y-49190000D02*
X15625000Y-48850000D01*
D64*
X10720000Y-9100000D02*
X9910000Y-9100000D01*
D61*
X63415000Y-58230000D02*
X64130000Y-58230000D01*
D64*
X34260000Y-61130000D02*
X34260000Y-60340000D01*
D61*
X8450000Y-52170000D02*
X8780000Y-51840000D01*
D64*
X26245000Y-63987500D02*
X26245000Y-62985000D01*
X15540000Y-8810000D02*
X15710000Y-8980000D01*
D63*
X54230000Y-34360000D02*
X54230000Y-33840259D01*
D61*
X22790000Y-48630000D02*
X21795500Y-47635500D01*
D64*
X24695000Y-64575000D02*
X24695000Y-63705000D01*
D61*
X39040000Y-12360000D02*
X41130000Y-12360000D01*
X18980000Y-48900000D02*
X18980000Y-61736357D01*
X47092000Y-31928000D02*
X44976709Y-31928000D01*
X58500000Y-8500000D02*
X52725000Y-8500000D01*
X50831148Y-60730000D02*
X50750000Y-60730000D01*
X50053000Y-62337923D02*
X50053000Y-64053000D01*
X38950000Y-12450000D02*
X39040000Y-12360000D01*
X50750000Y-60730000D02*
X50750000Y-61665000D01*
X12921362Y-35971499D02*
X12649863Y-35700000D01*
X24253642Y-67009999D02*
X35277364Y-67009999D01*
X46630000Y-12360000D02*
X41170000Y-12360000D01*
X52725000Y-8500000D02*
X50490000Y-8500000D01*
X59265000Y-10575000D02*
X59265000Y-9265000D01*
X49976500Y-65830216D02*
X49976500Y-65618791D01*
X7875000Y-28775000D02*
X8500000Y-28150000D01*
X51160000Y-27860000D02*
X47092000Y-31928000D01*
X49976500Y-65618791D02*
X50750000Y-64845291D01*
X51160000Y-20730000D02*
X51160000Y-27860000D01*
X8500000Y-28150000D02*
X8500000Y-26000000D01*
X16764500Y-39214500D02*
X16764500Y-37856709D01*
X49279716Y-66527000D02*
X49976500Y-65830216D01*
X14879290Y-35971499D02*
X12921362Y-35971499D01*
X18700000Y-48620000D02*
X18980000Y-48900000D01*
X52525000Y-59795000D02*
X51766148Y-59795000D01*
X50053000Y-64053000D02*
X50635000Y-64635000D01*
X44395000Y-32509709D02*
X44395000Y-32967500D01*
X51160000Y-20730000D02*
X52725000Y-19165000D01*
X45640288Y-66527000D02*
X49279716Y-66527000D01*
X50725923Y-61665000D02*
X50053000Y-62337923D01*
X7875000Y-32484230D02*
X7875000Y-28775000D01*
X16300000Y-41700000D02*
X17000000Y-41000000D01*
X41170000Y-12360000D02*
X39720000Y-12360000D01*
X52725000Y-19165000D02*
X52725000Y-8500000D01*
X44976709Y-31928000D02*
X44395000Y-32509709D01*
X13070000Y-4070000D02*
X13070000Y-4742500D01*
X13070000Y-4742500D02*
X12153705Y-4742500D01*
X15650000Y-41700000D02*
X16300000Y-41700000D01*
X17000000Y-41000000D02*
X17000000Y-39450000D01*
X10989999Y-6264709D02*
X10664854Y-6589854D01*
X12153705Y-4742500D02*
X10989999Y-5906206D01*
X12095000Y-3095000D02*
X13070000Y-4070000D01*
X18980000Y-61736357D02*
X24253642Y-67009999D01*
X35277364Y-67009999D02*
X35862363Y-66425000D01*
X45538288Y-66425000D02*
X45640288Y-66527000D01*
X51766148Y-59795000D02*
X50831148Y-60730000D01*
X10152354Y-7102354D02*
X10664854Y-6589854D01*
X17000000Y-39450000D02*
X16764500Y-39214500D01*
X16764500Y-37856709D02*
X14879290Y-35971499D01*
X59265000Y-9265000D02*
X58500000Y-8500000D01*
X50490000Y-8500000D02*
X46630000Y-12360000D01*
X50635000Y-64635000D02*
X50750000Y-64635000D01*
X10989999Y-5906206D02*
X10989999Y-6264709D01*
X35862363Y-66425000D02*
X45538288Y-66425000D01*
X50750000Y-64845291D02*
X50750000Y-64635000D01*
X12649863Y-35700000D02*
X11090770Y-35700000D01*
X11090770Y-35700000D02*
X7875000Y-32484230D01*
X41130000Y-12360000D02*
X41170000Y-12360000D01*
X8500000Y-26000000D02*
X8022000Y-25522000D01*
X7348000Y-52385288D02*
X7900000Y-51833288D01*
X7900000Y-51833288D02*
X7900000Y-40011143D01*
X10350000Y-35950000D02*
X10480571Y-36080571D01*
X14581497Y-36598000D02*
X15650000Y-37666503D01*
X12661857Y-36598000D02*
X14581497Y-36598000D01*
X8450000Y-54850000D02*
X7348000Y-53748000D01*
X7900000Y-40011143D02*
X10480571Y-37430571D01*
X15650000Y-37666503D02*
X15650000Y-38225000D01*
X12486857Y-36423000D02*
X12661857Y-36598000D01*
X10480571Y-36662006D02*
X10719577Y-36423000D01*
X10719577Y-36423000D02*
X12486857Y-36423000D01*
X7348000Y-53748000D02*
X7348000Y-52385288D01*
X10480571Y-37430571D02*
X10480571Y-36662006D01*
X10480571Y-36080571D02*
X10480571Y-37430571D01*
D63*
X15999500Y-7892000D02*
X16500000Y-8392500D01*
X10720000Y-10060000D02*
X9940000Y-10060000D01*
X12095000Y-9105000D02*
X11140000Y-10060000D01*
X12095000Y-8430000D02*
X12095000Y-6642500D01*
X15310460Y-7764500D02*
X15437960Y-7892000D01*
X16350000Y-8542500D02*
X16350000Y-10150000D01*
X12095000Y-8430000D02*
X12095000Y-9105000D01*
X11140000Y-10060000D02*
X10720000Y-10060000D01*
X9940000Y-10060000D02*
X8876848Y-11123152D01*
X16350000Y-10150000D02*
X16500000Y-10300000D01*
X12760500Y-7764500D02*
X15310460Y-7764500D01*
X16570000Y-7124040D02*
X15911040Y-7783000D01*
X8876848Y-21263152D02*
X8876848Y-11308152D01*
X15437960Y-7892000D02*
X15999500Y-7892000D01*
X15328960Y-7783000D02*
X15310460Y-7764500D01*
X15911040Y-7783000D02*
X15328960Y-7783000D01*
X12095000Y-8430000D02*
X12760500Y-7764500D01*
X8525000Y-21615000D02*
X8876848Y-21263152D01*
X13350000Y-21690000D02*
X8600000Y-21690000D01*
D61*
X24500000Y-39500000D02*
X24500000Y-38000000D01*
X34260000Y-63235000D02*
X34760000Y-63735000D01*
X62132000Y-61132000D02*
X61910000Y-60910000D01*
X60710000Y-52210000D02*
X60500000Y-52000000D01*
X54200000Y-3590000D02*
X54890000Y-3590000D01*
X18451500Y-33323500D02*
X19075000Y-32700000D01*
X36078000Y-65323357D02*
X36078000Y-65103000D01*
X46675000Y-62325000D02*
X47337500Y-62325000D01*
X45850000Y-65850000D02*
X47337500Y-65850000D01*
X61461036Y-56030000D02*
X61048292Y-55617256D01*
X28230000Y-45360000D02*
X28230000Y-43230000D01*
X32275000Y-65862500D02*
X32795998Y-66383498D01*
X45800000Y-63200000D02*
X46675000Y-62325000D01*
X19575000Y-32325000D02*
X19575000Y-32200000D01*
X45235923Y-65130000D02*
X45955923Y-65850000D01*
X60710000Y-54480000D02*
X60710000Y-52210000D01*
X15425000Y-31625000D02*
X15700000Y-31900000D01*
X61620000Y-56030000D02*
X61461036Y-56030000D01*
X24680000Y-50690000D02*
X24680000Y-51636716D01*
X19075000Y-32700000D02*
X19575000Y-32200000D01*
X45955923Y-65850000D02*
X47337500Y-65850000D01*
X32795998Y-66383498D02*
X35017859Y-66383498D01*
X23040000Y-5920000D02*
X23040000Y-5030000D01*
X24680000Y-51636716D02*
X27195000Y-54151716D01*
X15950216Y-30176500D02*
X15653500Y-30176500D01*
X16070216Y-30146500D02*
X15980216Y-30146500D01*
X45775923Y-63630000D02*
X45103000Y-64302923D01*
X45950923Y-62325000D02*
X45103000Y-61477077D01*
D62*
X18120000Y-45380000D02*
X18000000Y-45500000D01*
D61*
X34260000Y-62090000D02*
X34260000Y-63235000D01*
X45103000Y-61477077D02*
X45103000Y-60782923D01*
X23040000Y-5920000D02*
X23040000Y-6530000D01*
X18120000Y-44000000D02*
X18090000Y-43970000D01*
X24480000Y-3590000D02*
X54200000Y-3590000D01*
X15980216Y-30146500D02*
X15950216Y-30176500D01*
X45103000Y-64302923D02*
X45103000Y-65103000D01*
X56270000Y-4970000D02*
X56270000Y-7370000D01*
X36078000Y-65103000D02*
X34760000Y-63785000D01*
X15700000Y-31900000D02*
X17123500Y-33323500D01*
X61910000Y-60030000D02*
X61910000Y-58275000D01*
X24957500Y-65862500D02*
X24695000Y-66125000D01*
X23640000Y-6780000D02*
X23640000Y-6520000D01*
X17123500Y-33323500D02*
X18451500Y-33323500D01*
X16700000Y-30100000D02*
X16116716Y-30100000D01*
X45103000Y-65103000D02*
X45850000Y-65850000D01*
X27195000Y-65862500D02*
X24957500Y-65862500D01*
X27195000Y-54151716D02*
X27195000Y-65862500D01*
X29750000Y-66150000D02*
X27482500Y-66150000D01*
X47337500Y-62325000D02*
X45950923Y-62325000D01*
X15130000Y-30700000D02*
X15425000Y-30405000D01*
X21350000Y-33875000D02*
X22150000Y-34675000D01*
X15653500Y-30176500D02*
X15425000Y-30405000D01*
X30037500Y-65862500D02*
X29750000Y-66150000D01*
X13912500Y-30700000D02*
X15130000Y-30700000D01*
X23050000Y-7260000D02*
X23160000Y-7260000D01*
X28230000Y-43230000D02*
X24500000Y-39500000D01*
X23160000Y-7260000D02*
X23640000Y-6780000D01*
X22150000Y-35650000D02*
X22150000Y-34675000D01*
X35017859Y-66383498D02*
X36078000Y-65323357D01*
X60710000Y-55120000D02*
X60710000Y-54480000D01*
X45103000Y-60782923D02*
X45775923Y-60110000D01*
X23640000Y-6520000D02*
X23040000Y-5920000D01*
X18120000Y-45010000D02*
X18120000Y-44000000D01*
X61910000Y-60910000D02*
X61910000Y-60030000D01*
X24500000Y-38000000D02*
X22150000Y-35650000D01*
X16116716Y-30100000D02*
X16070216Y-30146500D01*
X54890000Y-3590000D02*
X56270000Y-4970000D01*
X27482500Y-66150000D02*
X27195000Y-65862500D01*
D62*
X26000000Y-50500000D02*
X24870000Y-50500000D01*
D61*
X20125000Y-32725000D02*
X19100000Y-32725000D01*
X45800000Y-63630000D02*
X45800000Y-63200000D01*
X15425000Y-30405000D02*
X15425000Y-31625000D01*
D62*
X18120000Y-45010000D02*
X18120000Y-45380000D01*
D61*
X61620000Y-56030000D02*
X60710000Y-55120000D01*
X45103000Y-65103000D02*
X36078000Y-65103000D01*
X23040000Y-5030000D02*
X24480000Y-3590000D01*
X19100000Y-32725000D02*
X19075000Y-32700000D01*
X32275000Y-65862500D02*
X30037500Y-65862500D01*
D63*
X23000000Y-40000000D02*
X23000000Y-38771900D01*
X53510000Y-30070000D02*
X52086501Y-31493499D01*
X25500000Y-42500000D02*
X23000000Y-40000000D01*
X46152965Y-35850000D02*
X46152965Y-35997035D01*
X63695500Y-16695500D02*
X65500000Y-18500000D01*
X46162465Y-35840500D02*
X46152965Y-35850000D01*
X51506501Y-31493499D02*
X47159500Y-35840500D01*
X53510000Y-18870000D02*
X53510000Y-30070000D01*
X57765500Y-16695500D02*
X63695500Y-16695500D01*
X56725000Y-15655000D02*
X53510000Y-18870000D01*
X47159500Y-35840500D02*
X46162465Y-35840500D01*
X52086501Y-31493499D02*
X51506501Y-31493499D01*
X46152965Y-35997035D02*
X45470000Y-36680000D01*
X56725000Y-15655000D02*
X57765500Y-16695500D01*
X59440000Y-50060000D02*
X62620500Y-46879500D01*
X59440000Y-54480000D02*
X59440000Y-50060000D01*
X64425500Y-12074500D02*
X65500000Y-11000000D01*
X62620500Y-31724500D02*
X63860000Y-30485000D01*
X66000000Y-11500000D02*
X65500000Y-11000000D01*
X60350000Y-56315000D02*
X59440000Y-55405000D01*
X58185000Y-56315000D02*
X54600000Y-59900000D01*
X60350000Y-56315000D02*
X58185000Y-56315000D01*
X59440000Y-55405000D02*
X59440000Y-54480000D01*
X63860000Y-30485000D02*
X63860000Y-30120000D01*
X57765500Y-12074500D02*
X64425500Y-12074500D01*
X54600000Y-59900000D02*
X54600000Y-63400000D01*
X14500000Y-62000000D02*
X19403517Y-66903517D01*
X54600000Y-63400000D02*
X51515000Y-66485000D01*
X66000000Y-27980000D02*
X66000000Y-11500000D01*
X56725000Y-13115000D02*
X57765500Y-12074500D01*
X63860000Y-30120000D02*
X66000000Y-27980000D01*
X19403517Y-66903517D02*
X20403517Y-66903517D01*
X62620500Y-46879500D02*
X62620500Y-31724500D01*
X51515000Y-66485000D02*
X51500000Y-66485000D01*
X54230000Y-35320000D02*
X53800000Y-35320000D01*
X41170000Y-18420000D02*
X47286500Y-18420000D01*
X27750000Y-5000000D02*
X41170000Y-18420000D01*
X54360000Y-35450000D02*
X54360000Y-36980000D01*
X50096500Y-21230000D02*
X50301500Y-21230000D01*
X47286500Y-18420000D02*
X50096500Y-21230000D01*
X53800000Y-35320000D02*
X53240000Y-34760000D01*
D61*
X29675000Y-62080000D02*
X29440000Y-61845000D01*
X30710000Y-62080000D02*
X29675000Y-62080000D01*
D64*
X30710000Y-62703729D02*
X30749999Y-62743728D01*
D61*
X28145000Y-63140000D02*
X29440000Y-61845000D01*
D64*
X30710000Y-62080000D02*
X30710000Y-62703729D01*
D61*
X28145000Y-63987500D02*
X28145000Y-63140000D01*
D62*
X28120000Y-62840000D02*
X28120000Y-63962500D01*
D64*
X33112128Y-60433500D02*
X32708000Y-60837628D01*
X32708000Y-60837628D02*
X32708000Y-61538000D01*
D61*
X33270000Y-62100000D02*
X33270000Y-63942500D01*
D64*
X32708000Y-61538000D02*
X33270000Y-62100000D01*
D61*
X33225000Y-63225000D02*
X33225000Y-63987500D01*
D64*
X33340000Y-60433500D02*
X33112128Y-60433500D01*
D61*
X31990000Y-61990000D02*
X33225000Y-63225000D01*
D62*
X32150000Y-64090000D02*
X33122500Y-64090000D01*
D63*
X51229497Y-57430503D02*
X51820000Y-56840000D01*
X51820000Y-56840000D02*
X51820000Y-54480000D01*
X39319497Y-57430503D02*
X51229497Y-57430503D01*
X38250000Y-58500000D02*
X39319497Y-57430503D01*
D62*
X13030679Y-43178600D02*
X13030679Y-43469321D01*
X12575000Y-42575000D02*
X12808900Y-42808900D01*
X12808900Y-42956821D02*
X13030679Y-43178600D01*
X11450000Y-42575000D02*
X12575000Y-42575000D01*
X12808900Y-42808900D02*
X12808900Y-42956821D01*
X13550000Y-44050000D02*
X13550000Y-44650000D01*
X11212500Y-41035000D02*
X11212500Y-42337500D01*
X13000000Y-43500000D02*
X13550000Y-44050000D01*
X13030679Y-43469321D02*
X13000000Y-43500000D01*
D61*
X6125000Y-42725000D02*
X6125000Y-33875000D01*
X6125000Y-33875000D02*
X6500000Y-33500000D01*
X44395000Y-30692500D02*
X44192500Y-30692500D01*
X44395000Y-29355000D02*
X44395000Y-30692500D01*
X44810000Y-28940000D02*
X44395000Y-29355000D01*
X43550000Y-30050000D02*
X41260000Y-30050000D01*
X44192500Y-30692500D02*
X43550000Y-30050000D01*
D65*
X29180000Y-39865000D02*
X29379999Y-40064999D01*
X41495000Y-52206800D02*
X43318200Y-54030000D01*
X35055000Y-44986800D02*
X35803200Y-45735000D01*
X39213200Y-45735000D02*
X41495000Y-48016800D01*
X34393200Y-40065000D02*
X35055000Y-40726800D01*
X35803200Y-45735000D02*
X39213200Y-45735000D01*
X43318200Y-54030000D02*
X44793000Y-54030000D01*
X46147000Y-53503000D02*
X46147000Y-54030000D01*
X44793000Y-53503000D02*
X46147000Y-53503000D01*
X41495000Y-48016800D02*
X41495000Y-52206800D01*
X35055000Y-40726800D02*
X35055000Y-44986800D01*
X46290000Y-54030000D02*
X46740000Y-54480000D01*
X29379999Y-40064999D02*
X34393200Y-40065000D01*
X46147000Y-54030000D02*
X46290000Y-54030000D01*
X44793000Y-54030000D02*
X44793000Y-53503000D01*
X39026800Y-46185000D02*
X41045000Y-48203200D01*
X43131800Y-54480000D02*
X45470000Y-54480000D01*
X35616800Y-46185000D02*
X39026800Y-46185000D01*
X34206800Y-40515000D02*
X34605000Y-40913200D01*
X29180000Y-40715000D02*
X29379999Y-40515001D01*
X29379999Y-40515001D02*
X34206800Y-40515000D01*
X34605000Y-40913200D02*
X34605000Y-45173200D01*
X41045000Y-52393200D02*
X43131800Y-54480000D01*
X41045000Y-48203200D02*
X41045000Y-52393200D01*
X34605000Y-45173200D02*
X35616800Y-46185000D01*
D63*
X58170000Y-36980000D02*
X58170000Y-19640000D01*
X58170000Y-39118537D02*
X58446490Y-39395027D01*
X13500000Y-63000000D02*
X12500000Y-62000000D01*
X58170000Y-36980000D02*
X58170000Y-39118537D01*
X12500000Y-59500000D02*
X13500000Y-58500000D01*
X12500000Y-62000000D02*
X12500000Y-59500000D01*
X13500000Y-64500000D02*
X13500000Y-63000000D01*
X58170000Y-19640000D02*
X56725000Y-18195000D01*
X56900000Y-36680000D02*
X57765500Y-35814500D01*
X11000000Y-59500000D02*
X11000000Y-63500000D01*
X12000000Y-58500000D02*
X11000000Y-59500000D01*
X56900000Y-36980000D02*
X56900000Y-38458497D01*
X57765500Y-35814500D02*
X57765500Y-21775500D01*
X56900000Y-38458497D02*
X56858497Y-38500000D01*
X57765500Y-21775500D02*
X56725000Y-20735000D01*
X50550000Y-35375000D02*
X50550000Y-36980000D01*
X51375000Y-33705000D02*
X51375000Y-34550000D01*
X51375000Y-34550000D02*
X50550000Y-35375000D01*
X56725000Y-28355000D02*
X51375000Y-33705000D01*
X55522919Y-30895000D02*
X51820000Y-34597919D01*
X51820000Y-34597919D02*
X51820000Y-36980000D01*
X56725000Y-30895000D02*
X55522919Y-30895000D01*
X11362500Y-31925000D02*
X11637500Y-31650000D01*
X10155000Y-31925000D02*
X10155000Y-30875000D01*
X10155000Y-31925000D02*
X11362500Y-31925000D01*
D61*
X13912500Y-31650000D02*
X13912500Y-33037500D01*
X13912500Y-33037500D02*
X15375000Y-34500000D01*
X19750000Y-34500000D02*
X21575000Y-32675000D01*
X14962500Y-28700000D02*
X13912500Y-29750000D01*
X21100000Y-28700000D02*
X14962500Y-28700000D01*
X21575000Y-32675000D02*
X21575000Y-29175000D01*
X21575000Y-29175000D02*
X21100000Y-28700000D01*
X16625000Y-34500000D02*
X19750000Y-34500000D01*
D63*
X58170000Y-55357000D02*
X54728992Y-58798008D01*
X58170000Y-54480000D02*
X58170000Y-55357000D01*
X54728992Y-58798008D02*
X43951992Y-58798008D01*
X43951992Y-58798008D02*
X41500000Y-61250000D01*
X43148458Y-58544507D02*
X54215493Y-58544507D01*
X54215493Y-58544507D02*
X56900000Y-55860000D01*
X40250000Y-61442965D02*
X43148458Y-58544507D01*
X56900000Y-55860000D02*
X56900000Y-54480000D01*
X40250000Y-63200000D02*
X40250000Y-61442965D01*
X55630000Y-54480000D02*
X55630000Y-56188505D01*
X42558992Y-58191008D02*
X41250000Y-59500000D01*
X55630000Y-56188505D02*
X53627497Y-58191008D01*
X53627497Y-58191008D02*
X42558992Y-58191008D01*
X39250000Y-60074252D02*
X41386745Y-57937507D01*
X54360000Y-57100000D02*
X54360000Y-54480000D01*
X41386745Y-57937507D02*
X53522493Y-57937507D01*
X53522493Y-57937507D02*
X54360000Y-57100000D01*
X38260000Y-63200000D02*
X39250000Y-62210000D01*
X39250000Y-62210000D02*
X39250000Y-60074252D01*
X53090000Y-54480000D02*
X53090000Y-57160000D01*
X41065994Y-57684006D02*
X38250000Y-60500000D01*
X52565994Y-57684006D02*
X41065994Y-57684006D01*
X53090000Y-57160000D02*
X52565994Y-57684006D01*
X37240000Y-60010000D02*
X36750000Y-60500000D01*
X38385003Y-57023501D02*
X37240000Y-58168504D01*
X37240000Y-58168504D02*
X37240000Y-60010000D01*
X50550000Y-54780000D02*
X48306499Y-57023501D01*
X48306499Y-57023501D02*
X38385003Y-57023501D01*
X48000000Y-56770000D02*
X49280000Y-55490000D01*
X35750000Y-58750000D02*
X37730000Y-56770000D01*
X49280000Y-55490000D02*
X49280000Y-54480000D01*
X37730000Y-56770000D02*
X48000000Y-56770000D01*
X35250000Y-57090000D02*
X35250000Y-60500000D01*
X48010000Y-54780000D02*
X46590000Y-56200000D01*
X35250000Y-57090000D02*
X36140000Y-56200000D01*
X46590000Y-56200000D02*
X36140000Y-56200000D01*
X44220000Y-46365000D02*
X45482641Y-46365000D01*
X45482641Y-46365000D02*
X46230303Y-47112662D01*
X53090000Y-36980000D02*
X53090000Y-40140000D01*
X53090000Y-40140000D02*
X49070000Y-44160000D01*
X46779818Y-50175000D02*
X48348630Y-51743812D01*
X44220000Y-50175000D02*
X46779818Y-50175000D01*
X47425000Y-48905000D02*
X48450000Y-49930000D01*
X44220000Y-48905000D02*
X47425000Y-48905000D01*
X48135000Y-47635000D02*
X49830000Y-49330000D01*
X44220000Y-47635000D02*
X48135000Y-47635000D01*
X46632500Y-61130000D02*
X47337500Y-60425000D01*
X61500000Y-38690000D02*
X61500000Y-45060000D01*
X47337500Y-60425000D02*
X47337500Y-59707500D01*
X40550000Y-55080000D02*
X33470000Y-55080000D01*
X61500000Y-45060000D02*
X53326499Y-53233501D01*
X45800000Y-61130000D02*
X46632500Y-61130000D01*
X44220000Y-52715000D02*
X46685000Y-52715000D01*
X47337500Y-59707500D02*
X46990000Y-59360000D01*
X43565000Y-52715000D02*
X42920000Y-52070000D01*
X46685000Y-52715000D02*
X46760000Y-52640000D01*
X33470000Y-55080000D02*
X31280000Y-57270000D01*
X47353501Y-53233501D02*
X46760000Y-52640000D01*
X31280000Y-57270000D02*
X31280000Y-58390000D01*
X53326499Y-53233501D02*
X47353501Y-53233501D01*
X29580000Y-56620000D02*
X29580000Y-58150000D01*
X47320000Y-63967500D02*
X47320000Y-64990000D01*
X44220000Y-45095000D02*
X42505000Y-45095000D01*
X39430000Y-54330000D02*
X39200000Y-54100000D01*
X39200000Y-54100000D02*
X32100000Y-54100000D01*
X32100000Y-54100000D02*
X29580000Y-56620000D01*
X46190000Y-43425000D02*
X46190000Y-38763500D01*
X46500000Y-63950000D02*
X45800000Y-64650000D01*
X47320000Y-64990000D02*
X47411483Y-65081483D01*
X44520000Y-45095000D02*
X46190000Y-43425000D01*
X42505000Y-45095000D02*
X42430000Y-45170000D01*
X47337500Y-63950000D02*
X46500000Y-63950000D01*
X48400000Y-28905000D02*
X46860000Y-28905000D01*
X11169340Y-51837201D02*
X11169340Y-52381840D01*
X12500000Y-51025000D02*
X11615000Y-51025000D01*
X10275000Y-50700000D02*
X11290000Y-50700000D01*
X10275000Y-52437500D02*
X10275000Y-50700000D01*
X11290000Y-50700000D02*
X11600000Y-51010000D01*
D61*
X53530000Y-6180000D02*
X54540000Y-5170000D01*
X53530000Y-7270000D02*
X53530000Y-6180000D01*
D63*
X13775000Y-42650000D02*
X13775000Y-41935000D01*
X13775000Y-39175000D02*
X13077500Y-39175000D01*
X13077500Y-39175000D02*
X12237500Y-40015000D01*
X12237500Y-40015000D02*
X11212500Y-40015000D01*
X13046460Y-41240500D02*
X12847000Y-41041040D01*
X12237500Y-40015000D02*
X12237500Y-39050000D01*
X13775000Y-41935000D02*
X13080500Y-41240500D01*
X13080500Y-41240500D02*
X13046460Y-41240500D01*
X12847000Y-41041040D02*
X12847000Y-40624500D01*
X12847000Y-40624500D02*
X12237500Y-40015000D01*
D62*
X14581655Y-37275000D02*
X13775000Y-37275000D01*
X11987500Y-37250000D02*
X13750000Y-37250000D01*
X14683900Y-37377245D02*
X14581655Y-37275000D01*
X14741100Y-39783900D02*
X14741100Y-38868179D01*
X14683900Y-38810979D02*
X14683900Y-37377245D01*
X14741100Y-38868179D02*
X14683900Y-38810979D01*
X13775000Y-40750000D02*
X14741100Y-39783900D01*
D61*
X45350000Y-34090000D02*
X45350000Y-32972500D01*
X44810000Y-25640000D02*
X45260000Y-26090000D01*
X45260000Y-26090000D02*
X46580000Y-26090000D01*
X46850000Y-27365000D02*
X46471483Y-26986483D01*
X46471483Y-26986483D02*
X45433517Y-26986483D01*
X44810000Y-25640000D02*
X45433517Y-26263517D01*
X46850000Y-27365000D02*
X46850000Y-26930000D01*
X45433517Y-26263517D02*
X45433517Y-26986483D01*
D62*
X39015000Y-27835000D02*
X36280000Y-30570000D01*
X45212200Y-27835000D02*
X46030000Y-28652800D01*
X39015000Y-27835000D02*
X45212200Y-27835000D01*
X46030000Y-28652800D02*
X46030000Y-30427500D01*
X46030000Y-30427500D02*
X46295000Y-30692500D01*
D61*
X18412500Y-40650000D02*
X19942500Y-39120000D01*
X19942500Y-39120000D02*
X20260000Y-39120000D01*
X22835000Y-46810000D02*
X24310000Y-46810000D01*
X24310000Y-46810000D02*
X25230000Y-45890000D01*
D63*
X11995000Y-22175000D02*
X14170000Y-24350000D01*
X8014500Y-21884827D02*
X8304673Y-22175000D01*
X7300000Y-12885000D02*
X8252500Y-13837500D01*
X8304673Y-22175000D02*
X11995000Y-22175000D01*
X16570000Y-24010000D02*
X16910000Y-24350000D01*
X8014500Y-21345173D02*
X8014500Y-21884827D01*
X17260000Y-18780000D02*
X16570000Y-19470000D01*
X8252500Y-21107173D02*
X8014500Y-21345173D01*
X16910000Y-24350000D02*
X18960000Y-24350000D01*
X18797500Y-17040000D02*
X17595000Y-17040000D01*
X17260000Y-17375000D02*
X17260000Y-18780000D01*
X14170000Y-24350000D02*
X18960000Y-24350000D01*
X19070000Y-24240000D02*
X19070000Y-22850000D01*
X17595000Y-17040000D02*
X17260000Y-17375000D01*
X18960000Y-24350000D02*
X19070000Y-24240000D01*
X8252500Y-13837500D02*
X8252500Y-21107173D01*
X16570000Y-19470000D02*
X16570000Y-24010000D01*
X18062500Y-19830000D02*
X18772500Y-20540000D01*
X17235000Y-19830000D02*
X18062500Y-19830000D01*
X17770000Y-22850000D02*
X17770000Y-21542500D01*
X17770000Y-21542500D02*
X18772500Y-20540000D01*
X49212500Y-63712500D02*
X49325000Y-63825000D01*
X51290000Y-62335000D02*
X52525000Y-62335000D01*
X49212500Y-61375000D02*
X49212500Y-63712500D01*
X50940000Y-62685000D02*
X51290000Y-62335000D01*
X50750000Y-63615000D02*
X51785000Y-64650000D01*
X49175000Y-64937500D02*
X49175000Y-65525000D01*
X52525000Y-63605000D02*
X50760000Y-63605000D01*
X51785000Y-64650000D02*
X52075000Y-64650000D01*
X39200000Y-49000000D02*
X39600000Y-49400000D01*
X20830099Y-19772599D02*
X22140000Y-19772599D01*
X57475000Y-62335000D02*
X56135000Y-62335000D01*
X30200000Y-49000000D02*
X39200000Y-49000000D01*
X56135000Y-62335000D02*
X55600000Y-61800000D01*
X39800000Y-52400000D02*
X26400000Y-52400000D01*
X44220000Y-43825000D02*
X42075000Y-43825000D01*
X42075000Y-43825000D02*
X42040000Y-43860000D01*
X60710000Y-36980000D02*
X60710000Y-38515000D01*
X17780000Y-53950000D02*
X17780000Y-54960000D01*
X17790000Y-54970000D02*
X17790000Y-61565000D01*
X60710000Y-38515000D02*
X59775000Y-39450000D01*
X23675000Y-67450000D02*
X56170000Y-67450000D01*
X18020000Y-55200000D02*
X17790000Y-54970000D01*
X18020000Y-55640000D02*
X18020000Y-55200000D01*
X17790000Y-61565000D02*
X23675000Y-67450000D01*
X56170000Y-67450000D02*
X57000000Y-66620000D01*
X40000000Y-38000000D02*
X43475000Y-38000000D01*
X15620000Y-4655000D02*
X15620000Y-4042500D01*
X30050000Y-23020000D02*
X33325000Y-26295000D01*
X33325000Y-30400000D02*
X39054500Y-36129500D01*
X18315003Y-5676499D02*
X26440006Y-13801502D01*
X26440006Y-16040006D02*
X30050000Y-19650000D01*
X39054500Y-37054500D02*
X40000000Y-38000000D01*
X40000000Y-38000000D02*
X40280000Y-38280000D01*
X15620000Y-4042500D02*
X14985000Y-3407500D01*
X43475000Y-38000000D02*
X44220000Y-38745000D01*
X30050000Y-19650000D02*
X30050000Y-23020000D01*
X15620000Y-4849040D02*
X16447459Y-5676499D01*
X16447459Y-5676499D02*
X18315003Y-5676499D01*
X39054500Y-36129500D02*
X39054500Y-37054500D01*
X26440006Y-13801502D02*
X26440006Y-16040006D01*
X33325000Y-26295000D02*
X33325000Y-30400000D01*
X15520000Y-5560000D02*
X16037500Y-6077500D01*
X19450000Y-11241000D02*
X19744500Y-11535500D01*
X25250000Y-18875000D02*
X28280000Y-21905000D01*
X19450000Y-7715960D02*
X19450000Y-11241000D01*
X19943960Y-16718960D02*
X22100000Y-18875000D01*
X17444500Y-2657000D02*
X14703000Y-2657000D01*
X39700000Y-40030000D02*
X42225000Y-42555000D01*
X22100000Y-18875000D02*
X25250000Y-18875000D01*
X17955000Y-3167500D02*
X17955000Y-3482500D01*
X16037500Y-6077500D02*
X17811540Y-6077500D01*
X17955000Y-3167500D02*
X17444500Y-2657000D01*
X42225000Y-42555000D02*
X44220000Y-42555000D01*
X19943960Y-16580500D02*
X19943960Y-16718960D01*
X28280000Y-21905000D02*
X28280000Y-30580000D01*
X14703000Y-2657000D02*
X14510000Y-2850000D01*
X14510000Y-4689040D02*
X15380960Y-5560000D01*
X19744500Y-16381040D02*
X19943960Y-16580500D01*
X17811540Y-6077500D02*
X19450000Y-7715960D01*
X17520000Y-3917500D02*
X17520000Y-4655000D01*
X28280000Y-30580000D02*
X37730000Y-40030000D01*
X19744500Y-11535500D02*
X19744500Y-16381040D01*
X44825000Y-42555000D02*
X45580000Y-41800000D01*
X37730000Y-40030000D02*
X39700000Y-40030000D01*
X17955000Y-3482500D02*
X17520000Y-3917500D01*
X15380960Y-5560000D02*
X15520000Y-5560000D01*
X14510000Y-2850000D02*
X14510000Y-4689040D01*
X55630000Y-36980000D02*
X55630000Y-38570000D01*
X55630000Y-38570000D02*
X50750000Y-43450000D01*
X17520000Y-6930000D02*
X17520000Y-10295000D01*
X17520000Y-10295000D02*
X12700000Y-15115000D01*
X40288530Y-39100000D02*
X30090000Y-28901470D01*
X45475000Y-40015000D02*
X44220000Y-40015000D01*
X43005000Y-39100000D02*
X40288530Y-39100000D01*
X30090000Y-28901470D02*
X30090000Y-28340000D01*
X26470000Y-24950000D02*
X27360000Y-25840000D01*
X14190000Y-24950000D02*
X26470000Y-24950000D01*
X11637500Y-29750000D02*
X11637500Y-27502500D01*
X11637500Y-27502500D02*
X14190000Y-24950000D01*
X45550000Y-40090000D02*
X45475000Y-40015000D01*
X11637500Y-29750000D02*
X10285000Y-29750000D01*
X43920000Y-40015000D02*
X43005000Y-39100000D01*
X47880000Y-52672965D02*
X47880000Y-52230000D01*
X46540000Y-32640000D02*
X46540000Y-32722500D01*
X46110000Y-34360000D02*
X45360000Y-35110000D01*
X46700000Y-51050000D02*
X44615000Y-51050000D01*
X51200000Y-51427965D02*
X49667965Y-52960000D01*
X47880000Y-52230000D02*
X46700000Y-51050000D01*
X46295000Y-33745000D02*
X46575000Y-34025000D01*
X45044500Y-38104500D02*
X46223965Y-38104500D01*
X46223965Y-38104500D02*
X46773501Y-38654036D01*
X46560000Y-34360000D02*
X46110000Y-34360000D01*
X46773501Y-43307632D02*
X51200000Y-47734131D01*
X51200000Y-47734131D02*
X51200000Y-51427965D01*
X44829500Y-36039500D02*
X44829500Y-37889500D01*
X44615000Y-51050000D02*
X44220000Y-51445000D01*
X46575000Y-34025000D02*
X46575000Y-34345000D01*
X46773501Y-38654036D02*
X46773501Y-43307632D01*
X45360000Y-35509000D02*
X44829500Y-36039500D01*
X49667965Y-52960000D02*
X48167035Y-52960000D01*
X48167035Y-52960000D02*
X47880000Y-52672965D01*
X46295000Y-32967500D02*
X46295000Y-33745000D01*
X45360000Y-35110000D02*
X45360000Y-35509000D01*
X46540000Y-32722500D02*
X46295000Y-32967500D01*
X44829500Y-37889500D02*
X45044500Y-38104500D01*
X59925000Y-59775000D02*
X57495000Y-59775000D01*
X58365000Y-61065000D02*
X59575000Y-62275000D01*
X60305500Y-35019500D02*
X59440000Y-35885000D01*
X59265000Y-30895000D02*
X60305500Y-31935500D01*
X60305500Y-31935500D02*
X60305500Y-35019500D01*
X59440000Y-35885000D02*
X59440000Y-36980000D01*
X19080000Y-45010000D02*
X20460000Y-45010000D01*
X19100000Y-42930000D02*
X19100000Y-44990000D01*
X23975000Y-44925000D02*
X24000000Y-44950000D01*
X23960000Y-44910000D02*
X23975000Y-44925000D01*
X22835000Y-44910000D02*
X23275000Y-44470000D01*
X23275000Y-44470000D02*
X23275000Y-43635000D01*
X24000000Y-44950000D02*
X24175000Y-44950000D01*
X22835000Y-44910000D02*
X23960000Y-44910000D01*
X21366734Y-16090000D02*
X23273233Y-17996499D01*
X29325000Y-29625000D02*
X39090000Y-39390000D01*
X23273233Y-17996499D02*
X26335003Y-17996499D01*
X29325000Y-20986496D02*
X29325000Y-29625000D01*
X20672500Y-16090000D02*
X21366734Y-16090000D01*
X42550000Y-39950000D02*
X42585000Y-39950000D01*
X39090000Y-39390000D02*
X41990000Y-39390000D01*
X26335003Y-17996499D02*
X29325000Y-20986496D01*
X41990000Y-39390000D02*
X42550000Y-39950000D01*
X42585000Y-39950000D02*
X43920000Y-41285000D01*
X13940000Y-50240000D02*
X13940000Y-49190000D01*
X13940000Y-50672500D02*
X13940000Y-50240000D01*
X12175000Y-52437500D02*
X13940000Y-50672500D01*
X8365000Y-22475000D02*
X6925000Y-22475000D01*
X6925000Y-22475000D02*
X6925000Y-15490000D01*
X13860500Y-22199500D02*
X13350000Y-22710000D01*
X13640327Y-21200000D02*
X13860500Y-21420173D01*
X11123152Y-16691848D02*
X11123152Y-18723152D01*
X11123152Y-18723152D02*
X13600000Y-21200000D01*
X13600000Y-21200000D02*
X13640327Y-21200000D01*
X13860500Y-21420173D02*
X13860500Y-22199500D01*
X13350000Y-22710000D02*
X13585000Y-22475000D01*
X13585000Y-22475000D02*
X14925000Y-22475000D01*
%TA.AperFunction,Conductor*%
G36*
X64987103Y-256921D02*
G01*
X65000000Y-259486D01*
X65012170Y-257065D01*
X65022599Y-257065D01*
X65035735Y-256060D01*
X65356412Y-270061D01*
X65408103Y-272318D01*
X65419051Y-273276D01*
X65818604Y-325878D01*
X65829413Y-327785D01*
X66222854Y-415008D01*
X66233471Y-417853D01*
X66617813Y-539036D01*
X66628128Y-542789D01*
X67000468Y-697017D01*
X67010412Y-701655D01*
X67295219Y-849916D01*
X67367867Y-887734D01*
X67377385Y-893229D01*
X67409821Y-913893D01*
X67717262Y-1109755D01*
X67726266Y-1116059D01*
X68045993Y-1361393D01*
X68054397Y-1368445D01*
X68130501Y-1438182D01*
X68351519Y-1640709D01*
X68359291Y-1648481D01*
X68470515Y-1769860D01*
X68631555Y-1945603D01*
X68638607Y-1954007D01*
X68755002Y-2105697D01*
X68883941Y-2273734D01*
X68890245Y-2282738D01*
X68957654Y-2388548D01*
X69101349Y-2614103D01*
X69106770Y-2622613D01*
X69112265Y-2632132D01*
X69274193Y-2943191D01*
X69298341Y-2989579D01*
X69302983Y-2999532D01*
X69435873Y-3320358D01*
X69457208Y-3371865D01*
X69460964Y-3382187D01*
X69570252Y-3728803D01*
X69582147Y-3766528D01*
X69584992Y-3777145D01*
X69661703Y-4123166D01*
X69672214Y-4170579D01*
X69674122Y-4181396D01*
X69724719Y-4565716D01*
X69726724Y-4580948D01*
X69727682Y-4591898D01*
X69743940Y-4964265D01*
X69742935Y-4977401D01*
X69742935Y-4987830D01*
X69740514Y-5000000D01*
X69743079Y-5012894D01*
X69745500Y-5037476D01*
X69745500Y-33962518D01*
X69743079Y-33987097D01*
X69740513Y-33999999D01*
X69742934Y-34012171D01*
X69742934Y-34024578D01*
X69742294Y-34024578D01*
X69742970Y-34035357D01*
X69734385Y-34155389D01*
X69728375Y-34239419D01*
X69725817Y-34257213D01*
X69676709Y-34482959D01*
X69671644Y-34500208D01*
X69662154Y-34525653D01*
X69590909Y-34716669D01*
X69583443Y-34733016D01*
X69472724Y-34935781D01*
X69463005Y-34950904D01*
X69324558Y-35135848D01*
X69312785Y-35149434D01*
X69149434Y-35312785D01*
X69135848Y-35324558D01*
X68999881Y-35426342D01*
X68950902Y-35463007D01*
X68935786Y-35472722D01*
X68914054Y-35484589D01*
X68853671Y-35500000D01*
X68126000Y-35500000D01*
X68057879Y-35479998D01*
X68011386Y-35426342D01*
X68000000Y-35374000D01*
X68000000Y-8000000D01*
X67246940Y-7246940D01*
X67212914Y-7184628D01*
X67217979Y-7113813D01*
X67244185Y-7071592D01*
X67340774Y-6968734D01*
X67345297Y-6963345D01*
X67545640Y-6695540D01*
X67549530Y-6689686D01*
X67718774Y-6401215D01*
X67721989Y-6394961D01*
X67858024Y-6089422D01*
X67860521Y-6082847D01*
X67961648Y-5764056D01*
X67963400Y-5757233D01*
X68028361Y-5429155D01*
X68029338Y-5422201D01*
X68057436Y-5087591D01*
X68057650Y-5083222D01*
X68058782Y-5002178D01*
X68058691Y-4997828D01*
X68039945Y-4662546D01*
X68039163Y-4655572D01*
X67983386Y-4325793D01*
X67981828Y-4318939D01*
X67889639Y-3997439D01*
X67887331Y-3990811D01*
X67759874Y-3681576D01*
X67756845Y-3675256D01*
X67595715Y-3382161D01*
X67591990Y-3376199D01*
X67399195Y-3102896D01*
X67394837Y-3097397D01*
X67259837Y-2945343D01*
X67246449Y-2936966D01*
X67236889Y-2942716D01*
X65192417Y-4987188D01*
X65184803Y-5001132D01*
X65184934Y-5002965D01*
X65189185Y-5009580D01*
X66481389Y-6301784D01*
X66515415Y-6364096D01*
X66510350Y-6434911D01*
X66481389Y-6479974D01*
X66480682Y-6480682D01*
X63519319Y-3519319D01*
X63520026Y-3518611D01*
X63582338Y-3484585D01*
X63653153Y-3489650D01*
X63698216Y-3518611D01*
X64987188Y-4807583D01*
X65001132Y-4815197D01*
X65002965Y-4815066D01*
X65009580Y-4810815D01*
X67055177Y-2765218D01*
X67062791Y-2751274D01*
X67062786Y-2751200D01*
X67056679Y-2742222D01*
X66919281Y-2618509D01*
X66913801Y-2614103D01*
X66641852Y-2419407D01*
X66635925Y-2415645D01*
X66343972Y-2252478D01*
X66337646Y-2249392D01*
X66029325Y-2119786D01*
X66022711Y-2117430D01*
X65701848Y-2022996D01*
X65695026Y-2021396D01*
X65365633Y-1963315D01*
X65358664Y-1962484D01*
X65024872Y-1941484D01*
X65017840Y-1941435D01*
X64683774Y-1957772D01*
X64676796Y-1958506D01*
X64346640Y-2011980D01*
X64339772Y-2013490D01*
X64017642Y-2103431D01*
X64010986Y-2105697D01*
X63700885Y-2230985D01*
X63694530Y-2233975D01*
X63400323Y-2393053D01*
X63394334Y-2396737D01*
X63119692Y-2587618D01*
X63114161Y-2591939D01*
X62924423Y-2758042D01*
X62859992Y-2787863D01*
X62789668Y-2778116D01*
X62752333Y-2752333D01*
X62000000Y-2000000D01*
X8000000Y-2000000D01*
X7247046Y-2752954D01*
X7184734Y-2786980D01*
X7113919Y-2781915D01*
X7073641Y-2757495D01*
X6919281Y-2618509D01*
X6913801Y-2614103D01*
X6641852Y-2419407D01*
X6635925Y-2415645D01*
X6343972Y-2252478D01*
X6337646Y-2249392D01*
X6029325Y-2119786D01*
X6022711Y-2117430D01*
X5701848Y-2022996D01*
X5695026Y-2021396D01*
X5365633Y-1963315D01*
X5358664Y-1962484D01*
X5024872Y-1941484D01*
X5017840Y-1941435D01*
X4683774Y-1957772D01*
X4676796Y-1958506D01*
X4346640Y-2011980D01*
X4339772Y-2013490D01*
X4017642Y-2103431D01*
X4010986Y-2105697D01*
X3700885Y-2230985D01*
X3694530Y-2233975D01*
X3400323Y-2393053D01*
X3394334Y-2396737D01*
X3119692Y-2587618D01*
X3114161Y-2591939D01*
X2945104Y-2739937D01*
X2936706Y-2753151D01*
X2942551Y-2762946D01*
X4987188Y-4807583D01*
X5001132Y-4815197D01*
X5002965Y-4815066D01*
X5009580Y-4810815D01*
X6301784Y-3518611D01*
X6364096Y-3484585D01*
X6434911Y-3489650D01*
X6479974Y-3518611D01*
X6480682Y-3519319D01*
X3519319Y-6480682D01*
X3518611Y-6479974D01*
X3484585Y-6417662D01*
X3489650Y-6346847D01*
X3518611Y-6301784D01*
X4807583Y-5012812D01*
X4815197Y-4998868D01*
X4815066Y-4997035D01*
X4810815Y-4990420D01*
X2765327Y-2944932D01*
X2751383Y-2937318D01*
X2751072Y-2937340D01*
X2742406Y-2943191D01*
X2631960Y-3064146D01*
X2627522Y-3069587D01*
X2430939Y-3340162D01*
X2427122Y-3346084D01*
X2261928Y-3636879D01*
X2258798Y-3643184D01*
X2127042Y-3950593D01*
X2124640Y-3957194D01*
X2027973Y-4277368D01*
X2026318Y-4284211D01*
X1965942Y-4613172D01*
X1965063Y-4620134D01*
X1941732Y-4953774D01*
X1941634Y-4960819D01*
X1955639Y-5294971D01*
X1956324Y-5301961D01*
X2007492Y-5632490D01*
X2008952Y-5639357D01*
X2096645Y-5962119D01*
X2098861Y-5968780D01*
X2221982Y-6279750D01*
X2224933Y-6286135D01*
X2381953Y-6581445D01*
X2385587Y-6587446D01*
X2574544Y-6863412D01*
X2578838Y-6868987D01*
X2758145Y-7076715D01*
X2787515Y-7141351D01*
X2777278Y-7211606D01*
X2751859Y-7248141D01*
X2000000Y-8000000D01*
X2000000Y-35000000D01*
X4874000Y-35000000D01*
X4942121Y-35020002D01*
X4988614Y-35073658D01*
X5000000Y-35126000D01*
X5000000Y-36644853D01*
X4979998Y-36712974D01*
X4926342Y-36759467D01*
X4856068Y-36769571D01*
X4791488Y-36740077D01*
X4768628Y-36713938D01*
X4717083Y-36635320D01*
X4707759Y-36624168D01*
X4594977Y-36517329D01*
X4583330Y-36508616D01*
X4448996Y-36430588D01*
X4435659Y-36424789D01*
X4288223Y-36380135D01*
X4279732Y-36382065D01*
X4277000Y-36392980D01*
X4277000Y-38099772D01*
X4280806Y-38112734D01*
X4295721Y-38114670D01*
X4350011Y-38105341D01*
X4363968Y-38101233D01*
X4506911Y-38040410D01*
X4519544Y-38033204D01*
X4644663Y-37941128D01*
X4655305Y-37931204D01*
X4755885Y-37812813D01*
X4768015Y-37794625D01*
X4770193Y-37796077D01*
X4810572Y-37753394D01*
X4879501Y-37736385D01*
X4946683Y-37759342D01*
X4990789Y-37814976D01*
X5000000Y-37862265D01*
X5000000Y-40589130D01*
X4979998Y-40657251D01*
X4950704Y-40689092D01*
X4911079Y-40719497D01*
X4911076Y-40719500D01*
X4904526Y-40724526D01*
X4899500Y-40731076D01*
X4899499Y-40731077D01*
X4873740Y-40764647D01*
X4815645Y-40840358D01*
X4759772Y-40975246D01*
X4758695Y-40983430D01*
X4758694Y-40983432D01*
X4751339Y-41039303D01*
X4740715Y-41120000D01*
X4743443Y-41140723D01*
X4757360Y-41246430D01*
X4759772Y-41264754D01*
X4810164Y-41386408D01*
X4812014Y-41390875D01*
X4819603Y-41461465D01*
X4787824Y-41524952D01*
X4726766Y-41561180D01*
X4655815Y-41558646D01*
X4608953Y-41530568D01*
X4594977Y-41517329D01*
X4583330Y-41508616D01*
X4448996Y-41430588D01*
X4435659Y-41424789D01*
X4288223Y-41380135D01*
X4279732Y-41382065D01*
X4277000Y-41392980D01*
X4277000Y-43099772D01*
X4280806Y-43112734D01*
X4295721Y-43114670D01*
X4350011Y-43105341D01*
X4363968Y-43101233D01*
X4506911Y-43040410D01*
X4519544Y-43033204D01*
X4644663Y-42941128D01*
X4655305Y-42931204D01*
X4755885Y-42812813D01*
X4768015Y-42794625D01*
X4770193Y-42796077D01*
X4810572Y-42753394D01*
X4879501Y-42736385D01*
X4946683Y-42759342D01*
X4990789Y-42814976D01*
X5000000Y-42862265D01*
X5000000Y-43874000D01*
X4979998Y-43942121D01*
X4926342Y-43988614D01*
X4874000Y-44000000D01*
X2500000Y-44000000D01*
X2500000Y-44750000D01*
X2749242Y-44750000D01*
X2750751Y-44750009D01*
X2953236Y-44752434D01*
X2964077Y-44753032D01*
X3367826Y-44792798D01*
X3380057Y-44794612D01*
X3777230Y-44873615D01*
X3789217Y-44876617D01*
X4176756Y-44994175D01*
X4188379Y-44998335D01*
X4527846Y-45138946D01*
X4562514Y-45153306D01*
X4573692Y-45158593D01*
X4930826Y-45349486D01*
X4941432Y-45355843D01*
X5278143Y-45580825D01*
X5288062Y-45588181D01*
X5375122Y-45659630D01*
X5415089Y-45718305D01*
X5420501Y-45744299D01*
X5420501Y-45750066D01*
X5421708Y-45756132D01*
X5421708Y-45756137D01*
X5432844Y-45812126D01*
X5435266Y-45824301D01*
X5491516Y-45908484D01*
X5575699Y-45964734D01*
X5649933Y-45979500D01*
X5684183Y-45979500D01*
X5752304Y-45999502D01*
X5773278Y-46016405D01*
X5896604Y-46139731D01*
X5904908Y-46148892D01*
X6161812Y-46461930D01*
X6169178Y-46471862D01*
X6394157Y-46808568D01*
X6400514Y-46819174D01*
X6591407Y-47176308D01*
X6596694Y-47187486D01*
X6751665Y-47561621D01*
X6755825Y-47573244D01*
X6873382Y-47960779D01*
X6876385Y-47972770D01*
X6891725Y-48049888D01*
X6955388Y-48369943D01*
X6957202Y-48382174D01*
X6996968Y-48785923D01*
X6997566Y-48796764D01*
X6999991Y-48999249D01*
X7000000Y-49000758D01*
X7000000Y-51968018D01*
X6979998Y-52036139D01*
X6969198Y-52050562D01*
X6968826Y-52050991D01*
X6965649Y-52054168D01*
X6962958Y-52057758D01*
X6962955Y-52057762D01*
X6959447Y-52062443D01*
X6953062Y-52070286D01*
X6921999Y-52105458D01*
X6918186Y-52113580D01*
X6916346Y-52116381D01*
X6907937Y-52130376D01*
X6906315Y-52133339D01*
X6900930Y-52140524D01*
X6897777Y-52148934D01*
X6897776Y-52148936D01*
X6884454Y-52184470D01*
X6880530Y-52193783D01*
X6860583Y-52236270D01*
X6859201Y-52245144D01*
X6858215Y-52248371D01*
X6854075Y-52264154D01*
X6853354Y-52267432D01*
X6850202Y-52275840D01*
X6849537Y-52284791D01*
X6846724Y-52322645D01*
X6845570Y-52332692D01*
X6843500Y-52345985D01*
X6843500Y-52361350D01*
X6843154Y-52370687D01*
X6839493Y-52419955D01*
X6841366Y-52428730D01*
X6841959Y-52437426D01*
X6843500Y-52452026D01*
X6843500Y-53677376D01*
X6842159Y-53689381D01*
X6842655Y-53689421D01*
X6841935Y-53698368D01*
X6839954Y-53707124D01*
X6840510Y-53716084D01*
X6843258Y-53760382D01*
X6843500Y-53768184D01*
X6843500Y-53784226D01*
X6844135Y-53788657D01*
X6844135Y-53788662D01*
X6844965Y-53794453D01*
X6845996Y-53804514D01*
X6848902Y-53851359D01*
X6851949Y-53859799D01*
X6852630Y-53863089D01*
X6856582Y-53878938D01*
X6857527Y-53882168D01*
X6858799Y-53891052D01*
X6862514Y-53899223D01*
X6878218Y-53933763D01*
X6882030Y-53943128D01*
X6894922Y-53978837D01*
X6894924Y-53978840D01*
X6897972Y-53987284D01*
X6903268Y-53994533D01*
X6904840Y-53997490D01*
X6913093Y-54011614D01*
X6914898Y-54014437D01*
X6918612Y-54022605D01*
X6948704Y-54057527D01*
X6949243Y-54058153D01*
X6955525Y-54066064D01*
X6963473Y-54076944D01*
X6966918Y-54080389D01*
X6969703Y-54083641D01*
X6998820Y-54148393D01*
X7000000Y-54165598D01*
X7000000Y-56749242D01*
X6999991Y-56750751D01*
X6997566Y-56953236D01*
X6996968Y-56964077D01*
X6957202Y-57367826D01*
X6955388Y-57380057D01*
X6900144Y-57657789D01*
X6876386Y-57777226D01*
X6873383Y-57789217D01*
X6824577Y-57950112D01*
X6755828Y-58176747D01*
X6751665Y-58188379D01*
X6636157Y-58467241D01*
X6596694Y-58562514D01*
X6591407Y-58573692D01*
X6414531Y-58904603D01*
X6400514Y-58930826D01*
X6394157Y-58941432D01*
X6169178Y-59278138D01*
X6161812Y-59288070D01*
X5904908Y-59601108D01*
X5896604Y-59610269D01*
X5610269Y-59896604D01*
X5601108Y-59904908D01*
X5288070Y-60161812D01*
X5278138Y-60169178D01*
X4941432Y-60394157D01*
X4930826Y-60400514D01*
X4573692Y-60591407D01*
X4562513Y-60596694D01*
X4188379Y-60751665D01*
X4176756Y-60755825D01*
X3789217Y-60873383D01*
X3777230Y-60876385D01*
X3423322Y-60946782D01*
X3380057Y-60955388D01*
X3367826Y-60957202D01*
X2964077Y-60996968D01*
X2953236Y-60997566D01*
X2750326Y-60999996D01*
X2750311Y-60999996D01*
X2750000Y-61000000D01*
X2712505Y-61000909D01*
X2672030Y-61001891D01*
X2672029Y-61001891D01*
X2665726Y-61002044D01*
X2659580Y-61003447D01*
X2659578Y-61003447D01*
X2574372Y-61022895D01*
X2501403Y-61039549D01*
X2433214Y-61072387D01*
X2355925Y-61109607D01*
X2355921Y-61109609D01*
X2349545Y-61112680D01*
X2217769Y-61217769D01*
X2112680Y-61349545D01*
X2109609Y-61355921D01*
X2109607Y-61355925D01*
X2076976Y-61423685D01*
X2039549Y-61501403D01*
X2002044Y-61665726D01*
X2000000Y-61750000D01*
X2000000Y-64416140D01*
X1997930Y-64438885D01*
X1965942Y-64613172D01*
X1965063Y-64620134D01*
X1941732Y-64953774D01*
X1941634Y-64960819D01*
X1955639Y-65294971D01*
X1956324Y-65301961D01*
X2007492Y-65632490D01*
X2008952Y-65639357D01*
X2096645Y-65962119D01*
X2098861Y-65968780D01*
X2221982Y-66279750D01*
X2224933Y-66286135D01*
X2381953Y-66581445D01*
X2385587Y-66587446D01*
X2574544Y-66863412D01*
X2578838Y-66868987D01*
X2739606Y-67055238D01*
X2752648Y-67063655D01*
X2762679Y-67057716D01*
X4807583Y-65012812D01*
X4814579Y-65000000D01*
X5000000Y-65000000D01*
X6480682Y-66480682D01*
X6479974Y-66481389D01*
X6417662Y-66515415D01*
X6346847Y-66510350D01*
X6301784Y-66481389D01*
X5012812Y-65192417D01*
X4998868Y-65184803D01*
X4997035Y-65184934D01*
X4990420Y-65189185D01*
X2944937Y-67234668D01*
X2937323Y-67248612D01*
X2937362Y-67249157D01*
X2942964Y-67257517D01*
X3047656Y-67354462D01*
X3053069Y-67358941D01*
X3322285Y-67557424D01*
X3328148Y-67561261D01*
X3617802Y-67728492D01*
X3624071Y-67731659D01*
X3930562Y-67865562D01*
X3937146Y-67868010D01*
X4256647Y-67966912D01*
X4263461Y-67968611D01*
X4592002Y-68031284D01*
X4598951Y-68032211D01*
X4932444Y-68057872D01*
X4939451Y-68058018D01*
X5273713Y-68046346D01*
X5280709Y-68045709D01*
X5611568Y-67996853D01*
X5618467Y-67995437D01*
X5941834Y-67909999D01*
X5948494Y-67907835D01*
X6260329Y-67786882D01*
X6266728Y-67783979D01*
X6563120Y-67629029D01*
X6569165Y-67625426D01*
X6846439Y-67438402D01*
X6852033Y-67434156D01*
X7077970Y-67241869D01*
X7142810Y-67212951D01*
X7212992Y-67223679D01*
X7248728Y-67248728D01*
X8000000Y-68000000D01*
X62000000Y-68000000D01*
X62753134Y-67246866D01*
X62815446Y-67212840D01*
X62886261Y-67217905D01*
X62927838Y-67243511D01*
X63047654Y-67354462D01*
X63053065Y-67358938D01*
X63322285Y-67557424D01*
X63328148Y-67561261D01*
X63617802Y-67728492D01*
X63624071Y-67731659D01*
X63930562Y-67865562D01*
X63937146Y-67868010D01*
X64256647Y-67966912D01*
X64263461Y-67968611D01*
X64592002Y-68031284D01*
X64598951Y-68032211D01*
X64932444Y-68057872D01*
X64939451Y-68058018D01*
X65273713Y-68046346D01*
X65280709Y-68045709D01*
X65611568Y-67996853D01*
X65618467Y-67995437D01*
X65941834Y-67909999D01*
X65948494Y-67907835D01*
X66260329Y-67786882D01*
X66266728Y-67783979D01*
X66563120Y-67629029D01*
X66569165Y-67625426D01*
X66846439Y-67438402D01*
X66852033Y-67434156D01*
X67055690Y-67260831D01*
X67064122Y-67247963D01*
X67058093Y-67237698D01*
X65012812Y-65192417D01*
X64998868Y-65184803D01*
X64997035Y-65184934D01*
X64990420Y-65189185D01*
X63698216Y-66481389D01*
X63635904Y-66515415D01*
X63565089Y-66510350D01*
X63520026Y-66481389D01*
X63519319Y-66480682D01*
X66480682Y-63519319D01*
X66481389Y-63520026D01*
X66515415Y-63582338D01*
X66510350Y-63653153D01*
X66481389Y-63698216D01*
X65192417Y-64987188D01*
X65184803Y-65001132D01*
X65184934Y-65002965D01*
X65189185Y-65009580D01*
X67234769Y-67055164D01*
X67248713Y-67062778D01*
X67249492Y-67062723D01*
X67257542Y-67057368D01*
X67340765Y-66968744D01*
X67345301Y-66963338D01*
X67545640Y-66695540D01*
X67549530Y-66689686D01*
X67718774Y-66401215D01*
X67721989Y-66394961D01*
X67858024Y-66089422D01*
X67860521Y-66082847D01*
X67961648Y-65764056D01*
X67963400Y-65757233D01*
X68028361Y-65429155D01*
X68029338Y-65422201D01*
X68057436Y-65087591D01*
X68057650Y-65083222D01*
X68058782Y-65002178D01*
X68058691Y-64997828D01*
X68039945Y-64662546D01*
X68039163Y-64655572D01*
X67983386Y-64325793D01*
X67981828Y-64318939D01*
X67889639Y-63997439D01*
X67887331Y-63990811D01*
X67759874Y-63681576D01*
X67756845Y-63675256D01*
X67595715Y-63382161D01*
X67591990Y-63376199D01*
X67399202Y-63102905D01*
X67394834Y-63097394D01*
X67242174Y-62925448D01*
X67211905Y-62861227D01*
X67221161Y-62790836D01*
X67247302Y-62752698D01*
X68000000Y-62000000D01*
X68000000Y-55686573D01*
X68020002Y-55618452D01*
X68073658Y-55571959D01*
X68125031Y-55560577D01*
X68170300Y-55560229D01*
X68931213Y-55554376D01*
X68999485Y-55573853D01*
X69007691Y-55579504D01*
X69135848Y-55675441D01*
X69149434Y-55687214D01*
X69312786Y-55850566D01*
X69324559Y-55864152D01*
X69463006Y-56049095D01*
X69472725Y-56064218D01*
X69512209Y-56136527D01*
X69575369Y-56252194D01*
X69583444Y-56266983D01*
X69590910Y-56283330D01*
X69630978Y-56390757D01*
X69671645Y-56499791D01*
X69676710Y-56517040D01*
X69725818Y-56742786D01*
X69728376Y-56760580D01*
X69742931Y-56964077D01*
X69742971Y-56964639D01*
X69742295Y-56975421D01*
X69742935Y-56975421D01*
X69742935Y-56987828D01*
X69740514Y-57000000D01*
X69742935Y-57012170D01*
X69743079Y-57012894D01*
X69745500Y-57037476D01*
X69745500Y-64962524D01*
X69743079Y-64987103D01*
X69740514Y-65000000D01*
X69742935Y-65012170D01*
X69742935Y-65022599D01*
X69743940Y-65035735D01*
X69727682Y-65408102D01*
X69726724Y-65419051D01*
X69682202Y-65757233D01*
X69674123Y-65818596D01*
X69672215Y-65829413D01*
X69614127Y-66091434D01*
X69584992Y-66222854D01*
X69582147Y-66233471D01*
X69471148Y-66585517D01*
X69460967Y-66617806D01*
X69457211Y-66628128D01*
X69315871Y-66969355D01*
X69302987Y-67000459D01*
X69298345Y-67010412D01*
X69147595Y-67300000D01*
X69112266Y-67367867D01*
X69106770Y-67377387D01*
X68890245Y-67717262D01*
X68883941Y-67726266D01*
X68839368Y-67784355D01*
X68638607Y-68045993D01*
X68631555Y-68054397D01*
X68628237Y-68058018D01*
X68359291Y-68351519D01*
X68351519Y-68359291D01*
X68202962Y-68495420D01*
X68054397Y-68631555D01*
X68045993Y-68638607D01*
X67811664Y-68818413D01*
X67726266Y-68883941D01*
X67717262Y-68890245D01*
X67377387Y-69106770D01*
X67367868Y-69112265D01*
X67010412Y-69298345D01*
X67000468Y-69302983D01*
X66628128Y-69457211D01*
X66617813Y-69460964D01*
X66233472Y-69582147D01*
X66222855Y-69584992D01*
X65829413Y-69672215D01*
X65818604Y-69674122D01*
X65419052Y-69726724D01*
X65408103Y-69727682D01*
X65356412Y-69729939D01*
X65035735Y-69743940D01*
X65022599Y-69742935D01*
X65012170Y-69742935D01*
X65000000Y-69740514D01*
X64987103Y-69743079D01*
X64962524Y-69745500D01*
X5037476Y-69745500D01*
X5012897Y-69743079D01*
X5000000Y-69740514D01*
X4987830Y-69742935D01*
X4977401Y-69742935D01*
X4964265Y-69743940D01*
X4643588Y-69729939D01*
X4591897Y-69727682D01*
X4580948Y-69726724D01*
X4181396Y-69674122D01*
X4170587Y-69672215D01*
X3777145Y-69584992D01*
X3766528Y-69582147D01*
X3382187Y-69460964D01*
X3371872Y-69457211D01*
X2999532Y-69302983D01*
X2989588Y-69298345D01*
X2632132Y-69112265D01*
X2622613Y-69106770D01*
X2282738Y-68890245D01*
X2273734Y-68883941D01*
X2188336Y-68818413D01*
X1954007Y-68638607D01*
X1945603Y-68631555D01*
X1797038Y-68495420D01*
X1648481Y-68359291D01*
X1640709Y-68351519D01*
X1371763Y-68058018D01*
X1368445Y-68054397D01*
X1361393Y-68045993D01*
X1160632Y-67784355D01*
X1116059Y-67726266D01*
X1109755Y-67717262D01*
X893230Y-67377387D01*
X887734Y-67367867D01*
X852405Y-67300000D01*
X701655Y-67010412D01*
X697013Y-67000459D01*
X684130Y-66969355D01*
X542789Y-66628128D01*
X539033Y-66617806D01*
X528853Y-66585517D01*
X417853Y-66233471D01*
X415008Y-66222854D01*
X385873Y-66091434D01*
X327785Y-65829413D01*
X325877Y-65818596D01*
X317799Y-65757233D01*
X273276Y-65419051D01*
X272318Y-65408102D01*
X256060Y-65035735D01*
X257065Y-65022599D01*
X257065Y-65012170D01*
X259486Y-65000000D01*
X256921Y-64987103D01*
X254500Y-64962524D01*
X254500Y-61787476D01*
X256921Y-61762894D01*
X257065Y-61762170D01*
X259486Y-61750000D01*
X257065Y-61737828D01*
X257065Y-61725420D01*
X257385Y-61725420D01*
X256645Y-61714544D01*
X270412Y-61486943D01*
X272246Y-61471839D01*
X318376Y-61220115D01*
X322017Y-61205342D01*
X351849Y-61109607D01*
X398156Y-60961004D01*
X403550Y-60946782D01*
X403801Y-60946226D01*
X508580Y-60713414D01*
X515650Y-60699943D01*
X516827Y-60697997D01*
X591406Y-60574628D01*
X648049Y-60480931D01*
X656692Y-60468410D01*
X814519Y-60266957D01*
X824609Y-60255568D01*
X1005568Y-60074609D01*
X1016957Y-60064519D01*
X1033445Y-60051602D01*
X1078924Y-60015971D01*
X1218410Y-59906692D01*
X1230931Y-59898049D01*
X1449943Y-59765650D01*
X1463416Y-59758579D01*
X1696786Y-59653549D01*
X1711004Y-59648156D01*
X1955342Y-59572017D01*
X1970115Y-59568376D01*
X2221839Y-59522246D01*
X2236943Y-59520412D01*
X2464544Y-59506645D01*
X2475420Y-59507385D01*
X2475420Y-59507065D01*
X2487828Y-59507065D01*
X2500000Y-59509486D01*
X2504525Y-59508586D01*
X2808892Y-59491493D01*
X3113900Y-59439670D01*
X3411187Y-59354023D01*
X3471663Y-59328973D01*
X3693748Y-59236983D01*
X3693753Y-59236980D01*
X3697016Y-59235629D01*
X3967791Y-59085977D01*
X4220109Y-58906948D01*
X4450794Y-58700794D01*
X4656948Y-58470109D01*
X4835977Y-58217791D01*
X4985629Y-57947016D01*
X4990768Y-57934611D01*
X5102669Y-57664456D01*
X5102669Y-57664455D01*
X5104023Y-57661187D01*
X5189670Y-57363900D01*
X5241493Y-57058892D01*
X5258586Y-56754525D01*
X5259486Y-56750000D01*
X5256921Y-56737103D01*
X5254500Y-56712524D01*
X5254500Y-49287476D01*
X5256921Y-49262894D01*
X5257065Y-49262170D01*
X5259486Y-49250000D01*
X5258586Y-49245475D01*
X5241493Y-48941108D01*
X5189670Y-48636100D01*
X5104023Y-48338813D01*
X5049312Y-48206729D01*
X4986983Y-48056252D01*
X4986980Y-48056247D01*
X4985629Y-48052984D01*
X4981522Y-48045552D01*
X4928429Y-47949489D01*
X4835977Y-47782209D01*
X4677804Y-47559285D01*
X4658983Y-47532759D01*
X4658983Y-47532758D01*
X4656948Y-47529891D01*
X4536825Y-47395474D01*
X4453139Y-47301830D01*
X4450794Y-47299206D01*
X4220109Y-47093052D01*
X3967791Y-46914023D01*
X3697016Y-46764371D01*
X3693753Y-46763020D01*
X3693748Y-46763017D01*
X3414456Y-46647331D01*
X3414455Y-46647331D01*
X3411187Y-46645977D01*
X3113900Y-46560330D01*
X2808892Y-46508507D01*
X2504525Y-46491414D01*
X2500000Y-46490514D01*
X2487828Y-46492935D01*
X2475420Y-46492935D01*
X2475420Y-46492615D01*
X2464544Y-46493355D01*
X2236943Y-46479588D01*
X2221839Y-46477754D01*
X1970115Y-46431624D01*
X1955342Y-46427983D01*
X1887838Y-46406948D01*
X1711004Y-46351844D01*
X1696786Y-46346451D01*
X1463414Y-46241420D01*
X1449943Y-46234350D01*
X1230931Y-46101951D01*
X1218410Y-46093308D01*
X1016957Y-45935481D01*
X1005568Y-45925391D01*
X824609Y-45744432D01*
X814519Y-45733043D01*
X656692Y-45531590D01*
X648049Y-45519069D01*
X515650Y-45300057D01*
X508579Y-45286584D01*
X470804Y-45202651D01*
X403549Y-45053214D01*
X398154Y-45038991D01*
X393951Y-45025501D01*
X322017Y-44794658D01*
X318376Y-44779885D01*
X272246Y-44528161D01*
X270412Y-44513057D01*
X256645Y-44285456D01*
X257385Y-44274580D01*
X257065Y-44274580D01*
X257065Y-44262172D01*
X259486Y-44250000D01*
X256921Y-44237103D01*
X254500Y-44212524D01*
X254500Y-43616078D01*
X274502Y-43547957D01*
X328158Y-43501464D01*
X398432Y-43491360D01*
X463012Y-43520854D01*
X492466Y-43558289D01*
X534141Y-43639033D01*
X542616Y-43651505D01*
X643846Y-43767547D01*
X655060Y-43777644D01*
X781041Y-43866185D01*
X794345Y-43873318D01*
X937813Y-43929253D01*
X952418Y-43933003D01*
X1069839Y-43948462D01*
X1078048Y-43949000D01*
X1304885Y-43949000D01*
X1320124Y-43944525D01*
X1321329Y-43943135D01*
X1323000Y-43935452D01*
X1323000Y-43930885D01*
X1577000Y-43930885D01*
X1581475Y-43946124D01*
X1582865Y-43947329D01*
X1590548Y-43949000D01*
X1818637Y-43949000D01*
X1826192Y-43948544D01*
X1940420Y-43934721D01*
X1955062Y-43931125D01*
X2099119Y-43876690D01*
X2112480Y-43869705D01*
X2239393Y-43782481D01*
X2250705Y-43772508D01*
X2353146Y-43657531D01*
X2361754Y-43645145D01*
X2433811Y-43509053D01*
X2439216Y-43494973D01*
X2464436Y-43394571D01*
X2463879Y-43380480D01*
X2455387Y-43377000D01*
X1595115Y-43377000D01*
X1579876Y-43381475D01*
X1578671Y-43382865D01*
X1577000Y-43390548D01*
X1577000Y-43930885D01*
X1323000Y-43930885D01*
X1323000Y-43104885D01*
X1577000Y-43104885D01*
X1581475Y-43120124D01*
X1582865Y-43121329D01*
X1590548Y-43123000D01*
X2450293Y-43123000D01*
X2463824Y-43119027D01*
X2465184Y-43109569D01*
X2441746Y-43011948D01*
X2436487Y-42997807D01*
X2365859Y-42860967D01*
X2357384Y-42848495D01*
X2256154Y-42732453D01*
X2244940Y-42722356D01*
X2118959Y-42633815D01*
X2105655Y-42626682D01*
X1962187Y-42570747D01*
X1947582Y-42566997D01*
X1830161Y-42551538D01*
X1821952Y-42551000D01*
X1595115Y-42551000D01*
X1579876Y-42555475D01*
X1578671Y-42556865D01*
X1577000Y-42564548D01*
X1577000Y-43104885D01*
X1323000Y-43104885D01*
X1323000Y-42569115D01*
X1318525Y-42553876D01*
X1317135Y-42552671D01*
X1309452Y-42551000D01*
X1081363Y-42551000D01*
X1073808Y-42551456D01*
X959580Y-42565279D01*
X944938Y-42568875D01*
X800881Y-42623310D01*
X787520Y-42630295D01*
X660607Y-42717519D01*
X649295Y-42727492D01*
X546854Y-42842469D01*
X538246Y-42854855D01*
X491854Y-42942474D01*
X442301Y-42993317D01*
X373127Y-43009299D01*
X306293Y-42985345D01*
X263020Y-42929061D01*
X254500Y-42883515D01*
X254500Y-42438906D01*
X3421000Y-42438906D01*
X3421424Y-42446207D01*
X3434875Y-42561575D01*
X3438221Y-42575730D01*
X3491227Y-42721760D01*
X3497737Y-42734759D01*
X3582917Y-42864680D01*
X3592241Y-42875832D01*
X3705023Y-42982671D01*
X3716670Y-42991384D01*
X3851004Y-43069412D01*
X3864341Y-43075211D01*
X4011777Y-43119865D01*
X4020268Y-43117935D01*
X4023000Y-43107020D01*
X4023000Y-42395115D01*
X4018525Y-42379876D01*
X4017135Y-42378671D01*
X4009452Y-42377000D01*
X3439115Y-42377000D01*
X3423876Y-42381475D01*
X3422671Y-42382865D01*
X3421000Y-42390548D01*
X3421000Y-42438906D01*
X254500Y-42438906D01*
X254500Y-42104885D01*
X3421000Y-42104885D01*
X3425475Y-42120124D01*
X3426865Y-42121329D01*
X3434548Y-42123000D01*
X4004885Y-42123000D01*
X4020124Y-42118525D01*
X4021329Y-42117135D01*
X4023000Y-42109452D01*
X4023000Y-41400228D01*
X4019194Y-41387266D01*
X4004279Y-41385330D01*
X3949989Y-41394659D01*
X3936032Y-41398767D01*
X3793089Y-41459590D01*
X3780456Y-41466796D01*
X3655337Y-41558872D01*
X3644695Y-41568796D01*
X3544115Y-41687187D01*
X3536048Y-41699283D01*
X3465399Y-41837642D01*
X3460330Y-41851270D01*
X3422999Y-42003830D01*
X3421317Y-42014884D01*
X3421120Y-42018061D01*
X3421000Y-42021939D01*
X3421000Y-42104885D01*
X254500Y-42104885D01*
X254500Y-37438906D01*
X3421000Y-37438906D01*
X3421424Y-37446207D01*
X3434875Y-37561575D01*
X3438221Y-37575730D01*
X3491227Y-37721760D01*
X3497737Y-37734759D01*
X3582917Y-37864680D01*
X3592241Y-37875832D01*
X3705023Y-37982671D01*
X3716670Y-37991384D01*
X3851004Y-38069412D01*
X3864341Y-38075211D01*
X4011777Y-38119865D01*
X4020268Y-38117935D01*
X4023000Y-38107020D01*
X4023000Y-37395115D01*
X4018525Y-37379876D01*
X4017135Y-37378671D01*
X4009452Y-37377000D01*
X3439115Y-37377000D01*
X3423876Y-37381475D01*
X3422671Y-37382865D01*
X3421000Y-37390548D01*
X3421000Y-37438906D01*
X254500Y-37438906D01*
X254500Y-37104885D01*
X3421000Y-37104885D01*
X3425475Y-37120124D01*
X3426865Y-37121329D01*
X3434548Y-37123000D01*
X4004885Y-37123000D01*
X4020124Y-37118525D01*
X4021329Y-37117135D01*
X4023000Y-37109452D01*
X4023000Y-36400228D01*
X4019194Y-36387266D01*
X4004279Y-36385330D01*
X3949989Y-36394659D01*
X3936032Y-36398767D01*
X3793089Y-36459590D01*
X3780456Y-36466796D01*
X3655337Y-36558872D01*
X3644695Y-36568796D01*
X3544115Y-36687187D01*
X3536048Y-36699283D01*
X3465399Y-36837642D01*
X3460330Y-36851270D01*
X3422999Y-37003830D01*
X3421317Y-37014884D01*
X3421120Y-37018061D01*
X3421000Y-37021939D01*
X3421000Y-37104885D01*
X254500Y-37104885D01*
X254500Y-36616078D01*
X274502Y-36547957D01*
X328158Y-36501464D01*
X398432Y-36491360D01*
X463012Y-36520854D01*
X492466Y-36558289D01*
X534141Y-36639033D01*
X542616Y-36651505D01*
X643846Y-36767547D01*
X655060Y-36777644D01*
X781041Y-36866185D01*
X794345Y-36873318D01*
X937813Y-36929253D01*
X952418Y-36933003D01*
X1069839Y-36948462D01*
X1078048Y-36949000D01*
X1304885Y-36949000D01*
X1320124Y-36944525D01*
X1321329Y-36943135D01*
X1323000Y-36935452D01*
X1323000Y-36930885D01*
X1577000Y-36930885D01*
X1581475Y-36946124D01*
X1582865Y-36947329D01*
X1590548Y-36949000D01*
X1818637Y-36949000D01*
X1826192Y-36948544D01*
X1940420Y-36934721D01*
X1955062Y-36931125D01*
X2099119Y-36876690D01*
X2112480Y-36869705D01*
X2239393Y-36782481D01*
X2250705Y-36772508D01*
X2353146Y-36657531D01*
X2361754Y-36645145D01*
X2433811Y-36509053D01*
X2439216Y-36494973D01*
X2464436Y-36394571D01*
X2463879Y-36380480D01*
X2455387Y-36377000D01*
X1595115Y-36377000D01*
X1579876Y-36381475D01*
X1578671Y-36382865D01*
X1577000Y-36390548D01*
X1577000Y-36930885D01*
X1323000Y-36930885D01*
X1323000Y-36104885D01*
X1577000Y-36104885D01*
X1581475Y-36120124D01*
X1582865Y-36121329D01*
X1590548Y-36123000D01*
X2450293Y-36123000D01*
X2463824Y-36119027D01*
X2465184Y-36109569D01*
X2441746Y-36011948D01*
X2436487Y-35997807D01*
X2365859Y-35860967D01*
X2357384Y-35848495D01*
X2256154Y-35732453D01*
X2244940Y-35722356D01*
X2118959Y-35633815D01*
X2105655Y-35626682D01*
X1962187Y-35570747D01*
X1947582Y-35566997D01*
X1830161Y-35551538D01*
X1821952Y-35551000D01*
X1595115Y-35551000D01*
X1579876Y-35555475D01*
X1578671Y-35556865D01*
X1577000Y-35564548D01*
X1577000Y-36104885D01*
X1323000Y-36104885D01*
X1323000Y-35569115D01*
X1318525Y-35553876D01*
X1317135Y-35552671D01*
X1309452Y-35551000D01*
X1081363Y-35551000D01*
X1073808Y-35551456D01*
X959580Y-35565279D01*
X944938Y-35568875D01*
X800881Y-35623310D01*
X787520Y-35630295D01*
X660607Y-35717519D01*
X649295Y-35727492D01*
X546854Y-35842469D01*
X538246Y-35854855D01*
X491854Y-35942474D01*
X442301Y-35993317D01*
X373127Y-36009299D01*
X306293Y-35985345D01*
X263020Y-35929061D01*
X254500Y-35883515D01*
X254500Y-5037476D01*
X256921Y-5012894D01*
X259486Y-5000000D01*
X257065Y-4987830D01*
X257065Y-4977401D01*
X256060Y-4964265D01*
X272318Y-4591898D01*
X273276Y-4580948D01*
X275281Y-4565716D01*
X325878Y-4181396D01*
X327786Y-4170579D01*
X338298Y-4123166D01*
X415008Y-3777145D01*
X417853Y-3766528D01*
X429748Y-3728803D01*
X539036Y-3382187D01*
X542792Y-3371865D01*
X564127Y-3320358D01*
X697017Y-2999532D01*
X701659Y-2989579D01*
X725808Y-2943191D01*
X887735Y-2632132D01*
X893230Y-2622613D01*
X898652Y-2614103D01*
X1042346Y-2388548D01*
X1109755Y-2282738D01*
X1116059Y-2273734D01*
X1244998Y-2105697D01*
X1361393Y-1954007D01*
X1368445Y-1945603D01*
X1529485Y-1769860D01*
X1640709Y-1648481D01*
X1648481Y-1640709D01*
X1869499Y-1438182D01*
X1945603Y-1368445D01*
X1954007Y-1361393D01*
X2273734Y-1116059D01*
X2282738Y-1109755D01*
X2590179Y-913893D01*
X2622615Y-893229D01*
X2632133Y-887734D01*
X2704781Y-849916D01*
X2989588Y-701655D01*
X2999532Y-697017D01*
X3371872Y-542789D01*
X3382187Y-539036D01*
X3766529Y-417853D01*
X3777146Y-415008D01*
X4170587Y-327785D01*
X4181396Y-325878D01*
X4580949Y-273276D01*
X4591897Y-272318D01*
X4643588Y-270061D01*
X4964265Y-256060D01*
X4977401Y-257065D01*
X4987830Y-257065D01*
X5000000Y-259486D01*
X5012897Y-256921D01*
X5037476Y-254500D01*
X64962524Y-254500D01*
X64987103Y-256921D01*
G37*
%TD.AperFunction*%
%TA.AperFunction,Conductor*%
G36*
X29942121Y-43020002D02*
G01*
X29988614Y-43073658D01*
X30000000Y-43126000D01*
X30000000Y-48398466D01*
X29979998Y-48466587D01*
X29933469Y-48505464D01*
X29935139Y-48508356D01*
X29927989Y-48512484D01*
X29920358Y-48515645D01*
X29804526Y-48604526D01*
X29715645Y-48720358D01*
X29659772Y-48855246D01*
X29640715Y-49000000D01*
X29659772Y-49144754D01*
X29662931Y-49152380D01*
X29697421Y-49235645D01*
X29715645Y-49279642D01*
X29804526Y-49395474D01*
X29811076Y-49400500D01*
X29811079Y-49400503D01*
X29863019Y-49440358D01*
X29920357Y-49484355D01*
X29927986Y-49487515D01*
X29935141Y-49491646D01*
X29933607Y-49494302D01*
X29977504Y-49529681D01*
X30000000Y-49601535D01*
X30000000Y-51874000D01*
X29979998Y-51942121D01*
X29926342Y-51988614D01*
X29874000Y-52000000D01*
X26848889Y-52000000D01*
X26780768Y-51979998D01*
X26734275Y-51926342D01*
X26724171Y-51856068D01*
X26753665Y-51791488D01*
X26772181Y-51774041D01*
X26835474Y-51725474D01*
X26924355Y-51609642D01*
X26980228Y-51474754D01*
X26987871Y-51416704D01*
X26998207Y-51338188D01*
X26999285Y-51330000D01*
X26980228Y-51185246D01*
X26924355Y-51050358D01*
X26835474Y-50934526D01*
X26828924Y-50929500D01*
X26828921Y-50929497D01*
X26726196Y-50850673D01*
X26726194Y-50850672D01*
X26719643Y-50845645D01*
X26584754Y-50789772D01*
X26440000Y-50770715D01*
X26431812Y-50771793D01*
X26303432Y-50788694D01*
X26303430Y-50788695D01*
X26295246Y-50789772D01*
X26247430Y-50809578D01*
X26167986Y-50842485D01*
X26167984Y-50842486D01*
X26160358Y-50845645D01*
X26044526Y-50934526D01*
X25955645Y-51050358D01*
X25899772Y-51185246D01*
X25880715Y-51330000D01*
X25881793Y-51338188D01*
X25892130Y-51416704D01*
X25899772Y-51474754D01*
X25955645Y-51609642D01*
X26044526Y-51725474D01*
X26051075Y-51730499D01*
X26051079Y-51730503D01*
X26076086Y-51749691D01*
X26117953Y-51807029D01*
X26122175Y-51877900D01*
X26087411Y-51939803D01*
X26076085Y-51949616D01*
X26044355Y-51973963D01*
X25978135Y-51999563D01*
X25967652Y-52000000D01*
X24126000Y-52000000D01*
X24057879Y-51979998D01*
X24011386Y-51926342D01*
X24000000Y-51874000D01*
X24000000Y-51721261D01*
X24020002Y-51653140D01*
X24073658Y-51606647D01*
X24143932Y-51596543D01*
X24186510Y-51610742D01*
X24193883Y-51614779D01*
X24313265Y-51659533D01*
X24328510Y-51663158D01*
X24378892Y-51668631D01*
X24385706Y-51669000D01*
X24534885Y-51669000D01*
X24550124Y-51664525D01*
X24551329Y-51663135D01*
X24553000Y-51655452D01*
X24553000Y-51650884D01*
X24807000Y-51650884D01*
X24811475Y-51666123D01*
X24812865Y-51667328D01*
X24820548Y-51668999D01*
X24974292Y-51668999D01*
X24981110Y-51668630D01*
X25031482Y-51663159D01*
X25046741Y-51659530D01*
X25166118Y-51614778D01*
X25181704Y-51606246D01*
X25282867Y-51530428D01*
X25295428Y-51517867D01*
X25371246Y-51416704D01*
X25379778Y-51401118D01*
X25424533Y-51281735D01*
X25428158Y-51266490D01*
X25433631Y-51216108D01*
X25434000Y-51209294D01*
X25434000Y-50835115D01*
X25429525Y-50819876D01*
X25428135Y-50818671D01*
X25420452Y-50817000D01*
X24825115Y-50817000D01*
X24809876Y-50821475D01*
X24808671Y-50822865D01*
X24807000Y-50830548D01*
X24807000Y-51650884D01*
X24553000Y-51650884D01*
X24553000Y-50689000D01*
X24573002Y-50620879D01*
X24626658Y-50574386D01*
X24679000Y-50563000D01*
X25415884Y-50563000D01*
X25431123Y-50558525D01*
X25432328Y-50557135D01*
X25433999Y-50549452D01*
X25433999Y-50402423D01*
X25454001Y-50334302D01*
X25507657Y-50287809D01*
X25543553Y-50277501D01*
X25666566Y-50261306D01*
X25674754Y-50260228D01*
X25809643Y-50204355D01*
X25816196Y-50199327D01*
X25918921Y-50120503D01*
X25918924Y-50120500D01*
X25925474Y-50115474D01*
X26014355Y-49999642D01*
X26070228Y-49864754D01*
X26089285Y-49720000D01*
X26070228Y-49575246D01*
X26036700Y-49494302D01*
X26017515Y-49447986D01*
X26017514Y-49447984D01*
X26014355Y-49440358D01*
X25925474Y-49324526D01*
X25918924Y-49319500D01*
X25918921Y-49319497D01*
X25816196Y-49240673D01*
X25816194Y-49240672D01*
X25809643Y-49235645D01*
X25674754Y-49179772D01*
X25553554Y-49163816D01*
X25488627Y-49135094D01*
X25449535Y-49075829D01*
X25444000Y-49038894D01*
X25444000Y-48775115D01*
X25439525Y-48759876D01*
X25438135Y-48758671D01*
X25430452Y-48757000D01*
X24689000Y-48757000D01*
X24620879Y-48736998D01*
X24574386Y-48683342D01*
X24563000Y-48631000D01*
X24563000Y-48629000D01*
X24583002Y-48560879D01*
X24636658Y-48514386D01*
X24689000Y-48503000D01*
X25425884Y-48503000D01*
X25441123Y-48498525D01*
X25442328Y-48497135D01*
X25443999Y-48489452D01*
X25443999Y-48110708D01*
X25443630Y-48103890D01*
X25438159Y-48053518D01*
X25434530Y-48038259D01*
X25389778Y-47918882D01*
X25381246Y-47903296D01*
X25305428Y-47802133D01*
X25292867Y-47789572D01*
X25209145Y-47726826D01*
X25166630Y-47669967D01*
X25161604Y-47599149D01*
X25195664Y-47536855D01*
X25257995Y-47502865D01*
X25284710Y-47500000D01*
X27000000Y-47500000D01*
X27000000Y-47228828D01*
X27426001Y-47228828D01*
X27427209Y-47241088D01*
X27438315Y-47296931D01*
X27447633Y-47319427D01*
X27489983Y-47382808D01*
X27507192Y-47400017D01*
X27570575Y-47442368D01*
X27593066Y-47451684D01*
X27648915Y-47462793D01*
X27661170Y-47464000D01*
X28084885Y-47464000D01*
X28100124Y-47459525D01*
X28101329Y-47458135D01*
X28103000Y-47450452D01*
X28103000Y-47445884D01*
X28357000Y-47445884D01*
X28361475Y-47461123D01*
X28362865Y-47462328D01*
X28370548Y-47463999D01*
X28798828Y-47463999D01*
X28811088Y-47462791D01*
X28866931Y-47451685D01*
X28889427Y-47442367D01*
X28952808Y-47400017D01*
X28970017Y-47382808D01*
X29012368Y-47319425D01*
X29021684Y-47296934D01*
X29032793Y-47241085D01*
X29034000Y-47228830D01*
X29034000Y-45505115D01*
X29029525Y-45489876D01*
X29028135Y-45488671D01*
X29020452Y-45487000D01*
X28375115Y-45487000D01*
X28359876Y-45491475D01*
X28358671Y-45492865D01*
X28357000Y-45500548D01*
X28357000Y-47445884D01*
X28103000Y-47445884D01*
X28103000Y-45505115D01*
X28098525Y-45489876D01*
X28097135Y-45488671D01*
X28089452Y-45487000D01*
X27444116Y-45487000D01*
X27428877Y-45491475D01*
X27427672Y-45492865D01*
X27426001Y-45500548D01*
X27426001Y-47228828D01*
X27000000Y-47228828D01*
X27000000Y-45214885D01*
X27426000Y-45214885D01*
X27430475Y-45230124D01*
X27431865Y-45231329D01*
X27439548Y-45233000D01*
X28084885Y-45233000D01*
X28100124Y-45228525D01*
X28101329Y-45227135D01*
X28103000Y-45219452D01*
X28103000Y-45214885D01*
X28357000Y-45214885D01*
X28361475Y-45230124D01*
X28362865Y-45231329D01*
X28370548Y-45233000D01*
X29015884Y-45233000D01*
X29031123Y-45228525D01*
X29032328Y-45227135D01*
X29033999Y-45219452D01*
X29033999Y-43491172D01*
X29032791Y-43478912D01*
X29021685Y-43423069D01*
X29012367Y-43400573D01*
X28970017Y-43337192D01*
X28952808Y-43319983D01*
X28889425Y-43277632D01*
X28866934Y-43268316D01*
X28811085Y-43257207D01*
X28798830Y-43256000D01*
X28375115Y-43256000D01*
X28359876Y-43260475D01*
X28358671Y-43261865D01*
X28357000Y-43269548D01*
X28357000Y-45214885D01*
X28103000Y-45214885D01*
X28103000Y-43274116D01*
X28098525Y-43258877D01*
X28097135Y-43257672D01*
X28089452Y-43256001D01*
X27661172Y-43256001D01*
X27648912Y-43257209D01*
X27593069Y-43268315D01*
X27570573Y-43277633D01*
X27507192Y-43319983D01*
X27489983Y-43337192D01*
X27447632Y-43400575D01*
X27438316Y-43423066D01*
X27427207Y-43478915D01*
X27426000Y-43491170D01*
X27426000Y-45214885D01*
X27000000Y-45214885D01*
X27000000Y-43126000D01*
X27020002Y-43057879D01*
X27073658Y-43011386D01*
X27126000Y-43000000D01*
X29874000Y-43000000D01*
X29942121Y-43020002D01*
G37*
%TD.AperFunction*%
%TA.AperFunction,Conductor*%
G36*
X22722121Y-41690002D02*
G01*
X22768614Y-41743658D01*
X22780000Y-41796000D01*
X22780000Y-42201311D01*
X22766267Y-42258513D01*
X22719929Y-42349457D01*
X22713876Y-42368087D01*
X22701775Y-42444492D01*
X22701000Y-42454338D01*
X22701000Y-42469885D01*
X22705475Y-42485124D01*
X22706865Y-42486329D01*
X22714548Y-42488000D01*
X22780000Y-42488000D01*
X22780000Y-42742000D01*
X22719115Y-42742000D01*
X22703876Y-42746475D01*
X22702671Y-42747865D01*
X22701000Y-42755548D01*
X22701000Y-42775662D01*
X22701775Y-42785508D01*
X22713876Y-42861913D01*
X22719929Y-42880543D01*
X22766267Y-42971487D01*
X22780000Y-43028689D01*
X22780000Y-43220212D01*
X22766267Y-43277414D01*
X22714946Y-43378138D01*
X22713396Y-43387927D01*
X22713395Y-43387929D01*
X22709908Y-43409946D01*
X22700500Y-43469347D01*
X22700501Y-43800652D01*
X22714946Y-43891862D01*
X22719449Y-43900699D01*
X22719449Y-43900700D01*
X22766267Y-43992585D01*
X22780000Y-44049788D01*
X22780000Y-44229500D01*
X22759998Y-44297621D01*
X22706342Y-44344114D01*
X22654000Y-44355500D01*
X22290666Y-44355500D01*
X22195945Y-44370502D01*
X22081777Y-44428674D01*
X21991174Y-44519277D01*
X21933002Y-44633445D01*
X21918000Y-44728166D01*
X21918000Y-45091834D01*
X21933002Y-45186555D01*
X21991174Y-45300723D01*
X21998189Y-45307738D01*
X22000825Y-45311366D01*
X22024685Y-45378233D01*
X22008607Y-45447385D01*
X22000826Y-45459492D01*
X21987082Y-45478408D01*
X21937985Y-45574768D01*
X21931933Y-45593392D01*
X21919275Y-45673315D01*
X21918500Y-45683158D01*
X21918500Y-45714885D01*
X21922975Y-45730124D01*
X21924365Y-45731329D01*
X21932048Y-45733000D01*
X22780000Y-45733000D01*
X22780000Y-45987000D01*
X21936616Y-45987000D01*
X21921377Y-45991475D01*
X21920172Y-45992865D01*
X21918501Y-46000548D01*
X21918501Y-46036840D01*
X21919276Y-46046687D01*
X21931933Y-46126607D01*
X21937985Y-46145233D01*
X21987081Y-46241589D01*
X22000825Y-46260505D01*
X22024685Y-46327372D01*
X22008607Y-46396524D01*
X22000826Y-46408631D01*
X21998185Y-46412266D01*
X21991174Y-46419277D01*
X21986674Y-46428109D01*
X21986673Y-46428110D01*
X21978817Y-46443529D01*
X21933002Y-46533445D01*
X21918000Y-46628166D01*
X21918000Y-46991834D01*
X21933002Y-47086555D01*
X21991174Y-47200723D01*
X22081777Y-47291326D01*
X22195945Y-47349498D01*
X22290666Y-47364500D01*
X22654000Y-47364500D01*
X22722121Y-47384502D01*
X22768614Y-47438158D01*
X22780000Y-47490500D01*
X22780000Y-47525001D01*
X22759998Y-47593122D01*
X22706342Y-47639615D01*
X22654000Y-47651001D01*
X22495708Y-47651001D01*
X22488890Y-47651370D01*
X22438518Y-47656841D01*
X22423259Y-47660470D01*
X22303882Y-47705222D01*
X22288296Y-47713754D01*
X22187133Y-47789572D01*
X22174572Y-47802133D01*
X22098754Y-47903296D01*
X22090222Y-47918882D01*
X22045467Y-48038265D01*
X22041842Y-48053510D01*
X22036369Y-48103892D01*
X22036000Y-48110706D01*
X22036000Y-48484885D01*
X22040475Y-48500124D01*
X22041865Y-48501329D01*
X22049548Y-48503000D01*
X22791000Y-48503000D01*
X22859121Y-48523002D01*
X22905614Y-48576658D01*
X22917000Y-48629000D01*
X22917000Y-48631000D01*
X22896998Y-48699121D01*
X22843342Y-48745614D01*
X22791000Y-48757000D01*
X22054116Y-48757000D01*
X22038877Y-48761475D01*
X22037672Y-48762865D01*
X22036001Y-48770548D01*
X22036001Y-49149292D01*
X22036370Y-49156110D01*
X22041841Y-49206482D01*
X22045470Y-49221741D01*
X22090222Y-49341118D01*
X22098754Y-49356704D01*
X22174572Y-49457867D01*
X22187133Y-49470428D01*
X22288297Y-49546246D01*
X22289208Y-49546745D01*
X22289935Y-49547474D01*
X22295478Y-49551628D01*
X22294878Y-49552428D01*
X22339353Y-49597005D01*
X22354365Y-49666396D01*
X22329477Y-49732888D01*
X22289202Y-49767784D01*
X22278296Y-49773755D01*
X22177133Y-49849572D01*
X22164572Y-49862133D01*
X22088754Y-49963296D01*
X22080222Y-49978882D01*
X22035467Y-50098265D01*
X22031842Y-50113510D01*
X22026369Y-50163892D01*
X22026000Y-50170706D01*
X22026000Y-50544885D01*
X22030475Y-50560124D01*
X22031865Y-50561329D01*
X22039548Y-50563000D01*
X22781000Y-50563000D01*
X22849121Y-50583002D01*
X22895614Y-50636658D01*
X22907000Y-50689000D01*
X22907000Y-51650884D01*
X22911475Y-51666123D01*
X22912865Y-51667328D01*
X22920548Y-51668999D01*
X23074292Y-51668999D01*
X23081110Y-51668630D01*
X23131482Y-51663159D01*
X23146741Y-51659530D01*
X23266118Y-51614778D01*
X23281704Y-51606246D01*
X23382867Y-51530428D01*
X23395428Y-51517867D01*
X23471242Y-51416709D01*
X23483479Y-51394357D01*
X23533737Y-51344211D01*
X23603128Y-51329196D01*
X23669621Y-51354081D01*
X23712104Y-51410963D01*
X23720000Y-51454865D01*
X23720000Y-51884000D01*
X23699998Y-51952121D01*
X23646342Y-51998614D01*
X23594000Y-52010000D01*
X19746000Y-52010000D01*
X19677879Y-51989998D01*
X19631386Y-51936342D01*
X19620000Y-51884000D01*
X19620000Y-51209292D01*
X22026001Y-51209292D01*
X22026370Y-51216110D01*
X22031841Y-51266482D01*
X22035470Y-51281741D01*
X22080222Y-51401118D01*
X22088754Y-51416704D01*
X22164572Y-51517867D01*
X22177133Y-51530428D01*
X22278296Y-51606246D01*
X22293882Y-51614778D01*
X22413265Y-51659533D01*
X22428510Y-51663158D01*
X22478892Y-51668631D01*
X22485706Y-51669000D01*
X22634885Y-51669000D01*
X22650124Y-51664525D01*
X22651329Y-51663135D01*
X22653000Y-51655452D01*
X22653000Y-50835115D01*
X22648525Y-50819876D01*
X22647135Y-50818671D01*
X22639452Y-50817000D01*
X22044116Y-50817000D01*
X22028877Y-50821475D01*
X22027672Y-50822865D01*
X22026001Y-50830548D01*
X22026001Y-51209292D01*
X19620000Y-51209292D01*
X19620000Y-50220139D01*
X19640002Y-50152018D01*
X19655329Y-50132647D01*
X19675798Y-50111434D01*
X19682056Y-50104949D01*
X19728987Y-50015230D01*
X19730730Y-50009294D01*
X19747720Y-49951432D01*
X19747721Y-49951428D01*
X19748989Y-49947109D01*
X19752149Y-49925135D01*
X19758861Y-49878448D01*
X19758861Y-49878441D01*
X19759500Y-49874000D01*
X19759500Y-49564576D01*
X19755813Y-49535257D01*
X19767161Y-49465174D01*
X19814597Y-49412350D01*
X19883062Y-49393559D01*
X19950818Y-49414765D01*
X19981658Y-49443978D01*
X19984574Y-49447869D01*
X19997133Y-49460428D01*
X20098296Y-49536246D01*
X20113882Y-49544778D01*
X20233265Y-49589533D01*
X20248510Y-49593158D01*
X20298892Y-49598631D01*
X20305706Y-49599000D01*
X20454885Y-49599000D01*
X20470124Y-49594525D01*
X20471329Y-49593135D01*
X20473000Y-49585452D01*
X20473000Y-49580884D01*
X20727000Y-49580884D01*
X20731475Y-49596123D01*
X20732865Y-49597328D01*
X20740548Y-49598999D01*
X20894292Y-49598999D01*
X20901110Y-49598630D01*
X20951482Y-49593159D01*
X20966741Y-49589530D01*
X21086118Y-49544778D01*
X21101704Y-49536246D01*
X21202867Y-49460428D01*
X21215428Y-49447867D01*
X21291246Y-49346704D01*
X21299778Y-49331118D01*
X21344533Y-49211735D01*
X21348158Y-49196490D01*
X21353631Y-49146108D01*
X21354000Y-49139294D01*
X21354000Y-48765115D01*
X21349525Y-48749876D01*
X21348135Y-48748671D01*
X21340452Y-48747000D01*
X20745115Y-48747000D01*
X20729876Y-48751475D01*
X20728671Y-48752865D01*
X20727000Y-48760548D01*
X20727000Y-49580884D01*
X20473000Y-49580884D01*
X20473000Y-48474885D01*
X20727000Y-48474885D01*
X20731475Y-48490124D01*
X20732865Y-48491329D01*
X20740548Y-48493000D01*
X21335884Y-48493000D01*
X21351123Y-48488525D01*
X21352328Y-48487135D01*
X21353999Y-48479452D01*
X21353999Y-48100708D01*
X21353630Y-48093890D01*
X21348159Y-48043518D01*
X21344530Y-48028259D01*
X21299778Y-47908882D01*
X21291246Y-47893296D01*
X21215428Y-47792133D01*
X21202867Y-47779572D01*
X21101704Y-47703754D01*
X21086118Y-47695222D01*
X20966735Y-47650467D01*
X20951490Y-47646842D01*
X20901108Y-47641369D01*
X20894294Y-47641000D01*
X20745115Y-47641000D01*
X20728912Y-47645758D01*
X20727000Y-47654545D01*
X20727000Y-48474885D01*
X20473000Y-48474885D01*
X20473000Y-47659116D01*
X20465547Y-47633734D01*
X20465547Y-47562738D01*
X20503930Y-47503012D01*
X20546073Y-47480000D01*
X20560000Y-47480000D01*
X20560000Y-47466456D01*
X20560596Y-47463716D01*
X20594621Y-47401404D01*
X20656934Y-47367379D01*
X20683716Y-47364500D01*
X21104334Y-47364500D01*
X21199055Y-47349498D01*
X21313223Y-47291326D01*
X21403826Y-47200723D01*
X21461998Y-47086555D01*
X21477000Y-46991834D01*
X21477000Y-46628166D01*
X21461998Y-46533445D01*
X21457496Y-46524610D01*
X21457495Y-46524606D01*
X21451737Y-46513305D01*
X21438632Y-46443529D01*
X21461804Y-46382405D01*
X21466802Y-46375474D01*
X21473056Y-46368993D01*
X21519987Y-46279274D01*
X21539989Y-46211153D01*
X21549467Y-46145233D01*
X21549861Y-46142492D01*
X21549861Y-46142485D01*
X21550500Y-46138044D01*
X21550500Y-45986000D01*
X21548291Y-45965450D01*
X21544932Y-45934205D01*
X21544931Y-45934199D01*
X21544570Y-45930841D01*
X21533184Y-45878499D01*
X21525834Y-45851709D01*
X21475731Y-45763722D01*
X21449110Y-45733000D01*
X21431078Y-45712189D01*
X21431073Y-45712184D01*
X21429238Y-45710066D01*
X21395949Y-45677944D01*
X21306230Y-45631013D01*
X21302725Y-45629984D01*
X21247742Y-45586479D01*
X21224720Y-45519318D01*
X21241663Y-45450373D01*
X21293393Y-45401430D01*
X21313223Y-45391326D01*
X21403826Y-45300723D01*
X21461998Y-45186555D01*
X21477000Y-45091834D01*
X21477000Y-44728166D01*
X21461998Y-44633445D01*
X21403826Y-44519277D01*
X21313223Y-44428674D01*
X21199055Y-44370502D01*
X21104334Y-44355500D01*
X20686000Y-44355500D01*
X20617879Y-44335498D01*
X20571386Y-44281842D01*
X20560000Y-44229500D01*
X20560000Y-43380000D01*
X19734911Y-43380000D01*
X19666790Y-43359998D01*
X19620297Y-43306342D01*
X19610462Y-43234290D01*
X19623725Y-43150546D01*
X19624500Y-43145653D01*
X19624499Y-42714348D01*
X19610054Y-42623138D01*
X19554040Y-42513204D01*
X19466796Y-42425960D01*
X19356862Y-42369946D01*
X19347073Y-42368396D01*
X19347071Y-42368395D01*
X19316378Y-42363534D01*
X19265653Y-42355500D01*
X19100034Y-42355500D01*
X18934348Y-42355501D01*
X18929455Y-42356276D01*
X18929454Y-42356276D01*
X18852936Y-42368394D01*
X18852934Y-42368395D01*
X18843138Y-42369946D01*
X18733204Y-42425960D01*
X18678742Y-42480422D01*
X18616430Y-42514448D01*
X18545615Y-42509383D01*
X18500552Y-42480422D01*
X18453510Y-42433380D01*
X18437667Y-42421869D01*
X18345540Y-42374928D01*
X18326913Y-42368876D01*
X18250508Y-42356775D01*
X18240662Y-42356000D01*
X18225115Y-42356000D01*
X18209876Y-42360475D01*
X18208671Y-42361865D01*
X18207000Y-42369548D01*
X18207000Y-42931000D01*
X18186998Y-42999121D01*
X18133342Y-43045614D01*
X18081000Y-43057000D01*
X18079000Y-43057000D01*
X18010879Y-43036998D01*
X17964386Y-42983342D01*
X17953000Y-42931000D01*
X17953000Y-42374115D01*
X17948525Y-42358876D01*
X17947135Y-42357671D01*
X17939452Y-42356000D01*
X17919338Y-42356000D01*
X17909492Y-42356775D01*
X17905210Y-42357453D01*
X17834799Y-42348353D01*
X17780485Y-42302631D01*
X17759500Y-42233004D01*
X17759500Y-41796000D01*
X17779502Y-41727879D01*
X17833158Y-41681386D01*
X17885500Y-41670000D01*
X22654000Y-41670000D01*
X22722121Y-41690002D01*
G37*
%TD.AperFunction*%
%TA.AperFunction,Conductor*%
G36*
X62700302Y-58626723D02*
G01*
X62750421Y-58677008D01*
X62757714Y-58692978D01*
X62765083Y-58712635D01*
X62770463Y-58719814D01*
X62770465Y-58719817D01*
X62842077Y-58815367D01*
X62847456Y-58822544D01*
X62854633Y-58827923D01*
X62949566Y-58899072D01*
X62992080Y-58955932D01*
X63000000Y-58999898D01*
X63000000Y-60874000D01*
X62979998Y-60942121D01*
X62926342Y-60988614D01*
X62874000Y-61000000D01*
X62670796Y-61000000D01*
X62602675Y-60979998D01*
X62556182Y-60926342D01*
X62546078Y-60856068D01*
X62569970Y-60798435D01*
X62601245Y-60756704D01*
X62609778Y-60741118D01*
X62654533Y-60621735D01*
X62658158Y-60606490D01*
X62663631Y-60556108D01*
X62664000Y-60549294D01*
X62664000Y-60175115D01*
X62659525Y-60159876D01*
X62658135Y-60158671D01*
X62650452Y-60157000D01*
X61909000Y-60157000D01*
X61840879Y-60136998D01*
X61794386Y-60083342D01*
X61783000Y-60031000D01*
X61783000Y-60029000D01*
X61803002Y-59960879D01*
X61856658Y-59914386D01*
X61909000Y-59903000D01*
X62645884Y-59903000D01*
X62661123Y-59898525D01*
X62662328Y-59897135D01*
X62663999Y-59889452D01*
X62663999Y-59510708D01*
X62663630Y-59503890D01*
X62658159Y-59453518D01*
X62654530Y-59438259D01*
X62609778Y-59318882D01*
X62601246Y-59303296D01*
X62525428Y-59202133D01*
X62512867Y-59189572D01*
X62411704Y-59113754D01*
X62396118Y-59105222D01*
X62383926Y-59100651D01*
X62327161Y-59058010D01*
X62302461Y-58991448D01*
X62317668Y-58922100D01*
X62352589Y-58881843D01*
X62425010Y-58827566D01*
X62437566Y-58815010D01*
X62509092Y-58719575D01*
X62517626Y-58703986D01*
X62521751Y-58692982D01*
X62564391Y-58636217D01*
X62630953Y-58611516D01*
X62700302Y-58626723D01*
G37*
%TD.AperFunction*%
%TA.AperFunction,Conductor*%
G36*
X63441303Y-55616608D02*
G01*
X63488208Y-55669905D01*
X63500000Y-55723127D01*
X63500000Y-56835210D01*
X63479998Y-56903331D01*
X63426342Y-56949824D01*
X63356068Y-56959928D01*
X63325782Y-56951619D01*
X63272281Y-56929458D01*
X63217000Y-56884909D01*
X63196278Y-56818732D01*
X63194887Y-56818841D01*
X63194499Y-56813911D01*
X63194499Y-56808956D01*
X63179868Y-56716573D01*
X63123135Y-56605229D01*
X63106648Y-56588742D01*
X63072622Y-56526430D01*
X63077687Y-56455615D01*
X63106648Y-56410552D01*
X63115715Y-56401485D01*
X63127226Y-56385642D01*
X63174886Y-56292103D01*
X63180938Y-56273479D01*
X63193225Y-56195897D01*
X63194000Y-56186054D01*
X63194000Y-56165115D01*
X63189525Y-56149876D01*
X63188135Y-56148671D01*
X63180452Y-56147000D01*
X62242115Y-56147000D01*
X62225441Y-56151896D01*
X62189943Y-56157000D01*
X61619000Y-56157000D01*
X61550879Y-56136998D01*
X61504386Y-56083342D01*
X61493000Y-56031000D01*
X61493000Y-56029000D01*
X61513002Y-55960879D01*
X61566658Y-55914386D01*
X61619000Y-55903000D01*
X62007885Y-55903000D01*
X62024559Y-55898104D01*
X62060057Y-55893000D01*
X63175884Y-55893000D01*
X63191123Y-55888525D01*
X63192328Y-55887135D01*
X63193999Y-55879452D01*
X63193999Y-55853949D01*
X63193224Y-55844100D01*
X63180938Y-55766525D01*
X63179674Y-55762634D01*
X63179531Y-55757642D01*
X63179387Y-55756730D01*
X63179505Y-55756711D01*
X63177648Y-55691666D01*
X63214312Y-55630869D01*
X63278024Y-55599545D01*
X63298539Y-55597704D01*
X63373031Y-55597131D01*
X63441303Y-55616608D01*
G37*
%TD.AperFunction*%
%TA.AperFunction,Conductor*%
G36*
X60926757Y-53020002D02*
G01*
X60973250Y-53073658D01*
X60983558Y-53142446D01*
X60970715Y-53240000D01*
X60971793Y-53248188D01*
X60971793Y-53248190D01*
X60983031Y-53333555D01*
X60972091Y-53403703D01*
X60924963Y-53456801D01*
X60858109Y-53476000D01*
X60855115Y-53476000D01*
X60839876Y-53480475D01*
X60838671Y-53481865D01*
X60837000Y-53489548D01*
X60837000Y-54481000D01*
X60816998Y-54549121D01*
X60763342Y-54595614D01*
X60711000Y-54607000D01*
X60709000Y-54607000D01*
X60640879Y-54586998D01*
X60594386Y-54533342D01*
X60583000Y-54481000D01*
X60583000Y-53494116D01*
X60578525Y-53478877D01*
X60577135Y-53477672D01*
X60569452Y-53476001D01*
X60241172Y-53476001D01*
X60228912Y-53477209D01*
X60160894Y-53490737D01*
X60160609Y-53489303D01*
X60103622Y-53495427D01*
X60040137Y-53463644D01*
X60003912Y-53402584D01*
X60000000Y-53371430D01*
X60000000Y-53126000D01*
X60020002Y-53057879D01*
X60073658Y-53011386D01*
X60126000Y-53000000D01*
X60858636Y-53000000D01*
X60926757Y-53020002D01*
G37*
%TD.AperFunction*%
%TA.AperFunction,Conductor*%
G36*
X43984100Y-31520002D02*
G01*
X43990042Y-31524066D01*
X43997266Y-31529315D01*
X44004277Y-31536326D01*
X44013109Y-31540826D01*
X44013110Y-31540827D01*
X44046577Y-31557879D01*
X44118445Y-31594498D01*
X44213166Y-31609500D01*
X44576834Y-31609500D01*
X44671555Y-31594498D01*
X44743423Y-31557879D01*
X44776890Y-31540827D01*
X44776891Y-31540826D01*
X44785723Y-31536326D01*
X44792734Y-31529315D01*
X44795938Y-31526987D01*
X44862805Y-31503128D01*
X44931957Y-31519207D01*
X44944058Y-31526984D01*
X44947265Y-31529314D01*
X44948789Y-31530838D01*
X44991414Y-31586111D01*
X45000000Y-31631828D01*
X45000000Y-32028172D01*
X44979998Y-32096293D01*
X44951749Y-32126202D01*
X44947263Y-32130688D01*
X44943625Y-32133331D01*
X44876756Y-32157186D01*
X44807606Y-32141102D01*
X44795505Y-32133325D01*
X44776589Y-32119581D01*
X44680232Y-32070485D01*
X44661608Y-32064433D01*
X44581685Y-32051775D01*
X44571842Y-32051000D01*
X44540115Y-32051000D01*
X44524876Y-32055475D01*
X44523671Y-32056865D01*
X44522000Y-32064548D01*
X44522000Y-32968500D01*
X44501998Y-33036621D01*
X44448342Y-33083114D01*
X44396000Y-33094500D01*
X43859116Y-33094500D01*
X43843877Y-33098975D01*
X43842672Y-33100365D01*
X43841001Y-33108048D01*
X43841001Y-33506840D01*
X43841776Y-33516687D01*
X43854433Y-33596607D01*
X43860485Y-33615232D01*
X43889484Y-33672146D01*
X43902588Y-33741923D01*
X43875888Y-33807707D01*
X43816153Y-33849182D01*
X43797896Y-33855114D01*
X43704358Y-33902774D01*
X43688515Y-33914285D01*
X43614285Y-33988515D01*
X43602774Y-34004358D01*
X43555114Y-34097897D01*
X43549062Y-34116521D01*
X43536775Y-34194103D01*
X43536000Y-34203946D01*
X43536000Y-34224885D01*
X43540475Y-34240124D01*
X43541865Y-34241329D01*
X43549548Y-34243000D01*
X44101000Y-34243000D01*
X44169121Y-34263002D01*
X44215614Y-34316658D01*
X44227000Y-34369000D01*
X44227000Y-34371000D01*
X44206998Y-34439121D01*
X44153342Y-34485614D01*
X44101000Y-34497000D01*
X43554116Y-34497000D01*
X43538877Y-34501475D01*
X43537672Y-34502865D01*
X43536001Y-34510548D01*
X43536001Y-34536051D01*
X43536776Y-34545900D01*
X43549061Y-34623472D01*
X43555116Y-34642108D01*
X43602774Y-34735642D01*
X43614285Y-34751485D01*
X43623352Y-34760552D01*
X43657378Y-34822864D01*
X43652313Y-34893679D01*
X43623352Y-34938742D01*
X43606865Y-34955229D01*
X43605920Y-34954284D01*
X43557769Y-34991415D01*
X43512055Y-35000000D01*
X43000000Y-35000000D01*
X43000000Y-35874000D01*
X42979998Y-35942121D01*
X42926342Y-35988614D01*
X42874000Y-36000000D01*
X42641829Y-36000000D01*
X42573708Y-35979998D01*
X42527215Y-35926342D01*
X42516566Y-35887607D01*
X42513984Y-35863834D01*
X42513983Y-35863830D01*
X42513130Y-35855976D01*
X42464917Y-35727365D01*
X42459537Y-35720186D01*
X42459535Y-35720183D01*
X42387923Y-35624633D01*
X42382544Y-35617456D01*
X42375367Y-35612077D01*
X42279817Y-35540465D01*
X42279814Y-35540463D01*
X42272635Y-35535083D01*
X42252980Y-35527715D01*
X42196216Y-35485073D01*
X42171516Y-35418512D01*
X42186724Y-35349163D01*
X42237010Y-35299045D01*
X42252982Y-35291751D01*
X42263986Y-35287626D01*
X42279575Y-35279092D01*
X42375010Y-35207566D01*
X42387566Y-35195010D01*
X42459092Y-35099575D01*
X42467625Y-35083988D01*
X42509865Y-34971311D01*
X42513490Y-34956066D01*
X42518631Y-34908741D01*
X42519000Y-34901927D01*
X42519000Y-34780115D01*
X42514525Y-34764876D01*
X42513135Y-34763671D01*
X42505452Y-34762000D01*
X41789000Y-34762000D01*
X41720879Y-34741998D01*
X41674386Y-34688342D01*
X41663000Y-34636000D01*
X41663000Y-34634000D01*
X41683002Y-34565879D01*
X41736658Y-34519386D01*
X41789000Y-34508000D01*
X42500885Y-34508000D01*
X42516124Y-34503525D01*
X42517329Y-34502135D01*
X42519000Y-34494452D01*
X42519000Y-34368073D01*
X42518631Y-34361259D01*
X42513490Y-34313934D01*
X42509865Y-34298689D01*
X42467625Y-34186012D01*
X42459092Y-34170425D01*
X42387997Y-34075565D01*
X42363149Y-34009058D01*
X42378202Y-33939676D01*
X42428376Y-33889445D01*
X42488823Y-33873999D01*
X43108828Y-33873999D01*
X43121088Y-33872791D01*
X43176931Y-33861685D01*
X43199427Y-33852367D01*
X43262808Y-33810017D01*
X43280017Y-33792808D01*
X43322368Y-33729425D01*
X43331684Y-33706934D01*
X43342793Y-33651085D01*
X43344000Y-33638830D01*
X43344000Y-33215115D01*
X43339525Y-33199876D01*
X43338135Y-33198671D01*
X43330452Y-33197000D01*
X39154116Y-33197000D01*
X39138877Y-33201475D01*
X39137672Y-33202865D01*
X39136001Y-33210548D01*
X39136001Y-33638828D01*
X39137209Y-33651088D01*
X39148315Y-33706931D01*
X39157633Y-33729427D01*
X39199983Y-33792808D01*
X39225969Y-33818794D01*
X39224936Y-33819827D01*
X39261689Y-33863803D01*
X39270539Y-33934245D01*
X39239900Y-33998290D01*
X39221726Y-34014920D01*
X39142134Y-34074571D01*
X39129572Y-34087133D01*
X39053754Y-34188296D01*
X39045222Y-34203882D01*
X39000467Y-34323265D01*
X38996842Y-34338510D01*
X38991369Y-34388892D01*
X38991000Y-34395706D01*
X38991000Y-34544885D01*
X38995475Y-34560124D01*
X38996865Y-34561329D01*
X39004548Y-34563000D01*
X39971000Y-34563000D01*
X40039121Y-34583002D01*
X40085614Y-34636658D01*
X40097000Y-34689000D01*
X40097000Y-35425884D01*
X40101475Y-35441123D01*
X40102865Y-35442328D01*
X40110548Y-35443999D01*
X40489292Y-35443999D01*
X40496110Y-35443630D01*
X40546482Y-35438159D01*
X40561741Y-35434530D01*
X40681118Y-35389778D01*
X40696704Y-35381246D01*
X40797867Y-35305428D01*
X40810428Y-35292867D01*
X40886246Y-35191704D01*
X40894779Y-35176117D01*
X40908516Y-35139473D01*
X40951157Y-35082708D01*
X41017718Y-35058007D01*
X41087067Y-35073214D01*
X41127324Y-35108135D01*
X41192434Y-35195010D01*
X41204990Y-35207566D01*
X41300425Y-35279092D01*
X41316014Y-35287626D01*
X41327018Y-35291751D01*
X41383783Y-35334391D01*
X41408484Y-35400953D01*
X41393277Y-35470302D01*
X41342992Y-35520421D01*
X41327022Y-35527714D01*
X41307365Y-35535083D01*
X41300186Y-35540463D01*
X41300183Y-35540465D01*
X41204633Y-35612077D01*
X41197456Y-35617456D01*
X41192077Y-35624633D01*
X41120465Y-35720183D01*
X41120463Y-35720186D01*
X41115083Y-35727365D01*
X41111933Y-35735769D01*
X41111932Y-35735770D01*
X41072034Y-35842202D01*
X41066870Y-35855976D01*
X41066017Y-35863826D01*
X41066017Y-35863827D01*
X41063434Y-35887607D01*
X41036193Y-35953169D01*
X40977830Y-35993596D01*
X40938171Y-36000000D01*
X40874604Y-36000000D01*
X40806483Y-35979998D01*
X40799039Y-35974826D01*
X40696946Y-35898311D01*
X40696943Y-35898309D01*
X40689764Y-35892929D01*
X40591191Y-35855976D01*
X40561843Y-35844974D01*
X40561841Y-35844974D01*
X40554448Y-35842202D01*
X40546598Y-35841349D01*
X40546597Y-35841349D01*
X40496153Y-35835869D01*
X40496152Y-35835869D01*
X40492756Y-35835500D01*
X39447244Y-35835500D01*
X39443848Y-35835869D01*
X39443847Y-35835869D01*
X39393403Y-35841349D01*
X39393402Y-35841349D01*
X39385552Y-35842202D01*
X39378159Y-35844974D01*
X39378157Y-35844974D01*
X39338862Y-35859705D01*
X39268055Y-35864888D01*
X39205538Y-35830818D01*
X38359012Y-34984292D01*
X38991001Y-34984292D01*
X38991370Y-34991110D01*
X38996841Y-35041482D01*
X39000470Y-35056741D01*
X39045222Y-35176118D01*
X39053754Y-35191704D01*
X39129572Y-35292867D01*
X39142133Y-35305428D01*
X39243296Y-35381246D01*
X39258882Y-35389778D01*
X39378265Y-35434533D01*
X39393510Y-35438158D01*
X39443892Y-35443631D01*
X39450706Y-35444000D01*
X39824885Y-35444000D01*
X39840124Y-35439525D01*
X39841329Y-35438135D01*
X39843000Y-35430452D01*
X39843000Y-34835115D01*
X39838525Y-34819876D01*
X39837135Y-34818671D01*
X39829452Y-34817000D01*
X39009116Y-34817000D01*
X38993877Y-34821475D01*
X38992673Y-34822864D01*
X38991001Y-34830548D01*
X38991001Y-34984292D01*
X38359012Y-34984292D01*
X38036905Y-34662185D01*
X38002879Y-34599873D01*
X38000000Y-34573090D01*
X38000000Y-32924885D01*
X39136000Y-32924885D01*
X39140475Y-32940124D01*
X39141865Y-32941329D01*
X39149548Y-32943000D01*
X41094885Y-32943000D01*
X41110124Y-32938525D01*
X41111329Y-32937135D01*
X41113000Y-32929452D01*
X41113000Y-32924885D01*
X41367000Y-32924885D01*
X41371475Y-32940124D01*
X41372865Y-32941329D01*
X41380548Y-32943000D01*
X43325884Y-32943000D01*
X43341123Y-32938525D01*
X43342328Y-32937135D01*
X43343999Y-32929452D01*
X43343999Y-32822385D01*
X43841000Y-32822385D01*
X43845475Y-32837624D01*
X43846865Y-32838829D01*
X43854548Y-32840500D01*
X44249885Y-32840500D01*
X44265124Y-32836025D01*
X44266329Y-32834635D01*
X44268000Y-32826952D01*
X44268000Y-32069116D01*
X44263525Y-32053877D01*
X44262135Y-32052672D01*
X44254452Y-32051001D01*
X44218160Y-32051001D01*
X44208313Y-32051776D01*
X44128393Y-32064433D01*
X44109767Y-32070485D01*
X44013407Y-32119583D01*
X43997564Y-32131094D01*
X43921094Y-32207564D01*
X43909583Y-32223407D01*
X43860485Y-32319768D01*
X43854433Y-32338392D01*
X43841775Y-32418315D01*
X43841000Y-32428158D01*
X43841000Y-32822385D01*
X43343999Y-32822385D01*
X43343999Y-32501172D01*
X43342791Y-32488912D01*
X43331685Y-32433069D01*
X43322367Y-32410573D01*
X43280017Y-32347192D01*
X43262808Y-32329983D01*
X43199425Y-32287632D01*
X43176934Y-32278316D01*
X43121085Y-32267207D01*
X43108830Y-32266000D01*
X41385115Y-32266000D01*
X41369876Y-32270475D01*
X41368671Y-32271865D01*
X41367000Y-32279548D01*
X41367000Y-32924885D01*
X41113000Y-32924885D01*
X41113000Y-32284116D01*
X41108525Y-32268877D01*
X41107135Y-32267672D01*
X41099452Y-32266001D01*
X39371172Y-32266001D01*
X39358912Y-32267209D01*
X39303069Y-32278315D01*
X39280573Y-32287633D01*
X39217192Y-32329983D01*
X39199983Y-32347192D01*
X39157632Y-32410575D01*
X39148316Y-32433066D01*
X39137207Y-32488915D01*
X39136000Y-32501170D01*
X39136000Y-32924885D01*
X38000000Y-32924885D01*
X38000000Y-31626000D01*
X38020002Y-31557879D01*
X38073658Y-31511386D01*
X38126000Y-31500000D01*
X43915979Y-31500000D01*
X43984100Y-31520002D01*
G37*
%TD.AperFunction*%
%TA.AperFunction,Conductor*%
G36*
X7693230Y-33020002D02*
G01*
X7714204Y-33036905D01*
X7963095Y-33285796D01*
X7997121Y-33348108D01*
X8000000Y-33374891D01*
X8000000Y-39145482D01*
X7979998Y-39213603D01*
X7963095Y-39234577D01*
X7593206Y-39604466D01*
X7583768Y-39612007D01*
X7584091Y-39612386D01*
X7577253Y-39618206D01*
X7569661Y-39622996D01*
X7534323Y-39663009D01*
X7528991Y-39668681D01*
X7517649Y-39680023D01*
X7514964Y-39683606D01*
X7514962Y-39683608D01*
X7511447Y-39688298D01*
X7505062Y-39696141D01*
X7473999Y-39731313D01*
X7470186Y-39739435D01*
X7468346Y-39742236D01*
X7459937Y-39756231D01*
X7458315Y-39759194D01*
X7452930Y-39766379D01*
X7449777Y-39774789D01*
X7449776Y-39774791D01*
X7436454Y-39810325D01*
X7432530Y-39819638D01*
X7412583Y-39862125D01*
X7411201Y-39870999D01*
X7410215Y-39874226D01*
X7406075Y-39890009D01*
X7405354Y-39893287D01*
X7402202Y-39901695D01*
X7401537Y-39910646D01*
X7398724Y-39948500D01*
X7397570Y-39958547D01*
X7395500Y-39971840D01*
X7395500Y-39987205D01*
X7395154Y-39996542D01*
X7391493Y-40045810D01*
X7393366Y-40054585D01*
X7393959Y-40063281D01*
X7395500Y-40077881D01*
X7395500Y-40934626D01*
X7375498Y-41002747D01*
X7321842Y-41049240D01*
X7253054Y-41059548D01*
X7118188Y-41041793D01*
X7110000Y-41040715D01*
X7101812Y-41041793D01*
X6973432Y-41058694D01*
X6973430Y-41058695D01*
X6965246Y-41059772D01*
X6957619Y-41062931D01*
X6957620Y-41062931D01*
X6837986Y-41112485D01*
X6837984Y-41112486D01*
X6830358Y-41115645D01*
X6714526Y-41204526D01*
X6625645Y-41320358D01*
X6569772Y-41455246D01*
X6550715Y-41600000D01*
X6551793Y-41608188D01*
X6567639Y-41728554D01*
X6556699Y-41798703D01*
X6509571Y-41851801D01*
X6442717Y-41871000D01*
X6270115Y-41871000D01*
X6254876Y-41875475D01*
X6253671Y-41876865D01*
X6252000Y-41884548D01*
X6252000Y-42579885D01*
X6256475Y-42595124D01*
X6257865Y-42596329D01*
X6265548Y-42598000D01*
X6810884Y-42598000D01*
X6826123Y-42593525D01*
X6827328Y-42592135D01*
X6828999Y-42584452D01*
X6828999Y-42265966D01*
X6849001Y-42197845D01*
X6902657Y-42151352D01*
X6971445Y-42141044D01*
X7110000Y-42159285D01*
X7118188Y-42158207D01*
X7253054Y-42140452D01*
X7323203Y-42151391D01*
X7376301Y-42198520D01*
X7395500Y-42265374D01*
X7395500Y-43374000D01*
X7375498Y-43442121D01*
X7321842Y-43488614D01*
X7269500Y-43500000D01*
X6952638Y-43500000D01*
X6884517Y-43479998D01*
X6838024Y-43426342D01*
X6827245Y-43361650D01*
X6829000Y-43343830D01*
X6829000Y-42870115D01*
X6824525Y-42854876D01*
X6823135Y-42853671D01*
X6815452Y-42852000D01*
X6124000Y-42852000D01*
X6055879Y-42831998D01*
X6009386Y-42778342D01*
X5998000Y-42726000D01*
X5998000Y-41889116D01*
X5993525Y-41873877D01*
X5992135Y-41872672D01*
X5984452Y-41871001D01*
X5656169Y-41871001D01*
X5638349Y-41872756D01*
X5568596Y-41859527D01*
X5517068Y-41810686D01*
X5500000Y-41747363D01*
X5500000Y-41721535D01*
X5520002Y-41653414D01*
X5566525Y-41614531D01*
X5564859Y-41611646D01*
X5572014Y-41607515D01*
X5579643Y-41604355D01*
X5586196Y-41599327D01*
X5688921Y-41520503D01*
X5688924Y-41520500D01*
X5695474Y-41515474D01*
X5784355Y-41399642D01*
X5840228Y-41264754D01*
X5848819Y-41199503D01*
X5858207Y-41128188D01*
X5859285Y-41120000D01*
X5851356Y-41059772D01*
X5841306Y-40983432D01*
X5841305Y-40983430D01*
X5840228Y-40975246D01*
X5784355Y-40840358D01*
X5695474Y-40724526D01*
X5688924Y-40719500D01*
X5688921Y-40719497D01*
X5586196Y-40640673D01*
X5586194Y-40640672D01*
X5579643Y-40635645D01*
X5572014Y-40632485D01*
X5564859Y-40628354D01*
X5566393Y-40625698D01*
X5522496Y-40590319D01*
X5500000Y-40518465D01*
X5500000Y-33126000D01*
X5520002Y-33057879D01*
X5573658Y-33011386D01*
X5626000Y-33000000D01*
X7625109Y-33000000D01*
X7693230Y-33020002D01*
G37*
%TD.AperFunction*%
%TA.AperFunction,Conductor*%
G36*
X17442121Y-39520002D02*
G01*
X17488614Y-39573658D01*
X17500000Y-39626000D01*
X17500000Y-43677275D01*
X17479998Y-43745396D01*
X17426342Y-43791889D01*
X17349418Y-43800854D01*
X17331083Y-43797207D01*
X17318830Y-43796000D01*
X16995115Y-43796000D01*
X16979876Y-43800475D01*
X16978671Y-43801865D01*
X16977000Y-43809548D01*
X16977000Y-45485884D01*
X16981475Y-45501123D01*
X16982865Y-45502328D01*
X16990548Y-45503999D01*
X17325016Y-45503999D01*
X17325016Y-45505320D01*
X17388068Y-45517275D01*
X17439598Y-45566113D01*
X17455591Y-45612996D01*
X17459772Y-45644754D01*
X17462932Y-45652383D01*
X17490409Y-45718719D01*
X17500000Y-45766937D01*
X17500000Y-45860000D01*
X17518386Y-45860000D01*
X17586507Y-45880002D01*
X17602615Y-45892983D01*
X17604526Y-45895474D01*
X17720357Y-45984355D01*
X17855246Y-46040228D01*
X18000000Y-46059285D01*
X18008188Y-46058207D01*
X18136566Y-46041306D01*
X18144754Y-46040228D01*
X18279643Y-45984355D01*
X18395474Y-45895474D01*
X18395715Y-45895160D01*
X18454831Y-45862879D01*
X18481614Y-45860000D01*
X21165000Y-45860000D01*
X21233121Y-45880002D01*
X21279614Y-45933658D01*
X21291000Y-45986000D01*
X21291000Y-46138044D01*
X21270998Y-46206165D01*
X21217342Y-46252658D01*
X21145289Y-46262493D01*
X21109185Y-46256775D01*
X21099342Y-46256000D01*
X20705115Y-46256000D01*
X20689876Y-46260475D01*
X20688671Y-46261865D01*
X20687000Y-46269548D01*
X20687000Y-46811000D01*
X20666998Y-46879121D01*
X20613342Y-46925614D01*
X20561000Y-46937000D01*
X19661616Y-46937000D01*
X19646377Y-46941475D01*
X19645172Y-46942865D01*
X19643501Y-46950548D01*
X19643501Y-46986840D01*
X19644276Y-46996687D01*
X19656933Y-47076607D01*
X19662985Y-47095233D01*
X19712083Y-47191593D01*
X19723594Y-47207436D01*
X19801063Y-47284905D01*
X19835089Y-47347217D01*
X19830024Y-47418032D01*
X19787477Y-47474868D01*
X19720957Y-47499679D01*
X19711968Y-47500000D01*
X19500000Y-47500000D01*
X19500000Y-47675424D01*
X19479998Y-47743545D01*
X19426342Y-47790038D01*
X19356068Y-47800142D01*
X19298435Y-47776250D01*
X19201704Y-47703754D01*
X19186118Y-47695222D01*
X19066735Y-47650467D01*
X19051490Y-47646842D01*
X19001108Y-47641369D01*
X18994294Y-47641000D01*
X18845115Y-47641000D01*
X18829876Y-47645475D01*
X18828671Y-47646865D01*
X18827000Y-47654548D01*
X18827000Y-49580884D01*
X18831475Y-49596123D01*
X18832865Y-49597328D01*
X18840548Y-49598999D01*
X18994292Y-49598999D01*
X19001110Y-49598630D01*
X19051482Y-49593159D01*
X19066741Y-49589530D01*
X19186118Y-49544778D01*
X19201704Y-49536246D01*
X19298435Y-49463750D01*
X19364942Y-49438902D01*
X19434324Y-49453955D01*
X19484554Y-49504129D01*
X19500000Y-49564576D01*
X19500000Y-49874000D01*
X19479998Y-49942121D01*
X19426342Y-49988614D01*
X19374000Y-50000000D01*
X17626000Y-50000000D01*
X17557879Y-49979998D01*
X17511386Y-49926342D01*
X17500000Y-49874000D01*
X17500000Y-49139292D01*
X17946001Y-49139292D01*
X17946370Y-49146110D01*
X17951841Y-49196482D01*
X17955470Y-49211741D01*
X18000222Y-49331118D01*
X18008754Y-49346704D01*
X18084572Y-49447867D01*
X18097133Y-49460428D01*
X18198296Y-49536246D01*
X18213882Y-49544778D01*
X18333265Y-49589533D01*
X18348510Y-49593158D01*
X18398892Y-49598631D01*
X18405706Y-49599000D01*
X18554885Y-49599000D01*
X18570124Y-49594525D01*
X18571329Y-49593135D01*
X18573000Y-49585452D01*
X18573000Y-48765115D01*
X18568525Y-48749876D01*
X18567135Y-48748671D01*
X18559452Y-48747000D01*
X17964116Y-48747000D01*
X17948877Y-48751475D01*
X17947672Y-48752865D01*
X17946001Y-48760548D01*
X17946001Y-49139292D01*
X17500000Y-49139292D01*
X17500000Y-48474885D01*
X17946000Y-48474885D01*
X17950475Y-48490124D01*
X17951865Y-48491329D01*
X17959548Y-48493000D01*
X18554885Y-48493000D01*
X18570124Y-48488525D01*
X18571329Y-48487135D01*
X18573000Y-48479452D01*
X18573000Y-47659116D01*
X18568525Y-47643877D01*
X18567135Y-47642672D01*
X18559452Y-47641001D01*
X18405708Y-47641001D01*
X18398890Y-47641370D01*
X18348518Y-47646841D01*
X18333259Y-47650470D01*
X18213882Y-47695222D01*
X18198296Y-47703754D01*
X18097133Y-47779572D01*
X18084572Y-47792133D01*
X18008754Y-47893296D01*
X18000222Y-47908882D01*
X17955467Y-48028265D01*
X17951842Y-48043510D01*
X17946369Y-48093892D01*
X17946000Y-48100706D01*
X17946000Y-48474885D01*
X17500000Y-48474885D01*
X17500000Y-47500000D01*
X15626000Y-47500000D01*
X15557879Y-47479998D01*
X15511386Y-47426342D01*
X15500000Y-47374000D01*
X15500000Y-46664885D01*
X19643500Y-46664885D01*
X19647975Y-46680124D01*
X19649365Y-46681329D01*
X19657048Y-46683000D01*
X20414885Y-46683000D01*
X20430124Y-46678525D01*
X20431329Y-46677135D01*
X20433000Y-46669452D01*
X20433000Y-46274116D01*
X20428525Y-46258877D01*
X20427135Y-46257672D01*
X20419452Y-46256001D01*
X20020660Y-46256001D01*
X20010813Y-46256776D01*
X19930893Y-46269433D01*
X19912267Y-46275485D01*
X19815907Y-46324583D01*
X19800064Y-46336094D01*
X19723594Y-46412564D01*
X19712083Y-46428407D01*
X19662985Y-46524768D01*
X19656933Y-46543392D01*
X19644275Y-46623315D01*
X19643500Y-46633158D01*
X19643500Y-46664885D01*
X15500000Y-46664885D01*
X15500000Y-45268828D01*
X16146001Y-45268828D01*
X16147209Y-45281088D01*
X16158315Y-45336931D01*
X16167633Y-45359427D01*
X16209983Y-45422808D01*
X16227192Y-45440017D01*
X16290575Y-45482368D01*
X16313066Y-45491684D01*
X16368915Y-45502793D01*
X16381170Y-45504000D01*
X16704885Y-45504000D01*
X16720124Y-45499525D01*
X16721329Y-45498135D01*
X16723000Y-45490452D01*
X16723000Y-44795115D01*
X16718525Y-44779876D01*
X16717135Y-44778671D01*
X16709452Y-44777000D01*
X16164116Y-44777000D01*
X16148877Y-44781475D01*
X16147672Y-44782865D01*
X16146001Y-44790548D01*
X16146001Y-45268828D01*
X15500000Y-45268828D01*
X15500000Y-44504885D01*
X16146000Y-44504885D01*
X16150475Y-44520124D01*
X16151865Y-44521329D01*
X16159548Y-44523000D01*
X16704885Y-44523000D01*
X16720124Y-44518525D01*
X16721329Y-44517135D01*
X16723000Y-44509452D01*
X16723000Y-43814116D01*
X16718525Y-43798877D01*
X16717135Y-43797672D01*
X16709452Y-43796001D01*
X16381172Y-43796001D01*
X16368912Y-43797209D01*
X16313069Y-43808315D01*
X16290573Y-43817633D01*
X16227192Y-43859983D01*
X16209983Y-43877192D01*
X16167632Y-43940575D01*
X16158316Y-43963066D01*
X16147207Y-44018915D01*
X16146000Y-44031170D01*
X16146000Y-44504885D01*
X15500000Y-44504885D01*
X15500000Y-43500000D01*
X15126000Y-43500000D01*
X15057879Y-43479998D01*
X15011386Y-43426342D01*
X15000000Y-43374000D01*
X15000000Y-42380000D01*
X15020002Y-42311879D01*
X15073658Y-42265386D01*
X15126000Y-42254000D01*
X15504885Y-42254000D01*
X15520124Y-42249525D01*
X15521329Y-42248135D01*
X15523000Y-42240452D01*
X15523000Y-42235884D01*
X15777000Y-42235884D01*
X15781475Y-42251123D01*
X15782865Y-42252328D01*
X15790548Y-42253999D01*
X16264340Y-42253999D01*
X16274187Y-42253224D01*
X16354107Y-42240567D01*
X16372733Y-42234515D01*
X16469093Y-42185417D01*
X16484936Y-42173906D01*
X16561406Y-42097436D01*
X16572917Y-42081593D01*
X16622015Y-41985232D01*
X16628067Y-41966608D01*
X16640725Y-41886685D01*
X16641500Y-41876842D01*
X16641500Y-41845115D01*
X16637025Y-41829876D01*
X16635635Y-41828671D01*
X16627952Y-41827000D01*
X15795115Y-41827000D01*
X15779876Y-41831475D01*
X15778671Y-41832865D01*
X15777000Y-41840548D01*
X15777000Y-42235884D01*
X15523000Y-42235884D01*
X15523000Y-41554885D01*
X15777000Y-41554885D01*
X15781475Y-41570124D01*
X15782865Y-41571329D01*
X15790548Y-41573000D01*
X16623384Y-41573000D01*
X16638623Y-41568525D01*
X16639828Y-41567135D01*
X16641499Y-41559452D01*
X16641499Y-41523160D01*
X16640724Y-41513313D01*
X16628067Y-41433393D01*
X16622015Y-41414767D01*
X16572917Y-41318407D01*
X16561406Y-41302564D01*
X16484936Y-41226094D01*
X16469093Y-41214583D01*
X16372732Y-41165485D01*
X16354108Y-41159433D01*
X16274185Y-41146775D01*
X16264342Y-41146000D01*
X15795115Y-41146000D01*
X15779876Y-41150475D01*
X15778671Y-41151865D01*
X15777000Y-41159548D01*
X15777000Y-41554885D01*
X15523000Y-41554885D01*
X15523000Y-41164116D01*
X15518525Y-41148877D01*
X15517135Y-41147672D01*
X15509452Y-41146001D01*
X15126000Y-41146001D01*
X15057879Y-41125999D01*
X15011386Y-41072343D01*
X15000000Y-41020001D01*
X15000000Y-40074514D01*
X15023483Y-40001260D01*
X15024234Y-40000209D01*
X15027801Y-39995457D01*
X15051019Y-39966005D01*
X15057468Y-39957825D01*
X15060314Y-39949720D01*
X15065310Y-39942729D01*
X15079034Y-39896838D01*
X15080868Y-39891193D01*
X15094121Y-39853453D01*
X15094122Y-39853450D01*
X15096748Y-39845971D01*
X15097200Y-39840752D01*
X15097200Y-39838041D01*
X15097298Y-39835764D01*
X15097433Y-39835315D01*
X15097487Y-39835317D01*
X15097502Y-39835084D01*
X15099277Y-39829148D01*
X15097297Y-39778750D01*
X15097200Y-39773804D01*
X15097200Y-39626000D01*
X15117202Y-39557879D01*
X15170858Y-39511386D01*
X15223200Y-39500000D01*
X17374000Y-39500000D01*
X17442121Y-39520002D01*
G37*
%TD.AperFunction*%
%TA.AperFunction,Conductor*%
G36*
X9688718Y-53920002D02*
G01*
X9735211Y-53973658D01*
X9745315Y-54043932D01*
X9740430Y-54064936D01*
X9734433Y-54083392D01*
X9721775Y-54163315D01*
X9721000Y-54173158D01*
X9721000Y-54567385D01*
X9725475Y-54582624D01*
X9726865Y-54583829D01*
X9734548Y-54585500D01*
X10276000Y-54585500D01*
X10344121Y-54605502D01*
X10390614Y-54659158D01*
X10402000Y-54711500D01*
X10402000Y-55610884D01*
X10406475Y-55626123D01*
X10407865Y-55627328D01*
X10415548Y-55628999D01*
X10451840Y-55628999D01*
X10461687Y-55628224D01*
X10541609Y-55615567D01*
X10555565Y-55611032D01*
X10626532Y-55609005D01*
X10687330Y-55645668D01*
X10718655Y-55709380D01*
X10720500Y-55730865D01*
X10720500Y-56034385D01*
X10700498Y-56102506D01*
X10683595Y-56123480D01*
X10681072Y-56126003D01*
X10674526Y-56131026D01*
X10585645Y-56246858D01*
X10582486Y-56254484D01*
X10582485Y-56254486D01*
X10580182Y-56260046D01*
X10529772Y-56381746D01*
X10528695Y-56389930D01*
X10528694Y-56389932D01*
X10523537Y-56429104D01*
X10510715Y-56526500D01*
X10511793Y-56534688D01*
X10528035Y-56658057D01*
X10529772Y-56671254D01*
X10532931Y-56678880D01*
X10582485Y-56798512D01*
X10585645Y-56806142D01*
X10589842Y-56811611D01*
X10606432Y-56879993D01*
X10583213Y-56947086D01*
X10527406Y-56990974D01*
X10480575Y-57000000D01*
X8126000Y-57000000D01*
X8057879Y-56979998D01*
X8011386Y-56926342D01*
X8000000Y-56874000D01*
X8000000Y-55730000D01*
X8020002Y-55661879D01*
X8073658Y-55615386D01*
X8126000Y-55604000D01*
X8304885Y-55604000D01*
X8320124Y-55599525D01*
X8321329Y-55598135D01*
X8323000Y-55590452D01*
X8323000Y-55585884D01*
X8577000Y-55585884D01*
X8581475Y-55601123D01*
X8582865Y-55602328D01*
X8590548Y-55603999D01*
X8969292Y-55603999D01*
X8976110Y-55603630D01*
X9026482Y-55598159D01*
X9041741Y-55594530D01*
X9161118Y-55549778D01*
X9176704Y-55541246D01*
X9277867Y-55465428D01*
X9290428Y-55452867D01*
X9366246Y-55351704D01*
X9374778Y-55336118D01*
X9406373Y-55251840D01*
X9721001Y-55251840D01*
X9721776Y-55261687D01*
X9734433Y-55341607D01*
X9740485Y-55360233D01*
X9789583Y-55456593D01*
X9801094Y-55472436D01*
X9877564Y-55548906D01*
X9893407Y-55560417D01*
X9989768Y-55609515D01*
X10008392Y-55615567D01*
X10088315Y-55628225D01*
X10098158Y-55629000D01*
X10129885Y-55629000D01*
X10145124Y-55624525D01*
X10146329Y-55623135D01*
X10148000Y-55615452D01*
X10148000Y-54857615D01*
X10143525Y-54842376D01*
X10142135Y-54841171D01*
X10134452Y-54839500D01*
X9739116Y-54839500D01*
X9723877Y-54843975D01*
X9722672Y-54845365D01*
X9721001Y-54853048D01*
X9721001Y-55251840D01*
X9406373Y-55251840D01*
X9419533Y-55216735D01*
X9423158Y-55201490D01*
X9428631Y-55151108D01*
X9429000Y-55144294D01*
X9429000Y-54995115D01*
X9424525Y-54979876D01*
X9423135Y-54978671D01*
X9415452Y-54977000D01*
X8595115Y-54977000D01*
X8579876Y-54981475D01*
X8578671Y-54982865D01*
X8577000Y-54990548D01*
X8577000Y-55585884D01*
X8323000Y-55585884D01*
X8323000Y-54849000D01*
X8343002Y-54780879D01*
X8396658Y-54734386D01*
X8449000Y-54723000D01*
X9410884Y-54723000D01*
X9426123Y-54718525D01*
X9427328Y-54717135D01*
X9428999Y-54709452D01*
X9428999Y-54555708D01*
X9428630Y-54548890D01*
X9423159Y-54498518D01*
X9419530Y-54483259D01*
X9374778Y-54363882D01*
X9366246Y-54348296D01*
X9290428Y-54247133D01*
X9277867Y-54234572D01*
X9176704Y-54158754D01*
X9161118Y-54150222D01*
X9144474Y-54143982D01*
X9087709Y-54101341D01*
X9063009Y-54034779D01*
X9078216Y-53965430D01*
X9128502Y-53915312D01*
X9188703Y-53900000D01*
X9620597Y-53900000D01*
X9688718Y-53920002D01*
G37*
%TD.AperFunction*%
%TA.AperFunction,Conductor*%
G36*
X16942121Y-53020002D02*
G01*
X16988614Y-53073658D01*
X17000000Y-53126000D01*
X17000000Y-53253817D01*
X16979998Y-53321938D01*
X16926342Y-53368431D01*
X16909498Y-53374713D01*
X16889876Y-53380474D01*
X16888671Y-53381865D01*
X16887000Y-53389548D01*
X16887000Y-53951000D01*
X16866998Y-54019121D01*
X16813342Y-54065614D01*
X16761000Y-54077000D01*
X16254115Y-54077000D01*
X16238876Y-54081475D01*
X16237671Y-54082865D01*
X16236000Y-54090548D01*
X16236000Y-54160662D01*
X16236775Y-54170508D01*
X16248876Y-54246913D01*
X16254929Y-54265543D01*
X16263466Y-54282298D01*
X16276570Y-54352075D01*
X16249869Y-54417859D01*
X16191841Y-54458765D01*
X16151199Y-54465500D01*
X16110625Y-54465500D01*
X16098620Y-54464159D01*
X16098580Y-54464655D01*
X16089633Y-54463935D01*
X16080877Y-54461954D01*
X16037339Y-54464655D01*
X16027619Y-54465258D01*
X16019817Y-54465500D01*
X16003774Y-54465500D01*
X15999344Y-54466135D01*
X15999337Y-54466135D01*
X15993536Y-54466966D01*
X15983481Y-54467996D01*
X15945601Y-54470346D01*
X15945599Y-54470346D01*
X15936642Y-54470902D01*
X15928201Y-54473949D01*
X15924923Y-54474628D01*
X15909055Y-54478584D01*
X15905831Y-54479527D01*
X15896948Y-54480799D01*
X15888779Y-54484513D01*
X15888773Y-54484515D01*
X15854221Y-54500225D01*
X15844853Y-54504039D01*
X15800716Y-54519972D01*
X15793466Y-54525269D01*
X15790499Y-54526846D01*
X15776386Y-54535093D01*
X15773563Y-54536898D01*
X15765395Y-54540612D01*
X15758598Y-54546469D01*
X15758596Y-54546470D01*
X15738047Y-54564177D01*
X15704017Y-54585134D01*
X15637986Y-54612485D01*
X15637984Y-54612486D01*
X15630358Y-54615645D01*
X15573651Y-54659158D01*
X15536061Y-54688002D01*
X15514526Y-54704526D01*
X15425645Y-54820358D01*
X15422486Y-54827984D01*
X15422485Y-54827986D01*
X15399507Y-54883460D01*
X15372193Y-54924336D01*
X15085934Y-55210595D01*
X15023622Y-55244621D01*
X14996839Y-55247500D01*
X12855500Y-55247500D01*
X12787379Y-55227498D01*
X12740886Y-55173842D01*
X12729500Y-55121500D01*
X12729500Y-54794000D01*
X12749502Y-54725879D01*
X12803158Y-54679386D01*
X12855500Y-54668000D01*
X12902942Y-54668000D01*
X12971063Y-54688002D01*
X13002902Y-54717293D01*
X13024526Y-54745474D01*
X13031076Y-54750500D01*
X13132057Y-54827986D01*
X13140357Y-54834355D01*
X13275246Y-54890228D01*
X13420000Y-54909285D01*
X13428188Y-54908207D01*
X13440304Y-54906612D01*
X13564754Y-54890228D01*
X13699643Y-54834355D01*
X13706196Y-54829327D01*
X13808921Y-54750503D01*
X13808924Y-54750500D01*
X13815474Y-54745474D01*
X13846895Y-54704526D01*
X13878653Y-54663138D01*
X13904355Y-54629642D01*
X13922640Y-54585500D01*
X13957069Y-54502380D01*
X13960228Y-54494754D01*
X13961742Y-54483259D01*
X13978207Y-54358188D01*
X13979285Y-54350000D01*
X13968166Y-54265543D01*
X13961306Y-54213432D01*
X13961305Y-54213430D01*
X13960228Y-54205246D01*
X13904355Y-54070358D01*
X13859914Y-54012442D01*
X13820501Y-53961077D01*
X13820500Y-53961076D01*
X13815474Y-53954526D01*
X13808924Y-53949500D01*
X13808921Y-53949497D01*
X13706196Y-53870673D01*
X13706194Y-53870672D01*
X13699643Y-53865645D01*
X13564754Y-53809772D01*
X13527633Y-53804885D01*
X16236000Y-53804885D01*
X16240475Y-53820124D01*
X16241865Y-53821329D01*
X16249548Y-53823000D01*
X16614885Y-53823000D01*
X16630124Y-53818525D01*
X16631329Y-53817135D01*
X16633000Y-53809452D01*
X16633000Y-53394115D01*
X16628525Y-53378876D01*
X16627135Y-53377671D01*
X16619452Y-53376000D01*
X16599338Y-53376000D01*
X16589492Y-53376775D01*
X16513087Y-53388876D01*
X16494460Y-53394928D01*
X16402333Y-53441869D01*
X16386490Y-53453380D01*
X16313380Y-53526490D01*
X16301869Y-53542333D01*
X16254928Y-53634460D01*
X16248876Y-53653087D01*
X16236775Y-53729492D01*
X16236000Y-53739338D01*
X16236000Y-53804885D01*
X13527633Y-53804885D01*
X13420000Y-53790715D01*
X13411812Y-53791793D01*
X13283432Y-53808694D01*
X13283430Y-53808695D01*
X13275246Y-53809772D01*
X13267617Y-53812932D01*
X13174218Y-53851619D01*
X13103629Y-53859208D01*
X13040142Y-53827429D01*
X13003914Y-53766371D01*
X13000000Y-53735210D01*
X13000000Y-53481302D01*
X13020002Y-53413181D01*
X13063651Y-53371810D01*
X13090899Y-53356294D01*
X13096278Y-53353231D01*
X13136436Y-53318434D01*
X13147811Y-53308578D01*
X13147816Y-53308573D01*
X13149934Y-53306738D01*
X13182056Y-53273449D01*
X13228987Y-53183730D01*
X13248989Y-53115609D01*
X13250073Y-53108070D01*
X13250507Y-53107119D01*
X13250587Y-53106753D01*
X13250667Y-53106770D01*
X13279566Y-53043489D01*
X13339291Y-53005104D01*
X13374791Y-53000000D01*
X16874000Y-53000000D01*
X16942121Y-53020002D01*
G37*
%TD.AperFunction*%
%TA.AperFunction,Conductor*%
G36*
X10798521Y-41520002D02*
G01*
X10845014Y-41573658D01*
X10856400Y-41626000D01*
X10856400Y-41821320D01*
X10836398Y-41889441D01*
X10796984Y-41928290D01*
X10786232Y-41934983D01*
X10766097Y-41947516D01*
X10762676Y-41950392D01*
X10762670Y-41950396D01*
X10674759Y-42024293D01*
X10656462Y-42039673D01*
X10653474Y-42043015D01*
X10610415Y-42091173D01*
X10610411Y-42091178D01*
X10607423Y-42094520D01*
X10604938Y-42098253D01*
X10604935Y-42098257D01*
X10530541Y-42210017D01*
X10530538Y-42210023D01*
X10528060Y-42213745D01*
X10526132Y-42217788D01*
X10526131Y-42217789D01*
X10518492Y-42233805D01*
X10496386Y-42280150D01*
X10495051Y-42284425D01*
X10495048Y-42284431D01*
X10455015Y-42412569D01*
X10453676Y-42416856D01*
X10441914Y-42489481D01*
X10439289Y-42632680D01*
X10439842Y-42637122D01*
X10440079Y-42641602D01*
X10439973Y-42641608D01*
X10440514Y-42650332D01*
X10440514Y-43075000D01*
X10460266Y-43174301D01*
X10516516Y-43258484D01*
X10600699Y-43314734D01*
X10700000Y-43334486D01*
X11126429Y-43334486D01*
X11142398Y-43335509D01*
X11144607Y-43335881D01*
X11184484Y-43339458D01*
X11186908Y-43339488D01*
X11186915Y-43339488D01*
X11190000Y-43339525D01*
X11196826Y-43339609D01*
X11222102Y-43337963D01*
X11234363Y-43337165D01*
X11234369Y-43337164D01*
X11236786Y-43337007D01*
X11239190Y-43336663D01*
X11239197Y-43336662D01*
X11245500Y-43335759D01*
X11263363Y-43334486D01*
X11626429Y-43334486D01*
X11642398Y-43335509D01*
X11644607Y-43335881D01*
X11684484Y-43339458D01*
X11686908Y-43339488D01*
X11686915Y-43339488D01*
X11690000Y-43339525D01*
X11696826Y-43339609D01*
X11722102Y-43337963D01*
X11734363Y-43337165D01*
X11734369Y-43337164D01*
X11736786Y-43337007D01*
X11739190Y-43336663D01*
X11739197Y-43336662D01*
X11745500Y-43335759D01*
X11763363Y-43334486D01*
X12200000Y-43334486D01*
X12299301Y-43314734D01*
X12383484Y-43258484D01*
X12390377Y-43248168D01*
X12399154Y-43239391D01*
X12400904Y-43241141D01*
X12442169Y-43206650D01*
X12512612Y-43197798D01*
X12581559Y-43233082D01*
X12624881Y-43276404D01*
X12658907Y-43338716D01*
X12658963Y-43392020D01*
X12655841Y-43406520D01*
X12653382Y-43416100D01*
X12641823Y-43454752D01*
X12642232Y-43465158D01*
X12641749Y-43468981D01*
X12641568Y-43472812D01*
X12639376Y-43482993D01*
X12640600Y-43493335D01*
X12640600Y-43493339D01*
X12644118Y-43523058D01*
X12644894Y-43532915D01*
X12646477Y-43573212D01*
X12650237Y-43582930D01*
X12651019Y-43586706D01*
X12652086Y-43590379D01*
X12653310Y-43600722D01*
X12670783Y-43637110D01*
X12674692Y-43646143D01*
X12689251Y-43683776D01*
X12695954Y-43691751D01*
X12698868Y-43696678D01*
X12699364Y-43697606D01*
X12701195Y-43700442D01*
X12704628Y-43707590D01*
X12707999Y-43711600D01*
X12733251Y-43736852D01*
X12740607Y-43744871D01*
X12765534Y-43774525D01*
X12774459Y-43779898D01*
X12782375Y-43786659D01*
X12781875Y-43787244D01*
X12789980Y-43793581D01*
X12828020Y-43831621D01*
X12862046Y-43893933D01*
X12857022Y-43950054D01*
X12860266Y-43950699D01*
X12845500Y-44024933D01*
X12845501Y-45275066D01*
X12860266Y-45349301D01*
X12867161Y-45359621D01*
X12867162Y-45359622D01*
X12909621Y-45423166D01*
X12909623Y-45423168D01*
X12916516Y-45433484D01*
X12926832Y-45440377D01*
X12926833Y-45440378D01*
X12944001Y-45451849D01*
X12989529Y-45506326D01*
X13000000Y-45556615D01*
X13000000Y-46208090D01*
X12979998Y-46276211D01*
X12963095Y-46297185D01*
X11388849Y-47871431D01*
X11380745Y-47878857D01*
X11352640Y-47902440D01*
X11347129Y-47911985D01*
X11347126Y-47911989D01*
X11334297Y-47934210D01*
X11328392Y-47943480D01*
X11307348Y-47973534D01*
X11304494Y-47984186D01*
X11303160Y-47987047D01*
X11302081Y-47990013D01*
X11296568Y-47999560D01*
X11294654Y-48010416D01*
X11294652Y-48010421D01*
X11290196Y-48035690D01*
X11287818Y-48046419D01*
X11281697Y-48069266D01*
X11278323Y-48081857D01*
X11279284Y-48092839D01*
X11281521Y-48118410D01*
X11282000Y-48129392D01*
X11282000Y-49408408D01*
X11261998Y-49476529D01*
X11213201Y-49520676D01*
X11187645Y-49533697D01*
X11117868Y-49546800D01*
X11052084Y-49520099D01*
X11011179Y-49462071D01*
X11005419Y-49420389D01*
X11004500Y-49420389D01*
X11004499Y-48883030D01*
X11004499Y-48879612D01*
X10998130Y-48820976D01*
X10949917Y-48692365D01*
X10944537Y-48685186D01*
X10944535Y-48685183D01*
X10872923Y-48589633D01*
X10867544Y-48582456D01*
X10860367Y-48577077D01*
X10860365Y-48577075D01*
X10829935Y-48554269D01*
X10787420Y-48497410D01*
X10779500Y-48453443D01*
X10779500Y-47815624D01*
X10780841Y-47803619D01*
X10780345Y-47803579D01*
X10781065Y-47794632D01*
X10783046Y-47785876D01*
X10779742Y-47732618D01*
X10779500Y-47724816D01*
X10779500Y-47708774D01*
X10778035Y-47698543D01*
X10777003Y-47688477D01*
X10774654Y-47650600D01*
X10774654Y-47650598D01*
X10774098Y-47641641D01*
X10771051Y-47633201D01*
X10770370Y-47629911D01*
X10766418Y-47614062D01*
X10765473Y-47610832D01*
X10764201Y-47601948D01*
X10744774Y-47559218D01*
X10740964Y-47549860D01*
X10728075Y-47514158D01*
X10728074Y-47514157D01*
X10725027Y-47505716D01*
X10719731Y-47498467D01*
X10718146Y-47495486D01*
X10709920Y-47481408D01*
X10708104Y-47478569D01*
X10704388Y-47470395D01*
X10673757Y-47434846D01*
X10667465Y-47426923D01*
X10659527Y-47416056D01*
X10648665Y-47405194D01*
X10642307Y-47398347D01*
X10615915Y-47367718D01*
X10610056Y-47360918D01*
X10602521Y-47356034D01*
X10595949Y-47350301D01*
X10584545Y-47341074D01*
X10497807Y-47254336D01*
X10470493Y-47213460D01*
X10447515Y-47157986D01*
X10447514Y-47157984D01*
X10444355Y-47150358D01*
X10355474Y-47034526D01*
X10348924Y-47029500D01*
X10348921Y-47029497D01*
X10246196Y-46950673D01*
X10246194Y-46950672D01*
X10239643Y-46945645D01*
X10104754Y-46889772D01*
X9960000Y-46870715D01*
X9951812Y-46871793D01*
X9823432Y-46888694D01*
X9823430Y-46888695D01*
X9815246Y-46889772D01*
X9767430Y-46909578D01*
X9687986Y-46942485D01*
X9687984Y-46942486D01*
X9680358Y-46945645D01*
X9564526Y-47034526D01*
X9475645Y-47150358D01*
X9419772Y-47285246D01*
X9418695Y-47293430D01*
X9418694Y-47293432D01*
X9404882Y-47398347D01*
X9400715Y-47430000D01*
X9401793Y-47438188D01*
X9416495Y-47549860D01*
X9419772Y-47574754D01*
X9475645Y-47709642D01*
X9564526Y-47825474D01*
X9571076Y-47830500D01*
X9571079Y-47830503D01*
X9629487Y-47875321D01*
X9680357Y-47914355D01*
X9687985Y-47917514D01*
X9687989Y-47917517D01*
X9692717Y-47919475D01*
X9747999Y-47964023D01*
X9770500Y-48035884D01*
X9770500Y-48453443D01*
X9750498Y-48521564D01*
X9720065Y-48554269D01*
X9689635Y-48577075D01*
X9689633Y-48577077D01*
X9682456Y-48582456D01*
X9677077Y-48589633D01*
X9605465Y-48685183D01*
X9605463Y-48685186D01*
X9600083Y-48692365D01*
X9551870Y-48820976D01*
X9545500Y-48879611D01*
X9545501Y-49420388D01*
X9545870Y-49423782D01*
X9545870Y-49423788D01*
X9550029Y-49462071D01*
X9551870Y-49479024D01*
X9600083Y-49607635D01*
X9605463Y-49614814D01*
X9605465Y-49614817D01*
X9677077Y-49710367D01*
X9682456Y-49717544D01*
X9689633Y-49722923D01*
X9785183Y-49794535D01*
X9785186Y-49794537D01*
X9792365Y-49799917D01*
X9812020Y-49807285D01*
X9868784Y-49849927D01*
X9893484Y-49916488D01*
X9878276Y-49985837D01*
X9827990Y-50035955D01*
X9812018Y-50043249D01*
X9801014Y-50047374D01*
X9785425Y-50055908D01*
X9689990Y-50127434D01*
X9677434Y-50139990D01*
X9605908Y-50235425D01*
X9597375Y-50251012D01*
X9555135Y-50363689D01*
X9551510Y-50378934D01*
X9546369Y-50426259D01*
X9546000Y-50433073D01*
X9546000Y-50554885D01*
X9550475Y-50570124D01*
X9551865Y-50571329D01*
X9559548Y-50573000D01*
X10276000Y-50573000D01*
X10344121Y-50593002D01*
X10390614Y-50646658D01*
X10402000Y-50699000D01*
X10402000Y-50701000D01*
X10381998Y-50769121D01*
X10328342Y-50815614D01*
X10276000Y-50827000D01*
X9564115Y-50827000D01*
X9548876Y-50831475D01*
X9547671Y-50832865D01*
X9546000Y-50840548D01*
X9546000Y-50966927D01*
X9546369Y-50973741D01*
X9551510Y-51021066D01*
X9555135Y-51036311D01*
X9597375Y-51148988D01*
X9605908Y-51164575D01*
X9677434Y-51260010D01*
X9689990Y-51272566D01*
X9785425Y-51344092D01*
X9801013Y-51352625D01*
X9857753Y-51373896D01*
X9914518Y-51416537D01*
X9939218Y-51483099D01*
X9924011Y-51552448D01*
X9887586Y-51593813D01*
X9877562Y-51601096D01*
X9801094Y-51677564D01*
X9789583Y-51693407D01*
X9740485Y-51789768D01*
X9734433Y-51808392D01*
X9721775Y-51888315D01*
X9721000Y-51898158D01*
X9721000Y-52292385D01*
X9725475Y-52307624D01*
X9726865Y-52308829D01*
X9734548Y-52310500D01*
X10276000Y-52310500D01*
X10344121Y-52330502D01*
X10390614Y-52384158D01*
X10402000Y-52436500D01*
X10402000Y-52438500D01*
X10381998Y-52506621D01*
X10328342Y-52553114D01*
X10276000Y-52564500D01*
X9739116Y-52564500D01*
X9723877Y-52568975D01*
X9722672Y-52570365D01*
X9721001Y-52578048D01*
X9721001Y-52976840D01*
X9721776Y-52986687D01*
X9734433Y-53066607D01*
X9740485Y-53085233D01*
X9789583Y-53181593D01*
X9801094Y-53197436D01*
X9884575Y-53280917D01*
X9883040Y-53282452D01*
X9918384Y-53328286D01*
X9924459Y-53399023D01*
X9891328Y-53461814D01*
X9829507Y-53496726D01*
X9800969Y-53500000D01*
X9533161Y-53500000D01*
X9465040Y-53479998D01*
X9418547Y-53426342D01*
X9408443Y-53356068D01*
X9415177Y-53329778D01*
X9422798Y-53309448D01*
X9429500Y-53247756D01*
X9429500Y-52652244D01*
X9422798Y-52590552D01*
X9372071Y-52455236D01*
X9366691Y-52448057D01*
X9366689Y-52448054D01*
X9290785Y-52346776D01*
X9285404Y-52339596D01*
X9278224Y-52334215D01*
X9278222Y-52334213D01*
X9266862Y-52325699D01*
X9224347Y-52268840D01*
X9219323Y-52198021D01*
X9242465Y-52148171D01*
X9259326Y-52126197D01*
X9259329Y-52126193D01*
X9264355Y-52119642D01*
X9320228Y-51984754D01*
X9331629Y-51898158D01*
X9338207Y-51848188D01*
X9339285Y-51840000D01*
X9320228Y-51695246D01*
X9293477Y-51630663D01*
X9267515Y-51567986D01*
X9267514Y-51567984D01*
X9264355Y-51560358D01*
X9175474Y-51444526D01*
X9168924Y-51439500D01*
X9168921Y-51439497D01*
X9066196Y-51360673D01*
X9066194Y-51360672D01*
X9059643Y-51355645D01*
X8924754Y-51299772D01*
X8780000Y-51280715D01*
X8771812Y-51281793D01*
X8642446Y-51298824D01*
X8572297Y-51287885D01*
X8519199Y-51240756D01*
X8500000Y-51173902D01*
X8500000Y-45882104D01*
X8520002Y-45813983D01*
X8573658Y-45767490D01*
X8643932Y-45757386D01*
X8708512Y-45786880D01*
X8735480Y-45824278D01*
X8735737Y-45824106D01*
X8740545Y-45831302D01*
X8742410Y-45833888D01*
X8742633Y-45834427D01*
X8784983Y-45897808D01*
X8802192Y-45915017D01*
X8865575Y-45957368D01*
X8888066Y-45966684D01*
X8943915Y-45977793D01*
X8956170Y-45979000D01*
X9279885Y-45979000D01*
X9295124Y-45974525D01*
X9296329Y-45973135D01*
X9298000Y-45965452D01*
X9298000Y-45960884D01*
X9552000Y-45960884D01*
X9556475Y-45976123D01*
X9557865Y-45977328D01*
X9565548Y-45978999D01*
X9893828Y-45978999D01*
X9906088Y-45977791D01*
X9961931Y-45966685D01*
X9984427Y-45957367D01*
X10047808Y-45915017D01*
X10065017Y-45897808D01*
X10107368Y-45834425D01*
X10116684Y-45811934D01*
X10127793Y-45756085D01*
X10129000Y-45743830D01*
X10129000Y-45270115D01*
X10124525Y-45254876D01*
X10123135Y-45253671D01*
X10115452Y-45252000D01*
X9570115Y-45252000D01*
X9554876Y-45256475D01*
X9553671Y-45257865D01*
X9552000Y-45265548D01*
X9552000Y-45960884D01*
X9298000Y-45960884D01*
X9298000Y-44979885D01*
X9552000Y-44979885D01*
X9556475Y-44995124D01*
X9557865Y-44996329D01*
X9565548Y-44998000D01*
X10110884Y-44998000D01*
X10126123Y-44993525D01*
X10127328Y-44992135D01*
X10128999Y-44984452D01*
X10128999Y-44506172D01*
X10127791Y-44493912D01*
X10116685Y-44438069D01*
X10107367Y-44415573D01*
X10065017Y-44352192D01*
X10047808Y-44334983D01*
X9984425Y-44292632D01*
X9961934Y-44283316D01*
X9906085Y-44272207D01*
X9893830Y-44271000D01*
X9570115Y-44271000D01*
X9554876Y-44275475D01*
X9553671Y-44276865D01*
X9552000Y-44284548D01*
X9552000Y-44979885D01*
X9298000Y-44979885D01*
X9298000Y-44289116D01*
X9293525Y-44273877D01*
X9292135Y-44272672D01*
X9284452Y-44271001D01*
X8956172Y-44271001D01*
X8943912Y-44272209D01*
X8888069Y-44283315D01*
X8865573Y-44292633D01*
X8802192Y-44334983D01*
X8784983Y-44352192D01*
X8742631Y-44415576D01*
X8742408Y-44416115D01*
X8741607Y-44417109D01*
X8735737Y-44425894D01*
X8734951Y-44425369D01*
X8697859Y-44471395D01*
X8630495Y-44493815D01*
X8561704Y-44476256D01*
X8513327Y-44424293D01*
X8500000Y-44367895D01*
X8500000Y-43482104D01*
X8520002Y-43413983D01*
X8573658Y-43367490D01*
X8643932Y-43357386D01*
X8708512Y-43386880D01*
X8735480Y-43424278D01*
X8735737Y-43424106D01*
X8740545Y-43431302D01*
X8742410Y-43433888D01*
X8742633Y-43434427D01*
X8784983Y-43497808D01*
X8802192Y-43515017D01*
X8865575Y-43557368D01*
X8888066Y-43566684D01*
X8943915Y-43577793D01*
X8956170Y-43579000D01*
X9279885Y-43579000D01*
X9295124Y-43574525D01*
X9296329Y-43573135D01*
X9298000Y-43565452D01*
X9298000Y-43560884D01*
X9552000Y-43560884D01*
X9556475Y-43576123D01*
X9557865Y-43577328D01*
X9565548Y-43578999D01*
X9893828Y-43578999D01*
X9906088Y-43577791D01*
X9961931Y-43566685D01*
X9984427Y-43557367D01*
X10047808Y-43515017D01*
X10065017Y-43497808D01*
X10107368Y-43434425D01*
X10116684Y-43411934D01*
X10127793Y-43356085D01*
X10129000Y-43343830D01*
X10129000Y-42870115D01*
X10124525Y-42854876D01*
X10123135Y-42853671D01*
X10115452Y-42852000D01*
X9570115Y-42852000D01*
X9554876Y-42856475D01*
X9553671Y-42857865D01*
X9552000Y-42865548D01*
X9552000Y-43560884D01*
X9298000Y-43560884D01*
X9298000Y-42579885D01*
X9552000Y-42579885D01*
X9556475Y-42595124D01*
X9557865Y-42596329D01*
X9565548Y-42598000D01*
X10110884Y-42598000D01*
X10126123Y-42593525D01*
X10127328Y-42592135D01*
X10128999Y-42584452D01*
X10128999Y-42106172D01*
X10127791Y-42093912D01*
X10116685Y-42038069D01*
X10107367Y-42015573D01*
X10065017Y-41952192D01*
X10047808Y-41934983D01*
X9984425Y-41892632D01*
X9961934Y-41883316D01*
X9906085Y-41872207D01*
X9893830Y-41871000D01*
X9570115Y-41871000D01*
X9554876Y-41875475D01*
X9553671Y-41876865D01*
X9552000Y-41884548D01*
X9552000Y-42579885D01*
X9298000Y-42579885D01*
X9298000Y-41889116D01*
X9293525Y-41873877D01*
X9292135Y-41872672D01*
X9284452Y-41871001D01*
X8956172Y-41871001D01*
X8943912Y-41872209D01*
X8888069Y-41883315D01*
X8865573Y-41892633D01*
X8802192Y-41934983D01*
X8784983Y-41952192D01*
X8742631Y-42015576D01*
X8742408Y-42016115D01*
X8741607Y-42017109D01*
X8735737Y-42025894D01*
X8734951Y-42025369D01*
X8697859Y-42071395D01*
X8630495Y-42093815D01*
X8561704Y-42076256D01*
X8513327Y-42024293D01*
X8500000Y-41967895D01*
X8500000Y-41626000D01*
X8520002Y-41557879D01*
X8573658Y-41511386D01*
X8626000Y-41500000D01*
X10730400Y-41500000D01*
X10798521Y-41520002D01*
G37*
%TD.AperFunction*%
%TA.AperFunction,Conductor*%
G36*
X12619121Y-50878002D02*
G01*
X12665614Y-50931658D01*
X12677000Y-50984000D01*
X12677000Y-50986000D01*
X12656998Y-51054121D01*
X12603342Y-51100614D01*
X12551000Y-51112000D01*
X12232115Y-51112000D01*
X12187720Y-51125035D01*
X12177043Y-51131897D01*
X12141548Y-51137000D01*
X11599000Y-51137000D01*
X11530879Y-51116998D01*
X11484386Y-51063342D01*
X11473000Y-51011000D01*
X11473000Y-51009000D01*
X11493002Y-50940879D01*
X11546658Y-50894386D01*
X11599000Y-50883000D01*
X11917885Y-50883000D01*
X11962280Y-50869965D01*
X11972957Y-50863103D01*
X12008452Y-50858000D01*
X12551000Y-50858000D01*
X12619121Y-50878002D01*
G37*
%TD.AperFunction*%
%TA.AperFunction,Conductor*%
G36*
X15769121Y-31793002D02*
G01*
X15815614Y-31846658D01*
X15827000Y-31899000D01*
X15827000Y-32860884D01*
X15831475Y-32876123D01*
X15832865Y-32877328D01*
X15840548Y-32878999D01*
X15994292Y-32878999D01*
X16001110Y-32878630D01*
X16051482Y-32873159D01*
X16066741Y-32869530D01*
X16186118Y-32824778D01*
X16201704Y-32816246D01*
X16298435Y-32743750D01*
X16364942Y-32718902D01*
X16434324Y-32733955D01*
X16484554Y-32784129D01*
X16500000Y-32844576D01*
X16500000Y-33374000D01*
X16479998Y-33442121D01*
X16426342Y-33488614D01*
X16374000Y-33500000D01*
X15140661Y-33500000D01*
X15072540Y-33479998D01*
X15051566Y-33463095D01*
X14453905Y-32865434D01*
X14419879Y-32803122D01*
X14417000Y-32776339D01*
X14417000Y-32318424D01*
X14437002Y-32250303D01*
X14490658Y-32203810D01*
X14523288Y-32193975D01*
X14541764Y-32191049D01*
X14541766Y-32191048D01*
X14551555Y-32189498D01*
X14665723Y-32131326D01*
X14730906Y-32066143D01*
X14793218Y-32032117D01*
X14864033Y-32037182D01*
X14920869Y-32079729D01*
X14945680Y-32146249D01*
X14946001Y-32155238D01*
X14946001Y-32419292D01*
X14946370Y-32426110D01*
X14951841Y-32476482D01*
X14955470Y-32491741D01*
X15000222Y-32611118D01*
X15008754Y-32626704D01*
X15084572Y-32727867D01*
X15097133Y-32740428D01*
X15198296Y-32816246D01*
X15213882Y-32824778D01*
X15333265Y-32869533D01*
X15348510Y-32873158D01*
X15398892Y-32878631D01*
X15405706Y-32879000D01*
X15554885Y-32879000D01*
X15570124Y-32874525D01*
X15571329Y-32873135D01*
X15573000Y-32865452D01*
X15573000Y-31899000D01*
X15593002Y-31830879D01*
X15646658Y-31784386D01*
X15699000Y-31773000D01*
X15701000Y-31773000D01*
X15769121Y-31793002D01*
G37*
%TD.AperFunction*%
M02*
