%TF.GenerationSoftware,KiCad,Pcbnew,(6.0.10)*%
%TF.CreationDate,2023-01-09T17:37:14-08:00*%
%TF.ProjectId,ai-camera,61692d63-616d-4657-9261-2e6b69636164,rev?*%
%TF.SameCoordinates,PX5a995c0PY2aea540*%
%TF.FileFunction,AssemblyDrawing,Top*%
%FSLAX46Y46*%
G04 Gerber Fmt 4.6, Leading zero omitted, Abs format (unit mm)*
G04 Created by KiCad (PCBNEW (6.0.10)) date 2023-01-09 17:37:14*
%MOMM*%
%LPD*%
G01*
G04 APERTURE LIST*
%ADD10C,0.150000*%
%ADD11C,0.040000*%
%ADD12C,0.080000*%
%ADD13C,0.060000*%
%ADD14C,0.050000*%
%ADD15C,0.100000*%
G04 APERTURE END LIST*
D10*
X11952380Y-52333333D02*
X12666666Y-52333333D01*
X12809523Y-52380952D01*
X12904761Y-52476190D01*
X12952380Y-52619047D01*
X12952380Y-52714285D01*
X12952380Y-51333333D02*
X12952380Y-51904761D01*
X12952380Y-51619047D02*
X11952380Y-51619047D01*
X12095238Y-51714285D01*
X12190476Y-51809523D01*
X12238095Y-51904761D01*
X4238095Y-65452380D02*
X4238095Y-64452380D01*
X4238095Y-64928571D02*
X4809523Y-64928571D01*
X4809523Y-65452380D02*
X4809523Y-64452380D01*
X5714285Y-64785714D02*
X5714285Y-65452380D01*
X5476190Y-64404761D02*
X5238095Y-65119047D01*
X5857142Y-65119047D01*
X4238095Y-5452380D02*
X4238095Y-4452380D01*
X4238095Y-4928571D02*
X4809523Y-4928571D01*
X4809523Y-5452380D02*
X4809523Y-4452380D01*
X5809523Y-5452380D02*
X5238095Y-5452380D01*
X5523809Y-5452380D02*
X5523809Y-4452380D01*
X5428571Y-4595238D01*
X5333333Y-4690476D01*
X5238095Y-4738095D01*
D11*
X25792619Y-48542142D02*
X25668809Y-48628809D01*
X25792619Y-48690714D02*
X25532619Y-48690714D01*
X25532619Y-48591666D01*
X25545000Y-48566904D01*
X25557380Y-48554523D01*
X25582142Y-48542142D01*
X25619285Y-48542142D01*
X25644047Y-48554523D01*
X25656428Y-48566904D01*
X25668809Y-48591666D01*
X25668809Y-48690714D01*
X25792619Y-48294523D02*
X25792619Y-48443095D01*
X25792619Y-48368809D02*
X25532619Y-48368809D01*
X25569761Y-48393571D01*
X25594523Y-48418333D01*
X25606904Y-48443095D01*
X25532619Y-48207857D02*
X25532619Y-48046904D01*
X25631666Y-48133571D01*
X25631666Y-48096428D01*
X25644047Y-48071666D01*
X25656428Y-48059285D01*
X25681190Y-48046904D01*
X25743095Y-48046904D01*
X25767857Y-48059285D01*
X25780238Y-48071666D01*
X25792619Y-48096428D01*
X25792619Y-48170714D01*
X25780238Y-48195476D01*
X25767857Y-48207857D01*
D10*
X61654761Y-23333333D02*
X61702380Y-23190476D01*
X61702380Y-22952380D01*
X61654761Y-22857142D01*
X61607142Y-22809523D01*
X61511904Y-22761904D01*
X61416666Y-22761904D01*
X61321428Y-22809523D01*
X61273809Y-22857142D01*
X61226190Y-22952380D01*
X61178571Y-23142857D01*
X61130952Y-23238095D01*
X61083333Y-23285714D01*
X60988095Y-23333333D01*
X60892857Y-23333333D01*
X60797619Y-23285714D01*
X60750000Y-23238095D01*
X60702380Y-23142857D01*
X60702380Y-22904761D01*
X60750000Y-22761904D01*
X60702380Y-22428571D02*
X61702380Y-22190476D01*
X60988095Y-22000000D01*
X61702380Y-21809523D01*
X60702380Y-21571428D01*
X60797619Y-21238095D02*
X60750000Y-21190476D01*
X60702380Y-21095238D01*
X60702380Y-20857142D01*
X60750000Y-20761904D01*
X60797619Y-20714285D01*
X60892857Y-20666666D01*
X60988095Y-20666666D01*
X61130952Y-20714285D01*
X61702380Y-21285714D01*
X61702380Y-20666666D01*
D12*
X6576190Y-35533333D02*
X6576190Y-35771428D01*
X6076190Y-35771428D01*
X6576190Y-35104761D02*
X6576190Y-35390476D01*
X6576190Y-35247619D02*
X6076190Y-35247619D01*
X6147619Y-35295238D01*
X6195238Y-35342857D01*
X6219047Y-35390476D01*
D11*
X36789285Y-63614285D02*
X36777380Y-63626190D01*
X36741666Y-63638095D01*
X36717857Y-63638095D01*
X36682142Y-63626190D01*
X36658333Y-63602380D01*
X36646428Y-63578571D01*
X36634523Y-63530952D01*
X36634523Y-63495238D01*
X36646428Y-63447619D01*
X36658333Y-63423809D01*
X36682142Y-63400000D01*
X36717857Y-63388095D01*
X36741666Y-63388095D01*
X36777380Y-63400000D01*
X36789285Y-63411904D01*
X36872619Y-63388095D02*
X37027380Y-63388095D01*
X36944047Y-63483333D01*
X36979761Y-63483333D01*
X37003571Y-63495238D01*
X37015476Y-63507142D01*
X37027380Y-63530952D01*
X37027380Y-63590476D01*
X37015476Y-63614285D01*
X37003571Y-63626190D01*
X36979761Y-63638095D01*
X36908333Y-63638095D01*
X36884523Y-63626190D01*
X36872619Y-63614285D01*
X37110714Y-63388095D02*
X37265476Y-63388095D01*
X37182142Y-63483333D01*
X37217857Y-63483333D01*
X37241666Y-63495238D01*
X37253571Y-63507142D01*
X37265476Y-63530952D01*
X37265476Y-63590476D01*
X37253571Y-63614285D01*
X37241666Y-63626190D01*
X37217857Y-63638095D01*
X37146428Y-63638095D01*
X37122619Y-63626190D01*
X37110714Y-63614285D01*
D13*
X44704761Y-45180952D02*
X44704761Y-44780952D01*
X44800000Y-44780952D01*
X44857142Y-44800000D01*
X44895238Y-44838095D01*
X44914285Y-44876190D01*
X44933333Y-44952380D01*
X44933333Y-45009523D01*
X44914285Y-45085714D01*
X44895238Y-45123809D01*
X44857142Y-45161904D01*
X44800000Y-45180952D01*
X44704761Y-45180952D01*
X45276190Y-44780952D02*
X45200000Y-44780952D01*
X45161904Y-44800000D01*
X45142857Y-44819047D01*
X45104761Y-44876190D01*
X45085714Y-44952380D01*
X45085714Y-45104761D01*
X45104761Y-45142857D01*
X45123809Y-45161904D01*
X45161904Y-45180952D01*
X45238095Y-45180952D01*
X45276190Y-45161904D01*
X45295238Y-45142857D01*
X45314285Y-45104761D01*
X45314285Y-45009523D01*
X45295238Y-44971428D01*
X45276190Y-44952380D01*
X45238095Y-44933333D01*
X45161904Y-44933333D01*
X45123809Y-44952380D01*
X45104761Y-44971428D01*
X45085714Y-45009523D01*
D11*
X46912857Y-37217619D02*
X46826190Y-37093809D01*
X46764285Y-37217619D02*
X46764285Y-36957619D01*
X46863333Y-36957619D01*
X46888095Y-36970000D01*
X46900476Y-36982380D01*
X46912857Y-37007142D01*
X46912857Y-37044285D01*
X46900476Y-37069047D01*
X46888095Y-37081428D01*
X46863333Y-37093809D01*
X46764285Y-37093809D01*
X47011904Y-36982380D02*
X47024285Y-36970000D01*
X47049047Y-36957619D01*
X47110952Y-36957619D01*
X47135714Y-36970000D01*
X47148095Y-36982380D01*
X47160476Y-37007142D01*
X47160476Y-37031904D01*
X47148095Y-37069047D01*
X46999523Y-37217619D01*
X47160476Y-37217619D01*
X47395714Y-36957619D02*
X47271904Y-36957619D01*
X47259523Y-37081428D01*
X47271904Y-37069047D01*
X47296666Y-37056666D01*
X47358571Y-37056666D01*
X47383333Y-37069047D01*
X47395714Y-37081428D01*
X47408095Y-37106190D01*
X47408095Y-37168095D01*
X47395714Y-37192857D01*
X47383333Y-37205238D01*
X47358571Y-37217619D01*
X47296666Y-37217619D01*
X47271904Y-37205238D01*
X47259523Y-37192857D01*
D13*
X8929761Y-46180952D02*
X8929761Y-45780952D01*
X9025000Y-45780952D01*
X9082142Y-45800000D01*
X9120238Y-45838095D01*
X9139285Y-45876190D01*
X9158333Y-45952380D01*
X9158333Y-46009523D01*
X9139285Y-46085714D01*
X9120238Y-46123809D01*
X9082142Y-46161904D01*
X9025000Y-46180952D01*
X8929761Y-46180952D01*
X9501190Y-45914285D02*
X9501190Y-46180952D01*
X9405952Y-45761904D02*
X9310714Y-46047619D01*
X9558333Y-46047619D01*
X17014285Y-37680952D02*
X17014285Y-37280952D01*
X17109523Y-37280952D01*
X17166666Y-37300000D01*
X17204761Y-37338095D01*
X17223809Y-37376190D01*
X17242857Y-37452380D01*
X17242857Y-37509523D01*
X17223809Y-37585714D01*
X17204761Y-37623809D01*
X17166666Y-37661904D01*
X17109523Y-37680952D01*
X17014285Y-37680952D01*
X17623809Y-37680952D02*
X17395238Y-37680952D01*
X17509523Y-37680952D02*
X17509523Y-37280952D01*
X17471428Y-37338095D01*
X17433333Y-37376190D01*
X17395238Y-37395238D01*
X18004761Y-37680952D02*
X17776190Y-37680952D01*
X17890476Y-37680952D02*
X17890476Y-37280952D01*
X17852380Y-37338095D01*
X17814285Y-37376190D01*
X17776190Y-37395238D01*
D10*
X34083333Y-1845238D02*
X33940476Y-1797619D01*
X33702380Y-1797619D01*
X33607142Y-1845238D01*
X33559523Y-1892857D01*
X33511904Y-1988095D01*
X33511904Y-2083333D01*
X33559523Y-2178571D01*
X33607142Y-2226190D01*
X33702380Y-2273809D01*
X33892857Y-2321428D01*
X33988095Y-2369047D01*
X34035714Y-2416666D01*
X34083333Y-2511904D01*
X34083333Y-2607142D01*
X34035714Y-2702380D01*
X33988095Y-2750000D01*
X33892857Y-2797619D01*
X33654761Y-2797619D01*
X33511904Y-2750000D01*
X33178571Y-2797619D02*
X32940476Y-1797619D01*
X32750000Y-2511904D01*
X32559523Y-1797619D01*
X32321428Y-2797619D01*
X31511904Y-2464285D02*
X31511904Y-1797619D01*
X31750000Y-2845238D02*
X31988095Y-2130952D01*
X31369047Y-2130952D01*
D13*
X52014285Y-37680952D02*
X52014285Y-37280952D01*
X52109523Y-37280952D01*
X52166666Y-37300000D01*
X52204761Y-37338095D01*
X52223809Y-37376190D01*
X52242857Y-37452380D01*
X52242857Y-37509523D01*
X52223809Y-37585714D01*
X52204761Y-37623809D01*
X52166666Y-37661904D01*
X52109523Y-37680952D01*
X52014285Y-37680952D01*
X52623809Y-37680952D02*
X52395238Y-37680952D01*
X52509523Y-37680952D02*
X52509523Y-37280952D01*
X52471428Y-37338095D01*
X52433333Y-37376190D01*
X52395238Y-37395238D01*
X52871428Y-37280952D02*
X52909523Y-37280952D01*
X52947619Y-37300000D01*
X52966666Y-37319047D01*
X52985714Y-37357142D01*
X53004761Y-37433333D01*
X53004761Y-37528571D01*
X52985714Y-37604761D01*
X52966666Y-37642857D01*
X52947619Y-37661904D01*
X52909523Y-37680952D01*
X52871428Y-37680952D01*
X52833333Y-37661904D01*
X52814285Y-37642857D01*
X52795238Y-37604761D01*
X52776190Y-37528571D01*
X52776190Y-37433333D01*
X52795238Y-37357142D01*
X52814285Y-37319047D01*
X52833333Y-37300000D01*
X52871428Y-37280952D01*
D11*
X43649285Y-37189285D02*
X43637380Y-37201190D01*
X43601666Y-37213095D01*
X43577857Y-37213095D01*
X43542142Y-37201190D01*
X43518333Y-37177380D01*
X43506428Y-37153571D01*
X43494523Y-37105952D01*
X43494523Y-37070238D01*
X43506428Y-37022619D01*
X43518333Y-36998809D01*
X43542142Y-36975000D01*
X43577857Y-36963095D01*
X43601666Y-36963095D01*
X43637380Y-36975000D01*
X43649285Y-36986904D01*
X43887380Y-37213095D02*
X43744523Y-37213095D01*
X43815952Y-37213095D02*
X43815952Y-36963095D01*
X43792142Y-36998809D01*
X43768333Y-37022619D01*
X43744523Y-37034523D01*
X44101666Y-37046428D02*
X44101666Y-37213095D01*
X44042142Y-36951190D02*
X43982619Y-37129761D01*
X44137380Y-37129761D01*
D13*
X19514285Y-2680952D02*
X19514285Y-2280952D01*
X19609523Y-2280952D01*
X19666666Y-2300000D01*
X19704761Y-2338095D01*
X19723809Y-2376190D01*
X19742857Y-2452380D01*
X19742857Y-2509523D01*
X19723809Y-2585714D01*
X19704761Y-2623809D01*
X19666666Y-2661904D01*
X19609523Y-2680952D01*
X19514285Y-2680952D01*
X20123809Y-2680952D02*
X19895238Y-2680952D01*
X20009523Y-2680952D02*
X20009523Y-2280952D01*
X19971428Y-2338095D01*
X19933333Y-2376190D01*
X19895238Y-2395238D01*
X20485714Y-2280952D02*
X20295238Y-2280952D01*
X20276190Y-2471428D01*
X20295238Y-2452380D01*
X20333333Y-2433333D01*
X20428571Y-2433333D01*
X20466666Y-2452380D01*
X20485714Y-2471428D01*
X20504761Y-2509523D01*
X20504761Y-2604761D01*
X20485714Y-2642857D01*
X20466666Y-2661904D01*
X20428571Y-2680952D01*
X20333333Y-2680952D01*
X20295238Y-2661904D01*
X20276190Y-2642857D01*
D12*
X50560952Y-12576190D02*
X50560952Y-12980952D01*
X50584761Y-13028571D01*
X50608571Y-13052380D01*
X50656190Y-13076190D01*
X50751428Y-13076190D01*
X50799047Y-13052380D01*
X50822857Y-13028571D01*
X50846666Y-12980952D01*
X50846666Y-12576190D01*
X51346666Y-13076190D02*
X51060952Y-13076190D01*
X51203809Y-13076190D02*
X51203809Y-12576190D01*
X51156190Y-12647619D01*
X51108571Y-12695238D01*
X51060952Y-12719047D01*
X51513333Y-12576190D02*
X51822857Y-12576190D01*
X51656190Y-12766666D01*
X51727619Y-12766666D01*
X51775238Y-12790476D01*
X51799047Y-12814285D01*
X51822857Y-12861904D01*
X51822857Y-12980952D01*
X51799047Y-13028571D01*
X51775238Y-13052380D01*
X51727619Y-13076190D01*
X51584761Y-13076190D01*
X51537142Y-13052380D01*
X51513333Y-13028571D01*
D13*
X19704761Y-40180952D02*
X19704761Y-39780952D01*
X19800000Y-39780952D01*
X19857142Y-39800000D01*
X19895238Y-39838095D01*
X19914285Y-39876190D01*
X19933333Y-39952380D01*
X19933333Y-40009523D01*
X19914285Y-40085714D01*
X19895238Y-40123809D01*
X19857142Y-40161904D01*
X19800000Y-40180952D01*
X19704761Y-40180952D01*
X20123809Y-40180952D02*
X20200000Y-40180952D01*
X20238095Y-40161904D01*
X20257142Y-40142857D01*
X20295238Y-40085714D01*
X20314285Y-40009523D01*
X20314285Y-39857142D01*
X20295238Y-39819047D01*
X20276190Y-39800000D01*
X20238095Y-39780952D01*
X20161904Y-39780952D01*
X20123809Y-39800000D01*
X20104761Y-39819047D01*
X20085714Y-39857142D01*
X20085714Y-39952380D01*
X20104761Y-39990476D01*
X20123809Y-40009523D01*
X20161904Y-40028571D01*
X20238095Y-40028571D01*
X20276190Y-40009523D01*
X20295238Y-39990476D01*
X20314285Y-39952380D01*
X11979761Y-46180952D02*
X11979761Y-45780952D01*
X12075000Y-45780952D01*
X12132142Y-45800000D01*
X12170238Y-45838095D01*
X12189285Y-45876190D01*
X12208333Y-45952380D01*
X12208333Y-46009523D01*
X12189285Y-46085714D01*
X12170238Y-46123809D01*
X12132142Y-46161904D01*
X12075000Y-46180952D01*
X11979761Y-46180952D01*
X12341666Y-45780952D02*
X12589285Y-45780952D01*
X12455952Y-45933333D01*
X12513095Y-45933333D01*
X12551190Y-45952380D01*
X12570238Y-45971428D01*
X12589285Y-46009523D01*
X12589285Y-46104761D01*
X12570238Y-46142857D01*
X12551190Y-46161904D01*
X12513095Y-46180952D01*
X12398809Y-46180952D01*
X12360714Y-46161904D01*
X12341666Y-46142857D01*
D11*
X51719285Y-11139285D02*
X51707380Y-11151190D01*
X51671666Y-11163095D01*
X51647857Y-11163095D01*
X51612142Y-11151190D01*
X51588333Y-11127380D01*
X51576428Y-11103571D01*
X51564523Y-11055952D01*
X51564523Y-11020238D01*
X51576428Y-10972619D01*
X51588333Y-10948809D01*
X51612142Y-10925000D01*
X51647857Y-10913095D01*
X51671666Y-10913095D01*
X51707380Y-10925000D01*
X51719285Y-10936904D01*
X51802619Y-10913095D02*
X51957380Y-10913095D01*
X51874047Y-11008333D01*
X51909761Y-11008333D01*
X51933571Y-11020238D01*
X51945476Y-11032142D01*
X51957380Y-11055952D01*
X51957380Y-11115476D01*
X51945476Y-11139285D01*
X51933571Y-11151190D01*
X51909761Y-11163095D01*
X51838333Y-11163095D01*
X51814523Y-11151190D01*
X51802619Y-11139285D01*
X52040714Y-10913095D02*
X52207380Y-10913095D01*
X52100238Y-11163095D01*
D13*
X6880952Y-39754761D02*
X7204761Y-39754761D01*
X7242857Y-39735714D01*
X7261904Y-39716666D01*
X7280952Y-39678571D01*
X7280952Y-39602380D01*
X7261904Y-39564285D01*
X7242857Y-39545238D01*
X7204761Y-39526190D01*
X6880952Y-39526190D01*
X7280952Y-39126190D02*
X7280952Y-39354761D01*
X7280952Y-39240476D02*
X6880952Y-39240476D01*
X6938095Y-39278571D01*
X6976190Y-39316666D01*
X6995238Y-39354761D01*
D11*
X17289285Y-67821666D02*
X17301190Y-67833571D01*
X17313095Y-67869285D01*
X17313095Y-67893095D01*
X17301190Y-67928809D01*
X17277380Y-67952619D01*
X17253571Y-67964523D01*
X17205952Y-67976428D01*
X17170238Y-67976428D01*
X17122619Y-67964523D01*
X17098809Y-67952619D01*
X17075000Y-67928809D01*
X17063095Y-67893095D01*
X17063095Y-67869285D01*
X17075000Y-67833571D01*
X17086904Y-67821666D01*
X17086904Y-67726428D02*
X17075000Y-67714523D01*
X17063095Y-67690714D01*
X17063095Y-67631190D01*
X17075000Y-67607380D01*
X17086904Y-67595476D01*
X17110714Y-67583571D01*
X17134523Y-67583571D01*
X17170238Y-67595476D01*
X17313095Y-67738333D01*
X17313095Y-67583571D01*
D10*
X18012380Y-28135238D02*
X17536190Y-28468571D01*
X18012380Y-28706666D02*
X17012380Y-28706666D01*
X17012380Y-28325714D01*
X17060000Y-28230476D01*
X17107619Y-28182857D01*
X17202857Y-28135238D01*
X17345714Y-28135238D01*
X17440952Y-28182857D01*
X17488571Y-28230476D01*
X17536190Y-28325714D01*
X17536190Y-28706666D01*
X17012380Y-27849523D02*
X18012380Y-27516190D01*
X17012380Y-27182857D01*
X17107619Y-26897142D02*
X17060000Y-26849523D01*
X17012380Y-26754285D01*
X17012380Y-26516190D01*
X17060000Y-26420952D01*
X17107619Y-26373333D01*
X17202857Y-26325714D01*
X17298095Y-26325714D01*
X17440952Y-26373333D01*
X18012380Y-26944761D01*
X18012380Y-26325714D01*
X34666666Y-55752380D02*
X34666666Y-56466666D01*
X34619047Y-56609523D01*
X34523809Y-56704761D01*
X34380952Y-56752380D01*
X34285714Y-56752380D01*
X35571428Y-55752380D02*
X35380952Y-55752380D01*
X35285714Y-55800000D01*
X35238095Y-55847619D01*
X35142857Y-55990476D01*
X35095238Y-56180952D01*
X35095238Y-56561904D01*
X35142857Y-56657142D01*
X35190476Y-56704761D01*
X35285714Y-56752380D01*
X35476190Y-56752380D01*
X35571428Y-56704761D01*
X35619047Y-56657142D01*
X35666666Y-56561904D01*
X35666666Y-56323809D01*
X35619047Y-56228571D01*
X35571428Y-56180952D01*
X35476190Y-56133333D01*
X35285714Y-56133333D01*
X35190476Y-56180952D01*
X35142857Y-56228571D01*
X35095238Y-56323809D01*
D13*
X49514285Y-2680952D02*
X49514285Y-2280952D01*
X49609523Y-2280952D01*
X49666666Y-2300000D01*
X49704761Y-2338095D01*
X49723809Y-2376190D01*
X49742857Y-2452380D01*
X49742857Y-2509523D01*
X49723809Y-2585714D01*
X49704761Y-2623809D01*
X49666666Y-2661904D01*
X49609523Y-2680952D01*
X49514285Y-2680952D01*
X50123809Y-2680952D02*
X49895238Y-2680952D01*
X50009523Y-2680952D02*
X50009523Y-2280952D01*
X49971428Y-2338095D01*
X49933333Y-2376190D01*
X49895238Y-2395238D01*
X50466666Y-2414285D02*
X50466666Y-2680952D01*
X50371428Y-2261904D02*
X50276190Y-2547619D01*
X50523809Y-2547619D01*
D11*
X16317619Y-67843333D02*
X16193809Y-67930000D01*
X16317619Y-67991904D02*
X16057619Y-67991904D01*
X16057619Y-67892857D01*
X16070000Y-67868095D01*
X16082380Y-67855714D01*
X16107142Y-67843333D01*
X16144285Y-67843333D01*
X16169047Y-67855714D01*
X16181428Y-67868095D01*
X16193809Y-67892857D01*
X16193809Y-67991904D01*
X16057619Y-67608095D02*
X16057619Y-67731904D01*
X16181428Y-67744285D01*
X16169047Y-67731904D01*
X16156666Y-67707142D01*
X16156666Y-67645238D01*
X16169047Y-67620476D01*
X16181428Y-67608095D01*
X16206190Y-67595714D01*
X16268095Y-67595714D01*
X16292857Y-67608095D01*
X16305238Y-67620476D01*
X16317619Y-67645238D01*
X16317619Y-67707142D01*
X16305238Y-67731904D01*
X16292857Y-67744285D01*
D13*
X52014285Y-5180952D02*
X52014285Y-4780952D01*
X52109523Y-4780952D01*
X52166666Y-4800000D01*
X52204761Y-4838095D01*
X52223809Y-4876190D01*
X52242857Y-4952380D01*
X52242857Y-5009523D01*
X52223809Y-5085714D01*
X52204761Y-5123809D01*
X52166666Y-5161904D01*
X52109523Y-5180952D01*
X52014285Y-5180952D01*
X52623809Y-5180952D02*
X52395238Y-5180952D01*
X52509523Y-5180952D02*
X52509523Y-4780952D01*
X52471428Y-4838095D01*
X52433333Y-4876190D01*
X52395238Y-4895238D01*
X52776190Y-4819047D02*
X52795238Y-4800000D01*
X52833333Y-4780952D01*
X52928571Y-4780952D01*
X52966666Y-4800000D01*
X52985714Y-4819047D01*
X53004761Y-4857142D01*
X53004761Y-4895238D01*
X52985714Y-4952380D01*
X52757142Y-5180952D01*
X53004761Y-5180952D01*
D10*
X45083333Y-1845238D02*
X44940476Y-1797619D01*
X44702380Y-1797619D01*
X44607142Y-1845238D01*
X44559523Y-1892857D01*
X44511904Y-1988095D01*
X44511904Y-2083333D01*
X44559523Y-2178571D01*
X44607142Y-2226190D01*
X44702380Y-2273809D01*
X44892857Y-2321428D01*
X44988095Y-2369047D01*
X45035714Y-2416666D01*
X45083333Y-2511904D01*
X45083333Y-2607142D01*
X45035714Y-2702380D01*
X44988095Y-2750000D01*
X44892857Y-2797619D01*
X44654761Y-2797619D01*
X44511904Y-2750000D01*
X44178571Y-2797619D02*
X43940476Y-1797619D01*
X43750000Y-2511904D01*
X43559523Y-1797619D01*
X43321428Y-2797619D01*
X42416666Y-1797619D02*
X42988095Y-1797619D01*
X42702380Y-1797619D02*
X42702380Y-2797619D01*
X42797619Y-2654761D01*
X42892857Y-2559523D01*
X42988095Y-2511904D01*
X61654761Y-14333333D02*
X61702380Y-14190476D01*
X61702380Y-13952380D01*
X61654761Y-13857142D01*
X61607142Y-13809523D01*
X61511904Y-13761904D01*
X61416666Y-13761904D01*
X61321428Y-13809523D01*
X61273809Y-13857142D01*
X61226190Y-13952380D01*
X61178571Y-14142857D01*
X61130952Y-14238095D01*
X61083333Y-14285714D01*
X60988095Y-14333333D01*
X60892857Y-14333333D01*
X60797619Y-14285714D01*
X60750000Y-14238095D01*
X60702380Y-14142857D01*
X60702380Y-13904761D01*
X60750000Y-13761904D01*
X60702380Y-13428571D02*
X61702380Y-13190476D01*
X60988095Y-13000000D01*
X61702380Y-12809523D01*
X60702380Y-12571428D01*
X60702380Y-12285714D02*
X60702380Y-11666666D01*
X61083333Y-12000000D01*
X61083333Y-11857142D01*
X61130952Y-11761904D01*
X61178571Y-11714285D01*
X61273809Y-11666666D01*
X61511904Y-11666666D01*
X61607142Y-11714285D01*
X61654761Y-11761904D01*
X61702380Y-11857142D01*
X61702380Y-12142857D01*
X61654761Y-12238095D01*
X61607142Y-12285714D01*
X20847619Y-33866666D02*
X20133333Y-33866666D01*
X19990476Y-33819047D01*
X19895238Y-33723809D01*
X19847619Y-33580952D01*
X19847619Y-33485714D01*
X20847619Y-34819047D02*
X20847619Y-34342857D01*
X20371428Y-34295238D01*
X20419047Y-34342857D01*
X20466666Y-34438095D01*
X20466666Y-34676190D01*
X20419047Y-34771428D01*
X20371428Y-34819047D01*
X20276190Y-34866666D01*
X20038095Y-34866666D01*
X19942857Y-34819047D01*
X19895238Y-34771428D01*
X19847619Y-34676190D01*
X19847619Y-34438095D01*
X19895238Y-34342857D01*
X19942857Y-34295238D01*
X2252380Y-40083333D02*
X2966666Y-40083333D01*
X3109523Y-40130952D01*
X3204761Y-40226190D01*
X3252380Y-40369047D01*
X3252380Y-40464285D01*
X2347619Y-39654761D02*
X2300000Y-39607142D01*
X2252380Y-39511904D01*
X2252380Y-39273809D01*
X2300000Y-39178571D01*
X2347619Y-39130952D01*
X2442857Y-39083333D01*
X2538095Y-39083333D01*
X2680952Y-39130952D01*
X3252380Y-39702380D01*
X3252380Y-39083333D01*
D13*
X17014285Y-5180952D02*
X17014285Y-4780952D01*
X17109523Y-4780952D01*
X17166666Y-4800000D01*
X17204761Y-4838095D01*
X17223809Y-4876190D01*
X17242857Y-4952380D01*
X17242857Y-5009523D01*
X17223809Y-5085714D01*
X17204761Y-5123809D01*
X17166666Y-5161904D01*
X17109523Y-5180952D01*
X17014285Y-5180952D01*
X17623809Y-5180952D02*
X17395238Y-5180952D01*
X17509523Y-5180952D02*
X17509523Y-4780952D01*
X17471428Y-4838095D01*
X17433333Y-4876190D01*
X17395238Y-4895238D01*
X17757142Y-4780952D02*
X18004761Y-4780952D01*
X17871428Y-4933333D01*
X17928571Y-4933333D01*
X17966666Y-4952380D01*
X17985714Y-4971428D01*
X18004761Y-5009523D01*
X18004761Y-5104761D01*
X17985714Y-5142857D01*
X17966666Y-5161904D01*
X17928571Y-5180952D01*
X17814285Y-5180952D01*
X17776190Y-5161904D01*
X17757142Y-5142857D01*
D10*
X10012380Y-28135238D02*
X9536190Y-28468571D01*
X10012380Y-28706666D02*
X9012380Y-28706666D01*
X9012380Y-28325714D01*
X9060000Y-28230476D01*
X9107619Y-28182857D01*
X9202857Y-28135238D01*
X9345714Y-28135238D01*
X9440952Y-28182857D01*
X9488571Y-28230476D01*
X9536190Y-28325714D01*
X9536190Y-28706666D01*
X9012380Y-27849523D02*
X10012380Y-27516190D01*
X9012380Y-27182857D01*
X10012380Y-26325714D02*
X10012380Y-26897142D01*
X10012380Y-26611428D02*
X9012380Y-26611428D01*
X9155238Y-26706666D01*
X9250476Y-26801904D01*
X9298095Y-26897142D01*
X64238095Y-5452380D02*
X64238095Y-4452380D01*
X64238095Y-4928571D02*
X64809523Y-4928571D01*
X64809523Y-5452380D02*
X64809523Y-4452380D01*
X65238095Y-4547619D02*
X65285714Y-4500000D01*
X65380952Y-4452380D01*
X65619047Y-4452380D01*
X65714285Y-4500000D01*
X65761904Y-4547619D01*
X65809523Y-4642857D01*
X65809523Y-4738095D01*
X65761904Y-4880952D01*
X65190476Y-5452380D01*
X65809523Y-5452380D01*
X57447380Y-22338333D02*
X58161666Y-22338333D01*
X58304523Y-22385952D01*
X58399761Y-22481190D01*
X58447380Y-22624047D01*
X58447380Y-22719285D01*
X57780714Y-21433571D02*
X58447380Y-21433571D01*
X57399761Y-21671666D02*
X58114047Y-21909761D01*
X58114047Y-21290714D01*
D11*
X44282857Y-43792619D02*
X44196190Y-43668809D01*
X44134285Y-43792619D02*
X44134285Y-43532619D01*
X44233333Y-43532619D01*
X44258095Y-43545000D01*
X44270476Y-43557380D01*
X44282857Y-43582142D01*
X44282857Y-43619285D01*
X44270476Y-43644047D01*
X44258095Y-43656428D01*
X44233333Y-43668809D01*
X44134285Y-43668809D01*
X44381904Y-43557380D02*
X44394285Y-43545000D01*
X44419047Y-43532619D01*
X44480952Y-43532619D01*
X44505714Y-43545000D01*
X44518095Y-43557380D01*
X44530476Y-43582142D01*
X44530476Y-43606904D01*
X44518095Y-43644047D01*
X44369523Y-43792619D01*
X44530476Y-43792619D01*
X44617142Y-43532619D02*
X44790476Y-43532619D01*
X44679047Y-43792619D01*
D13*
X49704761Y-40180952D02*
X49704761Y-39780952D01*
X49800000Y-39780952D01*
X49857142Y-39800000D01*
X49895238Y-39838095D01*
X49914285Y-39876190D01*
X49933333Y-39952380D01*
X49933333Y-40009523D01*
X49914285Y-40085714D01*
X49895238Y-40123809D01*
X49857142Y-40161904D01*
X49800000Y-40180952D01*
X49704761Y-40180952D01*
X50161904Y-39952380D02*
X50123809Y-39933333D01*
X50104761Y-39914285D01*
X50085714Y-39876190D01*
X50085714Y-39857142D01*
X50104761Y-39819047D01*
X50123809Y-39800000D01*
X50161904Y-39780952D01*
X50238095Y-39780952D01*
X50276190Y-39800000D01*
X50295238Y-39819047D01*
X50314285Y-39857142D01*
X50314285Y-39876190D01*
X50295238Y-39914285D01*
X50276190Y-39933333D01*
X50238095Y-39952380D01*
X50161904Y-39952380D01*
X50123809Y-39971428D01*
X50104761Y-39990476D01*
X50085714Y-40028571D01*
X50085714Y-40104761D01*
X50104761Y-40142857D01*
X50123809Y-40161904D01*
X50161904Y-40180952D01*
X50238095Y-40180952D01*
X50276190Y-40161904D01*
X50295238Y-40142857D01*
X50314285Y-40104761D01*
X50314285Y-40028571D01*
X50295238Y-39990476D01*
X50276190Y-39971428D01*
X50238095Y-39952380D01*
D14*
X23182023Y-51250238D02*
X23151547Y-51235000D01*
X23121071Y-51204523D01*
X23075357Y-51158809D01*
X23044880Y-51143571D01*
X23014404Y-51143571D01*
X23029642Y-51219761D02*
X22999166Y-51204523D01*
X22968690Y-51174047D01*
X22953452Y-51113095D01*
X22953452Y-51006428D01*
X22968690Y-50945476D01*
X22999166Y-50915000D01*
X23029642Y-50899761D01*
X23090595Y-50899761D01*
X23121071Y-50915000D01*
X23151547Y-50945476D01*
X23166785Y-51006428D01*
X23166785Y-51113095D01*
X23151547Y-51174047D01*
X23121071Y-51204523D01*
X23090595Y-51219761D01*
X23029642Y-51219761D01*
X23273452Y-50899761D02*
X23486785Y-50899761D01*
X23349642Y-51219761D01*
D10*
X64238095Y-65452380D02*
X64238095Y-64452380D01*
X64238095Y-64928571D02*
X64809523Y-64928571D01*
X64809523Y-65452380D02*
X64809523Y-64452380D01*
X65190476Y-64452380D02*
X65809523Y-64452380D01*
X65476190Y-64833333D01*
X65619047Y-64833333D01*
X65714285Y-64880952D01*
X65761904Y-64928571D01*
X65809523Y-65023809D01*
X65809523Y-65261904D01*
X65761904Y-65357142D01*
X65714285Y-65404761D01*
X65619047Y-65452380D01*
X65333333Y-65452380D01*
X65238095Y-65404761D01*
X65190476Y-65357142D01*
D11*
X25817619Y-52017142D02*
X25693809Y-52103809D01*
X25817619Y-52165714D02*
X25557619Y-52165714D01*
X25557619Y-52066666D01*
X25570000Y-52041904D01*
X25582380Y-52029523D01*
X25607142Y-52017142D01*
X25644285Y-52017142D01*
X25669047Y-52029523D01*
X25681428Y-52041904D01*
X25693809Y-52066666D01*
X25693809Y-52165714D01*
X25817619Y-51769523D02*
X25817619Y-51918095D01*
X25817619Y-51843809D02*
X25557619Y-51843809D01*
X25594761Y-51868571D01*
X25619523Y-51893333D01*
X25631904Y-51918095D01*
X25557619Y-51534285D02*
X25557619Y-51658095D01*
X25681428Y-51670476D01*
X25669047Y-51658095D01*
X25656666Y-51633333D01*
X25656666Y-51571428D01*
X25669047Y-51546666D01*
X25681428Y-51534285D01*
X25706190Y-51521904D01*
X25768095Y-51521904D01*
X25792857Y-51534285D01*
X25805238Y-51546666D01*
X25817619Y-51571428D01*
X25817619Y-51633333D01*
X25805238Y-51658095D01*
X25792857Y-51670476D01*
D14*
X23169523Y-47775238D02*
X23139047Y-47760000D01*
X23108571Y-47729523D01*
X23062857Y-47683809D01*
X23032380Y-47668571D01*
X23001904Y-47668571D01*
X23017142Y-47744761D02*
X22986666Y-47729523D01*
X22956190Y-47699047D01*
X22940952Y-47638095D01*
X22940952Y-47531428D01*
X22956190Y-47470476D01*
X22986666Y-47440000D01*
X23017142Y-47424761D01*
X23078095Y-47424761D01*
X23108571Y-47440000D01*
X23139047Y-47470476D01*
X23154285Y-47531428D01*
X23154285Y-47638095D01*
X23139047Y-47699047D01*
X23108571Y-47729523D01*
X23078095Y-47744761D01*
X23017142Y-47744761D01*
X23428571Y-47424761D02*
X23367619Y-47424761D01*
X23337142Y-47440000D01*
X23321904Y-47455238D01*
X23291428Y-47500952D01*
X23276190Y-47561904D01*
X23276190Y-47683809D01*
X23291428Y-47714285D01*
X23306666Y-47729523D01*
X23337142Y-47744761D01*
X23398095Y-47744761D01*
X23428571Y-47729523D01*
X23443809Y-47714285D01*
X23459047Y-47683809D01*
X23459047Y-47607619D01*
X23443809Y-47577142D01*
X23428571Y-47561904D01*
X23398095Y-47546666D01*
X23337142Y-47546666D01*
X23306666Y-47561904D01*
X23291428Y-47577142D01*
X23276190Y-47607619D01*
D11*
X59497619Y-52897142D02*
X59373809Y-52983809D01*
X59497619Y-53045714D02*
X59237619Y-53045714D01*
X59237619Y-52946666D01*
X59250000Y-52921904D01*
X59262380Y-52909523D01*
X59287142Y-52897142D01*
X59324285Y-52897142D01*
X59349047Y-52909523D01*
X59361428Y-52921904D01*
X59373809Y-52946666D01*
X59373809Y-53045714D01*
X59262380Y-52798095D02*
X59250000Y-52785714D01*
X59237619Y-52760952D01*
X59237619Y-52699047D01*
X59250000Y-52674285D01*
X59262380Y-52661904D01*
X59287142Y-52649523D01*
X59311904Y-52649523D01*
X59349047Y-52661904D01*
X59497619Y-52810476D01*
X59497619Y-52649523D01*
X59237619Y-52426666D02*
X59237619Y-52476190D01*
X59250000Y-52500952D01*
X59262380Y-52513333D01*
X59299523Y-52538095D01*
X59349047Y-52550476D01*
X59448095Y-52550476D01*
X59472857Y-52538095D01*
X59485238Y-52525714D01*
X59497619Y-52500952D01*
X59497619Y-52451428D01*
X59485238Y-52426666D01*
X59472857Y-52414285D01*
X59448095Y-52401904D01*
X59386190Y-52401904D01*
X59361428Y-52414285D01*
X59349047Y-52426666D01*
X59336666Y-52451428D01*
X59336666Y-52500952D01*
X59349047Y-52525714D01*
X59361428Y-52538095D01*
X59386190Y-52550476D01*
D10*
X9238095Y-14952380D02*
X9238095Y-15761904D01*
X9285714Y-15857142D01*
X9333333Y-15904761D01*
X9428571Y-15952380D01*
X9619047Y-15952380D01*
X9714285Y-15904761D01*
X9761904Y-15857142D01*
X9809523Y-15761904D01*
X9809523Y-14952380D01*
X10761904Y-14952380D02*
X10285714Y-14952380D01*
X10238095Y-15428571D01*
X10285714Y-15380952D01*
X10380952Y-15333333D01*
X10619047Y-15333333D01*
X10714285Y-15380952D01*
X10761904Y-15428571D01*
X10809523Y-15523809D01*
X10809523Y-15761904D01*
X10761904Y-15857142D01*
X10714285Y-15904761D01*
X10619047Y-15952380D01*
X10380952Y-15952380D01*
X10285714Y-15904761D01*
X10238095Y-15857142D01*
X11666666Y-59452380D02*
X11666666Y-60166666D01*
X11619047Y-60309523D01*
X11523809Y-60404761D01*
X11380952Y-60452380D01*
X11285714Y-60452380D01*
X12047619Y-59452380D02*
X12666666Y-59452380D01*
X12333333Y-59833333D01*
X12476190Y-59833333D01*
X12571428Y-59880952D01*
X12619047Y-59928571D01*
X12666666Y-60023809D01*
X12666666Y-60261904D01*
X12619047Y-60357142D01*
X12571428Y-60404761D01*
X12476190Y-60452380D01*
X12190476Y-60452380D01*
X12095238Y-60404761D01*
X12047619Y-60357142D01*
D15*
X15600000Y-48850000D02*
X15600000Y-55150000D01*
X15600000Y-55150000D02*
X17200000Y-55150000D01*
X9600000Y-48050000D02*
X9600000Y-55950000D01*
X17200000Y-48850000D02*
X15600000Y-48850000D01*
X15600000Y-50500000D02*
X14892893Y-51000000D01*
X17200000Y-55950000D02*
X9600000Y-55950000D01*
X17200000Y-48050000D02*
X17200000Y-48850000D01*
X14892893Y-51000000D02*
X15600000Y-51500000D01*
X17200000Y-55150000D02*
X17200000Y-55950000D01*
X17200000Y-48050000D02*
X9600000Y-48050000D01*
X25405000Y-47850000D02*
X25945000Y-47850000D01*
X25405000Y-48900000D02*
X25405000Y-47850000D01*
X25945000Y-48900000D02*
X25405000Y-48900000D01*
X25945000Y-47850000D02*
X25945000Y-48900000D01*
X67100000Y-20300000D02*
X67100000Y-18800000D01*
X67100000Y-19300000D02*
X66600000Y-19300000D01*
X62400000Y-23200000D02*
X63800000Y-24600000D01*
X67100000Y-23700000D02*
X67100000Y-25200000D01*
X66600000Y-18800000D02*
X66600000Y-19800000D01*
X62900000Y-23700000D02*
X62900000Y-25200000D01*
X64000000Y-24000000D02*
X63000000Y-23000000D01*
X62900000Y-24700000D02*
X63400000Y-24700000D01*
X62900000Y-18800000D02*
X63400000Y-18800000D01*
X63400000Y-25200000D02*
X63400000Y-24200000D01*
X67000000Y-21000000D02*
X67000000Y-23000000D01*
X67100000Y-24700000D02*
X66600000Y-24700000D01*
X66000000Y-24000000D02*
X64000000Y-24000000D01*
X63000000Y-23000000D02*
X63000000Y-21000000D01*
X66200000Y-24600000D02*
X67600000Y-23200000D01*
X63800000Y-24600000D02*
X66200000Y-24600000D01*
X62900000Y-19300000D02*
X63400000Y-19300000D01*
X62900000Y-20300000D02*
X62900000Y-18800000D01*
X66600000Y-25200000D02*
X66600000Y-24200000D01*
X66000000Y-20000000D02*
X67000000Y-21000000D01*
X62900000Y-25200000D02*
X63400000Y-25200000D01*
X67000000Y-23000000D02*
X66000000Y-24000000D01*
X64000000Y-20000000D02*
X66000000Y-20000000D01*
X63000000Y-21000000D02*
X64000000Y-20000000D01*
X63400000Y-18800000D02*
X63400000Y-19800000D01*
X63800000Y-19400000D02*
X62400000Y-20800000D01*
X67100000Y-25200000D02*
X66600000Y-25200000D01*
X66200000Y-19400000D02*
X63800000Y-19400000D01*
X67600000Y-20800000D02*
X66200000Y-19400000D01*
X67600000Y-23200000D02*
X67600000Y-20800000D01*
X62400000Y-20800000D02*
X62400000Y-23200000D01*
X67100000Y-18800000D02*
X66600000Y-18800000D01*
X66000000Y-22000000D02*
G75*
G03*
X66000000Y-22000000I-1000000J0D01*
G01*
X6950000Y-34450000D02*
X6950000Y-36450000D01*
X5750000Y-36450000D02*
X5750000Y-34450000D01*
X5750000Y-34450000D02*
X6950000Y-34450000D01*
X6950000Y-36450000D02*
X5750000Y-36450000D01*
X37450000Y-63775000D02*
X36450000Y-63775000D01*
X37450000Y-63275000D02*
X37450000Y-63775000D01*
X36450000Y-63775000D02*
X36450000Y-63275000D01*
X36450000Y-63275000D02*
X37450000Y-63275000D01*
X44200000Y-45400000D02*
X45500000Y-45400000D01*
X45800000Y-45100000D02*
X45800000Y-44600000D01*
X44200000Y-44600000D02*
X44200000Y-45400000D01*
X45500000Y-45400000D02*
X45800000Y-45100000D01*
X45800000Y-44600000D02*
X44200000Y-44600000D01*
X47605000Y-37370000D02*
X46555000Y-37370000D01*
X47605000Y-36830000D02*
X47605000Y-37370000D01*
X46555000Y-37370000D02*
X46555000Y-36830000D01*
X46555000Y-36830000D02*
X47605000Y-36830000D01*
X8425000Y-46400000D02*
X10025000Y-46400000D01*
X10025000Y-46400000D02*
X10025000Y-45600000D01*
X8725000Y-45600000D02*
X8425000Y-45900000D01*
X8425000Y-45900000D02*
X8425000Y-46400000D01*
X10025000Y-45600000D02*
X8725000Y-45600000D01*
X18300000Y-37900000D02*
X18300000Y-37100000D01*
X16700000Y-37900000D02*
X18300000Y-37900000D01*
X16700000Y-37400000D02*
X16700000Y-37900000D01*
X18300000Y-37100000D02*
X17000000Y-37100000D01*
X17000000Y-37100000D02*
X16700000Y-37400000D01*
X30000000Y-8250000D02*
X30000000Y-7250000D01*
X29000000Y-6250000D02*
X27000000Y-6250000D01*
X33000000Y-6250000D02*
X31000000Y-6250000D01*
X31000000Y-7250000D02*
X29000000Y-7250000D01*
X32000000Y-1000000D02*
X28000000Y-1000000D01*
X28000000Y-1000000D02*
X28000000Y3700000D01*
X28000000Y3700000D02*
X32000000Y3700000D01*
X32000000Y3700000D02*
X32000000Y-1000000D01*
X25000000Y-10000000D02*
X35000000Y-10000000D01*
X35000000Y-10000000D02*
X35000000Y-1000000D01*
X35000000Y-1000000D02*
X25000000Y-1000000D01*
X25000000Y-1000000D02*
X25000000Y-10000000D01*
X51700000Y-37400000D02*
X51700000Y-37900000D01*
X51700000Y-37900000D02*
X53300000Y-37900000D01*
X53300000Y-37900000D02*
X53300000Y-37100000D01*
X52000000Y-37100000D02*
X51700000Y-37400000D01*
X53300000Y-37100000D02*
X52000000Y-37100000D01*
X43310000Y-37350000D02*
X43310000Y-36850000D01*
X44310000Y-36850000D02*
X44310000Y-37350000D01*
X44310000Y-37350000D02*
X43310000Y-37350000D01*
X43310000Y-36850000D02*
X44310000Y-36850000D01*
X20800000Y-2100000D02*
X19500000Y-2100000D01*
X20800000Y-2900000D02*
X20800000Y-2100000D01*
X19200000Y-2400000D02*
X19200000Y-2900000D01*
X19200000Y-2900000D02*
X20800000Y-2900000D01*
X19500000Y-2100000D02*
X19200000Y-2400000D01*
X52180000Y-13350000D02*
X51680000Y-13850000D01*
X50180000Y-13850000D02*
X50180000Y-11850000D01*
X52180000Y-11850000D02*
X52180000Y-13350000D01*
X51680000Y-13850000D02*
X50180000Y-13850000D01*
X50180000Y-11850000D02*
X52180000Y-11850000D01*
X19200000Y-40400000D02*
X20500000Y-40400000D01*
X19200000Y-39600000D02*
X19200000Y-40400000D01*
X20800000Y-40100000D02*
X20800000Y-39600000D01*
X20800000Y-39600000D02*
X19200000Y-39600000D01*
X20500000Y-40400000D02*
X20800000Y-40100000D01*
X13075000Y-45600000D02*
X11775000Y-45600000D01*
X11775000Y-45600000D02*
X11475000Y-45900000D01*
X11475000Y-45900000D02*
X11475000Y-46400000D01*
X11475000Y-46400000D02*
X13075000Y-46400000D01*
X13075000Y-46400000D02*
X13075000Y-45600000D01*
X52380000Y-11300000D02*
X51380000Y-11300000D01*
X51380000Y-11300000D02*
X51380000Y-10800000D01*
X52380000Y-10800000D02*
X52380000Y-11300000D01*
X51380000Y-10800000D02*
X52380000Y-10800000D01*
X8550000Y-38650000D02*
X8550000Y-40250000D01*
X5650000Y-38650000D02*
X8550000Y-38650000D01*
X5650000Y-39850000D02*
X5650000Y-38650000D01*
X6050000Y-40250000D02*
X5650000Y-39850000D01*
X8550000Y-40250000D02*
X6050000Y-40250000D01*
X16950000Y-67280000D02*
X17450000Y-67280000D01*
X16950000Y-68280000D02*
X16950000Y-67280000D01*
X17450000Y-68280000D02*
X16950000Y-68280000D01*
X17450000Y-67280000D02*
X17450000Y-68280000D01*
X11500000Y-21700000D02*
X11500000Y-28300000D01*
X11500000Y-28300000D02*
X18500000Y-28300000D01*
X18500000Y-28300000D02*
X18500000Y-21700000D01*
X15901000Y-25076000D02*
X14776000Y-25076000D01*
X14776000Y-23799000D02*
X14776000Y-24924000D01*
X13499000Y-24924000D02*
X14624000Y-24924000D01*
X14624000Y-25076000D02*
X13499000Y-25076000D01*
X15901000Y-24924000D02*
X15901000Y-25076000D01*
X14624000Y-26201000D02*
X14624000Y-25076000D01*
X14624000Y-23799000D02*
X14776000Y-23799000D01*
X14624000Y-24924000D02*
X14624000Y-23799000D01*
X14776000Y-26201000D02*
X14624000Y-26201000D01*
X18500000Y-21700000D02*
X11500000Y-21700000D01*
X11500000Y-21700000D02*
X15000000Y-21700000D01*
X13499000Y-25076000D02*
X13499000Y-24924000D01*
X14776000Y-24924000D02*
X15901000Y-24924000D01*
X14776000Y-25076000D02*
X14776000Y-26201000D01*
X16200000Y-25000000D02*
G75*
G03*
X16200000Y-25000000I-1500000J0D01*
G01*
X41950000Y-56300000D02*
X42450000Y-56300000D01*
X41950000Y-56600000D02*
X41950000Y-56300000D01*
X27550000Y-56300000D02*
X27550000Y-55600000D01*
X28050000Y-56300000D02*
X27550000Y-56300000D01*
X41250000Y-61200000D02*
X40750000Y-60492893D01*
X42450000Y-55600000D02*
X35000000Y-55600000D01*
X42550000Y-61200000D02*
X42550000Y-56600000D01*
X40750000Y-60492893D02*
X40250000Y-61200000D01*
X28050000Y-56600000D02*
X28050000Y-56300000D01*
X27450000Y-56600000D02*
X28050000Y-56600000D01*
X35000000Y-61200000D02*
X27450000Y-61200000D01*
X42550000Y-56600000D02*
X41950000Y-56600000D01*
X42450000Y-56300000D02*
X42450000Y-55600000D01*
X27550000Y-55600000D02*
X35000000Y-55600000D01*
X35000000Y-61200000D02*
X42550000Y-61200000D01*
X27450000Y-61200000D02*
X27450000Y-56600000D01*
X50800000Y-2100000D02*
X49500000Y-2100000D01*
X49500000Y-2100000D02*
X49200000Y-2400000D01*
X50800000Y-2900000D02*
X50800000Y-2100000D01*
X49200000Y-2900000D02*
X50800000Y-2900000D01*
X49200000Y-2400000D02*
X49200000Y-2900000D01*
X16470000Y-68325000D02*
X15930000Y-68325000D01*
X15930000Y-68325000D02*
X15930000Y-67275000D01*
X15930000Y-67275000D02*
X16470000Y-67275000D01*
X16470000Y-67275000D02*
X16470000Y-68325000D01*
X52000000Y-4600000D02*
X51700000Y-4900000D01*
X51700000Y-4900000D02*
X51700000Y-5400000D01*
X53300000Y-4600000D02*
X52000000Y-4600000D01*
X51700000Y-5400000D02*
X53300000Y-5400000D01*
X53300000Y-5400000D02*
X53300000Y-4600000D01*
X41000000Y-8250000D02*
X41000000Y-7250000D01*
X42000000Y-7250000D02*
X40000000Y-7250000D01*
X40000000Y-6250000D02*
X38000000Y-6250000D01*
X44000000Y-6250000D02*
X42000000Y-6250000D01*
X43000000Y-1000000D02*
X39000000Y-1000000D01*
X39000000Y-1000000D02*
X39000000Y3700000D01*
X39000000Y3700000D02*
X43000000Y3700000D01*
X43000000Y3700000D02*
X43000000Y-1000000D01*
X36000000Y-10000000D02*
X46000000Y-10000000D01*
X46000000Y-10000000D02*
X46000000Y-1000000D01*
X46000000Y-1000000D02*
X36000000Y-1000000D01*
X36000000Y-1000000D02*
X36000000Y-10000000D01*
X62900000Y-14700000D02*
X62900000Y-16200000D01*
X67100000Y-14700000D02*
X67100000Y-16200000D01*
X66600000Y-16200000D02*
X66600000Y-15200000D01*
X66000000Y-11000000D02*
X67000000Y-12000000D01*
X62900000Y-11300000D02*
X62900000Y-9800000D01*
X67100000Y-10300000D02*
X66600000Y-10300000D01*
X67100000Y-9800000D02*
X66600000Y-9800000D01*
X67000000Y-14000000D02*
X66000000Y-15000000D01*
X62900000Y-15700000D02*
X63400000Y-15700000D01*
X62900000Y-9800000D02*
X63400000Y-9800000D01*
X63400000Y-16200000D02*
X63400000Y-15200000D01*
X62400000Y-11800000D02*
X62400000Y-14200000D01*
X67600000Y-11800000D02*
X66200000Y-10400000D01*
X63800000Y-15600000D02*
X66200000Y-15600000D01*
X63000000Y-12000000D02*
X64000000Y-11000000D01*
X66200000Y-10400000D02*
X63800000Y-10400000D01*
X64000000Y-11000000D02*
X66000000Y-11000000D01*
X63800000Y-10400000D02*
X62400000Y-11800000D01*
X62400000Y-14200000D02*
X63800000Y-15600000D01*
X63400000Y-9800000D02*
X63400000Y-10800000D01*
X63000000Y-14000000D02*
X63000000Y-12000000D01*
X66200000Y-15600000D02*
X67600000Y-14200000D01*
X67000000Y-12000000D02*
X67000000Y-14000000D01*
X66000000Y-15000000D02*
X64000000Y-15000000D01*
X67100000Y-15700000D02*
X66600000Y-15700000D01*
X62900000Y-10300000D02*
X63400000Y-10300000D01*
X67100000Y-16200000D02*
X66600000Y-16200000D01*
X66600000Y-9800000D02*
X66600000Y-10800000D01*
X67100000Y-11300000D02*
X67100000Y-9800000D01*
X62900000Y-16200000D02*
X63400000Y-16200000D01*
X64000000Y-15000000D02*
X63000000Y-14000000D01*
X67600000Y-14200000D02*
X67600000Y-11800000D01*
X66000000Y-13000000D02*
G75*
G03*
X66000000Y-13000000I-1000000J0D01*
G01*
X-700000Y-43400000D02*
X-700000Y-36100000D01*
X4300000Y-43400000D02*
X-700000Y-43400000D01*
X4300000Y-37100000D02*
X4300000Y-43400000D01*
X3300000Y-36100000D02*
X4300000Y-37100000D01*
X-700000Y-36100000D02*
X3300000Y-36100000D01*
X16700000Y-4900000D02*
X16700000Y-5400000D01*
X17000000Y-4600000D02*
X16700000Y-4900000D01*
X18300000Y-4600000D02*
X17000000Y-4600000D01*
X16700000Y-5400000D02*
X18300000Y-5400000D01*
X18300000Y-5400000D02*
X18300000Y-4600000D01*
X6624000Y-25076000D02*
X5499000Y-25076000D01*
X6624000Y-23799000D02*
X6776000Y-23799000D01*
X3500000Y-21700000D02*
X7000000Y-21700000D01*
X6776000Y-25076000D02*
X6776000Y-26201000D01*
X3500000Y-28300000D02*
X10500000Y-28300000D01*
X6776000Y-24924000D02*
X7901000Y-24924000D01*
X3500000Y-21700000D02*
X3500000Y-28300000D01*
X5499000Y-25076000D02*
X5499000Y-24924000D01*
X6776000Y-23799000D02*
X6776000Y-24924000D01*
X7901000Y-25076000D02*
X6776000Y-25076000D01*
X6624000Y-24924000D02*
X6624000Y-23799000D01*
X7901000Y-24924000D02*
X7901000Y-25076000D01*
X6776000Y-26201000D02*
X6624000Y-26201000D01*
X5499000Y-24924000D02*
X6624000Y-24924000D01*
X6624000Y-26201000D02*
X6624000Y-25076000D01*
X10500000Y-21700000D02*
X3500000Y-21700000D01*
X10500000Y-28300000D02*
X10500000Y-21700000D01*
X8200000Y-25000000D02*
G75*
G03*
X8200000Y-25000000I-1500000J0D01*
G01*
X55455000Y-10575000D02*
X56725000Y-9305000D01*
X60535000Y-34705000D02*
X55455000Y-34705000D01*
X60535000Y-9305000D02*
X60535000Y-34705000D01*
X55455000Y-34705000D02*
X55455000Y-10575000D01*
X56725000Y-9305000D02*
X60535000Y-9305000D01*
X43925000Y-43945000D02*
X43925000Y-43405000D01*
X44975000Y-43405000D02*
X44975000Y-43945000D01*
X44975000Y-43945000D02*
X43925000Y-43945000D01*
X43925000Y-43405000D02*
X44975000Y-43405000D01*
X50800000Y-40100000D02*
X50800000Y-39600000D01*
X50500000Y-40400000D02*
X50800000Y-40100000D01*
X49200000Y-40400000D02*
X50500000Y-40400000D01*
X49200000Y-39600000D02*
X49200000Y-40400000D01*
X50800000Y-39600000D02*
X49200000Y-39600000D01*
X23537500Y-52525000D02*
X22562500Y-52525000D01*
X22562500Y-52525000D02*
X22562500Y-49625000D01*
X22562500Y-49625000D02*
X23862500Y-49625000D01*
X23862500Y-52200000D02*
X23537500Y-52525000D01*
X23862500Y-49625000D02*
X23862500Y-52200000D01*
X25430000Y-51325000D02*
X25970000Y-51325000D01*
X25970000Y-52375000D02*
X25430000Y-52375000D01*
X25970000Y-51325000D02*
X25970000Y-52375000D01*
X25430000Y-52375000D02*
X25430000Y-51325000D01*
X22550000Y-46150000D02*
X23850000Y-46150000D01*
X23525000Y-49050000D02*
X22550000Y-49050000D01*
X23850000Y-46150000D02*
X23850000Y-48725000D01*
X23850000Y-48725000D02*
X23525000Y-49050000D01*
X22550000Y-49050000D02*
X22550000Y-46150000D01*
X59650000Y-53255000D02*
X59110000Y-53255000D01*
X59110000Y-52205000D02*
X59650000Y-52205000D01*
X59110000Y-53255000D02*
X59110000Y-52205000D01*
X59650000Y-52205000D02*
X59650000Y-53255000D01*
X15500000Y-14000000D02*
G75*
G03*
X15500000Y-14000000I-5500000J0D01*
G01*
M02*
